<svg width="48" height="55" viewBox="0 0 48 55" fill="none" xmlns="http://www.w3.org/2000/svg">
<path d="M42.3598 15.8202C43.7189 16.0602 44.6228 17.3602 44.3788 18.7202C44.2628 19.3702 44.1828 19.8302 44.1308 20.1902C44.4808 20.2602 44.9458 20.3502 45.5898 20.4602C46.9488 20.7102 47.8528 22.0103 47.6088 23.3603C47.4648 24.1703 46.9518 24.8103 46.2778 25.1503C46.7908 25.7103 47.0488 26.4903 46.9048 27.2903C46.6608 28.6503 45.3609 29.5503 44.0029 29.3103C43.3589 29.1903 42.8918 29.1103 42.5378 29.0603C42.4638 29.4103 42.3769 29.8703 42.2609 30.5203C42.0169 31.8803 40.7178 32.7803 39.3588 32.5403C38.6618 32.4103 38.0858 32.0102 37.7218 31.4602C37.1908 31.8502 36.5118 32.0303 35.8158 31.9003C34.4568 31.6603 33.5528 30.3603 33.7968 29.0003C33.9128 28.3503 33.9928 27.8903 34.0448 27.5303C33.6948 27.4603 33.2299 27.3703 32.5849 27.2603C31.2269 27.0103 30.3228 25.7103 30.5658 24.3503C30.7098 23.5503 31.2218 22.9102 31.8958 22.5702C31.3838 22.0102 31.1268 21.2303 31.2708 20.4303C31.5148 19.0703 32.8139 18.1703 34.1729 18.4103C34.8169 18.5303 35.2828 18.6103 35.6378 18.6603C35.7118 18.3103 35.7989 17.8502 35.9139 17.2002C36.1579 15.8402 37.4579 14.9403 38.8169 15.1803C39.5129 15.3103 40.0868 15.7103 40.4518 16.2603C40.9828 15.8703 41.6628 15.6902 42.3598 15.8202Z" fill="white"/>
<path d="M37.179 17.7299C37.277 17.1799 37.797 16.82 38.34 16.92C38.884 17.02 39.245 17.5399 39.148 18.0799C38.976 19.0399 38.833 19.8399 38.653 20.4499C38.474 21.0499 38.202 21.6799 37.624 22.0799C37.046 22.4799 36.366 22.5199 35.74 22.4799C35.107 22.4399 34.303 22.2899 33.343 22.1199C32.8 22.0199 32.438 21.4999 32.536 20.9599C32.633 20.4099 33.153 20.05 33.697 20.15C34.705 20.33 35.378 20.4499 35.874 20.4799C36.377 20.5199 36.48 20.4399 36.482 20.4399C36.485 20.4399 36.591 20.37 36.735 19.88C36.876 19.41 36.998 18.7299 37.179 17.7299Z" fill="#DC3412"/>
<path d="M42.691 18.7103C42.789 18.1703 42.427 17.6504 41.883 17.5504C41.34 17.4604 40.82 17.8203 40.723 18.3603C40.55 19.3203 40.404 20.1204 40.362 20.7604C40.32 21.3804 40.358 22.0604 40.76 22.6404C41.162 23.2204 41.786 23.4904 42.388 23.6704C42.996 23.8504 43.8 23.9904 44.761 24.1704C45.304 24.2604 45.824 23.9003 45.921 23.3603C46.019 22.8103 45.657 22.2903 45.114 22.2003C44.106 22.0203 43.433 21.8904 42.956 21.7504C42.473 21.6104 42.403 21.5004 42.401 21.5004C42.401 21.5004 42.324 21.4004 42.358 20.8904C42.391 20.4004 42.51 19.7203 42.691 18.7103Z" fill="#DC3412"/>
<path d="M35.0617 29.5205C34.9637 30.0705 35.3257 30.5905 35.8687 30.6805C36.4127 30.7805 36.9327 30.4204 37.0297 29.8804C37.2027 28.9204 37.3487 28.1104 37.3907 27.4804C37.4327 26.8504 37.3947 26.1704 36.9927 25.5904C36.5907 25.0204 35.9667 24.7404 35.3647 24.5704C34.7567 24.3904 33.9527 24.2404 32.9917 24.0704C32.4487 23.9704 31.9287 24.3304 31.8307 24.8804C31.7337 25.4204 32.0947 25.9405 32.6387 26.0405C33.6467 26.2205 34.3197 26.3404 34.7967 26.4804C35.2797 26.6304 35.3497 26.7304 35.3517 26.7404C35.3517 26.7404 35.4287 26.8404 35.3947 27.3404C35.3617 27.8404 35.2427 28.5105 35.0617 29.5205Z" fill="#DC3412"/>
<path d="M40.5739 30.5103C40.4759 31.0603 39.9559 31.4202 39.4129 31.3202C38.8689 31.2202 38.5069 30.7003 38.6049 30.1603C38.7769 29.2003 38.9199 28.3903 39.0999 27.7903C39.2789 27.1803 39.5509 26.5603 40.1289 26.1603C40.7069 25.7603 41.3869 25.7203 42.0129 25.7603C42.6459 25.8003 43.4499 25.9502 44.4099 26.1202C44.9529 26.2202 45.3149 26.7403 45.2169 27.2803C45.1199 27.8203 44.5999 28.1902 44.0559 28.0902C43.0479 27.9102 42.3749 27.7903 41.8789 27.7603C41.3759 27.7203 41.2729 27.8003 41.2709 27.8003C41.2679 27.8003 41.1619 27.8702 41.0179 28.3502C40.8769 28.8302 40.7549 29.5003 40.5739 30.5103Z" fill="#DC3412"/>
</svg>
