<svg width="48" height="55" viewBox="0 0 48 55" fill="none" xmlns="http://www.w3.org/2000/svg">
<path d="M37.612 7.82214L33.61 16.7721C33.504 17.0101 33.485 17.2921 33.665 17.4811C34.018 17.8541 34.664 18.1311 35.195 18.2991C35.514 18.3991 35.855 18.3001 36.081 18.0531C37.559 16.4301 40.312 12.6081 41.765 10.5231C41.899 10.3321 41.969 10.0991 41.899 9.87713C41.544 8.75313 40.021 7.8411 38.82 7.3211C38.35 7.1181 37.821 7.35514 37.612 7.82214Z" fill="#FFA629"/>
<path d="M36.9272 7.51561C37.2635 6.76413 38.1157 6.30913 38.9506 6.5703L39.1176 6.6328L39.6098 6.85936C40.115 7.10628 40.6501 7.41302 41.1283 7.77342C41.7493 8.24138 42.3663 8.86817 42.6137 9.65135L42.6596 9.84373C42.7312 10.286 42.5687 10.6841 42.3793 10.9541C40.9324 13.0303 38.1517 16.8922 36.6352 18.5576L35.9662 17.9472L36.6342 18.5596C36.2206 19.0115 35.5795 19.2057 34.9701 19.0146H34.9682C34.4245 18.8426 33.6153 18.5196 33.1205 17.9971L33.1215 17.9961C32.6332 17.482 32.7681 16.8195 32.9252 16.4668V16.4658L36.9272 7.51561ZM36.6352 18.5576L36.6342 18.5596L36.0805 18.0527L36.6352 18.5576ZM38.4115 8.01073C38.3687 8.02892 38.3235 8.06803 38.2963 8.12889L34.3051 17.0527C34.5461 17.2472 34.9685 17.4404 35.4184 17.583C35.4357 17.5884 35.4534 17.5887 35.4701 17.584C35.4874 17.579 35.5083 17.5681 35.5277 17.5469C36.967 15.9659 39.6908 12.1883 41.1498 10.0947L41.1508 10.0928C41.1588 10.0814 41.1631 10.0699 41.1674 10.0615C41.0474 9.73079 40.7328 9.35433 40.225 8.97166C39.7121 8.58516 39.0881 8.25491 38.5219 8.00975V8.00877C38.4865 7.99374 38.4507 7.99411 38.4115 8.01073ZM33.6645 17.4814L33.6596 17.4863L34.1557 17.0156L33.6645 17.4814Z" fill="#DD7C0E"/>
<path d="M43.501 16.4161L38.407 20.485C38.204 20.647 38.073 20.889 38.2 21.105C38.409 21.459 38.87 21.887 39.238 22.198C39.505 22.424 39.884 22.479 40.223 22.354C42.652 21.456 43.865 20.9041 45.846 19.9941C46.08 19.8861 46.281 19.6961 46.28 19.4471C46.274 18.6111 45.468 17.3451 44.815 16.5151C44.501 16.1151 43.911 16.0891 43.501 16.4161Z" fill="#FFA629"/>
<path d="M43.0338 15.8295C43.712 15.2889 44.7897 15.2702 45.4039 16.0522C45.7489 16.4906 46.1405 17.0497 46.4498 17.6215C46.7079 18.0986 46.9556 18.6661 47.0163 19.2104L47.0299 19.4418V19.4438C47.0327 20.1377 46.4891 20.5236 46.1608 20.6752H46.1588L45.8786 20.0639L45.651 19.5707L46.1588 20.6752C44.1712 21.5883 42.9383 22.1494 40.483 23.0571V23.058C39.9141 23.2678 39.246 23.1864 38.7545 22.7709L38.4547 22.5092C38.133 22.2173 37.7661 21.8445 37.5543 21.4858L38.5202 20.9164L38.1998 21.1049L37.5543 21.4858L37.5534 21.4848C37.3541 21.1456 37.3709 20.7851 37.4821 20.5014C37.5852 20.2385 37.7662 20.0369 37.9391 19.8989L43.0329 15.8295H43.0338ZM40.4498 22.9692L40.1012 22.0229L40.4498 22.9692ZM44.1452 16.9409C44.0964 16.9377 44.0295 16.9528 43.9684 17.0014L39.0211 20.9536C39.1357 21.0852 39.2833 21.2337 39.4459 21.3823L39.7223 21.6254C39.7647 21.6614 39.8547 21.69 39.9635 21.6498C42.359 20.7642 43.5521 20.222 45.5163 19.3198C45.4786 19.0887 45.3555 18.7512 45.1305 18.3354C44.8722 17.858 44.5332 17.3703 44.2252 16.9789V16.978C44.211 16.9599 44.1893 16.9438 44.1452 16.9409Z" fill="#DD7C0E"/>
</svg>
