<svg width="48" height="55" viewBox="0 0 48 55" fill="none" xmlns="http://www.w3.org/2000/svg">
<path d="M23.1906 4.6944C22.6413 5.9547 22.2528 8.3067 22.066 9.864C22.0219 10.2312 22.1924 10.5889 22.5002 10.7941L27.9931 14.4561C28.2837 14.6498 28.6543 14.6779 28.9707 14.5303L36.2217 11.1465C36.4262 11.051 36.5997 10.8915 36.6649 10.6755C37.1277 9.1423 36.1772 6.5423 35.3608 4.8498C35.1282 4.3675 34.5623 4.2241 34.1782 4.5971C33.2123 5.5348 31.8074 7.2825 30.9162 8.4477C30.725 8.6977 30.4295 8.8454 30.1148 8.8454H28.204C27.7274 8.8454 27.3247 8.5043 27.1481 8.0615C26.5618 6.5919 25.2558 5.276 24.2736 4.4864C23.9021 4.1877 23.381 4.2574 23.1906 4.6944Z" fill="#CB0B96"/>
<path d="M24.9428 23.5367C20.2388 20.7927 19.0428 12.4892 19.001 7.63601C18.9953 6.97021 19.6535 6.51841 20.2481 6.81811C23.334 8.37371 25.0029 11.3929 25.4813 13.3066C24.3465 8.01111 27.5576 4.54241 29.9369 2.68191C30.4163 2.30711 31.1116 2.48681 31.335 3.05291C32.9325 7.10041 32.4374 11.5348 31.9424 13.845C33.3583 9.95121 36.5682 8.45741 38.7629 7.74981C39.3905 7.54741 40.019 8.03741 40.0047 8.69661C39.8087 17.7341 37.5964 22.3371 35.7114 23.5367C31.404 25.6904 26.1992 24.4341 24.9428 23.5367Z" fill="#FF99E0"/>
<path fill-rule="evenodd" clip-rule="evenodd" d="M29.4749 2.09114C30.338 1.41636 31.62 1.73226 32.0326 2.77769C32.3282 3.52674 32.5554 4.28693 32.7263 5.04403C33.0552 4.67327 33.3721 4.33447 33.6556 4.05926C34.0271 3.69848 34.5227 3.56515 34.9919 3.67146C35.4503 3.77531 35.8285 4.09344 36.0362 4.52416C36.4454 5.37245 36.8927 6.45205 37.1908 7.53255C37.6655 7.33137 38.1192 7.1694 38.5327 7.03608C39.6753 6.66765 40.7794 7.56387 40.7545 8.71296C40.6553 13.2857 40.0457 16.7742 39.2026 19.2939C38.3703 21.7815 37.2739 23.4314 36.114 24.1695L36.0814 24.1903L36.0468 24.2076C33.7366 25.3627 31.2123 25.5929 29.1241 25.4286C28.0766 25.3463 27.1239 25.1636 26.3426 24.9391C25.5969 24.7248 24.9542 24.4573 24.5369 24.1682C21.951 22.6448 20.4105 19.6629 19.5042 16.5895C18.5867 13.4784 18.2723 10.116 18.251 7.64255C18.241 6.47654 19.4362 5.56904 20.5857 6.14848C21.0119 6.36335 21.4128 6.60373 21.7889 6.86393C21.9809 5.93928 22.2192 5.04587 22.5029 4.39498C22.701 3.94034 23.0923 3.65254 23.5361 3.57572C23.9655 3.50138 24.4034 3.62876 24.7434 3.90207C25.2178 4.28349 25.7806 4.79427 26.3128 5.39775C27.2759 3.97869 28.4651 2.88081 29.4749 2.09114ZM25.5112 6.77621C24.9894 6.11717 24.375 5.5339 23.8349 5.09647C23.5462 5.80472 23.2992 6.87385 23.1086 7.94478C23.6855 8.49901 24.1812 9.0956 24.5994 9.69908C24.7569 8.62739 25.0825 7.65379 25.5112 6.77621ZM35.8176 8.20934C35.8019 8.14573 35.7853 8.08143 35.7679 8.01647C35.753 7.96084 35.7377 7.90511 35.7218 7.84932C35.4548 6.90811 35.0581 5.94906 34.6852 5.17586C34.6821 5.1695 34.679 5.16395 34.6761 5.1592C34.207 5.61791 33.6245 6.28049 33.049 6.97305C33.1822 8.15765 33.1982 9.30325 33.1469 10.3518C33.9682 9.42568 34.8985 8.73373 35.8176 8.20934ZM30.3988 3.27285C30.4945 3.19804 30.6031 3.24153 30.6373 3.32831C32.1554 7.17451 31.6915 11.4362 31.209 13.688L32.6472 14.1014C33.9442 10.5345 36.8773 9.14584 38.9931 8.46369C39.1057 8.42737 39.2585 8.51114 39.2548 8.68043C39.158 13.1451 38.5635 16.4769 37.7801 18.818C36.9972 21.158 36.0604 22.4073 35.3393 22.8842C33.3515 23.8672 31.1353 24.0822 29.2418 23.9333C28.2926 23.8586 27.4393 23.6935 26.7568 23.4974C26.0567 23.2962 25.5909 23.078 25.3788 22.9265L25.3506 22.9064L25.3207 22.889C23.2195 21.6633 21.8178 19.1319 20.9429 16.1653C20.076 13.2254 19.7715 10.0094 19.751 7.62964C19.7503 7.5541 19.7842 7.50994 19.8153 7.4892C19.8312 7.47861 19.8454 7.47473 19.8563 7.47394C19.865 7.4733 19.8821 7.47362 19.9105 7.48792C22.7583 8.9235 24.3151 11.7344 24.7537 13.4886L26.2146 13.1496C25.1725 8.28663 28.0899 5.07832 30.3988 3.27285Z" fill="#1A1A1A"/>
</svg>
