<svg width="48" height="55" viewBox="0 0 48 55" fill="none" xmlns="http://www.w3.org/2000/svg">
<path d="M34.3801 9.68576C30.6072 9.07576 21.9836 9.68578 18.2108 19.4428L16.0767 28.4547C17.6936 27.2357 21.4446 26.7608 24.6784 26.7608C35.458 26.7608 38.7815 28.5898 41.9257 28.5898C46.7765 16.3938 38.1529 10.2948 34.3801 9.68576Z" fill="#757575"/>
<path fill-rule="evenodd" clip-rule="evenodd" d="M37.8569 27.5474C37.7983 27.7021 37.7364 27.8562 37.6714 28.0093L36.7505 27.6187C36.8103 27.4779 36.8674 27.3354 36.9214 27.1929L37.8569 27.5474ZM30.2056 26.145C30.1907 26.3078 30.1767 26.4712 30.1636 26.6343L29.1675 26.5542C29.1809 26.3873 29.1952 26.2198 29.2104 26.0532L30.2056 26.145ZM38.4155 25.644C38.3461 25.9664 38.2654 26.2871 38.1724 26.605L37.2124 26.3247C37.2985 26.0307 37.3735 25.7327 37.438 25.4331L38.4155 25.644ZM21.6626 25.5493C21.6455 25.7071 21.6304 25.8654 21.6177 26.0239L20.6206 25.9438C20.6341 25.7762 20.6504 25.6088 20.6685 25.4419L21.6626 25.5493ZM30.4272 24.1919C30.3835 24.5158 30.3431 24.8415 30.3062 25.1675L29.313 25.0542C29.3508 24.7213 29.3914 24.3888 29.436 24.0581L30.4272 24.1919ZM38.7007 23.6899C38.6742 24.0175 38.6375 24.3448 38.5903 24.6704L37.6011 24.5269C37.6451 24.2227 37.6787 23.9164 37.7036 23.6089L38.7007 23.6899ZM21.9722 23.6675C21.9032 23.9777 21.8432 24.2901 21.7915 24.604L20.8052 24.4419C20.8599 24.1097 20.9236 23.779 20.9966 23.4507L21.9722 23.6675ZM30.73 22.2495C30.6731 22.5709 30.6195 22.8945 30.5688 23.2192L29.5806 23.0649C29.6323 22.7334 29.6875 22.4028 29.7456 22.0747L30.73 22.2495ZM22.4888 21.8315C22.3858 22.1328 22.2915 22.437 22.2056 22.7427L21.2427 22.4722C21.3337 22.1486 21.4335 21.827 21.5425 21.5083L22.4888 21.8315ZM38.7466 21.7241C38.7568 22.0511 38.7588 22.3791 38.7515 22.7065L37.7515 22.6841C37.7584 22.3753 37.7563 22.0652 37.7466 21.7554L38.7466 21.7241ZM31.1128 20.3198C31.0431 20.6382 30.9756 20.9596 30.9116 21.2827L29.9312 21.0884C29.9964 20.7587 30.0641 20.4308 30.1353 20.106L31.1128 20.3198ZM23.2036 20.063C23.0682 20.3521 22.9407 20.6438 22.8218 20.938L21.895 20.563C22.0206 20.2523 22.1545 19.9442 22.2974 19.6392L23.2036 20.063ZM38.5894 19.772C38.6305 20.0947 38.6645 20.4201 38.6909 20.7456L37.6938 20.8267C37.6687 20.517 37.6364 20.2071 37.5972 19.8989L38.5894 19.772ZM31.5718 18.4087C31.4893 18.7232 31.4097 19.0418 31.3325 19.3628L30.3599 19.1284C30.4386 18.8007 30.5208 18.476 30.605 18.1548L31.5718 18.4087ZM24.104 18.3794C23.9386 18.6532 23.7809 18.9299 23.6313 19.2095L22.7495 18.7378C22.9074 18.4428 23.0731 18.1505 23.2476 17.8618L24.104 18.3794ZM38.2612 17.8481C38.3282 18.1646 38.3899 18.4846 38.4448 18.8062L37.4595 18.9751C37.4069 18.667 37.3481 18.3601 37.2837 18.0562L38.2612 17.8481ZM25.1743 16.7954C24.9817 17.0517 24.7962 17.3112 24.6187 17.5737L23.7905 17.0142C23.9775 16.7377 24.1729 16.4644 24.3755 16.1948L25.1743 16.7954ZM32.1099 16.5181C32.0145 16.8276 31.9221 17.1424 31.8315 17.4604L30.8696 17.186C30.9621 16.8613 31.0573 16.5405 31.1548 16.2241L32.1099 16.5181ZM37.7886 15.9604C37.8776 16.2695 37.963 16.5831 38.0425 16.8999L37.0718 17.1431C36.9952 16.8379 36.9136 16.5351 36.8276 16.2368L37.7886 15.9604ZM26.3979 15.3218C26.181 15.5592 25.9707 15.8004 25.7681 16.0444L24.9985 15.4058C25.2113 15.1496 25.4322 14.8969 25.6597 14.6479L26.3979 15.3218ZM32.731 14.6548C32.6218 14.9584 32.5145 15.2687 32.4097 15.5835L31.4614 15.2671C31.5687 14.945 31.6786 14.6281 31.7905 14.3169L32.731 14.6548ZM37.189 14.1118C37.2972 14.4123 37.4032 14.7191 37.5044 15.0308L36.5532 15.3394C36.4554 15.0381 36.3533 14.7414 36.2485 14.4507L37.189 14.1118ZM27.7544 13.9663C27.5163 14.1837 27.2847 14.4051 27.0601 14.6294L26.354 13.9224C26.5893 13.6874 26.8316 13.4554 27.0806 13.228L27.7544 13.9663ZM33.4419 12.8286C33.3177 13.1237 33.1952 13.4269 33.0747 13.7368L32.1421 13.3745C32.2658 13.0561 32.3921 12.7439 32.52 12.4399L33.4419 12.8286ZM36.8452 13.2026L35.9155 13.5708C35.798 13.2741 35.6777 12.9838 35.5562 12.7026L36.4741 12.3062C36.5997 12.5966 36.7238 12.8961 36.8452 13.2026ZM29.2261 12.7339C28.9702 12.9307 28.7205 13.1315 28.4771 13.3354L27.8345 12.5688C28.0888 12.3559 28.3498 12.1462 28.6167 11.9409L29.2261 12.7339ZM30.7954 11.6235C30.5246 11.7997 30.2588 11.9792 29.9995 12.1626L29.4224 11.3462C29.6925 11.1552 29.9688 10.9679 30.2505 10.7847L30.7954 11.6235ZM34.2563 11.0522C34.1146 11.3353 33.9734 11.6296 33.8345 11.9331L32.9253 11.5161C33.0687 11.2027 33.2147 10.8988 33.3618 10.605L34.2563 11.0522ZM35.647 10.5483C35.7893 10.827 35.9333 11.1185 36.0757 11.4214L35.1704 11.8472C35.0328 11.5543 34.8946 11.2722 34.7573 11.0034L35.647 10.5483ZM32.4487 10.6333C32.1649 10.7896 31.8859 10.9493 31.6128 11.1128L31.0991 10.2554C31.3827 10.0857 31.6721 9.9193 31.9663 9.75732L32.4487 10.6333ZM35.189 9.68896L34.9038 9.84717C34.8386 9.95969 34.7734 10.0746 34.7085 10.1919L34.4966 10.0747L34.3159 10.1763C34.2594 10.0749 34.2017 9.97649 34.146 9.88037L33.8335 9.70752C33.9167 9.55714 34.0004 9.40977 34.0845 9.26611L34.5161 9.51904L34.9478 9.26611C35.0272 9.40191 35.1078 9.54348 35.189 9.68896ZM33.7339 9.96924C33.5885 10.0398 33.4442 10.1118 33.3013 10.1841L32.8491 9.2915C32.9973 9.21653 33.1477 9.1419 33.2983 9.06885L33.7339 9.96924Z" fill="#2C2C2C"/>
<path fill-rule="evenodd" clip-rule="evenodd" d="M34.2183 6.75066L35.5875 6.93718C36.5272 7.0651 37.2081 7.93352 37.108 8.87664C37.0743 9.19335 36.9548 9.47682 36.7779 9.71062C38.5673 10.579 40.5607 12.1348 42.0162 14.3854C44.1795 17.7306 45.1303 22.5618 42.6226 28.8669L42.5728 28.9694C42.4397 29.1966 42.1942 29.3395 41.9254 29.3395C41.0625 29.3395 40.0009 29.1742 38.8131 28.9557C37.5959 28.7319 36.2449 28.4527 34.691 28.1862C31.611 27.6579 27.881 27.2104 23.6529 27.5094C22.565 27.5863 21.1201 27.6741 19.7447 27.8913C18.3344 28.114 17.1545 28.452 16.5084 28.9391L16.4097 29.0016C16.1706 29.1291 15.8767 29.1186 15.6451 28.9665C15.3807 28.7925 15.2543 28.4714 15.3287 28.1637L17.481 19.2663C17.4888 19.2344 17.4995 19.2031 17.5113 19.1725C19.4735 14.098 22.724 11.3573 26.0055 9.98503C28.2682 9.03889 30.5268 8.75093 32.3629 8.77117C32.3259 8.59617 32.3148 8.41318 32.3346 8.22722C32.4349 7.2842 33.2786 6.62289 34.2183 6.75066ZM34.2603 10.4264C32.4803 10.1387 29.5276 10.1382 26.5846 11.3688C23.6767 12.5848 20.7382 15.0168 18.9264 19.6716L17.1617 26.9596C17.901 26.7056 18.7214 26.5346 19.5113 26.4098C20.965 26.1803 22.4838 26.0875 23.5474 26.0124C27.9426 25.7015 31.8035 26.1691 34.9439 26.7077C36.5 26.9746 37.9176 27.2667 39.0836 27.4811C40.0126 27.652 40.7863 27.773 41.4176 27.819C43.5172 22.1799 42.5826 18.0237 40.7564 15.1999C38.8429 12.2411 35.9235 10.695 34.2603 10.4264Z" fill="#1A1A1A"/>
<path d="M17.363 18.7228C14.0475 20.3538 13.0334 23.5118 16.0325 28.5788C17.363 27.9688 21.1845 26.9168 24.1172 26.7498C28.2071 26.5158 30.5849 26.7498 35.4356 27.3598C32.1284 17.3878 20.6786 17.0908 17.363 18.7228Z" fill="#85E0A3"/>
<path d="M21.0991 17.2318C22.7647 17.1839 24.6911 17.3885 26.6196 17.9721C30.4883 19.1428 34.4011 21.8564 36.1479 27.1234C36.229 27.3678 36.1786 27.6374 36.0151 27.8363C35.8517 28.035 35.5976 28.1359 35.3423 28.1039L35.436 27.3598H35.4351L35.3423 28.1039C30.5052 27.4956 28.1806 27.2684 24.1597 27.4984C22.7546 27.5785 21.114 27.8729 19.6509 28.2269C18.1792 28.583 16.9454 28.985 16.3452 29.2601C15.9962 29.4201 15.5828 29.2907 15.3872 28.9603C13.8453 26.3552 13.2526 24.1091 13.5913 22.2289C13.9377 20.3067 15.2233 18.9399 17.0317 18.0502C17.9933 17.5769 19.4496 17.2793 21.0991 17.2318ZM21.1421 18.7308C19.6089 18.775 18.39 19.0532 17.6938 19.3959C16.1872 20.1371 15.3076 21.1646 15.0679 22.4955C14.8397 23.7624 15.1643 25.4485 16.3599 27.6351C17.1174 27.3547 18.1613 27.0438 19.2974 26.7689C20.8106 26.4028 22.5473 26.0883 24.0747 26.0014C27.8649 25.7845 30.2204 25.9655 34.2905 26.4623C32.5803 22.496 29.4028 20.3814 26.1851 19.4076C24.4234 18.8745 22.6592 18.6871 21.1421 18.7308Z" fill="#1A1A1A"/>
</svg>
