<svg width="48" height="55" viewBox="0 0 48 55" fill="none" xmlns="http://www.w3.org/2000/svg">
<path d="M20.5183 23.2102C25.2433 25.7802 29.4483 26.1702 31.5753 26.5702C33.6463 26.9602 40.1123 27.2002 42.6983 26.2602C42.9983 26.1502 43.1773 25.8502 43.1713 25.5302C43.0603 19.0902 37.5663 13.5602 32.7763 13.1402C28.3583 12.7502 21.7853 15.0502 20.0923 22.2702C20.0053 22.6402 20.1823 23.0302 20.5183 23.2102Z" fill="#5C806D"/>
<path d="M33.4593 13.2402C30.8153 13.4902 25.9523 15.9402 24.8223 21.9502" stroke="#517361" stroke-width="1.5" stroke-linejoin="round"/>
<path d="M33.46 13.2305C35.833 14.4205 38.5359 18.2105 38.0639 24.6105" stroke="#517361" stroke-width="1.5" stroke-linejoin="round"/>
<path d="M33.36 13.3403C32.814 15.5403 31.72 20.6804 31.709 23.6804" stroke="#517361" stroke-width="1.5" stroke-linejoin="round"/>
<path d="M20.5183 23.2102C25.2433 25.7802 29.4483 26.1702 31.5753 26.5702C33.6463 26.9602 40.1123 27.2002 42.6983 26.2602C42.9983 26.1502 43.1773 25.8502 43.1713 25.5302C43.0603 19.0902 37.5663 13.5602 32.7763 13.1402C28.3583 12.7502 21.7853 15.0502 20.0923 22.2702C20.0053 22.6402 20.1823 23.0302 20.5183 23.2102Z" stroke="#1A1A1A" stroke-width="1.5" stroke-linecap="round"/>
<path d="M18.4242 23.7904C18.5022 23.0604 18.7012 22.2803 18.9292 21.5703C19.2472 20.5803 20.3882 20.2103 21.3452 20.6003C27.4152 23.1303 37.4562 24.2603 42.9662 24.6203C43.7772 24.6703 44.4612 25.2504 44.4812 26.0604C44.4942 26.6104 44.4692 27.1803 44.4382 27.7103C44.3812 28.6903 43.5782 29.5403 42.5932 29.5703C34.3272 29.8103 26.7202 27.8203 19.4532 25.2503C18.8172 25.0303 18.3532 24.4604 18.4242 23.7904Z" fill="#5C806D"/>
<path d="M22.1083 21.1704C21.8753 21.9004 21.3083 23.7804 20.9043 25.5204" stroke="#517361" stroke-width="1.5" stroke-linejoin="round"/>
<path d="M24.9452 21.7002C24.7122 22.4302 24.1452 24.3103 23.7422 26.0603" stroke="#517361" stroke-width="1.5" stroke-linejoin="round"/>
<path d="M41.8301 24.9805C41.7841 25.7405 41.6271 27.7005 41.3701 29.4705" stroke="#517361" stroke-width="1.5" stroke-linejoin="round"/>
<path d="M38.9932 24.4502C38.9472 25.2102 38.7902 27.1702 38.5332 28.9402" stroke="#517361" stroke-width="1.5" stroke-linejoin="round"/>
<path d="M36.2464 23.9302C36.0634 24.9002 35.8224 27.3301 35.5654 29.1001" stroke="#517361" stroke-width="1.5" stroke-linejoin="round"/>
<path d="M27.6732 22.3203C27.4902 23.2903 26.8332 25.6404 26.4292 27.3804" stroke="#517361" stroke-width="1.5" stroke-linejoin="round"/>
<path d="M30.4204 22.8301C30.2964 23.8101 29.7814 26.2001 29.4834 27.9601" stroke="#517361" stroke-width="1.5" stroke-linejoin="round"/>
<path d="M33.4741 23.4102C33.3501 24.3902 32.8351 26.7702 32.5371 28.5402" stroke="#517361" stroke-width="1.5" stroke-linejoin="round"/>
<path d="M18.4242 23.7904C18.5022 23.0604 18.7012 22.2803 18.9292 21.5703C19.2472 20.5803 20.3882 20.2103 21.3452 20.6003C27.4152 23.1303 37.4562 24.2603 42.9662 24.6203C43.7772 24.6703 44.4612 25.2504 44.4812 26.0604C44.4942 26.6104 44.4692 27.1803 44.4382 27.7103C44.3812 28.6903 43.5782 29.5403 42.5932 29.5703C34.3272 29.8103 26.7202 27.8203 19.4532 25.2503C18.8172 25.0303 18.3532 24.4604 18.4242 23.7904Z" stroke="#1A1A1A" stroke-width="1.5" stroke-linejoin="round"/>
<path d="M20.6015 23.3666C25.3243 25.9391 29.5289 26.3374 31.6563 26.7398C33.7264 27.1313 40.1926 27.3772 42.7782 26.4415C43.078 26.3353 43.2582 26.0336 43.2525 25.717C43.1477 19.2754 37.6606 13.729 32.8699 13.3114C28.4541 12.9139 21.8786 15.2017 20.1762 22.4313C20.0889 22.8015 20.2662 23.181 20.6015 23.3666Z" fill="#5C806D"/>
<path d="M33.8913 12.7304C36.6044 14.0931 39.389 18.2276 38.8945 24.8379L37.399 24.726C37.8049 19.3 35.8384 15.9698 33.9767 14.5495C33.4018 17.0173 32.5548 21.2797 32.5429 23.8483L31.0436 23.8411C31.056 21.1621 31.8956 16.905 32.4768 14.3821C30.0116 15.0947 26.5538 17.4375 25.6447 22.2445L24.1708 21.9657C25.3793 15.5761 30.5692 12.9314 33.4846 12.6635L33.5521 13.4047L33.8913 12.7304Z" fill="#517361"/>
<path d="M32.9354 12.5637C35.5742 12.7938 38.3089 14.4143 40.3804 16.7576C42.461 19.1111 43.9466 22.2742 44.0028 25.7028L44.0006 25.8147C43.9698 26.3693 43.6364 26.9293 43.0323 27.1453L43.0331 27.1464C41.604 27.6635 39.221 27.8315 37.0265 27.8381C34.8083 27.8447 32.6202 27.6845 31.5173 27.4759C29.4449 27.084 25.0947 26.6676 20.2426 24.0246L20.238 24.0228C19.6231 23.6824 19.2785 22.9719 19.4465 22.259C21.2602 14.5569 28.2728 12.1457 32.9352 12.5646L32.9354 12.5637ZM39.2562 17.7516C37.3605 15.6071 34.9564 14.2462 32.8047 14.0586L32.8028 14.0582C28.6338 13.6829 22.4971 15.8468 20.9061 22.6027C20.8998 22.6297 20.9091 22.6768 20.9618 22.7076C25.5549 25.2091 29.6138 25.5893 31.7961 26.0021C32.7636 26.185 34.8435 26.3449 37.0219 26.3385C39.2101 26.3319 41.3389 26.1556 42.5005 25.7427C42.5013 25.7388 42.5029 25.7347 42.5029 25.7302L42.5021 25.7291C42.4531 22.7167 41.1428 19.8856 39.2562 17.7516Z" fill="#1A1A1A"/>
<path d="M18.5087 23.9375C18.5853 23.2192 18.7857 22.4327 19.015 21.723C19.3344 20.7351 20.4757 20.3607 21.4314 20.7653C27.4985 23.297 37.5391 24.4327 43.0492 24.793C43.8607 24.8447 44.5434 25.4317 44.5631 26.2394C44.5759 26.7914 44.5485 27.3663 44.518 27.8898C44.4595 28.8761 43.6563 29.7216 42.6706 29.7489C34.4037 29.9867 26.8001 27.9788 19.5352 25.4038C18.8995 25.1818 18.435 24.6156 18.5087 23.9375Z" fill="#5C806D"/>
<path fill-rule="evenodd" clip-rule="evenodd" d="M28.4955 22.6205C28.3978 23.1367 28.1798 23.9955 27.9439 24.9115C27.7041 25.8426 27.4397 26.8555 27.2394 27.7171L25.779 27.3773C25.9844 26.494 26.2536 25.4595 26.4911 24.5373C26.7324 23.6003 26.9353 22.7983 27.0216 22.3418L28.4955 22.6205ZM37.0672 24.2417C36.9808 24.6982 36.8768 25.5189 36.7592 26.4793C36.6435 27.4246 36.5173 28.4862 36.3859 29.3834L34.9014 29.1662C35.0295 28.291 35.1542 27.2517 35.2711 26.2973C35.386 25.3584 35.4957 24.4792 35.5933 23.963L37.0672 24.2417ZM31.2481 23.0954C31.1824 23.6128 31.0157 24.4814 30.8355 25.4087C30.6522 26.3518 30.4501 27.3792 30.302 28.2506L28.823 27.9987C28.9749 27.1055 29.1814 26.0572 29.3629 25.1232C29.5474 24.1738 29.7015 23.362 29.7595 22.9053L31.2481 23.0954ZM34.3014 23.6729C34.2357 24.1903 34.069 25.0588 33.8888 25.9861C33.7055 26.9293 33.5034 27.9566 33.3553 28.8281L31.8763 28.5762C32.0282 27.683 32.2347 26.6346 32.4162 25.7007C32.6007 24.7513 32.7547 23.9395 32.8128 23.4828L34.3014 23.6729ZM39.8239 24.6687C39.7752 25.4456 39.6168 27.4223 39.3533 29.2221L37.8688 29.0049C38.1243 27.2599 38.2799 25.3268 38.3271 24.5744L39.8239 24.6687ZM42.6613 25.2053C42.6126 25.9823 42.4541 27.9591 42.1907 29.7587L40.7062 29.5416C40.9616 27.7966 41.1173 25.8635 41.1645 25.1111L42.6613 25.2053ZM22.9083 21.5569C22.6774 22.2746 22.1164 24.1311 21.7169 25.8487L20.2566 25.5089C20.6686 23.7371 21.2422 21.838 21.4806 21.097L22.9083 21.5569ZM25.7448 22.0933C25.5138 22.8111 24.9528 24.6676 24.5534 26.3852L23.093 26.0454C23.5051 24.2736 24.0786 22.3744 24.3171 21.6335L25.7448 22.0933Z" fill="#517361"/>
<path d="M43.0964 24.0442C44.2146 24.1154 45.2813 24.9481 45.3126 26.2205L45.3124 26.2214C45.3192 26.5139 45.3157 26.8107 45.3063 27.0999L45.2669 27.9332L45.2667 27.9342C45.1922 29.1894 44.2324 30.3105 42.9519 30.478L42.6917 30.4984C34.2911 30.74 26.5873 28.6977 19.2878 26.1107C18.4107 25.8043 17.6433 24.9662 17.763 23.8574C17.8473 23.0685 18.0631 22.2279 18.3008 21.4923C18.7861 19.9914 20.4574 19.5422 21.7187 20.0735L21.7199 20.0727C27.6592 22.551 37.5846 23.6846 43.0962 24.0451L43.0964 24.0442ZM43.0012 25.5408L43.0002 25.5406C37.4913 25.1804 27.3374 24.042 21.1429 21.4574L21.1393 21.4557C20.4899 21.1807 19.8813 21.4802 19.7283 21.9531C19.5349 22.5515 19.3697 23.1873 19.2852 23.7706L19.2544 24.0172L19.2543 24.0182C19.2275 24.2649 19.3886 24.558 19.7821 24.6955L19.786 24.6962C27.0154 27.2586 34.5175 29.2325 42.6493 28.9986L42.6503 28.9987C43.2122 28.9829 43.7309 28.4787 43.7688 27.8457C43.7916 27.4551 43.8123 27.0488 43.8159 26.651L43.8129 26.2569C43.8042 25.9141 43.5057 25.573 43.0012 25.5408Z" fill="#1A1A1A"/>
</svg>
