<svg width="48" height="55" viewBox="0 0 48 55" fill="none" xmlns="http://www.w3.org/2000/svg">
<path fill-rule="evenodd" clip-rule="evenodd" d="M21.384 9.91711C19.521 10.3611 16.5 11.0801 16.5 14.7851C16.5 17.5281 20.357 20.1921 29.612 19.4951C31.489 19.3541 34.285 19.1021 36.871 18.5181C41.152 17.5511 41.581 12.7031 37.606 10.8431C33.93 9.1231 28.558 8.20611 21.456 9.90011C21.433 9.90511 21.409 9.91111 21.384 9.91711ZM23.747 12.6051C21.917 12.7781 19.718 12.9861 19.703 14.3711C19.684 16.1391 23.773 16.8301 33.128 16.1111C38.429 15.7031 38.874 13.0931 33.565 12.5461C30.893 12.2711 27.708 12.2261 23.948 12.5861C23.881 12.5921 23.814 12.5981 23.747 12.6051Z" fill="#FFE8A3"/>
<path d="M17.25 14.7852C17.25 13.1822 17.882 12.3022 18.676 11.7412C19.528 11.1392 20.605 10.8732 21.558 10.6462L21.211 9.18724C20.3 9.40424 18.935 9.72022 17.811 10.5162C16.628 11.3512 15.75 12.6832 15.75 14.7852H17.25ZM29.556 18.7472C24.992 19.0912 21.851 18.5962 19.884 17.7422C17.918 16.8882 17.25 15.7472 17.25 14.7852H15.75C15.75 16.5662 17.01 18.1292 19.287 19.1182C21.563 20.1072 24.977 20.5962 29.668 20.2432L29.556 18.7472ZM36.706 17.7862C34.177 18.3572 31.428 18.6062 29.556 18.7472L29.668 20.2432C31.55 20.1012 34.393 19.8462 37.036 19.2492L36.706 17.7862ZM37.288 11.5222C39.027 12.3362 39.7 13.7352 39.588 14.9462C39.476 16.1502 38.569 17.3662 36.706 17.7862L37.036 19.2492C39.454 18.7032 40.902 17.0122 41.081 15.0852C41.26 13.1652 40.16 11.2102 37.924 10.1632L37.288 11.5222ZM21.63 10.6292C28.584 8.97123 33.78 9.88123 37.288 11.5222L37.924 10.1632C34.079 8.36522 28.533 7.44124 21.282 9.17024L21.63 10.6292ZM21.558 10.6462C21.582 10.6412 21.606 10.6352 21.63 10.6292L21.282 9.17024C21.259 9.17624 21.235 9.18124 21.211 9.18724L21.558 10.6462ZM20.453 14.3792C20.454 14.2612 20.491 14.1792 20.591 14.0882C20.713 13.9762 20.93 13.8562 21.27 13.7482C21.959 13.5312 22.878 13.4402 23.817 13.3512L23.676 11.8582C22.785 11.9422 21.69 12.0422 20.818 12.3182C20.379 12.4572 19.928 12.6602 19.577 12.9822C19.203 13.3242 18.959 13.7882 18.953 14.3632L20.453 14.3792ZM33.07 15.3632C28.404 15.7222 25.109 15.7232 23.003 15.4312C21.942 15.2842 21.253 15.0712 20.85 14.8392C20.471 14.6222 20.452 14.4612 20.453 14.3792L18.953 14.3632C18.944 15.1652 19.43 15.7542 20.104 16.1412C20.754 16.5142 21.668 16.7602 22.797 16.9172C25.069 17.2322 28.496 17.2192 33.185 16.8592L33.07 15.3632ZM33.488 13.2922C34.768 13.4242 35.629 13.6752 36.132 13.9402C36.68 14.2292 36.567 14.3832 36.582 14.2752C36.586 14.2492 36.536 14.4822 35.876 14.7732C35.275 15.0382 34.344 15.2652 33.07 15.3632L33.185 16.8592C34.561 16.7532 35.674 16.5012 36.481 16.1452C37.23 15.8152 37.953 15.2842 38.067 14.4872C38.193 13.6062 37.527 12.9802 36.832 12.6132C36.09 12.2222 35.016 11.9422 33.642 11.8002L33.488 13.2922ZM24.019 13.3322C27.733 12.9772 30.869 13.0222 33.488 13.2922L33.642 11.8002C30.918 11.5192 27.683 11.4752 23.876 11.8392L24.019 13.3322ZM23.817 13.3512C23.885 13.3452 23.952 13.3392 24.019 13.3322L23.876 11.8392C23.81 11.8452 23.744 11.8522 23.676 11.8582L23.817 13.3512Z" fill="#FFC21A"/>
<ellipse cx="28.0689" cy="14.8039" rx="18.4971" ry="10.4455" fill="url(#paint0_radial_53542_4277)"/>
<defs>
<radialGradient id="paint0_radial_53542_4277" cx="0" cy="0" r="1" gradientTransform="matrix(6.20516 9.43557 -16.7088 3.5041 28.0689 14.8039)" gradientUnits="userSpaceOnUse">
<stop stop-color="#F7C522" stop-opacity="0.5"/>
<stop offset="1" stop-color="#F7C522" stop-opacity="0"/>
</radialGradient>
</defs>
</svg>
