<svg width="48" height="55" viewBox="0 0 48 55" fill="none" xmlns="http://www.w3.org/2000/svg">
<path d="M16 8.75V5C16 2.791 17.7909 1 20 1H32C34.2091 1 36 2.791 36 5V8.75C36 10.959 34.2091 12.75 32 12.75H26.2273L21.3182 17V12.75H20C17.7909 12.75 16 10.959 16 8.75Z" fill="white"/>
<path d="M35.25 5C35.25 3.2052 33.7949 1.75 32 1.75H20C18.2051 1.75 16.75 3.2052 16.75 5V8.75C16.75 10.5448 18.2051 12 20 12H21.3184C21.7325 12.0001 22.0684 12.3358 22.0684 12.75V15.3574L25.7363 12.1826C25.8726 12.0647 26.0473 12 26.2275 12H32C33.7949 12 35.25 10.5448 35.25 8.75V5ZM36.75 8.75C36.75 11.3732 34.6233 13.5 32 13.5H26.5068L21.8096 17.5674C21.5878 17.7594 21.2737 17.8044 21.0068 17.6826C20.7398 17.5606 20.5684 17.2936 20.5684 17V13.5H20C17.3767 13.5 15.25 11.3732 15.25 8.75V5C15.25 2.3768 17.3767 0.25 20 0.25H32C34.6233 0.25 36.75 2.3768 36.75 5V8.75Z" fill="#1A1A1A"/>
<path d="M25.5156 4.12926C25.8461 4.61726 26.1875 5.12526 26.1962 5.71326C26.2004 5.99626 26.3705 5.44727 26.448 5.35027C26.5856 5.17927 26.7068 4.98926 26.8714 4.83626C27.1635 4.56526 27.4231 4.29426 27.7798 4.09526C28.2517 3.83326 28.8809 3.58727 29.4277 3.58727C29.8448 3.58727 30.1292 3.68727 30.3816 4.02027C30.6569 4.38427 30.7588 4.97826 30.6562 5.40926C30.5167 5.99526 30.1682 6.45127 29.7787 6.90427C29.3564 7.39527 28.9056 7.87726 28.4389 8.32926C27.8931 8.85826 27.3868 9.38526 26.7508 9.81926C26.4255 10.0423 26.1145 10.2843 25.7862 10.5023C25.6748 10.5763 25.61 10.6823 25.5156 10.5333C25.3699 10.3033 25.2075 10.0823 25.0413 9.86527C24.8913 9.66927 24.7612 9.45126 24.6059 9.26326C24.238 8.81726 23.9627 8.31326 23.5662 7.88426C22.8267 7.08326 21.9925 6.25727 22.0001 5.11327C22.0023 4.77127 22.0465 4.45325 22.2225 4.15225C22.432 3.79525 22.7855 3.46126 23.1362 3.23326C23.3452 3.09826 23.5714 3.00226 23.8248 3.00226C24.0193 3.00226 24.2324 2.98126 24.4116 3.06726C24.506 3.11326 24.5907 3.18826 24.6769 3.24626C24.8136 3.34026 24.9322 3.49526 25.0493 3.61026L25.0501 3.61125C25.213 3.77025 25.388 3.94126 25.5156 4.12926Z" fill="#E24C0C"/>
</svg>
