<svg width="48" height="55" viewBox="0 0 48 55" fill="none" xmlns="http://www.w3.org/2000/svg">
<path d="M40.0851 26.7874C28.6262 28.0874 21.9071 25.7874 19.98 24.4774L32.4633 6.67139L40.0851 26.7874Z" fill="#FFCD29"/>
<path d="M23.0244 20.5508C24.4088 20.5509 25.5312 21.6733 25.5312 23.0576C25.5312 24.4419 24.4087 25.5644 23.0244 25.5645C21.64 25.5645 20.5176 24.442 20.5176 23.0576C20.5176 21.6732 21.64 20.5508 23.0244 20.5508ZM30.5459 20.5508C31.9302 20.5509 33.0527 21.6733 33.0527 23.0576C33.0527 24.4419 31.9302 25.5644 30.5459 25.5645C29.1615 25.5645 28.0391 24.442 28.0391 23.0576C28.0391 21.6732 29.1615 20.5508 30.5459 20.5508ZM38.8115 24.7773L39.1904 24.6475C38.7944 24.9074 38.3209 25.0576 37.8105 25.0576C36.4264 25.0576 35.304 23.9374 35.3037 22.5576C35.3037 21.3776 36.1158 20.3872 37.21 20.1172L38.8115 24.7773ZM26.6094 15.0312C27.9936 15.0314 29.116 16.1529 29.1162 17.5371C29.1162 18.9214 27.9937 20.0438 26.6094 20.0439C25.225 20.0439 24.1025 18.9215 24.1025 17.5371C24.1027 16.1528 25.2251 15.0312 26.6094 15.0312ZM33.8057 13.8008C35.19 13.8009 36.3125 14.9233 36.3125 16.3076C36.3124 17.6919 35.19 18.8144 33.8057 18.8145C32.4213 18.8145 31.2989 17.692 31.2988 16.3076C31.2988 14.9232 32.4213 13.8008 33.8057 13.8008ZM29.918 9.56934C30.8979 9.91044 31.6025 10.8397 31.6025 11.9355C31.6024 13.3173 30.4798 14.437 29.0957 14.4473C28.3409 14.4473 27.6657 14.1071 27.2061 13.5771L29.918 9.56934Z" fill="#007BE5"/>
<path d="M32.4091 4.67505C32.6907 4.70817 32.9294 4.8978 33.0263 5.16431L40.7899 26.5305C40.8684 26.7464 40.8435 26.9866 40.7225 27.1819C40.6016 27.3772 40.3981 27.5066 40.1698 27.5325L39.0966 27.6448C33.7978 28.1519 29.5309 27.8534 26.3075 27.2454C22.8896 26.6006 20.6003 25.599 19.5077 24.804C19.1837 24.5682 19.1027 24.119 19.3231 23.7844L31.6952 5.00708C31.8512 4.7705 32.1276 4.642 32.4091 4.67505ZM20.997 23.969C22.0525 24.5497 23.9071 25.2664 26.5858 25.7717C29.6812 26.3556 33.8387 26.6488 39.0526 26.1409L32.1268 7.07935L20.997 23.969Z" fill="#1A1A1A"/>
<path fill-rule="evenodd" clip-rule="evenodd" d="M31.8058 2.83049C32.2118 2.75097 32.6065 3.01634 32.6867 3.42228C32.7889 3.94094 32.8756 4.50858 32.9347 5.12443C33.249 4.73466 33.5239 4.35754 33.7648 3.99846C33.9956 3.65478 34.461 3.56292 34.8048 3.79338C35.1485 4.02425 35.2406 4.49056 35.0099 4.83439C34.6611 5.35424 34.2476 5.90606 33.757 6.47697C34.276 6.44123 34.8203 6.38291 35.3898 6.2924C35.7988 6.22738 36.183 6.50653 36.2482 6.91545C36.3131 7.32443 36.0341 7.70883 35.6251 7.77385C35.0129 7.87115 34.4266 7.93428 33.8664 7.97307C34.1861 8.24101 34.5267 8.51015 34.8927 8.7758C35.2278 9.01907 35.3018 9.48848 35.0587 9.82365C34.8154 10.1585 34.347 10.2327 34.0119 9.98967C33.6033 9.69314 33.2226 9.39322 32.8664 9.09318C32.8118 9.5281 32.7428 9.97783 32.6525 10.4418C32.5734 10.8483 32.1791 11.1136 31.7726 11.0346C31.3663 10.9553 31.1008 10.5621 31.1798 10.1557C31.274 9.67184 31.3442 9.20561 31.3966 8.75725C30.9735 9.09829 30.5174 9.43965 30.0216 9.77385C29.6783 10.0053 29.2122 9.91482 28.9806 9.5717C28.7491 9.22825 28.8403 8.7622 29.1837 8.53068C29.5176 8.30562 29.831 8.07637 30.1281 7.84807C29.5809 7.7706 29.0738 7.67271 28.6076 7.56389C28.2048 7.46944 27.9542 7.06549 28.048 6.66252C28.1423 6.2595 28.5463 6.00908 28.9494 6.10295C29.3398 6.19407 29.7625 6.27616 30.2169 6.34416C29.8231 5.83514 29.4871 5.343 29.1984 4.87834C28.9801 4.52655 29.0879 4.06466 29.4396 3.84611C29.7913 3.62778 30.2532 3.73579 30.4718 4.08732C30.7495 4.53413 31.075 5.01059 31.4621 5.50432C31.4091 4.84736 31.3211 4.24966 31.215 3.71135C31.1353 3.30518 31.3996 2.91052 31.8058 2.83049Z" fill="#007BE5"/>
</svg>
