<svg width="48" height="55" viewBox="0 0 48 55" fill="none" xmlns="http://www.w3.org/2000/svg">
<path d="M20.732 22.7615C25.43 25.3792 29.6305 25.8178 31.754 26.2406C33.8203 26.652 40.2837 26.96 42.8782 26.0491C43.179 25.9458 43.3621 25.6459 43.3595 25.3293C43.3165 18.8869 37.8829 13.2881 33.0964 12.8246C28.6847 12.3847 22.0875 14.6093 20.3157 21.8221C20.2249 22.1915 20.3986 22.5727 20.732 22.7615Z" fill="#FF99E0"/>
<path d="M34.1231 12.2535C36.8229 13.6422 39.5677 17.8032 39.0098 24.4084L37.5154 24.2822C37.9734 18.8603 36.0389 15.5114 34.191 14.0733C33.5925 16.5355 32.7045 20.7895 32.668 23.3579L31.1688 23.3363C31.2069 20.6579 32.0863 16.4096 32.6916 13.8922C30.2197 14.5816 26.7406 16.8908 25.7855 21.6879L24.3143 21.395C25.5841 15.0173 30.7992 12.4226 33.717 12.1826L33.7774 12.9245L34.1231 12.2535Z" fill="#FFBDF2"/>
<path d="M33.1689 12.0778C35.8054 12.3333 38.5244 13.9799 40.5734 16.343C42.6312 18.7164 44.0864 21.8935 44.1098 25.3226L44.1064 25.4344C44.0703 25.9887 43.7316 26.5455 43.1254 26.7556L43.1262 26.7568C41.6922 27.2601 39.3077 27.4053 37.1132 27.3908C34.8951 27.3761 32.7086 27.1949 31.6078 26.9758C29.5392 26.5639 25.1933 26.1058 20.3667 23.4164L20.3621 23.4145C19.7505 23.0682 19.4128 22.3544 19.5876 21.6432C21.4752 13.9588 28.5106 11.6151 33.1688 12.0788L33.1689 12.0778ZM39.4397 17.3261C37.5646 15.1636 35.1737 13.7796 33.0239 13.5714L33.022 13.571C28.8568 13.1557 22.6996 15.2606 21.0439 22.0008C21.0372 22.0278 21.0462 22.0751 21.0985 22.1063C25.6674 24.6518 29.7225 25.071 31.9007 25.5046C32.8665 25.6968 34.9447 25.8767 37.123 25.8912C39.3112 25.9056 41.4416 25.7497 42.6071 25.348C42.6079 25.3441 42.6096 25.34 42.6096 25.3356L42.6088 25.3344C42.5887 22.3217 41.3056 19.4782 39.4397 17.3261Z" fill="#1A1A1A"/>
<path d="M18.6336 23.3122C18.7171 22.5947 18.925 21.8102 19.1612 21.1027C19.49 20.118 20.6348 19.7545 21.5866 20.1683C27.6292 22.758 37.6584 23.9901 43.1648 24.4033C43.9758 24.4628 44.6527 25.0563 44.6647 25.8642C44.6723 26.4163 44.6393 26.9909 44.6038 27.514C44.5358 28.4997 43.7245 29.3375 42.7386 29.3553C34.4698 29.5138 26.8859 27.4329 19.646 24.7883C19.0125 24.5603 18.5535 23.9896 18.6336 23.3122Z" fill="#FF99E0"/>
<path fill-rule="evenodd" clip-rule="evenodd" d="M28.6327 22.0913C28.5301 22.6066 28.3038 23.4632 28.0591 24.3768C27.8104 25.3057 27.5363 26.316 27.3277 27.1756L25.8707 26.8218C26.0845 25.9405 26.3636 24.9087 26.61 23.9887C26.8602 23.0541 27.0708 22.2541 27.1615 21.7984L28.6327 22.0913ZM37.1884 23.7947C37.0977 24.2504 36.9858 25.07 36.859 26.0293C36.7342 26.9734 36.5978 28.0337 36.4578 28.9296L34.9754 28.6982C35.112 27.8243 35.2466 26.7862 35.3726 25.8329C35.4966 24.8952 35.6147 24.0171 35.7173 23.5018L37.1884 23.7947ZM31.3806 22.5926C31.3099 23.1093 31.1349 23.9762 30.9458 24.9018C30.7535 25.8431 30.5416 26.8685 30.385 27.7385L28.9085 27.4724C29.069 26.5807 29.2856 25.5344 29.476 24.6022C29.6696 23.6546 29.8315 22.8443 29.8939 22.3882L31.3806 22.5926ZM34.4283 23.1994C34.3575 23.7161 34.1825 24.583 33.9934 25.5085C33.8011 26.4499 33.5892 27.4752 33.4326 28.3452L31.9562 28.0792C32.1166 27.1875 32.3332 26.1411 32.5236 25.2089C32.7172 24.2614 32.8791 23.4511 32.9415 22.995L34.4283 23.1994ZM39.9409 24.2481C39.8848 25.0245 39.7074 26.9997 39.4266 28.7968L37.9443 28.5654C38.2165 26.8229 38.3907 24.8914 38.4451 24.1395L39.9409 24.2481ZM42.773 24.812C42.7169 25.5884 42.5394 27.5636 42.2587 29.3607L40.7764 29.1292C41.0485 27.3868 41.2228 25.4553 41.2772 24.7034L42.773 24.812ZM23.056 20.9741C22.8181 21.6896 22.2393 23.5406 21.8234 25.2543L20.3664 24.9005C20.7954 23.1327 21.3872 21.2391 21.6328 20.5005L23.056 20.9741ZM25.8871 21.5377C25.6493 22.2532 25.0705 24.1042 24.6546 25.8179L23.1976 25.4641C23.6266 23.6964 24.2184 21.8028 24.4639 21.0642L25.8871 21.5377Z" fill="#FFBDF2"/>
<path d="M43.219 23.6553C44.3365 23.7372 45.3952 24.5802 45.4142 25.8528L45.414 25.8537C45.418 26.1463 45.4117 26.443 45.3995 26.732L45.3521 27.565L45.3519 27.566C45.2653 28.8203 44.2948 29.9322 43.0128 30.0874L42.7524 30.1053C34.3499 30.2662 26.666 28.1501 19.3917 25.4932C18.5176 25.1783 17.7582 24.3329 17.8886 23.2253C17.9804 22.4373 18.2043 21.5988 18.4491 20.8655C18.9487 19.3693 20.6243 18.9362 21.8805 19.4796L21.8816 19.4788C27.7969 22.0139 37.7109 23.2428 43.2188 23.6562L43.219 23.6553ZM43.1094 25.1509L43.1085 25.1507C37.6033 24.7377 27.4608 23.5018 21.2914 20.8579L21.2878 20.8562C20.641 20.575 20.0296 20.8686 19.8721 21.34C19.673 21.9365 19.5017 22.5706 19.4115 23.1531L19.3784 23.3995L19.3782 23.4004C19.3491 23.6469 19.5074 23.9415 19.8996 24.0827L19.9034 24.0835C27.1079 26.7151 34.5907 28.761 42.7244 28.6051L42.7254 28.6053C43.2874 28.5949 43.811 28.0957 43.8549 27.4631C43.8814 27.0727 43.9061 26.6666 43.9135 26.2689L43.9143 25.8747C43.9089 25.5319 43.6136 25.1879 43.1094 25.1509Z" fill="#1A1A1A"/>
<path fill-rule="evenodd" clip-rule="evenodd" d="M34.6168 7.51238C35.1687 7.51385 35.6161 7.9627 35.6151 8.51469C35.6141 8.96925 35.5959 9.45333 35.5562 9.9657C35.8385 9.71752 36.0986 9.4737 36.3377 9.23609C36.7295 8.84679 37.3626 8.84813 37.7519 9.23984C38.1409 9.63155 38.1387 10.2646 37.7472 10.6538C37.3471 11.0515 36.8952 11.4636 36.3866 11.8815C36.8148 11.9266 37.2606 11.9618 37.7252 11.9797C38.277 12.0011 38.7069 12.4656 38.6856 13.0173C38.6642 13.5691 38.1998 13.999 37.648 13.9777C37.1273 13.9576 36.6272 13.9183 36.1466 13.867C36.349 14.1077 36.5617 14.351 36.7873 14.595C37.1622 15.0004 37.1382 15.633 36.733 16.0081C36.3275 16.3831 35.6941 16.3581 35.3191 15.9526C35.0225 15.6318 34.7451 15.3122 34.484 14.9957C34.3586 15.3542 34.2211 15.7203 34.0684 16.0929C33.8592 16.6038 33.2747 16.8487 32.7637 16.6397C32.2529 16.4303 32.0087 15.8461 32.2179 15.3352C32.3597 14.9889 32.487 14.6494 32.6027 14.3175C32.1884 14.5233 31.7538 14.7257 31.2954 14.9175C30.7861 15.1305 30.2005 14.8904 29.9872 14.3812C29.7741 13.8718 30.0141 13.2863 30.5235 13.0731C30.7872 12.9627 31.0414 12.847 31.2885 12.7315C30.8694 12.5749 30.4769 12.4141 30.1118 12.2503C29.6084 12.0241 29.3834 11.4321 29.6092 10.9285C29.8353 10.4249 30.4273 10.2001 30.931 10.4259C31.2054 10.549 31.4976 10.67 31.8066 10.7894C31.5786 10.3028 31.3843 9.83618 31.2182 9.39377C31.0243 8.87689 31.2863 8.30039 31.8031 8.10625C32.3199 7.91235 32.8964 8.17443 33.0906 8.69117C33.2252 9.04935 33.3799 9.42647 33.5601 9.8192C33.5961 9.35594 33.6136 8.91953 33.6145 8.51069C33.6157 7.95856 34.0647 7.51138 34.6168 7.51238Z" fill="#80CAFF"/>
</svg>
