<svg width="48" height="55" viewBox="0 0 48 55" fill="none" xmlns="http://www.w3.org/2000/svg">
<path d="M23.2841 10.3833V10.2393C23.2871 9.74132 23.3311 9.34529 23.4161 9.05029C23.5041 8.75429 23.6321 8.51632 23.8001 8.33432C23.9671 8.15232 24.1691 7.98729 24.4051 7.83929C24.5811 7.72629 24.7391 7.6083 24.8781 7.4863C25.0171 7.3643 25.1281 7.2293 25.2101 7.0813C25.2931 6.9303 25.3341 6.76331 25.3341 6.57831C25.3341 6.38231 25.2871 6.21032 25.1931 6.06232C25.1001 5.91532 24.9731 5.80129 24.8141 5.72229C24.6581 5.64229 24.4841 5.60229 24.2941 5.60229C24.1091 5.60229 23.9351 5.64332 23.7701 5.72632C23.6051 5.80532 23.4701 5.92532 23.3651 6.08432C23.2601 6.24032 23.2031 6.4353 23.1951 6.6683H21.4561C21.4701 6.0993 21.6071 5.63129 21.8651 5.26129C22.1241 4.88929 22.4661 4.6123 22.8921 4.4303C23.3181 4.2463 23.7881 4.15332 24.3031 4.15332C24.8681 4.15332 25.3681 4.2473 25.8031 4.4353C26.2371 4.6193 26.5781 4.8883 26.8251 5.2403C27.0731 5.5923 27.1961 6.01731 27.1961 6.51431C27.1961 6.84731 27.1411 7.1423 27.0301 7.4003C26.9221 7.6563 26.7701 7.88331 26.5741 8.08231C26.3781 8.27831 26.1461 8.4563 25.8791 8.6153C25.6551 8.7483 25.4701 8.88829 25.3251 9.03329C25.1831 9.17729 25.0771 9.34531 25.0061 9.53531C24.9381 9.72631 24.9021 9.96032 24.8991 10.2393V10.3833H23.2841ZM24.1281 13.1113C23.8441 13.1113 23.6011 13.0113 23.3991 12.8123C23.2001 12.6113 23.1021 12.3693 23.1051 12.0883C23.1021 11.8103 23.2001 11.5713 23.3991 11.3723C23.6011 11.1733 23.8441 11.0743 24.1281 11.0743C24.3981 11.0743 24.6351 11.1733 24.8401 11.3723C25.0441 11.5713 25.1481 11.8103 25.1511 12.0883C25.1481 12.2753 25.0981 12.4473 25.0021 12.6043C24.9081 12.7573 24.7841 12.8813 24.6311 12.9743C24.4771 13.0653 24.3101 13.1113 24.1281 13.1113Z" fill="white"/>
<path d="M24.128 11.0743C23.844 11.0743 23.601 11.1733 23.399 11.3723C23.201 11.5713 23.103 11.8103 23.105 12.0883C23.103 12.3693 23.201 12.6113 23.399 12.8123C23.576 12.9863 23.784 13.0853 24.023 13.1063L24.128 13.1103C24.264 13.1103 24.392 13.0853 24.513 13.0343L24.631 12.9753C24.784 12.8813 24.907 12.7573 25.001 12.6043C25.073 12.4863 25.12 12.3603 25.14 12.2263L25.15 12.0883C25.147 11.8103 25.044 11.5713 24.84 11.3723C24.635 11.1733 24.398 11.0743 24.128 11.0743ZM25.326 6.71429C25.311 6.84629 25.272 6.9683 25.21 7.0813L25.144 7.1893C25.071 7.2953 24.982 7.39429 24.878 7.48529C24.739 7.60729 24.581 7.7263 24.405 7.8403C24.169 7.9883 23.967 8.15232 23.8 8.33432C23.632 8.51632 23.504 8.75429 23.416 9.05029C23.331 9.34529 23.287 9.74131 23.284 10.2383V10.3843H24.899V10.2383C24.902 9.96031 24.938 9.72531 25.006 9.53531C25.077 9.34531 25.183 9.17732 25.325 9.03232C25.434 8.92432 25.565 8.81831 25.719 8.71631L25.879 8.6153C26.079 8.4963 26.26 8.36632 26.42 8.22632L26.574 8.08231C26.77 7.88331 26.922 7.6563 27.03 7.4003C27.113 7.2073 27.165 6.99229 27.186 6.75729L27.196 6.51532C27.196 6.08032 27.101 5.70031 26.912 5.37631L26.825 5.2403C26.609 4.9323 26.321 4.6883 25.961 4.5083L25.803 4.4353C25.368 4.2473 24.868 4.15332 24.303 4.15332C23.789 4.15332 23.318 4.2463 22.892 4.4313L22.736 4.5033C22.382 4.6833 22.091 4.9363 21.865 5.2623C21.607 5.6313 21.47 6.1003 21.456 6.6683H23.194L23.21 6.50031C23.226 6.39331 23.254 6.29631 23.295 6.20831L23.365 6.08432C23.444 5.96532 23.54 5.8683 23.652 5.7933L23.77 5.72632C23.934 5.64332 24.109 5.6033 24.294 5.6033C24.484 5.6033 24.657 5.64229 24.813 5.72229L24.927 5.7883C25.034 5.8613 25.123 5.95232 25.193 6.06232C25.287 6.21032 25.334 6.38231 25.334 6.57831L25.326 6.71429ZM28.696 6.51532C28.696 7.01132 28.612 7.51031 28.41 7.98331L28.412 7.98431C28.23 8.41631 27.971 8.80329 27.643 9.13629L27.635 9.14432L27.634 9.14331C27.34 9.43631 27.007 9.68832 26.646 9.90332C26.529 9.97332 26.455 10.0323 26.412 10.0703C26.412 10.0733 26.412 10.0763 26.411 10.0793C26.406 10.1163 26.4 10.1733 26.399 10.2543V10.3843C26.399 10.5493 26.371 10.7083 26.321 10.8573C26.53 11.2203 26.646 11.6323 26.65 12.0733V12.1103C26.644 12.5633 26.519 13.0013 26.277 13.3933L26.276 13.3923C26.086 13.7013 25.84 13.9633 25.544 14.1693L25.413 14.2543C25.407 14.2573 25.401 14.2613 25.395 14.2653C25.006 14.4963 24.573 14.6103 24.128 14.6103C23.536 14.6103 22.985 14.4173 22.533 14.0493L22.346 13.8813L22.331 13.8653C21.861 13.3883 21.607 12.7753 21.606 12.1033L21.605 12.1043V12.0733H21.606C21.607 11.6613 21.703 11.2723 21.886 10.9243C21.821 10.7563 21.784 10.5743 21.784 10.3843V10.2303L21.796 9.81232C21.817 9.39732 21.87 8.99631 21.975 8.63431L21.978 8.62131L22.034 8.4483C22.067 8.3543 22.105 8.2613 22.146 8.1683H21.456C21.052 8.1683 20.664 8.0043 20.382 7.7153C20.1 7.4253 19.946 7.03431 19.956 6.63031L19.972 6.3363C20.028 5.6523 20.227 4.98531 20.636 4.40131C21.057 3.79631 21.621 3.34329 22.296 3.05429L22.535 2.95831C23.099 2.75031 23.693 2.65332 24.303 2.65332C25.03 2.65332 25.735 2.77429 26.388 3.05429H26.389C27.055 3.33729 27.629 3.7753 28.053 4.3793L28.21 4.6243C28.549 5.2063 28.696 5.85332 28.696 6.51532Z" fill="#1A1A1A"/>
</svg>
