<svg width="48" height="55" viewBox="0 0 48 55" fill="none" xmlns="http://www.w3.org/2000/svg">
<path d="M5.39796 22.55C12.736 15.21 22.511 22.9099 24.113 27.9099C24.888 23.6999 35.888 14.2101 43.398 23.1201C50.509 31.5501 41.459 44.9199 26.653 50.9699C25.027 51.6299 23.198 51.6399 21.594 50.9199C8.39196 45.0299 -1.83944 29.48 5.39796 22.55Z" fill="#FFCD29"/>
<path d="M30.9101 19.9171C32.8971 18.9803 35.1494 18.4522 37.4307 18.7755C39.728 19.1011 41.9856 20.2806 43.9717 22.6369L44.3183 23.0675C47.7718 27.5546 47.1013 33.1872 43.8799 38.3351C40.5565 43.6457 34.4553 48.5919 26.9365 51.6642L26.9346 51.6652L26.6924 51.0665L26.626 50.9054L26.9346 51.6652C25.1318 52.3968 23.0896 52.4136 21.2871 51.6046C14.5459 48.5967 8.57047 43.1324 5.18847 37.5119C3.49693 34.7007 2.42753 31.8052 2.2705 29.1222C2.11266 26.4248 2.88041 23.929 4.86718 22.0197C6.81408 20.0722 8.95457 19.096 11.1045 18.8429C13.2436 18.5912 15.3427 19.0611 17.2187 19.921C19.0941 20.7807 20.7714 22.0412 22.0859 23.4122C22.8796 24.24 23.5544 25.1232 24.0625 26.0001C24.5052 25.2106 25.1234 24.3955 25.8496 23.6203C27.165 22.216 28.9231 20.854 30.9101 19.9171ZM37.2197 20.2599C35.3022 19.9883 33.3483 20.4256 31.5498 21.2736C29.7512 22.1216 28.1441 23.3649 26.9443 24.6456C25.724 25.9484 25.0058 27.2026 24.8506 28.046L24.8174 28.1681C24.7167 28.4434 24.4614 28.639 24.1611 28.6583C23.818 28.6803 23.5033 28.4663 23.3984 28.1388L24.1123 27.9103L24.1113 27.9093L23.3984 28.1388C23.043 27.0295 22.2081 25.7063 21.0039 24.4503C19.8058 23.2008 18.2796 22.0571 16.5937 21.2843C14.9086 20.5119 13.0878 20.1205 11.2803 20.3331C9.48374 20.5445 7.65058 21.358 5.9287 23.0802L5.91698 23.0919C4.29391 24.6461 3.63032 26.6884 3.76757 29.0343C3.906 31.4 4.86179 34.0597 6.47362 36.7384C9.69821 42.0974 15.4392 47.3533 21.8994 50.2355H21.9014C23.306 50.866 24.9206 50.863 26.3691 50.2755C33.6562 47.2979 39.4829 42.5344 42.6084 37.5402C45.6341 32.7052 46.0686 27.7969 43.1201 23.9708L42.8242 23.6037C41.0553 21.505 39.1212 20.5294 37.2197 20.2599Z" fill="#1A1A1A"/>
<path d="M17.2829 43.4363C19.6478 42.8878 22.1503 44.7363 22.8728 47.5652C23.5951 50.3941 22.264 53.1326 19.8991 53.6814C17.5342 54.2301 15.0309 52.3813 14.3083 49.5525C13.5858 46.7235 14.9179 43.985 17.2829 43.4363ZM26.1276 47.5652C26.8501 44.7362 29.3534 42.8876 31.7185 43.4363C34.0832 43.9853 35.4145 46.7237 34.6921 49.5525C33.9695 52.3813 31.4662 54.2301 29.1013 53.6814C26.7365 53.1325 25.4053 50.394 26.1276 47.5652Z" fill="#F24822"/>
<path d="M17.0976 42.7098C19.9862 42.0402 22.8121 44.2976 23.6034 47.3963C24.3945 50.495 22.9731 53.7374 20.0849 54.4081C17.1961 55.0783 14.3697 52.8213 13.578 49.7225C12.7866 46.6235 14.2086 43.3801 17.0976 42.7098ZM25.3964 47.3963C26.1878 44.2975 29.0136 42.0401 31.9023 42.7098C34.7912 43.3801 36.2132 46.6235 35.4218 49.7225C34.6302 52.8213 31.8037 55.0783 28.9149 54.4081C26.0265 53.7375 24.6053 50.4951 25.3964 47.3963ZM22.1425 47.7352C21.4891 45.1767 19.3096 43.7364 17.4687 44.1629C15.6275 44.5901 14.3855 46.8247 15.039 49.3836C15.6927 51.9422 17.8728 53.3811 19.7138 52.954C21.5543 52.5262 22.7956 50.2935 22.1425 47.7352ZM31.5312 44.1629C29.6902 43.7363 27.5107 45.1766 26.8573 47.7352C26.2041 50.2936 27.4454 52.5263 29.286 52.954C31.127 53.3811 33.3072 51.9422 33.9608 49.3836C34.6143 46.8247 33.3723 44.5901 31.5312 44.1629Z" fill="#1A1A1A"/>
<path d="M14.2231 35.4312C15.451 35.4313 16.4468 36.3799 16.4468 37.5503C16.4467 38.7206 15.451 39.6693 14.2231 39.6694C12.9952 39.6694 11.9996 38.7207 11.9995 37.5503C11.9995 36.3798 12.9952 35.4312 14.2231 35.4312ZM35.2231 35.4312C36.451 35.4313 37.4468 36.3799 37.4468 37.5503C37.4467 38.7206 36.451 39.6693 35.2231 39.6694C33.9952 39.6694 32.9996 38.7207 32.9995 37.5503C32.9995 36.3798 33.9952 35.4312 35.2231 35.4312Z" fill="#FFA629"/>
<path d="M25.6513 37.8208C25.7847 37.4287 26.2104 37.2188 26.6025 37.352C26.9945 37.4854 27.2044 37.9111 27.0713 38.3032C25.9081 41.722 20.9448 41.8272 19.8486 38.2837C19.7262 37.888 19.948 37.4676 20.3437 37.3452C20.7394 37.2228 21.1598 37.4446 21.2822 37.8403C21.9184 39.8966 24.9227 39.9617 25.6513 37.8208Z" fill="#1A1A1A"/>
<path d="M27.5659 34C28.1182 34 28.5659 34.4477 28.5659 35C28.5659 35.5523 28.1182 36 27.5659 36C27.0136 36 26.5659 35.5523 26.5659 35C26.5659 34.4477 27.0136 34 27.5659 34Z" fill="#1A1A1A"/>
<path d="M19.5659 34C19.0136 34 18.5659 34.4477 18.5659 35C18.5659 35.5523 19.0136 36 19.5659 36C20.1182 36 20.5659 35.5523 20.5659 35C20.5659 34.4477 20.1182 34 19.5659 34Z" fill="#1A1A1A"/>
</svg>
