<svg width="48" height="55" viewBox="0 0 48 55" fill="none" xmlns="http://www.w3.org/2000/svg">
<path d="M4.9633 22.12C12.3017 14.78 22.0763 22.4799 23.6787 27.4799C24.4537 23.2699 35.4534 13.7799 42.9633 22.6899C50.0749 31.1199 41.0243 44.49 26.2181 50.54C24.5921 51.2 22.7637 51.2099 21.1598 50.4899C7.95762 44.5999 -2.27399 29.05 4.9633 22.12Z" fill="#F24822"/>
<path d="M30.4756 19.4869C32.4625 18.5501 34.7149 18.0221 36.9961 18.3453C39.2934 18.6709 41.5511 19.8504 43.5371 22.2067C47.3788 26.7605 46.7709 32.5918 43.4453 37.9059C40.1218 43.2163 34.0205 48.1618 26.502 51.234L26.5 51.235C24.6977 51.9665 22.6567 51.9838 20.8545 51.1754L20.2246 50.8854C13.7415 47.825 8.03055 42.527 4.7539 37.0817C3.06236 34.2705 1.99297 31.375 1.83594 28.692C1.67806 25.9946 2.44577 23.4989 4.43262 21.5895C6.37974 19.642 8.52083 18.6657 10.6709 18.4127C12.8098 18.1612 14.9083 18.631 16.7842 19.4909C18.6595 20.3505 20.3368 21.6111 21.6514 22.9821C22.4453 23.8101 23.1207 24.6937 23.6289 25.5709C24.0716 24.7813 24.6888 23.9655 25.415 23.1901C26.7304 21.7858 28.4886 20.4239 30.4756 19.4869ZM36.7852 19.8297C34.8677 19.5581 32.9137 19.9954 31.1152 20.8434C29.3167 21.6915 27.7095 22.9347 26.5098 24.2155C25.2895 25.5182 24.5713 26.7724 24.416 27.6159C24.3537 27.954 24.0697 28.2062 23.7266 28.2282C23.3835 28.2501 23.0698 28.036 22.9648 27.7086C22.6093 26.5992 21.7736 25.2762 20.5693 24.0202C19.3712 22.7706 17.8451 21.6269 16.1592 20.8541C14.4741 20.0818 12.6532 19.6903 10.8457 19.903C9.04923 20.1144 7.21605 20.9279 5.49414 22.65L4.95215 22.108L4.96289 22.1198L5.49414 22.65C5.49038 22.6538 5.48626 22.6581 5.48242 22.6618L5.18847 22.9586C3.77882 24.4721 3.20435 26.4049 3.33301 28.6041C3.47147 30.9698 4.42726 33.6296 6.03906 36.3082C9.16302 41.4998 14.649 46.5943 20.8623 49.528L21.4658 49.8053L21.4668 49.8063C22.8715 50.4368 24.4859 50.433 25.9346 49.8453L26.6133 49.5612C33.5831 46.5699 39.146 41.9481 42.1738 37.11C45.2972 32.1191 45.6596 27.0496 42.3896 23.1735L42.0566 22.7926C40.3797 20.9552 38.5678 20.0823 36.7852 19.8297Z" fill="#1A1A1A"/>
<path d="M16.8483 43.0064C19.2133 42.4579 21.7158 44.3064 22.4382 47.1353C23.1606 49.9641 21.8294 52.7026 19.4646 53.2515C17.0996 53.8002 14.5963 51.9514 13.8737 49.1226C13.1513 46.2936 14.4833 43.5551 16.8483 43.0064ZM25.6931 47.1353C26.4155 44.3063 28.9189 42.4576 31.2839 43.0064C33.6486 43.5553 34.9799 46.2937 34.2575 49.1226C33.535 51.9514 31.0316 53.8002 28.6667 53.2515C26.3019 52.7026 24.9707 49.9641 25.6931 47.1353Z" fill="#0D99FF"/>
<path d="M16.663 42.2799C19.5516 41.6103 22.3775 43.8677 23.1689 46.9664C23.9599 50.065 22.5386 53.3075 19.6503 53.9781C16.7616 54.6484 13.9351 52.3913 13.1435 49.2926C12.352 46.1935 13.7741 42.9502 16.663 42.2799ZM24.9618 46.9664C25.7532 43.8676 28.579 41.6101 31.4677 42.2799C34.3566 42.9502 35.7786 46.1935 34.9872 49.2926C34.1956 52.3914 31.3691 54.6484 28.4804 53.9781C25.592 53.3076 24.1707 50.0651 24.9618 46.9664ZM21.7079 47.3053C21.0545 44.7467 18.875 43.3065 17.0341 43.733C15.193 44.1602 13.9509 46.3948 14.6044 48.9537C15.2581 51.5122 17.4382 52.9512 19.2792 52.524C21.1197 52.0963 22.3611 49.8636 21.7079 47.3053ZM31.0966 43.733C29.2556 43.3064 27.0762 44.7466 26.4228 47.3053C25.7696 49.8637 27.0109 52.0964 28.8515 52.524C30.6924 52.9512 32.8726 51.5123 33.5263 48.9537C34.1798 46.3948 32.9377 44.1602 31.0966 43.733Z" fill="#1A1A1A"/>
<path d="M13.7886 35.001C15.0165 35.001 16.0121 35.9497 16.0122 37.1201C16.0122 38.2906 15.0165 39.2393 13.7886 39.2393C12.5607 39.2391 11.5659 38.2905 11.5659 37.1201C11.566 35.9498 12.5608 35.0011 13.7886 35.001ZM34.7886 35.001C36.0165 35.001 37.0121 35.9497 37.0122 37.1201C37.0122 38.2906 36.0165 39.2393 34.7886 39.2393C33.5607 39.2391 32.5659 38.2905 32.5659 37.1201C32.566 35.9498 33.5608 35.0011 34.7886 35.001Z" fill="#FFAFA3"/>
<path d="M25.6513 37.8208C25.7847 37.4287 26.2104 37.2188 26.6025 37.352C26.9945 37.4854 27.2044 37.9111 27.0713 38.3032C25.9081 41.722 20.9448 41.8272 19.8486 38.2837C19.7262 37.888 19.948 37.4676 20.3437 37.3452C20.7394 37.2228 21.1598 37.4446 21.2822 37.8403C21.9184 39.8966 24.9227 39.9617 25.6513 37.8208Z" fill="#1A1A1A"/>
<path d="M27.5659 34C28.1182 34 28.5659 34.4477 28.5659 35C28.5659 35.5523 28.1182 36 27.5659 36C27.0136 36 26.5659 35.5523 26.5659 35C26.5659 34.4477 27.0136 34 27.5659 34Z" fill="#1A1A1A"/>
<path d="M19.5659 34C19.0136 34 18.5659 34.4477 18.5659 35C18.5659 35.5523 19.0136 36 19.5659 36C20.1182 36 20.5659 35.5523 20.5659 35C20.5659 34.4477 20.1182 34 19.5659 34Z" fill="#1A1A1A"/>
</svg>
