<svg width="48" height="55" viewBox="0 0 48 55" fill="none" xmlns="http://www.w3.org/2000/svg">
<path d="M5.39829 22.55C12.7363 15.21 22.5113 22.9099 24.1133 27.9099C24.8883 23.6999 35.8883 14.2101 43.3983 23.1201C50.5093 31.5501 41.4593 44.9199 26.6533 50.9699C25.0273 51.6299 23.1983 51.6399 21.5943 50.9199C8.39227 45.0299 -1.83871 29.48 5.39829 22.55Z" fill="#2C2C2C"/>
<path d="M30.9106 19.9171C32.8976 18.9803 35.15 18.4522 37.4311 18.7755C39.7284 19.1011 41.9862 20.2806 43.9722 22.6368C47.8134 27.1906 47.2057 33.0211 43.8804 38.3351C40.557 43.6457 34.4557 48.5919 26.937 51.6642L26.9351 51.6652L26.5942 51.7941C24.8779 52.3958 22.9774 52.363 21.2876 51.6046C14.5464 48.5967 8.57094 43.1324 5.18896 37.5119C3.49745 34.7007 2.42804 31.8052 2.27099 29.1222C2.11313 26.4248 2.88093 23.9291 4.86767 22.0197C6.81461 20.0722 8.95501 19.096 11.105 18.8429C13.2441 18.5912 15.3432 19.061 17.2192 19.921C19.0946 20.7807 20.7719 22.0412 22.0864 23.4122C22.8801 24.24 23.5549 25.1232 24.063 26.0001C24.5057 25.2106 25.1239 24.3955 25.8501 23.6202C27.1655 22.216 28.9236 20.854 30.9106 19.9171ZM37.2202 20.2599C35.3027 19.9882 33.3488 20.4256 31.5503 21.2736C29.7517 22.1216 28.1446 23.3649 26.9448 24.6456C25.7244 25.9485 25.0063 27.2026 24.8511 28.046L24.8179 28.1681C24.7172 28.4433 24.4618 28.6389 24.1616 28.6583C23.8185 28.6803 23.5038 28.4663 23.3989 28.1388L24.1128 27.9103L24.1118 27.9093L23.3989 28.1388C23.0434 27.0294 22.2078 25.7064 21.0034 24.4503C19.8053 23.2008 18.2801 22.0571 16.5942 21.2843C14.9091 20.5119 13.0883 20.1205 11.2808 20.3331C9.48413 20.5445 7.65018 21.3578 5.92822 23.0802C5.92447 23.084 5.92129 23.0883 5.91747 23.0919L5.62353 23.3888C4.21394 24.9023 3.63938 26.8351 3.76806 29.0343C3.90651 31.4 4.86231 34.0597 6.47411 36.7384C9.69865 42.0974 15.4397 47.3533 21.8999 50.2355H21.9018C23.3065 50.8659 24.9211 50.863 26.3696 50.2755L27.0483 49.9913C34.0181 47.0001 39.5811 42.3783 42.6089 37.5402C45.7321 32.5493 46.0944 27.4798 42.8247 23.6036L42.4917 23.2228C40.8147 21.3854 39.0029 20.5125 37.2202 20.2599Z" fill="#1A1A1A"/>
<path d="M17.2829 43.4363C19.6478 42.8878 22.1503 44.7363 22.8728 47.5652C23.5951 50.3941 22.264 53.1326 19.8991 53.6814C17.5342 54.2301 15.0309 52.3813 14.3083 49.5525C13.5858 46.7235 14.9179 43.985 17.2829 43.4363ZM26.1276 47.5652C26.8501 44.7362 29.3534 42.8876 31.7185 43.4363C34.0832 43.9853 35.4145 46.7237 34.6921 49.5525C33.9695 52.3813 31.4662 54.2301 29.1013 53.6814C26.7365 53.1325 25.4053 50.394 26.1276 47.5652Z" fill="#757575"/>
<path d="M17.0976 42.7098C19.9862 42.0402 22.8121 44.2976 23.6034 47.3963C24.3945 50.495 22.9731 53.7374 20.0849 54.4081C17.1961 55.0783 14.3697 52.8213 13.578 49.7225C12.7866 46.6235 14.2086 43.3801 17.0976 42.7098ZM25.3964 47.3963C26.1878 44.2975 29.0136 42.0401 31.9023 42.7098C34.7912 43.3801 36.2132 46.6235 35.4218 49.7225C34.6302 52.8213 31.8037 55.0783 28.9149 54.4081C26.0265 53.7375 24.6053 50.4951 25.3964 47.3963ZM22.1425 47.7352C21.4891 45.1767 19.3096 43.7364 17.4687 44.1629C15.6275 44.5901 14.3855 46.8247 15.039 49.3836C15.6927 51.9422 17.8728 53.3811 19.7138 52.954C21.5543 52.5262 22.7956 50.2935 22.1425 47.7352ZM31.5312 44.1629C29.6902 43.7363 27.5107 45.1766 26.8573 47.7352C26.2041 50.2936 27.4454 52.5263 29.286 52.954C31.127 53.3811 33.3072 51.9422 33.9608 49.3836C34.6143 46.8247 33.3723 44.5901 31.5312 44.1629Z" fill="#1A1A1A"/>
<path d="M14.2236 35.4312C15.4515 35.4313 16.4473 36.3799 16.4473 37.5503C16.4472 38.7206 15.4515 39.6693 14.2236 39.6694C12.9957 39.6694 12.0001 38.7207 12 37.5503C12 36.3798 12.9957 35.4312 14.2236 35.4312ZM35.2236 35.4312C36.4515 35.4313 37.4473 36.3799 37.4473 37.5503C37.4472 38.7206 36.4515 39.6693 35.2236 39.6694C33.9957 39.6694 33.0001 38.7207 33 37.5503C33 36.3798 33.9957 35.4312 35.2236 35.4312Z" fill="#F24822"/>
<path d="M25.6513 37.8208C25.7847 37.4287 26.2104 37.2188 26.6025 37.352C26.9945 37.4854 27.2044 37.9111 27.0713 38.3032C25.9081 41.722 20.9448 41.8272 19.8486 38.2837C19.7262 37.888 19.948 37.4676 20.3437 37.3452C20.7394 37.2228 21.1598 37.4446 21.2822 37.8403C21.9184 39.8966 24.9227 39.9617 25.6513 37.8208Z" fill="#D9D9D9"/>
<path d="M27.5659 34C28.1182 34 28.5659 34.4477 28.5659 35C28.5659 35.5523 28.1182 36 27.5659 36C27.0136 36 26.5659 35.5523 26.5659 35C26.5659 34.4477 27.0136 34 27.5659 34Z" fill="#D9D9D9"/>
<path d="M19.5659 34C19.0136 34 18.5659 34.4477 18.5659 35C18.5659 35.5523 19.0136 36 19.5659 36C20.1182 36 20.5659 35.5523 20.5659 35C20.5659 34.4477 20.1182 34 19.5659 34Z" fill="#D9D9D9"/>
</svg>
