<svg width="48" height="55" viewBox="0 0 48 55" fill="none" xmlns="http://www.w3.org/2000/svg">
<path d="M42.918 42.8339C42.918 49.5609 35.469 53.9819 24.526 53.9819C13.582 53.9819 7.43701 47.1329 7.43701 41.9269C7.43701 36.7219 10.245 34.7169 13.173 29.9309C16.157 25.0529 16.684 18.9219 24.526 18.9219C32.368 18.9219 34.512 26.0189 37.213 31.5609C38.915 35.0539 42.918 36.1069 42.918 42.8339Z" fill="#7F699B"/>
<path d="M6.68701 41.9268C6.68703 39.1596 7.44256 37.2233 8.56689 35.3809C9.11858 34.4768 9.76345 33.5888 10.4321 32.6553C11.1059 31.7147 11.817 30.7105 12.5337 29.5391C13.2531 28.3629 13.8266 27.1079 14.4243 25.834C15.0138 24.5777 15.6286 23.2997 16.4116 22.1699C17.2016 21.0302 18.1773 20.0181 19.5054 19.2969C20.8338 18.5755 22.465 18.1719 24.5259 18.1719C28.732 18.1719 31.4339 20.1006 33.397 22.7129C35.3083 25.2564 36.5791 28.5483 37.8872 31.2324L38.0366 31.5205C38.3993 32.1807 38.8606 32.7613 39.3843 33.3535C39.962 34.0068 40.6699 34.73 41.2925 35.5205C42.5988 37.1791 43.6685 39.2847 43.6685 42.834C43.6684 46.5198 41.6117 49.5252 38.2124 51.5732C34.8303 53.6108 30.0856 54.7314 24.5259 54.7314C13.3197 54.7314 6.68701 47.6841 6.68701 41.9268ZM8.18701 41.9268C8.18701 46.5814 13.8442 53.2314 24.5259 53.2314C29.909 53.2314 34.3609 52.1426 37.439 50.2881C40.4996 48.444 42.1684 45.875 42.1685 42.834C42.1685 39.6563 41.2354 37.8712 40.1147 36.4482C39.524 35.6983 38.9116 35.0832 38.2603 34.3467C37.6296 33.6335 37.0081 32.8532 36.5386 31.8896C35.1458 29.0318 33.9941 26.0037 32.1978 23.6133C30.4531 21.2917 28.1616 19.6719 24.5259 19.6719C22.6659 19.6719 21.2904 20.0346 20.2212 20.6152C19.1517 21.196 18.339 22.0218 17.644 23.0244C16.9422 24.037 16.3753 25.2066 15.7817 26.4717C15.1965 27.7189 14.5853 29.0597 13.813 30.3223C13.0657 31.5437 12.327 32.5854 11.6509 33.5293C10.9697 34.4802 10.3634 35.3162 9.84717 36.1621C8.83554 37.8199 8.18703 39.4891 8.18701 41.9268Z" fill="#1A1A1A"/>
<path d="M14.6278 24.824C16.6808 19.556 21.5698 18.06 23.9868 18C30.5628 18 34.0058 22.336 35.3908 25.629C35.7088 26.386 34.9408 27.035 34.1918 26.7L27.6458 23.766L24.8459 28.179C24.4499 28.803 23.5358 28.796 23.1488 28.166L20.4508 23.766L15.8799 25.904C15.1299 26.255 14.3268 25.596 14.6278 24.824Z" fill="#009951"/>
<path d="M23.987 17.25C30.9674 17.25 34.6263 21.8754 36.0827 25.3379C36.3708 26.0241 36.1661 26.7182 35.6852 27.1387C35.2467 27.522 34.6114 27.6542 34.0065 27.4336L33.8854 27.3848L27.9313 24.7148L25.4792 28.5811C24.7857 29.6736 23.1874 29.6603 22.5104 28.5586L22.5094 28.5576L20.1608 24.7285L16.1979 26.583C15.5513 26.8856 14.8508 26.7595 14.3757 26.3574C13.8897 25.9462 13.6554 25.2546 13.9294 24.5518C16.1262 18.9146 21.3556 17.3149 23.9684 17.25H23.987ZM24.0007 18.75C21.7777 18.8071 17.2345 20.2015 15.3268 25.0967C15.3079 25.1454 15.3139 25.1673 15.3151 25.1719C15.3176 25.1807 15.3247 25.1963 15.3444 25.2129C15.3831 25.2455 15.459 25.2729 15.5622 25.2246L20.7399 22.8027L23.7878 27.7734C23.8848 27.9314 24.114 27.9324 24.2126 27.7773L27.36 22.8164L34.4987 26.0156C34.6076 26.0643 34.6738 26.0307 34.6979 26.0098C34.7109 25.9984 34.713 25.9896 34.7136 25.9873C34.7139 25.9857 34.7153 25.9813 34.7145 25.9727C34.7138 25.9639 34.711 25.9464 34.6999 25.9199C33.3872 22.7988 30.1633 18.756 24.0007 18.75Z" fill="#1A1A1A"/>
<path d="M23.21 15.856H27.518L25.942 20.1439L25.599 20.2809C25.155 20.4589 24.662 20.472 24.21 20.317L23.701 20.1439L23.21 15.856Z" fill="#009951"/>
<path d="M27.5175 15.106C27.7625 15.106 27.9925 15.2255 28.1328 15.4263C28.273 15.6273 28.3062 15.8847 28.2216 16.1147L26.6455 20.4028C26.572 20.6024 26.4171 20.7614 26.2197 20.8403L25.8769 20.9761L25.8779 20.9771C25.2677 21.2217 24.5893 21.2403 23.9667 21.0269V21.0259L23.4599 20.854C23.1853 20.7607 22.989 20.5171 22.956 20.229L22.4648 15.9409C22.4406 15.7287 22.5082 15.5164 22.6503 15.3569C22.7926 15.1974 22.9961 15.106 23.2099 15.106H27.5175ZM24.3915 19.5864L24.4511 19.6069L24.4531 19.6079C24.7344 19.7044 25.0426 19.6958 25.3203 19.5845L25.3535 19.5708L26.4433 16.606H24.0507L24.3915 19.5864Z" fill="#1A1A1A"/>
<path d="M26.3079 41.8895C26.6034 41.5994 27.0782 41.6039 27.3685 41.8992C27.6585 42.1947 27.654 42.6695 27.3587 42.9598L27.2366 43.0799L27.2347 43.0809L26.7112 42.5447L26.6517 42.4842L27.2347 43.0809C25.5545 44.7213 22.8527 44.6561 21.2542 42.9354C20.9723 42.6319 20.9898 42.1567 21.2933 41.8748C21.5967 41.5929 22.0719 41.6104 22.3538 41.9139C23.3785 43.017 25.1098 43.0591 26.1868 42.0076V42.0086L26.3079 41.8895Z" fill="#1A1A1A"/>
<path d="M28.9948 39.0007C29.6548 39.0007 30.1898 39.5357 30.1898 40.1957C30.1898 40.8557 29.6548 41.3907 28.9948 41.3907C28.3348 41.3907 27.7998 40.8557 27.7998 40.1957C27.7998 39.5358 28.3348 39.0007 28.9948 39.0007Z" fill="#1A1A1A"/>
<path d="M19.0046 39.0007C18.3446 39.0007 17.8096 39.5357 17.8096 40.1957C17.8096 40.8557 18.3446 41.3907 19.0046 41.3907C19.6646 41.3907 20.1996 40.8557 20.1996 40.1957C20.1996 39.5358 19.6646 39.0007 19.0046 39.0007Z" fill="#1A1A1A"/>
</svg>
