<svg width="48" height="56" viewBox="0 0 48 56" fill="none" xmlns="http://www.w3.org/2000/svg">
<path d="M25.0393 54.3569C43.9093 53.5349 46.1413 39.7699 42.5923 32.7719C39.0423 25.7739 28.9703 23.6929 25.0393 24.0349C13.7893 25.2689 6.00128 27.8249 4.15528 36.8609C1.68528 48.9479 12.3423 54.3569 25.0393 54.3569Z" fill="#0768CF"/>
<path d="M24.9744 23.2876C27.075 23.1049 30.6921 23.5663 34.2322 24.9526C37.7746 26.3399 41.3696 28.705 43.2605 32.4321V32.4331C45.1385 36.1362 45.4818 41.5921 42.8767 46.2466C40.2464 50.9461 34.6978 54.6866 25.072 55.106L25.0388 54.3452V54.3569L25.072 55.106L25.0554 55.1069H25.0388C18.6083 55.1069 12.5895 53.7412 8.46853 50.7485C6.39796 49.2449 4.79996 47.3244 3.89041 44.9634C2.98091 42.6023 2.77927 39.8492 3.42068 36.7105C4.39077 31.9625 6.94645 28.883 10.7156 26.8608C14.4346 24.8656 19.3178 23.9081 24.9568 23.2896L24.9744 23.2876L25.0388 24.0347L25.0408 24.0581L24.9744 23.2876ZM33.6853 26.3491C30.3291 25.0348 26.954 24.6243 25.1199 24.7798C19.5097 25.3952 14.8742 26.3331 11.4256 28.1831C8.0269 30.0064 5.7654 32.7235 4.88943 37.0112C4.29592 39.9158 4.50011 42.3718 5.2908 44.4243C6.08152 46.4768 7.47839 48.1753 9.35037 49.5347C13.1118 52.2661 18.7644 53.604 25.0252 53.606C34.257 53.1993 39.2537 49.6492 41.5681 45.5142C43.9093 41.3312 43.5946 36.4057 41.9236 33.1108C40.2646 29.8405 37.0488 27.6663 33.6853 26.3491Z" fill="#1A1A1A"/>
<path d="M32.4948 47.377C36.3158 41.567 35.9708 35.579 35.0418 31.196C34.7948 30.031 35.6288 28.928 36.6218 29.585C38.7498 30.992 40.7068 34.77 41.6468 39.058C41.9308 40.353 41.9348 41.722 41.4038 42.937C39.8688 46.452 36.3248 48.743 33.6628 49.722C31.8388 50.393 31.4268 49 32.4948 47.377Z" fill="#034AC1"/>
<path d="M10.5439 23.9999H17.9999L16.9999 21.2949L22.9999 23.4829L26.6299 21.2949L27.9999 23.9999L34.9999 21.9999L32.4029 25.4449L38.0419 26.929L30.9999 28.9999L31.5389 32.9999L26.6299 29.5739L22.9999 34.424L20.4799 29.5739L12.3189 31.348L16.9999 27.327L10.5439 23.9999Z" fill="#0768CF"/>
<path d="M26.3118 20.6163C26.4753 20.5395 26.6619 20.5239 26.8372 20.5743C27.0375 20.6319 27.2049 20.7702 27.2991 20.9561L28.3889 23.1075L34.7942 21.2784C35.104 21.1899 35.436 21.3097 35.6184 21.5753C35.8009 21.841 35.7929 22.1938 35.5989 22.4512L33.6741 25.004L38.2327 26.2042L38.0413 26.9278L38.0422 26.9288L38.2327 26.2042C38.5582 26.2898 38.7873 26.5815 38.7922 26.918C38.7971 27.2546 38.577 27.5534 38.2542 27.6485L31.8293 29.5382L32.2825 32.8995L31.5383 32.9991L31.1096 33.6153L26.7961 30.6036L23.6008 34.8731C23.4462 35.0797 23.1959 35.193 22.9387 35.1719C22.6817 35.1508 22.4531 34.9985 22.3342 34.7696L23.0002 34.4239L22.9993 34.4229L22.3342 34.7696L20.0784 30.4278L12.4788 32.0811L12.3528 32.0977C12.0605 32.1109 11.7817 31.9514 11.6477 31.6827C11.4947 31.3754 11.57 31.0031 11.8303 30.7794L15.6663 27.4835L10.2004 24.6671C9.89277 24.5085 9.7341 24.1597 9.81568 23.8233C9.89726 23.4869 10.1981 23.2501 10.5442 23.2501H16.9241L16.2971 21.5548C16.1959 21.2807 16.2628 20.9728 16.469 20.7657C16.6751 20.5588 16.9827 20.4899 17.2571 20.5899L22.9192 22.6553L26.2434 20.6524L26.3118 20.6163ZM32.2825 32.8995C32.3222 33.1944 32.184 33.4857 31.9299 33.6407C31.6759 33.7956 31.3537 33.7856 31.1096 33.6153L31.5393 33.0001L32.2825 32.8995ZM23.387 24.1251C23.1928 24.242 22.9564 24.2652 22.7434 24.1876L23.0002 23.4835H22.9993L22.7434 24.1876L18.2649 22.5548L18.7034 23.7403C18.7883 23.9704 18.7557 24.2275 18.6155 24.4288C18.4753 24.63 18.2455 24.75 18.0002 24.7501H13.6379L17.344 26.6602C17.5656 26.7745 17.7162 26.9917 17.7454 27.2393C17.7745 27.4871 17.6778 27.733 17.4885 27.8956L15.0559 29.9854L20.3206 28.8409C20.6514 28.769 20.9897 28.9282 21.1458 29.2286L23.1145 33.0186L26.0295 29.1241C26.272 28.8004 26.7282 28.7276 27.0598 28.9591L30.5676 31.4073L30.2571 29.0997L30.2512 28.9639C30.2661 28.65 30.4775 28.3718 30.7883 28.2803L35.2463 26.9688L32.2122 26.17C31.9705 26.1063 31.7764 25.9266 31.6946 25.6905C31.6128 25.4544 31.6535 25.1928 31.804 24.9932L33.054 23.335L28.2063 24.7208L28.0002 23.9991V24.0001L28.2063 24.7208C27.8607 24.8195 27.4937 24.6595 27.3313 24.3389L26.3254 22.3536L23.387 24.1251Z" fill="#1A1A1A"/>
<path d="M23.8979 28.734C26.1071 28.734 27.8979 27.8981 27.8979 26.867C27.8979 25.8359 26.1071 25 23.8979 25C21.6888 25 19.8979 25.8359 19.8979 26.867C19.8979 27.8981 21.6888 28.734 23.8979 28.734Z" fill="#034AC1"/>
<path d="M26.1766 39.8895C26.472 39.5994 26.9469 39.6039 27.2371 39.8992C27.5272 40.1947 27.5227 40.6695 27.2273 40.9598L27.1053 41.0799L27.1033 41.0809L26.5799 40.5447L26.5203 40.4842L27.1033 41.0809C25.4231 42.7213 22.7213 42.6561 21.1229 40.9354C20.841 40.6319 20.8585 40.1567 21.1619 39.8748C21.4654 39.5929 21.9406 39.6104 22.2225 39.9139C23.2472 41.017 24.9785 41.0591 26.0555 40.0076V40.0086L26.1766 39.8895Z" fill="#1A1A1A"/>
<path d="M28.8976 36.4841C29.5576 36.4841 30.0926 37.0191 30.0926 37.6791C30.0926 38.3391 29.5576 38.8741 28.8976 38.8741C28.2377 38.8741 27.7026 38.3391 27.7026 37.6791C27.7026 37.0191 28.2377 36.4841 28.8976 36.4841Z" fill="#1A1A1A"/>
<path d="M18.9074 36.4841C18.2474 36.4841 17.7124 37.0191 17.7124 37.6791C17.7124 38.3391 18.2474 38.8741 18.9074 38.8741C19.5674 38.8741 20.1024 38.3391 20.1024 37.6791C20.1024 37.0191 19.5674 36.4841 18.9074 36.4841Z" fill="#1A1A1A"/>
</svg>
