<svg width="48" height="55" viewBox="0 0 48 55" fill="none" xmlns="http://www.w3.org/2000/svg">
<path d="M23.5 54.221C23.487 54.221 23.473 54.222 23.46 54.222C20.067 54.403 14.978 53.729 10.766 51.156C6.60301 48.611 3.25 44.19 3.25 36.714C3.25 31.978 4.281 28.66 5.825 26.346C7.366 24.037 9.45901 22.665 11.699 21.889C16.223 20.322 21.297 21.207 23.298 21.767C25.542 22.395 27.047 22.103 28.534 21.676C28.736 21.618 28.937 21.558 29.138 21.498C30.376 21.128 31.638 20.75 33.5 20.75C37.576 20.75 44.75 25.933 44.75 36.714C44.75 42.121 43.229 46.452 39.901 49.445C36.559 52.452 31.271 54.221 23.5 54.221Z" fill="#85E0A3"/>
<path d="M44 36.7139C44 31.4982 42.2678 27.6837 40.0879 25.1816C37.884 22.6521 35.2628 21.5 33.5 21.5C31.7542 21.5 30.5806 21.8498 29.3525 22.2168L28.7412 22.3965C27.1789 22.8451 25.5219 23.1683 23.0957 22.4893C21.1557 21.9464 16.2578 21.1036 11.9443 22.5977C9.83184 23.3295 7.88458 24.612 6.44922 26.7627C5.00744 28.9236 4.00002 32.0857 4 36.7139C4 43.9152 7.20563 48.0998 11.1572 50.5156C15.2062 52.989 20.1335 53.648 23.4199 53.4727C23.4332 53.4719 23.4467 53.4717 23.46 53.4717H23.4697C23.4772 53.4715 23.4877 53.4707 23.5 53.4707C31.1716 53.4707 36.2478 51.7233 39.3994 48.8877L39.6875 48.6201C42.6134 45.8213 44 41.8159 44 36.7139ZM45.5 36.7139C45.5 42.2612 43.9353 46.8256 40.4023 50.0029C36.8699 53.1811 31.3701 54.9707 23.5 54.9707H23.5068C23.5039 54.9708 23.4972 54.9715 23.4902 54.9717C23.4855 54.9718 23.4795 54.9716 23.4727 54.9717C20.0829 55.1476 15.0653 54.5042 10.7881 52.041L10.375 51.7959C6.00068 49.1217 2.5 44.4644 2.5 36.7139C2.50002 31.8703 3.55502 28.3968 5.20117 25.9297L5.5166 25.4785C7.12782 23.2822 9.23384 21.9496 11.4531 21.1807C16.1874 19.5408 21.4378 20.4678 23.5 21.0449C25.5618 21.6219 26.9154 21.3605 28.3271 20.9551C28.5245 20.8984 28.7213 20.8394 28.9229 20.7793C30.1708 20.4063 31.5218 20 33.5 20C35.8131 20 38.8167 21.4394 41.2188 24.1963C43.6448 26.9809 45.5 31.1487 45.5 36.7139Z" fill="#1A1A1A"/>
<path d="M35.8802 12.1671C29.0192 13.4391 25.9732 18.2981 24.9772 21.7451C24.6982 22.7091 25.3612 23.6511 26.3492 23.8261C36.6662 25.6511 38.4312 18.7051 37.8972 13.6571C37.7922 12.6611 36.8652 11.9851 35.8802 12.1671Z" fill="#14AE5C"/>
<path d="M35.7439 11.4295C37.1482 11.1701 38.4913 12.1377 38.6433 13.5789C38.919 16.1869 38.6203 19.4181 36.7839 21.7791C34.895 24.2075 31.5515 25.5076 26.2185 24.5643C24.8449 24.321 23.8393 22.9793 24.2565 21.5369L24.361 21.1912C25.5133 17.579 28.7561 12.7249 35.7429 11.4295H35.7439ZM37.1511 13.7361C37.093 13.1854 36.5819 12.8006 36.0163 12.9051V12.9041C29.507 14.111 26.637 18.7 25.697 21.9529V21.9539C25.5567 22.4393 25.878 22.981 26.4802 23.0877H26.4792C31.4632 23.9693 34.161 22.7086 35.6003 20.8582C36.9984 19.0606 37.3654 16.5181 37.1931 14.1971L37.1511 13.7361Z" fill="#1A1A1A"/>
<path d="M35.6262 16.853C34.2252 18.594 32.5132 20.0139 31.0852 21.0029C30.6382 21.3139 30.8832 22.0129 31.4042 21.8549C34.3192 20.9649 35.7582 18.9199 36.3582 17.1599C36.5232 16.6749 35.9472 16.454 35.6262 16.853Z" fill="#008043"/>
<path d="M20.436 11.896L17 14.979C21.862 16.086 23.736 21.521 24.065 24.1H26C26 17.576 22.806 13.025 20.436 11.896Z" fill="#A55E40"/>
<path d="M20.0246 11.2691C20.2414 11.1267 20.52 11.1054 20.759 11.2193C22.1425 11.8785 23.6336 13.4502 24.7717 15.6275C25.9218 17.8278 26.7502 20.7157 26.7502 24.1001C26.7501 24.5143 26.4143 24.8501 26.0002 24.8501H24.0656C23.6881 24.8501 23.3692 24.5693 23.3215 24.1949C23.1683 22.9946 22.6474 21.096 21.5939 19.3804C20.5441 17.6709 19.0071 16.2054 16.8342 15.7105C16.5609 15.6483 16.345 15.4387 16.2746 15.1675C16.2042 14.8962 16.2906 14.6077 16.4992 14.4204L19.9357 11.3374L20.0246 11.2691ZM18.4738 14.6646C20.4633 15.4848 21.8895 16.9966 22.8713 18.5953C23.878 20.2346 24.4469 22.0084 24.7023 23.3501H25.2336C25.1226 20.5377 24.398 18.1508 23.4426 16.3228C22.5359 14.5883 21.4503 13.4068 20.5363 12.813L18.4738 14.6646Z" fill="#1A1A1A"/>
<path opacity="0.5" d="M36.6379 45.437C35.2349 47.296 31.2529 49.258 27.5279 50.456C26.4639 50.799 26.5089 51.731 27.6059 51.514C31.6439 50.716 36.1649 48.864 37.9999 47.805C39.6699 46.84 40.8619 42.808 41.5629 38.892C41.7659 37.755 40.4359 37.473 40.0159 38.549C38.9659 41.239 37.7339 43.984 36.6379 45.437Z" fill="#14AE5C"/>
<path d="M28.4482 39.256C28.8859 39.1124 29.3943 39.3132 29.5832 39.7046C29.7719 40.0958 29.5704 40.5288 29.1329 40.6725L28.8029 40.7801C25.5513 41.867 21.7578 41.0331 19.2835 38.6932C18.9511 38.3787 18.9589 37.9018 19.3005 37.6282C19.6422 37.3548 20.1889 37.3882 20.5214 37.7026C22.4956 39.5693 25.5222 40.2342 28.1142 39.3658L28.1192 39.3638L28.4482 39.256Z" fill="#1A1A1A"/>
<path d="M28.6112 34.1467C29.1497 34.1467 29.5862 34.5832 29.5862 35.1217C29.5862 35.6602 29.1497 36.0967 28.6112 36.0967C28.0728 36.0967 27.6362 35.6602 27.6362 35.1217C27.6362 34.5832 28.0728 34.1467 28.6112 34.1467Z" fill="#1A1A1A"/>
<path d="M20.0443 32.9226C19.5059 32.9226 19.0693 33.3591 19.0693 33.8976C19.0693 34.4361 19.5059 34.8726 20.0443 34.8726C20.5828 34.8726 21.0193 34.4361 21.0193 33.8976C21.0193 33.3591 20.5828 32.9226 20.0443 32.9226Z" fill="#1A1A1A"/>
</svg>
