<svg width="48" height="55" viewBox="0 0 48 55" fill="none" xmlns="http://www.w3.org/2000/svg">
<path d="M23.9004 53.3569C3.10042 52.5349 0.640115 38.7699 4.55241 31.7719C8.46471 24.7739 19.5671 22.6929 23.9004 23.0349C35.2931 24.1689 39.2574 27.5579 43.3162 33.2819C44.0507 34.3179 44.6802 35.4439 45.0841 36.6479C50.076 51.5259 33.205 54.3459 23.9004 53.3569Z" fill="#DC3412"/>
<path d="M13.8174 23.9439C17.7053 22.5626 21.6702 22.1071 23.959 22.2876H23.9668L23.9746 22.2886C29.7308 22.8616 33.6871 24.0112 36.7363 25.7896C39.7923 27.572 41.8719 29.9489 43.9277 32.8482C44.6922 33.9264 45.3617 35.1182 45.7949 36.4097C47.0864 40.259 46.9931 43.4234 45.876 45.9751C44.762 48.5193 42.6778 50.3461 40.1963 51.6197C35.265 54.1503 28.5634 54.6052 23.832 54.1041C13.2952 53.6791 7.21543 49.9652 4.32127 45.274C1.44099 40.6051 1.81954 35.1226 3.89744 31.4058C5.98174 27.6776 9.93522 25.3231 13.8174 23.9439ZM23.8418 23.7828C21.7972 23.6214 18.0437 24.0348 14.3193 25.358C10.589 26.6833 7.03496 28.8686 5.20702 32.1382C3.37276 35.4194 3.02596 40.3183 5.59764 44.4869C8.07219 48.4978 13.3475 51.9785 22.9834 52.5601L23.9297 52.608L23.9551 52.6089L23.9795 52.6109C28.5519 53.0969 34.9321 52.6352 39.5107 50.2857C41.7858 49.1182 43.5659 47.5115 44.5019 45.3736C45.4346 43.2432 45.5773 40.4756 44.373 36.8863C43.9985 35.7698 43.4086 34.7091 42.7041 33.7154C40.7013 30.8909 38.7692 28.712 35.9805 27.0855C33.1872 25.4564 29.4696 24.3433 23.8418 23.7818V23.7828Z" fill="#1A1A1A"/>
<path d="M12.1343 25.5318C13.7769 24.1888 15.9222 23.4329 17.4015 22.9989C17.942 22.8409 18.2599 22.2759 18.0748 21.7439C17.8647 21.1409 17.6681 20.6609 17.5018 20.2879C17.2453 19.7109 17.5687 19.3248 18.152 19.5658C19.7539 20.2268 21.7174 21.4489 22.9278 22.3399C23.3314 22.6379 23.8925 22.6249 24.2918 22.3219C26.8015 20.4159 29.5558 20.0979 31.592 20.2519C32.4802 20.3199 32.6074 21.3939 31.8264 21.8219C29.4602 23.1199 28.8422 23.6479 28.9229 23.8929C28.9805 24.0679 29.2428 24.0209 29.4216 23.9769C33.6071 22.9649 36.295 24.2789 37.5783 25.2099C38.0106 25.5239 37.9945 26.1208 37.4878 26.2898C35.8861 26.8248 32.738 26.7449 30.5783 26.9609C30.104 27.0089 29.7562 27.4128 29.7394 27.8888C29.507 34.4868 29.0384 34.9609 28.5915 34.2959C28.5634 34.2539 28.5401 34.2068 28.5206 34.1598C25.756 27.5768 24.3113 26.7829 23.8415 27.2629C23.7709 27.3349 23.7446 27.4398 23.7271 27.5398C22.6839 33.4718 21.537 35.5759 20.7343 36.1549C20.3542 36.4289 20.0697 35.9538 20.1228 35.4878C20.3465 33.5248 20.2695 29.5159 20.2736 27.2799C20.2746 26.7279 19.8393 26.2719 19.2875 26.2959C17.5428 26.3689 14.8517 26.6609 12.768 26.8479C11.9445 26.9209 11.4942 26.0548 12.1343 25.5318Z" fill="#14AE5C"/>
<path d="M16.9485 19.1248C17.3742 18.6403 18.0046 18.6935 18.4387 18.8729C20.1156 19.5649 22.1327 20.8237 23.3723 21.7362H23.3733C23.4995 21.8294 23.6944 21.8333 23.8381 21.7244C26.5363 19.6753 29.4912 19.3406 31.6487 19.5037H31.6496C32.4433 19.5646 32.9849 20.1175 33.0784 20.8006C33.1675 21.4529 32.8376 22.1229 32.1877 22.4793C31.9145 22.6292 31.6663 22.7682 31.4416 22.8963C34.6575 22.6539 36.8414 23.7492 38.0188 24.6034H38.0198C38.421 24.895 38.6653 25.3598 38.634 25.8524C38.6007 26.3739 38.2606 26.8231 37.7248 27.0018L37.7239 27.0008C36.8146 27.3042 35.5305 27.4209 34.2864 27.494C32.9898 27.5702 31.7147 27.5998 30.6536 27.7059L30.6545 27.7069C30.5855 27.7139 30.4942 27.7811 30.4895 27.9159C30.3736 31.2056 30.1971 33.0448 29.9758 33.9871C29.9195 34.2268 29.8525 34.4442 29.7659 34.6248C29.6902 34.7826 29.5422 35.0366 29.2561 35.1766C28.8916 35.3548 28.5471 35.244 28.3401 35.1043C28.1632 34.985 28.0421 34.8235 27.969 34.7147L27.968 34.7127C27.9051 34.6187 27.8608 34.5255 27.8293 34.45L27.3303 33.2918C26.2041 30.7477 25.3458 29.2989 24.7336 28.5301C24.5956 28.3568 24.4762 28.2302 24.3791 28.1356C23.8778 30.8768 23.353 32.7966 22.8401 34.1248C22.309 35.4999 21.7567 36.3425 21.1731 36.7635C20.9558 36.9201 20.6677 37.0253 20.3469 36.9715C20.036 36.9193 19.8138 36.7379 19.676 36.5623C19.4154 36.2302 19.3348 35.784 19.3782 35.4032C19.5956 33.4955 19.5195 29.5618 19.5237 27.2782C19.5237 27.2014 19.494 27.1386 19.4543 27.0985C19.4171 27.0608 19.3727 27.0435 19.3205 27.0457H19.3196C17.5986 27.1177 14.9465 27.4051 12.8352 27.5946H12.8342C12.1393 27.6561 11.5141 27.3175 11.2307 26.7469C10.9333 26.1479 11.0806 25.4247 11.6604 24.951C13.4251 23.5083 15.6926 22.7186 17.1907 22.2791H17.1916C17.3521 22.2321 17.3994 22.0867 17.3664 21.991L17.218 21.577C17.0719 21.1851 16.9353 20.8597 16.8166 20.5936V20.5926C16.6336 20.1808 16.5475 19.5812 16.9485 19.1248ZM18.4026 20.4959C18.4724 20.667 18.5483 20.8515 18.6233 21.0526L18.7834 21.4969V21.4979C19.099 22.4056 18.6019 23.3268 17.7805 23.66L17.6125 23.7186C16.1576 24.1455 14.1445 24.864 12.6262 26.0985L12.7024 26.1004C14.7579 25.9159 17.487 25.6208 19.2551 25.5467C20.273 25.5024 21.0252 26.3417 21.0237 27.2811C21.0202 29.1835 21.0783 32.5191 20.9426 34.6844C21.0947 34.4043 21.263 34.0449 21.4407 33.5848C21.934 32.3074 22.4714 30.3503 22.9885 27.41C23.0061 27.3093 23.0584 26.9908 23.3059 26.7381L23.4426 26.619C23.59 26.5097 23.7678 26.4327 23.97 26.4071C24.23 26.3742 24.4765 26.4325 24.6897 26.5282C25.0973 26.7112 25.4987 27.0822 25.9075 27.5955C26.6297 28.5026 27.5418 30.0723 28.6799 32.6375C28.7994 31.6619 28.91 30.146 28.9905 27.8621L29.0022 27.7098C29.0958 26.9548 29.6787 26.2981 30.5032 26.2147H30.5041C31.6025 26.1048 32.981 26.0675 34.1985 25.9959C35.2853 25.9321 36.2402 25.8398 36.927 25.6698C35.7092 24.8551 33.3054 23.8095 29.5979 24.7059L29.5969 24.7049C29.5031 24.728 29.3023 24.7766 29.0911 24.7664C28.8837 24.7564 28.3871 24.6614 28.2112 24.1278C28.0658 23.6863 28.304 23.3305 28.425 23.1795C28.5698 22.999 28.7754 22.8239 29.012 22.6493C29.4951 22.2927 30.2787 21.8162 31.4661 21.1649V21.1639C31.5349 21.1262 31.565 21.0859 31.5784 21.0604C31.5898 21.0384 31.591 21.0208 31.5911 21.0106L31.5354 20.9998C29.6205 20.8551 27.0664 21.1561 24.7454 22.9188V22.9198C24.0909 23.4163 23.1643 23.446 22.4836 22.9442L22.009 22.6053C20.9851 21.8941 19.6198 21.0632 18.4026 20.4959Z" fill="#1A1A1A"/>
<path d="M34.3956 48.208C38.4556 42.485 38.1003 36.606 37.0998 32.272C36.8246 31.08 37.6631 29.921 38.7256 30.527C41.0738 31.867 43.2469 35.598 44.3157 39.866C44.67 41.282 44.6728 42.801 44.0134 44.103C42.2846 47.515 38.4698 49.747 35.5842 50.715C33.6025 51.38 33.1863 49.913 34.3956 48.208Z" fill="#BD2915"/>
<path d="M22.9196 44.0027C23.299 43.8366 23.7415 44.0096 23.9076 44.389C24.0735 44.7684 23.9006 45.21 23.5214 45.3761L23.2353 45.5007C20.4169 46.7544 17.1182 46.1252 14.9575 43.9275C14.6673 43.6322 14.6716 43.1571 14.9669 42.8668C15.2622 42.5766 15.7373 42.5809 16.0276 42.8762C17.7515 44.6294 20.3834 45.131 22.6301 44.1297L22.6345 44.1274L22.9196 44.0027Z" fill="#1A1A1A"/>
<path d="M22.7095 40.1307C23.1473 40.1651 23.4742 40.5478 23.4398 40.9855C23.4054 41.4233 23.0226 41.7502 22.5849 41.7158C22.1472 41.6814 21.8203 41.2986 21.8547 40.8609C21.8891 40.4232 22.2718 40.0963 22.7095 40.1307Z" fill="#1A1A1A"/>
<path d="M14.9586 39.1386C14.5265 39.2166 14.2395 39.6301 14.3174 40.0621C14.3954 40.4942 14.8089 40.7813 15.241 40.7033C15.6731 40.6254 15.9601 40.2119 15.8822 39.7798C15.8042 39.3477 15.3907 39.0606 14.9586 39.1386Z" fill="#1A1A1A"/>
</svg>
