<svg width="48" height="55" viewBox="0 0 48 55" fill="none" xmlns="http://www.w3.org/2000/svg">
<path d="M38.6899 41C38.6899 45.196 36.9979 48.484 34.2759 50.736C31.5389 53 27.7189 54.25 23.4399 54.25C19.1619 54.25 15.3409 53 12.6039 50.736C9.88194 48.484 8.18994 45.196 8.18994 41C8.18994 36.993 10.9279 34.668 14.3199 31.974C14.4189 31.895 14.519 31.816 14.618 31.737C17.859 29.168 21.5299 26.258 22.6879 21.215C23.0029 19.847 23.7979 19.299 24.3959 19.267C24.9559 19.238 25.8089 19.65 26.2769 21.256C27.7209 26.213 30.7819 29.246 33.4439 31.885C33.5539 31.993 33.6629 32.101 33.7709 32.209C36.5389 34.958 38.6899 37.27 38.6899 41Z" fill="#33293D"/>
<path d="M37.9399 41.0001C37.9399 37.6174 36.0282 35.5078 33.2427 32.7413L33.2407 32.7394C33.1344 32.6331 33.0269 32.5265 32.9185 32.42L32.9155 32.4181L31.8979 31.4025C29.4844 28.9625 26.8731 25.9832 25.5571 21.4659C25.148 20.0618 24.5267 20.0112 24.4351 20.0157C24.2699 20.0252 23.6831 20.2346 23.4185 21.3839C22.1936 26.7166 18.301 29.775 15.0835 32.3253L15.0825 32.3243C15.033 32.3639 14.9839 32.4047 14.9351 32.4435C14.8853 32.483 14.8361 32.5219 14.7876 32.5607L14.7866 32.5616L14.3198 31.9738L14.1313 31.7374L14.7866 32.5616C11.3487 35.2921 8.93994 37.4049 8.93994 41.0001C8.93994 44.9742 10.5339 48.0498 13.0825 50.1583C15.6605 52.2906 19.302 53.5001 23.4399 53.5001C27.5791 53.5001 31.2203 52.2908 33.7983 50.1583C36.3468 48.0498 37.9399 44.974 37.9399 41.0001ZM39.4399 41.0001C39.4399 45.4179 37.6496 48.9181 34.7544 51.3136C31.8584 53.7091 27.8588 55.0001 23.4399 55.0001C19.0221 55.0001 15.0215 53.7091 12.1255 51.3136C9.23032 48.9181 7.43994 45.4179 7.43994 41.0001C7.43994 36.5815 10.507 34.0443 13.853 31.3868C13.9029 31.347 13.9533 31.3077 14.0024 31.2687C14.0523 31.2291 14.1012 31.1893 14.1499 31.1505L14.1519 31.1495C17.4162 28.562 20.8652 25.7997 21.9565 21.047H21.9575C22.3224 19.4625 23.3238 18.5739 24.356 18.5187L24.3569 18.5177C25.3865 18.4644 26.4702 19.2402 26.9966 21.046C28.3802 25.7958 31.3048 28.7083 33.9692 31.3497C34.0802 31.4586 34.1903 31.5679 34.2993 31.6769C37.0497 34.4084 39.4399 36.923 39.4399 41.0001Z" fill="#1A1A1A"/>
<path d="M26.2759 21.256C26.2849 21.286 26.2949 21.314 26.3069 21.342L28.7579 27.056L27.433 26.736C27.1 26.656 26.7559 26.811 26.5949 27.113L25.2579 29.621C25.1589 29.808 24.8869 29.795 24.8069 29.599L23.3269 26.027C23.2109 25.747 22.9379 25.564 22.6339 25.564C21.9019 25.564 21.3429 25.564 20.6479 25.629C20.8139 25.298 20.9989 24.925 21.1889 24.539C21.7889 23.319 22.4759 21.879 22.6709 21.278C22.6779 21.257 22.6829 21.236 22.6879 21.215C23.0019 19.847 23.7979 19.299 24.3959 19.267C24.9549 19.238 25.8079 19.65 26.2759 21.256Z" fill="#678E79"/>
<path d="M24.3571 18.5177C25.3848 18.4644 26.4669 19.2389 26.9938 21.0402H26.9948C26.9954 21.0421 26.9952 21.0441 26.9958 21.046H26.9968L29.447 26.7609C29.5588 27.0217 29.5139 27.3233 29.3307 27.5402C29.1476 27.7569 28.8576 27.8519 28.5817 27.7853L27.2575 27.465L27.2565 27.4659L25.9196 29.9738C25.5241 30.7173 24.4371 30.6704 24.114 29.8859L22.6345 26.3146C21.9001 26.3146 21.3737 26.3148 20.7184 26.3761C20.4472 26.4015 20.1828 26.2777 20.029 26.0529C19.8752 25.8279 19.8552 25.5367 19.9772 25.2931C20.1422 24.9642 20.3269 24.5929 20.5163 24.2081L20.9753 23.2648C21.4257 22.3271 21.8259 21.4498 21.9567 21.047C22.3207 19.4618 23.3244 18.5739 24.3561 18.5187L24.3571 18.5177ZM24.4352 20.0158C24.2697 20.0253 23.6822 20.2345 23.4186 21.3829L23.4177 21.3888C23.4139 21.4045 23.4014 21.4539 23.3835 21.5089L23.3845 21.5099C23.1715 22.166 22.4689 23.6319 21.8854 24.8195C22.1259 24.8163 22.3714 24.8146 22.6345 24.8146C23.2421 24.8147 23.7883 25.1806 24.0202 25.7404L25.0944 28.3331L25.9333 26.7599C26.2345 26.1953 26.8569 25.8872 27.4811 25.9816L25.6179 21.6378C25.5936 21.5812 25.5736 21.5262 25.5573 21.4718L25.5563 21.4659C25.147 20.0612 24.5254 20.0112 24.4352 20.0158Z" fill="#1A1A1A"/>
<path d="M25.7479 42.8895C26.0433 42.5994 26.5182 42.6039 26.8084 42.8992C27.0985 43.1947 27.094 43.6695 26.7986 43.9598L26.6766 44.0799L26.6746 44.0809L26.1512 43.5447L26.0916 43.4842L26.6746 44.0809C24.9944 45.7213 22.2926 45.6561 20.6941 43.9354C20.4122 43.6319 20.4297 43.1567 20.7332 42.8748C21.0367 42.5929 21.5118 42.6104 21.7938 42.9139C22.8185 44.017 24.5498 44.0591 25.6268 43.0076V43.0086L25.7479 42.8895Z" fill="#D9D9D9"/>
<path d="M28.4352 40.0015C29.0952 40.0015 29.6302 40.5365 29.6302 41.1965C29.6302 41.8564 29.0952 42.3915 28.4352 42.3915C27.7753 42.3915 27.2402 41.8564 27.2402 41.1965C27.2402 40.5365 27.7753 40.0015 28.4352 40.0015Z" fill="#D9D9D9"/>
<path d="M18.445 40.0015C17.785 40.0015 17.25 40.5365 17.25 41.1965C17.25 41.8564 17.785 42.3915 18.445 42.3915C19.105 42.3915 19.64 41.8564 19.64 41.1965C19.64 40.5365 19.105 40.0015 18.445 40.0015Z" fill="#D9D9D9"/>
</svg>
