<svg width="48" height="55" viewBox="0 0 48 55" fill="none" xmlns="http://www.w3.org/2000/svg">
<path d="M43.2243 53.28C34.6685 51.07 12.0812 39.71 2 31.21C2 31.21 9.2652 28.66 18.7792 26.3C28.2931 23.93 35.2546 22 35.2546 22C38.9102 27.86 43.3663 42.99 45.1009 51.34C45.3524 52.56 44.4219 53.59 43.2243 53.28Z" fill="#FFE8A3"/>
<path d="M35.8906 21.6035C37.7725 24.6202 39.8244 29.9476 41.6123 35.5068C43.1827 40.3896 44.5693 45.5138 45.4766 49.5352L45.835 51.1875L45.8359 51.1885C46.0076 52.0213 45.7814 52.8371 45.251 53.3984C44.7113 53.9695 43.8978 54.2289 43.0361 54.0059C38.6692 52.8777 30.8192 49.4509 22.8359 45.2686C14.8445 41.082 6.62022 36.0863 1.5166 31.7832L0.512695 30.9375L1.75195 30.502C1.75295 30.5016 1.75594 30.5007 1.75781 30.5C1.76156 30.4987 1.76733 30.4966 1.77441 30.4941C1.78887 30.4891 1.80999 30.4814 1.83789 30.4717C1.89435 30.4521 1.9783 30.4232 2.08789 30.3857C2.30705 30.3108 2.62995 30.2011 3.04688 30.0625C3.88091 29.7852 5.09153 29.3917 6.59961 28.9238C9.61509 27.9883 13.8238 26.7565 18.5977 25.5723C23.3499 24.3884 27.4649 23.3141 30.3916 22.5361C31.8548 22.1472 33.0213 21.8329 33.8213 21.6152C34.2213 21.5064 34.5299 21.4215 34.7383 21.3643C34.8424 21.3357 34.9216 21.3135 34.9746 21.2988C35.0008 21.2916 35.0209 21.2869 35.0342 21.2832C35.0408 21.2814 35.0465 21.2792 35.0498 21.2783C35.0511 21.278 35.052 21.2775 35.0527 21.2773H35.0547L35.5947 21.1279L35.8906 21.6035ZM34.2148 23.0625C33.4123 23.2808 32.2435 23.5966 30.7773 23.9863C27.8449 24.7658 23.7222 25.8413 18.9609 27.0273L18.96 27.0283L18.7793 26.2998L18.709 26.0176L18.96 27.0283C14.2202 28.204 10.0394 29.4271 7.04395 30.3564C5.54728 30.8208 4.34691 31.2109 3.52148 31.4854C8.54339 35.4878 16.102 40.0469 23.5322 43.9395C31.0033 47.8535 38.2568 51.0485 42.5859 52.3242L43.4121 52.5537C43.748 52.6407 43.9991 52.5396 44.1611 52.3682C44.3321 52.1871 44.4457 51.8786 44.3662 51.4922C43.505 47.3467 41.9653 41.5027 40.1846 35.9658C38.4926 30.7051 36.6043 25.7954 34.9033 22.874C34.7179 22.9248 34.4875 22.9883 34.2148 23.0625Z" fill="#1A1A1A"/>
<path d="M20.0986 34.2754C19.8084 34.304 19.3072 34.4231 18.8554 34.6709C18.4065 34.9172 18.1122 35.2279 18.0029 35.5986C17.9474 35.7895 17.9682 35.8906 17.9834 35.9375C18.0007 35.9909 18.0398 36.0581 18.1298 36.1367C18.3343 36.3152 18.6742 36.4405 18.9375 36.4824L18.623 38.458C18.133 38.3799 17.3947 38.1501 16.8144 37.6436C16.5122 37.3797 16.2324 37.0216 16.081 36.5557C15.9275 36.0831 15.9293 35.5698 16.083 35.041V35.0391L17.0429 35.3203L17.249 35.3799L16.083 35.0391C16.3927 33.9809 17.1722 33.3127 17.8935 32.917C18.6129 32.5224 19.3811 32.3366 19.9023 32.2852L20.0986 34.2754Z" fill="#F79722"/>
<path d="M24.395 39.001C24.4538 39.29 24.6221 39.7758 24.9126 40.1992C25.2009 40.6194 25.5404 40.8828 25.9263 40.957C26.1181 40.9916 26.215 40.9623 26.2603 40.9424C26.3121 40.9195 26.3756 40.8736 26.4448 40.7764C26.6018 40.5558 26.6922 40.2068 26.7065 39.9453L28.7036 40.0547C28.6763 40.5531 28.5201 41.3097 28.0737 41.9365C27.8413 42.2629 27.5133 42.5766 27.0659 42.7734C26.6121 42.9731 26.1017 43.0231 25.561 42.9238L25.5542 42.9229L25.7417 41.9404L25.7544 41.8662L25.5542 42.9229C24.4706 42.7165 23.7289 42.0099 23.2632 41.3311C22.7991 40.6546 22.5399 39.9104 22.436 39.3994L24.395 39.001Z" fill="#F79722"/>
<path d="M23.505 26.4631C23.3937 26.7401 23.2644 27.2403 23.2726 27.7542C23.2808 28.2653 23.4198 28.6703 23.7003 28.9417C23.8425 29.079 23.9402 29.1081 23.9884 29.1165C24.0434 29.126 24.1207 29.1221 24.2316 29.0793C24.4836 28.982 24.7509 28.7405 24.9064 28.5286L26.5197 29.7112C26.2204 30.1191 25.6709 30.6678 24.9513 30.9456C24.5765 31.0902 24.129 31.1707 23.6466 31.0872C23.1575 31.0024 22.7049 30.7613 22.3097 30.3792C21.5151 29.6106 21.2868 28.6102 21.2736 27.7864C21.2604 26.9652 21.4554 26.2 21.6496 25.717L23.505 26.4631Z" fill="#F79722"/>
<path d="M35.7295 28.187C35.9236 28.67 36.1186 29.4352 36.1055 30.2563C36.0922 31.0801 35.8639 32.0806 35.0693 32.8491C34.6741 33.2313 34.2211 33.4722 33.7324 33.5571C33.2506 33.6408 32.8039 33.5609 32.4297 33.4175C31.711 33.1419 31.1625 32.5977 30.8643 32.1978L32.4678 31.0024C32.6244 31.2124 32.8926 31.4533 33.1455 31.5503C33.257 31.593 33.3351 31.5961 33.3906 31.5864C33.4394 31.5779 33.537 31.5486 33.6787 31.4116H33.6797C33.9602 31.1403 34.0982 30.7352 34.1064 30.2241C34.1147 29.7103 33.9854 29.2101 33.874 28.9331L35.7295 28.187Z" fill="#F79722"/>
<path d="M15.0303 34.1733L12.0537 34.5474L11.6025 30.9575L14.5791 30.5825L15.0303 34.1733Z" fill="#FAB815"/>
<path d="M28.6094 35.0466L26.3975 37.073L23.8145 34.2527L26.0273 32.2273L28.6094 35.0466Z" fill="#FAB815"/>
<path d="M43.3057 48.8623L41.3506 51.1377L39.0225 49.1377L40.9775 46.8623L43.3057 48.8623Z" fill="#FAB815"/>
<path d="M37.1982 37.6797L35.8506 41.0303L33.0674 39.9102L34.415 36.5605L37.1982 37.6797Z" fill="#FAB815"/>
<path d="M19.9789 20.44C16.2058 21.51 6.4279 25.5001 2 27.7801L5.2166 34.1801C10.2202 31.9201 19.3876 28.4801 20.9789 28.0301C22.5274 27.5901 31.297 25.1501 35.8307 23.8901C36.0674 23.8301 36.273 23.68 36.3841 23.46C36.7623 22.71 37.1711 21.43 36.8749 20.44C36.5828 19.45 35.8085 18.63 35.2594 18.2C35.0839 18.06 34.8588 18.0101 34.6374 18.0401C31.057 18.4301 23.6315 19.4 19.9789 20.44Z" fill="#D4693B"/>
<path d="M34.5571 17.2964C34.9468 17.2483 35.3765 17.3333 35.728 17.6138L35.727 17.6147C36.338 18.0946 37.2407 19.0303 37.5942 20.2251L37.6567 20.4741C37.7782 21.0601 37.7269 21.6668 37.6166 22.1938C37.489 22.804 37.2681 23.3729 37.0541 23.7973L36.1323 23.3325L36.6713 23.605L37.0541 23.7973V23.7983L36.9633 23.9536C36.7375 24.2951 36.394 24.5149 36.0307 24.6108L36.0317 24.6128C31.4962 25.8733 22.7298 28.3122 21.184 28.7514H21.183C19.6415 29.1875 10.5129 32.6112 5.52582 34.8638C5.15945 35.0292 4.72797 34.8762 4.5473 34.5171L1.33051 28.1167C1.14594 27.7493 1.29137 27.3022 1.65668 27.1138C6.11761 24.8167 15.9417 20.8051 19.7739 19.7182C23.4973 18.6581 30.9863 17.6834 34.5571 17.2944V17.2964ZM34.7192 18.7856L33.2104 18.9585C29.3472 19.4191 23.319 20.2693 20.185 21.1616L19.9575 20.3638L20.184 21.1616C16.6463 22.1648 7.6521 25.8139 3.00726 28.1138L5.56586 33.2036C10.6919 30.9431 19.2016 27.7531 20.7748 27.3081C22.3278 26.8668 31.0989 24.4268 35.6303 23.1675L35.8305 23.8901H35.8315L35.6303 23.1675C35.6358 23.1659 35.6414 23.165 35.6469 23.1636C35.6985 23.1505 35.7132 23.1257 35.7153 23.1216C35.8793 22.7961 36.0517 22.3505 36.1489 21.8862C36.2477 21.4135 36.2552 20.9841 36.1567 20.6548L36.1557 20.6518C35.9541 19.969 35.4377 19.3477 34.9858 18.9477L34.7973 18.7905L34.7924 18.7866L34.7856 18.7846C34.7773 18.7826 34.7616 18.7806 34.7387 18.7837C34.7323 18.7845 34.7256 18.7849 34.7192 18.7856Z" fill="#1A1A1A"/>
<path d="M5.68859 30.3601C6.28209 32.3601 5.7363 34.0701 4.5423 34.4001C3.3484 34.7301 1.6688 33.6201 1.0752 31.6201C0.481695 29.6201 0.968297 27.7401 2.1622 27.4101C3.3562 27.0801 5.09499 28.3601 5.68859 30.3601Z" fill="#864E37"/>
<path d="M1.96156 26.6875C2.88445 26.4324 3.86481 26.8203 4.61976 27.4268C5.39787 28.0519 6.06705 29.0017 6.40687 30.1465C6.7356 31.2543 6.76503 32.3323 6.50452 33.2178C6.24423 34.1023 5.66208 34.8687 4.74183 35.123C3.84945 35.3697 2.89332 35.0581 2.13148 34.4824C1.35466 33.8953 0.696348 32.9794 0.356086 31.833C0.0279689 30.7271 -0.0143213 29.6169 0.222297 28.7012C0.45488 27.8012 1.00529 26.9521 1.96156 26.6875ZM3.68031 28.5957C3.11931 28.1451 2.63305 28.0581 2.36195 28.1328C2.12472 28.1984 1.83526 28.4541 1.67445 29.0762C1.51772 29.6827 1.52844 30.5125 1.79359 31.4062C2.04692 32.2598 2.52592 32.8998 3.03577 33.2852C3.56054 33.6818 4.04104 33.7601 4.34241 33.6768C4.61597 33.601 4.90339 33.3475 5.06605 32.7949C5.2285 32.2429 5.23411 31.4654 4.96937 30.5732C4.71554 29.7182 4.21839 29.028 3.68031 28.5957Z" fill="#1A1A1A"/>
<path fill-rule="evenodd" clip-rule="evenodd" d="M32.5538 45.4092C32.8732 45.1455 33.3459 45.1906 33.6096 45.5101C34.3741 46.436 35.7824 46.47 36.5905 45.5821L36.6805 45.4831C36.9592 45.1766 37.4335 45.154 37.74 45.4326C38.0465 45.7112 38.0691 46.1856 37.7905 46.4921L37.7005 46.5911C36.2776 48.1549 33.7987 48.0951 32.4529 46.4651C32.1892 46.1457 32.2343 45.673 32.5538 45.4092Z" fill="#1A1A1A"/>
<path d="M39.0145 42.9951C39.5751 42.9951 40.0295 43.4316 40.0295 43.9701C40.0295 44.5086 39.5751 44.9451 39.0145 44.9451C38.4539 44.9451 37.9995 44.5086 37.9995 43.9701C37.9995 43.4316 38.4539 42.9951 39.0145 42.9951Z" fill="#1A1A1A"/>
<path d="M31.0145 42.9951C30.4539 42.9951 29.9995 43.4316 29.9995 43.9701C29.9995 44.5086 30.4539 44.9451 31.0145 44.9451C31.5751 44.9451 32.0295 44.5086 32.0295 43.9701C32.0295 43.4316 31.5751 42.9951 31.0145 42.9951Z" fill="#1A1A1A"/>
</svg>
