<svg width="48" height="55" viewBox="0 0 48 55" fill="none" xmlns="http://www.w3.org/2000/svg">
<path d="M4.12046 46.2861V20.4181C4.04049 19.8121 4.17396 18.6001 5.34757 18.6001C6.81458 18.6001 9.43499 20.9551 9.43499 23.9181H11.6304C12.0179 21.7991 13.8617 18.6001 15.5889 18.6001C17.7479 18.6001 16.7514 25.4721 16.7514 26.1331C16.7514 26.6621 17.4903 26.8951 17.7118 27.7481L39.7626 40.0501C39.7626 43.6571 46.1204 46.4321 46.1204 47.6031C46.1204 48.5391 43.2418 48.7471 41.8025 48.7341C43.0039 49.3451 45.4068 50.8801 45.4068 52.1291C45.4068 53.6901 42.7035 54.6001 40.4884 54.6001C38.2732 54.6001 33.7678 53.2991 32.8292 53.2991C31.8906 53.2991 28.2863 54.6671 23.856 54.6671C19.4257 54.6671 12.7427 52.1291 12.1204 52.1291C11.498 52.1291 5.73967 55.9801 2.12048 54.6671C1.17652 54.3241 3.25059 48.3451 4.12046 46.2861Z" fill="#444444"/>
<path d="M42.6872 33.416C42.6872 36.769 41.0455 38.45 39.3411 40.433C40.2756 42.129 39.7384 47.466 29.5971 47.466C19.4558 47.466 15.1204 42.63 15.1204 35.334C15.1204 28.039 20.811 22.125 27.8308 22.125C34.8507 22.125 42.6872 26.121 42.6872 33.416Z" fill="#757575"/>
<path fill-rule="evenodd" clip-rule="evenodd" d="M15.154 19.9031C15.154 19.9031 15.16 19.9091 15.1701 19.9287C15.1588 19.9141 15.154 19.9031 15.154 19.9031Z" fill="#1A1A1A"/>
<path fill-rule="evenodd" clip-rule="evenodd" d="M19.6203 26.0772C17.3025 28.3762 15.8704 31.8725 15.8704 36.6611C15.8704 40.3364 17.5552 42.6402 19.6656 44.0676C21.8123 45.5196 24.4147 46.0675 26.1425 46.1184C26.5565 46.1306 26.8823 46.4762 26.8701 46.8902C26.8579 47.3042 26.5124 47.63 26.0983 47.6178C24.1595 47.5607 21.2618 46.9581 18.8252 45.3101C16.3523 43.6375 14.3704 40.8918 14.3704 36.6611C14.3704 33.2641 15.0513 30.3912 16.2953 28.0706C16.5406 27.6129 16.8079 27.1766 17.0962 26.7621C17.5373 26.1277 18.0277 25.5442 18.5639 25.0122C21.2245 22.3732 24.9307 21.0891 29.1204 21.0891C37.5487 21.0891 43.4507 26.9191 43.4507 33.8151C43.4507 37.2757 42.0042 39.4852 39.8589 40.7848C39.8561 40.7865 39.8533 40.7882 39.8505 40.7899C39.7573 40.8462 39.663 40.9007 39.5676 40.9534C37.53 42.0796 34.999 42.4051 32.6988 42.4051C30.1485 42.4051 28.3465 41.4909 27.2827 40.0427C26.2371 38.6192 25.99 36.7948 26.2952 35.1141C26.644 33.1925 28.3875 31.9448 30.0969 31.7741C30.9725 31.6866 31.8932 31.8722 32.6624 32.4346C33.4385 33.002 33.9907 33.902 34.214 35.112C34.2891 35.5193 34.0199 35.9105 33.6125 35.9857C33.2052 36.0608 32.814 35.7915 32.7389 35.3842C32.5733 34.4872 32.1952 33.9512 31.7771 33.6454C31.352 33.3347 30.8146 33.2099 30.246 33.2666C29.0671 33.3844 27.9777 34.2437 27.7711 35.3821C27.5208 36.7604 27.7459 38.1396 28.4916 39.1547C29.2192 40.1453 30.5277 40.9051 32.6988 40.9051C35.0091 40.9051 37.3453 40.5538 39.0817 39.5019C40.757 38.487 41.9507 36.7765 41.9507 33.8151C41.9507 27.8651 36.8429 22.5891 29.1204 22.5891C25.2346 22.5891 21.9408 23.7755 19.6203 26.0772Z" fill="#1A1A1A"/>
<path fill-rule="evenodd" clip-rule="evenodd" d="M5.50222 46.8691L5.62045 46.5901V20.3201L5.60756 20.2221C5.60607 20.2108 5.60471 20.1973 5.60367 20.182C5.67051 20.2115 5.75007 20.2517 5.84195 20.3061C6.14283 20.4831 6.48698 20.7631 6.81207 21.1351C7.47015 21.8881 7.93498 22.8801 7.93498 23.9181V25.4181H12.881L13.1059 24.1881C13.2575 23.3591 13.7244 22.2231 14.3469 21.3091C14.6545 20.8571 14.96 20.5201 15.2257 20.3101C15.2476 20.2929 15.2684 20.277 15.2883 20.2625C15.4056 20.6997 15.4708 21.3483 15.4799 22.1361C15.4895 22.9691 15.4365 23.8371 15.3783 24.5561C15.3542 24.8542 15.3296 25.121 15.3086 25.3498L15.2963 25.4831L15.2936 25.5124C15.2748 25.7169 15.2514 25.9709 15.2514 26.1331C15.2514 26.6481 15.4408 27.0471 15.6208 27.3191C15.7579 27.525 15.93 27.711 16.017 27.805L16.0447 27.8351C16.2393 28.0461 16.2495 28.0853 16.2598 28.1251L16.2953 28.0706C16.5406 27.6129 16.8079 27.1766 17.0962 26.7621C16.9067 26.5558 16.7514 26.3756 16.7514 26.1331C16.7514 26.038 16.7721 25.8144 16.8009 25.5012C16.9728 23.6371 17.4373 18.6001 15.5889 18.6001C13.8617 18.6001 12.0179 21.7991 11.6304 23.9181H9.43499L9.43498 23.9123C9.43157 20.952 6.81362 18.6001 5.34756 18.6001C4.17396 18.6001 4.04049 19.8126 4.12046 20.4186L4.12045 46.2861C3.25059 48.3451 1.17652 54.3241 2.12048 54.6671C4.8718 55.6652 8.85937 53.6791 10.887 52.6691C11.5266 52.3505 11.9712 52.1291 12.1204 52.1291C12.2901 52.1291 12.9102 52.3177 13.8122 52.5921C16.2191 53.3243 20.6335 54.6671 23.856 54.6671C26.8899 54.6671 29.5364 54.0256 31.2048 53.6211C31.9727 53.435 32.5334 53.2991 32.8292 53.2991C33.1993 53.2991 34.1239 53.5013 35.2439 53.7464C36.9646 54.1228 39.1466 54.6001 40.4884 54.6001C42.7035 54.6001 45.4068 53.6901 45.4068 52.1291C45.4068 51.48 44.7579 50.7537 43.9658 50.1199C43.2338 49.5342 42.3796 49.0276 41.8025 48.7341C42.4879 48.7403 43.4997 48.6964 44.3716 48.5476C45.3306 48.3839 46.1204 48.0934 46.1204 47.6031C46.1204 47.1781 45.2828 46.5417 44.2157 45.7309C42.5471 44.4633 40.3172 42.7692 39.8505 40.7899C39.7573 40.8462 39.663 40.9007 39.5676 40.9534L39.561 40.9838C39.6144 41.2245 39.705 41.8227 39.641 42.2893C39.577 42.7559 39.4499 43.1355 39.3944 43.2669C39.4491 43.3442 39.5047 43.4199 39.561 43.4941C40.2657 44.4231 41.1699 45.2341 41.9958 45.9041C42.4137 46.2441 42.828 46.5601 43.2011 46.8441L43.3272 46.9399L43.3282 46.9407C43.4201 47.0106 43.5087 47.0778 43.5939 47.1429C42.9707 47.2139 42.3086 47.2385 41.816 47.2341C41.1198 47.2281 40.5108 47.7011 40.3454 48.3781C40.18 49.0541 40.5017 49.7551 41.1222 50.0711C41.655 50.3421 42.4581 50.8221 43.1036 51.3521C43.4276 51.6181 43.6642 51.8581 43.8078 52.0511C43.8321 52.0838 43.8513 52.1119 43.8664 52.1355C43.7935 52.2214 43.6113 52.3833 43.1699 52.5791C42.4391 52.9031 41.4224 53.1001 40.4884 53.1001C39.5691 53.1001 38.0509 52.8161 36.4938 52.4831C36.1847 52.4171 35.8704 52.3484 35.566 52.2818C35.151 52.1911 34.7545 52.1045 34.4145 52.0341C33.8785 51.9231 33.2514 51.7991 32.8292 51.7991C32.3783 51.7991 31.7796 51.9411 31.3072 52.0541C31.1612 52.0888 31.0098 52.1254 30.8523 52.1635C30.4021 52.2724 29.9019 52.3934 29.3333 52.5171C27.8143 52.8471 25.9217 53.1671 23.856 53.1671C21.8606 53.1671 19.2526 52.5841 16.9587 51.9521C15.9166 51.6649 14.9739 51.3777 14.2147 51.1464L14.0296 51.0901C13.6414 50.9721 13.2937 50.8671 13.0214 50.7921C12.8858 50.7551 12.751 50.7191 12.6293 50.6931C12.5453 50.6741 12.3397 50.6291 12.1204 50.6291C11.7947 50.6291 11.5173 50.7311 11.4359 50.7611C11.3006 50.8101 11.1611 50.8701 11.0352 50.9281C10.8026 51.0353 10.5134 51.1792 10.2107 51.3298L10.1357 51.3671C9.453 51.7071 8.60708 52.1251 7.68063 52.5001C6.74979 52.8781 5.78425 53.1931 4.87579 53.3451C4.3387 53.4346 3.85834 53.4601 3.43754 53.4245C3.51719 52.9258 3.67266 52.272 3.88332 51.5291C4.37504 49.7961 5.09023 47.8451 5.50222 46.8691ZM15.154 19.9031C15.154 19.9031 15.16 19.9091 15.1701 19.9287C15.1588 19.9141 15.154 19.9031 15.154 19.9031Z" fill="#1A1A1A"/>
<path d="M13.3249 28.0488C13.7747 28.0488 14.1394 28.4193 14.1394 28.8763C14.1394 29.3334 13.7747 29.7039 13.3249 29.7039C12.8751 29.7039 12.5105 29.3334 12.5105 28.8763C12.5105 28.4193 12.8751 28.0488 13.3249 28.0488Z" fill="#D9D9D9"/>
<path d="M6.97246 28.0488C6.52265 28.0488 6.15802 28.4193 6.15802 28.8763C6.15802 29.3334 6.52265 29.7039 6.97246 29.7039C7.42226 29.7039 7.7869 29.3334 7.7869 28.8763C7.7869 28.4193 7.42226 28.0488 6.97246 28.0488Z" fill="#D9D9D9"/>
<path fill-rule="evenodd" clip-rule="evenodd" d="M7.97634 29.8173C8.28515 29.5413 8.75928 29.5678 9.03535 29.8766C9.60938 30.5187 10.6066 30.5429 11.2114 29.9291L11.2904 29.8492C11.5816 29.5546 12.0565 29.5519 12.3511 29.8431C12.6456 30.1344 12.6483 30.6092 12.3571 30.9038L12.2799 30.9819C12.2797 30.9821 12.2801 30.9817 12.2799 30.9819C11.0677 32.2115 9.06824 32.164 7.91706 30.8763C7.641 30.5675 7.66754 30.0934 7.97634 29.8173Z" fill="#D9D9D9"/>
</svg>
