<svg width="48" height="55" viewBox="0 0 48 55" fill="none" xmlns="http://www.w3.org/2000/svg">
<path d="M4.12052 46.2861V20.4181C4.04055 19.8121 4.17402 18.6001 5.34763 18.6001C6.81464 18.6001 9.43505 20.9551 9.43505 23.9181H11.6305C12.018 21.7991 13.8618 18.6001 15.589 18.6001C17.748 18.6001 16.7515 25.4721 16.7515 26.1331C16.7515 26.6621 17.4904 26.8951 17.7119 27.7481L39.7627 40.0501C39.7627 43.6571 46.1205 46.4321 46.1205 47.6031C46.1205 48.5391 43.2419 48.7471 41.8026 48.7341C43.004 49.3451 45.4069 50.8801 45.4069 52.1291C45.4069 53.6901 42.7036 54.6001 40.4885 54.6001C38.2733 54.6001 33.7679 53.2991 32.8293 53.2991C31.8907 53.2991 28.2864 54.6671 23.8561 54.6671C19.4258 54.6671 12.7428 52.1291 12.1205 52.1291C11.4981 52.1291 5.73973 55.9801 2.12054 54.6671C1.17658 54.3241 3.25065 48.3451 4.12052 46.2861Z" fill="#FFC7C2"/>
<path d="M42.6873 33.416C42.6873 36.769 41.0456 38.45 39.3412 40.433C40.2757 42.129 39.7385 47.466 29.5972 47.466C19.4559 47.466 15.1205 42.63 15.1205 35.334C15.1205 28.039 20.8111 22.125 27.8309 22.125C34.8508 22.125 42.6873 26.121 42.6873 33.416Z" fill="#DC3412"/>
<path fill-rule="evenodd" clip-rule="evenodd" d="M15.1541 19.9031C15.1541 19.9031 15.16 19.9091 15.1702 19.9287C15.1589 19.9141 15.1541 19.9031 15.1541 19.9031Z" fill="#1A1A1A"/>
<path fill-rule="evenodd" clip-rule="evenodd" d="M19.6203 26.0772C17.3026 28.3762 15.8705 31.8725 15.8705 36.6611C15.8705 40.3364 17.5553 42.6402 19.6657 44.0676C21.8124 45.5196 24.4147 46.0675 26.1426 46.1184C26.5566 46.1306 26.8824 46.4762 26.8702 46.8902C26.858 47.3042 26.5124 47.63 26.0984 47.6178C24.1595 47.5607 21.2619 46.9581 18.8253 45.3101C16.3523 43.6375 14.3705 40.8918 14.3705 36.6611C14.3705 33.2641 15.0514 30.3912 16.2953 28.0706C16.5407 27.6129 16.808 27.1766 17.0962 26.7621C17.5374 26.1277 18.0277 25.5442 18.564 25.0122C21.2246 22.3732 24.9308 21.0891 29.1205 21.0891C37.5488 21.0891 43.4508 26.9191 43.4508 33.8151C43.4508 37.2757 42.0043 39.4852 39.859 40.7848C39.8562 40.7865 39.8534 40.7882 39.8506 40.7899C39.7574 40.8462 39.6631 40.9007 39.5676 40.9534C37.53 42.0796 34.9991 42.4051 32.6989 42.4051C30.1486 42.4051 28.3465 41.4909 27.2828 40.0427C26.2371 38.6192 25.9901 36.7948 26.2952 35.1141C26.6441 33.1925 28.3875 31.9448 30.097 31.7741C30.9726 31.6866 31.8932 31.8722 32.6625 32.4346C33.4385 33.002 33.9908 33.902 34.214 35.112C34.2892 35.5193 34.0199 35.9105 33.6126 35.9857C33.2052 36.0608 32.8141 35.7915 32.7389 35.3842C32.5734 34.4872 32.1953 33.9512 31.7771 33.6454C31.3521 33.3347 30.8147 33.2099 30.2461 33.2666C29.0672 33.3844 27.9778 34.2437 27.7711 35.3821C27.5209 36.7604 27.746 38.1396 28.4917 39.1547C29.2193 40.1453 30.5278 40.9051 32.6989 40.9051C35.0091 40.9051 37.3454 40.5538 39.0818 39.5019C40.757 38.487 41.9508 36.7765 41.9508 33.8151C41.9508 27.8651 36.843 22.5891 29.1205 22.5891C25.2347 22.5891 21.9409 23.7755 19.6203 26.0772Z" fill="#1A1A1A"/>
<path fill-rule="evenodd" clip-rule="evenodd" d="M5.50228 46.8691L5.62051 46.5901V20.3201L5.60762 20.2221C5.60613 20.2108 5.60477 20.1973 5.60373 20.182C5.67057 20.2115 5.75013 20.2517 5.84201 20.3061C6.14289 20.4831 6.48704 20.7631 6.81213 21.1351C7.47021 21.8881 7.93504 22.8801 7.93504 23.9181V25.4181H12.8811L13.106 24.1881C13.2576 23.3591 13.7245 22.2231 14.347 21.3091C14.6546 20.8571 14.9601 20.5201 15.2258 20.3101C15.2476 20.2929 15.2685 20.277 15.2883 20.2625C15.4057 20.6997 15.4709 21.3483 15.48 22.1361C15.4896 22.9691 15.4366 23.8371 15.3784 24.5561C15.3542 24.8542 15.3297 25.121 15.3086 25.3498L15.2964 25.4831L15.2937 25.5124C15.2749 25.7169 15.2515 25.9709 15.2515 26.1331C15.2515 26.6481 15.4409 27.0471 15.6209 27.3191C15.758 27.525 15.9301 27.711 16.017 27.805L16.0448 27.8351C16.2394 28.0461 16.2495 28.0853 16.2599 28.1251L16.2953 28.0706C16.5407 27.6129 16.808 27.1766 17.0962 26.7621C16.9067 26.5558 16.7515 26.3756 16.7515 26.1331C16.7515 26.038 16.7721 25.8144 16.801 25.5012C16.9729 23.6371 17.4374 18.6001 15.589 18.6001C13.8618 18.6001 12.018 21.7991 11.6305 23.9181H9.43505L9.43504 23.9123C9.43163 20.952 6.81368 18.6001 5.34762 18.6001C4.17402 18.6001 4.04055 19.8126 4.12052 20.4186L4.12051 46.2861C3.25065 48.3451 1.17658 54.3241 2.12054 54.6671C4.87186 55.6652 8.85943 53.6791 10.8871 52.6691C11.5267 52.3505 11.9712 52.1291 12.1205 52.1291C12.2901 52.1291 12.9102 52.3177 13.8123 52.5921C16.2191 53.3243 20.6336 54.6671 23.8561 54.6671C26.89 54.6671 29.5365 54.0256 31.2048 53.6211C31.9728 53.435 32.5335 53.2991 32.8293 53.2991C33.1994 53.2991 34.1239 53.5013 35.244 53.7464C36.9647 54.1228 39.1467 54.6001 40.4885 54.6001C42.7036 54.6001 45.4069 53.6901 45.4069 52.1291C45.4069 51.48 44.7579 50.7537 43.9659 50.1199C43.2339 49.5342 42.3796 49.0276 41.8026 48.7341C42.488 48.7403 43.4998 48.6964 44.3716 48.5476C45.3307 48.3839 46.1205 48.0934 46.1205 47.6031C46.1205 47.1781 45.2829 46.5417 44.2157 45.7309C42.5471 44.4633 40.3173 42.7692 39.8506 40.7899C39.7574 40.8462 39.6631 40.9007 39.5676 40.9534L39.5611 40.9838C39.6144 41.2245 39.7051 41.8227 39.6411 42.2893C39.5771 42.7559 39.45 43.1355 39.3945 43.2669C39.4491 43.3442 39.5048 43.4199 39.5611 43.4941C40.2658 44.4231 41.17 45.2341 41.9959 45.9041C42.4138 46.2441 42.8281 46.5601 43.2012 46.8441L43.3272 46.9399L43.3283 46.9407C43.4202 47.0106 43.5087 47.0778 43.5939 47.1429C42.9707 47.2139 42.3086 47.2385 41.8161 47.2341C41.1199 47.2281 40.5109 47.7011 40.3455 48.3781C40.1801 49.0541 40.5018 49.7551 41.1223 50.0711C41.6551 50.3421 42.4582 50.8221 43.1037 51.3521C43.4277 51.6181 43.6643 51.8581 43.8079 52.0511C43.8322 52.0838 43.8513 52.1119 43.8664 52.1355C43.7935 52.2214 43.6114 52.3833 43.17 52.5791C42.4392 52.9031 41.4225 53.1001 40.4885 53.1001C39.5692 53.1001 38.051 52.8161 36.4939 52.4831C36.1848 52.4171 35.8704 52.3484 35.566 52.2818C35.1511 52.1911 34.7546 52.1045 34.4146 52.0341C33.8786 51.9231 33.2515 51.7991 32.8293 51.7991C32.3784 51.7991 31.7797 51.9411 31.3073 52.0541C31.1613 52.0888 31.0099 52.1254 30.8524 52.1635C30.4022 52.2724 29.9019 52.3934 29.3334 52.5171C27.8144 52.8471 25.9218 53.1671 23.8561 53.1671C21.8607 53.1671 19.2527 52.5841 16.9588 51.9521C15.9167 51.6649 14.974 51.3777 14.2147 51.1464L14.0297 51.0901C13.6415 50.9721 13.2938 50.8671 13.0215 50.7921C12.8859 50.7551 12.7511 50.7191 12.6294 50.6931C12.5454 50.6741 12.3398 50.6291 12.1205 50.6291C11.7948 50.6291 11.5174 50.7311 11.436 50.7611C11.3007 50.8101 11.1612 50.8701 11.0353 50.9281C10.8026 51.0353 10.5135 51.1792 10.2108 51.3298L10.1358 51.3671C9.45306 51.7071 8.60714 52.1251 7.68069 52.5001C6.74985 52.8781 5.78431 53.1931 4.87585 53.3451C4.33876 53.4346 3.8584 53.4601 3.4376 53.4245C3.51725 52.9258 3.67272 52.272 3.88338 51.5291C4.3751 49.7961 5.09029 47.8451 5.50228 46.8691ZM15.1541 19.9031C15.1541 19.9031 15.16 19.9091 15.1702 19.9287C15.1589 19.9141 15.1541 19.9031 15.1541 19.9031Z" fill="#1A1A1A"/>
<path d="M13.325 28.0488C13.7748 28.0488 14.1394 28.4193 14.1394 28.8763C14.1394 29.3334 13.7748 29.7039 13.325 29.7039C12.8752 29.7039 12.5105 29.3334 12.5105 28.8763C12.5105 28.4193 12.8752 28.0488 13.325 28.0488Z" fill="#1A1A1A"/>
<path d="M6.97252 28.0488C6.52271 28.0488 6.15808 28.4193 6.15808 28.8763C6.15808 29.3334 6.52271 29.7039 6.97252 29.7039C7.42232 29.7039 7.78696 29.3334 7.78696 28.8763C7.78696 28.4193 7.42232 28.0488 6.97252 28.0488Z" fill="#1A1A1A"/>
<path fill-rule="evenodd" clip-rule="evenodd" d="M7.9764 29.8173C8.28521 29.5413 8.75934 29.5678 9.03541 29.8766C9.60944 30.5187 10.6066 30.5429 11.2115 29.9291L11.2905 29.8492C11.5817 29.5546 12.0566 29.5519 12.3511 29.8431C12.6457 30.1344 12.6484 30.6092 12.3572 30.9038L12.2799 30.9819C12.2798 30.9821 12.2801 30.9817 12.2799 30.9819C11.0677 32.2115 9.0683 32.164 7.91712 30.8763C7.64106 30.5675 7.6676 30.0934 7.9764 29.8173Z" fill="#1A1A1A"/>
</svg>
