<svg width="48" height="55" viewBox="0 0 48 55" fill="none" xmlns="http://www.w3.org/2000/svg">
<path d="M24.0596 19.75C30.0466 19.75 35.4298 21.1201 39.29 23.29C43.1737 25.47 45.3691 28.3702 45.3691 31.4102C45.3691 32.4313 45.1179 33.4368 44.6387 34.4062C45.1181 35.377 45.3691 36.3854 45.3691 37.4102C45.3691 38.2569 45.1971 39.0934 44.8652 39.9072C45.197 40.7222 45.3691 41.5607 45.3691 42.4102C45.3691 45.4401 43.1737 48.3403 39.29 50.5303C35.4298 52.7002 30.0465 54.0703 24.0596 54.0703C18.0726 54.0703 12.6893 52.7002 8.8291 50.5303C4.94543 48.3403 2.75006 45.4401 2.75 42.4102C2.75 41.5608 2.92125 40.7221 3.25293 39.9072C2.92117 39.0935 2.75002 38.2568 2.75 37.4102C2.75 36.3855 3.0001 35.3769 3.47949 34.4062C3.00035 33.4369 2.75002 32.4312 2.75 31.4102C2.75 28.3702 4.94538 25.47 8.8291 23.29C12.6893 21.1201 18.0725 19.75 24.0596 19.75Z" fill="#FFC7C2"/>
<path d="M24.0596 19.75C30.0466 19.75 35.4298 21.1201 39.29 23.29C43.1737 25.47 45.3691 28.3702 45.3691 31.4102C45.3691 32.4313 45.1179 33.4368 44.6387 34.4062C45.1181 35.377 45.3691 36.3854 45.3691 37.4102C45.3691 38.2569 45.1971 39.0934 44.8652 39.9072C45.197 40.7222 45.3691 41.5607 45.3691 42.4102C45.3691 45.4401 43.1737 48.3403 39.29 50.5303C35.4298 52.7002 30.0465 54.0703 24.0596 54.0703C18.0726 54.0703 12.6893 52.7002 8.8291 50.5303C4.94543 48.3403 2.75006 45.4401 2.75 42.4102C2.75 41.5608 2.92125 40.7221 3.25293 39.9072C2.92117 39.0935 2.75002 38.2568 2.75 37.4102C2.75 36.3855 3.0001 35.3769 3.47949 34.4062C3.00035 33.4369 2.75002 32.4312 2.75 31.4102C2.75 28.3702 4.94538 25.47 8.8291 23.29C12.6893 21.1201 18.0725 19.75 24.0596 19.75Z" fill="url(#paint0_radial_53654_2490)"/>
<path d="M24.0596 19C30.1508 19 35.6647 20.3923 39.6562 22.6357H39.6572C43.6508 24.8774 46.1191 27.9797 46.1191 31.4102C46.1191 32.4434 45.8922 33.4468 45.4678 34.4072C45.8925 35.3686 46.1191 36.374 46.1191 37.4102C46.1191 38.2674 45.9632 39.1043 45.668 39.9131C45.9613 40.7198 46.1191 41.554 46.1191 42.4102C46.1191 45.8309 43.6501 48.9326 39.6582 51.1836L39.1611 50.3008L39.6572 51.1836C35.6656 53.4274 30.1513 54.8203 24.0596 54.8203C17.9676 54.8203 12.4526 53.4275 8.46094 51.1836H8.45996C4.4682 48.9326 2.00006 45.8308 2 42.4102C2 41.5536 2.15614 40.7184 2.44922 39.9111C2.15461 39.103 2.00001 38.2666 2 37.4102C2 36.3737 2.22511 35.3672 2.64941 34.4053C2.22571 33.4456 2.00002 32.4426 2 31.4102C2 28.0868 4.3162 25.0719 8.0918 22.8486L8.46191 22.6357C12.4535 20.3921 17.968 19 24.0596 19ZM44.5967 41.9424C43.4775 43.5437 41.7844 44.9847 39.6582 46.1836L39.1611 45.3008L39.6572 46.1836C35.6656 48.4274 30.1513 49.8203 24.0596 49.8203C17.9676 49.8203 12.4526 48.4275 8.46094 46.1836H8.45996C6.33402 44.9848 4.64042 43.5445 3.52148 41.9434C3.50824 42.0991 3.5 42.2546 3.5 42.4102C3.50006 45.0489 5.42099 47.7472 9.19531 49.876C12.9241 51.9721 18.1771 53.3203 24.0596 53.3203C29.758 53.3203 34.8646 52.055 38.5684 50.0703L38.9229 49.876C42.6975 47.7471 44.6191 45.0491 44.6191 42.4102C44.6191 42.2543 44.6101 42.0984 44.5967 41.9424ZM44.4658 36.123C43.3473 37.6517 41.7037 39.0301 39.6582 40.1836L39.1611 39.3008L39.6572 40.1836C35.6656 42.4274 30.1513 43.8203 24.0596 43.8203C17.9676 43.8203 12.4526 42.4275 8.46094 40.1836H8.45996C6.41465 39.0302 4.77059 37.6526 3.65234 36.124C3.552 36.5523 3.5 36.9817 3.5 37.4102C3.50006 40.0489 5.42099 42.7472 9.19531 44.876C12.9241 46.9721 18.1771 48.3203 24.0596 48.3203C29.758 48.3203 34.8646 47.055 38.5684 45.0703L38.9229 44.876C42.6975 42.7471 44.6191 40.0491 44.6191 37.4102C44.6191 36.9813 44.5666 36.5517 44.4658 36.123ZM24.0596 20.5C18.1772 20.5 12.9251 21.8482 9.19629 23.9443C5.42248 26.0626 3.5 28.7607 3.5 31.4102C3.50006 34.0489 5.42099 36.7472 9.19531 38.876C12.9241 40.9721 18.1771 42.3203 24.0596 42.3203C29.758 42.3203 34.8646 41.055 38.5684 39.0703L38.9229 38.876C42.6975 36.7471 44.6191 34.0491 44.6191 31.4102C44.6191 28.7606 42.6966 26.0626 38.9229 23.9443V23.9434C35.194 21.8472 29.9418 20.5 24.0596 20.5Z" fill="#1A1A1A"/>
<path d="M24.203 24.9951C24.8686 24.9951 25.408 25.5346 25.408 26.2001C25.408 26.8656 24.8686 27.4051 24.203 27.4051C23.5375 27.4051 22.998 26.8656 22.998 26.2001C22.998 25.5346 23.5375 24.9951 24.203 24.9951Z" fill="#D9D9D9"/>
<path d="M14.2055 24.9951C13.54 24.9951 13.0005 25.5346 13.0005 26.2001C13.0005 26.8656 13.54 27.4051 14.2055 27.4051C14.871 27.4051 15.4105 26.8656 15.4105 26.2001C15.4105 25.5346 14.871 24.9951 14.2055 24.9951Z" fill="#D9D9D9"/>
<path d="M16.7605 28.6531C18.4553 27.1651 21.0525 27.2734 22.6102 28.949C22.8922 29.2523 22.8745 29.7275 22.5711 30.0095C22.2677 30.2912 21.7934 30.2737 21.5115 29.9704C20.4794 28.8601 18.733 28.82 17.6463 29.8777L17.6453 29.8767L17.5232 29.9968C17.2267 30.2858 16.7519 30.2795 16.4627 29.9831C16.1738 29.6866 16.18 29.2117 16.4764 28.9226L16.5994 28.8034V28.8025L16.7605 28.6531Z" fill="#D9D9D9"/>
<defs>
<radialGradient id="paint0_radial_53654_2490" cx="0" cy="0" r="1" gradientUnits="userSpaceOnUse" gradientTransform="translate(24.059 31.6403) rotate(90) scale(11.8888 21.3095)">
<stop offset="0.75" stop-color="#2C2C2C"/>
<stop offset="1" stop-color="#CE7012"/>
</radialGradient>
</defs>
</svg>
