<svg width="48" height="55" viewBox="0 0 48 55" fill="none" xmlns="http://www.w3.org/2000/svg">
<path d="M24.0596 19.75C30.0466 19.75 35.4298 21.1201 39.29 23.29C43.1737 25.47 45.3691 28.3702 45.3691 31.4102C45.3691 32.4313 45.1179 33.4368 44.6387 34.4062C45.1181 35.377 45.3691 36.3854 45.3691 37.4102C45.3691 38.2569 45.1971 39.0934 44.8652 39.9072C45.197 40.7222 45.3691 41.5607 45.3691 42.4102C45.3691 45.4401 43.1737 48.3403 39.29 50.5303C35.4298 52.7002 30.0465 54.0703 24.0596 54.0703C18.0726 54.0703 12.6893 52.7002 8.8291 50.5303C4.94543 48.3403 2.75006 45.4401 2.75 42.4102C2.75 41.5608 2.92125 40.7221 3.25293 39.9072C2.92117 39.0935 2.75002 38.2568 2.75 37.4102C2.75 36.3855 3.0001 35.3769 3.47949 34.4062C3.00035 33.4369 2.75002 32.4312 2.75 31.4102C2.75 28.3702 4.94538 25.47 8.8291 23.29C12.6893 21.1201 18.0725 19.75 24.0596 19.75Z" fill="#FFC7C2"/>
<path d="M24.0596 19C30.1508 19 35.6647 20.3923 39.6562 22.6357H39.6572C43.6508 24.8774 46.1191 27.9797 46.1191 31.4102C46.1191 32.4434 45.8922 33.4468 45.4678 34.4072C45.8925 35.3686 46.1191 36.374 46.1191 37.4102C46.1191 38.2674 45.9632 39.1043 45.668 39.9131C45.9613 40.7198 46.1191 41.554 46.1191 42.4102C46.1191 45.8309 43.6501 48.9326 39.6582 51.1836L39.1611 50.3008L39.6572 51.1836C35.6656 53.4274 30.1513 54.8203 24.0596 54.8203C17.9676 54.8203 12.4526 53.4275 8.46094 51.1836H8.45996C4.4682 48.9326 2.00006 45.8308 2 42.4102C2 41.5536 2.15614 40.7184 2.44922 39.9111C2.15461 39.103 2.00001 38.2666 2 37.4102C2 36.3737 2.22511 35.3672 2.64941 34.4053C2.22571 33.4456 2.00002 32.4426 2 31.4102C2 28.0868 4.3162 25.0719 8.0918 22.8486L8.46191 22.6357C12.4535 20.3921 17.968 19 24.0596 19ZM44.5967 41.9424C43.4775 43.5437 41.7844 44.9847 39.6582 46.1836L39.1611 45.3008L39.6572 46.1836C35.6656 48.4274 30.1513 49.8203 24.0596 49.8203C17.9676 49.8203 12.4526 48.4275 8.46094 46.1836H8.45996C6.33402 44.9848 4.64042 43.5445 3.52148 41.9434C3.50824 42.0991 3.5 42.2546 3.5 42.4102C3.50006 45.0489 5.42099 47.7472 9.19531 49.876C12.9241 51.9721 18.1771 53.3203 24.0596 53.3203C29.758 53.3203 34.8646 52.055 38.5684 50.0703L38.9229 49.876C42.6975 47.7471 44.6191 45.0491 44.6191 42.4102C44.6191 42.2543 44.6101 42.0984 44.5967 41.9424ZM44.4658 36.123C43.3473 37.6517 41.7037 39.0301 39.6582 40.1836L39.1611 39.3008L39.6572 40.1836C35.6656 42.4274 30.1513 43.8203 24.0596 43.8203C17.9676 43.8203 12.4526 42.4275 8.46094 40.1836H8.45996C6.41465 39.0302 4.77059 37.6526 3.65234 36.124C3.552 36.5523 3.5 36.9817 3.5 37.4102C3.50006 40.0489 5.42099 42.7472 9.19531 44.876C12.9241 46.9721 18.1771 48.3203 24.0596 48.3203C29.758 48.3203 34.8646 47.055 38.5684 45.0703L38.9229 44.876C42.6975 42.7471 44.6191 40.0491 44.6191 37.4102C44.6191 36.9813 44.5666 36.5517 44.4658 36.123ZM24.0596 20.5C18.1772 20.5 12.9251 21.8482 9.19629 23.9443C5.42248 26.0626 3.5 28.7607 3.5 31.4102C3.50006 34.0489 5.42099 36.7472 9.19531 38.876C12.9241 40.9721 18.1771 42.3203 24.0596 42.3203C29.758 42.3203 34.8646 41.055 38.5684 39.0703L38.9229 38.876C42.6975 36.7471 44.6191 34.0491 44.6191 31.4102C44.6191 28.7606 42.6966 26.0626 38.9229 23.9443V23.9434C35.194 21.8472 29.9418 20.5 24.0596 20.5Z" fill="#1A1A1A"/>
<path d="M24.2021 24.9961C24.8676 24.9961 25.4071 25.5356 25.4071 26.2011C25.4071 26.8666 24.8676 27.4061 24.2021 27.4061C23.5366 27.4061 22.9971 26.8666 22.9971 26.2011C22.9971 25.5356 23.5366 24.9961 24.2021 24.9961Z" fill="#1A1A1A"/>
<path d="M14.2045 24.9961C13.539 24.9961 12.9995 25.5356 12.9995 26.2011C12.9995 26.8666 13.539 27.4061 14.2045 27.4061C14.87 27.4061 15.4095 26.8666 15.4095 26.2011C15.4095 25.5356 14.87 24.9961 14.2045 24.9961Z" fill="#1A1A1A"/>
<path d="M21.5198 27.8773C21.8153 27.5872 22.2901 27.5917 22.5804 27.887C22.8704 28.1825 22.8659 28.6573 22.5706 28.9476L22.4485 29.0677L22.4466 29.0687L21.9232 28.5325L21.8636 28.472L22.4466 29.0687C20.7664 30.7091 18.0646 30.6439 16.4661 28.9231C16.1842 28.6197 16.2017 28.1445 16.5052 27.8626C16.8087 27.5807 17.2838 27.5982 17.5657 27.9017C18.5904 29.0048 20.3217 29.0469 21.3987 27.9954V27.9964L21.5198 27.8773Z" fill="#1A1A1A"/>
<path d="M15.3099 38.7199C13.8376 35.7799 17.9681 34.2199 20.2174 33.8099C21.4443 33.1999 25.861 32.3399 33.713 33.8099C43.5281 35.6499 39.8474 38.7199 36.1668 41.1699C33.2223 43.1399 32.4862 45.2598 32.4862 46.0798C32.4862 47.9198 31.75 51.5999 28.8055 51.5999C25.1249 51.5999 25.1249 48.5398 25.1249 46.0798C25.1249 43.6298 17.1502 42.3999 15.3099 38.7199Z" fill="#BD2915" fill-opacity="0.8"/>
<path d="M24.3751 46.0801C24.3751 45.892 24.2075 45.5531 23.4347 45.0381C22.7122 44.5567 21.7154 44.0838 20.5812 43.5362C19.4743 43.0017 18.2598 42.406 17.2042 41.7022C16.1539 41.0018 15.1842 40.1463 14.6388 39.0557L14.6398 39.0547C14.1891 38.1543 14.1404 37.287 14.4386 36.503C14.7257 35.7487 15.3001 35.1583 15.9318 34.7061C17.1518 33.8328 18.8065 33.3186 19.9806 33.0928C20.7615 32.7355 22.2597 32.3862 24.4445 32.2813C26.7487 32.1707 29.8748 32.329 33.8507 33.0733L33.5753 34.5469C29.6994 33.8213 26.6906 33.675 24.5167 33.7793C22.3184 33.8849 21.029 34.2444 20.5519 34.4815L20.4562 34.5284L20.3517 34.5479L20.2179 33.8096L20.2169 33.8077L20.3517 34.5479C19.2813 34.743 17.8082 35.2077 16.8048 35.9258C16.3069 36.2823 15.9837 36.6594 15.84 37.0372C15.7078 37.3849 15.6957 37.8149 15.9806 38.3838L15.3097 38.7198L15.0861 38.8311L15.9806 38.3838C16.3554 39.1331 17.0739 39.8124 18.0363 40.4541C18.9932 41.0922 20.1171 41.6465 21.2335 42.1856C22.3231 42.7117 23.4355 43.2368 24.2658 43.7901C25.0454 44.3096 25.8751 45.0433 25.8751 46.0801C25.8751 47.3536 25.8873 48.564 26.2746 49.4668C26.4567 49.8913 26.7125 50.219 27.0773 50.4483C27.4468 50.6804 27.989 50.8496 28.8058 50.8496C29.8841 50.8496 30.5938 50.206 31.0744 49.2051C31.5632 48.1868 31.7364 46.927 31.7365 46.0801C31.7365 44.9353 32.6682 42.6089 35.7501 40.5469L35.7511 40.5459C36.6671 39.9362 37.5438 39.3128 38.2052 38.6963C38.8954 38.053 39.2126 37.5415 39.256 37.1739C39.2843 36.9333 39.2149 36.5405 38.3703 36.0352C37.5086 35.5198 36.0036 35.0022 33.5753 34.5469L33.8507 33.0733C36.3295 33.538 38.0462 34.0939 39.1398 34.7481C40.2502 35.4123 40.8712 36.2857 40.7462 37.3487C40.6361 38.2847 39.9558 39.1154 39.2277 39.794C38.471 40.4992 37.5069 41.1771 36.5832 41.792L36.5841 41.793C33.7771 43.6711 33.2365 45.5849 33.2365 46.0801C33.2364 47.0732 33.0412 48.573 32.4259 49.8545C31.8023 51.1535 30.6718 52.3496 28.8058 52.3496C27.7825 52.3496 26.9441 52.1372 26.2785 51.7188C25.6082 51.2975 25.1736 50.7056 24.8957 50.0577C24.363 48.8156 24.3751 47.2664 24.3751 46.0801Z" fill="#1A1A1A"/>
<path d="M27.8103 37.21C27.6562 37.2 27.5072 37.1801 27.3658 37.1401C26.6414 36.9401 25.9379 36.1101 25.7893 35.4001C25.3739 33.4101 27.9526 31.76 29.5786 33.07C29.648 33.13 29.7056 33.18 29.751 33.23C29.9452 33.51 30.0818 33.7701 30.1727 34.0201C30.7041 35.4701 29.3844 37.3 27.8103 37.21Z" fill="#BD2915"/>
<path d="M26.6 32.4884C27.5577 31.8898 28.8964 31.7505 29.9544 32.6027L29.5707 33.0773L29.5785 33.0704L29.9544 32.6027C29.9598 32.607 29.9658 32.6118 29.971 32.6163C30.0021 32.6432 30.0395 32.6754 30.0785 32.7111L30.1947 32.8273L30.2435 32.8878C30.4614 33.202 30.6242 33.5076 30.7357 33.8136C31.0864 34.7705 30.814 35.7996 30.265 36.548C29.715 37.2976 28.8122 37.868 27.7757 37.8087H27.7708C27.5923 37.7971 27.3982 37.7732 27.2025 37.7179C26.6964 37.5771 26.2466 37.2362 25.9125 36.8595C25.6185 36.5281 25.3719 36.122 25.2474 35.7033L25.2015 35.5236L26.3763 35.2775C26.4242 35.5062 26.576 35.7999 26.8099 36.0636C27.0155 36.2954 27.2429 36.4573 27.4417 36.5343L27.5257 36.5617L27.5287 36.5626C27.6155 36.5872 27.7195 36.6031 27.849 36.6115C28.3853 36.6406 28.9275 36.3421 29.2972 35.838C29.6223 35.3949 29.7551 34.8713 29.6625 34.4171L29.6087 34.2267L29.5482 34.0763C29.4847 33.9345 29.3988 33.782 29.2855 33.6144C29.2683 33.598 29.2428 33.5735 29.1976 33.5343C28.6303 33.0804 27.8692 33.1109 27.2367 33.506C26.5988 33.9047 26.2322 34.5867 26.3763 35.2775L25.2015 35.5236C24.9305 34.2245 25.6459 33.0847 26.6 32.4884Z" fill="#1A1A1A"/>
<path d="M31.3678 35.6303C31.2284 35.6203 31.0935 35.6003 30.9655 35.5603C30.3098 35.3903 29.673 34.6302 29.5385 33.9902C29.1625 32.1902 31.4966 30.7003 32.9685 31.8803C33.0313 31.9303 33.0834 31.9803 33.1245 32.0303C33.3003 32.2803 33.4239 32.5202 33.5063 32.7402C33.9872 34.0502 32.7927 35.7103 31.3678 35.6303Z" fill="#BD2915"/>
<path d="M30.2418 31.3087C31.1237 30.7579 32.3623 30.6257 33.3434 31.4122L33.3424 31.4131C33.4297 31.4828 33.5143 31.5605 33.5875 31.6495C33.597 31.6611 33.6062 31.6733 33.6148 31.6856C33.7674 31.9025 33.8892 32.1167 33.983 32.3243L34.068 32.5303L34.069 32.5333C34.3947 33.4206 34.1402 34.3724 33.6354 35.0616C33.161 35.709 32.3986 36.2162 31.5123 36.2325L31.3336 36.2296L31.3248 36.2286L31.0631 36.1983C30.9727 36.1832 30.8794 36.1621 30.7857 36.1329V36.1319C30.318 36.0023 29.9083 35.6898 29.607 35.3497C29.3366 35.0443 29.1092 34.6679 28.9938 34.2803L28.9508 34.1133C28.6992 32.9089 29.3635 31.8573 30.2418 31.3087ZM32.5924 32.3487C32.1016 31.9553 31.4367 31.977 30.8775 32.3262C30.3151 32.6776 30.0014 33.2719 30.1256 33.8673L30.1725 34.0235C30.2366 34.1894 30.3503 34.3786 30.5055 34.5538C30.7138 34.789 30.9402 34.934 31.1158 34.9796L31.1441 34.9874L31.2613 35.0147C31.303 35.0217 31.3495 35.0264 31.402 35.0303C31.8643 35.0559 32.3405 34.7982 32.6676 34.3516C32.9947 33.9049 33.0969 33.3732 32.944 32.9512L32.8893 32.8184C32.8311 32.6898 32.7528 32.5504 32.651 32.4024C32.64 32.3906 32.6227 32.3722 32.5943 32.3497L32.5924 32.3487L32.9684 31.8799L33.025 31.8087L32.5924 32.3487Z" fill="#1A1A1A"/>
<path d="M28.1941 32.8401C28.1566 32.9701 28.1058 33.0801 28.0463 33.1901C27.7475 33.7201 26.919 34.1502 26.2867 34.1602C24.3666 34.2202 23.2011 31.5601 24.7299 30.4701C24.7722 30.4401 24.8127 30.4102 24.8506 30.3902C25.1159 30.2802 25.3621 30.2102 25.5892 30.1802C27.0162 29.9502 28.6079 31.4901 28.1941 32.8401Z" fill="#BD2915"/>
<path d="M25.5112 29.5859C26.4567 29.4404 27.3882 29.8736 28.0073 30.4931C28.6255 31.1119 29.0579 32.0505 28.7699 33.0058L28.7709 33.0068C28.7176 33.1915 28.6465 33.3426 28.5746 33.4755L28.5698 33.4843L28.478 33.6298C28.249 33.9576 27.9121 34.2164 27.5776 34.3974C27.1934 34.6053 26.7371 34.7501 26.3051 34.7587L26.3061 34.7597C26.3032 34.7598 26.3001 34.7587 26.2973 34.7587L26.2963 34.7597L26.2953 34.7587C25.0377 34.7932 24.0758 33.944 23.6635 32.9824C23.2493 32.0157 23.3196 30.7391 24.3823 29.9814L24.3832 29.9804C24.4052 29.9648 24.4884 29.9028 24.5707 29.8593L24.6215 29.8359C24.9235 29.7107 25.221 29.6232 25.5112 29.5849V29.5859ZM25.5922 30.1992L25.685 30.7724C25.6794 30.7733 25.674 30.7746 25.6684 30.7753L25.5395 30.7968C25.4152 30.8231 25.276 30.8664 25.1205 30.9287C25.1171 30.931 25.1132 30.9343 25.1088 30.9374C25.1044 30.9406 25.0994 30.9435 25.0942 30.9472C25.089 30.9509 25.0835 30.9557 25.0776 30.9599C24.6127 31.2923 24.5012 31.8896 24.767 32.5097C25.0341 33.1328 25.6108 33.5809 26.268 33.5605H26.2778C26.4754 33.5573 26.7461 33.4834 27.0063 33.3427C27.2691 33.2005 27.4461 33.03 27.5219 32.8974C27.5669 32.8136 27.5965 32.7469 27.6176 32.6738L28.2211 32.8476L28.186 32.8369L27.6176 32.6738L27.6205 32.664C27.7404 32.2727 27.5864 31.7708 27.1576 31.3417C26.7312 30.9151 26.1606 30.6957 25.685 30.7724L25.5873 30.165L25.5922 30.1992Z" fill="#1A1A1A"/>
<path d="M22.2754 36.6202C22.1645 36.5402 22.0679 36.4402 21.9843 36.3402C21.5519 35.8002 21.5188 34.8002 21.8365 34.2002C22.6928 32.5902 25.4259 32.7703 25.8884 34.5503C25.9114 34.6403 25.9239 34.7202 25.928 34.7902C25.9082 35.1002 25.8524 35.3702 25.7717 35.6002C25.3155 36.9002 23.3711 37.4802 22.2754 36.6202Z" fill="#BD2915"/>
<path d="M24.0568 32.5055C25.0869 32.586 26.1565 33.1974 26.4689 34.399L25.7824 34.5768L25.8889 34.5504L26.4689 34.399L26.4699 34.402C26.4854 34.4627 26.4984 34.5227 26.508 34.5817L26.5275 34.7555L26.5266 34.8287C26.5036 35.1879 26.4387 35.5128 26.3381 35.7994C26.0303 36.6761 25.2473 37.2562 24.4328 37.4957C23.6245 37.7334 22.6605 37.6714 21.925 37.1061V37.107L21.9055 37.0924V37.0914C21.7483 36.9747 21.6215 36.8411 21.5246 36.7252L21.5158 36.7154C21.1985 36.3191 21.0578 35.8008 21.0305 35.3277C21.0031 34.8522 21.0856 34.3374 21.3068 33.9195V33.9186L21.4201 33.7262C22.0173 32.803 23.0947 32.4304 24.0568 32.5055ZM23.9631 33.7018C23.2941 33.6497 22.6571 33.9352 22.3664 34.4801C22.2699 34.6623 22.2109 34.9489 22.2287 35.2584C22.2467 35.5696 22.3377 35.8209 22.4523 35.9645C22.5154 36.039 22.5731 36.0951 22.6262 36.1334C22.6326 36.1381 22.6394 36.1431 22.6457 36.1481C23.0035 36.4289 23.5492 36.5045 24.0939 36.3444C24.6393 36.184 25.0566 35.8249 25.2053 35.402C25.2623 35.2393 25.3054 35.039 25.3244 34.7994C25.3214 34.7743 25.3175 34.7407 25.3068 34.6988V34.6979C25.1554 34.1218 24.6278 33.7537 23.9631 33.7018Z" fill="#1A1A1A"/>
<path d="M33.1473 37.2002C32.9863 37.1302 32.8449 37.0402 32.7215 36.9402C32.0262 36.3802 31.951 35.1103 32.4902 34.4103C33.5949 32.9703 36.1 33.0702 36.9086 34.7102C37.0035 34.9002 37.0474 35.0702 37.0562 35.2002C37.0255 35.6202 36.9226 35.9502 36.7768 36.2302C36.1416 37.4102 34.3825 37.7702 33.1473 37.2002Z" fill="#BD2915"/>
<path d="M34.845 32.8066C35.8781 32.8663 36.9251 33.3917 37.4446 34.4423H37.4456C37.5384 34.6282 37.6011 34.8135 37.6331 34.9882L37.6555 35.1601L37.6545 35.2441C37.618 35.7434 37.4933 36.1535 37.3088 36.5078L37.3049 36.5146C36.8873 37.2903 36.124 37.7584 35.3313 37.9541C34.5382 38.1498 33.6484 38.0924 32.8958 37.7451V37.7441C32.6856 37.6512 32.5024 37.5346 32.345 37.4072C31.8351 36.9963 31.5928 36.3655 31.5452 35.7763C31.4976 35.1862 31.6357 34.5361 32.0149 34.0439C32.707 33.1425 33.8145 32.7472 34.845 32.8066ZM34.7756 34.0039C34.0758 33.9636 33.3786 34.2377 32.9661 34.7753V34.7763C32.806 34.9841 32.7124 35.3198 32.7415 35.6796C32.7706 36.04 32.913 36.3235 33.0979 36.4726L32.6418 37.039L32.7219 36.9404L33.0979 36.4726L33.0999 36.4736C33.1429 36.5085 33.1877 36.5417 33.2356 36.5712L33.387 36.6503L33.3987 36.6552C33.8812 36.8779 34.4892 36.9257 35.0432 36.789C35.5952 36.6528 36.0259 36.3517 36.2444 35.9501C36.3454 35.7556 36.4224 35.5217 36.4514 35.2089C36.4432 35.1614 36.4238 35.0816 36.3723 34.9785L36.9885 34.6709L36.8479 34.7392L36.3723 34.9785L36.3704 34.9755L36.3127 34.8681C36.0047 34.3462 35.4288 34.0416 34.7756 34.0039Z" fill="#1A1A1A"/>
</svg>
