<svg width="48" height="55" viewBox="0 0 48 55" fill="none" xmlns="http://www.w3.org/2000/svg">
<path d="M24.0596 19.75C30.0466 19.75 35.4298 21.1201 39.29 23.29C43.1737 25.47 45.3691 28.3702 45.3691 31.4102C45.3691 32.4313 45.1179 33.4368 44.6387 34.4062C45.1181 35.377 45.3691 36.3854 45.3691 37.4102C45.3691 38.2569 45.1971 39.0934 44.8652 39.9072C45.197 40.7222 45.3691 41.5607 45.3691 42.4102C45.3691 45.4401 43.1737 48.3403 39.29 50.5303C35.4298 52.7002 30.0465 54.0703 24.0596 54.0703C18.0726 54.0703 12.6893 52.7002 8.8291 50.5303C4.94543 48.3403 2.75006 45.4401 2.75 42.4102C2.75 41.5608 2.92125 40.7221 3.25293 39.9072C2.92117 39.0935 2.75002 38.2568 2.75 37.4102C2.75 36.3855 3.0001 35.3769 3.47949 34.4062C3.00035 33.4369 2.75002 32.4312 2.75 31.4102C2.75 28.3702 4.94538 25.47 8.8291 23.29C12.6893 21.1201 18.0725 19.75 24.0596 19.75Z" fill="#BDE3FF"/>
<path d="M24.0596 19C30.1508 19 35.6647 20.3923 39.6562 22.6357H39.6572C43.6508 24.8774 46.1191 27.9797 46.1191 31.4102C46.1191 32.4434 45.8922 33.4468 45.4678 34.4072C45.8925 35.3686 46.1191 36.374 46.1191 37.4102C46.1191 38.2674 45.9632 39.1043 45.668 39.9131C45.9613 40.7198 46.1191 41.554 46.1191 42.4102C46.1191 45.8309 43.6501 48.9326 39.6582 51.1836L39.1611 50.3008L39.6572 51.1836C35.6656 53.4274 30.1513 54.8203 24.0596 54.8203C17.9676 54.8203 12.4526 53.4275 8.46094 51.1836H8.45996C4.4682 48.9326 2.00006 45.8308 2 42.4102C2 41.5536 2.15614 40.7184 2.44922 39.9111C2.15461 39.103 2.00001 38.2666 2 37.4102C2 36.3737 2.22511 35.3672 2.64941 34.4053C2.22571 33.4456 2.00002 32.4426 2 31.4102C2 28.0868 4.3162 25.0719 8.0918 22.8486L8.46191 22.6357C12.4535 20.3921 17.968 19 24.0596 19ZM44.5967 41.9424C43.4775 43.5437 41.7844 44.9847 39.6582 46.1836L39.1611 45.3008L39.6572 46.1836C35.6656 48.4274 30.1513 49.8203 24.0596 49.8203C17.9676 49.8203 12.4526 48.4275 8.46094 46.1836H8.45996C6.33402 44.9848 4.64042 43.5445 3.52148 41.9434C3.50824 42.0991 3.5 42.2546 3.5 42.4102C3.50006 45.0489 5.42099 47.7472 9.19531 49.876C12.9241 51.9721 18.1771 53.3203 24.0596 53.3203C29.758 53.3203 34.8646 52.055 38.5684 50.0703L38.9229 49.876C42.6975 47.7471 44.6191 45.0491 44.6191 42.4102C44.6191 42.2543 44.6101 42.0984 44.5967 41.9424ZM44.4658 36.123C43.3473 37.6517 41.7037 39.0301 39.6582 40.1836L39.1611 39.3008L39.6572 40.1836C35.6656 42.4274 30.1513 43.8203 24.0596 43.8203C17.9676 43.8203 12.4526 42.4275 8.46094 40.1836H8.45996C6.41465 39.0302 4.77059 37.6526 3.65234 36.124C3.552 36.5523 3.5 36.9817 3.5 37.4102C3.50006 40.0489 5.42099 42.7472 9.19531 44.876C12.9241 46.9721 18.1771 48.3203 24.0596 48.3203C29.758 48.3203 34.8646 47.055 38.5684 45.0703L38.9229 44.876C42.6975 42.7471 44.6191 40.0491 44.6191 37.4102C44.6191 36.9813 44.5666 36.5517 44.4658 36.123ZM24.0596 20.5C18.1772 20.5 12.9251 21.8482 9.19629 23.9443C5.42248 26.0626 3.5 28.7607 3.5 31.4102C3.50006 34.0489 5.42099 36.7472 9.19531 38.876C12.9241 40.9721 18.1771 42.3203 24.0596 42.3203C29.758 42.3203 34.8646 41.055 38.5684 39.0703L38.9229 38.876C42.6975 36.7471 44.6191 34.0491 44.6191 31.4102C44.6191 28.7606 42.6966 26.0626 38.9229 23.9443V23.9434C35.194 21.8472 29.9418 20.5 24.0596 20.5Z" fill="#1A1A1A"/>
<path d="M24.2026 24.9951C24.8681 24.9951 25.4076 25.5346 25.4076 26.2001C25.4076 26.8656 24.8681 27.4051 24.2026 27.4051C23.5371 27.4051 22.9976 26.8656 22.9976 26.2001C22.9976 25.5346 23.5371 24.9951 24.2026 24.9951Z" fill="#1A1A1A"/>
<path d="M14.205 24.9951C13.5395 24.9951 13 25.5346 13 26.2001C13 26.8656 13.5395 27.4051 14.205 27.4051C14.8705 27.4051 15.41 26.8656 15.41 26.2001C15.41 25.5346 14.8705 24.9951 14.205 24.9951Z" fill="#1A1A1A"/>
<path d="M21.5198 27.8773C21.8153 27.5872 22.2901 27.5917 22.5804 27.887C22.8704 28.1825 22.8659 28.6573 22.5706 28.9476L22.4485 29.0677L22.4466 29.0687L21.9232 28.5325L21.8636 28.472L22.4466 29.0687C20.7664 30.7091 18.0646 30.6439 16.4661 28.9231C16.1842 28.6197 16.2017 28.1445 16.5052 27.8626C16.8087 27.5807 17.2838 27.5982 17.5657 27.9017C18.5904 29.0048 20.3217 29.0469 21.3987 27.9954V27.9964L21.5198 27.8773Z" fill="#1A1A1A"/>
<path d="M15.3098 38.7199C13.8378 35.7799 17.9678 34.2199 20.2168 33.8099C21.4438 33.1999 25.8608 32.3399 33.7128 33.8099C43.5278 35.6499 39.8468 38.7199 36.1668 41.1699C33.2218 43.1399 32.4858 45.2598 32.4858 46.0798C32.4858 47.9198 31.7498 51.5999 28.8058 51.5999C25.1248 51.5999 25.1248 48.5398 25.1248 46.0798C25.1248 43.6298 17.1498 42.3999 15.3098 38.7199Z" fill="#007BE5" fill-opacity="0.9"/>
<path d="M31.7354 46.0801C31.7354 44.9353 32.6676 42.6089 35.7501 40.5469L35.751 40.5459C36.6669 39.9362 37.5438 39.3128 38.2052 38.6963C38.8952 38.053 39.2126 37.5415 39.2559 37.1739C39.2842 36.9332 39.214 36.5406 38.3692 36.0352C37.5075 35.5198 36.0025 35.0021 33.5743 34.5469C29.6988 33.8214 26.6905 33.675 24.5167 33.7793C22.3177 33.8849 21.0278 34.2444 20.5509 34.4815L20.4561 34.5284L20.3516 34.5479C19.2814 34.743 17.808 35.2076 16.8048 35.9258C16.3069 36.2823 15.9836 36.6594 15.8399 37.0372C15.7078 37.385 15.6957 37.8149 15.9805 38.3838V38.3848C16.3552 39.1341 17.0738 39.8124 18.0362 40.4542C18.9931 41.0922 20.117 41.6465 21.2335 42.1856C22.323 42.7117 23.4354 43.2368 24.2657 43.7901C25.0454 44.3096 25.8751 45.0433 25.8751 46.0801C25.8751 47.3536 25.8872 48.5641 26.2745 49.4668C26.4566 49.8913 26.7124 50.219 27.0772 50.4483C27.4467 50.6804 27.9889 50.8496 28.8057 50.8497C29.8838 50.8497 30.5928 50.2061 31.0733 49.2051C31.5621 48.1868 31.7354 46.9271 31.7354 46.0801ZM33.2354 46.0801C33.2354 47.0732 33.041 48.5731 32.4259 49.8545C31.8023 51.1535 30.6716 52.3497 28.8057 52.3497C27.7824 52.3496 26.9441 52.1372 26.2784 51.7188C25.608 51.2975 25.1735 50.7056 24.8956 50.0577C24.3629 48.8156 24.3751 47.2664 24.3751 46.0801C24.3751 45.8919 24.2068 45.5533 23.4337 45.0381C22.7112 44.5568 21.7152 44.0838 20.5811 43.5362C19.4741 43.0016 18.2589 42.4062 17.2032 41.7022C16.153 41.0019 15.1841 40.1463 14.6387 39.0557C14.1879 38.1551 14.1403 37.2871 14.4385 36.503C14.7256 35.7488 15.3001 35.1583 15.9317 34.7061C17.1518 33.8327 18.8066 33.3185 19.9805 33.0928C20.7617 32.7356 22.2598 32.3862 24.4444 32.2813C26.6047 32.1776 29.4872 32.3101 33.1153 32.9405L33.8507 33.0733L34.7452 33.251C36.7494 33.6778 38.1828 34.1756 39.1397 34.7481C40.2501 35.4124 40.8702 36.2857 40.7452 37.3487C40.6351 38.2847 39.9557 39.1154 39.2276 39.794C38.4709 40.4993 37.5067 41.1771 36.5831 41.792L36.5841 41.793C33.7765 43.6711 33.2354 45.5849 33.2354 46.0801Z" fill="#1A1A1A"/>
<path d="M27.8097 37.21C27.6557 37.2 27.5067 37.1801 27.3657 37.1401C26.6407 36.9401 25.9377 36.1101 25.7887 35.4001C25.3737 33.4101 27.9517 31.76 29.5777 33.07C29.6477 33.13 29.7057 33.18 29.7507 33.23C29.9447 33.51 30.0817 33.7701 30.1727 34.0201C30.7037 35.4701 29.3837 37.3 27.8097 37.21Z" fill="#007BE5"/>
<path d="M26.5999 32.4885C27.5576 31.8899 28.8963 31.7504 29.9544 32.6027C29.959 32.6065 29.9635 32.6106 29.968 32.6145C30.0303 32.6678 30.1205 32.7448 30.1966 32.8293L29.7512 33.2297L29.7532 33.2277L30.1966 32.8293L30.2444 32.8889L30.3977 33.1223C30.5405 33.3547 30.6529 33.584 30.7366 33.8137L30.7952 33.9943C31.0518 34.8985 30.7796 35.8465 30.2649 36.5481C29.7149 37.2977 28.8121 37.8681 27.7757 37.8088H27.7708C27.5924 37.7972 27.3981 37.7735 27.2024 37.718V37.717C26.6962 37.5762 26.2465 37.2362 25.9124 36.8596C25.6184 36.5281 25.3719 36.1219 25.2473 35.7033L25.2014 35.5236V35.5227C24.9306 34.2237 25.6459 33.0848 26.5999 32.4885ZM29.1966 33.5334C28.6294 33.0802 27.8687 33.1112 27.2366 33.5061C26.5992 33.9045 26.2328 34.586 26.3762 35.2766L26.3987 35.3654C26.4632 35.5787 26.605 35.8328 26.8098 36.0637C27.0153 36.2953 27.2427 36.4573 27.4417 36.5344L27.5257 36.5617L27.5296 36.5627L27.386 37.0647V37.0695L27.5296 36.5627C27.6157 36.5871 27.7194 36.6031 27.8489 36.6115H27.8479C28.3841 36.6407 28.9273 36.3421 29.2971 35.8381C29.6225 35.3947 29.7562 34.8706 29.6634 34.4162L29.6096 34.2268V34.2258L30.0657 34.0598L30.1731 34.0197L29.6096 34.2258C29.5434 34.0437 29.4404 33.8427 29.2864 33.6145C29.27 33.5989 29.2443 33.5744 29.1966 33.5334Z" fill="#1A1A1A"/>
<path d="M31.368 35.6303C31.228 35.6203 31.093 35.6003 30.965 35.5603C30.31 35.3903 29.673 34.6302 29.538 33.9902C29.162 32.1902 31.496 30.7003 32.968 31.8803C33.031 31.9303 33.083 31.9803 33.124 32.0303C33.3 32.2803 33.424 32.5202 33.506 32.7402C33.987 34.0502 32.792 35.7103 31.368 35.6303Z" fill="#007BE5"/>
<path d="M30.2418 31.3082C31.1229 30.7579 32.3597 30.6263 33.3404 31.4108C33.3847 31.446 33.4289 31.4823 33.4703 31.5221L33.5884 31.6491L33.6148 31.6842C33.8182 31.9731 33.9668 32.2587 34.0679 32.5299L34.0689 32.5328C34.3947 33.4202 34.1401 34.372 33.6353 35.0612C33.1295 35.7515 32.2962 36.2831 31.3345 36.2291L31.3257 36.2282L31.063 36.1979C30.9726 36.1828 30.8793 36.1617 30.7857 36.1325V36.1315C30.3181 36.0018 29.9082 35.6893 29.607 35.3492C29.2979 35.0003 29.0447 34.559 28.9507 34.1139V34.1129L28.9136 33.8883C28.7827 32.7786 29.4184 31.8225 30.2418 31.3082ZM32.5923 32.3483C32.1014 31.9549 31.4366 31.9766 30.8775 32.3258C30.3153 32.6769 30.0019 33.2708 30.1255 33.8658L30.1724 34.0231C30.2367 34.189 30.3503 34.3782 30.5054 34.5533C30.714 34.7888 30.9405 34.9336 31.1158 34.9791L31.1441 34.9869L31.2613 35.0143C31.3029 35.0212 31.3494 35.0259 31.4019 35.0299C31.8639 35.0558 32.3402 34.7981 32.6675 34.3512C32.995 33.904 33.0974 33.3719 32.9439 32.9498L32.8892 32.818C32.8314 32.6901 32.7529 32.551 32.6509 32.403C32.6403 32.3915 32.6237 32.3728 32.5953 32.3502L33.025 31.8082L32.5923 32.3483ZM32.5953 32.3502L32.5923 32.3483L32.9683 31.8795L32.5953 32.3502Z" fill="#1A1A1A"/>
<path d="M28.1939 32.8401C28.1569 32.9701 28.1059 33.0801 28.0469 33.1901C27.7479 33.7201 26.9189 34.1502 26.2869 34.1602C24.3669 34.2202 23.2009 31.5601 24.7299 30.4701C24.7729 30.4401 24.8129 30.4102 24.8509 30.3902C25.1159 30.2802 25.3619 30.2102 25.5889 30.1802C27.0169 29.9502 28.6079 31.4901 28.1939 32.8401Z" fill="#007BE5"/>
<path d="M25.5106 29.5858C26.4564 29.4405 27.3877 29.8735 28.0067 30.4931C28.6271 31.114 29.0612 32.0571 28.7675 33.0155L28.7665 33.0146C28.7137 33.1962 28.644 33.3451 28.5751 33.4735L28.0282 33.1796L28.0468 33.1903L28.5751 33.4735L28.5692 33.4853C28.3453 33.882 27.9594 34.1905 27.577 34.3974C27.1927 34.6052 26.7365 34.7501 26.3046 34.7587L26.3056 34.7597C26.303 34.7598 26.3003 34.7586 26.2977 34.7587L26.2968 34.7597L26.2958 34.7587C25.0379 34.7935 24.0764 33.9441 23.664 32.9823C23.2495 32.0156 23.3188 30.7391 24.3817 29.9814L24.3866 29.9774V29.9784C24.4014 29.9681 24.4896 29.9022 24.5712 29.8593C24.5873 29.8508 24.6042 29.8428 24.621 29.8358L24.8505 30.3905L24.8524 30.3935L24.621 29.8358C24.9168 29.7131 25.2085 29.6282 25.4931 29.5888V29.5878H25.495C25.5001 29.5871 25.5056 29.5855 25.5106 29.5849V29.5858ZM25.5917 30.1991L25.6845 30.7724C25.679 30.7732 25.6733 30.7746 25.6679 30.7753L25.539 30.7968C25.4143 30.8231 25.2749 30.867 25.119 30.9296C25.1157 30.9319 25.1117 30.9343 25.1073 30.9374C25.0995 30.9429 25.0881 30.9501 25.077 30.9579L25.078 30.9589C24.6122 31.2911 24.5004 31.889 24.7665 32.5097C25.0338 33.1329 25.6112 33.581 26.2685 33.5605H26.2772C26.4748 33.5573 26.7463 33.4835 27.0067 33.3427C27.2694 33.2006 27.4454 33.0299 27.5214 32.8974C27.5665 32.8124 27.5968 32.7468 27.6171 32.6757L27.62 32.664C27.74 32.2726 27.5857 31.7707 27.1571 31.3417C26.731 30.9153 26.1606 30.6958 25.6845 30.7724L25.5907 30.1962L25.5917 30.1991Z" fill="#1A1A1A"/>
<path d="M22.2758 36.6197C22.1648 36.5397 22.0678 36.4397 21.9838 36.3397C21.5518 35.7997 21.5188 34.7997 21.8368 34.1997C22.6928 32.5897 25.4258 32.7698 25.8888 34.5498C25.9118 34.6398 25.9238 34.7198 25.9278 34.7898C25.9078 35.0998 25.8528 35.3697 25.7718 35.5997C25.3158 36.8997 23.3708 37.4797 22.2758 36.6197Z" fill="#007BE5"/>
<path d="M24.0568 32.505C25.0227 32.5805 26.0237 33.1228 26.4025 34.1808L26.4699 34.3985V34.4015C26.5015 34.5255 26.5201 34.644 26.5265 34.756C26.5279 34.7801 26.528 34.8042 26.5265 34.8282C26.5034 35.1858 26.4395 35.5109 26.338 35.7989C26.0303 36.6757 25.2472 37.2557 24.4327 37.4952C23.6244 37.7329 22.6602 37.6712 21.9249 37.1056V37.1066L21.9054 37.0919V37.0909C21.7487 36.9745 21.6217 36.8414 21.5245 36.7257L21.9835 36.34L21.9728 36.3478L21.5245 36.7257L21.5158 36.715L21.4044 36.5607C21.1646 36.1894 21.0541 35.7403 21.0304 35.3263C21.0032 34.851 21.0855 34.3368 21.3068 33.9191V33.9181L21.4201 33.7257C22.0171 32.8024 23.0946 32.4299 24.0568 32.505ZM23.964 33.7013C23.2946 33.649 22.6578 33.9352 22.3673 34.4806C22.2708 34.6627 22.2109 34.9484 22.2286 35.2579C22.2463 35.5657 22.3356 35.8147 22.4484 35.9591C22.48 35.9964 22.5101 36.0293 22.5392 36.0577L22.6271 36.1329L22.6466 36.1476C23.004 36.4282 23.549 36.504 24.0939 36.3439C24.6395 36.1834 25.0578 35.8244 25.2062 35.4015V35.4005C25.2631 35.239 25.3052 35.0391 25.3243 34.798C25.3214 34.7722 25.3181 34.7389 25.3077 34.6984V34.6974C25.1562 34.1213 24.6285 33.7533 23.964 33.7013Z" fill="#1A1A1A"/>
<path d="M33.148 37.2002C32.987 37.1302 32.845 37.0402 32.722 36.9402C32.026 36.3802 31.951 35.1103 32.49 34.4103C33.595 32.9703 36.1 33.0702 36.909 34.7102C37.004 34.9002 37.048 35.0702 37.056 35.2002C37.026 35.6202 36.923 35.9502 36.777 36.2302C36.142 37.4102 34.383 37.7702 33.148 37.2002Z" fill="#007BE5"/>
<path d="M34.8445 32.8066C35.8786 32.8663 36.9278 33.392 37.447 34.4443H37.4461C37.5383 34.6292 37.6019 34.8143 37.6336 34.9902L37.655 35.163L37.6541 35.2431L37.6365 35.4267C37.5861 35.845 37.47 36.1978 37.3084 36.5078L37.3054 36.5146C36.8879 37.2905 36.1236 37.7584 35.3308 37.954C34.5379 38.1497 33.6487 38.0923 32.8963 37.7451V37.7441C32.6869 37.6516 32.5035 37.5345 32.3455 37.4062V37.4072C31.8351 36.9963 31.5924 36.3656 31.5447 35.7763C31.497 35.1862 31.6354 34.5361 32.0144 34.0439C32.7067 33.1426 33.814 32.7472 34.8445 32.8066ZM34.7761 34.0039C34.0761 33.9634 33.3783 34.2375 32.9656 34.7753V34.7763C32.8056 34.9841 32.7119 35.3198 32.741 35.6796C32.7665 35.9949 32.8792 36.251 33.031 36.4101L33.0984 36.4726L33.1004 36.4746C33.1425 36.5088 33.1874 36.5409 33.2351 36.5703L33.3875 36.6503L33.3992 36.6552C33.8817 36.8779 34.4897 36.9258 35.0437 36.789C35.5959 36.6527 36.0277 36.352 36.2459 35.9501C36.3469 35.7556 36.4226 35.5213 36.4509 35.2089C36.4434 35.1634 36.4244 35.0836 36.3718 34.9785L36.3709 34.9755C36.0811 34.3882 35.4728 34.0442 34.7761 34.0039Z" fill="#1A1A1A"/>
</svg>
