<svg width="48" height="55" viewBox="0 0 48 55" fill="none" xmlns="http://www.w3.org/2000/svg">
<path d="M24.0596 19.75C30.0466 19.75 35.4298 21.1201 39.29 23.29C43.1737 25.47 45.3691 28.3702 45.3691 31.4102C45.3691 32.4313 45.1179 33.4368 44.6387 34.4062C45.1181 35.377 45.3691 36.3854 45.3691 37.4102C45.3691 38.2569 45.1971 39.0934 44.8652 39.9072C45.197 40.7222 45.3691 41.5607 45.3691 42.4102C45.3691 45.4401 43.1737 48.3403 39.29 50.5303C35.4298 52.7002 30.0465 54.0703 24.0596 54.0703C18.0726 54.0703 12.6893 52.7002 8.8291 50.5303C4.94543 48.3403 2.75006 45.4401 2.75 42.4102C2.75 41.5608 2.92125 40.7221 3.25293 39.9072C2.92117 39.0935 2.75002 38.2568 2.75 37.4102C2.75 36.3855 3.0001 35.3769 3.47949 34.4062C3.00035 33.4369 2.75002 32.4312 2.75 31.4102C2.75 28.3702 4.94538 25.47 8.8291 23.29C12.6893 21.1201 18.0725 19.75 24.0596 19.75Z" fill="#FFC470"/>
<path d="M24.0596 19C30.1508 19 35.6647 20.3923 39.6562 22.6357H39.6572C43.6508 24.8774 46.1191 27.9797 46.1191 31.4102C46.1191 32.4434 45.8922 33.4468 45.4678 34.4072C45.8925 35.3686 46.1191 36.374 46.1191 37.4102C46.1191 38.2674 45.9632 39.1043 45.668 39.9131C45.9613 40.7198 46.1191 41.554 46.1191 42.4102C46.1191 45.8309 43.6501 48.9326 39.6582 51.1836L39.1611 50.3008L39.6572 51.1836C35.6656 53.4274 30.1513 54.8203 24.0596 54.8203C17.9676 54.8203 12.4526 53.4275 8.46094 51.1836H8.45996C4.4682 48.9326 2.00006 45.8308 2 42.4102C2 41.5536 2.15614 40.7184 2.44922 39.9111C2.15461 39.103 2.00001 38.2666 2 37.4102C2 36.3737 2.22511 35.3672 2.64941 34.4053C2.22571 33.4456 2.00002 32.4426 2 31.4102C2 28.0868 4.3162 25.0719 8.0918 22.8486L8.46191 22.6357C12.4535 20.3921 17.968 19 24.0596 19ZM44.5967 41.9424C43.4775 43.5437 41.7844 44.9847 39.6582 46.1836L39.1611 45.3008L39.6572 46.1836C35.6656 48.4274 30.1513 49.8203 24.0596 49.8203C17.9676 49.8203 12.4526 48.4275 8.46094 46.1836H8.45996C6.33402 44.9848 4.64042 43.5445 3.52148 41.9434C3.50824 42.0991 3.5 42.2546 3.5 42.4102C3.50006 45.0489 5.42099 47.7472 9.19531 49.876C12.9241 51.9721 18.1771 53.3203 24.0596 53.3203C29.758 53.3203 34.8646 52.055 38.5684 50.0703L38.9229 49.876C42.6975 47.7471 44.6191 45.0491 44.6191 42.4102C44.6191 42.2543 44.6101 42.0984 44.5967 41.9424ZM44.4658 36.123C43.3473 37.6517 41.7037 39.0301 39.6582 40.1836L39.1611 39.3008L39.6572 40.1836C35.6656 42.4274 30.1513 43.8203 24.0596 43.8203C17.9676 43.8203 12.4526 42.4275 8.46094 40.1836H8.45996C6.41465 39.0302 4.77059 37.6526 3.65234 36.124C3.552 36.5523 3.5 36.9817 3.5 37.4102C3.50006 40.0489 5.42099 42.7472 9.19531 44.876C12.9241 46.9721 18.1771 48.3203 24.0596 48.3203C29.758 48.3203 34.8646 47.055 38.5684 45.0703L38.9229 44.876C42.6975 42.7471 44.6191 40.0491 44.6191 37.4102C44.6191 36.9813 44.5666 36.5517 44.4658 36.123ZM24.0596 20.5C18.1772 20.5 12.9251 21.8482 9.19629 23.9443C5.42248 26.0626 3.5 28.7607 3.5 31.4102C3.50006 34.0489 5.42099 36.7472 9.19531 38.876C12.9241 40.9721 18.1771 42.3203 24.0596 42.3203C29.758 42.3203 34.8646 41.055 38.5684 39.0703L38.9229 38.876C42.6975 36.7471 44.6191 34.0491 44.6191 31.4102C44.6191 28.7606 42.6966 26.0626 38.9229 23.9443V23.9434C35.194 21.8472 29.9418 20.5 24.0596 20.5Z" fill="#1A1A1A"/>
<path d="M15.3099 38.7199C13.8376 35.7799 17.9681 34.2199 20.2174 33.8099C21.4443 33.1999 25.861 32.3399 33.713 33.8099C43.5281 35.6499 39.8474 38.7199 36.1668 41.1699C33.2223 43.1399 32.4862 45.2598 32.4862 46.0798C32.4862 47.9198 31.75 51.5999 28.8055 51.5999C25.1249 51.5999 25.1249 48.5398 25.1249 46.0798C25.1249 43.6298 17.1502 42.3999 15.3099 38.7199Z" fill="#CE7012" fill-opacity="0.88"/>
<path d="M31.7365 46.0801C31.7365 44.9353 32.6682 42.6089 35.7501 40.5469L35.7511 40.5459C36.6671 39.9362 37.5438 39.3128 38.2052 38.6963C38.8954 38.053 39.2126 37.5415 39.256 37.1739C39.2843 36.9333 39.2149 36.5405 38.3703 36.0352C37.5086 35.5198 36.0036 35.0022 33.5753 34.5469C29.6994 33.8213 26.6906 33.675 24.5167 33.7793C22.3184 33.8849 21.029 34.2444 20.5519 34.4815L20.4562 34.5284L20.3517 34.5479C19.2813 34.743 17.8082 35.2077 16.8048 35.9258C16.3069 36.2823 15.9837 36.6594 15.84 37.0372C15.7078 37.3849 15.6957 37.8149 15.9806 38.3838V38.3848C16.3554 39.1341 17.0739 39.8124 18.0363 40.4541C18.9932 41.0922 20.1171 41.6465 21.2335 42.1856C22.3231 42.7117 23.4355 43.2368 24.2658 43.7901C25.0454 44.3096 25.8751 45.0433 25.8751 46.0801C25.8751 47.3536 25.8873 48.564 26.2746 49.4668C26.4567 49.8913 26.7125 50.219 27.0773 50.4483C27.4468 50.6804 27.989 50.8496 28.8058 50.8496C29.8841 50.8496 30.5938 50.206 31.0744 49.2051C31.5632 48.1868 31.7364 46.927 31.7365 46.0801ZM33.2365 46.0801C33.2364 47.0732 33.0412 48.573 32.4259 49.8545C31.8023 51.1535 30.6718 52.3496 28.8058 52.3496C27.7825 52.3496 26.9441 52.1372 26.2785 51.7188C25.6082 51.2975 25.1736 50.7056 24.8957 50.0577C24.363 48.8156 24.3751 47.2664 24.3751 46.0801C24.3751 45.892 24.2075 45.5531 23.4347 45.0381C22.7122 44.5567 21.7154 44.0838 20.5812 43.5362C19.4743 43.0017 18.2598 42.406 17.2042 41.7022C16.1539 41.0018 15.1842 40.1463 14.6388 39.0557L14.6398 39.0547C14.1891 38.1543 14.1404 37.287 14.4386 36.503C14.7257 35.7487 15.3001 35.1583 15.9318 34.7061C17.1518 33.8328 18.8065 33.3186 19.9806 33.0928C20.7615 32.7355 22.2597 32.3862 24.4445 32.2813C26.7487 32.1707 29.8748 32.329 33.8507 33.0733H33.8517C36.3305 33.538 38.0462 34.0939 39.1398 34.7481C40.2502 35.4123 40.8712 36.2857 40.7462 37.3487C40.6361 38.2847 39.9558 39.1154 39.2277 39.794C38.471 40.4992 37.5069 41.1771 36.5832 41.792L36.5841 41.793C33.7771 43.6711 33.2365 45.5849 33.2365 46.0801Z" fill="#1A1A1A"/>
<path d="M24.2021 24.9951C24.8676 24.9951 25.4071 25.5346 25.4071 26.2001C25.4071 26.8656 24.8676 27.4051 24.2021 27.4051C23.5366 27.4051 22.9971 26.8656 22.9971 26.2001C22.9971 25.5346 23.5366 24.9951 24.2021 24.9951Z" fill="#1A1A1A"/>
<path d="M14.2045 24.9951C13.539 24.9951 12.9995 25.5346 12.9995 26.2001C12.9995 26.8656 13.539 27.4051 14.2045 27.4051C14.87 27.4051 15.4095 26.8656 15.4095 26.2001C15.4095 25.5346 14.87 24.9951 14.2045 24.9951Z" fill="#1A1A1A"/>
<path d="M21.5198 27.8773C21.8153 27.5872 22.2901 27.5917 22.5804 27.887C22.8704 28.1825 22.8659 28.6573 22.5706 28.9476L22.4485 29.0677L22.4466 29.0687L21.9232 28.5325L21.8636 28.472L22.4466 29.0687C20.7664 30.7091 18.0646 30.6439 16.4661 28.9231C16.1842 28.6197 16.2017 28.1445 16.5052 27.8626C16.8087 27.5807 17.2838 27.5982 17.5657 27.9017C18.5904 29.0048 20.3217 29.0469 21.3987 27.9954V27.9964L21.5198 27.8773Z" fill="#1A1A1A"/>
</svg>
