<svg width="48" height="55" viewBox="0 0 48 55" fill="none" xmlns="http://www.w3.org/2000/svg">
<path d="M12.1321 23.9529C16.2151 27.8619 15.9201 33.2449 15.2621 37.8539C15.1301 38.7769 14.1791 39.5529 13.2471 39.5509C12.0281 39.5479 11.4711 38.4248 11.5401 37.2088C11.6271 35.6808 11.6081 34.0249 11.5751 32.4999C11.3371 28.6029 10.9371 27.1899 10.4661 26.6069C9.91515 25.9279 8.81014 25.7699 8.02515 26.1559C7.23114 26.5459 7.00614 27.4669 7.06214 28.1059C7.07114 28.2079 7.10814 28.3089 7.15314 28.4009C9.91914 33.9619 4.07214 34.1709 2.69994 32.0799C1.26034 30.2749 2.87744 28.7389 4.09714 28.0619C4.53814 27.8169 4.85314 27.3429 4.84714 26.8399C4.82114 24.3859 6.02814 23.1718 7.39114 22.6388C9.03014 21.9988 10.8601 22.7349 12.1321 23.9529Z" fill="#B3EE71"/>
<path d="M7.30769 21.8717C9.26886 21.211 11.3087 22.1274 12.6495 23.4107C17.0303 27.6048 16.6622 33.3555 16.005 37.9596L15.9552 38.2105C15.809 38.7829 15.4585 39.2727 15.0352 39.6256C14.5514 40.029 13.9142 40.3028 13.2452 40.3014C12.3681 40.2991 11.6959 39.8763 11.2833 39.2447C10.8902 38.643 10.7502 37.8877 10.7911 37.1666C10.8757 35.68 10.8588 34.0605 10.8262 32.5455C10.7081 30.6109 10.5511 29.3244 10.3731 28.4625C10.1923 27.5868 10.0048 27.2298 9.88289 27.0787C9.5876 26.7169 8.88105 26.571 8.35652 26.8287L7.69441 25.483C8.6739 25.0014 10.0556 25.1207 10.8897 25.9576L11.0489 26.1344L11.0499 26.1353L10.5968 26.5006L10.7725 26.359L10.4786 26.5973L10.4659 26.607L11.0499 26.1353C11.399 26.5674 11.6466 27.2086 11.8428 28.1588C12.0172 29.0027 12.1624 30.1561 12.2764 31.7457L12.3243 32.4547V32.4693L12.3253 32.484L11.587 32.4986L11.5753 32.4996L12.3253 32.484C12.3542 33.8198 12.3727 35.2741 12.3175 36.6617L12.2891 37.2516C12.2611 37.7461 12.3655 38.1599 12.5382 38.4244C12.6915 38.6591 12.9073 38.8005 13.2491 38.8014C13.5121 38.8018 13.8167 38.688 14.0743 38.4732C14.332 38.2583 14.4848 37.9908 14.5196 37.7477C15.1577 33.2781 15.3845 28.4315 11.9571 24.8385L11.6134 24.4947L11.3917 24.2935C10.3384 23.3858 9.03269 22.9383 7.9034 23.2574L7.66414 23.3375C7.09328 23.5608 6.58295 23.9147 6.21492 24.4459C5.84881 24.9744 5.58535 25.7329 5.59675 26.8307C5.60651 27.6486 5.10642 28.3588 4.46101 28.7174C3.91227 29.022 3.34144 29.4882 3.06062 30.0055C2.92711 30.2515 2.86834 30.491 2.88679 30.7281C2.90515 30.9629 3.00405 31.258 3.28621 31.6119L2.69343 32.0836L3.32722 31.6685C3.53925 31.9915 3.97703 32.2886 4.55867 32.4449C5.13362 32.5994 5.74298 32.5856 6.21394 32.4078C6.65984 32.2394 6.97181 31.9342 7.08699 31.4439C7.21145 30.9135 7.13341 30.0456 6.48152 28.735L6.47957 28.7301C6.43084 28.6304 6.37374 28.4959 6.33992 28.3375L6.3155 28.1715L6.30574 28.0182C6.28122 27.2217 6.57701 26.032 7.69441 25.483L8.35652 26.8287C7.96329 27.0219 7.7695 27.5438 7.80867 28.0299C7.81157 28.0382 7.81762 28.0522 7.82722 28.0719C8.55639 29.5395 8.78337 30.7812 8.54695 31.7877C8.30083 32.8349 7.58452 33.4945 6.74324 33.8121C5.9268 34.1202 4.98973 34.1137 4.16902 33.8932C3.36849 33.678 2.57573 33.2279 2.09871 32.526C1.67185 31.984 1.43644 31.4188 1.39168 30.8443C1.34658 30.2648 1.49908 29.7388 1.74226 29.2906C2.15601 28.5283 2.85654 27.9422 3.47468 27.5582L3.73347 27.4059C3.94014 27.2908 4.06529 27.0946 4.09187 26.9215L4.09773 26.8492C4.08337 25.494 4.4102 24.4173 4.98152 23.5924C5.55118 22.77 6.32625 22.2497 7.11824 21.94L7.30769 21.8717ZM3.30769 31.6393L3.32722 31.6685L2.70027 32.0797L3.28621 31.6119L3.30769 31.6393Z" fill="#1A1A1A"/>
<path d="M4.72692 31.7689C5.70692 31.0669 5.86792 30.4109 5.89492 29.8309C5.90292 29.6549 6.10693 29.5709 6.21993 29.7059C7.48493 31.2109 6.67393 32.4569 4.78993 32.1259C4.61693 32.0959 4.58392 31.8709 4.72692 31.7689Z" fill="#78B136"/>
</svg>
