<svg width="49" height="55" viewBox="0 0 49 55" fill="none" xmlns="http://www.w3.org/2000/svg">
<path d="M20.88 23.1667C17.107 22.5567 8.48404 23.1667 4.71104 32.9237L2.53174 41.8817C4.14904 40.6627 7.94504 40.2417 11.179 40.2417C21.958 40.2417 25.282 42.0707 28.426 42.0707C33.277 29.8747 24.653 23.7757 20.88 23.1667Z" fill="#757575" stroke="#1A1A1A" stroke-width="1.5" stroke-linejoin="round"/>
<path d="M22.0349 20.9152L20.6654 20.729C19.9991 20.6384 19.4014 21.107 19.3304 21.7756C19.2594 22.4443 19.742 23.0597 20.4082 23.1503L21.7778 23.3365C22.4441 23.4271 23.0417 22.9585 23.1128 22.2898C23.1838 21.6212 22.7012 21.0057 22.0349 20.9152Z" fill="#1A1A1A" stroke="#1A1A1A"/>
<path d="M21.0161 23C23.2701 26.853 26.4161 34.931 23.7111 41.295" stroke="#2C2C2C" stroke-dasharray="1 1"/>
<path d="M21.016 23C18.762 26.853 16.704 33.367 16.165 40.075" stroke="#2C2C2C" stroke-dasharray="1 1"/>
<path d="M20.0161 23C12.4701 26.659 8.15912 32.757 7.62012 39.465" stroke="#2C2C2C" stroke-dasharray="1 1"/>
<path d="M20.8799 23.1667C17.1069 22.5567 8.48395 23.1667 4.71095 32.9237L2.64404 41.8257C4.26094 40.6067 7.94894 40.3937 10.1009 40.2417C18.7239 39.6317 25.2819 42.0707 28.4259 42.0707C33.2769 29.8747 24.6529 23.7757 20.8799 23.1667Z" stroke="#1A1A1A" stroke-width="1.5" stroke-linejoin="round"/>
<path d="M3.86352 32.2038C0.548017 33.8348 -0.46608 36.9928 2.53302 42.0598C3.86352 41.4498 7.68512 40.3978 10.6181 40.2308C14.7071 39.9968 17.0851 40.2308 21.9361 40.8398C18.6291 30.8688 7.17912 30.5718 3.86352 32.2038Z" fill="#85E0A3" stroke="#1A1A1A" stroke-width="1.5" stroke-linejoin="round"/>
<path d="M21.3835 23.1853C17.6106 22.5753 8.98701 23.1853 5.21418 32.9423L3.08008 41.9543C4.69701 40.7353 8.44799 40.2603 11.6818 40.2603C22.4614 40.2603 25.7849 42.0893 28.9291 42.0893C33.7799 29.8933 25.1563 23.7943 21.3835 23.1853Z" fill="#757575"/>
<path fill-rule="evenodd" clip-rule="evenodd" d="M24.8604 41.0469C24.8018 41.2016 24.7399 41.3557 24.6748 41.5088L23.7539 41.1182C23.8137 40.9774 23.8708 40.835 23.9248 40.6924L24.8604 41.0469ZM17.209 39.6445C17.1941 39.8074 17.1801 39.9707 17.167 40.1338L16.1709 40.0537C16.1843 39.8868 16.1986 39.7193 16.2139 39.5527L17.209 39.6445ZM25.4189 39.1436C25.3496 39.4659 25.2689 39.7866 25.1758 40.1045L24.2158 39.8242C24.3019 39.5303 24.3769 39.2322 24.4414 38.9326L25.4189 39.1436ZM8.66602 39.0488C8.64895 39.2066 8.63383 39.3649 8.62109 39.5234L7.62402 39.4434C7.63749 39.2757 7.65383 39.1083 7.67188 38.9414L8.66602 39.0488ZM17.4307 37.6914C17.387 38.0153 17.3466 38.341 17.3096 38.667L16.3164 38.5537C16.3542 38.2208 16.3948 37.8883 16.4395 37.5576L17.4307 37.6914ZM25.7041 37.1895C25.6776 37.517 25.6409 37.8443 25.5938 38.1699L24.6045 38.0264C24.6486 37.7222 24.6821 37.4159 24.707 37.1084L25.7041 37.1895ZM8.97559 37.167C8.90665 37.4772 8.84659 37.7896 8.79492 38.1035L7.80859 37.9414C7.86327 37.6093 7.92705 37.2785 8 36.9502L8.97559 37.167ZM17.7334 35.749C17.6765 36.0704 17.6229 36.394 17.5723 36.7188L16.584 36.5645C16.6357 36.2329 16.6909 35.9023 16.749 35.5742L17.7334 35.749ZM9.49219 35.3311C9.38921 35.6324 9.29496 35.9365 9.20898 36.2422L8.24609 35.9717C8.33708 35.6481 8.43696 35.3265 8.5459 35.0078L9.49219 35.3311ZM25.75 35.2236C25.7602 35.5506 25.7622 35.8786 25.7549 36.2061L24.7549 36.1836C24.7618 35.8748 24.7597 35.5647 24.75 35.2549L25.75 35.2236ZM18.1162 33.8193C18.0465 34.1377 17.979 34.4591 17.915 34.7822L16.9346 34.5879C16.9998 34.2582 17.0675 33.9303 17.1387 33.6055L18.1162 33.8193ZM10.207 33.5625C10.0716 33.8516 9.94408 34.1433 9.8252 34.4375L8.89844 34.0625C9.02398 33.7518 9.1579 33.4437 9.30078 33.1387L10.207 33.5625ZM25.5928 33.2715C25.6339 33.5943 25.6679 33.9196 25.6943 34.2451L24.6973 34.3262C24.6721 34.0165 24.6399 33.7066 24.6006 33.3984L25.5928 33.2715ZM18.5752 31.9082C18.4927 32.2228 18.4131 32.5413 18.3359 32.8623L17.3633 32.6279C17.4421 32.3002 17.5242 31.9755 17.6084 31.6543L18.5752 31.9082ZM11.1074 31.8789C10.942 32.1527 10.7843 32.4294 10.6348 32.709L9.75293 32.2373C9.91077 31.9423 10.0766 31.65 10.251 31.3613L11.1074 31.8789ZM25.2646 31.3477C25.3317 31.6641 25.3933 31.9841 25.4482 32.3057L24.4629 32.4746C24.4103 32.1666 24.3515 31.8597 24.2871 31.5557L25.2646 31.3477ZM12.1777 30.2949C11.9851 30.5513 11.7996 30.8107 11.6221 31.0732L10.7939 30.5137C10.9809 30.2372 11.1763 29.9639 11.3789 29.6943L12.1777 30.2949ZM19.1133 30.0176C19.0179 30.3271 18.9255 30.6419 18.835 30.96L17.873 30.6855C17.9655 30.3608 18.0607 30.04 18.1582 29.7236L19.1133 30.0176ZM24.792 29.46C24.8811 29.769 24.9664 30.0826 25.0459 30.3994L24.0752 30.6426C23.9986 30.3374 23.917 30.0346 23.8311 29.7363L24.792 29.46ZM13.4014 28.8213C13.1844 29.0587 12.9742 29.2999 12.7715 29.5439L12.002 28.9053C12.2147 28.6491 12.4357 28.3964 12.6631 28.1475L13.4014 28.8213ZM19.7344 28.1543C19.6252 28.4579 19.5179 28.7682 19.4131 29.083L18.4648 28.7666C18.5721 28.4445 18.682 28.1276 18.7939 27.8164L19.7344 28.1543ZM24.1924 27.6113C24.3007 27.9118 24.4066 28.2186 24.5078 28.5303L23.5566 28.8389C23.4588 28.5377 23.3567 28.2409 23.252 27.9502L24.1924 27.6113ZM14.7578 27.4658C14.5198 27.6832 14.2882 27.9046 14.0635 28.1289L13.3574 27.4219C13.5927 27.187 13.8351 26.9549 14.084 26.7275L14.7578 27.4658ZM20.4453 26.3281C20.3211 26.6232 20.1986 26.9264 20.0781 27.2363L19.1455 26.874C19.2692 26.5556 19.3955 26.2434 19.5234 25.9395L20.4453 26.3281ZM23.8486 26.7021L22.9189 27.0703C22.8014 26.7736 22.6811 26.4833 22.5596 26.2021L23.4775 25.8057C23.6031 26.0961 23.7273 26.3957 23.8486 26.7021ZM16.2295 26.2334C15.9736 26.4302 15.7239 26.6311 15.4805 26.835L14.8379 26.0684C15.0922 25.8554 15.3532 25.6457 15.6201 25.4404L16.2295 26.2334ZM17.7988 25.123C17.528 25.2992 17.2622 25.4788 17.0029 25.6621L16.4258 24.8457C16.6959 24.6547 16.9722 24.4674 17.2539 24.2842L17.7988 25.123ZM21.2598 24.5518C21.118 24.8348 20.9768 25.1291 20.8379 25.4326L19.9287 25.0156C20.0722 24.7022 20.2181 24.3983 20.3652 24.1045L21.2598 24.5518ZM22.6504 24.0479C22.7927 24.3265 22.9367 24.618 23.0791 24.9209L22.1738 25.3467C22.0362 25.0538 21.898 24.7717 21.7607 24.5029L22.6504 24.0479ZM19.4521 24.1328C19.1683 24.2891 18.8894 24.4488 18.6162 24.6123L18.1025 23.7549C18.3861 23.5852 18.6755 23.4188 18.9697 23.2568L19.4521 24.1328ZM22.1924 23.1885L21.9072 23.3467C21.842 23.4592 21.7768 23.5741 21.7119 23.6914L21.5 23.5742L21.3193 23.6758C21.2628 23.5744 21.2051 23.476 21.1494 23.3799L20.8369 23.207C20.9202 23.0567 21.0038 22.9093 21.0879 22.7656L21.5195 23.0186L21.9512 22.7656C22.0306 22.9014 22.1112 23.043 22.1924 23.1885ZM20.7373 23.4688C20.5919 23.5393 20.4476 23.6113 20.3047 23.6836L19.8525 22.791C20.0007 22.716 20.1511 22.6414 20.3018 22.5684L20.7373 23.4688Z" fill="#2C2C2C"/>
<path fill-rule="evenodd" clip-rule="evenodd" d="M21.2218 20.2502L22.5909 20.4367C23.5306 20.5646 24.2115 21.433 24.1114 22.3761C24.0777 22.6929 23.9582 22.9763 23.7813 23.2101C25.5707 24.0785 27.5641 25.6344 29.0196 27.8849C31.1829 31.2301 32.1337 36.0613 29.6261 42.3664L29.5763 42.4689C29.4431 42.6961 29.1976 42.839 28.9288 42.839C28.066 42.839 27.0044 42.6737 25.8165 42.4552C24.5993 42.2314 23.2483 41.9522 21.6944 41.6857C18.6144 41.1574 14.8845 40.7099 10.6563 41.009C9.56839 41.0858 8.12351 41.1736 6.74813 41.3908C5.33784 41.6135 4.15792 41.9515 3.5118 42.4386L3.41317 42.5011C3.17398 42.6286 2.88016 42.6181 2.64852 42.466C2.38415 42.292 2.25774 41.9709 2.33211 41.6633L4.48446 32.7658C4.49218 32.7339 4.50289 32.7027 4.51473 32.672C6.47696 27.5975 9.7274 24.8568 13.0089 23.4845C15.2716 22.5384 17.5302 22.2504 19.3663 22.2707C19.3293 22.0957 19.3183 21.9127 19.338 21.7267C19.4383 20.7837 20.282 20.1224 21.2218 20.2502ZM21.2638 23.926C19.4837 23.6382 16.531 23.6378 13.588 24.8683C10.6802 26.0843 7.74159 28.5163 5.92977 33.1711L4.16512 40.4592C4.90438 40.2051 5.72484 40.0341 6.51473 39.9094C7.96844 39.6798 9.48721 39.587 10.5509 39.5119C14.946 39.201 18.8069 39.6686 21.9473 40.2072C23.5034 40.4741 24.921 40.7662 26.087 40.9806C27.016 41.1515 27.7897 41.2725 28.421 41.3185C30.5206 35.6794 29.586 31.5232 27.7598 28.6994C25.8463 25.7406 22.9269 24.1945 21.2638 23.926Z" fill="#1A1A1A"/>
<path d="M4.36647 32.2223C1.05092 33.8533 0.0368581 37.0113 3.03597 42.0783C4.36647 41.4683 8.18797 40.4163 11.1206 40.2493C15.2105 40.0153 17.5883 40.2493 22.439 40.8593C19.1318 30.8873 7.68202 30.5903 4.36647 32.2223Z" fill="#85E0A3"/>
<path d="M8.10254 30.7313C9.76808 30.6834 11.6945 30.888 13.623 31.4716C17.4918 32.6423 21.4045 35.3559 23.1514 40.6229C23.2324 40.8673 23.182 41.1369 23.0186 41.3358C22.8551 41.5345 22.601 41.6354 22.3457 41.6034L22.4395 40.8593H22.4385L22.3457 41.6034C17.5086 40.9951 15.184 40.7679 11.1631 40.9979C9.758 41.078 8.11743 41.3724 6.6543 41.7265C5.18261 42.0826 3.9488 42.4845 3.34863 42.7597C2.99965 42.9197 2.58617 42.7902 2.39062 42.4599C0.848687 39.8547 0.255992 37.6086 0.594725 35.7284C0.941114 33.8062 2.22676 32.4394 4.03515 31.5497C4.99676 31.0764 6.45306 30.7789 8.10254 30.7313ZM8.14551 32.2304C6.61233 32.2745 5.39343 32.5527 4.69726 32.8954C3.19058 33.6367 2.31106 34.6641 2.07129 35.995C1.84315 37.2619 2.16768 38.948 3.36328 41.1347C4.12078 40.8543 5.16476 40.5433 6.30078 40.2684C7.81402 39.9023 9.55072 39.5878 11.0781 39.5009C14.8683 39.284 17.2239 39.465 21.2939 39.9618C19.5837 35.9955 16.4063 33.8809 13.1885 32.9071C11.4268 32.374 9.66257 32.1867 8.14551 32.2304Z" fill="#1A1A1A"/>
</svg>
