<svg width="48" height="55" viewBox="0 0 48 55" fill="none" xmlns="http://www.w3.org/2000/svg">
<path d="M4.39868 38.818C9.51734 40.468 13.7226 40.078 15.8878 40.078C17.9946 40.078 24.3938 39.1181 26.7605 37.7181C27.0353 37.5581 27.1563 37.2281 27.0919 36.9181C25.7918 30.6081 19.3696 26.1781 14.5847 26.6581C10.172 27.0881 4.13624 30.5581 3.80698 37.9781C3.79001 38.3581 4.03481 38.698 4.39868 38.818Z" fill="#FF99E0"/>
<path d="M15.4805 25.8975C18.3994 26.7323 21.9039 30.2772 22.6465 36.8643L21.1562 37.0322C20.5468 31.6258 17.9955 28.7198 15.9023 27.6699C15.7962 30.2017 15.756 34.5465 16.2217 37.0723L14.7471 37.3438C14.2614 34.7095 14.2944 30.3713 14.3965 27.7842C12.1068 28.9429 9.14551 31.8868 9.14551 36.7783H7.64551C7.64551 30.2752 12.2536 26.7122 15.0684 25.9072L15.2725 26.623L15.4805 25.8975Z" fill="#FFBDF2"/>
<path d="M14.5104 25.9114C17.146 25.6472 20.1342 26.7312 22.6051 28.6487C25.0868 30.5746 27.1344 33.4064 27.8268 36.7649L27.8453 36.8753C27.9182 37.4259 27.6947 38.0381 27.1412 38.3626L27.1422 38.3636C25.8341 39.1372 23.5239 39.7452 21.3688 40.1595C19.1905 40.5782 17.0107 40.8274 15.8883 40.8274C13.7791 40.8274 9.42734 41.2267 4.16858 39.5315L4.1637 39.5306C3.49625 39.3104 3.02565 38.6763 3.05823 37.9446C3.40902 30.0396 9.85131 26.3672 14.5104 25.9124V25.9114ZM21.6852 29.8343C19.424 28.0795 16.8089 27.189 14.6598 27.4046H14.6578C10.4917 27.8106 4.86401 31.0772 4.55628 38.011C4.55504 38.0387 4.57302 38.0834 4.6305 38.1038C9.60843 39.7081 13.6673 39.3274 15.8883 39.3274C16.873 39.3274 18.9464 39.098 21.0856 38.6868C23.2344 38.2737 25.2934 37.7048 26.358 37.0833C26.3581 37.0793 26.3589 37.075 26.358 37.0706L26.3571 37.0696C25.7491 34.1188 23.9355 31.5806 21.6852 29.8343Z" fill="#1A1A1A"/>
<path d="M2.44857 39.768C2.39043 39.048 2.44111 38.2379 2.53458 37.4979C2.66483 36.4679 3.71661 35.8879 4.73086 36.1079C11.1628 37.4679 21.2395 36.718 26.7206 36.048C27.5276 35.948 28.3074 36.3979 28.4769 37.1879C28.5921 37.7279 28.672 38.2979 28.7393 38.8179C28.8651 39.7979 28.233 40.7779 27.2696 40.9879C19.1909 42.7579 11.3466 42.198 3.72969 41.018C3.06389 40.918 2.50226 40.448 2.44857 39.768Z" fill="#FF99E0"/>
<path fill-rule="evenodd" clip-rule="evenodd" d="M12.0166 36.6182C12.0166 37.1435 11.9619 38.0278 11.9004 38.9717C11.8378 39.9312 11.7662 40.9756 11.7295 41.8594L10.2314 41.7969C10.2691 40.8909 10.3414 39.8243 10.4033 38.874C10.4663 37.9085 10.5166 37.0828 10.5166 36.6182H12.0166ZM20.7402 36.6182C20.7403 37.0828 20.7906 37.9085 20.8535 38.874C20.9155 39.8243 20.9887 40.8909 21.0264 41.7969L19.5273 41.8594C19.4906 40.9756 19.42 39.9312 19.3574 38.9717C19.2959 38.0278 19.2403 37.1435 19.2402 36.6182H20.7402ZM14.8105 36.5732C14.842 37.0938 14.8397 37.9782 14.835 38.9229C14.8302 39.8836 14.8225 40.9306 14.8389 41.8145L13.3389 41.8418C13.3221 40.9359 13.3302 39.8674 13.335 38.916C13.3398 37.9489 13.3403 37.1226 13.3125 36.6631L14.8105 36.5732ZM17.917 36.5732C17.9485 37.0938 17.9461 37.9782 17.9414 38.9229C17.9366 39.8836 17.929 40.9306 17.9453 41.8145L16.4453 41.8418C16.4286 40.9359 16.4366 39.8674 16.4414 38.916C16.4462 37.9489 16.4468 37.1226 16.4189 36.6631L17.917 36.5732ZM23.5293 36.5254C23.6258 37.2979 23.8375 39.2696 23.9131 41.0869L22.4141 41.1494C22.3408 39.3874 22.1345 37.4591 22.041 36.7109L23.5293 36.5254ZM26.416 36.5254C26.5126 37.2979 26.7242 39.2696 26.7998 41.0869L25.3008 41.1494C25.2274 39.3874 25.0212 37.4591 24.9277 36.7109L26.416 36.5254ZM6.3291 36.6113C6.23555 37.3595 6.02931 39.2879 5.95605 41.0498L4.45703 40.9873C4.5326 39.1698 4.74425 37.1971 4.84082 36.4248L6.3291 36.6113ZM9.21582 36.6113C9.12227 37.3595 8.91604 39.2879 8.84277 41.0498L7.34473 40.9873C7.4203 39.1699 7.63097 37.1971 7.72754 36.4248L9.21582 36.6113Z" fill="#FFBDF2"/>
<path d="M26.6279 35.3036C27.7398 35.1658 28.9427 35.7857 29.2099 37.0301V37.0311C29.2709 37.3172 29.3226 37.6095 29.3671 37.8954L29.4833 38.7215V38.7225C29.6433 39.9697 28.9086 41.2496 27.6816 41.6522L27.4296 41.7206C19.2203 43.5191 11.2711 42.9441 3.61809 41.7586C2.69929 41.6205 1.78947 40.9397 1.7011 39.828C1.63726 39.0372 1.69311 38.1711 1.78997 37.4041C1.98786 35.8392 3.54657 35.0872 4.88469 35.3748L4.88567 35.3739C11.1821 36.7052 21.1452 35.9746 26.6279 35.3045V35.3036ZM26.8124 36.7918H26.8114C21.3316 37.4617 11.143 38.23 4.5761 36.8416L4.57219 36.8407C3.88298 36.6912 3.34072 37.0986 3.27825 37.5916C3.19944 38.2155 3.15527 38.8709 3.18059 39.4598L3.19622 39.7079V39.7088C3.21579 39.9563 3.42855 40.2142 3.84075 40.2762H3.84465C11.4243 41.4504 19.1626 41.9958 27.1093 40.2547H27.1103C27.6594 40.1347 28.0755 39.543 27.995 38.9139C27.9448 38.5259 27.8897 38.1228 27.8193 37.7313L27.7431 37.3446C27.6708 37.0094 27.3141 36.7297 26.8124 36.7918Z" fill="#1A1A1A"/>
<path fill-rule="evenodd" clip-rule="evenodd" d="M15.0376 21.1513C15.5793 21.0447 16.1055 21.3978 16.2124 21.9394C16.3002 22.3854 16.3779 22.8637 16.439 23.374C16.6674 23.0755 16.8749 22.7855 17.063 22.5058C17.3712 22.0475 17.9924 21.9252 18.4507 22.2333C18.9087 22.5416 19.0302 23.1629 18.7222 23.621C18.4074 24.0892 18.0447 24.5816 17.6275 25.0908C18.0562 25.0514 18.5003 24.9988 18.9595 24.9257C19.5048 24.839 20.0171 25.2105 20.104 25.7558C20.1908 26.3011 19.8193 26.8134 19.274 26.9003C18.7593 26.9823 18.2611 27.0414 17.7798 27.0849C18.0253 27.2815 18.2814 27.4786 18.5503 27.6738C18.9972 27.9981 19.0971 28.6233 18.773 29.0703C18.4486 29.5172 17.8225 29.6164 17.3755 29.2919C17.0221 29.0354 16.6873 28.7768 16.3697 28.5175C16.3167 28.8934 16.2522 29.2787 16.1753 29.6738C16.0698 30.2158 15.5446 30.5702 15.0025 30.4648C14.4609 30.359 14.1071 29.8337 14.2124 29.2919C14.2839 28.9246 14.3434 28.5669 14.3921 28.2187C14.026 28.5015 13.6393 28.7848 13.2271 29.0624C12.7692 29.3709 12.148 29.2497 11.8394 28.7919C11.5309 28.3339 11.6519 27.7128 12.1099 27.4042C12.3467 27.2448 12.573 27.0821 12.7925 26.9208C12.3512 26.8491 11.9353 26.767 11.5454 26.6777C11.0075 26.5541 10.6713 26.0175 10.7945 25.4794C10.9179 24.9414 11.4546 24.6053 11.9927 24.7285C12.2859 24.7956 12.596 24.8572 12.9224 24.914C12.6038 24.4812 12.3222 24.0615 12.0728 23.6601C11.7818 23.191 11.9261 22.5745 12.3951 22.2831C12.8641 21.9922 13.4806 22.1366 13.772 22.6054C13.9739 22.9304 14.1993 23.2701 14.4527 23.6201C14.3976 23.1587 14.3285 22.7272 14.2495 22.3261C14.1431 21.7846 14.4963 21.2583 15.0376 21.1513Z" fill="#80CAFF"/>
</svg>
