<svg width="48" height="55" viewBox="0 0 48 55" fill="none" xmlns="http://www.w3.org/2000/svg">
<path d="M14.5882 24.73V24.585C14.5902 24.088 14.6353 23.692 14.7203 23.396C14.8083 23.101 14.9362 22.862 15.1032 22.68C15.2712 22.499 15.4733 22.334 15.7083 22.186C15.8853 22.072 16.0423 21.955 16.1813 21.832C16.3213 21.71 16.4313 21.575 16.5143 21.428C16.5963 21.277 16.6373 21.109 16.6373 20.925C16.6373 20.729 16.5903 20.557 16.4973 20.409C16.4033 20.261 16.2772 20.148 16.1172 20.068C15.9612 19.989 15.7883 19.949 15.5983 19.949C15.4133 19.949 15.2382 19.99 15.0732 20.072C14.9092 20.152 14.7743 20.271 14.6693 20.43C14.5633 20.587 14.5073 20.781 14.4983 21.014H12.7603C12.7743 20.446 12.9103 19.977 13.1693 19.608C13.4273 19.236 13.7693 18.959 14.1963 18.777C14.6223 18.592 15.0923 18.5 15.6063 18.5C16.1713 18.5 16.6713 18.594 17.1063 18.781C17.5413 18.966 17.8822 19.234 18.1292 19.587C18.3762 19.939 18.5003 20.364 18.5003 20.861C18.5003 21.193 18.4443 21.489 18.3333 21.747C18.2253 22.003 18.0733 22.23 17.8773 22.429C17.6813 22.625 17.4503 22.803 17.1833 22.962C16.9583 23.095 16.7742 23.234 16.6292 23.379C16.4872 23.524 16.3802 23.692 16.3092 23.882C16.2412 24.072 16.2063 24.307 16.2033 24.585V24.73H14.5882ZM15.4313 27.457C15.1473 27.457 14.9043 27.358 14.7033 27.159C14.5043 26.957 14.4062 26.716 14.4092 26.435C14.4062 26.156 14.5043 25.918 14.7033 25.719C14.9043 25.52 15.1473 25.42 15.4313 25.42C15.7013 25.42 15.9382 25.52 16.1432 25.719C16.3482 25.918 16.4513 26.156 16.4543 26.435C16.4513 26.622 16.4023 26.794 16.3053 26.95C16.2113 27.104 16.0882 27.227 15.9342 27.321C15.7812 27.412 15.6133 27.457 15.4313 27.457Z" fill="white"/>
<path d="M15.4322 25.421C15.1482 25.421 14.9052 25.52 14.7032 25.719C14.5042 25.918 14.4062 26.156 14.4092 26.435C14.4062 26.716 14.5042 26.957 14.7032 27.159C14.8802 27.333 15.0882 27.431 15.3272 27.453L15.4322 27.457C15.5682 27.457 15.6962 27.432 15.8162 27.381L15.9352 27.321C16.0882 27.228 16.2112 27.104 16.3052 26.95C16.3772 26.833 16.4242 26.707 16.4432 26.572L16.4542 26.435C16.4512 26.156 16.3482 25.918 16.1442 25.719C15.9392 25.52 15.7012 25.421 15.4322 25.421ZM16.6302 21.061C16.6142 21.192 16.5752 21.315 16.5142 21.428L16.4472 21.536C16.3752 21.642 16.2862 21.74 16.1822 21.832C16.0422 21.954 15.8852 22.073 15.7092 22.187C15.4732 22.334 15.2712 22.499 15.1032 22.681C14.9362 22.862 14.8082 23.101 14.7202 23.396C14.6352 23.692 14.5912 24.088 14.5882 24.585V24.73H16.2032V24.585C16.2062 24.307 16.2412 24.072 16.3102 23.882C16.3812 23.692 16.4872 23.524 16.6292 23.379C16.7382 23.27 16.8692 23.165 17.0222 23.062L17.1832 22.962C17.3832 22.843 17.5632 22.712 17.7242 22.572L17.8782 22.429C18.0742 22.23 18.2262 22.003 18.3342 21.747C18.4172 21.553 18.4682 21.339 18.4892 21.104L18.5002 20.861C18.5002 20.426 18.4052 20.047 18.2162 19.723L18.1292 19.587C17.9132 19.279 17.6252 19.034 17.2652 18.854L17.1062 18.781C16.6722 18.594 16.1722 18.5 15.6062 18.5C15.0922 18.5 14.6212 18.593 14.1952 18.777L14.0402 18.85C13.6852 19.03 13.3952 19.283 13.1692 19.608C12.9102 19.978 12.7742 20.447 12.7602 21.015H14.4982L14.5142 20.847C14.5302 20.74 14.5582 20.642 14.5992 20.555L14.6692 20.431C14.7482 20.311 14.8442 20.214 14.9562 20.14L15.0732 20.072C15.2382 19.99 15.4132 19.949 15.5982 19.949C15.7882 19.949 15.9612 19.989 16.1172 20.068L16.2302 20.135C16.3382 20.207 16.4272 20.298 16.4972 20.409C16.5912 20.557 16.6382 20.729 16.6382 20.925L16.6302 21.061ZM20.0002 20.861C20.0002 21.358 19.9152 21.856 19.7142 22.33L19.7162 22.331C19.5342 22.763 19.2752 23.149 18.9462 23.482L18.9382 23.49L18.9372 23.489C18.6442 23.783 18.3112 24.035 17.9502 24.25V24.251C17.8322 24.321 17.7592 24.378 17.7162 24.417C17.7152 24.42 17.7152 24.423 17.7152 24.426C17.7092 24.463 17.7042 24.52 17.7032 24.601V24.73C17.7032 24.896 17.6752 25.055 17.6252 25.204C17.8342 25.567 17.9502 25.978 17.9542 26.42V26.457C17.9472 26.909 17.8232 27.348 17.5812 27.739L17.5802 27.738C17.3902 28.047 17.1442 28.31 16.8482 28.516L16.7172 28.601C16.7112 28.604 16.7052 28.608 16.6992 28.611C16.3102 28.842 15.8772 28.957 15.4322 28.957C14.8392 28.957 14.2892 28.763 13.8372 28.396L13.6492 28.228L13.6352 28.212C13.1652 27.735 12.9112 27.121 12.9102 26.449L12.9092 26.45V26.42H12.9102C12.9112 26.008 13.0062 25.619 13.1892 25.271C13.1252 25.103 13.0882 24.921 13.0882 24.73V24.577L13.1002 24.158C13.1212 23.744 13.1742 23.343 13.2782 22.98L13.2822 22.968L13.3382 22.795C13.3712 22.701 13.4092 22.607 13.4502 22.515H12.7602C12.3552 22.515 11.9682 22.351 11.6862 22.062C11.4032 21.772 11.2502 21.381 11.2602 20.977L11.2752 20.683C11.3322 19.998 11.5312 19.332 11.9392 18.748C12.3612 18.143 12.9252 17.69 13.6002 17.4L13.8392 17.305C14.4022 17.097 14.9962 17 15.6062 17C16.3342 17 17.0392 17.121 17.6912 17.4C18.3582 17.684 18.9332 18.122 19.3562 18.726L19.5142 18.971C19.8522 19.552 20.0002 20.2 20.0002 20.861Z" fill="#1A1A1A"/>
</svg>
