<svg width="48" height="55" viewBox="0 0 48 55" fill="none" xmlns="http://www.w3.org/2000/svg">
<path d="M3.97534 39.2145C9.094 40.8645 13.2993 40.4745 15.4645 40.4745C17.5713 40.4745 23.9705 39.5145 26.3372 38.1145C26.612 37.9545 26.733 37.6246 26.6686 37.3146C25.3685 31.0046 18.9463 26.5746 14.1614 27.0546C9.7487 27.4846 3.7129 30.9545 3.38364 38.3745C3.36667 38.7545 3.61147 39.0945 3.97534 39.2145Z" fill="#E24C0C"/>
<path fill-rule="evenodd" clip-rule="evenodd" d="M15.0581 26.2939C17.977 27.129 21.4816 30.6741 22.2241 37.2607L20.7339 37.4287C20.1243 32.0216 17.5723 29.115 15.479 28.0654C15.3728 30.5971 15.3326 34.9426 15.7983 37.4688L14.3237 37.7402C13.838 35.1057 13.872 30.7667 13.9741 28.1797C11.6843 29.3381 8.72314 32.2828 8.72314 37.1748H7.22314C7.22314 30.6717 11.8312 27.1087 14.646 26.3037L14.8501 27.0195L15.0581 26.2939Z" fill="#AA370D"/>
<path d="M14.087 26.3079C16.7226 26.0436 19.7108 27.1277 22.1818 29.0452C24.6634 30.9711 26.711 33.8029 27.4034 37.1614L27.422 37.2718C27.4948 37.8224 27.2713 38.4346 26.7179 38.7591L26.7189 38.76C25.4108 39.5337 23.1005 40.1417 20.9454 40.5559C18.7671 40.9747 16.5873 41.2239 15.465 41.2239C13.3558 41.2239 9.004 41.6232 3.74525 39.928L3.74036 39.927C3.07291 39.7069 2.60231 39.0728 2.63489 38.3411C2.98568 30.436 9.42797 26.7637 14.087 26.3089V26.3079ZM21.2618 30.2307C19.0006 28.476 16.3855 27.5855 14.2365 27.8011H14.2345C10.0683 28.207 4.44067 31.4737 4.13294 38.4075C4.1317 38.4352 4.14968 38.4798 4.20716 38.5003C9.18509 40.1046 13.244 39.7239 15.465 39.7239C16.4497 39.7239 18.523 39.4945 20.6622 39.0833C22.8111 38.6702 24.8701 38.1013 25.9347 37.4798C25.9347 37.4758 25.9356 37.4714 25.9347 37.4671L25.9337 37.4661C25.3257 34.5153 23.5121 31.9771 21.2618 30.2307Z" fill="#1A1A1A"/>
<path d="M2.02523 40.1644C1.96709 39.4444 2.01777 38.6344 2.11124 37.8944C2.24149 36.8644 3.29327 36.2844 4.30752 36.5044C10.7395 37.8644 20.8162 37.1145 26.2973 36.4445C27.1043 36.3445 27.8841 36.7944 28.0536 37.5844C28.1688 38.1244 28.2487 38.6944 28.316 39.2144C28.4418 40.1944 27.8097 41.1744 26.8463 41.3844C18.7676 43.1544 10.9233 42.5944 3.30635 41.4144C2.64055 41.3144 2.07892 40.8444 2.02523 40.1644Z" fill="#E24C0C"/>
<path fill-rule="evenodd" clip-rule="evenodd" d="M11.5933 37.0146C11.5932 37.54 11.5386 38.4243 11.4771 39.3682C11.4145 40.3277 11.3429 41.3721 11.3062 42.2559L9.80811 42.1934C9.84577 41.2873 9.91801 40.2208 9.97998 39.2705C10.0429 38.305 10.0932 37.4793 10.0933 37.0146H11.5933ZM20.3169 37.0146C20.3169 37.4793 20.3672 38.305 20.4302 39.2705C20.4921 40.2208 20.5654 41.2873 20.603 42.1934L19.104 42.2559C19.0673 41.3721 18.9967 40.3277 18.9341 39.3682C18.8725 38.4243 18.8169 37.54 18.8169 37.0146H20.3169ZM14.3872 36.9697C14.4187 37.4903 14.4164 38.3747 14.4116 39.3193C14.4068 40.2801 14.3992 41.3271 14.4155 42.2109L12.9155 42.2383C12.8988 41.3324 12.9069 40.2639 12.9116 39.3125C12.9165 38.3454 12.917 37.5191 12.8892 37.0596L14.3872 36.9697ZM17.4946 36.9697C17.5261 37.4903 17.5238 38.3747 17.519 39.3193C17.5142 40.2801 17.5066 41.3271 17.5229 42.2109L16.0229 42.2383C16.0062 41.3324 16.0143 40.2639 16.019 39.3125C16.0239 38.3454 16.0244 37.5191 15.9966 37.0596L17.4946 36.9697ZM23.106 36.9219C23.2025 37.6943 23.4142 39.6661 23.4897 41.4834L21.9907 41.5459C21.9175 39.7839 21.7112 37.8555 21.6177 37.1074L23.106 36.9219ZM25.9927 36.9219C26.0892 37.6943 26.3008 39.6661 26.3765 41.4834L24.8774 41.5459C24.8041 39.7838 24.5979 37.8555 24.5044 37.1074L25.9927 36.9219ZM5.90576 37.0078C5.81221 37.756 5.60597 39.6843 5.53271 41.4463L4.03369 41.3838C4.10924 39.5667 4.32088 37.5949 4.41748 36.8223L5.90576 37.0078ZM8.79248 37.0078C8.69893 37.756 8.4927 39.6843 8.41943 41.4463L6.92139 41.3838C6.99695 39.5667 7.2076 37.5949 7.3042 36.8223L8.79248 37.0078Z" fill="#AA370D"/>
<path d="M26.2045 35.7C27.3165 35.5623 28.5194 36.1822 28.7865 37.4266V37.4276C28.8476 37.7137 28.8993 38.006 28.9438 38.2918L29.06 39.118V39.119C29.2199 40.3662 28.4852 41.6461 27.2582 42.0487L27.0063 42.117C18.7969 43.9156 10.8478 43.3405 3.19475 42.1551C2.27595 42.017 1.36613 41.3362 1.27776 40.2245C1.21392 39.4337 1.26977 38.5676 1.36663 37.8006C1.56452 36.2357 3.12323 35.4837 4.46135 35.7713L4.46233 35.7704C10.7587 37.1017 20.7219 36.3711 26.2045 35.701V35.7ZM26.3891 37.1883H26.3881C20.9083 37.8582 10.7196 38.6265 4.15276 37.2381L4.14885 37.2372C3.45964 37.0877 2.91738 37.495 2.85491 37.9881C2.7761 38.612 2.73193 39.2674 2.75725 39.8563L2.77288 40.1043V40.1053C2.79245 40.3527 3.00521 40.6107 3.41741 40.6727H3.42131C11.001 41.8469 18.7392 42.3923 26.686 40.6512H26.6869C27.2361 40.5312 27.6521 39.9395 27.5717 39.3104C27.5215 38.9224 27.4663 38.5193 27.3959 38.1278L27.3197 37.7411C27.2475 37.4059 26.8908 37.1262 26.3891 37.1883Z" fill="#1A1A1A"/>
</svg>
