<svg width="48" height="55" viewBox="0 0 48 55" fill="none" xmlns="http://www.w3.org/2000/svg">
<path d="M31.5 41C34.3 40.6 35 37.5 35 36C35 38.4 37.472 40 38.707 40.5C36.073 40.9 35.805 43.667 36 45C35.727 43.135 33.167 41.5 31.5 41Z" fill="#FFE8A3"/>
<path d="M34.2501 36C34.2501 35.5858 34.5859 35.25 35.0001 35.25C35.4143 35.25 35.7501 35.5858 35.7501 36C35.7501 36.927 36.2262 37.7466 36.9171 38.4287C37.6083 39.111 38.4474 39.5856 38.9884 39.8047C39.3015 39.9315 39.4917 40.2524 39.4523 40.5879C39.4127 40.9232 39.1533 41.1905 38.8195 41.2412C37.8096 41.3946 37.2775 41.9737 36.9865 42.6846C36.7173 43.3424 36.6679 44.1001 36.716 44.6631L36.7423 44.8916L36.7492 44.9678C36.766 45.3476 36.4928 45.686 36.1085 45.7422C35.6988 45.802 35.3179 45.5182 35.2579 45.1084C35.1627 44.4586 34.6354 43.7371 33.8048 43.0742C32.9946 42.4276 32.0228 41.9403 31.2843 41.7188C30.9473 41.6176 30.726 41.2952 30.7521 40.9443C30.7784 40.5934 31.0453 40.3078 31.3937 40.2578C32.4897 40.1012 33.1868 39.4295 33.6339 38.5674C34.0915 37.6849 34.2501 36.6592 34.2501 36ZM35.2042 38.7373C35.1328 38.9123 35.0546 39.0869 34.966 39.2578C34.6195 39.9259 34.1232 40.5641 33.4415 41.0342C33.8876 41.2843 34.3315 41.576 34.7404 41.9023C34.9832 42.0962 35.2233 42.3087 35.4484 42.5391C35.4917 42.3971 35.5416 42.2558 35.5988 42.1162C35.8682 41.458 36.304 40.8368 36.9542 40.3887C36.586 40.1361 36.2107 39.839 35.8634 39.4961C35.6322 39.2678 35.4084 39.0142 35.2042 38.7373Z" fill="#FFC21A"/>
<path d="M39.5 35.5C41.5 34.5 41.667 32.333 41.5 31C41.9 33.4 43.667 35 44.5 35.5C43 36.5 42.714 37.5 42.322 38.5C41.5 37 40.381 36.167 39.5 35.5Z" fill="#FFE8A3"/>
<path d="M41.3919 30.2579C41.7959 30.199 42.1734 30.4743 42.2405 30.8771C42.5934 32.994 44.175 34.4308 44.886 34.8576C45.1064 34.9899 45.2442 35.2256 45.2503 35.4826C45.2563 35.7395 45.1301 35.9816 44.9163 36.1242C44.2514 36.5674 43.8824 36.9905 43.634 37.3937C43.3713 37.8204 43.2321 38.2343 43.0208 38.7736C42.9145 39.0446 42.6608 39.2295 42.3704 39.2482C42.0798 39.2668 41.8042 39.1158 41.6643 38.8605L42.3225 38.5001L42.3215 38.4992L41.6643 38.8605C40.9272 37.5155 39.9293 36.7657 39.0471 36.0978C38.8406 35.9412 38.7293 35.6889 38.7532 35.4308C38.7771 35.1727 38.9334 34.9452 39.1653 34.8292C40.7117 34.0558 40.9137 32.3511 40.7561 31.0929C40.7056 30.688 40.988 30.3169 41.3919 30.2579ZM41.9026 33.9445C41.6685 34.5217 41.3091 35.0765 40.7737 35.5441C41.2278 35.9184 41.7141 36.3677 42.1721 36.9357C42.2292 36.8264 42.2904 36.7159 42.3577 36.6066C42.5875 36.2335 42.8779 35.8674 43.2678 35.5099C42.8233 35.1177 42.336 34.5911 41.9026 33.9445Z" fill="#FFC21A"/>
<path d="M33.5 29.5C35.283 28.7 35.757 26.833 35.771 26C36.171 27.6 37.271 28.667 37.771 29C36.571 29.8 36.271 31.333 36.271 32C35.871 30.8 34.257 29.833 33.5 29.5Z" fill="#FFE8A3"/>
<path d="M35.5596 32.2373C35.4287 31.8449 35.0627 31.4154 34.5547 31.0137C34.0623 30.6244 33.5254 30.3305 33.1982 30.1866C32.927 30.0672 32.7512 29.7993 32.75 29.503C32.7489 29.2065 32.9229 28.9368 33.1934 28.8155C34.6021 28.1831 35.01 26.671 35.0215 25.9873L35.7705 26H35.7715L35.0215 25.9873C35.0279 25.6111 35.3117 25.2978 35.6856 25.2549C36.0595 25.2121 36.4077 25.4533 36.499 25.8184C36.8446 27.2002 37.8072 28.1233 38.1865 28.376L37.7705 29L38.1875 29.6241C37.7502 29.9156 37.4547 30.3559 37.2676 30.8272C37.0791 31.3021 37.0215 31.7577 37.0215 32C37.0215 32.3677 36.7545 32.6812 36.3916 32.7403C36.0286 32.7992 35.6759 32.5862 35.5596 32.2373ZM35.9385 28.1534C35.7016 28.606 35.3787 29.0557 34.9434 29.4463C35.123 29.5652 35.3058 29.6957 35.4844 29.8369C35.6236 29.947 35.7658 30.0675 35.9053 30.1983C36.0707 29.801 36.306 29.3846 36.6357 29.0088C36.407 28.7738 36.1665 28.4872 35.9385 28.1534ZM38.1865 28.376C38.3953 28.515 38.5214 28.7492 38.5215 29C38.5215 29.2507 38.396 29.4849 38.1875 29.6241L37.7715 29L38.1865 28.376Z" fill="#FFC21A"/>
</svg>
