<svg width="48" height="55" viewBox="0 0 48 55" fill="none" xmlns="http://www.w3.org/2000/svg">
<path d="M24.9862 42.75C27.065 42.75 28.7502 41.065 28.7502 38.986C28.7502 38.224 28.7492 37.562 28.4722 36.307C28.202 35.083 27.6693 33.291 26.6264 30.236C26.091 28.668 23.8807 28.665 23.3434 30.234C22.3017 33.277 21.7696 35.07 21.4998 36.298C21.2233 37.556 21.2222 38.225 21.2222 38.986C21.2222 41.065 22.9074 42.75 24.9862 42.75Z" fill="#007BE5"/>
<path d="M20.4722 38.9863C20.4722 38.1996 20.4741 37.4695 20.7671 36.1367C21.0466 34.8645 21.5913 33.0378 22.6343 29.9912C23.4036 27.7446 26.5703 27.7503 27.3364 29.9931L25.9165 30.4785C25.6117 29.5858 24.3587 29.5857 24.0532 30.4765C23.0128 33.5157 22.492 35.2752 22.2319 36.4589C21.9719 37.642 21.9722 38.251 21.9722 38.9863C21.9724 40.6508 23.3215 41.9998 24.9858 42C26.6503 42 28.0003 40.6509 28.0005 38.9863C28.0005 38.2503 28.0002 37.6486 27.7397 36.4687C27.4792 35.2885 26.9582 33.5301 25.9165 30.4785L27.3364 29.9931C28.3803 33.0511 28.9248 34.8778 29.2046 36.1455C29.4981 37.4754 29.5005 38.1984 29.5005 38.9863C29.5003 41.4794 27.4787 43.5 24.9858 43.5C22.4931 43.4998 20.4724 41.4792 20.4722 38.9863Z" fill="#1A1A1A"/>
<path fill-rule="evenodd" clip-rule="evenodd" d="M26.7994 34.2275C27.6398 37.261 27.6095 38.9739 27.3111 39.8369C26.7994 41.3179 23.8248 41.9836 23.8248 40.8076C23.8253 39.7834 25.704 40.7156 26.3248 39.708C27.0687 38.5011 26.8908 37.3122 26.7994 34.2275ZM24.5103 30.6182C24.8213 30.723 24.0227 36.6386 23.1773 36.5127C22.6595 36.4357 24.1438 30.6182 24.5103 30.6182Z" fill="#BDE3FF"/>
</svg>
