<svg width="48" height="55" viewBox="0 0 48 55" fill="none" xmlns="http://www.w3.org/2000/svg">
<path d="M33.2503 11.5C34.2263 11.5 35.1053 11.94 35.7243 12.643C36.1123 13.085 36.7592 13.296 37.3382 13.196C37.5162 13.165 37.6993 13.148 37.8863 13.148C39.7583 13.149 41.2753 14.767 41.2763 16.764C41.2763 17.185 41.2072 17.59 41.0832 17.966C40.9872 18.255 40.9872 18.569 41.0832 18.858C41.2072 19.234 41.2763 19.639 41.2763 20.061C41.2763 22.057 39.7583 23.676 37.8863 23.676C37.3403 23.676 36.8243 23.538 36.3673 23.293C35.8803 23.033 35.2553 23.033 34.7683 23.293C34.3123 23.538 33.7963 23.676 33.2503 23.676C32.7923 23.676 32.3563 23.579 31.9583 23.403C31.5553 23.225 31.0823 23.225 30.6803 23.403C30.5703 23.451 30.4583 23.494 30.3433 23.53C30.1713 23.584 30.0103 23.668 29.8703 23.78C29.3043 24.232 28.6033 24.5 27.8423 24.5C25.9703 24.5 24.4522 22.882 24.4512 20.885C24.4512 20.725 24.3783 20.573 24.2533 20.473C23.4353 19.813 22.9062 18.766 22.9062 17.588C22.9073 15.894 23.9993 14.472 25.4733 14.08C25.8823 13.971 26.2433 13.697 26.4433 13.324C27.0263 12.235 28.1263 11.5 29.3873 11.5C29.8453 11.5 30.2813 11.597 30.6803 11.772C31.0823 11.95 31.5553 11.95 31.9583 11.773C32.3563 11.597 32.7923 11.5 33.2503 11.5Z" fill="white"/>
<path d="M33.2503 12.25C33.9933 12.25 34.6723 12.583 35.1603 13.138L36.2873 12.148C35.5383 11.296 34.4593 10.75 33.2503 10.75V12.25ZM37.4663 13.934C37.6033 13.911 37.7433 13.898 37.8863 13.898V12.398C37.6563 12.398 37.4303 12.418 37.2093 12.457L37.4663 13.934ZM37.8863 13.898C39.2993 13.899 40.5253 15.135 40.5263 16.764H42.0263C42.0253 14.399 40.2173 12.399 37.8863 12.398V13.898ZM40.5263 16.764C40.5263 17.104 40.4713 17.429 40.3713 17.73L41.7952 18.202C41.9443 17.751 42.0263 17.267 42.0263 16.764H40.5263ZM40.3713 19.094C40.4713 19.395 40.5263 19.72 40.5263 20.061H42.0263C42.0263 19.558 41.9443 19.073 41.7952 18.622L40.3713 19.094ZM40.5263 20.061C40.5263 21.689 39.2993 22.926 37.8863 22.926V24.426C40.2173 24.425 42.0253 22.425 42.0263 20.061H40.5263ZM37.8863 22.926C37.4683 22.926 37.0732 22.821 36.7212 22.632L36.0133 23.955C36.5753 24.255 37.2123 24.426 37.8863 24.426V22.926ZM34.4143 22.632C34.0633 22.821 33.6683 22.926 33.2503 22.926V24.426C33.9243 24.426 34.5613 24.255 35.1233 23.955L34.4143 22.632ZM33.2503 22.926C32.9003 22.926 32.5663 22.852 32.2613 22.717L31.6553 24.089C32.1463 24.306 32.6853 24.426 33.2503 24.426V22.926ZM30.3773 22.717C30.2923 22.754 30.2062 22.787 30.1182 22.814L30.5673 24.246C30.7093 24.201 30.8483 24.149 30.9833 24.089L30.3773 22.717ZM29.4023 23.194C28.9613 23.547 28.4223 23.75 27.8423 23.75V25.25C28.7843 25.25 29.6482 24.917 30.3382 24.366L29.4023 23.194ZM27.8423 23.75C26.4293 23.75 25.2022 22.513 25.2012 20.885H23.7012C23.7022 23.25 25.5113 25.25 27.8423 25.25V23.75ZM24.7243 19.889C24.0833 19.372 23.6562 18.54 23.6562 17.588H22.1562C22.1562 18.992 22.7872 20.253 23.7832 21.056L24.7243 19.889ZM23.6562 17.588C23.6573 16.212 24.5413 15.104 25.6663 14.804L25.2803 13.355C23.4573 13.84 22.1573 15.575 22.1562 17.588H23.6562ZM27.1042 13.678C27.5712 12.807 28.4313 12.25 29.3873 12.25V10.75C27.8213 10.75 26.4823 11.663 25.7812 12.97L27.1042 13.678ZM29.3873 12.25C29.7383 12.25 30.0713 12.324 30.3773 12.459L30.9823 11.086C30.4913 10.87 29.9523 10.75 29.3873 10.75V12.25ZM32.2602 12.459C32.5662 12.324 32.9003 12.25 33.2503 12.25V10.75C32.6853 10.75 32.1463 10.87 31.6553 11.086L32.2602 12.459ZM30.3773 12.459C30.9733 12.721 31.6652 12.721 32.2602 12.459L31.6553 11.086C31.4453 11.179 31.1923 11.179 30.9823 11.086L30.3773 12.459ZM25.2012 20.885C25.2012 20.495 25.0233 20.13 24.7243 19.889L23.7832 21.056C23.7332 21.016 23.7012 20.954 23.7012 20.885H25.2012ZM30.1182 22.814C29.8612 22.895 29.6173 23.022 29.4023 23.194L30.3382 24.366C30.4042 24.314 30.4813 24.272 30.5673 24.246L30.1182 22.814ZM36.7212 22.632C36.0132 22.253 35.1223 22.253 34.4143 22.632L35.1233 23.955C35.3883 23.812 35.7473 23.812 36.0133 23.955L36.7212 22.632ZM32.2613 22.717C31.6653 22.454 30.9723 22.454 30.3773 22.717L30.9833 24.089C31.1923 23.996 31.4453 23.996 31.6553 24.089L32.2613 22.717ZM25.6663 14.804C26.2643 14.645 26.8002 14.245 27.1042 13.678L25.7812 12.97C25.6853 13.15 25.5013 13.296 25.2803 13.355L25.6663 14.804ZM40.3713 17.73C40.2243 18.172 40.2243 18.652 40.3713 19.094L41.7952 18.622C41.7502 18.486 41.7502 18.338 41.7952 18.202L40.3713 17.73ZM35.1603 13.138C35.7313 13.787 36.6453 14.077 37.4663 13.934L37.2093 12.457C36.8733 12.515 36.4933 12.382 36.2873 12.148L35.1603 13.138Z" fill="#1A1A1A"/>
<path d="M22.0093 26.5181C22.8428 26.5181 23.5186 25.8423 23.5186 25.0088C23.5186 24.1752 22.8428 23.4995 22.0093 23.4995C21.1757 23.4995 20.5 24.1752 20.5 25.0088C20.5 25.8423 21.1757 26.5181 22.0093 26.5181Z" fill="white"/>
<path d="M22.7686 25.0093C22.7686 24.5901 22.4289 24.2498 22.0098 24.2495C21.5904 24.2495 21.25 24.5899 21.25 25.0093C21.2503 25.4284 21.5906 25.7681 22.0098 25.7681C22.4287 25.7678 22.7683 25.4282 22.7686 25.0093ZM24.2686 25.0093C24.2683 26.2567 23.2571 27.2678 22.0098 27.2681C20.7622 27.2681 19.7503 26.2568 19.75 25.0093C19.75 23.7615 20.762 22.7495 22.0098 22.7495C23.2573 22.7498 24.2686 23.7617 24.2686 25.0093Z" fill="#1A1A1A"/>
<path d="M18.5093 29.5181C19.0667 29.5181 19.5186 29.0662 19.5186 28.5088C19.5186 27.9514 19.0667 27.4995 18.5093 27.4995C17.9519 27.4995 17.5 27.9514 17.5 28.5088C17.5 29.0662 17.9519 29.5181 18.5093 29.5181Z" fill="white"/>
<path d="M18.7686 28.5093C18.7686 28.3662 18.6527 28.2498 18.5098 28.2495C18.3666 28.2495 18.25 28.3661 18.25 28.5093C18.2503 28.6522 18.3667 28.7681 18.5098 28.7681C18.6526 28.7678 18.7683 28.6521 18.7686 28.5093ZM20.2686 28.5093C20.2683 29.4805 19.481 30.2678 18.5098 30.2681C17.5383 30.2681 16.7503 29.4807 16.75 28.5093C16.75 27.5376 17.5381 26.7495 18.5098 26.7495C19.4812 26.7498 20.2686 27.5378 20.2686 28.5093Z" fill="#1A1A1A"/>
<path d="M35.9985 18.9631C35.7705 18.9631 35.5585 18.8931 35.3605 18.7541C35.1625 18.6141 35.0635 18.3871 35.0635 18.0721C35.0635 17.8301 35.1255 17.6351 35.2505 17.4891C35.3745 17.3351 35.5175 17.2211 35.6795 17.1481C35.8475 17.0741 35.9905 17.0381 36.1085 17.0381C36.2325 17.0381 36.3725 17.067 36.5265 17.126C36.6875 17.177 36.8265 17.276 36.9445 17.423C37.0615 17.562 37.1205 17.7641 37.1205 18.0281C37.1205 18.2841 37.0105 18.504 36.7905 18.688C36.5775 18.871 36.3135 18.9631 35.9985 18.9631Z" fill="#1A1A1A"/>
<path d="M31.9985 18.9631C31.7705 18.9631 31.5585 18.8931 31.3605 18.7541C31.1625 18.6141 31.0635 18.3871 31.0635 18.0721C31.0635 17.8301 31.1255 17.6351 31.2505 17.4891C31.3745 17.3351 31.5175 17.2211 31.6795 17.1481C31.8475 17.0741 31.9905 17.0381 32.1085 17.0381C32.2325 17.0381 32.3725 17.067 32.5265 17.126C32.6875 17.177 32.8265 17.276 32.9445 17.423C33.0615 17.562 33.1205 17.7641 33.1205 18.0281C33.1205 18.2841 33.0105 18.504 32.7905 18.688C32.5775 18.871 32.3135 18.9631 31.9985 18.9631Z" fill="#1A1A1A"/>
<path d="M27.9985 18.9631C27.7705 18.9631 27.5585 18.8931 27.3605 18.7541C27.1625 18.6141 27.0635 18.3871 27.0635 18.0721C27.0635 17.8301 27.1255 17.6351 27.2505 17.4891C27.3745 17.3351 27.5175 17.2211 27.6795 17.1481C27.8475 17.0741 27.9905 17.0381 28.1085 17.0381C28.2325 17.0381 28.3725 17.067 28.5265 17.126C28.6875 17.177 28.8265 17.276 28.9445 17.423C29.0615 17.562 29.1205 17.7641 29.1205 18.0281C29.1205 18.2841 29.0105 18.504 28.7905 18.688C28.5775 18.871 28.3135 18.9631 27.9985 18.9631Z" fill="#1A1A1A"/>
</svg>
