<svg width="48" height="55" viewBox="0 0 48 55" fill="none" xmlns="http://www.w3.org/2000/svg">
<path d="M1.91016 38.72L2.34445 32.677L9.69685 33.153L11.5039 16.5L28.4719 18.405L25.4539 34.106H32.3209L31.5419 40.289L1.91016 38.72Z" fill="#2C2C2C"/>
<path d="M10.316 30.5L10 33.357L25.271 34.31L25.837 31.452L10.316 30.5Z" fill="#DC3412"/>
<path d="M32.6583 40.3279C32.5892 40.6959 32.2588 40.9571 31.8849 40.9393L31.921 40.1902L32.6583 40.3279ZM11.8448 15.7547L28.8126 17.66L28.8897 17.6727C29.0665 17.7114 29.2247 17.8127 29.3331 17.9598C29.457 18.1279 29.5051 18.3405 29.4659 18.5457L26.6446 33.3162L33.0577 33.5164C33.2764 33.5233 33.4811 33.6252 33.6183 33.7957C33.7555 33.9664 33.812 34.1889 33.7716 34.4041L32.6583 40.3279L31.921 40.1893L31.8849 40.9393L1.96397 39.5086C1.75596 39.4986 1.56122 39.4031 1.42686 39.244C1.2925 39.0848 1.23092 38.8765 1.25596 38.6697L2.03721 32.241L2.78135 32.3318V32.3309L2.03721 32.241C2.08048 31.8859 2.36595 31.6179 2.70908 31.5848L2.8585 31.5858L9.46201 32.2645L11.0147 16.4266L11.044 16.2801C11.0875 16.1384 11.1723 16.0115 11.2892 15.9168C11.4452 15.7905 11.6454 15.7323 11.8448 15.7547ZM10.8819 33.1619C10.8625 33.3605 10.764 33.5435 10.6095 33.6697C10.4936 33.7644 10.353 33.8218 10.2062 33.8358L10.0587 33.8348L3.43662 33.1531L2.84092 38.0486L31.3038 39.409L32.1349 34.9881L25.7208 34.7899C25.5015 34.783 25.2965 34.6798 25.1593 34.5086C25.0221 34.3374 24.9658 34.1148 25.0069 33.8992L27.8399 19.0594L12.4337 17.3289L10.8819 33.1619Z" fill="#1A1A1A"/>
</svg>
