<svg width="48" height="55" viewBox="0 0 48 55" fill="none" xmlns="http://www.w3.org/2000/svg">
<path d="M2.1195 34.4496C2.38303 31.6496 8.83608 29.9696 16.5326 30.6896C24.2292 31.4196 30.2552 34.2796 29.9916 37.0796C29.7278 39.8796 23.2748 41.5596 15.5785 40.8296C10.4422 40.3496 6.05112 38.9195 3.77575 37.1795L4.70153 35.9396L2.52282 35.8896C2.21838 35.4196 2.07419 34.9396 2.1195 34.4496Z" fill="#383838"/>
<path d="M2.11898 34.4489C2.37478 31.7366 8.43948 30.0751 15.8153 30.6286L16.533 30.6891C24.229 31.4191 30.2547 34.279 29.992 37.0788L28.4979 36.9391C28.5074 36.8289 28.4827 36.5393 28.0018 36.0397C27.5247 35.5397 26.7302 34.9996 25.6043 34.4596C23.3643 33.3997 20.1131 32.5391 16.3924 32.1891C12.6717 31.8391 9.31664 32.0799 6.9178 32.6999C5.71203 33.0199 4.8285 33.4092 4.26741 33.8092C3.90448 34.0656 3.74133 34.2727 3.66878 34.4147L4.73128 34.4391L5.63753 34.4596L6.45589 36.0895L5.94222 36.779C8.13698 37.9487 11.6094 38.9543 15.7196 39.3395C19.4402 39.6895 22.7953 39.4497 25.1942 38.8297C26.3999 38.5097 27.2825 38.1194 27.8436 37.7194C28.4098 37.3194 28.4884 37.0391 28.4979 36.9391L29.992 37.0788C29.7359 39.791 23.672 41.4527 16.2967 40.8903L15.5789 40.8297C10.4428 40.3498 6.05163 38.9193 3.7762 37.1793L4.70198 35.9391L2.52327 35.8893C2.21883 35.4193 2.07367 34.9389 2.11898 34.4489Z" fill="#1A1A1A"/>
<path d="M24.3618 36.7798C17.2227 38.0798 10.4355 36.1697 7.9181 34.8497C7.55774 34.6597 7.47814 34.1998 7.70871 33.8698L11.8682 27.8097L16.3776 21.2498C16.4202 21.1798 16.4763 21.1297 16.5416 21.0997L22.4183 17.7398C22.6721 17.5898 22.9957 17.6897 23.1194 17.9597L25.6424 23.3598L22.3543 21.6198C22.1415 21.5098 21.8787 21.5698 21.7291 21.7598L19.899 24.0597C19.8179 24.1597 19.7799 24.2897 19.7932 24.4197L20.2997 29.3898C20.3088 29.4798 20.3415 29.5598 20.3944 29.6298L24.8044 35.6298C25.1243 36.0598 24.8927 36.6798 24.3618 36.7798Z" fill="#383838"/>
<path d="M22.5154 33.2394C17.7589 34.1194 12.1412 32.6594 9.77528 31.7694C9.69448 31.7294 9.60543 31.7593 9.55055 31.8293L7.5247 34.2794C7.44435 34.3794 7.4734 34.5293 7.58486 34.5893L10.6163 36.2093C10.6337 36.2193 10.6524 36.2194 10.6717 36.2294L17.6076 37.5893C17.6307 37.5993 17.6544 37.5994 17.6777 37.5994L24.5905 36.4994C24.7365 36.4794 24.8078 36.3093 24.7229 36.1893L22.7169 33.3293C22.6717 33.2593 22.593 33.2294 22.5154 33.2394Z" fill="#7C2BDA"/>
<path d="M22.0368 17.0948C22.6711 16.7199 23.4873 16.9707 23.7985 17.6436L23.7995 17.6426L26.322 23.042C26.4583 23.3338 26.3929 23.6801 26.1599 23.9024C25.956 24.0967 25.6638 24.1584 25.403 24.0704L25.2936 24.0235L22.2175 22.4034L20.7556 24.4727L20.5349 29.2227L25.3112 35.1377L25.4274 35.3028C25.9438 36.1508 25.5023 37.3326 24.4411 37.5274L24.2468 36.4649L24.3054 36.7901L24.4411 37.5274L24.4382 37.5284C17.3717 38.799 10.6501 37.0233 7.82978 35.6456L7.56904 35.5137L7.56806 35.5127L7.91864 34.8497L8.07099 34.5596L7.56806 35.5127C6.75873 35.0856 6.64145 34.095 7.0915 33.4454H7.09052L15.7595 20.8252L15.7604 20.8262C15.8623 20.6711 16.0004 20.5412 16.1706 20.4502L16.1696 20.4483L22.0368 17.0948ZM16.9626 21.7227L8.36591 34.2354C10.8134 35.4795 17.2944 37.274 24.1267 36.0586L19.3083 30.0909C19.3045 30.0862 19.3012 30.081 19.2976 30.0762L19.8698 29.6368L19.8913 29.6202L19.2976 30.0762C19.1198 29.8448 19.0175 29.5531 19.0319 29.2452L19.2614 24.335C19.2726 24.0904 19.3527 23.866 19.4841 23.6748L19.489 23.667L21.1218 21.3565C21.4935 20.8259 22.1885 20.6862 22.7321 20.9795H22.7311L24.0202 21.6582L22.5554 18.5245L16.9626 21.7227ZM24.6706 35.6563L24.1735 36.0586L24.7282 35.6094L24.6706 35.6563ZM7.70868 33.8702L8.24091 34.2344L7.65986 33.836L7.70868 33.8702ZM22.3757 21.6397L22.1472 22.0743H22.1462H22.1472L22.404 21.585L22.3757 21.6397ZM21.7614 21.8086L22.1423 22.0713L21.7224 21.7813L21.7614 21.8086Z" fill="#1A1A1A"/>
</svg>
