<svg width="48" height="55" viewBox="0 0 48 55" fill="none" xmlns="http://www.w3.org/2000/svg">
<path d="M25.8478 38.6998C13.9878 40.0498 7.01379 37.4899 5.00879 36.0399L17.8178 16.6299L25.8478 38.6998Z" fill="#2F15AC"/>
<path d="M22.6193 36.5356C22.6061 36.4679 22.5404 36.4237 22.4727 36.4369C22.4049 36.4501 22.3607 36.5158 22.3739 36.5835C22.3808 36.6188 22.3871 36.6562 22.3925 36.6957C22.3725 36.6673 22.3541 36.6396 22.3372 36.6128C22.3002 36.5545 22.223 36.5372 22.1647 36.5741C22.1064 36.611 22.089 36.6883 22.126 36.7466C22.1499 36.7844 22.1764 36.8239 22.2059 36.8646C22.179 36.8594 22.1533 36.8538 22.1286 36.8479C22.0614 36.8319 21.994 36.8734 21.978 36.9406C21.962 37.0077 22.0035 37.0751 22.0707 37.0911C22.1085 37.1001 22.1484 37.1085 22.1903 37.1159C22.1717 37.1293 22.1524 37.1427 22.1327 37.1561C22.0755 37.1947 22.0604 37.2724 22.0991 37.3296C22.1377 37.3868 22.2154 37.4019 22.2726 37.3632C22.3119 37.3367 22.3494 37.3099 22.385 37.2831C22.3804 37.3133 22.375 37.3442 22.3689 37.3757C22.3557 37.4435 22.4 37.5091 22.4678 37.5223C22.5355 37.5354 22.6011 37.4912 22.6143 37.4234C22.6216 37.3858 22.6279 37.3489 22.6334 37.3128C22.6657 37.3388 22.6995 37.3648 22.7349 37.3907C22.7907 37.4314 22.8689 37.4191 22.9096 37.3633C22.9503 37.3076 22.938 37.2294 22.8822 37.1887C22.8573 37.1705 22.8332 37.1522 22.8101 37.134C22.8591 37.1286 22.9097 37.1216 22.9616 37.1128C23.0297 37.1012 23.0755 37.0366 23.0639 36.9685C23.0523 36.9005 22.9877 36.8547 22.9196 36.8663C22.8784 36.8733 22.8382 36.8791 22.7991 36.8836C22.8387 36.8341 22.8736 36.7857 22.9047 36.739C22.9429 36.6816 22.9274 36.604 22.87 36.5657C22.8125 36.5274 22.7349 36.5429 22.6966 36.6004C22.6799 36.6255 22.6618 36.6513 22.6423 36.6776C22.6358 36.6274 22.628 36.5801 22.6193 36.5356Z" fill="#FFC21A"/>
<path d="M21.4538 28.8862C21.4405 28.8185 21.3749 28.7743 21.3071 28.7875C21.2394 28.8007 21.1952 28.8664 21.2084 28.9341C21.2153 28.9694 21.2216 29.0068 21.227 29.0463C21.207 29.0178 21.1886 28.9901 21.1717 28.9634C21.1347 28.9051 21.0575 28.8877 20.9992 28.9247C20.9409 28.9616 20.9235 29.0388 20.9605 29.0972C20.9844 29.135 21.0109 29.1745 21.0403 29.2151C21.0135 29.21 20.9878 29.2044 20.9631 29.1985C20.8959 29.1825 20.8285 29.224 20.8125 29.2911C20.7965 29.3583 20.838 29.4257 20.9052 29.4417C20.943 29.4507 20.9829 29.4591 21.0248 29.4665C21.0061 29.4799 20.9869 29.4933 20.9671 29.5067C20.9099 29.5453 20.8949 29.623 20.9335 29.6802C20.9722 29.7374 21.0499 29.7525 21.1071 29.7138C21.1464 29.6873 21.1838 29.6605 21.2195 29.6337C21.2148 29.6639 21.2095 29.6948 21.2034 29.7263C21.1902 29.7941 21.2345 29.8597 21.3022 29.8729C21.37 29.886 21.4356 29.8418 21.4488 29.774C21.4561 29.7364 21.4624 29.6995 21.4678 29.6634C21.5001 29.6894 21.534 29.7154 21.5694 29.7413C21.6252 29.7819 21.7034 29.7697 21.7441 29.7139C21.7847 29.6581 21.7725 29.5799 21.7167 29.5393C21.6918 29.5211 21.6677 29.5028 21.6445 29.4845C21.6936 29.4792 21.7441 29.4722 21.7961 29.4633C21.8642 29.4517 21.9099 29.3872 21.8983 29.3191C21.8867 29.2511 21.8222 29.2053 21.7541 29.2169C21.7129 29.2239 21.6727 29.2296 21.6336 29.2342C21.6731 29.1846 21.708 29.1362 21.7391 29.0896C21.7774 29.0322 21.7619 28.9546 21.7045 28.9163C21.647 28.878 21.5694 28.8935 21.5311 28.9509C21.5144 28.9761 21.4963 29.0018 21.4767 29.0282C21.4703 28.978 21.4624 28.9307 21.4538 28.8862Z" fill="#FFC21A"/>
<path d="M16.3034 26.771C16.2901 26.7032 16.2245 26.659 16.1567 26.6723C16.089 26.6855 16.0448 26.7511 16.058 26.8189C16.0649 26.8541 16.0712 26.8915 16.0766 26.9311C16.0566 26.9026 16.0382 26.8749 16.0213 26.8482C15.9843 26.7899 15.9071 26.7725 15.8488 26.8095C15.7905 26.8464 15.7731 26.9236 15.8101 26.9819C15.834 27.0198 15.8605 27.0592 15.8899 27.0999C15.8631 27.0947 15.8374 27.0891 15.8127 27.0833C15.7455 27.0673 15.6781 27.1088 15.6621 27.1759C15.6461 27.2431 15.6876 27.3105 15.7548 27.3265C15.7926 27.3355 15.8325 27.3439 15.8744 27.3513C15.8557 27.3647 15.8365 27.3781 15.8167 27.3914C15.7595 27.4301 15.7445 27.5078 15.7832 27.565C15.8218 27.6222 15.8995 27.6372 15.9567 27.5986C15.996 27.572 16.0334 27.5453 16.0691 27.5184C16.0644 27.5487 16.0591 27.5796 16.053 27.6111C16.0398 27.6788 16.0841 27.7445 16.1518 27.7576C16.2196 27.7708 16.2852 27.7265 16.2984 27.6588C16.3057 27.6211 16.312 27.5842 16.3174 27.5481C16.3497 27.5742 16.3836 27.6002 16.419 27.626C16.4748 27.6667 16.553 27.6545 16.5937 27.5987C16.6343 27.5429 16.6221 27.4647 16.5663 27.424C16.5414 27.4059 16.5173 27.3876 16.4942 27.3693C16.5432 27.364 16.5937 27.357 16.6457 27.3481C16.7138 27.3365 16.7595 27.2719 16.7479 27.2039C16.7363 27.1358 16.6718 27.0901 16.6037 27.1017C16.5625 27.1087 16.5223 27.1144 16.4832 27.119C16.5227 27.0694 16.5577 27.021 16.5887 26.9744C16.627 26.9169 16.6115 26.8393 16.5541 26.801C16.4966 26.7627 16.419 26.7783 16.3807 26.8357C16.364 26.8608 16.3459 26.8866 16.3264 26.9129C16.3199 26.8627 16.312 26.8154 16.3034 26.771Z" fill="#FFC21A"/>
<path d="M19.296 25.5757C19.2828 25.5079 19.2172 25.4637 19.1494 25.4769C19.0817 25.4902 19.0375 25.5558 19.0507 25.6236C19.0576 25.6588 19.0639 25.6962 19.0693 25.7358C19.0492 25.7073 19.0309 25.6796 19.0139 25.6529C18.977 25.5945 18.8998 25.5772 18.8415 25.6141C18.7831 25.6511 18.7658 25.7283 18.8027 25.7866C18.8267 25.8245 18.8532 25.8639 18.8826 25.9046C18.8558 25.8994 18.83 25.8938 18.8053 25.8879C18.7382 25.872 18.6708 25.9134 18.6548 25.9806C18.6388 26.0478 18.6803 26.1152 18.7474 26.1312C18.7853 26.1402 18.8252 26.1485 18.8671 26.156C18.8484 26.1694 18.8292 26.1828 18.8094 26.1961C18.7522 26.2348 18.7372 26.3125 18.7758 26.3697C18.8145 26.4269 18.8922 26.4419 18.9494 26.4033C18.9887 26.3767 19.0261 26.35 19.0618 26.3231C19.0571 26.3534 19.0518 26.3843 19.0457 26.4158C19.0325 26.4835 19.0767 26.5491 19.1445 26.5623C19.2123 26.5755 19.2779 26.5312 19.2911 26.4634C19.2984 26.4258 19.3047 26.3889 19.3101 26.3528C19.3424 26.3789 19.3762 26.4049 19.4117 26.4307C19.4675 26.4714 19.5457 26.4592 19.5863 26.4034C19.627 26.3476 19.6148 26.2694 19.559 26.2287C19.534 26.2105 19.51 26.1923 19.4868 26.174C19.5359 26.1687 19.5864 26.1617 19.6384 26.1528C19.7065 26.1412 19.7522 26.0766 19.7406 26.0086C19.729 25.9405 19.6644 25.8947 19.5964 25.9063C19.5551 25.9134 19.515 25.9191 19.4759 25.9236C19.5154 25.8741 19.5503 25.8257 19.5814 25.7791C19.6197 25.7216 19.6042 25.644 19.5467 25.6057C19.4893 25.5674 19.4117 25.583 19.3734 25.6404C19.3567 25.6655 19.3386 25.6913 19.319 25.7176C19.3126 25.6674 19.3047 25.6201 19.296 25.5757Z" fill="#FFC21A"/>
<path d="M13.5675 24.6958C13.5543 24.628 13.4887 24.5838 13.4209 24.5971C13.3531 24.6103 13.3089 24.6759 13.3222 24.7437C13.329 24.7789 13.3354 24.8163 13.3407 24.8559C13.3207 24.8274 13.3024 24.7997 13.2854 24.773C13.2485 24.7147 13.1713 24.6973 13.1129 24.7343C13.0546 24.7712 13.0373 24.8484 13.0742 24.9067C13.0982 24.9446 13.1247 24.984 13.1541 25.0247C13.1273 25.0195 13.1015 25.0139 13.0768 25.0081C13.0097 24.9921 12.9423 25.0336 12.9263 25.1007C12.9103 25.1679 12.9518 25.2353 13.0189 25.2513C13.0568 25.2603 13.0967 25.2687 13.1386 25.2761C13.1199 25.2895 13.1007 25.3029 13.0809 25.3162C13.0237 25.3549 13.0087 25.4326 13.0473 25.4898C13.086 25.547 13.1637 25.562 13.2209 25.5234C13.2602 25.4968 13.2976 25.4701 13.3332 25.4432C13.3286 25.4735 13.3233 25.5044 13.3171 25.5359C13.304 25.6036 13.3482 25.6693 13.416 25.6824C13.4838 25.6956 13.5494 25.6513 13.5625 25.5836C13.5699 25.5459 13.5762 25.5091 13.5816 25.4729C13.6139 25.499 13.6477 25.525 13.6832 25.5508C13.739 25.5915 13.8171 25.5793 13.8578 25.5235C13.8985 25.4677 13.8862 25.3895 13.8305 25.3488C13.8055 25.3307 13.7815 25.3124 13.7583 25.2941C13.8074 25.2888 13.8579 25.2818 13.9099 25.2729C13.9779 25.2613 14.0237 25.1967 14.0121 25.1287C14.0005 25.0606 13.9359 25.0149 13.8679 25.0265C13.8266 25.0335 13.7865 25.0392 13.7474 25.0438C13.7869 24.9942 13.8218 24.9458 13.8529 24.8992C13.8912 24.8417 13.8757 24.7641 13.8182 24.7258C13.7608 24.6875 13.6832 24.7031 13.6449 24.7605C13.6281 24.7856 13.6101 24.8114 13.5905 24.8378C13.5841 24.7875 13.5762 24.7402 13.5675 24.6958Z" fill="#FFC21A"/>
<path d="M13.3024 28.7007C13.2892 28.6329 13.2235 28.5887 13.1558 28.6019C13.088 28.6152 13.0438 28.6808 13.057 28.7486C13.0639 28.7838 13.0702 28.8212 13.0756 28.8608C13.0556 28.8323 13.0372 28.8046 13.0203 28.7779C12.9834 28.7195 12.9061 28.7022 12.8478 28.7391C12.7895 28.7761 12.7721 28.8533 12.8091 28.9116C12.833 28.9495 12.8595 28.9889 12.889 29.0296C12.8621 29.0244 12.8364 29.0188 12.8117 29.0129C12.7445 28.997 12.6771 29.0384 12.6611 29.1056C12.6452 29.1728 12.6866 29.2402 12.7538 29.2562C12.7916 29.2652 12.8315 29.2735 12.8735 29.281C12.8548 29.2944 12.8355 29.3078 12.8158 29.3211C12.7586 29.3598 12.7435 29.4375 12.7822 29.4947C12.8208 29.5519 12.8985 29.5669 12.9557 29.5283C12.995 29.5017 13.0325 29.475 13.0681 29.4481C13.0635 29.4784 13.0581 29.5093 13.052 29.5408C13.0388 29.6085 13.0831 29.6741 13.1509 29.6873C13.2186 29.7005 13.2842 29.6562 13.2974 29.5884C13.3047 29.5508 13.311 29.5139 13.3165 29.4778C13.3488 29.5039 13.3826 29.5299 13.418 29.5557C13.4738 29.5964 13.552 29.5842 13.5927 29.5284C13.6334 29.4726 13.6211 29.3944 13.5653 29.3537C13.5404 29.3355 13.5164 29.3173 13.4932 29.299C13.5422 29.2937 13.5928 29.2867 13.6448 29.2778C13.7128 29.2662 13.7586 29.2016 13.747 29.1336C13.7354 29.0655 13.6708 29.0197 13.6027 29.0313C13.5615 29.0384 13.5213 29.0441 13.4823 29.0486C13.5218 28.9991 13.5567 28.9507 13.5878 28.9041C13.6261 28.8466 13.6105 28.769 13.5531 28.7307C13.4957 28.6924 13.418 28.708 13.3797 28.7654C13.363 28.7905 13.3449 28.8163 13.3254 28.8426C13.3189 28.7924 13.3111 28.7451 13.3024 28.7007Z" fill="#FFC21A"/>
<path d="M15.5944 30.8311C15.5812 30.7633 15.5155 30.7191 15.4478 30.7323C15.38 30.7455 15.3358 30.8112 15.349 30.879C15.3559 30.9142 15.3622 30.9516 15.3676 30.9911C15.3476 30.9627 15.3292 30.935 15.3123 30.9082C15.2753 30.8499 15.1981 30.8326 15.1398 30.8695C15.0815 30.9064 15.0641 30.9837 15.1011 31.042C15.125 31.0798 15.1515 31.1193 15.181 31.16C15.1541 31.1548 15.1284 31.1492 15.1037 31.1433C15.0365 31.1273 14.9691 31.1688 14.9531 31.236C14.9371 31.3031 14.9786 31.3705 15.0458 31.3865C15.0836 31.3955 15.1235 31.4039 15.1654 31.4113C15.1468 31.4247 15.1275 31.4381 15.1078 31.4515C15.0506 31.4901 15.0355 31.5678 15.0742 31.625C15.1128 31.6823 15.1905 31.6973 15.2477 31.6586C15.287 31.6321 15.3245 31.6053 15.3601 31.5785C15.3555 31.6087 15.3501 31.6396 15.344 31.6711C15.3308 31.7389 15.3751 31.8045 15.4429 31.8177C15.5106 31.8308 15.5762 31.7866 15.5894 31.7188C15.5967 31.6812 15.603 31.6443 15.6085 31.6082C15.6408 31.6343 15.6746 31.6603 15.71 31.6861C15.7658 31.7268 15.844 31.7145 15.8847 31.6587C15.9254 31.603 15.9131 31.5248 15.8573 31.4841C15.8324 31.4659 15.8083 31.4477 15.7852 31.4294C15.8342 31.424 15.8848 31.417 15.9367 31.4082C16.0048 31.3966 16.0506 31.332 16.039 31.2639C16.0274 31.1959 15.9628 31.1501 15.8947 31.1617C15.8535 31.1687 15.8133 31.1745 15.7742 31.179C15.8137 31.1295 15.8487 31.0811 15.8798 31.0344C15.918 30.977 15.9025 30.8994 15.8451 30.8611C15.7876 30.8228 15.71 30.8383 15.6717 30.8958C15.655 30.9209 15.6369 30.9467 15.6174 30.973C15.6109 30.9228 15.6031 30.8755 15.5944 30.8311Z" fill="#FFC21A"/>
<path d="M10.8654 31.271C10.8522 31.2032 10.7865 31.159 10.7187 31.1723C10.651 31.1855 10.6068 31.2511 10.62 31.3189C10.6269 31.3541 10.6332 31.3915 10.6386 31.4311C10.6186 31.4026 10.6002 31.3749 10.5833 31.3482C10.5463 31.2899 10.4691 31.2725 10.4108 31.3095C10.3525 31.3464 10.3351 31.4236 10.3721 31.4819C10.396 31.5198 10.4225 31.5592 10.4519 31.5999C10.4251 31.5947 10.3994 31.5891 10.3747 31.5833C10.3075 31.5673 10.2401 31.6088 10.2241 31.6759C10.2081 31.7431 10.2496 31.8105 10.3168 31.8265C10.3546 31.8355 10.3945 31.8439 10.4364 31.8513C10.4177 31.8647 10.3985 31.8781 10.3788 31.8914C10.3216 31.9301 10.3065 32.0078 10.3452 32.065C10.3838 32.1222 10.4615 32.1372 10.5187 32.0986C10.558 32.072 10.5954 32.0453 10.6311 32.0184C10.6265 32.0487 10.6211 32.0796 10.615 32.1111C10.6018 32.1788 10.6461 32.2445 10.7139 32.2576C10.7816 32.2708 10.8472 32.2265 10.8604 32.1588C10.8677 32.1211 10.874 32.0842 10.8794 32.0481C10.9118 32.0742 10.9456 32.1002 10.981 32.126C11.0368 32.1667 11.115 32.1545 11.1557 32.0987C11.1963 32.0429 11.1841 31.9647 11.1283 31.924C11.1034 31.9059 11.0793 31.8876 11.0562 31.8693C11.1052 31.864 11.1558 31.857 11.2077 31.8481C11.2758 31.8365 11.3216 31.7719 11.31 31.7039C11.2984 31.6358 11.2338 31.5901 11.1657 31.6017C11.1245 31.6087 11.0843 31.6144 11.0452 31.619C11.0847 31.5694 11.1197 31.521 11.1507 31.4744C11.189 31.4169 11.1735 31.3393 11.1161 31.301C11.0586 31.2627 10.981 31.2783 10.9427 31.3357C10.926 31.3608 10.9079 31.3866 10.8884 31.4129C10.8819 31.3627 10.8741 31.3154 10.8654 31.271Z" fill="#FFC21A"/>
<path d="M13.6129 33.686C13.5997 33.6183 13.5341 33.5741 13.4663 33.5873C13.3985 33.6005 13.3543 33.6662 13.3676 33.7339C13.3745 33.7692 13.3808 33.8066 13.3862 33.8461C13.3661 33.8176 13.3478 33.7899 13.3308 33.7632C13.2939 33.7049 13.2167 33.6876 13.1584 33.7245C13.1 33.7614 13.0827 33.8387 13.1196 33.897C13.1436 33.9348 13.1701 33.9743 13.1995 34.0149C13.1727 34.0098 13.1469 34.0042 13.1222 33.9983C13.0551 33.9823 12.9877 34.0238 12.9717 34.0909C12.9557 34.1581 12.9972 34.2255 13.0643 34.2415C13.1022 34.2505 13.1421 34.2589 13.184 34.2663C13.1653 34.2797 13.1461 34.2931 13.1263 34.3065C13.0691 34.3451 13.0541 34.4228 13.0927 34.48C13.1314 34.5372 13.2091 34.5523 13.2663 34.5136C13.3056 34.4871 13.343 34.4603 13.3787 34.4335C13.374 34.4637 13.3687 34.4946 13.3625 34.5261C13.3494 34.5939 13.3936 34.6595 13.4614 34.6727C13.5292 34.6858 13.5948 34.6416 13.608 34.5738C13.6153 34.5362 13.6216 34.4993 13.627 34.4632C13.6593 34.4892 13.6931 34.5152 13.7286 34.5411C13.7844 34.5818 13.8626 34.5695 13.9032 34.5137C13.9439 34.4579 13.9317 34.3798 13.8759 34.3391C13.8509 34.3209 13.8269 34.3026 13.8037 34.2843C13.8528 34.279 13.9033 34.272 13.9553 34.2631C14.0234 34.2515 14.0691 34.187 14.0575 34.1189C14.0459 34.0509 13.9813 34.0051 13.9133 34.0167C13.872 34.0237 13.8319 34.0295 13.7928 34.034C13.8323 33.9844 13.8672 33.936 13.8983 33.8894C13.9366 33.832 13.9211 33.7544 13.8636 33.7161C13.8062 33.6778 13.7286 33.6933 13.6903 33.7507C13.6735 33.7759 13.6555 33.8017 13.6359 33.828C13.6295 33.7778 13.6216 33.7305 13.6129 33.686Z" fill="#FFC21A"/>
<path d="M9.4606 34.981C9.44737 34.9132 9.38172 34.869 9.31396 34.8822C9.24621 34.8955 9.202 34.9611 9.21523 35.0289C9.22211 35.0641 9.22843 35.1015 9.23381 35.141C9.2138 35.1126 9.19543 35.0849 9.17849 35.0581C9.14156 34.9998 9.06433 34.9825 9.00601 35.0194C8.94769 35.0564 8.93035 35.1336 8.96729 35.1919C8.99125 35.2297 9.01773 35.2692 9.04716 35.3099C9.02035 35.3047 8.9946 35.2991 8.9699 35.2932C8.90274 35.2772 8.83534 35.3187 8.81935 35.3859C8.80336 35.453 8.84484 35.5204 8.91199 35.5364C8.94983 35.5454 8.98972 35.5538 9.03166 35.5612C9.01296 35.5746 8.99374 35.588 8.97398 35.6014C8.91677 35.64 8.90173 35.7177 8.94038 35.775C8.97903 35.8322 9.05674 35.8472 9.11394 35.8085C9.15324 35.782 9.19066 35.7552 9.22631 35.7284C9.22167 35.7586 9.21632 35.7895 9.2102 35.821C9.19704 35.8888 9.2413 35.9544 9.30907 35.9676C9.37684 35.9807 9.44245 35.9365 9.45561 35.8687C9.46293 35.8311 9.46925 35.7942 9.47466 35.7581C9.50697 35.7842 9.5408 35.8102 9.57624 35.836C9.63202 35.8767 9.71021 35.8644 9.75089 35.8086C9.79156 35.7529 9.77932 35.6747 9.72353 35.634C9.69859 35.6158 9.67455 35.5976 9.65138 35.5793C9.70044 35.5739 9.75097 35.5669 9.80295 35.5581C9.87101 35.5465 9.91677 35.4819 9.90517 35.4138C9.89357 35.3458 9.829 35.3 9.76095 35.3116C9.71969 35.3187 9.67953 35.3244 9.64046 35.3289C9.67996 35.2794 9.71488 35.231 9.74596 35.1843C9.78426 35.1269 9.76874 35.0493 9.7113 35.011C9.65385 34.9727 9.57625 34.9882 9.53795 35.0457C9.52121 35.0708 9.50314 35.0966 9.48359 35.1229C9.47713 35.0727 9.46927 35.0254 9.4606 34.981Z" fill="#FFC21A"/>
<path d="M16.2003 22.6958C16.1871 22.628 16.1215 22.5838 16.0537 22.5971C15.986 22.6103 15.9417 22.6759 15.955 22.7437C15.9619 22.7789 15.9682 22.8163 15.9736 22.8559C15.9535 22.8274 15.9352 22.7997 15.9182 22.773C15.8813 22.7147 15.8041 22.6973 15.7458 22.7343C15.6874 22.7712 15.6701 22.8484 15.707 22.9067C15.731 22.9446 15.7575 22.984 15.7869 23.0247C15.7601 23.0195 15.7343 23.0139 15.7096 23.0081C15.6425 22.9921 15.5751 23.0336 15.5591 23.1007C15.5431 23.1679 15.5846 23.2353 15.6517 23.2513C15.6896 23.2603 15.7295 23.2687 15.7714 23.2761C15.7527 23.2895 15.7335 23.3029 15.7137 23.3162C15.6565 23.3549 15.6415 23.4326 15.6801 23.4898C15.7188 23.547 15.7965 23.562 15.8537 23.5234C15.893 23.4968 15.9304 23.4701 15.9661 23.4432C15.9614 23.4735 15.9561 23.5044 15.9499 23.5359C15.9368 23.6036 15.981 23.6693 16.0488 23.6824C16.1166 23.6956 16.1822 23.6513 16.1954 23.5836C16.2027 23.5459 16.209 23.5091 16.2144 23.4729C16.2467 23.499 16.2805 23.525 16.316 23.5508C16.3718 23.5915 16.45 23.5793 16.4906 23.5235C16.5313 23.4677 16.5191 23.3895 16.4633 23.3488C16.4383 23.3307 16.4143 23.3124 16.3911 23.2941C16.4402 23.2888 16.4907 23.2818 16.5427 23.2729C16.6108 23.2613 16.6565 23.1967 16.6449 23.1287C16.6333 23.0606 16.5687 23.0149 16.5007 23.0265C16.4594 23.0335 16.4193 23.0392 16.3802 23.0438C16.4197 22.9942 16.4546 22.9458 16.4857 22.8992C16.524 22.8417 16.5085 22.7641 16.451 22.7258C16.3936 22.6875 16.316 22.7031 16.2777 22.7605C16.261 22.7856 16.2429 22.8114 16.2233 22.8378C16.2169 22.7875 16.209 22.7402 16.2003 22.6958Z" fill="#FFC21A"/>
<path d="M18.4606 19.9507C18.4474 19.8829 18.3817 19.8387 18.314 19.8519C18.2462 19.8652 18.202 19.9308 18.2152 19.9986C18.2221 20.0338 18.2284 20.0712 18.2338 20.1108C18.2138 20.0823 18.1954 20.0546 18.1785 20.0279C18.1416 19.9695 18.0643 19.9522 18.006 19.9891C17.9477 20.0261 17.9304 20.1033 17.9673 20.1616C17.9912 20.1995 18.0177 20.2389 18.0472 20.2796C18.0203 20.2744 17.9946 20.2688 17.9699 20.2629C17.9027 20.247 17.8353 20.2884 17.8193 20.3556C17.8034 20.4228 17.8448 20.4902 17.912 20.5062C17.9498 20.5152 17.9897 20.5235 18.0317 20.531C18.013 20.5444 17.9937 20.5578 17.974 20.5711C17.9168 20.6098 17.9017 20.6875 17.9404 20.7447C17.979 20.8019 18.0567 20.8169 18.1139 20.7783C18.1532 20.7517 18.1907 20.725 18.2263 20.6981C18.2217 20.7284 18.2163 20.7593 18.2102 20.7908C18.197 20.8585 18.2413 20.9241 18.3091 20.9373C18.3768 20.9505 18.4424 20.9062 18.4556 20.8384C18.4629 20.8008 18.4692 20.7639 18.4747 20.7278C18.507 20.7539 18.5408 20.7799 18.5762 20.8057C18.632 20.8464 18.7102 20.8342 18.7509 20.7784C18.7916 20.7226 18.7793 20.6444 18.7235 20.6037C18.6986 20.5855 18.6746 20.5673 18.6514 20.549C18.7004 20.5437 18.751 20.5367 18.803 20.5278C18.871 20.5162 18.9168 20.4516 18.9052 20.3836C18.8936 20.3155 18.829 20.2697 18.7609 20.2813C18.7197 20.2884 18.6795 20.2941 18.6405 20.2986C18.68 20.2491 18.7149 20.2007 18.746 20.1541C18.7843 20.0966 18.7687 20.019 18.7113 19.9807C18.6539 19.9424 18.5762 19.958 18.538 20.0154C18.5212 20.0405 18.5031 20.0663 18.4836 20.0926C18.4771 20.0424 18.4693 19.9951 18.4606 19.9507Z" fill="#FFC21A"/>
<path d="M13.5069 36.9201C21.6669 40.0601 22.9299 31.69 18.2199 29.24C18.0719 29.16 17.9099 29.3 17.9489 29.46C18.5509 31.96 18.5169 34.7801 13.5119 36.5501C13.3369 36.6101 13.3339 36.8601 13.5069 36.9201Z" fill="#FFC21A"/>
<path fill-rule="evenodd" clip-rule="evenodd" d="M17.9055 15.885C18.187 15.9182 18.4257 16.1071 18.5226 16.3735L26.5526 38.4434C26.6312 38.6593 26.6065 38.8992 26.4856 39.0946C26.3647 39.2899 26.1609 39.4191 25.9327 39.445C19.9336 40.1279 15.1496 39.8242 11.5944 39.157C8.05913 38.4935 5.69518 37.4619 4.56934 36.6477C4.24382 36.4122 4.1616 35.9621 4.38287 35.6268L17.1919 16.2168C17.348 15.9803 17.6241 15.8519 17.9055 15.885ZM6.05795 35.8119C7.15044 36.4138 9.07978 37.1589 11.8711 37.6828C15.0838 38.2857 19.4005 38.5879 24.8152 38.0553L17.6227 18.2872L6.05795 35.8119Z" fill="#1A1A1A"/>
</svg>
