<svg width="48" height="55" viewBox="0 0 48 55" fill="none" xmlns="http://www.w3.org/2000/svg">
<path d="M4.96309 22.55C12.3021 15.21 22.0761 22.9099 23.6791 27.9099C24.4541 23.6999 35.4531 14.2101 42.9631 23.1201C50.0751 31.5501 41.0241 44.9199 26.2181 50.9699C24.5921 51.6299 22.7641 51.6399 21.1601 50.9199C7.9581 45.0299 -2.27391 29.48 4.96309 22.55Z" fill="#CB9FD2"/>
<path d="M30.4756 19.9171C32.4624 18.9803 34.715 18.4522 36.9961 18.7755C39.2932 19.1011 41.5502 20.2808 43.5361 22.6369L43.8838 23.0675C47.3376 27.5546 46.6669 33.1873 43.4453 38.3351C40.1219 43.6457 34.0206 48.5919 26.502 51.6642L26.0635 50.591L26.5 51.6652C24.697 52.397 22.6553 52.4138 20.8526 51.6046V51.6037C14.1116 48.5956 8.13603 43.1322 4.75392 37.5119C3.06233 34.7007 1.9931 31.8051 1.83595 29.1222C1.67799 26.4247 2.44583 23.9291 4.43263 22.0197C6.3799 20.0722 8.52082 19.0959 10.6709 18.8429C12.8098 18.5913 14.9083 19.0612 16.7842 19.921C18.6595 20.7807 20.3368 22.0413 21.6514 23.4122C22.4454 24.2403 23.1207 25.1238 23.6289 26.0011C24.0717 25.2113 24.6896 24.3958 25.416 23.6203C26.7313 22.2161 28.4887 20.854 30.4756 19.9171ZM26.502 51.6642L26.5 51.6652L26.2178 50.9699L26.502 51.6642ZM36.7852 20.2599C34.8677 19.9882 32.9137 20.4255 31.1153 21.2736C29.3168 22.1216 27.7104 23.3649 26.5108 24.6456C25.2904 25.9485 24.5723 27.2025 24.417 28.046L23.6778 27.9093L22.9649 28.1388C22.6091 27.0294 21.7737 25.7064 20.5694 24.4503C19.3712 23.2007 17.8451 22.0571 16.1592 21.2843C14.4741 20.5119 12.6532 20.1205 10.8457 20.3331C9.04908 20.5446 7.21535 21.3578 5.49318 23.0802C5.48935 23.0841 5.48538 23.0882 5.48146 23.0919L4.96291 22.5499L4.95119 22.5382L5.48146 23.0919C3.85865 24.646 3.19567 26.6885 3.33302 29.0343C3.47156 31.4 4.4281 34.0597 6.04006 36.7384C9.26487 42.0973 15.0057 47.3534 21.4658 50.2355H21.4668C22.8716 50.8661 24.486 50.8631 25.9346 50.2755L26.6133 49.9914C33.583 47.0001 39.1459 42.3783 42.1738 37.5402C45.1996 32.7053 45.6344 27.7969 42.6856 23.9708L42.3897 23.6037C40.6207 21.5049 38.6866 20.5294 36.7852 20.2599ZM24.417 28.046C24.3547 28.384 24.0704 28.6361 23.7276 28.6583C23.3844 28.6804 23.0698 28.4662 22.9649 28.1388L23.6787 27.9103L24.417 28.046Z" fill="#1A1A1A"/>
<path d="M16.8479 43.4363C19.2128 42.8878 21.7153 44.7363 22.4377 47.5652C23.1601 50.3941 21.8289 53.1326 19.4641 53.6814C17.0991 54.2301 14.5958 52.3813 13.8732 49.5525C13.1508 46.7235 14.4828 43.985 16.8479 43.4363ZM25.6926 47.5652C26.415 44.7362 28.9184 42.8876 31.2834 43.4363C33.6481 43.9853 34.9795 46.7237 34.257 49.5525C33.5345 52.3813 31.0312 54.2301 28.6662 53.6814C26.3014 53.1325 24.9702 50.394 25.6926 47.5652Z" fill="#24CB71"/>
<path d="M16.6625 42.7098C19.5511 42.0402 22.377 44.2976 23.1684 47.3963C23.9594 50.495 22.5381 53.7374 19.6498 54.4081C16.7611 55.0783 13.9346 52.8213 13.143 49.7225C12.3515 46.6235 13.7736 43.3801 16.6625 42.7098ZM24.9613 47.3963C25.7527 44.2975 28.5785 42.0401 31.4672 42.7098C34.3561 43.3801 35.7782 46.6235 34.9867 49.7225C34.1951 52.8213 31.3686 55.0783 28.4799 54.4081C25.5915 53.7375 24.1702 50.4951 24.9613 47.3963ZM21.7074 47.7352C21.054 45.1767 18.8745 43.7364 17.0336 44.1629C15.1925 44.5901 13.9504 46.8247 14.6039 49.3836C15.2576 51.9422 17.4378 53.3811 19.2787 52.954C21.1192 52.5262 22.3606 50.2935 21.7074 47.7352ZM31.0961 44.1629C29.2551 43.7363 27.0757 45.1766 26.4223 47.7352C25.7691 50.2936 27.0104 52.5263 28.851 52.954C30.692 53.3811 32.8721 51.9422 33.5258 49.3836C34.1793 46.8247 32.9372 44.5901 31.0961 44.1629Z" fill="#1A1A1A"/>
<path d="M13.7886 35.4312C15.0165 35.4312 16.0122 36.3798 16.0122 37.5503C16.0121 38.7207 15.0165 39.6694 13.7886 39.6694C12.5608 39.6693 11.566 38.7206 11.5659 37.5503C11.5659 36.3799 12.5607 35.4313 13.7886 35.4312ZM34.7886 35.4312C36.0165 35.4312 37.0122 36.3798 37.0122 37.5503C37.0121 38.7207 36.0165 39.6694 34.7886 39.6694C33.5608 39.6693 32.566 38.7206 32.5659 37.5503C32.5659 36.3799 33.5607 35.4313 34.7886 35.4312Z" fill="#FFC9C1"/>
<path d="M25.6513 37.8208C25.7847 37.4287 26.2104 37.2188 26.6025 37.352C26.9945 37.4854 27.2044 37.9111 27.0713 38.3032C25.9081 41.722 20.9448 41.8272 19.8486 38.2837C19.7262 37.888 19.948 37.4676 20.3437 37.3452C20.7394 37.2228 21.1598 37.4446 21.2822 37.8403C21.9184 39.8966 24.9227 39.9617 25.6513 37.8208Z" fill="#1A1A1A"/>
<path d="M27.5659 34C28.1182 34 28.5659 34.4477 28.5659 35C28.5659 35.5523 28.1182 36 27.5659 36C27.0136 36 26.5659 35.5523 26.5659 35C26.5659 34.4477 27.0136 34 27.5659 34Z" fill="#1A1A1A"/>
<path d="M19.5659 34C19.0136 34 18.5659 34.4477 18.5659 35C18.5659 35.5523 19.0136 36 19.5659 36C20.1182 36 20.5659 35.5523 20.5659 35C20.5659 34.4477 20.1182 34 19.5659 34Z" fill="#1A1A1A"/>
</svg>
