<svg width="48" height="55" viewBox="0 0 48 55" fill="none" xmlns="http://www.w3.org/2000/svg">
<path d="M4.21019 38.25C-3.77701 27.858 4.94119 24.314 10.8543 23.315C11.1302 23.268 11.4082 23.257 11.6876 23.273L41.2674 24.991C43.8279 25.288 44.9542 25.205 45.8268 26.173C47.1653 27.658 46.3604 29.659 44.7027 30.777C43.8305 31.365 43.5218 32.585 44.1224 33.449C44.9513 34.642 46.0012 35.775 46.6756 37.146C47.2027 38.218 46.863 39.514 45.9165 40.243C45.5118 40.555 45.134 40.77 44.762 40.938C43.2968 41.6 42.0461 42.979 42.7691 44.415C43.1853 45.242 43.7847 45.705 44.2673 46.481C49.9231 55.578 21.2563 54.121 7.34639 52.059C4.08069 51.574 0.447085 49.213 1.75459 46.182C2.27059 44.986 3.20868 43.968 4.14238 43.022C5.44728 41.699 5.34249 39.723 4.21019 38.25Z" fill="white"/>
<path d="M11.7306 22.524L41.3106 24.2427L41.3321 24.2437L41.3536 24.2457C42.5674 24.3864 43.5769 24.4502 44.3224 24.5943C45.1327 24.7509 45.8035 25.0268 46.3839 25.6705C47.2407 26.621 47.4167 27.7675 47.1085 28.8228C46.809 29.8483 46.0661 30.7624 45.1222 31.399C44.5853 31.7609 44.4275 32.4518 44.6817 32.9283L44.7384 33.021C45.1453 33.6067 45.5817 34.1447 46.0577 34.7828C46.5172 35.3987 46.9811 36.0676 47.3487 36.815C48.0426 38.2261 47.5865 39.9036 46.3741 40.8375C45.9199 41.1876 45.491 41.4317 45.0704 41.6216C44.4276 41.9121 43.8755 42.3436 43.5685 42.8033C43.2791 43.2366 43.2249 43.6514 43.4395 44.0777C43.6076 44.4115 43.8149 44.6808 44.0704 44.9888C44.2556 45.2122 44.4773 45.4684 44.6925 45.7691L44.9044 46.0845C45.6801 47.3324 45.9503 48.5395 45.588 49.65C45.2323 50.7398 44.3277 51.545 43.1895 52.1441C40.9274 53.3348 37.2987 53.9456 33.1915 54.2037C25.439 54.6908 15.5493 53.9414 8.58799 52.9927L7.23642 52.8013L6.9083 52.7466C5.26017 52.4455 3.54055 51.7099 2.33603 50.6343C1.68921 50.0567 1.16152 49.3544 0.902438 48.5376C0.638637 47.706 0.670052 46.8044 1.0665 45.8853C1.64451 44.5456 2.67795 43.4385 3.60849 42.4957L4.67588 43.5484C3.73914 44.4975 2.89739 45.427 2.44345 46.4791C2.18619 47.0754 2.18032 47.6059 2.33213 48.0845C2.48868 48.5778 2.82891 49.0642 3.33506 49.5162C4.35671 50.4284 5.93638 51.0911 7.45713 51.3169C14.382 52.3434 24.9693 53.2172 33.0968 52.7066C37.1877 52.4496 40.5345 51.847 42.4913 50.8169C43.4625 50.3057 43.9783 49.7477 44.1622 49.1841C44.3392 48.6413 44.2678 47.9035 43.63 46.8775C43.4223 46.5436 43.1935 46.2803 42.9161 45.9459C42.6473 45.6217 42.3478 45.2454 42.0997 44.7525C41.5914 43.7429 41.8001 42.7498 42.3214 41.9693C42.8252 41.2152 43.6311 40.6259 44.4532 40.2544C44.7764 40.1085 45.104 39.9227 45.4591 39.649L45.5812 39.5464C46.1652 39.0114 46.3407 38.1642 46.003 37.4771C45.6963 36.8535 45.2969 36.2708 44.8556 35.6793C44.4308 35.1098 43.9289 34.4838 43.5069 33.8765C42.6361 32.6237 43.1117 30.9447 44.2833 30.1548C44.997 29.6734 45.4853 29.0276 45.6681 28.4019C45.842 27.8061 45.7512 27.2096 45.2696 26.6753C44.9775 26.3513 44.6489 26.185 44.0382 26.0669C43.3672 25.9373 42.5402 25.8922 41.211 25.7388L11.6446 24.022L11.4728 24.0162C11.3034 24.015 11.1396 24.0272 10.9806 24.0543C9.53976 24.2977 7.94378 24.6944 6.4874 25.3013C5.02471 25.9109 3.75054 26.7126 2.89658 27.7398C2.06117 28.7447 1.60404 29.99 1.79209 31.5845C1.98384 33.2097 2.8536 35.2538 4.80478 37.7925C6.10907 39.4893 6.30351 41.8978 4.67588 43.5484L3.60849 42.4957C4.59026 41.5003 4.57547 39.9567 3.61533 38.7076C1.57311 36.0505 0.538017 33.7535 0.302829 31.7603C0.064157 29.7368 0.658529 28.0856 1.74326 26.7808C2.80958 25.4982 4.32485 24.5772 5.91025 23.9166C7.5015 23.2535 9.21327 22.8328 10.7286 22.5767C11.068 22.5189 11.4032 22.5052 11.7306 22.524Z" fill="#1A1A1A"/>
<path d="M37.1822 21.687C26.1389 13.737 16.3129 17.928 10.7685 22.918C8.80634 24.684 7.75494 27.418 8.71574 29.877C11.2911 36.467 20.1884 38.249 25.0001 38.249C32.1422 37.995 36.6181 34.866 39.1979 31.576C41.6636 28.433 40.4245 24.022 37.1822 21.687Z" fill="#FFA629"/>
<path d="M21.8019 16.7085C26.5356 16.0003 31.9486 16.9956 37.6203 21.0786C41.1072 23.5899 42.5876 28.4698 39.7883 32.0386C37.0808 35.4914 32.4034 38.7362 25.0266 38.9986H25.0002C22.5188 38.9986 18.9926 38.5422 15.7385 37.23C12.4878 35.9192 9.40855 33.7112 8.01679 30.1499C6.9102 27.3177 8.14614 24.2695 10.2668 22.3609C13.1176 19.7951 17.0904 17.4135 21.8019 16.7085ZM36.7434 22.2954C31.3719 18.4287 26.3498 17.5447 22.0236 18.1919C17.6755 18.8426 13.9632 21.051 11.2697 23.4751C9.46599 25.0985 8.59929 27.5183 9.41425 29.604C10.5979 32.6327 13.2553 34.6107 16.3 35.8384C19.3384 37.0635 22.6634 37.4968 24.9934 37.4976C31.8889 37.2468 36.1578 34.237 38.6076 31.1128L38.798 30.855C40.6748 28.1515 39.6472 24.3867 36.7434 22.2954Z" fill="#1A1A1A"/>
<path d="M29.1235 27.2488C29.7449 27.2488 30.2485 27.7525 30.2485 28.3738C30.2485 28.9951 29.7449 29.4988 29.1235 29.4988C28.5022 29.4988 27.9985 28.9951 27.9985 28.3738C27.9985 27.7525 28.5022 27.2488 29.1235 27.2488Z" fill="#1A1A1A"/>
<path d="M20.1245 27.2488C19.5032 27.2488 18.9995 27.7525 18.9995 28.3738C18.9995 28.9951 19.5032 29.4988 20.1245 29.4988C20.7458 29.4988 21.2495 28.9951 21.2495 28.3738C21.2495 27.7525 20.7458 27.2488 20.1245 27.2488Z" fill="#1A1A1A"/>
<path d="M26.6919 30.499L26.7681 30.5029C27.1464 30.5412 27.4419 30.8606 27.4419 31.249C27.4419 31.6375 27.1464 31.9569 26.7681 31.9951L26.6919 31.999L22.0337 31.999C21.6195 31.999 21.2837 31.6632 21.2837 31.249C21.2837 30.8348 21.6195 30.499 22.0337 30.499L26.6919 30.499Z" fill="#1A1A1A"/>
<path d="M28.5 23.1979C30.433 23.1979 32 22.3138 32 21.2231C32 20.1325 30.433 19.2483 28.5 19.2483C26.567 19.2483 25 20.1325 25 21.2231C25 22.3138 26.567 23.1979 28.5 23.1979Z" fill="white"/>
</svg>
