<svg width="48" height="55" viewBox="0 0 48 55" fill="none" xmlns="http://www.w3.org/2000/svg">
<path d="M6.77383 28.11C6.77783 29.98 2.10785 36.9801 1.19385 38.6501C1.19385 42.2701 1.98386 43.14 3.85086 45.13C11.0379 52.75 23.2998 54.1801 32.3388 54.1801C59.8188 54.1801 43.2568 26.06 26.5598 20.85C18.7018 18.39 16.2248 21.02 13.6378 22.47C11.0158 23.93 8.85583 25.9 6.77383 28.11Z" fill="#DAAACE"/>
<path fill-rule="evenodd" clip-rule="evenodd" d="M15.1108 22.4596C14.7521 22.6829 14.3903 22.908 14.0045 23.1243L14.0027 23.1253C11.478 24.5311 9.37941 26.438 7.31974 28.6243L7.31902 28.6251C7.20182 28.7492 6.91882 29.1826 6.58751 29.8471C6.27008 30.4837 5.94866 31.2507 5.73303 31.9812C5.50953 32.7383 5.43193 33.3513 5.50174 33.7299C5.53388 33.9042 5.58549 33.9636 5.60452 33.9808C5.61537 33.9905 5.67124 34.0401 5.86584 34.0401C7.42147 34.0401 9.01212 34.5233 10.4985 35.039C10.8282 35.1534 11.152 35.2691 11.4708 35.3829C12.6323 35.7977 13.7259 36.1881 14.7855 36.4054L14.7859 36.4055C15.9534 36.6455 17.1937 36.8321 18.483 37.0206C18.5914 37.0365 18.7001 37.0523 18.8092 37.0683C19.9904 37.2406 21.208 37.4182 22.4145 37.6414C25.0461 38.1281 27.7017 38.8438 29.9778 40.2638C30.3292 40.483 30.4364 40.9456 30.2172 41.2971C29.9979 41.6485 29.5353 41.7557 29.1839 41.5364C27.148 40.2664 24.7136 39.5921 22.1417 39.1163C20.9647 38.8986 19.7749 38.725 18.5888 38.552C18.4811 38.5363 18.3735 38.5206 18.2659 38.5049C16.9799 38.3168 15.6996 38.1247 14.4842 37.8748C13.3102 37.6341 12.0839 37.1957 10.9089 36.7756C10.6041 36.6666 10.3028 36.5589 10.0068 36.4562C8.52457 35.9419 7.14522 35.5401 5.86584 35.5401C5.73509 35.5401 5.60676 35.5301 5.4822 35.509C5.41429 35.5293 5.34234 35.5401 5.26785 35.5401C4.72721 35.5401 3.87692 35.6043 3.18042 36.0131C2.55115 36.3826 1.94385 37.0915 1.94385 38.6501C1.94385 40.4129 2.13799 41.4083 2.50126 42.1829C2.87246 42.9744 3.44674 43.6032 4.39733 44.6164C7.86057 48.2878 12.5755 50.4973 17.5872 51.7862C22.5969 53.0746 27.8531 53.4301 32.3388 53.4301C39.1148 53.4301 42.9369 51.6934 44.7783 49.2532C46.6117 46.8237 46.6647 43.4488 45.3109 39.7251C43.9619 36.0147 41.259 32.1036 37.8489 28.7941C34.4392 25.4849 30.3717 22.8251 26.3364 21.566L26.3358 21.5658C22.5035 20.3661 20.0715 20.4339 18.3218 20.9168C17.006 21.2799 16.0692 21.863 15.1108 22.4596ZM4.05606 34.14C4.04483 34.0938 4.03506 34.0477 4.02661 34.0019C3.88994 33.2607 4.05628 32.3631 4.2944 31.5565C4.5404 30.7232 4.89828 29.8733 5.24513 29.1777C5.57796 28.5103 5.94404 27.8965 6.22829 27.5954C8.33225 25.3621 10.5533 23.3294 13.2719 21.8154C13.5568 21.6557 13.8575 21.4682 14.179 21.2679C15.1785 20.6449 16.3784 19.897 17.9227 19.4708C20.0227 18.8912 22.7582 18.874 26.7839 20.1343C31.0969 21.4803 35.3608 24.2891 38.8936 27.7176C42.4261 31.1459 45.2769 35.2417 46.7206 39.2126C48.1594 43.1701 48.2439 47.1509 45.9757 50.1567C43.7155 53.1518 39.3029 54.9301 32.3388 54.9301C27.7855 54.9301 22.3913 54.5706 17.2135 53.239C12.0381 51.9079 7.02894 49.5927 3.30526 45.6447L3.3039 45.6432L3.29004 45.6285C2.38017 44.6587 1.63122 43.8604 1.1432 42.8198C0.64471 41.7569 0.443848 40.5073 0.443848 38.6501C0.443848 36.5987 1.30005 35.3776 2.42103 34.7196C2.96323 34.4013 3.54063 34.2306 4.05606 34.14Z" fill="#1A1A1A"/>
<path d="M13.1188 32.4367C12.5966 32.3447 12.248 31.8467 12.34 31.3246C12.4321 30.8025 12.93 30.4538 13.4522 30.5459C13.9743 30.638 14.3229 31.1359 14.2309 31.658C14.1388 32.1801 13.6409 32.5288 13.1188 32.4367Z" fill="#1A1A1A"/>
<path d="M23.0301 32.4626C23.5523 32.5547 23.9009 33.0526 23.8088 33.5747C23.7168 34.0969 23.2189 34.4455 22.6967 34.3534C22.1746 34.2614 21.8259 33.7635 21.918 33.2413C22.0101 32.7192 22.508 32.3705 23.0301 32.4626Z" fill="#1A1A1A"/>
</svg>
