<svg width="48" height="55" viewBox="0 0 48 55" fill="none" xmlns="http://www.w3.org/2000/svg">
<path d="M6.77409 28.11C6.77809 29.98 2.10809 36.9801 1.19409 38.6501C1.19409 42.2701 1.98409 43.14 3.85109 45.13C11.0381 52.75 23.3001 54.1801 32.3391 54.1801C59.8191 54.1801 43.2571 26.06 26.5601 20.85C18.7021 18.39 16.2251 21.02 13.6381 22.47C11.0161 23.93 8.85609 25.9 6.77409 28.11Z" fill="#B3B3B3"/>
<path fill-rule="evenodd" clip-rule="evenodd" d="M45.7369 38.7705C46.1768 39.8004 46.4374 40.9102 46.5084 42.04L46.6002 43.5205C46.6831 44.8304 46.485 46.1403 46.0211 47.3701C44.8981 50.34 42.3321 52.5299 39.2213 53.1699L35.5738 53.9297C34.9099 54.0597 34.2331 54.1299 33.5552 54.1299H26.7388L19.3209 53.3105C19.1819 53.2905 19.0456 53.2597 18.9127 53.2197C17.9531 52.8996 17.3784 51.9102 17.7759 50.9805C18.6309 48.9905 20.4279 46.4398 23.5689 45.5098C28.7618 43.9598 32.9287 46.2296 35.3668 45.5098C37.8048 44.7798 36.3944 39.2798 40.1744 36.5498C42.7851 34.6701 43.2704 35.3597 44.2183 35.1797L45.7369 38.7705ZM15.8814 42.0752C16.2083 42.046 16.7133 42.022 17.1998 42.0645C17.4989 42.0906 17.9704 42.154 18.399 42.3721C18.6254 42.4874 18.9387 42.6961 19.1705 43.0605C19.4258 43.4626 19.4977 43.9246 19.4185 44.3584C19.2418 45.3253 18.6233 46.0205 18.0171 46.4502C17.5964 46.7485 17.1131 46.9683 16.6216 47.0986C16.3069 47.435 15.9275 47.7604 15.4527 47.999C14.7346 48.3597 13.9479 48.4538 13.0963 48.335H13.0933L12.9097 48.3027C12.4785 48.2147 12.0296 48.0238 11.6666 47.6533C11.2391 47.2169 11.0809 46.686 11.0601 46.2305C11.0234 45.4207 11.3986 44.6984 11.6871 44.2793L11.691 44.2734C12.6453 42.9012 14.3314 42.3038 15.5953 42.1074L15.6207 42.1035L15.8814 42.0752Z" fill="#538619"/>
<path fill-rule="evenodd" clip-rule="evenodd" d="M15.1111 22.4596C14.7524 22.6829 14.3906 22.908 14.0048 23.1243L14.003 23.1253C11.4783 24.5311 9.37967 26.438 7.32 28.6243L7.31928 28.6251C7.20208 28.7492 6.91908 29.1826 6.58776 29.8471C6.27034 30.4837 5.94891 31.2507 5.73328 31.9812C5.50978 32.7383 5.43218 33.3513 5.50198 33.7299C5.53412 33.9042 5.58573 33.9636 5.60476 33.9808C5.61562 33.9905 5.67148 34.0401 5.86609 34.0401C7.42172 34.0401 9.01236 34.5233 10.4987 35.039C10.8284 35.1534 11.1523 35.2691 11.471 35.3829C12.6326 35.7977 13.7261 36.1881 14.7857 36.4054L14.7861 36.4055C15.9537 36.6455 17.194 36.8321 18.4832 37.0206C18.5916 37.0365 18.7003 37.0523 18.8094 37.0683C19.9906 37.2406 21.2082 37.4182 22.4148 37.6414C25.0464 38.1281 27.7019 38.8438 29.9781 40.2638C30.3295 40.483 30.4367 40.9456 30.2174 41.2971C29.9982 41.6485 29.5356 41.7557 29.1841 41.5364C27.1482 40.2664 24.7138 39.5921 22.1419 39.1163C20.9649 38.8986 19.7752 38.725 18.589 38.552C18.4814 38.5363 18.3737 38.5206 18.2662 38.5049C16.9801 38.3168 15.6998 38.1247 14.4845 37.8748C13.3104 37.6341 12.0841 37.1957 10.9091 36.7756C10.6044 36.6666 10.303 36.5589 10.007 36.4562C8.52481 35.9419 7.14546 35.5401 5.86609 35.5401C5.73534 35.5401 5.60701 35.5301 5.48245 35.509C5.41453 35.5293 5.34258 35.5401 5.2681 35.5401C4.72746 35.5401 3.87717 35.6043 3.18067 36.0131C2.55139 36.3826 1.94409 37.0915 1.94409 38.6501C1.94409 40.4129 2.13823 41.4083 2.5015 42.1829C2.87269 42.9744 3.44697 43.6032 4.39756 44.6164C7.86079 48.2878 12.5758 50.4973 17.5874 51.7862C22.5972 53.0746 27.8534 53.4301 32.3391 53.4301C39.115 53.4301 42.9372 51.6934 44.7786 49.2532C46.6119 46.8237 46.6649 43.4488 45.3111 39.7251C43.9621 36.0147 41.2593 32.1036 37.8492 28.7941C34.4394 25.4849 30.372 22.8251 26.3367 21.566L26.336 21.5658C22.5037 20.3661 20.0717 20.4339 18.322 20.9168C17.0062 21.2799 16.0695 21.863 15.1111 22.4596ZM4.05631 34.14C4.04508 34.0938 4.03531 34.0477 4.02685 34.0019C3.89019 33.2607 4.05653 32.3631 4.29465 31.5565C4.54065 30.7232 4.89853 29.8733 5.24539 29.1777C5.57822 28.5103 5.9443 27.8965 6.22855 27.5954C8.33251 25.3621 10.5535 23.3294 13.2722 21.8154C13.557 21.6557 13.8578 21.4682 14.1792 21.2679C15.1787 20.6449 16.3786 19.897 17.9229 19.4708C20.023 18.8912 22.7585 18.874 26.7842 20.1343C31.0972 21.4803 35.3611 24.2891 38.8938 27.7176C42.4263 31.1459 45.2772 35.2417 46.7208 39.2126C48.1597 43.1701 48.2442 47.1509 45.9759 50.1567C43.7158 53.1518 39.3032 54.9301 32.3391 54.9301C27.7858 54.9301 22.3915 54.5706 17.2138 53.239C12.0383 51.9079 7.02917 49.5927 3.30548 45.6447L3.30413 45.6432L3.29028 45.6285C2.38041 44.6587 1.63145 43.8604 1.14343 42.8198C0.64495 41.7569 0.444092 40.5073 0.444092 38.6501C0.444092 36.5987 1.30029 35.3776 2.42127 34.7196C2.96347 34.4013 3.54087 34.2306 4.05631 34.14Z" fill="#1A1A1A"/>
<path d="M13.452 30.5461C12.9299 30.454 12.432 30.8027 12.3399 31.3248C12.2478 31.847 12.5965 32.3449 13.1186 32.4369C13.6407 32.529 14.1387 32.1804 14.2307 31.6582C14.3228 31.1361 13.9741 30.6382 13.452 30.5461Z" fill="#1A1A1A"/>
<path d="M23.0304 32.4626C23.5525 32.5547 23.9012 33.0526 23.8091 33.5747C23.717 34.0969 23.2191 34.4455 22.697 34.3534C22.1748 34.2614 21.8262 33.7635 21.9183 33.2413C22.0103 32.7192 22.5082 32.3705 23.0304 32.4626Z" fill="#1A1A1A"/>
</svg>
