<svg width="48" height="55" viewBox="0 0 48 55" fill="none" xmlns="http://www.w3.org/2000/svg">
<path d="M27.1322 8.45335C31.2152 12.3624 30.9202 17.7454 30.2622 22.3544C30.1302 23.2774 29.1792 24.0534 28.2472 24.0514C27.0282 24.0484 26.4712 22.9253 26.5402 21.7093C26.6272 20.1813 26.6082 18.5253 26.5752 17.0003C26.3372 13.1033 25.9372 11.6903 25.4662 11.1073C24.9152 10.4283 23.8102 10.2704 23.0252 10.6564C22.2312 11.0464 22.0062 11.9674 22.0622 12.6064C22.0712 12.7084 22.1082 12.8093 22.1532 12.9013C24.9192 18.4623 19.0722 18.6714 17.7002 16.5804C16.2602 14.7754 17.8772 13.2394 19.0972 12.5624C19.5382 12.3174 19.8532 11.8434 19.8472 11.3404C19.8212 8.88637 21.0282 7.67233 22.3912 7.13933C24.0302 6.49933 25.8602 7.23535 27.1322 8.45335Z" fill="#B3EE71"/>
<path d="M22.3077 6.37175C24.2691 5.71096 26.3097 6.62722 27.6505 7.91082C32.0313 12.1049 31.6623 17.8556 31.005 22.4596L30.9552 22.7106C30.809 23.2829 30.4585 23.7727 30.0353 24.1257C29.5515 24.529 28.9142 24.8029 28.2452 24.8014C27.3681 24.7992 26.6959 24.3763 26.2833 23.7448C25.8902 23.1431 25.7502 22.3878 25.7911 21.6667C25.8758 20.1801 25.8588 18.5606 25.8263 17.0456C25.7081 15.1111 25.5521 13.8245 25.3741 12.9626C25.1932 12.0868 25.0048 11.7298 24.8829 11.5788C24.5876 11.217 23.8811 11.0711 23.3565 11.3288L22.6944 9.98308C23.6739 9.50147 25.0556 9.62084 25.8897 10.4577L26.0489 10.6344L26.0499 10.6354L25.5968 11.0007L25.7726 10.8591L25.4786 11.0973L25.4659 11.1071L26.0499 10.6354C26.399 11.0675 26.6466 11.7087 26.8429 12.6589C27.0172 13.5028 27.1634 14.6562 27.2774 16.2458L27.3253 16.9694V16.9841C27.3542 18.3198 27.3728 19.7742 27.3175 21.1618L27.2892 21.7516C27.2611 22.2462 27.3655 22.66 27.5382 22.9245C27.6915 23.1592 27.9073 23.3006 28.2491 23.3014L28.3497 23.2956C28.5877 23.2712 28.849 23.1612 29.0743 22.9733C29.3321 22.7584 29.4849 22.4908 29.5196 22.2477C30.1577 17.7782 30.3846 12.9316 26.9571 9.33855L26.6134 8.9948L26.3917 8.79363C25.3384 7.88589 24.0327 7.43837 22.9034 7.7575L22.6642 7.83757C22.0933 8.06085 21.583 8.41475 21.2149 8.94597C20.8488 9.4745 20.5854 10.2329 20.5968 11.3307C20.6065 12.1485 20.1072 12.8588 19.462 13.2175C18.9131 13.522 18.3414 13.9883 18.0606 14.5055C17.9273 14.7514 17.8684 14.9903 17.8868 15.2272C17.9051 15.4621 18.0038 15.7579 18.2862 16.112L18.3087 16.1393L18.3272 16.1686L17.7003 16.5798L17.6964 16.5817L18.3272 16.1686C18.5392 16.4916 18.977 16.7887 19.5587 16.945C20.1336 17.0995 20.743 17.0857 21.214 16.9079C21.6599 16.7394 21.9718 16.4344 22.087 15.944C22.2115 15.4136 22.1334 14.5457 21.4815 13.235L21.4796 13.2302C21.4309 13.1305 21.3738 12.996 21.3399 12.8376L21.3155 12.6716L21.3058 12.5182C21.2812 11.7218 21.5771 10.5321 22.6944 9.98308L23.3565 11.3288C22.9634 11.522 22.7695 12.0439 22.8087 12.53C22.8114 12.5377 22.817 12.5497 22.8253 12.5671L22.9562 12.8395C23.5828 14.1908 23.7698 15.3432 23.548 16.2878C23.3019 17.3351 22.5846 17.9946 21.7433 18.3122C20.9269 18.6203 19.9897 18.6138 19.169 18.3932C18.3585 18.1753 17.554 17.7178 17.0792 17.0007C16.6648 16.4664 16.4358 15.91 16.3917 15.3444C16.3465 14.7648 16.4991 14.2389 16.7423 13.7907C17.156 13.0283 17.8564 12.4422 18.4747 12.0583L18.7335 11.9059C18.9402 11.7909 19.0653 11.5947 19.0919 11.4216L19.0978 11.3493C19.0834 9.99407 19.4102 8.91742 19.9815 8.09246C20.5512 7.27008 21.3263 6.74982 22.1183 6.44011L22.3077 6.37175Z" fill="#1A1A1A"/>
<path d="M19.7274 16.2689C20.7074 15.5669 20.8684 14.9109 20.8954 14.3309C20.9034 14.1549 21.1074 14.0709 21.2204 14.2059C22.4854 15.7109 21.6744 16.9569 19.7904 16.6259C19.6174 16.5959 19.5844 16.3709 19.7274 16.2689Z" fill="#78B136"/>
</svg>
