<svg width="48" height="55" viewBox="0 0 48 55" fill="none" xmlns="http://www.w3.org/2000/svg">
<path d="M34.3796 9.68576C30.6067 9.07576 21.9831 9.68578 18.2103 19.4428L16.0762 28.4547C17.6931 27.2357 21.4441 26.7608 24.6779 26.7608C35.4575 26.7608 38.781 28.5898 41.9252 28.5898C46.776 16.3938 38.1524 10.2948 34.3796 9.68576Z" fill="#CFBFA8"/>
<path d="M37.8564 27.5474C37.7979 27.7021 37.7359 27.8562 37.6709 28.0093L36.75 27.6187C36.8098 27.4779 36.8669 27.3354 36.9209 27.1929L37.8564 27.5474ZM30.2041 26.145C30.1892 26.3078 30.1752 26.4712 30.1621 26.6343L29.166 26.5542C29.1794 26.3873 29.1937 26.2198 29.209 26.0532L30.2041 26.145ZM38.415 25.644C38.3456 25.9664 38.2649 26.2871 38.1719 26.605L37.2119 26.3247C37.298 26.0307 37.373 25.7327 37.4375 25.4331L38.415 25.644ZM21.6621 25.5493C21.645 25.7071 21.6299 25.8654 21.6172 26.0239L20.6211 25.9438C20.6346 25.7763 20.6499 25.6087 20.668 25.4419L21.6621 25.5493ZM30.4258 24.1919C30.3821 24.5158 30.3417 24.8416 30.3047 25.1675L29.3115 25.0542C29.3493 24.7213 29.39 24.3888 29.4346 24.0581L30.4258 24.1919ZM38.7002 23.6899C38.6737 24.0175 38.637 24.3448 38.5898 24.6704L37.6006 24.5269C37.6447 24.2227 37.6782 23.9164 37.7031 23.6089L38.7002 23.6899ZM21.9717 23.6675C21.9028 23.9777 21.8427 24.2902 21.791 24.604L20.8047 24.4419C20.8594 24.1098 20.9232 23.7789 20.9961 23.4507L21.9717 23.6675ZM30.7285 22.2495C30.6716 22.5709 30.6181 22.8946 30.5674 23.2192L29.5791 23.0649C29.6308 22.7334 29.6861 22.4027 29.7441 22.0747L30.7285 22.2495ZM22.4883 21.8315C22.3853 22.1328 22.291 22.437 22.2051 22.7427L21.2422 22.4722C21.3332 22.1487 21.4331 21.827 21.542 21.5083L22.4883 21.8315ZM38.7461 21.7241C38.7563 22.0511 38.7583 22.3791 38.751 22.7065L37.751 22.6841C37.7579 22.3753 37.7558 22.0652 37.7461 21.7554L38.7461 21.7241ZM31.1113 20.3198C31.0416 20.6381 30.9741 20.9596 30.9102 21.2827L29.9297 21.0884C29.995 20.7587 30.0627 20.4307 30.1338 20.106L31.1113 20.3198ZM23.2031 20.063C23.0677 20.352 22.9401 20.6439 22.8213 20.938L21.8945 20.563C22.0201 20.2524 22.154 19.9441 22.2969 19.6392L23.2031 20.063ZM38.5889 19.772C38.63 20.0947 38.664 20.4201 38.6904 20.7456L37.6934 20.8267C37.6682 20.517 37.6359 20.2071 37.5967 19.8989L38.5889 19.772ZM31.5703 18.4087C31.4879 18.7232 31.4082 19.0419 31.3311 19.3628L30.3584 19.1284C30.4372 18.8008 30.5193 18.476 30.6035 18.1548L31.5703 18.4087ZM24.1035 18.3794C23.9381 18.6532 23.7804 18.93 23.6309 19.2095L22.749 18.7378C22.9068 18.4428 23.0727 18.1504 23.2471 17.8618L24.1035 18.3794ZM38.2607 17.8481C38.3278 18.1646 38.3894 18.4846 38.4443 18.8062L37.459 18.9751C37.4064 18.667 37.3476 18.3602 37.2832 18.0562L38.2607 17.8481ZM25.1738 16.7954C24.9812 17.0517 24.7957 17.3112 24.6182 17.5737L23.79 17.0142C23.977 16.7377 24.1724 16.4644 24.375 16.1948L25.1738 16.7954ZM32.1084 16.5181C32.013 16.8276 31.9206 17.1425 31.8301 17.4604L30.8682 17.186C30.9606 16.8614 31.0559 16.5404 31.1533 16.2241L32.1084 16.5181ZM37.7881 15.9604C37.8772 16.2695 37.9625 16.5831 38.042 16.8999L37.0713 17.1431C36.9947 16.8379 36.9131 16.5351 36.8271 16.2368L37.7881 15.9604ZM26.3975 15.3218C26.1805 15.5592 25.9702 15.8004 25.7676 16.0444L24.998 15.4058C25.2108 15.1496 25.4318 14.8968 25.6592 14.6479L26.3975 15.3218ZM32.7295 14.6548C32.6203 14.9583 32.513 15.2688 32.4082 15.5835L31.46 15.2671C31.5672 14.9451 31.6772 14.628 31.7891 14.3169L32.7295 14.6548ZM37.1885 14.1118C37.2967 14.4123 37.4027 14.7191 37.5039 15.0308L36.5527 15.3394C36.4549 15.0381 36.3528 14.7414 36.248 14.4507L37.1885 14.1118ZM27.7539 13.9663C27.5159 14.1837 27.2843 14.4051 27.0596 14.6294L26.3535 13.9224C26.5888 13.6874 26.8312 13.4554 27.0801 13.228L27.7539 13.9663ZM33.4404 12.8286C33.3163 13.1236 33.1936 13.427 33.0732 13.7368L32.1406 13.3745C32.2643 13.0562 32.3907 12.7438 32.5186 12.4399L33.4404 12.8286ZM36.8447 13.2026L35.915 13.5708C35.7975 13.2741 35.6772 12.9839 35.5557 12.7026L36.4736 12.3062C36.5992 12.5966 36.7233 12.8961 36.8447 13.2026ZM29.2256 12.7339C28.9697 12.9307 28.7201 13.1315 28.4766 13.3354L27.834 12.5688C28.0883 12.3559 28.3493 12.1462 28.6162 11.9409L29.2256 12.7339ZM30.7949 11.6235C30.5241 11.7997 30.2584 11.9792 29.999 12.1626L29.4219 11.3462C29.692 11.1552 29.9683 10.9679 30.25 10.7847L30.7949 11.6235ZM34.2549 11.0522C34.1132 11.3352 33.9719 11.6297 33.833 11.9331L32.9238 11.5161C33.0672 11.2028 33.2132 10.8987 33.3604 10.605L34.2549 11.0522ZM35.6465 10.5483C35.7888 10.827 35.9328 11.1184 36.0752 11.4214L35.1699 11.8472C35.0323 11.5543 34.8941 11.2722 34.7568 11.0034L35.6465 10.5483ZM32.4482 10.6333C32.1644 10.7896 31.8855 10.9493 31.6123 11.1128L31.0986 10.2554C31.3822 10.0856 31.6715 9.91933 31.9658 9.75732L32.4482 10.6333ZM35.1885 9.68896L34.9023 9.84814C34.8373 9.96032 34.7718 10.075 34.707 10.1919L34.4961 10.0747L34.3154 10.1763C34.2591 10.0753 34.2019 9.97712 34.1465 9.88135L33.832 9.70752C33.9152 9.55726 33.999 9.40967 34.083 9.26611L34.5146 9.51904L34.9473 9.26611C35.0267 9.40193 35.1073 9.54346 35.1885 9.68896ZM33.7334 9.96924C33.5879 10.0398 33.4438 10.1117 33.3008 10.1841L32.8486 9.2915C32.9969 9.2165 33.1471 9.14193 33.2979 9.06885L33.7334 9.96924Z" fill="#A7977E"/>
<path fill-rule="evenodd" clip-rule="evenodd" d="M34.2174 6.75062L35.5865 6.93714C36.5263 7.06504 37.2072 7.93343 37.107 8.8766C37.0733 9.1929 36.9544 9.47599 36.7779 9.7096C38.5673 10.578 40.5608 12.1348 42.0162 14.3854C44.1794 17.7306 45.1302 22.5619 42.6227 28.8668L42.5728 28.9694C42.4398 29.1965 42.1941 29.3393 41.9254 29.3395C41.0626 29.3395 40.0009 29.1741 38.8131 28.9557C37.596 28.7319 36.2448 28.4527 34.691 28.1862C31.6111 27.6579 27.881 27.2104 23.6529 27.5094C22.5651 27.5863 21.1201 27.6741 19.7447 27.8912C18.3345 28.1139 17.1546 28.452 16.5084 28.9391L16.4098 29.0016C16.1707 29.1291 15.8767 29.1184 15.6451 28.9664C15.3807 28.7925 15.2543 28.4714 15.3287 28.1637L17.4811 19.2662C17.4888 19.2343 17.4995 19.2031 17.5113 19.1725C19.4736 14.0979 22.7239 11.3572 26.0055 9.98499C28.2683 9.03885 30.5268 8.75083 32.3629 8.77113C32.3258 8.59609 32.3139 8.41319 32.3336 8.22718C32.4339 7.28422 33.2777 6.62304 34.2174 6.75062ZM34.2603 10.4264C32.4804 10.1386 29.5276 10.1383 26.5846 11.3688C23.6767 12.5847 20.7382 15.0167 18.9264 19.6715L17.1617 26.9596C17.9009 26.7056 18.7215 26.5345 19.5113 26.4098C20.965 26.1803 22.4839 26.0875 23.5475 26.0123C27.9425 25.7015 31.8035 26.169 34.9439 26.7077C36.4999 26.9746 37.9177 27.2667 39.0836 27.4811C40.0125 27.6519 40.7863 27.773 41.4176 27.819C43.5171 22.1801 42.5825 18.0236 40.7564 15.1998C38.843 12.2413 35.9236 10.6951 34.2603 10.4264Z" fill="#1A1A1A"/>
<path d="M17.3626 18.7228C14.047 20.3538 13.033 23.5118 16.0321 28.5788C17.3626 27.9688 21.1841 26.9168 24.1167 26.7498C28.2066 26.5158 30.5844 26.7498 35.4351 27.3598C32.1279 17.3878 20.6781 17.0908 17.3626 18.7228Z" fill="#C4B091"/>
<path d="M21.0986 17.2318C22.7642 17.1839 24.6906 17.3885 26.6191 17.9721C30.4878 19.1428 34.4006 21.8564 36.1475 27.1234C36.2285 27.3678 36.1781 27.6374 36.0146 27.8363C35.8512 28.035 35.5971 28.1359 35.3418 28.1039L35.4355 27.3598H35.4346L35.3418 28.1039C30.5047 27.4956 28.1801 27.2684 24.1592 27.4984C22.7541 27.5785 21.1135 27.8729 19.6504 28.2269C18.1787 28.583 16.9449 28.985 16.3447 29.2601C15.9957 29.4201 15.5823 29.2907 15.3867 28.9603C13.8448 26.3552 13.2521 24.1091 13.5908 22.2289C13.9372 20.3067 15.2229 18.9399 17.0312 18.0502C17.9929 17.5769 19.4492 17.2793 21.0986 17.2318ZM21.1416 18.7308C19.6084 18.775 18.3895 19.0532 17.6934 19.3959C16.1867 20.1371 15.3072 21.1646 15.0674 22.4955C14.8392 23.7624 15.1638 25.4485 16.3594 27.6351C17.1169 27.3547 18.1609 27.0438 19.2969 26.7689C20.8101 26.4028 22.5468 26.0883 24.0742 26.0014C27.8644 25.7845 30.22 25.9655 34.29 26.4623C32.5798 22.496 29.4024 20.3814 26.1846 19.4076C24.4229 18.8745 22.6587 18.6871 21.1416 18.7308Z" fill="#1A1A1A"/>
</svg>
