<svg width="48" height="55" viewBox="0 0 48 55" fill="none" xmlns="http://www.w3.org/2000/svg">
<path d="M34.3796 9.68625C30.6067 9.07625 21.9831 9.68627 18.2103 19.4433L16.0762 28.4552C17.6931 27.2362 21.4441 26.7613 24.6779 26.7613C35.4575 26.7613 38.781 28.5902 41.9252 28.5902C46.776 16.3942 38.1524 10.2952 34.3796 9.68625Z" fill="#007BE5" stroke="#1A1A1A" stroke-width="1.5" stroke-linejoin="round"/>
<path d="M37.8564 27.5479C37.7979 27.7026 37.7359 27.8567 37.6709 28.0098L36.75 27.6191C36.8098 27.4784 36.8669 27.3359 36.9209 27.1934L37.8564 27.5479ZM30.2041 26.1455C30.1892 26.3083 30.1752 26.4717 30.1621 26.6348L29.166 26.5547C29.1794 26.3878 29.1937 26.2203 29.209 26.0537L30.2041 26.1455ZM38.415 25.6445C38.3456 25.9669 38.2649 26.2876 38.1719 26.6055L37.2119 26.3252C37.298 26.0312 37.373 25.7331 37.4375 25.4336L38.415 25.6445ZM21.6621 25.5498C21.645 25.7076 21.6299 25.8659 21.6172 26.0244L20.6211 25.9443C20.6346 25.7767 20.6499 25.6092 20.668 25.4424L21.6621 25.5498ZM30.4258 24.1924C30.3821 24.5163 30.3417 24.842 30.3047 25.168L29.3115 25.0547C29.3493 24.7218 29.39 24.3893 29.4346 24.0586L30.4258 24.1924ZM38.7002 23.6904C38.6737 24.018 38.637 24.3453 38.5898 24.6709L37.6006 24.5273C37.6447 24.2232 37.6782 23.9169 37.7031 23.6094L38.7002 23.6904ZM21.9717 23.668C21.9028 23.9781 21.8427 24.2907 21.791 24.6045L20.8047 24.4424C20.8594 24.1103 20.9232 23.7794 20.9961 23.4512L21.9717 23.668ZM30.7285 22.25C30.6716 22.5714 30.6181 22.895 30.5674 23.2197L29.5791 23.0654C29.6308 22.7339 29.6861 22.4032 29.7441 22.0752L30.7285 22.25ZM22.4883 21.832C22.3853 22.1333 22.291 22.4375 22.2051 22.7432L21.2422 22.4727C21.3332 22.1492 21.4331 21.8275 21.542 21.5088L22.4883 21.832ZM38.7461 21.7246C38.7563 22.0516 38.7583 22.3796 38.751 22.707L37.751 22.6846C37.7579 22.3757 37.7558 22.0657 37.7461 21.7559L38.7461 21.7246ZM31.1113 20.3203C31.0416 20.6386 30.9741 20.9601 30.9102 21.2832L29.9297 21.0889C29.995 20.7592 30.0627 20.4312 30.1338 20.1064L31.1113 20.3203ZM23.2031 20.0635C23.0677 20.3525 22.9401 20.6443 22.8213 20.9385L21.8945 20.5635C22.0201 20.2529 22.154 19.9446 22.2969 19.6396L23.2031 20.0635ZM38.5889 19.7725C38.63 20.0952 38.664 20.4205 38.6904 20.7461L37.6934 20.8271C37.6682 20.5175 37.6359 20.2076 37.5967 19.8994L38.5889 19.7725ZM31.5703 18.4092C31.4879 18.7237 31.4082 19.0424 31.3311 19.3633L30.3584 19.1289C30.4372 18.8013 30.5193 18.4765 30.6035 18.1553L31.5703 18.4092ZM24.1035 18.3799C23.9381 18.6537 23.7804 18.9305 23.6309 19.21L22.749 18.7383C22.9068 18.4433 23.0727 18.1509 23.2471 17.8623L24.1035 18.3799ZM38.2607 17.8486C38.3278 18.1651 38.3894 18.4851 38.4443 18.8066L37.459 18.9756C37.4064 18.6675 37.3476 18.3606 37.2832 18.0566L38.2607 17.8486ZM25.1738 16.7959C24.9812 17.0522 24.7957 17.3117 24.6182 17.5742L23.79 17.0146C23.977 16.7382 24.1724 16.4649 24.375 16.1953L25.1738 16.7959ZM32.1084 16.5186C32.013 16.828 31.9206 17.143 31.8301 17.4609L30.8682 17.1865C30.9606 16.8618 31.0559 16.5409 31.1533 16.2246L32.1084 16.5186ZM37.7881 15.9609C37.8772 16.2699 37.9625 16.5836 38.042 16.9004L37.0713 17.1436C36.9947 16.8383 36.9131 16.5356 36.8271 16.2373L37.7881 15.9609ZM26.3975 15.3223C26.1805 15.5597 25.9702 15.8009 25.7676 16.0449L24.998 15.4062C25.2108 15.1501 25.4318 14.8973 25.6592 14.6484L26.3975 15.3223ZM32.7295 14.6553C32.6203 14.9588 32.513 15.2693 32.4082 15.584L31.46 15.2676C31.5672 14.9456 31.6772 14.6285 31.7891 14.3174L32.7295 14.6553ZM37.1885 14.1123C37.2967 14.4128 37.4027 14.7196 37.5039 15.0312L36.5527 15.3398C36.4549 15.0386 36.3528 14.7419 36.248 14.4512L37.1885 14.1123ZM27.7539 13.9668C27.5159 14.1842 27.2843 14.4056 27.0596 14.6299L26.3535 13.9229C26.5888 13.6879 26.8312 13.4559 27.0801 13.2285L27.7539 13.9668ZM33.4404 12.8291C33.3163 13.1241 33.1936 13.4275 33.0732 13.7373L32.1406 13.375C32.2643 13.0567 32.3907 12.7443 32.5186 12.4404L33.4404 12.8291ZM36.8447 13.2031L35.915 13.5713C35.7975 13.2745 35.6772 12.9843 35.5557 12.7031L36.4736 12.3066C36.5992 12.5971 36.7233 12.8966 36.8447 13.2031ZM29.2256 12.7344C28.9697 12.9312 28.7201 13.132 28.4766 13.3359L27.834 12.5693C28.0883 12.3564 28.3493 12.1467 28.6162 11.9414L29.2256 12.7344ZM30.7949 11.624C30.5241 11.8002 30.2584 11.9797 29.999 12.1631L29.4219 11.3467C29.692 11.1557 29.9683 10.9684 30.25 10.7852L30.7949 11.624ZM34.2549 11.0527C34.1132 11.3357 33.9719 11.6302 33.833 11.9336L32.9238 11.5166C33.0672 11.2033 33.2132 10.8992 33.3604 10.6055L34.2549 11.0527ZM35.6465 10.5488C35.7888 10.8275 35.9328 11.1189 36.0752 11.4219L35.1699 11.8477C35.0323 11.5547 34.8941 11.2727 34.7568 11.0039L35.6465 10.5488ZM32.4482 10.6338C32.1644 10.7901 31.8855 10.9498 31.6123 11.1133L31.0986 10.2559C31.3822 10.0861 31.6715 9.91982 31.9658 9.75781L32.4482 10.6338ZM35.1885 9.68945L34.9023 9.84863C34.8373 9.96081 34.7718 10.0755 34.707 10.1924L34.4961 10.0752L34.3154 10.1768C34.2591 10.0758 34.2019 9.97761 34.1465 9.88184L33.832 9.70801C33.9152 9.55774 33.999 9.41016 34.083 9.2666L34.5146 9.51953L34.9473 9.2666C35.0267 9.40241 35.1073 9.54395 35.1885 9.68945ZM33.7334 9.96973C33.5879 10.0403 33.4438 10.1122 33.3008 10.1846L32.8486 9.29199C32.9969 9.21698 33.1471 9.14242 33.2979 9.06934L33.7334 9.96973Z" fill="#80CAFF"/>
<path fill-rule="evenodd" clip-rule="evenodd" d="M34.2179 6.75115L35.587 6.93767C36.5267 7.06559 37.2076 7.93401 37.1075 8.87712C37.0738 9.19384 36.9543 9.47731 36.7774 9.71111C38.5668 10.5795 40.5602 12.1353 42.0157 14.3859C44.179 17.7311 45.1298 22.5623 42.6222 28.8674L42.5723 28.9699C42.4392 29.197 42.1937 29.34 41.9249 29.34C41.0621 29.34 40.0005 29.1747 38.8126 28.9562C37.5954 28.7324 36.2444 28.4532 34.6905 28.1867C31.6105 27.6584 27.8806 27.2109 23.6524 27.5099C22.5645 27.5868 21.1196 27.6746 19.7442 27.8918C18.3339 28.1145 17.154 28.4525 16.5079 28.9396L16.4093 29.0021C16.1701 29.1296 15.8763 29.1191 15.6446 28.967C15.3802 28.793 15.2538 28.4719 15.3282 28.1642L17.4805 19.2668C17.4883 19.2349 17.499 19.2036 17.5108 19.173C19.4731 14.0985 22.7235 11.3578 26.005 9.98552C28.2677 9.03938 30.5263 8.75142 32.3624 8.77166C32.3254 8.59666 32.3143 8.41367 32.3341 8.22771C32.4344 7.28469 33.2781 6.62338 34.2179 6.75115ZM34.2598 10.4269C32.4798 10.1392 29.5271 10.1387 26.5841 11.3693C23.6763 12.5852 20.7377 15.0173 18.9259 19.672L17.1612 26.9601C17.9005 26.7061 18.7209 26.5351 19.5108 26.4103C20.9645 26.1808 22.4833 26.088 23.547 26.0129C27.9421 25.702 31.803 26.1695 34.9434 26.7082C36.4995 26.9751 37.9171 27.2672 39.0831 27.4816C40.0121 27.6524 40.7858 27.7735 41.4171 27.8195C43.5167 22.1804 42.5821 18.0241 40.7559 15.2004C38.8424 12.2416 35.923 10.6955 34.2598 10.4269Z" fill="#1A1A1A"/>
<path d="M17.3626 18.7233C14.047 20.3543 13.033 23.5123 16.0321 28.5793C17.3626 27.9693 21.1841 26.9173 24.1167 26.7503C28.2066 26.5163 30.5844 26.7503 35.4351 27.3603C32.1279 17.3883 20.6781 17.0913 17.3626 18.7233Z" fill="#034AC1"/>
<path d="M21.0986 17.2323C22.7642 17.1843 24.6906 17.3889 26.6191 17.9725C30.4878 19.1433 34.4006 21.8569 36.1475 27.1239C36.2285 27.3683 36.1781 27.6379 36.0146 27.8368C35.8512 28.0355 35.5971 28.1364 35.3418 28.1044L35.4355 27.3602H35.4346L35.3418 28.1044C30.5047 27.4961 28.1801 27.2689 24.1592 27.4989C22.7541 27.5789 21.1135 27.8734 19.6504 28.2274C18.1787 28.5835 16.9449 28.9855 16.3447 29.2606C15.9957 29.4206 15.5823 29.2912 15.3867 28.9608C13.8448 26.3556 13.2521 24.1096 13.5908 22.2294C13.9372 20.3072 15.2229 18.9404 17.0312 18.0507C17.9929 17.5773 19.4492 17.2798 21.0986 17.2323ZM21.1416 18.7313C19.6084 18.7755 18.3895 19.0537 17.6934 19.3964C16.1867 20.1376 15.3072 21.165 15.0674 22.496C14.8392 23.7629 15.1638 25.449 16.3594 27.6356C17.1169 27.3552 18.1609 27.0443 19.2969 26.7694C20.8101 26.4033 22.5468 26.0888 24.0742 26.0018C27.8644 25.785 30.22 25.966 34.29 26.4628C32.5798 22.4964 29.4024 20.3819 26.1846 19.4081C24.4229 18.875 22.6587 18.6876 21.1416 18.7313Z" fill="#1A1A1A"/>
</svg>
