<svg width="48" height="55" viewBox="0 0 48 55" fill="none" xmlns="http://www.w3.org/2000/svg">
<circle cx="28.8517" cy="7.53723" r="5.52258" fill="url(#paint0_radial_53542_4263)"/>
<path d="M28.25 11.6592V9.5C28.25 9.08579 28.5858 8.75 29 8.75C29.4142 8.75 29.75 9.08579 29.75 9.5V11.6592C29.7499 12.0733 29.4142 12.4092 29 12.4092C28.5858 12.4092 28.2501 12.0733 28.25 11.6592Z" fill="#E8CD7D"/>
<path d="M24.716 23.123C24.216 22.623 23.716 12.1231 24.1913 12.0271C24.6667 11.9311 32.716 11.219 33.216 11.623C33.716 12.027 33.716 22.846 33.216 23.623C32.716 24.4 27.988 24.263 24.716 23.123Z" fill="#FFF1C2"/>
<path d="M31.6515 10.7517C32.0751 10.7459 32.4569 10.7511 32.7569 10.7723C32.9055 10.7828 33.0523 10.7986 33.1817 10.824C33.2575 10.8389 33.4431 10.8753 33.6153 10.9871L33.6876 11.0398L33.7882 11.1365C33.8751 11.2348 33.9223 11.3328 33.9444 11.3816C33.9821 11.4648 34.0091 11.549 34.0284 11.6209C34.0675 11.7661 34.098 11.9384 34.1231 12.1189C34.1741 12.4846 34.2145 12.9666 34.2462 13.5154C34.3098 14.6179 34.3409 16.0485 34.3409 17.4832C34.3409 18.9181 34.3097 20.3705 34.2462 21.5183C34.2145 22.0908 34.1742 22.5987 34.1241 22.9949C34.0992 23.1918 34.0708 23.3738 34.0362 23.5281C34.0081 23.6535 33.9564 23.8587 33.8468 24.0291C33.65 24.3346 33.3309 24.4893 33.1036 24.574C32.8497 24.6686 32.5518 24.7318 32.2403 24.7752C31.6137 24.8624 30.8236 24.8817 29.9698 24.8406C28.2625 24.7584 26.1887 24.4297 24.4698 23.8308L24.3067 23.7742L24.1856 23.6531C24.0748 23.5422 24.0142 23.42 23.9854 23.3562C23.951 23.28 23.9244 23.2014 23.9034 23.1307C23.8612 22.9885 23.8245 22.819 23.7921 22.6394C23.7266 22.2772 23.666 21.8044 23.6104 21.2693C23.4988 20.1947 23.4034 18.8172 23.339 17.4588C23.2745 16.1008 23.2406 14.7474 23.253 13.7215C23.2592 13.212 23.2762 12.765 23.3106 12.4334C23.3273 12.2725 23.3514 12.1069 23.3897 11.9656C23.4079 11.8986 23.4393 11.796 23.4981 11.6932C23.5401 11.6197 23.6994 11.3612 24.0431 11.2918L24.2559 11.2605C24.5482 11.224 25.0634 11.1726 25.6651 11.1189C26.4995 11.0445 27.5718 10.9587 28.6456 10.8885C29.7171 10.8184 30.7999 10.7635 31.6515 10.7517ZM31.672 12.2517C30.8589 12.2629 29.8059 12.3161 28.7433 12.3855C27.6828 12.4548 26.6221 12.5396 25.7979 12.6131C25.3968 12.6488 25.0533 12.6818 24.794 12.7088C24.7731 12.9654 24.7572 13.3148 24.752 13.74C24.7401 14.7253 24.7734 16.0462 24.837 17.3875C24.9006 18.7285 24.9948 20.0763 25.1026 21.114C25.1567 21.6348 25.213 22.0649 25.2686 22.3728C25.2789 22.4298 25.2886 22.4806 25.2979 22.5252C26.7869 22.9976 28.5556 23.271 30.0421 23.3426C30.8412 23.381 31.5308 23.3597 32.0333 23.2898C32.2855 23.2547 32.465 23.2107 32.5782 23.1687C32.5964 23.081 32.6163 22.9608 32.6358 22.8064C32.6795 22.4607 32.7173 21.9926 32.7481 21.4353C32.8096 20.3236 32.8409 18.9005 32.8409 17.4832C32.8409 16.0655 32.8095 14.6663 32.7481 13.6023C32.7173 13.0681 32.6805 12.6323 32.6378 12.326C32.6349 12.3055 32.6308 12.286 32.628 12.2674C32.3921 12.2518 32.0674 12.2463 31.672 12.2517Z" fill="#E8CD7D"/>
<path d="M25.7148 16.8838C25.7148 16.6868 25.7111 16.4936 25.7051 16.3047C25.6869 16.3468 25.6684 16.389 25.6475 16.4287C25.6029 16.5131 25.5195 16.6537 25.3789 16.7705C25.2155 16.906 24.9341 17.0342 24.5996 16.9385C24.4119 16.8848 24.2808 16.7801 24.2139 16.7197C24.1385 16.6518 24.0769 16.5784 24.0312 16.5205C23.9434 16.4091 23.8522 16.2699 23.793 16.1826C23.7437 16.1101 23.7061 16.0615 23.6797 16.0273C23.4265 15.9069 23.25 15.6516 23.25 15.3525C23.2502 14.9385 23.5859 14.6025 24 14.6025C24.2292 14.6025 24.4051 14.6919 24.5088 14.7598C24.5339 14.7762 24.5557 14.7962 24.5781 14.8135C24.5963 14.7561 24.6274 14.6659 24.6758 14.5811C24.7505 14.4501 24.8697 14.2687 25.0352 14.1104C25.1938 13.9586 25.4788 13.75 25.873 13.75L26.0586 13.7637C26.242 13.792 26.4155 13.8642 26.5674 13.9814C26.758 14.1286 26.8687 14.3127 26.9346 14.4609C27.0527 14.7271 27.0921 15.0464 27.1113 15.167C27.2049 15.752 27.2148 16.352 27.2148 16.8838C27.2148 17.3609 27.2197 17.8027 27.2988 18.1172L27.3379 18.2441L27.5059 18.749C27.5591 18.9125 27.6092 19.0561 27.666 19.1836C27.669 19.1903 27.6728 19.1966 27.6758 19.2031C27.6685 19.0023 27.6502 18.7822 27.627 18.5586C27.5984 18.2842 27.5557 17.9413 27.5557 17.7178C27.5557 17.1781 27.5466 16.1855 27.5557 15.623C27.5683 14.8401 28.1564 14.2031 28.9834 14.2031L29.0752 14.208C29.2841 14.2287 29.4547 14.3144 29.542 14.3623C29.6676 14.4312 29.7857 14.5168 29.8857 14.5986C29.9871 14.6815 30.0871 14.7746 30.1719 14.8691C30.2376 14.9424 30.3608 15.0878 30.4287 15.2705L29.4561 15.6318L29.7256 15.5322L30.4287 15.2705L30.4297 15.2725C30.4592 15.3522 30.494 15.4318 30.5322 15.5215C30.5923 15.3433 30.6838 15.1049 30.8008 14.8789C30.8839 14.7183 30.9995 14.5254 31.1494 14.3623C31.2822 14.218 31.5608 13.9679 31.9727 13.9678L32.1035 13.9775C32.3941 14.0225 32.5835 14.2073 32.6465 14.2705C32.7521 14.3764 32.8411 14.5006 32.9102 14.6064C33.0511 14.8224 33.1955 15.0961 33.3193 15.335C33.452 15.5908 33.5642 15.8129 33.6641 15.9834C33.7022 16.0485 33.7313 16.0917 33.75 16.1182C34.0035 16.3058 34.1223 16.6385 34.0176 16.9541C33.887 17.3472 33.4624 17.5603 33.0693 17.4297C32.9142 17.3781 32.8047 17.2914 32.7451 17.2383C32.6798 17.18 32.6271 17.1184 32.5869 17.0674C32.5067 16.9657 32.4327 16.849 32.3701 16.7422C32.2448 16.5284 32.1072 16.2566 31.9873 16.0254C31.9791 16.0095 31.97 15.9941 31.9619 15.9785C31.9422 16.0356 31.9265 16.0815 31.9189 16.1094C31.9046 16.1619 31.779 16.6957 31.5996 17.1104C31.5524 17.2195 31.4936 17.3396 31.4219 17.4521C31.3557 17.556 31.2481 17.7031 31.0859 17.8174C30.9046 17.9451 30.6169 18.0524 30.2871 17.9512C29.9992 17.8627 29.8243 17.6564 29.7285 17.5127C29.5995 17.3192 29.5209 17.1215 29.4668 16.9648C29.4397 16.8863 29.4154 16.8078 29.3955 16.7441C29.3743 16.6764 29.3575 16.6222 29.3398 16.5723L29.1992 16.2236C29.1549 16.1203 29.1047 15.9989 29.0557 15.873C29.0515 16.4302 29.0557 17.2214 29.0557 17.7178C29.0557 17.8386 29.0817 18.053 29.1182 18.4033C29.1507 18.7164 29.1868 19.1049 29.1787 19.4648C29.1747 19.6459 29.1591 19.8408 29.1191 20.0283C29.0805 20.2095 29.0089 20.4335 28.8604 20.6328C28.6971 20.8516 28.4511 21.0251 28.1318 21.0723C27.8391 21.1155 27.565 21.0407 27.3398 20.9395V20.9385L27.1377 20.832C26.6958 20.5592 26.4482 20.1357 26.2959 19.7939C26.2061 19.5924 26.1359 19.3883 26.0791 19.2139C26.0178 19.0256 25.9766 18.8904 25.9297 18.7627L25.8555 18.5215C25.7046 17.9439 25.7148 17.2766 25.7148 16.8838Z" fill="#E8CD7D"/>
<path d="M27.2175 4.49996L27.862 4.11596C27.7043 3.85096 27.4003 3.70997 27.0959 3.75997C26.7915 3.80997 26.5488 4.04095 26.4842 4.34295L27.2175 4.49996ZM27.2175 7.84396L27.8853 7.50198L27.7901 7.31597L27.6123 7.20596L27.2175 7.84396ZM28.6431 4.91998C28.3919 4.83298 28.139 4.58196 27.862 4.11596L26.5731 4.88397C26.8913 5.41797 27.3769 6.06898 28.1524 6.33798L28.6431 4.91998ZM26.4842 4.34295C26.4315 4.58895 26.3169 5.39497 26.2706 6.17297C26.2473 6.56197 26.2389 6.97895 26.2716 7.32995C26.2877 7.50395 26.3165 7.69395 26.3732 7.86895C26.4205 8.01395 26.5341 8.30295 26.8228 8.48095L27.6123 7.20596C27.79 7.31596 27.8177 7.45997 27.8 7.40597C27.7917 7.37997 27.7764 7.31295 27.7651 7.19195C27.7429 6.95195 27.7463 6.62396 27.7679 6.26196C27.8112 5.53596 27.9186 4.80798 27.9509 4.65698L26.4842 4.34295ZM26.5498 8.18496C26.824 8.72096 27.3838 9.02396 27.8361 9.17196C28.3042 9.32496 28.8823 9.38796 29.3765 9.24096L28.9504 7.80297C28.8371 7.83697 28.5844 7.83797 28.3024 7.74597C28.1718 7.70297 28.0635 7.64896 27.986 7.59496C27.9057 7.53896 27.885 7.50098 27.8853 7.50198L26.5498 8.18496ZM29.3765 9.24096C29.9082 9.08396 30.3101 8.71697 30.5711 8.31597C30.8318 7.91597 30.9871 7.42995 30.9871 6.95095H29.4871C29.4871 7.11795 29.4287 7.32195 29.3141 7.49795C29.1999 7.67295 29.065 7.76897 28.9504 7.80297L29.3765 9.24096ZM30.9871 6.95095C30.9871 6.54695 30.8582 6.19596 30.6329 5.91296C30.4193 5.64396 30.1465 5.46897 29.9029 5.34997C29.6586 5.23097 29.4021 5.14798 29.1886 5.08398C28.9499 5.01198 28.795 4.97298 28.6431 4.91998L28.1524 6.33798C28.3422 6.40298 28.5881 6.46996 28.7583 6.52096C28.9538 6.57896 29.1144 6.63496 29.2445 6.69796C29.3753 6.76196 29.4342 6.81497 29.4587 6.84597C29.4715 6.86197 29.4871 6.88295 29.4871 6.95095H30.9871Z" fill="#F79722"/>
<defs>
<radialGradient id="paint0_radial_53542_4263" cx="0" cy="0" r="1" gradientUnits="userSpaceOnUse" gradientTransform="translate(28.8517 7.53723) rotate(69.6264) scale(5.32155)">
<stop stop-color="#FFD755" stop-opacity="0.8"/>
<stop offset="0.865385" stop-color="#FFD755" stop-opacity="0"/>
</radialGradient>
</defs>
</svg>
