<svg width="48" height="58" viewBox="0 0 48 58" fill="none" xmlns="http://www.w3.org/2000/svg">
<path d="M9.1177 17.2125L9 15.3405L12.4493 15.1235L12.567 16.9965L10.8873 17.8195L9.1177 17.2125Z" fill="#787878"/>
<path d="M12.4085 14.4769C12.58 14.4661 12.7493 14.5234 12.8783 14.637C13.0071 14.7506 13.0852 14.911 13.096 15.0823L13.2142 16.9554L12.5667 16.9954L12.5677 16.9964L13.2142 16.9554C13.2306 17.2168 13.088 17.4631 12.8529 17.5784L11.1732 18.4017C11.0187 18.4774 10.8398 18.4878 10.6771 18.432L8.90755 17.8255L8.81868 17.7874C8.64774 17.6985 8.52527 17.5373 8.4847 17.3489L8.47103 17.2532L8.35384 15.3812C8.33139 15.0241 8.6023 14.7163 8.95931 14.6937L12.4085 14.4769ZM9.68685 15.9456L9.73763 16.7386L10.8441 17.1185L11.8929 16.6048L11.8431 15.8099L9.68685 15.9456Z" fill="#1A1A1A"/>
<circle cx="10.1844" cy="9.83777" r="9.83777" fill="url(#paint0_radial_53542_4240)"/>
<path d="M12.7762 15.2293L8.4561 15.6783C8.3121 14.9293 8.3411 13.2513 7.8513 12.5323C7.239 11.6333 5 11.1833 5 9.38533C5 7.58733 7.1601 5.34033 9.9425 5.34033C12.7249 5.34033 15.3683 6.68834 15.3683 8.48634C15.3683 10.2843 13.2083 11.1833 12.7762 12.0823C12.4306 12.8013 12.7762 14.4033 12.7762 15.2293Z" fill="#FFE054"/>
<path d="M14.7207 8.48682C14.7207 7.93357 14.3063 7.31901 13.3838 6.80518C12.4843 6.30423 11.2388 5.98877 9.94238 5.98877C8.72744 5.9888 7.64077 6.47943 6.85742 7.17334C6.05908 7.88057 5.64847 8.72884 5.64844 9.38525C5.64844 9.95667 5.98034 10.3502 6.57031 10.7671C6.89073 10.9935 7.15435 11.1409 7.50586 11.3745C7.8059 11.5739 8.15645 11.8295 8.38672 12.1675C8.57059 12.4374 8.68418 12.7607 8.76074 13.063C8.83896 13.3719 8.88934 13.7036 8.92676 14.0171C8.96411 14.33 8.99016 14.6462 9.01465 14.9126C9.01635 14.9311 9.01785 14.9493 9.01953 14.9673L12.0908 14.6479C12.0879 14.6171 12.0861 14.5855 12.083 14.5532C12.0569 14.2849 12.0224 13.9699 12 13.6626C11.9776 13.3544 11.9646 13.0276 11.9834 12.7212C12.0017 12.4237 12.0529 12.0915 12.1924 11.8013C12.361 11.4506 12.6658 11.1511 12.9277 10.9136C13.2402 10.6302 13.4843 10.4391 13.7891 10.1509C14.3562 9.61442 14.7205 9.10347 14.7207 8.48682ZM16.0166 8.48682C16.0164 9.66768 15.3003 10.5052 14.6797 11.0923C14.3905 11.3658 14.0129 11.6793 13.7988 11.8735C13.5345 12.1133 13.4079 12.2641 13.3604 12.3628C13.3271 12.432 13.2915 12.5704 13.2773 12.8013C13.2638 13.0232 13.2722 13.2836 13.293 13.5688C13.3138 13.8551 13.3452 14.1406 13.373 14.4272C13.3998 14.7023 13.4238 14.9869 13.4238 15.229C13.4238 15.561 13.173 15.8392 12.8428 15.8735L8.52344 16.3228C8.18902 16.3575 7.88281 16.1305 7.81934 15.8003C7.7764 15.5768 7.74934 15.2997 7.72461 15.0308C7.69875 14.7495 7.67425 14.4603 7.63965 14.1704C7.60513 13.8813 7.56238 13.6123 7.50391 13.3813C7.44365 13.1434 7.37646 12.9866 7.31543 12.897C7.23949 12.7856 7.08078 12.6475 6.78906 12.4536C6.54877 12.2939 6.13792 12.0478 5.82227 11.8247C5.13969 11.3424 4.35156 10.6118 4.35156 9.38525C4.35159 8.24374 5.02085 7.06932 5.99805 6.20361C6.9903 5.32461 8.37506 4.69193 9.94238 4.69189C11.4283 4.69189 12.8959 5.05084 14.0137 5.67334C15.1083 6.28298 16.0166 7.24211 16.0166 8.48682Z" fill="#E4981F"/>
<defs>
<radialGradient id="paint0_radial_53542_4240" cx="0" cy="0" r="1" gradientUnits="userSpaceOnUse" gradientTransform="translate(10.1844 9.83777) rotate(69.6264) scale(9.47965)">
<stop stop-color="#F7E922" stop-opacity="0.8"/>
<stop offset="0.865385" stop-color="#F7E922" stop-opacity="0"/>
</radialGradient>
</defs>
</svg>
