<svg width="48" height="55" viewBox="0 0 48 55" fill="none" xmlns="http://www.w3.org/2000/svg">
<path d="M19.684 25.7458C24.0254 27.0918 27.5867 26.7678 29.431 26.7678C31.2129 26.7678 36.5575 25.9848 38.6847 24.8298C38.9999 24.6588 39.1371 24.2958 39.0585 23.9458C37.8721 18.6648 32.3965 14.9788 28.3077 15.3788C24.5389 15.7468 19.3963 18.6398 19.0265 24.8098C19.001 25.2358 19.2764 25.6198 19.684 25.7458Z" fill="#4D49FC" stroke="#385ED9" stroke-width="1.5" stroke-linecap="round"/>
<path d="M19.7037 25.8226C22.4882 26.6796 23.1952 26.6606 24.9382 26.6606C25.3871 21.8876 25.9847 19.1306 28.4508 15.3486C24.8109 15.6886 19.4566 19.1466 19.0322 24.8726C19.0001 25.3056 19.2879 25.6946 19.7037 25.8226Z" fill="#F24822"/>
<path d="M38.6754 24.5636C36.8963 25.6256 34.8363 26.1946 32.7686 26.1946C32.1938 21.7756 31.2256 19.3116 28.7505 15.3486C32.3807 15.7026 38.2269 19.6396 39.0868 23.6616C39.1631 24.0186 38.989 24.3756 38.6754 24.5636Z" fill="#FFCD29"/>
<path d="M28.2417 14.3085C30.5392 14.0844 33.1929 15.1045 35.3921 16.8027C37.6037 18.5105 39.4706 20.9909 40.1206 23.8505C40.2645 24.4838 40.0228 25.2053 39.3755 25.5585L39.3745 25.5595L39.1411 25.6796C37.9244 26.2753 36.0088 26.7722 34.2251 27.125C32.3089 27.5039 30.3974 27.7441 29.4312 27.7441C27.6981 27.7441 24.1687 28.0551 19.8794 26.8134L19.4624 26.6884H19.4615C18.7382 26.463 18.2314 25.776 18.2779 24.9921C18.6731 18.3426 24.1822 14.706 28.2417 14.3085ZM28.3882 15.8017C24.909 16.1423 20.1178 19.3126 19.7749 25.081C19.771 25.1484 19.8147 25.2266 19.9048 25.2558H19.9058C24.1115 26.5588 27.5315 26.2441 29.4312 26.2441C30.2487 26.2441 32.0457 26.0268 33.9341 25.6533C35.8349 25.2773 37.6816 24.7706 38.6558 24.2421L38.6568 24.2412C38.6598 24.2337 38.6647 24.213 38.6577 24.1826C38.1015 21.7356 36.4766 19.5358 34.4751 17.9902C32.4611 16.435 30.1799 15.6271 28.3882 15.8017Z" fill="#1A1A1A"/>
<path d="M28.8843 16.0684C26.8817 18.6494 25.7661 21.9952 25.4087 26.3447L24.4126 26.2627C24.7802 21.7884 25.9366 18.2359 28.0942 15.4551L28.8843 16.0684Z" fill="#BD2915"/>
<path d="M28.8848 15.1948C31.02 17.9468 32.7124 21.8276 33.2197 25.9126L32.2275 26.0356C31.7424 22.129 30.1187 18.4179 28.0938 15.8081L28.8848 15.1948Z" fill="#EBA611"/>
<path fill-rule="evenodd" clip-rule="evenodd" d="M31.9035 9.34961C32.0288 9.34961 32.1366 9.3804 32.175 9.3916C32.2344 9.40894 32.2952 9.43088 32.3537 9.45605C32.465 9.50397 32.6141 9.58225 32.7502 9.69824C32.8697 9.80011 33.0967 10.0322 33.1233 10.3975C33.1532 10.8116 32.9123 11.1031 32.7043 11.2646L32.5608 11.3701C32.2172 11.6069 31.8275 11.7785 31.4778 11.9131C31.2739 11.9915 31.0695 12.0626 30.8821 12.127C30.6898 12.193 30.5195 12.2513 30.3635 12.3096H30.3616L30.1008 11.6064L30.0539 11.4824L30.3616 12.3096C30.1661 12.3822 29.8751 12.4897 29.5666 12.5498C29.4176 12.5788 29.2411 12.5997 29.052 12.5957C29.1412 12.6931 29.2077 12.8133 29.2356 12.9521C29.3866 13.7076 29.3645 14.45 29.3645 15.1006C29.3645 15.5148 29.0287 15.8506 28.6145 15.8506C28.2003 15.8505 27.8645 15.5148 27.8645 15.1006C27.8645 14.3835 27.8796 13.8214 27.7649 13.2471C27.742 13.1327 27.7493 13.0199 27.7766 12.9141H25.0901C24.8771 12.9141 24.4854 12.8683 24.1379 12.8037C23.9582 12.7703 23.7648 12.7279 23.593 12.6748C23.5072 12.6483 23.4136 12.6152 23.3244 12.5742C23.2452 12.5378 23.1202 12.4726 23.0071 12.3652H23.0061C22.834 12.2015 22.7742 12.0042 22.7571 11.8633C22.741 11.7311 22.7576 11.6185 22.7717 11.5508C22.7994 11.4181 22.8515 11.2947 22.8791 11.2305C22.9198 11.1358 22.931 11.115 22.9504 11.0674C23.0054 10.7103 23.2839 10.5385 23.3645 10.4951C23.4819 10.432 23.5974 10.4049 23.6594 10.3926C23.7971 10.3652 23.9544 10.3554 24.094 10.3516C24.3861 10.3434 24.7602 10.3584 25.1272 10.3828C25.4984 10.4075 25.8827 10.4432 26.2004 10.4814C26.4815 10.5153 26.8017 10.5611 26.9817 10.6211C27.2328 10.705 27.4447 10.8307 27.5989 10.9268C27.7763 11.0374 27.8649 11.0982 27.969 11.1504C27.989 11.1604 28.0079 11.172 28.0266 11.1836C28.0842 11.1015 28.1449 11.0278 28.2043 10.9639C28.4067 10.7461 28.6546 10.5633 28.8869 10.417C29.3509 10.1249 29.8684 9.90802 30.1741 9.80957H30.175C30.284 9.77469 30.3912 9.73401 30.51 9.6875C30.6227 9.64336 30.7586 9.58865 30.8928 9.54102C31.1721 9.44188 31.505 9.34969 31.9035 9.34961Z" fill="#444444"/>
</svg>
