<svg width="48" height="55" viewBox="0 0 48 55" fill="none" xmlns="http://www.w3.org/2000/svg">
<path d="M20.6016 23.3672C25.3246 25.9394 29.5291 26.3375 31.6566 26.7398C33.7268 27.1312 40.1929 27.3768 42.7785 26.4409C43.0783 26.3347 43.2584 26.033 43.2528 25.7164C43.1476 19.2748 37.6603 13.7287 32.8695 13.3114C28.4537 12.9141 21.8783 15.2022 20.1763 22.4319C20.089 22.8021 20.2664 23.1816 20.6016 23.3672Z" fill="#E24C0C"/>
<path d="M33.8904 12.7305C36.6035 14.0931 39.3884 18.2274 38.8942 24.8378L37.3987 24.7259C37.8043 19.2999 35.8376 15.9698 33.9759 14.5496C33.4011 17.0174 32.5543 21.2798 32.5426 23.8485L31.0432 23.8413C31.0555 21.1627 31.8938 16.9061 32.4748 14.383C30.0097 15.0962 26.553 17.4388 25.6443 22.245L24.1704 21.9663C25.3785 15.5766 30.5684 12.9317 33.4837 12.6636L33.5513 13.4048L33.8904 12.7305Z" fill="#AA370D"/>
<path d="M32.935 12.5641C35.5738 12.7941 38.3086 14.4144 40.3803 16.7576C42.4609 19.111 43.9467 22.274 44.0031 25.7026L44.0009 25.8145C43.9701 26.3691 43.6368 26.9291 43.0327 27.1451L43.0335 27.1463C41.6044 27.6634 39.2215 27.8316 37.0269 27.8383C34.8087 27.845 32.6206 27.6849 31.5177 27.4764C29.4453 27.0845 25.0951 26.6684 20.2428 24.0257L20.2382 24.0238C19.6233 23.6835 19.2787 22.973 19.4466 22.2601C21.26 14.5579 28.2724 12.1463 32.9348 12.565L32.935 12.5641ZM39.2561 17.7516C37.3602 15.6073 34.9561 14.2464 32.8044 14.059L32.8025 14.0586C28.6334 13.6835 22.4968 15.8477 20.9063 22.6037C20.8999 22.6307 20.9093 22.6779 20.9619 22.7086C25.5552 25.2099 29.6141 25.5899 31.7964 26.0025C32.764 26.1854 34.8439 26.3452 37.0222 26.3386C39.2104 26.332 41.3393 26.1555 42.5008 25.7426C42.5016 25.7387 42.5032 25.7346 42.5032 25.7301L42.5024 25.729C42.4532 22.7166 41.1428 19.8856 39.2561 17.7516Z" fill="#1A1A1A"/>
<path d="M18.5084 23.9385C18.585 23.2202 18.7853 22.4337 19.0146 21.724C19.334 20.7361 20.4752 20.3616 21.4309 20.7662C27.4982 23.2975 37.5388 24.4327 43.049 24.7927C43.8605 24.8444 44.5431 25.4313 44.5629 26.2391C44.5758 26.7911 44.5484 27.366 44.5179 27.8895C44.4594 28.8758 43.6563 29.7213 42.6706 29.7487C34.4037 29.9869 26.8 27.9793 19.5349 25.4048C18.8993 25.1828 18.4348 24.6166 18.5084 23.9385Z" fill="#E24C0C"/>
<path fill-rule="evenodd" clip-rule="evenodd" d="M28.4953 22.6212C28.3976 23.1374 28.1797 23.9961 27.9438 24.9121C27.7041 25.8433 27.4397 26.8562 27.2394 27.7178L25.779 27.378C25.9844 26.4948 26.2535 25.4603 26.491 24.538C26.7322 23.601 26.935 22.799 27.0214 22.3425L28.4953 22.6212ZM37.067 24.2419C36.9807 24.6984 36.8767 25.5191 36.7592 26.4795C36.6436 27.4248 36.5174 28.4864 36.386 29.3836L34.9015 29.1665C35.0296 28.2913 35.1542 27.2519 35.271 26.2975C35.3859 25.3586 35.4955 24.4794 35.5931 23.9632L37.067 24.2419ZM31.2479 23.0959C31.1822 23.6133 31.0156 24.4818 30.8354 25.4092C30.6522 26.3523 30.4502 27.3797 30.302 28.2511L28.8231 27.9993C28.9749 27.1061 29.1814 26.0577 29.3628 25.1238C29.5472 24.1743 29.7013 23.3625 29.7593 22.9059L31.2479 23.0959ZM34.3013 23.6732C34.2355 24.1906 34.0689 25.0592 33.8887 25.9865C33.7055 26.9296 33.5035 27.957 33.3553 28.8285L31.8764 28.5766C32.0282 27.6834 32.2347 26.635 32.4161 25.7011C32.6006 24.7517 32.7546 23.9399 32.8126 23.4832L34.3013 23.6732ZM39.8238 24.6687C39.7752 25.4456 39.6168 27.4224 39.3534 29.2221L37.8689 29.005C38.1243 27.26 38.2798 25.3269 38.327 24.5745L39.8238 24.6687ZM42.6612 25.2052C42.6126 25.9822 42.4542 27.9589 42.1909 29.7586L40.7063 29.5415C40.9616 27.7965 41.1173 25.8635 41.1644 25.111L42.6612 25.2052ZM22.908 21.5578C22.6771 22.2755 22.1162 24.132 21.7169 25.8497L20.2565 25.5099C20.6684 23.7385 21.2417 21.8402 21.4802 21.099L22.908 21.5578ZM25.7445 22.0941C25.5136 22.8119 24.9527 24.6683 24.5533 26.386L23.093 26.0463C23.5048 24.2748 24.0781 22.3765 24.3166 21.6353L25.7445 22.0941Z" fill="#AA370D"/>
<path d="M43.0961 24.0443C44.2143 24.1155 45.2811 24.9482 45.3125 26.2206L45.3123 26.2215C45.3191 26.514 45.3156 26.8108 45.3062 27.0999L45.2669 27.9333L45.2667 27.9343C45.1922 29.1894 44.2325 30.3106 42.952 30.4782L42.6918 30.4986C34.2912 30.7406 26.5873 28.6987 19.2877 26.1121C18.4106 25.8057 17.6431 24.9677 17.7628 23.8589C17.847 23.07 18.0628 22.2294 18.3004 21.4938C18.7856 19.9929 20.4569 19.5436 21.7183 20.0748L21.7194 20.074C27.6588 22.552 37.5843 23.6851 43.096 24.0453L43.0961 24.0443ZM43.001 25.541L43 25.5408C37.4912 25.1809 27.3371 24.043 21.1426 21.4587L21.1389 21.457C20.4895 21.1821 19.881 21.4816 19.728 21.9545C19.5346 22.5529 19.3695 23.1887 19.2849 23.772L19.2542 24.0187L19.254 24.0196C19.2273 24.2664 19.3884 24.5594 19.7819 24.6969L19.7857 24.6976C27.0153 27.2596 34.5175 29.2331 42.6493 28.9988L42.6503 28.9989C43.2122 28.9831 43.7309 28.4789 43.7688 27.8458C43.7915 27.4552 43.8122 27.0489 43.8158 26.6512L43.8128 26.257C43.8041 25.9143 43.5055 25.5731 43.001 25.541Z" fill="#1A1A1A"/>
</svg>
