<svg width="48" height="55" viewBox="0 0 48 55" fill="none" xmlns="http://www.w3.org/2000/svg">
<path d="M32 32.5C34.8 32.1 35.5 29 35.5 27.5C35.5 29.9 37.972 31.5 39.207 32C36.573 32.4 36.305 35.167 36.5 36.5C36.227 34.635 33.667 33 32 32.5Z" fill="#FFE8A3"/>
<path d="M34.7501 27.5C34.7501 27.0858 35.0859 26.75 35.5001 26.75C35.9143 26.75 36.2501 27.0858 36.2501 27.5C36.2501 28.427 36.7262 29.2466 37.4171 29.9287C38.1083 30.611 38.9474 31.0856 39.4884 31.3047C39.8015 31.4315 39.9917 31.7524 39.9523 32.0879C39.9127 32.4232 39.6533 32.6905 39.3195 32.7412C38.3096 32.8946 37.7775 33.4737 37.4865 34.1846C37.2173 34.8424 37.1679 35.6001 37.216 36.1631L37.2423 36.3916L37.2492 36.4678C37.266 36.8476 36.9928 37.186 36.6085 37.2422C36.1988 37.302 35.8179 37.0182 35.7579 36.6084C35.6627 35.9586 35.1354 35.2371 34.3048 34.5742C33.4946 33.9276 32.5228 33.4403 31.7843 33.2188C31.4473 33.1176 31.226 32.7952 31.2521 32.4443C31.2784 32.0934 31.5453 31.8078 31.8937 31.7578C32.9897 31.6012 33.6868 30.9295 34.1339 30.0674C34.5915 29.1849 34.7501 28.1592 34.7501 27.5ZM35.7042 30.2373C35.6328 30.4123 35.5546 30.5869 35.466 30.7578C35.1195 31.4259 34.6232 32.0641 33.9415 32.5342C34.3876 32.7843 34.8315 33.076 35.2404 33.4023C35.4832 33.5962 35.7233 33.8087 35.9484 34.0391C35.9917 33.8971 36.0416 33.7558 36.0988 33.6162C36.3682 32.958 36.804 32.3368 37.4542 31.8887C37.086 31.6361 36.7107 31.339 36.3634 30.9961C36.1322 30.7678 35.9084 30.5142 35.7042 30.2373Z" fill="#FFC21A"/>
<path d="M40 27C42 26 42.167 23.833 42 22.5C42.4 24.9 44.167 26.5 45 27C43.5 28 43.214 29 42.822 30C42 28.5 40.881 27.667 40 27Z" fill="#FFE8A3"/>
<path d="M41.8919 21.7579C42.2959 21.699 42.6734 21.9743 42.7405 22.3771C43.0934 24.494 44.675 25.9308 45.386 26.3576C45.6064 26.4899 45.7442 26.7256 45.7503 26.9826C45.7563 27.2395 45.6301 27.4816 45.4163 27.6242C44.7514 28.0674 44.3824 28.4905 44.134 28.8937C43.8713 29.3204 43.7321 29.7343 43.5208 30.2736C43.4145 30.5446 43.1608 30.7295 42.8704 30.7482C42.5798 30.7668 42.3042 30.6158 42.1643 30.3605L42.8225 30.0001L42.8215 29.9992L42.1643 30.3605C41.4272 29.0155 40.4293 28.2657 39.5471 27.5978C39.3406 27.4412 39.2293 27.1889 39.2532 26.9308C39.2771 26.6727 39.4334 26.4452 39.6653 26.3292C41.2117 25.5558 41.4137 23.8511 41.2561 22.5929C41.2056 22.188 41.488 21.8169 41.8919 21.7579ZM42.4026 25.4445C42.1685 26.0217 41.8091 26.5765 41.2737 27.0441C41.7278 27.4184 42.2141 27.8677 42.6721 28.4357C42.7292 28.3264 42.7904 28.2159 42.8577 28.1066C43.0875 27.7335 43.3779 27.3674 43.7678 27.0099C43.3233 26.6177 42.836 26.0911 42.4026 25.4445Z" fill="#FFC21A"/>
<path d="M34 21C35.783 20.2 36.257 18.333 36.271 17.5C36.671 19.1 37.771 20.167 38.271 20.5C37.071 21.3 36.771 22.833 36.771 23.5C36.371 22.3 34.757 21.333 34 21Z" fill="#FFE8A3"/>
<path d="M36.0596 23.7373C35.9287 23.3449 35.5627 22.9154 35.0547 22.5137C34.5623 22.1244 34.0254 21.8305 33.6982 21.6866C33.427 21.5672 33.2512 21.2993 33.25 21.003C33.2489 20.7065 33.4229 20.4368 33.6934 20.3155C35.1021 19.6831 35.51 18.171 35.5215 17.4873L36.2705 17.5H36.2715L35.5215 17.4873C35.5279 17.1111 35.8117 16.7978 36.1856 16.7549C36.5595 16.7121 36.9077 16.9533 36.999 17.3184C37.3446 18.7002 38.3072 19.6233 38.6865 19.876L38.2705 20.5L38.6875 21.1241C38.2502 21.4156 37.9547 21.8559 37.7676 22.3272C37.5791 22.8021 37.5215 23.2577 37.5215 23.5C37.5215 23.8677 37.2545 24.1812 36.8916 24.2403C36.5286 24.2992 36.1759 24.0862 36.0596 23.7373ZM36.4385 19.6534C36.2016 20.106 35.8787 20.5557 35.4434 20.9463C35.623 21.0652 35.8058 21.1957 35.9844 21.3369C36.1236 21.447 36.2658 21.5675 36.4053 21.6983C36.5707 21.301 36.806 20.8846 37.1357 20.5088C36.907 20.2738 36.6665 19.9872 36.4385 19.6534ZM38.6865 19.876C38.8953 20.015 39.0214 20.2492 39.0215 20.5C39.0215 20.7507 38.896 20.9849 38.6875 21.1241L38.2715 20.5L38.6865 19.876Z" fill="#FFC21A"/>
</svg>
