<svg width="48" height="55" viewBox="0 0 48 55" fill="none" xmlns="http://www.w3.org/2000/svg">
<path fill-rule="evenodd" clip-rule="evenodd" d="M26.4759 15.5461C20.7289 15.5201 17.0339 12.1851 15.2609 9.47108C14.7129 8.63208 15.0669 7.53505 15.9609 7.08005C23.8539 3.06005 27.6659 7.15707 29.1699 11.5391C30.6739 7.15707 34.4859 3.06005 42.3789 7.08005C43.2729 7.53505 43.6279 8.63208 43.0789 9.47108C41.1419 12.4351 36.9129 16.1401 30.2209 15.4651L30.3889 20.3421C30.4179 21.1991 29.7319 21.9091 28.8749 21.9091C28.1399 21.9091 27.5109 21.3821 27.3829 20.6591L26.4759 15.5461Z" fill="#14AE5C"/>
<path d="M26.4759 15.5463L27.2149 15.4153C27.1509 15.0583 26.8419 14.7973 26.4789 14.7963L26.4759 15.5463ZM29.1699 11.5393L28.4609 11.7833C28.5649 12.0863 28.8499 12.2893 29.1699 12.2893C29.4899 12.2893 29.7749 12.0863 29.8789 11.7833L29.1699 11.5393ZM30.2209 15.4653L30.2969 14.7193C30.0809 14.6973 29.8669 14.7703 29.7089 14.9183C29.5509 15.0663 29.4649 15.2753 29.4719 15.4913L30.2209 15.4653ZM26.4789 14.7963C21.0539 14.7713 17.5669 11.6293 15.8889 9.06128L14.6329 9.88129C16.5019 12.7413 20.4049 16.2693 26.4729 16.2963L26.4789 14.7963ZM15.8889 9.06128C15.6109 8.63628 15.7599 8.02426 16.3009 7.74826L15.6209 6.41226C14.3739 7.04626 13.8139 8.62729 14.6329 9.88129L15.8889 9.06128ZM16.3009 7.74826C20.1129 5.80726 22.7779 5.90128 24.6249 6.82928C26.5059 7.77528 27.7409 9.68526 28.4609 11.7833L29.8789 11.2963C29.0959 9.01126 27.6719 6.68229 25.2979 5.48929C22.8899 4.27829 19.7019 4.33326 15.6209 6.41226L16.3009 7.74826ZM42.7189 6.41226C38.6379 4.33326 35.4499 4.27829 33.0419 5.48929C30.6679 6.68229 29.2449 9.01126 28.4609 11.2963L29.8789 11.7833C30.5989 9.68526 31.8339 7.77528 33.7149 6.82928C35.5619 5.90128 38.2269 5.80726 42.0389 7.74826L42.7189 6.41226ZM43.7069 9.88129C44.5259 8.62729 43.9659 7.04626 42.7189 6.41226L42.0389 7.74826C42.5799 8.02426 42.7289 8.63628 42.4509 9.06128L43.7069 9.88129ZM30.1459 16.2113C37.1939 16.9233 41.6649 13.0073 43.7069 9.88129L42.4509 9.06128C40.6199 11.8643 36.6319 15.3583 30.2969 14.7193L30.1459 16.2113ZM31.1389 20.3163L30.9709 15.4393L29.4719 15.4913L29.6389 20.3683L31.1389 20.3163ZM28.8749 22.6593C30.1559 22.6593 31.1819 21.5973 31.1389 20.3163L29.6389 20.3683C29.6539 20.8003 29.3079 21.1593 28.8749 21.1593V22.6593ZM26.6439 20.7893C26.8359 21.8713 27.7759 22.6593 28.8749 22.6593V21.1593C28.5039 21.1593 28.1859 20.8933 28.1209 20.5283L26.6439 20.7893ZM25.7379 15.6773L26.6439 20.7893L28.1209 20.5283L27.2149 15.4153L25.7379 15.6773Z" fill="#1A1A1A"/>
<path d="M32.1479 11.6363C34.3069 10.1013 36.7219 9.06727 38.5989 8.45227C39.1149 8.28327 39.0789 7.54527 38.5359 7.53927C35.0119 7.49727 32.7419 9.35928 31.5219 11.1263C31.2269 11.5523 31.7269 11.9363 32.1479 11.6363Z" fill="#036838"/>
<path d="M25.1921 11.6363C23.0341 10.1013 20.6181 9.06627 18.7411 8.45227C18.2251 8.28327 18.2621 7.54527 18.8041 7.53927C22.3281 7.49727 24.5991 9.35928 25.8191 11.1263C26.1131 11.5523 25.6141 11.9363 25.1921 11.6363Z" fill="#036838"/>
</svg>
