<svg width="48" height="55" viewBox="0 0 48 55" fill="none" xmlns="http://www.w3.org/2000/svg">
<path d="M41.9862 35.75C44.065 35.75 45.7502 34.065 45.7502 31.986C45.7502 31.224 45.7492 30.562 45.4722 29.307C45.202 28.083 44.6693 26.291 43.6264 23.236C43.091 21.668 40.8807 21.665 40.3434 23.234C39.3017 26.277 38.7696 28.07 38.4998 29.298C38.2233 30.556 38.2222 31.225 38.2222 31.986C38.2222 34.065 39.9074 35.75 41.9862 35.75Z" fill="#007BE5"/>
<path d="M37.4722 31.9863C37.4722 31.1996 37.4741 30.4695 37.7671 29.1367C38.0466 27.8645 38.5913 26.0378 39.6343 22.9912C40.4036 20.7446 43.5703 20.7503 44.3364 22.9931L42.9165 23.4785C42.6117 22.5858 41.3587 22.5857 41.0532 23.4765C40.0128 26.5157 39.492 28.2752 39.2319 29.4589C38.9719 30.642 38.9722 31.251 38.9722 31.9863C38.9724 33.6508 40.3215 34.9998 41.9858 35C43.6503 35 45.0003 33.6509 45.0005 31.9863C45.0005 31.2503 45.0002 30.6486 44.7397 29.4687C44.4792 28.2885 43.9582 26.5301 42.9165 23.4785L44.3364 22.9931C45.3803 26.0511 45.9248 27.8778 46.2046 29.1455C46.4981 30.4754 46.5005 31.1984 46.5005 31.9863C46.5003 34.4794 44.4787 36.5 41.9858 36.5C39.4931 36.4998 37.4724 34.4792 37.4722 31.9863Z" fill="#1A1A1A"/>
<path fill-rule="evenodd" clip-rule="evenodd" d="M43.7994 27.2275C44.6398 30.261 44.6095 31.9739 44.3111 32.8369C43.7994 34.3179 40.8248 34.9836 40.8248 33.8076C40.8253 32.7834 42.704 33.7156 43.3248 32.708C44.0687 31.5011 43.8908 30.3122 43.7994 27.2275ZM41.5103 23.6182C41.8213 23.723 41.0227 29.6386 40.1773 29.5127C39.6595 29.4357 41.1438 23.6182 41.5103 23.6182Z" fill="#BDE3FF"/>
</svg>
