<svg width="48" height="55" viewBox="0 0 48 55" fill="none" xmlns="http://www.w3.org/2000/svg">
<path d="M36.7502 2.5C37.7262 2.5 38.6052 2.94001 39.2242 3.64301C39.6122 4.08501 40.2592 4.29598 40.8382 4.19598C41.0162 4.16498 41.1992 4.14801 41.3862 4.14801C43.2582 4.14901 44.7752 5.76698 44.7762 7.76398C44.7762 8.18498 44.7072 8.59 44.5832 8.966C44.4872 9.255 44.4872 9.56897 44.5832 9.85797C44.7072 10.234 44.7762 10.639 44.7762 11.061C44.7762 13.057 43.2582 14.676 41.3862 14.676C40.8402 14.676 40.3242 14.538 39.8672 14.293C39.3802 14.033 38.7552 14.033 38.2682 14.293C37.8122 14.538 37.2962 14.676 36.7502 14.676C36.2922 14.676 35.8562 14.579 35.4582 14.403C35.0552 14.225 34.5822 14.225 34.1802 14.403C34.0702 14.451 33.9582 14.494 33.8432 14.53C33.6712 14.584 33.5102 14.668 33.3702 14.78C32.8042 15.232 32.1032 15.5 31.3422 15.5C29.4702 15.5 27.9522 13.882 27.9512 11.885C27.9512 11.725 27.8783 11.573 27.7533 11.473C26.9353 10.813 26.4062 9.76601 26.4062 8.58801C26.4073 6.89401 27.4993 5.47202 28.9733 5.08002C29.3823 4.97102 29.7432 4.69697 29.9432 4.32397C30.5262 3.23497 31.6262 2.5 32.8872 2.5C33.3452 2.5 33.7812 2.59697 34.1802 2.77197C34.5822 2.94997 35.0552 2.95001 35.4582 2.77301C35.8562 2.59701 36.2922 2.5 36.7502 2.5Z" fill="white"/>
<path d="M36.7502 3.25C37.4932 3.25 38.1722 3.583 38.6602 4.138L39.7872 3.14801C39.0382 2.29601 37.9592 1.75 36.7502 1.75V3.25ZM40.9662 4.93402C41.1032 4.91102 41.2432 4.89801 41.3862 4.89801V3.39801C41.1562 3.39801 40.9302 3.41797 40.7092 3.45697L40.9662 4.93402ZM41.3862 4.89801C42.7992 4.89901 44.0252 6.13498 44.0262 7.76398H45.5262C45.5252 5.39898 43.7172 3.39901 41.3862 3.39801V4.89801ZM44.0262 7.76398C44.0262 8.10398 43.9712 8.42898 43.8712 8.72998L45.2952 9.20203C45.4442 8.75103 45.5262 8.26698 45.5262 7.76398H44.0262ZM43.8712 10.094C43.9712 10.395 44.0262 10.72 44.0262 11.061H45.5262C45.5262 10.558 45.4442 10.073 45.2952 9.62201L43.8712 10.094ZM44.0262 11.061C44.0262 12.689 42.7992 13.926 41.3862 13.926V15.426C43.7172 15.425 45.5252 13.425 45.5262 11.061H44.0262ZM41.3862 13.926C40.9682 13.926 40.5732 13.821 40.2212 13.632L39.5132 14.955C40.0752 15.255 40.7122 15.426 41.3862 15.426V13.926ZM37.9142 13.632C37.5632 13.821 37.1682 13.926 36.7502 13.926V15.426C37.4242 15.426 38.0612 15.255 38.6232 14.955L37.9142 13.632ZM36.7502 13.926C36.4002 13.926 36.0662 13.852 35.7612 13.717L35.1552 15.089C35.6462 15.306 36.1852 15.426 36.7502 15.426V13.926ZM33.8772 13.717C33.7922 13.754 33.7062 13.787 33.6182 13.814L34.0672 15.246C34.2092 15.201 34.3482 15.149 34.4832 15.089L33.8772 13.717ZM32.9022 14.194C32.4612 14.547 31.9222 14.75 31.3422 14.75V16.25C32.2842 16.25 33.1482 15.917 33.8382 15.366L32.9022 14.194ZM31.3422 14.75C29.9292 14.75 28.7022 13.513 28.7012 11.885H27.2012C27.2022 14.25 29.0112 16.25 31.3422 16.25V14.75ZM28.2242 10.889C27.5832 10.372 27.1562 9.54001 27.1562 8.58801H25.6562C25.6562 9.99201 26.2872 11.253 27.2832 12.056L28.2242 10.889ZM27.1562 8.58801C27.1573 7.21201 28.0412 6.10402 29.1662 5.80402L28.7802 4.35498C26.9572 4.83998 25.6573 6.57501 25.6562 8.58801H27.1562ZM30.6042 4.67798C31.0712 3.80698 31.9312 3.25 32.8872 3.25V1.75C31.3212 1.75 29.9823 2.66297 29.2812 3.96997L30.6042 4.67798ZM32.8872 3.25C33.2382 3.25 33.5712 3.32398 33.8772 3.45898L34.4822 2.086C33.9912 1.87 33.4522 1.75 32.8872 1.75V3.25ZM35.7602 3.45898C36.0662 3.32398 36.4002 3.25 36.7502 3.25V1.75C36.1852 1.75 35.6462 1.87 35.1552 2.086L35.7602 3.45898ZM33.8772 3.45898C34.4732 3.72098 35.1652 3.72098 35.7602 3.45898L35.1552 2.086C34.9452 2.179 34.6922 2.179 34.4822 2.086L33.8772 3.45898ZM28.7012 11.885C28.7012 11.495 28.5232 11.13 28.2242 10.889L27.2832 12.056C27.2332 12.016 27.2012 11.954 27.2012 11.885H28.7012ZM33.6182 13.814C33.3612 13.895 33.1172 14.022 32.9022 14.194L33.8382 15.366C33.9042 15.314 33.9812 15.272 34.0672 15.246L33.6182 13.814ZM40.2212 13.632C39.5132 13.253 38.6222 13.253 37.9142 13.632L38.6232 14.955C38.8882 14.812 39.2472 14.812 39.5132 14.955L40.2212 13.632ZM35.7612 13.717C35.1652 13.454 34.4722 13.454 33.8772 13.717L34.4832 15.089C34.6922 14.996 34.9452 14.996 35.1552 15.089L35.7612 13.717ZM29.1662 5.80402C29.7642 5.64502 30.3002 5.24498 30.6042 4.67798L29.2812 3.96997C29.1853 4.14997 29.0012 4.29598 28.7802 4.35498L29.1662 5.80402ZM43.8712 8.72998C43.7242 9.17198 43.7242 9.65199 43.8712 10.094L45.2952 9.62201C45.2502 9.48601 45.2502 9.33803 45.2952 9.20203L43.8712 8.72998ZM38.6602 4.138C39.2312 4.787 40.1452 5.07702 40.9662 4.93402L40.7092 3.45697C40.3732 3.51497 39.9932 3.38201 39.7872 3.14801L38.6602 4.138Z" fill="#1A1A1A"/>
<path d="M25.5093 17.5181C26.3428 17.5181 27.0186 16.8423 27.0186 16.0088C27.0186 15.1752 26.3428 14.4995 25.5093 14.4995C24.6757 14.4995 24 15.1752 24 16.0088C24 16.8423 24.6757 17.5181 25.5093 17.5181Z" fill="white"/>
<path d="M26.2686 16.0093C26.2686 15.5901 25.9289 15.2498 25.5098 15.2495C25.0904 15.2495 24.75 15.5899 24.75 16.0093C24.7503 16.4284 25.0906 16.7681 25.5098 16.7681C25.9287 16.7678 26.2683 16.4282 26.2686 16.0093ZM27.7686 16.0093C27.7683 17.2567 26.7571 18.2678 25.5098 18.2681C24.2622 18.2681 23.2503 17.2568 23.25 16.0093C23.25 14.7615 24.262 13.7495 25.5098 13.7495C26.7573 13.7498 27.7686 14.7617 27.7686 16.0093Z" fill="#1A1A1A"/>
<path d="M22.0093 20.5181C22.5667 20.5181 23.0186 20.0662 23.0186 19.5088C23.0186 18.9514 22.5667 18.4995 22.0093 18.4995C21.4519 18.4995 21 18.9514 21 19.5088C21 20.0662 21.4519 20.5181 22.0093 20.5181Z" fill="white"/>
<path d="M22.2686 19.5093C22.2686 19.3662 22.1527 19.2498 22.0098 19.2495C21.8666 19.2495 21.75 19.3661 21.75 19.5093C21.7503 19.6522 21.8667 19.7681 22.0098 19.7681C22.1526 19.7678 22.2683 19.6521 22.2686 19.5093ZM23.7686 19.5093C23.7683 20.4805 22.981 21.2678 22.0098 21.2681C21.0383 21.2681 20.2503 20.4807 20.25 19.5093C20.25 18.5377 21.0381 17.7495 22.0098 17.7495C22.9812 17.7498 23.7686 18.5378 23.7686 19.5093Z" fill="#1A1A1A"/>
<path d="M39.4985 9.96307C39.2705 9.96307 39.0585 9.89309 38.8605 9.75409C38.6625 9.61409 38.5635 9.38708 38.5635 9.07208C38.5635 8.83008 38.6255 8.63507 38.7505 8.48907C38.8745 8.33507 39.0175 8.22107 39.1795 8.14807C39.3475 8.07407 39.4905 8.03809 39.6085 8.03809C39.7325 8.03809 39.8725 8.06704 40.0265 8.12604C40.1875 8.17704 40.3265 8.27603 40.4445 8.42303C40.5615 8.56203 40.6205 8.76408 40.6205 9.02808C40.6205 9.28408 40.5105 9.50405 40.2905 9.68805C40.0775 9.87105 39.8135 9.96307 39.4985 9.96307Z" fill="#1A1A1A"/>
<path d="M35.4985 9.96307C35.2705 9.96307 35.0585 9.89309 34.8605 9.75409C34.6625 9.61409 34.5635 9.38708 34.5635 9.07208C34.5635 8.83008 34.6255 8.63507 34.7505 8.48907C34.8745 8.33507 35.0175 8.22107 35.1795 8.14807C35.3475 8.07407 35.4905 8.03809 35.6085 8.03809C35.7325 8.03809 35.8725 8.06704 36.0265 8.12604C36.1875 8.17704 36.3265 8.27603 36.4445 8.42303C36.5615 8.56203 36.6205 8.76408 36.6205 9.02808C36.6205 9.28408 36.5105 9.50405 36.2905 9.68805C36.0775 9.87105 35.8135 9.96307 35.4985 9.96307Z" fill="#1A1A1A"/>
<path d="M31.4985 9.96307C31.2705 9.96307 31.0585 9.89309 30.8605 9.75409C30.6625 9.61409 30.5635 9.38708 30.5635 9.07208C30.5635 8.83008 30.6255 8.63507 30.7505 8.48907C30.8745 8.33507 31.0175 8.22107 31.1795 8.14807C31.3475 8.07407 31.4905 8.03809 31.6085 8.03809C31.7325 8.03809 31.8725 8.06704 32.0265 8.12604C32.1875 8.17704 32.3265 8.27603 32.4445 8.42303C32.5615 8.56203 32.6205 8.76408 32.6205 9.02808C32.6205 9.28408 32.5105 9.50405 32.2905 9.68805C32.0775 9.87105 31.8135 9.96307 31.4985 9.96307Z" fill="#1A1A1A"/>
</svg>
