<svg width="48" height="55" viewBox="0 0 48 55" fill="none" xmlns="http://www.w3.org/2000/svg">
<path d="M13.9102 24.22L14.3452 18.177L21.6972 18.653L23.5042 2L40.4722 3.90503L37.4541 19.606H44.3212L43.5422 25.789L13.9102 24.22Z" fill="#2C2C2C"/>
<path d="M22.316 16L22 18.857L37.271 19.81L37.837 16.952L22.316 16Z" fill="#DC3412"/>
<path d="M44.6583 25.8279C44.5892 26.1959 44.2588 26.4571 43.8849 26.4393L43.921 25.6902L44.6583 25.8279ZM23.8448 1.2547L40.8126 3.15997L40.7286 3.90509L41.4659 4.04572L38.6446 18.8162L45.0577 19.0164C45.2764 19.0233 45.4811 19.1252 45.6183 19.2957C45.7555 19.4664 45.812 19.6889 45.7716 19.9041L44.6583 25.8279L43.921 25.6893L43.8849 26.4393L13.964 25.0086C13.756 24.9986 13.5612 24.9031 13.4269 24.744C13.2925 24.5848 13.2309 24.3765 13.256 24.1697L14.0372 17.741L14.7813 17.8318V17.8309L14.0372 17.741C14.0805 17.3859 14.366 17.118 14.7091 17.0848L14.8585 17.0858L21.462 17.7645L23.0147 1.92657L23.044 1.78009C23.0875 1.63841 23.1723 1.51146 23.2892 1.41681C23.4452 1.29053 23.6454 1.23231 23.8448 1.2547ZM22.8819 18.6619C22.8625 18.8605 22.764 19.0435 22.6095 19.1697C22.4936 19.2644 22.353 19.3218 22.2062 19.3358L22.0587 19.3348L15.4366 18.6531L14.8409 23.5486L43.3038 24.909L44.1349 20.4881L37.7208 20.2899C37.5015 20.283 37.2965 20.1798 37.1593 20.0086C37.0221 19.8374 36.9658 19.6148 37.0069 19.3992L39.8399 4.55939L24.4337 2.82892L22.8819 18.6619ZM40.8126 3.15997C41.0202 3.18328 41.2092 3.29161 41.3331 3.45978C41.457 3.62794 41.5051 3.84054 41.4659 4.04572L40.7296 3.90509L40.8126 3.15997Z" fill="#1A1A1A"/>
</svg>
