<svg width="48" height="55" viewBox="0 0 48 55" fill="none" xmlns="http://www.w3.org/2000/svg">
<path d="M18.1835 21.4496C18.447 18.6496 24.9 16.9696 32.5965 17.6896C40.2931 18.4196 46.3191 21.2796 46.0555 24.0796C45.7917 26.8796 39.3387 28.5596 31.6424 27.8296C26.5061 27.3496 22.1151 25.9195 19.8397 24.1795L20.7655 22.9396L18.5868 22.8896C18.2823 22.4196 18.1382 21.9396 18.1835 21.4496Z" fill="#383838"/>
<path d="M18.1829 21.4489C18.4387 18.7366 24.5034 17.0751 31.8792 17.6286L32.597 17.6891C40.2929 18.4191 46.3187 21.279 46.056 24.0788L44.5618 23.9391C44.5714 23.8289 44.5467 23.5393 44.0658 23.0397C43.5887 22.5397 42.7942 21.9996 41.6683 21.4596C39.4282 20.3997 36.177 19.5391 32.4564 19.1891C28.7356 18.8391 25.3806 19.0799 22.9818 19.6999C21.776 20.0199 20.8925 20.4092 20.3314 20.8092C19.9684 21.0656 19.8053 21.2727 19.7327 21.4147L20.7952 21.4391L21.7015 21.4596L22.5199 23.0895L22.0062 23.779C24.2009 24.9487 27.6733 25.9543 31.7835 26.3395C35.5042 26.6895 38.8593 26.4497 41.2581 25.8297C42.4639 25.5097 43.3465 25.1194 43.9076 24.7194C44.4738 24.3194 44.5523 24.0391 44.5618 23.9391L46.056 24.0788C45.7999 26.791 39.736 28.4527 32.3607 27.8903L31.6429 27.8297C26.5068 27.3498 22.1156 25.9193 19.8402 24.1793L20.7659 22.9391L18.5872 22.8893C18.2828 22.4193 18.1376 21.9389 18.1829 21.4489Z" fill="#1A1A1A"/>
<path d="M40.4258 23.7798C33.2867 25.0798 26.4995 23.1697 23.9821 21.8497C23.6217 21.6597 23.5421 21.1998 23.7727 20.8698L27.9322 14.8097L32.4416 8.24977C32.4842 8.17977 32.5403 8.12975 32.6056 8.09975L38.4823 4.73976C38.7361 4.58976 39.0597 4.68973 39.1834 4.95973L41.7064 10.3598L38.4183 8.61977C38.2055 8.50977 37.9427 8.56978 37.7931 8.75978L35.963 11.0597C35.8819 11.1597 35.8439 11.2897 35.8572 11.4197L36.3637 16.3898C36.3728 16.4798 36.4055 16.5598 36.4584 16.6298L40.8684 22.6298C41.1883 23.0598 40.9567 23.6798 40.4258 23.7798Z" fill="#383838"/>
<path d="M38.5793 20.2394C33.8228 21.1194 28.2051 19.6594 25.8392 18.7694C25.7584 18.7294 25.6694 18.7593 25.6145 18.8293L23.5887 21.2794C23.5083 21.3794 23.5374 21.5293 23.6488 21.5893L26.6802 23.2093C26.6976 23.2193 26.7163 23.2194 26.7356 23.2294L33.6715 24.5893C33.6946 24.5993 33.7183 24.5994 33.7416 24.5994L40.6544 23.4994C40.8004 23.4794 40.8717 23.3093 40.7868 23.1893L38.7808 20.3293C38.7356 20.2593 38.6569 20.2294 38.5793 20.2394Z" fill="#7C2BDA"/>
<path d="M38.1008 4.09477C38.735 3.71991 39.5513 3.97072 39.8625 4.6436L39.8635 4.64262L42.3859 10.042C42.5223 10.3338 42.4569 10.6801 42.2238 10.9024C42.02 11.0967 41.7278 11.1584 41.467 11.0704L41.3576 11.0235L38.2814 9.40336L36.8195 11.4727L36.5988 16.2227L41.3752 22.1377L41.4914 22.3028C42.0078 23.1508 41.5663 24.3326 40.5051 24.5274L40.3107 23.4649L40.3693 23.7901L40.5051 24.5274L40.5021 24.5284C33.4356 25.799 26.7141 24.0233 23.8937 22.6456L23.633 22.5137L23.632 22.5127L23.9826 21.8497L24.135 21.5596L23.632 22.5127C22.8227 22.0856 22.7054 21.095 23.1555 20.4454H23.1545L31.8234 7.82524L31.8244 7.82622C31.9263 7.67107 32.0643 7.54121 32.2346 7.45024L32.2336 7.44829L38.1008 4.09477ZM33.0266 8.7227L24.4299 21.2354C26.8774 22.4795 33.3584 24.274 40.1906 23.0586L35.3723 17.0909C35.3685 17.0862 35.3652 17.081 35.3615 17.0762L35.9338 16.6368L35.9553 16.6202L35.3615 17.0762C35.1838 16.8448 35.0815 16.5531 35.0959 16.2452L35.3254 11.335C35.3366 11.0904 35.4167 10.866 35.548 10.6748L35.5529 10.667L37.1857 8.35649C37.5574 7.82587 38.2525 7.68619 38.7961 7.97954H38.7951L40.0842 8.65825L38.6193 5.52446L33.0266 8.7227ZM40.7346 22.6563L40.2375 23.0586L40.7922 22.6094L40.7346 22.6563ZM23.7726 20.8702L24.3049 21.2344L23.7238 20.836L23.7726 20.8702ZM38.4396 8.63969L38.2111 9.07426H38.2101H38.2111L38.468 8.58501L38.4396 8.63969ZM37.8254 8.80864L38.2062 9.07133L37.7863 8.78129L37.8254 8.80864Z" fill="#1A1A1A"/>
</svg>
