<svg width="48" height="55" viewBox="0 0 48 55" fill="none" xmlns="http://www.w3.org/2000/svg">
<path d="M40.8478 25.1998C28.9878 26.5498 22.0138 23.9899 20.0088 22.5399L32.8178 3.12988L40.8478 25.1998Z" fill="#2F15AC"/>
<path d="M37.6193 23.0356C37.6061 22.9679 37.5404 22.9237 37.4727 22.9369C37.4049 22.9501 37.3607 23.0158 37.3739 23.0835C37.3808 23.1188 37.3871 23.1562 37.3925 23.1957C37.3725 23.1673 37.3541 23.1396 37.3372 23.1128C37.3002 23.0545 37.223 23.0372 37.1647 23.0741C37.1064 23.111 37.089 23.1883 37.126 23.2466C37.1499 23.2844 37.1764 23.3239 37.2059 23.3646C37.179 23.3594 37.1533 23.3538 37.1286 23.3479C37.0614 23.3319 36.994 23.3734 36.978 23.4406C36.962 23.5077 37.0035 23.5751 37.0707 23.5911C37.1085 23.6001 37.1484 23.6085 37.1903 23.6159C37.1717 23.6293 37.1524 23.6427 37.1327 23.6561C37.0755 23.6947 37.0604 23.7724 37.0991 23.8296C37.1377 23.8868 37.2154 23.9019 37.2726 23.8632C37.3119 23.8367 37.3494 23.8099 37.385 23.7831C37.3804 23.8133 37.375 23.8442 37.3689 23.8757C37.3557 23.9435 37.4 24.0091 37.4678 24.0223C37.5355 24.0354 37.6011 23.9912 37.6143 23.9234C37.6216 23.8858 37.6279 23.8489 37.6334 23.8128C37.6657 23.8388 37.6995 23.8648 37.7349 23.8907C37.7907 23.9314 37.8689 23.9191 37.9096 23.8633C37.9503 23.8076 37.938 23.7294 37.8822 23.6887C37.8573 23.6705 37.8332 23.6522 37.8101 23.634C37.8591 23.6286 37.9097 23.6216 37.9616 23.6128C38.0297 23.6012 38.0755 23.5366 38.0639 23.4685C38.0523 23.4005 37.9877 23.3547 37.9196 23.3663C37.8784 23.3733 37.8382 23.3791 37.7991 23.3836C37.8387 23.3341 37.8736 23.2857 37.9047 23.239C37.9429 23.1816 37.9274 23.104 37.87 23.0657C37.8125 23.0274 37.7349 23.0429 37.6966 23.1004C37.6799 23.1255 37.6618 23.1513 37.6423 23.1776C37.6358 23.1274 37.628 23.0801 37.6193 23.0356Z" fill="#FFC21A"/>
<path d="M36.4538 15.3862C36.4405 15.3185 36.3749 15.2743 36.3071 15.2875C36.2394 15.3007 36.1952 15.3664 36.2084 15.4341C36.2153 15.4694 36.2216 15.5068 36.227 15.5463C36.207 15.5178 36.1886 15.4901 36.1717 15.4634C36.1347 15.4051 36.0575 15.3877 35.9992 15.4247C35.9409 15.4616 35.9235 15.5388 35.9605 15.5972C35.9844 15.635 36.0109 15.6745 36.0403 15.7151C36.0135 15.71 35.9878 15.7044 35.9631 15.6985C35.8959 15.6825 35.8285 15.724 35.8125 15.7911C35.7965 15.8583 35.838 15.9257 35.9052 15.9417C35.943 15.9507 35.9829 15.9591 36.0248 15.9665C36.0061 15.9799 35.9869 15.9933 35.9671 16.0067C35.9099 16.0453 35.8949 16.123 35.9335 16.1802C35.9722 16.2374 36.0499 16.2525 36.1071 16.2138C36.1464 16.1873 36.1838 16.1605 36.2195 16.1337C36.2148 16.1639 36.2095 16.1948 36.2034 16.2263C36.1902 16.2941 36.2345 16.3597 36.3022 16.3729C36.37 16.386 36.4356 16.3418 36.4488 16.274C36.4561 16.2364 36.4624 16.1995 36.4678 16.1634C36.5001 16.1894 36.534 16.2154 36.5694 16.2413C36.6252 16.2819 36.7034 16.2697 36.7441 16.2139C36.7847 16.1581 36.7725 16.0799 36.7167 16.0393C36.6918 16.0211 36.6677 16.0028 36.6445 15.9845C36.6936 15.9792 36.7441 15.9722 36.7961 15.9633C36.8642 15.9517 36.9099 15.8872 36.8983 15.8191C36.8867 15.7511 36.8222 15.7053 36.7541 15.7169C36.7129 15.7239 36.6727 15.7296 36.6336 15.7342C36.6731 15.6846 36.708 15.6362 36.7391 15.5896C36.7774 15.5322 36.7619 15.4546 36.7045 15.4163C36.647 15.378 36.5694 15.3935 36.5311 15.4509C36.5144 15.4761 36.4963 15.5018 36.4767 15.5282C36.4703 15.478 36.4624 15.4307 36.4538 15.3862Z" fill="#FFC21A"/>
<path d="M31.3034 13.271C31.2901 13.2032 31.2245 13.159 31.1567 13.1723C31.089 13.1855 31.0448 13.2511 31.058 13.3189C31.0649 13.3541 31.0712 13.3915 31.0766 13.4311C31.0566 13.4026 31.0382 13.3749 31.0213 13.3482C30.9843 13.2899 30.9071 13.2725 30.8488 13.3095C30.7905 13.3464 30.7731 13.4236 30.8101 13.4819C30.834 13.5198 30.8605 13.5592 30.8899 13.5999C30.8631 13.5947 30.8374 13.5891 30.8127 13.5833C30.7455 13.5673 30.6781 13.6088 30.6621 13.6759C30.6461 13.7431 30.6876 13.8105 30.7548 13.8265C30.7926 13.8355 30.8325 13.8439 30.8744 13.8513C30.8557 13.8647 30.8365 13.8781 30.8167 13.8914C30.7595 13.9301 30.7445 14.0078 30.7832 14.065C30.8218 14.1222 30.8995 14.1372 30.9567 14.0986C30.996 14.072 31.0334 14.0453 31.0691 14.0184C31.0644 14.0487 31.0591 14.0796 31.053 14.1111C31.0398 14.1788 31.0841 14.2445 31.1518 14.2576C31.2196 14.2708 31.2852 14.2265 31.2984 14.1588C31.3057 14.1211 31.312 14.0842 31.3174 14.0481C31.3497 14.0742 31.3836 14.1002 31.419 14.126C31.4748 14.1667 31.553 14.1545 31.5937 14.0987C31.6343 14.0429 31.6221 13.9647 31.5663 13.924C31.5414 13.9059 31.5173 13.8876 31.4942 13.8693C31.5432 13.864 31.5937 13.857 31.6457 13.8481C31.7138 13.8365 31.7595 13.7719 31.7479 13.7039C31.7363 13.6358 31.6718 13.5901 31.6037 13.6017C31.5625 13.6087 31.5223 13.6144 31.4832 13.619C31.5227 13.5694 31.5577 13.521 31.5887 13.4744C31.627 13.4169 31.6115 13.3393 31.5541 13.301C31.4966 13.2627 31.419 13.2783 31.3807 13.3357C31.364 13.3608 31.3459 13.3866 31.3264 13.4129C31.3199 13.3627 31.312 13.3154 31.3034 13.271Z" fill="#FFC21A"/>
<path d="M34.296 12.0757C34.2828 12.0079 34.2172 11.9637 34.1494 11.9769C34.0817 11.9902 34.0375 12.0558 34.0507 12.1236C34.0576 12.1588 34.0639 12.1962 34.0693 12.2358C34.0492 12.2073 34.0309 12.1796 34.0139 12.1529C33.977 12.0945 33.8998 12.0772 33.8415 12.1141C33.7831 12.1511 33.7658 12.2283 33.8027 12.2866C33.8267 12.3245 33.8532 12.3639 33.8826 12.4046C33.8558 12.3994 33.83 12.3938 33.8053 12.3879C33.7382 12.372 33.6708 12.4134 33.6548 12.4806C33.6388 12.5478 33.6803 12.6152 33.7474 12.6312C33.7853 12.6402 33.8252 12.6485 33.8671 12.656C33.8484 12.6694 33.8292 12.6828 33.8094 12.6961C33.7522 12.7348 33.7372 12.8125 33.7758 12.8697C33.8145 12.9269 33.8922 12.9419 33.9494 12.9033C33.9887 12.8767 34.0261 12.85 34.0618 12.8231C34.0571 12.8534 34.0518 12.8843 34.0457 12.9158C34.0325 12.9835 34.0767 13.0491 34.1445 13.0623C34.2123 13.0755 34.2779 13.0312 34.2911 12.9634C34.2984 12.9258 34.3047 12.8889 34.3101 12.8528C34.3424 12.8789 34.3762 12.9049 34.4117 12.9307C34.4675 12.9714 34.5457 12.9592 34.5863 12.9034C34.627 12.8476 34.6148 12.7694 34.559 12.7287C34.534 12.7105 34.51 12.6923 34.4868 12.674C34.5359 12.6687 34.5864 12.6617 34.6384 12.6528C34.7065 12.6412 34.7522 12.5766 34.7406 12.5086C34.729 12.4405 34.6644 12.3947 34.5964 12.4063C34.5551 12.4134 34.515 12.4191 34.4759 12.4236C34.5154 12.3741 34.5503 12.3257 34.5814 12.2791C34.6197 12.2216 34.6042 12.144 34.5467 12.1057C34.4893 12.0674 34.4117 12.083 34.3734 12.1404C34.3567 12.1655 34.3386 12.1913 34.319 12.2176C34.3126 12.1674 34.3047 12.1201 34.296 12.0757Z" fill="#FFC21A"/>
<path d="M28.5675 11.1958C28.5543 11.128 28.4887 11.0838 28.4209 11.0971C28.3531 11.1103 28.3089 11.1759 28.3222 11.2437C28.329 11.2789 28.3354 11.3163 28.3407 11.3559C28.3207 11.3274 28.3024 11.2997 28.2854 11.273C28.2485 11.2147 28.1713 11.1973 28.1129 11.2343C28.0546 11.2712 28.0373 11.3484 28.0742 11.4067C28.0982 11.4446 28.1247 11.484 28.1541 11.5247C28.1273 11.5195 28.1015 11.5139 28.0768 11.5081C28.0097 11.4921 27.9423 11.5336 27.9263 11.6007C27.9103 11.6679 27.9518 11.7353 28.0189 11.7513C28.0568 11.7603 28.0967 11.7687 28.1386 11.7761C28.1199 11.7895 28.1007 11.8029 28.0809 11.8162C28.0237 11.8549 28.0087 11.9326 28.0473 11.9898C28.086 12.047 28.1637 12.062 28.2209 12.0234C28.2602 11.9968 28.2976 11.9701 28.3332 11.9432C28.3286 11.9735 28.3233 12.0044 28.3171 12.0359C28.304 12.1036 28.3482 12.1693 28.416 12.1824C28.4838 12.1956 28.5494 12.1513 28.5625 12.0836C28.5699 12.0459 28.5762 12.0091 28.5816 11.9729C28.6139 11.999 28.6477 12.025 28.6832 12.0508C28.739 12.0915 28.8171 12.0793 28.8578 12.0235C28.8985 11.9677 28.8862 11.8895 28.8305 11.8488C28.8055 11.8307 28.7815 11.8124 28.7583 11.7941C28.8074 11.7888 28.8579 11.7818 28.9099 11.7729C28.9779 11.7613 29.0237 11.6967 29.0121 11.6287C29.0005 11.5606 28.9359 11.5149 28.8679 11.5265C28.8266 11.5335 28.7865 11.5392 28.7474 11.5438C28.7869 11.4942 28.8218 11.4458 28.8529 11.3992C28.8912 11.3417 28.8757 11.2641 28.8182 11.2258C28.7608 11.1875 28.6832 11.2031 28.6449 11.2605C28.6281 11.2856 28.6101 11.3114 28.5905 11.3378C28.5841 11.2875 28.5762 11.2402 28.5675 11.1958Z" fill="#FFC21A"/>
<path d="M28.3024 15.2007C28.2892 15.1329 28.2235 15.0887 28.1558 15.1019C28.088 15.1152 28.0438 15.1808 28.057 15.2486C28.0639 15.2838 28.0702 15.3212 28.0756 15.3608C28.0556 15.3323 28.0372 15.3046 28.0203 15.2779C27.9834 15.2195 27.9061 15.2022 27.8478 15.2391C27.7895 15.2761 27.7721 15.3533 27.8091 15.4116C27.833 15.4495 27.8595 15.4889 27.889 15.5296C27.8621 15.5244 27.8364 15.5188 27.8117 15.5129C27.7445 15.497 27.6771 15.5384 27.6611 15.6056C27.6452 15.6728 27.6866 15.7402 27.7538 15.7562C27.7916 15.7652 27.8315 15.7735 27.8735 15.781C27.8548 15.7944 27.8355 15.8078 27.8158 15.8211C27.7586 15.8598 27.7435 15.9375 27.7822 15.9947C27.8208 16.0519 27.8985 16.0669 27.9557 16.0283C27.995 16.0017 28.0325 15.975 28.0681 15.9481C28.0635 15.9784 28.0581 16.0093 28.052 16.0408C28.0388 16.1085 28.0831 16.1741 28.1509 16.1873C28.2186 16.2005 28.2842 16.1562 28.2974 16.0884C28.3047 16.0508 28.311 16.0139 28.3165 15.9778C28.3488 16.0039 28.3826 16.0299 28.418 16.0557C28.4738 16.0964 28.552 16.0842 28.5927 16.0284C28.6334 15.9726 28.6211 15.8944 28.5653 15.8537C28.5404 15.8355 28.5164 15.8173 28.4932 15.799C28.5422 15.7937 28.5928 15.7867 28.6448 15.7778C28.7128 15.7662 28.7586 15.7016 28.747 15.6336C28.7354 15.5655 28.6708 15.5197 28.6027 15.5313C28.5615 15.5384 28.5213 15.5441 28.4823 15.5486C28.5218 15.4991 28.5567 15.4507 28.5878 15.4041C28.6261 15.3466 28.6105 15.269 28.5531 15.2307C28.4957 15.1924 28.418 15.208 28.3797 15.2654C28.363 15.2905 28.3449 15.3163 28.3254 15.3426C28.3189 15.2924 28.3111 15.2451 28.3024 15.2007Z" fill="#FFC21A"/>
<path d="M30.5944 17.3311C30.5812 17.2633 30.5155 17.2191 30.4478 17.2323C30.38 17.2455 30.3358 17.3112 30.349 17.379C30.3559 17.4142 30.3622 17.4516 30.3676 17.4911C30.3476 17.4627 30.3292 17.435 30.3123 17.4082C30.2753 17.3499 30.1981 17.3326 30.1398 17.3695C30.0815 17.4064 30.0641 17.4837 30.1011 17.542C30.125 17.5798 30.1515 17.6193 30.181 17.66C30.1541 17.6548 30.1284 17.6492 30.1037 17.6433C30.0365 17.6273 29.9691 17.6688 29.9531 17.736C29.9371 17.8031 29.9786 17.8705 30.0458 17.8865C30.0836 17.8955 30.1235 17.9039 30.1654 17.9113C30.1468 17.9247 30.1275 17.9381 30.1078 17.9515C30.0506 17.9901 30.0355 18.0678 30.0742 18.125C30.1128 18.1823 30.1905 18.1973 30.2477 18.1586C30.287 18.1321 30.3245 18.1053 30.3601 18.0785C30.3555 18.1087 30.3501 18.1396 30.344 18.1711C30.3308 18.2389 30.3751 18.3045 30.4429 18.3177C30.5106 18.3308 30.5762 18.2866 30.5894 18.2188C30.5967 18.1812 30.603 18.1443 30.6085 18.1082C30.6408 18.1343 30.6746 18.1603 30.71 18.1861C30.7658 18.2268 30.844 18.2145 30.8847 18.1587C30.9254 18.103 30.9131 18.0248 30.8573 17.9841C30.8324 17.9659 30.8083 17.9477 30.7852 17.9294C30.8342 17.924 30.8848 17.917 30.9367 17.9082C31.0048 17.8966 31.0506 17.832 31.039 17.7639C31.0274 17.6959 30.9628 17.6501 30.8947 17.6617C30.8535 17.6687 30.8133 17.6745 30.7742 17.679C30.8137 17.6295 30.8487 17.5811 30.8798 17.5344C30.918 17.477 30.9025 17.3994 30.8451 17.3611C30.7876 17.3228 30.71 17.3383 30.6717 17.3958C30.655 17.4209 30.6369 17.4467 30.6174 17.473C30.6109 17.4228 30.6031 17.3755 30.5944 17.3311Z" fill="#FFC21A"/>
<path d="M25.8654 17.771C25.8522 17.7032 25.7865 17.659 25.7187 17.6723C25.651 17.6855 25.6068 17.7511 25.62 17.8189C25.6269 17.8541 25.6332 17.8915 25.6386 17.9311C25.6186 17.9026 25.6002 17.8749 25.5833 17.8482C25.5463 17.7899 25.4691 17.7725 25.4108 17.8095C25.3525 17.8464 25.3351 17.9236 25.3721 17.9819C25.396 18.0198 25.4225 18.0592 25.4519 18.0999C25.4251 18.0947 25.3994 18.0891 25.3747 18.0833C25.3075 18.0673 25.2401 18.1088 25.2241 18.1759C25.2081 18.2431 25.2496 18.3105 25.3168 18.3265C25.3546 18.3355 25.3945 18.3439 25.4364 18.3513C25.4177 18.3647 25.3985 18.3781 25.3788 18.3914C25.3216 18.4301 25.3065 18.5078 25.3452 18.565C25.3838 18.6222 25.4615 18.6372 25.5187 18.5986C25.558 18.572 25.5954 18.5453 25.6311 18.5184C25.6265 18.5487 25.6211 18.5796 25.615 18.6111C25.6018 18.6788 25.6461 18.7445 25.7139 18.7576C25.7816 18.7708 25.8472 18.7265 25.8604 18.6588C25.8677 18.6211 25.874 18.5842 25.8794 18.5481C25.9118 18.5742 25.9456 18.6002 25.981 18.626C26.0368 18.6667 26.115 18.6545 26.1557 18.5987C26.1963 18.5429 26.1841 18.4647 26.1283 18.424C26.1034 18.4059 26.0793 18.3876 26.0562 18.3693C26.1052 18.364 26.1558 18.357 26.2077 18.3481C26.2758 18.3365 26.3216 18.2719 26.31 18.2039C26.2984 18.1358 26.2338 18.0901 26.1657 18.1017C26.1245 18.1087 26.0843 18.1144 26.0452 18.119C26.0847 18.0694 26.1197 18.021 26.1507 17.9744C26.189 17.9169 26.1735 17.8393 26.1161 17.801C26.0586 17.7627 25.981 17.7783 25.9427 17.8357C25.926 17.8608 25.9079 17.8866 25.8884 17.9129C25.8819 17.8627 25.8741 17.8154 25.8654 17.771Z" fill="#FFC21A"/>
<path d="M28.6129 20.186C28.5997 20.1183 28.5341 20.0741 28.4663 20.0873C28.3985 20.1005 28.3543 20.1662 28.3676 20.2339C28.3745 20.2692 28.3808 20.3066 28.3862 20.3461C28.3661 20.3176 28.3478 20.2899 28.3308 20.2632C28.2939 20.2049 28.2167 20.1876 28.1584 20.2245C28.1 20.2614 28.0827 20.3387 28.1196 20.397C28.1436 20.4348 28.1701 20.4743 28.1995 20.5149C28.1727 20.5098 28.1469 20.5042 28.1222 20.4983C28.0551 20.4823 27.9877 20.5238 27.9717 20.5909C27.9557 20.6581 27.9972 20.7255 28.0643 20.7415C28.1022 20.7505 28.1421 20.7589 28.184 20.7663C28.1653 20.7797 28.1461 20.7931 28.1263 20.8065C28.0691 20.8451 28.0541 20.9228 28.0927 20.98C28.1314 21.0372 28.2091 21.0523 28.2663 21.0136C28.3056 20.9871 28.343 20.9603 28.3787 20.9335C28.374 20.9637 28.3687 20.9946 28.3625 21.0261C28.3494 21.0939 28.3936 21.1595 28.4614 21.1727C28.5292 21.1858 28.5948 21.1416 28.608 21.0738C28.6153 21.0362 28.6216 20.9993 28.627 20.9632C28.6593 20.9892 28.6931 21.0152 28.7286 21.0411C28.7844 21.0818 28.8626 21.0695 28.9032 21.0137C28.9439 20.9579 28.9317 20.8798 28.8759 20.8391C28.8509 20.8209 28.8269 20.8026 28.8037 20.7843C28.8528 20.779 28.9033 20.772 28.9553 20.7631C29.0234 20.7515 29.0691 20.687 29.0575 20.6189C29.0459 20.5509 28.9813 20.5051 28.9133 20.5167C28.872 20.5237 28.8319 20.5295 28.7928 20.534C28.8323 20.4844 28.8672 20.436 28.8983 20.3894C28.9366 20.332 28.9211 20.2544 28.8636 20.2161C28.8062 20.1778 28.7286 20.1933 28.6903 20.2507C28.6735 20.2759 28.6555 20.3017 28.6359 20.328C28.6295 20.2778 28.6216 20.2305 28.6129 20.186Z" fill="#FFC21A"/>
<path d="M24.4606 21.481C24.4474 21.4132 24.3817 21.369 24.314 21.3822C24.2462 21.3955 24.202 21.4611 24.2152 21.5289C24.2221 21.5641 24.2284 21.6015 24.2338 21.641C24.2138 21.6126 24.1954 21.5849 24.1785 21.5581C24.1416 21.4998 24.0643 21.4825 24.006 21.5194C23.9477 21.5564 23.9304 21.6336 23.9673 21.6919C23.9912 21.7297 24.0177 21.7692 24.0472 21.8099C24.0203 21.8047 23.9946 21.7991 23.9699 21.7932C23.9027 21.7772 23.8353 21.8187 23.8193 21.8859C23.8034 21.953 23.8448 22.0204 23.912 22.0364C23.9498 22.0454 23.9897 22.0538 24.0317 22.0612C24.013 22.0746 23.9937 22.088 23.974 22.1014C23.9168 22.14 23.9017 22.2177 23.9404 22.275C23.979 22.3322 24.0567 22.3472 24.1139 22.3085C24.1532 22.282 24.1907 22.2552 24.2263 22.2284C24.2217 22.2586 24.2163 22.2895 24.2102 22.321C24.197 22.3888 24.2413 22.4544 24.3091 22.4676C24.3768 22.4807 24.4424 22.4365 24.4556 22.3687C24.4629 22.3311 24.4692 22.2942 24.4747 22.2581C24.507 22.2842 24.5408 22.3102 24.5762 22.336C24.632 22.3767 24.7102 22.3644 24.7509 22.3086C24.7916 22.2529 24.7793 22.1747 24.7235 22.134C24.6986 22.1158 24.6746 22.0976 24.6514 22.0793C24.7004 22.0739 24.751 22.0669 24.803 22.0581C24.871 22.0465 24.9168 21.9819 24.9052 21.9138C24.8936 21.8458 24.829 21.8 24.7609 21.8116C24.7197 21.8187 24.6795 21.8244 24.6405 21.8289C24.68 21.7794 24.7149 21.731 24.746 21.6843C24.7843 21.6269 24.7687 21.5493 24.7113 21.511C24.6539 21.4727 24.5762 21.4882 24.538 21.5457C24.5212 21.5708 24.5031 21.5966 24.4836 21.6229C24.4771 21.5727 24.4693 21.5254 24.4606 21.481Z" fill="#FFC21A"/>
<path d="M31.2003 9.1958C31.1871 9.12804 31.1215 9.08384 31.0537 9.09707C30.986 9.1103 30.9417 9.17595 30.955 9.2437C30.9619 9.27895 30.9682 9.31633 30.9736 9.35587C30.9535 9.32741 30.9352 9.29971 30.9182 9.27298C30.8813 9.21466 30.8041 9.19732 30.7458 9.23426C30.6874 9.2712 30.6701 9.34842 30.707 9.40674C30.731 9.44457 30.7575 9.48403 30.7869 9.52471C30.7601 9.51954 30.7343 9.51395 30.7096 9.50807C30.6425 9.49208 30.5751 9.53356 30.5591 9.60071C30.5431 9.66787 30.5846 9.73528 30.6517 9.75127C30.6896 9.76028 30.7295 9.76866 30.7714 9.77607C30.7527 9.78949 30.7335 9.80288 30.7137 9.81624C30.6565 9.85489 30.6415 9.93259 30.6801 9.9898C30.7188 10.047 30.7965 10.062 30.8537 10.0234C30.893 9.99683 30.9304 9.97008 30.9661 9.94322C30.9614 9.97349 30.9561 10.0044 30.9499 10.0359C30.9368 10.1036 30.981 10.1693 31.0488 10.1824C31.1166 10.1956 31.1822 10.1513 31.1954 10.0836C31.2027 10.0459 31.209 10.0091 31.2144 9.97293C31.2467 9.999 31.2805 10.025 31.316 10.0508C31.3718 10.0915 31.45 10.0793 31.4906 10.0235C31.5313 9.96771 31.5191 9.88952 31.4633 9.84884C31.4383 9.83066 31.4143 9.8124 31.3911 9.79411C31.4402 9.78877 31.4907 9.78177 31.5427 9.77291C31.6108 9.76131 31.6565 9.69674 31.6449 9.62868C31.6333 9.56063 31.5687 9.51486 31.5007 9.52646C31.4594 9.5335 31.4193 9.53922 31.3802 9.54376C31.4197 9.49421 31.4546 9.44581 31.4857 9.39918C31.524 9.34174 31.5085 9.26414 31.451 9.22584C31.3936 9.18755 31.316 9.20307 31.2777 9.26051C31.261 9.28563 31.2429 9.31142 31.2233 9.33775C31.2169 9.28754 31.209 9.24022 31.2003 9.1958Z" fill="#FFC21A"/>
<path d="M33.4606 6.45068C33.4474 6.38292 33.3817 6.33872 33.314 6.35195C33.2462 6.36518 33.202 6.43083 33.2152 6.49859C33.2221 6.53383 33.2284 6.57122 33.2338 6.61076C33.2138 6.58229 33.1954 6.5546 33.1785 6.52786C33.1416 6.46954 33.0643 6.4522 33.006 6.48914C32.9477 6.52608 32.9304 6.6033 32.9673 6.66162C32.9912 6.69945 33.0177 6.73891 33.0472 6.7796C33.0203 6.77442 32.9946 6.76883 32.9699 6.76295C32.9027 6.74696 32.8353 6.78844 32.8193 6.8556C32.8034 6.92276 32.8448 6.99016 32.912 7.00615C32.9498 7.01516 32.9897 7.02354 33.0317 7.03095C33.013 7.04437 32.9937 7.05777 32.974 7.07112C32.9168 7.10977 32.9017 7.18748 32.9404 7.24468C32.979 7.30188 33.0567 7.31692 33.1139 7.27827C33.1532 7.25171 33.1907 7.22496 33.2263 7.19811C33.2217 7.22838 33.2163 7.25926 33.2102 7.29076C33.197 7.35853 33.2413 7.42414 33.3091 7.4373C33.3768 7.45047 33.4424 7.40621 33.4556 7.33844C33.4629 7.30081 33.4692 7.26393 33.4747 7.22781C33.507 7.25388 33.5408 7.27989 33.5762 7.30573C33.632 7.3464 33.7102 7.33416 33.7509 7.27837C33.7916 7.22259 33.7793 7.1444 33.7235 7.10373C33.6986 7.08554 33.6746 7.06728 33.6514 7.04899C33.7004 7.04365 33.751 7.03665 33.803 7.02779C33.871 7.01619 33.9168 6.95162 33.9052 6.88357C33.8936 6.81551 33.829 6.76975 33.7609 6.78135C33.7197 6.78838 33.6795 6.7941 33.6405 6.79865C33.68 6.74909 33.7149 6.7007 33.746 6.65407C33.7843 6.59663 33.7687 6.51902 33.7113 6.48072C33.6539 6.44243 33.5762 6.45795 33.538 6.51539C33.5212 6.54051 33.5031 6.5663 33.4836 6.59263C33.4771 6.54243 33.4693 6.49511 33.4606 6.45068Z" fill="#FFC21A"/>
<path d="M28.5069 23.4201C36.6669 26.5601 37.9299 18.19 33.2199 15.74C33.0719 15.66 32.9099 15.8 32.9489 15.96C33.5509 18.46 33.5169 21.2801 28.5119 23.0501C28.3369 23.1101 28.3339 23.3601 28.5069 23.4201Z" fill="#FFC21A"/>
<path fill-rule="evenodd" clip-rule="evenodd" d="M32.9055 2.38504C33.187 2.41817 33.4257 2.60713 33.5226 2.87346L41.5526 24.9434C41.6312 25.1593 41.6065 25.3992 41.4856 25.5946C41.3647 25.7899 41.1609 25.9191 40.9327 25.945C34.9336 26.6279 30.1496 26.3242 26.5944 25.657C23.0591 24.9935 20.6952 23.9619 19.5693 23.1477C19.2438 22.9122 19.1616 22.4621 19.3829 22.1268L32.1919 2.7168C32.348 2.48026 32.6241 2.35191 32.9055 2.38504ZM21.058 22.3119C22.1504 22.9138 24.0798 23.6589 26.8711 24.1828C30.0838 24.7857 34.4005 25.0879 39.8152 24.5553L32.6227 4.78721L21.058 22.3119Z" fill="#1A1A1A"/>
</svg>
