<svg width="48" height="55" viewBox="0 0 48 55" fill="none" xmlns="http://www.w3.org/2000/svg">
<path d="M43 20H5C2.23858 20 0 22.2386 0 25V46.1111C0 48.8725 2.23858 51.1111 5 51.1111H43C45.7614 51.1111 48 48.8725 48 46.1111V25C48 22.2386 45.7614 20 43 20Z" fill="#2C2C2C"/>
<path d="M10 24C11.1046 24 12 24.8954 12 26V29C12 30.1046 11.1046 31 10 31H5C3.89543 31 3 30.1046 3 29V26C3 24.8954 3.89543 24 5 24H10ZM21 24C22.1046 24 23 24.8954 23 26V29C23 30.1046 22.1046 31 21 31H16C14.8954 31 14 30.1046 14 29V26C14 24.8954 14.8954 24 16 24H21ZM32 24C33.1046 24 34 24.8954 34 26V29C34 30.1046 33.1046 31 32 31H27C25.8954 31 25 30.1046 25 29V26C25 24.8954 25.8954 24 27 24H32ZM43 24C44.1046 24 45 24.8954 45 26V29C45 30.1046 44.1046 31 43 31H38C36.8954 31 36 30.1046 36 29V26C36 24.8954 36.8954 24 38 24H43Z" fill="#FFD966"/>
<path d="M11.5 46C13.9866 46 15.9999 47.9574 16 50.3799C16 52.7937 13.9853 54.75 11.5 54.75C9.01467 54.75 7 52.7937 7 50.3799C7.00007 47.9574 9.01335 46 11.5 46Z" fill="#1A1A1A"/>
<path d="M37.5 46C39.9866 46 41.9999 47.9574 42 50.3799C42 52.7937 39.9853 54.75 37.5 54.75C35.0147 54.75 33 52.7937 33 50.3799C33.0001 47.9574 35.0134 46 37.5 46Z" fill="#1A1A1A"/>
<path d="M46.625 34.5H27.9268C23.784 34.5001 20.4268 37.8563 20.4268 42V49.9102H19.4268V42C19.4268 37.3039 23.2318 33.5001 27.9268 33.5H46.625V34.5Z" fill="#1E1E1E"/>
<path d="M46.5 25C46.5 23.067 44.933 21.5 43 21.5H5C3.067 21.5 1.5 23.067 1.5 25V46.1113C1.50013 48.0442 3.06708 49.6113 5 49.6113H43C44.9329 49.6113 46.4999 48.0442 46.5 46.1113V25ZM48 46.1113C47.9999 48.8726 45.7613 51.1113 43 51.1113H5C2.23866 51.1113 0.000131939 48.8726 0 46.1113V25C0 22.2386 2.23858 20 5 20H43C45.7614 20 48 22.2386 48 25V46.1113Z" fill="#1A1A1A"/>
<path d="M15.011 39.8984C15.3895 39.7302 15.833 39.9007 16.0012 40.2792C16.1693 40.6576 15.9989 41.1002 15.6207 41.2684L15.3353 41.3947C12.5241 42.6644 9.22181 42.054 7.04862 39.8687C6.75675 39.575 6.75835 39.0999 7.05198 38.8079C7.3457 38.5161 7.82074 38.5177 8.11275 38.8113C9.84664 40.5547 12.4813 41.0412 14.7223 40.0271L14.7266 40.0248L15.011 39.8984Z" fill="#D9D9D9"/>
<path d="M7.6658 35.3296C7.12051 35.4172 6.74951 35.9303 6.83714 36.4756C6.92478 37.0209 7.43786 37.3919 7.98315 37.3043C8.52844 37.2166 8.89944 36.7036 8.8118 36.1583C8.72417 35.613 8.21109 35.242 7.6658 35.3296Z" fill="#D9D9D9"/>
<path d="M14.992 36.3291C15.5373 36.4167 15.9083 36.9298 15.8206 37.4751C15.733 38.0204 15.2199 38.3914 14.6746 38.3037C14.1293 38.2161 13.7583 37.703 13.846 37.1577C13.9336 36.6125 14.4467 36.2415 14.992 36.3291Z" fill="#D9D9D9"/>
</svg>
