<svg width="48" height="55" viewBox="0 0 48 55" fill="none" xmlns="http://www.w3.org/2000/svg">
<path d="M43 20H5C2.23858 20 0 22.2386 0 25V46.1111C0 48.8725 2.23858 51.1111 5 51.1111H43C45.7614 51.1111 48 48.8725 48 46.1111V25C48 22.2386 45.7614 20 43 20Z" fill="#B3B3B3"/>
<path d="M1 40.1001H47V46.0001C47 48.2101 45.209 50.0001 43 50.0001H5C2.791 50.0001 1 48.2101 1 46.0001V40.1001Z" fill="#E6E6E6"/>
<path d="M46.864 40H1V45.11C1 47.87 3.239 50.11 6 50.11H27.406C25.529 49.88 21.996 48.2601 21.996 46.1801C21.996 42.6301 38.501 40.18 46.864 40Z" fill="#007BE5"/>
<path d="M46.8635 39.2803H1V40.2803H46.8635V39.2803Z" fill="#FFCD29"/>
<path d="M11.5 46C13.9866 46 15.9999 47.9574 16 50.3799C16 52.7937 13.9853 54.75 11.5 54.75C9.01467 54.75 7 52.7937 7 50.3799C7.00007 47.9574 9.01335 46 11.5 46Z" fill="#1A1A1A"/>
<path d="M37.5 46C39.9866 46 41.9999 47.9574 42 50.3799C42 52.7937 39.9853 54.75 37.5 54.75C35.0147 54.75 33 52.7937 33 50.3799C33.0001 47.9574 35.0134 46 37.5 46Z" fill="#1A1A1A"/>
<path d="M46.5 25C46.5 23.067 44.933 21.5 43 21.5H5C3.067 21.5 1.5 23.067 1.5 25V46.1113C1.50013 48.0442 3.06708 49.6113 5 49.6113H43C44.9329 49.6113 46.4999 48.0442 46.5 46.1113V25ZM48 46.1113C47.9999 48.8726 45.7613 51.1113 43 51.1113H5C2.23866 51.1113 0.000131939 48.8726 0 46.1113V25C0 22.2386 2.23858 20 5 20H43C45.7614 20 48 22.2386 48 25V46.1113Z" fill="#1A1A1A"/>
<path d="M23 25C24.1046 25 25 25.8954 25 27V32.6553C24.9999 33.7598 24.1045 34.6553 23 34.6553H18C16.8955 34.6553 16.0001 33.7598 16 32.6553V27C16 25.8954 16.8954 25 18 25H23ZM33 25C34.1046 25 35 25.8954 35 27V32.6553C34.9999 33.7598 34.1045 34.6553 33 34.6553H28C26.8955 34.6553 26.0001 33.7598 26 32.6553V27C26 25.8954 26.8954 25 28 25H33ZM43 25C44.1046 25 45 25.8954 45 27V32.6553C44.9999 33.7598 44.1045 34.6553 43 34.6553H38C36.8955 34.6553 36.0001 33.7598 36 32.6553V27C36 25.8954 36.8954 25 38 25H43Z" fill="#2C2C2C"/>
<path d="M12.2242 35.3784C12.6027 35.2102 13.0462 35.3806 13.2144 35.7592C13.3824 36.1376 13.2121 36.5801 12.8338 36.7484L12.5484 36.8746C9.73719 38.1444 6.43495 37.534 4.26175 35.3487C3.96988 35.055 3.97148 34.5799 4.26512 34.2879C4.55884 33.996 5.03387 33.9976 5.32588 34.2913C7.05977 36.0346 9.69444 36.5212 11.9354 35.5071L11.9398 35.5048L12.2242 35.3784Z" fill="#1A1A1A"/>
<path d="M4.87869 30.8194C4.3334 30.907 3.9624 31.4201 4.05003 31.9654C4.13767 32.5106 4.65075 32.8816 5.19604 32.794C5.74133 32.7064 6.11233 32.1933 6.02469 31.648C5.93706 31.1027 5.42398 30.7317 4.87869 30.8194Z" fill="#1A1A1A"/>
<path d="M12.2049 31.8188C12.7502 31.9065 13.1212 32.4195 13.0335 32.9648C12.9459 33.5101 12.4328 33.8811 11.8875 33.7935C11.3422 33.7059 10.9712 33.1928 11.0589 32.6475C11.1465 32.1022 11.6596 31.7312 12.2049 31.8188Z" fill="#1A1A1A"/>
</svg>
