<svg width="48" height="55" viewBox="0 0 48 55" fill="none" xmlns="http://www.w3.org/2000/svg">
<path d="M43 20H5C2.23858 20 0 22.2386 0 25V46.1111C0 48.8725 2.23858 51.1111 5 51.1111H43C45.7614 51.1111 48 48.8725 48 46.1111V25C48 22.2386 45.7614 20 43 20Z" fill="#B3B3B3"/>
<path d="M24.6875 50H17.376V32C17.376 30.9 18.272 30 19.376 30H24.6875V50ZM30 30C31.105 30 32 30.9 32 32V50H24.6885V30H30Z" fill="#444444"/>
<path d="M11.5 46C13.9866 46 15.9999 47.9574 16 50.3799C16 52.7937 13.9853 54.75 11.5 54.75C9.01467 54.75 7 52.7937 7 50.3799C7.00007 47.9574 9.01335 46 11.5 46Z" fill="#1A1A1A"/>
<path d="M37.5 46C39.9866 46 41.9999 47.9574 42 50.3799C42 52.7937 39.9853 54.75 37.5 54.75C35.0147 54.75 33 52.7937 33 50.3799C33.0001 47.9574 35.0134 46 37.5 46Z" fill="#1A1A1A"/>
<path d="M22.8018 32.5703C23.3539 32.5704 23.8018 33.0181 23.8018 33.5703V42.002C23.8018 42.5542 23.3539 43.0018 22.8018 43.002H20.2822C19.7299 43.002 19.2822 42.5542 19.2822 42.002V33.5703C19.2822 33.018 19.7299 32.5703 20.2822 32.5703H22.8018ZM29.3535 32.5703C29.9058 32.5703 30.3535 33.018 30.3535 33.5703V42.002C30.3535 42.5542 29.9058 43.0019 29.3535 43.002H26.834C26.2817 43.002 25.834 42.5542 25.834 42.002V33.5703C25.834 33.018 26.2817 32.5703 26.834 32.5703H29.3535ZM42 31C43.1046 31 44 31.8954 44 33V38.6553C43.9999 39.7598 43.1045 40.6553 42 40.6553H37C35.8955 40.6553 35.0001 39.7598 35 38.6553V33C35 31.8954 35.8954 31 37 31H42Z" fill="#E3ECF2"/>
<path d="M43.9912 36.5H35V35.5H43.9912V36.5ZM47 27.8887H1V27H47V27.8887ZM47 25.999H1V25.1104H47V25.999ZM47 24.1094H1V23.2197H47V24.1094ZM46 22.2188H2V21.3301H46V22.2188Z" fill="#757575"/>
<path d="M46.5 25C46.5 23.067 44.933 21.5 43 21.5H5C3.067 21.5 1.5 23.067 1.5 25V46.1113C1.50013 48.0442 3.06708 49.6113 5 49.6113H43C44.9329 49.6113 46.4999 48.0442 46.5 46.1113V25ZM48 46.1113C47.9999 48.8726 45.7613 51.1113 43 51.1113H5C2.23866 51.1113 0.000131939 48.8726 0 46.1113V25C0 22.2386 2.23858 20 5 20H43C45.7614 20 48 22.2386 48 25V46.1113Z" fill="#1A1A1A"/>
<path d="M13.3868 38.5684C13.7653 38.4001 14.2088 38.5706 14.377 38.9491C14.545 39.3275 14.3747 39.7701 13.9964 39.9383L13.711 40.0646C10.8998 41.3343 7.59754 40.7239 5.42435 38.5386C5.13248 38.2449 5.13408 37.7699 5.42771 37.4779C5.72144 37.186 6.19647 37.1876 6.48848 37.4812C8.22237 39.2246 10.857 39.7112 13.098 38.697L13.1024 38.6948L13.3868 38.5684Z" fill="#1A1A1A"/>
<path d="M6.04177 34.0093C5.49648 34.0969 5.12548 34.61 5.21312 35.1553C5.30075 35.7006 5.81383 36.0716 6.35912 35.984C6.90441 35.8963 7.27541 35.3832 7.18778 34.8379C7.10015 34.2927 6.58706 33.9217 6.04177 34.0093Z" fill="#1A1A1A"/>
<path d="M13.3679 35.0088C13.9132 35.0964 14.2842 35.6095 14.1966 36.1548C14.109 36.7001 13.5959 37.0711 13.0506 36.9834C12.5053 36.8958 12.1343 36.3827 12.2219 35.8374C12.3096 35.2921 12.8227 34.9211 13.3679 35.0088Z" fill="#1A1A1A"/>
</svg>
