<svg width="48" height="55" viewBox="0 0 48 55" fill="none" xmlns="http://www.w3.org/2000/svg">
<path d="M43 20H5C2.23858 20 0 22.2386 0 25V46.1111C0 48.8725 2.23858 51.1111 5 51.1111H43C45.7614 51.1111 48 48.8725 48 46.1111V25C48 22.2386 45.7614 20 43 20Z" fill="#D9D9D9"/>
<path d="M31 31C32.1046 31 33 31.8954 33 33V38.6553C32.9999 39.7598 32.1045 40.6553 31 40.6553H26C24.8955 40.6553 24.0001 39.7598 24 38.6553V33C24 31.8954 24.8954 31 26 31H31ZM42 31C43.1046 31 44 31.8954 44 33V38.6553C43.9999 39.7598 43.1045 40.6553 42 40.6553H37C35.8955 40.6553 35.0001 39.7598 35 38.6553V33C35 31.8954 35.8954 31 37 31H42Z" fill="#F1F5F8"/>
<path d="M47 46C47 48.21 45.2091 50 43 50H5C2.79086 50 1 48.21 1 46V43H47V46ZM47 24V27.8887H1V24H47Z" fill="#DC3412"/>
<path d="M11.5 46C13.9868 46 15.9999 47.9575 16 50.3799C16 52.7937 13.9854 54.75 11.5 54.75C9.01454 54.75 7 52.7937 7 50.3799C7.00007 47.9575 9.01322 46 11.5 46Z" fill="#1A1A1A"/>
<path d="M37.5 46C39.9868 46 41.9999 47.9575 42 50.3799C42 52.7937 39.9854 54.75 37.5 54.75C35.0146 54.75 33 52.7937 33 50.3799C33.0001 47.9575 35.0132 46 37.5 46Z" fill="#1A1A1A"/>
<path d="M46.5 25C46.5 23.067 44.933 21.5 43 21.5H5C3.067 21.5 1.5 23.067 1.5 25V46.1113C1.50013 48.0442 3.06708 49.6113 5 49.6113H43C44.9329 49.6113 46.4999 48.0442 46.5 46.1113V25ZM48 46.1113C47.9999 48.8726 45.7613 51.1113 43 51.1113H5C2.23866 51.1113 0.000131939 48.8726 0 46.1113V25C0 22.2386 2.23858 20 5 20H43C45.7614 20 48 22.2386 48 25V46.1113Z" fill="#1A1A1A"/>
<path d="M14.9017 38.9971C15.2802 38.8289 15.7236 38.9993 15.8919 39.3778C16.0599 39.7562 15.8896 40.1988 15.5113 40.3671L15.2259 40.4933C12.4147 41.763 9.11244 41.1526 6.93925 38.9673C6.64737 38.6736 6.64897 38.1986 6.94261 37.9066C7.23633 37.6147 7.71136 37.6163 8.00337 37.9099C9.73726 39.6533 12.3719 40.1399 14.6129 39.1257L14.6173 39.1235L14.9017 38.9971Z" fill="#1A1A1A"/>
<path d="M14.9785 35.166C15.5238 35.2536 15.8948 35.7667 15.8072 36.312C15.7196 36.8573 15.2065 37.2283 14.6612 37.1407C14.1159 37.053 13.7449 36.5399 13.8325 35.9947C13.9202 35.4494 14.4333 35.0784 14.9785 35.166Z" fill="#1A1A1A"/>
<path d="M7.65237 34.1665C7.10708 34.2542 6.73608 34.7672 6.82371 35.3125C6.91135 35.8578 7.42443 36.2288 7.96972 36.1412C8.51501 36.0535 8.88601 35.5405 8.79838 34.9952C8.71074 34.4499 8.19766 34.0789 7.65237 34.1665Z" fill="#1A1A1A"/>
</svg>
