<svg width="48" height="55" viewBox="0 0 48 55" fill="none" xmlns="http://www.w3.org/2000/svg">
<path d="M6.64099 25.8216C6.64099 23.1601 8.87899 21 11.641 21H43C45.761 21 48 23.1601 48 25.8216V46.1784C48 48.8399 45.761 51 43 51H7.77802C3.48202 51 0 47.6441 0 43.4976V40.6239C0 38.0685 2.14701 36.0049 4.79601 36.0049C5.81501 36.0049 6.64099 35.2044 6.64099 34.2208V25.8216Z" fill="#9747FF"/>
<path d="M31 26C32.105 26 33 26.9 33 28V33.6602C32.9999 34.7601 32.105 35.6602 31 35.6602H26C24.895 35.6602 24.0001 34.7601 24 33.6602V28C24 26.9 24.895 26 26 26H31ZM42 26C43.105 26 44 26.9 44 28V33.6602C43.9999 34.7601 43.105 35.6602 42 35.6602H37C35.895 35.6602 35.0001 34.7601 35 33.6602V28C35 26.9 35.895 26 37 26H42ZM8.68555 26C9.79055 26 10.6855 26.9 10.6855 28V33.4502C10.6854 34.5501 9.79047 35.4502 8.68555 35.4502H6.24219L6.68555 26H8.68555Z" fill="#4B0D87"/>
<path d="M11.5 46C13.9866 46 15.9999 47.9574 16 50.3799C16 52.7937 13.9853 54.75 11.5 54.75C9.01467 54.75 7 52.7937 7 50.3799C7.00007 47.9574 9.01335 46 11.5 46Z" fill="#1A1A1A"/>
<path d="M37.5 46C39.9866 46 41.9999 47.9574 42 50.3799C42 52.7937 39.9853 54.75 37.5 54.75C35.0147 54.75 33 52.7937 33 50.3799C33.0001 47.9574 35.0134 46 37.5 46Z" fill="#1A1A1A"/>
<path d="M5.80273 41.999C6.20228 41.9992 6.52637 42.3232 6.52637 42.7227C6.52591 43.1218 6.20199 43.4452 5.80273 43.4453H1.72363C1.32447 43.4451 1.00144 43.1217 1.00098 42.7227C1.00098 42.3232 1.32419 41.9993 1.72363 41.999H5.80273ZM43.2773 41.999C43.6766 41.9995 44.001 42.3234 44.001 42.7227C44.0005 43.1215 43.6763 43.4448 43.2773 43.4453H24.7236C24.3245 43.4451 24.0014 43.1217 24.001 42.7227C24.001 42.3232 24.3242 41.9993 24.7236 41.999H43.2773ZM5.80273 38.999C6.20228 38.9992 6.52637 39.3232 6.52637 39.7227C6.52591 40.1218 6.20199 40.4452 5.80273 40.4453H1.72363C1.32447 40.4451 1.00144 40.1217 1.00098 39.7227C1.00098 39.3232 1.32419 38.9993 1.72363 38.999H5.80273ZM43.2773 38.999C43.6766 38.9995 44.001 39.3234 44.001 39.7227C44.0005 40.1215 43.6763 40.4448 43.2773 40.4453H24.7236C24.3245 40.4451 24.0014 40.1217 24.001 39.7227C24.001 39.3232 24.3242 38.9993 24.7236 38.999H43.2773Z" fill="#D9B8FF"/>
<path d="M46.5 25.25C46.5 23.3146 44.9331 21.75 43 21.75H10.9316C8.99868 21.7502 7.43164 23.3147 7.43164 25.25V32.8398C7.43164 35.3026 5.4345 37.3105 2.96582 37.3105C2.15433 37.3106 1.5 37.9666 1.5 38.7705V46.3604C1.5002 48.2956 3.06699 49.8604 5 49.8604H43C44.933 49.8604 46.4998 48.2956 46.5 46.3604V25.25ZM48 46.3604C47.9998 49.1247 45.7607 51.3604 43 51.3604H5C2.23925 51.3604 0.000197729 49.1247 0 46.3604V38.7705C0 37.1346 1.32948 35.8106 2.96582 35.8105C4.60314 35.8105 5.93164 34.4771 5.93164 32.8398V25.25C5.93164 22.4856 8.17094 20.2502 10.9316 20.25H43C45.7609 20.25 48 22.4854 48 25.25V46.3604Z" fill="#1A1A1A"/>
<path d="M20.7239 37.3784C21.1024 37.2102 21.5459 37.3806 21.7141 37.7592C21.8822 38.1376 21.7118 38.5801 21.3336 38.7484L21.0482 38.8746C18.2369 40.1444 14.9347 39.534 12.7615 37.3487C12.4696 37.055 12.4712 36.5799 12.7649 36.2879C13.0586 35.996 13.5336 35.9976 13.8256 36.2913C15.5595 38.0346 18.1942 38.5212 20.4352 37.5071L20.4395 37.5048L20.7239 37.3784Z" fill="#1A1A1A"/>
<path d="M13.3787 32.8194C12.8334 32.907 12.4624 33.4201 12.55 33.9654C12.6377 34.5106 13.1507 34.8816 13.696 34.794C14.2413 34.7064 14.6123 34.1933 14.5247 33.648C14.4371 33.1027 13.924 32.7317 13.3787 32.8194Z" fill="#1A1A1A"/>
<path d="M20.7049 33.8188C21.2502 33.9065 21.6212 34.4195 21.5335 34.9648C21.4459 35.5101 20.9328 35.8811 20.3875 35.7935C19.8422 35.7059 19.4712 35.1928 19.5589 34.6475C19.6465 34.1022 20.1596 33.7312 20.7049 33.8188Z" fill="#1A1A1A"/>
</svg>
