<svg width="48" height="55" viewBox="0 0 48 55" fill="none" xmlns="http://www.w3.org/2000/svg">
<path d="M26.4536 30.668C30.2646 30.668 34.0993 32.8093 37.0073 36.0732C39.9112 39.3322 41.7992 43.6118 41.7993 47.7217C41.7993 48.2467 41.8117 48.7434 41.8237 49.1904C41.8287 49.4052 41.8334 49.608 41.8364 49.7979C41.8474 50.4029 41.8407 50.8851 41.7847 51.2871C41.7297 51.6828 41.6326 51.9627 41.4888 52.1807C41.3488 52.3917 41.1313 52.5952 40.7563 52.7822C39.9623 53.1781 38.5779 53.4523 36.1362 53.6123C33.7223 53.7703 30.3831 53.8125 25.7563 53.8125C24.7864 53.8125 23.8514 53.7226 22.9575 53.5537L17.437 53.9619C16.5062 54.0304 15.6706 53.5422 15.2437 52.7881C14.6945 52.8733 14.1283 52.9209 13.5493 52.9209C8.48661 52.9208 4.46649 51.0709 4.46631 46.8662C4.46631 45.4707 5.64232 42.9054 7.521 40.8418C7.41652 40.5869 7.32876 40.315 7.26221 40.0283C7.00927 38.9386 7.11663 37.8975 7.46143 37.1025C7.80633 36.3088 8.36168 35.8047 9.00244 35.6445C9.64344 35.4845 10.3601 35.6728 11.0151 36.2178C11.484 36.6074 11.9 37.1665 12.1919 37.8516C12.6341 37.7499 13.0875 37.6953 13.5493 37.6953C13.9561 37.6953 14.3567 37.7191 14.7495 37.7617C15.2701 37.0921 15.866 36.3989 16.5259 35.7197C19.1518 33.0198 22.6677 30.668 26.4536 30.668Z" fill="#F5DFA8"/>
<path d="M41.5825 41.8564C43.1495 41.1756 45.7247 41.4683 45.6997 43.1143C45.6806 44.3502 43.6111 44.7124 42.4311 44.8184C41.9641 44.8604 41.5556 44.5371 41.4526 44.0801L41.1645 42.8076C41.0775 42.4236 41.2215 42.0134 41.5825 41.8564ZM21.9927 38.7568C22.9447 38.7568 23.7173 39.5294 23.7173 40.4814C23.7172 41.4333 23.172 42.2049 22.2202 42.2051C21.2683 42.2051 20.8183 42.2051 20.2544 40.8887C19.8094 39.8498 21.0407 38.7571 21.9927 38.7568Z" fill="#FFC7C2"/>
<path d="M12.0864 41.5957C15.9996 41.5959 19.1721 44.1314 19.1724 47.2588C19.1724 47.9979 18.9927 48.7032 18.6704 49.3506L19.2612 49.3145L20.1753 53.5508L17.5396 53.9434C16.4136 54.1114 15.3832 53.4218 15.0542 52.4014C14.1513 52.7348 13.1463 52.9218 12.0864 52.9219C8.17287 52.9219 4.99951 50.3864 4.99951 47.2588C4.99976 44.1313 8.17302 41.5957 12.0864 41.5957ZM4.84326 48.915C5.29315 50.0351 6.12724 50.9041 7.23682 51.543L7.68506 53.0186L4.92432 53.4326C3.55752 53.6364 2.32879 52.5781 2.32861 51.1963C2.32861 50.0013 3.25872 49.0125 4.45166 48.9395L4.84326 48.915Z" fill="#FDEECE"/>
<path d="M26.4536 29.918C30.5412 29.9181 34.5655 32.2043 37.5679 35.5742C39.0542 37.2423 40.2895 39.176 41.1587 41.2285C41.1983 41.2069 41.2397 41.1867 41.2827 41.168L41.4604 41.0957C42.3621 40.7512 43.4748 40.6661 44.4067 40.8818C44.9079 40.998 45.4133 41.2144 45.8022 41.582C46.2095 41.9673 46.4591 42.4932 46.4497 43.125V43.126C46.4323 44.2452 45.4801 44.8145 44.771 45.0889C44.0045 45.3854 43.1081 45.5106 42.4976 45.5654C42.4615 45.5687 42.4257 45.5684 42.3901 45.5693C42.4942 46.2866 42.5503 47.0057 42.5503 47.7217C42.5503 48.236 42.5618 48.7238 42.5737 49.1699V49.1729L42.5864 49.7842C42.5975 50.3922 42.5926 50.9256 42.5278 51.3906C42.4632 51.8555 42.3399 52.2538 42.1147 52.5947L42.1138 52.5957C41.8897 52.9334 41.5636 53.2176 41.0913 53.4531C40.1486 53.9232 38.6264 54.2004 36.186 54.3604C33.7444 54.5202 30.382 54.5625 25.7573 54.5625C25.7002 54.5625 25.6433 54.5592 25.5864 54.5586C25.5445 54.5659 25.5016 54.5713 25.4575 54.5713H17.0503C16.2734 54.5713 15.5702 54.2593 15.0552 53.7559C14.5553 53.8049 14.0524 53.834 13.5503 53.834C13.2389 53.834 12.93 53.8262 12.6245 53.8125L4.87549 54.3848C3.09598 54.5156 1.57872 53.106 1.57861 51.3203C1.57906 49.9061 2.53846 48.7109 3.84912 48.3574C3.76368 47.9392 3.71729 47.4968 3.71729 47.0293C3.71745 46.2248 4.01992 45.2126 4.49463 44.1914C4.97806 43.1517 5.67386 42.0303 6.53369 40.9961C6.58938 40.9291 6.64727 40.8634 6.70459 40.7969C6.63835 40.6031 6.57956 40.4033 6.53174 40.1973C6.24573 38.9647 6.36056 37.7576 6.7749 36.8027C7.18971 35.8486 7.90382 35.1451 8.82178 34.916C9.74313 34.6863 10.698 34.9782 11.4937 35.6396H11.4946C11.9647 36.0303 12.3765 36.55 12.6948 37.1641C12.9756 37.1279 13.261 37.1084 13.5503 37.1084C13.7998 37.1084 14.0473 37.1166 14.2925 37.1318C14.7969 36.494 15.3642 35.8391 15.9878 35.1973L16.5024 34.6836C19.1313 32.1366 22.6222 29.9181 26.4536 29.918ZM26.4536 31.418C22.9689 31.4181 19.6357 33.598 17.063 36.2432C16.6992 36.6176 16.3566 36.9969 16.0356 37.373C17.0091 37.5843 17.9268 37.9166 18.7632 38.3525C19.1192 37.8352 19.6459 37.4416 20.2095 37.1719C21.1441 36.7249 22.3082 36.5459 23.4214 36.6836C24.6376 36.8344 25.4422 37.4468 25.8667 38.3174C26.264 39.1327 26.2881 40.0891 26.186 40.9111C26.0696 41.8515 25.5841 42.7733 24.8823 43.4346C24.1749 44.101 23.1934 44.5487 22.0923 44.4131C21.6813 44.3623 21.3893 43.9871 21.4399 43.5762C21.491 43.1654 21.865 42.873 22.2759 42.9238C22.841 42.9934 23.3964 42.7738 23.854 42.3428C24.317 41.9064 24.6269 41.2985 24.6978 40.7256C24.7835 40.0344 24.7327 39.4152 24.5181 38.9746C24.3303 38.5897 23.9828 38.2644 23.2368 38.1719C22.3867 38.0667 21.5141 38.2102 20.8569 38.5244C20.1884 38.8443 19.8637 39.2713 19.813 39.6787C19.7618 40.0893 19.3867 40.3816 18.9761 40.3311C18.6894 40.2953 18.4633 40.1008 18.3687 39.8477C17.009 39.0704 15.3498 38.6085 13.5503 38.6084C11.3448 38.6084 9.26464 40.0578 7.68701 41.9551C6.90941 42.8904 6.2835 43.9017 5.85498 44.8232C5.41812 45.7629 5.21747 46.5429 5.21729 47.0293C5.21729 48.8423 6.06109 50.1245 7.49756 50.9912C8.97431 51.882 11.0925 52.334 13.5503 52.334C13.7863 52.334 14.0222 52.3268 14.2573 52.3145C14.2161 52.1214 14.1939 51.9212 14.1938 51.7158C14.1938 50.1681 15.4267 48.9035 16.9731 48.8613L22.1646 48.7217C22.6822 47.9681 22.9672 47.1273 22.9673 46.2188C22.9676 45.8048 23.3033 45.4688 23.7173 45.4688C24.131 45.4691 24.467 45.805 24.4673 46.2188C24.4672 47.1264 24.2585 47.9612 23.895 48.7188C24.1929 48.8118 24.4136 49.0838 24.4224 49.4131C24.4328 49.8266 24.1065 50.1715 23.6929 50.1826L17.0142 50.3604L16.8784 50.3711C16.2081 50.4562 15.6938 51.0275 15.6938 51.7158C15.6943 52.4642 16.3018 53.0713 17.0503 53.0713H25.395L25.3892 53.0576C25.5112 53.0606 25.6341 53.0625 25.7573 53.0625C30.3856 53.0625 33.7014 53.0194 36.0874 52.8633C38.5305 52.7032 39.7772 52.4321 40.4224 52.1104C40.6992 51.9722 40.8079 51.8508 40.8638 51.7666C40.9263 51.6715 40.9963 51.5091 41.0415 51.1836C41.0887 50.8446 41.0983 50.4134 41.0874 49.8115V49.8096L41.0737 49.21C41.0617 48.7621 41.0503 48.2573 41.0503 47.7217C41.0502 43.8298 39.2538 39.7214 36.4478 36.5723C33.6343 33.4143 29.9879 31.4181 26.4536 31.418ZM4.3374 49.7812C3.61772 49.9268 3.07909 50.5627 3.07861 51.3203C3.07872 52.2341 3.85515 52.9553 4.76514 52.8887L7.49561 52.6865C7.22735 52.5607 6.96917 52.4248 6.72314 52.2764C5.68292 51.6488 4.85797 50.8177 4.3374 49.7812ZM44.0688 42.3428C43.3951 42.1867 42.5314 42.2657 41.896 42.5371C41.8934 42.5446 41.8913 42.557 41.8901 42.5732C41.8887 42.5929 41.8896 42.6162 41.895 42.6406L42.1841 43.9141V43.915C42.2114 44.0361 42.3022 44.0767 42.3638 44.0713C42.9331 44.0201 43.6619 43.9102 44.23 43.6904C44.8555 43.4484 44.9479 43.2191 44.9497 43.1025L44.9399 42.9707C44.9178 42.8488 44.8602 42.7553 44.772 42.6719C44.6361 42.5434 44.4038 42.4204 44.0688 42.3428ZM10.5356 36.793C10.0221 36.3658 9.5449 36.2825 9.18506 36.3721C8.82146 36.4629 8.42608 36.7676 8.15088 37.4004C7.90656 37.9634 7.79932 38.7155 7.93115 39.5391C8.88086 38.6867 9.97452 37.9637 11.1753 37.5332C10.9826 37.2333 10.7644 36.984 10.5356 36.7939V36.793Z" fill="#1A1A1A"/>
<path d="M2.27772 46.4188L4.48279 46.575C4.47272 46.6767 4.46717 46.7741 4.46717 46.866C4.4672 47.2976 4.51165 47.7042 4.59315 48.0867L2.17029 47.9149C1.75773 47.8856 1.44728 47.5267 1.47596 47.1141C1.50596 46.7011 1.86375 46.3898 2.27772 46.4188ZM19.6742 45.7733C20.0813 45.6981 20.4728 45.9668 20.5482 46.3738C20.6236 46.7811 20.3538 47.1724 19.9467 47.2479L17.0824 47.7781C16.6751 47.8535 16.2837 47.5839 16.2084 47.1766C16.1333 46.7695 16.402 46.379 16.809 46.3035L19.6742 45.7733ZM17.9691 42.9998C18.3159 42.7737 18.7798 42.8711 19.0062 43.2176C19.2323 43.5644 19.1351 44.0294 18.7885 44.2557L16.7787 45.5672C16.4318 45.7934 15.9669 45.6952 15.7406 45.3485C15.5144 45.0016 15.6117 44.5367 15.9584 44.3104L17.9691 42.9998ZM2.29139 43.8514C2.41339 43.4564 2.83386 43.2343 3.22986 43.3563L5.33729 44.0067C5.09336 44.4917 4.89667 44.9615 4.75233 45.3963L2.78651 44.7889C2.39094 44.6668 2.16894 44.2471 2.29139 43.8514Z" fill="#1A1A1A"/>
<path d="M10.1296 49.9415C10.8114 49.9415 11.3641 49.5449 11.3641 49.0557C11.3641 48.5665 10.8114 48.1699 10.1296 48.1699C9.4478 48.1699 8.89508 48.5665 8.89508 49.0557C8.89508 49.5449 9.4478 49.9415 10.1296 49.9415Z" fill="#1A1A1A"/>
<path d="M10.9399 45.534C11.2518 45.2757 11.7062 45.3286 11.9553 45.6521C12.0671 45.7973 12.2523 45.9396 12.4174 45.9743C12.4854 45.9886 12.5506 45.9847 12.6235 45.9548C12.7002 45.9233 12.8248 45.8458 12.9801 45.6473C13.2317 45.3257 13.6875 45.2769 13.9974 45.5379C14.307 45.7989 14.3542 46.271 14.1028 46.5924C13.5231 47.3335 12.8134 47.5873 12.1303 47.4438C11.526 47.3167 11.0697 46.9041 10.826 46.5875C10.577 46.2639 10.628 45.7924 10.9399 45.534Z" fill="#1A1A1A"/>
<path d="M9.74458 45.534C9.43269 45.2757 8.97823 45.3286 8.72915 45.6521C8.61736 45.7973 8.43214 45.9396 8.26708 45.9743C8.19903 45.9886 8.13387 45.9847 8.06099 45.9548C7.98427 45.9233 7.85964 45.8458 7.70432 45.6473C7.45279 45.3257 6.99695 45.2769 6.68701 45.5379C6.37746 45.7989 6.33021 46.271 6.58161 46.5924C7.16135 47.3335 7.87107 47.5873 8.55411 47.4438C9.15849 47.3167 9.61474 46.9041 9.85845 46.5875C10.1074 46.2639 10.0564 45.7924 9.74458 45.534Z" fill="#1A1A1A"/>
</svg>
