<svg width="48" height="55" viewBox="0 0 48 55" fill="none" xmlns="http://www.w3.org/2000/svg">
<path d="M25.1211 30.6221C28.9321 30.6221 32.7668 32.7634 35.6748 36.0273C37.9274 38.5553 39.5675 41.6977 40.1904 44.8984L40.2559 44.834C40.5385 44.55 40.6672 44.1478 40.6025 43.752L40.2861 41.8154C40.8852 41.9314 41.682 42.1103 42.5039 42.3613C43.3442 42.6193 44.1834 42.9449 44.8604 43.3428C45.5168 43.7288 45.9333 44.1334 46.1162 44.5264C46.9667 49.6442 43.9103 51.9212 43.3711 52.3232L43.3691 52.3242C41.9816 53.3581 39.8833 53.7605 37.5596 53.7715C36.528 53.7764 35.4785 53.7008 34.4668 53.585C32.0817 53.7258 28.8391 53.7666 24.4238 53.7666C23.4539 53.7666 22.5189 53.6767 21.625 53.5078L16.1045 53.916C15.174 53.9845 14.3382 53.4969 13.9111 52.7432C13.362 52.8284 12.7957 52.875 12.2168 52.875C11.9764 52.875 11.7383 52.8688 11.5029 52.8604L11.583 53.0439L3.49609 53.6416C2.15123 53.7404 1.00391 52.6751 1.00391 51.3262C1.004 50.0713 2.00192 49.0439 3.25586 49.0049L3.56348 48.9951C3.28529 48.3553 3.13383 47.632 3.13379 46.8203C3.13379 45.4486 4.26907 42.9461 6.0918 40.9014L6.19336 40.79C6.08987 40.5367 6.00258 40.2669 5.93652 39.9824C5.73074 39.0965 5.81871 38.415 6.05859 37.832C6.30684 37.2302 6.73907 36.6824 7.30762 36.1016C7.57658 35.8266 7.95187 35.7235 8.27734 35.8145C9.02168 36.0234 9.63285 36.3162 10.1055 36.75C10.3999 37.0206 10.6566 37.3624 10.8594 37.8057C10.8519 37.8074 10.8444 37.8088 10.8369 37.8105C11.2863 37.7056 11.7471 37.6494 12.2168 37.6494C12.6236 37.6494 13.0242 37.6732 13.417 37.7158C13.9376 37.0462 14.5334 36.353 15.1934 35.6738C17.8193 32.9739 21.3352 30.6221 25.1211 30.6221ZM7.79883 39.3086C7.73802 39.3549 7.67809 39.4025 7.61816 39.4502C7.67811 39.4025 7.738 39.3549 7.79883 39.3086ZM8.13281 39.0664C8.08217 39.1019 8.03152 39.1374 7.98145 39.1738C8.03154 39.1374 8.08215 39.1018 8.13281 39.0664ZM8.63477 38.7363C8.52693 38.8021 8.42004 38.87 8.31445 38.9404C8.42007 38.87 8.52689 38.802 8.63477 38.7363ZM9.02539 38.5117C8.93149 38.5626 8.83845 38.6154 8.74609 38.6699C8.83847 38.6155 8.93146 38.5625 9.02539 38.5117ZM9.44824 38.2998C9.34234 38.3494 9.23693 38.4006 9.13281 38.4551C9.23696 38.4007 9.34232 38.3494 9.44824 38.2998ZM9.80273 38.1436C9.70744 38.1824 9.61253 38.2227 9.51855 38.2656C9.61254 38.2228 9.70742 38.1824 9.80273 38.1436Z" fill="#757575"/>
<path d="M40.4292 41.1255C41.0458 41.2449 41.8685 41.4302 42.7222 41.6909H42.7231C43.5922 41.9575 44.4932 42.3042 45.2407 42.7437C45.8635 43.1102 46.3759 43.5397 46.6792 44.0386L46.7964 44.2563L46.8394 44.3491L46.856 44.4497C47.3102 47.1853 46.7231 49.2095 45.9146 50.6138C45.1132 52.0051 44.1174 52.7492 43.8198 52.9712L43.7622 53.0132L43.7466 53.02C42.1656 54.1607 39.9015 54.5568 37.563 54.5679C35.191 54.5792 32.7429 54.1974 30.8628 53.8052H30.8618C28.8783 53.3892 27.5564 51.5929 27.5562 49.562C27.5562 46.7225 30.0813 44.5489 32.8882 44.9673L37.2495 45.6177H37.2505C37.8302 45.7047 38.4166 45.5464 38.8716 45.187L39.0581 45.02L39.7241 44.3511C39.8366 44.2381 39.8876 44.0783 39.8618 43.9204V43.9194L39.5464 41.9829L39.3726 40.9214L40.4292 41.1255ZM10.9468 40.2388C15.536 40.2388 19.2563 43.149 19.2563 46.7388C19.2563 47.6087 19.0356 48.4375 18.6392 49.1958L15.8618 49.2808C14.6081 49.3189 13.611 50.3463 13.6108 51.6001C13.6108 52.0407 13.7354 52.45 13.9468 52.7993C13.016 53.0814 12.0048 53.2388 10.9468 53.2388C6.35758 53.2388 2.63746 50.3285 2.63721 46.7388C2.63721 43.1489 6.35743 40.2388 10.9468 40.2388Z" fill="#D9D9D9"/>
<path d="M36.2123 46.5684V53.5684L31.4095 52.8301L33.264 45.9062L36.2123 46.5684ZM43.8959 51.5928L39.3842 53.5098L38.0248 46.4014L40.2562 45.1025L43.8959 51.5928ZM5.62927 43.9424C7.02958 43.5814 8.37996 43.8081 9.15857 44.4414C9.93716 43.8082 11.2877 43.5824 12.6879 43.9434C14.6468 44.4486 15.9632 45.9124 15.6283 47.2129C15.2929 48.5135 13.4324 49.1585 11.473 48.6533C10.5023 48.403 9.69002 47.9165 9.15759 47.332C8.62514 47.9161 7.81426 48.4032 6.84411 48.6533C4.88487 49.1585 3.02439 48.5133 2.68884 47.2129C2.3539 45.9124 3.67013 44.4475 5.62927 43.9424ZM45.7562 44.1533V47.501L40.7904 44.1533L40.6205 42.5684L42.2562 42.4219L45.7562 44.1533Z" fill="#444444"/>
<path d="M25.1211 29.8721C29.2087 29.8722 33.233 32.1584 36.2354 35.5283C37.6584 37.1254 38.8501 38.9667 39.7119 40.9219L40.3311 40.9727L40.4609 40.9863L40.4668 40.9873C41.1254 41.0599 42.0082 41.1933 42.9092 41.4316L43.249 41.5264C44.0392 41.76 44.8235 42.0806 45.4639 42.5176C46.1968 43.0177 46.7399 43.6704 46.8877 44.5225L46.9658 45.0381C47.2965 47.5711 46.7098 49.3969 45.9482 50.6553C45.1823 51.9209 44.2429 52.6129 43.8721 52.8857L43.8711 52.8848C43.8509 52.8998 43.8169 52.9264 43.8164 52.9268C42.2332 54.1058 39.9345 54.5103 37.5625 54.5215C36.5179 54.5265 35.4592 54.4517 34.4404 54.3369C32.0365 54.4759 28.7943 54.5166 24.4248 54.5166C24.3677 54.5166 24.3108 54.5133 24.2539 54.5127C24.2119 54.52 24.169 54.5254 24.125 54.5254H15.7178C14.9409 54.5254 14.2377 54.2134 13.7227 53.71C13.2227 53.759 12.7199 53.7881 12.2178 53.7881C11.9064 53.7881 11.5975 53.7804 11.292 53.7666L3.54297 54.3389C1.76346 54.4697 0.246197 53.0601 0.246094 51.2744C0.246545 49.8606 1.20556 48.6664 2.51562 48.3125C2.42998 47.894 2.38379 47.4512 2.38379 46.9834C2.38397 46.1789 2.6874 45.1667 3.16211 44.1455C3.64554 43.1058 4.34134 41.9844 5.20117 40.9502C5.25849 40.8813 5.31791 40.8135 5.37695 40.7451C5.31151 40.5535 5.25333 40.3559 5.20605 40.1523C4.96685 39.1223 5.06338 38.2807 5.36523 37.5469L5.48828 37.2764C5.79665 36.6563 6.25248 36.1074 6.77148 35.5771C7.18715 35.1525 7.78643 34.9478 8.36328 35.0645L8.47852 35.0918L8.47949 35.0928C9.29263 35.321 10.0242 35.6584 10.6123 36.1982H10.6133C10.8938 36.4562 11.1385 36.7614 11.3457 37.1211C11.6319 37.0835 11.9227 37.0625 12.2178 37.0625C12.4673 37.0625 12.7148 37.0706 12.96 37.0859C13.4644 36.4481 14.0317 35.7932 14.6553 35.1514L15.1699 34.6377C17.7988 32.0907 21.2896 29.8722 25.1211 29.8721ZM29.3643 53.1074C29.326 53.0804 29.2883 53.0527 29.251 53.0244C29.2883 53.0527 29.326 53.0804 29.3643 53.1074ZM25.1211 31.3721C21.6364 31.3722 18.3032 33.5521 15.7305 36.1973C15.3667 36.5717 15.0241 36.951 14.7031 37.3271C15.7242 37.5492 16.6838 37.9052 17.5527 38.373C17.6336 38.2934 17.7193 38.2204 17.8076 38.1543C18.1948 37.8648 18.6799 37.6613 19.1729 37.5156C20.1633 37.2231 21.3689 37.111 22.4062 37.1172L22.6064 37.127C23.5351 37.2119 24.3631 37.8401 24.6045 38.7891L24.6475 38.9971L24.6865 39.2793C24.8585 40.7279 24.6869 42.7379 23.2002 44.2246C22.9073 44.5169 22.4323 44.5173 22.1396 44.2246C21.8473 43.9319 21.8475 43.4569 22.1396 43.1641C23.2312 42.0725 23.3609 40.486 23.165 39.2285L23.1348 39.1055C23.0504 38.8678 22.8351 38.6811 22.5469 38.6309L22.3965 38.6172C21.4485 38.6115 20.4009 38.7169 19.5977 38.9541C19.1946 39.0732 18.8961 39.2135 18.7061 39.3555C18.5224 39.493 18.4929 39.5894 18.4873 39.6338C18.4361 40.0443 18.062 40.3366 17.6514 40.2861C17.3663 40.2507 17.1417 40.0577 17.0459 39.8066C15.6845 39.0261 14.0215 38.5626 12.2178 38.5625C10.0123 38.5625 7.93212 40.0119 6.35449 41.9092C5.57689 42.8445 4.95098 43.8558 4.52246 44.7773C4.08562 45.717 3.88496 46.497 3.88477 46.9834C3.88478 48.7963 4.72861 50.0786 6.16504 50.9453C7.64179 51.8361 9.76001 52.2881 12.2178 52.2881C12.4538 52.2881 12.6896 52.2809 12.9248 52.2686C12.8835 52.0755 12.8614 51.8753 12.8613 51.6699C12.8613 50.1222 14.0942 48.8576 15.6406 48.8154L20.832 48.6758C21.3497 47.9221 21.6347 47.0814 21.6348 46.1729C21.6351 45.7589 21.9707 45.4229 22.3848 45.4229C22.7985 45.4232 23.1345 45.7591 23.1348 46.1729C23.1347 47.0805 22.926 47.9153 22.5625 48.6729C22.8604 48.7659 23.0811 49.0379 23.0898 49.3672C23.1003 49.7807 22.774 50.1256 22.3604 50.1367L15.6816 50.3145L15.5459 50.3252C14.8756 50.4103 14.3613 50.9816 14.3613 51.6699C14.3618 52.4183 14.9693 53.0254 15.7178 53.0254H24.0625L24.0566 53.0117C24.1787 53.0147 24.3015 53.0166 24.4248 53.0166C26.2069 53.0166 27.7943 53.0099 29.209 52.9932C29.2108 52.9946 29.213 52.9956 29.2148 52.9971C28.181 52.1949 27.5568 50.9107 27.5566 49.5156C27.5567 46.7652 29.925 44.6388 32.625 44.8887L32.8877 44.9209L37.25 45.5723C37.9124 45.6716 38.5843 45.4495 39.0576 44.9746L39.7236 44.3057C39.8365 44.1924 39.8878 44.0319 39.8623 43.874L39.376 40.8955L39.5518 40.9092L39.3721 40.875L39.8623 43.873C39.8881 44.0311 39.8365 44.1913 39.7236 44.3047L39.374 44.6553C38.7269 41.7377 37.2007 38.8669 35.1152 36.5264C32.3017 33.3684 28.6554 31.3722 25.1211 31.3721ZM41.3428 43.6318C41.4461 44.2655 41.2388 44.9098 40.7861 45.3643L40.1201 46.0332C39.3106 46.8456 38.1622 47.2251 37.0273 47.0547L32.666 46.4043C30.7651 46.1213 29.0567 47.5933 29.0566 49.5156C29.0568 50.9076 29.9476 52.0333 31.1689 52.29C32.9985 52.6718 35.3314 53.0321 37.5557 53.0215C39.8303 53.0107 41.7291 52.6114 42.9209 51.7236L42.9219 51.7227L42.9766 51.6816L43.4326 52.2891L43.4277 52.2812L42.9766 51.6816L42.9834 51.6777C43.3112 51.4365 44.0555 50.885 44.665 49.8779C45.2929 48.8403 45.8328 47.2195 45.4092 44.7793C45.3526 44.4534 45.1397 44.1117 44.6182 43.7559C44.0839 43.3914 43.3457 43.0991 42.5244 42.8809C42.0615 42.7585 41.5989 42.668 41.1738 42.5986L41.3428 43.6318ZM3.00488 49.7354C2.2852 49.881 1.74657 50.5168 1.74609 51.2744C1.7462 52.1882 2.52263 52.9094 3.43262 52.8428L6.16504 52.6406C5.89621 52.5146 5.63714 52.3792 5.39062 52.2305C4.35053 51.603 3.52573 50.7716 3.00488 49.7354ZM8.07422 36.5361C8.03419 36.5255 7.93711 36.5308 7.84375 36.626H7.84277C7.36721 37.1119 7.037 37.5307 6.83203 37.9424L6.75195 38.1182C6.60166 38.4837 6.52301 38.9135 6.60645 39.4863C7.54094 38.649 8.61441 37.9372 9.79199 37.5059C9.76922 37.4792 9.74692 37.4526 9.72363 37.4277L9.59766 37.3027C9.24054 36.9751 8.74952 36.7267 8.07422 36.5371V36.5361Z" fill="#1A1A1A"/>
<path d="M22.5904 41.0024C22.5904 41.7944 22.0454 42.4374 21.0934 42.4374C20.1414 42.4374 19.6914 42.4374 19.1274 41.3414C18.6814 40.4764 19.9144 39.5674 20.8664 39.5674C21.8184 39.5674 22.5904 40.2104 22.5904 41.0024Z" fill="#FFC7C2"/>
<path d="M8.79709 49.8956C9.4789 49.8956 10.0316 49.499 10.0316 49.0098C10.0316 48.5206 9.4789 48.124 8.79709 48.124C8.11528 48.124 7.56256 48.5206 7.56256 49.0098C7.56256 49.499 8.11528 49.8956 8.79709 49.8956Z" fill="#1A1A1A"/>
<path d="M9.54619 45.514C9.85808 45.2556 10.3125 45.3086 10.5616 45.6321C10.6734 45.7773 10.8586 45.9196 11.0237 45.9543C11.0917 45.9686 11.1569 45.9647 11.2298 45.9348C11.3065 45.9033 11.4311 45.8258 11.5865 45.6272C11.838 45.3057 12.2938 45.2569 12.6038 45.5179C12.9133 45.7789 12.9606 46.2509 12.7092 46.5724C12.1294 47.3135 11.4197 47.5673 10.7367 47.4238C10.1323 47.2966 9.67603 46.8841 9.43232 46.5675C9.18333 46.2439 9.23435 45.7724 9.54619 45.514Z" fill="#1A1A1A"/>
<path d="M8.3509 45.514C8.03901 45.2556 7.58455 45.3086 7.33548 45.6321C7.22368 45.7773 7.03846 45.9196 6.87341 45.9543C6.80535 45.9686 6.74019 45.9647 6.66731 45.9348C6.59059 45.9033 6.46596 45.8258 6.31064 45.6272C6.05911 45.3057 5.60327 45.2569 5.29333 45.5179C4.98378 45.7789 4.93654 46.2509 5.18793 46.5724C5.76768 47.3135 6.47739 47.5673 7.16043 47.4238C7.76481 47.2966 8.22106 46.8841 8.46477 46.5675C8.71376 46.2439 8.66275 45.7724 8.3509 45.514Z" fill="#1A1A1A"/>
</svg>
