<svg width="48" height="55" viewBox="0 0 48 55" fill="none" xmlns="http://www.w3.org/2000/svg">
<path d="M25.1168 30.6426C28.9278 30.6426 32.7625 32.7839 35.6705 36.0479C37.9231 38.5758 39.5631 41.7182 40.1861 44.9189L40.2515 44.8545C40.5342 44.5705 40.6629 44.1683 40.5982 43.7725L40.2818 41.8359C40.8809 41.9519 41.6777 42.1308 42.4996 42.3818C43.3399 42.6398 44.179 42.9654 44.856 43.3633C45.5124 43.7493 45.929 44.1539 46.1119 44.5469C46.9624 49.6647 43.906 51.9418 43.3668 52.3438L43.3648 52.3447C41.9773 53.3786 39.879 53.781 37.5552 53.792C36.5237 53.7969 35.4741 53.7213 34.4625 53.6055C32.0774 53.7463 28.8348 53.7871 24.4195 53.7871C23.4495 53.7871 22.5146 53.6972 21.6207 53.5283L16.1002 53.9365C15.1697 54.005 14.3339 53.5174 13.9068 52.7637C13.3577 52.8489 12.7913 52.8955 12.2125 52.8955C7.14975 52.8954 3.12964 51.0455 3.12946 46.8408C3.12946 44.2589 7.14964 37.6702 12.2125 37.6699C12.6192 37.6699 13.0199 37.6937 13.4127 37.7363C13.9332 37.0667 14.5291 36.3735 15.189 35.6943C17.815 32.9945 21.3309 30.6426 25.1168 30.6426Z" fill="#D4693B"/>
<path d="M12.4615 46.0567C14.7234 46.0567 16.557 47.3641 16.5572 48.9766C16.5572 49.1118 16.5441 49.2448 16.5191 49.375L17.9244 49.2891L18.8384 53.5254L16.2027 53.918C14.8357 54.122 13.607 53.0627 13.607 51.6807C13.6071 50.8574 14.0486 50.1319 14.7134 49.7364C14.7153 49.5606 14.7154 49.3839 14.7154 49.208C14.7154 47.8567 13.3422 46.6927 11.3668 46.1651C11.7154 46.0963 12.0821 46.0567 12.4615 46.0567ZM5.61285 45.7657C6.05567 45.7657 6.47204 45.8901 6.83746 46.1075C4.89443 46.5679 3.48319 47.6333 3.28668 48.9034L3.50641 48.8897C3.92499 49.9319 4.67622 50.7566 5.67242 51.3809C5.16086 50.8936 4.85799 50.2884 4.85797 49.6329C4.85801 48.0202 6.69165 46.7129 8.95367 46.7129C11.2157 46.7129 13.0493 48.0202 13.0494 49.6329C13.0493 51.2455 11.2157 52.5528 8.95367 52.5528C7.75259 52.5528 6.67257 52.1839 5.9234 51.5967L6.34821 52.9932L3.58746 53.4073C2.22066 53.6111 0.991941 52.5527 0.99176 51.1709C0.991784 50.0112 1.86811 49.0475 3.01031 48.9248C3.00458 48.8459 2.99957 48.7662 2.99957 48.6856C2.99971 47.0731 4.17005 45.7657 5.61285 45.7657ZM5.09137 43.4776C5.22044 42.9783 5.93476 42.7309 6.68707 42.9248C7.43942 43.1189 7.94475 43.6812 7.81598 44.1807C7.68677 44.6798 6.97252 44.9274 6.22028 44.7334C5.46803 44.5394 4.96293 43.977 5.09137 43.4776ZM11.2203 42.9248C11.9726 42.7309 12.6869 42.9783 12.816 43.4776C12.9445 43.977 12.4392 44.5394 11.6871 44.7334C10.9348 44.9273 10.2205 44.6799 10.0914 44.1807C9.96259 43.6812 10.4679 43.1189 11.2203 42.9248ZM21.1031 38.0469C22.703 38.0469 23.9995 39.1318 23.9996 40.4717C23.9996 41.8107 23.9373 43.6073 22.3375 43.6075C20.7375 43.6075 19.1288 42.8969 18.1802 41.044C17.4319 39.582 19.5031 38.0469 21.1031 38.0469ZM7.30328 36.1221C7.57225 35.8472 7.94754 35.744 8.27301 35.835C9.01734 36.044 9.62852 36.3367 10.1011 36.7705C10.3955 37.0412 10.6523 37.383 10.855 37.8262C9.07223 38.236 7.46818 39.4071 6.18903 40.8106C6.08555 40.5572 5.99824 40.2874 5.93219 40.003C5.72642 39.117 5.81437 38.4356 6.05426 37.8526C6.30252 37.2507 6.73473 36.703 7.30328 36.1221Z" fill="#F8E9E2"/>
<path d="M36.2086 46.543V53.543L28.7359 51.9864V48.5586L30.8951 45.8809L36.2086 46.543ZM43.8931 51.5674L39.3804 53.4844L38.0201 46.376L40.2525 45.0772L43.8931 51.5674ZM8.98883 45.8633C12.1513 45.8634 14.7153 47.3612 14.7154 49.2081C14.7154 50.0838 14.2321 50.5098 13.9088 51.211C13.5503 51.9886 13.2737 52.9971 11.6109 52.9971C10.6581 52.9971 9.52197 52.8193 8.39899 52.5225C8.58049 52.54 8.76543 52.5528 8.95367 52.5528C11.2157 52.5528 13.0494 51.2455 13.0494 49.6329C13.0492 48.0203 11.2156 46.713 8.95367 46.7129C6.69172 46.7129 4.85812 48.0203 4.85797 49.6329C4.85797 50.4581 5.33885 51.2024 6.1109 51.7334C4.48814 51.0247 3.26232 50.1058 3.26227 49.2081C3.26239 47.3611 5.82627 45.8633 8.98883 45.8633ZM45.7525 44.128V47.4756L40.7867 44.128L40.6158 42.543L42.2525 42.3965L45.7525 44.128ZM20.6422 39.9942C21.4449 39.5764 22.3444 40.3551 22.0474 41.209L21.19 43.6768C20.7673 43.5248 19.5263 43.0163 19.2769 42.7833C19.0273 42.5501 18.3835 41.6472 18.1548 41.2862L20.6422 39.9942Z" fill="#864E37"/>
<path d="M25.1168 29.8926C29.2043 29.8927 33.2286 32.1789 36.231 35.5488C37.6541 37.1459 38.8458 38.9872 39.7076 40.9424L40.3267 40.9932L40.4566 41.0068L40.4625 41.0078C41.121 41.0804 42.0038 41.2138 42.9048 41.4521L43.2447 41.5469C44.0349 41.7805 44.8192 42.1011 45.4595 42.5381C46.1924 43.0382 46.7355 43.691 46.8834 44.543L46.9615 45.0586C47.2922 47.5916 46.7055 49.4174 45.9439 50.6758C45.178 51.9414 44.2385 52.6334 43.8677 52.9062L43.8668 52.9053C43.8466 52.9203 43.8126 52.9469 43.8121 52.9473C42.2289 54.1264 39.9302 54.5308 37.5582 54.542C36.5135 54.547 35.4548 54.4722 34.4361 54.3574C32.0322 54.4964 28.7899 54.5371 24.4205 54.5371C24.3634 54.5371 24.3064 54.5338 24.2496 54.5332C24.2076 54.5405 24.1647 54.5459 24.1207 54.5459H15.7134C14.937 54.5459 14.2342 54.2343 13.7193 53.7314C13.2191 53.7805 12.7158 53.8096 12.2134 53.8096C11.8991 53.8096 11.5872 53.8021 11.2789 53.7881L3.53864 54.3594C1.75912 54.4902 0.241864 53.0806 0.24176 51.2949C0.242212 49.8811 1.20123 48.6869 2.51129 48.333C2.42574 47.9148 2.37951 47.4724 2.37946 47.0049C2.37958 46.2006 2.68319 45.188 3.15778 44.167C3.64115 43.1274 4.33711 42.0058 5.19684 40.9717C5.25421 40.9027 5.31351 40.8341 5.37262 40.7656C5.30733 40.5743 5.24893 40.3769 5.20172 40.1738C4.96249 39.1439 5.05919 38.3021 5.3609 37.5684L5.48395 37.2979C5.79227 36.6778 6.24816 36.1289 6.76715 35.5986C7.18286 35.1737 7.78194 34.9692 8.35895 35.0859L8.47418 35.1133L8.47516 35.1143C9.28831 35.3425 10.0199 35.6799 10.608 36.2197H10.6089C10.8892 36.4775 11.1343 36.7823 11.3414 37.1416C11.6276 37.104 11.9184 37.084 12.2134 37.084C12.463 37.084 12.7105 37.0912 12.9556 37.1064C13.4601 36.4686 14.0273 35.8137 14.6509 35.1719L15.1656 34.6582C17.7945 32.1112 21.2853 29.8927 25.1168 29.8926ZM29.3599 53.1279C29.3216 53.1009 29.2839 53.0732 29.2466 53.0449C29.2839 53.0732 29.3216 53.1009 29.3599 53.1279ZM25.1168 31.3926C21.632 31.3927 18.2989 33.5726 15.7261 36.2178C15.3624 36.5922 15.0197 36.9715 14.6988 37.3477C15.7199 37.5694 16.6794 37.9257 17.5484 38.3936C17.6293 38.3139 17.715 38.2409 17.8033 38.1748C18.1905 37.8853 18.6755 37.6818 19.1685 37.5361C20.1591 37.2436 21.3645 37.1315 22.4019 37.1377L22.6021 37.1475C23.5307 37.2323 24.3587 37.8607 24.6002 38.8096L24.6431 39.0176L24.6822 39.2998C24.8541 40.7484 24.6825 42.7585 23.1959 44.2451C22.903 44.5374 22.428 44.5376 22.1353 44.2451C21.8431 43.9524 21.8432 43.4773 22.1353 43.1846C23.2268 42.093 23.3565 40.5064 23.1607 39.249L23.1304 39.126C23.046 38.8884 22.8307 38.7016 22.5425 38.6514L22.3922 38.6377C21.4441 38.632 20.3966 38.7374 19.5933 38.9746C19.1901 39.0937 18.8918 39.2339 18.7017 39.376C18.5183 39.5133 18.4886 39.6098 18.483 39.6543C18.4317 40.0647 18.0576 40.3572 17.647 40.3066C17.3628 40.2713 17.1389 40.0791 17.0425 39.8291C15.6809 39.0481 14.0178 38.5841 12.2134 38.584C10.0079 38.584 7.92781 40.0333 6.35016 41.9307C5.57266 42.8659 4.94658 43.8774 4.51813 44.7988C4.08142 45.7383 3.88057 46.5186 3.88043 47.0049C3.88068 48.8175 4.72442 50.1002 6.16071 50.9668C7.63744 51.8575 9.75586 52.3096 12.2134 52.3096C12.4495 52.3096 12.6853 52.3024 12.9205 52.29C12.8791 52.0967 12.8571 51.8961 12.857 51.6904C12.857 50.1427 14.0899 48.8781 15.6363 48.8359L20.8277 48.6963C21.3451 47.9429 21.6302 47.1025 21.6304 46.1943C21.6306 45.7803 21.9663 45.4443 22.3804 45.4443C22.7942 45.4447 23.1302 45.7805 23.1304 46.1943C23.1303 47.1015 22.9214 47.9361 22.5582 48.6934C22.8561 48.7864 23.0767 49.0584 23.0855 49.3877C23.096 49.8012 22.7696 50.1461 22.356 50.1572L15.6773 50.335L15.5416 50.3457C14.8712 50.4308 14.357 51.0021 14.357 51.6904C14.3574 52.4388 14.9649 53.0459 15.7134 53.0459H24.0582L24.0523 53.0322C24.1743 53.0352 24.2972 53.0371 24.4205 53.0371C26.2025 53.0371 27.79 53.0304 29.2047 53.0137C29.2065 53.0151 29.2087 53.0161 29.2105 53.0176C28.1766 52.2154 27.5525 50.9312 27.5523 49.5361C27.5523 46.7857 29.9206 44.6593 32.6207 44.9092L32.8834 44.9414L37.2457 45.5928C37.9081 45.6921 38.58 45.47 39.0533 44.9951L39.7193 44.3262C39.8321 44.2129 39.8835 44.0524 39.858 43.8945L39.3716 40.916L39.5474 40.9297L39.3677 40.8955L39.858 43.8936C39.8837 44.0516 39.8322 44.2118 39.7193 44.3252L39.3697 44.6758C38.7226 41.7582 37.1964 38.8874 35.1109 36.5469C32.2974 33.3889 28.651 31.3927 25.1168 31.3926ZM41.3384 43.6523C41.4418 44.286 41.2344 44.9304 40.7818 45.3848L40.1158 46.0537C39.3063 46.8661 38.1579 47.2456 37.023 47.0752L32.6617 46.4248C30.7607 46.1418 29.0523 47.6139 29.0523 49.5361C29.0525 50.9281 29.9433 52.0538 31.1646 52.3105C32.9941 52.6923 35.327 53.0526 37.5513 53.042C39.826 53.0312 41.7248 52.6319 42.9166 51.7441L42.9175 51.7432L42.9722 51.7021L43.4283 52.3096L43.4234 52.3018L42.9722 51.7021L42.9791 51.6982C43.3069 51.4571 44.0512 50.9055 44.6607 49.8984C45.2886 48.8608 45.8284 47.24 45.4048 44.7998C45.3483 44.4739 45.1354 44.1322 44.6138 43.7764C44.0796 43.4119 43.3413 43.1196 42.5201 42.9014C42.0572 42.779 41.5946 42.6885 41.1695 42.6191L41.3384 43.6523ZM3.00055 49.7559C2.28087 49.9015 1.74223 50.5373 1.74176 51.2949C1.74186 52.2087 2.5183 52.9299 3.42828 52.8633L6.15875 52.6611C5.89063 52.5354 5.6322 52.4003 5.38629 52.252C4.34605 51.6244 3.52138 50.7924 3.00055 49.7559ZM8.06989 36.5576C8.0299 36.547 7.93294 36.5519 7.83942 36.6475H7.83844C7.36288 37.1334 7.03262 37.5521 6.8277 37.9639L6.74762 38.1396C6.59752 38.5049 6.51892 38.9346 6.60211 39.5068C7.53652 38.6696 8.6102 37.9587 9.78766 37.5273C9.76493 37.5007 9.74253 37.4741 9.7193 37.4492L9.59332 37.3242C9.23622 36.9965 8.74521 36.7482 8.06989 36.5586V36.5576Z" fill="#1A1A1A"/>
<path d="M8.79279 49.9161C9.4746 49.9161 10.0273 49.5195 10.0273 49.0303C10.0273 48.5411 9.4746 48.1445 8.79279 48.1445C8.11097 48.1445 7.55826 48.5411 7.55826 49.0303C7.55826 49.5195 8.11097 49.9161 8.79279 49.9161Z" fill="#1A1A1A"/>
<path d="M9.61806 45.534C9.92995 45.2757 10.3844 45.3286 10.6335 45.6521C10.7453 45.7973 10.9305 45.9396 11.0956 45.9743C11.1636 45.9886 11.2288 45.9847 11.3017 45.9548C11.3784 45.9233 11.503 45.8458 11.6583 45.6473C11.9099 45.3257 12.3657 45.2769 12.6756 45.5379C12.9852 45.7989 13.0324 46.271 12.781 46.5924C12.2013 47.3335 11.4916 47.5873 10.8085 47.4438C10.2042 47.3167 9.7479 46.9041 9.50419 46.5875C9.2552 46.2639 9.30621 45.7924 9.61806 45.534Z" fill="#1A1A1A"/>
<path d="M8.42271 45.534C8.11082 45.2757 7.65636 45.3286 7.40728 45.6521C7.29549 45.7973 7.11027 45.9396 6.94521 45.9743C6.87716 45.9886 6.812 45.9847 6.73912 45.9548C6.6624 45.9233 6.53777 45.8458 6.38245 45.6473C6.13092 45.3257 5.67508 45.2769 5.36514 45.5379C5.05559 45.7989 5.00834 46.271 5.25974 46.5924C5.83949 47.3335 6.5492 47.5873 7.23224 47.4438C7.83662 47.3167 8.29287 46.9041 8.53658 46.5875C8.78557 46.2639 8.73456 45.7924 8.42271 45.534Z" fill="#1A1A1A"/>
</svg>
