<svg width="48" height="55" viewBox="0 0 48 55" fill="none" xmlns="http://www.w3.org/2000/svg">
<path d="M32.6019 48.3568C32.7642 48.4998 32.8573 48.7048 32.8573 48.9208V54.0498H39.6233C41.0699 51.0118 43.6233 43.9578 43.6233 37.0176C43.6233 28.1864 34.8604 19.5498 24.5589 19.5498C19.3781 19.5498 13.7976 21.2798 9.52629 24.7442C5.27362 28.1935 2.30084 33.373 2.30084 40.3563C2.30084 47.5248 3.78739 50.6188 5.42411 51.9828C6.84561 53.1668 8.51887 53.1988 10.0912 53.1848V49.3658C9.44693 49.4058 8.72287 49.4088 8.07921 49.3038C7.04027 49.1351 5.96919 48.5534 5.96919 47.3628C5.96919 45.4498 6.86391 44.2768 7.96287 43.6238C9.00869 43.0018 10.1902 42.8724 10.8412 42.8724C11.4952 42.8724 13.1795 42.9197 14.6638 44.5728C16.0493 46.1158 17.148 48.9358 17.2454 54.0498H23.8089V48.9208C23.8089 48.7048 23.9024 48.4988 24.0654 48.3558C24.3615 48.0978 24.6933 48.1844 25.0352 48.2248C25.2725 48.2538 25.6046 48.2918 25.9836 48.3298C26.7488 48.4068 27.6777 48.4788 28.4003 48.4738C29.1005 48.4688 29.9975 48.3958 30.734 48.3218C31.0991 48.2858 31.419 48.2488 31.6475 48.2218C31.9844 48.1805 32.3111 48.1025 32.6019 48.3568Z" fill="#B3B3B3"/>
<path fill-rule="evenodd" clip-rule="evenodd" d="M24.5589 18.7998C19.2241 18.7998 13.4721 20.5781 9.05384 24.1617C4.63548 27.7454 1.55084 33.1345 1.55084 40.3563C1.55084 47.578 3.03884 50.9713 4.94396 52.559C6.59953 53.9379 8.54049 53.9486 10.0978 53.9348C10.5094 53.9311 10.8412 53.5964 10.8412 53.1848V49.3658C10.8412 49.1588 10.7556 48.961 10.6048 48.8193C10.454 48.6775 10.2513 48.6044 10.0447 48.6172C9.42435 48.6558 8.76325 48.6555 8.1994 48.5635C8.01223 48.5331 7.83321 48.488 7.66877 48.4298C7.44793 48.3517 7.25337 48.25 7.10062 48.1289C6.85652 47.9353 6.71919 47.698 6.71919 47.3628C6.71919 45.7306 7.46049 44.7947 8.34625 44.2684C9.23226 43.7415 10.2629 43.6224 10.8412 43.6224C11.4204 43.6224 12.8353 43.659 14.1057 45.0739C15.0338 46.1075 15.8858 47.8783 16.277 50.9125C16.3965 51.8399 16.4731 52.8855 16.4955 54.0641C16.5033 54.4727 16.8367 54.7998 17.2454 54.7998H23.8089C24.2231 54.7998 24.5589 54.464 24.5589 54.0498V48.928L25.0315 48.9798L25.9087 49.0761C26.6799 49.1537 27.6414 49.2291 28.4056 49.2238C29.6035 49.2152 30.792 49.0668 31.9805 48.9351C32.0446 48.928 32.0826 48.9266 32.1073 48.9276V54.0498C32.1073 54.464 32.443 54.7998 32.8573 54.7998H39.6233C39.9125 54.7998 40.176 54.6334 40.3004 54.3722C41.774 51.2776 44.3733 44.1096 44.3733 37.0176C44.3733 27.7278 35.2287 18.7998 24.5589 18.7998ZM24.5589 20.2998C19.532 20.2998 14.123 21.9815 9.99874 25.3267C9.96499 25.3541 9.93133 25.3815 9.89775 25.4091C8.94121 26.1953 8.05325 27.0731 7.25515 28.044C5.4028 30.2976 4.03449 33.0531 3.41623 36.33C3.17773 37.5941 3.05084 38.9359 3.05084 40.3563C3.05084 47.252 4.44566 50.0896 5.77724 51.2962C5.81961 51.3346 5.86192 51.3714 5.90411 51.4065C6.90267 52.2382 8.05574 52.4083 9.34116 52.433V50.1415C8.88507 50.1429 8.40919 50.1175 7.95846 50.044C6.56967 49.8184 5.21919 48.9348 5.21919 47.3628C5.21919 45.3932 6.06428 44.0551 7.1866 43.238C7.31434 43.145 7.44567 43.0587 7.57975 42.979C8.78532 42.2621 10.1175 42.1224 10.8412 42.1224C11.57 42.1224 13.5236 42.1804 15.2218 44.0717C16.4573 45.4476 17.4141 47.6381 17.8073 51.0722C17.8807 51.7129 17.9344 52.3969 17.9667 53.127C17.9692 53.1843 17.9716 53.2419 17.9739 53.2998H23.0589V48.9208C23.0589 48.488 23.2461 48.0768 23.5707 47.792L23.5727 47.7903C24.2308 47.217 25.2683 47.5043 26.0587 47.5836C26.8178 47.66 27.7141 47.7285 28.3951 47.7238C29.0588 47.7191 29.9271 47.6491 30.659 47.5756L30.6604 47.5754C31.4494 47.4976 32.4378 47.2167 33.0957 47.7924L33.0977 47.7941C33.4205 48.0785 33.6073 48.4881 33.6073 48.9208V53.2998H39.1447C40.587 50.1198 42.8733 43.4996 42.8733 37.0176C42.8733 28.645 34.492 20.2998 24.5589 20.2998Z" fill="#1A1A1A"/>
<path d="M43.877 34.1516C43.519 33.9432 43.0599 34.0646 42.8516 34.4226C42.6433 34.7806 42.7646 35.2397 43.1226 35.448C43.8581 35.876 46.7218 38.2605 45.5777 43.8859C45.5514 43.9118 45.527 43.9396 45.5048 43.9692L45.5032 43.9706C45.4421 44.0247 45.3622 44.1033 45.3124 44.1522C45.2954 44.169 45.2818 44.1823 45.2739 44.1899L45.2661 44.1973C44.9308 44.5165 44.6201 44.8551 44.2732 45.1627C44.0579 45.3536 43.8243 45.7413 43.7416 45.9438L43.6219 46.4481C43.5288 46.8517 43.7804 47.2544 44.184 47.3476C44.5121 47.4233 44.8878 47.2642 45.0489 46.9878C44.9921 47.281 44.9776 47.3288 44.9619 47.5045C44.9456 47.6891 44.9327 47.8729 44.921 48.05C44.8935 48.4633 45.2063 48.8206 45.6196 48.8481C46.0329 48.8756 46.3902 48.5628 46.4177 48.1495C46.422 48.0835 46.4265 48.0182 46.4311 47.9534C46.568 48.1001 46.763 48.1917 46.9794 48.1917C47.3936 48.1917 47.7294 47.856 47.7294 47.4417C47.7294 47.1996 47.727 46.8717 47.6476 46.5377C47.6133 46.3936 47.5889 46.24 47.5628 46.0584L47.5517 45.981C47.5296 45.8258 47.4338 45.4291 47.3579 45.0399C47.2821 44.6507 47.0634 44.1061 47.0634 44.1061C48.309 37.828 45.0916 34.8583 43.877 34.1516Z" fill="#1A1A1A"/>
<path fill-rule="evenodd" clip-rule="evenodd" d="M17.2114 24.8996C16.3468 25.7045 15.8392 26.6244 15.7129 27.0936C15.6052 27.4936 15.1937 27.7306 14.7937 27.6229C14.3937 27.5153 14.1568 27.1037 14.2644 26.7038C14.4793 25.9054 15.1679 24.7526 16.1894 23.8017C17.226 22.8367 18.6879 22.0033 20.4817 22.0033C21.5028 22.0033 23.2105 22.2041 24.6775 23.3202C26.1832 24.4657 27.3007 26.4707 27.3007 29.7976C27.3007 33.1803 25.7445 35.986 23.8394 37.8677C22.8864 38.809 21.8312 39.5346 20.8107 39.9921C19.8057 40.4427 18.762 40.6645 17.8623 40.4909C16.1567 40.1617 15.0485 38.9086 14.4838 37.4134C13.9224 35.9271 13.8606 34.1302 14.2597 32.4811C14.3571 32.0785 14.7625 31.8311 15.1651 31.9285C15.5677 32.026 15.815 32.4313 15.7176 32.8339C15.3796 34.2304 15.4461 35.7158 15.8871 36.8834C16.3247 38.0422 17.0929 38.8147 18.1466 39.0181C18.6265 39.1107 19.3409 39.0072 20.1971 38.6234C21.0377 38.2465 21.9466 37.6289 22.7853 36.8005C24.4635 35.1429 25.8007 32.7039 25.8007 29.7976C25.8007 26.8354 24.8266 25.3184 23.7693 24.514C22.6732 23.6801 21.3464 23.5033 20.4817 23.5033C19.175 23.5033 18.0609 24.1088 17.2114 24.8996Z" fill="#1A1A1A"/>
<path d="M11.5499 36.0493C12.1022 36.0493 12.5499 36.497 12.5499 37.0493C12.5499 37.6016 12.1022 38.0493 11.5499 38.0493C10.9976 38.0493 10.5499 37.6016 10.5499 37.0493C10.5499 36.497 10.9976 36.0493 11.5499 36.0493Z" fill="#1A1A1A"/>
<path fill-rule="evenodd" clip-rule="evenodd" d="M9.0169 40.0598C9.3231 39.7809 9.79746 39.803 10.0764 40.1092C10.9303 41.0464 10.8632 42.4982 9.92664 43.3527L9.62082 43.6312C9.3146 43.9102 8.84024 43.888 8.56132 43.5818C8.28239 43.2756 8.30453 42.8012 8.61075 42.5223L8.9156 42.2446C8.91568 42.2446 8.91552 42.2447 8.9156 42.2446C9.24031 41.9481 9.26373 41.4444 8.96758 41.1194C8.68863 40.8132 8.71071 40.3388 9.0169 40.0598Z" fill="#1A1A1A"/>
<path d="M5.17993 36.0493C4.62764 36.0493 4.17993 36.497 4.17993 37.0493C4.17993 37.6016 4.62764 38.0493 5.17993 38.0493C5.73222 38.0493 6.17993 37.6016 6.17993 37.0493C6.17993 36.497 5.73222 36.0493 5.17993 36.0493Z" fill="#1A1A1A"/>
</svg>
