<svg width="48" height="55" viewBox="0 0 48 55" fill="none" xmlns="http://www.w3.org/2000/svg">
<path fill-rule="evenodd" clip-rule="evenodd" d="M5.36 20.8201C4.822 20.8201 4.38 21.24 4.361 21.78L4 31.6599L4.362 42.4399C4.381 42.9999 4.854 43.4299 5.413 43.3999L16.729 42.8201L19.049 42.9399L19 44.3401L19.359 53.8501C19.379 54.3901 19.821 54.8201 20.358 54.8201H31.729L43.107 54.3101C43.641 54.2801 44.062 53.8401 44.062 53.3101V35.0801C44.062 34.5501 43.641 34.1101 43.106 34.0801L31.729 33.5801L29.063 33.4399V22.3401C29.063 21.8101 28.643 21.3701 28.109 21.3401L16.729 20.8201H5.36Z" fill="#FFCD29"/>
<path d="M20.3584 54.8201L20.2588 54.8152C19.7689 54.7662 19.3801 54.3587 19.3594 53.8542L20.3584 53.8181V54.8201Z" fill="#1A1A1A"/>
<path fill-rule="evenodd" clip-rule="evenodd" d="M44.0576 53.408C44.0096 53.8932 43.608 54.282 43.1074 54.3103L31.7295 54.8201H20.3584V53.8181L19.3594 53.8542C19.3593 53.8529 19.3594 53.8516 19.3594 53.8503L19 44.3406L19.0488 42.9402L16.7285 42.8201L5.41309 43.4001C4.88916 43.4283 4.44094 43.0521 4.37109 42.5437L4.3623 42.4402L4 31.6599L4.36133 21.78C4.37915 21.2736 4.76863 20.8729 5.26074 20.825L5.36035 20.8201H16.7285L28.1084 21.3396C28.6424 21.3696 29.0635 21.8106 29.0635 22.3406V33.4402L31.7295 33.5798L43.1064 34.0798L43.2051 34.0906C43.692 34.1656 44.0614 34.5831 44.0615 35.0798V53.3103L44.0576 53.408ZM16.7295 22.3201H5.84277L5.50098 31.6531L5.84375 41.8826L16.6514 41.3201H16.8076L19.127 41.4402L19.2783 41.4548C20.0208 41.5667 20.5741 42.2213 20.5479 42.99L20.501 44.3406L20.8398 53.3201H31.6621L42.5625 52.8308V35.5583L31.6621 35.0798H31.6543L28.9873 34.9402L28.8398 34.9255C28.1135 34.8172 27.5636 34.1901 27.5635 33.4402V22.8181L16.7295 22.3132V22.3201Z" fill="#1A1A1A"/>
<path d="M37.4398 43.0174C37.7352 42.7273 38.2101 42.7318 38.5003 43.0272C38.7904 43.3226 38.7859 43.7975 38.4905 44.0877L38.3685 44.2078L38.3665 44.2088L37.8431 43.6727L37.7835 43.6121L38.3665 44.2088C36.6863 45.8492 33.9845 45.7841 32.386 44.0633C32.1041 43.7598 32.1216 43.2846 32.4251 43.0027C32.7286 42.7208 33.2037 42.7383 33.4856 43.0418C34.5104 44.145 36.2417 44.187 37.3187 43.1356V43.1365L37.4398 43.0174Z" fill="#1A1A1A"/>
<path d="M34.0545 39.8149C33.4718 39.8149 32.9995 40.2738 32.9995 40.8399C32.9995 41.406 33.4718 41.8649 34.0545 41.8649C34.6372 41.8649 35.1095 41.406 35.1095 40.8399C35.1095 40.2738 34.6372 39.8149 34.0545 39.8149Z" fill="#1A1A1A"/>
<path d="M39.0521 39.8149C39.6347 39.8149 40.1071 40.2738 40.1071 40.8399C40.1071 41.406 39.6347 41.8649 39.0521 41.8649C38.4694 41.8649 37.9971 41.406 37.9971 40.8399C37.9971 40.2738 38.4694 39.8149 39.0521 39.8149Z" fill="#1A1A1A"/>
<path fill-rule="evenodd" clip-rule="evenodd" d="M9.53452 29.0062C9.86457 28.7424 10.3531 28.7876 10.6256 29.107C11.4156 30.0329 12.8708 30.067 13.7059 29.179L13.7989 29.08C14.0868 28.7735 14.5769 28.7509 14.8936 29.0295C15.2104 29.3082 15.2337 29.7825 14.9458 30.089L14.8528 30.188C13.3825 31.7518 10.821 31.692 9.43033 30.062C9.15782 29.7426 9.20446 29.2699 9.53452 29.0062Z" fill="#1A1A1A"/>
<path d="M9.05451 25.8147C8.47185 25.8147 7.99951 26.2736 7.99951 26.8397C7.99951 27.4058 8.47185 27.8647 9.05451 27.8647C9.63717 27.8647 10.1095 27.4058 10.1095 26.8397C10.1095 26.2736 9.63717 25.8147 9.05451 25.8147Z" fill="#1A1A1A"/>
<path d="M14.0526 25.8147C14.6352 25.8147 15.1076 26.2736 15.1076 26.8397C15.1076 27.4058 14.6352 27.8647 14.0526 27.8647C13.4699 27.8647 12.9976 27.4058 12.9976 26.8397C12.9976 26.2736 13.4699 25.8147 14.0526 25.8147Z" fill="#1A1A1A"/>
</svg>
