<svg width="48" height="55" viewBox="0 0 48 55" fill="none" xmlns="http://www.w3.org/2000/svg">
<path d="M28.109 21.3601C28.643 21.3801 29.063 21.8201 29.063 22.3601V33.46L31.729 33.5901L43.107 34.1001C43.641 34.1201 44.062 34.5601 44.062 35.1001V53.3201C44.062 53.8601 43.641 54.3001 43.107 54.3201L31.729 54.8301H20.359C19.821 54.8301 19.379 54.4101 19.359 53.8701L19 44.3601L19.048 42.95L16.729 42.8301L5.41299 43.4199C4.85399 43.4499 4.381 43.01 4.362 42.46L4 31.6799L4.36099 21.79C4.37999 21.26 4.82199 20.8301 5.35999 20.8301H16.729L28.109 21.3601Z" fill="#2C2C2C"/>
<path d="M5.41309 43.4199C4.85409 43.4499 4.38131 43.01 4.3623 42.46L4.36133 42.459L5.36035 42.4199L5.41309 43.4199Z" fill="#1A1A1A"/>
<path fill-rule="evenodd" clip-rule="evenodd" d="M44.0625 53.3203L44.0576 53.4199C44.0095 53.9132 43.6079 54.3014 43.1074 54.3203L31.7295 54.8301H20.3594C19.8214 54.8301 19.3794 54.4101 19.3594 53.8701L19.3584 53.8691L19 44.3604L19.0479 42.9502L16.7295 42.8301L5.41309 43.4199L5.36035 42.4199L4.36133 42.459L4 31.6797L4.36133 21.79C4.38033 21.2602 4.82166 20.8304 5.35938 20.8301H16.7295L28.1094 21.3604C28.6432 21.3805 29.0635 21.8205 29.0635 22.3604V33.46L31.7295 33.5898L43.1074 34.1006C43.6412 34.1208 44.0625 34.5607 44.0625 35.1006V53.3203ZM5.50098 31.668L5.84277 41.8926L16.6504 41.3301H16.8066L19.126 41.4502C19.9429 41.5003 20.5749 42.1901 20.5469 43L20.501 44.3652L20.8389 53.3301H31.6621L42.5615 52.8408V35.5791L31.6631 35.0898H31.6523L28.9863 34.96C28.1885 34.9198 27.5625 34.2598 27.5625 33.46V22.8379L16.6602 22.3301H5.8418L5.50098 31.668Z" fill="#1A1A1A"/>
<path d="M37.4398 43.0174C37.7352 42.7273 38.2101 42.7318 38.5003 43.0272C38.7904 43.3226 38.7859 43.7975 38.4905 44.0877L38.3685 44.2078L38.3665 44.2088L37.8431 43.6727L37.7835 43.6121L38.3665 44.2088C36.6863 45.8492 33.9845 45.7841 32.386 44.0633C32.1041 43.7598 32.1216 43.2846 32.4251 43.0027C32.7286 42.7208 33.2037 42.7383 33.4856 43.0418C34.5104 44.145 36.2417 44.187 37.3187 43.1356V43.1365L37.4398 43.0174Z" fill="#D9D9D9"/>
<path d="M34.0545 39.8149C33.4718 39.8149 32.9995 40.2738 32.9995 40.8399C32.9995 41.406 33.4718 41.8649 34.0545 41.8649C34.6372 41.8649 35.1095 41.406 35.1095 40.8399C35.1095 40.2738 34.6372 39.8149 34.0545 39.8149Z" fill="#D9D9D9"/>
<path d="M39.0521 39.8149C39.6347 39.8149 40.1071 40.2738 40.1071 40.8399C40.1071 41.406 39.6347 41.8649 39.0521 41.8649C38.4694 41.8649 37.9971 41.406 37.9971 40.8399C37.9971 40.2738 38.4694 39.8149 39.0521 39.8149Z" fill="#D9D9D9"/>
<path fill-rule="evenodd" clip-rule="evenodd" d="M9.53452 29.0062C9.86457 28.7424 10.3531 28.7876 10.6256 29.107C11.4156 30.0329 12.8708 30.067 13.7059 29.179L13.7989 29.08C14.0868 28.7735 14.5769 28.7509 14.8936 29.0295C15.2104 29.3082 15.2337 29.7825 14.9458 30.089L14.8528 30.188C13.3825 31.7518 10.821 31.692 9.43033 30.062C9.15782 29.7426 9.20446 29.2699 9.53452 29.0062Z" fill="#D9D9D9"/>
<path d="M9.05451 25.8147C8.47185 25.8147 7.99951 26.2736 7.99951 26.8397C7.99951 27.4058 8.47185 27.8647 9.05451 27.8647C9.63717 27.8647 10.1095 27.4058 10.1095 26.8397C10.1095 26.2736 9.63717 25.8147 9.05451 25.8147Z" fill="#D9D9D9"/>
<path d="M14.0526 25.8147C14.6352 25.8147 15.1076 26.2736 15.1076 26.8397C15.1076 27.4058 14.6352 27.8647 14.0526 27.8647C13.4699 27.8647 12.9976 27.4058 12.9976 26.8397C12.9976 26.2736 13.4699 25.8147 14.0526 25.8147Z" fill="#D9D9D9"/>
</svg>
