<svg width="48" height="55" viewBox="0 0 48 55" fill="none" xmlns="http://www.w3.org/2000/svg">
<path d="M21.0204 53.7499C3.0964 52.8099 0.737422 37.2499 1.20942 30.1699H41.5644C41.1874 49.4199 30.4544 53.7499 21.0204 53.7499Z" fill="#F5F5F5"/>
<path d="M1.20909 30.1699V29.4199C0.814094 29.4199 0.487078 29.7299 0.461078 30.1199L1.20909 30.1699ZM21.0201 53.7499L20.9811 54.4999C20.9941 54.4999 21.0071 54.4999 21.0201 54.4999V53.7499ZM41.5641 30.1699L42.3141 30.1799C42.3181 29.9799 42.2411 29.7899 42.1001 29.6399C41.9591 29.4999 41.7661 29.4199 41.5641 29.4199V30.1699ZM0.461078 30.1199C0.219078 33.7499 0.696067 39.5699 3.56307 44.6299C6.45907 49.7499 11.7601 54.0199 20.9811 54.4999L21.0601 53.0099C12.3561 52.5499 7.51507 48.5699 4.86907 43.8899C2.19307 39.1699 1.72708 33.6698 1.95708 30.2198L0.461078 30.1199ZM21.0201 54.4999C25.8391 54.4999 31.0901 53.3999 35.1881 49.7399C39.2991 46.0699 42.1231 39.9399 42.3141 30.1799L40.8141 30.1499C40.6281 39.6399 37.8971 45.3099 34.1891 48.6199C30.4681 51.9399 25.6361 52.9999 21.0201 52.9999V54.4999ZM41.5641 29.4199H1.20909V30.9199H41.5641V29.4199Z" fill="#1A1A1A"/>
<path d="M21.0884 50.9999C6.66241 50.1699 4.7634 36.4199 5.1434 30.1699H37.6224C37.3184 47.1699 28.6804 50.9999 21.0884 50.9999Z" fill="#FFE0FC"/>
<path d="M21.36 39.0428C32.5184 39.0428 41.5642 34.8509 41.5642 29.6799C41.5642 24.5089 32.5184 20.3169 21.36 20.3169C10.2015 20.3169 1.15576 24.5089 1.15576 29.6799C1.15576 34.8509 10.2015 39.0428 21.36 39.0428Z" fill="#E6E6E6"/>
<path d="M40.814 29.6802C40.814 27.562 38.9308 25.4078 35.3315 23.7397C31.7947 22.1007 26.8554 21.0669 21.3599 21.0669C15.8645 21.0669 10.9259 22.1008 7.38916 23.7397C3.78968 25.4078 1.90576 27.5619 1.90576 29.6802C1.90591 31.7983 3.78981 33.9516 7.38916 35.6196C10.9259 37.2586 15.8644 38.2925 21.3599 38.2925C26.8554 38.2925 31.7947 37.2586 35.3315 35.6196C38.9306 33.9517 40.8138 31.7982 40.814 29.6802ZM42.314 29.6802C42.3138 32.7328 39.6743 35.2604 35.9614 36.981C32.1858 38.7306 27.0226 39.7925 21.3599 39.7925C15.6971 39.7925 10.5339 38.7306 6.7583 36.981C3.04541 35.2603 0.405902 32.7328 0.405762 29.6802C0.405762 26.6274 3.04531 24.0991 6.7583 22.3784C10.5339 20.6288 15.6972 19.5669 21.3599 19.5669C27.0225 19.5669 32.1858 20.6288 35.9614 22.3784C39.6744 24.0991 42.314 26.6274 42.314 29.6802Z" fill="#1A1A1A"/>
<path d="M21.36 35.679C30.3412 35.679 37.6219 32.6797 37.6219 28.9799C37.6219 25.28 30.3412 22.2808 21.36 22.2808C12.3788 22.2808 5.09814 25.28 5.09814 28.9799C5.09814 32.6797 12.3788 35.679 21.36 35.679Z" fill="#FFBDF2"/>
<path d="M23.6634 45.8157C23.9588 45.5257 24.4337 45.5302 24.7239 45.8255C25.014 46.1209 25.0095 46.5958 24.7142 46.886L24.5921 47.0062L24.5901 47.0071L24.0667 46.471L24.0071 46.4105L24.5901 47.0071C22.9099 48.6476 20.2081 48.5824 18.6097 46.8616C18.3278 46.5581 18.3453 46.083 18.6487 45.8011C18.9522 45.5192 19.4274 45.5367 19.7093 45.8401C20.734 46.9433 22.4653 46.9854 23.5423 45.9339V45.9349L23.6634 45.8157Z" fill="#1A1A1A"/>
<path d="M26.3605 42.9653C27.0205 42.9653 27.5555 43.5003 27.5555 44.1603C27.5555 44.8203 27.0205 45.3553 26.3605 45.3553C25.7005 45.3553 25.1655 44.8203 25.1655 44.1603C25.1655 43.5004 25.7005 42.9653 26.3605 42.9653Z" fill="#1A1A1A"/>
<path d="M16.3605 42.9653C15.7005 42.9653 15.1655 43.5003 15.1655 44.1603C15.1655 44.8203 15.7005 45.3553 16.3605 45.3553C17.0205 45.3553 17.5555 44.8203 17.5555 44.1603C17.5555 43.5004 17.0205 42.9653 16.3605 42.9653Z" fill="#1A1A1A"/>
</svg>
