<svg width="48" height="55" viewBox="0 0 48 55" fill="none" xmlns="http://www.w3.org/2000/svg">
<path d="M21.0199 53.7499C3.09593 52.8099 0.736934 37.2499 1.20893 30.1699H41.5639C41.1869 49.4199 30.4539 53.7499 21.0199 53.7499Z" fill="#436C7A"/>
<path d="M1.20908 30.1699V29.4199C0.814078 29.4199 0.487077 29.7299 0.461077 30.1199L1.20908 30.1699ZM21.0201 53.7499L20.9811 54.4999C20.9941 54.4999 21.0071 54.4999 21.0201 54.4999V53.7499ZM41.5641 30.1699L42.3141 30.1799C42.3181 29.9799 42.2411 29.7899 42.1001 29.6399C41.9591 29.4999 41.7661 29.4199 41.5641 29.4199V30.1699ZM0.461077 30.1199C0.219077 33.7499 0.696082 39.5699 3.56308 44.6299C6.45908 49.7499 11.7601 54.0199 20.9811 54.4999L21.0601 53.0099C12.3571 52.5499 7.51508 48.5699 4.86908 43.8899C2.19308 39.1699 1.72708 33.6698 1.95708 30.2198L0.461077 30.1199ZM21.0201 54.4999C25.8391 54.4999 31.0901 53.3999 35.1881 49.7399C39.2991 46.0699 42.1231 39.9399 42.3141 30.1799L40.8151 30.1599C40.6291 39.6399 37.8971 45.3099 34.1891 48.6199C30.4681 51.9399 25.6361 52.9999 21.0201 52.9999V54.4999ZM41.5641 29.4199H1.20908V30.9199H41.5641V29.4199Z" fill="#1A1A1A"/>
<path d="M21.36 39.0428C32.5184 39.0428 41.5642 34.8509 41.5642 29.6799C41.5642 24.5089 32.5184 20.3169 21.36 20.3169C10.2015 20.3169 1.15576 24.5089 1.15576 29.6799C1.15576 34.8509 10.2015 39.0428 21.36 39.0428Z" fill="#A3C2CC"/>
<path d="M40.814 29.6802C40.814 27.562 38.9308 25.4078 35.3315 23.7397C31.7947 22.1007 26.8554 21.0669 21.3599 21.0669C15.8645 21.0669 10.9259 22.1008 7.38916 23.7397C3.78967 25.4078 1.90576 27.5619 1.90576 29.6802C1.90591 31.7983 3.78981 33.9516 7.38916 35.6196C10.9259 37.2586 15.8644 38.2925 21.3599 38.2925C26.8554 38.2925 31.7947 37.2586 35.3315 35.6196C38.9306 33.9517 40.8138 31.7982 40.814 29.6802ZM42.314 29.6802C42.3138 32.7328 39.6743 35.2603 35.9614 36.981C32.1858 38.7306 27.0226 39.7925 21.3599 39.7925C15.6971 39.7925 10.5339 38.7306 6.7583 36.981C3.0454 35.2603 0.405902 32.7328 0.405762 29.6802C0.405762 26.6274 3.04531 24.0991 6.7583 22.3784C10.5339 20.6288 15.6972 19.5669 21.3599 19.5669C27.0225 19.5669 32.1858 20.6288 35.9614 22.3784C39.6744 24.0991 42.314 26.6274 42.314 29.6802Z" fill="#1A1A1A"/>
<path d="M21.36 35.679C30.3412 35.679 37.6219 32.6797 37.6219 28.9799C37.6219 25.28 30.3412 22.2808 21.36 22.2808C12.3788 22.2808 5.09814 25.28 5.09814 28.9799C5.09814 32.6797 12.3788 35.679 21.36 35.679Z" fill="#F5DFA8"/>
<path d="M32.8704 32.627C33.264 32.5209 33.769 32.4168 34.2493 32.5987C34.7657 32.7944 35.1119 33.2581 35.3362 33.9464C35.559 34.6298 35.691 35.6158 35.7278 37.0079C35.7648 38.4075 35.7059 40.2506 35.5315 42.6661C35.5115 42.9414 35.2727 43.1488 34.9974 43.129C34.7219 43.1091 34.5146 42.8693 34.5345 42.5938C34.7076 40.1948 34.7636 38.388 34.7278 37.0343C34.6919 35.673 34.5638 34.8013 34.386 34.2559C34.21 33.716 34.0151 33.5786 33.8958 33.5333C33.7406 33.4745 33.515 33.4891 33.1302 33.5929C32.8638 33.6645 32.5899 33.5066 32.5179 33.2403C32.4459 32.9737 32.6038 32.699 32.8704 32.627Z" fill="#603A2A"/>
<path d="M34.628 42.4102L32.44 43.6702C32.129 43.8502 31.937 44.1802 31.937 44.5402V50.1001C31.937 50.7201 32.503 51.1901 33.117 51.0801L37.18 50.3401C37.655 50.2501 38 49.8401 38 49.3501V44.5001C38 44.1601 37.829 43.8502 37.545 43.6602L35.67 42.4401C35.355 42.2401 34.953 42.2302 34.628 42.4102Z" fill="#B3EE71"/>
<path d="M23.6605 45.8157C23.9559 45.5257 24.4308 45.5302 24.721 45.8255C25.0111 46.1209 25.0066 46.5958 24.7112 46.886L24.5892 47.0062L24.5872 47.0071L24.0638 46.471L24.0042 46.4105L24.5872 47.0071C22.907 48.6476 20.2052 48.5824 18.6067 46.8616C18.3248 46.5581 18.3423 46.083 18.6458 45.8011C18.9493 45.5192 19.4244 45.5367 19.7064 45.8401C20.7311 46.9433 22.4624 46.9854 23.5394 45.9339V45.9349L23.6605 45.8157Z" fill="#1A1A1A"/>
<path d="M26.3576 42.9653C27.0176 42.9653 27.5526 43.5003 27.5526 44.1603C27.5526 44.8203 27.0176 45.3553 26.3576 45.3553C25.6976 45.3553 25.1626 44.8203 25.1626 44.1603C25.1626 43.5004 25.6976 42.9653 26.3576 42.9653Z" fill="#1A1A1A"/>
<path d="M16.3576 42.9653C15.6976 42.9653 15.1626 43.5003 15.1626 44.1603C15.1626 44.8203 15.6976 45.3553 16.3576 45.3553C17.0176 45.3553 17.5526 44.8203 17.5526 44.1603C17.5526 43.5004 17.0176 42.9653 16.3576 42.9653Z" fill="#1A1A1A"/>
</svg>
