<svg width="48" height="55" viewBox="0 0 48 55" fill="none" xmlns="http://www.w3.org/2000/svg">
<path fill-rule="evenodd" clip-rule="evenodd" d="M1.20888 30.1699C0.73718 37.2499 3.09571 52.8099 21.0203 53.7499C26.4574 53.7499 32.3258 52.3099 36.3946 47.4099C37.3977 47.9499 38.5475 48.2599 39.7696 48.2599C43.6773 48.2599 46.8451 45.0998 46.8451 41.1898C46.8451 37.8098 44.4753 34.9799 41.3066 34.2799C41.4482 32.9899 41.5357 31.6199 41.5642 30.1699H1.20888ZM38.2369 44.7098C39.3779 42.6798 40.2781 40.2299 40.8546 37.2699C42.4132 37.7999 43.5354 39.2699 43.5354 41.0099C43.5354 43.1899 41.7703 44.9498 39.5931 44.9498C39.1166 44.9498 38.6598 44.8698 38.2369 44.7098Z" fill="#DC3412"/>
<path d="M21.0202 53.7499L20.9808 54.4999C20.9939 54.4999 21.007 54.4999 21.0202 54.4999V53.7499ZM1.20883 30.1699V29.4199C0.81398 29.4199 0.486754 29.7299 0.460489 30.1199L1.20883 30.1699ZM36.3945 47.4099L36.7528 46.7499C36.438 46.5799 36.0462 46.6499 35.8173 46.9299L36.3945 47.4099ZM41.3065 34.2799L40.561 34.1998C40.5192 34.5798 40.7706 34.9299 41.1443 35.0099L41.3065 34.2799ZM41.5641 30.1699L42.314 30.1799C42.3179 29.9799 42.2407 29.7899 42.0996 29.6399C41.9586 29.4999 41.7656 29.4199 41.5641 29.4199V30.1699ZM40.8545 37.2699L41.0943 36.5599C40.8895 36.4999 40.6647 36.5199 40.4778 36.6299C40.2908 36.7299 40.1598 36.9199 40.1184 37.1299L40.8545 37.2699ZM38.2368 44.7098L37.5829 44.3499C37.4752 44.5399 37.4571 44.7698 37.5334 44.9698C37.6096 45.1798 37.7724 45.3399 37.9788 45.4199L38.2368 44.7098ZM21.0596 53.0099C12.3563 52.5499 7.51519 48.5699 4.86856 43.8899C2.19306 39.1699 1.7273 33.6698 1.95717 30.2198L0.460489 30.1199C0.218656 33.7499 0.696312 39.5699 3.5633 44.6299C6.45915 49.7499 11.7595 54.0199 20.9808 54.4999L21.0596 53.0099ZM35.8173 46.9299C31.947 51.5999 26.34 52.9999 21.0202 52.9999V54.4999C26.5746 54.4999 32.7044 53.0299 36.9718 47.8899L35.8173 46.9299ZM36.0363 48.0698C37.1466 48.6698 38.4191 49.0099 39.7695 49.0099V47.5099C38.6756 47.5099 37.6487 47.2399 36.7528 46.7499L36.0363 48.0698ZM39.7695 49.0099C44.0914 49.0099 47.595 45.5098 47.595 41.1898H46.095C46.095 44.6798 43.263 47.5099 39.7695 47.5099V49.0099ZM47.595 41.1898C47.595 37.4498 44.9734 34.3199 41.4687 33.5499L41.1443 35.0099C43.9769 35.6399 46.095 38.1698 46.095 41.1898H47.595ZM40.8143 30.1499C40.7862 31.5899 40.7 32.9298 40.561 34.1998L42.052 34.3599C42.1962 33.0499 42.2851 31.6599 42.314 30.1799L40.8143 30.1499ZM1.20883 30.9199H41.5641V29.4199H1.20883V30.9199ZM40.1184 37.1299C39.555 40.0199 38.6797 42.3899 37.5829 44.3499L38.8908 45.0798C40.076 42.9698 41.0009 40.4399 41.5906 37.4199L40.1184 37.1299ZM44.2853 41.0099C44.2853 38.9399 42.9485 37.1899 41.0943 36.5599L40.6146 37.9899C41.8776 38.4099 42.7853 39.6099 42.7853 41.0099H44.2853ZM39.593 45.6998C42.1845 45.6998 44.2853 43.5999 44.2853 41.0099H42.7853C42.7853 42.7699 41.356 44.1998 39.593 44.1998V45.6998ZM37.9788 45.4199C38.4831 45.5999 39.0272 45.6998 39.593 45.6998V44.1998C39.2058 44.1998 38.8362 44.1299 38.4948 44.0099L37.9788 45.4199Z" fill="#1A1A1A"/>
<path d="M21.36 39.0428C32.5184 39.0428 41.5642 34.8509 41.5642 29.6799C41.5642 24.5089 32.5184 20.3169 21.36 20.3169C10.2015 20.3169 1.15576 24.5089 1.15576 29.6799C1.15576 34.8509 10.2015 39.0428 21.36 39.0428Z" fill="#F3CFC9"/>
<path d="M40.814 29.6802C40.814 27.562 38.9308 25.4078 35.3315 23.7397C31.7947 22.1007 26.8554 21.0669 21.3599 21.0669C15.8645 21.0669 10.9259 22.1008 7.38916 23.7397C3.78967 25.4078 1.90576 27.5619 1.90576 29.6802C1.90591 31.7983 3.78981 33.9516 7.38916 35.6196C10.9259 37.2586 15.8644 38.2925 21.3599 38.2925C26.8554 38.2925 31.7947 37.2586 35.3315 35.6196C38.9306 33.9517 40.8138 31.7982 40.814 29.6802ZM42.314 29.6802C42.3138 32.7328 39.6743 35.2603 35.9614 36.981C32.1858 38.7306 27.0226 39.7925 21.3599 39.7925C15.6971 39.7925 10.5339 38.7306 6.7583 36.981C3.0454 35.2603 0.405902 32.7328 0.405762 29.6802C0.405762 26.6274 3.04531 24.0991 6.7583 22.3784C10.5339 20.6288 15.6972 19.5669 21.3599 19.5669C27.0225 19.5669 32.1858 20.6288 35.9614 22.3784C39.6744 24.0991 42.314 26.6274 42.314 29.6802Z" fill="#1A1A1A"/>
<path d="M21.36 35.679C30.3412 35.679 37.6219 32.6797 37.6219 28.9799C37.6219 25.28 30.3412 22.2808 21.36 22.2808C12.3788 22.2808 5.09814 25.28 5.09814 28.9799C5.09814 32.6797 12.3788 35.679 21.36 35.679Z" fill="#603A2A"/>
<path d="M23.6898 45.8172C23.9852 45.5271 24.4601 45.5316 24.7503 45.827C25.0404 46.1224 25.0359 46.5973 24.7405 46.8875L24.6185 47.0076L24.6165 47.0086L24.0931 46.4725L24.0335 46.4119L24.6165 47.0086C22.9363 48.649 20.2345 48.5839 18.636 46.8631C18.3541 46.5596 18.3716 46.0845 18.6751 45.8025C18.9786 45.5206 19.4537 45.5381 19.7356 45.8416C20.7604 46.9448 22.4917 46.9868 23.5687 45.9354V45.9363L23.6898 45.8172Z" fill="#1A1A1A"/>
<path d="M26.4445 42.9492C27.1045 42.9492 27.6395 43.4842 27.6395 44.1442C27.6395 44.8042 27.1045 45.3392 26.4445 45.3392C25.7845 45.3392 25.2495 44.8042 25.2495 44.1442C25.2495 43.4842 25.7845 42.9492 26.4445 42.9492Z" fill="#1A1A1A"/>
<path d="M16.4445 42.9492C15.7845 42.9492 15.2495 43.4842 15.2495 44.1442C15.2495 44.8042 15.7845 45.3392 16.4445 45.3392C17.1045 45.3392 17.6395 44.8042 17.6395 44.1442C17.6395 43.4842 17.1045 42.9492 16.4445 42.9492Z" fill="#1A1A1A"/>
</svg>
