<svg width="48" height="55" viewBox="0 0 48 55" fill="none" xmlns="http://www.w3.org/2000/svg">
<path fill-rule="evenodd" clip-rule="evenodd" d="M1.20826 30.1699C0.73726 37.2499 3.09524 52.8099 21.0202 53.7499C26.4572 53.7499 32.3253 52.3099 36.3943 47.4099C37.3973 47.9499 38.5473 48.2599 39.7693 48.2599C43.6773 48.2599 46.8453 45.0998 46.8453 41.1898C46.8453 37.8098 44.4753 34.9799 41.3063 34.2799C41.4483 32.9899 41.5352 31.6199 41.5642 30.1699H1.20826ZM38.2362 44.7098C39.3772 42.6798 40.2783 40.2299 40.8543 37.2699C42.4133 37.7999 43.5353 39.2699 43.5353 41.0099C43.5353 43.1899 41.7702 44.9498 39.5932 44.9498C39.1162 44.9498 38.6592 44.8698 38.2362 44.7098Z" fill="#2C2C2C"/>
<path d="M21.02 53.7499L20.9801 54.4999C20.9931 54.4999 21.007 54.4999 21.02 54.4999V53.7499ZM1.20806 30.1699V29.4199C0.813061 29.4199 0.486044 29.7299 0.460044 30.1199L1.20806 30.1699ZM36.3941 47.4099L36.7521 46.7499C36.4381 46.5799 36.046 46.6499 35.817 46.9299L36.3941 47.4099ZM41.3061 34.2799L40.5611 34.1998C40.5191 34.5798 40.7701 34.9299 41.1441 35.0099L41.3061 34.2799ZM41.564 30.1699L42.314 30.1799C42.3181 29.9799 42.2401 29.7899 42.0991 29.6399C41.9581 29.4999 41.765 29.4199 41.564 29.4199V30.1699ZM40.8541 37.2699L41.094 36.5599C40.889 36.4999 40.664 36.5199 40.477 36.6299C40.29 36.7299 40.1591 36.9199 40.1181 37.1299L40.8541 37.2699ZM38.236 44.7098L37.5821 44.3499C37.4751 44.5399 37.457 44.7698 37.533 44.9698C37.609 45.1798 37.772 45.3399 37.9781 45.4199L38.236 44.7098ZM21.059 53.0099C12.356 52.5499 7.51506 48.5699 4.86806 43.8899C2.19306 39.1699 1.72705 33.6698 1.95705 30.2198L0.460044 30.1199C0.218044 33.7499 0.696041 39.5699 3.56304 44.6299C6.45904 49.7499 11.7591 54.0199 20.9801 54.4999L21.059 53.0099ZM35.817 46.9299C31.947 51.5999 26.34 52.9999 21.02 52.9999V54.4999C26.574 54.4999 32.7041 53.0299 36.9711 47.8899L35.817 46.9299ZM36.0361 48.0698C37.1461 48.6698 38.4191 49.0099 39.7691 49.0099V47.5099C38.6751 47.5099 37.6481 47.2399 36.7521 46.7499L36.0361 48.0698ZM39.7691 49.0099C44.0911 49.0099 47.5951 45.5098 47.5951 41.1898H46.0951C46.0951 44.6798 43.2631 47.5099 39.7691 47.5099V49.0099ZM47.5951 41.1898C47.5951 37.4498 44.973 34.3199 41.468 33.5499L41.1441 35.0099C43.9761 35.6399 46.0951 38.1698 46.0951 41.1898H47.5951ZM40.814 30.1499C40.786 31.5899 40.7001 32.9298 40.5611 34.1998L42.0521 34.3599C42.1961 33.0499 42.285 31.6599 42.314 30.1799L40.814 30.1499ZM1.20806 30.9199H41.564V29.4199H1.20806V30.9199ZM40.1181 37.1299C39.5551 40.0199 38.6791 42.3899 37.5821 44.3499L38.8901 45.0798C40.0761 42.9698 41 40.4399 41.59 37.4199L40.1181 37.1299ZM44.2851 41.0099C44.2851 38.9399 42.948 37.1899 41.094 36.5599L40.6141 37.9899C41.8771 38.4099 42.7851 39.6099 42.7851 41.0099H44.2851ZM39.593 45.6998C42.184 45.6998 44.2851 43.5999 44.2851 41.0099H42.7851C42.7851 42.7699 41.356 44.1998 39.593 44.1998V45.6998ZM37.9781 45.4199C38.4831 45.5999 39.027 45.6998 39.593 45.6998V44.1998C39.205 44.1998 38.836 44.1299 38.494 44.0099L37.9781 45.4199Z" fill="#1A1A1A"/>
<path d="M21.359 39.0428C32.5175 39.0428 41.5632 34.8509 41.5632 29.6799C41.5632 24.5089 32.5175 20.3169 21.359 20.3169C10.2005 20.3169 1.15479 24.5089 1.15479 29.6799C1.15479 34.8509 10.2005 39.0428 21.359 39.0428Z" fill="#757575"/>
<path d="M40.813 29.6802C40.813 27.562 38.9298 25.4078 35.3306 23.7397C31.7938 22.1007 26.8545 21.0669 21.3589 21.0669C15.8635 21.0669 10.925 22.1008 7.38818 23.7397C3.78869 25.4078 1.90479 27.5619 1.90479 29.6802C1.90493 31.7983 3.78883 33.9516 7.38818 35.6196C10.925 37.2586 15.8634 38.2925 21.3589 38.2925C26.8545 38.2925 31.7938 37.2586 35.3306 35.6196C38.9296 33.9517 40.8128 31.7982 40.813 29.6802ZM42.313 29.6802C42.3128 32.7328 39.6733 35.2603 35.9604 36.981C32.1848 38.7306 27.0216 39.7925 21.3589 39.7925C15.6961 39.7925 10.533 38.7306 6.75732 36.981C3.04442 35.2604 0.404926 32.7328 0.404785 29.6802C0.404785 26.6274 3.04432 24.0991 6.75732 22.3784C10.5329 20.6288 15.6962 19.5669 21.3589 19.5669C27.0215 19.5669 32.1848 20.6288 35.9604 22.3784C39.6734 24.0991 42.313 26.6274 42.313 29.6802Z" fill="#1A1A1A"/>
<path d="M21.3591 35.679C30.3403 35.679 37.621 32.6797 37.621 28.9799C37.621 25.28 30.3403 22.2808 21.3591 22.2808C12.3779 22.2808 5.09717 25.28 5.09717 28.9799C5.09717 32.6797 12.3779 35.679 21.3591 35.679Z" fill="#2C2C2C"/>
<path d="M23.6605 45.8157C23.9559 45.5257 24.4308 45.5302 24.721 45.8255C25.0111 46.1209 25.0066 46.5958 24.7112 46.886L24.5892 47.0062L24.5872 47.0071L24.0638 46.471L24.0042 46.4105L24.5872 47.0071C22.907 48.6476 20.2052 48.5824 18.6067 46.8616C18.3248 46.5581 18.3423 46.083 18.6458 45.8011C18.9493 45.5192 19.4244 45.5367 19.7064 45.8401C20.7311 46.9433 22.4624 46.9854 23.5394 45.9339V45.9349L23.6605 45.8157Z" fill="#D9D9D9"/>
<path d="M26.3576 42.9653C27.0176 42.9653 27.5526 43.5003 27.5526 44.1603C27.5526 44.8203 27.0176 45.3553 26.3576 45.3553C25.6976 45.3553 25.1626 44.8203 25.1626 44.1603C25.1626 43.5004 25.6976 42.9653 26.3576 42.9653Z" fill="#D9D9D9"/>
<path d="M16.3576 42.9653C15.6976 42.9653 15.1626 43.5003 15.1626 44.1603C15.1626 44.8203 15.6976 45.3553 16.3576 45.3553C17.0176 45.3553 17.5526 44.8203 17.5526 44.1603C17.5526 43.5004 17.0176 42.9653 16.3576 42.9653Z" fill="#D9D9D9"/>
</svg>
