<svg width="48" height="55" viewBox="0 0 48 55" fill="none" xmlns="http://www.w3.org/2000/svg">
<path fill-rule="evenodd" clip-rule="evenodd" d="M1.20888 30.1699C0.737181 37.2499 3.09568 52.8099 21.0203 53.7499C26.4574 53.7499 32.3258 52.3099 36.3946 47.4099C37.3977 47.9499 38.5475 48.2599 39.7696 48.2599C43.6773 48.2599 46.8451 45.0998 46.8451 41.1898C46.8451 37.8098 44.4753 34.9799 41.3066 34.2799C41.4482 32.9899 41.5357 31.6199 41.5642 30.1699H1.20888ZM38.2369 44.7098C39.3779 42.6798 40.2781 40.2299 40.8546 37.2699C42.4132 37.7999 43.5354 39.2699 43.5354 41.0099C43.5354 43.1899 41.7703 44.9498 39.5931 44.9498C39.1166 44.9498 38.6598 44.8698 38.2369 44.7098Z" fill="#F5F5F5"/>
<path d="M21.0203 53.7499L20.9809 54.4999C20.994 54.4999 21.0071 54.4999 21.0203 54.4999V53.7499ZM1.20888 30.1699V29.4199C0.813976 29.4199 0.486775 29.7299 0.460475 30.1199L1.20888 30.1699ZM36.3946 47.4099L36.7529 46.7499C36.4381 46.5799 36.0462 46.6499 35.8174 46.9299L36.3946 47.4099ZM41.3066 34.2799L40.5611 34.1998C40.5193 34.5798 40.7707 34.9299 41.1444 35.0099L41.3066 34.2799ZM41.5642 30.1699L42.3141 30.1799C42.318 29.9799 42.2408 29.7899 42.0997 29.6399C41.9587 29.4999 41.7657 29.4199 41.5642 29.4199V30.1699ZM40.8546 37.2699L41.0944 36.5599C40.8896 36.4999 40.6648 36.5199 40.4779 36.6299C40.2909 36.7299 40.1599 36.9199 40.1185 37.1299L40.8546 37.2699ZM38.2369 44.7098L37.583 44.3499C37.4753 44.5399 37.4572 44.7698 37.5335 44.9698C37.6097 45.1798 37.7725 45.3399 37.9789 45.4199L38.2369 44.7098ZM21.0597 53.0099C12.3564 52.5499 7.51517 48.5699 4.86858 43.8899C2.19308 39.1699 1.72738 33.6698 1.95718 30.2198L0.460475 30.1199C0.218675 33.7499 0.696377 39.5699 3.56328 44.6299C6.45918 49.7499 11.7596 54.0199 20.9809 54.4999L21.0597 53.0099ZM35.8174 46.9299C31.9471 51.5999 26.3401 52.9999 21.0203 52.9999V54.4999C26.5747 54.4999 32.7045 53.0299 36.9719 47.8899L35.8174 46.9299ZM36.0364 48.0698C37.1467 48.6698 38.4192 49.0099 39.7696 49.0099V47.5099C38.6757 47.5099 37.6488 47.2399 36.7529 46.7499L36.0364 48.0698ZM39.7696 49.0099C44.0915 49.0099 47.5951 45.5098 47.5951 41.1898H46.0951C46.0951 44.6798 43.2631 47.5099 39.7696 47.5099V49.0099ZM47.5951 41.1898C47.5951 37.4498 44.9735 34.3199 41.4688 33.5499L41.1444 35.0099C43.977 35.6399 46.0951 38.1698 46.0951 41.1898H47.5951ZM40.8144 30.1499C40.7863 31.5899 40.7001 32.9298 40.5611 34.1998L42.0521 34.3599C42.1963 33.0499 42.2852 31.6599 42.3141 30.1799L40.8144 30.1499ZM1.20888 30.9199H41.5642V29.4199H1.20888V30.9199ZM40.1185 37.1299C39.5551 40.0199 38.6798 42.3899 37.583 44.3499L38.8909 45.0798C40.0761 42.9698 41.001 40.4399 41.5907 37.4199L40.1185 37.1299ZM44.2854 41.0099C44.2854 38.9399 42.9486 37.1899 41.0944 36.5599L40.6147 37.9899C41.8777 38.4099 42.7854 39.6099 42.7854 41.0099H44.2854ZM39.5931 45.6998C42.1846 45.6998 44.2854 43.5999 44.2854 41.0099H42.7854C42.7854 42.7699 41.3561 44.1998 39.5931 44.1998V45.6998ZM37.9789 45.4199C38.4832 45.5999 39.0273 45.6998 39.5931 45.6998V44.1998C39.2059 44.1998 38.8363 44.1299 38.4949 44.0099L37.9789 45.4199Z" fill="#1A1A1A"/>
<path d="M21.36 39.0428C32.5184 39.0428 41.5642 34.8509 41.5642 29.6799C41.5642 24.5089 32.5184 20.3169 21.36 20.3169C10.2015 20.3169 1.15576 24.5089 1.15576 29.6799C1.15576 34.8509 10.2015 39.0428 21.36 39.0428Z" fill="#D9D9D9"/>
<path d="M40.814 29.6802C40.814 27.562 38.9308 25.4078 35.3315 23.7397C31.7947 22.1007 26.8554 21.0669 21.3599 21.0669C15.8645 21.0669 10.9259 22.1008 7.38916 23.7397C3.78967 25.4078 1.90576 27.5619 1.90576 29.6802C1.90591 31.7983 3.78981 33.9516 7.38916 35.6196C10.9259 37.2586 15.8644 38.2925 21.3599 38.2925C26.8554 38.2925 31.7947 37.2586 35.3315 35.6196C38.9306 33.9517 40.8138 31.7982 40.814 29.6802ZM42.314 29.6802C42.3138 32.7328 39.6743 35.2603 35.9614 36.981C32.1858 38.7306 27.0226 39.7925 21.3599 39.7925C15.6971 39.7925 10.5339 38.7306 6.7583 36.981C3.0454 35.2603 0.405902 32.7328 0.405762 29.6802C0.405762 26.6274 3.04531 24.0991 6.7583 22.3784C10.5339 20.6288 15.6972 19.5669 21.3599 19.5669C27.0225 19.5669 32.1858 20.6288 35.9614 22.3784C39.6744 24.0991 42.314 26.6274 42.314 29.6802Z" fill="#1A1A1A"/>
<path d="M21.36 35.679C30.3412 35.679 37.6219 32.6797 37.6219 28.9799C37.6219 25.28 30.3412 22.2808 21.36 22.2808C12.3788 22.2808 5.09814 25.28 5.09814 28.9799C5.09814 32.6797 12.3788 35.679 21.36 35.679Z" fill="#D4693B"/>
<path d="M23.66 45.8157C23.9554 45.5257 24.4303 45.5302 24.7205 45.8255C25.0106 46.1209 25.0061 46.5958 24.7107 46.886L24.5887 47.0062L24.5867 47.0071L24.0633 46.471L24.0037 46.4105L24.5867 47.0071C22.9065 48.6476 20.2047 48.5824 18.6063 46.8616C18.3244 46.5581 18.3418 46.083 18.6453 45.8011C18.9488 45.5192 19.424 45.5367 19.7059 45.8401C20.7306 46.9433 22.4619 46.9854 23.5389 45.9339V45.9349L23.66 45.8157Z" fill="#1A1A1A"/>
<path d="M26.3571 42.9653C27.0171 42.9653 27.5521 43.5003 27.5521 44.1603C27.5521 44.8203 27.0171 45.3553 26.3571 45.3553C25.6971 45.3553 25.1621 44.8203 25.1621 44.1603C25.1621 43.5004 25.6971 42.9653 26.3571 42.9653Z" fill="#1A1A1A"/>
<path d="M16.3571 42.9653C15.6971 42.9653 15.1621 43.5003 15.1621 44.1603C15.1621 44.8203 15.6971 45.3553 16.3571 45.3553C17.0171 45.3553 17.5521 44.8203 17.5521 44.1603C17.5521 43.5004 17.0171 42.9653 16.3571 42.9653Z" fill="#1A1A1A"/>
</svg>
