<svg width="48" height="55" viewBox="0 0 48 55" fill="none" xmlns="http://www.w3.org/2000/svg">
<path fill-rule="evenodd" clip-rule="evenodd" d="M1.20893 30.1699C0.736934 37.2499 3.09594 52.8099 21.0199 53.7499C26.4569 53.7499 32.3259 52.3099 36.3949 47.4099C37.3979 47.9499 38.5469 48.2599 39.7699 48.2599C43.6769 48.2599 46.8449 45.0998 46.8449 41.1898C46.8449 37.8098 44.4749 34.9799 41.3069 34.2799C41.4479 32.9899 41.5359 31.6199 41.5639 30.1699H1.20893ZM38.2369 44.7098C39.3779 42.6798 40.2779 40.2299 40.8549 37.2699C42.4129 37.7999 43.5349 39.2699 43.5349 41.0099C43.5349 43.1899 41.7699 44.9498 39.5929 44.9498C39.1169 44.9498 38.6599 44.8698 38.2369 44.7098Z" fill="#034AC1"/>
<path d="M21.0201 53.7499L20.9811 54.4999C20.9941 54.4999 21.0071 54.4999 21.0201 54.4999V53.7499ZM1.20908 30.1699V29.4199C0.814078 29.4199 0.487077 29.7299 0.461077 30.1199L1.20908 30.1699ZM36.3951 47.4099L36.7531 46.7499C36.4381 46.5799 36.0461 46.6499 35.8171 46.9299L36.3951 47.4099ZM41.3071 34.2799L40.5611 34.1998C40.5191 34.5798 40.7711 34.9299 41.1441 35.0099L41.3071 34.2799ZM41.5641 30.1699L42.3141 30.1799C42.3181 29.9799 42.2411 29.7899 42.1001 29.6399C41.9591 29.4999 41.7661 29.4199 41.5641 29.4199V30.1699ZM40.8551 37.2699L41.0941 36.5599C40.8901 36.4999 40.6651 36.5199 40.4781 36.6299C40.2911 36.7299 40.1601 36.9199 40.1181 37.1299L40.8551 37.2699ZM38.2371 44.7098L37.5831 44.3499C37.4751 44.5399 37.4571 44.7698 37.5331 44.9698C37.6101 45.1798 37.7731 45.3399 37.9791 45.4199L38.2371 44.7098ZM21.0601 53.0099C12.3561 52.5499 7.51508 48.5699 4.86908 43.8899C2.19308 39.1699 1.72708 33.6698 1.95708 30.2198L0.461077 30.1199C0.219077 33.7499 0.696082 39.5699 3.56308 44.6299C6.45908 49.7499 11.7601 54.0199 20.9811 54.4999L21.0601 53.0099ZM35.8171 46.9299C31.9471 51.5999 26.3401 52.9999 21.0201 52.9999V54.4999C26.5751 54.4999 32.7051 53.0299 36.9721 47.8899L35.8171 46.9299ZM36.0361 48.0698C37.1471 48.6698 38.4191 49.0099 39.7701 49.0099V47.5099C38.6761 47.5099 37.6491 47.2399 36.7531 46.7499L36.0361 48.0698ZM39.7701 49.0099C44.0911 49.0099 47.5951 45.5098 47.5951 41.1898H46.0951C46.0951 44.6798 43.2631 47.5099 39.7701 47.5099V49.0099ZM47.5951 41.1898C47.5951 37.4498 44.9731 34.3199 41.4691 33.5499L41.1441 35.0099C43.9771 35.6399 46.0951 38.1698 46.0951 41.1898H47.5951ZM40.8141 30.1499C40.7861 31.5899 40.7001 32.9298 40.5611 34.1998L42.0521 34.3599C42.1961 33.0499 42.2851 31.6599 42.3141 30.1799L40.8141 30.1499ZM1.20908 30.9199H41.5641V29.4199H1.20908V30.9199ZM40.1181 37.1299C39.5551 40.0199 38.6801 42.3899 37.5831 44.3499L38.8911 45.0798C40.0761 42.9698 41.0011 40.4399 41.5911 37.4199L40.1181 37.1299ZM44.2851 41.0099C44.2851 38.9399 42.9491 37.1899 41.0941 36.5599L40.6151 37.9899C41.8781 38.4099 42.7851 39.6099 42.7851 41.0099H44.2851ZM39.5931 45.6998C42.1851 45.6998 44.2851 43.5999 44.2851 41.0099H42.7851C42.7851 42.7699 41.3561 44.1998 39.5931 44.1998V45.6998ZM37.9791 45.4199C38.4831 45.5999 39.0271 45.6998 39.5931 45.6998V44.1998C39.2061 44.1998 38.8361 44.1299 38.4951 44.0099L37.9791 45.4199Z" fill="#1A1A1A"/>
<path d="M21.36 39.0428C32.5184 39.0428 41.5641 34.8509 41.5641 29.6799C41.5641 24.5089 32.5184 20.3169 21.36 20.3169C10.2015 20.3169 1.15576 24.5089 1.15576 29.6799C1.15576 34.8509 10.2015 39.0428 21.36 39.0428Z" fill="#E3ECF2"/>
<path d="M40.814 29.6802C40.814 27.562 38.9308 25.4078 35.3315 23.7397C31.7947 22.1007 26.8554 21.0669 21.3599 21.0669C15.8645 21.0669 10.9259 22.1008 7.38916 23.7397C3.78968 25.4078 1.90576 27.5619 1.90576 29.6802C1.90591 31.7983 3.78981 33.9516 7.38916 35.6196C10.9259 37.2586 15.8644 38.2925 21.3599 38.2925C26.8554 38.2925 31.7947 37.2586 35.3315 35.6196C38.9306 33.9517 40.8138 31.7982 40.814 29.6802ZM42.314 29.6802C42.3138 32.7328 39.6743 35.2603 35.9614 36.981C32.1858 38.7306 27.0226 39.7925 21.3599 39.7925C15.6971 39.7925 10.5339 38.7306 6.7583 36.981C3.04541 35.2603 0.405902 32.7328 0.405762 29.6802C0.405762 26.6274 3.04531 24.0991 6.7583 22.3784C10.5339 20.6288 15.6972 19.5669 21.3599 19.5669C27.0225 19.5669 32.1858 20.6288 35.9614 22.3784C39.6744 24.0991 42.314 26.6274 42.314 29.6802Z" fill="#1A1A1A"/>
<path d="M21.36 35.679C30.3412 35.679 37.6219 32.6797 37.6219 28.9799C37.6219 25.28 30.3412 22.2808 21.36 22.2808C12.3788 22.2808 5.09814 25.28 5.09814 28.9799C5.09814 32.6797 12.3788 35.679 21.36 35.679Z" fill="#603A2A"/>
<path opacity="0.5" d="M13.5429 24.9902C14.798 23.9052 16.6003 24.238 18.0644 24.8691C19.3188 25.4099 20.5064 26.2466 21.2607 26.9736C21.543 26.7021 21.8998 26.4287 22.291 26.1728C22.9101 25.7678 23.6593 25.3766 24.4413 25.0722C25.2212 24.7687 26.0534 24.5443 26.8349 24.4872C27.6099 24.4307 28.3909 24.5356 29.0117 24.955C29.402 25.2173 29.6717 25.5599 29.7607 25.9843C29.8473 26.3977 29.7453 26.8076 29.5634 27.1786C29.2075 27.9045 28.4564 28.662 27.5849 29.3896C25.8269 30.8572 23.2966 32.4235 21.5546 33.6034C21.4177 33.6961 21.2451 33.7149 21.0937 33.6562L21.0302 33.6259L20.2568 33.1835C18.4226 32.1102 16.4069 30.7685 14.9677 29.4628C14.1526 28.7233 13.4762 27.9536 13.1474 27.2167C12.9806 26.8427 12.8879 26.4443 12.9433 26.0468C13.0003 25.6373 13.2068 25.2794 13.5429 24.9902Z" fill="#FAEFEB"/>
<path d="M23.6634 45.8157C23.9588 45.5257 24.4337 45.5302 24.7239 45.8255C25.014 46.1209 25.0095 46.5958 24.7142 46.886L24.5921 47.0062L24.5901 47.0071L24.0667 46.471L24.0071 46.4105L24.5901 47.0071C22.9099 48.6476 20.2081 48.5824 18.6097 46.8616C18.3278 46.5581 18.3453 46.083 18.6487 45.8011C18.9522 45.5192 19.4274 45.5367 19.7093 45.8401C20.734 46.9433 22.4653 46.9854 23.5423 45.9339V45.9349L23.6634 45.8157Z" fill="#1A1A1A"/>
<path d="M26.3605 42.9653C27.0205 42.9653 27.5555 43.5003 27.5555 44.1603C27.5555 44.8203 27.0205 45.3553 26.3605 45.3553C25.7005 45.3553 25.1655 44.8203 25.1655 44.1603C25.1655 43.5004 25.7005 42.9653 26.3605 42.9653Z" fill="#1A1A1A"/>
<path d="M16.3605 42.9653C15.7005 42.9653 15.1655 43.5003 15.1655 44.1603C15.1655 44.8203 15.7005 45.3553 16.3605 45.3553C17.0205 45.3553 17.5555 44.8203 17.5555 44.1603C17.5555 43.5004 17.0205 42.9653 16.3605 42.9653Z" fill="#1A1A1A"/>
</svg>
