<svg width="48" height="55" viewBox="0 0 48 55" fill="none" xmlns="http://www.w3.org/2000/svg">
<path d="M28.4969 52.2199C28.5109 52.3599 28.9379 53.8199 28.6769 53.8999C37.6439 53.8999 36.6539 53.6599 40.8639 52.9099L40.7249 42.3799C40.7249 41.6799 41.5279 41.36 42.0529 40.93C43.3059 39.91 44.0739 38.5499 44.9719 37.2399C45.9989 35.7399 46.3329 34.6199 46.3329 32.8299C46.3329 26.0299 38.5199 21.6799 32.9409 20.6199C29.7709 20.0099 26.4129 20.2499 23.1999 20.2499L13.8149 21.6199C15.4889 21.4899 17.1709 21.5099 18.7979 21.8199C21.4809 22.3199 24.3569 22.3999 26.9879 23.1199C31.1059 24.2399 33.3339 28.7199 33.3339 32.7299C33.3339 33.8199 33.0579 34.7799 32.3009 35.5899C31.7329 36.1899 31.2819 36.7599 30.5959 37.2399C30.0729 37.5999 28.4409 38.3299 28.3489 38.9599C28.0389 41.1199 28.3169 43.5099 28.3169 45.7099V49.1099C28.3169 50.1499 28.3939 51.1799 28.4969 52.2199Z" fill="#A55E40"/>
<path d="M4.92504 38.0899C5.26304 38.3199 5.58904 38.6699 5.58904 39.0699C5.58904 41.3499 5.54303 43.6699 5.32703 45.9399C5.14603 47.8199 5.40203 49.7199 5.44103 51.5999C5.44603 51.8399 5.25803 53.7799 5.52303 53.8499C5.75803 53.9199 6.23604 53.7099 6.50704 53.7099H8.85204C11.674 53.7099 14.51 53.56 17.314 53.56H27.792C28.052 53.56 28.421 53.63 28.677 53.56C28.938 53.48 28.511 52.0199 28.497 51.8799C28.394 50.8399 28.317 49.81 28.317 48.77V45.3699C28.317 43.1699 28.039 40.7799 28.349 38.6299C28.441 37.9899 30.073 37.26 30.596 36.9C31.282 36.42 31.733 35.8599 32.301 35.2499C33.058 34.4399 33.334 33.4799 33.334 32.3899C33.334 28.3799 31.106 23.9 26.988 22.78C24.357 22.06 21.481 21.9799 18.798 21.4799C17.171 21.1699 15.489 21.15 13.815 21.28L9.13103 21.9699C6.50503 22.4799 4.53004 23.64 3.22704 25.42C0.38804 29.31 -0.413962 34.4999 4.92504 38.0899Z" fill="#F8E9E2"/>
<path d="M19.4599 31.5401C19.4319 30.9901 19.1269 30.48 18.6139 30.11C18.0999 29.73 17.4199 29.5301 16.7219 29.5501C16.1109 29.5601 15.5309 29.7401 15.0779 30.0501L14.8929 30.19C14.4779 30.54 14.2339 30.99 14.1979 31.46L14.1969 31.66L9.69585 31.76C9.61885 30.29 10.2969 28.8601 11.5799 27.7901C12.8639 26.7201 14.6489 26.0901 16.5409 26.0501C18.4319 26.0001 20.2769 26.5401 21.6679 27.5501C23.0599 28.5601 23.8849 29.9601 23.9609 31.4301L19.4599 31.5401Z" fill="#92DA40"/>
<path d="M16.52 25.0508C18.6055 24.9968 20.6689 25.5893 22.2544 26.7402C23.8462 27.8952 24.8652 29.5559 24.9595 31.3789L22.9624 31.4814C22.9046 30.3644 22.2726 29.2243 21.0806 28.3593L20.8511 28.2011C19.6819 27.433 18.1552 27.0078 16.5669 27.0498H16.562C14.8674 27.0856 13.3079 27.6504 12.2192 28.5576C11.1415 29.4566 10.6367 30.5979 10.6948 31.708L8.69677 31.8125C8.60094 29.9829 9.4513 28.2633 10.939 27.0224L10.9399 27.0215C12.4192 25.7889 14.4307 25.0939 16.52 25.0498V25.0508Z" fill="#78B136"/>
<path d="M19.2366 36.6298C19.2076 36.0898 18.9036 35.5698 18.3906 35.1998C17.8766 34.8298 17.1966 34.6299 16.4986 34.6399C15.8876 34.6599 15.3076 34.8399 14.8546 35.1499L14.6686 35.2899C14.2546 35.6299 14.0106 36.0799 13.9746 36.5499L13.9726 36.7498L9.47159 36.8598C9.39559 35.3798 10.0726 33.9498 11.3566 32.8798C12.6406 31.8098 14.4256 31.1799 16.3176 31.1399C18.2086 31.0899 20.0526 31.6399 21.4446 32.6499C22.8356 33.6599 23.6606 35.0499 23.7366 36.5299L19.2366 36.6298Z" fill="#92DA40"/>
<path d="M16.2972 30.1408C18.3871 30.0867 20.449 30.692 22.0325 31.841C23.6219 32.9951 24.6414 34.6444 24.7356 36.4787L22.7386 36.5812C22.6807 35.4557 22.0501 34.325 20.8577 33.4591C19.6586 32.5891 18.0342 32.0951 16.344 32.1398H16.3392C14.6446 32.1756 13.086 32.7414 11.9974 33.6486C10.9199 34.5465 10.4134 35.6863 10.471 36.8088L8.47295 36.9113C8.37858 35.0737 9.22653 33.3536 10.7171 32.1115C12.1964 30.8789 14.2079 30.184 16.2972 30.1398V30.1408Z" fill="#78B136"/>
<path d="M19.2727 41.59C19.2447 41.05 18.9397 40.53 18.4267 40.16C17.9137 39.79 17.2327 39.59 16.5347 39.6C15.9247 39.62 15.3437 39.8 14.8907 40.11L14.7057 40.25C14.2917 40.59 14.0467 41.04 14.0107 41.51L14.0097 41.71L9.5087 41.8199C9.4327 40.3499 10.1097 38.91 11.3937 37.84C12.6767 36.77 14.4627 36.14 16.3537 36.1C18.2457 36.06 20.0897 36.6 21.4807 37.61C22.8727 38.62 23.6977 40.01 23.7737 41.49L19.2727 41.59Z" fill="#92DA40"/>
<path d="M16.3333 35.0999C18.4183 35.0559 20.4818 35.6489 22.0687 36.8011C23.659 37.9552 24.6786 39.6045 24.7728 41.4388L22.7757 41.5413C22.7215 40.4862 22.1634 39.427 21.1107 38.5853L20.8939 38.4193C19.6989 37.5516 18.0741 37.0641 16.3753 37.0999C14.6816 37.1358 13.1219 37.7009 12.0345 38.6078L11.3939 37.8402L12.0345 38.6087L11.8392 38.7796C10.8965 39.6493 10.4542 40.7254 10.5081 41.7689L8.51007 41.8714C8.41571 40.0447 9.26214 38.3143 10.7532 37.0716C12.2318 35.8386 14.2451 35.1441 16.3333 35.0999Z" fill="#78B136"/>
<path d="M19.2376 46.59C19.2096 46.05 18.9045 45.53 18.3915 45.16C17.8785 44.79 17.1975 44.59 16.4995 44.6C15.8885 44.62 15.3085 44.8 14.8555 45.11L14.6706 45.25C14.2556 45.59 14.0115 46.04 13.9755 46.51L13.9746 46.71L9.47355 46.8199C9.39755 45.3499 10.0745 43.92 11.3575 42.84C12.6415 41.77 14.4265 41.14 16.3185 41.1C18.2095 41.06 20.0545 41.6 21.4455 42.61C22.8375 43.62 23.6625 45.02 23.7385 46.49L19.2376 46.59Z" fill="#92DA40"/>
<path d="M16.2981 40.0999C18.3821 40.056 20.4466 40.6489 22.0335 41.8011C23.6251 42.9561 24.6434 44.616 24.7376 46.4388L22.7405 46.5413C22.6863 45.4941 22.1275 44.4263 21.0755 43.5843L20.8587 43.4193C19.6637 42.5516 18.038 42.0641 16.3401 42.0999C14.6456 42.1358 13.0861 42.7005 11.9974 43.6078C10.9185 44.5176 10.4156 45.6596 10.473 46.7689L8.47491 46.8714C8.38042 45.0422 9.22977 43.3241 10.7142 42.0745L10.7181 42.0716C12.1974 40.839 14.2089 40.1441 16.2981 40.0999Z" fill="#78B136"/>
<path d="M19.2376 51.66C19.2096 51.12 18.9045 50.61 18.3915 50.23C17.8785 49.86 17.1975 49.6601 16.4995 49.6801C15.8885 49.6901 15.3085 49.8701 14.8555 50.1801L14.6706 50.3199C14.2556 50.6699 14.0115 51.11 13.9755 51.58L13.9746 51.79L9.47355 51.89C9.39755 50.42 10.0745 48.99 11.3575 47.91C12.6415 46.84 14.4265 46.22 16.3185 46.17C18.2095 46.13 20.0545 46.6701 21.4455 47.6801C22.8375 48.6901 23.6625 50.0901 23.7385 51.5601L19.2376 51.66Z" fill="#92DA40"/>
<path d="M16.6878 45.1699C18.6378 45.2028 20.5456 45.7907 22.0335 46.8711C23.6251 48.0261 24.6434 49.686 24.7376 51.5088L22.7405 51.6113C22.6863 50.5641 22.1275 49.4963 21.0755 48.6543L20.8587 48.4893C19.6647 47.6223 18.0405 47.1339 16.344 47.1689L16.345 47.1699C14.6428 47.215 13.0834 47.7727 11.9974 48.6777C10.9185 49.5876 10.4156 50.7296 10.473 51.8389L8.47491 51.9414C8.38042 50.1121 9.22977 48.3941 10.7142 47.1445L10.7181 47.1416C12.1999 45.9069 14.2108 45.225 16.2923 45.1699H16.6878Z" fill="#78B136"/>
<path d="M5.52343 54.1857L5.52636 54.1749L5.71386 53.4659L5.52343 54.1857ZM32.584 32.7296C32.5839 29.0349 30.5935 25.0969 27.1309 23.9464L26.791 23.8439L26.79 23.8429L26.9521 23.2521L27.0459 22.9083L26.79 23.8429C25.5298 23.498 24.1979 23.3039 22.8193 23.132C21.4572 22.9621 20.0308 22.8122 18.6602 22.5568H18.6572C17.1228 22.2645 15.5191 22.2405 13.8945 22.3654L9.2666 23.047C6.79352 23.5188 5.00195 24.6036 3.83203 26.2013C2.47724 28.0576 1.65806 30.1623 1.75879 32.17C1.85746 34.1356 2.84324 36.1227 5.33398 37.8009C5.56164 37.9491 5.7998 38.1526 5.9873 38.4064C6.17407 38.6592 6.33886 39.0029 6.33886 39.4103V39.4191L6.1914 51.9386L6.18847 51.9376C6.18827 52.045 6.17716 52.245 6.16699 52.4181C6.15428 52.6346 6.14105 52.893 6.13476 53.1427C6.13299 53.2131 6.13314 53.2807 6.13281 53.3449C6.22982 53.3245 6.36567 53.3 6.50683 53.2999H8.85156C10.2509 53.2999 11.6564 53.2623 13.0703 53.2247C14.4807 53.1873 15.901 53.1495 17.3144 53.1495H27.792C27.8415 53.1495 27.8912 53.153 27.9385 53.1554C27.9067 52.999 27.8715 52.8411 27.8389 52.7052C27.821 52.6308 27.8022 52.5564 27.7891 52.5001L27.751 52.2941C27.6469 51.2437 27.5674 50.1852 27.5674 49.1095V45.7101C27.5674 44.6195 27.4986 43.521 27.4668 42.34C27.4357 41.1862 27.4423 39.9978 27.6064 38.8536V38.8517C27.6682 38.4288 27.9531 38.1149 28.1533 37.9279C28.3784 37.7176 28.6535 37.5265 28.9102 37.3644C29.1705 37.1999 29.4425 37.0465 29.668 36.9191C29.9048 36.7852 30.0676 36.6915 30.165 36.6251C30.7675 36.2035 31.1341 35.7313 31.7529 35.0773C32.3484 34.44 32.584 33.6813 32.584 32.7296ZM47.083 32.8302C47.083 33.7724 46.9953 34.5791 46.7549 35.3634C46.5144 36.1481 46.1326 36.8718 45.5908 37.6632L44.9453 38.631C44.2836 39.6272 43.5482 40.68 42.5264 41.5118L42.5254 41.5109C42.3638 41.643 42.1872 41.7634 42.0459 41.8595C41.8921 41.9641 41.7719 42.0471 41.6709 42.131C41.4676 42.2999 41.4746 42.3638 41.4746 42.38L41.6143 52.9005C41.6189 53.2675 41.3565 53.5842 40.9951 53.6486C38.9721 54.009 38.0625 54.2751 36.6367 54.4318C35.1972 54.5899 33.1755 54.6479 28.7471 54.6486C28.535 54.6867 28.3305 54.6825 28.1943 54.6749C27.971 54.6625 27.8992 54.6495 27.792 54.6495H17.3144C15.9241 54.6495 14.5234 54.6872 13.1094 54.7247C11.6989 54.7622 10.2741 54.7999 8.85156 54.7999H6.50683C6.52156 54.7999 6.50474 54.7985 6.42968 54.8146C6.35373 54.8309 6.28799 54.8483 6.17578 54.8751C6.08055 54.8979 5.95497 54.9272 5.82715 54.9425C5.71504 54.9559 5.52922 54.9675 5.33105 54.9132V54.9152C5.32434 54.9134 5.31808 54.9102 5.31152 54.9083H5.30859C5.08332 54.8418 4.94389 54.6963 4.87109 54.5958C4.79644 54.4928 4.75561 54.3898 4.73242 54.3204C4.68586 54.1812 4.66511 54.0335 4.65332 53.9161C4.62872 53.6712 4.62797 53.3746 4.63476 53.1046C4.64173 52.8282 4.65707 52.549 4.66992 52.3302C4.67648 52.2186 4.6825 52.127 4.68652 52.0529L4.6914 51.9454V51.921L4.83886 39.4103L4.833 39.3878C4.82603 39.3692 4.81081 39.3393 4.78027 39.298C4.72027 39.2168 4.62583 39.1304 4.51562 39.0587L4.50683 39.0529C1.66586 37.1426 0.385085 34.742 0.259763 32.2452C0.13649 29.788 1.13688 27.3512 2.62109 25.3175L2.62207 25.3165C4.0565 23.3572 6.21207 22.1035 8.98535 21.5743L10.1484 21.3556C11.318 21.1479 12.522 20.9733 13.7353 20.8732L20.7959 19.8478C22.3564 19.6233 23.9323 19.5011 25.5088 19.4806C27.9815 19.4408 30.5797 19.4063 33.0811 19.8829L33.6299 19.9962C36.404 20.6105 39.6075 21.9645 42.1904 23.9816C44.9453 26.133 47.083 29.1159 47.083 32.8302ZM34.084 32.7296C34.084 33.9579 33.767 35.119 32.8486 36.1017L32.2422 35.5343L32.3008 35.59L32.8486 36.1017L32.8457 36.1056L32.4521 36.5324C32.048 36.9748 31.6028 37.4513 31.0264 37.8546L30.5742 37.2081L30.6416 37.3058L31.0264 37.8546L31.0215 37.8575L30.7324 38.0382C30.6262 38.1006 30.5136 38.164 30.4062 38.2247C30.1758 38.3551 29.9354 38.4912 29.7109 38.6329C29.4832 38.7768 29.3007 38.9088 29.1777 39.0236C29.1245 39.0733 29.0974 39.1084 29.084 39.1261C28.9462 40.1247 28.9369 41.191 28.9668 42.2999C28.9965 43.4039 29.0674 44.6008 29.0674 45.7101V49.1095C29.0674 50.1045 29.1397 51.0977 29.2402 52.1173C29.2419 52.1252 29.2454 52.1385 29.25 52.1583C29.2618 52.2088 29.2769 52.2716 29.2969 52.3546C29.3352 52.514 29.3854 52.726 29.4268 52.9396C29.4393 53.0047 29.4495 53.0747 29.4609 53.1456C33.3999 53.1387 35.2019 53.0801 36.4727 52.9406C37.705 52.8052 38.3961 52.61 40.1055 52.2892L39.9756 42.3898L39.9746 42.38C39.9746 41.6962 40.3839 41.2499 40.7129 40.9767C40.8782 40.8394 41.0577 40.7175 41.2021 40.6193C41.3584 40.513 41.4778 40.4319 41.5781 40.3497L41.5791 40.3488L41.7891 40.17C42.5373 39.5058 43.0892 38.7091 43.6807 37.8204L44.3535 36.8156C44.8383 36.1074 45.1371 35.5214 45.3203 34.924C45.5036 34.326 45.583 33.6777 45.583 32.8302C45.583 29.7445 43.8139 27.1518 41.2676 25.1632C38.8806 23.2992 35.8884 22.0335 33.3105 21.462L32.8008 21.3566C30.4743 20.9133 28.0284 20.9394 25.5332 20.9796H25.5303L25.5225 20.3361L25.5195 20.129L25.5303 20.9796C24.0178 20.9992 22.5072 21.1159 21.0107 21.3312L21.0117 21.3322L20.7744 21.3663C21.5042 21.4626 22.2471 21.5482 23.0049 21.6427C24.3927 21.8158 25.815 22.0216 27.1855 22.3966C31.7495 23.6379 34.0839 28.5236 34.084 32.7296Z" fill="#1A1A1A"/>
<path d="M19.4248 34.8618C19.7718 34.6356 20.2367 34.7335 20.4629 35.0806C20.6888 35.4275 20.5909 35.8915 20.2441 36.1177L19.9824 36.2876C17.4083 37.9874 14.0511 37.9089 11.5586 36.0962C11.2238 35.8525 11.15 35.3832 11.3936 35.0483C11.6372 34.7135 12.1065 34.6397 12.4414 34.8833C14.43 36.3294 17.1085 36.3916 19.1602 35.0347L19.1641 35.0317L19.4248 34.8618Z" fill="#1A1A1A"/>
<path d="M18.796 31.2046C19.235 31.2046 19.591 31.5605 19.591 31.9996C19.591 32.4387 19.235 32.7946 18.796 32.7946C18.3569 32.7946 18.001 32.4387 18.001 31.9996C18.001 31.5605 18.3569 31.2046 18.796 31.2046Z" fill="#1A1A1A"/>
<path d="M11.796 31.2048C11.3569 31.2048 11.001 31.5608 11.001 31.9998C11.001 32.4389 11.3569 32.7948 11.796 32.7948C12.235 32.7948 12.591 32.4389 12.591 31.9998C12.591 31.5608 12.235 31.2048 11.796 31.2048Z" fill="#1A1A1A"/>
</svg>
