<svg width="48" height="55" viewBox="0 0 48 55" fill="none" xmlns="http://www.w3.org/2000/svg">
<path d="M28.4969 52.2199C28.5109 52.3599 28.9379 53.8199 28.6769 53.8999C37.6439 53.8999 36.6539 53.6599 40.8639 52.9099L40.7249 42.3799C40.7249 41.6799 41.5279 41.36 42.0529 40.93C43.3059 39.91 44.0739 38.5499 44.9719 37.2399C45.9989 35.7399 46.3329 34.6199 46.3329 32.8299C46.3329 26.0299 38.5199 21.6799 32.9409 20.6199C29.7709 20.0099 26.4129 20.2499 23.1999 20.2499L13.8149 21.6199C15.4889 21.4899 17.1709 21.5099 18.7979 21.8199C21.4809 22.3199 24.3569 22.3999 26.9879 23.1199C31.1059 24.2399 33.3339 28.7199 33.3339 32.7299C33.3339 33.8199 33.0579 34.7799 32.3009 35.5899C31.7329 36.1899 31.2819 36.7599 30.5959 37.2399C30.0729 37.5999 28.4409 38.3299 28.3489 38.9599C28.0389 41.1199 28.3169 43.5099 28.3169 45.7099V49.1099C28.3169 50.1499 28.3939 51.1799 28.4969 52.2199Z" fill="#AD7F00"/>
<path d="M4.92487 38.0899C5.26287 38.3199 5.58886 38.6699 5.58886 39.0699C5.58886 41.3499 5.54287 43.6699 5.32687 45.9399C5.14587 47.8199 5.40186 49.7199 5.44086 51.5999C5.44586 51.8399 5.25787 53.7799 5.52287 53.8499C5.75787 53.9199 6.23587 53.7099 6.50687 53.7099H8.85186C11.6739 53.7099 14.5099 53.56 17.3139 53.56H27.7919C28.0519 53.56 28.4209 53.63 28.6769 53.56C28.9379 53.48 28.5109 52.0199 28.4969 51.8799C28.3939 50.8399 28.3169 49.81 28.3169 48.77V45.3699C28.3169 43.1699 28.0389 40.7799 28.3489 38.6299C28.4409 37.9899 30.0729 37.26 30.5959 36.9C31.2819 36.42 31.7329 35.8599 32.3009 35.2499C33.0579 34.4399 33.3339 33.4799 33.3339 32.3899C33.3339 28.3799 31.1059 23.9 26.9879 22.78C24.3569 22.06 21.4809 21.9799 18.7979 21.4799C17.1709 21.1699 15.4889 21.15 13.8149 21.28L9.13086 21.9699C6.50486 22.4799 4.52986 23.64 3.22686 25.42C0.38786 29.31 -0.413634 34.4999 4.92487 38.0899Z" fill="#FDEECE"/>
<path d="M17.8825 37.86C17.8825 36.665 17.788 35.5956 17.4137 34.7868C17.203 34.3381 16.7598 33.9515 16.4294 33.86C16.2487 33.8143 15.9093 33.8013 15.402 33.8629C14.9182 33.9217 14.4265 34.0261 13.9684 34.1237L13.9694 34.1247C12.1783 34.5186 11.1997 35.779 10.8278 37.7838L10.7253 38.3795C10.5038 39.7746 10.4036 41.223 10.3952 42.6491L10.3649 44.2604C10.3288 45.8131 10.3116 47.2014 10.652 48.5133C10.8619 49.317 11.3582 49.9092 12.2497 50.5192L12.6559 50.7829L12.6608 50.7848C13.4612 51.2811 14.2024 51.3881 15.4343 51.3698H15.443C16.4604 51.3603 17.4928 51.2735 18.3747 51.0084C19.2497 50.7454 19.8502 50.3467 20.2028 49.7985L20.2057 49.7946C20.6821 49.0591 21.0545 48.2048 21.4294 47.236C21.7857 46.3151 22.1714 45.2109 22.6218 44.2194L24.1637 44.9196L22.6247 44.2145C22.7915 43.8504 22.9093 43.3881 23.0114 42.8053C23.0618 42.5176 23.1046 42.2243 23.1511 41.9088C23.1963 41.6019 23.2451 41.2713 23.3044 40.9489C23.5726 39.4962 23.4841 38.0117 23.4841 36.2399C23.4841 35.0791 23.5582 34.4217 23.3786 33.7262C23.26 33.269 23.1565 32.8114 23.0593 32.3766C22.9603 31.9343 22.8677 31.5167 22.7643 31.1042C22.6226 30.5429 22.2482 29.8015 21.7048 29.1491C21.1513 28.4847 20.5619 28.0766 20.0866 27.9469L20.0759 27.944L20.4811 26.4997L20.5036 26.4176L20.0759 27.944C19.8491 27.8804 19.5015 27.8576 18.9811 27.8766C18.5863 27.8911 17.8391 27.9498 17.3522 27.9499C15.6787 27.9499 14.046 27.9925 12.5817 28.3141C11.1335 28.6352 9.9853 29.0788 8.92547 29.8776L8.92058 29.8815L8.02312 28.6803L7.9489 28.5817L8.92058 29.8815C7.99177 30.5759 7.3024 31.4429 6.62957 32.5348L6.63054 32.5358C6.06495 33.4558 5.91581 34.6469 6.2448 35.6374C6.50565 36.4234 6.07968 37.2727 5.29363 37.5338C4.50748 37.7949 3.65828 37.3688 3.39715 36.5827C2.77623 34.7133 3.06671 32.6044 4.07488 30.9645L4.07586 30.9635L4.37566 30.4909C5.04263 29.4742 5.82687 28.5069 6.87761 27.6696L7.12468 27.4782C8.63654 26.34 10.2279 25.7638 11.9362 25.3854L11.9391 25.3844C13.7528 24.9861 15.6758 24.9499 17.3522 24.9499C17.8199 24.9498 18.173 24.9041 18.8718 24.8786C19.4424 24.8577 20.1777 24.86 20.8747 25.0534C22.1602 25.4038 23.2363 26.3002 24.0095 27.2282C24.6939 28.0497 25.25 29.024 25.5583 29.9704L25.6745 30.3737V30.3756C25.7891 30.833 25.8907 31.2912 25.987 31.7213C26.0849 32.1588 26.1785 32.5708 26.2829 32.9733C26.589 34.1575 26.4841 35.4612 26.4841 36.2399C26.4841 37.7674 26.5878 39.6833 26.2546 41.4899L26.2555 41.4909C26.2073 41.7534 26.1649 42.0337 26.1188 42.3463C26.074 42.6502 26.0253 42.9863 25.9665 43.3219C25.8504 43.9847 25.6789 44.7452 25.3522 45.4596L25.3532 45.4606C24.9497 46.349 24.637 47.26 24.2272 48.319C23.8365 49.3287 23.3744 50.4173 22.7253 51.4206L22.7262 51.4215C21.8569 52.7731 20.526 53.4946 19.2389 53.8815C17.9615 54.2655 16.6041 54.3579 15.4782 54.3688C14.0286 54.3904 12.5999 54.278 11.0788 53.3346C9.75405 52.5182 8.44848 51.4325 7.85711 49.6374L7.74871 49.2682L7.74773 49.2663C7.16382 47.0157 7.38339 44.4807 7.39519 42.6305C7.40563 40.8609 7.54526 39.0202 7.87761 37.236C8.39982 34.421 10.0241 31.921 13.3249 31.195L13.3346 31.193C13.7658 31.1012 14.3964 30.9627 15.0407 30.8844C15.5825 30.8186 16.2605 30.7772 16.9157 30.8971L17.195 30.9586L17.2048 30.9616L17.4596 31.0397C18.7117 31.4734 19.668 32.5291 20.1296 33.5124L18.6462 34.2086L18.7721 34.1501L20.1296 33.5124L20.1325 33.5182C20.8063 34.9687 20.8825 36.6175 20.8825 37.86C20.8825 39.2884 20.9079 40.8428 20.6012 42.4596V42.4616L20.5573 42.735C20.5432 42.8363 20.5282 42.9506 20.5104 43.0866C20.4779 43.3357 20.4358 43.6477 20.3659 43.9645C20.2284 44.5877 19.9438 45.4338 19.1872 46.0749L19.1803 46.0797L19.1735 46.0856C18.5 46.6426 17.6161 46.7279 17.1022 46.7379C16.5856 46.748 16.0516 46.6847 15.6169 46.5768L15.4362 46.528L15.4245 46.5241L15.4137 46.5202C14.2575 46.1561 13.7029 45.2159 13.4352 44.5104C13.1718 43.8159 13.0727 43.0518 13.0104 42.6276C12.8815 41.7572 12.7917 40.918 12.7917 39.9596C12.7917 39.4255 12.9569 38.9721 13.0241 38.7751C13.117 38.5025 13.0964 38.5223 13.0964 38.5797C13.0964 37.7515 13.7682 37.08 14.5964 37.0797C15.4247 37.0797 16.0963 37.7514 16.0964 38.5797C16.0964 39.1073 15.9235 39.568 15.8639 39.7428C15.7888 39.9632 15.7903 39.9906 15.7917 39.9704C15.7922 40.5366 15.8315 41.0594 15.9001 41.6159L15.9782 42.1901L15.9792 42.192C16.0549 42.7078 16.1165 43.1191 16.2409 43.4469C16.2883 43.5717 16.3279 43.6352 16.3503 43.6657C16.5089 43.7041 16.7755 43.7441 17.0436 43.7389C17.1528 43.7368 17.2382 43.7251 17.2995 43.7145C17.3366 43.6508 17.3885 43.5345 17.4362 43.318C17.4752 43.1411 17.5036 42.9446 17.5358 42.6979C17.5651 42.4742 17.601 42.1754 17.654 41.8981C17.8969 40.6158 17.8825 39.3706 17.8825 37.86ZM23.988 44.8395L22.6218 44.2194L22.6247 44.2145L23.988 44.8395Z" fill="#F5DFA8"/>
<path d="M32.584 32.7296C32.5839 29.035 30.5934 25.097 27.1309 23.9464L26.791 23.8439L26.79 23.8429L26.9522 23.2521L27.0459 22.9083L26.79 23.8429C25.5298 23.498 24.1979 23.3039 22.8193 23.132C21.4571 22.9621 20.0308 22.8122 18.6602 22.5568H18.6572C17.1222 22.2643 15.5179 22.2403 13.8926 22.3654L9.26661 23.047C6.79349 23.5188 5.00199 24.6037 3.83204 26.2013C2.47727 28.0576 1.65801 30.1623 1.7588 32.1701C1.85754 34.1357 2.84343 36.1227 5.33399 37.8009C5.56168 37.9491 5.79981 38.1526 5.98731 38.4064C6.17408 38.6592 6.33887 39.0029 6.33887 39.4103V39.4191L6.19044 51.9386L6.18848 51.9376C6.18828 52.045 6.17717 52.245 6.167 52.4181C6.15429 52.6346 6.14009 52.893 6.1338 53.1427C6.13203 53.2131 6.13217 53.2807 6.13184 53.3449C6.22894 53.3245 6.36525 53.2999 6.50684 53.2999H8.85157C10.2508 53.2999 11.6556 53.2623 13.0693 53.2247C14.4797 53.1873 15.9 53.1496 17.3135 53.1495H27.792C27.8415 53.1496 27.8912 53.153 27.9385 53.1554C27.9067 52.999 27.8706 52.8412 27.8379 52.7052C27.82 52.6309 27.8022 52.5564 27.7891 52.5001L27.751 52.2941C27.647 51.2437 27.5664 50.1852 27.5664 49.1095V45.7101C27.5664 44.6195 27.4986 43.521 27.4668 42.34C27.4358 41.1862 27.4423 39.9978 27.6065 38.8536V38.8517C27.6682 38.4288 27.9531 38.1149 28.1533 37.9279C28.3785 37.7176 28.6535 37.5265 28.9102 37.3644C29.1706 37.1999 29.4425 37.0466 29.668 36.9191C29.9049 36.7851 30.0677 36.6915 30.165 36.6251C30.7685 36.2029 31.1352 35.73 31.7559 35.0744C32.3492 34.4377 32.584 33.6798 32.584 32.7296ZM5.52735 54.171L5.52345 54.1857L5.73634 53.4718L5.52735 54.171ZM47.083 32.8302C47.083 33.7724 46.9953 34.5791 46.7549 35.3634C46.5144 36.1481 46.1326 36.8719 45.5908 37.6632V37.6642L44.9453 38.631C44.2836 39.6273 43.5473 40.679 42.5254 41.5109C42.3639 41.643 42.1872 41.7634 42.0459 41.8595C41.8921 41.9641 41.7719 42.0471 41.6709 42.131C41.4675 42.3 41.4746 42.3638 41.4746 42.38L41.6143 52.9005C41.6189 53.2675 41.3565 53.5842 40.9951 53.6486L40.8643 52.9103H40.8633L40.9951 53.6486C38.9718 54.009 38.0618 54.2751 36.6357 54.4318C35.1963 54.5899 33.175 54.648 28.7471 54.6486C28.535 54.6867 28.3306 54.6825 28.1943 54.6749C27.9711 54.6625 27.8991 54.6496 27.792 54.6495H17.3135C15.9233 54.6496 14.5232 54.6872 13.1094 54.7247C11.6988 54.7622 10.2741 54.7999 8.85157 54.7999H6.50684C6.52156 54.7999 6.50461 54.7985 6.4297 54.8146C6.35374 54.8309 6.28799 54.8483 6.17579 54.8751C6.08059 54.8979 5.95499 54.9272 5.82716 54.9425C5.71508 54.9559 5.52917 54.9674 5.33106 54.9132V54.9152C5.32435 54.9134 5.31809 54.9102 5.31153 54.9083H5.3086V54.9074C5.0833 54.8408 4.94394 54.6963 4.8711 54.5958C4.79647 54.4929 4.75562 54.3898 4.73243 54.3204C4.68586 54.1812 4.66414 54.0335 4.65235 53.9161C4.62776 53.6712 4.62798 53.3746 4.63477 53.1046C4.64174 52.8282 4.65708 52.549 4.66993 52.3302C4.67649 52.2186 4.68251 52.127 4.68653 52.0529C4.69107 51.9692 4.69133 51.9423 4.69141 51.9454C4.69125 51.9373 4.69034 51.9292 4.69044 51.921L4.83887 39.4103L4.83204 39.3878C4.82502 39.3692 4.81068 39.3391 4.78028 39.298C4.72029 39.2168 4.62587 39.1305 4.51563 39.0587L4.50587 39.0529L4.92481 38.4298L4.94044 38.4064L4.50587 39.0519C1.66552 37.1416 0.385152 34.7418 0.259773 32.2452C0.13643 29.788 1.13687 27.3512 2.6211 25.3175L2.62208 25.3165C4.05738 23.356 6.21457 22.1019 8.99024 21.5734C10.5157 21.272 12.1172 21.0067 13.7354 20.8732L20.7959 19.8478H20.7969C22.3574 19.6232 23.9323 19.5011 25.5088 19.4806C27.9815 19.4408 30.5796 19.4063 33.0811 19.8829L33.6299 19.9962C36.404 20.6105 39.6075 21.9645 42.1904 23.9816C44.9453 26.133 47.083 29.116 47.083 32.8302ZM34.084 32.7296C34.084 33.9578 33.767 35.119 32.8486 36.1017L32.2422 35.5343L32.3008 35.59L32.8486 36.1017L32.8457 36.1056C32.3305 36.6499 31.7939 37.3169 31.0254 37.8546L30.6279 37.2863L30.6475 37.3146L31.0254 37.8546L31.0215 37.8576L30.7324 38.0382C30.6262 38.1006 30.5136 38.164 30.4063 38.2247C30.1757 38.3551 29.9354 38.4912 29.7109 38.6329C29.4829 38.777 29.2998 38.9087 29.1768 39.0236C29.1232 39.0736 29.0964 39.1086 29.083 39.1261C28.9453 40.1247 28.937 41.191 28.9668 42.2999C28.9965 43.4039 29.0664 44.6008 29.0664 45.7101V49.1095C29.0664 50.1045 29.1397 51.0977 29.2402 52.1173C29.242 52.1252 29.2454 52.1385 29.25 52.1583C29.2618 52.2088 29.2769 52.2716 29.2969 52.3546C29.3352 52.514 29.3855 52.726 29.4268 52.9396C29.4394 53.0047 29.4495 53.0747 29.4609 53.1456C33.3998 53.1387 35.2019 53.0802 36.4727 52.9406C37.7049 52.8052 38.3961 52.61 40.1055 52.2892L39.9746 42.3898V42.38C39.9746 41.6962 40.3839 41.25 40.7129 40.9767C40.8783 40.8394 41.0577 40.7175 41.2022 40.6193C41.3583 40.5131 41.4769 40.4318 41.5772 40.3497L41.5791 40.3488L41.7881 40.1701C42.8088 39.264 43.465 38.1117 44.3535 36.8156C44.8383 36.1074 45.1372 35.5214 45.3203 34.924C45.5036 34.326 45.583 33.6777 45.583 32.8302C45.583 29.7445 43.8139 27.1518 41.2676 25.1632C38.8807 23.2992 35.8884 22.0335 33.3106 21.462L32.8008 21.3566C30.4744 20.9133 28.0283 20.9394 25.5332 20.9796L25.5156 19.8829L25.5205 20.2296L25.5332 20.9796H25.5303C24.0178 20.9992 22.5073 21.1159 21.0107 21.3312L20.7744 21.3663C21.5042 21.4626 22.2471 21.5482 23.0049 21.6427C24.3927 21.8158 25.8149 22.0215 27.1856 22.3966H27.1846C31.7486 23.6379 34.0839 28.5236 34.084 32.7296Z" fill="#1A1A1A"/>
<path d="M19.4248 34.8618C19.7718 34.6356 20.2367 34.7335 20.4629 35.0806C20.6888 35.4275 20.5909 35.8915 20.2441 36.1177L19.9824 36.2876C17.4083 37.9874 14.0511 37.9089 11.5586 36.0962C11.2238 35.8525 11.15 35.3832 11.3936 35.0483C11.6372 34.7135 12.1065 34.6397 12.4414 34.8833C14.43 36.3294 17.1085 36.3916 19.1602 35.0347L19.1641 35.0317L19.4248 34.8618Z" fill="#1A1A1A"/>
<path d="M18.7955 31.2046C19.2346 31.2046 19.5905 31.5605 19.5905 31.9996C19.5905 32.4387 19.2346 32.7946 18.7955 32.7946C18.3564 32.7946 18.0005 32.4387 18.0005 31.9996C18.0005 31.5605 18.3564 31.2046 18.7955 31.2046Z" fill="#1A1A1A"/>
<path d="M11.7955 31.2048C11.3564 31.2048 11.0005 31.5608 11.0005 31.9998C11.0005 32.4389 11.3564 32.7948 11.7955 32.7948C12.2346 32.7948 12.5905 32.4389 12.5905 31.9998C12.5905 31.5608 12.2346 31.2048 11.7955 31.2048Z" fill="#1A1A1A"/>
</svg>
