<svg width="125" height="42" viewBox="0 0 125 42" fill="none" xmlns="http://www.w3.org/2000/svg">
<g clip-path="url(#clip0_53532_1172)">
<path d="M124.563 23.3583C124.563 33.1904 96.6783 41.1609 62.2813 41.1609C27.8843 41.1609 2.83831e-05 33.1904 2.83831e-05 23.3583C2.83831e-05 13.5261 -3.71934e-05 32.7689 3.10065e-05 15.4374C14.8833 15.4374 100.619 15.0796 124.563 15.4701C124.563 26.1593 124.563 17.7804 124.563 23.3583Z" fill="#008043"/>
<path d="M62.2812 31.6052C96.6782 31.6052 124.562 24.5301 124.562 15.8026C124.562 7.07506 96.6782 0 62.2812 0C27.8842 0 0 7.07506 0 15.8026C0 24.5301 27.8842 31.6052 62.2812 31.6052Z" fill="#14AE5C"/>
<path fill-rule="evenodd" clip-rule="evenodd" d="M19.2998 9.25164C19.8107 9.10332 20.4062 9.05666 20.9912 9.26043C21.5975 9.47174 22.0824 9.91559 22.4062 10.5397C22.7556 11.2139 22.87 11.918 22.9072 12.5475C22.9422 13.1412 22.9101 13.8164 22.9101 14.2809V14.9235C23.6239 14.2831 24.4429 13.7179 25.7207 13.7009L25.9248 13.7087C26.9182 13.7962 27.4764 14.6137 27.7412 15.1628C28.051 15.8055 28.2004 16.5439 28.25 17.0514C28.3084 17.6505 28.4531 18.6456 28.3965 19.5573C28.3396 20.4715 28.067 21.6189 27.0273 22.3122C26.5678 22.6184 25.9469 22.4943 25.6406 22.0348C25.3347 21.5754 25.4587 20.9544 25.9179 20.6481C26.172 20.4786 26.3568 20.1325 26.4004 19.4333C26.444 18.7313 26.3324 17.9905 26.2597 17.2458C26.2251 16.8918 26.1172 16.3996 25.9394 16.0309C25.8305 15.8051 25.7506 15.7261 25.7168 15.7018C25.085 15.7179 24.7091 15.9711 23.9941 16.6452C23.4858 17.1245 23.2083 17.6728 22.8047 18.4802C22.7854 18.5185 22.7447 18.5946 22.6826 18.6755C22.6511 18.7164 22.5933 18.7854 22.5078 18.8542C22.4274 18.9187 22.262 19.0315 22.0205 19.0671C21.7412 19.108 21.4728 19.0293 21.2685 18.8757C21.0935 18.7439 21.005 18.589 20.9658 18.5085C20.8903 18.3533 20.8721 18.2129 20.8672 18.1745C20.8457 18.0087 20.8629 17.8139 20.8681 17.7448C20.8762 17.6393 20.8885 17.5043 20.8965 17.4137C20.9009 17.3635 20.9049 17.3202 20.9072 17.2848C20.9083 17.2677 20.9087 17.2532 20.9091 17.2428C20.9096 17.2333 20.9101 17.2282 20.9101 17.2282V14.2809C20.9101 13.6561 20.941 13.1896 20.9101 12.6657C20.8813 12.1778 20.7999 11.7857 20.6308 11.4596C20.5125 11.2318 20.3995 11.1723 20.333 11.1491C20.245 11.1185 20.0914 11.1046 19.8574 11.1725C19.3617 11.3165 18.8086 11.7429 18.5097 12.1872C17.7929 13.2537 17.1932 14.0554 16.9463 15.0153C16.9456 15.0216 16.9408 15.0558 16.9179 15.1862C16.8979 15.3005 16.8663 15.4705 16.8183 15.6354C16.7941 15.7185 16.759 15.8221 16.7099 15.9274C16.6657 16.0222 16.5803 16.1829 16.4287 16.3288C16.2609 16.49 15.9635 16.6725 15.5664 16.6384C15.2068 16.6074 14.9647 16.4137 14.8427 16.2917C13.9344 15.3833 13.0365 14.4648 12.1201 13.6247C12.1802 15.1318 12.2723 16.6372 12.3486 18.1716C12.3758 18.7228 11.9506 19.1918 11.3994 19.2194C10.8478 19.2468 10.378 18.8218 10.3506 18.2702C10.2836 16.9236 10.201 15.5508 10.1406 14.1774L10.0888 12.8044C10.0881 12.7822 10.0777 12.6058 10.0898 12.4518C10.1026 12.2902 10.1478 11.9775 10.372 11.6891C10.6482 11.3345 11.0337 11.2396 11.2265 11.2096C11.4484 11.1753 11.6644 11.1878 11.834 11.2106C12.0096 11.2343 12.1854 11.2759 12.3427 11.3298C12.4686 11.3728 12.6969 11.4609 12.8896 11.6286C13.6909 12.3265 14.4735 13.0952 15.2265 13.8473C15.6472 12.7625 16.3357 11.8365 16.8496 11.0719C17.3803 10.2825 18.3049 9.54054 19.2998 9.25164ZM93.833 10.0866C94.4227 10.0971 94.8325 10.4463 95.0586 10.8014C95.2702 11.1343 95.3624 11.5194 95.4101 11.8044C95.5013 12.349 95.4967 13.0756 95.5019 13.1677C95.5276 13.5904 95.5215 15.5094 95.4218 17.3044C95.3719 18.2047 95.2963 19.1165 95.1816 19.8161C95.1257 20.1572 95.052 20.5023 94.9463 20.7829C94.8952 20.9182 94.8139 21.1036 94.6787 21.2721C94.5476 21.4355 94.2482 21.7223 93.7715 21.7223C93.2194 21.7221 92.7715 21.2745 92.7715 20.7223C92.7716 20.4274 92.8994 20.1621 93.1025 19.9792C93.1326 19.8728 93.1717 19.7131 93.208 19.4919C93.3049 18.9005 93.3768 18.0754 93.4258 17.194C93.524 15.4249 93.5245 13.5959 93.5058 13.2887C93.5009 13.2076 93.4988 13.108 93.497 13.0241C93.4951 12.9318 93.494 12.8351 93.4902 12.7321C93.488 12.6723 93.483 12.6122 93.4795 12.5534C93.4129 12.6416 93.3427 12.7381 93.2715 12.8434C93.0815 13.1245 92.9006 13.4273 92.7343 13.7096C92.6587 13.8381 92.5783 13.9756 92.5009 14.1042L92.2841 14.445C91.705 15.2713 91.3408 16.286 90.9424 17.4089C90.9092 17.5023 90.8935 17.6225 90.8554 17.9196C90.8259 18.15 90.7762 18.5562 90.5898 18.9294C90.5271 19.055 90.3869 19.2698 90.1103 19.4011C89.8122 19.5424 89.5244 19.5078 89.334 19.4411C89.0399 19.3379 88.874 19.127 88.8496 19.0973C88.746 18.9716 88.6669 18.8245 88.6289 18.7526C88.5806 18.6612 88.5339 18.5643 88.5019 18.4977C88.458 18.4064 88.4529 18.3971 88.4609 18.4108L87.9824 17.5876C87.8257 17.3216 87.6687 17.0629 87.5058 16.8122C87.3522 16.5761 86.6225 15.6517 85.8545 14.9928C85.582 14.7592 85.3557 14.6066 85.1894 14.5182C85.1871 14.5371 85.1827 14.5575 85.1806 14.5788C85.1638 14.7575 85.1641 14.9771 85.1777 15.2311C85.1913 15.485 85.2158 15.741 85.2392 16.0055C85.2611 16.2531 85.2851 16.5305 85.2851 16.7692V21.1667C85.2851 21.7188 84.8372 22.1664 84.2851 22.1667C83.733 22.1664 83.2851 21.7188 83.2851 21.1667V16.7692C83.2851 16.6334 83.2703 16.444 83.247 16.1813C83.2253 15.9352 83.1966 15.6353 83.1806 15.3376C83.1647 15.04 83.1594 14.7102 83.1894 14.3913C83.2185 14.0829 83.2867 13.7113 83.4658 13.3718C83.6624 12.9994 83.9712 12.6838 84.4023 12.528C84.8136 12.3795 85.2158 12.4194 85.5332 12.5075C86.1358 12.675 86.7102 13.0927 87.1562 13.4753C88.0771 14.2653 88.9313 15.336 89.1826 15.7223C89.2345 15.8022 89.285 15.8843 89.3359 15.9655C89.6616 15.0846 90.0605 14.1326 90.6465 13.2966C90.7171 13.1958 90.8278 13.0046 91.0107 12.694C91.1786 12.4089 91.3865 12.0601 91.6142 11.7233C91.8379 11.3925 92.107 11.0349 92.4052 10.7458C92.6726 10.4866 93.1229 10.1244 93.7129 10.0895L93.833 10.0866ZM102.555 8.46062C102.858 8.33 103.264 8.26518 103.685 8.43425C104.089 8.59675 104.351 8.91291 104.518 9.22136C105.013 10.1406 105.104 11.3145 105.073 12.321C105.041 13.3617 104.872 14.3932 104.715 15.1335C104.525 16.0239 104.406 16.9249 104.406 17.7985C104.406 17.836 104.41 18.0589 104.409 18.1354C104.407 18.2547 104.399 18.4634 104.325 18.6843C104.239 18.9398 104.078 19.1776 103.827 19.3552C103.603 19.5138 103.36 19.5873 103.159 19.6276C102.618 19.7361 102.09 19.3848 101.981 18.8434C101.9 18.4345 102.08 18.0334 102.406 17.8151C102.406 17.8098 102.406 17.8039 102.406 17.7985C102.406 16.7496 102.547 15.7044 102.758 14.7165C102.901 14.0439 103.047 13.1403 103.074 12.2604C103.09 11.7397 103.06 11.2773 102.989 10.8942C102.27 12.2653 101.738 13.8312 101.738 15.238C101.738 15.79 101.29 16.2378 100.738 16.238C100.186 16.238 99.7384 15.7901 99.7383 15.238C99.7383 13.2253 100.538 11.1545 101.439 9.55144L101.44 9.55046C101.646 9.18504 102.017 8.69253 102.555 8.46062Z" fill="#008043"/>
</g>
<defs>
<clipPath id="clip0_53532_1172">
<rect width="125" height="42" fill="white"/>
</clipPath>
</defs>
</svg>
