<svg width="48" height="55" viewBox="0 0 48 55" fill="none" xmlns="http://www.w3.org/2000/svg">
<path d="M36.5 41.6499L28 50.6499C32.4 56.6499 36.833 53.8199 38.5 51.6499C42.5 47.6499 38.833 43.3199 36.5 41.6499Z" fill="#BDF182"/>
<path d="M18.1242 22.78L35.6752 40.8201C35.8582 41.0101 35.8642 41.3 35.6892 41.5L27.8442 50.27C27.6562 50.48 27.3312 50.4901 27.1272 50.3001L7.5742 31.6699C7.4822 31.5799 7.42719 31.4701 7.42019 31.3401L6.86219 21.9399C6.84419 21.6299 7.1102 21.3799 7.4192 21.4099L17.8242 22.6299C17.9382 22.6499 18.0442 22.7 18.1242 22.78Z" fill="#92DA40"/>
<path d="M5.67114 23.04C5.46914 21.42 6.84414 20.0499 8.46214 20.2499L15.9051 21.1799L16.1911 21.2299C16.8531 21.3699 17.4631 21.6999 17.9451 22.1799L38.0221 42.2499L38.2821 42.53C40.7931 45.31 40.7931 49.55 38.2821 52.33L38.0221 52.6C35.2541 55.37 30.8211 55.46 27.9491 52.86L27.6761 52.6L7.59913 32.52C7.11813 32.04 6.78814 31.43 6.64914 30.77L6.60113 30.4799L5.67114 23.04ZM35.9641 42.32C35.9941 42.52 35.9441 42.7298 35.8071 42.8998L35.7561 42.9599L27.9561 50.7599L28.7371 51.54C31.0081 53.81 34.6901 53.81 36.9621 51.54L37.1681 51.32C39.2311 49.04 39.1621 45.52 36.9621 43.32L35.9641 42.32ZM8.15513 21.7299C7.56213 21.7299 7.08313 22.25 7.15913 22.85L8.09013 30.3C8.13813 30.68 8.29814 31.05 8.54814 31.34L8.66014 31.4599L26.8951 49.6999L34.6951 41.8998L34.7531 41.85C34.9201 41.71 35.1321 41.6599 35.3351 41.6899L16.8841 23.2399L16.7621 23.1298C16.4671 22.8798 16.1041 22.7199 15.7181 22.6699L8.27513 21.7399L8.15513 21.7299Z" fill="black" fill-opacity="0.9"/>
<path fill-rule="evenodd" clip-rule="evenodd" d="M11.5345 29.8062C11.8646 29.5425 12.3531 29.5876 12.6256 29.907C13.4156 30.833 14.8708 30.867 15.7059 29.979L15.7989 29.88C16.0868 29.5735 16.5769 29.551 16.8936 29.8296C17.2104 30.1082 17.2337 30.5826 16.9458 30.8891L16.8528 30.988C15.3825 32.5518 12.821 32.492 11.4303 30.8621C11.1578 30.5427 11.2045 30.0699 11.5345 29.8062Z" fill="#1A1A1A"/>
<path d="M16.0526 26.8147C16.6352 26.8147 17.1076 27.2736 17.1076 27.8397C17.1076 28.4058 16.6352 28.8647 16.0526 28.8647C15.4699 28.8647 14.9976 28.4058 14.9976 27.8397C14.9976 27.2736 15.4699 26.8147 16.0526 26.8147Z" fill="#1A1A1A"/>
<path d="M11.055 26.8147C10.4723 26.8147 10 27.2736 10 27.8397C10 28.4058 10.4723 28.8647 11.055 28.8647C11.6377 28.8647 12.11 28.4058 12.11 27.8397C12.11 27.2736 11.6377 26.8147 11.055 26.8147Z" fill="#1A1A1A"/>
</svg>
