<svg width="48" height="55" viewBox="0 0 48 55" fill="none" xmlns="http://www.w3.org/2000/svg">
<path d="M36.5 41.6499L28 50.6499C32.4 56.6499 36.8333 53.8199 38.5 51.6499C42.5 47.6499 38.8333 43.3199 36.5 41.6499Z" fill="#FFAFA3"/>
<path d="M18.124 22.78L35.6749 40.8201C35.8581 41.0101 35.8643 41.3 35.6891 41.5L27.8442 50.27C27.656 50.48 27.3311 50.4901 27.1267 50.3001L7.5742 31.6699C7.48256 31.5799 7.42743 31.4701 7.41994 31.3401L6.86223 21.9399C6.8438 21.6299 7.11051 21.3799 7.41955 21.4099L17.8239 22.6299C17.938 22.6499 18.044 22.7 18.124 22.78Z" fill="#F24822"/>
<path d="M5.67061 23.04C5.46879 21.42 6.84434 20.0499 8.46163 20.2499L15.905 21.1799L16.1911 21.2299C16.8534 21.3699 17.4634 21.6999 17.945 22.1799L38.0222 42.2499L38.2819 42.53C40.7929 45.31 40.7928 49.55 38.2819 52.33L38.0222 52.6C35.2544 55.37 30.8207 55.46 27.9489 52.86L27.6765 52.6L7.59932 32.52C7.11801 32.04 6.78849 31.43 6.64913 30.77L6.60127 30.4799L5.67061 23.04ZM35.9636 42.32C35.9939 42.52 35.9441 42.7298 35.8073 42.8998L35.7556 42.9599L27.9558 50.7599L28.737 51.54C31.0082 53.81 34.6904 53.81 36.9616 51.54L37.1677 51.32C39.2308 49.04 39.1619 45.52 36.9616 43.32L35.9636 42.32ZM8.15499 21.7299C7.56229 21.7299 7.08347 22.25 7.15889 22.85L8.08956 30.3C8.13783 30.68 8.29788 31.05 8.54756 31.34L8.65987 31.4599L26.8952 49.6999L34.695 41.8998L34.7526 41.85C34.9202 41.71 35.132 41.6599 35.3347 41.6899L16.8845 23.2399L16.7624 23.1298C16.4673 22.8798 16.1043 22.7199 15.7185 22.6699L8.2751 21.7399L8.15499 21.7299Z" fill="black" fill-opacity="0.9"/>
<path fill-rule="evenodd" clip-rule="evenodd" d="M11.5345 29.8062C11.8646 29.5425 12.3531 29.5876 12.6256 29.907C13.4156 30.833 14.8708 30.867 15.7059 29.979L15.7989 29.88C16.0868 29.5735 16.5769 29.551 16.8936 29.8296C17.2104 30.1082 17.2337 30.5826 16.9458 30.8891L16.8528 30.988C15.3825 32.5518 12.821 32.492 11.4303 30.8621C11.1578 30.5427 11.2045 30.0699 11.5345 29.8062Z" fill="#1A1A1A"/>
<path d="M16.0526 26.8147C16.6352 26.8147 17.1076 27.2736 17.1076 27.8397C17.1076 28.4058 16.6352 28.8647 16.0526 28.8647C15.4699 28.8647 14.9976 28.4058 14.9976 27.8397C14.9976 27.2736 15.4699 26.8147 16.0526 26.8147Z" fill="#1A1A1A"/>
<path d="M11.055 26.8147C10.4723 26.8147 10 27.2736 10 27.8397C10 28.4058 10.4723 28.8647 11.055 28.8647C11.6377 28.8647 12.11 28.4058 12.11 27.8397C12.11 27.2736 11.6377 26.8147 11.055 26.8147Z" fill="#1A1A1A"/>
</svg>
