<svg width="48" height="55" viewBox="0 0 48 55" fill="none" xmlns="http://www.w3.org/2000/svg">
<path d="M25.0334 53.3569C43.9089 52.5349 46.1415 38.7699 42.5912 31.7719C39.0409 24.7739 28.9658 22.6929 25.0334 23.0349C14.6702 24.1709 11.0802 27.5739 7.38756 33.3229C6.73856 34.3339 6.18846 35.4189 5.83456 36.5669C1.22406 51.5159 16.5744 54.3479 25.0334 53.3569Z" fill="#FFA629"/>
<path d="M24.9684 22.2876C27.0696 22.1049 30.6878 22.5663 34.2291 23.9527C37.7726 25.3399 41.3693 27.7048 43.2604 31.4322C45.1391 35.1353 45.4823 40.592 42.8766 45.2466C40.2487 49.9407 34.7079 53.6774 25.1002 54.104C20.7819 54.6062 14.663 54.1472 10.1627 51.5913C7.89182 50.3016 6.00143 48.4588 5.00158 45.9107C4.00183 43.3626 3.92864 40.2021 5.11779 36.3462C5.49657 35.1175 6.08079 33.9701 6.75646 32.9175C8.62427 30.0095 10.5148 27.6162 13.3024 25.8189C16.0884 24.0227 19.7023 22.865 24.9518 22.2896L25.0328 23.0367L25.0338 23.0347L24.9518 22.2896L24.9606 22.2886L24.9684 22.2876ZM33.6822 25.3492C30.3248 24.0348 26.9486 23.6242 25.1139 23.7798L25.1149 23.7808C20.0014 24.3414 16.6387 25.4531 14.1158 27.0796C11.5948 28.705 9.84379 30.8873 8.01916 33.7281C7.47454 34.5765 7.01094 35.4659 6.68322 36.3902L6.55138 36.7876C5.43539 40.4061 5.55202 43.2065 6.39806 45.3628C7.24407 47.5188 8.85551 49.1248 10.9029 50.2876C15.0327 52.6331 20.8064 53.0968 24.9459 52.6118L24.9733 52.6089L25.0006 52.6079L25.8551 52.5611C34.5576 51.9827 39.3238 48.5228 41.568 44.5142C43.9097 40.3313 43.594 35.4057 41.9225 32.1109C40.2632 28.8406 37.0468 26.6663 33.6822 25.3492Z" fill="#1A1A1A"/>
<path d="M32.4917 46.376C36.3137 40.567 35.9681 34.579 35.0391 30.196C34.7921 29.031 35.6259 27.928 36.6196 28.585C38.7479 29.992 40.7054 33.77 41.646 38.058C41.9302 39.353 41.934 40.722 41.4031 41.938C39.8676 45.452 36.3226 47.743 33.6596 48.722C31.8352 49.393 31.4233 48 32.4917 46.376Z" fill="#F79722"/>
<path d="M24.4941 29C26.151 29 27.4941 28.4404 27.4941 27.75C27.4941 27.0596 26.151 26.5 24.4941 26.5C22.8373 26.5 21.4941 27.0596 21.4941 27.75C21.4941 28.4404 22.8373 29 24.4941 29Z" fill="#14AE5C"/>
<path d="M26.4749 40.4647C26.7704 40.1746 27.2452 40.1791 27.5355 40.4744C27.8255 40.7699 27.821 41.2447 27.5257 41.535L27.4036 41.6551L27.4017 41.6561L26.8782 41.1199L26.8187 41.0594L27.4017 41.6561C25.7215 43.2965 23.0196 43.2313 21.4212 41.5106C21.1393 41.2071 21.1568 40.7319 21.4603 40.45C21.7637 40.1681 22.2389 40.1856 22.5208 40.4891C23.5455 41.5922 25.2768 41.6343 26.3538 40.5828V40.5838L26.4749 40.4647Z" fill="#1A1A1A"/>
<path d="M29.1843 37.0571C29.8442 37.0571 30.3793 37.5921 30.3793 38.2521C30.3793 38.9121 29.8442 39.4471 29.1843 39.4471C28.5243 39.4471 27.9893 38.9121 27.9893 38.2521C27.9893 37.5921 28.5243 37.0571 29.1843 37.0571Z" fill="#1A1A1A"/>
<path d="M19.1945 37.0571C18.5345 37.0571 17.9995 37.5921 17.9995 38.2521C17.9995 38.9121 18.5345 39.4471 19.1945 39.4471C19.8545 39.4471 20.3895 38.9121 20.3895 38.2521C20.3895 37.5921 19.8545 37.0571 19.1945 37.0571Z" fill="#1A1A1A"/>
</svg>
