<svg width="48" height="55" viewBox="0 0 48 55" fill="none" xmlns="http://www.w3.org/2000/svg">
<path d="M17.5245 18.9168L17.4695 18.2108C17.4255 17.6608 17.8375 17.1788 18.3875 17.1358L32.6715 16.0168C33.3365 15.9648 33.8645 16.5658 33.7275 17.2188L33.5765 17.9418C33.4855 18.3758 33.1185 18.6988 32.6755 18.7328L27.7115 19.1218C27.3335 19.1518 27.0045 19.3928 26.8625 19.7448L24.8365 24.7618C24.6945 25.1138 24.3655 25.3548 23.9875 25.3848L23.5215 25.4208C22.7575 25.4808 22.2125 24.6928 22.5385 23.9988L23.9895 20.9128C24.3155 20.2188 23.7715 19.4308 23.0065 19.4908L18.5995 19.8358C18.0485 19.8788 17.5675 19.4678 17.5245 18.9168Z" fill="#864E37"/>
<path d="M32.6131 15.2697C33.7772 15.1786 34.7014 16.2308 34.4617 17.3732L34.3113 18.0949V18.0958C34.152 18.8557 33.5092 19.42 32.7332 19.4796L32.7342 19.4806L27.7713 19.8693C27.7001 19.8749 27.6361 19.9107 27.5935 19.965L27.5584 20.0255L25.532 25.0431C25.2833 25.659 24.7074 26.0805 24.0467 26.1329H24.0457L23.5799 26.1681C22.2425 26.2727 21.2897 24.8942 21.8601 23.6798L23.3113 20.5939L23.3318 20.5285C23.3579 20.3745 23.2322 20.2253 23.0652 20.2384L18.658 20.5841C17.6947 20.6592 16.8526 19.9398 16.7771 18.9757V18.9747L16.7224 18.2706C16.6454 17.3068 17.3663 16.4633 18.3289 16.3878L32.6131 15.2697ZM18.4461 17.8839C18.3263 17.8934 18.2329 17.9866 18.2185 18.1007L18.2176 18.1515V18.1525L18.2722 18.8585C18.283 18.996 18.4026 19.0975 18.5408 19.087L22.948 18.7433C24.2871 18.6383 25.2388 20.0175 24.6687 21.2316V21.2326L23.2176 24.3185C23.1367 24.4916 23.2728 24.6876 23.4627 24.673H23.4637L23.9285 24.6369L23.9969 24.6222C24.0618 24.5979 24.1148 24.5474 24.1414 24.4816L26.1678 19.464C26.4164 18.8481 26.9915 18.4267 27.6521 18.3742H27.6531L32.617 17.9855H32.618C32.7278 17.9771 32.8198 17.8963 32.8426 17.7882L32.9939 17.0656V17.0646C33.028 16.9011 32.8961 16.7518 32.7303 16.7648L18.4461 17.8839Z" fill="#1A1A1A"/>
<path d="M16.744 32.4537C19.7537 32.2179 22.0024 29.5869 21.7666 26.5771C21.5308 23.5674 18.8998 21.3187 15.89 21.5545C12.8803 21.7903 10.6316 24.4213 10.8674 27.4311C11.1032 30.4408 13.7342 32.6895 16.744 32.4537Z" fill="#444444"/>
<path d="M21.0186 26.6361C20.8151 24.0395 18.5453 22.0989 15.9488 22.3021C13.352 22.5055 11.4113 24.7761 11.6148 27.3729C11.8185 29.9694 14.0889 31.9093 16.6855 31.7059C19.2819 31.5022 21.2217 29.2325 21.0186 26.6361ZM22.514 26.519C22.7819 29.9413 20.225 32.9329 16.8027 33.2013C13.3802 33.4694 10.3878 30.9125 10.1194 27.49C9.85121 24.0674 12.4089 21.0748 15.8316 20.8067C19.2541 20.5388 22.2459 23.0964 22.514 26.519Z" fill="#1A1A1A"/>
<path d="M23.783 33.5826C26.7928 33.3468 29.0415 30.7158 28.8057 27.706C28.5699 24.6963 25.9388 22.4476 22.9291 22.6834C19.9194 22.9192 17.6706 25.5502 17.9065 28.56C18.1423 31.5697 20.7733 33.8184 23.783 33.5826Z" fill="#444444"/>
<path d="M28.0576 27.7653C27.8542 25.1686 25.5844 23.2281 22.9878 23.4312C20.391 23.6347 18.4504 25.9052 18.6538 28.502C18.8575 31.0986 21.128 33.0385 23.7246 32.835C26.321 32.6313 28.2608 30.3617 28.0576 27.7653ZM29.5531 27.6481C29.8209 31.0704 27.264 34.0621 23.8417 34.3304C20.4192 34.5986 17.4268 32.0416 17.1584 28.6192C16.8903 25.1965 19.448 22.204 22.8707 21.9358C26.2931 21.6679 29.2849 24.2256 29.5531 27.6481Z" fill="#1A1A1A"/>
<path d="M14.6068 38.6795C17.6165 38.4437 19.8652 35.8127 19.6294 32.803C19.3936 29.7932 16.7626 27.5445 13.7528 27.7803C10.7431 28.0161 8.49438 30.6471 8.73018 33.6569C8.96599 36.6666 11.597 38.9153 14.6068 38.6795Z" fill="#444444"/>
<path d="M18.8819 32.8622C18.6784 30.2656 16.4086 28.325 13.812 28.5281C11.2152 28.7316 9.27462 31.0022 9.47807 33.599C9.68176 36.1955 11.9522 38.1354 14.5488 37.9319C17.1452 37.7283 19.085 35.4586 18.8819 32.8622ZM20.3773 32.745C20.6451 36.1673 18.0882 39.159 14.666 39.4274C11.2434 39.6955 8.25105 37.1386 7.98265 33.7161C7.71449 30.2934 10.2722 27.3009 13.6949 27.0327C17.1174 26.7649 20.1091 29.3225 20.3773 32.745Z" fill="#1A1A1A"/>
<path d="M25.3377 40.3536C28.3474 40.1178 30.5962 37.4868 30.3604 34.477C30.1246 31.4673 27.4935 29.2186 24.4838 29.4544C21.4741 29.6902 19.2253 32.3212 19.4611 35.331C19.6969 38.3407 22.328 40.5894 25.3377 40.3536Z" fill="#444444"/>
<path d="M29.6128 34.5363C29.4094 31.9396 27.1396 29.999 24.543 30.2022C21.9462 30.4057 20.0056 32.6762 20.209 35.273C20.4127 37.8696 22.6831 39.8095 25.2798 39.606C27.8761 39.4023 29.816 37.1327 29.6128 34.5363ZM31.1082 34.4191C31.3761 37.8414 28.8192 40.833 25.3969 41.1014C21.9744 41.3696 18.982 38.8126 18.7136 35.3902C18.4455 31.9675 21.0031 28.975 24.4258 28.7068C27.8483 28.4389 30.8401 30.9966 31.1082 34.4191Z" fill="#1A1A1A"/>
<path d="M19.1014 44.8477C22.1111 44.6119 24.3598 41.9809 24.124 38.9712C23.8882 35.9614 21.2572 33.7127 18.2475 33.9485C15.2377 34.1843 12.989 36.8154 13.2248 39.8251C13.4606 42.8348 16.0916 45.0835 19.1014 44.8477Z" fill="#444444"/>
<path d="M23.377 39.0302C23.1735 36.4335 20.9037 34.4929 18.3072 34.6961C15.7104 34.8996 13.7697 37.1701 13.9732 39.7669C14.1769 42.3635 16.4473 44.3034 19.0439 44.0999C21.6403 43.8962 23.5801 41.6266 23.377 39.0302ZM24.8724 38.913C25.1403 42.3353 22.5834 45.3269 19.1611 45.5953C15.7386 45.8635 12.7462 43.3065 12.4778 39.8841C12.2096 36.4614 14.7673 33.4689 18.19 33.2007C21.6125 32.9328 24.6043 35.4905 24.8724 38.913Z" fill="#1A1A1A"/>
<path d="M31.8918 31.8051C34.8907 31.4581 37.0406 28.7456 36.6935 25.7467C36.3465 22.7477 33.6341 20.5979 30.6352 20.9449C27.6362 21.2919 25.4864 24.0044 25.8334 27.0033C26.1804 30.0023 28.8928 32.1521 31.8918 31.8051Z" fill="#444444"/>
<path d="M35.9488 25.8335C35.6494 23.2462 33.3093 21.3909 30.722 21.69C28.1345 21.9894 26.2793 24.3302 26.5787 26.9177C26.8783 29.505 29.2189 31.3595 31.8062 31.0601C34.3933 30.7605 36.2478 28.4206 35.9488 25.8335ZM37.4388 25.6611C37.8331 29.0712 35.3887 32.1554 31.9787 32.5502C28.5684 32.9448 25.4835 30.5003 25.0886 27.0901C24.694 23.6797 27.1392 20.5946 30.5496 20.2C33.9598 19.8056 37.0442 22.2508 37.4388 25.6611Z" fill="#1A1A1A"/>
<path d="M33.744 39.6886C36.7537 39.4528 39.0024 36.8217 38.7666 33.812C38.5308 30.8023 35.8998 28.5535 32.89 28.7893C29.8803 29.0252 27.6316 31.6562 27.8674 34.6659C28.1032 37.6757 30.7342 39.9244 33.744 39.6886Z" fill="#444444"/>
<path d="M38.0186 33.8712C37.8151 31.2746 35.5453 29.334 32.9488 29.5372C30.352 29.7406 28.4113 32.0112 28.6148 34.608C28.8185 37.2045 31.0889 39.1444 33.6855 38.941C36.2819 38.7373 38.2217 36.4676 38.0186 33.8712ZM39.514 33.7541C39.7819 37.1764 37.225 40.168 33.8027 40.4364C30.3802 40.7045 27.3878 38.1476 27.1194 34.7251C26.8512 31.3025 29.4089 28.3099 32.8316 28.0418C36.2541 27.7739 39.2459 30.3315 39.514 33.7541Z" fill="#1A1A1A"/>
<path d="M26.2811 46.8607C29.2908 46.6249 31.5395 43.9939 31.3037 40.9841C31.0679 37.9744 28.4369 35.7257 25.4271 35.9615C22.4174 36.1973 20.1687 38.8283 20.4045 41.838C20.6403 44.8478 23.2713 47.0965 26.2811 46.8607Z" fill="#444444"/>
<path d="M30.5557 41.0431C30.3523 38.4465 28.0824 36.5059 25.4859 36.7091C22.8891 36.9125 20.9484 39.1831 21.1519 41.7799C21.3556 44.3764 23.626 46.3163 26.2226 46.1129C28.819 45.9092 30.7589 43.6395 30.5557 41.0431ZM32.0511 40.9259C32.319 44.3483 29.7621 47.3399 26.3398 47.6083C22.9173 47.8764 19.9249 45.3195 19.6565 41.897C19.3883 38.4743 21.946 35.4818 25.3687 35.2136C28.7912 34.9458 31.783 37.5034 32.0511 40.9259Z" fill="#1A1A1A"/>
<path d="M10.869 47.7227C13.8787 47.4869 16.1274 44.8559 15.8916 41.8462C15.6558 38.8364 13.0248 36.5877 10.015 36.8235C7.0053 37.0593 4.75659 39.6904 4.99239 42.7001C5.2282 45.7098 7.85922 47.9585 10.869 47.7227Z" fill="#444444"/>
<path d="M15.1436 41.9052C14.9401 39.3085 12.6703 37.3679 10.0738 37.5711C7.47697 37.7746 5.53634 40.0451 5.73979 42.6419C5.94348 45.2385 8.21389 47.1784 10.8105 46.9749C13.4069 46.7712 15.3467 44.5016 15.1436 41.9052ZM16.639 41.788C16.9069 45.2103 14.35 48.2019 10.9277 48.4703C7.50515 48.7385 4.51277 46.1815 4.24437 42.7591C3.97621 39.3364 6.53391 36.3439 9.95659 36.0757C13.3791 35.8078 16.3709 38.3655 16.639 41.788Z" fill="#1A1A1A"/>
<path d="M17.7777 53.5457C20.7874 53.3099 23.0361 50.6789 22.8003 47.6692C22.5645 44.6594 19.9335 42.4107 16.9237 42.6465C13.914 42.8823 11.6653 45.5134 11.9011 48.5231C12.1369 51.5328 14.7679 53.7815 17.7777 53.5457Z" fill="#444444"/>
<path d="M22.0528 47.7282C21.8493 45.1315 19.5795 43.1909 16.9829 43.3941C14.3861 43.5976 12.4455 45.8681 12.649 48.4649C12.8527 51.0615 15.1231 53.0014 17.7197 52.7979C20.3161 52.5942 22.2559 50.3246 22.0528 47.7282ZM23.5482 47.611C23.816 51.0333 21.2591 54.0249 17.8369 54.2933C14.4143 54.5615 11.422 52.0045 11.1535 48.5821C10.8854 45.1594 13.4431 42.1669 16.8658 41.8987C20.2883 41.6308 23.28 44.1885 23.5482 47.611Z" fill="#1A1A1A"/>
<path d="M23.1707 35.6172C23.4662 35.3272 23.941 35.3317 24.2313 35.627C24.5213 35.9225 24.5168 36.3973 24.2215 36.6876L24.0994 36.8077L24.0975 36.8086L23.574 36.2725L23.5145 36.212L24.0975 36.8086C22.4173 38.4491 19.7154 38.3839 18.117 36.6631C17.8351 36.3597 17.8526 35.8845 18.1561 35.6026C18.4595 35.3207 18.9347 35.3382 19.2166 35.6417C20.2413 36.7448 21.9726 36.7869 23.0496 35.7354V35.7364L23.1707 35.6172Z" fill="#D9D9D9"/>
<path d="M25.8581 32.729C26.5181 32.729 27.0531 33.264 27.0531 33.924C27.0531 34.584 26.5181 35.119 25.8581 35.119C25.1981 35.119 24.6631 34.584 24.6631 33.924C24.6631 33.264 25.1981 32.729 25.8581 32.729Z" fill="#D9D9D9"/>
<path d="M15.8679 32.729C15.2079 32.729 14.6729 33.264 14.6729 33.924C14.6729 34.584 15.2079 35.119 15.8679 35.119C16.5278 35.119 17.0629 34.584 17.0629 33.924C17.0629 33.264 16.5278 32.729 15.8679 32.729Z" fill="#D9D9D9"/>
</svg>
