<svg width="48" height="55" viewBox="0 0 48 55" fill="none" xmlns="http://www.w3.org/2000/svg">
<path d="M23.4912 18.029C11.7662 18.967 10.3982 29.364 11.1792 34.445C12.1722 40.894 14.1112 41.48 14.1112 47.343C14.3872 50.383 15.4922 52.012 16.6322 52.877C17.8922 53.832 19.6142 53.776 21.1452 53.382C29.4832 51.237 33.9622 42.445 35.2172 37.962C39.4382 21.077 29.1592 17.638 23.4912 18.029Z" fill="url(#paint0_linear_53654_3991)"/>
<path d="M23.4391 17.2806C26.415 17.0753 30.6545 17.8663 33.6081 21.0033C36.5958 24.1766 38.0907 29.5565 35.944 38.1439C35.9423 38.1507 35.941 38.1577 35.9391 38.1644L35.8073 38.6127C35.1005 40.9135 33.6658 44.0902 31.4323 47.0052C29.0487 50.1162 25.7141 52.9814 21.3317 54.1088C19.7824 54.5074 17.8441 54.6336 16.3249 53.5804L16.1784 53.475L15.9293 53.2748C14.6946 52.2236 13.6369 50.4176 13.3639 47.4105C13.3619 47.3881 13.361 47.3656 13.361 47.3431C13.361 44.5224 12.9009 42.9982 12.3122 41.3685C11.7064 39.6917 10.9464 37.8664 10.4372 34.559C10.0299 31.9093 10.1772 27.8714 11.9772 24.3431C13.8044 20.7618 17.3066 17.7716 23.4313 17.2816L23.4391 17.2806ZM32.5163 22.0316C29.9686 19.3257 26.2347 18.592 23.5426 18.7777L23.5417 18.7767C17.9471 19.2269 14.9051 21.9045 13.3131 25.0248C11.6935 28.1995 11.5469 31.9003 11.9206 34.3314C12.4042 37.4723 13.1104 39.1648 13.7223 40.8588C14.3482 42.5913 14.8549 44.2838 14.86 47.2972C15.124 50.1551 16.1472 51.5676 17.0856 52.2797H17.0846C18.0651 53.0228 19.4951 53.032 20.9577 52.6556C24.9132 51.6381 27.9877 49.0351 30.2418 46.0931C32.4912 43.1574 33.882 39.9354 34.4889 37.7767C36.5619 29.4814 35.0293 24.701 32.5163 22.0316Z" fill="#1A1A1A"/>
<path d="M37.7631 14.6961C30.8351 13.8641 26.4791 17.5941 24.5001 20.5871C23.9471 21.4231 24.2981 22.5201 25.1891 22.9821C34.4931 27.8001 38.2491 21.6971 39.2441 16.7191C39.4401 15.7361 38.7581 14.8151 37.7631 14.6961Z" fill="#14AE5C"/>
<path d="M24.0774 19.8748C26.2547 16.7707 30.7968 13.1039 37.8518 13.9509C39.1829 14.1101 40.1369 15.2839 40.0178 16.6003L39.9797 16.866C39.4656 19.438 38.2173 22.4343 35.76 24.1404C33.2329 25.8949 29.6532 26.1386 24.844 23.6482C23.6052 23.0059 23.0468 21.4247 23.8742 20.1736L24.0774 19.8748ZM37.6731 15.4412C31.3054 14.6766 27.2519 17.9601 25.3068 20.7341L25.1252 21.0007C24.8468 21.4216 24.9912 22.0345 25.5344 22.3162H25.5334C30.028 24.6437 32.9789 24.2449 34.9045 22.908C36.8999 21.5226 38.0271 18.978 38.508 16.572C38.6165 16.0269 38.2437 15.5095 37.674 15.4412H37.6731Z" fill="#1A1A1A"/>
<path d="M36.1231 19.093C34.2671 20.336 32.2101 21.181 30.5521 21.7C30.0321 21.863 30.0571 22.604 30.6021 22.607C33.6501 22.628 35.6331 21.105 36.7301 19.604C37.0331 19.19 36.5491 18.807 36.1231 19.093Z" fill="#008043"/>
<path d="M20.4567 32.6912C20.7324 32.4012 21.1756 32.4056 21.4465 32.701C21.7172 32.9964 21.713 33.4713 21.4374 33.7615L21.3235 33.8816L21.3216 33.8826L20.8331 33.3465L20.7775 33.2859L21.3216 33.8826C19.7534 35.523 17.2317 35.4579 15.7399 33.7371C15.4768 33.4336 15.4931 32.9585 15.7763 32.6766C16.0596 32.3947 16.5031 32.4122 16.7662 32.7156C17.7226 33.8188 19.3385 33.8608 20.3436 32.8094V32.8104L20.4567 32.6912Z" fill="#1A1A1A"/>
<path d="M23.2965 30.0015C24.0117 30.0015 24.5915 30.5813 24.5915 31.2965C24.5915 32.0117 24.0117 32.5915 23.2965 32.5915C22.5813 32.5915 22.0015 32.0117 22.0015 31.2965C22.0015 30.5813 22.5813 30.0015 23.2965 30.0015Z" fill="#1A1A1A"/>
<path d="M14.2965 30.0015C13.5813 30.0015 13.0015 30.5813 13.0015 31.2965C13.0015 32.0117 13.5813 32.5915 14.2965 32.5915C15.0117 32.5915 15.5915 32.0117 15.5915 31.2965C15.5915 30.5813 15.0117 30.0015 14.2965 30.0015Z" fill="#1A1A1A"/>
<defs>
<linearGradient id="paint0_linear_53654_3991" x1="23.6042" y1="18" x2="23.6042" y2="53.792" gradientUnits="userSpaceOnUse">
<stop stop-color="#F79722"/>
<stop offset="1" stop-color="#FFCD29"/>
</linearGradient>
</defs>
</svg>
