<svg width="48" height="55" viewBox="0 0 48 55" fill="none" xmlns="http://www.w3.org/2000/svg">
<path d="M31.172 24.854L31.258 24.883L31.348 24.892C37.78 25.477 40.674 28.22 42.025 31.047C43.288 33.69 43.261 36.5049 43.245 38.1309C43.244 38.2949 43.242 38.447 43.242 38.586C43.242 47.105 34.771 54.25 23.996 54.25C13.222 54.25 4.75 47.105 4.75 38.586C4.75 34.219 6.46001 29.108 10.544 25.934C14.594 22.786 21.159 21.408 31.172 24.854Z" fill="#FFC7C2"/>
<path d="M42.4951 38.1268L43.2451 38.1307L43.1377 38.1297L42.4951 38.1268V38.1238L42.499 37.4656C42.4969 35.8302 42.3807 33.5296 41.3486 31.3699C40.7249 30.0649 39.749 28.784 38.1807 27.7557C36.608 26.7246 34.401 25.9223 31.2803 25.6385L31.3525 24.8436L31.3477 24.8924L31.2803 25.6385H31.2734L31.1826 25.6297L31.0986 25.6209L30.9326 25.5643L30.9277 25.5633C21.0688 22.1703 14.7917 23.582 11.0039 26.5262C7.14882 29.5224 5.50007 34.3853 5.5 38.5857C5.5 46.5604 13.4929 53.4998 23.9961 53.4998C34.5002 53.4998 42.4922 46.5604 42.4922 38.5857C42.4922 38.4446 42.4942 38.2826 42.4951 38.1268ZM43.9922 38.5857C43.9922 47.649 35.0419 54.9998 23.9961 54.9998C12.9513 54.9998 4 47.6491 4 38.5857C4.00007 34.0523 5.77137 28.6933 10.084 25.3416C14.3954 21.9906 21.2466 20.6469 31.4102 24.1434L31.4141 24.1443L31.4229 24.1453C34.731 24.447 37.184 25.3092 39.0029 26.5018C40.8272 27.6979 41.9748 29.2015 42.7021 30.7234C44.0486 33.5411 44.011 36.5198 43.9951 38.1385C43.9941 38.3091 43.9922 38.4499 43.9922 38.5857Z" fill="#1A1A1A"/>
<path d="M11.6699 41.5703C11.6699 32.038 19.6673 24.1289 31.0693 24.1289C31.4834 24.1291 31.8193 24.4648 31.8193 24.8789C31.8193 25.293 31.4834 25.6287 31.0693 25.6289C20.3854 25.6289 13.1699 32.9726 13.1699 41.5703C13.1697 41.9843 12.834 42.3203 12.4199 42.3203C12.0059 42.3203 11.6702 41.9843 11.6699 41.5703Z" fill="#1A1A1A"/>
<path d="M30.9529 47.5118C35.2159 41.2308 34.8009 34.7358 33.7719 30.0268C33.5169 28.8588 34.3199 27.6988 35.4249 28.1548C38.1799 29.2908 40.9519 33.1917 41.2619 39.4357C41.3009 40.2127 41.2369 41.0008 40.9939 41.7398C39.5649 46.0798 35.2179 48.8487 32.1119 49.9227C30.2579 50.5637 29.8519 49.1358 30.9529 47.5118Z" fill="#FFAFA3"/>
<path d="M31.6318 24.8788H27.6318L31.6318 17.4038C32.9008 17.9558 35.4388 19.0938 35.4388 19.2358C34.5338 19.5668 32.5238 23.1348 31.6318 24.8788Z" fill="#A55E40"/>
<path d="M31.0498 16.9303C31.2581 16.6739 31.6172 16.5802 31.9306 16.7165C32.5685 16.9939 33.5274 17.4193 34.3291 17.7946C34.7284 17.9815 35.0978 18.16 35.3711 18.3034C35.5051 18.3738 35.6316 18.4435 35.7304 18.5065C35.7769 18.5361 35.84 18.5784 35.8994 18.6296C35.9277 18.6539 35.978 18.6998 36.0273 18.7643C36.0589 18.8056 36.1884 18.9774 36.1884 19.236C36.1884 19.5509 35.992 19.8319 35.6962 19.9401C35.723 19.9303 35.6802 19.9425 35.5615 20.0524C35.4543 20.1516 35.3229 20.2948 35.1709 20.4831C34.8674 20.859 34.5217 21.3635 34.165 21.9284C33.4534 23.0551 32.7389 24.3619 32.2998 25.2204C32.1715 25.4711 31.9134 25.6286 31.6318 25.6286H27.6318C27.3682 25.6286 27.1237 25.4905 26.9882 25.2643C26.8528 25.0382 26.8463 24.7575 26.9707 24.5251L30.9707 17.0505L31.0498 16.9303ZM28.8837 24.1286H31.1787C31.6313 23.2678 32.2609 22.134 32.8964 21.1276C33.2668 20.5411 33.6481 19.9814 34.0039 19.5407C34.0513 19.482 34.1005 19.4258 34.1484 19.3698C34.0073 19.3017 33.8546 19.2285 33.6933 19.153C33.1414 18.8947 32.5094 18.6122 31.9638 18.3708L28.8837 24.1286Z" fill="#1A1A1A"/>
<path d="M16.5458 17.517C24.4548 15.13 27.7758 21.602 28.5458 24.831L27.0408 24.706C21.9498 24.286 17.0839 22.426 13.0089 19.345C12.9149 19.259 13.4908 18.773 16.5458 17.517Z" fill="#78B136"/>
<path d="M16.3298 16.7987C20.5357 15.5295 23.6158 16.6125 25.7253 18.5106C27.7879 20.3667 28.8674 22.9476 29.2751 24.6571C29.3308 24.8909 29.2715 25.1369 29.115 25.3192C28.9583 25.5016 28.7237 25.5979 28.4841 25.578L26.9792 25.453C21.7464 25.0213 16.7446 23.1099 12.5564 19.9432C12.5378 19.9292 12.5199 19.9141 12.5027 19.8983C12.3446 19.7537 12.2547 19.5526 12.2497 19.3417C12.2455 19.1586 12.306 19.0175 12.3464 18.9413C12.4244 18.7945 12.5346 18.6912 12.5993 18.6347C12.7466 18.5061 12.9589 18.3678 13.2292 18.2157C13.7829 17.9042 14.7232 17.4551 16.2605 16.8231L16.3298 16.7987ZM24.7214 19.6259C23.0057 18.0821 20.4802 17.123 16.7946 18.2255C15.5958 18.7191 14.8028 19.0863 14.2927 19.3485C18.0773 21.9837 22.4947 23.5787 27.1023 23.9589H27.1032L27.5153 23.993C27.0245 22.5876 26.1278 20.8914 24.7214 19.6259Z" fill="#1A1A1A"/>
<path d="M19.812 20.3998C21.857 21.0588 23.709 22.0528 25.088 22.9428C25.547 23.2398 26.0859 22.7737 25.7349 22.3547C23.9589 20.2317 21.6539 19.6167 19.8309 19.6147C19.3059 19.6137 19.308 20.2368 19.812 20.3998Z" fill="#538619"/>
<path d="M27.1116 38.4334C27.4071 38.1433 27.8819 38.1478 28.1722 38.4432C28.4622 38.7386 28.4577 39.2135 28.1624 39.5037L28.0403 39.6238L28.0384 39.6248L27.5149 39.0887L27.4554 39.0281L28.0384 39.6248C26.3582 41.2652 23.6564 41.2001 22.0579 39.4793C21.776 39.1758 21.7935 38.7007 22.097 38.4188C22.4005 38.1369 22.8756 38.1543 23.1575 38.4578C24.1822 39.561 25.9135 39.603 26.9905 38.5516V38.5525L27.1116 38.4334Z" fill="#1A1A1A"/>
<path d="M29.7985 35.5452C30.4585 35.5452 30.9935 36.0802 30.9935 36.7402C30.9935 37.4001 30.4585 37.9352 29.7985 37.9352C29.1385 37.9352 28.6035 37.4001 28.6035 36.7402C28.6035 36.0802 29.1385 35.5452 29.7985 35.5452Z" fill="#1A1A1A"/>
<path d="M19.8088 35.5452C19.1488 35.5452 18.6138 36.0802 18.6138 36.7402C18.6138 37.4001 19.1488 37.9352 19.8088 37.9352C20.4688 37.9352 21.0038 37.4001 21.0038 36.7402C21.0038 36.0802 20.4688 35.5452 19.8088 35.5452Z" fill="#1A1A1A"/>
</svg>
