<svg width="48" height="55" viewBox="0 0 48 55" fill="none" xmlns="http://www.w3.org/2000/svg">
<path d="M17.6193 50.23L19.1169 32.75H28.3581L29.6064 50.28C29.7404 52.16 28.2505 53.76 26.3646 53.76H20.8574C18.9531 53.76 17.4567 52.13 17.6193 50.23Z" fill="#DD7C0E"/>
<path d="M29.0564 32L30.3542 50.2266C30.5192 52.5407 28.6858 54.5095 26.365 54.5098H20.8572C18.5131 54.5097 16.6718 52.5034 16.8718 50.166L18.4285 32H29.0564ZM18.3669 50.2939C18.2418 51.7565 19.3929 53.0097 20.8572 53.0098H26.365C27.8156 53.0095 28.9612 51.7786 28.8581 50.333L27.6599 33.5H19.8054L18.3669 50.2939Z" fill="#1A1A1A"/>
<path d="M23.6301 19.75C27.4744 19.75 29.8615 20.83 31.4764 22.2C33.0607 23.54 33.9609 25.2099 34.7541 26.6899C34.7829 26.7399 34.8115 26.79 34.84 26.84C35.4494 27.97 36.6137 28.82 37.8552 29.52C38.7493 30.02 39.7692 30.49 40.7663 30.96C41.1609 31.14 41.5519 31.32 41.9301 31.5C43.3017 32.16 44.5304 32.82 45.4143 33.59C46.2826 34.35 46.75 35.16 46.75 36.12C46.75 36.64 46.5579 37.06 46.1762 37.42C45.7733 37.81 45.1436 38.15 44.2726 38.42C42.5274 38.96 40.0554 39.18 37.2332 39.21C34.4263 39.24 31.3445 39.08 28.4067 38.91C28.0902 38.9 27.7752 38.88 27.4623 38.86C24.8849 38.71 22.4506 38.58 20.5 38.58C19.1366 38.58 17.7251 38.6 16.3109 38.63C13.1641 38.7 10.0041 38.77 7.3317 38.51C5.3989 38.32 3.8338 37.97 2.7711 37.38C1.7565 36.83 1.25 36.09 1.25 35.05C1.25 33.82 1.7644 33 2.6048 32.37C3.486 31.71 4.7201 31.26 6.1078 30.88C6.6858 30.73 7.2716 30.59 7.8566 30.45C7.9673 30.42 8.0779 30.39 8.1885 30.37C8.8759 30.2 9.5598 30.03 10.185 29.84C10.8075 29.64 11.4041 29.41 11.9094 29.12C12.4141 28.83 12.8747 28.44 13.16 27.91C13.3358 27.59 13.5116 27.2199 13.7012 26.8199C14.261 25.6499 14.9414 24.22 16.0997 22.9C17.5934 21.2 19.8613 19.75 23.6301 19.75Z" fill="#FFA629"/>
<path d="M0.5 35.0498C0.500071 33.5547 1.15056 32.5227 2.15527 31.7695L2.34668 31.6318C3.32521 30.9599 4.59575 30.5162 5.91016 30.1562L5.91895 30.1543C6.49776 30.0041 7.08357 29.8636 7.66016 29.7256C7.75423 29.7001 7.87808 29.6676 8.00879 29.6416L9.02051 29.3867C9.34838 29.3011 9.66524 29.2137 9.9668 29.1221C10.5644 28.9296 11.1 28.72 11.5361 28.4697C11.9658 28.2228 12.3024 27.9217 12.5 27.5547L12.5029 27.5488C12.6658 27.2523 12.8316 26.9037 13.0234 26.499L13.0244 26.4961L13.7012 26.8203L13.8145 26.874L13.0244 26.4961C13.5814 25.3321 14.301 23.8129 15.5361 22.4053L15.8516 22.0615C17.477 20.3663 19.8806 19.0001 23.6299 19C27.6298 19 30.195 20.1292 31.9609 21.627L32.2725 21.9023C33.78 23.2878 34.6674 24.9406 35.4043 26.3154L35.4912 26.4688L35.4961 26.4766L35.5 26.4844L34.8398 26.8398L34.8232 26.8486L35.5 26.4844C36.0032 27.4172 37.0057 28.1799 38.2207 28.8652C39.0862 29.3492 40.077 29.8057 41.0859 30.2812L42.252 30.8232L42.2549 30.8242C43.4559 31.4021 44.6104 32.0078 45.5283 32.7148L45.9072 33.0244L45.9082 33.0254C46.8778 33.8741 47.5 34.8738 47.5 36.1201C47.5 36.8556 47.2153 37.4663 46.6973 37.958C46.1778 38.4608 45.4261 38.8481 44.4951 39.1367C42.8727 39.6387 40.7068 39.8694 38.291 39.9395L37.2412 39.96C34.4054 39.9903 31.2999 39.8291 28.3633 39.6592C28.0395 39.6485 27.719 39.6279 27.4141 39.6084C24.8348 39.4583 22.424 39.3301 20.5 39.3301C19.1438 39.3301 17.738 39.35 16.3271 39.3799L16.2949 37.8799C17.7123 37.8498 19.1296 37.8301 20.5 37.8301C22.476 37.8301 24.9321 37.9615 27.5059 38.1113H27.5098L28.4307 38.1602L28.4404 38.1611H28.4502L28.4072 38.8916V38.9014L28.4502 38.1611C31.3892 38.3312 34.4476 38.4897 37.2256 38.46C40.0337 38.4301 42.4146 38.2094 44.0508 37.7031C44.8614 37.4518 45.3681 37.1579 45.6543 36.8809L45.6611 36.874C45.9019 36.647 46 36.4211 46 36.1201C46 35.4464 45.6869 34.8256 44.9199 34.1543C44.1198 33.4579 42.9738 32.8347 41.6045 32.1758L40.4551 31.6426L40.4463 31.6387C39.7075 31.2904 38.9327 30.931 38.2021 30.5557L37.4893 30.1748L37.4873 30.1729L37.8555 29.5205L37.8711 29.4922L37.4873 30.1729C36.2207 29.4587 34.895 28.5216 34.1797 27.1953L34.1045 27.0645L34.0986 27.0547L34.0928 27.0439L34.7539 26.6904L34.7607 26.6855L34.0928 27.0439C33.3446 25.648 32.5581 24.2014 31.2588 23.0078L30.9922 22.7725L30.9912 22.7715L31.4766 22.2002L31.7285 21.9023L30.9912 22.7715C29.5273 21.5297 27.3177 20.5 23.6299 20.5C20.0921 20.5001 18.0246 21.8459 16.6631 23.3955C15.5828 24.6269 14.9402 25.9655 14.3779 27.1406L14.3789 27.1416C14.1917 27.5365 14.005 27.9273 13.8164 28.2705C13.4433 28.9604 12.8612 29.4384 12.2832 29.7705C11.7115 30.0986 11.0569 30.3472 10.4141 30.5537L10.4033 30.5576L9.9082 30.7012C9.40532 30.8412 8.88116 30.9708 8.36816 31.0977L8.1875 30.3682L8.18848 30.3701L8.36816 31.0977L8.3457 31.1035L8.32227 31.1084C8.24873 31.1217 8.16899 31.1423 8.05273 31.1738L7.85449 30.4453L7.85645 30.4502L8.05273 31.1738L8.03125 31.1797C7.44489 31.32 6.86578 31.4586 6.2959 31.6064L6.29492 31.6055C4.92647 31.9808 3.81394 32.402 3.05469 32.9707C2.37889 33.4774 2.00006 34.0853 2 35.0498C2 35.4405 2.09269 35.7383 2.25586 35.9854C2.40271 36.2077 2.63015 36.4254 2.97363 36.6328L3.12891 36.7207L3.13477 36.7246C4.05868 37.2376 5.49772 37.5762 7.40527 37.7637C10.0238 38.0183 13.1358 37.9502 16.2949 37.8799L16.3105 38.6299L16.3271 39.3799C13.389 39.4452 10.3854 39.5131 7.77539 39.3027L7.25879 39.2568L6.53711 39.1758C4.88525 38.9686 3.45851 38.6197 2.40723 38.0361C1.82692 37.7205 1.34165 37.3238 1.00391 36.8125C0.660203 36.2921 0.5 35.699 0.5 35.0498Z" fill="#1A1A1A"/>
<path fill-rule="evenodd" clip-rule="evenodd" d="M21.5633 31.3714C21.8827 31.1077 22.3554 31.1528 22.6191 31.4722C23.3837 32.3982 24.7919 32.4322 25.6001 31.5442L25.6901 31.4452C25.9687 31.1387 26.443 31.1161 26.7495 31.3948C27.056 31.6734 27.0786 32.1477 26.8 32.4542L26.71 32.5532C25.2872 34.117 22.8083 34.0572 21.4625 32.4272C21.1987 32.1078 21.2439 31.6351 21.5633 31.3714Z" fill="#1A1A1A"/>
<path d="M20.5508 29C19.9985 29 19.5508 29.4477 19.5508 30C19.5508 30.5523 19.9985 31 20.5508 31C21.1031 31 21.5508 30.5523 21.5508 30C21.5508 29.4477 21.1031 29 20.5508 29Z" fill="#1A1A1A"/>
<path d="M28.0413 29C28.5935 29 29.0413 29.4477 29.0413 30C29.0413 30.5523 28.5935 31 28.0413 31C27.489 31 27.0413 30.5523 27.0413 30C27.0413 29.4477 27.489 29 28.0413 29Z" fill="#1A1A1A"/>
</svg>
