<svg width="48" height="55" viewBox="0 0 48 55" fill="none" xmlns="http://www.w3.org/2000/svg">
<path d="M18.7581 48.3101L19.9311 32.75H27.8851L28.8641 48.38C29.0471 51.29 26.7311 53.76 23.8091 53.76C20.8611 53.76 18.5361 51.2501 18.7581 48.3101Z" fill="#9747FF"/>
<path d="M28.5891 32L28.634 32.7031L29.6125 48.333L29.6242 48.6445C29.6562 51.8491 27.0588 54.5098 23.8088 54.5098C20.424 54.5096 17.7554 51.6284 18.01 48.2539L19.2356 32H28.5891ZM19.5061 48.3662C19.3169 50.8715 21.2979 53.0096 23.8088 53.0098C26.298 53.0098 28.2713 50.905 28.1155 48.4268L27.1809 33.5H20.6262L19.5061 48.3662Z" fill="#1A1A1A"/>
<path d="M7.9471 39.35C5.2161 29.07 12.9611 19 23.5921 19C34.3311 19 42.0931 29.27 39.1671 39.6L39.0871 39.88C38.9001 40.54 38.2951 41 37.6071 41H9.58211C8.87711 41 8.26012 40.53 8.07912 39.84L7.9471 39.35Z" fill="#D9B8FF"/>
<path d="M23.5922 18.25C34.8288 18.2501 42.9506 28.9961 39.8891 39.8047L39.8881 39.8057L39.3412 39.6494L39.3236 39.6445L39.8881 39.8057L39.808 40.083L39.809 40.084C39.5309 41.0654 38.6317 41.75 37.6068 41.75H9.58243C8.54002 41.75 7.62531 41.0536 7.35587 40.0342L7.35489 40.0352L7.22305 39.5449L7.22208 39.543L7.0961 39.0381C4.61896 28.4597 12.6426 18.25 23.5922 18.25ZM23.5922 19.75C13.4545 19.75 6.06835 29.3519 8.6713 39.1553L8.80313 39.6445L8.80411 39.6494C8.89808 40.0077 9.21628 40.25 9.58243 40.25H37.6068C37.9579 40.25 38.2697 40.0143 38.3656 39.6758V39.6738L38.4457 39.3936C41.2346 29.5429 33.8327 19.7501 23.5922 19.75Z" fill="#1A1A1A"/>
<path fill-rule="evenodd" clip-rule="evenodd" d="M21.0362 33.3714C21.3556 33.1077 21.8283 33.1528 22.092 33.4722C22.8566 34.3982 24.2648 34.4322 25.073 33.5442L25.163 33.4452C25.4416 33.1387 25.9159 33.1161 26.2224 33.3948C26.5289 33.6734 26.5515 34.1477 26.2729 34.4542L26.1829 34.5532C24.7601 36.117 22.2812 36.0572 20.9354 34.4272C20.6716 34.1078 20.7168 33.6351 21.0362 33.3714Z" fill="#1A1A1A"/>
<path d="M20.0244 31C19.4721 31 19.0244 31.4477 19.0244 32C19.0244 32.5523 19.4721 33 20.0244 33C20.5767 33 21.0244 32.5523 21.0244 32C21.0244 31.4477 20.5767 31 20.0244 31Z" fill="#1A1A1A"/>
<path d="M27.5149 31C28.0672 31 28.5149 31.4477 28.5149 32C28.5149 32.5523 28.0672 33 27.5149 33C26.9626 33 26.5149 32.5523 26.5149 32C26.5149 31.4477 26.9626 31 27.5149 31Z" fill="#1A1A1A"/>
</svg>
