<svg width="48" height="55" viewBox="0 0 48 55" fill="none" xmlns="http://www.w3.org/2000/svg">
<path d="M20.2359 50.33L21.1959 32.75H26.5429L27.3429 50.36C27.4269 52.21 25.9489 53.76 24.0959 53.76H23.4809C21.6159 53.76 20.1339 52.19 20.2359 50.33Z" fill="#80CAFF"/>
<path d="M27.2593 32L28.0923 50.3262C28.1955 52.6023 26.3774 54.5096 24.0962 54.5098H23.481C21.1847 54.5098 19.3614 52.5777 19.4868 50.2891L20.4858 32H27.2593ZM20.9849 50.3711C20.9064 51.8023 22.0473 53.0098 23.481 53.0098H24.0962C25.5207 53.0096 26.6579 51.8172 26.5933 50.3936L25.8257 33.5H21.9058L20.9849 50.3711Z" fill="#1A1A1A"/>
<path d="M11.242 34.0699C9.73196 26.2499 15.717 19 23.674 19C31.693 19 37.693 26.36 36.075 34.22L34.944 39.71C34.789 40.46 34.1279 41 33.3609 41H13.927C13.146 41 12.475 40.4501 12.327 39.6801L11.242 34.0699Z" fill="url(#paint0_linear_53532_2548)"/>
<path d="M23.6737 18.25C32.1679 18.25 38.5232 26.0461 36.8095 34.3711L35.6786 39.8613L35.6269 40.0635C35.3297 41.0547 34.4145 41.7498 33.3612 41.75H13.9267C12.7885 41.7499 11.8073 40.9471 11.5907 39.8223L10.5058 34.2119C8.9066 25.9295 15.2454 18.2501 23.6737 18.25ZM23.6737 19.75C16.1883 19.7501 10.5577 26.5703 11.9784 33.9277L13.0634 39.5381L13.1064 39.6885C13.2346 40.0229 13.5564 40.2499 13.9267 40.25H33.3612C33.7714 40.2498 34.1256 39.9607 34.2089 39.5586L35.3407 34.0684C36.8627 26.6736 31.2174 19.75 23.6737 19.75Z" fill="#1A1A1A"/>
<path fill-rule="evenodd" clip-rule="evenodd" d="M21.0362 33.3714C21.3556 33.1077 21.8283 33.1528 22.092 33.4722C22.8566 34.3982 24.2648 34.4322 25.073 33.5442L25.163 33.4452C25.4416 33.1387 25.9159 33.1161 26.2224 33.3948C26.5289 33.6734 26.5515 34.1477 26.2729 34.4542L26.1829 34.5532C24.7601 36.117 22.2812 36.0572 20.9354 34.4272C20.6716 34.1078 20.7168 33.6351 21.0362 33.3714Z" fill="#1A1A1A"/>
<path d="M20.0239 31C19.4716 31 19.0239 31.4477 19.0239 32C19.0239 32.5523 19.4716 33 20.0239 33C20.5762 33 21.0239 32.5523 21.0239 32C21.0239 31.4477 20.5762 31 20.0239 31Z" fill="#1A1A1A"/>
<path d="M27.5144 31C28.0667 31 28.5144 31.4477 28.5144 32C28.5144 32.5523 28.0667 33 27.5144 33C26.9621 33 26.5144 32.5523 26.5144 32C26.5144 31.4477 26.9621 31 27.5144 31Z" fill="#1A1A1A"/>
<defs>
<linearGradient id="paint0_linear_53532_2548" x1="23.769" y1="19" x2="23.769" y2="41" gradientUnits="userSpaceOnUse">
<stop offset="0.418269" stop-color="#0D99FF"/>
<stop offset="1" stop-color="#BDE3FF"/>
</linearGradient>
</defs>
</svg>
