<svg width="48" height="55" viewBox="0 0 48 55" fill="none" xmlns="http://www.w3.org/2000/svg">
<path d="M47.2449 54.0898H0.755859C0.899859 44.7598 3.71986 36.1998 8.06186 29.9398C12.5269 23.5098 18.5329 19.5898 24.8329 19.5898C31.1179 19.5898 36.7019 23.4899 40.7529 29.9199C44.6949 36.1699 47.1219 44.7298 47.2449 54.0898Z" fill="#14AE5C"/>
<path d="M24.8331 18.8398C31.4604 18.8399 37.2509 22.9552 41.3868 29.5195H41.3878C45.4152 35.905 47.8707 44.6054 47.9952 54.0801C47.9978 54.2806 47.9193 54.4734 47.7784 54.6162C47.6375 54.7589 47.4457 54.8398 47.2452 54.8398H0.755948C0.555117 54.8398 0.362723 54.7593 0.221769 54.6162C0.0807984 54.473 0.00284789 54.279 0.00594846 54.0781C0.152093 44.6109 3.01247 35.904 7.4454 29.5127L8.67782 30.3672C4.54465 36.3262 1.80358 44.4449 1.5245 53.3398H46.4786C46.2394 44.3936 43.8689 36.2669 40.1183 30.3203V30.3193C36.1523 24.0244 30.7754 20.3399 24.8331 20.3398C18.86 20.3398 13.0564 24.0618 8.67782 30.3672L7.44638 29.5117C11.9978 22.9575 18.2064 18.8398 24.8331 18.8398Z" fill="#1A1A1A"/>
<path d="M42.2458 54.0897H6.75781C6.90281 47.1097 9.05681 40.7298 12.3528 36.0498C15.7728 31.1998 20.3568 28.2598 25.1438 28.2598C29.9158 28.2598 34.1728 31.1798 37.2738 36.0198C40.2648 40.6998 42.1218 47.0897 42.2458 54.0897Z" fill="#85E0A3"/>
<path d="M25.1437 27.5098C30.0933 27.5098 34.4375 30.4467 37.6027 35.1543L37.9054 35.6152L37.4845 35.8848L37.3224 35.9893L37.9064 35.6162C40.9831 40.4306 42.8702 46.9604 42.9963 54.0762L42.2463 54.0889V54.0898L42.9963 54.0762C42.9998 54.2772 42.9223 54.4717 42.7814 54.6152C42.6405 54.7587 42.4474 54.8398 42.2463 54.8398H6.75797C6.55636 54.8398 6.36291 54.7583 6.22184 54.6143C6.08097 54.4703 6.00381 54.2756 6.00797 54.0742C6.15585 46.9555 8.35256 40.4276 11.7404 35.6172C15.2487 30.6421 20.0349 27.5099 25.1437 27.5098ZM25.1437 29.0098C20.6788 29.0099 16.2965 31.7569 12.965 36.4814C9.88091 40.8607 7.80992 46.8001 7.53239 53.3398H41.4748C41.2364 46.7579 39.4391 40.7998 36.6418 36.4229C33.628 31.7198 29.5781 29.0098 25.1437 29.0098Z" fill="#1A1A1A"/>
<path d="M37.3467 54.0897H11.7627C11.9197 49.6297 13.4617 45.5498 15.7967 42.5498C18.2647 39.3798 21.5707 37.4697 25.0237 37.4697C28.4647 37.4697 31.5277 39.3698 33.7607 42.5198C35.8777 45.5198 37.2117 49.5997 37.3467 54.0897Z" fill="#CFF7D3"/>
<path d="M25.0237 36.7197C28.7665 36.7197 32.0365 38.7911 34.3723 42.0859L33.76 42.5195H33.761L34.3723 42.0859L34.3733 42.0869C36.5854 45.2218 37.958 49.4493 38.0969 54.0674C38.1029 54.27 38.0262 54.4668 37.885 54.6123C37.7438 54.7577 37.5496 54.8398 37.3469 54.8398H11.7629C11.5594 54.8398 11.3642 54.7568 11.2229 54.6104C11.0818 54.464 11.0058 54.2666 11.0129 54.0635C11.1753 49.4515 12.7699 45.2179 15.2053 42.0889C17.7763 38.7867 21.2826 36.7198 25.0237 36.7197ZM25.0237 38.2197C21.8589 38.2198 18.7538 39.9732 16.3889 43.0107C14.2893 45.7083 12.8473 49.3377 12.5549 53.3398H36.5608C36.3087 49.287 35.0494 45.6471 33.1477 42.9521V42.9512C31.0176 39.9475 28.1619 38.2197 25.0237 38.2197Z" fill="#1A1A1A"/>
<path d="M26.5198 47.7107C26.8153 47.4207 27.2901 47.4252 27.5804 47.7205C27.8704 48.016 27.866 48.4908 27.5706 48.7811L27.4485 48.9012L27.4466 48.9022L26.9232 48.366L26.8636 48.3055L27.4466 48.9022C25.7664 50.5426 23.0646 50.4774 21.4661 48.7566C21.1842 48.4532 21.2017 47.978 21.5052 47.6961C21.8087 47.4142 22.2838 47.4317 22.5657 47.7352C23.5904 48.8383 25.3217 48.8804 26.3987 47.8289V47.8299L26.5198 47.7107Z" fill="#1A1A1A"/>
<path d="M19.205 44.835C18.5395 44.835 18 45.3745 18 46.04C18 46.7055 18.5395 47.245 19.205 47.245C19.8705 47.245 20.41 46.7055 20.41 46.04C20.41 45.3745 19.8705 44.835 19.205 44.835Z" fill="#1A1A1A"/>
<path d="M29.2023 44.835C29.8678 44.835 30.4073 45.3745 30.4073 46.04C30.4073 46.7055 29.8678 47.245 29.2023 47.245C28.5368 47.245 27.9973 46.7055 27.9973 46.04C27.9973 45.3745 28.5368 44.835 29.2023 44.835Z" fill="#1A1A1A"/>
</svg>
