<svg width="48" height="55" viewBox="0 0 48 55" fill="none" xmlns="http://www.w3.org/2000/svg">
<path d="M2 38.191C2 33.428 2 30.191 7 22.191C9.91 18.033 28.03 16.641 38.079 19.74C41.543 20.808 43.663 23.993 44.448 27.532C45.369 31.685 46.116 36.933 45.948 42.053C45.735 48.557 40.183 52.871 33.686 53.239C27.478 53.591 19.604 53.682 12.808 52.922C9.63001 52.566 6.48101 51.285 4.75101 48.596C2.53101 45.145 2 41.226 2 38.191Z" fill="#FFBDF2"/>
<path d="M8 29.0571L7 21.5571L8.5 20.0571L11 19.0571L19.5 18.0571H30.5L38.5 19.5571L43.5 23.0571V27.0571L41.919 31.7211L36.5 28.0571L32.5 33.5571L27.79 30.2331L23.264 33.5571L19 29.0571L15.082 33.1821L12.539 27.1311L8 29.0571Z" fill="#FDEECE"/>
<path d="M34.25 23.0571C34.25 23.1081 34.213 23.3071 33.78 23.6131C33.367 23.9061 32.721 24.2011 31.856 24.4601C30.133 24.9771 27.709 25.3071 25 25.3071C22.291 25.3071 19.867 24.9771 18.144 24.4601C17.279 24.2011 16.633 23.9061 16.22 23.6131C15.787 23.3071 15.75 23.1081 15.75 23.0571C15.75 23.0071 15.787 22.8081 16.22 22.5011C16.633 22.2091 17.279 21.9141 18.144 21.6541C19.867 21.1381 22.291 20.8071 25 20.8071C27.709 20.8071 30.133 21.1381 31.856 21.6541C32.721 21.9141 33.367 22.2091 33.78 22.5011C34.213 22.8081 34.25 23.0071 34.25 23.0571Z" fill="#A55440"/>
<path d="M19.8398 17.4981C26.0624 17.0065 33.2239 17.4455 38.3662 19.0762C40.8963 19.8789 42.7192 21.7047 43.8896 23.9258C43.9055 23.9557 43.9215 23.9854 43.9365 24.0157C44.4885 25.0841 44.8919 26.241 45.1504 27.418C46.103 31.7543 46.8853 37.296 46.6924 42.7051C46.4418 49.7141 40.4904 54.2818 33.6982 54.6739L32.5156 54.7383C26.511 55.0401 19.1851 55.077 12.7813 54.3516C9.44874 53.9742 6.00696 52.589 4.1123 49.583C1.7901 45.899 1.25004 41.7462 1.25 38.5821C1.25 36.1601 1.24742 34.0332 1.89844 31.4795C2.54885 28.9285 3.83886 25.992 6.36035 21.8789L6.37109 21.8623L6.38184 21.8467C6.83803 21.1825 7.55201 20.6266 8.40137 20.1582C9.25796 19.6859 10.3002 19.2767 11.4688 18.9268C13.8065 18.2268 16.7228 17.7444 19.8398 17.4981ZM37.9121 20.5059C33.0174 18.9537 26.0666 18.5106 19.958 18.9932C16.9097 19.234 14.1051 19.7029 11.8994 20.3633C10.7966 20.6935 9.86108 21.0664 9.12598 21.4717C8.63492 21.7425 8.25385 22.0175 7.97266 22.2871C7.47685 23.1492 7.40662 24.5063 7.62207 25.8994C7.72849 26.5874 7.89842 27.2416 8.08691 27.7793C8.22938 28.1857 8.37234 28.495 8.49023 28.6983C9.19254 28.4132 10.3081 27.7249 11.4277 26.9493C12.5045 26.2024 14.0328 26.8273 14.2666 28.1231L14.501 29.3682C14.722 30.4943 14.9758 31.6633 15.1846 32.4532C15.5394 32.1442 15.9787 31.6923 16.4863 31.1621C17.1208 30.4994 17.8415 29.7401 18.5137 29.1846L18.5156 29.1826C18.8261 28.9283 19.4848 28.6682 20.0371 29.1739L20.2158 29.3496C20.4004 29.5423 20.6023 29.7826 20.8037 30.0323C21.0793 30.3739 21.3893 30.7776 21.6992 31.1758C22.3121 31.9634 22.9145 32.7143 23.3818 33.1514C23.7476 32.933 24.2624 32.4993 24.8535 31.9336C25.4859 31.3284 26.1371 30.643 26.6934 30.0664C27.2249 29.5161 28.1238 29.3431 28.8203 29.8604C29.5266 30.3851 30.3455 31.1502 31.0605 31.8067C31.4261 32.1423 31.7678 32.4528 32.0713 32.709C32.2768 32.8825 32.4497 33.017 32.5889 33.1143C32.9483 32.6948 33.4391 32.0057 33.9756 31.2207C34.5568 30.3702 35.1834 29.4223 35.6768 28.7354L36.8955 29.6104C36.4151 30.2792 35.8185 31.1832 35.2148 32.0664C34.6302 32.9219 34.024 33.7802 33.5674 34.2725L33.5664 34.2735C33.2377 34.6266 32.6331 34.8729 32.0469 34.5459L31.8213 34.4073C31.5899 34.2536 31.345 34.0584 31.1035 33.8545C30.7734 33.5758 30.411 33.2465 30.0469 32.9121C29.3023 32.2285 28.5534 31.5307 27.9258 31.0645C27.9115 31.0539 27.8969 31.0492 27.875 31.0518C27.8488 31.055 27.81 31.0708 27.7734 31.1084C27.2299 31.6717 26.5505 32.386 25.8906 33.0176C25.2497 33.631 24.5506 34.242 23.9658 34.545L23.9639 34.5459L23.8604 34.5938C23.3397 34.8079 22.7972 34.6438 22.4434 34.3272C21.847 33.7925 21.1312 32.8877 20.5156 32.0967C20.1975 31.6879 19.9013 31.3026 19.6367 30.9746C19.4907 30.7936 19.3627 30.6428 19.2559 30.5225C18.724 30.9908 18.1488 31.595 17.5703 32.1993C16.9464 32.851 16.2837 33.5421 15.7422 33.9248L14.9834 32.8506L15.7412 33.9258C15.3713 34.1866 14.9195 34.2253 14.5303 34.0401C14.1674 33.8671 13.9309 33.5368 13.8291 33.1856L13.7041 32.7266C13.4025 31.5589 13.0395 29.7676 12.79 28.3907C12.7721 28.2911 12.7035 28.2025 12.5918 28.1563C12.4798 28.1101 12.3676 28.1234 12.2832 28.1817C11.095 29.0048 9.72122 29.8724 8.80859 30.1836C8.39198 30.3253 7.8005 30.2823 7.42383 29.7989L7.42285 29.7969L8.01563 29.3379L8.32813 29.0948L7.42285 29.7969C7.14322 29.4363 6.88381 28.8828 6.6709 28.2754C6.45196 27.6508 6.26009 26.9076 6.13965 26.1289C6.10293 25.8916 6.07245 25.6464 6.0498 25.3965C4.60991 28.0347 3.80566 30.0687 3.35156 31.8496C2.75282 34.1982 2.75 36.1495 2.75 38.5821C2.75005 41.6018 3.27038 45.4337 5.38184 48.7832C6.93717 51.2508 9.8531 52.5107 12.9502 52.8614C19.6612 53.6216 27.4459 53.5316 33.6113 53.1768L34.1934 53.1319C40.1652 52.5566 44.9843 48.4973 45.1934 42.6514C45.3567 38.0705 44.7976 33.3641 44.0303 29.4092C43.7711 30.3672 43.445 31.2053 43.1904 31.7569L42.3818 31.3828L41.9072 31.1651L43.1904 31.7569C42.9235 32.3357 42.2513 32.8054 41.4775 32.5684C40.6744 32.3221 39.795 31.7356 39.0332 31.1709C38.6412 30.8803 38.2566 30.577 37.9063 30.3008C37.551 30.0208 37.2361 29.7722 36.9648 29.5752C36.9601 29.5718 36.9561 29.5703 36.9541 29.5694C36.9528 29.5688 36.9517 29.5677 36.9512 29.5674C36.951 29.5674 36.9493 29.5681 36.9482 29.5684C36.944 29.5692 36.9208 29.5755 36.8955 29.6104L35.6777 28.7344C36.1622 28.0615 37.1081 27.826 37.8457 28.3614C38.1459 28.5794 38.4869 28.8487 38.835 29.1231C39.1879 29.4013 39.5556 29.6907 39.9268 29.9659C40.6531 30.5042 41.3175 30.925 41.8369 31.1055C42.1566 30.4082 42.611 29.1979 42.8311 27.918C43.0581 26.5966 43.0096 25.3588 42.499 24.5078L42.501 24.5059C41.4755 22.6193 39.9388 21.1488 37.9121 20.5059ZM25 20.0567C27.7611 20.0567 30.2611 20.3935 32.0713 20.9356H32.0723L32.4023 21.0401C33.1551 21.289 33.7706 21.576 34.2129 21.8887H34.2139C34.7288 22.2538 34.9999 22.6495 35 23.0567C35 23.4648 34.729 23.8608 34.2129 24.2256L34.2119 24.2246C33.7693 24.5383 33.1546 24.8262 32.4023 25.0743L32.0713 25.1778C30.2607 25.721 27.7608 26.0567 25 26.0567C22.4119 26.0567 20.053 25.7618 18.2764 25.2774L17.9287 25.1778C17.0246 24.907 16.293 24.5833 15.7871 24.2246C15.2712 23.8599 15 23.4648 15 23.0567C15.0001 22.6495 15.2712 22.2538 15.7861 21.8887H15.7871C16.2924 21.5315 17.0237 21.2074 17.9277 20.9356H17.9287C19.7389 20.3935 22.2389 20.0567 25 20.0567ZM25 21.5567C22.3435 21.5567 19.9951 21.8813 18.3594 22.3711C17.6024 22.5987 17.069 22.8432 16.7383 23.0567C17.0683 23.2706 17.6019 23.5144 18.3594 23.7412L18.6748 23.8311C20.29 24.271 22.5091 24.5567 25 24.5567C27.6571 24.5567 30.0053 24.2319 31.6406 23.7412L31.9375 23.6475C32.5392 23.4487 32.9756 23.2414 33.2607 23.0567C32.93 22.8433 32.3962 22.5985 31.6396 22.3711C30.0039 21.8815 27.6561 21.5567 25 21.5567ZM33.6699 23.458L33.5537 23.293L33.5479 23.2852L33.5459 23.2832L33.6699 23.458Z" fill="#1A1A1A"/>
<path d="M17.731 15.5421L20.629 14.8281L23.482 24.5151C23.482 24.5151 22.441 24.5241 21.779 24.4961C21.201 24.4721 20.308 24.3941 20.308 24.3941L17.731 15.5421Z" fill="#80CAFF"/>
<path d="M10.9092 41.0576C12.5158 41.0577 13.8184 42.0343 13.8184 43.2393C13.8183 44.4442 12.5157 45.4209 10.9092 45.4209C9.30259 45.4209 8.00009 44.4442 8 43.2393C8 42.0343 9.30253 41.0576 10.9092 41.0576ZM36.9092 41.0576C38.5158 41.0577 39.8184 42.0343 39.8184 43.2393C39.8183 44.4442 38.5157 45.4209 36.9092 45.4209C35.3026 45.4209 34.0001 44.4442 34 43.2393C34 42.0343 35.3025 41.0576 36.9092 41.0576Z" fill="#F24822"/>
<path d="M26.5037 42.9468C26.7992 42.6568 27.274 42.6613 27.5643 42.9566C27.8543 43.252 27.8498 43.7269 27.5545 44.0171L27.4324 44.1373L27.4305 44.1382L26.907 43.6021L26.8475 43.5416L27.4305 44.1382C25.7503 45.7787 23.0485 45.7135 21.45 43.9927C21.1681 43.6893 21.1856 43.2141 21.4891 42.9322C21.7925 42.6503 22.2677 42.6678 22.5496 42.9712C23.5743 44.0744 25.3056 44.1165 26.3826 43.065V43.066L26.5037 42.9468Z" fill="#1A1A1A"/>
<path d="M29.1965 40.0588C29.8564 40.0588 30.3915 40.5939 30.3915 41.2538C30.3915 41.9138 29.8564 42.4488 29.1965 42.4488C28.5365 42.4488 28.0015 41.9138 28.0015 41.2538C28.0015 40.5939 28.5365 40.0588 29.1965 40.0588Z" fill="#1A1A1A"/>
<path d="M19.1965 40.0588C18.5365 40.0588 18.0015 40.5939 18.0015 41.2538C18.0015 41.9138 18.5365 42.4488 19.1965 42.4488C19.8564 42.4488 20.3915 41.9138 20.3915 41.2538C20.3915 40.5939 19.8564 40.0588 19.1965 40.0588Z" fill="#1A1A1A"/>
</svg>
