<svg width="48" height="55" viewBox="0 0 48 55" fill="none" xmlns="http://www.w3.org/2000/svg">
<path d="M43.224 53.28C34.669 51.07 12.081 39.71 2 31.21C2 31.21 9.265 28.66 18.779 26.3C28.293 23.93 35.255 22 35.255 22C38.91 27.86 43.366 42.99 45.101 51.34C45.352 52.56 44.422 53.59 43.224 53.28Z" fill="#FFE8A3"/>
<path d="M35.8916 21.6035C37.7731 24.6203 39.8245 29.9478 41.6123 35.5068C43.1826 40.3896 44.5692 45.5138 45.4766 49.5352L45.835 51.1875L45.8359 51.1885C46.0072 52.0211 45.7813 52.8371 45.251 53.3984C44.7112 53.9695 43.898 54.2289 43.0361 54.0059L42.1777 53.7686C37.6883 52.4473 30.3208 49.1897 22.8359 45.2686C14.8445 41.082 6.62012 36.0863 1.5166 31.7832L0.512695 30.9375L1.75195 30.502H1.75293C1.75393 30.5016 1.75594 30.5007 1.75781 30.5C1.76156 30.4987 1.76734 30.4966 1.77441 30.4941C1.78887 30.4891 1.80999 30.4814 1.83789 30.4717C1.89435 30.4521 1.9783 30.4232 2.08789 30.3857C2.30705 30.3107 2.62996 30.2011 3.04688 30.0625C3.8809 29.7852 5.09154 29.3917 6.59961 28.9238C9.61508 27.9883 13.8237 26.7565 18.5977 25.5723C23.3499 24.3885 27.4648 23.3141 30.3916 22.5361C31.8547 22.1472 33.0212 21.8329 33.8213 21.6152C34.2212 21.5065 34.5299 21.4215 34.7383 21.3643C34.8423 21.3357 34.9216 21.3135 34.9746 21.2988C35.0011 21.2915 35.0218 21.2869 35.0352 21.2832C35.0417 21.2814 35.0465 21.2792 35.0498 21.2783C35.0514 21.2779 35.0529 21.2776 35.0537 21.2773H35.0547L35.5947 21.1279L35.8916 21.6035ZM34.2158 23.0625C33.4132 23.2808 32.2437 23.5965 30.7773 23.9863C27.8447 24.7659 23.7215 25.8412 18.96 27.0273V27.0283C14.2202 28.204 10.0393 29.4271 7.04395 30.3564C5.54728 30.8208 4.34691 31.2109 3.52148 31.4854C8.54332 35.4878 16.102 40.0469 23.5322 43.9395C31.5012 48.1143 39.2224 51.4715 43.4111 52.5537H43.4121C43.7482 52.6406 43.9991 52.5396 44.1611 52.3682C44.332 52.1871 44.4454 51.8786 44.3662 51.4922C43.5048 47.3467 41.9643 41.5027 40.1836 35.9658C38.4916 30.7049 36.6051 25.7943 34.9043 22.873C34.7188 22.9238 34.4887 22.9883 34.2158 23.0625Z" fill="#1A1A1A"/>
<path d="M31.9577 37.9985L29 38.74L30.5982 45.1151L33.556 44.3736L31.9577 37.9985Z" fill="#FFCD29"/>
<path d="M15.0329 28.0044L12 28.3198L12.8114 36.1206L15.8443 35.8052L15.0329 28.0044Z" fill="#FFCD29"/>
<path d="M20.3465 32.6513L18.4019 35L24.4429 40.0017L26.3875 37.653L20.3465 32.6513Z" fill="#FFCD29"/>
<path d="M30.9798 21.0026L28 21.6499L29.6649 29.314L32.6446 28.6668L30.9798 21.0026Z" fill="#FFCD29"/>
<path d="M26.7899 29.5335L24.064 30.8999L25.9854 34.7333L28.7114 33.3669L26.7899 29.5335Z" fill="#FFCD29"/>
<path d="M36.6264 29.6395L33.645 29L32.0001 36.6685L34.9816 37.308L36.6264 29.6395Z" fill="#FFCD29"/>
<path d="M19.979 20.4398C16.206 21.5098 6.428 25.4999 2 27.7799L5.217 34.1799C10.22 31.9199 19.388 28.4799 20.979 28.0299C22.527 27.5899 31.297 25.1499 35.831 23.8899C36.067 23.8299 36.273 23.6798 36.384 23.4598C36.762 22.7098 37.171 21.4298 36.875 20.4398C36.583 19.4498 35.808 18.6298 35.259 18.1998C35.084 18.0598 34.859 18.0099 34.637 18.0399C31.057 18.4299 23.632 19.3998 19.979 20.4398Z" fill="#D4693B"/>
<path d="M34.5556 17.2953C34.9432 17.2474 35.3698 17.3329 35.7206 17.6107L35.7216 17.6097C36.3322 18.0881 37.2393 19.0265 37.5937 20.225L37.6562 20.475C37.7774 21.0607 37.7264 21.667 37.6161 22.1937C37.4884 22.8039 37.2675 23.3729 37.0536 23.7972L36.1308 23.3324L36.3837 23.4603L37.0536 23.7972V23.7982L36.9628 23.9535C36.7369 24.2951 36.3933 24.5148 36.0312 24.6107L36.0322 24.6127C31.4964 25.8731 22.7288 28.3121 21.1835 28.7513L20.8085 28.8675C18.5183 29.6107 10.2006 32.7517 5.52533 34.8636C5.15898 35.0289 4.72738 34.8761 4.54682 34.517L1.33002 28.1166C1.14545 27.7492 1.29088 27.3021 1.65619 27.1136C6.11719 24.8166 15.9413 20.8051 19.7734 19.7181C23.4904 18.6599 30.9579 17.6876 34.5361 17.2972C34.5424 17.2964 34.5492 17.2951 34.5556 17.2943V17.2953ZM34.6367 18.0404L34.7372 18.7836C34.7309 18.7844 34.7241 18.7848 34.7177 18.7855C31.128 19.1766 23.7666 20.1417 20.1845 21.1615H20.1835C16.6459 22.1647 7.65169 25.8138 3.00678 28.1136L5.56537 33.2035C10.6909 30.943 19.2012 27.753 20.7744 27.308C22.3267 26.8667 31.098 24.4267 35.6298 23.1673L35.6464 23.1634C35.6959 23.1508 35.711 23.1274 35.7138 23.1224L35.8378 22.8568C35.9601 22.5724 36.0755 22.2344 36.1484 21.8861C36.2473 21.4133 36.2547 20.984 36.1562 20.6547L36.1552 20.6517C35.925 19.8719 35.2836 19.1717 34.7968 18.7904L35.2812 18.1713L35.2587 18.1996L34.7968 18.7904L34.79 18.7855C34.789 18.7851 34.7873 18.7851 34.7851 18.7845C34.777 18.7825 34.7608 18.7804 34.7372 18.7836L34.6367 18.0394V18.0404Z" fill="#1A1A1A"/>
<path d="M5.68844 30.3598C6.28244 32.3598 5.73643 34.0699 4.54243 34.3999C3.34843 34.7299 1.66843 33.6198 1.07543 31.6198C0.481431 29.6198 0.968437 27.7399 2.16244 27.4099C3.35644 27.0799 5.09544 28.3598 5.68844 30.3598Z" fill="#864E37"/>
<path d="M1.96253 26.6874C2.88531 26.4325 3.86488 26.8203 4.61976 27.4267C5.39784 28.0518 6.06735 29.0017 6.40687 30.1464C6.73587 31.2542 6.76595 32.3323 6.5055 33.2177C6.2452 34.1023 5.6621 34.8686 4.74183 35.123C3.8493 35.3696 2.89246 35.0582 2.1305 34.4824C1.35385 33.8953 0.696073 32.9801 0.356088 31.8339L0.246713 31.4189C0.0217573 30.4528 0.0151695 29.5025 0.222299 28.7011C0.454995 27.8009 1.00596 26.9518 1.96253 26.6874ZM3.68031 28.5956C3.11927 28.1451 2.633 28.0579 2.36195 28.1328C2.12461 28.1983 1.83529 28.4542 1.67445 29.0761C1.51769 29.6826 1.52822 30.5124 1.79359 31.4062L1.79457 31.4072C2.04764 32.2604 2.526 32.8998 3.03578 33.2851C3.56054 33.6817 4.04097 33.76 4.34242 33.6767C4.61603 33.601 4.90339 33.3474 5.06605 32.7949C5.22848 32.2429 5.23432 31.4653 4.96937 30.5732C4.71585 29.7182 4.21838 29.0279 3.68031 28.5956Z" fill="#1A1A1A"/>
<path fill-rule="evenodd" clip-rule="evenodd" d="M32.5538 45.4092C32.8732 45.1455 33.3459 45.1906 33.6096 45.5101C34.3741 46.436 35.7824 46.47 36.5905 45.5821L36.6805 45.4831C36.9592 45.1766 37.4335 45.154 37.74 45.4326C38.0465 45.7112 38.0691 46.1856 37.7905 46.4921L37.7005 46.5911C36.2776 48.1549 33.7987 48.0951 32.4529 46.4651C32.1892 46.1457 32.2343 45.673 32.5538 45.4092Z" fill="#1A1A1A"/>
<path d="M39.0155 42.9946C39.5761 42.9946 40.0305 43.4311 40.0305 43.9696C40.0305 44.5081 39.5761 44.9446 39.0155 44.9446C38.4549 44.9446 38.0005 44.5081 38.0005 43.9696C38.0005 43.4312 38.4549 42.9946 39.0155 42.9946Z" fill="#1A1A1A"/>
<path d="M31.0155 42.9946C30.4549 42.9946 30.0005 43.4311 30.0005 43.9696C30.0005 44.5081 30.4549 44.9446 31.0155 44.9446C31.5761 44.9446 32.0305 44.5081 32.0305 43.9696C32.0305 43.4312 31.5761 42.9946 31.0155 42.9946Z" fill="#1A1A1A"/>
</svg>
