<svg width="48" height="55" viewBox="0 0 48 55" fill="none" xmlns="http://www.w3.org/2000/svg">
<path d="M43.224 53.28C34.669 51.07 12.081 39.71 2 31.21C2 31.21 9.26499 28.66 18.779 26.3C28.293 23.93 35.255 22 35.255 22C38.91 27.86 43.366 42.99 45.101 51.34C45.352 52.56 44.422 53.59 43.224 53.28Z" fill="#E0D4ED"/>
<path d="M35.8916 21.6035C37.7731 24.6203 39.8245 29.9478 41.6123 35.5068C43.1826 40.3896 44.5692 45.5138 45.4766 49.5352L45.835 51.1875L45.8359 51.1885L45.1582 51.3271L45.125 51.335L45.8359 51.1885C46.0072 52.0211 45.7813 52.8371 45.251 53.3984C44.7112 53.9695 43.898 54.2289 43.0361 54.0059L42.1777 53.7686C37.6883 52.4473 30.3208 49.1897 22.8359 45.2686C14.8445 41.082 6.62012 36.0863 1.5166 31.7832L0.512695 30.9375L1.75195 30.502H1.75293C1.75393 30.5016 1.75594 30.5007 1.75781 30.5C1.76156 30.4987 1.76734 30.4966 1.77441 30.4941C1.78887 30.4891 1.80999 30.4814 1.83789 30.4717C1.89435 30.4521 1.9783 30.4232 2.08789 30.3857C2.30705 30.3107 2.62996 30.2011 3.04688 30.0625C3.8809 29.7852 5.09154 29.3917 6.59961 28.9238C9.61508 27.9883 13.8237 26.7565 18.5977 25.5723C23.3499 24.3885 27.4648 23.3141 30.3916 22.5361C31.8547 22.1472 33.0212 21.8329 33.8213 21.6152C34.2212 21.5065 34.5299 21.4215 34.7383 21.3643C34.8423 21.3357 34.9216 21.3135 34.9746 21.2988C35.0011 21.2915 35.0218 21.2869 35.0352 21.2832C35.0417 21.2814 35.0465 21.2792 35.0498 21.2783C35.0514 21.2779 35.0529 21.2776 35.0537 21.2773H35.0547L35.5947 21.1279L35.8916 21.6035ZM34.2158 23.0625C33.4132 23.2808 32.2437 23.5965 30.7773 23.9863C27.8447 24.7659 23.7215 25.8412 18.96 27.0273V27.0283C14.2202 28.204 10.0393 29.4271 7.04395 30.3564C5.54728 30.8208 4.34691 31.2109 3.52148 31.4854C8.54332 35.4878 16.102 40.0469 23.5322 43.9395C31.5012 48.1143 39.2224 51.4715 43.4111 52.5537H43.4121C43.7482 52.6406 43.9991 52.5396 44.1611 52.3682C44.3322 52.1869 44.4458 51.8772 44.3662 51.4902C43.5047 47.3449 41.964 41.5018 40.1836 35.9658C38.4916 30.7049 36.6051 25.7943 34.9043 22.873C34.7188 22.9238 34.4887 22.9883 34.2158 23.0625Z" fill="#1A1A1A"/>
<path d="M20.0986 34.2749C19.8086 34.3035 19.3072 34.4226 18.8554 34.6704C18.4063 34.9168 18.1119 35.2275 18.0029 35.5981C17.9472 35.7894 17.9682 35.8912 17.9833 35.938C18.0007 35.9912 18.0401 36.0579 18.1298 36.1362C18.3341 36.3146 18.6734 36.44 18.9365 36.4819L18.622 38.4575C18.1322 38.3795 17.3945 38.1495 16.8144 37.6431C16.5122 37.3792 16.2323 37.0211 16.081 36.5552C15.9276 36.0826 15.9292 35.5692 16.083 35.0405L16.0839 35.0396C16.3933 33.9811 17.1722 33.3122 17.8935 32.9165C18.6129 32.5219 19.3813 32.3361 19.9023 32.2847L20.0986 34.2749Z" fill="#681ABB"/>
<path d="M24.98 40.1306C25.0392 40.4212 25.2082 40.9095 25.4985 41.3337C25.7514 41.7032 26.0414 41.949 26.3657 42.0515L26.5073 42.0867L26.5132 42.0876C26.707 42.1245 26.8037 42.095 26.8472 42.0759C26.8973 42.054 26.9595 42.0085 27.0288 41.9109C27.1863 41.6891 27.2764 41.3378 27.2905 41.0759L29.2876 41.1833C29.2607 41.6815 29.1057 42.4409 28.6597 43.0691C28.4273 43.3963 28.0983 43.7112 27.6489 43.908C27.1929 44.1076 26.6808 44.1546 26.1392 44.0515C25.0539 43.8499 24.3126 43.1422 23.8481 42.4636C23.3841 41.7855 23.1248 41.0385 23.021 40.5291L24.98 40.1306Z" fill="#681ABB"/>
<path d="M23.505 26.4629C23.3936 26.7396 23.2644 27.2401 23.2726 27.7539C23.2807 28.2644 23.4186 28.6691 23.6984 28.9404C23.8409 29.0782 23.94 29.1078 23.9884 29.1162C24.0436 29.1257 24.1207 29.1219 24.2316 29.0791C24.4836 28.9818 24.7516 28.7406 24.9074 28.5283L26.5197 29.7119C26.2204 30.1196 25.6717 30.6676 24.9523 30.9453C24.5774 31.09 24.1292 31.1705 23.6466 31.0869C23.1575 31.0021 22.705 30.761 22.3097 30.3789C21.5154 29.6104 21.2867 28.6099 21.2736 27.7861C21.2605 26.9652 21.455 26.2001 21.6495 25.7168L23.505 26.4629Z" fill="#681ABB"/>
<path d="M36.3291 29.1377C36.5227 29.6202 36.7172 30.3851 36.7041 31.2061C36.6909 32.0298 36.463 33.0303 35.668 33.7988C35.2727 34.1811 34.8198 34.4218 34.3311 34.5068C33.8492 34.5906 33.4026 34.5106 33.0283 34.3672C32.3097 34.0917 31.7611 33.5473 31.4629 33.1475L33.0664 31.9521C33.2232 32.1623 33.4914 32.4031 33.7441 32.5C33.8553 32.5426 33.9329 32.5457 33.9883 32.5361C34.0369 32.5277 34.1352 32.4988 34.2773 32.3613V32.3604C34.5581 32.089 34.6969 31.6849 34.7051 31.1738C34.7133 30.6601 34.584 30.1594 34.4727 29.8818L36.3291 29.1377Z" fill="#681ABB"/>
<path d="M12.5995 30.1605C13.0774 30.0467 13.5157 30.1706 13.8349 30.3245L13.8339 30.3255C14.5643 30.6735 14.8182 31.3902 14.8202 31.9915C14.8222 32.5832 14.5938 33.2218 14.161 33.6585L13.5419 33.0442L13.6278 33.1302L14.161 33.6585L14.1571 33.6614C13.7562 34.0607 13.2292 34.2412 12.7421 34.2835C12.2543 34.3258 11.7419 34.2368 11.3075 34.0228V34.0218C11.1139 33.9275 10.8752 33.7823 10.6747 33.5745C10.4721 33.3645 10.2567 33.035 10.2567 32.5999C10.2567 32.5236 10.2536 32.5016 10.2509 32.3782C10.2488 32.2854 10.2486 32.1543 10.2714 32.012C10.3286 31.6444 10.5158 31.3706 10.6786 31.1839C10.8303 31.0099 11.0253 30.8443 11.1112 30.7659V30.7669C11.3693 30.5222 11.7122 30.3997 11.9306 30.3323C12.1676 30.2592 12.4581 30.1965 12.5888 30.1634L12.7831 30.931L12.7733 30.8899L12.5888 30.1634L12.5995 30.1605ZM13.4833 31.0521L13.1884 31.678L13.1835 31.6761L13.0917 31.638C13.0142 31.6123 12.9683 31.615 12.9481 31.6194C12.7284 31.6749 12.5625 31.7074 12.3729 31.7659C12.2864 31.7926 12.2212 31.8171 12.1757 31.8392C12.137 31.8579 12.1292 31.8669 12.1376 31.8597L12.1356 31.8626L12.1229 31.8743L12.0233 31.9632C11.9919 31.9913 11.9635 32.0163 11.9364 32.0413C11.8817 32.0918 11.8412 32.1329 11.8095 32.1692C11.7507 32.2366 11.7491 32.2588 11.7518 32.2474L11.7528 32.2483C11.7516 32.2559 11.7485 32.2805 11.7499 32.345C11.7505 32.371 11.7531 32.4571 11.7548 32.5335C11.7731 32.5524 11.8017 32.5763 11.8407 32.6028C11.8794 32.6292 11.9223 32.6541 11.9657 32.6751L12.1122 32.7337C12.2629 32.7819 12.4389 32.8044 12.6122 32.7894C12.8441 32.7692 13.0074 32.6896 13.0985 32.5989C13.2193 32.4746 13.321 32.2351 13.3202 31.9964C13.3194 31.7665 13.2365 31.7008 13.1884 31.678L13.5087 31.0003L13.4833 31.0521ZM11.0116 32.1302L11.3085 32.1751L11.0116 32.1302Z" fill="#9747FF"/>
<path d="M26.4949 33.2662C27.085 33.2715 27.7216 33.5059 28.1522 33.9459L28.1541 33.9469L28.2918 34.1051C28.59 34.4846 28.7289 34.9431 28.7615 35.3707C28.7987 35.8578 28.7034 36.3687 28.4803 36.8004C28.3842 36.9887 28.2365 37.2289 28.0232 37.4293C27.8111 37.6286 27.4819 37.8338 27.0516 37.8287V37.8297C26.958 37.8297 26.9803 37.8341 26.8279 37.8365C26.7393 37.8379 26.6134 37.8337 26.4754 37.8101V37.8121C26.4661 37.8108 26.4572 37.8077 26.4481 37.8062C26.4439 37.8055 26.4395 37.8061 26.4354 37.8053V37.8043C26.0742 37.7418 25.8088 37.553 25.6316 37.3932C25.4704 37.2477 25.2927 37.0368 25.2303 36.9693L25.2322 36.9674C24.9828 36.7045 24.8611 36.352 24.7967 36.1324C24.7619 36.0136 24.7303 35.8803 24.7029 35.7613L24.6375 35.4752L24.6356 35.4664C24.5252 34.9801 24.6541 34.5491 24.8084 34.232L24.8123 34.2242L25.4832 34.5601L25.5369 34.5865L24.8123 34.2242C25.1734 33.5024 25.8953 33.2609 26.4949 33.2662ZM26.4822 34.7662C26.2494 34.7641 26.1782 34.8473 26.1541 34.8951C26.0897 35.0297 26.0905 35.0975 26.0975 35.1314C26.1503 35.3525 26.1795 35.5173 26.2361 35.7105C26.2618 35.7979 26.2861 35.8631 26.3074 35.9088C26.3254 35.9472 26.3338 35.9543 26.326 35.9449L26.3318 35.9508L25.7957 36.4449L25.7879 36.4527L26.3318 35.9508C26.3874 36.0108 26.4692 36.1045 26.5076 36.1471C26.5598 36.2049 26.6005 36.2464 26.6365 36.2789C26.671 36.31 26.6919 36.3235 26.701 36.3287L26.7088 36.3307L26.7293 36.3346C26.7328 36.335 26.7533 36.3373 26.8045 36.3365C26.8346 36.336 26.8648 36.3341 26.908 36.3326C26.9345 36.3317 26.966 36.3313 26.9998 36.3307C27.0176 36.3132 27.0414 36.2874 27.0672 36.2506C27.0948 36.2111 27.1214 36.1657 27.1453 36.1187L27.785 36.4459L27.7381 36.4205L27.1453 36.1187L27.1473 36.1139C27.2341 35.9468 27.284 35.7156 27.2664 35.4849C27.2489 35.2552 27.171 35.0895 27.0799 34.9947L27.0311 34.9508C26.9037 34.8499 26.6951 34.7682 26.4822 34.7662Z" fill="#9747FF"/>
<path d="M31.498 23.8024C32.0893 23.8096 32.7238 24.0472 33.1523 24.485L32.6396 24.987L32.6757 24.9508L33.1523 24.485L33.1542 24.487L33.2919 24.6452C33.5901 25.0247 33.729 25.4832 33.7617 25.9108C33.7988 26.3977 33.7033 26.908 33.4804 27.3395L33.4814 27.3405C33.3853 27.5289 33.2367 27.769 33.0234 27.9694C32.8112 28.1687 32.482 28.3739 32.0517 28.3688V28.3698C31.9582 28.3698 31.9805 28.3742 31.8281 28.3766C31.7351 28.3781 31.6009 28.3744 31.455 28.3473V28.3493C31.4497 28.3484 31.4447 28.3463 31.4394 28.3454C31.4382 28.3451 31.4368 28.3456 31.4355 28.3454V28.3444C31.0789 28.278 30.8151 28.0932 30.6347 27.9323C30.4704 27.7856 30.3001 27.5848 30.2304 27.5094L30.2314 27.5085C29.9853 27.2451 29.8643 26.8952 29.7978 26.6696C29.7278 26.4321 29.6686 26.1442 29.6376 26.0153L29.6357 26.0055L29.6054 25.8258C29.5584 25.4136 29.6736 25.0495 29.8085 24.7721L29.8105 24.7682C30.1705 24.0388 30.8948 23.7952 31.498 23.8024ZM31.4794 25.3024C31.25 25.2997 31.1803 25.3807 31.1552 25.4313C31.089 25.5684 31.0905 25.6374 31.0976 25.6715C31.1497 25.8896 31.1801 26.0553 31.2363 26.2458C31.2618 26.3325 31.2864 26.3985 31.3085 26.446L31.3251 26.484L31.332 26.4909C31.3644 26.5259 31.3958 26.5612 31.4238 26.5924C31.4531 26.6253 31.4791 26.6541 31.5048 26.6823C31.5564 26.7387 31.5972 26.7806 31.6337 26.8131C31.7076 26.879 31.7267 26.8738 31.7089 26.8708L31.7197 26.8727L31.7294 26.8747C31.7329 26.8751 31.7534 26.8774 31.8046 26.8766C31.8348 26.8761 31.8649 26.8743 31.9082 26.8727C31.9346 26.8718 31.9662 26.8714 32 26.8708C32.0177 26.8533 32.0416 26.8275 32.0673 26.7907C32.0949 26.7512 32.1215 26.7058 32.1455 26.6588L32.1474 26.654C32.2343 26.487 32.2841 26.2557 32.2666 26.0251C32.249 25.7954 32.1711 25.6296 32.08 25.5348L32.0302 25.4899C31.9011 25.3875 31.691 25.3049 31.4794 25.3024Z" fill="#9747FF"/>
<path d="M36.2107 37.1302C36.6888 37.0164 37.1279 37.1403 37.4471 37.2943L37.4461 37.2953C38.1762 37.6434 38.4294 38.3601 38.4314 38.9613C38.4334 39.553 38.205 40.1916 37.7722 40.6283L37.7693 40.6312C37.3707 41.0282 36.8453 41.213 36.3562 41.2572C35.8711 41.3009 35.3594 41.2128 34.9226 40.9935V40.9945L34.9109 40.9886V40.9877C34.7198 40.8935 34.4857 40.7499 34.2879 40.5453C34.0854 40.3358 33.8689 40.0057 33.8689 39.5697C33.8689 39.4925 33.8656 39.4688 33.8631 39.347C33.8612 39.2547 33.8613 39.126 33.8826 38.9867V38.9857C33.9396 38.6164 34.1273 38.3413 34.2908 38.1537C34.4425 37.9796 34.637 37.8146 34.7234 37.7357V37.7367C34.9815 37.4921 35.3245 37.3695 35.5428 37.3021C35.7798 37.2289 36.0701 37.1663 36.201 37.1332L36.2107 37.1302ZM35.7342 38.8441C35.7005 38.8748 35.6656 38.9061 35.6355 38.933C35.6041 38.961 35.5757 38.9861 35.5486 39.0111C35.494 39.0615 35.4534 39.1026 35.4217 39.139C35.3601 39.2097 35.3612 39.2312 35.364 39.2171C35.3625 39.2297 35.3609 39.257 35.3621 39.3158C35.3626 39.3424 35.3654 39.427 35.367 39.5023C35.3854 39.5214 35.4136 39.5458 35.4529 39.5726L35.5789 39.6459L35.5916 39.6517H35.5906C35.7601 39.738 35.9919 39.7837 36.2215 39.763C36.4485 39.7425 36.6118 39.663 36.7058 39.5716C36.828 39.4483 36.9322 39.207 36.9314 38.9662C36.9307 38.7362 36.8477 38.6706 36.7996 38.6478L36.7947 38.6459C36.6609 38.5813 36.5878 38.5833 36.5603 38.5892C36.3406 38.6447 36.1747 38.6772 35.9851 38.7357C35.8986 38.7624 35.8335 38.7868 35.7879 38.8089C35.7638 38.8206 35.7516 38.8289 35.7478 38.8314L35.7469 38.8324L35.7342 38.8441L35.2342 38.2953H35.2332L35.7342 38.8441Z" fill="#9747FF"/>
<path d="M19.979 20.44C16.206 21.51 6.428 25.5001 2 27.7801L5.217 34.1801C10.22 31.9201 19.388 28.4801 20.979 28.0301C22.527 27.5901 31.297 25.1501 35.831 23.8901C36.067 23.8301 36.273 23.68 36.384 23.46C36.762 22.71 37.171 21.43 36.875 20.44C36.583 19.45 35.808 18.63 35.259 18.2C35.084 18.06 34.859 18.0101 34.637 18.0401C31.057 18.4301 23.632 19.4 19.979 20.44Z" fill="#7F699B"/>
<path d="M34.5556 17.2953C34.9432 17.2474 35.3698 17.3329 35.7206 17.6107L35.7216 17.6097C36.3322 18.0881 37.2393 19.0265 37.5937 20.225L37.6562 20.475C37.7774 21.0607 37.7264 21.667 37.6161 22.1937C37.4884 22.8039 37.2675 23.3729 37.0536 23.7972L36.1308 23.3324L36.3837 23.4603L37.0536 23.7972V23.7982L36.9628 23.9535C36.7369 24.2951 36.3933 24.5148 36.0312 24.6107L36.0322 24.6127C31.4964 25.8731 22.7288 28.3121 21.1835 28.7513L20.8085 28.8675C18.5183 29.6107 10.2006 32.7517 5.52533 34.8636C5.15898 35.0289 4.72738 34.8761 4.54682 34.517L1.33002 28.1166C1.14545 27.7492 1.29088 27.3021 1.65619 27.1136C6.11718 24.8166 15.9413 20.8051 19.7734 19.7181C23.4904 18.6599 30.9579 17.6876 34.5361 17.2972C34.5424 17.2964 34.5492 17.2951 34.5556 17.2943V17.2953ZM34.6367 18.0404L34.7372 18.7836C34.7309 18.7844 34.7241 18.7848 34.7177 18.7855C31.128 19.1766 23.7655 20.1417 20.1835 21.1615L20.039 20.6517L20.1835 21.1615C16.6459 22.1647 7.65169 25.8138 3.00678 28.1136L5.56537 33.2035C10.6909 30.943 19.2012 27.753 20.7744 27.308C22.3267 26.8667 31.098 24.4267 35.6298 23.1673L35.6464 23.1634C35.6959 23.1508 35.711 23.1274 35.7138 23.1224L35.8378 22.8568C35.9601 22.5724 36.0755 22.2344 36.1484 21.8861C36.2473 21.4133 36.2547 20.984 36.1562 20.6547L36.1552 20.6517C35.925 19.8719 35.2836 19.1717 34.7968 18.7904L35.2812 18.1713L35.2587 18.1996L34.7968 18.7904L34.79 18.7855C34.789 18.7851 34.7873 18.7851 34.7851 18.7845C34.777 18.7825 34.7608 18.7804 34.7372 18.7836L34.6367 18.0394V18.0404Z" fill="#1A1A1A"/>
<path d="M5.68844 30.3601C6.28244 32.3601 5.73644 34.0701 4.54244 34.4001C3.34844 34.7301 1.66843 33.6201 1.07543 31.6201C0.481431 29.6201 0.968437 27.7401 2.16244 27.4101C3.35644 27.0801 5.09544 28.3601 5.68844 30.3601Z" fill="#604D75"/>
<path d="M1.96253 26.6874C2.88531 26.4325 3.86488 26.8203 4.61976 27.4267C5.39784 28.0518 6.06735 29.0017 6.40687 30.1464C6.73587 31.2542 6.76595 32.3323 6.5055 33.2177C6.2452 34.1023 5.6621 34.8686 4.74183 35.123C3.84947 35.3696 2.89336 35.058 2.13148 34.4824C1.35474 33.8953 0.696102 32.9802 0.356088 31.8339L0.246713 31.4189C0.0217573 30.4528 0.0151695 29.5025 0.222299 28.7011C0.454995 27.8009 1.00596 26.9518 1.96253 26.6874ZM3.68031 28.5956C3.11927 28.1451 2.633 28.0579 2.36195 28.1328C2.12461 28.1983 1.83529 28.4542 1.67445 29.0761C1.51769 29.6826 1.52822 30.5124 1.79359 31.4062L1.79457 31.4072C2.04764 32.2604 2.52599 32.8998 3.03578 33.2851C3.56054 33.6817 4.04097 33.76 4.34242 33.6767C4.61603 33.601 4.90339 33.3474 5.06605 32.7949C5.22848 32.2429 5.23432 31.4653 4.96937 30.5732C4.71585 29.7182 4.21838 29.0279 3.68031 28.5956Z" fill="#1A1A1A"/>
<path fill-rule="evenodd" clip-rule="evenodd" d="M32.5538 45.4087C32.8732 45.145 33.3459 45.1902 33.6096 45.5096C34.3741 46.4355 35.7824 46.4696 36.5905 45.5816L36.6805 45.4826C36.9592 45.1761 37.4335 45.1535 37.74 45.4321C38.0465 45.7108 38.0691 46.1851 37.7905 46.4916L37.7005 46.5906C36.2776 48.1544 33.7987 48.0946 32.4529 46.4646C32.1892 46.1452 32.2343 45.6725 32.5538 45.4087Z" fill="#1A1A1A"/>
<path d="M39.0155 42.9946C39.5761 42.9946 40.0305 43.4311 40.0305 43.9696C40.0305 44.5081 39.5761 44.9446 39.0155 44.9446C38.4549 44.9446 38.0005 44.5081 38.0005 43.9696C38.0005 43.4312 38.4549 42.9946 39.0155 42.9946Z" fill="#1A1A1A"/>
<path d="M31.0155 42.9946C30.4549 42.9946 30.0005 43.4311 30.0005 43.9696C30.0005 44.5081 30.4549 44.9446 31.0155 44.9446C31.5761 44.9446 32.0305 44.5081 32.0305 43.9696C32.0305 43.4312 31.5761 42.9946 31.0155 42.9946Z" fill="#1A1A1A"/>
</svg>
