<svg width="48" height="55" viewBox="0 0 48 55" fill="none" xmlns="http://www.w3.org/2000/svg">
<path d="M43.2243 53.28C34.6685 51.07 12.0812 39.71 2 31.21C2 31.21 9.26518 28.66 18.7792 26.3C28.2931 23.93 35.2546 22 35.2546 22C38.9102 27.86 43.3663 42.99 45.1009 51.34C45.3524 52.56 44.4219 53.59 43.2243 53.28Z" fill="#FFE8A3"/>
<path d="M35.8906 21.6035C37.7725 24.6202 39.8244 29.9476 41.6123 35.5068C43.1827 40.3896 44.5693 45.5138 45.4766 49.5352L45.835 51.1875C46.0067 52.0204 45.7814 52.8371 45.251 53.3984C44.7113 53.9695 43.8978 54.2289 43.0361 54.0059C38.6692 52.8777 30.8192 49.4509 22.8359 45.2686C14.8445 41.082 6.62021 36.0863 1.5166 31.7832L0.512695 30.9375L1.75195 30.502C1.75295 30.5016 1.75594 30.5007 1.75781 30.5C1.76156 30.4987 1.76733 30.4966 1.77441 30.4941C1.78887 30.4891 1.80999 30.4814 1.83789 30.4717C1.89435 30.4521 1.9783 30.4232 2.08789 30.3857C2.30705 30.3108 2.62995 30.2011 3.04688 30.0625C3.88091 29.7852 5.09153 29.3917 6.59961 28.9238C9.61509 27.9883 13.8238 26.7565 18.5977 25.5723C23.3499 24.3884 27.4649 23.3141 30.3916 22.5361C31.8548 22.1472 33.0213 21.8329 33.8213 21.6152C34.2213 21.5064 34.5299 21.4215 34.7383 21.3643C34.8424 21.3357 34.9216 21.3135 34.9746 21.2988C35.0008 21.2916 35.0209 21.2869 35.0342 21.2832C35.0408 21.2814 35.0465 21.2792 35.0498 21.2783C35.0511 21.278 35.052 21.2775 35.0527 21.2773H35.0547L35.5947 21.1279L35.8906 21.6035ZM34.2148 23.0625C33.4123 23.2808 32.2435 23.5966 30.7773 23.9863C27.8449 24.7658 23.7222 25.8413 18.9609 27.0273L18.96 27.0283L18.7793 26.2998L18.709 26.0176L18.96 27.0283C14.2202 28.204 10.0394 29.4271 7.04395 30.3564C5.54728 30.8208 4.34691 31.2109 3.52148 31.4854C8.54338 35.4878 16.102 40.0469 23.5322 43.9395C31.0034 47.8535 38.2568 51.0485 42.5859 52.3242L43.4121 52.5537C43.748 52.6407 43.9991 52.5396 44.1611 52.3682C44.3321 52.1871 44.4456 51.8786 44.3662 51.4922C43.505 47.3467 41.9653 41.5027 40.1846 35.9658C38.4926 30.7051 36.6043 25.7954 34.9033 22.874C34.7179 22.9248 34.4875 22.9883 34.2148 23.0625Z" fill="#1A1A1A"/>
<path d="M33.3516 33.0044C35.6572 33.0046 37.5261 34.4706 37.5264 36.2798C37.5264 38.0891 35.6574 39.556 33.3516 39.5562C31.0456 39.5562 29.1758 38.0892 29.1758 36.2798C29.176 34.4705 31.0457 33.0044 33.3516 33.0044ZM18.999 32.0142C21.2075 32.0142 22.998 33.5033 22.998 35.3403C22.9979 37.1772 21.2074 38.6665 18.999 38.6665C16.7907 38.6665 15.0002 37.1772 15 35.3403C15 33.5033 16.7906 32.0142 18.999 32.0142ZM29.1758 23.4634C31.4815 23.4635 33.3503 24.9305 33.3506 26.7397C33.3506 28.5491 31.4817 30.016 29.1758 30.0161C26.8698 30.0161 25 28.5492 25 26.7397C25.0003 24.9305 26.8699 23.4634 29.1758 23.4634Z" fill="#BD2915"/>
<path d="M19.9789 20.44C16.2058 21.51 6.42787 25.5001 2 27.7801L5.21656 34.1801C10.2202 31.9201 19.3876 28.4801 20.9789 28.0301C22.5274 27.5901 31.297 25.1501 35.8307 23.8901C36.0674 23.8301 36.273 23.68 36.3841 23.46C36.7623 22.71 37.1711 21.43 36.8749 20.44C36.5828 19.45 35.8085 18.63 35.2594 18.2C35.0839 18.06 34.8588 18.0101 34.6374 18.0401C31.057 18.4301 23.6315 19.4 19.9789 20.44Z" fill="#D4693B"/>
<path d="M34.5571 17.2964C34.9468 17.2483 35.3764 17.3333 35.728 17.6138L35.727 17.6147C36.338 18.0946 37.2407 19.0303 37.5942 20.2251L37.6567 20.4741C37.7782 21.0601 37.7269 21.6668 37.6166 22.1938C37.489 22.804 37.2681 23.3729 37.0541 23.7973L36.1323 23.3325L36.6713 23.605L37.0541 23.7973V23.7983L36.9633 23.9536C36.7375 24.2951 36.394 24.5149 36.0307 24.6108L36.0317 24.6128C31.4962 25.8733 22.7298 28.3122 21.184 28.7514H21.183C19.6415 29.1875 10.513 32.6112 5.52582 34.8638C5.15945 35.0292 4.72797 34.8761 4.5473 34.5171L1.33051 28.1167C1.14594 27.7493 1.29137 27.3022 1.65668 27.1138C6.11758 24.8167 15.9417 20.8051 19.7739 19.7182C23.4973 18.6581 30.9863 17.6834 34.5571 17.2944V17.2964ZM34.7192 18.7856L33.2104 18.9585C29.3472 19.4191 23.319 20.2693 20.185 21.1616L19.9575 20.3638L20.184 21.1616C16.6463 22.1648 7.65208 25.8139 3.00726 28.1138L5.56586 33.2036C10.6919 30.9431 19.2016 27.7531 20.7748 27.3081C22.3278 26.8668 31.0989 24.4268 35.6303 23.1675L35.8305 23.8901H35.8315L35.6303 23.1675C35.6358 23.1659 35.6414 23.165 35.6469 23.1636C35.6985 23.1505 35.7132 23.1257 35.7153 23.1216C35.8793 22.7961 36.0517 22.3505 36.1489 21.8862C36.2477 21.4135 36.2552 20.9841 36.1567 20.6548L36.1557 20.6518C35.9541 19.969 35.4377 19.3477 34.9858 18.9477L34.7973 18.7905L34.7924 18.7866L34.7856 18.7846C34.7774 18.7826 34.7616 18.7806 34.7387 18.7837C34.7323 18.7845 34.7256 18.7849 34.7192 18.7856Z" fill="#1A1A1A"/>
<path d="M5.68858 30.3601C6.28213 32.3601 5.73626 34.0701 4.54233 34.4001C3.34839 34.7301 1.66878 33.6201 1.07522 31.6201C0.481668 29.6201 0.968311 27.7401 2.16225 27.4101C3.35618 27.0801 5.09502 28.3601 5.68858 30.3601Z" fill="#864E37"/>
<path d="M1.96254 26.6874C2.88532 26.4325 3.86493 26.8203 4.61977 27.4267C5.39788 28.0518 6.06708 29.0017 6.40688 30.1464C6.73565 31.2542 6.76505 32.3323 6.50454 33.2177C6.24423 34.1022 5.66207 34.8686 4.74184 35.123C3.84945 35.3696 2.89334 35.058 2.13149 34.4823C1.35466 33.8952 0.696339 32.9794 0.356098 31.8329C0.0279573 30.727 -0.0143203 29.6168 0.222309 28.7011C0.454945 27.8009 1.00595 26.9518 1.96254 26.6874ZM3.68032 28.5956C3.11928 28.145 2.633 28.058 2.36196 28.1327C2.1247 28.1983 1.83528 28.4541 1.67446 29.0761C1.51772 29.6826 1.52843 30.5124 1.7936 31.4062C2.04692 32.2597 2.52593 32.8997 3.03579 33.2851C3.56055 33.6817 4.04103 33.76 4.34243 33.6767C4.61595 33.6009 4.90339 33.3474 5.06606 32.7948C5.22852 32.2428 5.23414 31.4653 4.96938 30.5732C4.71558 29.7181 4.2184 29.0279 3.68032 28.5956Z" fill="#1A1A1A"/>
<path fill-rule="evenodd" clip-rule="evenodd" d="M32.5538 45.4092C32.8732 45.1455 33.3459 45.1906 33.6096 45.5101C34.3741 46.436 35.7824 46.47 36.5905 45.5821L36.6805 45.4831C36.9592 45.1766 37.4335 45.154 37.74 45.4326C38.0465 45.7112 38.0691 46.1856 37.7905 46.4921L37.7005 46.5911C36.2776 48.1549 33.7987 48.0951 32.4529 46.4651C32.1892 46.1457 32.2343 45.673 32.5538 45.4092Z" fill="#1A1A1A"/>
<path d="M39.015 42.9961C39.5756 42.9961 40.03 43.4326 40.03 43.9711C40.03 44.5096 39.5756 44.9461 39.015 44.9461C38.4544 44.9461 38 44.5096 38 43.9711C38 43.4326 38.4544 42.9961 39.015 42.9961Z" fill="#1A1A1A"/>
<path d="M31.015 42.9961C30.4544 42.9961 30 43.4326 30 43.9711C30 44.5096 30.4544 44.9461 31.015 44.9461C31.5756 44.9461 32.03 44.5096 32.03 43.9711C32.03 43.4326 31.5756 42.9961 31.015 42.9961Z" fill="#1A1A1A"/>
</svg>
