<svg width="48" height="55" viewBox="0 0 48 55" fill="none" xmlns="http://www.w3.org/2000/svg">
<path d="M43.224 53.28C34.669 51.07 12.081 39.71 2 31.21C2 31.21 9.26499 28.66 18.779 26.3C28.293 23.93 35.255 22 35.255 22C38.91 27.86 43.366 42.99 45.101 51.34C45.352 52.56 44.422 53.59 43.224 53.28Z" fill="#FFE8A3"/>
<path d="M35.8916 21.6035C37.7731 24.6203 39.8245 29.9478 41.6123 35.5068C43.1826 40.3896 44.5692 45.5138 45.4766 49.5352L45.835 51.1875L45.8359 51.1885L45.1582 51.3271L45.125 51.335L45.8359 51.1885C46.0072 52.0211 45.7813 52.8371 45.251 53.3984C44.7112 53.9695 43.898 54.2289 43.0361 54.0059L42.1777 53.7686C37.6883 52.4473 30.3208 49.1897 22.8359 45.2686C14.8445 41.082 6.62012 36.0863 1.5166 31.7832L0.512695 30.9375L1.75195 30.502H1.75293C1.75393 30.5016 1.75594 30.5007 1.75781 30.5C1.76156 30.4987 1.76734 30.4966 1.77441 30.4941C1.78887 30.4891 1.80999 30.4814 1.83789 30.4717C1.89435 30.4521 1.9783 30.4232 2.08789 30.3857C2.30705 30.3107 2.62996 30.2011 3.04688 30.0625C3.8809 29.7852 5.09154 29.3917 6.59961 28.9238C9.61508 27.9883 13.8237 26.7565 18.5977 25.5723C23.3499 24.3885 27.4648 23.3141 30.3916 22.5361C31.8547 22.1472 33.0212 21.8329 33.8213 21.6152C34.2212 21.5065 34.5299 21.4215 34.7383 21.3643C34.8423 21.3357 34.9216 21.3135 34.9746 21.2988C35.0011 21.2915 35.0218 21.2869 35.0352 21.2832C35.0417 21.2814 35.0465 21.2792 35.0498 21.2783C35.0514 21.2779 35.0529 21.2776 35.0537 21.2773H35.0547L35.5947 21.1279L35.8916 21.6035ZM34.2158 23.0625C33.4132 23.2808 32.2437 23.5965 30.7773 23.9863C27.8447 24.7659 23.7215 25.8412 18.96 27.0273V27.0283C14.2202 28.204 10.0393 29.4271 7.04395 30.3564C5.54728 30.8208 4.34691 31.2109 3.52148 31.4854C8.54332 35.4878 16.102 40.0469 23.5322 43.9395C31.5012 48.1143 39.2224 51.4715 43.4111 52.5537H43.4121C43.7482 52.6406 43.9991 52.5396 44.1611 52.3682C44.3322 52.1869 44.4458 51.8772 44.3662 51.4902C43.5047 47.3449 41.964 41.5018 40.1836 35.9658C38.4916 30.7049 36.6051 25.7943 34.9043 22.873C34.7188 22.9238 34.4887 22.9883 34.2158 23.0625Z" fill="#1A1A1A"/>
<path d="M33.3516 33.0034C35.6573 33.0036 37.5262 34.4706 37.5264 36.2798C37.5264 38.0891 35.6574 39.556 33.3516 39.5562C31.0456 39.5562 29.1758 38.0892 29.1758 36.2798C29.1759 34.4705 31.0457 33.0034 33.3516 33.0034ZM18.999 32.0142C21.2075 32.0142 22.998 33.5033 22.998 35.3403C22.9978 37.1772 21.2074 38.6665 18.999 38.6665C16.7907 38.6665 15.0002 37.1772 15 35.3403C15 33.5033 16.7906 32.0142 18.999 32.0142ZM29.1748 23.4634C31.4807 23.4634 33.3504 24.9304 33.3506 26.7397C33.3506 28.5492 31.4808 30.0161 29.1748 30.0161C26.869 30.016 25 28.5491 25 26.7397C25.0002 24.9305 26.8691 23.4635 29.1748 23.4634Z" fill="#FF99E0"/>
<path d="M19.979 20.44C16.206 21.51 6.428 25.5001 2 27.7801L5.21701 34.1801C10.22 31.9201 19.388 28.4801 20.979 28.0301C22.527 27.5901 31.297 25.1501 35.831 23.8901C36.067 23.8301 36.273 23.68 36.384 23.46C36.762 22.71 37.171 21.43 36.875 20.44C36.583 19.45 35.808 18.63 35.259 18.2C35.084 18.06 34.859 18.0101 34.637 18.0401C31.057 18.4301 23.632 19.4 19.979 20.44Z" fill="#D4693B"/>
<path d="M34.5556 17.2953C34.9432 17.2474 35.3698 17.3329 35.7206 17.6107L35.7216 17.6097C36.3322 18.0881 37.2393 19.0265 37.5937 20.225L37.6562 20.475C37.7774 21.0607 37.7264 21.667 37.6161 22.1937C37.4884 22.8039 37.2675 23.3729 37.0536 23.7972L36.1308 23.3324L36.3837 23.4603L37.0536 23.7972V23.7982L36.9628 23.9535C36.7369 24.2951 36.3933 24.5148 36.0312 24.6107L36.0322 24.6127C31.4964 25.8731 22.7288 28.3121 21.1835 28.7513L20.8085 28.8675C18.5183 29.6107 10.2006 32.7517 5.52533 34.8636C5.15898 35.0289 4.72738 34.8761 4.54682 34.517L1.33002 28.1166C1.14545 27.7492 1.29088 27.3021 1.65619 27.1136C6.11718 24.8166 15.9413 20.8051 19.7734 19.7181C23.4904 18.6599 30.9579 17.6876 34.5361 17.2972C34.5424 17.2964 34.5492 17.2951 34.5556 17.2943V17.2953ZM34.6367 18.0404L34.7372 18.7836C34.7309 18.7844 34.7241 18.7848 34.7177 18.7855C31.128 19.1766 23.7655 20.1417 20.1835 21.1615L20.039 20.6517L20.1835 21.1615C16.6459 22.1647 7.65169 25.8138 3.00678 28.1136L5.56537 33.2035C10.6909 30.943 19.2012 27.753 20.7744 27.308C22.3267 26.8667 31.098 24.4267 35.6298 23.1673L35.6464 23.1634C35.6959 23.1508 35.711 23.1274 35.7138 23.1224L35.8378 22.8568C35.9601 22.5724 36.0755 22.2344 36.1484 21.8861C36.2473 21.4133 36.2547 20.984 36.1562 20.6547L36.1552 20.6517C35.925 19.8719 35.2836 19.1717 34.7968 18.7904L35.2812 18.1713L35.2587 18.1996L34.7968 18.7904L34.79 18.7855C34.789 18.7851 34.7873 18.7851 34.7851 18.7845C34.777 18.7825 34.7608 18.7804 34.7372 18.7836L34.6367 18.0394V18.0404Z" fill="#1A1A1A"/>
<path d="M5.68841 30.3601C6.28241 32.3601 5.73642 34.0701 4.54242 34.4001C3.34842 34.7301 1.66844 33.6201 1.07544 31.6201C0.481438 29.6201 0.968413 27.7401 2.16241 27.4101C3.35641 27.0801 5.09541 28.3601 5.68841 30.3601Z" fill="#864E37"/>
<path d="M1.96253 26.6874C2.8853 26.4325 3.86488 26.8203 4.61976 27.4267C5.39784 28.0518 6.06734 29.0016 6.40687 30.1464C6.73587 31.2542 6.76594 32.3323 6.5055 33.2177C6.2452 34.1023 5.66209 34.8686 4.74183 35.123C3.84929 35.3697 2.89245 35.0582 2.1305 34.4824C1.35385 33.8953 0.69607 32.9801 0.356085 31.8339L0.24671 31.4189C0.0217538 30.4528 0.0151748 29.5025 0.222296 28.7011C0.454984 27.8009 1.00595 26.9518 1.96253 26.6874ZM3.6803 28.5956C3.11927 28.1451 2.633 28.0579 2.36194 28.1327C2.12461 28.1983 1.83528 28.4542 1.67444 29.0761C1.51769 29.6826 1.52821 30.5124 1.79359 31.4062L1.79456 31.4072C2.04764 32.2604 2.526 32.8998 3.03577 33.2851C3.56053 33.6817 4.04097 33.76 4.34241 33.6767C4.61602 33.601 4.90339 33.3474 5.06605 32.7949C5.22848 32.2428 5.23432 31.4653 4.96937 30.5732C4.71585 29.7181 4.21838 29.0279 3.6803 28.5956Z" fill="#1A1A1A"/>
<path d="M34.9781 26.9699C35.6701 26.8899 36.2221 27.5299 36.0391 28.2099L35.2671 31.04C35.1431 31.5 34.7211 31.8 34.2511 31.78L33.7561 31.75L33.3751 31.7099C32.8921 31.6499 32.5211 31.26 32.4951 30.77L32.3481 28.02C32.3181 27.45 32.7731 26.9699 33.3471 26.9699H34.9781Z" fill="#FAB815"/>
<path d="M17.758 35.5898C18.114 34.9898 17.755 34.2198 17.067 34.1098L14.165 33.6399C13.701 33.5599 13.247 33.8199 13.074 34.2599L12.893 34.7198L12.777 35.0798C12.63 35.5498 12.837 36.0499 13.268 36.2699L15.712 37.5499C16.22 37.8099 16.847 37.5898 17.084 37.0698L17.758 35.5898Z" fill="#FAB815"/>
<path d="M23.3308 40.84C22.9178 40.28 23.2009 39.4801 23.8749 39.3001L26.7178 38.5501C27.1728 38.4301 27.6489 38.6401 27.8629 39.0601L28.0888 39.5L28.2398 39.85C28.4308 40.3 28.2739 40.82 27.8659 41.09L25.5579 42.59C25.0769 42.9 24.4328 42.75 24.1458 42.25L23.3308 40.84Z" fill="#FAB815"/>
<path d="M37.9261 40.85C37.6461 41.48 36.8111 41.64 36.3211 41.14L34.2501 39.0601C33.9191 38.7201 33.8651 38.2001 34.1201 37.8101L34.3901 37.39L34.6201 37.09C34.9111 36.7 35.4401 36.5701 35.8731 36.7901L38.3291 38.0401C38.8401 38.3001 39.0281 38.9401 38.7421 39.4301L37.9261 40.85Z" fill="#FAB815"/>
<path d="M23.0409 31.2199C22.3909 31.4699 22.1989 32.3 22.6709 32.81L24.6649 34.9699C24.9839 35.3199 25.4999 35.39 25.9059 35.15L26.334 34.9L26.6509 34.6899C27.0519 34.4099 27.1989 33.8899 26.9979 33.4499L25.8599 30.9399C25.6229 30.4199 24.9969 30.1999 24.4879 30.4699L23.0409 31.2199Z" fill="#FAB815"/>
<path d="M34.9787 26.47C35.9969 26.3905 36.7906 27.3406 36.5216 28.3401V28.3411L35.7492 31.1692C35.5629 31.8603 34.928 32.3093 34.2296 32.2796L34.2511 31.7796L34.2209 32.2796L33.7257 32.2493L33.7043 32.2473L33.3234 32.2073L33.3781 31.6839L33.3752 31.7102L33.3234 32.2073L33.3136 32.2063C32.5945 32.117 32.0356 31.5328 31.9962 30.7971L31.8488 28.0471L32.8478 27.9934L32.9943 30.7434C33.0072 30.987 33.1896 31.182 33.4357 31.2132L33.7951 31.2512L34.2775 31.2796C34.5171 31.2876 34.7231 31.1368 34.7843 30.9094L34.7853 30.9085L35.5568 28.0784C35.6475 27.7373 35.3731 27.428 35.0353 27.4671L35.007 27.47H33.3468C33.0588 27.4702 32.8331 27.7105 32.8478 27.9934L32.3478 28.0198L31.8488 28.0471C31.8037 27.1904 32.4873 26.4702 33.3468 26.47H34.9787ZM34.2296 32.2796H34.2209L34.2511 31.7796L34.2296 32.2796Z" fill="#DD940E"/>
<path d="M34.2234 36.7859C34.6572 36.2098 35.4461 36.0126 36.0993 36.3445L38.5554 37.5945C39.3199 37.9834 39.6038 38.939 39.1745 39.6785L38.3591 41.0994C37.9175 42.0085 36.6915 42.2327 35.9636 41.49V41.489L33.8952 39.4128L33.8913 39.4089C33.4015 38.9057 33.3148 38.1278 33.7009 37.5369L33.9695 37.1199L33.9802 37.1023L33.9929 37.0857L34.3894 37.3904L34.3933 37.3923L33.9929 37.0857L34.2234 36.7859ZM35.0163 37.3943L34.8025 37.6736L34.5408 38.0808L34.5388 38.0837C34.4153 38.2727 34.4362 38.5351 34.6081 38.7117L36.6755 40.7869L36.6784 40.7898L36.7243 40.8318C36.9676 41.0242 37.3384 40.9392 37.4685 40.6472L37.4792 40.6238L37.4919 40.6013L38.3083 39.1814L38.3103 39.1785C38.4504 38.9384 38.3585 38.6167 38.1023 38.4861L35.6462 37.2361C35.4355 37.129 35.1693 37.1896 35.0202 37.3894L35.0163 37.3943L34.6365 37.1023L34.614 37.0857L35.0163 37.3943Z" fill="#DD940E"/>
<path d="M12.6087 34.0769C12.8662 33.4223 13.5439 33.0296 14.2435 33.1472L14.2445 33.1462L17.1449 33.6169C18.1654 33.7801 18.7015 34.902 18.2122 35.7966L17.5384 37.2771C17.1839 38.0548 16.2471 38.3855 15.4837 37.9949L15.4798 37.9929L15.681 37.6081L15.7132 37.5476L15.4798 37.9929L13.0404 36.7146C12.3878 36.3812 12.0811 35.6277 12.2992 34.9304L12.3011 34.9265L12.4173 34.5671L12.4222 34.5515L12.4271 34.5368L12.8929 34.7204L12.8968 34.7214L12.4271 34.5368L12.6087 34.0769ZM14.0794 34.1326C13.8818 34.0987 13.6837 34.191 13.5785 34.364L13.5394 34.4431L13.3675 34.8777L13.2533 35.2283L13.2542 35.2292C13.1784 35.4718 13.2863 35.7182 13.4954 35.8249L13.4993 35.8269L15.9398 37.1052L16.0365 37.1423C16.2681 37.2047 16.5245 37.0925 16.6292 36.863L17.3031 35.3826L17.7552 35.5886L17.7523 35.5867L17.3031 35.3826L17.3138 35.3581L17.3275 35.3347C17.5044 35.0365 17.325 34.6582 16.9876 34.6042L16.9867 34.6033L14.0853 34.1335L14.18 33.5466L14.0794 34.1326ZM14.0853 34.1335L14.0794 34.1326L14.1644 33.6404L14.0853 34.1335Z" fill="#DD940E"/>
<path d="M26.7184 38.039C27.3582 37.9281 28.0051 38.2405 28.3072 38.8319L28.5338 39.2714L28.5416 39.286L28.5484 39.3017L28.6988 39.6523L28.6998 39.6542C28.9851 40.3265 28.7505 41.104 28.1422 41.5067L27.8297 41.0341L27.8658 41.0898L28.1422 41.5067L28.1383 41.5087L25.8307 43.0087L25.8287 43.0107L25.5582 42.5898L25.4674 42.4501L25.8287 43.0107C25.111 43.473 24.1442 43.2509 23.7125 42.4989V42.498L22.8981 41.0898L22.899 41.0888C22.3232 40.2458 22.7525 39.0828 23.7457 38.8173L23.7477 38.8163L23.8746 39.2997L23.9137 39.4462L23.7477 38.8163L26.5904 38.0663L26.7184 38.039ZM27.4176 39.287C27.3115 39.0789 27.0751 38.9725 26.8453 39.0331L24.0025 39.7821L24.0035 39.7831C23.6676 39.8731 23.5314 40.2691 23.733 40.5429L23.7496 40.5653L23.7643 40.5898L23.3307 40.8398L23.3287 40.8407L23.7643 40.5898L24.5787 41.9999L24.5797 42.0009C24.7041 42.2176 24.9651 42.3046 25.192 42.2177L25.2867 42.1698L27.5934 40.6708C27.7976 40.5334 27.8753 40.2736 27.7809 40.0478L27.6334 39.7089L27.4186 39.288L27.4176 39.287L27.7857 39.0995L27.944 39.0185L27.4176 39.287Z" fill="#DD940E"/>
<path d="M24.2577 30.026C25.0244 29.6223 25.9605 29.9566 26.3144 30.733L26.3153 30.734L27.4521 33.2418C27.756 33.907 27.5311 34.6856 26.9374 35.1002L26.9267 35.107L26.6591 34.7027L26.6503 34.69L26.9267 35.107L26.6103 35.317L26.5985 35.3248L26.5859 35.3316L26.1591 35.5797L26.1601 35.5806C25.5558 35.9377 24.7777 35.836 24.2948 35.3062L22.3046 33.149C21.6054 32.3935 21.8718 31.1764 22.8105 30.776L24.2577 30.026ZM24.7177 30.9137L23.2714 31.6637L23.04 31.2183L23.0409 31.2203L23.2714 31.6637L23.246 31.6764L23.2206 31.6871C22.921 31.8023 22.8185 32.1693 22.998 32.4215L23.038 32.4703V32.4713L25.0321 34.6305L24.664 34.9703L24.6962 34.94L25.0321 34.6305L25.0341 34.6334L25.0966 34.691C25.252 34.8109 25.4695 34.8268 25.6513 34.7193L25.6532 34.7183L26.0624 34.4791L26.3642 34.2799C26.5724 34.1345 26.641 33.8725 26.5429 33.6578V33.6568L25.4042 31.1461V31.1451C25.284 30.8845 24.9724 30.7794 24.7226 30.9117L24.4667 30.4293L24.7177 30.9137ZM24.7226 30.9117L24.7177 30.9137L24.4882 30.4703L24.7226 30.9117Z" fill="#DD940E"/>
<path fill-rule="evenodd" clip-rule="evenodd" d="M32.5538 45.4087C32.8732 45.145 33.3459 45.1902 33.6096 45.5096C34.3741 46.4355 35.7824 46.4696 36.5905 45.5816L36.6805 45.4826C36.9592 45.1761 37.4335 45.1535 37.74 45.4321C38.0465 45.7108 38.0691 46.1851 37.7905 46.4916L37.7005 46.5906C36.2776 48.1544 33.7987 48.0946 32.4529 46.4646C32.1892 46.1452 32.2343 45.6725 32.5538 45.4087Z" fill="#1A1A1A"/>
<path d="M39.0155 42.9946C39.5761 42.9946 40.0305 43.4311 40.0305 43.9696C40.0305 44.5081 39.5761 44.9446 39.0155 44.9446C38.4549 44.9446 38.0005 44.5081 38.0005 43.9696C38.0005 43.4312 38.4549 42.9946 39.0155 42.9946Z" fill="#1A1A1A"/>
<path d="M31.0155 42.9946C30.4549 42.9946 30.0005 43.4311 30.0005 43.9696C30.0005 44.5081 30.4549 44.9446 31.0155 44.9446C31.5761 44.9446 32.0305 44.5081 32.0305 43.9696C32.0305 43.4312 31.5761 42.9946 31.0155 42.9946Z" fill="#1A1A1A"/>
</svg>
