<svg width="48" height="55" viewBox="0 0 48 55" fill="none" xmlns="http://www.w3.org/2000/svg">
<path d="M28.478 17.5698C32.607 17.5698 35.954 20.9199 35.954 25.0499C35.954 26.9699 35.228 28.7199 34.035 30.0499C35.228 31.3699 35.954 33.1299 35.954 35.0499L35.944 35.4299C35.75 39.2599 32.685 42.3199 28.862 42.5199L28.478 42.5299C27.592 42.5299 26.743 42.3698 25.954 42.0898V46.0499C25.954 50.0499 22.813 53.3199 18.862 53.5199L18.478 53.5299C14.478 53.5299 11.21 50.3799 11.01 46.4299L11 46.0499C11 43.8699 11.93 41.9099 13.414 40.5499C12.019 39.2599 11.112 37.4499 11.01 35.4299L11 35.0499C11 33.1299 11.727 31.3699 12.92 30.0499C11.807 28.8099 11.1 27.1999 11.01 25.4299L11 25.0499C11 20.9199 14.348 17.5698 18.478 17.5698H28.478Z" fill="white"/>
<path d="M35.2041 25.0503C35.2041 21.334 32.1919 18.3198 28.4775 18.3198H18.4775C14.7657 18.3201 11.7556 21.3284 11.75 25.0396L11.7588 25.4019C11.8367 26.8901 12.4004 28.2523 13.2949 29.3354L13.4785 29.5493L13.5625 29.6626C13.7305 29.9408 13.7018 30.304 13.4766 30.5532C12.4062 31.7376 11.7526 33.3156 11.75 35.0396L11.7588 35.4019C11.8529 37.2134 12.6674 38.8385 13.9229 39.9995C14.0767 40.1418 14.1644 40.3417 14.1641 40.5513C14.1636 40.7609 14.0755 40.9614 13.9209 41.103L13.6768 41.3384C12.4873 42.5447 11.7528 44.204 11.75 46.0396L11.7588 46.4019C11.9435 49.9476 14.8776 52.7729 18.4668 52.7788L18.834 52.77C22.3828 52.5852 25.2039 49.6458 25.2041 46.0503V42.0903C25.2041 41.8467 25.3225 41.6176 25.5215 41.4771C25.7205 41.3366 25.9755 41.3018 26.2051 41.3833C26.9155 41.6354 27.676 41.7775 28.4668 41.7788L28.832 41.77C32.2645 41.5858 35.0152 38.8393 35.1943 35.4019L35.2031 35.0396C35.2005 33.3154 34.5487 31.7374 33.4785 30.5532C33.2212 30.2685 33.2204 29.8351 33.4766 29.5493L34.0352 30.0503V30.0493L33.4766 29.5493C34.5518 28.3507 35.204 26.7769 35.2041 25.0503ZM36.7041 25.0503C36.704 26.9297 36.0699 28.6603 35.0078 30.0483C36.0713 31.4328 36.7041 33.1726 36.7041 35.0503C36.7041 35.0567 36.7043 35.0634 36.7041 35.0698L36.6934 35.4497V35.4683C36.4797 39.6828 33.1071 43.0489 28.9014 43.269C28.8949 43.2694 28.8883 43.2698 28.8818 43.27L28.4971 43.2798C28.4907 43.2799 28.4839 43.2798 28.4775 43.2798C27.8674 43.2798 27.2741 43.2109 26.7041 43.0845V46.0503C26.7039 50.451 23.2485 54.0487 18.9004 54.269C18.8944 54.2693 18.8879 54.2699 18.8818 54.27L18.4971 54.2798C18.4907 54.2799 18.4839 54.2798 18.4775 54.2798C14.0755 54.2795 10.481 50.8139 10.2607 46.4683V46.4497L10.25 46.0698V46.0503C10.25 43.9325 11.0494 42.0018 12.3613 40.5483C11.2263 39.2839 10.4725 37.6676 10.292 35.8823L10.2607 35.4673V35.4497L10.25 35.0698V35.0503C10.25 33.1726 10.8829 31.4326 11.9463 30.0483C10.9643 28.7648 10.3481 27.1854 10.2607 25.4683V25.4497L10.25 25.0698V25.0503C10.25 20.5065 13.9333 16.8201 18.4775 16.8198H28.4775C33.0212 16.8198 36.7041 20.5066 36.7041 25.0503Z" fill="#1A1A1A"/>
<path d="M14 25.0499C14 22.5799 16.004 20.5698 18.477 20.5698H21.954C22.507 20.5698 22.954 21.0198 22.954 21.5698V28.5299C22.954 29.0799 22.507 29.5299 21.954 29.5299H18.477C16.004 29.5299 14 27.5199 14 25.0499Z" fill="#FAB815"/>
<path d="M24 21.5698C24 21.0198 24.448 20.5698 25 20.5698H28.477C30.95 20.5698 32.954 22.5799 32.954 25.0499C32.954 27.5199 30.95 29.5299 28.477 29.5299H25C24.448 29.5299 24 29.0799 24 28.5299V21.5698Z" fill="#FFE8A3"/>
<path d="M14 35.0499C14 32.5799 16.004 30.5698 18.477 30.5698H21.954C22.507 30.5698 22.954 31.0198 22.954 31.5698V38.5299C22.954 39.0799 22.507 39.5299 21.954 39.5299H18.477C16.004 39.5299 14 37.5199 14 35.0499Z" fill="#FFCD29"/>
<path d="M32.9542 35.047C32.9542 32.5744 30.9498 30.5698 28.4771 30.5698C26.0045 30.5698 24 32.5744 24 35.047C24 37.5196 26.0045 39.5242 28.4771 39.5242C30.9498 39.5242 32.9542 37.5196 32.9542 35.047Z" fill="#FFD966"/>
<path d="M14 46.0499C14 43.5799 16.004 41.5698 18.477 41.5698H21.954C22.507 41.5698 22.954 42.0198 22.954 42.5698V46.0499C22.954 48.5199 20.95 50.5299 18.477 50.5299C16.004 50.5299 14 48.5199 14 46.0499Z" fill="#FFD966"/>
<path d="M29.3242 24.9995C30.6074 24.9996 31.6482 26.0437 31.6484 27.3198C31.6484 27.6357 31.5839 27.9807 31.376 28.2954L31.373 28.2993C31.2208 28.5243 31.0277 28.6757 30.8359 28.7798C31.1896 29.4813 31.0876 30.3473 30.5518 30.9517L30.4023 31.1196H30.377L30.248 31.2378L29.9102 30.8696L30.2471 31.2388C27.7892 33.4839 24.0199 33.4736 21.5762 31.2065V31.2056C20.9512 30.6267 20.7912 29.7302 21.123 28.9927C21.065 28.9714 21.0075 28.9474 20.9512 28.9204L20.9355 28.9126L20.748 28.8013C20.5928 28.6971 20.442 28.5627 20.3164 28.3862L20.2441 28.2749L20.2422 28.272L20.6738 28.02L20.7061 27.9995L20.2422 28.272C20.0648 27.9688 20 27.6366 20 27.3198C20.0002 26.0437 21.0408 24.9995 22.3242 24.9995C23.6074 24.9996 24.6482 26.0437 24.6484 27.3198C24.6484 27.6367 24.5828 27.9687 24.4053 28.272L24.4043 28.2749L24.332 28.3862C24.321 28.4018 24.3083 28.4163 24.2969 28.4312L24.3994 28.5171C25.3004 29.1997 26.5544 29.2016 27.4541 28.5142C27.4224 28.4824 27.3901 28.4496 27.3604 28.4136L27.2744 28.2993L27.2715 28.2954C27.0636 27.9807 27 27.6357 27 27.3198C27.0002 26.0437 28.0408 24.9995 29.3242 24.9995ZM28.3008 29.1089C26.949 30.3448 24.878 30.3315 23.5361 29.0972H23.5352L23.4609 29.0347C23.454 29.0294 23.4465 29.025 23.4395 29.02C23.0405 29.1475 22.6224 29.1597 22.3242 29.1597C22.2837 29.1597 22.2409 29.1574 22.1963 29.1567L22.1406 29.2241C21.856 29.5994 21.8973 30.1402 22.2559 30.4722L22.0273 30.7192L21.917 30.8394L22.2568 30.4731C24.2543 32.326 27.3008 32.3926 29.375 30.6724L29.5723 30.5005L29.7354 30.3511L29.7422 30.3452L29.7812 30.3042L29.9219 30.1196C30.1162 29.7711 30.0772 29.3259 29.7988 29.02H28.7686L28.7539 29.019C28.6547 29.0134 28.5478 29.0014 28.4375 28.9829L28.3008 29.1089ZM30.1699 30.7788L30.0957 30.6997L30.1699 30.771L30.0908 30.6948L30.1699 30.7788ZM22.3242 25.9995C21.5928 25.9995 21.0002 26.5963 21 27.3198C21 27.5011 21.0373 27.6481 21.1045 27.7642L21.1592 27.8423C21.2183 27.913 21.295 27.971 21.3906 28.022C21.5259 28.0853 21.6896 28.1191 21.8711 28.1382C22.3354 27.8483 22.8956 27.7749 23.4111 27.9175C23.4644 27.8724 23.5092 27.8227 23.5439 27.7642C23.6111 27.6481 23.6484 27.5011 23.6484 27.3198C23.6482 26.5963 23.0555 25.9996 22.3242 25.9995ZM29.3242 25.9995C28.5928 25.9995 28.0002 26.5963 28 27.3198C28 27.5024 28.0369 27.637 28.1055 27.7417C28.1505 27.8073 28.2103 27.8571 28.2822 27.897C28.8628 27.6249 29.5435 27.6579 30.0938 27.9849C30.1496 27.9739 30.2053 27.9632 30.2578 27.9468C30.3805 27.9021 30.476 27.8377 30.542 27.7417C30.6107 27.6369 30.6484 27.5026 30.6484 27.3198C30.6482 26.5963 30.0555 25.9996 29.3242 25.9995Z" fill="white"/>
<path d="M28.3786 28.9824C28.7392 28.6351 29.3248 28.6339 29.6867 28.9794C30.0483 29.325 30.049 29.887 29.6886 30.2344L29.5396 30.3782L29.5372 30.3794L28.8846 29.7522L28.8104 29.6814L29.5372 30.3794C27.4866 32.3435 24.1538 32.3034 22.1598 30.2892C21.8082 29.934 21.8235 29.3715 22.1941 29.0338C22.5646 28.696 23.1509 28.7102 23.5025 29.0654C24.7808 30.3567 26.9164 30.3828 28.2308 29.1239L28.2308 29.125L28.3786 28.9824Z" fill="#1A1A1A"/>
<path d="M29.3246 25.9937C30.0743 25.9937 30.6819 26.6351 30.6819 27.413C30.6819 27.6096 30.6433 27.7538 30.5728 27.8665C30.5051 27.9697 30.4073 28.0389 30.2815 28.087C30.1449 28.1316 29.992 28.1572 29.8501 28.1657H28.7981C28.656 28.1572 28.5034 28.1318 28.3667 28.087C28.241 28.0389 28.143 27.9697 28.0754 27.8665C28.005 27.7539 27.9673 27.6093 27.9673 27.413C27.9673 26.635 28.5748 25.9937 29.3246 25.9937Z" fill="#1A1A1A"/>
<path d="M22.3248 25.9937C21.5752 25.9937 20.9675 26.6351 20.9675 27.413C20.9675 27.6096 21.0061 27.7538 21.0766 27.8665C21.1443 27.9697 21.2421 28.0389 21.3679 28.087C21.5045 28.1316 21.6574 28.1572 21.7993 28.1657H22.8513C22.9934 28.1572 23.146 28.1318 23.2827 28.087C23.4084 28.0389 23.5064 27.9697 23.574 27.8665C23.6444 27.7539 23.6821 27.6093 23.6821 27.413C23.6821 26.635 23.0746 25.9937 22.3248 25.9937Z" fill="#1A1A1A"/>
</svg>
