<svg width="48" height="55" viewBox="0 0 48 55" fill="none" xmlns="http://www.w3.org/2000/svg">
<path d="M13.6317 7.95286C17.7146 11.8619 17.4197 17.2449 16.7621 21.8539C16.6304 22.7769 15.679 23.5529 14.7467 23.5509C13.5283 23.5479 12.9711 22.4248 13.0402 21.2088C13.1269 19.6808 13.1079 18.0249 13.0749 16.4999C12.837 12.6029 12.4376 11.1899 11.9658 10.6069C11.4155 9.92785 10.3104 9.76987 9.52551 10.1559C8.73104 10.5459 8.50566 11.4669 8.56186 12.1059C8.5708 12.2079 8.60782 12.3089 8.65328 12.4009C11.4194 17.9619 5.57194 18.1709 4.1999 16.0799C2.76037 14.2749 4.3774 12.7389 5.59757 12.0619C6.03767 11.8169 6.35295 11.3429 6.34751 10.8399C6.32098 8.38589 7.5277 7.17184 8.89072 6.63884C10.5301 5.99884 12.3605 6.73486 13.6317 7.95286Z" fill="#B3EE71"/>
<path d="M8.61824 5.93983C10.6367 5.15199 12.7662 6.0856 14.1495 7.41053C18.5302 11.6046 18.1618 17.3553 17.505 21.9594C17.4079 22.6394 17.0191 23.222 16.5352 23.6254C16.1118 23.9784 15.5709 24.2316 14.9942 24.2885L14.7452 24.3012L14.5831 24.2953C13.785 24.2449 13.1701 23.8366 12.7833 23.2445C12.3902 22.6429 12.2501 21.8876 12.2911 21.1664C12.3754 19.6797 12.3588 18.0603 12.3262 16.5453C12.2081 14.6108 12.052 13.3242 11.8741 12.4623C11.6932 11.586 11.5048 11.2292 11.3829 11.0785L11.9659 10.6068L12.5489 10.1342C12.8987 10.5665 13.1467 11.2086 13.3428 12.1586C13.5171 13.0025 13.6625 14.1559 13.7764 15.7455L13.8253 16.4838C13.8583 18.0103 13.8776 19.6917 13.7891 21.2514C13.761 21.7458 13.8655 22.1597 14.0382 22.4242C14.1914 22.6588 14.407 22.7992 14.7481 22.8002C15.0114 22.8007 15.3165 22.6878 15.5743 22.473C15.8321 22.2581 15.9849 21.9903 16.0196 21.7474C16.6573 17.2778 16.8837 12.4313 13.4561 8.83826L13.1134 8.49451L12.8917 8.29334C11.7638 7.32075 10.3443 6.87521 9.16316 7.33631C8.59238 7.55958 8.08278 7.91458 7.71491 8.44569C7.34882 8.97435 7.08589 9.733 7.09773 10.8314C7.10657 11.6488 6.60598 12.3587 5.96198 12.7172L5.75495 12.8392C5.27416 13.1395 4.80632 13.5528 4.56062 14.0053C4.42709 14.2513 4.36834 14.4908 4.38679 14.7279C4.40514 14.9627 4.50405 15.2578 4.7862 15.6117L4.19343 16.0834L4.82722 15.6683C5.03919 15.9913 5.47699 16.2884 6.05866 16.4447C6.63361 16.5992 7.24295 16.5854 7.71394 16.4076C8.15992 16.2391 8.47179 15.934 8.58699 15.4437C8.71148 14.9133 8.63346 14.0454 7.98152 12.7347L7.98054 12.7328L8.65339 12.4008L8.78132 12.3373L7.98054 12.7328C7.93065 12.6318 7.87386 12.4963 7.83991 12.3373L7.81452 12.1713C7.74517 11.3819 8.00287 10.0682 9.19441 9.4828L9.39558 9.39491C10.4242 8.99396 11.7925 9.20087 12.5489 10.1342L11.3829 11.0785C11.0889 10.7164 10.3817 10.5703 9.85652 10.8285L9.78425 10.8695C9.43964 11.0876 9.27178 11.5725 9.30769 12.0267C9.31012 12.034 9.31476 12.0473 9.32429 12.0668C10.0552 13.5363 10.2846 14.78 10.0479 15.7875C9.80181 16.8348 9.08459 17.4943 8.24324 17.8119C7.42677 18.12 6.48973 18.1135 5.66902 17.893C4.86847 17.6778 4.07571 17.2277 3.5987 16.5258C3.17185 15.9838 2.93643 15.4186 2.89167 14.8441C2.84659 14.2646 2.99905 13.7386 3.24226 13.2904C3.7151 12.4193 4.56233 11.778 5.23347 11.4056C5.46909 11.2741 5.5997 11.0364 5.59773 10.848C5.58307 9.49269 5.91024 8.41722 6.48152 7.59217C7.05105 6.76974 7.82622 6.24954 8.61824 5.93983ZM4.80769 15.639L4.82722 15.6683L4.20027 16.0795L4.7862 15.6117L4.80769 15.639Z" fill="#1A1A1A"/>
<path d="M6.22689 15.7689C7.20688 15.0669 7.36843 14.4109 7.39544 13.8309C7.40362 13.6549 7.60735 13.5709 7.72049 13.7059C8.98508 15.2109 8.17436 16.4569 6.2901 16.1259C6.11766 16.0959 6.08452 15.8709 6.22689 15.7689Z" fill="#78B136"/>
</svg>
