<svg width="48" height="55" viewBox="0 0 48 55" fill="none" xmlns="http://www.w3.org/2000/svg">
<path d="M21.3644 6.66721C17.5915 6.05721 8.96797 6.66722 5.19514 16.4242L3.06104 25.4362C4.67797 24.2172 8.42895 23.7422 11.6627 23.7422C22.4423 23.7422 25.7658 25.5712 28.91 25.5712C33.7608 13.3752 25.1372 7.27621 21.3644 6.66721Z" fill="#007BE5" stroke="#1A1A1A" stroke-width="1.5" stroke-linejoin="round"/>
<path fill-rule="evenodd" clip-rule="evenodd" d="M24.8413 24.5288C24.7827 24.6836 24.7208 24.8377 24.6558 24.9907L23.7349 24.6001C23.7947 24.4593 23.8518 24.3169 23.9058 24.1743L24.8413 24.5288ZM17.1899 23.1265C17.175 23.2893 17.1611 23.4527 17.1479 23.6157L16.1519 23.5356C16.1653 23.3688 16.1796 23.2013 16.1948 23.0347L17.1899 23.1265ZM25.3999 22.6255C25.3305 22.9479 25.2498 23.2685 25.1567 23.5864L24.1968 23.3062C24.2828 23.0122 24.3579 22.7141 24.4224 22.4146L25.3999 22.6255ZM8.64697 22.5308C8.62991 22.6885 8.61479 22.8469 8.60205 23.0054L7.60498 22.9253C7.61845 22.7577 7.63479 22.5902 7.65283 22.4233L8.64697 22.5308ZM17.4116 21.1733C17.3679 21.4973 17.3275 21.823 17.2905 22.1489L16.2974 22.0356C16.3351 21.7027 16.3758 21.3703 16.4204 21.0396L17.4116 21.1733ZM25.6851 20.6714C25.6585 20.9989 25.6219 21.3262 25.5747 21.6519L24.5854 21.5083C24.6295 21.2042 24.6631 20.8978 24.688 20.5903L25.6851 20.6714ZM8.95654 20.6489C8.88761 20.9591 8.82755 21.2716 8.77588 21.5854L7.78955 21.4233C7.84423 21.0912 7.908 20.7604 7.98096 20.4321L8.95654 20.6489ZM17.7144 19.231C17.6575 19.5524 17.6039 19.876 17.5532 20.2007L16.5649 20.0464C16.6167 19.7148 16.6719 19.3842 16.73 19.0562L17.7144 19.231ZM9.47314 18.813C9.37017 19.1143 9.27592 19.4184 9.18994 19.7241L8.22705 19.4536C8.31803 19.1301 8.41792 18.8085 8.52686 18.4897L9.47314 18.813ZM25.731 18.7056C25.7412 19.0325 25.7432 19.3605 25.7358 19.688L24.7358 19.6655C24.7428 19.3567 24.7407 19.0466 24.731 18.7368L25.731 18.7056ZM18.0972 17.3013C18.0274 17.6196 17.96 17.941 17.896 18.2642L16.9155 18.0698C16.9808 17.7401 17.0485 17.4122 17.1196 17.0874L18.0972 17.3013ZM10.188 17.0444C10.0526 17.3335 9.92503 17.6252 9.80615 17.9194L8.87939 17.5444C9.00494 17.2338 9.13886 16.9256 9.28174 16.6206L10.188 17.0444ZM25.5737 16.7534C25.6149 17.0762 25.6489 17.4015 25.6753 17.7271L24.6782 17.8081C24.6531 17.4984 24.6208 17.1886 24.5815 16.8804L25.5737 16.7534ZM18.5562 15.3901C18.4737 15.7047 18.394 16.0232 18.3169 16.3442L17.3442 16.1099C17.423 15.7821 17.5051 15.4575 17.5894 15.1362L18.5562 15.3901ZM11.0884 15.3608C10.9229 15.6347 10.7653 15.9114 10.6157 16.1909L9.73389 15.7192C9.89173 15.4242 10.0575 15.1319 10.2319 14.8433L11.0884 15.3608ZM25.2456 14.8296C25.3126 15.146 25.3743 15.466 25.4292 15.7876L24.4438 15.9565C24.3912 15.6485 24.3324 15.3416 24.2681 15.0376L25.2456 14.8296ZM12.1587 13.7769C11.966 14.0332 11.7806 14.2926 11.603 14.5552L10.7749 13.9956C10.9619 13.7191 11.1573 13.4459 11.3599 13.1763L12.1587 13.7769ZM19.0942 13.4995C18.9988 13.8091 18.9065 14.1238 18.8159 14.4419L17.854 14.1675C17.9465 13.8427 18.0417 13.5219 18.1392 13.2056L19.0942 13.4995ZM24.7729 12.9419C24.862 13.2509 24.9474 13.5645 25.0269 13.8813L24.0562 14.1245C23.9796 13.8193 23.898 13.5165 23.812 13.2183L24.7729 12.9419ZM13.3823 12.3032C13.1654 12.5406 12.9551 12.7819 12.7524 13.0259L11.9829 12.3872C12.1957 12.131 12.4166 11.8783 12.644 11.6294L13.3823 12.3032ZM19.7153 11.6362C19.6061 11.9399 19.4989 12.2501 19.394 12.5649L18.4458 12.2485C18.5531 11.9264 18.663 11.6095 18.7749 11.2983L19.7153 11.6362ZM24.1733 11.0933C24.2816 11.3937 24.3876 11.7006 24.4888 12.0122L23.5376 12.3208C23.4398 12.0196 23.3377 11.7228 23.2329 11.4321L24.1733 11.0933ZM14.7388 10.9478C14.5007 11.1652 14.2691 11.3865 14.0444 11.6108L13.3384 10.9038C13.5737 10.6689 13.816 10.4368 14.0649 10.2095L14.7388 10.9478ZM20.4263 9.81006C20.3021 10.1052 20.1795 10.4083 20.0591 10.7183L19.1265 10.356C19.2502 10.0376 19.3765 9.72535 19.5044 9.42139L20.4263 9.81006ZM23.8296 10.1841L22.8999 10.5522C22.7824 10.2555 22.6621 9.96528 22.5405 9.68408L23.4585 9.2876C23.584 9.57807 23.7082 9.87759 23.8296 10.1841ZM16.2104 9.71533C15.9545 9.91215 15.7049 10.113 15.4614 10.3169L14.8188 9.55029C15.0731 9.33732 15.3342 9.12763 15.6011 8.92236L16.2104 9.71533ZM17.7798 8.60498C17.509 8.78116 17.2432 8.96069 16.9839 9.14404L16.4067 8.32764C16.6768 8.13666 16.9532 7.94936 17.2349 7.76611L17.7798 8.60498ZM21.2407 8.03369C21.099 8.31675 20.9577 8.61103 20.8188 8.91455L19.9097 8.49756C20.0531 8.1841 20.199 7.88027 20.3462 7.58643L21.2407 8.03369ZM22.6313 7.52979C22.7737 7.80842 22.9177 8.0999 23.0601 8.40283L22.1548 8.82861C22.0171 8.53571 21.879 8.25362 21.7417 7.98486L22.6313 7.52979ZM19.4331 7.61475C19.1493 7.771 18.8703 7.93076 18.5972 8.09424L18.0835 7.23682C18.367 7.06712 18.6565 6.90075 18.9507 6.73877L19.4331 7.61475ZM22.1733 6.67041L21.8882 6.82861C21.8229 6.94114 21.7578 7.05605 21.6929 7.17334L21.481 7.05615L21.3003 7.15771C21.2438 7.05635 21.186 6.95794 21.1304 6.86182L20.8179 6.68896C20.9011 6.53859 20.9848 6.39121 21.0688 6.24756L21.5005 6.50049L21.9321 6.24756C22.0116 6.38335 22.0922 6.52493 22.1733 6.67041ZM20.7183 6.95068C20.5728 7.02121 20.4286 7.0932 20.2856 7.16553L19.8335 6.27295C19.9817 6.19797 20.1321 6.12335 20.2827 6.05029L20.7183 6.95068Z" fill="#80CAFF"/>
<path fill-rule="evenodd" clip-rule="evenodd" d="M21.2022 3.73257L22.5713 3.91909C23.5111 4.04698 24.192 4.91538 24.0918 5.85854C24.0581 6.17502 23.9385 6.45789 23.7617 6.69155C25.5513 7.55991 27.5454 9.11652 29.001 11.3673C31.1641 14.7125 32.115 19.544 29.6075 25.8488L29.5576 25.9513C29.4246 26.1783 29.1788 26.3213 28.9102 26.3214C28.0475 26.3214 26.9856 26.156 25.7979 25.9376C24.5808 25.7139 23.2295 25.4346 21.6758 25.1681C18.5959 24.6398 14.8658 24.1923 10.6377 24.4914C9.54987 24.5682 8.10487 24.6561 6.72952 24.8732C5.31922 25.0959 4.13936 25.4339 3.4932 25.921L3.39456 25.9835C3.15554 26.111 2.86152 26.1002 2.62991 25.9484C2.36555 25.7745 2.23927 25.4532 2.31351 25.1457L4.46585 16.2482C4.47356 16.2164 4.48432 16.185 4.49612 16.1544C6.45839 11.0798 9.70875 8.33919 12.9903 6.96694C15.2528 6.02094 17.5107 5.7319 19.3467 5.7521C19.3098 5.5774 19.2988 5.39475 19.3184 5.20913C19.4187 4.26614 20.2625 3.60492 21.2022 3.73257ZM21.2451 7.40835C19.4652 7.12055 16.5124 7.12021 13.5694 8.35073C10.6615 9.56664 7.72302 11.9986 5.91116 16.6535L4.14652 23.9416C4.88576 23.6875 5.70628 23.5165 6.49612 23.3917C7.9498 23.1622 9.4687 23.0694 10.5323 22.9943C14.9273 22.6835 18.7883 23.151 21.9287 23.6896C23.4847 23.9565 24.9025 24.2487 26.0684 24.463C26.9972 24.6338 27.7712 24.7549 28.4024 24.8009C30.5018 19.1622 29.5671 15.0056 27.7412 12.1818C25.8279 9.22329 22.9084 7.67712 21.2451 7.40835Z" fill="#1A1A1A"/>
<path d="M4.34742 15.7042C1.03187 17.3352 0.0178151 20.4933 3.01692 25.5603C4.34742 24.9503 8.16892 23.8983 11.1016 23.7313C15.1915 23.4973 17.5693 23.7313 22.42 24.3413C19.1128 14.3693 7.66297 14.0722 4.34742 15.7042Z" fill="#034AC1"/>
<path d="M8.08349 14.2133C9.74904 14.1653 11.6755 14.3699 13.604 14.9535C17.4727 16.1243 21.3855 18.8378 23.1323 24.1049C23.2134 24.3493 23.163 24.6188 22.9995 24.8178C22.8361 25.0165 22.5819 25.1174 22.3267 25.0853L22.4204 24.3412H22.4194L22.3267 25.0853C17.4896 24.4771 15.165 24.2498 11.144 24.4799C9.73896 24.5599 8.09838 24.8544 6.63525 25.2084C5.16357 25.5645 3.92976 25.9665 3.32959 26.2416C2.98061 26.4016 2.56713 26.2722 2.37158 25.9418C0.829644 23.3366 0.236949 21.0906 0.575682 19.2103C0.922071 17.2881 2.20771 15.9213 4.01611 15.0316C4.97771 14.5583 6.43401 14.2608 8.08349 14.2133ZM8.12646 15.7123C6.59328 15.7565 5.37438 16.0347 4.67822 16.3773C3.17153 17.1186 2.29202 18.146 2.05224 19.4769C1.8241 20.7439 2.14864 22.43 3.34424 24.6166C4.10174 24.3362 5.14571 24.0253 6.28174 23.7504C7.79498 23.3842 9.53168 23.0698 11.0591 22.9828C14.8493 22.766 17.2048 22.9469 21.2749 23.4437C19.5647 19.4774 16.3872 17.3628 13.1694 16.3891C11.4078 15.856 9.64353 15.6686 8.12646 15.7123Z" fill="#1A1A1A"/>
</svg>
