<svg width="48" height="55" viewBox="0 0 48 55" fill="none" xmlns="http://www.w3.org/2000/svg">
<path d="M20.881 7.18576C17.1081 6.57576 8.48457 7.18578 4.71174 16.9428L2.57764 25.9547C4.19457 24.7357 7.94555 24.2608 11.1793 24.2608C21.9589 24.2608 25.2824 26.0898 28.4266 26.0898C33.2774 13.8938 24.6538 7.79476 20.881 7.18576Z" fill="#757575"/>
<path fill-rule="evenodd" clip-rule="evenodd" d="M24.3579 25.0474C24.2993 25.2021 24.2374 25.3562 24.1724 25.5093L23.2515 25.1187C23.3113 24.9779 23.3684 24.8354 23.4224 24.6929L24.3579 25.0474ZM16.7065 23.645C16.6916 23.8078 16.6777 23.9712 16.6646 24.1343L15.6685 24.0542C15.6819 23.8873 15.6962 23.7198 15.7114 23.5532L16.7065 23.645ZM24.9165 23.144C24.8471 23.4664 24.7664 23.7871 24.6733 24.105L23.7134 23.8247C23.7994 23.5307 23.8745 23.2327 23.939 22.9331L24.9165 23.144ZM8.16357 23.0493C8.14651 23.2071 8.13139 23.3654 8.11865 23.5239L7.12158 23.4438C7.13505 23.2762 7.15139 23.1088 7.16943 22.9419L8.16357 23.0493ZM16.9282 21.6919C16.8845 22.0158 16.8441 22.3415 16.8071 22.6675L15.814 22.5542C15.8517 22.2213 15.8924 21.8888 15.937 21.5581L16.9282 21.6919ZM25.2017 21.1899C25.1751 21.5175 25.1385 21.8448 25.0913 22.1704L24.1021 22.0269C24.1461 21.7227 24.1797 21.4164 24.2046 21.1089L25.2017 21.1899ZM8.47314 21.1675C8.40421 21.4777 8.34415 21.7901 8.29248 22.104L7.30615 21.9419C7.36083 21.6097 7.42461 21.279 7.49756 20.9507L8.47314 21.1675ZM17.231 19.7495C17.1741 20.0709 17.1205 20.3945 17.0698 20.7192L16.0815 20.5649C16.1333 20.2334 16.1885 19.9028 16.2466 19.5747L17.231 19.7495ZM8.98975 19.3315C8.88677 19.6328 8.79252 19.937 8.70654 20.2427L7.74365 19.9722C7.83464 19.6486 7.93452 19.327 8.04346 19.0083L8.98975 19.3315ZM25.2476 19.2241C25.2578 19.5511 25.2598 19.8791 25.2524 20.2065L24.2524 20.1841C24.2594 19.8753 24.2573 19.5652 24.2476 19.2554L25.2476 19.2241ZM17.6138 17.8198C17.544 18.1382 17.4766 18.4596 17.4126 18.7827L16.4321 18.5884C16.4974 18.2587 16.5651 17.9308 16.6362 17.606L17.6138 17.8198ZM9.70459 17.563C9.56917 17.8521 9.44164 18.1438 9.32275 18.438L8.396 18.063C8.52154 17.7523 8.65546 17.4442 8.79834 17.1392L9.70459 17.563ZM25.0903 17.272C25.1315 17.5947 25.1655 17.9201 25.1919 18.2456L24.1948 18.3267C24.1697 18.017 24.1374 17.7071 24.0981 17.3989L25.0903 17.272ZM18.0728 15.9087C17.9903 16.2232 17.9106 16.5418 17.8335 16.8628L16.8608 16.6284C16.9396 16.3007 17.0217 15.976 17.106 15.6548L18.0728 15.9087ZM10.605 15.8794C10.4395 16.1532 10.2819 16.4299 10.1323 16.7095L9.25049 16.2378C9.40833 15.9428 9.57412 15.6505 9.74854 15.3618L10.605 15.8794ZM24.7622 15.3481C24.8292 15.6646 24.8909 15.9846 24.9458 16.3062L23.9604 16.4751C23.9078 16.167 23.849 15.8601 23.7847 15.5562L24.7622 15.3481ZM11.6753 14.2954C11.4826 14.5517 11.2972 14.8112 11.1196 15.0737L10.2915 14.5142C10.4785 14.2377 10.6739 13.9644 10.8765 13.6948L11.6753 14.2954ZM18.6108 14.0181C18.5154 14.3276 18.4231 14.6424 18.3325 14.9604L17.3706 14.686C17.4631 14.3613 17.5583 14.0405 17.6558 13.7241L18.6108 14.0181ZM24.2896 13.4604C24.3786 13.7695 24.464 14.0831 24.5435 14.3999L23.5728 14.6431C23.4962 14.3379 23.4146 14.0351 23.3286 13.7368L24.2896 13.4604ZM12.8989 12.8218C12.682 13.0592 12.4717 13.3004 12.269 13.5444L11.4995 12.9058C11.7123 12.6496 11.9332 12.3969 12.1606 12.1479L12.8989 12.8218ZM19.2319 12.1548C19.1227 12.4584 19.0155 12.7687 18.9106 13.0835L17.9624 12.7671C18.0697 12.445 18.1796 12.1281 18.2915 11.8169L19.2319 12.1548ZM23.6899 11.6118C23.7982 11.9123 23.9042 12.2191 24.0054 12.5308L23.0542 12.8394C22.9564 12.5381 22.8543 12.2414 22.7495 11.9507L23.6899 11.6118ZM14.2554 11.4663C14.0173 11.6837 13.7857 11.9051 13.561 12.1294L12.855 11.4224C13.0903 11.1874 13.3326 10.9554 13.5815 10.728L14.2554 11.4663ZM19.9429 10.3286C19.8187 10.6237 19.6961 10.9269 19.5757 11.2368L18.6431 10.8745C18.7668 10.5561 18.8931 10.2439 19.021 9.93994L19.9429 10.3286ZM23.3462 10.7026L22.4165 11.0708C22.299 10.7741 22.1787 10.4838 22.0571 10.2026L22.9751 9.80615C23.1006 10.0966 23.2248 10.3961 23.3462 10.7026ZM15.7271 10.2339C15.4711 10.4307 15.2215 10.6315 14.978 10.8354L14.3354 10.0688C14.5897 9.85588 14.8508 9.64619 15.1177 9.44092L15.7271 10.2339ZM17.2964 9.12354C17.0256 9.29972 16.7598 9.47924 16.5005 9.6626L15.9233 8.84619C16.1934 8.65521 16.4698 8.46791 16.7515 8.28467L17.2964 9.12354ZM20.7573 8.55225C20.6156 8.8353 20.4743 9.12959 20.3354 9.43311L19.4263 9.01611C19.5697 8.70265 19.7156 8.39883 19.8628 8.10498L20.7573 8.55225ZM22.1479 8.04834C22.2903 8.32697 22.4343 8.61845 22.5767 8.92139L21.6714 9.34717C21.5337 9.05427 21.3956 8.77217 21.2583 8.50342L22.1479 8.04834ZM18.9497 8.1333C18.6659 8.28955 18.3869 8.44931 18.1138 8.61279L17.6001 7.75537C17.8836 7.58567 18.1731 7.4193 18.4673 7.25732L18.9497 8.1333ZM21.6899 7.18896L21.4048 7.34717C21.3395 7.45969 21.2744 7.5746 21.2095 7.69189L20.9976 7.57471L20.8169 7.67627C20.7604 7.5749 20.7026 7.47649 20.647 7.38037L20.3345 7.20752C20.4177 7.05714 20.5014 6.90977 20.5854 6.76611L21.0171 7.01904L21.4487 6.76611C21.5282 6.90191 21.6088 7.04348 21.6899 7.18896ZM20.2349 7.46924C20.0894 7.53976 19.9452 7.61175 19.8022 7.68408L19.3501 6.7915C19.4983 6.71653 19.6487 6.6419 19.7993 6.56885L20.2349 7.46924Z" fill="#2C2C2C"/>
<path fill-rule="evenodd" clip-rule="evenodd" d="M20.7193 4.25066L22.0885 4.43718C23.0282 4.5651 23.7091 5.43352 23.609 6.37664C23.5753 6.69335 23.4558 6.97682 23.2789 7.21062C25.0683 8.07901 27.0617 9.63484 28.5172 11.8854C30.6805 15.2306 31.6313 20.0618 29.1236 26.3669L29.0738 26.4694C28.9407 26.6966 28.6952 26.8395 28.4263 26.8395C27.5635 26.8395 26.5019 26.6742 25.314 26.4557C24.0969 26.2319 22.7458 25.9527 21.192 25.6862C18.112 25.1579 14.382 24.7104 10.1539 25.0094C9.06595 25.0863 7.62107 25.1741 6.24569 25.3913C4.8354 25.614 3.65548 25.952 3.00936 26.4391L2.91073 26.5016C2.67154 26.6291 2.37772 26.6186 2.14608 26.4665C1.88171 26.2925 1.7553 25.9714 1.82967 25.6637L3.98201 16.7663C3.98974 16.7344 4.00045 16.7031 4.01229 16.6725C5.97452 11.598 9.22496 8.8573 12.5064 7.48503C14.7691 6.53889 17.0278 6.25093 18.8638 6.27117C18.8268 6.09617 18.8158 5.91318 18.8355 5.72722C18.9359 4.7842 19.7796 4.12289 20.7193 4.25066ZM20.7613 7.92644C18.9813 7.63866 16.0285 7.63824 13.0855 8.86882C10.1777 10.0848 7.23915 12.5168 5.42733 17.1716L3.66268 24.4596C4.40194 24.2056 5.2224 24.0346 6.01229 23.9098C7.466 23.6803 8.98477 23.5875 10.0484 23.5124C14.4435 23.2015 18.3044 23.6691 21.4449 24.2077C23.001 24.4746 24.4186 24.7667 25.5846 24.9811C26.5136 25.152 27.2872 25.273 27.9185 25.319C30.0181 19.6799 29.0835 15.5237 27.2574 12.6999C25.3438 9.74111 22.4245 8.19496 20.7613 7.92644Z" fill="#1A1A1A"/>
<path d="M3.86403 16.2228C0.548476 17.8538 -0.465583 21.0118 2.53353 26.0788C3.86403 25.4688 7.68553 24.4168 10.6182 24.2498C14.7081 24.0158 17.0859 24.2498 21.9366 24.8598C18.6294 14.8878 7.17958 14.5908 3.86403 16.2228Z" fill="#85E0A3"/>
<path d="M7.6001 14.7318C9.26564 14.6839 11.1921 14.8885 13.1206 15.4721C16.9893 16.6428 20.9021 19.3564 22.6489 24.6234C22.73 24.8678 22.6796 25.1374 22.5161 25.3363C22.3527 25.535 22.0985 25.6359 21.8433 25.6039L21.937 24.8598H21.936L21.8433 25.6039C17.0062 24.9956 14.6816 24.7684 10.6606 24.9984C9.25556 25.0785 7.61499 25.3729 6.15185 25.7269C4.68017 26.083 3.44636 26.485 2.84619 26.7601C2.49721 26.9201 2.08373 26.7907 1.88818 26.4603C0.346245 23.8552 -0.246449 21.6091 0.0922836 19.7289C0.438672 17.8067 1.72432 16.4399 3.53271 15.5502C4.49432 15.0769 5.95062 14.7793 7.6001 14.7318ZM7.64306 16.2308C6.10989 16.275 4.89099 16.5532 4.19482 16.8959C2.68813 17.6371 1.80862 18.6646 1.56885 19.9955C1.34071 21.2624 1.66524 22.9485 2.86084 25.1351C3.61834 24.8547 4.66232 24.5438 5.79834 24.2689C7.31158 23.9028 9.04828 23.5883 10.5757 23.5014C14.3659 23.2845 16.7214 23.4655 20.7915 23.9623C19.0813 19.996 15.9038 17.8814 12.686 16.9076C10.9244 16.3745 9.16013 16.1871 7.64306 16.2308Z" fill="#1A1A1A"/>
</svg>
