<svg width="48" height="58" viewBox="0 0 48 58" fill="none" xmlns="http://www.w3.org/2000/svg">
<path d="M12.1177 17.2155L12 15.3435L15.4493 15.1265L15.567 16.9995L13.8873 17.8225L12.1177 17.2155Z" fill="#787878"/>
<path d="M15.408 14.4798C15.5795 14.469 15.7489 14.5263 15.8778 14.64C16.0066 14.7535 16.0847 14.9139 16.0955 15.0853L16.2137 16.9583L15.5662 16.9984L15.5672 16.9993L16.2137 16.9583C16.2301 17.2198 16.0875 17.466 15.8524 17.5814L14.1727 18.4046C14.0182 18.4803 13.8393 18.4907 13.6766 18.4349L11.9071 17.8284L11.8182 17.7903C11.6472 17.7014 11.5248 17.5402 11.4842 17.3519L11.4705 17.2562L11.3534 15.3841C11.3309 15.027 11.6018 14.7192 11.9588 14.6966L15.408 14.4798ZM12.6864 15.9486L12.7371 16.7415L13.8436 17.1214L14.8924 16.6077L14.8426 15.8128L12.6864 15.9486Z" fill="#1A1A1A"/>
<circle cx="13.184" cy="9.83777" r="9.83777" fill="url(#paint0_radial_53542_4992)"/>
<path d="M15.7762 15.2323L11.4561 15.6813C11.3121 14.9323 11.3411 13.2543 10.8513 12.5353C10.239 11.6363 8 11.1863 8 9.38826C8 7.59026 10.1601 5.34326 12.9425 5.34326C15.7249 5.34326 18.3683 6.69127 18.3683 8.48927C18.3683 10.2873 16.2083 11.1863 15.7762 12.0853C15.4306 12.8043 15.7762 14.4063 15.7762 15.2323Z" fill="#FFE054"/>
<path d="M17.7207 8.48975C17.7207 7.9365 17.3063 7.32194 16.3838 6.80811C15.4843 6.30716 14.2388 5.9917 12.9424 5.9917C11.7274 5.99173 10.6408 6.48236 9.85742 7.17627C9.05908 7.8835 8.64847 8.73177 8.64844 9.38818C8.64844 9.9596 8.98034 10.3531 9.57031 10.77C9.89073 10.9964 10.1544 11.1439 10.5059 11.3774C10.8059 11.5768 11.1564 11.8324 11.3867 12.1704C11.5706 12.4403 11.6842 12.7636 11.7607 13.0659C11.839 13.3749 11.8893 13.7066 11.9268 14.02C11.9641 14.3329 11.9902 14.6492 12.0146 14.9155C12.0164 14.934 12.0179 14.9523 12.0195 14.9702L15.0908 14.6509C15.0879 14.6201 15.0861 14.5884 15.083 14.5562C15.0569 14.2878 15.0224 13.9728 15 13.6655C14.9776 13.3573 14.9646 13.0305 14.9834 12.7241C15.0017 12.4267 15.0529 12.0944 15.1924 11.8042C15.361 11.4536 15.6658 11.1541 15.9277 10.9165C16.2402 10.6331 16.4843 10.442 16.7891 10.1538C17.3562 9.61735 17.7205 9.1064 17.7207 8.48975ZM19.0166 8.48975C19.0164 9.67061 18.3003 10.5081 17.6797 11.0952C17.3905 11.3687 17.0129 11.6823 16.7988 11.8765C16.5345 12.1162 16.4079 12.267 16.3604 12.3657C16.3271 12.4349 16.2915 12.5734 16.2773 12.8042C16.2638 13.0261 16.2722 13.2866 16.293 13.5718C16.3138 13.858 16.3452 14.1435 16.373 14.4302C16.3998 14.7052 16.4238 14.9898 16.4238 15.2319C16.4238 15.5639 16.173 15.8421 15.8428 15.8765L11.5234 16.3257C11.189 16.3604 10.8828 16.1334 10.8193 15.8032C10.7764 15.5797 10.7493 15.3026 10.7246 15.0337C10.6987 14.7524 10.6743 14.4633 10.6396 14.1733C10.6051 13.8842 10.5624 13.6152 10.5039 13.3843C10.4437 13.1463 10.3765 12.9895 10.3154 12.8999C10.2395 12.7885 10.0808 12.6504 9.78906 12.4565C9.54877 12.2969 9.13792 12.0507 8.82227 11.8276C8.13969 11.3453 7.35156 10.6147 7.35156 9.38818C7.35159 8.24667 8.02085 7.07225 8.99805 6.20654C9.9903 5.32754 11.3751 4.69486 12.9424 4.69482C14.4283 4.69482 15.8959 5.05377 17.0137 5.67627C18.1083 6.28591 19.0166 7.24504 19.0166 8.48975Z" fill="#E4981F"/>
<defs>
<radialGradient id="paint0_radial_53542_4992" cx="0" cy="0" r="1" gradientUnits="userSpaceOnUse" gradientTransform="translate(13.184 9.83777) rotate(69.6264) scale(9.47965)">
<stop stop-color="#F7E922" stop-opacity="0.8"/>
<stop offset="0.865385" stop-color="#F7E922" stop-opacity="0"/>
</radialGradient>
</defs>
</svg>
