<svg width="48" height="55" viewBox="0 0 48 55" fill="none" xmlns="http://www.w3.org/2000/svg">
<path d="M37.7499 1.5C38.7255 1.5 39.6048 1.94001 40.2232 2.64301C40.6114 3.08501 41.2583 3.29598 41.8375 3.19598C42.016 3.16498 42.1992 3.14801 42.3858 3.14801C44.2577 3.14901 45.7752 4.76698 45.7754 6.76398C45.7754 7.18498 45.7072 7.59 45.5826 7.966C45.4869 8.255 45.4869 8.56897 45.5826 8.85797C45.7073 9.23397 45.7754 9.63897 45.7754 10.061C45.7753 12.057 44.2578 13.676 42.3858 13.676C41.8396 13.676 41.3235 13.538 40.8665 13.293C40.3797 13.033 39.755 13.033 39.2681 13.293C38.8115 13.538 38.2959 13.676 37.7499 13.676C37.2921 13.676 36.8558 13.579 36.4576 13.403C36.0547 13.225 35.5821 13.225 35.1793 13.403C35.0697 13.451 34.9572 13.494 34.8422 13.53C34.6708 13.584 34.51 13.668 34.3696 13.78C33.8041 14.232 33.1026 14.5 32.3417 14.5C30.4696 14.5 28.9514 12.882 28.9512 10.885C28.9512 10.725 28.8778 10.573 28.7533 10.473C27.9352 9.81302 27.4062 8.76601 27.4062 7.58801C27.4063 5.89401 28.4986 4.47202 29.9729 4.08002C30.3821 3.97102 30.7425 3.69697 30.9424 3.32397C31.5261 2.23497 32.6257 1.5 33.8868 1.5C34.3446 1.5 34.781 1.59697 35.1793 1.77197C35.5821 1.94997 36.0546 1.95001 36.4573 1.77301C36.8558 1.59701 37.2922 1.5 37.7499 1.5Z" fill="white"/>
<path d="M37.7499 2.25C38.4923 2.25 39.1719 2.583 39.6599 3.138L40.7866 2.14801C40.0377 1.29601 38.9587 0.75 37.7501 0.75L37.7499 2.25ZM41.966 3.93402C42.1023 3.91102 42.2425 3.89801 42.3858 3.89801L42.3859 2.39801C42.156 2.39801 41.9297 2.41797 41.7092 2.45697L41.966 3.93402ZM42.3858 3.89801C43.7989 3.89901 45.0253 5.13498 45.0254 6.76398H46.5254C46.5252 4.39898 44.7167 2.39901 42.3859 2.39801L42.3858 3.89801ZM45.0254 6.76398C45.0254 7.10398 44.9704 7.42898 44.8706 7.72998L46.2945 8.20203C46.444 7.75103 46.5254 7.26698 46.5254 6.76398H45.0254ZM44.8706 9.09399C44.9704 9.39499 45.0254 9.71997 45.0254 10.061H46.5254C46.5254 9.55797 46.444 9.07301 46.2945 8.62201L44.8706 9.09399ZM45.0254 10.061C45.0253 11.689 43.7987 12.926 42.3856 12.926L42.3858 14.426C44.7166 14.425 46.5253 12.425 46.5254 10.061H45.0254ZM42.3856 12.926C41.9675 12.926 41.5728 12.821 41.2207 12.632L40.5125 13.955C41.0743 14.255 41.7116 14.426 42.3858 14.426L42.3856 12.926ZM38.914 12.632C38.5622 12.821 38.1678 12.926 37.7499 12.926V14.426C38.4239 14.426 39.0609 14.255 39.6224 13.955L38.914 12.632ZM37.7499 12.926C37.3995 12.926 37.0662 12.852 36.7604 12.717L36.1546 14.089C36.6453 14.306 37.1846 14.426 37.7499 14.426V12.926ZM34.8762 12.717C34.792 12.754 34.7058 12.787 34.6179 12.814L35.0666 14.246C35.2087 14.201 35.3475 14.149 35.4824 14.089L34.8762 12.717ZM33.9017 13.194C33.4605 13.547 32.9218 13.75 32.3417 13.75V15.25C33.2834 15.25 34.148 14.917 34.8378 14.366L33.9017 13.194ZM32.3417 13.75C30.9284 13.75 29.7014 12.513 29.7012 10.885H28.2012C28.2014 13.25 30.0108 15.25 32.3417 15.25V13.75ZM29.2243 9.88898C28.5833 9.37198 28.1562 8.54001 28.1562 7.58801H26.6562C26.6562 8.99201 27.2871 10.253 28.2822 11.056L29.2243 9.88898ZM28.1562 7.58801C28.1564 6.21201 29.0403 5.10402 30.1658 4.80402L29.7801 3.35498C27.9568 3.83998 26.6563 5.57501 26.6562 7.58801H28.1562ZM31.6035 3.67798C32.0705 2.80698 32.9304 2.25 33.8868 2.25V0.75C32.3211 0.75 30.9818 1.66297 30.2812 2.96997L31.6035 3.67798ZM33.8868 2.25C34.2375 2.25 34.5712 2.32398 34.877 2.45898L35.4819 1.086C34.991 0.869999 34.4517 0.75 33.8868 0.75V2.25ZM36.7599 2.45898C37.0657 2.32398 37.3993 2.25 37.7499 2.25L37.7501 0.75C37.1852 0.75 36.6458 0.869999 36.155 1.086L36.7599 2.45898ZM34.877 2.45898C35.4724 2.72098 36.1644 2.72098 36.7599 2.45898L36.155 1.086C35.9449 1.179 35.692 1.179 35.4819 1.086L34.877 2.45898ZM29.7012 10.885C29.7012 10.495 29.523 10.13 29.2243 9.88898L28.2822 11.056C28.2326 11.016 28.2012 10.954 28.2012 10.885H29.7012ZM34.6179 12.814C34.3605 12.895 34.1167 13.022 33.9017 13.194L34.8378 14.366C34.9036 14.314 34.9811 14.272 35.0666 14.246L34.6179 12.814ZM41.2207 12.632C40.5126 12.253 39.6221 12.253 38.914 12.632L39.6224 13.955C39.888 13.812 40.2468 13.812 40.5125 13.955L41.2207 12.632ZM36.7604 12.717C36.1646 12.454 35.4719 12.454 34.8762 12.717L35.4824 14.089C35.6922 13.996 35.9448 13.996 36.1546 14.089L36.7604 12.717ZM30.1658 4.80402C30.7636 4.64502 31.2999 4.24498 31.6035 3.67798L30.2812 2.96997C30.1851 3.14997 30.0004 3.29598 29.7801 3.35498L30.1658 4.80402ZM44.8706 7.72998C44.7241 8.17198 44.7241 8.65199 44.8706 9.09399L46.2945 8.62201C46.2495 8.48601 46.2495 8.33803 46.2945 8.20203L44.8706 7.72998ZM39.6599 3.138C40.2303 3.787 41.1445 4.07702 41.966 3.93402L41.7092 2.45697C41.3723 2.51497 40.9926 2.38201 40.7866 2.14801L39.6599 3.138Z" fill="#1A1A1A"/>
<path d="M26.5093 16.5181C27.3428 16.5181 28.0186 15.8423 28.0186 15.0088C28.0186 14.1752 27.3428 13.4995 26.5093 13.4995C25.6757 13.4995 25 14.1752 25 15.0088C25 15.8423 25.6757 16.5181 26.5093 16.5181Z" fill="white"/>
<path d="M27.2686 15.0093C27.2686 14.5901 26.9289 14.2498 26.5098 14.2495C26.0904 14.2495 25.75 14.5899 25.75 15.0093C25.7503 15.4284 26.0906 15.7681 26.5098 15.7681C26.9287 15.7678 27.2683 15.4282 27.2686 15.0093ZM28.7686 15.0093C28.7683 16.2567 27.7571 17.2678 26.5098 17.2681C25.2622 17.2681 24.2503 16.2568 24.25 15.0093C24.25 13.7615 25.262 12.7495 26.5098 12.7495C27.7573 12.7498 28.7686 13.7617 28.7686 15.0093Z" fill="#1A1A1A"/>
<path d="M23.0093 19.5181C23.5667 19.5181 24.0186 19.0662 24.0186 18.5088C24.0186 17.9514 23.5667 17.4995 23.0093 17.4995C22.4519 17.4995 22 17.9514 22 18.5088C22 19.0662 22.4519 19.5181 23.0093 19.5181Z" fill="white"/>
<path d="M23.2686 18.5093C23.2686 18.3662 23.1527 18.2498 23.0098 18.2495C22.8666 18.2495 22.75 18.3661 22.75 18.5093C22.7503 18.6522 22.8667 18.7681 23.0098 18.7681C23.1526 18.7678 23.2683 18.6521 23.2686 18.5093ZM24.7686 18.5093C24.7683 19.4805 23.981 20.2678 23.0098 20.2681C22.0383 20.2681 21.2503 19.4807 21.25 18.5093C21.25 17.5377 22.0381 16.7495 23.0098 16.7495C23.9812 16.7498 24.7686 17.5378 24.7686 18.5093Z" fill="#1A1A1A"/>
<path d="M40.4975 8.96307C40.2702 8.96307 40.0575 8.89309 39.8595 8.75409C39.6615 8.61409 39.5625 8.38708 39.5625 8.07208C39.5625 7.83008 39.6249 7.63507 39.7495 7.48907C39.8742 7.33507 40.0172 7.22107 40.1785 7.14807C40.3472 7.07407 40.4902 7.03809 40.6075 7.03809C40.7322 7.03809 40.8715 7.06704 41.0255 7.12604C41.1869 7.17704 41.3262 7.27603 41.4435 7.42303C41.5609 7.56203 41.6195 7.76408 41.6195 8.02808C41.6195 8.28408 41.5095 8.50405 41.2895 8.68805C41.0769 8.87105 40.8129 8.96307 40.4975 8.96307Z" fill="#1A1A1A"/>
<path d="M36.4975 8.96307C36.2702 8.96307 36.0575 8.89309 35.8595 8.75409C35.6615 8.61409 35.5625 8.38708 35.5625 8.07208C35.5625 7.83008 35.6249 7.63507 35.7495 7.48907C35.8742 7.33507 36.0172 7.22107 36.1785 7.14807C36.3472 7.07407 36.4902 7.03809 36.6075 7.03809C36.7322 7.03809 36.8715 7.06704 37.0255 7.12604C37.1869 7.17704 37.3262 7.27603 37.4435 7.42303C37.5609 7.56203 37.6195 7.76408 37.6195 8.02808C37.6195 8.28408 37.5095 8.50405 37.2895 8.68805C37.0769 8.87105 36.8129 8.96307 36.4975 8.96307Z" fill="#1A1A1A"/>
<path d="M32.4975 8.96307C32.2702 8.96307 32.0575 8.89309 31.8595 8.75409C31.6615 8.61409 31.5625 8.38708 31.5625 8.07208C31.5625 7.83008 31.6249 7.63507 31.7495 7.48907C31.8742 7.33507 32.0172 7.22107 32.1785 7.14807C32.3472 7.07407 32.4902 7.03809 32.6075 7.03809C32.7322 7.03809 32.8715 7.06704 33.0255 7.12604C33.1869 7.17704 33.3262 7.27603 33.4435 7.42303C33.5609 7.56203 33.6195 7.76408 33.6195 8.02808C33.6195 8.28408 33.5095 8.50405 33.2895 8.68805C33.0769 8.87105 32.8129 8.96307 32.4975 8.96307Z" fill="#1A1A1A"/>
</svg>
