<svg width="48" height="55" viewBox="0 0 48 55" fill="none" xmlns="http://www.w3.org/2000/svg">
<path d="M1.41016 23.22L1.84452 17.177L9.19719 17.653L11.0041 1L27.9718 2.90503L24.9541 18.606H31.8208L31.0418 24.789L1.41016 23.22Z" fill="#2C2C2C"/>
<path d="M9.81607 15L9.5 17.857L24.7709 18.81L25.3365 15.952L9.81607 15Z" fill="#DC3412"/>
<path d="M11.3448 0.2547L28.3126 2.15997L28.3897 2.17267C28.5663 2.21147 28.7238 2.31289 28.8321 2.45978C28.9561 2.62795 29.0051 2.8405 28.9659 3.04572L26.1446 17.8162L32.5577 18.0164C32.7767 18.0232 32.982 18.125 33.1192 18.2957C33.2565 18.4664 33.312 18.6888 33.2716 18.9041L32.1583 24.8279L31.421 24.6893V24.6902L32.1583 24.8279C32.0978 25.1497 31.838 25.3903 31.5235 25.4334L31.3858 25.4393L1.46397 24.0086C1.25596 23.9986 1.06122 23.9031 0.926856 23.744C0.7925 23.5848 0.730923 23.3765 0.755958 23.1697L1.53721 16.741L2.28135 16.8318V16.8309L1.53721 16.741C1.58048 16.3859 1.86596 16.1179 2.20908 16.0848L2.3585 16.0858L8.96104 16.7645L10.5147 0.926575L10.544 0.78009C10.5875 0.638409 10.6723 0.511464 10.7892 0.416809C10.9452 0.290528 11.1454 0.232306 11.3448 0.2547ZM10.381 17.6619C10.3615 17.8605 10.264 18.0435 10.1095 18.1697C9.95497 18.296 9.75621 18.3552 9.55772 18.3348L2.93662 17.6531L2.34092 22.5486L30.8038 23.909L31.6349 19.4881L25.2208 19.2899L25.1388 19.282C24.9507 19.2554 24.7783 19.1584 24.6583 19.0086C24.5212 18.8374 24.4658 18.6147 24.5069 18.3992L27.3399 3.55939L11.9337 1.82892L10.381 17.6619Z" fill="#1A1A1A"/>
</svg>
