<svg width="48" height="55" viewBox="0 0 48 55" fill="none" xmlns="http://www.w3.org/2000/svg">
<path fill-rule="evenodd" clip-rule="evenodd" d="M24.1301 21.6326C25.8982 20.1927 27.8893 19.3127 29.8655 19.8425C31.1623 20.1925 32.6222 21.093 34.0901 22.363C35.548 23.623 36.9664 25.2126 38.1819 26.8826C39.3982 28.5426 40.3952 30.2632 41.0247 31.7732C41.3394 32.5332 41.5555 33.2232 41.6653 33.8132C41.7763 34.4131 41.7694 34.8634 41.6848 35.1833C41.468 35.9933 41.2503 37.1135 41.009 38.3533C40.9637 38.5932 40.9174 38.8331 40.8704 39.073C40.5688 40.613 40.2214 42.3031 39.7834 43.9031C39.3435 45.503 38.8226 46.973 38.1887 48.073C37.5438 49.1927 36.8665 49.7931 36.1741 49.9431C35.5221 50.0731 34.5942 50.0132 33.4573 49.7732C33.356 49.7515 33.254 49.7271 33.1506 49.7029C31.8087 50.7043 29.8418 51.9543 27.6965 52.8933C25.1655 53.9932 22.5322 54.6028 20.4153 54.0329C17.4568 53.2429 14.9334 52.4734 12.6477 51.0535C10.3794 49.6535 8.30337 47.5832 6.31567 44.1433C5.40252 42.5534 5.1569 40.6132 5.42993 38.4734C5.70296 36.3334 6.48986 34.053 7.57739 31.863C9.76705 27.4633 13.0796 23.623 15.5549 22.2029C17.4057 21.1329 19.794 21.2734 22.1575 22.0134C22.5312 22.13 22.9003 22.2601 23.262 22.4001C23.5393 22.1356 23.8292 21.8775 24.1301 21.6326Z" fill="#383838"/>
<path fill-rule="evenodd" clip-rule="evenodd" d="M17.2539 25.8026C18.198 25.383 19.3209 25.773 20.5205 26.7928C21.6736 27.7628 22.6719 29.1331 23.2383 30.1131L27.4092 39.0917C29.0156 39.808 30.4276 40.5542 31.458 41.2928C32.0162 41.6927 32.4357 42.063 32.7129 42.4129C32.9926 42.7627 33.0861 43.0228 33.0937 43.2128C33.1191 43.8528 32.751 44.4834 31.7978 45.1034C30.846 45.7333 29.4444 46.2434 27.7558 46.6434C24.391 47.4434 20.1149 47.7126 16.6474 47.5926C15.0122 47.5326 13.7869 47.1027 12.874 46.4628C11.9602 45.8328 11.3158 44.9527 10.8926 43.9227C10.0365 41.8428 10.1076 39.1932 10.7002 36.9833C10.914 36.1833 11.2652 35.6729 11.6601 35.3329C12.059 35.0029 12.5486 34.8035 13.0947 34.7235C13.3195 34.6893 13.5499 34.6748 13.7812 34.6766C13.5627 33.4225 13.6428 32.0317 13.9765 30.6932C14.5659 28.3232 15.862 26.4126 17.2539 25.8026ZM27.1543 29.9725C27.6658 29.8425 28.6082 29.813 29.789 29.953C30.9454 30.083 32.2458 30.3626 33.4336 30.7626C34.6333 31.1725 35.6573 31.6827 36.3115 32.2626C36.9564 32.8226 37.1314 33.3329 36.998 33.8329C36.8085 34.5428 36.3086 35.3026 35.5693 36.0526C34.8376 36.8025 33.9164 37.5029 32.9638 38.0829C32.0112 38.6729 31.0503 39.1232 30.2529 39.4032C29.8535 39.5431 29.5108 39.6327 29.2412 39.6727C29.1072 39.6827 29.001 39.6932 28.9219 39.6932C28.8436 39.6932 28.8103 39.6832 28.8076 39.6825C28.7956 39.6725 28.7294 39.6428 28.6113 39.5331C28.4979 39.4231 28.3662 39.2731 28.2197 39.0731C27.926 38.6631 27.6165 38.1328 27.3017 37.5428C27.0632 37.0928 26.832 36.6227 26.6074 36.1727C26.5361 36.0327 26.4654 35.8928 26.3955 35.7528C26.1497 35.2628 25.9061 34.7927 25.6836 34.4227C25.5852 33.4429 25.5882 32.413 25.8105 31.5731C26.0418 30.6931 26.4666 30.1625 27.1543 29.9725Z" fill="#444444"/>
<path d="M27.717 37.7628C27.2833 37.3128 26.934 36.8227 26.6819 36.4427C26.6804 36.2127 26.7198 35.9027 26.8159 35.5527C26.9338 35.1127 27.1235 34.6628 27.3684 34.2728C27.8887 33.4328 28.461 33.1328 29.0019 33.2728C30.7929 33.7528 31.6694 34.9927 31.9454 36.0027C31.9647 36.0727 31.9643 36.3027 31.7999 36.7027C31.6472 37.0627 31.3941 37.4727 31.0801 37.8427C30.7648 38.2127 30.4154 38.5127 30.0886 38.6927C29.7539 38.8827 29.5251 38.8927 29.3902 38.8627C28.7867 38.7027 28.22 38.2828 27.717 37.7628Z" fill="#2C2C2C"/>
<path fill-rule="evenodd" clip-rule="evenodd" d="M24.006 20.7758C25.7739 19.4293 27.8808 18.534 30.0607 19.1186C31.5129 19.5106 33.0742 20.4915 34.5812 21.7954C36.0896 23.099 37.5462 24.7331 38.7892 26.4409C40.0321 28.1374 41.0611 29.9084 41.7179 31.4838L41.7189 31.4858C42.047 32.2779 42.2814 33.0196 42.4035 33.6752L42.4445 33.9194C42.5261 34.477 42.5192 34.9661 42.4113 35.3745L42.4103 35.3764C42.202 36.1543 41.9881 37.2424 41.7452 38.4907L41.7462 38.4916C41.7006 38.7334 41.654 38.9755 41.6066 39.2172C41.3047 40.7587 40.9537 42.4717 40.5079 44.1L40.3361 44.7045C39.9247 46.1015 39.4362 47.4119 38.84 48.4467C38.1576 49.6315 37.3365 50.4578 36.3331 50.6752L36.3214 50.6782C35.5247 50.837 34.4848 50.7534 33.3214 50.5092C31.9557 51.4997 30.0585 52.6769 27.9962 53.5795H27.9943C25.4199 54.6982 22.5891 55.3941 20.2199 54.7563C17.2598 53.9658 14.6405 53.1727 12.2521 51.6889C9.86372 50.2142 7.70537 48.0462 5.66615 44.517L5.66517 44.5161L5.48255 44.1791C4.61728 42.4769 4.41699 40.4831 4.68568 38.3774C4.97227 36.1315 5.79182 33.7693 6.90443 31.5288L8.24818 32.1957L6.9054 31.5278C8.02723 29.2737 9.43506 27.1641 10.8829 25.433C12.2329 23.819 13.648 22.4983 14.9279 21.7036L15.1818 21.5512C17.3008 20.3274 19.9403 20.5323 22.381 21.2963L22.38 21.2973C22.6187 21.3718 22.8558 21.4525 23.09 21.5366C23.2742 21.3707 23.4638 21.2088 23.6574 21.0512L24.006 20.7758ZM21.9015 22.7182C19.6288 22.0123 17.5051 21.9411 15.9308 22.851L15.9279 22.853C14.7978 23.5014 13.4169 24.7429 12.0343 26.3959C10.6595 28.0397 9.31599 30.0502 8.24818 32.1957C7.18598 34.3348 6.4335 36.5331 6.17396 38.5668C5.91457 40.5994 6.15822 42.3611 6.96497 43.767L7.32825 44.3793C9.14964 47.3602 11.0285 49.1712 13.0411 50.4135L13.0431 50.4145C15.2254 51.7702 17.6527 52.5178 20.6085 53.3071L20.6095 53.308C22.4735 53.8099 24.9076 53.285 27.3947 52.2045C28.8707 51.5585 30.2636 50.7587 31.4142 50.0014C30.8014 49.8097 30.1749 49.5905 29.549 49.3539L29.546 49.353C28.2914 48.8719 27.0387 48.3189 25.9005 47.7758C22.8758 48.2785 19.4732 48.44 16.6212 48.3413C14.8649 48.2768 13.4925 47.8119 12.4435 47.0766C11.5249 46.4418 10.8537 45.593 10.3868 44.6284L10.1984 44.2075C9.26067 41.9287 9.35576 39.0996 9.97572 36.7875C10.2243 35.8581 10.6504 35.2124 11.171 34.7641L11.1827 34.7543C11.6907 34.3342 12.2975 34.09 12.9415 33.9887C12.8506 32.8416 12.9675 31.6447 13.2501 30.5112C13.5636 29.251 14.0675 28.099 14.6925 27.1694C15.3116 26.2486 16.0829 25.4981 16.9533 25.1166C17.9005 24.6969 18.8876 24.881 19.8243 25.393L19.837 25.3745C20.3048 24.6528 21.0143 23.6843 21.9015 22.7182ZM36.3214 50.6782L36.1749 49.9428L36.173 49.936L36.3214 50.6782ZM29.671 20.5668C28.1458 20.1584 26.5214 20.7469 24.924 21.9623L24.6046 22.2143C23.1597 23.3902 21.9676 24.8927 21.2501 25.9575V26.4321C22.3822 27.4522 23.3327 28.7773 23.8878 29.7377L23.9044 29.7661L23.9191 29.7973L24.9562 32.0307C24.9888 31.8085 25.0307 31.5907 25.0861 31.3813C25.3581 30.3464 25.9215 29.5351 26.9552 29.2495L26.962 29.2465L26.9699 29.2446C27.6132 29.0811 28.6615 29.0644 29.8722 29.2075L29.8732 29.2065C31.081 29.3423 32.4335 29.6338 33.673 30.0512L33.6769 30.0522C34.9112 30.474 36.0411 31.0219 36.8038 31.6957L36.9415 31.8198C37.2526 32.1132 37.4943 32.4315 37.6398 32.7827C37.8125 33.1997 37.8313 33.6212 37.7238 34.0248C37.4879 34.9087 36.8907 35.7775 36.1056 36.5747L36.1066 36.5756C35.3231 37.3786 34.3498 38.1136 33.3576 38.7182L33.3585 38.7192C32.4867 39.2592 31.6039 39.6901 30.8263 39.9897C31.2117 40.2195 31.5703 40.4496 31.8947 40.6821C32.4766 41.099 32.9586 41.5164 33.298 41.9438C33.6319 42.3614 33.8265 42.7721 33.8429 43.1821C33.8831 44.1954 33.2709 45.0363 32.2111 45.727C31.2446 46.3666 29.912 46.8653 28.382 47.2573C28.9399 47.4983 29.5094 47.7324 30.0783 47.9506C31.327 48.4226 32.5426 48.8091 33.6124 49.0385C34.7071 49.2696 35.513 49.3061 36.0167 49.2084C36.3982 49.1251 36.9334 48.7522 37.5402 47.6987C38.1262 46.6816 38.6265 45.2833 39.0607 43.7045L39.2179 43.1108C39.5756 41.7183 39.8713 40.2739 40.1349 38.9282L40.2726 38.2133L40.2736 38.2094L40.2824 38.1645C40.5183 36.952 40.7386 35.8195 40.9611 34.9887C41.0065 34.8151 41.0283 34.4872 40.9288 33.9497C40.8313 33.4256 40.6334 32.7864 40.3322 32.059C39.7301 30.6156 38.7657 28.9476 37.5773 27.3256L37.5763 27.3237C36.3886 25.6918 35.007 24.1464 33.5997 22.9301C32.1713 21.6943 30.8122 20.875 29.671 20.5668ZM13.1886 35.4663C12.7678 35.5302 12.4191 35.6799 12.1456 35.9038C11.9116 36.1064 11.6718 36.4176 11.4962 36.9379L11.4249 37.1762C10.8598 39.2838 10.8121 41.7551 11.5861 43.6362C11.9165 44.4403 12.3874 45.1196 13.0187 45.6342L13.299 45.8452L13.3038 45.8481C14.0804 46.3925 15.1611 46.7866 16.6749 46.8422C20.0972 46.9606 24.3021 46.6926 27.5831 45.9125C29.2402 45.52 30.5412 45.0347 31.3839 44.477L31.3888 44.4731C32.2275 43.9276 32.3547 43.5119 32.3458 43.2465C32.3441 43.238 32.3208 43.1225 32.1271 42.8803L32.1251 42.8774C31.9102 42.6062 31.5533 42.2834 31.0206 41.9018C30.3003 41.3855 29.3666 40.8562 28.2872 40.3286L27.6759 40.352L26.9425 40.3764C25.1694 40.4242 22.981 40.4125 20.8947 40.1889L20.8898 40.1879C19.6252 40.0453 18.3982 39.8292 17.3253 39.5063L16.8751 39.3618L16.8722 39.3608L16.4435 39.1997C15.4684 38.8081 14.6752 38.2981 14.1867 37.6225C13.7206 36.9863 13.3952 36.2522 13.1886 35.4663ZM20.0353 27.3647C18.892 26.3929 18.0881 26.2523 17.5587 26.4877L17.3576 26.5883C16.8914 26.8495 16.396 27.3245 15.9376 28.0063C15.4199 28.7764 14.9811 29.7642 14.7052 30.8735C14.1516 33.0936 14.3688 35.336 15.3986 36.7387L14.7199 37.2368L14.7941 37.1831L15.3986 36.7387L15.4025 36.7436C15.6967 37.1504 16.3099 37.5743 17.3644 37.9438C18.3907 38.2981 19.6643 38.5398 21.0529 38.6967C22.8919 38.8938 24.8335 38.919 26.4865 38.8852L22.5743 30.4633C22.034 29.5345 21.0951 28.2558 20.0382 27.3666L20.0353 27.3647L20.5216 26.7924L20.588 26.7133L20.0353 27.3647ZM28.8068 33.9975C28.7463 33.9832 28.6723 33.9837 28.5577 34.0512C28.4212 34.1318 28.2269 34.3108 28.006 34.6674L28.0031 34.6713C27.8012 34.9928 27.6403 35.3731 27.5402 35.7465L27.5392 35.7514C27.4946 35.914 27.4675 36.06 27.4513 36.1831L27.5451 36.3706C27.7467 36.6531 27.9838 36.9591 28.256 37.2416L28.4288 37.4125C28.8099 37.7737 29.1829 38.0151 29.5294 38.1206C29.5579 38.1139 29.6203 38.0958 29.7179 38.0405L30.0734 38.6674H30.0743L30.0548 38.6323L29.7179 38.0405L29.7267 38.0356L29.9064 37.9223C30.0941 37.789 30.3036 37.5968 30.5089 37.3559C30.7787 37.0377 30.9896 36.6921 31.1095 36.4096C31.1665 36.2695 31.1883 36.1741 31.1974 36.1225C30.9608 35.3562 30.2672 34.3887 28.8077 33.9975H28.8068ZM31.3849 38.103V38.102L31.2199 37.9614L30.9943 37.77L31.3849 38.103ZM29.2853 30.6538C28.3599 30.5727 27.6836 30.6131 27.3488 30.6957C27.0097 30.7912 26.7258 31.0415 26.5363 31.7622V31.7641L25.8107 31.5717L25.5841 31.5122L26.5363 31.7641C26.3579 32.4379 26.3381 33.3019 26.4161 34.1899C26.4397 34.2307 26.4617 34.2736 26.4855 34.3159C26.5603 34.1653 26.6422 34.0185 26.7306 33.8774C27.3153 32.9336 28.1685 32.2822 29.1896 32.5463L28.9835 33.3383L29.0021 33.2729L29.1896 32.5463L29.1964 32.5483C31.2684 33.1037 32.3295 34.5626 32.6691 35.8051H32.6681C32.7183 35.9887 32.7078 36.1854 32.6827 36.3452C32.654 36.528 32.5941 36.7425 32.4933 36.9877L32.4904 36.9956C32.39 37.2322 32.2552 37.4782 32.0978 37.7221C32.2538 37.6334 32.4117 37.5419 32.5685 37.4448L32.5734 37.4409C33.4848 36.886 34.3545 36.2235 35.0333 35.5278L35.0353 35.5258C35.7272 34.8238 36.1308 34.1732 36.2736 33.6381C36.299 33.5424 36.2963 33.4592 36.254 33.3569C36.2172 33.268 36.1424 33.145 35.9943 32.9916L35.8204 32.8286L35.8146 32.8237L36.3126 32.2622L36.3566 32.2114L35.8146 32.8237C35.2695 32.3406 34.3549 31.8698 33.1945 31.4731L32.7638 31.3344C31.7489 31.025 30.6719 30.8064 29.7052 30.6977L29.7013 30.6967L29.2853 30.6538ZM42.4103 35.3764L41.7863 35.2084L41.6398 35.1704L42.4103 35.3764ZM40.8439 31.8471L41.0255 31.7729L41.7179 31.4838L40.8439 31.8471ZM15.9279 22.853L15.5548 22.2016L15.9308 22.851L15.4894 22.0883L15.9279 22.853Z" fill="#1A1A1A"/>
<path fill-rule="evenodd" clip-rule="evenodd" d="M15.0765 42.1377C15.4425 41.9439 15.8964 42.0836 16.0902 42.4496C16.6521 43.5109 18.0244 43.8285 18.9952 43.122L19.1034 43.0432C19.4381 42.7993 19.9073 42.8729 20.1512 43.2077C20.3951 43.5425 20.3215 44.0116 19.9867 44.2555L19.8786 44.3343C18.1693 45.5786 15.7536 45.0196 14.7645 43.1515C14.5707 42.7854 14.7104 42.3315 15.0765 42.1377Z" fill="#D9D9D9"/>
<path d="M13.579 40.197C13.0381 40.3085 12.69 40.8374 12.8015 41.3783C12.9131 41.9192 13.442 42.2673 13.9829 42.1558C14.5238 42.0443 14.8719 41.5154 14.7603 40.9745C14.6488 40.4336 14.1199 40.0855 13.579 40.197Z" fill="#D9D9D9"/>
<path d="M21.9828 42.197C22.5237 42.3086 22.8718 42.8375 22.7603 43.3784C22.6488 43.9193 22.1199 44.2674 21.579 44.1558C21.038 44.0443 20.69 43.5154 20.8015 42.9745C20.913 42.4336 21.4419 42.0855 21.9828 42.197Z" fill="#D9D9D9"/>
</svg>
