<svg width="48" height="55" viewBox="0 0 48 55" fill="none" xmlns="http://www.w3.org/2000/svg">
<path fill-rule="evenodd" clip-rule="evenodd" d="M22.606 40.9297C22.589 41.1697 22.5713 41.4102 22.5533 41.6602C22.3613 44.32 22.1193 47.6699 21.3833 50.2998C20.9513 51.8498 20.3815 53.0104 19.6665 53.6504C19.3236 53.9502 18.9526 54.1404 18.5347 54.1904C18.1108 54.2504 17.585 54.1898 16.9292 53.9199C16.2733 53.65 15.8392 53.3199 15.5552 52.96C15.2732 52.61 15.1093 52.1899 15.0513 51.71C14.9303 50.71 15.2593 49.45 15.9273 48C17.0683 45.5401 19.0304 42.8997 20.5894 40.7998C20.7253 40.6199 20.8589 40.4404 20.9878 40.2705L22.606 40.9297ZM26.1617 40.21C27.8276 42.2899 29.9282 44.9099 31.1792 47.3398C31.9132 48.7698 32.2868 50.01 32.1958 50.96C32.1528 51.4199 32.0038 51.7999 31.7369 52.1299C31.4659 52.4599 31.0376 52.7705 30.3726 53.0205C29.7097 53.2704 29.1644 53.32 28.7134 53.25C28.2665 53.1899 27.8656 52.9896 27.4937 52.6797C26.7278 52.0297 26.1067 50.8799 25.6148 49.3701C24.7768 46.7801 24.4222 43.5099 24.1392 40.9199C24.1152 40.69 24.0909 40.47 24.0669 40.25L25.7046 39.6396C25.8526 39.8296 26.0057 40.02 26.1617 40.21ZM29.2886 37.3105C31.8236 38.1305 35.0199 39.16 37.4019 40.5C38.8007 41.2899 39.7937 42.1198 40.2427 42.9697C40.4587 43.3697 40.5465 43.7802 40.5025 44.2002C40.4584 44.6201 40.2739 45.1206 39.856 45.6904C39.4392 46.2601 39.013 46.6098 38.5982 46.7998C38.1873 46.9897 37.7461 47.0501 37.2632 46.9902C36.2662 46.8702 35.1127 46.2498 33.8697 45.2598C31.7487 43.5598 29.6528 41.0297 27.9878 39.0098C27.8429 38.8398 27.701 38.6699 27.563 38.5L28.5933 37.0898C28.8182 37.1598 29.0508 37.2306 29.2886 37.3105ZM19.8423 39.1299C19.6753 39.2999 19.5027 39.4704 19.3267 39.6504C17.4528 41.5403 15.0898 43.9303 12.8179 45.4502C11.4842 46.35 10.2973 46.8597 9.3394 46.8799C8.8794 46.8899 8.47858 46.7798 8.12358 46.5498C7.7637 46.3198 7.40447 45.9296 7.08158 45.2998C6.75872 44.67 6.64469 44.1396 6.66069 43.6797C6.67775 43.2299 6.82342 42.8103 7.0933 42.4004C7.65024 41.5705 8.7237 40.8201 10.1695 40.1602C12.6395 39.0302 15.8481 38.2997 18.3951 37.7197C18.6168 37.6698 18.8337 37.6203 19.0445 37.5703L19.8423 39.1299ZM7.05815 30.5195C8.02311 30.2397 9.32714 30.3601 10.8589 30.79C13.4718 31.52 16.3906 33.04 18.7085 34.25C18.9105 34.35 19.1093 34.4498 19.3013 34.5498L18.9029 36.2598C18.6679 36.2798 18.4234 36.3003 18.1744 36.3203C15.5214 36.5603 12.1744 36.8498 9.45854 36.5498C7.86369 36.3698 6.62631 35.9898 5.88236 35.3799C5.52555 35.0999 5.28658 34.7595 5.16361 34.3496C5.03872 33.9397 5.01634 33.4195 5.17729 32.7197C5.33829 32.0299 5.59692 31.5497 5.90287 31.2197C6.20785 30.8798 6.59121 30.6495 7.05815 30.5195ZM36.8853 30.4102C38.4271 29.9602 39.7144 29.8298 40.6333 30.0996C41.0743 30.2296 41.4249 30.4503 41.6939 30.7803C41.9658 31.1103 42.1912 31.5902 42.3072 32.29C42.4232 32.99 42.3694 33.53 42.2154 33.96C42.0634 34.3899 41.7965 34.7398 41.4175 35.0498C40.6335 35.6798 39.3813 36.0598 37.8033 36.2598C35.1085 36.5797 31.8309 36.3001 29.2281 36.0801C29.0012 36.0601 28.7799 36.0403 28.564 36.0303L28.2769 34.2998C28.4867 34.1899 28.7025 34.0799 28.9244 33.96C31.2842 32.72 34.2594 31.1702 36.8853 30.4102ZM13.1763 21.1396C13.6253 21.0897 14.0644 21.1604 14.5083 21.3604C15.4233 21.7704 16.3391 22.7103 17.2271 24.0303C18.744 26.2802 19.9843 29.3301 20.9703 31.75C21.0563 31.96 21.1402 32.1604 21.2222 32.3604L19.8169 33.4004C19.6239 33.2704 19.4243 33.1305 19.2193 32.9805C17.0463 31.4405 14.3061 29.4997 12.4351 27.5098C11.3363 26.3399 10.6366 25.2505 10.4605 24.3105C10.3765 23.8507 10.4138 23.4404 10.5806 23.0605C10.7506 22.6605 11.076 22.2403 11.646 21.8203C12.2159 21.4004 12.7244 21.1997 13.1763 21.1396ZM32.9859 20.71C33.4068 20.52 33.817 20.46 34.232 20.54C34.6528 20.6201 35.1326 20.8401 35.6734 21.2998C36.2123 21.7597 36.5231 22.2097 36.6822 22.6396C36.8401 23.0595 36.8659 23.4997 36.772 23.9795C36.577 24.9694 35.8706 26.0696 34.7867 27.2295C32.9367 29.2195 30.2507 31.1199 28.1187 32.6299C27.9327 32.7599 27.7507 32.8898 27.5738 33.0098L26.2417 31.8799C26.3317 31.6599 26.4251 31.4301 26.5191 31.2002C27.5271 28.7402 28.798 25.6296 30.315 23.3496C31.2069 22.0198 32.108 21.0899 32.9859 20.71ZM23.0904 17.25C23.7984 17.25 24.3281 17.3904 24.7261 17.6104C25.1209 17.8303 25.4296 18.1602 25.6665 18.5801C26.1575 19.4601 26.3352 20.7499 26.2652 22.3398C26.1462 25.0598 25.3321 28.2405 24.6861 30.7705C24.6301 30.9903 24.575 31.2101 24.522 31.4199H22.772C22.6991 31.1901 22.6224 30.9603 22.5445 30.7305C21.7125 28.1905 20.6643 25 20.3453 22.29C20.1573 20.6901 20.2417 19.4 20.6607 18.54C20.8616 18.1302 21.1367 17.8203 21.5015 17.6104C21.8714 17.3904 22.3806 17.2501 23.0904 17.25Z" fill="#3560FF"/>
<path fill-rule="evenodd" clip-rule="evenodd" d="M26.2965 39.1787C26.4395 39.3622 26.5888 39.547 26.7418 39.7334L26.7477 39.7402C28.4005 41.8038 30.5551 44.4861 31.8473 46.9961L32.1149 47.542C32.7037 48.8058 33.041 50.0067 32.943 51.0312C32.8873 51.6238 32.6878 52.1469 32.3199 52.6016L32.317 52.6055L32.1686 52.7725C31.8026 53.1535 31.2989 53.4729 30.6373 53.7217C29.8829 54.0061 29.2114 54.082 28.6139 53.9922C28.6123 53.992 28.6106 53.9924 28.609 53.9922C28.6058 53.9917 28.6025 53.9917 28.5992 53.9912C27.9901 53.9061 27.4664 53.6325 27.0143 53.2559L27.0084 53.252C26.1978 52.564 25.5798 51.4733 25.0992 50.1719L24.902 49.6016L24.901 49.6006C24.2514 47.5927 23.8862 45.2049 23.6256 43.0527L23.3932 41.001V40.9971L24.0485 40.9287L24.1285 40.9199L23.3932 40.9971L23.3688 40.7764L23.3551 40.9834C23.3382 41.2226 23.3191 41.4693 23.3014 41.7148C23.1109 44.3543 22.8664 47.786 22.1061 50.5029C21.6637 52.0897 21.0466 53.4222 20.1676 54.209L20.1617 54.2148C19.7327 54.5901 19.2251 54.8636 18.6246 54.9355L18.6237 54.9336C18.044 55.0121 17.3874 54.9201 16.6442 54.6143C15.8963 54.3065 15.3465 53.9064 14.9664 53.4248L14.9674 53.4238C14.589 52.9515 14.3795 52.3971 14.3073 51.8008C14.1608 50.5905 14.5615 49.1738 15.2467 47.6865L15.2477 47.6846C16.4274 45.1412 18.4424 42.4367 19.9889 40.3535L19.9918 40.3486C20.1142 40.1867 20.2687 39.9789 20.3912 39.8174L20.7389 39.3584L23.3307 40.416L23.3219 40.3311L23.2584 39.751L25.443 38.9365L25.9586 38.7451L26.2965 39.1787ZM21.192 41.2471C19.6211 43.3631 17.7104 45.9377 16.608 48.3135C15.9574 49.7259 15.701 50.8305 15.7965 51.6201C15.8347 51.9355 15.9289 52.1918 16.0739 52.4023L16.1393 52.4902L16.1442 52.4961L16.2213 52.5859C16.4159 52.7985 16.7223 53.0236 17.2155 53.2266C17.7761 53.4572 18.1664 53.4855 18.4303 53.4482L18.4381 53.4463L18.4469 53.4453C18.682 53.417 18.9169 53.3102 19.1735 53.0859C19.7218 52.5912 20.2408 51.6061 20.6608 50.0996L20.6617 50.0986C21.3733 47.5559 21.6118 44.2868 21.8053 41.6064C21.8099 41.543 21.8145 41.4803 21.819 41.4189L21.2408 41.1826C21.225 41.2036 21.2087 41.225 21.192 41.2471ZM24.8746 40.748C24.8779 40.779 24.8811 40.8105 24.8844 40.8418C25.1695 43.4512 25.5186 46.6373 26.3278 49.1387C26.8057 50.6051 27.3733 51.5923 27.9781 52.1064C28.2649 52.3445 28.537 52.4687 28.8141 52.5059L28.7135 53.252L28.7145 53.25L28.8141 52.5059L28.8219 52.5078L28.8287 52.5088C29.1293 52.5554 29.543 52.5313 30.108 52.3184L30.109 52.3174C30.6808 52.1024 30.9865 51.8594 31.1549 51.6553C31.3195 51.451 31.4184 51.215 31.4489 50.8896L31.4498 50.8877C31.5194 50.1586 31.2293 49.0785 30.5123 47.6816C29.3025 45.3326 27.2552 42.7742 25.5768 40.6787C25.537 40.6303 25.4981 40.5799 25.4586 40.5312L24.8746 40.748ZM32.6774 20.0264C33.2184 19.7822 33.7858 19.6905 34.3737 19.8037L34.3727 19.8047C34.9455 19.9138 35.5411 20.2034 36.1598 20.7295C36.7752 21.2547 37.1732 21.8063 37.3854 22.3799C37.5975 22.946 37.6241 23.5279 37.5074 24.124C37.2714 25.3218 36.4488 26.5486 35.3356 27.7402C33.4226 29.7979 30.6674 31.7442 28.5524 33.2422L28.5485 33.2451C28.4268 33.3302 28.2961 33.4205 28.1676 33.5098C28.3005 33.4405 28.4318 33.3734 28.568 33.2998L28.5758 33.2959C30.9202 32.0641 33.9648 30.4755 36.6774 29.6904C38.2552 29.2301 39.7144 29.0477 40.8453 29.3799L40.6217 30.1406L40.6344 30.0996L40.8463 29.3809C41.4114 29.5475 41.8961 29.8431 42.2721 30.3027C42.6456 30.7559 42.9139 31.3673 43.0465 32.167C43.1787 32.9649 43.1267 33.6366 42.9225 34.209C42.7167 34.791 42.358 35.2506 41.8932 35.6309L41.8873 35.6348C40.9365 36.3986 39.5117 36.7994 37.8981 37.0039L37.8922 37.0049L37.8043 36.2598L37.7906 36.1523L37.8922 37.0049C35.5875 37.2785 32.8903 37.1235 30.5651 36.9395C32.8952 37.7008 35.6387 38.6476 37.7701 39.8467C39.1987 40.6534 40.349 41.5696 40.903 42.6133C41.1837 43.1332 41.3098 43.6942 41.2487 44.2783C41.188 44.8569 40.9389 45.4792 40.4606 46.1318C39.9879 46.7779 39.4691 47.2238 38.9117 47.4795L38.9127 47.4805C38.3609 47.7356 37.7767 47.8097 37.1705 47.7344C35.9649 47.5883 34.6785 46.8626 33.403 45.8467L33.8815 45.2461L33.8698 45.2598L33.403 45.8467L33.401 45.8447C31.2121 44.0902 29.07 41.5017 27.4176 39.4971L26.9811 38.9727L26.6168 38.5244L27.9205 36.7373L27.4479 33.8877V33.8867L27.0885 33.582L25.3414 32.1006L25.8248 30.917L26.6305 28.9707C27.4911 26.9347 28.5152 24.7005 29.6901 22.9346L29.692 22.9326C30.6002 21.5785 31.5982 20.4979 32.6774 20.0264ZM13.0944 20.3945C13.6823 20.3291 14.2551 20.4239 14.8151 20.6758C15.9245 21.1729 16.9368 22.2557 17.8483 23.6104H17.8492C19.4177 25.9367 20.6866 29.0644 21.6647 31.4648L21.9166 32.0752L22.1383 32.6152L21.6686 32.9629L21.2233 32.3594H21.2223L21.6686 32.9629L20.2633 34.0029L20.1022 34.1211L20.1637 34.1533L20.0309 34.7207L19.6334 36.4307L19.5299 36.8711L20.7565 39.2705L20.3776 39.6562L19.8639 40.1748L18.3707 41.6699C16.7971 43.2228 14.9965 44.8937 13.2369 46.0713C11.8697 46.9937 10.5341 47.6052 9.3551 47.6299L9.13342 47.6279C8.62167 47.6045 8.14841 47.4581 7.72034 47.1816C7.22304 46.8638 6.78265 46.3602 6.41467 45.6426C6.09163 45.0125 5.93227 44.4309 5.91174 43.8857V43.6523C5.93456 43.0485 6.13147 42.4972 6.46643 41.9883L6.47034 41.9824C7.14415 40.9784 8.37215 40.1568 9.85803 39.4785L10.3453 39.2646C12.6369 38.2955 15.4126 37.6344 17.692 37.1133C15.1418 37.3405 11.9899 37.5845 9.37659 37.2959L9.48596 36.3018L9.37463 37.2959C7.74752 37.1123 6.33596 36.7138 5.41956 35.9688V35.9707C4.95168 35.6037 4.61816 35.1372 4.4469 34.5693L4.38928 34.3525C4.27454 33.8383 4.28591 33.2476 4.44592 32.5518L4.4469 32.5498L4.52112 32.2627C4.68238 31.7054 4.91301 31.2489 5.20276 30.8848L5.35315 30.71C5.75838 30.2619 6.26401 29.9651 6.84924 29.8008V29.7998C8.01753 29.4609 9.48681 29.6265 11.0612 30.0684L10.6559 31.5127C9.16693 31.0948 8.02871 31.0194 7.26721 31.2402L7.2594 31.2432C6.91841 31.3381 6.66297 31.4963 6.46155 31.7207L6.45276 31.7305L6.37756 31.8174C6.20237 32.0369 6.02755 32.3719 5.90686 32.8877C5.7853 33.4163 5.79714 33.7762 5.85413 34.0293L5.88147 34.1318L5.88245 34.1348L5.9137 34.2266C5.99476 34.4376 6.1311 34.6219 6.34534 34.79L6.35217 34.7949L6.35803 34.7998C6.92986 35.2686 7.98698 35.6291 9.5426 35.8047H9.54163C12.1687 36.0948 15.4372 35.8148 18.1071 35.5732L18.1149 35.5723L18.2955 35.5566L18.4362 34.9531C18.4163 34.9432 18.3966 34.9328 18.3766 34.9229L18.5026 34.666V34.665L18.3766 34.9229L18.3688 34.9189L18.3619 34.915L16.527 33.9678C14.623 33.0047 12.5488 32.0412 10.6569 31.5127L11.0612 30.0684C13.3845 30.7175 15.9199 31.9642 18.0475 33.0635C16.1613 31.7211 13.9432 30.0984 12.2604 28.4082L11.8883 28.0234L11.4811 27.5732C10.5668 26.5213 9.91379 25.4596 9.72424 24.4473L9.72327 24.4443L9.69006 24.2266C9.62991 23.7203 9.68741 23.2283 9.89417 22.7578C10.1283 22.212 10.5511 21.6946 11.2008 21.2158C11.8519 20.7361 12.4784 20.4762 13.0787 20.3965L13.0944 20.3945ZM28.5133 38.4688L28.5592 38.5234L28.567 38.5332C30.2429 40.5664 32.289 43.0304 34.3375 44.6729L34.7819 45.0137C35.7977 45.7585 36.6642 46.1622 37.3531 46.2451L37.2809 46.8408L37.2867 46.7998L37.3531 46.2451H37.3551C37.7149 46.2898 38.0137 46.244 38.2838 46.1191L38.2858 46.1182C38.5576 45.9937 38.8899 45.74 39.2506 45.2471L39.2516 45.2461L39.3746 45.0693C39.6374 44.6676 39.7335 44.3505 39.7574 44.1221C39.7842 43.8663 39.7348 43.6061 39.5836 43.3262L39.5797 43.3203C39.2344 42.6667 38.3993 41.924 37.0328 41.1523C34.7296 39.8571 31.6128 38.8498 29.0582 38.0234L29.0504 38.0205L28.8805 37.9668L28.5133 38.4688ZM18.5592 38.4512C15.9929 39.0356 12.8674 39.7515 10.4821 40.8428L9.97717 41.085C8.85378 41.6534 8.10054 42.2438 7.71545 42.8174C7.51314 43.1263 7.42188 43.4148 7.41077 43.709C7.4006 44.0168 7.47385 44.42 7.74963 44.958C8.02736 45.4996 8.30558 45.7758 8.52796 45.918L8.53186 45.9209C8.7515 46.0632 9.00192 46.1378 9.32288 46.1309C10.0597 46.1154 11.0987 45.7054 12.399 44.8281L12.401 44.8271C14.5977 43.3575 16.9054 41.0274 18.7946 39.1221C18.8364 39.0793 18.8815 39.0337 18.9274 38.9873L18.6432 38.4326C18.6155 38.4389 18.587 38.4449 18.5592 38.4512ZM9.37659 37.2959H9.37463L9.45862 36.5498L9.37659 37.2959ZM29.191 36.4922L29.2281 36.0801L29.2418 35.917L29.191 36.4922ZM40.4215 30.8184C39.7148 30.6112 38.6009 30.6908 37.0963 31.1299H37.0944C34.5576 31.864 31.655 33.3717 29.2809 34.6191C29.2224 34.6508 29.1633 34.6812 29.1051 34.7119L29.2076 35.3262C29.2365 35.3287 29.2652 35.3305 29.2936 35.333C31.9149 35.5546 35.1068 35.8237 37.7096 35.5156C39.2517 35.3202 40.3307 34.9608 40.9479 34.4648C41.2378 34.2265 41.4107 33.9862 41.5084 33.71L41.5104 33.707C41.613 33.4202 41.6665 33.0124 41.567 32.4121C41.4676 31.8124 41.2852 31.4635 41.1149 31.2568L41.1129 31.2539L41.6891 30.7842L41.7516 30.7324L41.1129 31.2539C40.9514 31.0558 40.7367 30.9113 40.4215 30.8184ZM18.7086 34.25L18.6364 34.3945L18.6373 34.3955L18.7213 34.2266L18.7086 34.25ZM14.2008 22.043C13.8762 21.8968 13.5738 21.8509 13.2672 21.8838C12.9649 21.9255 12.5746 22.0661 12.0905 22.4229C11.6043 22.7811 11.3779 23.1018 11.2711 23.3525L11.2672 23.3613C11.1697 23.5834 11.1375 23.8385 11.1989 24.1748C11.3353 24.8974 11.9111 25.8559 12.9821 26.9961C14.339 28.4393 16.1816 29.8665 17.942 31.1445L19.6539 32.3672L19.6627 32.374C19.7101 32.4087 19.7587 32.4412 19.8053 32.4746L20.3053 32.1045L20.277 32.0342L20.276 32.0322L20.5602 31.916L20.5612 31.915L20.276 32.0322C19.2823 29.5933 18.0699 26.6219 16.6051 24.4492V24.4482L16.2828 23.9893C15.5377 22.972 14.8328 22.3264 14.2028 22.0439L14.2008 22.043L14.5094 21.3594L14.65 21.0459L14.2008 22.043ZM23.0914 16.5C23.7979 16.5 24.3915 16.6223 24.8844 16.8496L25.0895 16.9531L25.0914 16.9551C25.6263 17.2531 26.028 17.6919 26.3209 18.2109L25.6334 18.5977L25.7389 18.54L26.3209 18.2109L26.3219 18.2148L26.4283 18.4189C26.9359 19.462 27.0817 20.8413 27.0143 22.373C26.8912 25.1857 26.0536 28.446 25.4127 30.9561C25.357 31.1748 25.3031 31.3915 25.2496 31.6035L25.1071 32.1699H22.2233L22.0573 31.6465L21.8356 30.9707L21.8326 30.9639L22.5035 30.7441L22.5455 30.7295L21.8326 30.9639C21.0073 28.4443 19.9298 25.1775 19.6002 22.3779C19.4079 20.7412 19.4709 19.2714 19.9869 18.2119L19.9879 18.21L20.0895 18.0176C20.3401 17.5792 20.6809 17.2175 21.1285 16.96C21.6417 16.6575 22.289 16.5 23.0914 16.5ZM33.2838 21.3984C32.6113 21.6896 31.8097 22.4666 30.9371 23.7676C29.4707 25.9725 28.228 29.0053 27.2125 31.4834C27.1894 31.54 27.1657 31.6001 27.1412 31.6602L27.6178 32.0645C27.6409 32.0482 27.6652 32.0323 27.6891 32.0156C29.8371 30.4943 32.452 28.6407 34.2379 26.7197L34.2389 26.7188C35.2926 25.5912 35.8817 24.6165 36.0358 23.835C36.0976 23.5183 36.0866 23.2519 36.0143 23.0078L35.9801 22.9043L35.9781 22.9004C35.8724 22.6144 35.6496 22.2662 35.1881 21.8721L35.0192 21.7354C34.6903 21.4841 34.4165 21.3603 34.1969 21.3018L34.0914 21.2773L34.0895 21.2764C33.8478 21.2299 33.595 21.258 33.2946 21.3936L33.2838 21.3984L32.986 20.71L32.9801 20.6982L33.2838 21.3984ZM23.0914 18C22.4787 18 22.1108 18.1209 21.8854 18.2549L21.8766 18.2598L21.7203 18.3672C21.5711 18.4874 21.443 18.649 21.3346 18.8701C21.0135 19.5307 20.907 20.6405 21.0905 22.2021C21.3989 24.8224 22.4188 27.9358 23.2574 30.4961C23.277 30.5539 23.2957 30.612 23.3151 30.6699H23.9381C23.9453 30.6416 23.9524 30.6132 23.9596 30.585C24.6106 28.0353 25.4012 24.9336 25.5162 22.3066C25.5842 20.7609 25.4006 19.6413 25.0123 18.9453C24.8318 18.6268 24.6147 18.406 24.361 18.2646C24.0959 18.1188 23.6978 18 23.0914 18Z" fill="#1A1A1A"/>
<path d="M15.4619 34.8103C15.4619 39.6903 17.6359 41.6003 18.8039 42.4103C24.8649 46.6103 29.0389 42.7102 31.2139 38.7102C32.3429 36.6402 32.4039 34.0602 31.0619 32.1102C29.0189 29.1502 26.0959 28.3003 24.2099 28.0103C18.3309 27.1003 15.4619 31.2403 15.4619 34.8103Z" fill="#95E1FF"/>
<path d="M24.3242 27.2684C26.3062 27.5732 29.4684 28.482 31.6787 31.6844H31.6797C33.2086 33.906 33.1126 36.7947 31.873 39.0682C30.7512 41.1314 29.0638 43.2699 26.7783 44.3172C24.4258 45.3952 21.5875 45.251 18.377 43.0262C17.7379 42.5831 16.8089 41.828 16.0459 40.5126C15.2826 39.1964 14.712 37.3663 14.7119 34.8104C14.7119 32.8376 15.5015 30.7061 17.1172 29.1844C18.7536 27.6434 21.179 26.7826 24.3242 27.2694L24.0947 28.7508C21.3614 28.3279 19.4132 29.0824 18.1455 30.2762C16.8571 31.4896 16.2119 33.2133 16.2119 34.8104C16.212 37.1339 16.7283 38.6984 17.3438 39.7596C17.9598 40.8217 18.7025 41.427 19.2314 41.7938L19.4971 41.9735C22.2235 43.7684 24.4161 43.7491 26.1533 42.953C28.0139 42.1003 29.5016 40.2882 30.5547 38.3514H30.5557C31.5736 36.4851 31.5992 34.2131 30.4443 32.535V32.536C28.5688 29.8188 25.8856 29.027 24.0957 28.7518L24.3242 27.2684Z" fill="#1A1A1A"/>
<path fill-rule="evenodd" clip-rule="evenodd" d="M21.5116 35.4174C21.8204 35.1414 22.2946 35.1679 22.5706 35.4767C23.1447 36.1188 24.1419 36.143 24.7467 35.5292L24.8257 35.4493C25.1169 35.1547 25.5918 35.152 25.8863 35.4432C26.1809 35.7344 26.1836 36.2093 25.8924 36.5039L25.8152 36.582C25.815 36.5822 25.8153 36.5818 25.8152 36.582C24.6029 37.8116 22.6035 37.7641 21.4523 36.4764C21.1763 36.1676 21.2028 35.6935 21.5116 35.4174Z" fill="#1A1A1A"/>
<path d="M20.6033 33.5049C20.1311 33.5049 19.7483 33.8877 19.7483 34.3599C19.7483 34.8321 20.1311 35.2149 20.6033 35.2149C21.0755 35.2149 21.4583 34.8321 21.4583 34.3599C21.4583 33.8877 21.0755 33.5049 20.6033 33.5049Z" fill="#1A1A1A"/>
<path d="M27.0296 33.5049C27.5018 33.5049 27.8846 33.8877 27.8846 34.3599C27.8846 34.8321 27.5018 35.2149 27.0296 35.2149C26.5574 35.2149 26.1746 34.8321 26.1746 34.3599C26.1746 33.8877 26.5574 33.5049 27.0296 33.5049Z" fill="#1A1A1A"/>
</svg>
