<svg width="48" height="55" viewBox="0 0 48 55" fill="none" xmlns="http://www.w3.org/2000/svg">
<path d="M28.4969 52.2199C28.5109 52.3599 28.9379 53.8199 28.6769 53.8999C37.6439 53.8999 36.654 53.6599 40.864 52.9099L40.7249 42.3799C40.7249 41.6799 41.5279 41.36 42.0529 40.93C43.3059 39.91 44.0739 38.5499 44.9719 37.2399C45.9989 35.7399 46.3329 34.6199 46.3329 32.8299C46.3329 26.0299 38.5199 21.6799 32.9409 20.6199C29.7709 20.0099 26.413 20.2499 23.2 20.2499L13.8149 21.6199C15.4889 21.4899 17.1709 21.5099 18.7979 21.8199C21.4809 22.3199 24.3569 22.3999 26.9879 23.1199C31.1059 24.2399 33.334 28.7199 33.334 32.7299C33.334 33.8199 33.0579 34.7799 32.3009 35.5899C31.7329 36.1899 31.2819 36.7599 30.5959 37.2399C30.0729 37.5999 28.4409 38.3299 28.3489 38.9599C28.0389 41.1199 28.3169 43.5099 28.3169 45.7099V49.1099C28.3169 50.1499 28.3939 51.1799 28.4969 52.2199Z" fill="#412B21"/>
<path d="M4.92504 38.0899C5.26304 38.3199 5.58904 38.6699 5.58904 39.0699C5.58904 41.3499 5.54305 43.6699 5.32705 45.9399C5.14605 47.8199 5.40206 49.7199 5.44106 51.5999C5.44606 51.8399 5.25806 53.7799 5.52306 53.8499C5.75806 53.9199 6.23604 53.7099 6.50704 53.7099H8.85204C11.674 53.7099 14.51 53.56 17.314 53.56H27.792C28.052 53.56 28.4211 53.63 28.6771 53.56C28.9381 53.48 28.5111 52.0199 28.4971 51.8799C28.3941 50.8399 28.317 49.81 28.317 48.77V45.3699C28.317 43.1699 28.0391 40.7799 28.3491 38.6299C28.441 37.9899 30.0731 37.26 30.5961 36.9C31.2821 36.42 31.733 35.8599 32.301 35.2499C33.058 34.4399 33.3341 33.4799 33.3341 32.3899C33.3341 28.3799 31.1061 23.9 26.9881 22.78C24.3571 22.06 21.4811 21.9799 18.7981 21.4799C17.1711 21.1699 15.4891 21.15 13.8151 21.28L9.13106 21.9699C6.50506 22.4799 4.53004 23.64 3.22704 25.42C0.38804 29.31 -0.413962 34.4999 4.92504 38.0899Z" fill="url(#paint0_radial_53654_3408)"/>
<path d="M5.52343 54.1857L5.52636 54.1749L5.71386 53.4659L5.52343 54.1857ZM32.584 32.7296C32.5839 29.0349 30.5935 25.0969 27.1309 23.9464L26.791 23.8439L26.79 23.8429L26.9521 23.2521L27.0459 22.9083L26.79 23.8429C25.5298 23.498 24.1979 23.3039 22.8193 23.132C21.4573 22.9621 20.0316 22.8121 18.6611 22.5568L18.8242 21.6808L18.7978 21.8195L18.6611 22.5568H18.6572C17.1228 22.2645 15.5191 22.2405 13.8945 22.3654L9.2666 23.047C6.79353 23.5188 5.00194 24.6036 3.83203 26.2013C2.47724 28.0576 1.65806 30.1623 1.75879 32.17C1.85746 34.1356 2.84324 36.1227 5.33398 37.8009C5.56164 37.9491 5.7998 38.1526 5.9873 38.4064C6.17407 38.6592 6.33886 39.0029 6.33886 39.4103V39.4191L6.1914 51.9386L6.18847 51.9376C6.18827 52.045 6.17716 52.245 6.16699 52.4181C6.15428 52.6346 6.14105 52.893 6.13476 53.1427C6.13299 53.2131 6.13314 53.2807 6.13281 53.3449C6.22982 53.3245 6.36567 53.3 6.50683 53.2999H8.85156C10.2509 53.2999 11.6564 53.2623 13.0703 53.2247C14.4807 53.1873 15.901 53.1495 17.3144 53.1495H27.792C27.8415 53.1495 27.8912 53.153 27.9385 53.1554C27.9067 52.999 27.8715 52.8411 27.8389 52.7052C27.821 52.6308 27.8022 52.5564 27.7891 52.5001L27.751 52.2941C27.6469 51.2437 27.5674 50.1852 27.5674 49.1095V45.7101C27.5674 44.6195 27.4986 43.521 27.4668 42.34C27.4357 41.1862 27.4423 39.9978 27.6064 38.8536V38.8517C27.6682 38.4288 27.9531 38.1149 28.1533 37.9279C28.3784 37.7176 28.6535 37.5265 28.9102 37.3644C29.1705 37.1999 29.4425 37.0465 29.668 36.9191C29.9048 36.7852 30.0676 36.6915 30.165 36.6251C30.7675 36.2036 31.1341 35.7313 31.7529 35.0773C32.3484 34.44 32.584 33.6813 32.584 32.7296ZM47.083 32.8302C47.083 33.7724 46.9953 34.5791 46.7549 35.3634C46.5144 36.1481 46.1326 36.8718 45.5908 37.6632L44.9453 38.631C44.2836 39.6272 43.5482 40.68 42.5264 41.5118L42.5254 41.5109C42.3638 41.643 42.1872 41.7634 42.0459 41.8595C41.8921 41.9641 41.7719 42.0471 41.6709 42.131C41.4676 42.2999 41.4746 42.3638 41.4746 42.38L41.6143 52.9005C41.6189 53.2675 41.3565 53.5842 40.9951 53.6486C38.9721 54.009 38.0625 54.2751 36.6367 54.4318C35.1972 54.5899 33.1755 54.6479 28.7471 54.6486C28.535 54.6867 28.3305 54.6825 28.1943 54.6749C27.9709 54.6625 27.8992 54.6495 27.792 54.6495H17.3144C15.9241 54.6495 14.5234 54.6872 13.1094 54.7247C11.6989 54.7622 10.2741 54.7999 8.85156 54.7999H6.50683C6.52156 54.7999 6.50474 54.7985 6.42968 54.8146C6.35373 54.8309 6.28798 54.8483 6.17578 54.8751C6.08055 54.8979 5.95497 54.9272 5.82715 54.9425C5.71504 54.9559 5.52922 54.9675 5.33105 54.9132V54.9152C5.32434 54.9134 5.31808 54.9102 5.31152 54.9083H5.30859C5.08333 54.8417 4.94389 54.6963 4.87109 54.5958C4.79644 54.4928 4.75561 54.3898 4.73242 54.3204C4.68586 54.1812 4.66511 54.0335 4.65332 53.9161C4.62872 53.6712 4.62797 53.3746 4.63476 53.1046C4.64173 52.8282 4.65707 52.549 4.66992 52.3302C4.67648 52.2186 4.6825 52.127 4.68652 52.0529L4.6914 51.9454V51.921L4.83886 39.4103L4.833 39.3878C4.82603 39.3692 4.81081 39.3393 4.78027 39.298C4.72027 39.2168 4.62583 39.1304 4.51562 39.0587L4.50683 39.0529C1.66586 37.1426 0.385085 34.742 0.259763 32.2452C0.13649 29.788 1.13688 27.3512 2.62109 25.3175L2.62207 25.3165C4.0565 23.3572 6.21209 22.1035 8.98535 21.5743L10.1484 21.3556C11.318 21.1479 12.522 20.9733 13.7353 20.8732L20.7959 19.8478C22.3564 19.6233 23.9323 19.5011 25.5088 19.4806C27.9814 19.4408 30.5797 19.4063 33.0811 19.8829C35.974 20.4326 39.4352 21.83 42.1904 23.9816C44.9453 26.133 47.083 29.1159 47.083 32.8302ZM34.084 32.7296C34.084 33.9579 33.767 35.119 32.8486 36.1017L32.2422 35.5343L32.3008 35.59L32.8486 36.1017L32.8457 36.1056L32.4521 36.5324C32.048 36.9748 31.6028 37.4513 31.0264 37.8546L30.5742 37.2081L30.6416 37.3058L31.0264 37.8546L31.0215 37.8575L30.7324 38.0382C30.6262 38.1006 30.5136 38.164 30.4062 38.2247C30.1759 38.355 29.9363 38.4913 29.7119 38.6329C29.484 38.7769 29.3008 38.9087 29.1777 39.0236C29.1245 39.0733 29.0974 39.1084 29.084 39.1261C28.9462 40.1247 28.9369 41.191 28.9668 42.2999C28.9965 43.4039 29.0674 44.6008 29.0674 45.7101V49.1095C29.0674 50.1045 29.1397 51.0977 29.2402 52.1173C29.2419 52.1252 29.2453 52.1385 29.25 52.1583C29.2618 52.2088 29.2769 52.2716 29.2969 52.3546C29.3352 52.514 29.3854 52.726 29.4268 52.9396C29.4393 53.0047 29.4495 53.0747 29.4609 53.1456C33.3999 53.1387 35.2019 53.0801 36.4727 52.9406C37.705 52.8052 38.3961 52.61 40.1055 52.2892L39.9756 42.3898L39.9746 42.38C39.9746 41.6962 40.3839 41.2499 40.7129 40.9767C40.8782 40.8394 41.0577 40.7175 41.2021 40.6193C41.3584 40.513 41.4778 40.4319 41.5781 40.3497L41.5791 40.3488L41.7891 40.17C42.5373 39.5058 43.0892 38.7091 43.6807 37.8204L44.3535 36.8156C44.8383 36.1074 45.1371 35.5214 45.3203 34.924C45.5036 34.326 45.583 33.6776 45.583 32.8302C45.583 29.7445 43.8139 27.1518 41.2676 25.1632C38.8806 23.2992 35.8884 22.0335 33.3105 21.462L32.8008 21.3566C30.4743 20.9133 28.0284 20.9394 25.5332 20.9796H25.5303L25.5225 20.3361L25.5195 20.129L25.5303 20.9796C24.0178 20.9992 22.5072 21.1159 21.0107 21.3312L21.0117 21.3322L20.7744 21.3663C21.5043 21.4626 22.2478 21.5482 23.0059 21.6427C24.3935 21.8158 25.8151 22.0216 27.1855 22.3966C31.7495 23.6379 34.0839 28.5236 34.084 32.7296Z" fill="#1A1A1A"/>
<path d="M11.6105 35.2019C14.1843 33.5022 17.5412 33.5806 20.0333 35.3933C20.3683 35.6369 20.442 36.1062 20.1984 36.4411C19.9547 36.7761 19.4855 36.8498 19.1505 36.6062C17.1622 35.1602 14.4842 35.0988 12.4327 36.4558L11.9386 35.7077L12.4279 36.4587L12.1671 36.6286C11.8201 36.8545 11.3561 36.7559 11.13 36.4089C10.904 36.0618 11.0017 35.5979 11.3488 35.3718L11.6095 35.2019H11.6105ZM12.4327 36.4558L12.4288 36.4587L12.0187 35.8298L12.4327 36.4558Z" fill="#D9D9D9"/>
<path d="M18.796 31.2046C19.235 31.2046 19.591 31.5605 19.591 31.9996C19.591 32.4387 19.235 32.7946 18.796 32.7946C18.3569 32.7946 18.001 32.4387 18.001 31.9996C18.001 31.5605 18.3569 31.2046 18.796 31.2046Z" fill="#D9D9D9"/>
<path d="M11.796 31.2048C11.3569 31.2048 11.001 31.5608 11.001 31.9998C11.001 32.4389 11.3569 32.7948 11.796 32.7948C12.235 32.7948 12.591 32.4389 12.591 31.9998C12.591 31.5608 12.235 31.2048 11.796 31.2048Z" fill="#D9D9D9"/>
<defs>
<radialGradient id="paint0_radial_53654_3408" cx="0" cy="0" r="1" gradientUnits="userSpaceOnUse" gradientTransform="translate(17.1671 37.5399) rotate(90) scale(28.2716 27.9893)">
<stop offset="0.174858" stop-color="#2C2C2C"/>
<stop offset="1" stop-color="#A55E40"/>
</radialGradient>
</defs>
</svg>
