<svg width="48" height="55" viewBox="0 0 48 55" fill="none" xmlns="http://www.w3.org/2000/svg">
<path d="M28.4969 52.2199C28.5109 52.3599 28.9379 53.8199 28.6769 53.8999C37.6439 53.8999 36.654 53.6599 40.864 52.9099L40.7249 42.3799C40.7249 41.6799 41.5279 41.36 42.0529 40.93C43.3059 39.91 44.0739 38.5499 44.9719 37.2399C45.9989 35.7399 46.3329 34.6199 46.3329 32.8299C46.3329 26.0299 38.5199 21.6799 32.9409 20.6199C29.7709 20.0099 26.413 20.2499 23.2 20.2499L13.8149 21.6199C15.4889 21.4899 17.1709 21.5099 18.7979 21.8199C21.4809 22.3199 24.3569 22.3999 26.9879 23.1199C31.1059 24.2399 33.334 28.7199 33.334 32.7299C33.334 33.8199 33.0579 34.7799 32.3009 35.5899C31.7329 36.1899 31.2819 36.7599 30.5959 37.2399C30.0729 37.5999 28.4409 38.3299 28.3489 38.9599C28.0389 41.1199 28.3169 43.5099 28.3169 45.7099V49.1099C28.3169 50.1499 28.3939 51.1799 28.4969 52.2199Z" fill="#A55E40"/>
<path d="M4.92504 38.0899C5.26304 38.3199 5.58904 38.6699 5.58904 39.0699C5.58904 41.3499 5.54305 43.6699 5.32705 45.9399C5.14605 47.8199 5.40206 49.7199 5.44106 51.5999C5.44606 51.8399 5.25806 53.7799 5.52306 53.8499C5.75806 53.9199 6.23604 53.7099 6.50704 53.7099H8.85204C11.674 53.7099 14.51 53.56 17.314 53.56H27.792C28.052 53.56 28.4211 53.63 28.6771 53.56C28.9381 53.48 28.5111 52.0199 28.4971 51.8799C28.3941 50.8399 28.317 49.81 28.317 48.77V45.3699C28.317 43.1699 28.0391 40.7799 28.3491 38.6299C28.441 37.9899 30.0731 37.26 30.5961 36.9C31.2821 36.42 31.733 35.8599 32.301 35.2499C33.058 34.4399 33.3341 33.4799 33.3341 32.3899C33.3341 28.3799 31.1061 23.9 26.9881 22.78C24.3571 22.06 21.4811 21.9799 18.7981 21.4799C17.1711 21.1699 15.4891 21.15 13.8151 21.28L9.13106 21.9699C6.50506 22.4799 4.53004 23.64 3.22704 25.42C0.38804 29.31 -0.413962 34.4999 4.92504 38.0899Z" fill="#F8E9E2"/>
<path d="M7.00326 34.9899C7.02326 32.9699 7.34628 30.9598 7.65728 28.9498C7.66428 28.8398 7.68226 28.7199 7.71026 28.6099C8.14226 26.9099 11.0123 25.8099 12.8993 25.1699C14.0343 24.7799 15.0613 24.7299 16.2933 24.7299C17.0673 24.7299 17.8103 24.6999 18.5483 24.8999C19.7133 25.2099 20.6113 25.6099 21.6213 26.1299C22.9603 26.8299 24.2363 27.6198 25.2313 28.5898C25.7003 29.0498 25.8313 29.6099 25.9033 30.1699C26.0273 31.1199 25.9973 32.0799 25.9973 33.0299C25.9973 36.4599 25.8613 39.8098 25.0663 43.1898C24.7403 44.5798 24.0153 45.8399 23.3333 47.1399C22.9383 47.8899 22.4913 48.6099 21.8333 49.2599C21.2523 49.8299 20.3723 50.2799 19.6143 50.7199C18.0673 51.5999 16.7223 52.0499 14.7823 51.9999C13.8293 51.9699 12.9433 51.7299 12.1293 51.3799C9.07027 50.0499 8.69626 47.1598 8.12026 44.8198C7.85226 43.7298 7.45028 42.6299 7.32928 41.5299C7.09028 39.3599 6.98126 37.1699 7.00326 34.9899Z" fill="#EBA611"/>
<path d="M13.0278 24.763C13.4429 24.735 14.3566 24.7195 15.0649 25.3402L15.0659 25.3392C15.0675 25.3405 15.0683 25.3427 15.0698 25.3441C15.0712 25.3453 15.0733 25.3458 15.0747 25.347L15.0737 25.348C16.1161 26.2645 15.9246 27.5199 15.7241 28.1576C15.5098 28.8392 15.118 29.4419 14.9028 29.7533L14.8979 29.7591L13.77 28.9701L13.6841 28.9105L14.8979 29.7591C13.9747 31.0796 13.0702 32.3074 12.2729 33.5912L10.9995 32.8001L10.936 32.7611L12.2729 33.5912C12.0159 34.0045 11.8449 34.4184 11.7544 34.8499C11.9053 34.7965 12.0763 34.7191 12.2886 34.6117C12.5733 34.4673 12.8099 34.3014 13.0151 34.1087L13.0161 34.1078C13.0272 34.0829 13.0827 33.9545 13.1294 33.8578C13.1869 33.7386 13.2665 33.5898 13.3794 33.431L13.6548 33.0687C14.3201 32.2464 15.124 31.5852 15.6694 31.0745C16.1859 30.5903 16.8871 29.8843 17.4897 29.3382L18.4526 30.4007L18.3481 30.2845L17.4897 29.3382L17.4956 29.3333L18.4097 28.513C18.7407 28.2259 19.0988 27.9341 19.481 27.6703L19.6958 27.5316C20.4876 27.0583 21.3286 26.967 21.9731 26.9554L22.5864 26.9603L22.7856 26.9681C23.7791 27.0305 25.1932 27.4784 25.7583 28.9222L25.814 29.0755L25.8149 29.0775C26.1686 30.1429 25.9825 31.1362 25.6636 31.9242C25.354 32.6887 24.8812 33.3548 24.5239 33.8353L24.5229 33.8343C23.4567 35.2783 22.0004 36.7236 20.9956 37.889L20.9946 37.89L20.6079 38.3402C20.2032 38.8092 19.7422 39.3234 19.2144 39.7855C18.8137 40.1381 18.3919 40.4768 18.0288 40.7747C17.7459 41.0069 17.4852 41.2255 17.2427 41.4476L17.0054 41.6722C16.0052 42.6513 15.0213 43.7247 14.147 44.805L14.1479 44.806C13.682 45.3894 13.359 46.106 13.2593 46.7874C13.2578 46.798 13.2568 46.8084 13.2554 46.8187C13.2831 46.8063 13.3137 46.7957 13.3442 46.7806C13.4814 46.7129 13.6243 46.628 13.769 46.5335C14.8238 45.8376 15.8243 45.0752 16.6538 44.2298L17.1489 43.7103C17.6722 43.1523 18.2751 42.5018 18.9146 41.9574C19.1529 41.7533 19.5557 41.3885 19.9058 41.1068C20.2827 40.8034 20.7555 40.4621 21.3032 40.224L21.3052 40.223C21.4766 40.1487 21.9244 39.9371 22.3667 39.807C22.781 39.6851 23.552 39.5162 24.3276 39.8558L24.5815 39.9828C25.7725 40.6616 25.9953 42.0246 26.0063 42.8011C26.0192 43.7058 25.7827 44.7474 25.3208 45.4554C24.8775 46.1389 24.4524 46.8264 24.0229 47.5306L24.02 47.5345C23.9009 47.7286 23.7686 47.9137 23.6714 48.0501C23.5632 48.2019 23.4866 48.31 23.4224 48.4134C23.3807 48.4805 23.3551 48.5295 23.3394 48.5628C23.3509 48.5679 23.3621 48.573 23.3755 48.5775C24.161 48.8408 24.5841 49.6914 24.3208 50.4769C24.0574 51.2622 23.2077 51.6854 22.4224 51.4222C21.9575 51.2664 21.5948 51.0229 21.3716 50.8617L21.1968 50.7337L21.1899 50.7298L21.1841 50.7259L22.0493 49.5003L22.0552 49.4896L21.1841 50.7259C20.9425 50.5554 20.7248 50.3307 20.5649 50.0433C20.4075 49.7602 20.3452 49.4857 20.3208 49.2689C20.2982 49.0678 20.3059 48.8866 20.3101 48.7933C20.3156 48.6684 20.3179 48.6404 20.3179 48.5902C20.3179 47.8248 20.6329 47.2182 20.8745 46.8294C20.9975 46.6316 21.1311 46.4462 21.229 46.3089C21.3377 46.1565 21.4076 46.056 21.4634 45.9652C21.8991 45.2507 22.3403 44.5388 22.8042 43.8236L22.8091 43.8167C22.8091 43.8167 22.827 43.7883 22.853 43.724C22.8787 43.6604 22.9063 43.577 22.9312 43.4779C22.9818 43.2754 23.0102 43.0498 23.0073 42.8441C23.0069 42.814 23.004 42.7856 23.0024 42.7591C22.968 42.7726 22.9313 42.7871 22.8931 42.8031C22.7441 42.8655 22.6664 42.9038 22.4976 42.9769C22.3096 43.0589 22.0797 43.2078 21.7866 43.4437C21.4671 43.7008 21.2317 43.9232 20.8618 44.2396L20.8599 44.2425C20.1386 44.8566 19.626 45.4827 18.7964 46.3294L18.7954 46.3304C17.7626 47.3832 16.5714 48.2794 15.4146 49.0423L15.4087 49.0462L14.5894 47.7904L14.5815 47.7787L15.4087 49.0462C15.0146 49.3034 14.4059 49.6606 13.7085 49.8265C12.97 50.0022 11.9843 49.9875 11.1265 49.2699C10.5123 48.7571 10.3121 48.078 10.2524 47.5853C10.194 47.1029 10.2491 46.6432 10.2896 46.3587L10.3296 46.1175C10.5462 44.9447 11.0879 43.8308 11.8042 42.9339L11.8101 42.9271C12.7622 41.7499 13.8252 40.5863 14.9067 39.5277L15.2134 39.2376C15.522 38.9549 15.8326 38.6957 16.1255 38.4554C16.5301 38.1234 16.8837 37.8409 17.2329 37.5335L17.2368 37.5306L18.0444 38.4554L18.2241 38.6595L17.2368 37.5306C17.4898 37.3093 17.7213 37.0714 17.9595 36.8079L18.7231 35.93C19.9932 34.4569 21.1136 33.4034 22.1128 32.0492L22.1167 32.0453L22.3589 31.7103C22.5862 31.3848 22.7671 31.0853 22.8833 30.7982C23.0219 30.4556 23.0269 30.2294 22.9741 30.0492C22.9712 30.0475 22.9681 30.0453 22.9644 30.0433C22.8953 30.0064 22.7513 29.963 22.5474 29.9603C22.124 29.9549 21.8591 29.9523 21.6206 29.9857C21.413 30.0148 21.2928 30.0645 21.1987 30.1302L21.1909 30.1351C20.627 30.5234 20.1543 30.9768 19.5034 31.5609C18.8705 32.1344 18.4204 32.6084 17.7212 33.264L16.144 31.5814L16.7544 32.2337L17.7212 33.264L17.7202 33.265C16.976 33.9618 16.4459 34.3859 16.0073 34.9281L15.8247 35.1693C15.8354 35.1542 15.8534 35.1125 15.7583 35.3265C15.6754 35.513 15.5196 35.8448 15.2036 36.1683L15.1968 36.1761L15.189 36.1839L15.0112 36.3529C14.5917 36.7358 14.1322 37.0405 13.645 37.2874C12.8408 37.6948 11.9896 38.025 10.8188 37.9349C10.4298 37.9083 9.70952 37.8128 9.18701 37.2064C8.68608 36.6248 8.67725 35.9154 8.67725 35.6097C8.67729 34.3729 9.0023 33.248 9.60205 32.2132L9.7251 32.0081C10.5782 30.6346 11.5696 29.2848 12.4351 28.0472C12.4706 27.9957 12.5068 27.939 12.5444 27.8802C12.5259 27.8848 12.5071 27.8892 12.4888 27.8939L12.4761 27.8978L12.1343 26.4896L12.104 26.3665L12.4761 27.8978C11.8361 28.0535 11.2807 28.3819 10.6616 28.9105C9.8445 29.6084 9.14787 30.3976 8.47412 31.3109L8.46631 31.3216L8.46533 31.3206C8.37718 31.438 8.27396 31.5636 8.20947 31.6429C8.13346 31.7364 8.08025 31.8043 8.0376 31.8646C8.03055 31.8746 8.0237 31.8836 8.01807 31.8919C8.0178 31.9077 8.01835 31.9229 8.01807 31.9339C8.01797 31.9378 8.01738 31.9445 8.01709 31.9525C8.01694 31.9566 8.01749 31.9637 8.01709 31.972C8.01681 31.9778 8.01505 31.9964 8.01318 32.0199C8.01235 32.0303 8.01052 32.0563 8.00635 32.0892C8.00428 32.1055 7.9998 32.1368 7.99268 32.1751C7.98851 32.1976 7.97098 32.2946 7.92822 32.4124C7.90091 32.4822 7.80901 32.6656 7.73779 32.7747C7.57454 32.9663 6.97182 33.3305 6.52002 33.4007C6.06426 33.3302 5.45482 32.9585 5.28955 32.7611C5.21859 32.6495 5.12685 32.4624 5.1001 32.391C5.05857 32.2707 5.04325 32.1717 5.03955 32.1497C5.03304 32.1111 5.02865 32.0802 5.02686 32.0638C5.02105 32.0106 5.02017 31.9672 5.02002 31.9632C5.01949 31.9506 5.01917 31.9401 5.01904 31.9349C5.01846 31.91 5.01807 31.8805 5.01807 31.8704C5.01807 31.85 5.02018 31.8292 5.021 31.8089C5.02044 31.8181 5.02015 31.8247 5.02002 31.8275C5.01966 31.835 5.01916 31.8409 5.01904 31.8441V31.8412C5.01923 31.8297 5.01977 31.8149 5.02002 31.7982C5.0205 31.7662 5.02136 31.7253 5.02197 31.6917C5.02227 31.6753 5.02252 31.6572 5.02295 31.641C5.02316 31.6331 5.02345 31.621 5.02393 31.6087C5.02416 31.6026 5.02428 31.5928 5.0249 31.5814C5.02526 31.5748 5.02766 31.5494 5.03076 31.5169C5.09097 30.8884 5.39813 30.4022 5.58838 30.1331C5.69331 29.9848 5.80118 29.8501 5.88232 29.7503C5.97502 29.6363 6.02457 29.5765 6.06787 29.5189C6.83802 28.4762 7.684 27.5084 8.71338 26.6292C9.5432 25.9206 10.5099 25.2921 11.7554 24.9867C12.0189 24.9201 12.5118 24.7979 13.0278 24.763ZM6.64795 31.6722L7.7915 31.7816L6.53467 31.6605L6.64795 31.6722ZM14.0796 26.4701L13.0952 27.599L14.106 26.4388L14.0796 26.4701Z" fill="#FF24BD"/>
<path d="M5.52343 54.1857L5.52636 54.1749L5.71386 53.4659L5.52343 54.1857ZM32.584 32.7296C32.5839 29.0349 30.5935 25.0969 27.1309 23.9464L26.791 23.8439L26.79 23.8429L26.9521 23.2521L27.0459 22.9083L26.79 23.8429C25.5298 23.498 24.1979 23.3039 22.8193 23.132C21.4573 22.9621 20.0316 22.8121 18.6611 22.5568L18.8242 21.6808L18.7978 21.8195L18.6611 22.5568H18.6572C17.1228 22.2645 15.5191 22.2405 13.8945 22.3654L9.2666 23.047C6.79353 23.5188 5.00194 24.6036 3.83203 26.2013C2.47724 28.0576 1.65806 30.1623 1.75879 32.17C1.85746 34.1356 2.84324 36.1227 5.33398 37.8009C5.56164 37.9491 5.7998 38.1526 5.9873 38.4064C6.17407 38.6592 6.33886 39.0029 6.33886 39.4103V39.4191L6.1914 51.9386L6.18847 51.9376C6.18827 52.045 6.17716 52.245 6.16699 52.4181C6.15428 52.6346 6.14105 52.893 6.13476 53.1427C6.13299 53.2131 6.13314 53.2807 6.13281 53.3449C6.22982 53.3245 6.36567 53.3 6.50683 53.2999H8.85156C10.2509 53.2999 11.6564 53.2623 13.0703 53.2247C14.4807 53.1873 15.901 53.1495 17.3144 53.1495H27.792C27.8415 53.1495 27.8912 53.153 27.9385 53.1554C27.9067 52.999 27.8715 52.8411 27.8389 52.7052C27.821 52.6308 27.8022 52.5564 27.7891 52.5001L27.751 52.2941C27.6469 51.2437 27.5674 50.1852 27.5674 49.1095V45.7101C27.5674 44.6195 27.4986 43.521 27.4668 42.34C27.4357 41.1862 27.4423 39.9978 27.6064 38.8536V38.8517C27.6682 38.4288 27.9531 38.1149 28.1533 37.9279C28.3784 37.7176 28.6535 37.5265 28.9102 37.3644C29.1705 37.1999 29.4425 37.0465 29.668 36.9191C29.9048 36.7852 30.0676 36.6915 30.165 36.6251C30.7675 36.2036 31.1341 35.7313 31.7529 35.0773C32.3484 34.44 32.584 33.6813 32.584 32.7296ZM47.083 32.8302C47.083 33.7724 46.9953 34.5791 46.7549 35.3634C46.5144 36.1481 46.1326 36.8718 45.5908 37.6632L44.9453 38.631C44.2836 39.6272 43.5482 40.68 42.5264 41.5118L42.5254 41.5109C42.3638 41.643 42.1872 41.7634 42.0459 41.8595C41.8921 41.9641 41.7719 42.0471 41.6709 42.131C41.4676 42.2999 41.4746 42.3638 41.4746 42.38L41.6143 52.9005C41.6189 53.2675 41.3565 53.5842 40.9951 53.6486C38.9721 54.009 38.0625 54.2751 36.6367 54.4318C35.1972 54.5899 33.1755 54.6479 28.7471 54.6486C28.535 54.6867 28.3305 54.6825 28.1943 54.6749C27.9709 54.6625 27.8992 54.6495 27.792 54.6495H17.3144C15.9241 54.6495 14.5234 54.6872 13.1094 54.7247C11.6989 54.7622 10.2741 54.7999 8.85156 54.7999H6.50683C6.52156 54.7999 6.50474 54.7985 6.42968 54.8146C6.35373 54.8309 6.28798 54.8483 6.17578 54.8751C6.08055 54.8979 5.95497 54.9272 5.82715 54.9425C5.71504 54.9559 5.52922 54.9675 5.33105 54.9132V54.9152C5.32434 54.9134 5.31808 54.9102 5.31152 54.9083H5.30859C5.08333 54.8417 4.94389 54.6963 4.87109 54.5958C4.79644 54.4928 4.75561 54.3898 4.73242 54.3204C4.68586 54.1812 4.66511 54.0335 4.65332 53.9161C4.62872 53.6712 4.62797 53.3746 4.63476 53.1046C4.64173 52.8282 4.65707 52.549 4.66992 52.3302C4.67648 52.2186 4.6825 52.127 4.68652 52.0529L4.6914 51.9454V51.921L4.83886 39.4103L4.833 39.3878C4.82603 39.3692 4.81081 39.3393 4.78027 39.298C4.72027 39.2168 4.62583 39.1304 4.51562 39.0587L4.50683 39.0529C1.66586 37.1426 0.385085 34.742 0.259763 32.2452C0.13649 29.788 1.13688 27.3512 2.62109 25.3175L2.62207 25.3165C4.0565 23.3572 6.21209 22.1035 8.98535 21.5743L10.1484 21.3556C11.318 21.1479 12.522 20.9733 13.7353 20.8732L20.7959 19.8478C22.3564 19.6233 23.9323 19.5011 25.5088 19.4806C27.9814 19.4408 30.5797 19.4063 33.0811 19.8829C35.974 20.4326 39.4352 21.83 42.1904 23.9816C44.9453 26.133 47.083 29.1159 47.083 32.8302ZM34.084 32.7296C34.084 33.9579 33.767 35.119 32.8486 36.1017L32.2422 35.5343L32.3008 35.59L32.8486 36.1017L32.8457 36.1056L32.4521 36.5324C32.048 36.9748 31.6028 37.4513 31.0264 37.8546L30.5742 37.2081L30.6416 37.3058L31.0264 37.8546L31.0215 37.8575L30.7324 38.0382C30.6262 38.1006 30.5136 38.164 30.4062 38.2247C30.1759 38.355 29.9363 38.4913 29.7119 38.6329C29.484 38.7769 29.3008 38.9087 29.1777 39.0236C29.1245 39.0733 29.0974 39.1084 29.084 39.1261C28.9462 40.1247 28.9369 41.191 28.9668 42.2999C28.9965 43.4039 29.0674 44.6008 29.0674 45.7101V49.1095C29.0674 50.1045 29.1397 51.0977 29.2402 52.1173C29.2419 52.1252 29.2453 52.1385 29.25 52.1583C29.2618 52.2088 29.2769 52.2716 29.2969 52.3546C29.3352 52.514 29.3854 52.726 29.4268 52.9396C29.4393 53.0047 29.4495 53.0747 29.4609 53.1456C33.3999 53.1387 35.2019 53.0801 36.4727 52.9406C37.705 52.8052 38.3961 52.61 40.1055 52.2892L39.9756 42.3898L39.9746 42.38C39.9746 41.6962 40.3839 41.2499 40.7129 40.9767C40.8782 40.8394 41.0577 40.7175 41.2021 40.6193C41.3584 40.513 41.4778 40.4319 41.5781 40.3497L41.5791 40.3488L41.7891 40.17C42.5373 39.5058 43.0892 38.7091 43.6807 37.8204L44.3535 36.8156C44.8383 36.1074 45.1371 35.5214 45.3203 34.924C45.5036 34.326 45.583 33.6776 45.583 32.8302C45.583 29.7445 43.8139 27.1518 41.2676 25.1632C38.8806 23.2992 35.8884 22.0335 33.3105 21.462L32.8008 21.3566C30.4743 20.9133 28.0284 20.9394 25.5332 20.9796H25.5303L25.5225 20.3361L25.5195 20.129L25.5303 20.9796C24.0178 20.9992 22.5072 21.1159 21.0107 21.3312L21.0117 21.3322L20.7744 21.3663C21.5043 21.4626 22.2478 21.5482 23.0059 21.6427C24.3935 21.8158 25.8151 22.0216 27.1855 22.3966C31.7495 23.6379 34.0839 28.5236 34.084 32.7296Z" fill="#1A1A1A"/>
<path d="M19.4248 34.8618C19.7718 34.6356 20.2367 34.7335 20.4629 35.0806C20.6888 35.4275 20.5909 35.8915 20.2441 36.1177L19.9824 36.2876C17.4083 37.9874 14.0511 37.9089 11.5586 36.0962C11.2238 35.8525 11.15 35.3832 11.3936 35.0483C11.6372 34.7135 12.1065 34.6397 12.4414 34.8833C14.43 36.3294 17.1085 36.3916 19.1602 35.0347L19.1641 35.0317L19.4248 34.8618Z" fill="#1A1A1A"/>
<path d="M18.796 31.2046C19.235 31.2046 19.591 31.5605 19.591 31.9996C19.591 32.4387 19.235 32.7946 18.796 32.7946C18.3569 32.7946 18.001 32.4387 18.001 31.9996C18.001 31.5605 18.3569 31.2046 18.796 31.2046Z" fill="#1A1A1A"/>
<path d="M11.796 31.2048C11.3569 31.2048 11.001 31.5608 11.001 31.9998C11.001 32.4389 11.3569 32.7948 11.796 32.7948C12.235 32.7948 12.591 32.4389 12.591 31.9998C12.591 31.5608 12.235 31.2048 11.796 31.2048Z" fill="#1A1A1A"/>
</svg>
