<svg width="48" height="55" viewBox="0 0 48 55" fill="none" xmlns="http://www.w3.org/2000/svg">
<path d="M28.4971 52.2199C28.5112 52.3599 28.9377 53.8199 28.6775 53.8999C37.6445 53.8999 36.6544 53.6599 40.8645 52.9099L40.7254 42.3799C40.7254 41.6799 41.5281 41.36 42.0537 40.93C43.3061 39.91 44.074 38.5499 44.9725 37.2399C45.9994 35.7399 46.3335 34.6199 46.3335 32.8299C46.3335 26.0299 38.5205 21.6799 32.941 20.6199C29.771 20.0099 26.4134 20.2499 23.2006 20.2499L13.8154 21.6199C15.4892 21.4899 17.1712 21.5099 18.7977 21.8199C21.4812 22.3199 24.3574 22.3999 26.9885 23.1199C31.1064 24.2399 33.3345 28.7199 33.3345 32.7299C33.3345 33.8199 33.0578 34.7799 32.3015 35.5899C31.7336 36.1899 31.2821 36.7599 30.5961 37.2399C30.0734 37.5999 28.4414 38.3299 28.3495 38.9599C28.0395 41.1199 28.3167 43.5099 28.3167 45.7099V49.1099C28.3167 50.1499 28.3946 51.1799 28.4971 52.2199Z" fill="#A55E40"/>
<path d="M4.92483 38.0899C5.26333 38.3199 5.58895 38.6699 5.58895 39.0699C5.58895 41.3499 5.5432 43.6699 5.32658 45.9399C5.14628 47.8199 5.40177 49.7199 5.44137 51.5999C5.44643 51.8399 5.25816 53.7799 5.52336 53.8499C5.7579 53.9199 6.23578 53.7099 6.50724 53.7099H8.85215C11.6742 53.7099 14.5105 53.56 17.3135 53.56H27.7918C28.0517 53.56 28.4211 53.63 28.6773 53.56C28.9375 53.48 28.511 52.0199 28.4969 51.8799C28.3944 50.8399 28.3165 49.81 28.3165 48.77V45.3699C28.3165 43.1699 28.0393 40.7799 28.3493 38.6299C28.4412 37.9899 30.0732 37.26 30.5959 36.9C31.2819 36.42 31.7334 35.8599 32.3013 35.2499C33.0576 34.4399 33.3343 33.4799 33.3343 32.3899C33.3343 28.3799 31.1062 23.9 26.9883 22.78C24.3572 22.06 21.481 21.9799 18.7975 21.4799C17.171 21.1699 15.489 21.15 13.8152 21.28L9.13092 21.9699C6.50514 22.4799 4.52988 23.64 3.2273 25.42C0.387594 29.31 -0.41351 34.4999 4.92483 38.0899Z" fill="#F8E9E2"/>
<path d="M32.584 32.7297C32.5839 28.9158 30.4628 24.8426 26.791 23.844L26.79 23.843L26.9883 23.1203L27.0547 22.8762L26.79 23.843C25.5298 23.4981 24.1979 23.304 22.8193 23.132C21.6274 22.9834 20.3866 22.8506 19.1768 22.6486L18.6602 22.5568H18.6572L18.79 21.8586L18.793 21.842L18.6572 22.5568C17.1232 22.2645 15.5191 22.2405 13.8945 22.3654L9.26661 23.0471C6.79321 23.519 5.0015 24.6043 3.83204 26.2024C2.47721 28.0585 1.65804 30.1626 1.7588 32.1701C1.85753 34.1357 2.84348 36.1228 5.33399 37.801L5.4922 37.9133C5.87711 38.2057 6.33888 38.7181 6.33888 39.4104V39.4191L6.19142 51.9387L6.18946 51.9377C6.18926 52.0453 6.17815 52.2452 6.16798 52.4182C6.15525 52.6347 6.14108 52.893 6.13477 53.1428C6.133 53.2132 6.13315 53.2808 6.13282 53.3449C6.2299 53.3246 6.3657 53.3001 6.50684 53.3H8.85255C10.2518 53.3 11.6566 53.2624 13.0703 53.2248C14.4807 53.1874 15.9004 53.1496 17.3135 53.1496H27.792C27.8412 53.1496 27.8906 53.1531 27.9375 53.1555C27.9057 52.9991 27.8705 52.8412 27.8379 52.7053C27.8201 52.631 27.8022 52.5564 27.7891 52.5002C27.7813 52.467 27.7588 52.3725 27.751 52.2951V52.2932C27.6476 51.2437 27.5664 50.1855 27.5664 49.1096V45.7102C27.5664 44.6194 27.4984 43.5211 27.4668 42.34C27.436 41.1862 27.4423 39.9978 27.6065 38.8537L27.6074 38.8518C27.6691 38.4289 27.9531 38.115 28.1533 37.9279C28.3784 37.7176 28.6536 37.5265 28.9102 37.3645C29.1705 37.2 29.4426 37.0466 29.668 36.9191C29.905 36.7851 30.0678 36.6915 30.165 36.6252C30.7686 36.2029 31.1365 35.7298 31.7568 35.0744C32.3496 34.4376 32.584 33.6792 32.584 32.7297ZM4.51661 39.0588L4.50587 39.0529L4.92481 38.4299L4.51661 39.0588ZM47.083 32.8303C47.083 33.7725 46.9953 34.5791 46.7549 35.3635C46.5143 36.1482 46.1326 36.8719 45.5908 37.6633L44.9258 37.2082L44.9727 37.2404L45.5908 37.6633V37.6643L44.9453 38.6311C44.2835 39.6272 43.5487 40.6801 42.5274 41.5119C42.3656 41.6441 42.1875 41.7633 42.0459 41.8596C41.8922 41.9641 41.7728 42.0472 41.6719 42.1311C41.4682 42.3002 41.4756 42.3638 41.4756 42.3801L41.6143 52.8996L40.8633 52.9094L40.8643 52.9104L41.6143 52.8996C41.6191 53.2667 41.3575 53.5842 40.9961 53.6486C38.9726 54.0091 38.0628 54.2752 36.6367 54.4318C35.1972 54.59 33.1757 54.648 28.7471 54.6486C28.5351 54.6867 28.3306 54.6826 28.1943 54.675C27.971 54.6625 27.8991 54.6496 27.792 54.6496H17.3135C15.9238 54.6496 14.5241 54.6873 13.1104 54.7248C11.6999 54.7623 10.2751 54.8 8.85255 54.8H6.50684C6.52136 54.8 6.50462 54.7986 6.4297 54.8147C6.3538 54.8309 6.28788 54.8484 6.17579 54.8752C6.0806 54.898 5.95496 54.9273 5.82716 54.9426C5.71537 54.956 5.52998 54.9674 5.33204 54.9133V54.9152C5.32607 54.9137 5.32031 54.9111 5.31446 54.9094C5.31268 54.9089 5.31039 54.9089 5.3086 54.9084V54.9074C5.08377 54.8409 4.94494 54.6963 4.87208 54.5959C4.79734 54.4929 4.75564 54.3899 4.73243 54.3205C4.68585 54.1813 4.66512 54.0335 4.65333 53.9162C4.62873 53.6712 4.62796 53.3746 4.63477 53.1047C4.64176 52.8282 4.65707 52.549 4.66993 52.3303C4.67649 52.2186 4.68251 52.127 4.68653 52.0529C4.69069 51.9763 4.69127 51.9473 4.69142 51.9455C4.69125 51.9374 4.69132 51.9292 4.69142 51.9211L4.83888 39.4104L4.83204 39.3879C4.82504 39.3693 4.81068 39.3392 4.78028 39.2981C4.72045 39.2171 4.62671 39.1304 4.51661 39.0588L4.94044 38.4065L4.50587 39.052C1.66559 37.1417 0.385144 34.7419 0.259775 32.2453C0.136443 29.7881 1.13653 27.3513 2.6211 25.3176L2.62208 25.3166C4.057 23.3559 6.21481 22.102 8.99024 21.5734C10.5154 21.2721 12.1174 21.0068 13.7354 20.8732L20.7959 19.8479H20.7969C22.3574 19.6233 23.9323 19.5012 25.5088 19.4807V19.4797C27.9818 19.4399 30.5801 19.4064 33.0811 19.883L33.6299 19.9963C36.4042 20.6106 39.6084 21.9645 42.1914 23.9816C44.9462 26.133 47.083 29.1162 47.083 32.8303ZM34.084 32.7297C34.084 33.9583 33.7668 35.1194 32.8496 36.1018L32.8457 36.1057L32.3106 35.5988L32.3008 35.59L32.8457 36.1057C32.3303 36.6502 31.7946 37.3171 31.0264 37.8547L30.5742 37.2082L30.6416 37.3059L31.0264 37.8547L31.0215 37.8576L30.7324 38.0383C30.6262 38.1007 30.5136 38.1641 30.4063 38.2248C30.1759 38.3551 29.9363 38.4913 29.7119 38.633C29.4839 38.777 29.3008 38.9087 29.1777 39.0236C29.1244 39.0735 29.0974 39.1086 29.084 39.1262C28.9462 40.1248 28.9372 41.1911 28.9668 42.3C28.9963 43.4039 29.0664 44.601 29.0664 45.7102V49.1096C29.0664 50.1038 29.1402 51.0965 29.2402 52.1164C29.2419 52.1242 29.2452 52.1378 29.25 52.1584C29.2618 52.2089 29.277 52.2717 29.2969 52.3547C29.3352 52.5142 29.3855 52.7269 29.4268 52.9406C29.4393 53.0056 29.4495 53.075 29.4609 53.1457C33.4 53.1387 35.2019 53.0802 36.4727 52.9406C37.705 52.8053 38.3962 52.6101 40.1055 52.2893L39.9756 42.3899V42.3801C39.9756 41.6964 40.3838 41.2501 40.7129 40.9768C40.8782 40.8395 41.0577 40.7176 41.2022 40.6193C41.3583 40.5132 41.4776 40.432 41.5781 40.3498L42.1357 41.0315L42.0537 40.9299L41.5781 40.3498L41.5801 40.3488C42.7232 39.4179 43.4052 38.1983 44.3535 36.8156C44.8384 36.1073 45.1381 35.5216 45.3213 34.924C45.5046 34.326 45.583 33.6777 45.583 32.8303C45.583 29.7446 43.814 27.1518 41.2676 25.1633C38.8806 23.2993 35.8886 22.0336 33.3106 21.4621L32.8008 21.3566C30.4749 20.9134 28.0286 20.9395 25.5332 20.9797L25.5156 19.883L25.5205 20.2297L25.5332 20.9797H25.5303C24.0178 20.9993 22.5072 21.1159 21.0108 21.3313L21.0117 21.3322L20.7744 21.3664C21.5042 21.4627 22.2471 21.5483 23.0049 21.6428C24.3929 21.8159 25.8158 22.0216 27.1865 22.3967H27.1856C31.7491 23.6382 34.0839 28.5238 34.084 32.7297Z" fill="#1A1A1A"/>
<path d="M19.4248 34.8618C19.7718 34.6356 20.2367 34.7335 20.4629 35.0806C20.6888 35.4275 20.5909 35.8915 20.2441 36.1177L19.9824 36.2876C17.4083 37.9874 14.0511 37.9089 11.5586 36.0962C11.2238 35.8525 11.15 35.3832 11.3936 35.0483C11.6372 34.7135 12.1065 34.6397 12.4414 34.8833C14.43 36.3294 17.1085 36.3916 19.1602 35.0347L19.1641 35.0317L19.4248 34.8618Z" fill="#1A1A1A"/>
<path d="M18.795 31.2034C19.2341 31.2034 19.59 31.5593 19.59 31.9984C19.59 32.4374 19.2341 32.7934 18.795 32.7934C18.3559 32.7934 18 32.4374 18 31.9984C18 31.5593 18.3559 31.2034 18.795 31.2034Z" fill="#1A1A1A"/>
<path d="M11.795 31.2036C11.3559 31.2036 11 31.5595 11 31.9986C11 32.4377 11.3559 32.7936 11.795 32.7936C12.2341 32.7936 12.59 32.4377 12.59 31.9986C12.59 31.5595 12.2341 31.2036 11.795 31.2036Z" fill="#1A1A1A"/>
</svg>
