<svg width="48" height="55" viewBox="0 0 48 55" fill="none" xmlns="http://www.w3.org/2000/svg">
<path d="M18.3148 17.01C18.0845 16.2187 17.2491 15.7372 16.4489 15.9346C15.6487 16.132 15.1867 16.9335 15.417 17.7249L19.5828 32.0372C19.8131 32.8286 20.6485 33.31 21.4487 33.1127C22.2489 32.9153 22.7109 32.1137 22.4805 31.3224L18.3148 17.01Z" fill="#A55E40"/>
<path d="M11 24.292L12.625 25.992C13.51 26.919 14.99 26.919 15.875 25.992C16.76 25.066 18.24 25.066 19.125 25.992C20.01 26.919 21.49 26.919 22.375 25.992C23.26 25.066 24.74 25.066 25.625 25.992L25.699 26.069C26.544 26.954 27.956 26.954 28.801 26.069L28.94 25.924C29.765 25.061 31.163 25.124 31.907 26.058C32.613 26.945 33.92 27.055 34.764 26.298L37 24.292L33.952 51.057C33.837 52.067 32.982 52.831 31.965 52.831H15.528C14.496 52.831 13.634 52.046 13.536 51.02L11 24.292Z" fill="#FFD966"/>
<path d="M25.5188 48.7552L23.7812 47.7649L21.9997 50.8907L23.7373 51.881L25.5188 48.7552Z" fill="#FFF1C2"/>
<path d="M27.5188 43.0103L25.7812 42.02L23.9997 45.1458L25.7373 46.1361L27.5188 43.0103Z" fill="#FFF1C2"/>
<path d="M28.3403 48.3353L26.3931 47.8789L25.5721 51.3818L27.5194 51.8382L28.3403 48.3353Z" fill="#FFF1C2"/>
<path d="M29.1473 43.0002L28.0918 44.699L31.1478 46.5978L32.2033 44.8991L29.1473 43.0002Z" fill="#FFF1C2"/>
<path d="M32.3096 38.9995L30.5439 39.939L32.2339 43.1152L33.9995 42.1758L32.3096 38.9995Z" fill="#FFF1C2"/>
<path d="M30.8059 47.2453L29.2207 48.4648L31.4145 51.3165L32.9997 50.097L30.8059 47.2453Z" fill="#FFF1C2"/>
<path d="M17.8738 45.49L16.8911 47.2319L20.0247 48.9997L21.0074 47.2577L17.8738 45.49Z" fill="#FFF1C2"/>
<path d="M15.8547 41.2717L14 42.02L15.3461 45.3565L17.2009 44.6082L15.8547 41.2717Z" fill="#FFF1C2"/>
<path d="M22.4803 42.5388L20.481 42.4878L20.3892 46.0845L22.3886 46.1355L22.4803 42.5388Z" fill="#FFF1C2"/>
<path d="M17.07 47.8093L15.1592 48.3999L16.2216 51.8373L18.1324 51.2467L17.07 47.8093Z" fill="#FFF1C2"/>
<path d="M38.6191 19.292H9.38091C8.61826 19.292 8 19.9103 8 20.6729C8 21.4356 8.61826 22.0538 9.38091 22.0538H38.6191C39.3818 22.0538 40 21.4356 40 20.6729C40 19.9103 39.3818 19.292 38.6191 19.292Z" fill="#1A1A1A"/>
<path d="M37.439 20.542C38.1784 20.542 38.767 21.181 38.6812 21.9307V21.9316C37.923 28.4693 36.4046 41.4412 35.4507 49.7705C35.1762 52.1723 33.144 53.9844 30.7271 53.9844H17.1353C15.0707 53.9844 13.2591 52.6218 12.9116 50.5146C11.8747 44.2318 10.2006 30.0609 9.31396 21.9199H9.31299L9.30615 21.7803C9.30697 21.09 9.87448 20.542 10.5571 20.542H37.439ZM10.8354 22.042C11.7302 30.2293 13.3748 44.1068 14.3921 50.2705L14.4429 50.5117C14.7496 51.6926 15.8193 52.4844 17.1353 52.4844H30.7271C32.3819 52.4844 33.7717 51.2436 33.9595 49.5996H33.9604C34.9009 41.3878 36.3896 28.662 37.1577 22.042H10.8354Z" fill="#1A1A1A"/>
<path d="M26.5042 36.355C26.7997 36.065 27.2745 36.0695 27.5648 36.3648C27.8548 36.6602 27.8503 37.1351 27.555 37.4253L27.4329 37.5455L27.431 37.5464L26.9075 37.0103L26.848 36.9498L27.431 37.5464C25.7507 39.1869 23.0489 39.1217 21.4505 37.4009C21.1686 37.0975 21.1861 36.6223 21.4896 36.3404C21.793 36.0585 22.2682 36.076 22.5501 36.3794C23.5748 37.4826 25.3061 37.5247 26.3831 36.4732V36.4742L26.5042 36.355Z" fill="#1A1A1A"/>
<path d="M29.1916 33.293C29.8516 33.293 30.3866 33.7855 30.3866 34.393C30.3866 35.0005 29.8516 35.493 29.1916 35.493C28.5316 35.493 27.9966 35.0005 27.9966 34.393C27.9966 33.7855 28.5316 33.293 29.1916 33.293Z" fill="#1A1A1A"/>
<path d="M19.2013 33.293C18.5414 33.293 18.0063 33.7855 18.0063 34.393C18.0063 35.0005 18.5414 35.493 19.2013 35.493C19.8613 35.493 20.3963 35.0005 20.3963 34.393C20.3963 33.7855 19.8613 33.293 19.2013 33.293Z" fill="#1A1A1A"/>
</svg>
