<svg width="48" height="55" viewBox="0 0 48 55" fill="none" xmlns="http://www.w3.org/2000/svg">
<path d="M18.3148 17.01C18.0845 16.2187 17.2491 15.7372 16.4489 15.9346C15.6487 16.132 15.1867 16.9335 15.417 17.7249L19.5828 32.0372C19.8131 32.8286 20.6485 33.31 21.4487 33.1127C22.2489 32.9153 22.7109 32.1137 22.4805 31.3224L18.3148 17.01Z" fill="#603A2A"/>
<path d="M11 24.292L12.625 25.992C13.5103 26.919 14.9897 26.919 15.875 25.992C16.7603 25.066 18.2397 25.066 19.125 25.992C20.0103 26.919 21.4897 26.919 22.375 25.992C23.2603 25.066 24.7397 25.066 25.625 25.992L25.6986 26.069C26.5438 26.954 27.9562 26.954 28.8014 26.069L28.9401 25.924C29.7652 25.061 31.1625 25.124 31.9065 26.058C32.6128 26.945 33.92 27.055 34.764 26.298L37 24.292L33.952 51.057C33.8369 52.067 32.9818 52.831 31.9648 52.831H15.5275C14.4961 52.831 13.6339 52.046 13.5365 51.02L11 24.292Z" fill="#EBB49D"/>
<path d="M23.5831 50.5029C23.4781 50.6319 23.3608 50.747 23.2372 50.848C22.6196 51.354 21.422 51.493 20.6519 51.242C18.2723 50.465 18.1272 46.678 20.5279 46.056C20.5872 46.041 20.6428 46.0289 20.6938 46.0219C21.0629 46.0099 21.3912 46.036 21.6823 46.09C23.54 46.44 24.759 49.0559 23.5831 50.5029Z" fill="#603A2A"/>
<path d="M20.6808 45.6225C21.0763 45.6096 21.4335 45.6371 21.755 45.6967L21.6671 46.1733L21.6827 46.0903L21.755 45.6967H21.7569C22.8464 45.9021 23.7071 46.7571 24.1358 47.7231C24.5374 48.6278 24.6005 49.7296 24.0187 50.5873L23.8937 50.7553C23.7703 50.9069 23.6329 51.0402 23.4903 51.1567L23.4913 51.1576C23.1063 51.4731 22.5734 51.6524 22.0577 51.725C21.5391 51.7981 20.9838 51.7708 20.5284 51.6225L20.7765 50.8618C21.0911 50.9642 21.5196 50.9932 21.9464 50.933C22.3764 50.8724 22.7519 50.729 22.9845 50.5385C23.0889 50.4532 23.1861 50.3566 23.2726 50.2504L23.3546 50.141C23.7366 49.5769 23.734 48.79 23.4044 48.0473C23.0532 47.2563 22.3765 46.6276 21.6085 46.4828V46.4819C21.3552 46.435 21.065 46.4114 20.7345 46.4203C20.7063 46.4249 20.6709 46.4324 20.6261 46.4438L20.6251 46.4428C19.6582 46.6949 19.1677 47.5868 19.1974 48.5785C19.2272 49.574 19.7839 50.5377 20.7765 50.8618L20.5274 51.6225C19.1407 51.1695 18.435 49.8506 18.3976 48.603C18.3601 47.3526 18.9961 46.0394 20.4278 45.6684H20.4298C20.4958 45.6517 20.5679 45.6353 20.6397 45.6254L20.6808 45.6225L20.6925 46.018L20.6935 46.0219L20.6808 45.6225Z" fill="#F3D6C9"/>
<path d="M31.3842 52.0519C31.2027 52.0419 31.0271 52.0119 30.8605 51.9669C30.0069 51.7349 29.1779 50.751 29.0028 49.913C28.5134 47.57 31.5519 45.6309 33.4678 47.1719C33.5496 47.2379 33.6175 47.3019 33.671 47.3619C33.8998 47.6899 34.0608 48.001 34.1679 48.293C34.794 49.995 33.239 52.1519 31.3842 52.0519Z" fill="#603A2A"/>
<path d="M30.1225 46.7465C31.1683 46.0944 32.5982 45.9581 33.7192 46.8598V46.8608L33.854 46.977L33.9702 47.0961L33.9995 47.1332C34.2456 47.4861 34.4233 47.8273 34.5434 48.1547C34.9135 49.1608 34.6307 50.2647 34.0297 51.0844C33.4655 51.8537 32.5764 52.4335 31.5668 52.4545L31.3627 52.4516L31.2055 52.4379C31.0504 52.4208 30.8999 52.3918 30.7563 52.353L30.561 52.2895C30.1116 52.1191 29.7012 51.797 29.3784 51.4321C29.0085 51.0139 28.7168 50.4974 28.6118 49.9946C28.3247 48.6201 29.0791 47.3973 30.1225 46.7465ZM33.2172 47.4828C32.4225 46.844 31.3752 46.9076 30.5454 47.4252C29.7129 47.9445 29.1927 48.863 29.395 49.8315C29.4651 50.1665 29.6754 50.5607 29.977 50.9018C30.2795 51.2438 30.6371 51.4911 30.9653 51.5805C31.1069 51.6187 31.2549 51.6444 31.4067 51.6528H31.4057C32.1672 51.6938 32.9014 51.27 33.3842 50.6118C33.8677 49.9525 34.0484 49.1269 33.7924 48.4311C33.7008 48.1811 33.5615 47.9079 33.3588 47.6137C33.3237 47.5761 33.2774 47.5314 33.2172 47.4828Z" fill="#F3D6C9"/>
<path d="M32.7614 48.3108C32.7126 48.4698 32.6464 48.6198 32.5689 48.7588C32.18 49.4578 31.1015 50.0058 30.2783 50.0298C27.7788 50.1008 26.2616 46.6408 28.2518 45.2168C28.3069 45.1768 28.3596 45.1438 28.4089 45.1168C28.7543 44.9768 29.0748 44.8888 29.3704 44.8408C31.228 44.5418 33.3 46.5538 32.7614 48.3108Z" fill="#603A2A"/>
<path d="M29.5111 44.4206C30.5316 44.3341 31.5471 44.8185 32.2484 45.5222C32.9948 46.2712 33.4711 47.3609 33.1439 48.4285C33.086 48.6168 33.0081 48.7928 32.9183 48.9538C32.6739 49.3927 32.2371 49.7512 31.7767 49.9997C31.3131 50.25 30.7769 50.4152 30.2904 50.4294C28.8394 50.4706 27.7058 49.4893 27.2142 48.3415C26.7218 47.192 26.8266 45.7451 28.0199 44.8913C28.0875 44.8424 28.1537 44.8011 28.2171 44.7663C28.2307 44.7589 28.2448 44.7516 28.2591 44.7458C28.6303 44.5954 28.98 44.4991 29.307 44.446L29.5111 44.4206ZM31.681 46.0876C31.0633 45.4678 30.2036 45.1112 29.4339 45.2351C29.1759 45.277 28.8921 45.355 28.5814 45.4792C28.5524 45.4961 28.5203 45.5163 28.4866 45.5408L28.4847 45.5427L28.2786 45.2536L28.2532 45.2185L28.4847 45.5427C27.6881 46.1129 27.5561 47.1085 27.9495 48.0271C28.3439 48.9473 29.2187 49.6602 30.2669 49.6306C30.6035 49.6208 31.0182 49.5001 31.3968 49.2956C31.7785 49.0895 32.0755 48.8241 32.22 48.5642L32.3089 48.3835C32.3356 48.3218 32.3594 48.2587 32.3792 48.1941C32.5906 47.5046 32.3003 46.7091 31.681 46.0876Z" fill="#F3D6C9"/>
<path d="M18.7614 47.3108C18.7126 47.4698 18.6464 47.6198 18.5689 47.7588C18.18 48.4578 17.1015 49.0058 16.2783 49.0298C13.7788 49.1008 12.2616 45.6408 14.2518 44.2168C14.3069 44.1768 14.3596 44.1438 14.4089 44.1168C14.7543 43.9768 15.0748 43.8888 15.3704 43.8408C17.228 43.5418 19.3 45.5538 18.7614 47.3108Z" fill="#603A2A"/>
<path d="M15.5111 43.4206C16.5316 43.3341 17.5471 43.8185 18.2484 44.5222C18.9948 45.2712 19.4711 46.3609 19.1439 47.4285C19.086 47.6168 19.0081 47.7928 18.9183 47.9538C18.6739 48.3927 18.2371 48.7512 17.7767 48.9997C17.3131 49.25 16.7769 49.4152 16.2904 49.4294C14.8394 49.4706 13.7058 48.4893 13.2142 47.3415C12.7218 46.192 12.8266 44.7451 14.0199 43.8913C14.0875 43.8424 14.1537 43.8011 14.2171 43.7663C14.2307 43.7589 14.2448 43.7516 14.2591 43.7458C14.6303 43.5954 14.98 43.4991 15.307 43.446L15.5111 43.4206ZM17.681 45.0876C17.0633 44.4678 16.2036 44.1112 15.4339 44.2351C15.1759 44.277 14.8921 44.355 14.5814 44.4792C14.5524 44.496 14.5203 44.5163 14.4866 44.5408L14.4847 44.5427L14.2786 44.2536L14.2532 44.2185L14.4847 44.5427C13.6881 45.1129 13.5561 46.1085 13.9495 47.0271C14.3439 47.9473 15.2187 48.6602 16.2669 48.6306C16.6035 48.6208 17.0182 48.5001 17.3968 48.2956C17.7785 48.0895 18.0755 47.8241 18.22 47.5642L18.3089 47.3835C18.3356 47.3218 18.3594 47.2587 18.3792 47.1941C18.5906 46.5046 18.3003 45.7091 17.681 45.0876Z" fill="#F3D6C9"/>
<path d="M24.3842 49.0519C24.2027 49.0419 24.0271 49.0119 23.8605 48.9659C23.0069 48.7349 22.1779 47.751 22.0028 46.913C21.5134 44.57 24.5519 42.6309 26.4678 44.1719C26.5496 44.2369 26.6175 44.3019 26.671 44.3619C26.8998 44.6899 27.0608 45.001 27.1679 45.293C27.794 46.995 26.239 49.1519 24.3842 49.0519Z" fill="#603A2A"/>
<path d="M23.1225 43.7465C24.1683 43.0944 25.5982 42.9581 26.7192 43.8598H26.7182C26.7671 43.8987 26.8131 43.9376 26.8549 43.977L26.9702 44.0961L26.9995 44.1332C27.2456 44.4861 27.4233 44.8273 27.5434 45.1547C27.9135 46.1608 27.6307 47.2647 27.0297 48.0844C26.4655 48.8537 25.5764 49.4335 24.5668 49.4545L24.3627 49.4516L24.2055 49.4379C24.0506 49.4208 23.9006 49.3907 23.7563 49.351C23.231 49.2088 22.7473 48.849 22.3784 48.4321C22.0085 48.014 21.7168 47.4974 21.6118 46.9946C21.3247 45.6201 22.0791 44.3973 23.1225 43.7465ZM26.2172 44.4838C25.4225 43.8446 24.3754 43.9075 23.5454 44.4252C22.7129 44.9445 22.1927 45.863 22.395 46.8315C22.4651 47.1665 22.6754 47.5608 22.977 47.9018C23.2796 48.2438 23.6372 48.4907 23.9653 48.5795L23.9672 48.5805C24.1074 48.6192 24.2549 48.6444 24.4067 48.6528H24.4057C25.1672 48.6938 25.9014 48.27 26.3842 47.6118C26.8677 46.9525 27.0484 46.1269 26.7924 45.4311C26.7008 45.1812 26.5615 44.9079 26.3588 44.6137C26.3229 44.575 26.2766 44.5304 26.2192 44.4848L26.2172 44.4838L26.4682 44.1723L26.4692 44.1703L26.2172 44.4838Z" fill="#F3D6C9"/>
<path d="M26.3842 52.0519C26.2027 52.0419 26.0271 52.0119 25.8605 51.9669C25.0069 51.7349 24.1779 50.751 24.0028 49.913C23.5134 47.57 26.5519 45.6309 28.4678 47.1719C28.5496 47.2379 28.6175 47.3019 28.671 47.3619C28.8998 47.6899 29.0608 48.001 29.1679 48.293C29.794 49.995 28.239 52.1519 26.3842 52.0519Z" fill="#603A2A"/>
<path d="M25.1225 46.7465C26.1683 46.0944 27.5982 45.9581 28.7192 46.8598V46.8608L28.854 46.977L28.9702 47.0961L28.9995 47.1332C29.2456 47.4861 29.4233 47.8273 29.5434 48.1547C29.9135 49.1608 29.6307 50.2647 29.0297 51.0844C28.4655 51.8537 27.5764 52.4335 26.5668 52.4545L26.3627 52.4516L26.2055 52.4379C26.0504 52.4208 25.8999 52.3918 25.7563 52.353L25.561 52.2895C25.1116 52.1191 24.7012 51.797 24.3784 51.4321C24.0085 51.0139 23.7168 50.4974 23.6118 49.9946C23.3247 48.6201 24.0791 47.3973 25.1225 46.7465ZM28.2172 47.4828C27.4225 46.844 26.3752 46.9076 25.5454 47.4252C24.7129 47.9445 24.1927 48.863 24.395 49.8315C24.4651 50.1665 24.6754 50.5607 24.977 50.9018C25.2795 51.2438 25.6371 51.4911 25.9653 51.5805C26.1069 51.6187 26.2549 51.6444 26.4067 51.6528H26.4057C27.1672 51.6938 27.9014 51.27 28.3842 50.6118C28.8677 49.9525 29.0484 49.1269 28.7924 48.4311C28.7008 48.1812 28.5615 47.9079 28.3588 47.6137C28.3237 47.5761 28.2774 47.5314 28.2172 47.4828Z" fill="#F3D6C9"/>
<path d="M16.2695 51.2847C16.1252 51.1707 15.9993 51.0447 15.8905 50.9107C15.3277 50.2167 15.2846 48.9178 15.6981 48.1368C16.8128 46.0298 20.3707 46.2717 20.9727 48.5917C21.0027 48.7077 21.019 48.8117 21.0243 48.9007C20.9985 49.3087 20.9259 49.6587 20.8208 49.9577C20.2269 51.6517 17.6958 52.4027 16.2695 51.2847Z" fill="#603A2A"/>
<path d="M18.5597 46.3053C19.709 46.3962 20.8526 47.0365 21.2833 48.2428L21.3605 48.4919L21.4025 48.6921C21.413 48.7563 21.4205 48.8186 21.424 48.8776C21.4249 48.8938 21.425 48.9103 21.424 48.9264C21.3961 49.3672 21.3168 49.7536 21.1984 50.0905L20.8214 49.9577L20.4435 49.8258V49.8249C20.533 49.5701 20.5971 49.2653 20.6222 48.902C20.6173 48.8456 20.6066 48.7741 20.5851 48.6911C20.3375 47.7393 19.4779 47.1806 18.4962 47.1032C17.5119 47.0256 16.5178 47.4435 16.0519 48.3239C15.8867 48.636 15.8011 49.0803 15.8273 49.5339C15.8537 49.989 15.989 50.397 16.2013 50.6589L16.3478 50.821C16.4003 50.873 16.4567 50.9229 16.5167 50.9704L16.6291 51.0524C17.2084 51.441 17.9999 51.5104 18.7453 51.2917C19.5404 51.0582 20.1996 50.5212 20.4435 49.8258L21.1984 50.0905C20.8483 51.0888 19.9449 51.7732 18.9699 52.0592C17.9944 52.3454 16.8622 52.2574 16.0226 51.5993L16.0216 51.5983C15.8537 51.4656 15.7069 51.3188 15.5802 51.1628C15.2299 50.7308 15.062 50.1426 15.0294 49.5798C14.9968 49.0151 15.0966 48.4188 15.3449 47.9499L15.4738 47.7282C16.1603 46.6613 17.4124 46.2148 18.5597 46.3053Z" fill="#F3D6C9"/>
<path d="M38.6191 19.292H9.38091C8.61825 19.292 8 19.9103 8 20.6729C8 21.4356 8.61825 22.0538 9.38091 22.0538H38.6191C39.3817 22.0538 40 21.4356 40 20.6729C40 19.9103 39.3817 19.292 38.6191 19.292Z" fill="#1A1A1A"/>
<path d="M37.4392 20.542C38.1767 20.5422 38.7687 21.1797 38.6813 21.9316C37.9234 28.4695 36.4032 41.4412 35.4499 49.7705C35.1749 52.172 33.1442 53.9842 30.7272 53.9844H17.1345C15.1346 53.9843 13.3734 52.706 12.9489 50.7109L12.9118 50.5146C12.0051 45.0173 10.6088 33.4807 9.68037 25.2285L9.31416 21.9199C9.23243 21.1663 9.82795 20.542 10.5573 20.542H37.4392ZM10.8366 22.042C11.7307 30.2291 13.3756 44.1068 14.3923 50.2705C14.609 51.5834 15.7312 52.4843 17.1345 52.4844H30.7272C32.3819 52.4842 33.7715 51.2437 33.9597 49.5996C34.8995 41.3878 36.3901 28.6619 37.1579 22.042H10.8366Z" fill="#1A1A1A"/>
<path d="M26.5042 36.3548C26.7997 36.0647 27.2745 36.0692 27.5648 36.3646C27.8548 36.66 27.8503 37.1349 27.555 37.4251L27.4329 37.5452L27.431 37.5462L26.9075 37.0101L26.848 36.9495L27.431 37.5462C25.7507 39.1866 23.0489 39.1215 21.4505 37.4007C21.1686 37.0972 21.1861 36.622 21.4896 36.3401C21.793 36.0582 22.2682 36.0757 22.5501 36.3792C23.5748 37.4824 25.3061 37.5244 26.3831 36.473V36.4739L26.5042 36.3548Z" fill="#1A1A1A"/>
<path d="M29.1852 33.2942C29.8452 33.2942 30.3802 33.7867 30.3802 34.3942C30.3802 35.0017 29.8452 35.4942 29.1852 35.4942C28.5253 35.4942 27.9902 35.0017 27.9902 34.3942C27.9902 33.7867 28.5253 33.2942 29.1852 33.2942Z" fill="#1A1A1A"/>
<path d="M19.195 33.2942C18.535 33.2942 18 33.7867 18 34.3942C18 35.0017 18.535 35.4942 19.195 35.4942C19.855 35.4942 20.39 35.0017 20.39 34.3942C20.39 33.7867 19.855 33.2942 19.195 33.2942Z" fill="#1A1A1A"/>
</svg>
