<svg width="48" height="55" viewBox="0 0 48 55" fill="none" xmlns="http://www.w3.org/2000/svg">
<path fill-rule="evenodd" clip-rule="evenodd" d="M18.023 23.1401C18.012 23.0901 18.0052 23.04 18.0031 23C17.967 22.19 18.2535 20.9101 18.8162 20.2801C19.3477 19.6901 20.8321 19.3 21.4329 19.97C21.5252 20.07 21.6209 20.1601 21.7163 20.2601C21.8113 20.3501 21.9061 20.4401 21.9969 20.5401C22.0719 20.6201 22.1411 20.73 22.2104 20.83C22.2955 20.96 22.3809 21.0801 22.4777 21.1701C22.5055 21.2001 22.5588 21.29 22.6167 21.38C22.7134 21.54 22.8229 21.7201 22.8476 21.6701C22.9532 21.4701 23.0375 21.2501 23.1221 21.0301C23.2272 20.7601 23.3329 20.48 23.481 20.23C24.0215 19.3 24.5382 18.4501 25.529 18.1401C26.5503 17.8101 27.8993 18.02 28.1688 19.36C28.2734 19.89 28.3399 20.36 28.3399 20.94C28.3399 21.01 28.3379 21.0901 28.3361 21.1601C28.3243 21.6301 28.3149 22 28.7976 21.58C29.6325 20.86 30.834 20.1 31.835 20.69C32.6742 21.18 32.9668 22.36 32.9973 23.35C41.0769 26.28 46.5 33.4401 46.5 39.5501C46.5 47.4501 38.2217 53.85 26.0714 53.85C13.9212 53.85 2.5 47.4501 2.5 39.5501C2.5 33.2901 9.1916 25.9201 18.023 23.1401Z" fill="#FFDFCC"/>
<path d="M18.023 23.14L18.2482 23.8499C18.6222 23.7299 18.8424 23.3499 18.7534 22.9699L18.023 23.14ZM32.9973 23.3499L32.2476 23.38C32.2571 23.68 32.4528 23.95 32.7416 24.06L32.9973 23.3499ZM17.2538 23.03C17.2581 23.13 17.2718 23.22 17.2926 23.31L18.7534 22.9699C18.7521 22.9599 18.7523 22.9599 18.7523 22.9599L17.2538 23.03ZM18.2585 19.78C17.8659 20.22 17.6136 20.82 17.462 21.37C17.3074 21.94 17.2317 22.54 17.2538 23.03L18.7523 22.9599C18.7384 22.6499 18.7878 22.21 18.9082 21.77C19.0315 21.33 19.2038 20.98 19.3739 20.79L18.2585 19.78ZM21.9906 19.4599C21.4298 18.8399 20.5731 18.81 19.9698 18.91C19.3457 19.02 18.6685 19.33 18.2585 19.78L19.3739 20.79C19.4955 20.65 19.8262 20.46 20.2273 20.39C20.6493 20.32 20.8351 20.4199 20.8752 20.4699L21.9906 19.4599ZM22.2405 19.7199C22.1426 19.6199 22.0641 19.5499 21.9906 19.4599L20.8752 20.4699C20.9862 20.5899 21.0992 20.7 21.1921 20.79L22.2405 19.7199ZM22.5547 20.04C22.445 19.92 22.3329 19.8099 22.2405 19.7199L21.1921 20.79C21.2897 20.89 21.3671 20.96 21.4392 21.04L22.5547 20.04ZM22.8316 20.41C22.7692 20.32 22.6707 20.17 22.5547 20.04L21.4392 21.04C21.4731 21.08 21.5129 21.14 21.5892 21.25L22.8316 20.41ZM22.9953 20.63C22.9684 20.61 22.9288 20.55 22.8316 20.41L21.5892 21.25C21.6622 21.36 21.7935 21.5599 21.9602 21.7199L22.9953 20.63ZM23.2569 20.9899C23.2297 20.9499 23.1959 20.8899 23.165 20.8399C23.151 20.8199 23.0842 20.72 22.9953 20.63L21.9602 21.7199C21.9467 21.6999 21.9362 21.69 21.9289 21.68C21.9214 21.68 21.9156 21.67 21.9115 21.66C21.9036 21.66 21.8977 21.65 21.8977 21.65C21.8959 21.64 21.8984 21.65 21.9068 21.66C21.9146 21.67 21.9243 21.6899 21.9365 21.7099C21.9487 21.7299 21.9617 21.75 21.9764 21.77L23.2569 20.9899ZM22.1805 21.3299C22.2255 21.2399 22.3107 21.12 22.4612 21.03C22.6187 20.94 22.7837 20.9199 22.9179 20.9399C23.1385 20.9599 23.274 21.0799 23.2913 21.0899C23.3566 21.1399 23.3855 21.19 23.3663 21.17C23.3453 21.14 23.3111 21.0799 23.2569 20.9899L21.9764 21.77C22.0189 21.84 22.0879 21.96 22.1519 22.05C22.1754 22.08 22.2423 22.17 22.3381 22.25C22.3707 22.28 22.5195 22.4 22.7512 22.43C22.8909 22.44 23.0609 22.4199 23.2228 22.3299C23.3776 22.2299 23.4666 22.11 23.5147 22.02L22.1805 21.3299ZM22.4222 20.76C22.335 20.99 22.2646 21.1699 22.1805 21.3299L23.5147 22.02C23.6418 21.77 23.74 21.51 23.822 21.3L22.4222 20.76ZM22.8334 19.8499C22.6497 20.1599 22.5236 20.5 22.4222 20.76L23.822 21.3C23.9308 21.02 24.0161 20.7999 24.1285 20.6099L22.8334 19.8499ZM25.3019 17.42C23.9944 17.84 23.3485 18.9699 22.8334 19.8499L24.1285 20.6099C24.6946 19.6399 25.082 19.0599 25.7562 18.8499L25.3019 17.42ZM28.9043 19.2199C28.7151 18.2699 28.1165 17.68 27.3845 17.42C26.695 17.17 25.9287 17.22 25.3019 17.42L25.7562 18.8499C26.1506 18.7199 26.5694 18.7199 26.8772 18.8299C27.1424 18.9199 27.353 19.11 27.4334 19.51L28.9043 19.2199ZM29.0899 20.9399C29.0899 20.2999 29.0149 19.7699 28.9043 19.2199L27.4334 19.51C27.5318 20 27.5899 20.4299 27.5899 20.9399H29.0899ZM29.0858 21.18C29.0877 21.11 29.0899 21.0199 29.0899 20.9399H27.5899C27.5899 20.9999 27.5882 21.07 27.5863 21.14L29.0858 21.18ZM28.3069 21.01C28.2649 21.05 28.2432 21.0599 28.2391 21.0699C28.2313 21.0699 28.2672 21.05 28.3384 21.03C28.4157 21.01 28.5603 20.99 28.7246 21.06C28.891 21.13 28.9859 21.2499 29.0319 21.3299C29.0734 21.3999 29.0853 21.4599 29.0853 21.4599C29.0874 21.4699 29.0857 21.4699 29.0843 21.4399C29.0812 21.3799 29.0827 21.31 29.0858 21.18L27.5863 21.14C27.5836 21.25 27.5795 21.39 27.5864 21.52C27.5918 21.62 27.6066 21.8599 27.7309 22.0799C27.8052 22.1999 27.9361 22.3599 28.1481 22.4499C28.358 22.5299 28.5578 22.5199 28.702 22.4799C28.9512 22.4199 29.1542 22.26 29.2883 22.15L28.3069 21.01ZM32.2139 20.04C31.4462 19.59 30.6368 19.6899 29.9815 19.9399C29.3352 20.1999 28.7503 20.63 28.3069 21.01L29.2883 22.15C29.6798 21.81 30.1131 21.4999 30.5265 21.3399C30.9309 21.1799 31.2228 21.1999 31.4561 21.3299L32.2139 20.04ZM33.7469 23.3299C33.7299 22.7799 33.6401 22.1499 33.4211 21.5699C33.2031 20.9899 32.8323 20.4 32.2139 20.04L31.4561 21.3299C31.6769 21.4599 31.8719 21.7099 32.0177 22.0999C32.1624 22.4799 32.2341 22.94 32.2476 23.38L33.7469 23.3299ZM32.7416 24.06C40.6083 26.91 45.75 33.84 45.75 39.55H47.25C47.25 33.05 41.5456 25.65 33.2529 22.65L32.7416 24.06ZM45.75 39.55C45.75 43.21 43.8351 46.58 40.4034 49.05C36.9663 51.53 32.0209 53.0999 26.0714 53.0999V54.5999C32.2722 54.5999 37.5411 52.97 41.2808 50.27C45.0258 47.57 47.25 43.78 47.25 39.55H45.75ZM26.0714 53.0999C20.1175 53.0999 14.3589 51.53 10.1113 49.02C5.8381 46.49 3.25 43.11 3.25 39.55H1.75C1.75 43.88 4.8724 47.66 9.3475 50.31C13.848 52.97 19.8751 54.5999 26.0714 54.5999V53.0999ZM3.25 39.55C3.25 36.67 4.7976 33.44 7.4978 30.55C10.1869 27.67 13.9566 25.1999 18.2482 23.8499L17.7978 22.42C13.258 23.85 9.2662 26.46 6.4016 29.53C3.5482 32.58 1.75 36.16 1.75 39.55H3.25Z" fill="#1A1A1A"/>
<path d="M28.4243 33.6623C28.7713 33.4362 29.2362 33.5341 29.4624 33.8811C29.6883 34.228 29.5904 34.692 29.2436 34.9182L28.9819 35.0881C26.4079 36.788 23.0506 36.7094 20.5581 34.8967C20.2233 34.6531 20.1495 34.1838 20.3931 33.8489C20.6367 33.5141 21.106 33.4403 21.4409 33.6838C23.4295 35.1299 26.108 35.1922 28.1597 33.8352L28.1636 33.8323L28.4243 33.6623Z" fill="#1A1A1A"/>
<path d="M27.7965 30.0051C28.2355 30.0051 28.5915 30.3611 28.5915 30.8001C28.5915 31.2392 28.2355 31.5951 27.7965 31.5951C27.3574 31.5951 27.0015 31.2392 27.0015 30.8001C27.0015 30.3611 27.3574 30.0051 27.7965 30.0051Z" fill="#1A1A1A"/>
<path d="M20.7965 30.0054C20.3574 30.0054 20.0015 30.3613 20.0015 30.8004C20.0015 31.2394 20.3574 31.5954 20.7965 31.5954C21.2355 31.5954 21.5915 31.2394 21.5915 30.8004C21.5915 30.3613 21.2355 30.0054 20.7965 30.0054Z" fill="#1A1A1A"/>
</svg>
