<svg width="48" height="55" viewBox="0 0 48 55" fill="none" xmlns="http://www.w3.org/2000/svg">
<path fill-rule="evenodd" clip-rule="evenodd" d="M18.023 23.1401C18.012 23.0901 18.005 23.04 18.003 23C17.967 22.19 18.253 20.9101 18.816 20.2801C19.348 19.6901 20.832 19.3 21.433 19.97C21.525 20.07 21.621 20.1601 21.716 20.2601C21.811 20.3501 21.906 20.4401 21.997 20.5401C22.072 20.6201 22.141 20.73 22.21 20.83C22.296 20.96 22.381 21.0801 22.478 21.1701C22.505 21.2001 22.559 21.29 22.617 21.38C22.713 21.54 22.823 21.7201 22.848 21.6701C22.953 21.4701 23.037 21.2501 23.122 21.0301C23.227 20.7601 23.333 20.48 23.481 20.23C24.022 19.3 24.538 18.4501 25.529 18.1401C26.55 17.8101 27.899 18.02 28.169 19.36C28.273 19.89 28.34 20.36 28.34 20.94C28.34 21.01 28.338 21.0901 28.336 21.1601C28.324 21.6301 28.315 22 28.798 21.58C29.633 20.86 30.834 20.1 31.835 20.69C32.674 21.18 32.967 22.36 32.997 23.35C41.077 26.28 46.5 33.4401 46.5 39.5501C46.5 47.4501 38.222 53.85 26.071 53.85C13.921 53.85 2.5 47.4501 2.5 39.5501C2.5 33.2901 9.19199 25.9201 18.023 23.1401Z" fill="#DAECDF"/>
<path d="M18.023 23.14L18.248 23.8499C18.622 23.7299 18.842 23.3499 18.753 22.9699L18.023 23.14ZM32.997 23.3499L32.248 23.38C32.257 23.68 32.453 23.95 32.742 24.06L32.997 23.3499ZM17.254 23.03C17.258 23.13 17.272 23.22 17.293 23.31L18.753 22.9699C18.752 22.9599 18.752 22.9599 18.752 22.9599L17.254 23.03ZM18.258 19.78C17.866 20.22 17.614 20.82 17.462 21.37C17.307 21.94 17.232 22.54 17.254 23.03L18.752 22.9599C18.738 22.6499 18.788 22.21 18.908 21.77C19.031 21.33 19.204 20.98 19.374 20.79L18.258 19.78ZM21.991 19.4599C21.43 18.8399 20.573 18.81 19.97 18.91C19.346 19.02 18.668 19.33 18.258 19.78L19.374 20.79C19.495 20.65 19.826 20.46 20.227 20.39C20.649 20.32 20.835 20.4199 20.875 20.4699L21.991 19.4599ZM22.241 19.7199C22.143 19.6199 22.064 19.5499 21.991 19.4599L20.875 20.4699C20.986 20.5899 21.099 20.7 21.192 20.79L22.241 19.7199ZM22.555 20.04C22.445 19.92 22.333 19.8099 22.241 19.7199L21.192 20.79C21.29 20.89 21.367 20.96 21.439 21.04L22.555 20.04ZM22.832 20.41C22.769 20.32 22.671 20.17 22.555 20.04L21.439 21.04C21.473 21.08 21.513 21.14 21.589 21.25L22.832 20.41ZM22.995 20.63C22.968 20.61 22.929 20.55 22.832 20.41L21.589 21.25C21.662 21.36 21.793 21.5599 21.96 21.7199L22.995 20.63ZM23.257 20.9899C23.23 20.9499 23.196 20.8899 23.165 20.8399C23.151 20.8199 23.084 20.72 22.995 20.63L21.96 21.7199C21.947 21.6999 21.936 21.69 21.929 21.68C21.921 21.68 21.916 21.67 21.911 21.66C21.904 21.66 21.899 21.65 21.898 21.65C21.896 21.64 21.898 21.65 21.907 21.66C21.915 21.67 21.924 21.6899 21.936 21.7099C21.949 21.7299 21.962 21.75 21.976 21.77L23.257 20.9899ZM22.18 21.3299C22.225 21.2399 22.311 21.12 22.461 21.03C22.619 20.94 22.784 20.9199 22.918 20.9399C23.138 20.9599 23.274 21.0799 23.291 21.0899C23.357 21.1399 23.385 21.19 23.366 21.17C23.345 21.14 23.311 21.0799 23.257 20.9899L21.976 21.77C22.019 21.84 22.088 21.96 22.152 22.05C22.175 22.08 22.242 22.17 22.338 22.25C22.371 22.28 22.52 22.4 22.751 22.43C22.891 22.44 23.061 22.4199 23.223 22.3299C23.378 22.2299 23.467 22.11 23.515 22.02L22.18 21.3299ZM22.422 20.76C22.335 20.99 22.265 21.1699 22.18 21.3299L23.515 22.02C23.642 21.77 23.74 21.51 23.822 21.3L22.422 20.76ZM22.833 19.8499C22.65 20.1599 22.524 20.5 22.422 20.76L23.822 21.3C23.931 21.02 24.016 20.7999 24.128 20.6099L22.833 19.8499ZM25.302 17.42C23.994 17.84 23.348 18.9699 22.833 19.8499L24.128 20.6099C24.695 19.6399 25.082 19.0599 25.756 18.8499L25.302 17.42ZM28.904 19.2199C28.715 18.2699 28.116 17.68 27.384 17.42C26.695 17.17 25.929 17.22 25.302 17.42L25.756 18.8499C26.151 18.7199 26.569 18.7199 26.877 18.8299C27.142 18.9199 27.353 19.11 27.433 19.51L28.904 19.2199ZM29.09 20.9399C29.09 20.2999 29.015 19.7699 28.904 19.2199L27.433 19.51C27.532 20 27.59 20.4299 27.59 20.9399H29.09ZM29.086 21.18C29.088 21.11 29.09 21.0199 29.09 20.9399H27.59C27.59 20.9999 27.588 21.07 27.586 21.14L29.086 21.18ZM28.307 21.01C28.265 21.05 28.243 21.0599 28.239 21.0699C28.231 21.0699 28.267 21.05 28.338 21.03C28.416 21.01 28.56 20.99 28.725 21.06C28.891 21.13 28.986 21.2499 29.032 21.3299C29.073 21.3999 29.084 21.4599 29.085 21.4599C29.087 21.4699 29.086 21.4699 29.084 21.4399C29.081 21.3799 29.083 21.31 29.086 21.18L27.586 21.14C27.584 21.25 27.58 21.39 27.586 21.52C27.592 21.62 27.607 21.8599 27.731 22.0799C27.805 22.1999 27.936 22.3599 28.148 22.4499C28.358 22.5299 28.558 22.5199 28.702 22.4799C28.951 22.4199 29.154 22.26 29.288 22.15L28.307 21.01ZM32.214 20.04C31.446 19.59 30.637 19.6899 29.982 19.9399C29.335 20.1999 28.75 20.63 28.307 21.01L29.288 22.15C29.68 21.81 30.113 21.4999 30.527 21.3399C30.931 21.1799 31.223 21.1999 31.456 21.3299L32.214 20.04ZM33.747 23.3299C33.73 22.7799 33.64 22.1499 33.421 21.5699C33.203 20.9899 32.832 20.4 32.214 20.04L31.456 21.3299C31.677 21.4599 31.872 21.7099 32.018 22.0999C32.162 22.4799 32.234 22.94 32.248 23.38L33.747 23.3299ZM32.742 24.06C40.608 26.91 45.75 33.84 45.75 39.55H47.25C47.25 33.05 41.546 25.65 33.253 22.65L32.742 24.06ZM45.75 39.55C45.75 43.21 43.835 46.58 40.403 49.05C36.966 51.53 32.021 53.0999 26.071 53.0999V54.5999C32.272 54.5999 37.541 52.97 41.281 50.27C45.026 47.57 47.25 43.78 47.25 39.55H45.75ZM26.071 53.0999C20.117 53.0999 14.359 51.53 10.111 49.02C5.83799 46.49 3.25 43.11 3.25 39.55H1.75C1.75 43.88 4.872 47.66 9.347 50.31C13.848 52.97 19.875 54.5999 26.071 54.5999V53.0999ZM3.25 39.55C3.25 36.67 4.798 33.44 7.498 30.55C10.187 27.67 13.957 25.1999 18.248 23.8499L17.798 22.42C13.258 23.85 9.26599 26.46 6.40199 29.53C3.54799 32.58 1.75 36.16 1.75 39.55H3.25Z" fill="#1A1A1A"/>
<path d="M28.4248 33.6623C28.7718 33.4362 29.2367 33.5341 29.4629 33.8811C29.6888 34.228 29.5909 34.692 29.2441 34.9182L28.9824 35.0881C26.4083 36.788 23.0511 36.7094 20.5586 34.8967C20.2238 34.6531 20.15 34.1838 20.3936 33.8489C20.6372 33.5141 21.1065 33.4403 21.4414 33.6838C23.43 35.1299 26.1085 35.1922 28.1602 33.8352L28.1641 33.8323L28.4248 33.6623Z" fill="#1A1A1A"/>
<path d="M27.797 30.0051C28.236 30.0051 28.592 30.3611 28.592 30.8001C28.592 31.2392 28.236 31.5951 27.797 31.5951C27.3579 31.5951 27.002 31.2392 27.002 30.8001C27.002 30.3611 27.3579 30.0051 27.797 30.0051Z" fill="#1A1A1A"/>
<path d="M20.797 30.0054C20.3579 30.0054 20.002 30.3613 20.002 30.8004C20.002 31.2394 20.3579 31.5954 20.797 31.5954C21.236 31.5954 21.592 31.2394 21.592 30.8004C21.592 30.3613 21.236 30.0054 20.797 30.0054Z" fill="#1A1A1A"/>
</svg>
