<svg width="48" height="55" viewBox="0 0 48 55" fill="none" xmlns="http://www.w3.org/2000/svg">
<path d="M39.028 37.3951C40.2916 38.7339 42.4013 38.7948 43.7401 37.5311C45.0788 36.2674 45.1397 34.1578 43.876 32.819C42.6123 31.4803 40.5027 31.4194 39.1639 32.6831C37.8252 33.9467 37.7643 36.0564 39.028 37.3951Z" fill="#FFD966" stroke="#1A1A1A" stroke-width="1.5"/>
<path d="M36.4389 42.567C37.7026 43.9058 39.8123 43.9666 41.151 42.703C42.4898 41.4393 42.5506 39.3297 41.287 37.9909C40.0233 36.6522 37.9136 36.5913 36.5749 37.8549C35.2362 39.1186 35.1753 41.2283 36.4389 42.567Z" fill="#85E0A3" stroke="#1A1A1A" stroke-width="1.5"/>
<path d="M29.6996 47.3247C31.4055 49.132 34.2536 49.2142 36.0609 47.5082C37.8682 45.8023 37.9504 42.9542 36.2444 41.1469C34.5385 39.3396 31.6904 39.2575 29.8831 40.9634C28.0758 42.6694 27.9936 45.5174 29.6996 47.3247Z" fill="#80CAFF" stroke="#1A1A1A" stroke-width="1.5"/>
<path d="M19.261 51.5623C21.6303 54.0724 25.586 54.1866 28.0961 51.8172C30.6063 49.4478 30.7204 45.4922 28.351 42.982C25.9817 40.4719 22.026 40.3578 19.5159 42.7271C17.0057 45.0965 16.8916 49.0521 19.261 51.5623Z" fill="#9747FF" stroke="#1A1A1A" stroke-width="1.5"/>
<path d="M8.2594 46.7066C11.2922 49.9196 16.3554 50.0657 19.5684 47.0329C22.7814 44.0001 22.9275 38.9369 19.8947 35.7239C16.8619 32.5109 11.7987 32.3648 8.58568 35.3976C5.37268 38.4304 5.2266 43.4936 8.2594 46.7066Z" fill="#FFAFA3" stroke="#1A1A1A" stroke-width="1.5"/>
<path d="M8.9286 35.761C12.8459 39.9111 19.3859 40.0997 23.536 36.1824C27.6861 32.265 27.8748 25.7251 23.9575 21.575C20.0401 17.4249 13.5002 17.2362 9.35006 21.1535C5.19996 25.0709 5.01125 31.6108 8.9286 35.761Z" fill="#F24822" stroke="#1A1A1A" stroke-width="1.5"/>
<path fill-rule="evenodd" clip-rule="evenodd" d="M2.33383 18.6366C3.87653 17.4535 5.71253 17.6062 7.23227 18.1453C8.30231 18.5251 9.29153 19.1212 10.0633 19.6971C14.4065 16.7296 20.3513 17.2137 24.1561 21.0379C25.0644 20.1964 26.4745 19.1304 28.0018 18.4666C29.611 17.7673 31.5916 17.418 33.1805 18.6366C33.509 18.8887 33.5711 19.3597 33.3192 19.6883C33.0671 20.0167 32.596 20.0789 32.2674 19.827C31.3453 19.1199 30.0564 19.2095 28.5995 19.8426C27.2481 20.4299 25.9599 21.4052 25.1424 22.1688C28.5192 26.62 28.0687 32.9932 23.9139 36.9159C23.4477 37.3559 22.9507 37.7451 22.4344 38.0887C22.7147 38.7378 22.9127 39.4134 23.0282 40.0995C24.8286 39.9859 26.6583 40.5667 28.0897 41.827C28.3221 41.4555 28.6058 41.1066 28.9393 40.7918C30.5247 39.2958 32.797 38.9793 34.6727 39.8104C34.8694 39.1377 35.2416 38.5058 35.7879 37.9901C36.4241 37.3899 37.2029 37.0341 38.0077 36.9188C37.1376 35.3289 37.4086 33.2934 38.7879 31.9911C40.4278 30.4438 43.0126 30.5176 44.5604 32.1571C46.1081 33.7968 46.0335 36.3815 44.3944 37.9295C43.7578 38.5304 42.9781 38.8855 42.1727 39.0008C43.0438 40.5907 42.7737 42.6268 41.3944 43.9295C40.3917 44.876 39.0363 45.2126 37.7801 44.9588C37.6956 46.2337 37.1493 47.4813 36.1473 48.4276C34.4787 50.0026 32.051 50.269 30.1239 49.2674C29.7727 50.3405 29.1559 51.344 28.2772 52.1737C25.4658 54.8273 21.0353 54.6989 18.3817 51.8875C17.8141 51.2862 17.3743 50.6106 17.0604 49.8944C13.9566 50.8823 10.4234 50.0904 8.03793 47.5633C4.94176 44.283 4.87704 39.2421 7.74008 35.8875C4.07026 31.426 4.43423 24.8215 8.69809 20.7967C8.74545 20.752 8.79468 20.7096 8.84262 20.6659C8.22879 20.2425 7.49636 19.8303 6.73031 19.5584C5.44204 19.1014 4.21394 19.0837 3.24594 19.826C2.91734 20.078 2.44728 20.0158 2.19516 19.6873C1.9435 19.3587 2.00532 18.8885 2.33383 18.6366ZM23.1473 41.5946C23.1375 43.9052 22.22 46.2081 20.4071 47.9198C19.8067 48.4865 19.1445 48.9489 18.4471 49.3133C18.6926 49.868 19.0325 50.392 19.4725 50.8582C21.5574 53.0669 25.038 53.1674 27.2469 51.0828C29.4553 48.9977 29.5564 45.5162 27.4715 43.3075C26.3097 42.0768 24.7142 41.5025 23.1473 41.5946ZM8.77524 36.9852C6.51081 39.7637 6.60198 43.857 9.12875 46.534C11.8772 49.4457 16.466 49.5774 19.3778 46.8289C21.612 44.7193 22.2059 41.5276 21.12 38.8407C17.0985 40.7809 12.1727 40.1385 8.77524 36.9852ZM35.2704 42.036C33.849 40.5305 31.4756 40.462 29.9696 41.8827C29.6208 42.2119 29.3508 42.594 29.1571 43.0028C30.1639 44.4017 30.5887 46.0806 30.4413 47.7157C31.8644 48.6808 33.8146 48.566 35.117 47.3368C36.6225 45.9151 36.6917 43.5419 35.2704 42.036ZM40.4696 39.1864C39.4906 38.1498 37.8556 38.1029 36.8182 39.0809C36.3533 39.5197 36.0871 40.0911 36.0233 40.6805C36.1392 40.7834 36.2528 40.8909 36.3612 41.0057C37.008 41.691 37.4328 42.5058 37.6414 43.3602C38.5451 43.7167 39.6122 43.5493 40.3651 42.8387C41.4015 41.8592 41.4486 40.2235 40.4696 39.1864ZM23.2743 22.2782C19.6414 18.4298 13.5762 18.2552 9.72738 21.8875C5.8789 25.5205 5.70325 31.5856 9.33578 35.4344C12.9688 39.2833 19.0347 39.458 22.8836 35.825C26.7319 32.192 26.907 26.1268 23.2743 22.2782ZM43.4696 33.1873C42.4904 32.1503 40.8557 32.1032 39.8182 33.0819C38.7809 34.061 38.733 35.6957 39.7118 36.7332C40.6911 37.7708 42.3276 37.818 43.3651 36.8387C44.4015 35.8594 44.4482 34.2245 43.4696 33.1873Z" fill="#1A1A1A"/>
<path d="M16.5493 26.1865C16.9912 26.1865 17.3493 26.5581 17.3493 27.0165C17.3493 27.4749 16.9912 27.8465 16.5493 27.8465C16.1075 27.8465 15.7493 27.4749 15.7493 27.0165C15.7493 26.5581 16.1075 26.1865 16.5493 26.1865Z" fill="#1A1A1A"/>
<path d="M10.5568 26.1865C10.115 26.1865 9.75684 26.5581 9.75684 27.0165C9.75684 27.4749 10.115 27.8465 10.5568 27.8465C10.9987 27.8465 11.3568 27.4749 11.3568 27.0165C11.3568 26.5581 10.9987 26.1865 10.5568 26.1865Z" fill="#1A1A1A"/>
<path d="M14.5714 27.8801C14.8626 27.5858 15.3375 27.5832 15.632 27.8743C15.9263 28.1655 15.9289 28.6403 15.6378 28.9348L15.5597 29.012L15.5607 29.0129C14.3486 30.2432 12.3486 30.1954 11.1974 28.9075C10.9214 28.5987 10.9482 28.1239 11.257 27.8479C11.5658 27.572 12.0405 27.5987 12.3165 27.9075C12.8905 28.5495 13.8876 28.574 14.4923 27.9602L14.4933 27.9592L14.5714 27.8801Z" fill="#1A1A1A"/>
<path d="M2.396 21.4705C3.29137 21.4705 4.01721 20.7446 4.01721 19.8492C4.01721 18.9539 3.29137 18.228 2.396 18.228C1.50062 18.228 0.77478 18.9539 0.77478 19.8492C0.77478 20.7446 1.50062 21.4705 2.396 21.4705Z" fill="#1A1A1A"/>
<path d="M33.396 21.4705C34.2914 21.4705 35.0172 20.7446 35.0172 19.8492C35.0172 18.9539 34.2914 18.228 33.396 18.228C32.5006 18.228 31.7748 18.9539 31.7748 19.8492C31.7748 20.7446 32.5006 21.4705 33.396 21.4705Z" fill="#1A1A1A"/>
</svg>
