<svg width="48" height="55" viewBox="0 0 48 55" fill="none" xmlns="http://www.w3.org/2000/svg">
<path d="M39.166 37.2487C40.4297 38.5874 42.5393 38.6483 43.8781 37.3846C45.2168 36.121 45.2777 34.0113 44.014 32.6725C42.7504 31.3338 40.6407 31.2729 39.3019 32.5366C37.9632 33.8003 37.9023 35.9099 39.166 37.2487Z" fill="#009951" stroke="#1A1A1A" stroke-width="1.5"/>
<path d="M36.166 43.2487C37.4297 44.5874 39.5393 44.6483 40.8781 43.3846C42.2168 42.121 42.2777 40.0113 41.014 38.6725C39.7504 37.3338 37.6407 37.2729 36.3019 38.5366C34.9632 39.8003 34.9023 41.9099 36.166 43.2487Z" fill="#92DA40" stroke="#1A1A1A" stroke-width="1.5"/>
<path d="M29.2706 47.6992C30.9766 49.5065 33.8246 49.5887 35.6319 47.8828C37.4392 46.1768 37.5214 43.3288 35.8155 41.5214C34.1095 39.7141 31.2614 39.632 29.4541 41.3379C27.6468 43.0439 27.5647 45.8919 29.2706 47.6992Z" fill="#78B136" stroke="#1A1A1A" stroke-width="1.5"/>
<path d="M18.926 51.3733C21.2953 53.8835 25.251 53.9976 27.7611 51.6282C30.2713 49.2589 30.3854 45.3032 28.016 42.7931C25.6466 40.2829 21.691 40.1688 19.1809 42.5382C16.6707 44.9075 16.5566 48.8632 18.926 51.3733Z" fill="#14AE5C" stroke="#1A1A1A" stroke-width="1.5"/>
<path d="M8.5824 47.0489C11.6152 50.2619 16.6784 50.408 19.8914 47.3752C23.1044 44.3424 23.2505 39.2792 20.2177 36.0662C17.1849 32.8532 12.1217 32.7071 8.90868 35.7399C5.69568 38.7727 5.5496 43.8359 8.5824 47.0489Z" fill="#008043" stroke="#1A1A1A" stroke-width="1.5"/>
<path d="M8.79055 35.9494C12.7079 40.0995 19.2479 40.2882 23.398 36.3709C27.5481 32.4535 27.7368 25.9136 23.8194 21.7635C19.9021 17.6133 13.3621 17.4247 9.212 21.342C5.0619 25.2594 4.8732 31.7993 8.79055 35.9494Z" fill="#DC3412" stroke="#1A1A1A" stroke-width="1.5"/>
<path fill-rule="evenodd" clip-rule="evenodd" d="M2.33389 18.6366C3.87659 17.4535 5.71259 17.6062 7.23233 18.1453C8.30237 18.5251 9.29159 19.1212 10.0634 19.6971C14.4066 16.7296 20.3514 17.2137 24.1562 21.0379C25.0644 20.1964 26.4745 19.1304 28.0019 18.4666C29.611 17.7673 31.5916 17.418 33.1806 18.6366C33.509 18.8887 33.5712 19.3597 33.3192 19.6883C33.0671 20.0167 32.5961 20.0789 32.2675 19.827C31.3454 19.1199 30.0564 19.2095 28.5995 19.8426C27.2482 20.4299 25.9599 21.4052 25.1425 22.1688C28.5193 26.62 28.0688 32.9932 23.914 36.9159C23.4478 37.3559 22.9507 37.7451 22.4345 38.0887C22.7147 38.7378 22.9128 39.4134 23.0282 40.0995C24.8286 39.9859 26.6584 40.5667 28.0898 41.827C28.3222 41.4555 28.6059 41.1066 28.9394 40.7918C30.5248 39.2958 32.7971 38.9793 34.6728 39.8104C34.8695 39.1377 35.2417 38.5058 35.788 37.9901C36.4241 37.3899 37.203 37.0341 38.0077 36.9188C37.1377 35.3289 37.4086 33.2934 38.788 31.9911C40.4279 30.4438 43.0126 30.5176 44.5605 32.1571C46.1081 33.7968 46.0336 36.3815 44.3944 37.9295C43.7579 38.5304 42.9782 38.8855 42.1728 39.0008C43.0439 40.5907 42.7738 42.6268 41.3944 43.9295C40.3918 44.876 39.0364 45.2126 37.7802 44.9588C37.6956 46.2337 37.1494 47.4813 36.1474 48.4276C34.4788 50.0026 32.0511 50.269 30.1239 49.2674C29.7727 50.3405 29.156 51.344 28.2773 52.1737C25.4659 54.8273 21.0354 54.6989 18.3817 51.8875C17.8142 51.2862 17.3744 50.6106 17.0605 49.8944C13.9566 50.8823 10.4234 50.0904 8.03799 47.5633C4.94182 44.283 4.8771 39.2421 7.74014 35.8875C4.07032 31.426 4.43429 24.8215 8.69815 20.7967C8.74551 20.752 8.79475 20.7096 8.84268 20.6659C8.22885 20.2425 7.49643 19.8303 6.73037 19.5584C5.44211 19.1014 4.214 19.0837 3.246 19.826C2.9174 20.078 2.44734 20.0158 2.19522 19.6873C1.94356 19.3587 2.00539 18.8885 2.33389 18.6366ZM23.1474 41.5946C23.1376 43.9052 22.2201 46.2081 20.4071 47.9198C19.8067 48.4865 19.1446 48.9489 18.4472 49.3133C18.6927 49.868 19.0325 50.392 19.4726 50.8582C21.5575 53.0669 25.0381 53.1674 27.247 51.0828C29.4554 48.9977 29.5565 45.5162 27.4716 43.3075C26.3098 42.0768 24.7143 41.5025 23.1474 41.5946ZM8.7753 36.9852C6.51087 39.7637 6.60204 43.857 9.12881 46.534C11.8773 49.4457 16.4661 49.5774 19.3778 46.8289C21.612 44.7193 22.206 41.5276 21.12 38.8407C17.0985 40.7809 12.1728 40.1385 8.7753 36.9852ZM35.2704 42.036C33.849 40.5305 31.4757 40.462 29.9696 41.8827C29.6209 42.2119 29.3508 42.594 29.1571 43.0028C30.1639 44.4017 30.5888 46.0806 30.4413 47.7157C31.8645 48.6808 33.8147 48.566 35.1171 47.3368C36.6225 45.9151 36.6917 43.5419 35.2704 42.036ZM40.4696 39.1864C39.4906 38.1498 37.8557 38.1029 36.8183 39.0809C36.3534 39.5197 36.0871 40.0911 36.0233 40.6805C36.1392 40.7834 36.2528 40.8909 36.3612 41.0057C37.0081 41.691 37.4328 42.5058 37.6415 43.3602C38.5452 43.7167 39.6123 43.5493 40.3651 42.8387C41.4016 41.8592 41.4486 40.2235 40.4696 39.1864ZM23.2743 22.2782C19.6415 18.4298 13.5763 18.2552 9.72744 21.8875C5.87896 25.5205 5.70331 31.5856 9.33584 35.4344C12.9689 39.2833 19.0348 39.458 22.8837 35.825C26.7319 32.192 26.907 26.1268 23.2743 22.2782ZM43.4696 33.1873C42.4905 32.1503 40.8557 32.1032 39.8183 33.0819C38.7809 34.061 38.733 35.6957 39.7118 36.7332C40.6912 37.7708 42.3276 37.818 43.3651 36.8387C44.4016 35.8594 44.4483 34.2245 43.4696 33.1873Z" fill="#1A1A1A"/>
<path d="M16.5495 26.1865C16.9913 26.1865 17.3495 26.5581 17.3495 27.0165C17.3495 27.4749 16.9913 27.8465 16.5495 27.8465C16.1077 27.8465 15.7495 27.4749 15.7495 27.0165C15.7495 26.5581 16.1077 26.1865 16.5495 26.1865Z" fill="#1A1A1A"/>
<path d="M10.557 26.1865C10.1152 26.1865 9.75702 26.5581 9.75702 27.0165C9.75702 27.4749 10.1152 27.8465 10.557 27.8465C10.9988 27.8465 11.357 27.4749 11.357 27.0165C11.357 26.5581 10.9988 26.1865 10.557 26.1865Z" fill="#1A1A1A"/>
<path d="M14.5715 27.8801C14.8627 27.5858 15.3375 27.5832 15.632 27.8743C15.9264 28.1655 15.929 28.6403 15.6379 28.9348L15.5598 29.012L15.5607 29.0129C14.3487 30.2432 12.3487 30.1954 11.1975 28.9075C10.9215 28.5987 10.9482 28.1239 11.257 27.8479C11.5658 27.572 12.0406 27.5987 12.3166 27.9075C12.8906 28.5495 13.8877 28.574 14.4924 27.9602L14.4934 27.9592L14.5715 27.8801Z" fill="#1A1A1A"/>
<path d="M2.37801 21.4309C3.27338 21.4309 3.99922 20.7051 3.99922 19.8097C3.99922 18.9143 3.27338 18.1885 2.37801 18.1885C1.48263 18.1885 0.756775 18.9143 0.756775 19.8097C0.756775 20.7051 1.48263 21.4309 2.37801 21.4309Z" fill="#9F1F18"/>
<path d="M33.378 21.4309C34.2734 21.4309 34.9992 20.7051 34.9992 19.8097C34.9992 18.9143 34.2734 18.1885 33.378 18.1885C32.4826 18.1885 31.7568 18.9143 31.7568 19.8097C31.7568 20.7051 32.4826 21.4309 33.378 21.4309Z" fill="#9F1F18"/>
</svg>
