<svg width="48" height="55" viewBox="0 0 48 55" fill="none" xmlns="http://www.w3.org/2000/svg">
<path d="M24.2793 49.0377C23.8203 50.2976 23.071 51.7817 22.0938 52.8326C21.5113 53.4584 20.8862 53.8891 20.2334 54.064C19.601 54.234 18.868 54.1862 18.0068 53.7193C16.1343 52.7053 14.5827 50.9744 13.3984 49.1734C12.6189 47.9874 12.015 46.7961 11.5938 45.8091L24.2793 49.0377Z" fill="#FC9E24"/>
<path d="M35.1494 43.234C35.751 44.4429 36.3354 46.0012 36.4697 47.3492C36.5483 48.1382 36.463 48.7637 36.2256 49.2027C36.006 49.6085 35.5981 49.9632 34.791 50.1011C32.9999 50.4081 30.8986 50.0093 28.9541 49.3433C27.7039 48.9153 26.5496 48.3879 25.6299 47.9009L35.1494 43.234Z" fill="#FC9E24"/>
<path d="M15.666 19.1666C17.4905 17.8446 19.756 17.0947 22.3594 17.9127C26.9302 19.3477 29.9029 22.7577 31.2861 25.0386L12.3418 22.7838C13.0883 21.5958 14.2261 20.2105 15.666 19.1666Z" fill="#FC9E24"/>
<path fill-rule="evenodd" clip-rule="evenodd" d="M39.1189 40.18C33.3217 46.626 26.9424 50.513 17.9979 50.513C10.9671 50.513 0 47.844 0 35.715C0 23.587 9.3129 20.917 19.2386 20.917C27.3299 20.917 33.1181 25.664 39.3427 30.905L41.3259 28.917C42.1342 28.106 43.2339 27.509 44.3165 27.88C46.0638 28.479 47.9999 30.355 47.9999 34.973C47.9999 39.003 46.6965 41.358 45.3384 42.614C44.1967 43.67 42.5246 43.192 41.3596 42.162L39.1189 40.18Z" fill="#FC9E24"/>
<path d="M16.5871 24.0879C15.7848 22.8557 15.1607 21.8971 15.0125 21.6108L10.7644 22.5999C10.7568 22.9635 10.8373 23.3342 11.0163 23.6799L12.8928 26.662C13.0576 26.9148 13.2218 27.1667 13.3805 27.411C13.878 28.1768 14.361 28.9268 14.7425 29.5445C14.9336 29.8538 15.0905 30.1161 15.2074 30.3222C15.2993 30.4844 15.3425 30.5704 15.3567 30.5987L15.3602 30.6038C15.5792 31.1568 15.7094 31.7831 15.7094 32.3384C15.7094 34.4563 15.379 36.433 14.6762 38.2576C14.2881 39.2653 13.8322 40.2356 13.334 41.2573C13.2329 41.4647 13.1293 41.6758 13.024 41.8901L11.8035 44.4582C11.6604 44.7796 11.5023 45.1223 11.338 45.4785C10.9762 46.2628 10.5834 47.1144 10.2497 47.9573L14.4339 49.6134C14.7229 48.8831 15.024 48.2317 15.3544 47.5166C15.5318 47.1329 15.7175 46.7308 15.9145 46.2885C16.2707 45.4881 16.647 44.7218 17.0434 43.9144C17.1536 43.6898 17.2655 43.462 17.3789 43.2294C17.8887 42.1837 18.4149 41.0709 18.8754 39.875C19.8042 37.4637 20.2094 34.9284 20.2094 32.3384C20.2094 31.1457 19.9443 29.9578 19.544 28.9469C19.3533 28.4653 18.9339 27.7673 18.5711 27.1799C18.1603 26.5146 17.6528 25.727 17.1541 24.9595C16.9583 24.6581 16.7682 24.366 16.5871 24.0879Z" fill="white"/>
<path fill-rule="evenodd" clip-rule="evenodd" d="M29.0181 33.4834C29.0181 30.8758 29.6609 28.4775 31.7113 26.2345L27.9667 23.6799C25.3381 26.7924 24.5181 30.1782 24.5181 33.4834C24.5181 34.6318 24.4821 35.7904 24.4446 36.9911L24.4442 37.005C24.4072 38.1896 24.3689 39.4157 24.3689 40.6453C24.3689 42.193 24.4995 44.0532 25.3315 45.8769C25.3349 45.8942 25.3388 45.9144 25.343 45.9374C25.371 46.0907 25.4005 46.2934 25.4234 46.4958C25.4349 46.5971 25.4431 46.6849 25.4488 46.7562C25.3422 47.3451 25.4775 47.9307 25.7905 48.4013L29.9578 46.8494C29.9531 46.5773 29.926 46.2646 29.8949 45.9899C29.8627 45.7056 29.8193 45.4 29.7697 45.1285C29.7451 44.9939 29.7153 44.8472 29.6798 44.7056C29.6549 44.6062 29.5911 44.3558 29.4675 44.0985L29.4669 44.0973C29.0039 43.1357 28.8689 42.0208 28.8689 40.6453C28.8689 39.4928 28.9049 38.3322 28.9424 37.1316L28.943 37.1117C28.9799 35.9292 29.0181 34.707 29.0181 33.4834ZM25.3158 45.8038C25.3092 45.781 25.3092 45.7771 25.3146 45.7988L25.3158 45.8038Z" fill="white"/>
<path d="M38.9425 36.6129C38.9791 35.7525 39.0181 34.8378 39.0181 33.9183C39.0181 33.2252 39.1123 32.54 39.3857 31.856L35.8105 28.9469C34.8863 30.5414 34.5181 32.2216 34.5181 33.9183C34.5181 34.7344 34.4832 35.5614 34.4455 36.4452L34.4447 36.4655C34.408 37.3272 34.3689 38.2442 34.3689 39.1673C34.3689 40.1792 34.4671 41.4286 35.0365 42.6956L38.9004 39.875C38.8787 39.6613 38.8689 39.4272 38.8689 39.1673C38.8689 38.3487 38.9038 37.5204 38.9415 36.6367L38.9425 36.6129Z" fill="white"/>
<path fill-rule="evenodd" clip-rule="evenodd" d="M15.2266 18.5588C17.1867 17.1387 19.6955 16.289 22.584 17.1965C27.3845 18.7036 30.4855 22.2707 31.9277 24.6486C31.9868 24.746 32.1472 25.0506 32.3105 25.3967C34.6909 27.0085 36.986 28.9211 39.3428 30.9055L41.3262 28.9182C42.1345 28.1072 43.2338 27.5101 44.3164 27.8811C46.0637 28.4801 48 30.356 48 34.9738L47.9961 35.3469C47.9182 39.1493 46.6543 41.3977 45.3389 42.6145C44.1973 43.6701 42.5243 43.1921 41.3594 42.1623L39.1191 40.1809C38.1073 41.3059 37.0754 42.3506 36.0176 43.3127C36.5681 44.4974 37.0843 45.956 37.2158 47.2756L37.2402 47.5949C37.2781 48.3334 37.1814 49.013 36.8857 49.5598L36.8848 49.5588C36.5429 50.1908 35.9236 50.668 34.917 50.8401L34.918 50.841C33.0688 51.1579 30.9822 50.7877 29.0869 50.1779L28.7109 50.0529C27.919 49.7818 27.1664 49.471 26.4834 49.1565C25.9473 49.3407 25.4013 49.5067 24.8447 49.6545C24.3592 50.8862 23.6182 52.2948 22.6436 53.343L22.3975 53.594C21.8977 54.0798 21.3427 54.467 20.7354 54.6906L20.4277 54.7883C19.5946 55.0121 18.6642 54.9289 17.6484 54.3781C15.807 53.3805 14.2888 51.7638 13.1113 50.0832C6.91677 48.968 0.26961 45.4052 0.0078125 36.2776L0 35.716C0 26.4946 5.38447 22.7433 12.3281 21.4738C13.0738 20.4663 14.0524 19.4101 15.2266 18.5588ZM23.0234 50.0637C21.4384 50.3581 19.7688 50.5139 17.998 50.5139L17.3281 50.5061C16.652 50.4899 15.9459 50.4468 15.2217 50.3752C16.1379 51.4707 17.1913 52.4251 18.3633 53.0598L18.6211 53.1867C19.2029 53.4442 19.6614 53.4406 20.0391 53.3391L20.2178 53.2824C20.5791 53.1491 20.9597 52.8995 21.3496 52.5207L21.5449 52.3205C22.1238 51.6979 22.6224 50.8878 23.0234 50.0637ZM34.834 44.343C32.8456 45.9966 30.7497 47.3545 28.4775 48.3703C28.7131 48.4614 28.9531 48.5504 29.1973 48.634L29.9102 48.8635C31.578 49.3628 33.2553 49.6038 34.6641 49.3625C34.9821 49.3081 35.1813 49.2182 35.3066 49.133C35.4284 49.0501 35.5082 48.9534 35.5664 48.8459L35.6152 48.7414C35.708 48.5135 35.7674 48.168 35.7432 47.6799L35.7236 47.424C35.6277 46.4615 35.2673 45.3467 34.834 44.343ZM19.2383 22.4182C14.3541 22.4182 9.88754 23.0861 6.67969 25.0481C3.60789 26.9281 1.5 30.1114 1.5 35.716C1.50021 41.2245 3.94073 44.4512 7.13672 46.3791C10.4331 48.367 14.6263 49.0139 17.998 49.0139C26.398 49.0138 32.4008 45.4077 38.0039 39.1779L38.1113 39.0695C38.6707 38.5614 39.534 38.5461 40.1123 39.0578L42.3535 41.0393C42.7725 41.4099 43.2313 41.6297 43.6016 41.6906C43.9336 41.7455 44.1464 41.6747 44.3203 41.5139C45.3181 40.5909 46.4999 38.6643 46.5 34.9738C46.5 32.8701 46.0587 31.542 45.542 30.717C45.0327 29.9041 44.3979 29.495 43.8301 29.3C43.6985 29.2551 43.529 29.248 43.2754 29.3488C43.0047 29.4569 42.6925 29.6708 42.3877 29.9768L40.4043 31.9651L40.2979 32.0627C39.7454 32.5194 38.9357 32.523 38.377 32.0529C32.0891 26.7589 26.703 22.4182 19.2383 22.4182ZM22.1338 18.6272C19.8161 17.8991 17.7951 18.5502 16.1064 19.7736L16.1055 19.7727C15.5368 20.185 15.0172 20.6582 14.5527 21.1516C16.0751 20.9868 17.6488 20.9182 19.2383 20.9182L19.9902 20.9319C23.4422 21.0588 26.4753 22.0568 29.3154 23.5754C27.8175 21.7713 25.5559 19.8115 22.5371 18.761L22.1338 18.6272Z" fill="#1A1A1A"/>
<path d="M19.7564 35.5415L20.846 34.4488C21.2366 34.0573 22.1527 33.2894 22.7678 33.7563C23.2457 34.1191 23.7992 34.9238 23.7992 36.688C23.7992 38.0808 23.4942 39.0247 23.1278 39.6459C22.908 40.0181 22.5827 40.1548 22.1339 40.1101C21.6441 40.0612 21.0563 39.7848 20.5611 39.3471L19.9342 38.7924C19.6241 38.5178 19.1501 38.5468 18.8755 38.8569C18.601 39.1671 18.6299 39.6411 18.9401 39.9156L19.5675 40.4709C20.2372 41.063 21.1091 41.5153 21.985 41.6027C22.902 41.6941 23.8491 41.3747 24.4198 40.4081C24.9441 39.5193 25.2992 38.303 25.2992 36.688C25.2992 34.5982 24.6274 33.2848 23.6748 32.5616C22.9666 32.024 22.163 32.0344 21.4864 32.2662C20.8303 32.491 20.2369 32.9356 19.784 33.3894L18.6942 34.4824C18.4017 34.7758 18.4024 35.2506 18.6957 35.5431C18.989 35.8356 19.4639 35.8349 19.7564 35.5415Z" fill="#1A1A1A"/>
<path d="M12.8638 33.8711C13.4161 33.8711 13.8638 34.3748 13.8638 34.9961C13.8638 35.6174 13.4161 36.1211 12.8638 36.1211C12.3115 36.1211 11.8638 35.6174 11.8638 34.9961C11.8638 34.3748 12.3115 33.8711 12.8638 33.8711Z" fill="#1A1A1A"/>
<path d="M4.86389 33.8711C4.3116 33.8711 3.86389 34.3748 3.86389 34.9961C3.86389 35.6174 4.3116 36.1211 4.86389 36.1211C5.41618 36.1211 5.86389 35.6174 5.86389 34.9961C5.86389 34.3748 5.41618 33.8711 4.86389 33.8711Z" fill="#1A1A1A"/>
<path fill-rule="evenodd" clip-rule="evenodd" d="M6.38636 36.6551C6.70577 36.3914 7.17849 36.4365 7.44222 36.7559C8.20676 37.6819 9.61498 37.7159 10.4232 36.8279L10.5132 36.7289C10.7918 36.4224 11.2661 36.3998 11.5726 36.6785C11.8791 36.9571 11.9017 37.4314 11.6231 37.7379L11.5331 37.8369C10.1102 39.4007 7.63136 39.3409 6.28554 37.7109C6.02182 37.3915 6.06696 36.9188 6.38636 36.6551Z" fill="#1A1A1A"/>
</svg>
