<svg width="48" height="55" viewBox="0 0 48 55" fill="none" xmlns="http://www.w3.org/2000/svg">
<path d="M24.926 26.9999H10.364C10.391 26.9629 10.417 26.9249 10.444 26.8869C10.506 26.7989 10.568 26.7099 10.63 26.6209C10.902 26.2329 11.179 25.837 11.483 25.432C12.222 24.442 13.094 23.4259 14.292 22.4919C16.672 20.6339 20.447 19.0169 27.246 18.7799C27.332 18.7769 27.409 18.8169 27.463 18.9059C27.519 18.9999 27.526 19.1129 27.476 19.2119C26.438 21.2479 25.143 24.3319 24.926 26.9999Z" fill="#FFA629"/>
<path d="M24.926 46H10.364C10.391 46.037 10.417 46.075 10.444 46.113C10.506 46.201 10.568 46.29 10.63 46.379C10.902 46.767 11.179 47.163 11.483 47.568C12.222 48.558 13.094 49.574 14.292 50.508C16.672 52.366 20.447 53.983 27.246 54.22C27.332 54.223 27.409 54.183 27.463 54.094C27.519 54 27.526 53.887 27.476 53.788C26.438 51.752 25.143 48.668 24.926 46Z" fill="#FFA629"/>
<path fill-rule="evenodd" clip-rule="evenodd" d="M35.2747 41.653C31.1346 47.303 27.2391 50.666 19.5855 50.666C9.22124 50.666 0 44.119 0 36.041C0 27.964 9.3139 21.416 18.7661 21.416C26.0268 21.416 30.2839 25.581 35.205 30.396C35.2286 30.419 35.2522 30.442 35.2758 30.465C36.5944 29.394 38.4149 28.62 40.8686 28.62C46.8332 28.62 47.4272 29.274 46.9786 29.601C45.7566 30.624 43.3126 33.289 43.3126 36.324C43.3126 39.359 45.7566 42.165 46.9786 43.189C47.4272 43.516 46.8332 44.17 40.8686 44.17C38.4142 44.17 36.5934 43.087 35.2747 41.653Z" fill="#FFD966"/>
<path d="M17.0021 22.4767C17.0158 22.0627 17.3624 21.7382 17.7764 21.7519C18.4425 21.7739 18.9534 22.1355 19.3144 22.5609C19.671 22.981 19.9308 23.5162 20.1197 24.0444C20.4969 25.0989 20.6599 26.3223 20.6394 27.0963C20.6308 27.4172 20.5209 27.7133 20.4018 27.9505C20.2793 28.1946 20.1211 28.4269 19.9626 28.6323C19.6459 29.0426 19.28 29.406 19.054 29.6205C18.3703 30.2676 17.7198 31.1244 17.4728 31.9576C17.3842 32.2557 17.4312 32.4609 17.5321 32.6321C17.6488 32.8299 17.87 33.0321 18.1979 33.2182C18.8647 33.5972 19.4572 34.0817 19.999 34.525C20.113 34.6182 20.2248 34.7097 20.3346 34.7979C20.8565 35.2167 21.0149 35.8076 21.0672 36.271C21.1042 36.5985 21.0949 36.9739 21.088 37.2514C21.0857 37.3428 21.0837 37.4235 21.0837 37.4885C21.0837 38.8943 20.2183 39.9021 19.5376 40.6001C19.227 40.9186 18.9093 41.3009 18.673 41.7062C18.4386 42.1083 18.3105 42.4882 18.3058 42.8252C18.3533 42.8648 18.4474 42.9189 18.6433 43.0042C18.6764 43.0187 18.7141 43.0346 18.7551 43.0519C18.9225 43.1228 19.1459 43.2173 19.3378 43.3265C19.5902 43.4701 19.8969 43.6948 20.0879 44.067C20.2684 44.4194 20.4881 44.8989 20.6315 45.4113C20.7709 45.9092 20.8645 46.5276 20.6972 47.1154C20.619 47.3913 20.3775 48.0939 20.085 48.7355C19.9396 49.0544 19.7668 49.3915 19.5793 49.6599C19.4866 49.7926 19.3703 49.9377 19.2298 50.057C19.1007 50.1666 18.862 50.3305 18.5377 50.3305C18.1235 50.3305 17.7877 49.9947 17.7877 49.5805C17.7877 49.2499 18.0015 48.9693 18.2985 48.8694C18.3131 48.8513 18.3302 48.8287 18.3496 48.8009C18.4598 48.6431 18.5884 48.4022 18.7201 48.1132C18.9817 47.5396 19.197 46.9078 19.254 46.7062L19.2544 46.7049C19.3108 46.5069 19.2964 46.2061 19.1871 45.8157C19.0818 45.4396 18.9117 45.0609 18.7531 44.7513C18.7517 44.7485 18.7293 44.7061 18.5959 44.6302C18.4876 44.5685 18.3747 44.5206 18.2224 44.4558C18.1685 44.4329 18.1097 44.4079 18.0443 44.3795C17.8351 44.2883 17.5342 44.1509 17.2889 43.9283C17.0094 43.6746 16.8057 43.3146 16.8057 42.8445C16.8057 42.1423 17.0622 41.491 17.3771 40.9508C17.6946 40.4061 18.0994 39.9263 18.4638 39.5528C19.125 38.8748 19.5837 38.2486 19.5837 37.4885C19.5837 37.3472 19.5869 37.2204 19.59 37.1023C19.5961 36.8624 19.6014 36.6579 19.5767 36.4394C19.543 36.1416 19.467 36.0249 19.3957 35.9677L19.3948 35.967C19.264 35.8619 19.1381 35.7591 19.0155 35.6591C18.478 35.2203 18.0036 34.8332 17.4575 34.5227C17.0014 34.2638 16.5381 33.8996 16.24 33.3939C15.9262 32.8616 15.8283 32.226 16.0346 31.5313C16.3876 30.3407 17.2455 29.267 18.0217 28.5322C18.2277 28.3366 18.5286 28.0352 18.7752 27.7157C18.8985 27.556 18.9962 27.4071 19.0614 27.2774C19.1299 27.1408 19.1396 27.0704 19.14 27.0563C19.1555 26.4673 19.0219 25.4289 18.7074 24.5496C18.5504 24.1107 18.3656 23.7609 18.1708 23.5315C17.9805 23.3072 17.8334 23.2546 17.7269 23.2511C17.313 23.2374 16.9884 22.8907 17.0021 22.4767Z" fill="#FFA629"/>
<path d="M29.1599 25.1243C28.8125 24.8988 28.348 24.9977 28.1225 25.3451C27.897 25.6926 27.9959 26.1571 28.3433 26.3826C28.6332 26.5707 28.9017 26.9767 29.0924 27.5607C29.2773 28.1265 29.3509 28.7454 29.3399 29.2009L29.3399 29.1992C29.3399 29.1992 29.3349 29.2388 29.2945 29.3257C29.2521 29.4171 29.1865 29.5259 29.1006 29.6462C28.9286 29.8871 28.717 30.1168 28.5701 30.2674C27.9914 30.8592 27.3501 31.7249 27.0854 32.6908C26.9275 33.2647 27.0006 33.7957 27.2462 34.2464C27.4804 34.6762 27.8441 34.9847 28.1972 35.2016C28.578 35.4351 28.9073 35.7252 29.297 36.0687C29.3876 36.1485 29.4814 36.2312 29.5799 36.3168C29.5818 36.3184 29.6342 36.3641 29.6582 36.5941C29.6754 36.759 29.6718 36.9095 29.6673 37.0933C29.6651 37.1871 29.6626 37.2898 29.6626 37.4074C29.6626 37.9576 29.3581 38.4164 28.8857 38.9401L28.8849 38.941C28.3779 39.505 27.6426 40.4994 27.6426 41.6194C27.6426 42.0194 27.8035 42.3384 28.0397 42.5703C28.244 42.7709 28.4917 42.8917 28.6459 42.9644C28.7003 42.99 28.7467 43.0113 28.7873 43.03C28.8917 43.078 28.9586 43.1088 29.0254 43.1499C29.0548 43.168 29.0707 43.1806 29.0782 43.1872C29.1894 43.4233 29.3058 43.7062 29.3779 43.9851C29.455 44.2829 29.4608 44.4979 29.4272 44.6269C29.3888 44.772 29.2837 45.0816 29.153 45.3414C29.1052 45.4363 29.0633 45.5055 29.0312 45.5513C28.7402 45.6543 28.5316 45.932 28.5316 46.2584C28.5316 46.6727 28.8674 47.0084 29.2816 47.0084C29.7202 47.0084 30.008 46.7193 30.1311 46.5775C30.2814 46.4042 30.4017 46.1968 30.4928 46.0158C30.6773 45.6493 30.817 45.2391 30.8778 45.0089L30.8782 45.0073C31.0064 44.5173 30.9336 44.0095 30.8301 43.6093C30.7231 43.1957 30.5599 42.8109 30.4263 42.5291C30.27 42.1997 30.0166 41.9987 29.8118 41.8726C29.6592 41.7786 29.479 41.6963 29.358 41.641C29.3304 41.6284 29.3058 41.6171 29.2853 41.6075C29.2242 41.5787 29.18 41.5562 29.1458 41.5364C29.1833 41.032 29.552 40.4426 30 39.9443C30.5036 39.3859 31.1626 38.5589 31.1626 37.4074C31.1626 37.3607 31.164 37.3006 31.1656 37.2313C31.1707 37.0131 31.1778 36.7043 31.1501 36.4385C31.1116 36.0693 30.9933 35.5575 30.5633 35.1841C30.486 35.117 30.4065 35.0467 30.3247 34.9744C29.9308 34.6262 29.4842 34.2313 28.9818 33.9231C28.7651 33.79 28.6309 33.6526 28.5633 33.5287C28.5072 33.4258 28.475 33.2945 28.532 33.0875C28.7033 32.4618 29.1577 31.8119 29.6428 31.3158L29.6436 31.3151C29.8107 31.1437 30.0839 30.8505 30.3214 30.5177C30.5326 30.2219 30.8268 29.7464 30.8394 29.2376C30.8544 28.6212 30.759 27.8317 30.5183 27.095C30.2835 26.3761 29.8701 25.5852 29.1599 25.1243Z" fill="#FFA629"/>
<path fill-rule="evenodd" clip-rule="evenodd" d="M25.5933 23.1003C25.197 22.5304 24.1274 22.3445 24.0081 23.2483C23.9664 23.564 24.1276 23.8597 24.3909 24.0042C24.6114 24.399 24.7196 24.8685 24.8215 25.3106C24.8327 25.3592 24.8438 25.4075 24.855 25.4553C25.0805 26.4188 25.2251 27.4054 25.2355 27.6182C25.2598 28.1358 25.0599 28.5899 24.6825 29.0692C24.3355 29.51 23.9261 29.8858 23.5166 30.2616C23.2567 30.5001 22.9968 30.7386 22.7529 30.9938C22.5541 31.2018 22.3324 31.4958 22.2441 31.9114L22.2435 31.9138C22.2385 31.9379 22.2322 31.967 22.225 32.0001C22.1887 32.1668 22.13 32.4365 22.0976 32.7022C22.0777 32.8648 22.064 33.0509 22.0739 33.2365C22.0833 33.4129 22.1164 33.648 22.233 33.8709L22.2337 33.8722C22.4895 34.3592 22.8867 34.5309 23.2919 34.706C23.5387 34.8126 23.7884 34.9206 24.0109 35.1019C24.2407 35.2893 24.3027 35.462 24.4678 35.9218C24.4946 35.9964 24.5242 36.0789 24.5576 36.1699C24.7667 36.7394 24.612 37.3577 24.1649 38.0882C23.8537 38.5968 23.4811 39.0426 23.1075 39.4896C22.9897 39.6306 22.859 39.7774 22.7239 39.9292C22.2212 40.494 21.6569 41.1281 21.462 41.7902C21.3481 42.1782 21.2909 42.5991 21.4986 43.018C21.681 43.3858 22.0172 43.6652 22.3363 43.9304C22.4125 43.9937 22.4876 44.0562 22.5595 44.1189C23.2928 44.7583 23.6989 45.1125 23.7878 45.9516C23.8304 46.3525 23.874 46.9937 23.8136 47.5698C23.7833 47.8587 23.7303 48.0941 23.66 48.2625C23.5979 48.4112 23.4916 48.5283 23.3892 48.6411C23.1845 48.8665 22.9958 49.0744 23.2094 49.4818C23.4018 49.8486 23.8551 49.99 24.222 49.7976C24.6483 49.574 24.8973 49.1923 25.0442 48.8405C25.1922 48.4861 25.2671 48.0916 25.3054 47.7263C25.3822 46.9942 25.3259 46.2305 25.2795 45.7934C25.1239 44.3258 24.2332 43.5673 23.4864 42.9314C23.4406 42.8924 23.3829 42.8511 23.3215 42.8072C23.0997 42.6485 22.83 42.4556 22.9012 42.2129C22.9553 42.0294 23.0361 41.901 23.1636 41.7489C23.3478 41.5292 23.5358 41.3118 23.7241 41.0941C24.3381 40.3842 24.9544 39.6717 25.4444 38.8712C25.9808 37.9947 26.4105 36.8646 25.9658 35.6532C25.9436 35.5928 25.9215 35.5283 25.8982 35.4608C25.7421 35.007 25.5369 34.4108 24.9584 33.939C24.7127 33.7388 24.421 33.611 24.1329 33.4848C24.1232 33.4806 24.1136 33.4764 24.1039 33.4721C24.0737 33.4589 24.0429 33.4459 24.0119 33.4328C23.8576 33.3677 23.6974 33.3 23.5742 33.1877C23.5542 32.4173 23.7699 32.1281 24.2907 31.609C24.4039 31.4966 24.5311 31.3756 24.6657 31.2476C25.0548 30.8775 25.5058 30.4483 25.8611 29.9971C26.3653 29.3566 26.7813 28.5546 26.7338 27.5463C26.717 27.1985 26.5482 26.1076 26.3155 25.1135C26.1981 24.6116 26.0555 24.0949 25.8932 23.6864C25.8133 23.4855 25.7153 23.2757 25.5933 23.1003ZM24.359 23.9527L24.3617 23.9566C24.3697 23.968 24.3794 23.9837 24.3909 24.0042C24.4153 24.0176 24.4369 24.0297 24.4557 24.0404C24.5108 24.0836 24.5569 24.11 24.5662 24.1124C24.5755 24.1148 24.548 24.0932 24.4557 24.0404C24.4246 24.0161 24.3907 23.9864 24.359 23.9527ZM24.3463 23.9371C24.3463 23.9371 24.3504 23.9436 24.359 23.9527C24.3506 23.941 24.3463 23.9371 24.3463 23.9371Z" fill="#FFA629"/>
<path fill-rule="evenodd" clip-rule="evenodd" d="M26.524 23.321C29.6791 24.9894 32.3286 27.5817 35.205 30.3961L35.2758 30.4651L35.2782 30.4631C36.5966 29.3931 38.4164 28.6201 40.8686 28.6201C43.126 28.6201 44.6142 28.7138 45.5677 28.8479C45.6179 28.855 45.6666 28.8622 45.7138 28.8695C46.044 28.9203 46.3036 28.9763 46.5042 29.0347C46.5317 29.0427 46.5585 29.0509 46.5838 29.059L46.9754 29.5967L46.9786 29.6006C46.7233 29.8143 46.4146 30.1002 46.0861 30.4457L46.0643 30.4687C44.8242 31.7792 43.3126 33.9372 43.3126 36.3241C43.3126 38.7188 44.8342 40.9709 46.0765 42.3176L46.0946 42.3373C46.42 42.6884 46.7255 42.977 46.9786 43.1891C47.1775 43.334 47.1714 43.5433 46.5834 43.7313C46.5581 43.7394 46.5317 43.7475 46.5042 43.7555C46.3036 43.8139 46.044 43.8699 45.7138 43.9207C45.6677 43.9278 45.6202 43.9348 45.5713 43.9417C44.6179 44.0762 43.1289 44.1701 40.8686 44.1701C39.0418 44.1701 37.566 43.5701 36.3869 42.672C35.9819 42.3635 35.6119 42.0198 35.2747 41.6531C34.9687 42.0707 34.664 42.4758 34.3591 42.868C31.9929 45.911 29.6099 48.1756 26.4551 49.459C26.9419 50.9221 27.575 52.3318 28.1438 53.4474C28.3182 53.79 28.2869 54.1771 28.1064 54.4789L28.1046 54.482C27.9209 54.7859 27.5979 54.9827 27.2195 54.9696C20.308 54.7287 16.3673 53.0792 13.8304 51.0994C13.1679 50.5827 12.6012 50.0434 12.1022 49.5007C5.16182 47.2717 0 42.0849 0 36.0411C0 29.3985 6.29939 23.7901 13.7945 22.0076C16.9245 19.4368 20.8279 18.3356 27.2203 18.0194C27.6944 17.996 28.0529 18.2794 28.2177 18.6063C28.3798 18.9281 28.3935 19.3624 28.1375 19.7242C27.4369 20.7146 27.0072 21.9358 26.524 23.321ZM17.4438 21.4584C17.8836 21.4304 18.3247 21.4161 18.7661 21.4161C21.1857 21.4161 23.2718 21.8786 25.16 22.6736C25.5271 21.6192 25.9191 20.5315 26.467 19.564C22.4966 19.8137 19.6786 20.402 17.4438 21.4584ZM15.2446 50.2812C17.402 51.7994 20.746 53.1312 26.464 53.4351C25.9771 52.4224 25.4604 51.2177 25.0386 49.9527C23.4421 50.4212 21.6506 50.6661 19.5855 50.6661C18.1075 50.6661 16.6527 50.5329 15.2446 50.2812ZM43.4192 41.3121C43.704 41.7629 44.0078 42.183 44.3131 42.5651C43.4873 42.6276 42.367 42.6701 40.8686 42.6701C38.914 42.6701 37.4727 41.8271 36.3789 40.6371C36.0752 40.3071 35.6395 40.1301 35.1914 40.1551C34.7434 40.1801 34.33 40.4041 34.0648 40.7661C32.0315 43.5411 30.1557 45.6141 27.9463 47.0101C25.772 48.3841 23.1716 49.1661 19.5855 49.1661C14.7051 49.1661 10.1238 47.6211 6.7945 45.1741C3.45935 42.7231 1.5 39.4721 1.5 36.0411C1.5 32.6111 3.48239 29.3551 6.74156 26.8981C9.99329 24.4461 14.3683 22.9161 18.7661 22.9161C25.3352 22.9161 29.1807 26.6001 34.156 31.4681L34.2268 31.5381C34.7717 32.0711 35.6298 32.1101 36.2216 31.6301C37.2705 30.7781 38.7565 30.1201 40.8686 30.1201C42.35 30.1201 43.4618 30.1614 44.2849 30.2225C43.9937 30.5792 43.7036 30.9701 43.4302 31.3901C42.5772 32.7001 41.8126 34.4111 41.8126 36.3241C41.8126 38.2311 42.5728 39.9721 43.4192 41.3121Z" fill="#1A1A1A"/>
<path d="M46.5838 29.059C47.1709 29.2469 47.1772 29.4557 46.9786 29.6006L46.5838 29.059Z" fill="#1A1A1A"/>
<path d="M12.8638 34.2051C13.4161 34.2051 13.8638 34.7088 13.8638 35.3301C13.8638 35.9514 13.4161 36.4551 12.8638 36.4551C12.3115 36.4551 11.8638 35.9514 11.8638 35.3301C11.8638 34.7088 12.3115 34.2051 12.8638 34.2051Z" fill="#1A1A1A"/>
<path d="M4.86389 34.2051C4.3116 34.2051 3.86389 34.7088 3.86389 35.3301C3.86389 35.9514 4.3116 36.4551 4.86389 36.4551C5.41618 36.4551 5.86389 35.9514 5.86389 35.3301C5.86389 34.7088 5.41618 34.2051 4.86389 34.2051Z" fill="#1A1A1A"/>
<path fill-rule="evenodd" clip-rule="evenodd" d="M6.38627 36.9612C6.70568 36.6975 7.1784 36.7426 7.44213 37.0621C8.20667 37.988 9.61489 38.022 10.4231 37.1341L10.5131 37.0351C10.7917 36.7286 11.266 36.706 11.5725 36.9846C11.879 37.2633 11.9016 37.7376 11.623 38.0441L11.533 38.1431C10.1102 39.7069 7.63127 39.6471 6.28545 38.0171C6.02172 37.6977 6.06686 37.225 6.38627 36.9612Z" fill="#1A1A1A"/>
</svg>
