<svg width="48" height="55" viewBox="0 0 48 55" fill="none" xmlns="http://www.w3.org/2000/svg">
<path d="M27.2451 18.7799C27.3316 18.7769 27.4091 18.817 27.4629 18.9059C27.5191 18.9999 27.526 19.1136 27.4756 19.2126C26.942 20.2591 26.3415 21.5827 25.8535 22.984C29.3092 24.627 32.1272 27.3846 35.2051 30.3962C35.2287 30.4191 35.2518 30.4425 35.2754 30.4655C36.5939 29.3946 38.4147 28.6199 40.8682 28.6198C46.8328 28.6198 47.4271 29.2742 46.9785 29.6012C45.7565 30.6242 43.3127 33.2891 43.3125 36.3239C43.3125 39.3588 45.7565 42.1651 46.9785 43.1891C47.4271 43.5161 46.8328 44.1706 40.8682 44.1706C38.414 44.1704 36.593 43.0869 35.2744 41.653C32.4212 45.5468 29.684 48.3532 25.7529 49.7223C26.257 51.232 26.9048 52.6683 27.4756 53.7878C27.526 53.8868 27.5191 54.0004 27.4629 54.0944C27.4091 54.1833 27.3316 54.2234 27.2451 54.2204C20.4472 53.9833 16.6728 52.3663 14.292 50.5085C14.0489 50.3189 13.8204 50.1238 13.6025 49.9284C5.91904 48.0014 0 42.5125 0 36.0407C0.000321033 28.9101 7.25987 22.9719 15.4648 21.6784C17.8751 20.1825 21.4671 18.9814 27.2451 18.7799Z" fill="#2C2C2C"/>
<path fill-rule="evenodd" clip-rule="evenodd" d="M26.524 23.321C29.6791 24.9894 32.3286 27.5817 35.205 30.3961L35.2758 30.4651L35.2782 30.4631C36.5966 29.3931 38.4164 28.6201 40.8686 28.6201C43.126 28.6201 44.6142 28.7138 45.5677 28.8479C45.6179 28.855 45.6666 28.8622 45.7138 28.8695C46.044 28.9203 46.3036 28.9763 46.5042 29.0347C46.5317 29.0427 46.5585 29.0509 46.5838 29.059L46.9754 29.5967L46.9786 29.6006C46.7233 29.8143 46.4146 30.1002 46.0861 30.4457L46.0643 30.4687C44.8242 31.7792 43.3126 33.9372 43.3126 36.3241C43.3126 38.7188 44.8342 40.9709 46.0765 42.3176L46.0946 42.3373C46.42 42.6884 46.7255 42.977 46.9786 43.1891C47.1775 43.334 47.1714 43.5433 46.5834 43.7313C46.5581 43.7394 46.5317 43.7475 46.5042 43.7555C46.3036 43.8139 46.044 43.8699 45.7138 43.9207C45.6677 43.9278 45.6202 43.9348 45.5713 43.9417C44.6179 44.0762 43.1289 44.1701 40.8686 44.1701C39.0418 44.1701 37.566 43.5701 36.3869 42.672C35.9819 42.3635 35.6119 42.0198 35.2747 41.6531C34.9687 42.0707 34.664 42.4758 34.3591 42.868C31.9929 45.911 29.6099 48.1756 26.4551 49.459C26.9419 50.9221 27.575 52.3318 28.1438 53.4474C28.3182 53.79 28.2869 54.1771 28.1064 54.4789L28.1046 54.482C27.9209 54.7859 27.5979 54.9827 27.2195 54.9696C20.308 54.7287 16.3673 53.0792 13.8304 51.0994C13.1679 50.5827 12.6012 50.0434 12.1022 49.5007C5.16182 47.2717 0 42.0849 0 36.0411C0 29.3985 6.29939 23.7901 13.7945 22.0076C16.9245 19.4368 20.8279 18.3356 27.2203 18.0194C27.6944 17.996 28.0529 18.2794 28.2177 18.6063C28.3798 18.9281 28.3935 19.3624 28.1375 19.7242C27.4369 20.7146 27.0072 21.9358 26.524 23.321ZM17.4438 21.4584C17.8836 21.4304 18.3247 21.4161 18.7661 21.4161C21.1857 21.4161 23.2718 21.8786 25.16 22.6736C25.5271 21.6192 25.9191 20.5315 26.467 19.564C22.4966 19.8137 19.6786 20.402 17.4438 21.4584ZM15.2446 50.2812C17.402 51.7994 20.746 53.1312 26.464 53.4351C25.9771 52.4224 25.4604 51.2177 25.0386 49.9527C23.4421 50.4212 21.6506 50.6661 19.5855 50.6661C18.1075 50.6661 16.6527 50.5329 15.2446 50.2812ZM43.4192 41.3121C43.704 41.7629 44.0078 42.183 44.3131 42.5651C43.4873 42.6276 42.367 42.6701 40.8686 42.6701C38.914 42.6701 37.4727 41.8271 36.3789 40.6371C36.0752 40.3071 35.6395 40.1301 35.1914 40.1551C34.7434 40.1801 34.33 40.4041 34.0648 40.7661C32.0315 43.5411 30.1557 45.6141 27.9463 47.0101C25.772 48.3841 23.1716 49.1661 19.5855 49.1661C14.7051 49.1661 10.1238 47.6211 6.7945 45.1741C3.45935 42.7231 1.5 39.4721 1.5 36.0411C1.5 32.6111 3.48239 29.3551 6.74156 26.8981C9.99329 24.4461 14.3683 22.9161 18.7661 22.9161C25.3352 22.9161 29.1807 26.6001 34.156 31.4681L34.2268 31.5381C34.7717 32.0711 35.6298 32.1101 36.2216 31.6301C37.2705 30.7781 38.7565 30.1201 40.8686 30.1201C42.35 30.1201 43.4618 30.1614 44.2849 30.2225C43.9937 30.5792 43.7036 30.9701 43.4302 31.3901C42.5772 32.7001 41.8126 34.4111 41.8126 36.3241C41.8126 38.2311 42.5728 39.9721 43.4192 41.3121Z" fill="#1A1A1A"/>
<path d="M46.5838 29.059C47.1709 29.2469 47.1772 29.4557 46.9786 29.6006L46.5838 29.059Z" fill="#1A1A1A"/>
<path d="M33.2461 36.256C32.7571 38.045 23.3401 42.948 20.1231 42.07C16.9071 41.192 17.8701 35.623 18.3581 33.833C18.8471 32.044 20.4701 29.799 23.6871 30.677C26.9041 31.555 33.7341 34.466 33.2461 36.256Z" fill="#444444"/>
<path d="M12.8638 34.2051C13.4161 34.2051 13.8638 34.7088 13.8638 35.3301C13.8638 35.9514 13.4161 36.4551 12.8638 36.4551C12.3115 36.4551 11.8638 35.9514 11.8638 35.3301C11.8638 34.7088 12.3115 34.2051 12.8638 34.2051Z" fill="#D9D9D9"/>
<path d="M4.86389 34.2051C4.3116 34.2051 3.86389 34.7088 3.86389 35.3301C3.86389 35.9514 4.3116 36.4551 4.86389 36.4551C5.41618 36.4551 5.86389 35.9514 5.86389 35.3301C5.86389 34.7088 5.41618 34.2051 4.86389 34.2051Z" fill="#D9D9D9"/>
<path fill-rule="evenodd" clip-rule="evenodd" d="M6.38627 36.9612C6.70568 36.6975 7.1784 36.7426 7.44213 37.0621C8.20667 37.988 9.61489 38.022 10.4231 37.1341L10.5131 37.0351C10.7917 36.7286 11.266 36.706 11.5725 36.9846C11.879 37.2633 11.9016 37.7376 11.623 38.0441L11.533 38.1431C10.1102 39.7069 7.63127 39.6471 6.28545 38.0171C6.02172 37.6977 6.06686 37.225 6.38627 36.9612Z" fill="#D9D9D9"/>
</svg>
