<svg width="14" height="62" viewBox="0 0 14 62" fill="none" xmlns="http://www.w3.org/2000/svg">
<path d="M8.5957 4.50488C8.33874 14.3936 9.08249 20.7105 10.2539 29.1826L10.7812 32.9658C10.9435 34.3456 11.4931 41.3739 11.9902 48.124C12.2393 51.5053 12.4747 54.8058 12.6396 57.2695C12.7221 58.5015 12.7868 59.522 12.8271 60.2383C12.8325 60.3338 12.8364 60.424 12.8408 60.5078H5.82129C5.74408 58.263 5.46045 56.0586 5.27734 53.9004V53.8984L4.00977 39.3174C3.86092 37.4936 3.52233 34.4441 3.5498 32.8945V32.8691L3.54883 32.8428C3.3048 27.2696 2.7633 23.5397 2.22266 19.5361C1.6841 15.548 1.14154 11.2653 0.880859 4.54004C0.872946 3.54013 0.87523 2.4717 0.852539 1.4375C1.10164 1.30061 1.34124 1.17459 1.58594 1.07129C1.96594 0.910878 2.2928 0.832545 2.58398 0.842773C4.52644 0.911239 6.40341 0.980165 8.36523 0.9375C8.47896 2.13229 8.59229 3.42189 8.5957 4.50488Z" fill="#DCAB6E" stroke="black" stroke-width="1.68359"/>
</svg>
