<svg width="15" height="28" viewBox="0 0 15 28" fill="none" xmlns="http://www.w3.org/2000/svg">
<path d="M9.59468 0.849075C5.97777 0.841332 1.2642 0.841601 0.000183105 0.841918V26.6327H4.44354L13.8724 26.2115C13.4164 22.5097 12.6153 19.4409 12.1243 15.783C10.9822 15.5653 9.78689 15.3706 8.65888 15.1139C7.72729 14.9021 5.34079 14.7358 5.47688 13.4517C6.04369 12.6048 10.8055 10.376 11.897 9.93031C11.3189 7.53798 10.3972 2.86773 9.59468 0.849075Z" fill="#DCAB6E"/>
<path d="M0.000183105 0.841918C1.2642 0.841601 5.97777 0.841332 9.59468 0.849075C10.3972 2.86773 11.3189 7.53798 11.897 9.93031C10.8055 10.376 6.04369 12.6048 5.47689 13.4517C5.34079 14.7358 7.72729 14.9021 8.65888 15.1139C9.78689 15.3706 10.9822 15.5653 12.1243 15.783C12.6153 19.4409 13.4164 22.5097 13.8724 26.2115L4.44354 26.6327H0.000183105" stroke="black" stroke-width="1.68359"/>
</svg>
