<svg width="48" height="55" viewBox="0 0 48 55" fill="none" xmlns="http://www.w3.org/2000/svg">
<path d="M16 19.75C19.655 19.75 23.408 21.3599 26.252 23.9199C27.22 24.7882 28.0745 25.7595 28.7803 26.8057C29.1819 26.769 29.5888 26.75 30 26.75C34.8439 26.75 38.5109 28.2598 40.9629 30.6396C43.4159 33.0196 44.7139 36.31 44.7139 40C44.7139 47.36 38.3738 54.2197 31.0938 54.2197C27.4599 54.2196 23.8677 52.5104 21.1748 49.8506C19.8176 48.51 18.7039 46.9406 17.9336 45.249C16.9496 45.4065 15.9646 45.4902 15 45.4902C11.2971 45.4902 8.24504 44.3001 6.12305 42.2402C4.00314 40.1803 2.75011 37.2103 2.75 33.5205C2.75 26.1605 8.717 19.75 16 19.75Z" fill="#D9B8FF"/>
<path fill-rule="evenodd" clip-rule="evenodd" d="M17.497 46.0701C24.54 45.1501 31.707 40.43 31.707 33.52C31.707 30.82 30.739 28.24 29.15 26.03C21.814 26.46 16 32.55 16 40C16 42.11 16.546 44.1701 17.497 46.0701Z" fill="#9747FF"/>
<path d="M16 19C19.8657 19 23.7918 20.6964 26.7529 23.3613L27.0273 23.6133C27.8161 24.3521 28.5303 25.1616 29.1504 26.0264C29.4315 26.0095 29.7147 26 30 26C35.0035 26 38.8698 27.5629 41.4854 30.1016L41.7266 30.3418C44.1834 32.8562 45.4639 36.2508 45.4639 40C45.4639 47.7351 38.826 54.9697 31.0938 54.9697C27.2281 54.9697 23.4542 53.1561 20.6475 50.3838C19.3685 49.1204 18.291 47.6553 17.4961 46.0693C16.6581 46.1799 15.8223 46.2402 15 46.2402C11.1344 46.2402 7.88417 44.9951 5.60059 42.7783C3.31788 40.5602 2.00011 37.3872 2 33.5205C2 25.7813 8.26865 19 16 19ZM30.084 27.5C30.1274 27.5786 30.169 27.6581 30.2109 27.7373C30.2151 27.7452 30.2195 27.7529 30.2236 27.7607C30.3658 28.0307 30.4986 28.3046 30.6221 28.582C30.6393 28.6208 30.6569 28.6594 30.6738 28.6982C30.7271 28.821 30.7787 28.9443 30.8281 29.0684C30.8361 29.0883 30.8447 29.108 30.8525 29.1279C30.9034 29.2573 30.9505 29.3879 30.9971 29.5186C31.0111 29.5579 31.0254 29.5972 31.0391 29.6367C31.0719 29.7317 31.1032 29.8272 31.1338 29.9229C31.1517 29.9789 31.1704 30.0346 31.1875 30.0908C31.2262 30.2181 31.2623 30.3462 31.2969 30.4746C31.3117 30.5298 31.3257 30.5852 31.3398 30.6406C31.3633 30.7328 31.385 30.8253 31.4062 30.918C31.418 30.9691 31.4313 31.02 31.4424 31.0713C31.4702 31.2 31.495 31.3294 31.5186 31.459C31.5285 31.5136 31.5377 31.5683 31.5469 31.623C31.5613 31.7091 31.5744 31.7954 31.5869 31.8818C31.5961 31.9452 31.6052 32.0087 31.6133 32.0723C31.6312 32.2125 31.6464 32.3531 31.6592 32.4941C31.6599 32.5017 31.6614 32.5091 31.6621 32.5166C31.6746 32.6575 31.6832 32.7988 31.6904 32.9404C31.692 32.9704 31.694 33.0003 31.6953 33.0303C31.7019 33.1829 31.7056 33.3359 31.7061 33.4893C31.7061 33.4996 31.707 33.5102 31.707 33.5205L31.7021 33.8428C31.6981 33.9686 31.6905 34.0935 31.6816 34.2178C31.6805 34.2344 31.679 34.251 31.6777 34.2676C31.6615 34.4805 31.6381 34.691 31.6084 34.8994C31.6052 34.9216 31.6019 34.9437 31.5986 34.9658C31.5845 35.0604 31.5696 35.1545 31.5527 35.248C31.5507 35.2594 31.549 35.2709 31.5469 35.2822C31.2175 37.0729 30.3922 38.6848 29.2275 40.0898C29.1747 40.1536 29.1216 40.2174 29.0674 40.2803C28.9861 40.3746 28.9037 40.4682 28.8193 40.5605C28.7621 40.6232 28.7041 40.6853 28.6455 40.7471C28.5716 40.8249 28.4969 40.9022 28.4209 40.9785C28.3462 41.0536 28.2701 41.1275 28.1934 41.2012C28.1151 41.2763 28.0363 41.3512 27.9561 41.4248C27.9382 41.4411 27.9203 41.4574 27.9023 41.4736C27.7483 41.6135 27.5898 41.7494 27.4287 41.8838C27.4172 41.8934 27.4061 41.9035 27.3945 41.9131C27.2497 42.0332 27.1023 42.151 26.9521 42.2666C26.894 42.3113 26.8353 42.3554 26.7764 42.3994C25.2629 43.5322 23.5032 44.4381 21.6436 45.084C21.6146 45.0941 21.5857 45.1043 21.5566 45.1143C21.3362 45.1898 21.1145 45.2619 20.8916 45.3301C20.8827 45.3328 20.8741 45.3362 20.8652 45.3389C20.6346 45.409 20.4027 45.4749 20.1699 45.5371C20.1598 45.5398 20.1498 45.5432 20.1396 45.5459C19.8999 45.6096 19.6593 45.6695 19.418 45.7246C19.3985 45.7291 19.3789 45.7329 19.3594 45.7373C19.256 45.7606 19.1524 45.782 19.0488 45.8037C19.7402 47.0775 20.6401 48.2674 21.7021 49.3164C24.2813 51.8639 27.6916 53.4696 31.0938 53.4697C37.9215 53.4697 43.9639 46.9849 43.9639 40C43.9639 36.49 42.7323 33.4014 40.4404 31.1777C38.1656 28.9699 34.7257 27.5173 30.084 27.5ZM16 20.5C9.16535 20.5 3.5 26.5397 3.5 33.5205C3.50011 37.0333 4.68843 39.8004 6.64551 41.7021L7.02344 42.0498C8.96526 43.7426 11.681 44.7402 15 44.7402C15.6159 44.7402 16.2405 44.7026 16.8682 44.6348C16.793 44.4347 16.7232 44.233 16.6572 44.0303C16.6493 44.0061 16.6406 43.9822 16.6328 43.958C16.5697 43.7606 16.5111 43.562 16.457 43.3623C16.4465 43.3236 16.4359 43.2849 16.4258 43.2461C16.3708 43.0359 16.321 42.8246 16.2764 42.6123C16.2704 42.584 16.2646 42.5557 16.2588 42.5273C16.2377 42.4237 16.2178 42.3199 16.1992 42.2158C16.1111 41.723 16.051 41.2251 16.0215 40.7236C16.0073 40.483 16 40.2418 16 40C16 39.9645 16.0007 39.929 16.001 39.8936C16.0042 39.4589 16.0264 39.0289 16.0684 38.6045C16.075 38.5376 16.0833 38.4709 16.0908 38.4043C16.0974 38.3459 16.104 38.2876 16.1113 38.2295C16.117 38.1848 16.1229 38.1402 16.1289 38.0957C16.1379 38.0298 16.1464 37.964 16.1562 37.8984C16.165 37.84 16.1751 37.7818 16.1846 37.7236C16.1944 37.6636 16.2043 37.6037 16.2148 37.5439C16.2442 37.3782 16.2764 37.2135 16.3115 37.0498C16.324 36.9914 16.3373 36.9332 16.3506 36.875C16.3596 36.8356 16.3676 36.7961 16.377 36.7568C16.3932 36.6882 16.4105 36.62 16.4277 36.5518C16.4406 36.5008 16.4543 36.4501 16.4678 36.3994C16.5335 36.1516 16.6048 35.9063 16.6836 35.6641L16.7354 35.5088C16.7457 35.4781 16.757 35.4476 16.7676 35.417C16.7868 35.3615 16.8063 35.3062 16.8262 35.251C16.8423 35.2063 16.8585 35.1617 16.875 35.1172C16.8932 35.0682 16.9119 35.0194 16.9307 34.9707C16.9558 34.9053 16.9817 34.8403 17.0078 34.7754C17.074 34.6108 17.1426 34.4475 17.2148 34.2861C17.2322 34.2473 17.2499 34.2086 17.2676 34.1699C17.344 34.0032 17.4231 33.838 17.5059 33.6748C17.5184 33.6501 17.5303 33.6252 17.543 33.6006C17.6836 33.3273 17.8345 33.0603 17.9922 32.7979C18.0075 32.7723 18.0216 32.7461 18.0371 32.7207C18.2336 32.3983 18.4448 32.0858 18.666 31.7812C18.7658 31.6438 18.8671 31.5076 18.9717 31.374C18.9897 31.351 19.0082 31.3285 19.0264 31.3057C19.1224 31.1846 19.2204 31.0651 19.3203 30.9473C19.3596 30.9009 19.3986 30.8544 19.4385 30.8086C19.5499 30.6807 19.6643 30.5554 19.7803 30.4316C19.8061 30.4041 19.8314 30.376 19.8574 30.3486C19.976 30.2241 20.0977 30.1026 20.2207 29.9824C20.2551 29.9488 20.2885 29.9141 20.3232 29.8809C20.4461 29.7633 20.5721 29.6492 20.6992 29.5361C20.7385 29.5012 20.7777 29.4661 20.8174 29.4316C20.9452 29.3205 21.0752 29.212 21.207 29.1055C21.2376 29.0807 21.268 29.0557 21.2988 29.0312C21.4368 28.9217 21.5766 28.8144 21.7188 28.71C21.7642 28.6766 21.8096 28.6432 21.8555 28.6104C21.8824 28.5911 21.9094 28.5718 21.9365 28.5527C22.0914 28.4435 22.2487 28.3374 22.4082 28.2344C22.4371 28.2157 22.4661 28.1972 22.4951 28.1787C22.5593 28.1379 22.6236 28.0974 22.6885 28.0576C22.7057 28.0471 22.723 28.0368 22.7402 28.0264L22.8496 27.96C22.8965 27.9321 22.944 27.9053 22.9912 27.8779C23.0128 27.8654 23.034 27.8522 23.0557 27.8398C23.138 27.7928 23.2213 27.7476 23.3047 27.7021C23.3194 27.6941 23.3339 27.6857 23.3486 27.6777C23.4096 27.6448 23.4707 27.6121 23.5322 27.5801C23.5841 27.553 23.6362 27.5264 23.6885 27.5C23.7239 27.4821 23.7593 27.4639 23.7949 27.4463C23.8571 27.4155 23.9197 27.3854 23.9824 27.3555C24.0145 27.3402 24.0469 27.3256 24.0791 27.3105C24.1473 27.2787 24.2154 27.2466 24.2842 27.2158C24.3029 27.2074 24.322 27.1997 24.3408 27.1914C25.3158 26.7601 26.349 26.4364 27.4258 26.2363C26.923 25.6152 26.362 25.0265 25.751 24.4785L25.75 24.4775C23.0232 22.0231 19.4438 20.5 16 20.5ZM28.4014 27.6025C25.9136 27.9225 23.6534 28.9707 21.8447 30.5283C21.4037 30.9084 20.9906 31.3194 20.6064 31.7568C20.0526 32.3869 19.5628 33.0738 19.1436 33.8066C18.9171 34.2028 18.7102 34.6114 18.5273 35.0332C18.2475 35.6784 18.0193 36.3515 17.8506 37.0479C17.7969 37.2695 17.7497 37.4936 17.708 37.7197C17.6445 38.0643 17.5952 38.4137 17.5605 38.7676C17.538 38.9979 17.5216 39.23 17.5117 39.4639C17.5042 39.6416 17.5 39.8204 17.5 40C17.5 40.1661 17.505 40.3322 17.5127 40.498C17.5743 41.8244 17.8781 43.1421 18.3867 44.4023C19.4599 44.1985 20.5227 43.9021 21.5459 43.5225C22.8757 43.0267 24.1415 42.3895 25.2754 41.625C25.3306 41.5877 25.3859 41.5506 25.4404 41.5127C25.5939 41.4063 25.7442 41.2979 25.8916 41.1875C26.0299 41.0835 26.1665 40.9782 26.2998 40.8701C26.8963 40.3896 27.4354 39.8737 27.9102 39.3271C27.9242 39.3109 27.9382 39.2946 27.9521 39.2783C28.18 39.013 28.3925 38.7406 28.5889 38.4609C29.0274 37.8358 29.3848 37.176 29.6514 36.4854C29.6774 36.4178 29.7032 36.3503 29.7275 36.2822C30.0399 35.4068 30.207 34.4837 30.207 33.5205C30.207 32.6055 30.0765 31.6983 29.833 30.8125C29.7671 30.5733 29.6936 30.3355 29.6113 30.0996C29.6075 30.0885 29.6035 30.0775 29.5996 30.0664C29.3004 29.2176 28.8967 28.3923 28.4014 27.6025Z" fill="#1A1A1A"/>
<path d="M40.7396 41.0174C41.035 40.7273 41.5099 40.7318 41.8001 41.0272C42.0902 41.3226 42.0857 41.7975 41.7903 42.0877L41.6683 42.2078L41.6663 42.2088L41.1429 41.6727L41.0833 41.6121L41.6663 42.2088C39.9861 43.8492 37.2843 43.7841 35.6858 42.0633C35.4039 41.7598 35.4214 41.2846 35.7249 41.0027C36.0284 40.7208 36.5035 40.7383 36.7855 41.0418C37.8102 42.145 39.5415 42.187 40.6185 41.1356V41.1365L40.7396 41.0174Z" fill="#1A1A1A"/>
<path fill-rule="evenodd" clip-rule="evenodd" d="M7.53452 31.1563C7.86457 30.8926 8.35305 30.9377 8.62557 31.2571C9.41559 32.1831 10.8708 32.2171 11.7059 31.3291L11.7989 31.2301C12.0868 30.9236 12.5769 30.9011 12.8936 31.1797C13.2104 31.4583 13.2337 31.9327 12.9458 32.2391L12.8528 32.3381C11.3825 33.9019 8.82101 33.8421 7.43033 32.2122C7.15782 31.8928 7.20446 31.42 7.53452 31.1563Z" fill="#1A1A1A"/>
<path d="M39.9451 37C40.5278 37 41.0001 37.4589 41.0001 38.025C41.0001 38.5911 40.5278 39.05 39.9451 39.05C39.3625 39.05 38.8901 38.5911 38.8901 38.025C38.8901 37.4589 39.3625 37 39.9451 37Z" fill="#1A1A1A"/>
<path d="M34.9476 37C34.3649 37 33.8926 37.4589 33.8926 38.025C33.8926 38.5911 34.3649 39.05 34.9476 39.05C35.5302 39.05 36.0026 38.5911 36.0026 38.025C36.0026 37.4589 35.5302 37 34.9476 37Z" fill="#1A1A1A"/>
<path d="M15.0521 28.0535C15.6347 28.0535 16.1071 28.5124 16.1071 29.0785C16.1071 29.6446 15.6347 30.1035 15.0521 30.1035C14.4694 30.1035 13.9971 29.6446 13.9971 29.0785C13.9971 28.5124 14.4694 28.0535 15.0521 28.0535Z" fill="#1A1A1A"/>
<path d="M10.054 28.0535C9.47136 28.0535 8.99902 28.5124 8.99902 29.0785C8.99902 29.6446 9.47136 30.1035 10.054 30.1035C10.6367 30.1035 11.109 29.6446 11.109 29.0785C11.109 28.5124 10.6367 28.0535 10.054 28.0535Z" fill="#1A1A1A"/>
</svg>
