<svg width="48" height="55" viewBox="0 0 48 55" fill="none" xmlns="http://www.w3.org/2000/svg">
<path d="M45.0581 46.6174C45.4528 46.8164 45.5907 47.0065 45.6328 47.1035C45.6655 47.1785 45.6672 47.2515 45.6108 47.3525C45.4703 47.6045 44.9436 47.9894 43.9999 47.9894H38.5234C37.5861 47.9894 37.3388 49.2845 38.2101 49.6295L42.5066 51.3334C43.1236 51.5784 43.2897 52.0224 43.2557 52.3344C43.2232 52.6334 42.9887 52.9984 42.3461 53.0654C37.0079 53.6264 30.0412 54.0294 26.3334 54.1234C20.8479 54.2624 15.354 53.9075 10.7931 53.1245C8.51278 52.7335 6.54922 52.2495 4.96836 51.7025C3.37557 51.1505 2.22147 50.5515 1.51797 49.9565C0.81655 49.3625 0.70307 48.9044 0.765501 48.5784C0.839935 48.1894 1.21778 47.6414 2.22203 47.0184C4.20711 45.7874 7.91361 44.7165 12.7884 44.0475C17.6343 43.3825 23.2401 43.1675 28.6438 43.4435C34.0535 43.7205 38.8872 44.4684 42.3282 45.5454C43.4101 45.8844 44.3215 46.2444 45.0581 46.6174Z" fill="#91D940"/>
<path fill-rule="evenodd" clip-rule="evenodd" d="M42.7839 50.6368C43.6874 50.9958 44.0752 51.7413 44.0016 52.4161C43.9681 52.7241 43.8303 53.0582 43.5485 53.3282C43.2638 53.601 42.8782 53.7633 42.4235 53.8107L42.4245 53.8116C37.7351 54.3045 31.8 54.675 27.8932 54.8234L26.3522 54.8732C20.8265 55.0132 15.2833 54.6559 10.6667 53.8634L9.81512 53.7111C7.86254 53.3439 6.14917 52.9046 4.72332 52.4113C3.09417 51.8466 1.83862 51.2098 1.03289 50.5284C0.222362 49.8419 -0.104386 49.1343 0.0289829 48.4376L0.0592563 48.3058C0.239735 47.6496 0.830177 46.9993 1.82683 46.381L2.2448 46.1368C4.43525 44.9291 8.0955 43.9348 12.6862 43.3048L13.613 43.1837C18.2888 42.6073 23.5767 42.4337 28.6823 42.6945L29.697 42.7521C34.7354 43.0687 39.2501 43.7966 42.5524 44.8302L43.3552 45.0958C44.1267 45.3661 44.8084 45.6504 45.3952 45.9474C45.8905 46.1971 46.1875 46.4981 46.321 46.8048C46.3728 46.924 46.4157 47.0804 46.404 47.2657C46.3926 47.4461 46.3322 47.598 46.2653 47.7179L46.1999 47.8234C45.842 48.3419 45.0402 48.7394 43.9997 48.7394H38.5231C38.4939 48.7394 38.4786 48.7448 38.4723 48.7472C38.466 48.7496 38.4617 48.7524 38.4577 48.756C38.4483 48.7644 38.4323 48.7853 38.4255 48.8204C38.4187 48.8559 38.4257 48.8824 38.4313 48.8937C38.4336 48.8981 38.4364 48.9021 38.4411 48.9064C38.4459 48.9108 38.4585 48.9219 38.486 48.9327L42.7839 50.6368ZM10.0905 52.2365C8.19308 51.8796 6.55407 51.4581 5.21355 50.9943C3.65775 50.4551 2.60383 49.8923 2.00262 49.3839C1.705 49.1318 1.58256 48.95 1.53387 48.8468C1.49329 48.7607 1.50144 48.725 1.50262 48.7198C1.51738 48.6427 1.67148 48.2415 2.6159 47.6554L2.61687 47.6564C4.46204 46.5121 8.03737 45.4562 12.8903 44.7902L13.7985 44.672C18.3796 44.1074 23.579 43.9358 28.6052 44.1925L29.6061 44.2491C34.5696 44.5613 38.9548 45.2752 42.1042 46.2609L42.86 46.5118C43.4857 46.731 44.0344 46.9552 44.5065 47.1818C44.3698 47.2145 44.202 47.2394 43.9997 47.2394H38.5231C36.76 47.2397 36.2928 49.6763 37.9343 50.3263L42.2302 52.0304C42.4117 52.1025 42.4733 52.1807 42.4919 52.2101C42.5018 52.2257 42.5054 52.2383 42.5075 52.2462C42.4956 52.2564 42.4352 52.302 42.2673 52.3195C37.6151 52.8083 31.7154 53.1771 27.8415 53.3243L26.3141 53.3741C20.8692 53.5121 15.4246 53.1583 10.9196 52.3849L10.0905 52.2365Z" fill="#1A1A1A"/>
<path d="M24.8067 23.2905C24.8488 20.5696 27.4781 18.368 30.3458 19.148C32.6133 19.7651 33.9444 22.0308 33.4913 24.2466C36.0082 24.8467 37.8368 27.1066 37.837 29.7564C37.837 32.4265 36.0013 34.6249 33.5743 35.2446L35.254 41.9898C36.0382 45.1396 33.8105 48.1904 30.6544 48.4819C30.3547 49.7788 29.1468 50.6954 27.7803 50.5864C26.5745 50.4894 25.6167 49.6224 25.3467 48.5073H22.8038C22.5338 49.6224 21.5761 50.4894 20.3702 50.5864C19.0067 50.6952 17.8001 49.7831 17.4971 48.4907C14.2888 48.2546 12.0056 45.1723 12.7979 41.9898L14.4776 35.2388C12.0514 34.619 10.2159 32.4205 10.2159 29.7505C10.2159 27.1016 12.0447 24.8427 14.5616 24.2427C14.1113 22.0279 15.4413 19.7642 17.7071 19.148C20.5725 18.368 23.2001 20.5668 23.2462 23.2847C23.766 23.2577 24.287 23.2595 24.8067 23.2905Z" fill="#B3B3B3"/>
<path fill-rule="evenodd" clip-rule="evenodd" d="M23.9229 22.5161C23.4428 19.6977 20.6019 17.5822 17.5108 18.4234C15.0894 19.0827 13.5811 21.3458 13.7344 23.7066C11.2261 24.5958 9.46591 26.9849 9.46588 29.7505C9.46588 32.5072 11.1932 34.8207 13.5801 35.7398L12.0704 41.8081C11.2075 45.2739 13.5363 48.6325 16.9297 49.1753C17.4647 50.4918 18.7724 51.3872 20.251 51.3443L20.4297 51.3345C21.7531 51.228 22.8434 50.3941 23.3409 49.2574H24.711C25.2085 50.3942 26.2999 51.2279 27.6231 51.3345C29.1743 51.458 30.5689 50.5449 31.1251 49.1753C34.4015 48.6499 36.685 45.4995 36.0596 42.1626L35.9815 41.8081L34.4717 35.7456C36.8594 34.8265 38.587 32.5128 38.587 29.7564C38.5869 26.9885 36.8259 24.5986 34.3165 23.7105C34.4716 21.3481 32.9646 19.0826 30.5421 18.4234C27.4511 17.5831 24.6092 19.6975 24.129 22.5161C24.0734 22.5155 24.0178 22.5158 23.9622 22.516C23.9491 22.516 23.936 22.5161 23.9229 22.5161ZM22.7891 35.4224C23.5697 35.3334 24.3581 35.3335 25.1387 35.4204L31.4571 36.1304C31.9893 36.1901 32.5118 36.1804 33.0176 36.1138L34.5264 42.1704L34.584 42.437C35.0181 44.7546 33.5815 46.9522 31.4151 47.5777L31.9756 40.6138C32.0088 40.2011 31.7008 39.8396 31.2881 39.8062C30.8754 39.7731 30.5138 40.0809 30.4805 40.4937L29.8751 48.024C29.7872 49.1135 28.8326 49.9262 27.7422 49.8394C26.6524 49.7514 25.8401 48.7957 25.9278 47.7056L26.5333 40.1773C26.5664 39.7647 26.2583 39.4022 25.8458 39.3687C25.4331 39.3355 25.0716 39.6436 25.0381 40.0562L24.4327 47.5855C24.4281 47.643 24.4247 47.7003 24.4229 47.7574H23.6299L23.6202 47.5855L23.0147 40.0562C22.9812 39.6436 22.6198 39.3355 22.2071 39.3687C21.7944 39.4021 21.4865 39.7646 21.5196 40.1773L22.1251 47.7056L22.1309 47.9087C22.1111 48.8454 21.4321 49.6439 20.5108 49.813L20.3096 49.8394C19.2874 49.9205 18.385 49.211 18.2042 48.2241L18.1778 48.024L17.5723 40.4937C17.5391 40.0809 17.1766 39.773 16.7637 39.8062C16.3513 39.8398 16.0432 40.2013 16.0762 40.6138L16.6368 47.5786C14.3875 46.929 12.9247 44.5835 13.5255 42.1704L15.0342 36.1079C15.5422 36.1748 16.0671 36.1841 16.6016 36.1236L22.7891 35.4224ZM25.5567 23.3023C25.5918 21.0444 27.7778 19.2257 30.1485 19.8716C31.9684 20.3666 33.062 22.1445 32.7872 23.9243L32.7559 24.0962C32.6748 24.4932 32.9237 24.8821 33.3174 24.9761C35.5006 25.4962 37.0869 27.4576 37.087 29.7564C37.087 32.6874 34.5373 34.9672 31.6241 34.6402L25.3067 33.9302C24.4141 33.8302 23.5126 33.8302 22.6202 33.9312L16.4327 34.6333C13.5184 34.9631 10.9659 32.6834 10.9659 29.7505C10.9659 27.4525 12.5524 25.4922 14.7354 24.9712C15.1286 24.877 15.3765 24.4892 15.296 24.0923C14.923 22.2574 16.0273 20.3816 17.9044 19.8716C20.2733 19.2266 22.4579 21.0425 22.4962 23.2974C22.4997 23.5003 22.5857 23.6945 22.7344 23.8335C22.8832 23.9714 23.0821 24.0446 23.2852 24.0337C23.6539 24.0142 24.0237 24.01 24.3926 24.022L24.7608 24.0396L24.838 24.0406C25.0152 24.0335 25.1851 23.9629 25.3165 23.8413C25.448 23.7188 25.5312 23.5549 25.5518 23.3784L25.5567 23.3023Z" fill="#1A1A1A"/>
<path d="M15.6067 30.2963C16.7559 30.2963 17.6876 29.3773 17.6876 28.2436C17.6876 27.1099 16.7559 26.1909 15.6067 26.1909C14.4575 26.1909 13.5258 27.1099 13.5258 28.2436C13.5258 29.3773 14.4575 30.2963 15.6067 30.2963Z" fill="#444444"/>
<path d="M32.4465 30.2963C33.5958 30.2963 34.5274 29.3773 34.5274 28.2436C34.5274 27.1099 33.5958 26.1909 32.4465 26.1909C31.2973 26.1909 30.3657 27.1099 30.3657 28.2436C30.3657 29.3773 31.2973 30.2963 32.4465 30.2963Z" fill="#444444"/>
<path d="M29.2438 22.7666C29.7326 22.7666 30.1288 23.1628 30.1288 23.6516C30.1288 24.1404 29.7326 24.5366 29.2438 24.5366C28.7551 24.5366 28.3588 24.1404 28.3588 23.6516C28.3588 23.1628 28.7551 22.7666 29.2438 22.7666Z" fill="#1A1A1A"/>
<path d="M18.8083 22.7666C18.3195 22.7666 17.9233 23.1628 17.9233 23.6516C17.9233 24.1404 18.3195 24.5366 18.8083 24.5366C19.2971 24.5366 19.6933 24.1404 19.6933 23.6516C19.6933 23.1628 19.2971 22.7666 18.8083 22.7666Z" fill="#1A1A1A"/>
<path fill-rule="evenodd" clip-rule="evenodd" d="M21.8523 26.3173C22.1611 26.0413 22.6353 26.0678 22.9113 26.3766C23.4854 27.0187 24.4826 27.0429 25.0874 26.4291L25.1664 26.3492C25.4576 26.0546 25.9325 26.0519 26.227 26.3431C26.5216 26.6344 26.5243 27.1092 26.2331 27.4038L26.1559 27.4819C26.1557 27.4821 26.156 27.4817 26.1559 27.4819C24.9436 28.7115 22.9442 28.664 21.793 27.3763C21.517 27.0675 21.5435 26.5934 21.8523 26.3173Z" fill="#1A1A1A"/>
</svg>
