<svg width="48" height="55" viewBox="0 0 48 55" fill="none" xmlns="http://www.w3.org/2000/svg">
<path d="M45.0582 46.6174C45.4529 46.8164 45.5907 47.0065 45.6329 47.1035C45.6656 47.1785 45.6673 47.2515 45.6109 47.3525C45.4703 47.6045 44.9437 47.9894 44 47.9894H38.5235C37.5862 47.9894 37.3389 49.2845 38.2102 49.6295L42.5067 51.3334C43.1237 51.5784 43.2898 52.0224 43.2558 52.3344C43.2233 52.6334 42.9888 52.9984 42.3462 53.0654C37.008 53.6264 30.0413 54.0294 26.3335 54.1234C20.848 54.2624 15.3541 53.9075 10.7932 53.1245C8.51284 52.7335 6.54928 52.2495 4.96843 51.7025C3.37564 51.1505 2.22154 50.5515 1.51804 49.9565C0.816611 49.3625 0.703131 48.9044 0.765562 48.5784C0.839996 48.1894 1.21785 47.6414 2.2221 47.0184C4.20718 45.7874 7.91367 44.7165 12.7885 44.0475C17.6344 43.3825 23.2402 43.1675 28.6439 43.4435C34.0536 43.7205 38.8873 44.4684 42.3283 45.5454C43.4102 45.8844 44.3215 46.2444 45.0582 46.6174Z" fill="#91D940"/>
<path fill-rule="evenodd" clip-rule="evenodd" d="M42.7839 50.6368C43.6875 50.9958 44.0752 51.7413 44.0017 52.4161C43.9681 52.7241 43.8304 53.0582 43.5486 53.3282C43.2638 53.601 42.8782 53.7633 42.4236 53.8107L42.4246 53.8116C37.7352 54.3045 31.8 54.675 27.8933 54.8234L26.3523 54.8732C20.8266 55.0132 15.2833 54.6559 10.6667 53.8634L9.81518 53.7111C7.8626 53.3439 6.14924 52.9046 4.72338 52.4113C3.09423 51.8466 1.83868 51.2098 1.03295 50.5284C0.222423 49.8419 -0.104325 49.1343 0.0290439 48.4376L0.0593173 48.3058C0.239796 47.6496 0.830238 46.9993 1.8269 46.381L2.24486 46.1368C4.43531 44.9291 8.09557 43.9348 12.6863 43.3048L13.613 43.1837C18.2889 42.6073 23.5768 42.4337 28.6824 42.6945L29.697 42.7521C34.7354 43.0687 39.2501 43.7966 42.5525 44.8302L43.3552 45.0958C44.1268 45.3661 44.8084 45.6504 45.3953 45.9474C45.8906 46.1971 46.1876 46.4981 46.321 46.8048C46.3729 46.924 46.4157 47.0804 46.404 47.2657C46.3926 47.4461 46.3323 47.598 46.2654 47.7179L46.1999 47.8234C45.8421 48.3419 45.0403 48.7394 43.9997 48.7394H38.5232C38.494 48.7394 38.4786 48.7448 38.4724 48.7472C38.466 48.7496 38.4618 48.7524 38.4578 48.756C38.4484 48.7644 38.4323 48.7853 38.4255 48.8204C38.4188 48.8559 38.4258 48.8824 38.4314 48.8937C38.4337 48.8981 38.4365 48.9021 38.4412 48.9064C38.446 48.9108 38.4586 48.9219 38.4861 48.9327L42.7839 50.6368ZM10.0906 52.2365C8.19314 51.8796 6.55413 51.4581 5.21361 50.9943C3.65781 50.4551 2.60389 49.8923 2.00268 49.3839C1.70506 49.1318 1.58262 48.95 1.53393 48.8468C1.49335 48.7607 1.5015 48.725 1.50268 48.7198C1.51744 48.6427 1.67154 48.2415 2.61596 47.6554L2.61693 47.6564C4.46211 46.5121 8.03743 45.4562 12.8904 44.7902L13.7986 44.672C18.3797 44.1074 23.5791 43.9358 28.6052 44.1925L29.6062 44.2491C34.5697 44.5613 38.9549 45.2752 42.1042 46.2609L42.8601 46.5118C43.4858 46.731 44.0344 46.9552 44.5066 47.1818C44.3699 47.2145 44.202 47.2394 43.9997 47.2394H38.5232C36.76 47.2397 36.2929 49.6763 37.9343 50.3263L42.2302 52.0304C42.4118 52.1025 42.4733 52.1807 42.4919 52.2101C42.5018 52.2257 42.5055 52.2383 42.5076 52.2462C42.4957 52.2564 42.4352 52.302 42.2673 52.3195C37.6152 52.8083 31.7155 53.1771 27.8415 53.3243L26.3142 53.3741C20.8692 53.5121 15.4247 53.1583 10.9197 52.3849L10.0906 52.2365Z" fill="#1A1A1A"/>
<path d="M24.8068 23.2905C24.8488 20.5696 27.4782 18.368 30.3458 19.148C32.6133 19.7651 33.9444 22.0308 33.4913 24.2466C36.0083 24.8467 37.8369 27.1066 37.837 29.7564C37.837 32.4265 36.0013 34.6249 33.5743 35.2446L35.254 41.9898C36.0382 45.1396 33.8105 48.1904 30.6544 48.4819C30.3548 49.7788 29.1469 50.6954 27.7804 50.5864C26.5746 50.4894 25.6167 49.6224 25.3468 48.5073H22.8038C22.5339 49.6224 21.5761 50.4894 20.3702 50.5864C19.0067 50.6952 17.8001 49.7831 17.4972 48.4907C14.2888 48.2546 12.0057 45.1723 12.798 41.9898L14.4777 35.2388C12.0515 34.619 10.2159 32.4205 10.2159 29.7505C10.216 27.1016 12.0448 24.8427 14.5616 24.2427C14.1114 22.0279 15.4413 19.7642 17.7072 19.148C20.5726 18.368 23.2001 20.5668 23.2462 23.2847C23.7661 23.2577 24.2871 23.2595 24.8068 23.2905Z" fill="#FFBDF2"/>
<path fill-rule="evenodd" clip-rule="evenodd" d="M23.923 22.5161C23.4429 19.6977 20.6019 17.5822 17.5109 18.4234C15.0895 19.0827 13.5811 21.3458 13.7345 23.7066C11.2261 24.5958 9.46597 26.9849 9.46594 29.7505C9.46594 32.5072 11.1933 34.8207 13.5802 35.7398L12.0704 41.8081C11.2076 45.2739 13.5364 48.6325 16.9298 49.1753C17.4647 50.4918 18.7724 51.3872 20.2511 51.3443L20.4298 51.3345C21.7531 51.228 22.8435 50.3941 23.3409 49.2574H24.7111C25.2085 50.3942 26.2999 51.2279 27.6232 51.3345C29.1743 51.458 30.569 50.5449 31.1251 49.1753C34.4016 48.6499 36.6851 45.4995 36.0597 42.1626L35.9816 41.8081L34.4718 35.7456C36.8595 34.8265 38.587 32.5128 38.587 29.7564C38.5869 26.9885 36.826 24.5986 34.3165 23.7105C34.4717 21.3481 32.9646 19.0826 30.5421 18.4234C27.4512 17.5831 24.6092 19.6975 24.129 22.5161C24.0734 22.5155 24.0179 22.5158 23.9623 22.516C23.9492 22.516 23.9361 22.5161 23.923 22.5161ZM22.7892 35.4224C23.5698 35.3334 24.3582 35.3335 25.1388 35.4204L31.4572 36.1304C31.9894 36.1901 32.5119 36.1804 33.0177 36.1138L34.5265 42.1704L34.5841 42.437C35.0182 44.7546 33.5815 46.9522 31.4152 47.5777L31.9757 40.6138C32.0088 40.2011 31.7009 39.8396 31.2882 39.8062C30.8754 39.7731 30.5138 40.0809 30.4806 40.4937L29.8751 48.024C29.7873 49.1135 28.8327 49.9262 27.7423 49.8394C26.6525 49.7514 25.8402 48.7957 25.9279 47.7056L26.5333 40.1773C26.5664 39.7647 26.2583 39.4022 25.8458 39.3687C25.4331 39.3355 25.0717 39.6436 25.0382 40.0562L24.4327 47.5855C24.4281 47.643 24.4248 47.7003 24.423 47.7574H23.63L23.6202 47.5855L23.0148 40.0562C22.9813 39.6436 22.6198 39.3355 22.2072 39.3687C21.7945 39.4021 21.4865 39.7646 21.5197 40.1773L22.1251 47.7056L22.131 47.9087C22.1112 48.8454 21.4322 49.6439 20.5109 49.813L20.3097 49.8394C19.2875 49.9205 18.3851 49.211 18.2042 48.2241L18.1779 48.024L17.5724 40.4937C17.5391 40.0809 17.1766 39.773 16.7638 39.8062C16.3514 39.8398 16.0432 40.2013 16.0763 40.6138L16.6368 47.5786C14.3876 46.929 12.9248 44.5835 13.5255 42.1704L15.0343 36.1079C15.5423 36.1748 16.0671 36.1841 16.6017 36.1236L22.7892 35.4224ZM25.5568 23.3023C25.5919 21.0444 27.7779 19.2257 30.1486 19.8716C31.9684 20.3666 33.062 22.1445 32.7872 23.9243L32.756 24.0962C32.6749 24.4932 32.9237 24.8821 33.3175 24.9761C35.5007 25.4962 37.0869 27.4576 37.087 29.7564C37.087 32.6874 34.5373 34.9672 31.6241 34.6402L25.3068 33.9302C24.4142 33.8302 23.5126 33.8302 22.6202 33.9312L16.4327 34.6333C13.5185 34.9631 10.9659 32.6834 10.9659 29.7505C10.966 27.4525 12.5525 25.4922 14.7355 24.9712C15.1286 24.877 15.3766 24.4892 15.296 24.0923C14.9231 22.2574 16.0274 20.3816 17.9044 19.8716C20.2733 19.2266 22.458 21.0425 22.4962 23.2974C22.4997 23.5003 22.5858 23.6945 22.7345 23.8335C22.8833 23.9714 23.0821 24.0446 23.2853 24.0337C23.654 24.0142 24.0237 24.01 24.3927 24.022L24.7609 24.0396L24.838 24.0406C25.0153 24.0335 25.1852 23.9629 25.3165 23.8413C25.4481 23.7188 25.5312 23.5549 25.5519 23.3784L25.5568 23.3023Z" fill="#1A1A1A"/>
<path d="M15.6067 30.2963C16.756 30.2963 17.6876 29.3773 17.6876 28.2436C17.6876 27.1099 16.756 26.1909 15.6067 26.1909C14.4575 26.1909 13.5259 27.1099 13.5259 28.2436C13.5259 29.3773 14.4575 30.2963 15.6067 30.2963Z" fill="#FF24BD"/>
<path d="M32.4466 30.2963C33.5958 30.2963 34.5275 29.3773 34.5275 28.2436C34.5275 27.1099 33.5958 26.1909 32.4466 26.1909C31.2974 26.1909 30.3657 27.1099 30.3657 28.2436C30.3657 29.3773 31.2974 30.2963 32.4466 30.2963Z" fill="#FF24BD"/>
<path d="M29.2439 22.7666C29.7327 22.7666 30.1289 23.1628 30.1289 23.6516C30.1289 24.1404 29.7327 24.5366 29.2439 24.5366C28.7551 24.5366 28.3589 24.1404 28.3589 23.6516C28.3589 23.1628 28.7551 22.7666 29.2439 22.7666Z" fill="#1A1A1A"/>
<path d="M18.8083 22.7666C18.3196 22.7666 17.9233 23.1628 17.9233 23.6516C17.9233 24.1404 18.3196 24.5366 18.8083 24.5366C19.2971 24.5366 19.6933 24.1404 19.6933 23.6516C19.6933 23.1628 19.2971 22.7666 18.8083 22.7666Z" fill="#1A1A1A"/>
<path fill-rule="evenodd" clip-rule="evenodd" d="M21.8524 26.3173C22.1612 26.0413 22.6353 26.0678 22.9114 26.3766C23.4854 27.0187 24.4826 27.0429 25.0875 26.4291L25.1665 26.3492C25.4577 26.0546 25.9325 26.0519 26.2271 26.3431C26.5216 26.6344 26.5244 27.1092 26.2331 27.4038L26.1559 27.4819C26.1557 27.4821 26.1561 27.4817 26.1559 27.4819C24.9437 28.7115 22.9443 28.664 21.7931 27.3763C21.517 27.0675 21.5436 26.5934 21.8524 26.3173Z" fill="#1A1A1A"/>
</svg>
