<svg width="45.8059" height="49.5224" viewBox="0 0 47.3057 50.2724" fill="none" xmlns="http://www.w3.org/2000/svg">
<g id="Group 1">
<path id="Vector 133" d="M6.32991 23.4468C6.33368 25.3198 1.66355 32.3243 0.75 33.9931C0.75 37.6088 1.53938 38.4853 3.4071 40.467C10.594 48.0926 22.8558 49.5224 31.8952 49.5224C59.375 49.5224 42.8132 21.3976 26.1161 16.1868C18.258 13.7342 15.7809 16.3636 13.1941 17.8082C10.5719 19.2725 8.41225 21.2374 6.32991 23.4468Z" fill="var(--fill-0, #AFBCCF)"/>
<path id="Vector 130" d="M29.1366 36.2381C24.8245 33.5466 18.9571 33.4563 14.1905 32.479C11.362 31.8991 8.25706 30.1296 5.42206 30.1296C2.74197 30.1296 5.52638 24.2994 6.32991 23.4468C8.41225 21.2374 10.5719 19.2725 13.1941 17.8082C15.7809 16.3636 18.258 13.7342 26.1161 16.1868C42.8132 21.3976 59.375 49.5224 31.8952 49.5224C22.8558 49.5224 10.594 48.0926 3.4071 40.467C1.53938 38.4853 0.749999 37.6088 0.749999 33.9931C0.749999 30.3771 3.67681 30.1296 4.82422 30.1296" stroke="var(--stroke-0, #1A1A1A)" stroke-width="1.5" stroke-linecap="round"/>
<circle id="Ellipse 63" cx="12.8391" cy="26.832" r="0.958166" transform="rotate(10 12.8391 26.832)" fill="var(--fill-0, #1A1A1A)"/>
<circle id="Ellipse 64" cx="22.4208" cy="28.7483" r="0.958166" transform="rotate(10 22.4208 28.7483)" fill="var(--fill-0, #1A1A1A)"/>
<g id="Union">
<path fill-rule="evenodd" clip-rule="evenodd" d="M21.3618 10.8864C15.6149 10.8607 11.92 7.52583 10.1469 4.81195C9.59831 3.9723 9.95308 2.87593 10.8468 2.42074C18.7396 -1.59919 22.5522 2.49819 24.0558 6.87996C25.5594 2.49819 29.372 -1.59919 37.2648 2.42074C38.1585 2.87593 38.5133 3.9723 37.9647 4.81195C36.0281 7.77612 31.7988 11.4812 25.1073 10.806L25.2747 15.6827C25.3041 16.5395 24.6176 17.25 23.7604 17.25C23.0256 17.25 22.3967 16.7228 22.2685 15.9993L21.3618 10.8864Z" fill="var(--fill-0, #14AE5C)"/>
<path d="M21.3618 10.8864L22.1003 10.7555C22.037 10.3986 21.7276 10.138 21.3652 10.1364L21.3618 10.8864ZM10.1469 4.81195L10.7748 4.40173H10.7748L10.1469 4.81195ZM10.8468 2.42074L10.5064 1.75243H10.5064L10.8468 2.42074ZM24.0558 6.87996L23.3464 7.12338C23.4504 7.42643 23.7354 7.62996 24.0558 7.62996C24.3762 7.62996 24.6612 7.42643 24.7652 7.12338L24.0558 6.87996ZM37.2648 2.42074L36.9244 3.08905V3.08905L37.2648 2.42074ZM37.9647 4.81195L37.3368 4.40173V4.40173L37.9647 4.81195ZM25.1073 10.806L25.1826 10.0598C24.9671 10.0381 24.7529 10.1105 24.5948 10.2584C24.4367 10.4063 24.3503 10.6154 24.3577 10.8317L25.1073 10.806ZM25.2747 15.6827L26.0243 15.657V15.657L25.2747 15.6827ZM22.2685 15.9993L21.53 16.1302L22.2685 15.9993ZM21.3618 10.8864L21.3652 10.1364C15.9393 10.1122 12.4526 6.96977 10.7748 4.40173L10.1469 4.81195L9.51903 5.22217C11.3874 8.08189 15.2905 11.6093 21.3585 11.6364L21.3618 10.8864ZM10.1469 4.81195L10.7748 4.40173C10.4969 3.97648 10.6461 3.36464 11.1872 3.08905L10.8468 2.42074L10.5064 1.75243C9.26007 2.38722 8.69969 3.96811 9.51903 5.22217L10.1469 4.81195ZM10.8468 2.42074L11.1872 3.08905C14.9989 1.1477 17.6635 1.24138 19.5104 2.16981C21.392 3.11568 22.6267 5.02614 23.3464 7.12338L24.0558 6.87996L24.7652 6.63654C23.9813 4.35201 22.5579 2.0229 20.1841 0.829613C17.7756 -0.38111 14.5875 -0.326155 10.5064 1.75243L10.8468 2.42074ZM37.2648 2.42074L37.6052 1.75243C33.524 -0.326156 30.336 -0.38111 27.9275 0.829613C25.5537 2.0229 24.1303 4.35201 23.3464 6.63654L24.0558 6.87996L24.7652 7.12338C25.4848 5.02614 26.7196 3.11568 28.6012 2.16981C30.4481 1.24138 33.1127 1.1477 36.9244 3.08905L37.2648 2.42074ZM37.9647 4.81195L38.5926 5.22217C39.4119 3.96812 38.8515 2.38722 37.6052 1.75243L37.2648 2.42074L36.9244 3.08905C37.4655 3.36464 37.6147 3.97648 37.3368 4.40173L37.9647 4.81195ZM25.1073 10.806L25.032 11.5522C32.0796 12.2633 36.5504 8.34783 38.5926 5.22217L37.9647 4.81195L37.3368 4.40173C35.5057 7.20441 31.5181 10.699 25.1826 10.0598L25.1073 10.806ZM25.2747 15.6827L26.0243 15.657L25.8568 10.7803L25.1073 10.806L24.3577 10.8317L24.5252 15.7085L25.2747 15.6827ZM23.7604 17.25V18C25.0419 18 26.0682 16.9378 26.0243 15.657L25.2747 15.6827L24.5252 15.7085C24.54 16.1411 24.1933 16.5 23.7604 16.5V17.25ZM22.2685 15.9993L21.53 16.1302C21.7218 17.2118 22.6619 18 23.7604 18V17.25V16.5C23.3893 16.5 23.0717 16.2337 23.0069 15.8683L22.2685 15.9993ZM21.3618 10.8864L20.6233 11.0174L21.53 16.1302L22.2685 15.9993L23.0069 15.8683L22.1003 10.7555L21.3618 10.8864Z" fill="var(--stroke-0, #1A1A1A)"/>
</g>
<path id="Vector 4972" d="M27.0341 6.97662C29.1923 5.44158 31.6078 4.40733 33.4852 3.79254C34.0004 3.62384 33.9643 2.88609 33.4222 2.8797C29.8981 2.83817 27.6273 4.69944 26.4073 6.46712C26.1132 6.89315 26.6123 7.27666 27.0341 6.97662Z" fill="var(--fill-0, #036838)"/>
<path id="Vector 4972_2" d="M20.0775 6.97645C17.9193 5.4414 15.5038 4.40715 13.6264 3.79237C13.1113 3.62367 13.1473 2.88592 13.6894 2.87953C17.2135 2.83799 19.4844 4.69926 20.7044 6.46694C20.9984 6.89298 20.4993 7.27648 20.0775 6.97645Z" fill="var(--fill-0, #036838)"/>
</g>
</svg>
