<svg width="125" height="42" viewBox="0 0 125 42" fill="none" xmlns="http://www.w3.org/2000/svg">
<g clip-path="url(#clip0_53532_1157)">
<path d="M124.563 23.3583C124.563 33.1904 96.6783 41.1609 62.2813 41.1609C27.8843 41.1609 2.83831e-05 33.1904 2.83831e-05 23.3583C2.83831e-05 13.5261 -3.71934e-05 32.7689 3.10065e-05 15.4374C14.8833 15.4374 100.619 15.0796 124.563 15.4701C124.563 26.1593 124.563 17.7804 124.563 23.3583Z" fill="#603A2A"/>
<path d="M62.2812 31.6052C96.6782 31.6052 124.562 24.5301 124.562 15.8026C124.562 7.07506 96.6782 0 62.2812 0C27.8842 0 0 7.07506 0 15.8026C0 24.5301 27.8842 31.6052 62.2812 31.6052Z" fill="#A55E40"/>
<mask id="mask0_53532_1157" style="mask-type:luminance" maskUnits="userSpaceOnUse" x="0" y="0" width="125" height="32">
<path d="M62.2812 31.6052C96.6782 31.6052 124.562 24.5301 124.562 15.8026C124.562 7.07506 96.6782 0 62.2812 0C27.8842 0 0 7.07506 0 15.8026C0 24.5301 27.8842 31.6052 62.2812 31.6052Z" fill="#A55E40"/>
</mask>
<g mask="url(#mask0_53532_1157)">
<path fill-rule="evenodd" clip-rule="evenodd" d="M4.89008 21.2457C5.38777 21.2638 5.83515 21.2855 6.28071 21.2818C8.33175 21.2649 10.3624 21.6781 12.2768 22.0621C14.2283 22.4536 16.0681 22.8174 17.9038 22.8024C19.7448 22.7872 21.5735 22.9813 23.3364 23.1676C25.1186 23.3559 26.8369 23.5361 28.5502 23.5221C28.7509 23.5204 28.9752 23.4967 29.269 23.4645C29.5443 23.4343 29.8806 23.3974 30.2221 23.3912C30.9212 23.3787 31.775 23.4938 32.5307 24.1383C33.6473 25.0906 34.6867 25.0874 36.2172 25.0748C38.2242 25.0583 40.3426 24.9721 42.4165 25.024C43.7343 25.0571 45.0253 25.395 46.2231 25.7643C47.4666 26.1477 48.5607 26.5463 49.685 26.8102C53.9014 27.7992 57.949 28.1276 62.2231 28.0924C62.7789 28.0878 63.3489 27.9265 64.0756 27.7115C64.7504 27.512 65.5879 27.2569 66.4633 27.2496C67.649 27.2398 68.8354 27.23 70.0209 27.2203C72.4909 27.2 74.9563 27.1791 77.4262 27.1588C83.5742 27.1082 89.6958 27.21 95.8032 27.0084C96.8158 26.9749 97.8425 26.621 99.0522 26.2027C100.199 25.8061 101.529 25.345 102.908 25.3336C103.685 25.3272 104.459 25.2278 105.301 25.1188C106.125 25.0122 107.019 24.8959 107.939 24.8883L116.093 24.8209C118.811 24.7985 121.53 24.7769 124.248 24.7545C124.8 24.75 125.251 25.1935 125.255 25.7457C125.26 26.2979 124.816 26.7489 124.264 26.7535C121.546 26.7759 118.828 26.7985 116.11 26.8209C113.392 26.8433 110.672 26.865 107.955 26.8873L107.956 26.8883C107.176 26.8948 106.401 26.9931 105.558 27.1022C104.735 27.2087 103.842 27.326 102.924 27.3336C101.928 27.3419 100.908 27.6777 99.7055 28.0934C98.5659 28.4874 97.2403 28.9621 95.8686 29.0074C89.7324 29.21 83.5207 29.1088 77.4428 29.1588C74.9763 29.1791 72.5042 29.2 70.0375 29.2203C68.8521 29.23 67.6656 29.2398 66.4799 29.2496C65.935 29.2542 65.3718 29.4137 64.642 29.6295C63.9645 29.8299 63.124 30.0841 62.2397 30.0914C57.847 30.1276 53.6347 29.7912 49.228 28.7574C48.0165 28.4732 46.7516 28.0199 45.6342 27.6754C44.4714 27.3169 43.3975 27.0499 42.3666 27.024C40.3316 26.9731 38.3352 27.0575 36.2338 27.0748C34.7423 27.0871 32.9772 27.1475 31.2329 25.6598C30.9992 25.4606 30.7124 25.3822 30.2582 25.3902C30.0234 25.3945 29.7783 25.4209 29.4877 25.4527C29.2159 25.4825 28.8871 25.5194 28.5668 25.5221C26.721 25.5372 24.8896 25.3432 23.1264 25.1568C21.344 24.9685 19.6288 24.7883 17.9204 24.8024C15.8431 24.8194 13.7998 24.4075 11.8832 24.0231C9.9298 23.6312 8.10532 23.267 6.29731 23.2818C5.7937 23.286 5.2802 23.2616 4.81684 23.2447C4.34004 23.2274 3.89798 23.2175 3.47016 23.2418C2.62914 23.2897 1.8904 23.4681 1.20258 23.9537C0.751579 24.2719 0.127574 24.1642 -0.190972 23.7135C-0.509245 23.2626 -0.402177 22.6386 0.0482862 22.3199C1.14203 21.5476 2.28678 21.3057 3.35688 21.2447C3.8842 21.2148 4.40596 21.2281 4.89008 21.2457ZM3.38325 16.6461C4.32886 16.6169 5.42811 16.658 6.28168 16.651C8.26807 16.6347 10.2429 16.8123 12.1665 16.984C14.1061 17.1571 15.9972 17.3248 17.8969 17.3092C19.7027 17.2943 21.5007 17.3753 23.268 17.4547C25.0442 17.5345 26.7918 17.6126 28.5405 17.5983C28.7729 17.5963 29.025 17.583 29.3129 17.567C29.5925 17.5515 29.9051 17.5339 30.2182 17.5299C30.8325 17.5221 31.5607 17.5623 32.2377 17.8297C33.4521 18.3092 34.6556 18.3014 36.1997 18.2887C38.2319 18.272 40.318 18.2228 42.3813 18.2379C43.623 18.247 44.8568 18.3911 46.0463 18.5572C47.2575 18.7264 48.3909 18.9134 49.5356 19.0338C53.7961 19.4818 57.8855 19.618 62.1918 19.5826C62.8346 19.5773 63.4758 19.4877 64.1889 19.3863C64.8806 19.288 65.6481 19.177 66.436 19.1705C67.6214 19.1608 68.8073 19.151 69.9926 19.1412C72.4611 19.1209 74.9305 19.101 77.3989 19.0807C83.5281 19.0303 89.6728 19.0504 95.7885 18.9293C96.8957 18.9073 98.0008 18.723 99.1918 18.526C100.358 18.3331 101.608 18.1273 102.886 18.1168C103.701 18.1101 104.507 18.0587 105.345 18.0045C106.174 17.9508 107.037 17.8945 107.919 17.8873C113.355 17.8425 118.793 17.7974 124.23 17.7526C124.782 17.7485 125.233 18.1929 125.238 18.7447C125.242 19.2968 124.798 19.7477 124.246 19.7526C118.809 19.7974 113.372 19.8425 107.936 19.8873C107.119 19.894 106.312 19.9454 105.474 19.9996C104.645 20.0533 103.783 20.1095 102.903 20.1168C101.805 20.1258 100.705 20.3023 99.518 20.4986C98.3564 20.6908 97.1051 20.903 95.8276 20.9283C89.6985 21.0497 83.5119 21.0305 77.4155 21.0807C74.9471 21.101 72.4777 21.1209 70.0092 21.1412C68.8239 21.151 67.638 21.1608 66.4526 21.1705C65.8202 21.1757 65.1847 21.2652 64.4702 21.3668C63.7772 21.4653 63.0059 21.576 62.2084 21.5826C57.8478 21.6185 53.6803 21.4808 49.3266 21.0231C48.1379 20.8981 46.9163 20.6978 45.77 20.5377C44.6022 20.3746 43.4733 20.246 42.3666 20.2379C40.3214 20.223 38.2925 20.2716 36.2163 20.2887C34.7382 20.3008 33.138 20.3361 31.5024 19.6901C31.1941 19.5683 30.7824 19.5231 30.2436 19.5299C29.9803 19.5333 29.7109 19.5482 29.4243 19.5641C29.1463 19.5795 28.8446 19.5959 28.5561 19.5983C26.7456 19.6131 24.9455 19.5322 23.1782 19.4527C21.402 19.3729 19.6572 19.2948 17.9135 19.3092C15.9006 19.3257 13.9133 19.148 11.9887 18.9762C10.0481 18.8029 8.17076 18.6356 6.29829 18.651H6.29731C5.25225 18.6596 4.41057 18.6153 3.44477 18.6451C2.53351 18.6733 1.7002 18.7705 0.937935 19.024C0.414002 19.1981 -0.152393 18.9142 -0.326714 18.3902C-0.500767 17.8663 -0.216814 17.2999 0.307075 17.1256C1.33167 16.7848 2.38319 16.677 3.38325 16.6461ZM119.746 9.19396C120.72 9.21673 121.748 9.31621 122.752 9.65099C123.276 9.82572 123.559 10.3919 123.384 10.9156C123.21 11.4395 122.643 11.7231 122.12 11.5485C121.384 11.3035 120.581 11.2136 119.699 11.193C118.76 11.1711 117.952 11.2223 116.931 11.2223C115.116 11.2223 113.298 11.4051 111.414 11.5943C109.548 11.782 107.616 11.9762 105.659 11.9762C103.967 11.9762 102.276 12.0683 100.552 12.1627C98.8371 12.2567 97.0883 12.3531 95.3286 12.3531C95.0467 12.3531 94.7526 12.3389 94.4829 12.3258C94.2042 12.3122 93.9441 12.2996 93.6899 12.2985C93.1693 12.2961 92.7787 12.3441 92.4897 12.4645C90.896 13.1285 89.3308 13.107 87.8969 13.107C85.8798 13.107 83.9111 13.0743 81.9262 13.1061C80.8558 13.1233 79.7641 13.2607 78.6323 13.4332C77.5227 13.6024 76.3363 13.813 75.1821 13.9479C70.956 14.4418 66.9089 14.6139 62.6733 14.6139C61.8943 14.6138 61.1403 14.5084 60.4672 14.4156C59.7721 14.3199 59.1586 14.2369 58.5493 14.2369H47.9057C41.9875 14.2369 35.9797 14.3078 30.0278 14.2369C28.7822 14.2221 27.5615 14.019 26.4331 13.8365C25.2786 13.6499 24.2133 13.4831 23.1528 13.483C22.2957 13.483 21.4569 13.4341 20.6518 13.3873C19.8379 13.34 19.0564 13.2946 18.2651 13.2945H2.42915C1.87701 13.2944 1.42915 12.8467 1.42915 12.2945C1.42961 11.7428 1.8773 11.2947 2.42915 11.2945H18.2651C19.1239 11.2946 19.963 11.3444 20.768 11.3912C21.5822 11.4386 22.3633 11.483 23.1528 11.483C24.3989 11.4831 25.6197 11.6798 26.7524 11.8629C27.9113 12.0503 28.9811 12.2242 30.0512 12.2369C35.9894 12.3076 41.9537 12.2369 47.9057 12.2369H58.5493C59.319 12.2369 60.069 12.3416 60.7407 12.4342C61.4346 12.5298 62.0536 12.6138 62.6733 12.6139C66.8529 12.6139 70.8195 12.4443 74.9497 11.9615C76.0587 11.8319 77.155 11.636 78.3315 11.4567C79.4857 11.2807 80.6855 11.1264 81.895 11.107C83.8983 11.075 85.9252 11.107 87.8969 11.107C89.3977 11.107 90.5556 11.104 91.7202 10.6188C92.3846 10.3419 93.0995 10.2957 93.6987 10.2985C94.0043 10.2999 94.3091 10.3145 94.5805 10.3277C94.8607 10.3414 95.1044 10.3531 95.3286 10.3531C97.0245 10.3531 98.7188 10.2601 100.443 10.1656C102.158 10.0717 103.904 9.97621 105.659 9.97619C107.5 9.97619 109.332 9.79329 111.214 9.60412C113.08 9.41661 114.999 9.2223 116.931 9.22228C117.754 9.22227 118.828 9.17254 119.746 9.19396ZM105.413 5.06603C105.653 4.68877 106.127 4.50702 106.571 4.6549C107.094 4.82959 107.378 5.39667 107.204 5.92052C107.086 6.27166 106.849 6.50367 106.661 6.64415C106.468 6.78813 106.253 6.8905 106.06 6.96642C105.674 7.1184 105.22 7.22125 104.801 7.29259C103.955 7.43683 103.057 7.4878 102.658 7.49669C100.72 7.53976 98.7995 7.84633 96.7641 8.10802C93.4606 8.53275 90.3569 9.0582 86.8696 9.05822H76.9799C73.8583 9.05822 70.369 9.31138 67.0952 9.00451C64.9919 8.80732 62.9144 8.47897 60.9086 8.20958C58.8837 7.93762 56.8953 7.71937 54.8686 7.71935C40.6108 7.71935 26.3532 7.73359 12.0766 7.27306C11.5248 7.25526 11.0922 6.79264 11.1098 6.24083C11.1278 5.689 11.5892 5.25624 12.1411 5.27404C26.3794 5.73334 40.6035 5.71935 54.8686 5.71935C57.0318 5.71937 59.1266 5.95201 61.1752 6.22716C63.2431 6.5049 65.2314 6.82108 67.2817 7.01329C70.4382 7.30918 73.6447 7.05822 76.9799 7.05822H86.8696C90.1907 7.0582 93.1094 6.56174 96.5092 6.12462C98.46 5.87381 100.537 5.54286 102.613 5.49669C102.949 5.48921 103.745 5.44379 104.465 5.32091C104.83 5.25869 105.129 5.18431 105.328 5.10607C105.364 5.09166 105.392 5.07618 105.413 5.06603Z" fill="#864E37"/>
</g>
</g>
<defs>
<clipPath id="clip0_53532_1157">
<rect width="125" height="42" fill="white"/>
</clipPath>
</defs>
</svg>
