<svg width="125" height="42" viewBox="0 0 125 42" fill="none" xmlns="http://www.w3.org/2000/svg">
<g clip-path="url(#clip0_53532_1168)">
<path d="M119.985 23.3583C119.985 33.1904 94.1504 41.1609 62.2813 41.1609C30.4122 41.1609 4.57717 33.1904 4.57717 23.3583C4.57717 13.5261 4.57711 32.7689 4.57718 15.4374C18.3667 15.4374 97.8016 15.0796 119.985 15.4701C119.985 26.1593 119.985 17.7804 119.985 23.3583Z" fill="#D2DAE4"/>
<path d="M62.2812 31.6052C96.6782 31.6052 124.562 24.5301 124.562 15.8026C124.562 7.07506 96.6782 0 62.2812 0C27.8842 0 0 7.07506 0 15.8026C0 24.5301 27.8842 31.6052 62.2812 31.6052Z" fill="#E3ECF2"/>
<path d="M62.281 24.7938C89.9631 24.7938 112.404 19.9341 112.404 13.9394C112.404 7.94464 89.9631 3.08496 62.281 3.08496C34.5989 3.08496 12.1582 7.94464 12.1582 13.9394C12.1582 19.9341 34.5989 24.7938 62.281 24.7938Z" fill="#D2DAE4"/>
</g>
<defs>
<clipPath id="clip0_53532_1168">
<rect width="125" height="42" fill="white"/>
</clipPath>
</defs>
</svg>
