<svg width="125" height="43" viewBox="0 0 125 43" fill="none" xmlns="http://www.w3.org/2000/svg">
<g clip-path="url(#clip0_53744_2748)">
<path d="M8.00452 1H116.593L124.598 25.8462H0L8.00452 1Z" fill="#545454"/>
<path d="M116.082 4.52637L118.492 4.53027L118.491 5.53027L116.406 5.52734L117.973 10.3555H120.914V11.3555H118.297L120.177 17.1523H122.569V18.1523H120.501L123.045 25.9971L122.094 26.3057L119.45 18.1523H106.303L108.519 26.1572L107.556 26.4238L105.267 18.1523H91.4297L93.0195 26.1934L92.0391 26.3877L90.4111 18.1523H77.1719L77.8125 26.251L76.8164 26.3301L76.1699 18.1523H62.7812V26.29H61.7812V18.1523H48.3926L47.7461 26.3301L46.75 26.251L47.3906 18.1523H34.1514L32.5234 26.3877L31.543 26.1934L33.1328 18.1523H19.2959L17.0068 26.4238L16.0439 26.1572L18.2598 18.1523H5.1123L2.46875 26.3057L1.51758 25.9971L4.06152 18.1523H1.99316V17.1523H4.38574L6.26562 11.3555H3.64941V10.3555H6.58984L8.19531 5.40234L6.07129 5.40039L6.07324 4.40039L8.51953 4.40234L9.67383 0.845703L10.625 1.1543L9.57031 4.40332L22.0605 4.41797L23.0439 0.866211L24.0068 1.13379L23.0967 4.41895L35.8447 4.43359L36.543 0.90332L37.5234 1.09668L36.8633 4.43457L48.4736 4.44824L48.75 0.960938L49.7461 1.03906L49.4756 4.44922L61.7812 4.46387V1H62.7812V4.46582L75.0879 4.47949L74.8164 1.03906L75.8125 0.960938L76.0908 4.48047L87.71 4.49316L87.0391 1.09668L88.0195 0.90332L88.7295 4.49512L101.489 4.50977L100.556 1.13379L101.519 0.866211L102.527 4.51074L115.03 4.52539L113.938 1.1543L114.889 0.845703L116.082 4.52637ZM5.4375 17.1523H18.5361L20.1406 11.3555H7.31738L5.4375 17.1523ZM19.5732 17.1523H33.3301L34.4766 11.3555H21.1777L19.5732 17.1523ZM34.3496 17.1523H47.4697L47.9277 11.3555H35.4951L34.3496 17.1523ZM48.4717 17.1523H61.7812V11.3555H48.9307L48.4717 17.1523ZM62.7812 17.1523H76.0908L75.6318 11.3555H62.7812V17.1523ZM77.0928 17.1523H90.2129L89.0674 11.3555H76.6348L77.0928 17.1523ZM91.2324 17.1523H104.989L103.385 11.3555H90.0859L91.2324 17.1523ZM106.026 17.1523H119.125L117.245 11.3555H104.422L106.026 17.1523ZM7.6416 10.3555H20.418L21.7832 5.41797L9.24609 5.40332L7.6416 10.3555ZM21.4541 10.3555H34.6738L35.6465 5.43359L22.8203 5.41895L21.4541 10.3555ZM35.6934 10.3555H48.0068L48.3945 5.44824L36.665 5.43457L35.6934 10.3555ZM49.0098 10.3555H61.7812V5.46387L49.3965 5.44922L49.0098 10.3555ZM62.7812 10.3555H75.5527L75.167 5.47949L62.7812 5.46582V10.3555ZM76.5557 10.3555H88.8691L87.9082 5.49414L76.1699 5.48047L76.5557 10.3555ZM89.8887 10.3555H103.108L101.767 5.50977L88.9268 5.49512L89.8887 10.3555ZM104.145 10.3555H116.921L115.354 5.52637L102.804 5.51074L104.145 10.3555Z" fill="#848484"/>
<path d="M124.562 25.8462H0.0351562V42.1611H124.562V25.8462Z" fill="#333333"/>
</g>
<defs>
<clipPath id="clip0_53744_2748">
<rect width="125" height="43" fill="white"/>
</clipPath>
</defs>
</svg>
