<svg width="48" height="55" viewBox="0 0 48 55" fill="none" xmlns="http://www.w3.org/2000/svg">
<path d="M41.25 39.46C41.25 38.92 41.25 38.66 41.245 38.45C41.015 29.33 33.673 21.99 24.549 21.76C24.336 21.75 24.081 21.75 23.545 21.75H22.513C13.807 21.75 6.75 28.81 6.75 37.51C6.75 46.69 14.191 54.1299 23.37 54.1299H35.806C36.841 54.1299 37.575 54.1301 38.151 54.0901C38.72 54.0501 39.074 53.9701 39.357 53.8401C40.063 53.5101 40.629 52.94 40.953 52.24C41.083 51.96 41.164 51.6 41.206 51.03C41.25 50.46 41.25 49.7199 41.25 48.6899V39.46Z" fill="#E6E6E6"/>
<path d="M6 37.5098C6.00013 28.3958 13.3927 21.0002 22.5127 21H23.5449C24.0595 21 24.3358 21.0005 24.5674 21.0107C34.0904 21.2508 41.7548 28.9112 41.9951 38.4307V38.4316L42 39.46V48.6904C42 49.7076 42.0009 50.4822 41.9541 51.0879C41.9092 51.6954 41.8169 52.1565 41.6328 52.5537L41.6338 52.5547C41.2356 53.4151 40.5409 54.1146 39.6748 54.5195L39.6699 54.5215L39.3916 53.9141L39.3682 53.8652L39.6699 54.5215C39.3704 54.659 39.0396 54.7448 38.6348 54.7969L38.2031 54.8379C37.5949 54.8801 36.8293 54.8799 35.8057 54.8799H23.3701C13.7769 54.8799 6 47.104 6 37.5098ZM7.5 37.5098C7.5 46.2755 14.6053 53.3799 23.3701 53.3799H35.8057C36.8518 53.3799 37.5549 53.3795 38.0986 53.3418L38.4443 53.3086C38.6449 53.2827 38.7887 53.2496 38.8994 53.2139L39.0439 53.1582C39.5876 52.9028 40.0234 52.4628 40.2725 51.9248V51.9238C40.3476 51.7619 40.4189 51.5047 40.458 50.9746V50.9727C40.4992 50.4385 40.5 49.7328 40.5 48.6904V39.46C40.5 38.9162 40.4998 38.6673 40.4951 38.4688C40.2751 29.7485 33.255 22.7298 24.5303 22.5098L24.5498 21.7373L24.5488 21.7598L24.5303 22.5098H24.5215L24.5137 22.5088C24.3228 22.4998 24.0896 22.5 23.5449 22.5H22.5127C14.2211 22.5002 7.50013 29.2242 7.5 37.5098Z" fill="#1A1A1A"/>
<path d="M26.2905 39.8208C26.4239 39.4287 26.8496 39.2188 27.2417 39.352C27.6337 39.4854 27.8436 39.9111 27.7104 40.3032C26.5473 43.722 21.584 43.8272 20.4878 40.2837C20.3654 39.888 20.5872 39.4676 20.9829 39.3452C21.3786 39.2228 21.7989 39.4446 21.9214 39.8403C22.5575 41.8966 25.5619 41.9617 26.2905 39.8208Z" fill="#1A1A1A"/>
<path d="M28 36C28.5523 36 29 36.4477 29 37C29 37.5523 28.5523 38 28 38C27.4477 38 27 37.5523 27 37C27 36.4477 27.4477 36 28 36Z" fill="#1A1A1A"/>
<path d="M20 36C19.4477 36 19 36.4477 19 37C19 37.5523 19.4477 38 20 38C20.5523 38 21 37.5523 21 37C21 36.4477 20.5523 36 20 36Z" fill="#1A1A1A"/>
</svg>
