<svg width="48" height="55" viewBox="0 0 48 55" fill="none" xmlns="http://www.w3.org/2000/svg">
<path d="M28.4775 17.5698C32.6072 17.5698 35.9541 20.9199 35.9541 25.0499C35.9539 26.9699 35.2276 28.7199 34.0352 30.0499C35.2276 31.3699 35.9541 33.1299 35.9541 35.0499L35.9443 35.4299C35.7503 39.2599 32.6852 42.3199 28.8623 42.5199L28.4775 42.5299C27.5919 42.5299 26.7426 42.3698 25.9541 42.0898V46.0499C25.9537 50.0499 22.8126 53.3199 18.8623 53.5199L18.4775 53.5299C14.4777 53.5299 11.2103 50.3799 11.0098 46.4299L11 46.0499C11 43.8699 11.9303 41.9099 13.4141 40.5499C12.0187 39.2599 11.1123 37.4499 11.0098 35.4299L11 35.0499C11 33.1299 11.7269 31.3699 12.9199 30.0499C11.8075 28.8099 11.0997 27.1999 11.0098 25.4299L11 25.0499C11 20.9199 14.348 17.5698 18.4775 17.5698H28.4775Z" fill="white"/>
<path d="M35.2041 25.0503C35.2041 21.3341 32.1926 18.3198 28.4775 18.3198H18.4775C14.766 18.3198 11.7556 21.3282 11.75 25.0396L11.7588 25.4019C11.8417 26.9892 12.478 28.4341 13.4785 29.5493L12.9189 30.0493L12.9199 30.0503L13.4785 29.5493C13.7346 29.8351 13.7339 30.2685 13.4766 30.5532C12.408 31.7356 11.7548 33.3102 11.75 35.0308L11.7588 35.4019C11.8534 37.2136 12.6672 38.8387 13.9229 39.9995C14.0768 40.1418 14.1644 40.3417 14.1641 40.5513C14.1636 40.761 14.0755 40.9613 13.9209 41.103L13.6768 41.3384C12.4873 42.5449 11.7525 44.2047 11.75 46.0405L11.7588 46.4019C11.944 49.9479 14.8777 52.7732 18.4668 52.7788L18.834 52.77C22.3822 52.5853 25.2035 49.6459 25.2041 46.0503V42.0903C25.2041 41.8467 25.3224 41.6176 25.5215 41.4771C25.7205 41.3365 25.9755 41.3018 26.2051 41.3833C26.9151 41.6354 27.6761 41.7775 28.4668 41.7788L28.832 41.77C32.2645 41.5859 35.0152 38.8394 35.1943 35.4019L35.2041 35.0308C35.1993 33.31 34.5465 31.7346 33.4785 30.5522C33.2216 30.2675 33.2206 29.8349 33.4766 29.5493L34.0342 30.0493H34.0352L33.4766 29.5493C34.5513 28.3506 35.2038 26.7769 35.2041 25.0503ZM36.7041 25.0503C36.7038 26.93 36.0687 28.6603 35.0068 30.0483C36.0702 31.4327 36.7041 33.1722 36.7041 35.0503C36.7041 35.0565 36.7043 35.0627 36.7041 35.0688L36.6943 35.4497C36.6942 35.4558 36.6937 35.4622 36.6934 35.4683C36.4797 39.6829 33.1071 43.049 28.9014 43.269C28.8949 43.2694 28.8883 43.2699 28.8818 43.27L28.4971 43.2798C28.4906 43.28 28.484 43.2798 28.4775 43.2798C27.8675 43.2798 27.2741 43.2109 26.7041 43.0845V46.0503C26.7035 50.451 23.248 54.0488 18.9004 54.269C18.8943 54.2694 18.888 54.2699 18.8818 54.27L18.4971 54.2798C18.4906 54.28 18.484 54.2798 18.4775 54.2798C14.0753 54.2798 10.4815 50.8139 10.2607 46.4683C10.2604 46.4622 10.2599 46.4558 10.2598 46.4497L10.25 46.0688V46.0503C10.25 43.9327 11.0488 42.0017 12.3604 40.5483C11.1382 39.1868 10.3597 37.4168 10.2607 35.4683C10.2604 35.4622 10.2599 35.4558 10.2598 35.4497L10.25 35.0688V35.0503C10.25 33.1726 10.8829 31.4326 11.9463 30.0483C10.9647 28.7649 10.348 27.1856 10.2607 25.4683C10.2604 25.4622 10.2599 25.4558 10.2598 25.4497L10.25 25.0688V25.0503C10.25 20.5064 13.9335 16.8198 18.4775 16.8198H28.4775C33.0219 16.8198 36.7041 20.5065 36.7041 25.0503Z" fill="#1A1A1A"/>
<path d="M14 25.0499C14 22.5799 16.0045 20.5698 18.4771 20.5698H21.9542C22.5065 20.5698 22.9542 21.0198 22.9542 21.5698V28.5299C22.9542 29.0799 22.5065 29.5299 21.9542 29.5299H18.4771C16.0045 29.5299 14 27.5199 14 25.0499Z" fill="#DC3412"/>
<path d="M24 21.5698C24 21.0198 24.4477 20.5698 25 20.5698H28.4771C30.9498 20.5698 32.9542 22.5799 32.9542 25.0499C32.9542 27.5199 30.9498 29.5299 28.4771 29.5299H25C24.4477 29.5299 24 29.0799 24 28.5299V21.5698Z" fill="#FFC7C2"/>
<path d="M14 35.0499C14 32.5799 16.0045 30.5698 18.4771 30.5698H21.9542C22.5065 30.5698 22.9542 31.0198 22.9542 31.5698V38.5299C22.9542 39.0799 22.5065 39.5299 21.9542 39.5299H18.4771C16.0045 39.5299 14 37.5199 14 35.0499Z" fill="#F24822"/>
<path d="M32.9542 35.047C32.9542 32.5744 30.9498 30.5698 28.4771 30.5698C26.0045 30.5698 24 32.5744 24 35.047C24 37.5196 26.0045 39.5242 28.4771 39.5242C30.9498 39.5242 32.9542 37.5196 32.9542 35.047Z" fill="#FFAFA3"/>
<path d="M14 46.0499C14 43.5799 16.0045 41.5698 18.4771 41.5698H21.9542C22.5065 41.5698 22.9542 42.0198 22.9542 42.5698V46.0499C22.9542 48.5199 20.9498 50.5299 18.4771 50.5299C16.0045 50.5299 14 48.5199 14 46.0499Z" fill="#FFAFA3"/>
<path d="M29.3242 24.9995C30.6074 24.9996 31.6482 26.0437 31.6484 27.3198C31.6484 27.6357 31.5839 27.9807 31.376 28.2954L31.373 28.2993C31.2208 28.5243 31.0277 28.6757 30.8359 28.7798C31.1896 29.4813 31.0876 30.3473 30.5518 30.9517L30.4023 31.1196H30.377L30.248 31.2378L29.9102 30.8696L30.2471 31.2388C27.7892 33.4839 24.0199 33.4736 21.5762 31.2065V31.2056C20.9512 30.6267 20.7912 29.7302 21.123 28.9927C21.065 28.9714 21.0075 28.9474 20.9512 28.9204L20.9355 28.9126L20.748 28.8013C20.5928 28.6971 20.442 28.5627 20.3164 28.3862L20.2441 28.2749L20.2422 28.272L20.6738 28.02L20.7061 27.9995L20.2422 28.272C20.0648 27.9688 20 27.6366 20 27.3198C20.0002 26.0437 21.0408 24.9995 22.3242 24.9995C23.6074 24.9996 24.6482 26.0437 24.6484 27.3198C24.6484 27.6367 24.5828 27.9687 24.4053 28.272L24.4043 28.2749L24.332 28.3862C24.321 28.4018 24.3083 28.4163 24.2969 28.4312L24.3994 28.5171C25.3004 29.1997 26.5544 29.2016 27.4541 28.5142C27.4224 28.4824 27.3901 28.4496 27.3604 28.4136L27.2744 28.2993L27.2715 28.2954C27.0636 27.9807 27 27.6357 27 27.3198C27.0002 26.0437 28.0408 24.9995 29.3242 24.9995ZM28.3008 29.1089C26.949 30.3448 24.878 30.3315 23.5361 29.0972H23.5352L23.4609 29.0347C23.454 29.0294 23.4465 29.025 23.4395 29.02C23.0405 29.1475 22.6224 29.1597 22.3242 29.1597C22.2837 29.1597 22.2409 29.1574 22.1963 29.1567L22.1406 29.2241C21.856 29.5994 21.8973 30.1402 22.2559 30.4722L22.0273 30.7192L21.917 30.8394L22.2568 30.4731C24.2543 32.326 27.3008 32.3926 29.375 30.6724L29.5723 30.5005L29.7354 30.3511L29.7422 30.3452L29.7812 30.3042L29.9219 30.1196C30.1162 29.7711 30.0772 29.3259 29.7988 29.02H28.7686L28.7539 29.019C28.6547 29.0134 28.5478 29.0014 28.4375 28.9829L28.3008 29.1089ZM30.1699 30.7788L30.0957 30.6997L30.1699 30.771L30.0908 30.6948L30.1699 30.7788ZM22.3242 25.9995C21.5928 25.9995 21.0002 26.5963 21 27.3198C21 27.5011 21.0373 27.6481 21.1045 27.7642L21.1592 27.8423C21.2183 27.913 21.295 27.971 21.3906 28.022C21.5259 28.0853 21.6896 28.1191 21.8711 28.1382C22.3354 27.8483 22.8956 27.7749 23.4111 27.9175C23.4644 27.8724 23.5092 27.8227 23.5439 27.7642C23.6111 27.6481 23.6484 27.5011 23.6484 27.3198C23.6482 26.5963 23.0555 25.9996 22.3242 25.9995ZM29.3242 25.9995C28.5928 25.9995 28.0002 26.5963 28 27.3198C28 27.5024 28.0369 27.637 28.1055 27.7417C28.1505 27.8073 28.2103 27.8571 28.2822 27.897C28.8628 27.6249 29.5435 27.6579 30.0938 27.9849C30.1496 27.9739 30.2053 27.9632 30.2578 27.9468C30.3805 27.9021 30.476 27.8377 30.542 27.7417C30.6107 27.6369 30.6484 27.5026 30.6484 27.3198C30.6482 26.5963 30.0555 25.9996 29.3242 25.9995Z" fill="white"/>
<path d="M28.4396 29.041C28.8002 28.6937 29.3859 28.6925 29.7477 29.038C30.1093 29.3836 30.11 29.9456 29.7496 30.293L29.6006 30.4368L29.5982 30.438L28.9457 29.8108L28.8714 29.74L29.5982 30.438C27.5477 32.4021 24.2148 32.362 22.2209 30.3478C21.8692 29.9926 21.8846 29.4301 22.2551 29.0924C22.6257 28.7546 23.2119 28.7688 23.5635 29.124C24.8418 30.4153 26.9775 30.4414 28.2919 29.1825L28.2919 29.1836L28.4396 29.041Z" fill="#1A1A1A"/>
<path d="M29.3251 25.989C30.0747 25.9891 30.6824 26.6304 30.6824 27.4083C30.6824 27.6049 30.6438 27.7492 30.5733 27.8619C30.5056 27.965 30.4078 28.0343 30.282 28.0823C30.1454 28.127 29.9925 28.1526 29.8506 28.1611H28.7986C28.6565 28.1525 28.5039 28.1271 28.3672 28.0823C28.2415 28.0342 28.1435 27.965 28.0759 27.8619C28.0055 27.7493 27.9678 27.6047 27.9678 27.4083C27.9678 26.6304 28.5753 25.989 29.3251 25.989Z" fill="#1A1A1A"/>
<path d="M22.3253 25.989C21.5756 25.9891 20.968 26.6304 20.968 27.4083C20.968 27.6049 21.0066 27.7492 21.0771 27.8619C21.1448 27.965 21.2426 28.0343 21.3684 28.0823C21.505 28.127 21.6579 28.1526 21.7998 28.1611H22.8518C22.9939 28.1525 23.1465 28.1271 23.2832 28.0823C23.4089 28.0342 23.5069 27.965 23.5745 27.8619C23.6449 27.7493 23.6826 27.6047 23.6826 27.4083C23.6826 26.6304 23.0751 25.989 22.3253 25.989Z" fill="#1A1A1A"/>
</svg>
