<svg width="48" height="55" viewBox="0 0 48 55" fill="none" xmlns="http://www.w3.org/2000/svg">
<path d="M28.477 18C32.607 18 35.954 21.35 35.954 25.48C35.954 27.4 35.227 29.15 34.035 30.48C35.227 31.8 35.954 33.55 35.954 35.48L35.944 35.86C35.75 39.69 32.685 42.7499 28.862 42.9399L28.477 42.95C27.592 42.95 26.742 42.8 25.954 42.52V46.48C25.954 50.48 22.812 53.7399 18.862 53.9399L18.477 53.95C14.478 53.95 11.21 50.81 11.01 46.86L11 46.48C11 44.3 11.93 42.34 13.414 40.98C12.019 39.69 11.112 37.88 11.01 35.86L11 35.48C11 33.55 11.727 31.8 12.92 30.48C11.807 29.24 11.1 27.63 11.01 25.86L11 25.48C11 21.35 14.348 18 18.477 18H28.477Z" fill="white"/>
<path d="M35.2041 25.4805C35.2041 21.7643 32.192 18.75 28.4766 18.75H18.4766C14.7657 18.7502 11.7555 21.7585 11.75 25.4697L11.7588 25.833C11.8421 27.4201 12.478 28.8638 13.4785 29.9785C13.7349 30.2641 13.7337 30.6976 13.4766 30.9824L13.2803 31.21C12.3264 32.3648 11.7524 33.8448 11.75 35.4697L11.7588 35.832C11.8529 37.6436 12.6674 39.2687 13.9229 40.4297C14.0767 40.572 14.1645 40.7718 14.1641 40.9814C14.1636 41.1911 14.0755 41.3915 13.9209 41.5332L13.6768 41.7686C12.4874 42.9748 11.7527 44.6341 11.75 46.4697L11.7588 46.832C11.9435 50.3767 14.8769 53.1939 18.4668 53.1992L18.8242 53.1904L19.1553 53.166C22.5518 52.8269 25.2039 49.9654 25.2041 46.4805V42.5205C25.2041 42.2768 25.3224 42.0478 25.5215 41.9072C25.7206 41.7667 25.9755 41.7319 26.2051 41.8135C26.9087 42.0635 27.67 42.198 28.4658 42.1992L28.8252 42.1904L29.1455 42.167C32.4297 41.847 35.0206 39.1651 35.1943 35.832L35.2031 35.4697C35.2007 33.845 34.6278 32.3649 33.6748 31.21L33.4785 30.9824L33.3936 30.8691C33.225 30.5917 33.2527 30.2293 33.4766 29.9795L34.0342 30.4795H34.0352L33.4766 29.9795C34.5511 28.7806 35.204 27.2068 35.2041 25.4805ZM18.9004 54.6895C18.8944 54.6898 18.8879 54.6893 18.8818 54.6895L18.8623 53.9404L18.9004 54.6895ZM28.8994 43.6895C28.8936 43.6897 28.8876 43.6893 28.8818 43.6895L28.8623 42.9404L28.8994 43.6895ZM36.7041 25.4805C36.704 27.3603 36.0684 29.0907 35.0068 30.4785C36.0695 31.8608 36.7041 33.5932 36.7041 35.4805C36.7041 35.4869 36.7043 35.4936 36.7041 35.5L36.6934 35.8799L35.9443 35.8594L35.9639 35.8604L36.6934 35.8799C36.6932 35.8857 36.6937 35.8916 36.6934 35.8975L36.6641 36.29C36.2684 40.3195 32.9758 43.4868 28.8994 43.6895L28.8623 42.9395L28.8818 43.6895L28.4961 43.6992L28.4766 42.9404V42.9502L28.4961 43.6992C28.4897 43.6994 28.4829 43.7002 28.4766 43.7002C27.8694 43.7002 27.2762 43.6347 26.7041 43.5107V46.4805C26.7038 50.8825 23.2461 54.4692 18.9004 54.6895L18.8623 53.9326L18.8818 54.6895L18.4961 54.6992L18.4766 53.9326V53.9502L18.4961 54.6992C18.4897 54.6994 18.4829 54.7002 18.4766 54.7002C14.2141 54.7 10.7062 51.4576 10.291 47.3027L10.2607 46.8975V46.8799L10.9902 46.8604L11.0088 46.8594L10.2607 46.8799L10.25 46.5V46.4805C10.25 44.3627 11.0494 42.432 12.3613 40.9785C11.2263 39.7141 10.4726 38.0977 10.292 36.3125L10.2607 35.8975V35.8799L10.9902 35.8604L11.0088 35.8594L10.2607 35.8799L10.25 35.5V35.4805C10.25 33.5936 10.8833 31.8607 11.9463 30.4785C10.9642 29.195 10.3481 27.6156 10.2607 25.8984C10.2604 25.8924 10.2609 25.8859 10.2607 25.8799L11.0098 25.8604L11.0293 25.8584L10.2607 25.8799L10.25 25.5V25.4805C10.25 20.9367 13.9332 17.2502 18.4766 17.25H28.4766C33.0212 17.25 36.7041 20.9366 36.7041 25.4805Z" fill="#1A1A1A"/>
<path d="M14 25.48C14 23 16.004 21 18.477 21H21.954C22.506 21 22.954 21.45 22.954 22V28.95C22.954 29.51 22.506 29.95 21.954 29.95H18.477C16.004 29.95 14 27.95 14 25.48Z" fill="#E05A33"/>
<path d="M24 22C24 21.45 24.448 21 25 21H28.477C30.95 21 32.954 23 32.954 25.48C32.954 27.95 30.95 29.95 28.477 29.95H25C24.448 29.95 24 29.51 24 28.95V22Z" fill="#EE7A69"/>
<path d="M14 35.48C14 33 16.004 31 18.477 31H21.954C22.506 31 22.954 31.45 22.954 32V38.95C22.954 39.51 22.506 39.95 21.954 39.95H18.477C16.004 39.95 14 37.95 14 35.48Z" fill="#985DF6"/>
<path d="M32.9543 35.4772C32.9543 33.0045 30.9498 31 28.4771 31C26.0045 31 24 33.0045 24 35.4772C24 37.9498 26.0045 39.9542 28.4771 39.9542C30.9498 39.9542 32.9543 37.9498 32.9543 35.4772Z" fill="#57B9F8"/>
<path d="M14 46.48C14 44 16.004 42 18.477 42H21.954C22.506 42 22.954 42.45 22.954 43V46.48C22.954 48.95 20.95 50.95 18.477 50.95C16.004 50.95 14 48.95 14 46.48Z" fill="#5FCC89"/>
<path d="M29.3242 24.9995C30.6074 24.9996 31.6482 26.0437 31.6484 27.3198C31.6484 27.6357 31.5839 27.9807 31.376 28.2954L31.373 28.2993C31.2208 28.5243 31.0277 28.6757 30.8359 28.7798C31.1896 29.4813 31.0876 30.3473 30.5518 30.9517L30.4023 31.1196H30.377L30.248 31.2378L29.9102 30.8696L30.2471 31.2388C27.7892 33.4839 24.0199 33.4736 21.5762 31.2065V31.2056C20.9512 30.6267 20.7912 29.7302 21.123 28.9927C21.065 28.9714 21.0075 28.9474 20.9512 28.9204L20.9355 28.9126L20.748 28.8013C20.5928 28.6971 20.442 28.5627 20.3164 28.3862L20.2441 28.2749L20.2422 28.272L20.6738 28.02L20.7061 27.9995L20.2422 28.272C20.0648 27.9688 20 27.6366 20 27.3198C20.0002 26.0437 21.0408 24.9995 22.3242 24.9995C23.6074 24.9996 24.6482 26.0437 24.6484 27.3198C24.6484 27.6367 24.5828 27.9687 24.4053 28.272L24.4043 28.2749L24.332 28.3862C24.321 28.4018 24.3083 28.4163 24.2969 28.4312L24.3994 28.5171C25.3004 29.1997 26.5544 29.2016 27.4541 28.5142C27.4224 28.4824 27.3901 28.4496 27.3604 28.4136L27.2744 28.2993L27.2715 28.2954C27.0636 27.9807 27 27.6357 27 27.3198C27.0002 26.0437 28.0408 24.9995 29.3242 24.9995ZM28.3008 29.1089C26.949 30.3448 24.878 30.3315 23.5361 29.0972H23.5352L23.4609 29.0347C23.454 29.0294 23.4465 29.025 23.4395 29.02C23.0405 29.1475 22.6224 29.1597 22.3242 29.1597C22.2837 29.1597 22.2409 29.1574 22.1963 29.1567L22.1406 29.2241C21.856 29.5994 21.8973 30.1402 22.2559 30.4722L22.0273 30.7192L21.917 30.8394L22.2568 30.4731C24.2543 32.326 27.3008 32.3926 29.375 30.6724L29.5723 30.5005L29.7354 30.3511L29.7422 30.3452L29.7812 30.3042L29.9219 30.1196C30.1162 29.7711 30.0772 29.3259 29.7988 29.02H28.7686L28.7539 29.019C28.6547 29.0134 28.5478 29.0014 28.4375 28.9829L28.3008 29.1089ZM30.1699 30.7788L30.0957 30.6997L30.1699 30.771L30.0908 30.6948L30.1699 30.7788ZM22.3242 25.9995C21.5928 25.9995 21.0002 26.5963 21 27.3198C21 27.5011 21.0373 27.6481 21.1045 27.7642L21.1592 27.8423C21.2183 27.913 21.295 27.971 21.3906 28.022C21.5259 28.0853 21.6896 28.1191 21.8711 28.1382C22.3354 27.8483 22.8956 27.7749 23.4111 27.9175C23.4644 27.8724 23.5092 27.8227 23.5439 27.7642C23.6111 27.6481 23.6484 27.5011 23.6484 27.3198C23.6482 26.5963 23.0555 25.9996 22.3242 25.9995ZM29.3242 25.9995C28.5928 25.9995 28.0002 26.5963 28 27.3198C28 27.5024 28.0369 27.637 28.1055 27.7417C28.1505 27.8073 28.2103 27.8571 28.2822 27.897C28.8628 27.6249 29.5435 27.6579 30.0938 27.9849C30.1496 27.9739 30.2053 27.9632 30.2578 27.9468C30.3805 27.9021 30.476 27.8377 30.542 27.7417C30.6107 27.6369 30.6484 27.5026 30.6484 27.3198C30.6482 26.5963 30.0555 25.9996 29.3242 25.9995Z" fill="white"/>
<path d="M28.3786 28.9826C28.7392 28.6354 29.3248 28.6342 29.6867 28.9796C30.0483 29.3253 30.049 29.8872 29.6886 30.2347L29.5396 30.3785L29.5372 30.3797L28.8846 29.7525L28.8104 29.6816L29.5372 30.3797C27.4866 32.3437 24.1538 32.3037 22.1598 30.2894C21.8082 29.9342 21.8235 29.3717 22.1941 29.034C22.5646 28.6963 23.1509 28.7105 23.5025 29.0657C24.7808 30.357 26.9164 30.383 28.2308 29.1241L28.2308 29.1253L28.3786 28.9826Z" fill="#1A1A1A"/>
<path d="M29.3246 25.9937C30.0743 25.9937 30.6819 26.6351 30.6819 27.413C30.6819 27.6096 30.6433 27.7538 30.5728 27.8665C30.5051 27.9697 30.4073 28.0389 30.2815 28.087C30.1449 28.1316 29.992 28.1572 29.8501 28.1657H28.7981C28.656 28.1572 28.5034 28.1318 28.3667 28.087C28.241 28.0389 28.143 27.9697 28.0754 27.8665C28.005 27.7539 27.9673 27.6093 27.9673 27.413C27.9673 26.635 28.5748 25.9937 29.3246 25.9937Z" fill="#1A1A1A"/>
<path d="M22.3248 25.9937C21.5752 25.9937 20.9675 26.6351 20.9675 27.413C20.9675 27.6096 21.0061 27.7538 21.0766 27.8665C21.1443 27.9697 21.2421 28.0389 21.3679 28.087C21.5045 28.1316 21.6574 28.1572 21.7993 28.1657H22.8513C22.9934 28.1572 23.146 28.1318 23.2827 28.087C23.4084 28.0389 23.5064 27.9697 23.574 27.8665C23.6444 27.7539 23.6821 27.6093 23.6821 27.413C23.6821 26.635 23.0746 25.9937 22.3248 25.9937Z" fill="#1A1A1A"/>
</svg>
