<svg width="48" height="55" viewBox="0 0 48 55" fill="none" xmlns="http://www.w3.org/2000/svg">
<path d="M33.7928 53.0699C37.5168 53.0699 35.6548 45.78 36.5858 42.83C39.0685 41.12 46.8268 36.96 46.8268 33.98C46.8268 31 36.7809 30.26 32.7466 29.79C30.1087 25.29 26.531 19.29 23.5518 19.29C20.5726 19.29 17.4733 25.45 15.301 29.79C11.577 31.03 1.67334 31.93 1.67334 34.91C1.67334 37.89 8.81101 41.12 12.3799 42.36C12.2247 45.62 7.72484 54 12.3799 54C15.7315 54 21.845 49.03 23.5518 46.55C25.7242 48.57 30.0688 53.0699 33.7928 53.0699Z" fill="#F24822"/>
<path fill-rule="evenodd" clip-rule="evenodd" d="M20.8535 19.793C21.6537 19.0985 22.5646 18.5918 23.5518 18.5918C24.5266 18.5918 25.4615 19.0773 26.3091 19.7514C27.1668 20.4337 28.0151 21.3732 28.8293 22.4251C30.3857 24.4358 31.894 26.9582 33.1723 29.1357C33.4854 29.1707 33.8295 29.2075 34.1982 29.247C36.2262 29.4641 38.9981 29.7608 41.4394 30.2597C42.964 30.5712 44.4164 30.9719 45.5031 31.508C46.5336 32.0165 47.5251 32.7947 47.5251 33.98C47.5251 35.0033 46.8781 35.9921 46.0905 36.8513C45.2773 37.7385 44.1857 38.6236 43.0464 39.4471C41.9025 40.2739 40.6844 41.0571 39.6051 41.7359C39.3285 41.9098 39.0625 42.076 38.8097 42.234C38.1725 42.6322 37.6188 42.9781 37.1895 43.2645C37.0407 43.8764 36.9915 44.704 36.9785 45.6837C36.9739 46.0299 36.9739 46.3954 36.9739 46.7694C36.9738 47.5392 36.9737 48.345 36.934 49.0932C36.8751 50.2018 36.7263 51.3296 36.2943 52.1963C36.0723 52.6416 35.7634 53.0434 35.3314 53.3317C34.895 53.6231 34.3779 53.7682 33.7928 53.7682C31.6851 53.7682 29.5078 52.5135 27.6695 51.1246C26.1645 49.9876 24.7836 48.6774 23.749 47.6957C23.7111 47.6598 23.6736 47.6242 23.6366 47.5892C22.5908 48.8531 20.8496 50.436 18.9901 51.7721C17.8863 52.5652 16.7174 53.2885 15.5971 53.8163C14.4903 54.3378 13.3694 54.6983 12.3799 54.6983C11.6952 54.6983 11.0987 54.5436 10.625 54.1973C10.1472 53.848 9.86764 53.3575 9.72103 52.825C9.44073 51.807 9.61219 50.5067 9.89481 49.2494C10.1294 48.2058 10.4664 47.0914 10.7805 46.0527C10.8523 45.8154 10.9228 45.5821 10.9907 45.3545C11.2865 44.3624 11.5232 43.5023 11.6278 42.8329C9.83909 42.1782 7.40305 41.1276 5.32971 39.8867C4.18995 39.2045 3.1294 38.447 2.34517 37.6451C1.5769 36.8595 0.975098 35.9302 0.975098 34.91C0.975098 33.7368 1.94183 32.9455 2.95205 32.4102C4.01528 31.8469 5.43643 31.4 6.91762 31.0211C8.2147 30.6892 9.60052 30.3993 10.8905 30.1295C11.0816 30.0895 11.2707 30.05 11.457 30.0108C12.7755 29.7336 13.9424 29.4779 14.8085 29.214C15.8662 27.1025 17.1552 24.562 18.5468 22.5194C19.2716 21.4555 20.0453 20.4946 20.8535 19.793ZM19.7009 23.3057C18.3133 25.3424 17.0161 27.9234 15.9254 30.1026C15.8425 30.2682 15.6973 30.394 15.5216 30.4525C14.5454 30.7776 13.1866 31.0742 11.7443 31.3774C11.5558 31.4171 11.3654 31.4569 11.1738 31.497C9.88098 31.7675 8.52845 32.0505 7.26374 32.374C5.80351 32.7476 4.516 33.162 3.60591 33.6442C2.64283 34.1545 2.3716 34.5933 2.3716 34.91C2.3716 35.3799 2.66201 35.9718 3.34358 36.6687C4.00919 37.3493 4.95611 38.0355 6.04688 38.6884C8.2244 39.9916 10.8542 41.0907 12.6091 41.7004C12.9015 41.802 13.0921 42.084 13.0774 42.3932C13.0338 43.3092 12.694 44.5294 12.329 45.7536C12.2575 45.9934 12.1844 46.2351 12.111 46.4777C11.7978 47.514 11.4796 48.5666 11.2573 49.5556C10.9774 50.8008 10.8871 51.7993 11.0674 52.4543C11.1511 52.7584 11.2826 52.9481 11.4491 53.0699C11.6196 53.1945 11.9009 53.3018 12.3799 53.3018C13.0662 53.3018 13.9664 53.0409 15.0018 52.5531C16.0238 52.0715 17.1183 51.3974 18.1752 50.638C20.3051 49.1076 22.188 47.3001 22.9766 46.1542C23.0917 45.987 23.2738 45.8782 23.4755 45.856C23.6773 45.8338 23.8787 45.9005 24.0273 46.0387C24.2454 46.2415 24.4818 46.4657 24.7345 46.7054C25.7691 47.6865 27.0762 48.9261 28.5114 50.0104C30.3195 51.3765 32.1766 52.3717 33.7928 52.3717C34.1388 52.3717 34.3781 52.289 34.5562 52.1702C34.7389 52.0483 34.9028 51.8575 35.0444 51.5733C35.3397 50.9809 35.4819 50.1018 35.5394 49.0192C35.5773 48.3064 35.5772 47.5687 35.5771 46.8221C35.5771 46.4381 35.577 46.0518 35.5821 45.6652C35.5966 44.5739 35.6523 43.468 35.9199 42.6198C35.9667 42.4715 36.0617 42.3431 36.1897 42.2549C36.6693 41.9246 37.3404 41.5053 38.0957 41.0334C38.3432 40.8787 38.5998 40.7184 38.8616 40.5537C39.9353 39.8785 41.1223 39.1148 42.2283 38.3153C43.3388 37.5126 44.342 36.6921 45.0611 35.9077C45.8057 35.0954 46.1286 34.4467 46.1286 33.98C46.1286 33.6752 45.8643 33.2435 44.8852 32.7604C43.9622 32.305 42.6509 31.9326 41.1598 31.6279C38.7919 31.144 36.1134 30.857 34.0852 30.6396C33.5636 30.5837 33.085 30.5324 32.6658 30.4836C32.4482 30.4583 32.255 30.3322 32.1442 30.1432C30.8213 27.8864 29.2895 25.3009 27.725 23.28C26.9427 22.2694 26.1731 21.4276 25.4397 20.8443C24.6961 20.2528 24.0667 19.9883 23.5518 19.9883C23.0494 19.9883 22.4557 20.2515 21.769 20.8477C21.0903 21.4368 20.3948 22.2871 19.7009 23.3057Z" fill="#1A1A1A"/>
<path d="M25.4896 34.9183C25.785 34.6282 26.2599 34.6327 26.5501 34.928C26.8402 35.2235 26.8357 35.6983 26.5403 35.9886L26.4183 36.1087L26.4163 36.1097L25.8929 35.5735L25.8333 35.513L26.4163 36.1097C24.7361 37.7501 22.0343 37.685 20.4358 35.9642C20.1539 35.6607 20.1714 35.1855 20.4749 34.9036C20.7784 34.6217 21.2535 34.6392 21.5355 34.9427C22.5602 36.0458 24.2915 36.0879 25.3685 35.0364V35.0374L25.4896 34.9183Z" fill="#1A1A1A"/>
<path d="M27.9255 32.3135C28.5469 32.3135 29.0505 32.8127 29.0505 33.4285C29.0505 34.0443 28.5469 34.5435 27.9255 34.5435C27.3042 34.5435 26.8005 34.0443 26.8005 33.4285C26.8005 32.8127 27.3042 32.3135 27.9255 32.3135Z" fill="#1A1A1A"/>
<path d="M18.6255 32.3135C18.0042 32.3135 17.5005 32.8127 17.5005 33.4285C17.5005 34.0443 18.0042 34.5435 18.6255 34.5435C19.2468 34.5435 19.7505 34.0443 19.7505 33.4285C19.7505 32.8127 19.2468 32.3135 18.6255 32.3135Z" fill="#1A1A1A"/>
</svg>
