<svg width="48" height="55" viewBox="0 0 48 55" fill="none" xmlns="http://www.w3.org/2000/svg">
<path d="M33.7928 53.0699C37.5168 53.0699 35.6548 45.78 36.5858 42.83C39.0688 41.12 46.8268 36.96 46.8268 33.98C46.8268 31 36.7809 30.26 32.7469 29.79C30.1089 25.29 26.5308 19.29 23.5518 19.29C20.5728 19.29 17.4728 25.45 15.3008 29.79C11.5768 31.03 1.67285 31.93 1.67285 34.91C1.67285 37.89 8.81085 41.12 12.3799 42.36C12.2249 45.62 7.72485 54 12.3799 54C15.7309 54 21.8448 49.03 23.5518 46.55C25.7239 48.57 30.0688 53.0699 33.7928 53.0699Z" fill="#D9B8FF"/>
<path fill-rule="evenodd" clip-rule="evenodd" d="M20.8536 19.793C21.6538 19.0985 22.5647 18.5918 23.5519 18.5918C24.5266 18.5918 25.4615 19.0773 26.309 19.7514C27.1668 20.4337 28.0151 21.3732 28.8294 22.4251C30.3858 24.4357 31.8942 26.9582 33.1726 29.1358C33.4857 29.1707 33.8298 29.2075 34.1986 29.247C36.2265 29.4641 38.9983 29.7608 41.4394 30.2597C42.964 30.5712 44.4164 30.9719 45.5031 31.508C46.5337 32.0165 47.5251 32.7947 47.5251 33.98C47.5251 35.0033 46.8782 35.9921 46.0906 36.8513C45.2774 37.7385 44.1859 38.6236 43.0465 39.4471C41.9026 40.2739 40.6845 41.0571 39.6053 41.7359C39.3283 41.91 39.0621 42.0764 38.809 42.2346C38.1721 42.6325 37.6187 42.9783 37.1895 43.2645C37.0407 43.8764 36.9915 44.704 36.9786 45.6837C36.974 46.0299 36.9739 46.3954 36.9739 46.7694C36.9738 47.5392 36.9737 48.345 36.934 49.0932C36.8751 50.2018 36.7264 51.3296 36.2943 52.1963C36.0723 52.6416 35.7635 53.0434 35.3315 53.3317C34.895 53.6231 34.3779 53.7682 33.7929 53.7682C31.6851 53.7682 29.5078 52.5135 27.6694 51.1246C26.1637 49.987 24.7822 48.6762 23.7475 47.6944C23.7101 47.6589 23.6731 47.6238 23.6366 47.5892C22.5907 48.8531 20.8493 50.436 18.9898 51.7721C17.886 52.5652 16.717 53.2885 15.5968 53.8163C14.49 54.3378 13.3693 54.6983 12.3799 54.6983C11.6951 54.6983 11.0987 54.5436 10.6249 54.1972C10.1471 53.848 9.86763 53.3575 9.72103 52.825C9.44075 51.807 9.61223 50.5067 9.89486 49.2494C10.1294 48.2059 10.4664 47.0917 10.7805 46.053C10.8522 45.8157 10.9228 45.5823 10.9907 45.3545C11.2865 44.3624 11.5232 43.5023 11.6277 42.8329C9.83901 42.1782 7.40285 41.1276 5.32941 39.8867C4.1896 39.2045 3.12901 38.447 2.34474 37.6451C1.57644 36.8596 0.974609 35.9302 0.974609 34.91C0.974609 33.7368 1.94138 32.9455 2.95162 32.4102C4.01488 31.8469 5.43607 31.4 6.9173 31.0211C8.21442 30.6892 9.60027 30.3993 10.8903 30.1295C11.0814 30.0895 11.2704 30.05 11.4568 30.0108C12.7753 29.7336 13.9422 29.4779 14.8083 29.214C15.8659 27.1025 17.155 24.562 18.5467 22.5194C19.2716 21.4554 20.0454 20.4946 20.8536 19.793ZM19.7008 23.3057C18.3131 25.3424 17.0158 27.9235 15.9253 30.1025C15.8424 30.2681 15.6971 30.394 15.5214 30.4525C14.5453 30.7776 13.1864 31.0742 11.7441 31.3774C11.5555 31.4171 11.3651 31.4569 11.1734 31.497C9.88063 31.7675 8.52812 32.0505 7.26341 32.374C5.80314 32.7476 4.51559 33.162 3.60547 33.6442C2.64234 34.1545 2.37111 34.5933 2.37111 34.91C2.37111 35.3798 2.66153 35.9718 3.34313 36.6687C4.00877 37.3493 4.95574 38.0355 6.04656 38.6884C8.22418 39.9916 10.8541 41.0907 12.609 41.7004C12.9014 41.802 13.092 42.084 13.0773 42.3932C13.0338 43.3091 12.694 44.5294 12.329 45.7536C12.2575 45.9935 12.1844 46.2353 12.111 46.4781C11.7978 47.5142 11.4796 48.5667 11.2574 49.5556C10.9775 50.8008 10.8871 51.7993 11.0674 52.4544C11.1512 52.7584 11.2826 52.9481 11.4491 53.0699C11.6196 53.1945 11.9008 53.3018 12.3799 53.3018C13.066 53.3018 13.9661 53.041 15.0015 52.5531C16.0235 52.0715 17.118 51.3974 18.1749 50.638C20.3049 49.1076 22.1879 47.3001 22.9767 46.1542C23.0918 45.987 23.2739 45.8781 23.4756 45.856C23.6774 45.8338 23.8788 45.9005 24.0274 46.0388C24.245 46.2411 24.4808 46.4648 24.7329 46.7039C25.7676 47.6852 27.0754 48.9256 28.5113 50.0104C30.3194 51.3765 32.1766 52.3717 33.7929 52.3717C34.1388 52.3717 34.3781 52.289 34.5563 52.1702C34.7389 52.0483 34.9028 51.8575 35.0445 51.5733C35.3398 50.9809 35.482 50.1018 35.5395 49.0192C35.5773 48.3064 35.5772 47.5687 35.5771 46.8221C35.5771 46.4381 35.5771 46.0518 35.5822 45.6652C35.5966 44.5739 35.6523 43.468 35.92 42.6198C35.9668 42.4715 36.0617 42.3431 36.1898 42.2549C36.6692 41.9247 37.34 41.5056 38.0951 41.0339C38.3428 40.8791 38.5997 40.7186 38.8618 40.5537C39.9355 39.8785 41.1224 39.1148 42.2284 38.3153C43.339 37.5126 44.3421 36.6921 45.0611 35.9077C45.8057 35.0954 46.1286 34.4467 46.1286 33.98C46.1286 33.6752 45.8643 33.2435 44.8852 32.7604C43.9622 32.305 42.651 31.9326 41.1598 31.6279C38.792 31.144 36.1137 30.857 34.0856 30.6397C33.564 30.5838 33.0853 30.5325 32.6661 30.4836C32.4484 30.4582 32.2553 30.3322 32.1445 30.1432C30.8215 27.8864 29.2896 25.3009 27.7251 23.28C26.9428 22.2694 26.1731 21.4276 25.4397 20.8443C24.6961 20.2528 24.0667 19.9883 23.5519 19.9883C23.0495 19.9883 22.4558 20.2515 21.769 20.8477C21.0903 21.4368 20.3947 22.2872 19.7008 23.3057Z" fill="#1A1A1A"/>
<path d="M25.5379 34.9183C25.8333 34.6282 26.3082 34.6327 26.5984 34.928C26.8885 35.2235 26.884 35.6983 26.5887 35.9886L26.4666 36.1087L26.4647 36.1097L25.9412 35.5735L25.8816 35.513L26.4647 36.1097C24.7844 37.7501 22.0826 37.685 20.4842 35.9642C20.2023 35.6607 20.2198 35.1855 20.5232 34.9036C20.8267 34.6217 21.3019 34.6392 21.5838 34.9427C22.6085 36.0458 24.3398 36.0879 25.4168 35.0364V35.0374L25.5379 34.9183Z" fill="#1A1A1A"/>
<path d="M18.6191 32.3096C17.9978 32.3096 17.4941 32.8088 17.4941 33.4246C17.4941 34.0404 17.9978 34.5396 18.6191 34.5396C19.2405 34.5396 19.7441 34.0404 19.7441 33.4246C19.7441 32.8088 19.2405 32.3096 18.6191 32.3096Z" fill="#1A1A1A"/>
<path d="M27.9192 32.3096C28.5405 32.3096 29.0442 32.8088 29.0442 33.4246C29.0442 34.0404 28.5405 34.5396 27.9192 34.5396C27.2979 34.5396 26.7942 34.0404 26.7942 33.4246C26.7942 32.8088 27.2979 32.3096 27.9192 32.3096Z" fill="#1A1A1A"/>
</svg>
