<svg width="48" height="55" viewBox="0 0 48 55" fill="none" xmlns="http://www.w3.org/2000/svg">
<path fill-rule="evenodd" clip-rule="evenodd" d="M28.2941 28.8698C28.2941 31.3948 27.2192 33.7028 25.4433 35.4708C29.7787 36.0758 34.0457 37.0608 37.1538 38.4828C37.1783 38.4758 37.2028 38.4698 37.2273 38.4628C38.3741 38.1598 39.4442 37.8768 40.1831 36.9108C40.5738 36.3988 41.2773 36.1728 41.5733 36.7438C42.1387 37.8358 42.4517 39.8218 41.916 43.2188C41.9327 43.3578 41.9412 43.4988 41.9412 43.6418C41.9412 52.3688 34.1193 54.9398 24.4706 54.9398C14.8218 54.9398 7.52941 53.9108 7 45.6828C7 42.3378 7.5592 39.1698 9.9731 37.1238C6.96614 35.3028 5 32.2848 5 28.8698C5 23.3088 10.2146 18.7998 16.6471 18.7998C23.0796 18.7998 28.2941 23.3088 28.2941 28.8698Z" fill="#92DA40"/>
<path d="M13.2678 36.7827C10.5311 37.9717 5.0409 37.6707 3.36813 36.6977C0.904598 35.2657 3.7356 33.3477 5.38179 32.7547C8.29994 31.4867 11.3488 31.5177 12.5084 31.6917C14.8483 33.4247 13.9896 35.8077 13.2678 36.7827Z" fill="#538619"/>
<path fill-rule="evenodd" clip-rule="evenodd" d="M17.2463 18.8125C23.4003 19.0821 28.2941 23.4828 28.2941 28.8701L28.2814 29.3408C28.1568 31.6812 27.1083 33.8133 25.4435 35.4707C29.508 36.0379 33.5122 36.9395 36.5578 38.2217L37.1535 38.4814C37.178 38.4745 37.2032 38.4699 37.2277 38.4629C38.3742 38.16 39.444 37.8768 40.1828 36.9111C40.5735 36.3991 41.2774 36.1731 41.5734 36.7441C42.1387 37.8362 42.4518 39.8221 41.9162 43.2188C41.9329 43.3577 41.9416 43.4987 41.9416 43.6416L41.9357 44.0469C41.6963 52.4486 33.9685 54.9394 24.4709 54.9395L22.6906 54.9258C13.9369 54.7826 7.4965 53.3965 7.00017 45.6826C7.00019 42.9251 7.37959 40.2874 8.86541 38.2998C8.54023 38.3066 8.2169 38.3087 7.89959 38.3008C6.90498 38.2758 5.93598 38.1811 5.0988 38.0264C4.27952 37.8749 3.52096 37.6543 2.99041 37.3457C2.27159 36.9276 1.76938 36.3738 1.66912 35.666C1.5715 34.9762 1.89028 34.3749 2.25505 33.9336C2.96702 33.0723 4.19565 32.3936 5.0822 32.0664C5.23215 32.0013 5.38308 31.9406 5.53337 31.8818C5.22355 31.0272 5.03968 30.1244 5.00603 29.1885L5.00017 28.8701C5.00017 23.3092 10.2144 18.8 16.6467 18.7998L17.2463 18.8125ZM16.6467 20.2998C10.8305 20.3 6.50017 24.3342 6.50017 28.8701C6.50021 29.7484 6.66066 30.6028 6.95916 31.4121C9.18861 30.8033 11.2587 30.7948 12.3595 30.916L12.6193 30.9502L12.7092 30.9688C12.7972 30.9932 12.8804 31.0342 12.9543 31.0889C14.3205 32.1007 14.8018 33.3592 14.7863 34.5312C14.7714 35.6562 14.3025 36.6445 13.8703 37.2285C13.792 37.3343 13.6873 37.4182 13.5666 37.4707C12.8569 37.779 12.0005 37.9895 11.089 38.123C11.0438 38.1738 10.9962 38.2229 10.9435 38.2676L10.7707 38.4199C9.04055 40.011 8.50599 42.4954 8.50017 45.6309C8.62314 47.4414 9.10585 48.7478 9.81072 49.7197C10.5223 50.7017 11.5376 51.4497 12.8908 52.0117C15.6754 53.1677 19.6268 53.4395 24.4709 53.4395C29.2126 53.4394 33.2745 52.7989 36.1027 51.248C37.4931 50.486 38.5589 49.5175 39.2834 48.3145C40.0067 47.1135 40.4416 45.5924 40.4416 43.6416C40.4416 43.5587 40.4364 43.4774 40.4269 43.3984L41.9162 43.2188H41.9142L40.4269 43.3984C40.4105 43.2605 40.4132 43.1212 40.4347 42.9854L40.5207 42.3906C40.7517 40.6616 40.7223 39.4487 40.591 38.6191C39.6001 39.4147 38.4428 39.6936 37.6105 39.9131C37.586 39.9201 37.5616 39.9256 37.5373 39.9326C37.2434 40.0105 36.9339 39.9968 36.6496 39.8955L36.5295 39.8467L35.9699 39.6016C33.2937 38.476 29.7575 37.6352 26.0363 37.0723L25.2355 36.9561L25.0295 36.9121C24.5589 36.7771 24.1787 36.4186 24.0207 35.9453C23.8403 35.4055 23.9814 34.8092 24.3849 34.4072L24.6642 34.1172C26.0186 32.6453 26.794 30.8208 26.7941 28.8701C26.7941 24.3341 22.463 20.2998 16.6467 20.2998ZM12.2092 32.4092C11.0294 32.2758 8.29291 32.3075 5.68084 33.4424L5.63591 33.46C4.87936 33.7325 3.89818 34.3006 3.4113 34.8896C3.17105 35.1804 3.14168 35.3651 3.15447 35.4561C3.16495 35.5291 3.23378 35.7519 3.74431 36.0488L3.74529 36.0498L3.87127 36.1162C4.19276 36.2722 4.70231 36.427 5.37224 36.5508C6.12015 36.6889 7.009 36.7775 7.93767 36.8008C9.72535 36.8456 11.5522 36.6454 12.7765 36.1719C13.0313 35.7676 13.2776 35.1599 13.2863 34.5117C13.295 33.8521 13.0615 33.0996 12.2092 32.4092Z" fill="#1A1A1A"/>
<path d="M13.6428 42.0487C13.9242 41.4337 14.2827 40.8817 14.687 40.3927C16.5675 38.1157 19.8504 37.7817 22.7128 38.5057C29.6477 40.2607 33.3847 44.5577 34.8073 47.4057C35.1097 48.0117 35.0021 48.7467 34.4757 49.1717C32.351 50.8887 28.295 51.4907 24.2095 51.5577C18.289 51.6557 11.1795 47.4337 13.6428 42.0487Z" fill="#538619"/>
<path d="M16.0589 26.7988C16.6443 26.7988 17.1189 27.2734 17.1189 27.8588C17.1189 28.4443 16.6443 28.9188 16.0589 28.9188C15.4735 28.9188 14.9989 28.4443 14.9989 27.8588C14.9989 27.2734 15.4735 26.7988 16.0589 26.7988Z" fill="#1A1A1A"/>
<path d="M9.0589 26.7988C8.47348 26.7988 7.9989 27.2734 7.9989 27.8588C7.9989 28.4443 8.47348 28.9188 9.0589 28.9188C9.64432 28.9188 10.1189 28.4443 10.1189 27.8588C10.1189 27.2734 9.64432 26.7988 9.0589 26.7988Z" fill="#1A1A1A"/>
</svg>
