<svg width="48" height="55" viewBox="0 0 48 55" fill="none" xmlns="http://www.w3.org/2000/svg">
<path fill-rule="evenodd" clip-rule="evenodd" d="M28.294 28.8698C28.294 31.3948 27.2191 33.7028 25.4432 35.4708C29.7786 36.0758 34.0456 37.0608 37.1537 38.4828C37.1782 38.4758 37.2027 38.4698 37.2272 38.4628C38.374 38.1598 39.4441 37.8768 40.183 36.9108C40.5737 36.3988 41.2772 36.1728 41.5732 36.7438C42.1386 37.8358 42.4516 39.8218 41.9159 43.2188C41.9326 43.3578 41.9411 43.4988 41.9411 43.6418C41.9411 52.3688 34.1192 54.9398 24.4705 54.9398C14.8217 54.9398 7.52935 53.9108 6.99994 45.6828C6.99994 42.3378 7.55914 39.1698 9.97304 37.1238C6.96608 35.3028 4.99994 32.2848 4.99994 28.8698C4.99994 23.3088 10.2145 18.7998 16.647 18.7998C23.0795 18.7998 28.294 23.3088 28.294 28.8698Z" fill="#383838"/>
<path d="M13.2677 36.7827C10.531 37.9717 5.04084 37.6707 3.36807 36.6977C0.904537 35.2657 3.73554 33.3477 5.38173 32.7547C8.29988 31.4867 11.3487 31.5177 12.5083 31.6917C14.8482 33.4247 13.9895 35.8077 13.2677 36.7827Z" fill="#1A1A1A"/>
<path fill-rule="evenodd" clip-rule="evenodd" d="M17.2462 18.8125C23.4003 19.0821 28.2941 23.4828 28.2941 28.8701L28.2814 29.3408C28.1567 31.6812 27.1082 33.8133 25.4435 35.4707C29.5079 36.0379 33.5121 36.9395 36.5577 38.2217L37.1534 38.4814C37.1779 38.4745 37.2032 38.4699 37.2276 38.4629C38.3742 38.16 39.4439 37.8768 40.1827 36.9111C40.5734 36.3991 41.2774 36.1731 41.5734 36.7441C42.1386 37.8362 42.4518 39.8221 41.9161 43.2188C41.9328 43.3577 41.9415 43.4987 41.9415 43.6416L41.9357 44.0469C41.6962 52.4486 33.9685 54.9394 24.4708 54.9395L22.6905 54.9258C13.9368 54.7826 7.49644 53.3965 7.00011 45.6826C7.00013 42.9251 7.37953 40.2874 8.86535 38.2998C8.54017 38.3066 8.21684 38.3087 7.89952 38.3008C6.90492 38.2758 5.93592 38.1811 5.09874 38.0264C4.27945 37.8749 3.5209 37.6543 2.99035 37.3457C2.27153 36.9276 1.76932 36.3738 1.66906 35.666C1.57144 34.9762 1.89022 34.3749 2.25499 33.9336C2.96696 33.0723 4.19559 32.3936 5.08214 32.0664C5.23209 32.0013 5.38302 31.9406 5.53331 31.8818C5.22349 31.0272 5.03962 30.1244 5.00597 29.1885L5.00011 28.8701C5.00011 23.3092 10.2143 18.8 16.6466 18.7998L17.2462 18.8125ZM16.6466 20.2998C10.8304 20.3 6.50011 24.3342 6.50011 28.8701C6.50015 29.7484 6.6606 30.6028 6.9591 31.4121C9.18855 30.8033 11.2586 30.7948 12.3595 30.916L12.6193 30.9502L12.7091 30.9688C12.7971 30.9932 12.8803 31.0342 12.9542 31.0889C14.3204 32.1007 14.8017 33.3592 14.7862 34.5312C14.7713 35.6562 14.3025 36.6445 13.8702 37.2285C13.7919 37.3343 13.6872 37.4182 13.5665 37.4707C12.8568 37.779 12.0004 37.9895 11.089 38.123C11.0437 38.1738 10.9961 38.2229 10.9435 38.2676L10.7706 38.4199C9.04048 40.011 8.50593 42.4954 8.50011 45.6309C8.62308 47.4414 9.10579 48.7478 9.81066 49.7197C10.5223 50.7017 11.5375 51.4497 12.8907 52.0117C15.6753 53.1677 19.6267 53.4395 24.4708 53.4395C29.2126 53.4394 33.2744 52.7989 36.1026 51.248C37.493 50.486 38.5588 49.5175 39.2833 48.3145C40.0066 47.1135 40.4415 45.5924 40.4415 43.6416C40.4415 43.5587 40.4364 43.4774 40.4269 43.3984L41.9161 43.2188H41.9142L40.4269 43.3984C40.4104 43.2605 40.4131 43.1212 40.4347 42.9854L40.5206 42.3906C40.7517 40.6616 40.7222 39.4487 40.5909 38.6191C39.6 39.4147 38.4427 39.6936 37.6105 39.9131C37.586 39.9201 37.5615 39.9256 37.5372 39.9326C37.2434 40.0105 36.9339 39.9968 36.6495 39.8955L36.5294 39.8467L35.9698 39.6016C33.2937 38.476 29.7574 37.6352 26.0362 37.0723L25.2355 36.9561L25.0294 36.9121C24.5588 36.7771 24.1786 36.4186 24.0206 35.9453C23.8403 35.4055 23.9813 34.8092 24.3849 34.4072L24.6642 34.1172C26.0186 32.6453 26.794 30.8208 26.7941 28.8701C26.7941 24.3341 22.4629 20.2998 16.6466 20.2998ZM12.2091 32.4092C11.0293 32.2758 8.29285 32.3075 5.68077 33.4424L5.63585 33.46C4.8793 33.7325 3.89812 34.3006 3.41124 34.8896C3.17099 35.1804 3.14162 35.3651 3.15441 35.4561C3.16489 35.5291 3.23372 35.7519 3.74425 36.0488L3.74523 36.0498L3.8712 36.1162C4.1927 36.2722 4.70225 36.427 5.37218 36.5508C6.12008 36.6889 7.00894 36.7775 7.93761 36.8008C9.72529 36.8456 11.5522 36.6454 12.7765 36.1719C13.0312 35.7676 13.2776 35.1599 13.2862 34.5117C13.295 33.8521 13.0614 33.0996 12.2091 32.4092Z" fill="#1A1A1A"/>
<path d="M13.6427 42.0487C13.9241 41.4337 14.2826 40.8817 14.6869 40.3927C16.5674 38.1157 19.8503 37.7817 22.7127 38.5057C29.6476 40.2607 33.3846 44.5577 34.8072 47.4057C35.1096 48.0117 35.002 48.7467 34.4756 49.1717C32.3509 50.8887 28.2949 51.4907 24.2094 51.5577C18.2889 51.6557 11.1794 47.4337 13.6427 42.0487Z" fill="#1A1A1A"/>
<path d="M16.0588 26.7988C16.6443 26.7988 17.1188 27.2734 17.1188 27.8588C17.1188 28.4443 16.6443 28.9188 16.0588 28.9188C15.4734 28.9188 14.9988 28.4443 14.9988 27.8588C14.9988 27.2734 15.4734 26.7988 16.0588 26.7988Z" fill="#D9D9D9"/>
<path d="M9.05884 26.7988C8.47342 26.7988 7.99884 27.2734 7.99884 27.8588C7.99884 28.4443 8.47342 28.9188 9.05884 28.9188C9.64426 28.9188 10.1188 28.4443 10.1188 27.8588C10.1188 27.2734 9.64426 26.7988 9.05884 26.7988Z" fill="#D9D9D9"/>
</svg>
