<svg width="48" height="55" viewBox="0 0 48 55" fill="none" xmlns="http://www.w3.org/2000/svg">
<path d="M4.96899 40.673L1.577 42.725L1 39.148L5.47101 33.727H16.651L19.165 33L22.015 34.565L23.955 35.059H25.509L32.916 34.282L37.682 35.059L40.323 36.15L41.5 36.5L44 22.5L45.5 21L47 32.5L44.622 43.926V49.446L43.587 51.065L42.033 52.308L38.259 54.069H34.554L33.688 53.213L33.105 51.875L30.333 51.738L25.509 52.308L19.966 54.069L18.766 53.772L17.948 51.738L8.51801 51.065L4.595 54.031L2.02399 53.277L2.45499 50.799L4.595 47.873L4.263 43.266L4.96899 40.673Z" fill="#2C2C2C"/>
<path d="M19.6796 44.5117C19.9396 44.1975 20.396 44.1609 20.6988 44.4307C21.0016 44.7004 21.0359 45.1739 20.776 45.4881C19.9845 46.4446 19.0695 46.7239 18.2247 46.5562C17.4478 46.402 16.8393 45.8924 16.5063 45.4842C16.2484 45.1681 16.2863 44.6953 16.591 44.4277C16.8957 44.1602 17.3514 44.1995 17.6093 44.5156C17.8006 44.7501 18.1383 45.0118 18.4957 45.0829C18.7854 45.1404 19.1938 45.0989 19.6796 44.5117Z" fill="#D9D9D9"/>
<path d="M11.6796 44.5117C11.9396 44.1975 12.3959 44.1609 12.6988 44.4307C13.0015 44.7004 13.0358 45.1739 12.7759 45.4881C11.9845 46.4446 11.0694 46.7239 10.2247 46.5562C9.44777 46.402 8.83927 45.8924 8.50624 45.4842C8.24838 45.1681 8.28628 44.6953 8.59094 44.4277C8.89562 44.1602 9.35132 44.1995 9.60919 44.5156C9.8005 44.7501 10.1383 45.0118 10.4957 45.0829C10.7854 45.1404 11.1937 45.0989 11.6796 44.5117Z" fill="#D9D9D9"/>
<path d="M15.623 47.0289C14.77 46.9619 13.703 47.0219 12.863 47.1029C12.367 47.1519 12.001 47.6049 12.298 48.0049C12.755 48.6239 13.646 49.1179 14.305 49.3939C14.515 49.4829 14.754 49.4869 14.952 49.3749C15.463 49.0859 15.875 48.5829 16.168 48.1039C16.457 47.6319 16.174 47.0709 15.623 47.0289Z" fill="#DAAACE"/>
<path d="M44.7977 20.2923C45.7994 20.1398 46.4856 20.9606 46.7137 21.9241C47.2708 24.2776 47.6515 27.3765 47.701 30.4534C47.7503 33.5191 47.4722 36.6347 46.6688 38.9925V38.9934C46.2934 40.0945 45.9136 41.3515 45.6981 42.6008C45.4812 43.8581 45.4405 45.0524 45.6961 46.0491C45.9405 47.0016 46.0979 47.9993 46.0467 48.9094C45.996 49.8096 45.7339 50.7145 45.0506 51.3645C44.2854 52.1212 43.0651 52.8579 41.661 53.4592C40.2444 54.0659 38.5847 54.5595 36.9022 54.8001C35.7516 54.9645 34.527 54.5752 33.6815 53.8489C33.4784 53.6744 33.2936 53.4755 33.1356 53.2571C33.1204 53.2556 33.105 53.2547 33.0897 53.2522L31.9022 53.0589H31.8914L31.825 53.0471C31.8231 53.0469 31.8007 53.0432 31.7469 53.0344C31.6931 53.0256 31.6164 53.013 31.5204 52.9973C31.3283 52.966 31.0588 52.9219 30.7381 52.8694L28.4071 52.4837C27.1178 52.2684 25.7199 52.8612 24.3924 53.6995C23.4745 54.2793 22.3744 54.749 21.2987 54.8606C20.207 54.9738 19.0622 54.7172 18.2557 53.7385V53.7395C17.8394 53.2344 17.5853 52.705 17.4911 52.1682C16.8394 52.2308 16.2594 52.26 15.4481 52.26C13.4879 52.26 11.5984 52.0832 9.94027 51.6448C9.21495 52.435 8.01233 53.4321 6.78109 54.1077C6.07149 54.497 5.29125 54.8148 4.54574 54.8919C3.82708 54.966 3.06793 54.8172 2.5018 54.2229L2.39145 54.0979C1.26145 52.727 1.59089 50.99 2.27621 49.7122C2.6282 49.056 3.10032 48.4587 3.61508 47.9915C3.88979 47.7422 4.19152 47.5177 4.50668 47.3411C4.25742 46.6452 4.12193 45.8687 4.12191 45.0061C4.12191 44.2547 4.12218 43.5877 4.15805 42.9143C4.1125 42.9462 4.06706 42.9784 4.02035 43.0081C3.59354 43.2796 3.07164 43.4857 2.49106 43.4612C1.8932 43.4359 1.33152 43.1698 0.838712 42.677C0.467369 42.3056 0.307537 41.8199 0.263517 41.346C0.219588 40.873 0.284458 40.3597 0.412931 39.8489C0.67019 38.826 1.21596 37.6841 1.91391 36.637C2.61271 35.5887 3.49448 34.5903 4.45785 33.8772C5.40774 33.1741 6.53444 32.6789 7.68441 32.8372L7.91098 32.8743C8.43694 32.9741 8.94016 33.1573 9.35141 33.2932C9.85635 33.4601 10.2628 33.5725 10.6561 33.5725H14.9793C15.7489 33.5725 16.5239 33.2662 17.3788 32.8577L17.6248 32.7454C18.216 32.4903 18.925 32.2864 19.6659 32.2864C20.0427 32.2864 20.4588 32.4281 20.8329 32.594C21.2296 32.7701 21.6722 33.016 22.1307 33.3079C22.687 33.662 23.2843 34.0958 23.8758 34.5764H25.951C26.7477 34.5746 27.7086 34.4369 28.8006 34.2786L29.6141 34.1497C29.9152 34.0995 30.2444 34.0438 30.5955 33.9846C31.291 33.8675 32.0616 33.7409 32.828 33.6389C33.5927 33.5372 34.3668 33.4575 35.0692 33.4358C35.7475 33.4149 36.4158 33.4459 36.9579 33.593C38.6344 34.0012 40.0537 34.7138 41.2 35.6995C41.2635 35.4195 41.3335 35.0872 41.4041 34.7083C41.5833 33.7467 41.7778 32.5148 41.9803 31.138C42.3859 28.3814 42.8155 25.0884 43.2069 22.2717L43.2371 22.0921C43.4115 21.2003 43.9482 20.4216 44.7977 20.2923ZM5.19027 48.676C5.01354 48.7802 4.82195 48.9221 4.62387 49.1018C4.235 49.4548 3.86819 49.9165 3.5975 50.4212C3.03736 51.4655 2.9858 52.4608 3.54867 53.1438C3.70777 53.3369 3.95136 53.4451 4.39145 53.3997C4.8524 53.3521 5.42954 53.1379 6.05941 52.7923C6.90922 52.326 7.74074 51.6803 8.35336 51.1096C7.8389 50.8924 7.35756 50.6428 6.91879 50.3508C6.22553 49.8894 5.6428 49.3316 5.19027 48.676ZM5.62191 45.0061C5.62194 46.9231 6.41675 48.2145 7.74984 49.1018C9.50024 50.2665 12.2292 50.76 15.4481 50.76C16.3353 50.76 16.9141 50.7227 17.6668 50.6409C17.7485 50.4474 17.8489 50.2643 17.9647 50.094C18.6088 49.1471 19.7385 48.5087 20.7586 48.2688C21.1618 48.1742 21.5652 48.4243 21.66 48.8274C21.7548 49.2306 21.5046 49.634 21.1014 49.7288C20.3567 49.9039 19.5918 50.3706 19.2059 50.9378C19.0218 51.2085 18.9359 51.4813 18.9481 51.7542C18.9587 51.9915 19.046 52.2862 19.2957 52.6331L19.4129 52.7854L19.4891 52.8714C19.8788 53.2836 20.4314 53.4422 21.1434 53.3684C21.919 53.288 22.7987 52.9319 23.5916 52.4309L24.1288 52.1067C25.426 51.361 27.0183 50.7307 28.6551 51.0042C30.1358 51.2524 31.6599 51.5004 32.0164 51.5589H32.0233L32.0838 51.5686L32.5829 51.6497C32.5774 51.3143 32.6333 50.9617 32.7684 50.5989C33.076 49.773 33.8046 49.2247 34.5838 49.0296C35.195 48.8766 35.7707 48.8704 36.2625 48.8421C36.5275 48.8268 36.7977 48.8038 37.0916 48.7561C36.6191 48.4182 36.083 47.9862 35.6239 47.4632C34.8193 46.5465 34.1665 45.2575 34.5858 43.6809C34.6923 43.2808 35.1035 43.0432 35.5037 43.1497C35.904 43.2561 36.1423 43.6664 36.036 44.0667C35.7933 44.979 36.1304 45.7659 36.7508 46.4729C37.3822 47.1923 38.2234 47.7268 38.7713 48.0725H38.7704C38.9112 48.1612 39.0826 48.2973 39.1971 48.5032C39.3286 48.7396 39.3609 49.0294 39.2479 49.305C39.1497 49.5442 38.9743 49.6944 38.8446 49.7805C38.7076 49.8714 38.5572 49.9342 38.4168 49.9788H38.4159C37.5789 50.2435 36.916 50.3074 36.3485 50.3401C35.7671 50.3736 35.3839 50.3756 34.9481 50.4846C34.5696 50.5795 34.2823 50.8306 34.1737 51.1223C33.9503 51.7222 34.1488 52.2728 34.659 52.7112C35.1915 53.1686 35.9871 53.4162 36.6903 53.3157C38.2325 53.0952 39.7649 52.6393 41.0702 52.0803C42.388 51.516 43.4192 50.8704 43.9969 50.2991L44.0037 50.2913L44.0106 50.2854C44.3156 49.9994 44.5092 49.5263 44.5487 48.8255C44.5879 48.1286 44.4686 47.2965 44.244 46.4212C43.9137 45.1331 43.9868 43.7013 44.2205 42.346C44.4557 40.9828 44.8633 39.6399 45.2489 38.5091L45.3797 38.1028C46.0054 36.0245 46.2461 33.2852 46.201 30.4778C46.153 27.4942 45.7827 24.5043 45.2537 22.2698C45.1839 21.9744 45.0831 21.8423 45.033 21.7962C45.0248 21.7886 45.0173 21.7839 45.0125 21.7805C44.9936 21.7904 44.9557 21.8162 44.9071 21.8801C44.8276 21.9847 44.7353 22.176 44.6932 22.4788C44.3046 25.275 43.8711 28.5942 43.4647 31.3567C43.2613 32.7392 43.0633 33.9936 42.8787 34.9837C42.7866 35.4782 42.6963 35.9141 42.6092 36.2708C42.5256 36.6132 42.4331 36.9298 42.328 37.1565V37.1585C42.2445 37.3371 42.0768 37.5535 41.784 37.6448C41.5132 37.7291 41.2798 37.6592 41.1541 37.6057C40.9235 37.5075 40.7431 37.328 40.6688 37.2532L40.6668 37.2512C39.6555 36.2245 38.3116 35.4669 36.6034 35.051L36.5907 35.0481L36.5789 35.0442C36.2555 34.9535 35.7591 34.915 35.1151 34.9348C34.4846 34.9543 33.7669 35.0277 33.0262 35.1262C32.2869 35.2246 31.5372 35.3465 30.8446 35.4632C30.5019 35.5209 30.17 35.5777 29.8612 35.6292L29.0155 35.763C27.9556 35.9166 26.8801 36.0743 25.9549 36.0764H25.5291C26.2493 36.8098 26.8962 37.5968 27.3338 38.3665C27.8482 39.2712 28.2112 40.4018 27.6493 41.3753C27.2626 42.0446 26.5874 42.5328 25.8524 42.8362C25.1081 43.1434 24.2371 43.2894 23.3719 43.2219C21.6108 43.0846 19.8211 42.0429 19.2694 39.6702C19.1756 39.2668 19.4267 38.8637 19.8299 38.7698C20.2334 38.676 20.6365 38.9269 20.7303 39.3303C21.1086 40.9572 22.261 41.631 23.4881 41.7268C24.1172 41.7759 24.7526 41.6672 25.2801 41.4495C25.8165 41.2281 26.179 40.9217 26.3504 40.6253C26.4855 40.3913 26.4934 39.9226 26.0301 39.1077C25.5933 38.3394 24.8527 37.4778 23.9823 36.6585C23.1176 35.8445 22.1597 35.1049 21.325 34.5735C20.9075 34.3077 20.5326 34.1019 20.2245 33.9651C19.8933 33.8182 19.7158 33.7864 19.6659 33.7864C19.1208 33.7864 18.5438 33.9627 18.0272 34.2102L18.0262 34.2112C17.1616 34.6244 16.1172 35.0725 14.9793 35.0725H10.6561C9.99866 35.0725 9.38924 34.8851 8.8807 34.7171C8.33685 34.5373 7.91441 34.3827 7.47934 34.3225C6.88602 34.241 6.15465 34.4871 5.35043 35.0823C4.55947 35.6677 3.79058 36.5259 3.16195 37.469C2.5324 38.4135 2.07325 39.3991 1.86801 40.2151C1.76531 40.6236 1.73349 40.9576 1.75668 41.2073C1.77976 41.4557 1.85047 41.5676 1.89926 41.6165C2.17095 41.8882 2.39095 41.9553 2.55453 41.9622C2.73509 41.9697 2.95557 41.9079 3.21566 41.7425C3.75427 41.3997 4.25615 40.7445 4.5516 40.2112H4.55258C4.64737 40.0405 4.81017 39.903 5.01742 39.8479C5.21633 39.7951 5.39687 39.8333 5.52621 39.8928C5.74594 39.9941 6.02075 40.2801 5.95688 40.6868C5.95468 40.7024 5.95305 40.7137 5.95297 40.7141L5.93344 40.8216C5.92443 40.8686 5.91261 40.9262 5.90121 40.9846C5.62567 42.426 5.62191 43.4823 5.62191 45.0061Z" fill="#1A1A1A"/>
</svg>
