<svg width="48" height="55" viewBox="0 0 48 55" fill="none" xmlns="http://www.w3.org/2000/svg">
<path d="M4.392 40.653L4.895 36.8749L5.5 32.6069L8.5 33.1069L9.5 34.1069L11.445 34.2609L16.074 33.7059L18 32.6069H20.5L21.945 31.947L23.378 35.038H24.932L32.339 34.2609L37.105 35.038L41.008 37.8619L43 29.6069L45 24.1069L44.692 30.6779V35.038L42.5 41.1069L44.045 49.4259L43.01 51.0449L41.456 52.288L37.682 54.049H33.977L32.528 53.5479V51.8549L29.757 51.718L24.932 52.288L19.389 54.049L17.445 53.447L16.945 51.8549L16.074 51.718L7.94101 51.0449L4.019 54.0109L1.44701 53.257L1 49.9569L4.019 47.8529L3.686 43.2459L4.392 40.653Z" fill="#F1E5FF"/>
<path d="M18.6795 44.9614C18.9395 44.6472 19.3958 44.6106 19.6987 44.8804C20.0014 45.1501 20.0357 45.6236 19.7759 45.9378C18.9844 46.8943 18.0694 47.1736 17.2246 47.0059C16.4477 46.8517 15.8392 46.3421 15.5062 45.9339C15.2483 45.6178 15.2862 45.145 15.5909 44.8775C15.8956 44.6099 16.3513 44.6492 16.6091 44.9653C16.8004 45.1998 17.1382 45.4615 17.4956 45.5326C17.7853 45.5901 18.1936 45.5486 18.6795 44.9614Z" fill="#1A1A1A"/>
<path d="M10.6794 44.9614C10.9395 44.6472 11.3958 44.6106 11.6986 44.8804C12.0014 45.1501 12.0357 45.6236 11.7758 45.9378C10.9844 46.8943 10.0693 47.1736 9.22453 47.0059C8.44764 46.8517 7.83915 46.3421 7.50612 45.9339C7.24826 45.6178 7.28615 45.145 7.59082 44.8775C7.8955 44.6099 8.35119 44.6492 8.60907 44.9653C8.80038 45.1998 9.13816 45.4615 9.49556 45.5326C9.78524 45.5901 10.1936 45.5486 10.6794 44.9614Z" fill="#1A1A1A"/>
<path d="M14.819 46.5109C13.922 46.3809 12.727 46.4709 11.814 46.5959C11.339 46.6599 10.984 47.0869 11.161 47.5329C11.534 48.4739 12.485 49.2388 13.209 49.6728C13.471 49.8288 13.801 49.8338 14.033 49.6358C14.624 49.1318 15.075 48.2438 15.354 47.5088C15.524 47.0618 15.291 46.5799 14.819 46.5109Z" fill="#1A1A1A"/>
<path d="M43.364 25.3959C43.8054 25.2711 44.2608 25.3799 44.6111 25.6879C44.9387 25.9759 45.1345 26.3971 45.2342 26.8627C45.6083 28.6106 45.6925 30.8255 45.489 33.0346C45.2857 35.2431 44.7896 37.5023 43.9666 39.3295C43.2459 40.9309 42.9446 42.7498 43.5105 44.2162C43.9739 45.4173 44.3891 46.7692 44.5193 47.9975C44.6451 49.184 44.5286 50.4889 43.6375 51.3256L43.6365 51.3246C42.8701 52.0764 41.6563 52.8086 40.2605 53.4066C39.021 53.9377 37.5955 54.3829 36.1316 54.6469L35.5017 54.7484C34.3514 54.9122 33.1267 54.5224 32.281 53.7963C32.0775 53.6215 31.8924 53.4224 31.7342 53.2035C31.7196 53.202 31.7048 53.202 31.6902 53.1996L30.4422 52.9975L30.3289 52.9789L30.326 52.977C29.9125 52.9101 28.4514 52.6744 27.0056 52.432C25.8778 52.2429 24.6679 52.6725 23.493 53.3451L22.992 53.6469C22.0743 54.227 20.9733 54.6964 19.8973 54.808C18.8057 54.9211 17.6607 54.6655 16.8543 53.6869C16.4383 53.1819 16.184 52.6531 16.0896 52.1166C15.4385 52.179 14.8584 52.2074 14.0476 52.2074C12.0861 52.2074 10.1963 52.0302 8.53788 51.5912C7.81253 52.3814 6.61161 53.3795 5.38065 54.0551C4.67088 54.4446 3.88995 54.7621 3.14432 54.8393C2.37792 54.9185 1.5655 54.7443 0.990024 54.0463C-0.139972 52.6753 0.189491 50.9375 0.87479 49.6596C1.22683 49.0032 1.69974 48.4061 2.21463 47.9389C2.48944 47.6895 2.7909 47.465 3.10624 47.2885C2.8569 46.5927 2.72049 45.816 2.72049 44.9535C2.72049 43.3506 2.72107 42.1323 3.07108 40.4174C3.21003 39.3603 3.60842 36.9189 4.18143 34.766C4.32545 34.2254 4.57893 33.6656 4.99881 33.2035L5.00174 33.1996C5.1058 33.0866 5.21017 32.9829 5.31424 32.8949L5.31522 32.8939C6.09381 32.2391 7.09723 32.1457 7.97635 32.2797C8.75233 32.398 9.52192 32.7033 10.1551 33.0824L10.4178 33.2494L10.4207 33.2514C10.4856 33.2955 10.5527 33.3448 10.6219 33.3998L10.6228 33.4008C10.7416 33.4957 10.8325 33.5189 10.8816 33.5189H14.7488C14.7967 33.5189 14.8486 33.5036 14.8943 33.473C16.0858 32.6725 16.799 32.2497 17.3914 32.0678C18.0276 31.8724 18.5381 31.9663 19.031 31.9955C19.4899 32.0227 19.935 32.1461 20.3367 32.3412L20.6033 32.4643C20.69 32.5024 20.775 32.5376 20.8592 32.5727C21.0202 32.6397 21.1979 32.7126 21.3592 32.7885C21.6973 32.9476 22.0565 33.1637 22.3377 33.5658C22.526 33.8352 22.6536 34.1526 22.7439 34.5229H24.5506C25.3474 34.521 26.3077 34.3843 27.4002 34.227C27.8788 34.1579 28.4929 34.0504 29.1951 33.932C29.8906 33.8148 30.6611 33.6884 31.4275 33.5863C32.1923 33.4844 32.9664 33.405 33.6687 33.3832C34.3577 33.3619 35.0364 33.393 35.5828 33.5463H35.5818C37.4194 34.001 39.3808 35.2098 40.6639 36.3969C40.6686 36.3824 40.6746 36.3679 40.6795 36.3529C40.8307 35.8861 40.9943 35.2231 41.158 34.3734C41.4847 32.678 41.8014 30.3017 42.0349 27.3988L42.0535 27.2318C42.1642 26.3964 42.6009 25.6119 43.364 25.3959ZM3.78983 48.6234C3.61292 48.7276 3.42083 48.8692 3.22245 49.0492C2.83369 49.402 2.46773 49.8639 2.19706 50.3686C1.63686 51.4132 1.58425 52.4091 2.14725 53.0922C2.30623 53.285 2.54989 53.3926 2.99002 53.3471C3.45108 53.2994 4.02899 53.0854 4.65897 52.7397C5.50898 52.2731 6.3403 51.6268 6.95291 51.0561C6.59441 50.9047 6.25131 50.7392 5.9285 50.5522L5.51737 50.2973C4.82451 49.8363 4.24242 49.2788 3.78983 48.6234ZM43.6931 26.9428C43.6421 27.0251 43.5884 27.1516 43.5555 27.3266L43.5301 27.5189C43.2936 30.459 42.9707 32.893 42.6306 34.6576C42.4611 35.5377 42.2848 36.2674 42.1072 36.8158C42.0187 37.089 41.924 37.3338 41.823 37.5365C41.7333 37.7166 41.5956 37.9531 41.3826 38.1166L41.3816 38.1176C41.1578 38.2887 40.8783 38.3463 40.6101 38.2777C40.3925 38.222 40.2409 38.0972 40.1668 38.0307C40.0853 37.9574 40.016 37.8774 39.9764 37.8314C39.9244 37.7711 39.908 37.7515 39.8933 37.7367L39.8924 37.7357C38.7804 36.6156 36.875 35.4057 35.2019 34.9975L35.1892 34.9945L35.1775 34.9906C34.8545 34.9 34.3593 34.8623 33.7156 34.8822C33.0851 34.9018 32.3667 34.9749 31.6258 35.0736C30.8865 35.1721 30.1369 35.2947 29.4441 35.4115C29.1015 35.4693 28.7696 35.5261 28.4607 35.5775L27.614 35.7113C26.5547 35.8639 25.4786 36.0207 24.5535 36.0229H22.9334C22.9554 36.4356 22.9656 36.9069 22.9656 37.4467C22.9656 37.8609 22.6298 38.1967 22.2156 38.1967C21.8016 38.1965 21.4656 37.8608 21.4656 37.4467C21.4656 36.4354 21.4299 35.7406 21.3582 35.2504C21.2861 34.7581 21.1867 34.5376 21.1082 34.4252C21.041 34.3291 20.9487 34.2532 20.7205 34.1459C20.5987 34.0886 20.4649 34.0331 20.283 33.9574C20.1081 33.8846 19.9047 33.7992 19.6814 33.6908C19.5042 33.6047 19.3171 33.5449 19.1297 33.5141L18.9422 33.4926C18.2526 33.4518 18.1334 33.4097 17.8318 33.5023C17.4865 33.6084 16.9535 33.8966 15.7293 34.7191L15.7283 34.7201C15.442 34.9116 15.1009 35.0189 14.7488 35.0189H10.8816C10.3972 35.0189 9.98618 34.8123 9.68729 34.5736L9.58084 34.4945L9.37967 34.3666C8.89542 34.0773 8.31066 33.8485 7.75077 33.7631C7.1035 33.6644 6.60338 33.7706 6.28104 34.0414C6.24365 34.0731 6.18863 34.1262 6.10916 34.2123L6.03006 34.3061C5.8519 34.534 5.71814 34.8234 5.63065 35.1518C5.07766 37.2294 4.68978 39.6125 4.55741 40.6234L4.55448 40.6508L4.54862 40.6772C4.22353 42.2513 4.22049 43.3421 4.22049 44.9535C4.22049 46.8703 5.01629 48.1619 6.34842 49.0482C8.09996 50.2132 10.8281 50.7074 14.0476 50.7074C14.9343 50.7074 15.5133 50.671 16.2654 50.5893C16.3472 50.3953 16.4482 50.2121 16.5642 50.0414C17.2086 49.0944 18.3383 48.4555 19.3592 48.2162C19.7623 48.122 20.166 48.3727 20.2605 48.7758C20.355 49.179 20.1042 49.5826 19.701 49.6772C18.9559 49.8519 18.1904 50.318 17.8045 50.8852C17.6204 51.1558 17.5354 51.4286 17.5476 51.7016C17.5598 51.973 17.671 52.3194 18.0115 52.7328C18.404 53.2091 18.9829 53.3956 19.743 53.3168C20.5186 53.2364 21.3979 52.8801 22.1902 52.3793V52.3783C23.5714 51.5058 25.3829 50.6389 27.2537 50.9525C28.0932 51.0933 28.9382 51.2325 29.5789 51.3373C29.899 51.3897 30.1684 51.4331 30.3601 51.4643C30.456 51.4798 30.5328 51.4917 30.5867 51.5004C30.6137 51.5048 30.635 51.5087 30.6502 51.5111C30.6555 51.512 30.6601 51.5125 30.6639 51.5131C30.6729 51.5144 30.6823 51.5162 30.6922 51.518L31.1814 51.5971C31.176 51.2619 31.232 50.9099 31.367 50.5473L31.4295 50.3959C31.7657 49.6541 32.4517 49.16 33.1824 48.977C33.7941 48.8235 34.3693 48.8177 34.8611 48.7895C35.126 48.7742 35.3964 48.7512 35.6902 48.7035C35.2179 48.3655 34.6825 47.9325 34.2234 47.4096C33.4189 46.4932 32.766 45.2054 33.1853 43.6293C33.2918 43.2292 33.7022 42.9909 34.1023 43.0971C34.5026 43.2036 34.7411 43.6148 34.6346 44.015C34.3921 44.9266 34.7295 45.7131 35.3504 46.4203C35.9814 47.1391 36.8208 47.6733 37.3689 48.0199C37.5097 48.1086 37.6812 48.2451 37.7957 48.4506C37.9271 48.6866 37.9603 48.9766 37.8474 49.2523C37.7494 49.4917 37.574 49.6418 37.4441 49.7279C37.3756 49.7734 37.3034 49.8116 37.2312 49.8441L37.0164 49.9262C36.1788 50.1915 35.5156 50.2548 34.948 50.2875C34.3668 50.3209 33.9836 50.3227 33.5476 50.432H33.5467C33.1683 50.5269 32.8818 50.779 32.7732 51.0707C32.55 51.6703 32.7471 52.2202 33.2576 52.6586C33.7903 53.116 34.5863 53.3632 35.2898 53.2631L35.867 53.1703C37.2111 52.9278 38.5274 52.5171 39.6697 52.0277C40.9873 51.4632 42.0181 50.8169 42.5965 50.2455L42.6101 50.2318C42.9609 49.9026 43.1416 49.2363 43.0271 48.1557C42.917 47.117 42.5546 45.9059 42.1111 44.7563C41.341 42.7607 41.7981 40.4949 42.5994 38.7143C43.3344 37.0825 43.8016 34.9965 43.9949 32.8969C44.1882 30.7978 44.1021 28.7412 43.7674 27.1772C43.7452 27.0734 43.7167 26.9979 43.6931 26.9428Z" fill="#1A1A1A"/>
<path d="M42.6854 21.6171C43.3649 21.5538 44.0154 21.8036 44.4764 22.2597C44.9148 22.2109 45.3692 22.2906 45.7801 22.5097L45.9784 22.6279C46.6863 23.1027 47.0371 23.9099 46.9647 24.7031C47.3345 24.9962 47.6145 25.4041 47.742 25.8857L47.7899 26.1113C47.9171 26.9167 47.5993 27.6872 47.0204 28.1787C47.0317 28.6546 46.8948 29.1376 46.5936 29.5527C46.0959 30.2385 45.2842 30.5597 44.4989 30.4638C44.0367 30.9516 43.3676 31.2257 42.6639 31.1611L42.4364 31.1279C41.8833 31.0204 41.4186 30.7173 41.0965 30.3056C40.4567 30.2964 39.8302 30.0167 39.3993 29.499L39.2606 29.3154C38.9623 28.8734 38.843 28.3631 38.8846 27.8701C38.3764 27.339 38.137 26.5707 38.3163 25.8017L38.3797 25.581C38.515 25.1873 38.7529 24.8525 39.0545 24.5976C39.0379 23.8289 39.4139 23.0711 40.1141 22.6357L40.3153 22.5244C40.6203 22.3752 40.9462 22.3042 41.2694 22.2998C41.5783 21.9773 41.9856 21.7432 42.4569 21.6503L42.6854 21.6171Z" fill="#1A1A1A"/>
<path d="M7.82788 31.7428C8.58376 31.9058 9.06486 32.65 8.9021 33.4059L8.89038 33.4635C9.48827 33.2517 10.175 33.4673 10.5339 34.0231C10.9539 34.6731 10.7679 35.5396 10.1179 35.9596C10.006 36.0325 9.8911 36.1044 9.77222 36.1774C10.478 36.3975 10.8946 37.1342 10.7107 37.858C10.5637 38.4379 10.0752 38.8398 9.51441 38.9049C9.76836 39.2339 9.87334 39.6722 9.76343 40.1051C9.57344 40.8551 8.81123 41.3077 8.06128 41.1178C8.02234 41.1068 7.98206 41.0975 7.94312 41.0875C8.09095 41.6724 7.84544 42.3095 7.30054 42.6334C6.6356 43.0291 5.77651 42.811 5.38159 42.1461C5.33765 42.0732 5.29561 42.0003 5.25366 41.9284C5.22274 41.9733 5.19182 42.0192 5.16089 42.0651C4.72589 42.7041 3.85358 42.8692 3.21558 42.4332C2.66286 42.0562 2.46503 41.3533 2.70386 40.7575L2.66089 40.7653C1.90093 40.9092 1.16914 40.409 1.02515 39.6491C0.910225 39.0391 1.20939 38.4477 1.72534 38.1637L1.72339 38.1608C1.10139 37.7018 0.969469 36.8258 1.42847 36.2028C1.66846 35.8781 2.0225 35.6872 2.39429 35.6442C2.02139 35.1613 1.99605 34.4726 2.37573 33.9567C2.74869 33.4517 3.39576 33.2696 3.95972 33.4645C3.95272 33.4185 3.94621 33.3718 3.93921 33.3268C3.82345 32.5619 4.35014 31.849 5.11402 31.734C5.63097 31.655 6.12454 31.8716 6.42554 32.2555C6.7455 31.8436 7.28395 31.6259 7.82788 31.7428ZM18.9314 31.7428C19.4752 31.6261 20.0129 31.8436 20.3318 32.2555C20.6338 31.8715 21.1273 31.655 21.6443 31.734C22.409 31.8492 22.9348 32.5621 22.8201 33.3268C22.8131 33.3718 22.8056 33.4185 22.7976 33.4645C23.3616 33.2695 24.0096 33.4517 24.3826 33.9567C24.7625 34.4726 24.7369 35.1612 24.364 35.6442C24.7368 35.6872 25.0908 35.878 25.3308 36.2028C25.7898 36.8257 25.6577 37.7017 25.0349 38.1608L25.033 38.1637C25.5488 38.4477 25.849 39.0392 25.7332 39.6491C25.5902 40.4091 24.8564 40.9093 24.0964 40.7653L24.0544 40.7575C24.2924 41.3535 24.0957 42.0562 23.5427 42.4332C22.9037 42.8691 22.0324 42.704 21.5964 42.0651C21.5655 42.0192 21.5346 41.9732 21.5046 41.9284C21.4627 42.0003 21.4197 42.0732 21.3767 42.1461C20.9807 42.8111 20.1218 43.0294 19.4568 42.6334C18.9119 42.3095 18.6673 41.6725 18.8152 41.0875C18.7763 41.0975 18.737 41.1068 18.697 41.1178C17.948 41.3078 17.1859 40.8551 16.9949 40.1051C16.8849 39.6722 16.9909 39.2339 17.2439 38.9049C16.6829 38.8399 16.1936 38.438 16.0466 37.858C15.8628 37.1341 16.2812 36.3974 16.9861 36.1774C16.8683 36.1045 16.7522 36.0325 16.6404 35.9596C15.9914 35.5396 15.8054 34.6731 16.2244 34.0231C16.5844 33.4673 17.271 33.2516 17.8679 33.4635L17.8562 33.4059C17.6944 32.65 18.1755 31.9058 18.9314 31.7428ZM42.7468 23.1227C43.1528 23.0427 43.5477 23.3065 43.6277 23.7135C43.6797 23.9765 43.7274 24.2574 43.7664 24.5534C43.8873 24.3914 43.9983 24.2317 44.1013 24.0778C44.3324 23.7342 44.7985 23.6438 45.1423 23.8737C45.4859 24.1048 45.5783 24.5708 45.3474 24.9147C45.1524 25.2057 44.9304 25.5099 44.6785 25.8239C44.9285 25.7989 45.186 25.7653 45.45 25.7233C45.8589 25.6593 46.2434 25.9383 46.3084 26.3473C46.3732 26.7561 46.0941 27.1406 45.6853 27.2057C45.3855 27.2537 45.0922 27.29 44.8084 27.319C44.9393 27.4209 45.0737 27.5237 45.2136 27.6246C45.5486 27.8686 45.6236 28.3375 45.3796 28.6725C45.1366 29.0072 44.6677 29.0814 44.3328 28.8385C44.1188 28.6835 43.9155 28.5267 43.7205 28.3707C43.6875 28.5967 43.6483 28.8282 43.6033 29.0631C43.5233 29.47 43.1303 29.7347 42.7234 29.6559C42.3164 29.5769 42.0506 29.183 42.1296 28.777C42.1686 28.577 42.2032 28.381 42.2322 28.1901C42.0142 28.3541 41.7857 28.5183 41.5457 28.6793C41.2017 28.9111 40.7356 28.8201 40.5046 28.4772C40.2728 28.1332 40.3639 27.6672 40.7068 27.4362C40.8268 27.3552 40.9444 27.273 41.0584 27.192C40.8054 27.147 40.5647 27.0976 40.3367 27.0446C39.9338 26.9505 39.6831 26.5461 39.7771 26.1432C39.8711 25.7403 40.2746 25.4898 40.6775 25.5836C40.8315 25.6196 40.9939 25.6542 41.1609 25.6862C40.9779 25.4302 40.8128 25.182 40.6648 24.943C40.446 24.591 40.5541 24.1278 40.906 23.9098C41.258 23.691 41.7203 23.7991 41.9392 24.151C42.0392 24.312 42.1474 24.4781 42.2654 24.6481C42.2334 24.4222 42.196 24.2074 42.156 24.0036C42.076 23.5966 42.3409 23.2028 42.7468 23.1227Z" fill="#D9B8FF"/>
<path d="M2.16974 37.5591C2.37574 37.7111 2.49045 37.9574 2.47345 38.2124C2.45635 38.4673 2.31064 38.6959 2.08674 38.8199L1.72541 38.1636L2.16974 37.5591Z" fill="#1A1A1A"/>
<path fill-rule="evenodd" clip-rule="evenodd" d="M6.42365 31.272C6.87549 30.9995 7.42788 30.8903 7.98517 31.0103C8.835 31.1926 9.45608 31.8549 9.63166 32.6519C10.2374 32.7297 10.8062 33.0626 11.1639 33.6158C11.6857 34.4231 11.5972 35.4477 11.0164 36.1509C11.4341 36.6611 11.6132 37.3557 11.4383 38.0435C11.2981 38.5957 10.9553 39.0421 10.5106 39.3257C10.5748 39.6351 10.5729 39.9639 10.4901 40.2906C10.2669 41.1696 9.53119 41.781 8.68342 41.8911C8.56053 42.4509 8.21723 42.961 7.68537 43.2779C6.87377 43.7604 5.87433 43.6463 5.19318 43.0669C4.486 43.536 3.53702 43.5608 2.79279 43.0533C2.2404 42.6758 1.92025 42.0868 1.86408 41.4693C1.08344 41.2672 0.448126 40.6347 0.287907 39.7896C0.17087 39.1694 0.333549 38.5618 0.685368 38.0953C0.27973 37.3796 0.304202 36.4634 0.82404 35.7583C0.985608 35.5394 1.18188 35.3612 1.39826 35.2232C1.27887 34.6464 1.39478 34.0232 1.77228 33.5113C2.13431 33.021 2.66471 32.7298 3.22443 32.6568C3.41026 31.8126 4.09621 31.1284 5.00177 30.9917C5.5144 30.9144 6.0115 31.0261 6.42365 31.272ZM7.01935 32.7144C6.87744 32.8972 6.65934 33.0043 6.42853 33.0054C6.22648 33.0054 6.03405 32.9247 5.89338 32.7828L5.77912 32.6548C5.63743 32.5158 5.43546 32.4437 5.22638 32.4751C4.87138 32.5291 4.62749 32.8604 4.68049 33.2154L4.70099 33.3462L4.70978 33.4439C4.71564 33.6706 4.61888 33.8909 4.4422 34.0396C4.24022 34.2085 3.9636 34.2594 3.71467 34.1734C3.45282 34.0826 3.15228 34.1682 2.97931 34.4019C2.80431 34.6399 2.81413 34.9611 2.98713 35.1851L2.39338 35.6431L2.39435 35.6441L2.98713 35.1851C3.15312 35.3991 3.18978 35.6861 3.08478 35.9351C2.97979 36.184 2.74917 36.3581 2.48029 36.3892C2.30632 36.4092 2.14307 36.497 2.03107 36.649C1.81811 36.9379 1.87894 37.3451 2.16779 37.5581L2.16974 37.5591L1.72443 38.1626L2.08674 38.8199C1.84683 38.9519 1.70953 39.2284 1.76252 39.5103C1.82958 39.8629 2.16864 40.0944 2.52131 40.0279L2.56427 40.0201L2.66486 40.0083C2.90009 39.9961 3.12986 40.0953 3.28302 40.2798C3.45693 40.4917 3.50199 40.7808 3.40021 41.0357L3.36799 41.1411C3.31471 41.3911 3.41436 41.6607 3.63849 41.813C3.93542 42.0158 4.33883 41.9389 4.54181 41.6421C4.57175 41.5982 4.60075 41.5542 4.63068 41.5103L4.68927 41.4341C4.83619 41.266 5.05233 41.1713 5.27912 41.1783C5.50486 41.1861 5.71365 41.295 5.84943 41.4722L5.90314 41.5523L6.02619 41.7632C6.21021 42.0711 6.60884 42.1717 6.91779 41.9888C7.16979 41.8388 7.28464 41.543 7.21564 41.271C7.15074 41.0142 7.22602 40.7422 7.41486 40.5552C7.60275 40.3683 7.8748 40.2951 8.13166 40.3609C8.16961 40.3709 8.20797 40.3812 8.24592 40.3911C8.59382 40.4791 8.94783 40.2692 9.03595 39.9214C9.08695 39.7204 9.03874 39.5168 8.91974 39.3628C8.75496 39.1489 8.71809 38.8617 8.82404 38.6128C8.92908 38.3639 9.16061 38.1907 9.42853 38.1597C9.69026 38.1295 9.91618 37.9421 9.9842 37.6744C10.0702 37.3374 9.87565 36.9951 9.54865 36.8931C9.26786 36.806 9.06412 36.5619 9.02814 36.2701C8.9922 35.9783 9.12904 35.6927 9.3797 35.5386C9.4927 35.4686 9.60377 35.3986 9.71076 35.3286C10.0127 35.1337 10.099 34.7322 9.90412 34.4302C9.73816 34.1733 9.41938 34.0716 9.14142 34.1704L9.04377 34.1978C8.81481 34.2457 8.57377 34.1834 8.39533 34.0269C8.19036 33.8469 8.0991 33.5712 8.15705 33.3052L8.16877 33.2486C8.24446 32.8977 8.02058 32.5521 7.66974 32.4771C7.41885 32.4232 7.16829 32.5215 7.01935 32.7144Z" fill="#1A1A1A"/>
<path d="M20.9227 32.7183C20.7797 32.9001 20.5608 33.0054 20.3299 33.0054C20.099 33.0044 19.881 32.8972 19.7401 32.7144L20.3319 32.2544L20.9227 32.7183Z" fill="#1A1A1A"/>
<path fill-rule="evenodd" clip-rule="evenodd" d="M18.7733 31.0103C19.3306 30.8905 19.8825 30.9991 20.3338 31.271C20.7459 31.0251 21.2432 30.9145 21.7557 30.9917C22.6612 31.1283 23.3461 31.8127 23.532 32.6568C24.0924 32.7295 24.6238 33.0205 24.9861 33.5113C25.3636 34.0233 25.4784 34.6464 25.3592 35.2232C25.5759 35.3613 25.773 35.5391 25.9344 35.7583C26.4542 36.4635 26.4776 37.3795 26.0721 38.0953C26.4245 38.5619 26.5883 39.1691 26.4705 39.7896C26.311 40.6352 25.6749 41.2676 24.8934 41.4693C24.8374 42.0868 24.5177 42.6759 23.9647 43.0533C23.2201 43.5608 22.2712 43.5366 21.5643 43.0669C20.8832 43.646 19.8847 43.7603 19.074 43.2779C18.542 42.961 18.1972 42.4511 18.074 41.8911C17.2269 41.7804 16.4922 41.169 16.2684 40.2906C16.1854 39.9636 16.1825 39.6344 16.2469 39.3247C15.8029 39.0411 15.4608 38.5952 15.3201 38.0435C15.1453 37.3558 15.3236 36.661 15.741 36.1509C15.1612 35.4477 15.0727 34.4229 15.5936 33.6158C15.9515 33.063 16.5205 32.7301 17.1258 32.6519C17.3009 31.8547 17.9233 31.1926 18.7733 31.0103ZM19.7401 32.7144C19.5901 32.5214 19.3397 32.4231 19.0877 32.4771C18.7371 32.5522 18.5141 32.8979 18.5887 33.2486L18.6014 33.3052L18.616 33.4048C18.6348 33.6384 18.5426 33.8693 18.3641 34.0269C18.1848 34.1835 17.9441 34.2457 17.7147 34.1978L17.617 34.1704L17.5115 34.1421C17.2627 34.0989 17.0004 34.2054 16.8543 34.4302C16.6594 34.7321 16.7461 35.1335 17.0467 35.3286C17.1547 35.3986 17.2647 35.4686 17.3787 35.5386C17.6287 35.6926 17.7672 35.9781 17.7303 36.2701C17.6943 36.5621 17.4898 36.8061 17.2088 36.8931C16.8829 36.9952 16.6893 37.3374 16.7742 37.6744C16.8423 37.9421 17.0681 38.1296 17.3299 38.1597C17.5989 38.1907 17.8303 38.3639 17.9354 38.6128C18.0404 38.8618 18.0027 39.1488 17.8377 39.3628C17.7187 39.5168 17.6715 39.7204 17.7225 39.9214C17.8116 40.2692 18.1656 40.4791 18.5135 40.3911C18.5513 40.3812 18.589 40.3708 18.6258 40.3609C18.8827 40.2949 19.1556 40.3684 19.3436 40.5552C19.5316 40.7422 19.6068 41.014 19.5418 41.271C19.4739 41.5429 19.589 41.8387 19.8406 41.9888C20.1486 42.1718 20.5482 42.0712 20.7322 41.7632C20.7742 41.6922 20.8153 41.6223 20.8553 41.5523L20.909 41.4722C21.0448 41.2951 21.2537 41.1861 21.4803 41.1783C21.706 41.1713 21.9213 41.2663 22.0682 41.4341L22.1268 41.5103L22.2166 41.6421C22.4186 41.9391 22.8239 42.016 23.1199 41.813C23.3441 41.6607 23.4437 41.3911 23.3904 41.1411L23.3582 41.0357L23.327 40.939C23.2703 40.71 23.3242 40.4653 23.4764 40.2798C23.6287 40.0953 23.8591 39.996 24.0945 40.0083L24.1951 40.0201L24.2371 40.0279C24.5901 40.0948 24.9298 39.8632 24.9959 39.5103C25.0499 39.2283 24.9117 38.9519 24.6717 38.8199L25.033 38.1626L24.5877 37.5591L24.5897 37.5581C24.8786 37.3452 24.9403 36.938 24.7274 36.649C24.6164 36.497 24.4531 36.4092 24.2781 36.3892C24.0101 36.3582 23.7777 36.1841 23.6727 35.9351C23.5678 35.6861 23.6053 35.399 23.7713 35.1851C23.9442 34.9611 23.9551 34.6398 23.7791 34.4019C23.6071 34.168 23.3057 34.0824 23.0438 34.1734C22.795 34.2592 22.5191 34.2083 22.3172 34.0396C22.1152 33.8696 22.0164 33.6062 22.0584 33.3462C22.0654 33.3023 22.071 33.2583 22.0779 33.2154C22.1319 32.8604 21.887 32.5291 21.532 32.4751C21.293 32.4391 21.0637 32.5383 20.9227 32.7183L20.3319 32.2544L19.7401 32.7144ZM25.033 38.1626L24.6717 38.8199C24.448 38.6959 24.3021 38.4672 24.285 38.2124C24.268 37.9575 24.3818 37.7111 24.5877 37.5591L25.033 38.1626Z" fill="#1A1A1A"/>
</svg>
