<svg width="48" height="55" viewBox="0 0 48 55" fill="none" xmlns="http://www.w3.org/2000/svg">
<path d="M4.392 40.653L4.895 36.8749L5.5 32.6069L8.5 33.1069L9.5 34.1069L11.445 34.2609L16.074 33.7059L18 32.6069H20.5L21.945 31.947L23.378 35.038H24.932L32.339 34.2609L37.105 35.038L41.008 37.8619L43 29.6069L45 24.1069L44.692 30.6779V35.038L42.5 41.1069L44.045 49.4259L43.01 51.0449L41.456 52.288L37.682 54.049H33.977L32.528 53.5479V51.8549L29.757 51.718L24.932 52.288L19.389 54.049L17.445 53.447L16.945 51.8549L16.074 51.718L7.94099 51.0449L4.019 54.0109L1.44701 53.257L1 49.9569L4.019 47.8529L3.686 43.2459L4.392 40.653Z" fill="#D7F4B7"/>
<path d="M18.6794 44.9614C18.9395 44.6472 19.3958 44.6106 19.6986 44.8804C20.0014 45.1501 20.0357 45.6236 19.7758 45.9378C18.9844 46.8943 18.0693 47.1736 17.2245 47.0059C16.4476 46.8517 15.8391 46.3421 15.5061 45.9339C15.2483 45.6178 15.2862 45.145 15.5908 44.8775C15.8955 44.6099 16.3512 44.6492 16.6091 44.9653C16.8004 45.1998 17.1382 45.4615 17.4956 45.5326C17.7852 45.5901 18.1936 45.5486 18.6794 44.9614Z" fill="#1A1A1A"/>
<path d="M10.6794 44.9614C10.9394 44.6472 11.3957 44.6106 11.6986 44.8804C12.0013 45.1501 12.0356 45.6236 11.7757 45.9378C10.9843 46.8943 10.0693 47.1736 9.22447 47.0059C8.44758 46.8517 7.83909 46.3421 7.50606 45.9339C7.2482 45.6178 7.28609 45.145 7.59076 44.8775C7.89544 44.6099 8.35113 44.6492 8.60901 44.9653C8.80032 45.1998 9.1381 45.4615 9.4955 45.5326C9.78518 45.5901 10.1935 45.5486 10.6794 44.9614Z" fill="#1A1A1A"/>
<path d="M14.819 46.5109C13.922 46.3809 12.727 46.4709 11.814 46.5959C11.339 46.6599 10.984 47.0869 11.161 47.5329C11.534 48.4739 12.485 49.2388 13.209 49.6728C13.471 49.8288 13.801 49.8338 14.033 49.6358C14.624 49.1318 15.075 48.2438 15.354 47.5088C15.524 47.0618 15.291 46.5799 14.819 46.5109Z" fill="#1A1A1A"/>
<path d="M43.364 25.3959C43.8054 25.2711 44.2608 25.3799 44.6111 25.6879C44.9387 25.9759 45.1345 26.3971 45.2342 26.8627C45.6083 28.6106 45.6925 30.8255 45.489 33.0346C45.2857 35.2431 44.7896 37.5023 43.9666 39.3295C43.2459 40.9309 42.9446 42.7498 43.5105 44.2162C43.9739 45.4173 44.3891 46.7692 44.5193 47.9975C44.6451 49.184 44.5286 50.4889 43.6375 51.3256L43.6365 51.3246C42.8701 52.0764 41.6563 52.8086 40.2605 53.4066C39.021 53.9377 37.5955 54.3829 36.1316 54.6469L35.5017 54.7484C34.3514 54.9122 33.1267 54.5224 32.281 53.7963C32.0775 53.6215 31.8924 53.4224 31.7342 53.2035C31.7196 53.202 31.7048 53.202 31.6902 53.1996L30.4422 52.9975L30.3289 52.9789L30.326 52.977C29.9125 52.9101 28.4514 52.6744 27.0056 52.432C25.8778 52.2429 24.6679 52.6725 23.493 53.3451L22.992 53.6469C22.0743 54.227 20.9733 54.6964 19.8973 54.808C18.8057 54.9211 17.6607 54.6655 16.8543 53.6869C16.4383 53.1819 16.184 52.6531 16.0896 52.1166C15.4385 52.179 14.8584 52.2074 14.0476 52.2074C12.0861 52.2074 10.1963 52.0302 8.53788 51.5912C7.81253 52.3814 6.61161 53.3795 5.38065 54.0551C4.67088 54.4446 3.88995 54.7621 3.14432 54.8393C2.37792 54.9185 1.5655 54.7443 0.990024 54.0463C-0.139972 52.6753 0.189491 50.9375 0.87479 49.6596C1.22683 49.0032 1.69974 48.4061 2.21463 47.9389C2.48944 47.6895 2.7909 47.465 3.10624 47.2885C2.8569 46.5927 2.72049 45.816 2.72049 44.9535C2.72049 43.3506 2.72107 42.1323 3.07108 40.4174C3.21003 39.3603 3.60842 36.9189 4.18143 34.766C4.32545 34.2254 4.57893 33.6656 4.99881 33.2035L5.00174 33.1996C5.1058 33.0866 5.21017 32.9829 5.31424 32.8949L5.31522 32.8939C6.09381 32.2391 7.09723 32.1457 7.97635 32.2797C8.75233 32.398 9.52192 32.7033 10.1551 33.0824L10.4178 33.2494L10.4207 33.2514C10.4856 33.2955 10.5527 33.3448 10.6219 33.3998L10.6228 33.4008C10.7415 33.4956 10.8325 33.5188 10.8816 33.5189H14.7488C14.7967 33.5189 14.8486 33.5036 14.8943 33.4731C16.0858 32.6725 16.799 32.2497 17.3914 32.0678C18.0276 31.8724 18.5381 31.9663 19.031 31.9955C19.4899 32.0227 19.935 32.1461 20.3367 32.3412L20.6033 32.4643C20.69 32.5024 20.775 32.5376 20.8592 32.5727C21.0202 32.6397 21.1979 32.7126 21.3592 32.7885C21.6973 32.9476 22.0565 33.1637 22.3377 33.5658C22.526 33.8352 22.6536 34.1526 22.7439 34.5229H24.5506C25.3474 34.521 26.3077 34.3843 27.4002 34.227C27.8788 34.1579 28.4929 34.0504 29.1951 33.932C29.8906 33.8148 30.6611 33.6884 31.4275 33.5863C32.1923 33.4844 32.9664 33.405 33.6687 33.3832C34.3577 33.3619 35.0364 33.393 35.5828 33.5463H35.5818C37.4194 34.001 39.3808 35.2098 40.6639 36.3969C40.6686 36.3824 40.6746 36.3679 40.6795 36.3529C40.8307 35.8861 40.9943 35.2231 41.158 34.3734C41.4847 32.678 41.8014 30.3017 42.0349 27.3988L42.0535 27.2318C42.1642 26.3964 42.6009 25.6119 43.364 25.3959ZM3.78983 48.6234C3.61292 48.7276 3.42083 48.8692 3.22245 49.0492C2.83369 49.402 2.46773 49.8639 2.19706 50.3686C1.63686 51.4132 1.58425 52.4091 2.14725 53.0922C2.30623 53.285 2.54989 53.3926 2.99002 53.3471C3.45108 53.2994 4.02899 53.0854 4.65897 52.7397C5.50898 52.2731 6.3403 51.6268 6.95291 51.0561C6.59441 50.9047 6.25131 50.7392 5.9285 50.5522L5.51737 50.2973C4.82451 49.8363 4.24242 49.2788 3.78983 48.6234ZM43.6931 26.9428C43.625 27.0527 43.5533 27.2415 43.531 27.5189H43.5301C43.2936 30.459 42.9707 32.893 42.6306 34.6576C42.4611 35.5377 42.2848 36.2674 42.1072 36.8158C42.0187 37.089 41.924 37.3338 41.823 37.5365C41.7333 37.7166 41.5956 37.9531 41.3826 38.1166L41.3816 38.1176C41.1578 38.2887 40.8783 38.3463 40.6101 38.2777C40.3925 38.222 40.2408 38.0972 40.1668 38.0307C40.0853 37.9574 40.016 37.8774 39.9764 37.8314C39.9243 37.7711 39.908 37.7515 39.8933 37.7367L39.8924 37.7357C38.7804 36.6156 36.875 35.4057 35.2019 34.9975L35.1892 34.9945L35.1775 34.9906C34.8545 34.9 34.3593 34.8623 33.7156 34.8822C33.0851 34.9018 32.3667 34.9749 31.6258 35.0736C30.8865 35.1721 30.1369 35.2948 29.4441 35.4115C29.1015 35.4693 28.7696 35.5261 28.4607 35.5775L27.614 35.7113C26.5547 35.8639 25.4786 36.0207 24.5535 36.0229H22.9334C22.9554 36.4356 22.9656 36.907 22.9656 37.4467C22.9656 37.8609 22.6298 38.1967 22.2156 38.1967C21.8016 38.1965 21.4656 37.8608 21.4656 37.4467C21.4656 36.4354 21.4299 35.7406 21.3582 35.2504C21.2861 34.7581 21.1867 34.5376 21.1082 34.4252C21.041 34.3291 20.9487 34.2532 20.7205 34.1459C20.5987 34.0886 20.4649 34.0331 20.283 33.9574C20.1081 33.8846 19.9047 33.7992 19.6814 33.6908C19.5042 33.6047 19.3171 33.5449 19.1297 33.5141L18.9422 33.4926C18.2526 33.4518 18.1334 33.4097 17.8318 33.5023C17.4865 33.6084 16.9535 33.8966 15.7293 34.7191L15.7283 34.7201C15.442 34.9116 15.1009 35.0189 14.7488 35.0189H10.8816C10.3972 35.0189 9.98618 34.8123 9.68729 34.5736L9.58084 34.4945L9.37967 34.3666C8.89542 34.0773 8.31066 33.8485 7.75077 33.7631C7.1035 33.6644 6.60338 33.7706 6.28104 34.0414C6.24365 34.0731 6.18863 34.1262 6.10916 34.2123L6.03006 34.3061C5.8519 34.534 5.71814 34.8234 5.63065 35.1518C5.07766 37.2294 4.68978 39.6125 4.55741 40.6234L4.55448 40.6508L4.54862 40.6772C4.22353 42.2513 4.22049 43.3421 4.22049 44.9535C4.22049 46.8703 5.01629 48.1619 6.34842 49.0482C8.09996 50.2132 10.8281 50.7074 14.0476 50.7074C14.9343 50.7074 15.5133 50.671 16.2654 50.5893C16.3472 50.3953 16.4482 50.2121 16.5642 50.0414C17.2086 49.0944 18.3383 48.4555 19.3592 48.2162C19.7623 48.122 20.166 48.3727 20.2605 48.7758C20.355 49.179 20.1042 49.5826 19.701 49.6772C18.9558 49.8519 18.1904 50.318 17.8045 50.8852C17.6204 51.1558 17.5354 51.4286 17.5476 51.7016C17.5598 51.973 17.671 52.3194 18.0115 52.7328C18.404 53.2091 18.9829 53.3956 19.743 53.3168C20.5186 53.2364 21.3979 52.8801 22.1902 52.3793V52.3783C23.5714 51.5058 25.3829 50.6389 27.2537 50.9525C28.0932 51.0933 28.9382 51.2325 29.5789 51.3373C29.899 51.3897 30.1684 51.4331 30.3601 51.4643C30.456 51.4798 30.5328 51.4917 30.5867 51.5004C30.6137 51.5048 30.635 51.5087 30.6502 51.5111C30.6555 51.512 30.6601 51.5125 30.6639 51.5131C30.6729 51.5144 30.6823 51.5162 30.6922 51.518L31.1814 51.5971C31.176 51.2619 31.232 50.9099 31.367 50.5473L31.4295 50.3959C31.7657 49.6541 32.4517 49.16 33.1824 48.977C33.7942 48.8235 34.3693 48.8177 34.8611 48.7895C35.126 48.7742 35.3964 48.7512 35.6902 48.7035C35.2179 48.3655 34.6825 47.9325 34.2234 47.4096C33.4189 46.4932 32.766 45.2054 33.1853 43.6293C33.2918 43.2292 33.7022 42.9909 34.1023 43.0971C34.5026 43.2036 34.7411 43.6148 34.6346 44.015C34.3921 44.9266 34.7295 45.7131 35.3504 46.4203C35.9814 47.1391 36.8208 47.6733 37.3689 48.0199C37.5097 48.1086 37.6812 48.2451 37.7957 48.4506C37.9271 48.6866 37.9603 48.9767 37.8474 49.2523C37.7494 49.4917 37.574 49.6418 37.4441 49.7279C37.3756 49.7734 37.3034 49.8116 37.2312 49.8441L37.0164 49.9262C36.1788 50.1915 35.5156 50.2548 34.948 50.2875C34.3668 50.3209 33.9836 50.3226 33.5476 50.432H33.5467C33.1683 50.5269 32.8818 50.779 32.7732 51.0707C32.55 51.6703 32.7471 52.2202 33.2576 52.6586C33.7903 53.116 34.5863 53.3632 35.2898 53.2631L35.867 53.1703C37.2111 52.9278 38.5274 52.5171 39.6697 52.0277C40.9873 51.4632 42.0181 50.8169 42.5965 50.2455L42.6101 50.2318C42.9609 49.9026 43.1416 49.2363 43.0271 48.1557C42.917 47.117 42.5546 45.9059 42.1111 44.7563C41.341 42.7607 41.7981 40.4949 42.5994 38.7143C43.3344 37.0825 43.8016 34.9965 43.9949 32.8969C44.1882 30.7978 44.1021 28.7412 43.7674 27.1772C43.7452 27.0734 43.7167 26.9979 43.6931 26.9428Z" fill="#1A1A1A"/>
<path d="M42.6855 21.6171C43.3649 21.5538 44.0154 21.8036 44.4765 22.2597C44.9148 22.2109 45.3693 22.2906 45.7802 22.5097L45.9784 22.6279C46.6864 23.1027 47.0372 23.9099 46.9648 24.7031C47.3345 24.9962 47.6145 25.4041 47.7421 25.8857L47.7899 26.1113C47.9171 26.9167 47.5993 27.6872 47.0204 28.1787C47.0318 28.6546 46.8949 29.1376 46.5937 29.5527C46.096 30.2385 45.2843 30.5597 44.4989 30.4638C44.0367 30.9516 43.3677 31.2257 42.664 31.1611L42.4364 31.1279C41.8834 31.0204 41.4187 30.7173 41.0966 30.3056C40.4567 30.2964 39.8302 30.0167 39.3993 29.499L39.2607 29.3154C38.9624 28.8734 38.8431 28.3631 38.8847 27.8701C38.3765 27.339 38.1371 26.5707 38.3163 25.8017L38.3798 25.581C38.515 25.1873 38.7529 24.8525 39.0546 24.5976C39.0379 23.8289 39.4139 23.0711 40.1142 22.6357L40.3153 22.5244C40.6204 22.3752 40.9462 22.3042 41.2694 22.2998C41.5784 21.9773 41.9857 21.7432 42.4569 21.6503L42.6855 21.6171Z" fill="#1A1A1A"/>
<path d="M7.82826 31.7433C8.58412 31.9064 9.06546 32.6504 8.90248 33.4064L8.88978 33.463C9.48773 33.251 10.1753 33.4667 10.5343 34.0226C10.9543 34.6725 10.7682 35.5391 10.1183 35.9591C10.0063 36.0321 9.89062 36.1039 9.77162 36.1769C10.4775 36.3968 10.8949 37.1336 10.7111 37.8575C10.5641 38.4375 10.0748 38.8404 9.51381 38.9054C9.76767 39.2343 9.87272 39.6717 9.76283 40.1046C9.57283 40.8546 8.81068 41.3083 8.06068 41.1183C8.02191 41.1073 7.98227 41.097 7.94349 41.087C8.09138 41.672 7.84585 42.309 7.30092 42.6329C6.63593 43.0288 5.77695 42.8106 5.38197 42.1456C5.33803 42.0727 5.29599 41.9997 5.25404 41.9278C5.22312 41.9727 5.19219 42.0187 5.16127 42.0646C4.72627 42.7036 3.85396 42.8687 3.21596 42.4327C2.66309 42.0557 2.46526 41.3529 2.70424 40.7569L2.66127 40.7648C1.90127 40.9088 1.16953 40.4085 1.02553 39.6485C0.910696 39.0388 1.20905 38.4472 1.72474 38.1632L1.72279 38.1612C1.10093 37.7023 0.969139 36.8262 1.42787 36.2032C1.66779 35.8783 2.02182 35.6867 2.39369 35.6437C2.02098 35.1607 1.99631 34.472 2.37611 33.9562C2.74911 33.4512 3.3961 33.269 3.9601 33.464C3.95311 33.4181 3.9456 33.3722 3.93861 33.3273C3.82261 32.5623 4.35039 31.8485 5.11439 31.7335C5.63124 31.6547 6.12498 31.8711 6.42592 32.255C6.74592 31.843 7.28426 31.6263 7.82826 31.7433ZM18.9308 31.7433C19.4748 31.6263 20.0132 31.843 20.3322 32.255C20.6341 31.8711 21.1268 31.6547 21.6437 31.7335C22.4087 31.8485 22.9354 32.5623 22.8204 33.3273C22.8135 33.3722 22.806 33.4181 22.798 33.464C23.362 33.269 24.0099 33.4512 24.3829 33.9562C24.7628 34.472 24.7371 35.1607 24.3644 35.6437C24.7373 35.6867 25.0913 35.8783 25.3312 36.2032C25.7899 36.8262 25.6582 37.7023 25.0353 38.1612L25.0333 38.1632C25.549 38.4472 25.8484 39.0388 25.7326 39.6485C25.5896 40.4085 24.8568 40.9088 24.0968 40.7648L24.0548 40.7569C24.2928 41.3529 24.096 42.0557 23.5431 42.4327C22.9041 42.8687 22.0328 42.7036 21.5968 42.0646C21.5659 42.0187 21.5349 41.9727 21.505 41.9278C21.4631 41.9998 21.42 42.0727 21.3771 42.1456C20.9811 42.8106 20.1221 43.0288 19.4572 42.6329C18.9122 42.309 18.6667 41.672 18.8146 41.087C18.7758 41.097 18.7372 41.1073 18.6974 41.1183C17.9484 41.3083 17.1863 40.8546 16.9953 40.1046C16.8854 39.6718 16.9914 39.2343 17.2443 38.9054C16.6833 38.8404 16.194 38.4375 16.047 37.8575C15.8632 37.1336 16.2816 36.3968 16.9865 36.1769C16.8685 36.1039 16.7518 36.0321 16.6398 35.9591C15.9908 35.5391 15.8048 34.6725 16.2238 34.0226C16.5838 33.4667 17.2714 33.251 17.8683 33.463L17.8556 33.4064C17.6936 32.6504 18.175 31.9064 18.9308 31.7433ZM42.7472 23.1222C43.1532 23.0423 43.5481 23.306 43.6281 23.713C43.6801 23.976 43.7268 24.2569 43.7658 24.5528C43.8867 24.391 43.9978 24.2321 44.1007 24.0782C44.3317 23.7343 44.7977 23.6432 45.1417 23.8732C45.4857 24.1042 45.5778 24.5702 45.3468 24.9142C45.1519 25.2051 44.9308 25.5104 44.6788 25.8243C44.9288 25.7993 45.1863 25.7648 45.4503 25.7228C45.8592 25.659 46.2427 25.938 46.3078 26.3468C46.3728 26.7558 46.0937 27.1402 45.6847 27.2052C45.3848 27.2532 45.0916 27.2895 44.8078 27.3185C44.9388 27.4205 45.074 27.5231 45.214 27.6241C45.5489 27.8681 45.624 28.337 45.38 28.672C45.137 29.0069 44.6681 29.0809 44.3331 28.838C44.1192 28.683 43.9158 28.5272 43.7208 28.3712C43.6879 28.597 43.6476 28.8278 43.6027 29.0626C43.5227 29.4696 43.1298 29.7354 42.7228 29.6564C42.3159 29.5773 42.051 29.1824 42.13 28.7765C42.169 28.5766 42.2026 28.3804 42.2316 28.1896C42.0136 28.3535 41.786 28.5179 41.546 28.6788C41.202 28.9108 40.736 28.8197 40.505 28.4767C40.2731 28.1327 40.3642 27.6666 40.7072 27.4357C40.8271 27.3547 40.9438 27.2725 41.0578 27.1915C40.8049 27.1465 40.5649 27.097 40.337 27.0441C39.934 26.9501 39.6835 26.5457 39.7775 26.1427C39.8716 25.7399 40.275 25.4892 40.6779 25.5831C40.8319 25.6191 40.9943 25.6537 41.1613 25.6857C40.9783 25.4297 40.8132 25.1815 40.6652 24.9425C40.4464 24.5905 40.5545 24.1282 40.9064 23.9103C41.2582 23.6914 41.7195 23.7989 41.9386 24.1505C42.0385 24.3114 42.1469 24.4777 42.2648 24.6476C42.2328 24.4218 42.1963 24.2069 42.1564 24.003C42.0764 23.596 42.3412 23.2022 42.7472 23.1222Z" fill="#B3EE71"/>
<path d="M2.16974 37.5591C2.37574 37.7111 2.49045 37.9574 2.47345 38.2124C2.45635 38.4673 2.31064 38.6959 2.08674 38.8199L1.72541 38.1636L2.16974 37.5591Z" fill="#1A1A1A"/>
<path fill-rule="evenodd" clip-rule="evenodd" d="M6.42365 31.272C6.87549 30.9995 7.42788 30.8903 7.98517 31.0103C8.835 31.1926 9.45608 31.8549 9.63166 32.6519C10.2374 32.7297 10.8062 33.0626 11.1639 33.6158C11.6857 34.4231 11.5972 35.4477 11.0164 36.1509C11.4341 36.6611 11.6132 37.3557 11.4383 38.0435C11.2981 38.5957 10.9553 39.0421 10.5106 39.3257C10.5748 39.6351 10.5729 39.9639 10.4901 40.2906C10.2669 41.1696 9.53119 41.781 8.68342 41.8911C8.56053 42.4509 8.21723 42.961 7.68537 43.2779C6.87377 43.7604 5.87433 43.6463 5.19318 43.0669C4.486 43.536 3.53702 43.5608 2.79279 43.0533C2.2404 42.6758 1.92025 42.0868 1.86408 41.4693C1.08344 41.2672 0.448126 40.6347 0.287907 39.7896C0.17087 39.1694 0.333549 38.5618 0.685368 38.0953C0.27973 37.3796 0.304202 36.4634 0.82404 35.7583C0.985608 35.5394 1.18188 35.3612 1.39826 35.2232C1.27887 34.6464 1.39478 34.0232 1.77228 33.5113C2.13431 33.021 2.66471 32.7298 3.22443 32.6568C3.41026 31.8126 4.09621 31.1284 5.00177 30.9917C5.5144 30.9144 6.0115 31.0261 6.42365 31.272ZM7.01935 32.7144C6.87744 32.8972 6.65934 33.0043 6.42853 33.0054C6.22648 33.0054 6.03405 32.9247 5.89338 32.7828L5.77912 32.6548C5.63743 32.5158 5.43546 32.4437 5.22638 32.4751C4.87138 32.5291 4.62749 32.8604 4.68049 33.2154L4.70099 33.3462L4.70978 33.4439C4.71564 33.6706 4.61888 33.8909 4.4422 34.0396C4.24022 34.2085 3.9636 34.2594 3.71467 34.1734C3.45282 34.0826 3.15228 34.1682 2.97931 34.4019C2.80431 34.6399 2.81413 34.9611 2.98713 35.1851L2.39338 35.6431L2.39435 35.6441L2.98713 35.1851C3.15312 35.3991 3.18978 35.6861 3.08478 35.9351C2.97979 36.184 2.74917 36.3581 2.48029 36.3892C2.30632 36.4092 2.14307 36.497 2.03107 36.649C1.81811 36.9379 1.87894 37.3451 2.16779 37.5581L2.16974 37.5591L1.72443 38.1626L2.08674 38.8199C1.84683 38.9519 1.70953 39.2284 1.76252 39.5103C1.82958 39.8629 2.16864 40.0944 2.52131 40.0279L2.56427 40.0201L2.66486 40.0083C2.90009 39.9961 3.12986 40.0953 3.28302 40.2798C3.45693 40.4917 3.50199 40.7808 3.40021 41.0357L3.36799 41.1411C3.31471 41.3911 3.41436 41.6607 3.63849 41.813C3.93542 42.0158 4.33883 41.9389 4.54181 41.6421C4.57175 41.5982 4.60075 41.5542 4.63068 41.5103L4.68927 41.4341C4.83619 41.266 5.05233 41.1713 5.27912 41.1783C5.50486 41.1861 5.71365 41.295 5.84943 41.4722L5.90314 41.5523L6.02619 41.7632C6.21021 42.0711 6.60884 42.1717 6.91779 41.9888C7.16979 41.8388 7.28464 41.543 7.21564 41.271C7.15074 41.0142 7.22602 40.7422 7.41486 40.5552C7.60275 40.3683 7.8748 40.2951 8.13166 40.3609C8.16961 40.3709 8.20797 40.3812 8.24592 40.3911C8.59382 40.4791 8.94783 40.2692 9.03595 39.9214C9.08695 39.7204 9.03874 39.5168 8.91974 39.3628C8.75496 39.1489 8.71809 38.8617 8.82404 38.6128C8.92908 38.3639 9.16061 38.1907 9.42853 38.1597C9.69026 38.1295 9.91618 37.9421 9.9842 37.6744C10.0702 37.3374 9.87565 36.9951 9.54865 36.8931C9.26786 36.806 9.06412 36.5619 9.02814 36.2701C8.9922 35.9783 9.12904 35.6927 9.3797 35.5386C9.4927 35.4686 9.60377 35.3986 9.71076 35.3286C10.0127 35.1337 10.099 34.7322 9.90412 34.4302C9.73816 34.1733 9.41938 34.0716 9.14142 34.1704L9.04377 34.1978C8.81481 34.2457 8.57377 34.1834 8.39533 34.0269C8.19036 33.8469 8.0991 33.5712 8.15705 33.3052L8.16877 33.2486C8.24446 32.8977 8.02058 32.5521 7.66974 32.4771C7.41885 32.4232 7.16829 32.5215 7.01935 32.7144Z" fill="#1A1A1A"/>
<path d="M20.9227 32.7183C20.7797 32.9001 20.5608 33.0054 20.3299 33.0054C20.099 33.0044 19.881 32.8972 19.7401 32.7144L20.3319 32.2544L20.9227 32.7183Z" fill="#1A1A1A"/>
<path fill-rule="evenodd" clip-rule="evenodd" d="M18.7733 31.0103C19.3306 30.8905 19.8825 30.9991 20.3338 31.271C20.7459 31.0251 21.2432 30.9145 21.7557 30.9917C22.6612 31.1283 23.3461 31.8127 23.532 32.6568C24.0924 32.7295 24.6238 33.0205 24.9861 33.5113C25.3636 34.0233 25.4784 34.6464 25.3592 35.2232C25.5759 35.3613 25.773 35.5391 25.9344 35.7583C26.4542 36.4635 26.4776 37.3795 26.0721 38.0953C26.4245 38.5619 26.5883 39.1691 26.4705 39.7896C26.311 40.6352 25.6749 41.2676 24.8934 41.4693C24.8374 42.0868 24.5177 42.6759 23.9647 43.0533C23.2201 43.5608 22.2712 43.5366 21.5643 43.0669C20.8832 43.646 19.8847 43.7603 19.074 43.2779C18.542 42.961 18.1972 42.4511 18.074 41.8911C17.2269 41.7804 16.4922 41.169 16.2684 40.2906C16.1854 39.9636 16.1825 39.6344 16.2469 39.3247C15.8029 39.0411 15.4608 38.5952 15.3201 38.0435C15.1453 37.3558 15.3236 36.661 15.741 36.1509C15.1612 35.4477 15.0727 34.4229 15.5936 33.6158C15.9515 33.063 16.5205 32.7301 17.1258 32.6519C17.3009 31.8547 17.9233 31.1926 18.7733 31.0103ZM19.7401 32.7144C19.5901 32.5214 19.3397 32.4231 19.0877 32.4771C18.7371 32.5522 18.5141 32.8979 18.5887 33.2486L18.6014 33.3052L18.616 33.4048C18.6348 33.6384 18.5426 33.8693 18.3641 34.0269C18.1848 34.1835 17.9441 34.2457 17.7147 34.1978L17.617 34.1704L17.5115 34.1421C17.2627 34.0989 17.0004 34.2054 16.8543 34.4302C16.6594 34.7321 16.7461 35.1335 17.0467 35.3286C17.1547 35.3986 17.2647 35.4686 17.3787 35.5386C17.6287 35.6926 17.7672 35.9781 17.7303 36.2701C17.6943 36.5621 17.4898 36.8061 17.2088 36.8931C16.8829 36.9952 16.6893 37.3374 16.7742 37.6744C16.8423 37.9421 17.0681 38.1296 17.3299 38.1597C17.5989 38.1907 17.8303 38.3639 17.9354 38.6128C18.0404 38.8618 18.0027 39.1488 17.8377 39.3628C17.7187 39.5168 17.6715 39.7204 17.7225 39.9214C17.8116 40.2692 18.1656 40.4791 18.5135 40.3911C18.5513 40.3812 18.589 40.3708 18.6258 40.3609C18.8827 40.2949 19.1556 40.3684 19.3436 40.5552C19.5316 40.7422 19.6068 41.014 19.5418 41.271C19.4739 41.5429 19.589 41.8387 19.8406 41.9888C20.1486 42.1718 20.5482 42.0712 20.7322 41.7632C20.7742 41.6922 20.8153 41.6223 20.8553 41.5523L20.909 41.4722C21.0448 41.2951 21.2537 41.1861 21.4803 41.1783C21.706 41.1713 21.9213 41.2663 22.0682 41.4341L22.1268 41.5103L22.2166 41.6421C22.4186 41.9391 22.8239 42.016 23.1199 41.813C23.3441 41.6607 23.4437 41.3911 23.3904 41.1411L23.3582 41.0357L23.327 40.939C23.2703 40.71 23.3242 40.4653 23.4764 40.2798C23.6287 40.0953 23.8591 39.996 24.0945 40.0083L24.1951 40.0201L24.2371 40.0279C24.5901 40.0948 24.9298 39.8632 24.9959 39.5103C25.0499 39.2283 24.9117 38.9519 24.6717 38.8199L25.033 38.1626L24.5877 37.5591L24.5897 37.5581C24.8786 37.3452 24.9403 36.938 24.7274 36.649C24.6164 36.497 24.4531 36.4092 24.2781 36.3892C24.0101 36.3582 23.7777 36.1841 23.6727 35.9351C23.5678 35.6861 23.6053 35.399 23.7713 35.1851C23.9442 34.9611 23.9551 34.6398 23.7791 34.4019C23.6071 34.168 23.3057 34.0824 23.0438 34.1734C22.795 34.2592 22.5191 34.2083 22.3172 34.0396C22.1152 33.8696 22.0164 33.6062 22.0584 33.3462C22.0654 33.3023 22.071 33.2583 22.0779 33.2154C22.1319 32.8604 21.887 32.5291 21.532 32.4751C21.293 32.4391 21.0637 32.5383 20.9227 32.7183L20.3319 32.2544L19.7401 32.7144ZM25.033 38.1626L24.6717 38.8199C24.448 38.6959 24.3021 38.4672 24.285 38.2124C24.268 37.9575 24.3818 37.7111 24.5877 37.5591L25.033 38.1626Z" fill="#1A1A1A"/>
</svg>
