<svg width="48" height="55" viewBox="0 0 48 55" fill="none" xmlns="http://www.w3.org/2000/svg">
<path d="M4.96878 40.673L1.57682 42.725L1 39.148L5.4714 33.727H16.6507L19.1649 33L22.0154 34.565L23.9546 35.059H25.5086L32.916 34.282L37.6816 35.059L40.323 36.15L41.5 36.5L44 22.5L45.5 21L47 32.5L44.622 43.926V49.446L43.5869 51.065L42.0329 52.308L38.259 54.069H34.5542L33.6878 53.213L33.1051 51.875L30.3335 51.738L25.5086 52.308L19.9659 54.069H18.9911L17.2924 51.792L8.51809 51.065L4.5954 54.031L2.02354 53.277L2.45501 50.799L4.5954 47.873L4.26299 43.266L4.96878 40.673Z" fill="#DC3412"/>
<path d="M15.6225 47.0289C14.7698 46.9619 13.7034 47.0219 12.8628 47.1029C12.3667 47.1519 12.0013 47.6049 12.2975 48.0049C12.7545 48.6239 13.6455 49.1179 14.3047 49.3939C14.5148 49.4829 14.7538 49.4869 14.9521 49.3749C15.4632 49.0859 15.8747 48.5829 16.1677 48.1039C16.4566 47.6319 16.1742 47.0709 15.6225 47.0289Z" fill="#1A1A1A"/>
<path d="M44.7979 20.2922C45.7995 20.1399 46.4859 20.9609 46.7139 21.9241C47.271 24.2775 47.6515 27.3764 47.7012 30.4534C47.7507 33.5192 47.4726 36.6356 46.669 38.9934C46.2936 40.0945 45.9147 41.3514 45.6992 42.6008C45.4824 43.8581 45.4416 45.0523 45.6973 46.0491C45.9416 47.0016 46.0982 47.9994 46.0469 48.9094C45.9957 49.8157 45.7314 50.7282 45.0381 51.3791L45.0371 51.3782C44.2708 52.13 43.0568 52.8615 41.6611 53.4592C40.2445 54.0659 38.5848 54.5595 36.9024 54.8C35.7517 54.9645 34.5262 54.5753 33.6807 53.8489C33.4777 53.6744 33.2937 53.4754 33.1357 53.2571C33.1205 53.2555 33.1052 53.2547 33.0899 53.2522L33.0977 53.2034H33.0967L33.0899 53.2522L31.9024 53.0588H31.8906L31.8242 53.0471C31.8213 53.0467 31.799 53.0429 31.7471 53.0344C31.6933 53.0256 31.6166 53.013 31.5205 52.9973C31.3286 52.966 31.059 52.9219 30.7383 52.8694C30.0966 52.7643 29.2488 52.6249 28.4063 52.4836C27.2782 52.2954 26.068 52.7257 24.8936 53.3977L24.3926 53.6995C23.4749 54.2794 22.3746 54.749 21.2988 54.8606C20.2072 54.9738 19.0616 54.718 18.2549 53.7395C17.8385 53.2344 17.5845 52.705 17.4902 52.1682C16.839 52.2307 16.259 52.26 15.4483 52.26C13.4876 52.26 11.5978 52.0833 9.93946 51.6448C9.21416 52.4349 8.01226 53.4321 6.78126 54.1077C6.07155 54.4971 5.29058 54.8149 4.54493 54.8918C3.82643 54.9659 3.06797 54.817 2.50196 54.2229L2.39161 54.0979C1.26144 52.727 1.59008 50.99 2.2754 49.7121C2.62743 49.0558 3.10029 48.4588 3.61524 47.9914C3.89004 47.7421 4.19158 47.5177 4.50684 47.3411C4.25758 46.6452 4.12209 45.8686 4.12208 45.0061C4.12208 44.2546 4.1224 43.5876 4.15821 42.9143C4.11265 42.9462 4.06724 42.9783 4.02052 43.008C3.59373 43.2796 3.07182 43.4856 2.49122 43.4612C1.89338 43.4359 1.33175 43.1697 0.838876 42.677C0.467515 42.3055 0.307665 41.8199 0.263681 41.3459C0.219805 40.873 0.284607 40.3597 0.413095 39.8489C0.670404 38.826 1.21613 37.6841 1.91407 36.637C2.61287 35.5886 3.49471 34.5903 4.45802 33.8772C5.40781 33.1741 6.5347 32.6788 7.68458 32.8371L7.91114 32.8743C8.43685 32.974 8.93942 33.1573 9.35059 33.2932C9.85576 33.4601 10.2625 33.5725 10.6563 33.5725H14.9785C15.7482 33.5725 16.5232 33.2662 17.3789 32.8577C18.014 32.5532 18.8188 32.2864 19.666 32.2864C20.0427 32.2864 20.4581 32.4281 20.832 32.594C21.229 32.7701 21.6722 33.0159 22.1309 33.3078C22.6873 33.662 23.2844 34.0957 23.876 34.5764H25.9512C26.7478 34.5746 27.7083 34.4369 28.7998 34.2786H28.8008C29.2794 34.2095 29.8935 34.1029 30.5957 33.9846C31.2912 33.8675 32.0617 33.7409 32.8281 33.6389C33.5929 33.5371 34.367 33.4574 35.0693 33.4358C35.7477 33.4149 36.416 33.4458 36.958 33.593C38.6342 34.0011 40.0527 34.714 41.1992 35.6995C41.2627 35.4194 41.3327 35.0872 41.4033 34.7082C41.5826 33.7466 41.7779 32.5148 41.9805 31.1379C42.3861 28.3813 42.8163 25.0885 43.208 22.2717C43.3422 21.3073 43.8918 20.4303 44.7979 20.2922ZM5.19044 48.676C5.0135 48.7803 4.82135 48.9219 4.62306 49.1018C4.23419 49.4547 3.86832 49.9165 3.59766 50.4211C3.03757 51.4655 2.98575 52.4607 3.54884 53.1438L3.61231 53.2121C3.77149 53.3617 4.00633 53.4394 4.39161 53.3996C4.85249 53.352 5.42981 53.1378 6.05958 52.7922C6.90937 52.3259 7.74095 51.6803 8.35352 51.1096C7.83907 50.8924 7.35773 50.6428 6.91895 50.3508C6.22578 49.8894 5.64295 49.3315 5.19044 48.676ZM34.5859 43.6809C34.6925 43.2807 35.1037 43.0432 35.5039 43.1496C35.904 43.2562 36.1424 43.6665 36.0361 44.0666L34.5859 43.6809ZM5.62208 45.0061C5.62211 46.923 6.41704 48.2145 7.75001 49.1018C9.50045 50.2664 12.2292 50.76 15.4483 50.76C16.3349 50.76 16.9138 50.7226 17.666 50.6409C17.7478 50.4473 17.8489 50.2644 17.9649 50.094C18.6091 49.1471 19.7384 48.5086 20.7588 48.2688C21.162 48.174 21.5653 48.4242 21.6602 48.8274C21.7549 49.2304 21.5055 49.6338 21.1025 49.7287C20.3574 49.9039 19.5911 50.3704 19.2051 50.9377C19.0209 51.2084 18.9361 51.4813 18.9483 51.7541C18.9604 52.0254 19.0714 52.3721 19.4121 52.7854C19.8048 53.2617 20.3838 53.4471 21.1436 53.3684C21.9192 53.288 22.7992 52.9318 23.5918 52.4309L24.1289 52.1067C25.3335 51.4142 26.7918 50.8212 28.3047 50.9592L28.6543 51.0041C30.1344 51.2522 31.6577 51.5001 32.0156 51.5588H32.0234L32.083 51.5686L32.583 51.6496C32.5776 51.3143 32.6325 50.9617 32.7676 50.5989C33.0753 49.773 33.8047 49.2247 34.584 49.0295L34.8115 48.9787C35.3377 48.8748 35.8314 48.8668 36.2617 48.842C36.5269 48.8268 36.7976 48.8038 37.0918 48.7561C36.6193 48.4182 36.0832 47.9861 35.624 47.4631C34.8193 46.5465 34.1664 45.2575 34.5859 43.6809L35.3106 43.8743L36.0361 44.0666C35.7934 44.9789 36.1304 45.7658 36.751 46.4729C37.3825 47.1922 38.2235 47.7267 38.7715 48.0725C38.9123 48.1613 39.083 48.2981 39.1973 48.5041C39.3284 48.7405 39.3608 49.0299 39.2481 49.3049C39.1501 49.5439 38.9743 49.6933 38.8447 49.7795C38.7079 49.8705 38.5581 49.9341 38.418 49.9787H38.417C37.5796 50.2435 36.9162 50.3074 36.3486 50.3401C35.7674 50.3735 35.3842 50.3756 34.9482 50.4846C34.5698 50.5794 34.2826 50.8313 34.1738 51.1233C33.9508 51.7228 34.1481 52.2728 34.6582 52.7112C35.1908 53.1687 35.9871 53.4162 36.6904 53.3157C38.2326 53.0952 39.765 52.6393 41.0703 52.0803C42.3882 51.5159 43.4189 50.8695 43.9971 50.2981L44.0039 50.2922L44.0107 50.2854C44.3155 49.9993 44.5093 49.5263 44.5488 48.8254C44.5882 48.1285 44.4686 47.2963 44.2441 46.4211C43.9138 45.1331 43.987 43.7012 44.2207 42.3459C44.4558 40.9828 44.8635 39.6398 45.249 38.509L45.3799 38.1028C46.0056 36.0245 46.2465 33.2852 46.2012 30.4778C46.153 27.4942 45.7829 24.5043 45.2539 22.2698C45.1838 21.9734 45.0821 21.8409 45.0322 21.7952C45.0243 21.7879 45.0173 21.7838 45.0127 21.7805C44.9938 21.7903 44.9559 21.8162 44.9072 21.8801C44.8278 21.9847 44.7355 22.176 44.6934 22.4787C44.3045 25.2749 43.8714 28.5942 43.4649 31.3567C43.2614 32.7392 43.0625 33.9936 42.8779 34.9836C42.7858 35.4782 42.6955 35.9141 42.6084 36.2707C42.5248 36.6131 42.4333 36.9297 42.3281 37.1565C42.2449 37.3358 42.0774 37.5532 41.7842 37.6448C41.5134 37.7292 41.2799 37.6591 41.1543 37.6057C40.9233 37.5074 40.7433 37.3284 40.668 37.2522L40.667 37.2512C39.6547 36.2244 38.3114 35.4668 36.6035 35.051L36.5908 35.0481L36.5791 35.0442C36.2557 34.9535 35.76 34.915 35.1162 34.9348C34.4856 34.9542 33.7673 35.0276 33.0264 35.1262C32.287 35.2246 31.5374 35.3464 30.8447 35.4631C30.1594 35.5786 29.5172 35.6905 29.0156 35.7629C27.9561 35.9166 26.8802 36.0742 25.9551 36.0764H25.5283C26.2487 36.8099 26.8963 37.5966 27.334 38.3664C27.8484 39.2711 28.2115 40.4017 27.6494 41.3752C27.2629 42.0446 26.5876 42.5328 25.8525 42.8362C25.1083 43.1433 24.2373 43.2894 23.3721 43.2219C21.6662 43.0888 19.9338 42.107 19.3252 39.8889L19.2695 39.6702L19.2559 39.594C19.2078 39.2171 19.452 38.8577 19.8301 38.7698C20.2082 38.6818 20.5858 38.8966 20.709 39.2561L20.7305 39.3303L20.8106 39.6243C21.2536 41.0392 22.3387 41.6371 23.4893 41.7268C24.1182 41.7758 24.7529 41.6671 25.2803 41.4495C25.8167 41.228 26.1794 40.9217 26.3506 40.6252C26.4857 40.3913 26.4936 39.9225 26.0303 39.1077C25.5934 38.3393 24.852 37.4779 23.9815 36.6584C23.1168 35.8445 22.1599 35.1048 21.3252 34.5735C20.9074 34.3075 20.5319 34.1019 20.2236 33.9651C19.8929 33.8184 19.7161 33.7864 19.666 33.7864C19.1206 33.7864 18.5439 33.9626 18.0274 34.2102L18.0264 34.2112C17.1611 34.6243 16.1166 35.0725 14.9785 35.0725H10.6563C9.99851 35.0725 9.38861 34.8851 8.87989 34.717C8.33611 34.5374 7.91428 34.3826 7.4795 34.3225V34.3235C6.88627 34.2418 6.15498 34.4869 5.35059 35.0823C4.55968 35.6677 3.79075 36.5259 3.16212 37.469C2.53257 38.4135 2.07346 39.399 1.86817 40.2151C1.76545 40.6235 1.73369 40.9576 1.75684 41.2073C1.7799 41.4558 1.85067 41.5676 1.89942 41.6164L1.99903 41.7092C2.22504 41.9039 2.41068 41.956 2.55372 41.9621C2.73428 41.9698 2.95474 41.9079 3.21485 41.7424C3.75342 41.3997 4.25622 40.7446 4.55177 40.2112H4.55274C4.64314 40.0485 4.80088 39.9065 5.01368 39.8489C5.21596 39.7941 5.40182 39.8325 5.53614 39.8967C5.7651 40.0064 5.99375 40.2806 5.95899 40.6428L5.96192 40.6438C5.95885 40.6786 5.95339 40.7106 5.95313 40.7121C5.95132 40.7231 5.94915 40.735 5.94727 40.7453C5.94346 40.7665 5.93794 40.7926 5.93263 40.8205C5.92664 40.852 5.91947 40.8881 5.91212 40.926C5.62584 42.3976 5.62208 43.4618 5.62208 45.0061Z" fill="#1A1A1A"/>
<path d="M19.6796 44.5117C19.9396 44.1975 20.3959 44.1609 20.6988 44.4307C21.0015 44.7004 21.0358 45.1739 20.7759 45.4881C19.9845 46.4446 19.0694 46.7239 18.2247 46.5562C17.4478 46.402 16.8393 45.8924 16.5062 45.4842C16.2484 45.1681 16.2863 44.6953 16.5909 44.4277C16.8956 44.1602 17.3513 44.1995 17.6092 44.5156C17.8005 44.7501 18.1383 45.0118 18.4957 45.0829C18.7854 45.1404 19.1937 45.0989 19.6796 44.5117Z" fill="#1A1A1A"/>
<path d="M9.60635 44.5117C9.34634 44.1975 8.89002 44.1609 8.58717 44.4307C8.28442 44.7004 8.25012 45.1739 8.51 45.4881C9.30144 46.4446 10.2165 46.7239 11.0613 46.5562C11.8382 46.402 12.4467 45.8924 12.7797 45.4842C13.0375 45.1681 12.9996 44.6953 12.695 44.4277C12.3903 44.1602 11.9346 44.1995 11.6767 44.5156C11.4854 44.7501 11.1476 45.0118 10.7902 45.0829C10.5006 45.1404 10.0922 45.0989 9.60635 44.5117Z" fill="#1A1A1A"/>
</svg>
