<svg width="48" height="55" viewBox="0 0 48 55" fill="none" xmlns="http://www.w3.org/2000/svg">
<path d="M21.8931 21.5C16.9233 21.5 12.8869 25.22 12.7915 29.83C12.0693 29.62 11.2996 29.5 10.5005 29.5C6.35836 29.5 3.00049 32.63 3.00049 36.5C3.00049 37.93 3.46312 39.26 4.2544 40.37C1.72423 41.63 0.000488281 44.13 0.000488281 47C0.000488281 51.14 3.58221 54.5 8.00049 54.5C8.23749 54.5 8.47186 54.49 8.70362 54.47C8.81268 54.49 8.92422 54.5 9.03858 54.5H40.5259C40.5577 54.5 40.5893 54.5 40.6206 54.5C44.155 54.44 47.0005 51.78 47.0005 48.5C47.0005 45.6 44.7678 43.18 41.8013 42.62C42.5642 41.25 43.0005 39.68 43.0005 38C43.0005 32.75 38.7472 28.5 33.5005 28.5C32.605 28.5 31.7389 28.63 30.9175 28.86C30.3194 24.7 26.5076 21.5 21.8931 21.5Z" fill="#FFE2E0"/>
<path d="M38.48 41.7197C40.7866 31.7897 34.5785 29.9697 30.1636 29.3397L31.5005 28.9997L34.9627 28.5697C35.3149 28.5197 35.6724 28.5697 35.9986 28.7097L38.6465 29.8497C38.8803 29.9497 39.0929 30.0898 39.2728 30.2698L41.771 32.7698C41.923 32.9198 42.0495 33.0998 42.1456 33.2898L42.4204 33.8397C42.4737 33.9497 42.5173 34.0598 42.5508 34.1698L43.082 35.9797C43.1809 36.3197 43.1891 36.6798 43.1057 37.0198L42.5005 39.4997L42.2769 40.6197C42.1111 41.4497 42.4843 42.2897 43.2091 42.7297L44.2099 43.3297C44.4023 43.4397 44.5738 43.5898 44.7174 43.7598L46.4447 45.8297C46.7992 46.2597 46.9615 46.8097 46.8928 47.3597L46.5752 49.8998C46.5265 50.2898 46.3639 50.6597 46.1078 50.9597L44.7708 52.5098C44.3909 52.9598 43.8368 53.2097 43.2537 53.2097H39.3888C45.0902 49.1397 42.2416 45.9197 39.6377 44.3297C38.7518 43.7897 38.2451 42.7297 38.48 41.7197Z" fill="#FFC7C2"/>
<path d="M1.5 47C1.5 50.22 4.3176 53 8 53V54.5L7.58789 54.4902C3.36134 54.289 0 51.0105 0 47C0 44.13 1.72398 41.6301 4.25391 40.3701C3.51212 39.3294 3.05954 38.0952 3.00586 36.7666L3 36.5C3 32.63 6.35811 29.5 10.5 29.5C10.9146 29.5 11.3216 29.5298 11.7178 29.5898C11.7175 29.5599 11.7148 29.53 11.7148 29.5C11.7148 24.53 16.0319 20.5 21.3574 20.5L21.8027 20.5098C26.3741 20.704 30.1144 23.8731 30.8623 27.9805C31.835 27.6705 32.8722 27.5 33.9492 27.5L34.4668 27.5127C39.7773 27.7821 43.9999 32.1735 44 37.5498C44 39.4198 43.4883 41.1699 42.6006 42.6699C45.6982 43.2999 48 45.67 48 48.5C48 51.81 44.8436 54.5 40.9492 54.5V53C44.2512 53 46.5 50.77 46.5 48.5C46.5 46.5501 44.8818 44.6597 42.3008 44.1396C41.8255 44.0397 41.4262 43.7203 41.2295 43.2705C41.0329 42.8305 41.0633 42.3204 41.3105 41.9004C42.0656 40.6304 42.5 39.1398 42.5 37.5498C42.4999 32.8299 38.6717 29 33.9492 29C33.0317 29 32.1494 29.1502 31.3223 29.4102C30.9111 29.54 30.4624 29.4903 30.0918 29.2705C29.7209 29.0505 29.464 28.68 29.3867 28.25C28.7548 24.78 25.4656 22 21.3574 22C16.7652 22 13.2211 25.4439 13.2148 29.4893C13.2152 29.4957 13.2155 29.5042 13.2158 29.5098C13.2164 29.5298 13.2175 29.5501 13.2178 29.5801C13.2225 30.02 13.0333 30.4405 12.7012 30.7305C12.369 31.0102 11.927 31.1399 11.4922 31.0801C11.1681 31.0301 10.8363 31 10.5 31C7.08721 31 4.5 33.56 4.5 36.5C4.5 37.6 4.8548 38.63 5.47559 39.5C5.73034 39.86 5.81527 40.3103 5.70898 40.7402C5.60264 41.16 5.31549 41.5197 4.92285 41.7197C2.847 42.7497 1.5 44.76 1.5 47Z" fill="#1A1A1A"/>
<path d="M8.95312 52.9902C9.01012 53.0002 9.03435 53 9.03906 53V54.5C8.9245 54.5 8.81235 54.4897 8.70312 54.4697C8.47153 54.4897 8.23684 54.5 8 54.5V53C8.1854 53 8.37778 52.9897 8.58105 52.9697C8.70525 52.9597 8.83026 52.9702 8.95312 52.9902Z" fill="#1A1A1A"/>
<path d="M40.5264 54.5H9.03906V53H40.5264V54.5Z" fill="#1A1A1A"/>
<path d="M40.9492 53V54.5L40.8135 54.499C40.7684 54.4978 40.7235 54.4952 40.6787 54.4902C40.6286 54.5002 40.5778 54.5 40.5264 54.5V53H40.5684C40.6211 52.99 40.6739 52.9902 40.7266 52.9902C40.8217 53.0002 40.8872 53 40.9492 53Z" fill="#1A1A1A"/>
<path fill-rule="evenodd" clip-rule="evenodd" d="M8.50098 44.5C9.88146 44.5003 11.001 45.6195 11.001 47C11.001 48.3805 9.88146 49.4997 8.50098 49.5C7.12026 49.5 6.00098 48.3807 6.00098 47C6.00098 45.6193 7.12026 44.5 8.50098 44.5ZM25.501 44.5C26.8815 44.5003 28.001 45.6195 28.001 47C28.001 48.3805 26.8815 49.4997 25.501 49.5C24.1203 49.5 23.001 48.3807 23.001 47C23.001 45.6193 24.1203 44.5 25.501 44.5Z" fill="#FFAFA3"/>
<path fill-rule="evenodd" clip-rule="evenodd" d="M14.8273 47.2172C15.1361 46.9412 15.6102 46.9677 15.8863 47.2765C16.4603 47.9186 17.4575 47.9428 18.0624 47.329L18.1414 47.2491C18.4326 46.9545 18.9075 46.9518 19.202 47.243C19.4966 47.5343 19.4993 48.0091 19.208 48.3037L19.1308 48.3818C19.1307 48.382 19.131 48.3816 19.1308 48.3818C17.9186 49.6114 15.9192 49.5639 14.768 48.2762C14.4919 47.9674 14.5185 47.4933 14.8273 47.2172Z" fill="#1A1A1A"/>
<path d="M19.7955 44.5063C20.2346 44.5063 20.5905 44.8623 20.5905 45.3013C20.5905 45.7404 20.2346 46.0963 19.7955 46.0963C19.3564 46.0963 19.0005 45.7404 19.0005 45.3013C19.0005 44.8623 19.3564 44.5063 19.7955 44.5063Z" fill="#1A1A1A"/>
<path d="M13.7982 44.5063C13.3591 44.5063 13.0032 44.8623 13.0032 45.3013C13.0032 45.7404 13.3591 46.0963 13.7982 46.0963C14.2372 46.0963 14.5932 45.7404 14.5932 45.3013C14.5932 44.8623 14.2372 44.5063 13.7982 44.5063Z" fill="#1A1A1A"/>
</svg>
