<svg width="48" height="55" viewBox="0 0 48 55" fill="none" xmlns="http://www.w3.org/2000/svg">
<path d="M21.893 21.5C16.923 21.5 12.887 25.22 12.792 29.83C12.069 29.62 11.3 29.5 10.501 29.5C6.35798 29.5 3.00098 32.63 3.00098 36.5C3.00098 37.93 3.46298 39.26 4.25398 40.37C1.72398 41.63 0.000976562 44.13 0.000976562 47C0.000976562 51.14 3.58198 54.5 8.00098 54.5C8.23798 54.5 8.47198 54.49 8.70398 54.47C8.81298 54.49 8.92397 54.5 9.03897 54.5H40.526C40.558 54.5 40.589 54.5 40.621 54.5C44.155 54.44 47.001 51.78 47.001 48.5C47.001 45.6 44.768 43.18 41.801 42.62C42.564 41.25 43.001 39.68 43.001 38C43.001 32.75 38.747 28.5 33.501 28.5C32.605 28.5 31.739 28.63 30.918 28.86C30.319 24.7 26.508 21.5 21.893 21.5Z" fill="#E5F4FF"/>
<path d="M38.4801 41.7197C40.7871 31.7897 34.5781 29.9697 30.1641 29.3397L31.5001 28.9997L34.9631 28.5697C35.3151 28.5197 35.6721 28.5697 35.9991 28.7097L38.6461 29.8497C38.8801 29.9497 39.0931 30.0898 39.2731 30.2698L41.7711 32.7698C41.9231 32.9198 42.0491 33.0998 42.1461 33.2898L42.4201 33.8397C42.4741 33.9497 42.5171 34.0598 42.5511 34.1698L43.0821 35.9797C43.1811 36.3197 43.1891 36.6798 43.1061 37.0198L42.5001 39.4997L42.2771 40.6197C42.1111 41.4497 42.4841 42.2897 43.2091 42.7297L44.2101 43.3297C44.4021 43.4397 44.5741 43.5898 44.7171 43.7598L46.4451 45.8297C46.7991 46.2597 46.9611 46.8097 46.8931 47.3597L46.5751 49.8998C46.5261 50.2898 46.3641 50.6597 46.1081 50.9597L44.7711 52.5098C44.3911 52.9598 43.8371 53.2097 43.2541 53.2097H39.3891C45.0901 49.1397 42.2421 45.9197 39.6381 44.3297C38.7521 43.7897 38.2451 42.7297 38.4801 41.7197Z" fill="#BDE3FF"/>
<path d="M1.5 47C1.5 50.22 4.3176 53 8 53V54.5L7.58789 54.4902C3.36134 54.289 0 51.0105 0 47C0 44.13 1.72398 41.6301 4.25391 40.3701C3.51212 39.3294 3.05954 38.0952 3.00586 36.7666L3 36.5C3 32.63 6.35811 29.5 10.5 29.5C10.9146 29.5 11.3216 29.5298 11.7178 29.5898C11.7175 29.5599 11.7148 29.53 11.7148 29.5C11.7148 24.53 16.0319 20.5 21.3574 20.5L21.8027 20.5098C26.3741 20.704 30.1144 23.8731 30.8623 27.9805C31.835 27.6705 32.8722 27.5 33.9492 27.5L34.4668 27.5127C39.7773 27.7821 43.9999 32.1735 44 37.5498C44 39.4198 43.4883 41.1699 42.6006 42.6699C45.6982 43.2999 48 45.67 48 48.5C48 51.81 44.8436 54.5 40.9492 54.5V53C44.2512 53 46.5 50.77 46.5 48.5C46.5 46.5501 44.8818 44.6597 42.3008 44.1396C41.8255 44.0397 41.4262 43.7203 41.2295 43.2705C41.0329 42.8305 41.0633 42.3204 41.3105 41.9004C42.0656 40.6304 42.5 39.1398 42.5 37.5498C42.4999 32.8299 38.6717 29 33.9492 29C33.0317 29 32.1494 29.1502 31.3223 29.4102C30.9111 29.54 30.4624 29.4903 30.0918 29.2705C29.7209 29.0505 29.464 28.68 29.3867 28.25C28.7548 24.78 25.4656 22 21.3574 22C16.7652 22 13.2211 25.4439 13.2148 29.4893C13.2152 29.4957 13.2155 29.5042 13.2158 29.5098C13.2164 29.5298 13.2175 29.5501 13.2178 29.5801C13.2225 30.02 13.0333 30.4405 12.7012 30.7305C12.369 31.0102 11.927 31.1399 11.4922 31.0801C11.1681 31.0301 10.8363 31 10.5 31C7.08721 31 4.5 33.56 4.5 36.5C4.5 37.6 4.8548 38.63 5.47559 39.5C5.73034 39.86 5.81527 40.3103 5.70898 40.7402C5.60264 41.16 5.31549 41.5197 4.92285 41.7197C2.847 42.7497 1.5 44.76 1.5 47Z" fill="#1A1A1A"/>
<path d="M8.95312 52.9902C9.01012 53.0002 9.03435 53 9.03906 53V54.5C8.9245 54.5 8.81235 54.4897 8.70312 54.4697C8.47153 54.4897 8.23684 54.5 8 54.5V53C8.1854 53 8.37778 52.9897 8.58105 52.9697C8.70525 52.9597 8.83026 52.9702 8.95312 52.9902Z" fill="#1A1A1A"/>
<path d="M40.5264 54.5H9.03906V53H40.5264V54.5Z" fill="#1A1A1A"/>
<path d="M40.9492 53V54.5L40.8135 54.499C40.7684 54.4978 40.7235 54.4952 40.6787 54.4902C40.6286 54.5002 40.5778 54.5 40.5264 54.5V53H40.5684C40.6211 52.99 40.6739 52.9902 40.7266 52.9902C40.8217 53.0002 40.8872 53 40.9492 53Z" fill="#1A1A1A"/>
<path d="M8.50098 44.5C9.88169 44.5 11.001 45.6193 11.001 47C11.001 48.3807 9.88169 49.5 8.50098 49.5C7.12026 49.5 6.00098 48.3807 6.00098 47C6.00098 45.6193 7.12026 44.5 8.50098 44.5ZM25.501 44.5C26.8817 44.5 28.001 45.6193 28.001 47C28.001 48.3807 26.8817 49.5 25.501 49.5C24.1203 49.5 23.001 48.3807 23.001 47C23.001 45.6193 24.1203 44.5 25.501 44.5Z" fill="#FFC7C2"/>
<path fill-rule="evenodd" clip-rule="evenodd" d="M14.5006 47.2172C14.8094 46.9412 15.2836 46.9677 15.5596 47.2765C16.1337 47.9186 17.1309 47.9428 17.7357 47.329L17.8147 47.2491C18.1059 46.9545 18.5808 46.9518 18.8753 47.243C19.1699 47.5343 19.1726 48.0091 18.8814 48.3037L18.8042 48.3818C18.804 48.382 18.8044 48.3816 18.8042 48.3818C17.592 49.6114 15.5925 49.5639 14.4414 48.2762C14.1653 47.9674 14.1918 47.4933 14.5006 47.2172Z" fill="#1A1A1A"/>
<path d="M13.7982 44.5054C13.3591 44.5054 13.0032 44.8613 13.0032 45.3004C13.0032 45.7394 13.3591 46.0954 13.7982 46.0954C14.2372 46.0954 14.5932 45.7394 14.5932 45.3004C14.5932 44.8613 14.2372 44.5054 13.7982 44.5054Z" fill="#1A1A1A"/>
<path d="M19.7955 44.5054C20.2346 44.5054 20.5905 44.8613 20.5905 45.3004C20.5905 45.7394 20.2346 46.0954 19.7955 46.0954C19.3564 46.0954 19.0005 45.7394 19.0005 45.3004C19.0005 44.8613 19.3564 44.5054 19.7955 44.5054Z" fill="#1A1A1A"/>
</svg>
