<svg width="48" height="55" viewBox="0 0 48 55" fill="none" xmlns="http://www.w3.org/2000/svg">
<path d="M4.2101 38.25C-3.7769 27.858 4.94111 24.314 10.8541 23.315C11.1301 23.268 11.4081 23.257 11.6881 23.273L41.2671 24.991C43.8281 25.288 44.9541 25.205 45.8271 26.173C47.1651 27.658 46.3601 29.659 44.7031 30.776C43.8301 31.365 43.5221 32.585 44.1221 33.449C44.9511 34.641 46.0011 35.775 46.6761 37.146C47.2031 38.218 46.8631 39.514 45.9171 40.243C45.5121 40.554 45.1341 40.77 44.7621 40.938C43.2971 41.6 42.0461 42.979 42.7691 44.415C43.1851 45.241 43.7851 45.705 44.2671 46.481C49.9231 55.578 21.2561 54.121 7.34612 52.058C4.08112 51.574 0.447112 49.213 1.75511 46.182C2.27111 44.986 3.20911 43.968 4.14211 43.022C5.44711 41.699 5.3421 39.723 4.2101 38.25Z" fill="white"/>
<path d="M11.7306 22.5239L41.3106 24.2427L41.3321 24.2437L41.3536 24.2456L43.0138 24.4185C43.511 24.4699 43.9496 24.5222 44.3224 24.5943C45.1328 24.7509 45.8034 25.0269 46.3839 25.6704L45.7813 26.2144L45.8272 26.1734L46.3849 25.6714C47.241 26.6219 47.4166 27.7678 47.1085 28.8228C46.809 29.848 46.0658 30.7608 45.1222 31.397L45.1231 31.398C44.5494 31.785 44.4083 32.5456 44.7384 33.021L43.506 33.8765C42.6364 32.6239 43.1112 30.9447 44.2833 30.1538C44.9964 29.673 45.4853 29.0274 45.6681 28.4019C45.842 27.8061 45.751 27.2096 45.2696 26.6753C44.9773 26.3513 44.6488 26.185 44.0382 26.0669C43.3672 25.9372 42.5403 25.8922 41.211 25.7388L11.6446 24.022C11.413 24.0088 11.1927 24.0181 10.9806 24.0542C9.53969 24.2977 7.94285 24.6944 6.48642 25.3013C5.02396 25.9108 3.75043 26.7127 2.89657 27.7398C2.06118 28.7447 1.60404 29.9899 1.79208 31.5845C1.98383 33.2097 2.85363 35.2538 4.80478 37.7925C6.10856 39.4892 6.30394 41.8978 4.67587 43.5484C3.73968 44.4976 2.8974 45.4268 2.44345 46.479C2.18609 47.0754 2.18134 47.606 2.3331 48.0845C2.48963 48.5777 2.829 49.0643 3.33505 49.5161C4.35662 50.4283 5.93586 51.0906 7.45614 51.3159C14.3811 52.343 24.969 53.2161 33.0968 52.7056C37.1877 52.4486 40.5345 51.847 42.4913 50.8169C43.4625 50.3057 43.9783 49.7476 44.1622 49.1841C44.3392 48.6412 44.2678 47.9034 43.63 46.8775L44.9044 46.0855C45.6801 47.3333 45.9503 48.5395 45.588 49.6499C45.2323 50.7398 44.3277 51.5449 43.1895 52.1441C40.9274 53.3348 37.2979 53.9447 33.1905 54.2027C24.9215 54.722 14.2213 53.8362 7.23642 52.8003C5.49175 52.5417 3.6207 51.7814 2.33603 50.6343C1.68931 50.0568 1.16246 49.3543 0.903411 48.5376C0.639673 47.706 0.670011 46.8043 1.0665 45.8853C1.64454 44.5455 2.67869 43.4384 3.60849 42.4956C4.59032 41.5003 4.57537 39.9558 3.61532 38.7066C1.57336 36.0496 0.537991 33.7534 0.302825 31.7603C0.0641622 29.7368 0.658543 28.0856 1.74325 26.7808C2.80956 25.4982 4.32488 24.5772 5.91025 23.9165C7.50151 23.2534 9.21327 22.8327 10.7286 22.5767C11.0679 22.5189 11.4029 22.5053 11.7306 22.5239ZM47.3497 36.815C48.0434 38.2261 47.5867 39.9037 46.3751 40.8374C45.9217 41.1856 45.4919 41.4303 45.0704 41.6206L45.0714 41.6216C44.4285 41.9121 43.8756 42.3434 43.5685 42.8032C43.2791 43.2366 43.225 43.6515 43.4395 44.0777L43.5724 44.3169C43.7137 44.5476 43.8787 44.7566 44.0704 44.9878C44.3176 45.2859 44.6297 45.6432 44.9044 46.0855L43.63 46.8775C43.4228 46.5439 43.1933 46.2801 42.9161 45.9458C42.6474 45.6217 42.3478 45.2449 42.0997 44.7525C41.5914 43.7428 41.8 42.7497 42.3214 41.9693C42.8252 41.2152 43.6312 40.6259 44.4532 40.2544C44.7757 40.1088 45.1035 39.9217 45.4601 39.648C46.1397 39.1236 46.3631 38.2096 46.003 37.4771L47.3497 36.815ZM44.7384 33.021C45.1454 33.6063 45.5817 34.1437 46.0577 34.7818C46.5173 35.3978 46.9818 36.0677 47.3497 36.815L46.003 37.4771C45.6959 36.8534 45.2968 36.2708 44.8556 35.6792C44.4308 35.1099 43.9287 34.4839 43.5069 33.8775L44.7384 33.021Z" fill="#1A1A1A"/>
<path d="M37.1819 21.687C26.1389 13.737 16.3129 17.928 10.7679 22.918C8.80593 24.684 7.75493 27.418 8.71593 29.876C11.2909 36.466 20.1879 38.248 24.9999 38.248C32.1419 37.995 36.6179 34.865 39.1979 31.576C41.6639 28.433 40.4239 24.022 37.1819 21.687Z" fill="#FF99E0"/>
<path d="M21.8026 16.7085C26.5363 16.0003 31.9495 16.9956 37.621 21.0786C41.1074 23.5899 42.5881 28.4697 39.788 32.0386C37.0804 35.4902 32.4039 38.7362 25.0272 38.9976L24.9999 38.2339V38.2476L25.0272 38.9976H24.9999C22.5185 38.9975 18.993 38.5411 15.7391 37.229C12.4885 35.9183 9.40901 33.7102 8.01746 30.149C6.91069 27.3178 8.1462 24.2694 10.2665 22.3609C13.1176 19.7951 17.091 17.4135 21.8026 16.7085ZM36.744 22.2954C31.3726 18.4286 26.3505 17.5447 22.0243 18.1919C17.6762 18.8425 13.9642 21.0511 11.2704 23.4751C9.46684 25.0985 8.59988 27.5184 9.41492 29.6031C10.5983 32.6317 13.2552 34.6097 16.2997 35.8374C19.3381 37.0627 22.6638 37.4958 24.994 37.4966C31.8892 37.2467 36.1582 34.2361 38.6083 31.1128C40.6731 28.4809 39.8007 24.6999 37.0194 22.5034L36.744 22.2954Z" fill="#1A1A1A"/>
<path d="M29.124 27.2478C29.7453 27.2478 30.249 27.7515 30.249 28.3728C30.249 28.9941 29.7453 29.4978 29.124 29.4978C28.5027 29.4978 27.999 28.9941 27.999 28.3728C27.999 27.7515 28.5027 27.2478 29.124 27.2478Z" fill="#1A1A1A"/>
<path d="M20.125 27.2478C19.5037 27.2478 19 27.7515 19 28.3728C19 28.9941 19.5037 29.4978 20.125 29.4978C20.7463 29.4978 21.25 28.9941 21.25 28.3728C21.25 27.7515 20.7463 27.2478 20.125 27.2478Z" fill="#1A1A1A"/>
<path d="M26.6919 30.498L26.7681 30.502C27.1464 30.5402 27.4419 30.8596 27.4419 31.248C27.4419 31.6365 27.1464 31.9559 26.7681 31.9941L26.6919 31.998L22.0337 31.998C21.6195 31.998 21.2837 31.6623 21.2837 31.248C21.2837 30.8338 21.6195 30.498 22.0337 30.498L26.6919 30.498Z" fill="#1A1A1A"/>
<path d="M28.5 23.1979C30.433 23.1979 32 22.3138 32 21.2231C32 20.1325 30.433 19.2483 28.5 19.2483C26.567 19.2483 25 20.1325 25 21.2231C25 22.3138 26.567 23.1979 28.5 23.1979Z" fill="white"/>
</svg>
