<svg width="48" height="55" viewBox="0 0 48 55" fill="none" xmlns="http://www.w3.org/2000/svg">
<path d="M4.21018 38.25C-3.777 27.858 4.94116 24.314 10.8543 23.315C11.1302 23.268 11.4082 23.257 11.6876 23.273L41.2674 24.991C43.8279 25.288 44.9542 25.205 45.8268 26.173C47.1653 27.658 46.3604 29.659 44.7027 30.777C43.8305 31.365 43.5218 32.585 44.1224 33.449C44.9513 34.642 46.0012 35.775 46.6756 37.146C47.2027 38.218 46.863 39.514 45.9165 40.243C45.5118 40.555 45.134 40.77 44.762 40.938C43.2968 41.6 42.0461 42.979 42.7691 44.415C43.1853 45.242 43.7847 45.705 44.2673 46.481C49.9231 55.578 21.2563 54.121 7.34638 52.059C4.08071 51.574 0.447082 49.213 1.75463 46.182C2.27058 44.986 3.20875 43.968 4.14244 43.022C5.44734 41.699 5.34248 39.723 4.21018 38.25Z" fill="white"/>
<path d="M11.7306 22.524L41.3106 24.2427L41.3321 24.2437L41.3536 24.2457C42.5674 24.3864 43.5769 24.4502 44.3224 24.5943C45.1327 24.7509 45.8035 25.0268 46.3839 25.6705C47.2407 26.621 47.4167 27.7675 47.1085 28.8228C46.809 29.8483 46.0661 30.7624 45.1222 31.399C44.5853 31.7609 44.4275 32.4518 44.6817 32.9283L44.7384 33.021C45.1453 33.6067 45.5817 34.1447 46.0577 34.7828C46.5172 35.3987 46.9811 36.0676 47.3487 36.815L47.4659 37.0826C47.983 38.4329 47.5107 39.962 46.3741 40.8375C45.9199 41.1875 45.491 41.4307 45.0704 41.6207L45.0714 41.6216C44.4284 41.9121 43.8756 42.3435 43.5685 42.8033C43.2791 43.2366 43.2249 43.6514 43.4395 44.0777C43.6076 44.4115 43.8149 44.6808 44.0704 44.9888C44.2556 45.2122 44.4773 45.4684 44.6925 45.7691L44.9044 46.0845C45.6801 47.3324 45.9503 48.5395 45.588 49.65C45.2323 50.7398 44.3277 51.545 43.1895 52.1441C40.9274 53.3348 37.2987 53.9456 33.1915 54.2037C25.439 54.6908 15.5493 53.9414 8.58799 52.9927L7.23642 52.8013L6.9083 52.7466C5.26018 52.4455 3.54055 51.7099 2.33603 50.6343C1.68922 50.0567 1.16151 49.3544 0.902438 48.5376C0.638645 47.706 0.670048 46.8044 1.0665 45.8853C1.64446 44.5456 2.678 43.4384 3.60849 42.4957L4.67588 43.5484C3.73912 44.4975 2.89733 45.427 2.44345 46.4791C2.18618 47.0754 2.18033 47.6059 2.33213 48.0845C2.48867 48.5778 2.82891 49.0642 3.33506 49.5162C4.35671 50.4284 5.93639 51.0911 7.45713 51.3169C14.382 52.3434 24.9693 53.2172 33.0968 52.7066C37.1877 52.4496 40.5345 51.847 42.4913 50.8169C43.4625 50.3057 43.9783 49.7477 44.1622 49.1841C44.3392 48.6412 44.2678 47.9035 43.63 46.8775C43.4223 46.5436 43.1935 46.2803 42.9161 45.9459C42.6473 45.6217 42.3478 45.2454 42.0997 44.7525C41.5914 43.7429 41.8001 42.7498 42.3214 41.9693C42.8252 41.2152 43.6311 40.6259 44.4532 40.2544C44.7764 40.1085 45.104 39.9227 45.4591 39.649L45.5812 39.5464C46.1652 39.0114 46.3407 38.1642 46.003 37.4771C45.6963 36.8535 45.2969 36.2708 44.8556 35.6793C44.4308 35.1098 43.9289 34.4838 43.5069 33.8765C42.6361 32.6237 43.1117 30.9447 44.2833 30.1548C44.997 29.6734 45.4853 29.0276 45.6681 28.4019C45.842 27.8061 45.7512 27.2096 45.2696 26.6753C44.9775 26.3513 44.6489 26.185 44.0382 26.0669C43.3672 25.9373 42.5402 25.8922 41.211 25.7388L11.6446 24.022L11.4728 24.0162C11.3034 24.015 11.1396 24.0272 10.9806 24.0543C9.53975 24.2977 7.94378 24.6944 6.4874 25.3013C5.0247 25.9109 3.75054 26.7126 2.89658 27.7398C2.06117 28.7447 1.60404 29.99 1.79209 31.5845C1.98384 33.2097 2.85361 35.2538 4.80478 37.7925C6.10906 39.4893 6.30355 41.8978 4.67588 43.5484L3.60849 42.4957C4.59024 41.5003 4.57548 39.9567 3.61533 38.7076C1.57311 36.0505 0.538017 33.7535 0.302829 31.7603C0.0641567 29.7368 0.65853 28.0856 1.74326 26.7808C2.80958 25.4982 4.32485 24.5772 5.91025 23.9166C7.5015 23.2535 9.21326 22.8328 10.7286 22.5767C11.068 22.5189 11.4032 22.5052 11.7306 22.524Z" fill="#1A1A1A"/>
<path d="M37.1822 21.687C26.1389 13.737 16.3129 17.928 10.7685 22.918C8.80636 24.684 7.75491 27.418 8.71578 29.877C11.2911 36.467 20.1884 38.249 25.0001 38.249C32.1422 37.995 36.6181 34.866 39.1979 31.576C41.6636 28.433 40.4245 24.022 37.1822 21.687Z" fill="#F24822"/>
<path fill-rule="evenodd" clip-rule="evenodd" d="M21.802 16.7083C26.5357 16.0001 31.9485 16.9953 37.6201 21.0783L37.6202 21.0784C41.1073 23.5897 42.5876 28.47 39.7877 32.0389C37.0803 35.4917 32.4032 38.7362 25.0265 38.9986L25.0132 38.999H24.9998C22.5185 38.999 18.9927 38.542 15.7386 37.2299C12.4879 35.9191 9.40867 33.7113 8.01692 30.15L8.01691 30.15C6.91018 27.3177 8.14587 24.2692 10.2665 22.3606L10.7608 22.9098L10.2665 22.3606C13.1174 19.7948 17.0905 17.4132 21.802 16.7083ZM22.024 18.1918C17.6756 18.8424 13.9635 21.0513 11.27 23.4755C9.46624 25.0989 8.59903 27.5183 9.41404 29.6041C10.5977 32.6328 13.2548 34.611 16.2995 35.8387C19.335 37.0627 22.6568 37.4974 24.9865 37.499C31.8861 37.25 36.1569 34.2384 38.6075 31.1132L38.6076 31.1131C40.7391 28.396 39.7412 24.4544 36.7438 22.2957C31.3721 18.4287 26.3502 17.5445 22.024 18.1918Z" fill="#1A1A1A"/>
<path d="M29.1235 27.2488C29.7449 27.2488 30.2485 27.7525 30.2485 28.3738C30.2485 28.9951 29.7449 29.4988 29.1235 29.4988C28.5022 29.4988 27.9985 28.9951 27.9985 28.3738C27.9985 27.7525 28.5022 27.2488 29.1235 27.2488Z" fill="#1A1A1A"/>
<path d="M20.1245 27.2488C19.5032 27.2488 18.9995 27.7525 18.9995 28.3738C18.9995 28.9951 19.5032 29.4988 20.1245 29.4988C20.7458 29.4988 21.2495 28.9951 21.2495 28.3738C21.2495 27.7525 20.7458 27.2488 20.1245 27.2488Z" fill="#1A1A1A"/>
<path d="M28.5 23.1979C30.433 23.1979 32 22.3138 32 21.2231C32 20.1325 30.433 19.2483 28.5 19.2483C26.567 19.2483 25 20.1325 25 21.2231C25 22.3138 26.567 23.1979 28.5 23.1979Z" fill="white"/>
<path d="M26.7563 30.25L26.8325 30.2539C27.2109 30.2922 27.5063 30.6116 27.5063 31C27.5063 31.3884 27.2109 31.7078 26.8325 31.7461L26.7563 31.75L22.0981 31.75C21.6839 31.75 21.3481 31.4142 21.3481 31C21.3481 30.5858 21.6839 30.25 22.0981 30.25L26.7563 30.25Z" fill="#1A1A1A"/>
</svg>
