<svg width="48" height="55" viewBox="0 0 48 55" fill="none" xmlns="http://www.w3.org/2000/svg">
<path d="M4.2101 38.25C-3.7769 27.858 4.9411 24.314 10.8541 23.315C11.1301 23.268 11.4081 23.257 11.6881 23.273L41.2671 24.991C43.8281 25.288 44.9541 25.205 45.8271 26.173C47.1651 27.658 46.3601 29.659 44.7031 30.777C43.8301 31.365 43.5221 32.585 44.1221 33.449C44.9511 34.642 46.0011 35.775 46.6761 37.146C47.2031 38.218 46.8631 39.514 45.9171 40.243C45.5121 40.555 45.1341 40.77 44.7621 40.938C43.2971 41.6 42.0461 42.979 42.7691 44.415C43.1851 45.242 43.7851 45.705 44.2671 46.481C49.9231 55.578 21.2561 54.121 7.3461 52.059C4.0811 51.574 0.4471 49.213 1.7551 46.182C2.2711 44.986 3.20909 43.968 4.14209 43.022C5.44709 41.699 5.3421 39.723 4.2101 38.25Z" fill="white"/>
<path d="M11.7306 22.5239L41.3106 24.2427L41.3321 24.2437L41.3536 24.2456L43.0138 24.4185C43.511 24.4699 43.9496 24.5222 44.3224 24.5943C45.1328 24.7509 45.8034 25.0269 46.3839 25.6704L45.7813 26.2144L45.8272 26.1734L46.3849 25.6714C47.241 26.6219 47.4166 27.7678 47.1085 28.8228C46.809 29.8481 46.0666 30.7623 45.1231 31.3989C44.5502 31.7849 44.4082 32.5454 44.7384 33.021L45.0489 33.4536C45.3657 33.8817 45.7008 34.3035 46.0577 34.7818C46.5173 35.3977 46.9808 36.0677 47.3487 36.815L46.003 37.4771C45.696 36.8535 45.2969 36.2707 44.8556 35.6792C44.4306 35.1097 43.928 34.4838 43.506 33.8765C42.6366 32.6243 43.1108 30.945 44.2833 30.1548C44.9965 29.6736 45.4852 29.0285 45.6681 28.4029C45.8421 27.8068 45.7511 27.2097 45.2696 26.6753C44.9773 26.3513 44.6488 26.185 44.0382 26.0669C43.3672 25.9372 42.5403 25.8922 41.211 25.7388L11.6446 24.022C11.413 24.0088 11.1927 24.0181 10.9806 24.0542C9.53969 24.2977 7.94285 24.6944 6.48642 25.3013C5.02396 25.9108 3.75043 26.7127 2.89657 27.7398C2.06118 28.7447 1.60404 29.9899 1.79208 31.5845C1.98383 33.2097 2.85363 35.2538 4.80478 37.7925C6.10856 39.4892 6.30393 41.8978 4.67587 43.5484C3.73967 44.4976 2.8974 45.4268 2.44345 46.479C2.18609 47.0754 2.18134 47.6059 2.3331 48.0845C2.48963 48.5777 2.82901 49.0642 3.33505 49.5161C4.3566 50.4284 5.9358 51.091 7.45615 51.3169C14.3811 52.3435 24.969 53.2172 33.0968 52.7066C37.1877 52.4495 40.5345 51.847 42.4913 50.8169C43.4625 50.3057 43.9783 49.7476 44.1622 49.1841C44.3392 48.6412 44.2678 47.9034 43.63 46.8775L44.9044 46.0855C45.6801 47.3333 45.9503 48.5395 45.588 49.6499C45.2323 50.7398 44.3277 51.5449 43.1895 52.1441C40.9274 53.3348 37.2979 53.9456 33.1905 54.2036C24.9215 54.7231 14.2213 53.8367 7.23642 52.8013C5.49185 52.5421 3.62067 51.7815 2.33603 50.6343C1.68928 50.0567 1.16145 49.3544 0.902434 48.5376C0.638719 47.706 0.670017 46.8043 1.0665 45.8853C1.64454 44.5455 2.67869 43.4384 3.60849 42.4956C4.59032 41.5003 4.57536 39.9558 3.61532 38.7066C1.57336 36.0496 0.537992 33.7534 0.302825 31.7603C0.0641613 29.7368 0.658546 28.0856 1.74325 26.7808C2.80955 25.4982 4.32488 24.5772 5.91025 23.9165C7.50151 23.2534 9.21327 22.8327 10.7286 22.5767C11.0679 22.5189 11.4029 22.5053 11.7306 22.5239ZM47.3487 36.815C48.0424 38.2261 47.5867 39.9037 46.3751 40.8374C45.9205 41.1877 45.4911 41.4306 45.0704 41.6206L45.0714 41.6216C44.4285 41.9121 43.8756 42.3434 43.5685 42.8032C43.3152 43.1825 43.2418 43.5476 43.3712 43.9185L43.4395 44.0777L43.5724 44.3179C43.7136 44.5485 43.8789 44.7569 44.0704 44.9878C44.3175 45.2857 44.6296 45.6431 44.9044 46.0855L43.63 46.8775C43.4228 46.544 43.1934 46.2801 42.9161 45.9458C42.6473 45.6217 42.3468 45.2456 42.0987 44.7525C41.5904 43.7428 41.8 42.7497 42.3214 41.9693C42.8252 41.2152 43.6312 40.6259 44.4532 40.2544C44.7765 40.1084 45.1038 39.9226 45.4591 39.6489C46.1394 39.1247 46.3632 38.2099 46.003 37.4771L47.3487 36.815Z" fill="#1A1A1A"/>
<path d="M37.1819 21.687C26.1389 13.737 16.3129 17.928 10.7679 22.918C8.80593 24.684 7.75493 27.418 8.71593 29.877C11.2909 36.467 20.1879 38.249 24.9999 38.249C32.1419 37.995 36.6179 34.866 39.1979 31.576C41.6639 28.433 40.4239 24.022 37.1819 21.687Z" fill="#9747FF"/>
<path d="M21.8026 16.7085C26.5363 16.0003 31.9494 16.9956 37.621 21.0786C41.1072 23.5898 42.5886 28.4697 39.7889 32.0386C37.0813 35.4913 32.4038 38.7361 25.0272 38.9986L24.9999 38.2349V38.2486L25.0272 38.9986H24.9999C22.5184 38.9985 18.993 38.542 15.7391 37.23C12.4885 35.9192 9.40899 33.7112 8.01744 30.1499C6.91075 27.3179 8.14609 24.2695 10.2665 22.3609C13.1176 19.7951 17.091 17.4135 21.8026 16.7085ZM36.744 22.2954C31.3726 18.4286 26.3505 17.5447 22.0243 18.1919C17.6762 18.8425 13.9642 21.0511 11.2704 23.4751C9.46689 25.0984 8.59975 27.5182 9.4149 29.604C10.5983 32.6326 13.2552 34.6107 16.2997 35.8384C19.3381 37.0636 22.6638 37.4968 24.994 37.4976C31.8893 37.2467 36.1583 34.237 38.6083 31.1128L38.7987 30.855C40.6149 28.239 39.7111 24.6291 37.0194 22.5034L36.744 22.2954Z" fill="#1A1A1A"/>
<path d="M29.124 27.2488C29.7453 27.2488 30.249 27.7525 30.249 28.3738C30.249 28.9951 29.7453 29.4988 29.124 29.4988C28.5027 29.4988 27.999 28.9951 27.999 28.3738C27.999 27.7525 28.5027 27.2488 29.124 27.2488Z" fill="#1A1A1A"/>
<path d="M20.125 27.2488C19.5037 27.2488 19 27.7525 19 28.3738C19 28.9951 19.5037 29.4988 20.125 29.4988C20.7463 29.4988 21.25 28.9951 21.25 28.3738C21.25 27.7525 20.7463 27.2488 20.125 27.2488Z" fill="#1A1A1A"/>
<path d="M26.6919 30.499L26.7681 30.5029C27.1464 30.5412 27.4419 30.8606 27.4419 31.249C27.4419 31.6375 27.1464 31.9569 26.7681 31.9951L26.6919 31.999L22.0337 31.999C21.6195 31.999 21.2837 31.6632 21.2837 31.249C21.2837 30.8348 21.6195 30.499 22.0337 30.499L26.6919 30.499Z" fill="#1A1A1A"/>
<path d="M28.5 23.1979C30.433 23.1979 32 22.3138 32 21.2231C32 20.1325 30.433 19.2483 28.5 19.2483C26.567 19.2483 25 20.1325 25 21.2231C25 22.3138 26.567 23.1979 28.5 23.1979Z" fill="white"/>
</svg>
