<svg width="48" height="55" viewBox="0 0 48 55" fill="none" xmlns="http://www.w3.org/2000/svg">
<path fill-rule="evenodd" clip-rule="evenodd" d="M39.3701 39.2261C37.2281 46.8181 29.4041 54.8291 21.3344 54.8291C11.8605 54.8291 3.4314 46.7701 3.4314 36.8291C3.4314 26.8881 11.9452 18.8291 20.5854 18.8291C27.516 18.8291 35.7834 24.0251 38.7837 30.4381L40.6883 28.5341C41.4964 27.7251 42.6023 27.1231 43.6695 27.5321C45.2292 28.1291 46.8984 29.8621 46.8984 33.9521C46.8984 37.4811 45.8003 39.6021 44.6138 40.7801C43.5124 41.8731 41.8336 41.3991 40.6695 40.3731L39.3701 39.2261Z" fill="#85E0A3"/>
<path d="M1.91391 41.3658C2.12169 41.8008 2.64178 41.9318 3.07453 41.7198L4.79576 40.8743L4.20539 33.9568L3.15965 33.5138C2.68655 33.3208 2.13076 33.5078 1.88721 33.9568C1.39638 34.8628 0.818338 36.1918 0.985738 37.9718C1.11122 39.3058 1.52523 40.5528 1.91391 41.3658Z" fill="#14AE5C"/>
<path d="M34.2874 37.9718C34.4634 36.1008 33.8153 34.7268 33.311 33.8208C33.0965 33.4348 32.6496 33.2348 32.2175 33.3228L30.9014 33.5918L28.7561 34.8858C28.116 36.4888 28.097 38.2718 28.703 39.8878L28.7561 40.0288L30.9014 41.3288L32.2427 41.8258C32.6592 41.9798 33.1273 41.8388 33.3232 41.4408C33.722 40.6298 34.158 39.3468 34.2874 37.9718Z" fill="#14AE5C"/>
<path d="M2.54648 34.3148C2.60043 34.2153 2.74304 34.1543 2.87621 34.2085L4.32161 34.7992L4.67221 33.3053L3.44296 32.8197C2.62998 32.4881 1.6611 32.8011 1.22797 33.5996C0.704389 34.566 0.0517703 36.051 0.239049 38.0424C0.373857 39.4755 0.815828 40.808 1.23728 41.6897C1.65702 42.5681 2.66853 42.7542 3.40522 42.3933L4.83775 41.6897L4.2557 40.3044L2.74437 41.0468C2.68802 41.0743 2.64127 41.072 2.61782 41.0652C2.60692 41.062 2.60189 41.0584 2.60024 41.057C2.60024 41.057 2.59547 41.0529 2.59057 41.0427C2.2347 40.2983 1.8486 39.1367 1.73246 37.9019C1.58496 36.3335 2.08845 35.1603 2.54648 34.3148Z" fill="#1A1A1A"/>
<path d="M40.3623 38.1021L39.3701 39.2261L37.9264 38.8191C38.0664 38.3231 38.4516 37.9331 38.9462 37.7881C39.4408 37.6421 39.9756 37.7601 40.3623 38.1021Z" fill="#1A1A1A"/>
<path d="M37.425 31.0741C36.0734 28.1851 33.4827 25.4811 30.3543 23.4951C27.225 21.5081 23.7009 20.3291 20.5854 20.3291C12.7949 20.3291 4.93143 27.6951 4.93143 36.8291C4.93143 45.9271 12.6741 53.3291 21.3344 53.3291C24.8783 53.3291 28.5073 51.5581 31.5637 48.7671C34.6136 45.9821 36.9398 42.3161 37.9264 38.8191L39.3701 39.2261V39.2261C39.2248 39.7409 39.0533 40.2584 38.8574 40.7744C36.1654 47.8682 28.8567 54.8291 21.3344 54.8291C11.8605 54.8291 3.43143 46.7701 3.43143 36.8291C3.43143 26.8881 11.9452 18.8291 20.5854 18.8291C27.0102 18.8291 34.5838 23.2944 38.0452 29.055C38.3177 29.5085 38.5648 29.9701 38.7837 30.4381L40.6883 28.5341V28.5341C41.4964 27.7252 42.6024 27.1231 43.6695 27.5321C45.2292 28.1291 46.8984 29.8621 46.8984 33.9521C46.8984 37.4808 45.8005 39.6018 44.6141 40.7798V40.7798C43.5127 41.8728 41.8336 41.3991 40.6695 40.3731L39.371 39.2269L40.3623 38.1021L41.6618 39.2481C42.0799 39.6171 42.5363 39.8331 42.8972 39.8891C43.2157 39.9391 43.4031 39.8681 43.557 39.7151C44.411 38.8671 45.3984 37.1561 45.3984 33.9521C45.3984 32.1071 45.0221 30.9351 44.5831 30.2051C44.1515 29.4861 43.615 29.1171 43.1331 28.9331C43.0239 28.8911 42.8751 28.8761 42.6297 28.9731C42.3653 29.0771 42.0548 29.2881 41.749 29.5941L39.8444 31.4991C39.4985 31.8451 39.0059 32.0001 38.5242 31.9161C38.0425 31.8311 37.6323 31.5171 37.425 31.0741Z" fill="#1A1A1A"/>
<path d="M30.5898 34.2462C30.9231 33.9457 31.3652 33.7966 31.812 33.8335C32.2461 33.8693 32.6428 34.1152 32.8552 34.4747C33.2867 35.2073 33.7479 36.1868 33.7479 37.6721C33.7479 39.0475 33.3527 40.0406 32.9657 40.7196C32.7775 41.0496 32.3461 41.2614 31.8376 41.2031C31.4016 41.1524 30.989 40.9706 30.6559 40.6827L29.2472 39.4623C28.9342 39.191 28.4605 39.2249 28.1893 39.538C27.918 39.8511 27.952 40.3247 28.265 40.5959L29.6749 41.8175C30.2346 42.3013 30.9285 42.6078 31.6655 42.6932C32.6345 42.8046 33.7203 42.4243 34.2688 41.4625C34.7584 40.6035 35.2479 39.3566 35.2479 37.6721C35.2479 35.8294 34.6606 34.5843 34.1473 33.7129C33.6787 32.9188 32.8375 32.413 31.9353 32.3386C31.0764 32.2677 30.2261 32.5547 29.5855 33.132L28.2545 34.3295C27.9466 34.6066 27.9215 35.0808 28.1986 35.3887C28.4756 35.6967 28.9498 35.7217 29.2578 35.4446L30.5898 34.2462Z" fill="#1A1A1A"/>
<path fill-rule="evenodd" clip-rule="evenodd" d="M42.3136 32.5606C41.8541 32.7741 41.443 33.0316 41.2165 33.1947C40.8803 33.4367 40.4116 33.3603 40.1696 33.0241C39.9276 32.6879 40.004 32.2192 40.3402 31.9772C40.636 31.7643 41.1284 31.4573 41.6816 31.2003C42.2177 30.9512 42.8989 30.707 43.5443 30.707C43.9585 30.707 44.2943 31.0428 44.2943 31.457C44.2943 31.8712 43.9585 32.207 43.5443 32.207C43.2307 32.207 42.7902 32.3392 42.3136 32.5606Z" fill="#036838"/>
<path d="M20.7342 17.4654C21.1398 17.5493 21.4006 17.9462 21.3166 18.3518C21.2045 18.8937 21.0408 19.7434 20.9146 20.527C20.8514 20.9194 20.7988 21.2876 20.7665 21.589C20.7504 21.7398 20.7401 21.8674 20.7356 21.9693C20.7333 22.0199 20.7327 22.0607 20.7332 22.0922C20.7334 22.1078 20.7339 22.1199 20.7344 22.1288L20.7351 22.1389L20.7355 22.1421C20.7861 22.5532 20.4939 22.9276 20.0828 22.9782C19.6717 23.0289 19.2974 22.7367 19.2467 22.3256C19.2166 22.0809 19.2416 21.7424 19.2751 21.4294C19.3113 21.0908 19.3684 20.6935 19.4336 20.2885C19.5643 19.4773 19.7325 18.6051 19.8477 18.0479C19.9317 17.6423 20.3285 17.3815 20.7342 17.4654Z" fill="#036838"/>
<path d="M15.9741 19.4341C15.9698 19.02 15.6306 18.6877 15.2164 18.6919C14.8022 18.6962 14.4699 19.0355 14.4742 19.4496C14.481 20.1111 14.5059 21.1439 14.5585 22.0968C14.5848 22.5726 14.6184 23.0362 14.6612 23.427C14.7011 23.7914 14.7562 24.1703 14.8478 24.4265C14.9873 24.8165 15.4166 25.0196 15.8066 24.8801C16.1966 24.7406 16.3997 24.3113 16.2602 23.9213C16.2361 23.854 16.1938 23.643 16.1523 23.2637C16.1136 22.9108 16.0818 22.477 16.0562 22.014C16.0051 21.0893 15.9808 20.0797 15.9741 19.4341Z" fill="#036838"/>
<path d="M3.55625 26.592C3.79762 26.2553 4.26617 26.1781 4.60279 26.4195C5.12787 26.796 5.95659 27.3733 6.73244 27.8789C7.12087 28.132 7.48951 28.3628 7.79692 28.5404C8.12732 28.7312 8.32241 28.8218 8.39086 28.8422C8.78785 28.9604 9.01385 29.378 8.89564 29.775C8.77743 30.172 8.35979 30.398 7.9628 30.2798C7.70211 30.2022 7.3641 30.0226 7.04677 29.8393C6.70645 29.6428 6.31273 29.3957 5.91352 29.1356C5.11409 28.6147 4.26641 28.024 3.72874 27.6385C3.39212 27.3971 3.31489 26.9286 3.55625 26.592Z" fill="#036838"/>
<path d="M44.0178 35.3186C44.4319 35.3088 44.7597 34.9651 44.7498 34.551C44.74 34.1369 44.3963 33.8092 43.9822 33.8191L41.4159 33.8801C41.0018 33.8899 40.6741 34.2336 40.6839 34.6477C40.6938 35.0618 41.0374 35.3895 41.4515 35.3796L44.0178 35.3186Z" fill="#036838"/>
<path d="M41.2678 35.9087C40.954 35.6384 40.4804 35.6736 40.2101 35.9875C39.9398 36.3013 39.975 36.7748 40.2888 37.0452C40.5836 37.2991 41.0769 37.6674 41.6332 37.9767C42.167 38.2735 42.8671 38.5779 43.5443 38.5779C43.9585 38.5779 44.2943 38.2422 44.2943 37.8279C44.2943 37.4137 43.9585 37.0779 43.5443 37.0779C43.2626 37.0779 42.8409 36.9319 42.362 36.6657C41.9057 36.412 41.4954 36.1048 41.2678 35.9087Z" fill="#036838"/>
<path d="M28.1799 20.0912C28.4623 19.7881 28.4455 19.3136 28.1425 19.0312C27.8395 18.7488 27.3649 18.7655 27.0825 19.0685C26.6947 19.4847 26.0978 20.1427 25.5648 20.7679C25.2987 21.0801 25.0435 21.3899 24.8366 21.6604C24.6454 21.9105 24.4482 22.1868 24.3468 22.4116C24.1766 22.7893 24.3448 23.2334 24.7224 23.4036C25.1 23.5738 25.5441 23.4057 25.7143 23.028C25.7143 23.028 25.7147 23.0272 25.7158 23.0251L25.7203 23.0161C25.7245 23.0082 25.7304 22.9977 25.7383 22.9842C25.7542 22.957 25.7759 22.9226 25.8042 22.8804C25.8609 22.7958 25.9361 22.692 26.0282 22.5716C26.2123 22.3308 26.4485 22.0435 26.7063 21.741C27.2213 21.137 27.8026 20.496 28.1799 20.0912Z" fill="#036838"/>
<path d="M9.73569 22.4044C9.74866 21.9903 9.42355 21.6442 9.00954 21.6312C8.59553 21.6183 8.2494 21.9434 8.23643 22.3574C8.23014 22.5579 8.28492 22.7876 8.32726 22.9461L8.52401 23.5639C8.67526 23.9845 8.87813 24.4638 9.06819 24.7929C9.43871 25.4345 10.1437 26.1923 10.6666 26.5725C11.0016 26.8161 11.4707 26.7419 11.7143 26.4069C11.9579 26.0719 11.8837 25.6028 11.5487 25.3593C11.1886 25.0975 10.6284 24.4952 10.3671 24.0428C10.2413 23.8249 10.0736 23.4402 9.93555 23.0564C9.86809 22.8687 9.81301 22.6959 9.77647 22.5591C9.74366 22.4362 9.73648 22.3856 9.73648 22.3856C9.73648 22.3856 9.73607 22.3922 9.73569 22.4044Z" fill="#036838"/>
<path d="M33.3132 21.8395C33.4614 21.4527 33.2681 21.019 32.8813 20.8707C32.4946 20.7224 32.0608 20.9158 31.9126 21.3026C31.7189 21.8078 31.1957 22.6426 30.7471 23.0917C30.5295 23.309 30.1361 23.622 29.7393 23.8976C29.5445 24.0329 29.3617 24.1502 29.2135 24.2356C29.106 24.2976 29.0439 24.3265 29.0194 24.3379C29.0039 24.3452 29.0036 24.3454 29.0163 24.3424C28.6128 24.436 28.3616 24.839 28.4552 25.2425C28.5488 25.646 28.9517 25.8972 29.3552 25.8036C29.5649 25.755 29.7946 25.632 29.9622 25.5354C30.1572 25.4231 30.3767 25.2812 30.595 25.1296C31.0241 24.8316 31.4996 24.4602 31.8076 24.1526C32.4099 23.5496 33.0469 22.5341 33.3132 21.8395Z" fill="#036838"/>
<path d="M37.6766 24.7504C37.8603 24.3791 37.7082 23.9293 37.3369 23.7456C36.9656 23.562 36.5158 23.7141 36.3321 24.0854C36.0425 24.6709 35.3634 25.5684 34.8314 26.0075C34.5741 26.2203 34.1214 26.5084 33.672 26.7502C33.4514 26.869 33.2467 26.9685 33.0831 27.0372C32.9738 27.0832 32.9106 27.1033 32.8844 27.1116L32.8807 27.1128L32.8701 27.1167L32.8893 27.1161C32.4757 27.1391 32.1592 27.4931 32.1822 27.9067C32.2053 28.3203 32.5593 28.6368 32.9729 28.6137C33.212 28.6004 33.4788 28.498 33.6644 28.42L34.383 28.0711C34.8727 27.8075 35.4214 27.466 35.7868 27.1639C36.5001 26.5749 37.3045 25.5027 37.6766 24.7504Z" fill="#036838"/>
<path d="M9.78717 43.2083C9.83872 42.7973 9.54733 42.4223 9.13634 42.3708C8.72534 42.3192 8.35038 42.6106 8.29883 43.0216C8.26171 43.3175 8.218 43.7915 8.20515 44.271C8.19308 44.7214 8.20377 45.2816 8.32306 45.6902C8.43917 46.0878 8.85561 46.316 9.25322 46.1999C9.65083 46.0838 9.87904 45.6673 9.76293 45.2697C9.71637 45.1102 9.6925 44.7634 9.70461 44.3112C9.71596 43.8879 9.75517 43.4634 9.78717 43.2083Z" fill="#036838"/>
<path d="M12.3876 45.5996C12.8014 45.5819 13.1512 45.9031 13.1688 46.317C13.1792 46.5593 13.2259 46.9586 13.3281 47.3302C13.4426 47.7465 13.5758 47.9374 13.6339 47.98C13.968 48.2249 14.0403 48.6942 13.7954 49.0283C13.5505 49.3624 13.0812 49.4347 12.7471 49.1898C12.2472 48.8234 12.0072 48.1838 11.8818 47.7281C11.7441 47.2276 11.6844 46.7135 11.6702 46.3808C11.6526 45.967 11.9737 45.6172 12.3876 45.5996Z" fill="#036838"/>
<path d="M24.1437 44.4842C23.9693 44.1085 23.5233 43.9453 23.1476 44.1197C22.7719 44.2941 22.6087 44.74 22.7831 45.1158C22.9233 45.4179 23.1751 45.8702 23.4936 46.28C23.7836 46.6533 24.2498 47.1526 24.8516 47.3004C25.2539 47.3991 25.6601 47.1531 25.7588 46.7508C25.8576 46.3486 25.6116 45.9424 25.2093 45.8436C25.1391 45.8264 24.9429 45.7006 24.678 45.3597C24.4415 45.0553 24.2457 44.7041 24.1437 44.4842Z" fill="#036838"/>
<path d="M28.2903 45.6686C28.666 45.4943 29.112 45.6575 29.2864 46.0332C29.4889 46.4696 29.9696 47.1413 30.5449 47.4695C30.9046 47.6748 31.0299 48.1328 30.8246 48.4926C30.6193 48.8524 30.1613 48.9776 29.8015 48.7724C28.8659 48.2386 28.2078 47.2723 27.9258 46.6647C27.7514 46.289 27.9146 45.843 28.2903 45.6686Z" fill="#036838"/>
<path d="M16.4174 49.404C16.317 49.0021 15.9098 48.7578 15.5079 48.8583C15.1061 48.9587 14.8617 49.3659 14.9622 49.7678C15.0468 50.106 15.2414 50.611 15.5865 51.0106C15.7639 51.216 16.0065 51.423 16.3244 51.542C16.6563 51.6662 17.0225 51.6759 17.3937 51.5527C17.7868 51.4221 17.9996 50.9976 17.8691 50.6045C17.7386 50.2114 17.3141 49.9986 16.921 50.1291C16.8696 50.1462 16.8543 50.1391 16.8507 50.1374C16.8345 50.1313 16.7881 50.1071 16.7219 50.0304C16.5798 49.8658 16.4669 49.6018 16.4174 49.404Z" fill="#036838"/>
<path d="M18.1657 45.0196C18.5735 45.0924 18.845 45.482 18.7722 45.8897C18.7364 46.0905 18.7314 46.3773 18.7937 46.5853C18.8227 46.6822 18.8546 46.7228 18.867 46.735C18.8696 46.738 18.8812 46.7513 18.9353 46.7568C19.3474 46.7988 19.6474 47.1669 19.6054 47.579C19.5635 47.991 19.1954 48.2911 18.7833 48.2491C18.3944 48.2095 18.0645 48.0508 17.8126 47.8018C17.5712 47.5633 17.4345 47.2753 17.3567 47.0154C17.2053 46.5096 17.2343 45.9694 17.2956 45.6262C17.3684 45.2184 17.7579 44.9468 18.1657 45.0196Z" fill="#036838"/>
<path d="M23.2082 48.9209C23.2082 48.5067 22.8724 48.1709 22.4582 48.1709C22.044 48.1709 21.7082 48.5067 21.7082 48.9209C21.7082 49.3035 21.8026 49.8033 22.0515 50.2455C22.3098 50.7044 22.7721 51.1544 23.4901 51.2388C23.9015 51.2871 24.2741 50.9928 24.3225 50.5814C24.3708 50.17 24.0765 49.7974 23.6651 49.749C23.549 49.7354 23.4516 49.6749 23.3587 49.5098C23.2564 49.328 23.2082 49.0903 23.2082 48.9209Z" fill="#036838"/>
<path d="M32.4557 35.0545C32.7602 35.3353 32.7794 35.8098 32.4986 36.1143C32.3131 36.3154 31.8725 36.6739 31.2737 36.9075C30.6803 37.139 30.0502 37.2002 29.7792 37.2028C29.365 37.2068 29.026 36.8743 29.022 36.4601C29.018 36.0459 29.3505 35.7069 29.7647 35.7029C29.9074 35.7015 30.3478 35.6586 30.7285 35.5101C30.9088 35.4398 31.0659 35.3494 31.1881 35.2649C31.2487 35.223 31.2983 35.1842 31.3355 35.1527C31.3541 35.1369 31.3688 35.1237 31.3795 35.1135C31.3849 35.1085 31.389 35.1045 31.3919 35.1015L31.3959 35.0974C31.6767 34.7929 32.1512 34.7737 32.4557 35.0545Z" fill="#036838"/>
<path d="M29.7792 37.7569C29.365 37.7529 29.026 38.0854 29.022 38.4996C29.018 38.9138 29.3505 39.2528 29.7647 39.2568C29.9074 39.2582 30.3478 39.301 30.7285 39.4495C30.9088 39.5199 31.0659 39.6103 31.1881 39.6947C31.2487 39.7366 31.2983 39.7754 31.3355 39.807C31.3439 39.8141 31.3515 39.8207 31.3582 39.8267C31.3665 39.834 31.3736 39.8406 31.3795 39.8462C31.3849 39.8512 31.389 39.8552 31.3919 39.8581C31.3946 39.8609 31.3959 39.8623 31.3959 39.8623C31.6767 40.1668 32.1512 40.186 32.4557 39.9052C32.7602 39.6244 32.7794 39.1499 32.4986 38.8454C32.3131 38.6442 31.8725 38.2858 31.2737 38.0521C30.6803 37.8206 30.0502 37.7595 29.7792 37.7569Z" fill="#036838"/>
<path d="M19.7924 34.5698C20.4133 34.5698 20.9165 35.0731 20.9165 35.6939C20.9165 36.3147 20.4133 36.8179 19.7924 36.8179C19.1717 36.8179 18.6684 36.3147 18.6684 35.6939C18.6684 35.0731 19.1717 34.5698 19.7924 34.5698Z" fill="#1A1A1A"/>
<path d="M10.8 34.5698C10.1792 34.5698 9.67596 35.0731 9.67596 35.6939C9.67596 36.3147 10.1792 36.8179 10.8 36.8179C11.4208 36.8179 11.9241 36.3147 11.9241 35.6939C11.9241 35.0731 11.4208 34.5698 10.8 34.5698Z" fill="#1A1A1A"/>
<path d="M17.6271 37L17.7033 37.0039C18.0816 37.0422 18.3771 37.3616 18.3771 37.75C18.3771 38.1384 18.0816 38.4578 17.7033 38.4961L17.6271 38.5L12.9689 38.5C12.5547 38.5 12.2189 38.1642 12.2189 37.75C12.2189 37.3358 12.5547 37 12.9689 37L17.6271 37Z" fill="#1A1A1A"/>
</svg>
