<svg width="48" height="55" viewBox="0 0 48 55" fill="none" xmlns="http://www.w3.org/2000/svg">
<path fill-rule="evenodd" clip-rule="evenodd" d="M29.997 21.8441C30.205 18.9481 28.125 15.9521 26.032 15.9521C23.985 15.9521 21.198 19.0472 19.401 21.4882H14.083C8.61704 21.4882 0.666016 24.5212 0.666016 30.6012C0.666016 39.3522 5.90304 46.3181 14.083 46.3181H19.531C21.33 50.2231 24.033 55.0002 26.032 55.0002C28.105 55.0002 30.387 51.0122 30.125 46.0152C35.299 45.1872 39 42.3532 39 33.9032C39 25.9432 35.239 22.8071 29.997 21.8441Z" fill="#7DA0C7"/>
<path opacity="0.7" d="M30.573 30.9139C31.195 37.7719 28.273 43.6419 17.204 44.6469C9.19802 45.3739 2.204 40.4039 1.581 33.5469C0.959001 26.6889 6.11001 33.1349 14.116 32.4089C22.122 31.6819 29.95 24.0569 30.573 30.9139Z" fill="#AFD8FF"/>
<path d="M26.057 34.6752C26.513 39.6972 24.159 44.0162 15.363 44.8142C9.00005 45.3922 3.47304 41.7892 3.01704 36.7672C2.56104 31.7442 6.61604 36.4402 12.979 35.8622C19.341 35.2842 25.601 29.6532 26.057 34.6752Z" fill="#D3EDFF"/>
<path fill-rule="evenodd" clip-rule="evenodd" d="M30.127 46.0605C30.3729 51.0364 28.0982 54.9998 26.0322 55L25.8438 54.9863C23.8741 54.7052 21.2947 50.1397 19.5527 46.3643H14.083L13.7021 46.3594C5.86711 46.15 0.827832 39.4791 0.669922 31.0566L0.666016 30.6484C0.666016 24.7585 8.12772 21.7267 13.5635 21.543L14.083 21.5342H19.1992L19.5459 21.002C21.3441 18.2967 24.0391 15 26.0322 15L26.2334 15.0107C28.3129 15.2222 30.3058 18.656 29.9746 21.8867C35.2276 22.8447 39 25.9792 39 33.9492L38.9893 34.7246C38.7675 42.5741 35.1393 45.2574 30.127 46.0605ZM23.958 51.2949C22.8801 49.724 21.799 47.6512 20.915 45.7363L20.5127 44.8643H14.083C6.99315 44.8642 2.16618 38.8582 2.16602 30.6484C2.16602 28.3644 3.63941 26.4952 6.06641 25.1152C8.48837 23.7383 11.5821 23.0342 14.083 23.0342H20.0195L20.4619 22.3438C21.3269 20.9938 22.4462 19.4458 23.5752 18.2559C24.1411 17.659 24.6727 17.1918 25.1416 16.8828C25.6326 16.5598 25.9212 16.5 26.0322 16.5C26.2954 16.5001 26.9728 16.7995 27.6416 17.9482C28.2191 18.9401 28.5731 20.2384 28.5029 21.4854L28.4834 21.7344L28.3418 23.1143L29.7061 23.3623C32.1179 23.8023 34.0066 24.7071 35.3096 26.2539C36.6126 27.8019 37.5 30.1942 37.5 33.9492C37.5 37.9741 36.6174 40.3975 35.3564 41.8975C33.9756 43.5392 31.9371 44.2222 29.8896 44.5801L28.5635 44.792L28.6289 46.1348C28.7399 48.3888 28.2756 50.3674 27.6016 51.7324C27.2636 52.4171 26.8981 52.8986 26.5762 53.1875C26.2742 53.4592 26.0908 53.4938 26.042 53.498L26.0392 53.4971C26.001 53.484 25.8057 53.417 25.4375 53.085C25.0015 52.692 24.499 52.0849 23.958 51.2949Z" fill="#1A1A1A"/>
<path d="M22.4129 25.2302C23.1406 25.2614 23.9667 25.463 24.697 26.0017C25.4372 26.5476 26.0191 27.3953 26.3181 28.6061L26.4011 28.989C26.7546 30.871 26.1816 32.2857 25.365 33.2263L25.2625 33.3376C24.1836 34.4536 22.5453 34.2951 21.4002 33.9108L19.574 33.3005C19.1813 33.1691 18.9691 32.744 19.1004 32.3513C19.2318 31.9586 19.6569 31.7465 20.0496 31.8776L21.8758 32.489L22.0701 32.5495C22.9604 32.8075 23.7095 32.7345 24.1443 32.3337L24.2332 32.2419C24.7627 31.6317 25.195 30.6745 24.9256 29.2556L24.8621 28.9655C24.6361 28.0509 24.2313 27.5214 23.8074 27.2087C23.3737 26.8888 22.8575 26.7501 22.3494 26.7282H22.2439C21.7168 26.7491 21.182 27.0953 20.6707 27.6745L19.1775 29.3659C18.9034 29.6763 18.4294 29.7053 18.1189 29.4313C17.8085 29.1572 17.7785 28.6833 18.0525 28.3727L19.5457 26.6813C20.1884 25.9533 21.1641 25.1765 22.4129 25.2302Z" fill="#1A1A1A"/>
<path d="M13.6995 28.3608C14.2518 28.3608 14.6995 28.8645 14.6995 29.4858C14.6995 30.1072 14.2518 30.6108 13.6995 30.6108C13.1472 30.6108 12.6995 30.1072 12.6995 29.4858C12.6995 28.8645 13.1472 28.3608 13.6995 28.3608Z" fill="#1A1A1A"/>
<path d="M5.69965 28.3608C5.14736 28.3608 4.69965 28.8645 4.69965 29.4858C4.69965 30.1072 5.14736 30.6108 5.69965 30.6108C6.25193 30.6108 6.69965 30.1072 6.69965 29.4858C6.69965 28.8645 6.25193 28.3608 5.69965 28.3608Z" fill="#1A1A1A"/>
<path fill-rule="evenodd" clip-rule="evenodd" d="M7.22386 30.908C7.54326 30.6443 8.01599 30.6894 8.27971 31.0088C9.04425 31.9348 10.4525 31.9688 11.2607 31.0808L11.3507 30.9818C11.6293 30.6753 12.1036 30.6528 12.4101 30.9314C12.7166 31.21 12.7392 31.6844 12.4606 31.9909L12.3706 32.0899C10.9477 33.6536 8.46885 33.5938 7.12304 31.9639C6.85931 31.6445 6.90445 31.1717 7.22386 30.908Z" fill="#1A1A1A"/>
</svg>
