<svg width="48" height="55" viewBox="0 0 48 55" fill="none" xmlns="http://www.w3.org/2000/svg">
<path d="M28.05 20.396L28.035 20.397C26.041 20.452 23.258 21.638 19.786 23.669C16.783 25.426 13.353 27.761 9.59802 30.387L28.189 32.804C29.171 30.878 30.359 27.665 30.672 24.929C30.842 23.442 30.735 22.249 30.342 21.481C30.156 21.119 29.906 20.849 29.568 20.667C29.221 20.48 28.733 20.362 28.05 20.396Z" fill="#FF99E0"/>
<path fill-rule="evenodd" clip-rule="evenodd" d="M38.065 27.1542C38.869 23.9312 42.301 22.7322 44.692 24.8392C46.257 26.2172 46.72 28.4022 46.204 30.2302C46.064 30.7282 46.227 31.2812 46.606 31.6342C47.452 32.4242 48 33.5501 48 34.8571C48 38.4801 43.88 40.5641 40.962 38.4161L39.283 37.1811C31.936 45.8301 17.454 54.9322 9.19804 54.9322C0.435036 54.9322 -0.13297 40.7351 0.90203 31.0601C1.07303 29.4581 2.53603 28.3411 4.13703 28.5211L36.81 32.1801L38.065 27.1542Z" fill="#FFBDF2"/>
<path fill-rule="evenodd" clip-rule="evenodd" d="M28.2998 19.6401C28.9539 19.643 29.4916 19.7735 29.9239 20.0063L29.9229 20.0073C30.35 20.2373 30.6725 20.5637 30.9112 20.9624L31.0088 21.1382L31.0098 21.1392L31.0977 21.3257C31.5146 22.2798 31.5812 23.5777 31.417 25.0142L31.3457 25.5532C31.0508 27.5239 30.3688 29.65 29.6572 31.3784L36.8096 32.1802L38.0655 27.1538C38.8696 23.9311 42.3015 22.7325 44.6924 24.8394C46.257 26.2173 46.72 28.4022 46.2041 30.23C46.0642 30.7279 46.2275 31.2813 46.6065 31.6343C47.4522 32.4242 48 33.5502 48 34.8569L47.9883 35.1919C47.7518 38.4957 44.0404 40.3729 41.2393 38.605L40.9619 38.4155L39.2832 37.1812C31.9363 45.83 17.4543 54.9319 9.19827 54.9321L8.79299 54.9214C0.417705 54.4889 -0.116431 40.5838 0.902366 31.0601C1.07343 29.4582 2.53589 28.3412 4.13674 28.521L10.0205 29.1792C13.4466 26.7934 16.6059 24.661 19.4072 23.022L20.0508 22.6499C23.2339 20.8396 25.9385 19.7079 28.0059 19.6479L28.0127 19.647L28.2998 19.6401ZM43.7012 25.9644C42.9064 25.2646 42.0172 25.1558 41.2783 25.4136C40.5284 25.6756 39.8076 26.3642 39.5196 27.5171L38.2647 32.5425C38.0827 33.2725 37.3896 33.7534 36.6426 33.6704L3.96975 30.0112C3.15192 29.9204 2.47166 30.4864 2.3926 31.2192C1.88265 35.991 1.78505 41.7649 2.83694 46.2837C3.3629 48.5445 4.14837 50.3604 5.19827 51.5864C6.20426 52.7604 7.47628 53.4321 9.19827 53.4321C12.9002 53.432 18.2889 51.3399 23.8067 48.0151C29.2696 44.7241 34.5927 40.3855 38.1397 36.2095L38.2403 36.103C38.7256 35.6322 39.4696 35.5459 40.0498 35.8921L40.1719 35.9731L41.8506 37.2075C43.7776 38.6265 46.5 37.2499 46.5 34.8569C46.5 33.988 46.14 33.2519 45.5821 32.731C44.8081 32.008 44.4618 30.8797 44.7608 29.8228L44.8233 29.5679C45.0916 28.283 44.7096 26.854 43.7012 25.9644ZM28.0869 21.145L28.086 21.144L28.085 21.145C28.0754 21.1457 28.0653 21.1467 28.0557 21.147L27.711 21.1685C26.0591 21.3249 23.7556 22.2707 20.8067 23.9458L20.1641 24.3159C17.7987 25.6999 15.1615 27.4541 12.291 29.4341L28.0977 31.2036C28.8924 29.3607 29.6866 26.9423 29.9268 24.8433C30.0915 23.402 29.9645 22.3909 29.6739 21.8228C29.5796 21.6398 29.4723 21.5086 29.3457 21.4126L29.2119 21.3276L29.1299 21.2876C28.922 21.196 28.5943 21.1198 28.0869 21.145Z" fill="#1A1A1A"/>
<path d="M33.857 36.9331C33.857 39.2121 24.493 48.0721 20.486 48.0721C16.48 48.0721 14.5321 45.1371 17.0661 41.2221C12.4591 36.9331 17.007 33.4111 21.013 33.4111C25.019 33.4111 33.857 34.6531 33.857 36.9331Z" fill="#FF99E0"/>
<path d="M23.5742 40.4456C23.5742 38.7256 23.0937 37.8663 22.6406 37.4447C22.3847 37.2193 22.1039 37.1677 21.7647 37.2855C21.3932 37.4145 20.9811 37.7082 20.626 38.0794L19.542 39.2142C19.256 39.5134 18.7819 39.5243 18.4824 39.2386C18.1829 38.9525 18.1719 38.4776 18.458 38.1781L19.7198 36.8646C20.1501 36.453 20.687 36.0719 21.2725 35.8685C21.9646 35.6282 22.7902 35.6244 23.5 36.2044L23.499 36.2054C24.4277 36.9639 25.0742 38.3131 25.0742 40.4456C25.0742 41.7775 24.83 43.0637 24.2276 44.2523C23.671 45.2618 22.7095 45.6085 21.7676 45.5169C20.8713 45.4297 19.977 44.9571 19.2969 44.3294L18.7031 43.7796C18.399 43.4985 18.3801 43.0242 18.6612 42.72C18.9422 42.416 19.4165 42.3972 19.7207 42.6781L20.3155 43.2269C20.8163 43.6891 21.4162 43.9764 21.9131 44.0247C22.507 44.0824 22.8044 43.7439 23.0469 43.2659C23.3467 42.6177 23.5742 41.705 23.5742 40.4456Z" fill="#1A1A1A"/>
<path d="M12.864 41.7979C13.4162 41.7979 13.864 42.3015 13.864 42.9229C13.864 43.5442 13.4162 44.0479 12.864 44.0479C12.3117 44.0478 11.864 43.5442 11.864 42.9229C11.864 42.3015 12.3117 41.7979 12.864 41.7979Z" fill="#1A1A1A"/>
<path d="M4.86407 41.7979C4.31179 41.7979 3.86407 42.3015 3.86407 42.9229C3.86407 43.5442 4.31179 44.0479 4.86407 44.0479C5.41636 44.0478 5.86407 43.5442 5.86407 42.9229C5.86407 42.3015 5.41636 41.7979 4.86407 41.7979Z" fill="#1A1A1A"/>
<path fill-rule="evenodd" clip-rule="evenodd" d="M6.38658 44.6883C6.70598 44.4246 7.17871 44.4697 7.44243 44.7891C8.20697 45.7151 9.61519 45.7491 10.4234 44.8611L10.5134 44.7621C10.792 44.4556 11.2663 44.433 11.5728 44.7117C11.8793 44.9903 11.9019 45.4646 11.6233 45.7711L11.5333 45.8701C10.1105 47.4339 7.63157 47.3741 6.28576 45.7441C6.02203 45.4247 6.06717 44.952 6.38658 44.6883Z" fill="#1A1A1A"/>
</svg>
