<svg width="48" height="55" viewBox="0 0 48 55" fill="none" xmlns="http://www.w3.org/2000/svg">
<path d="M23.4721 30.7197C23.1431 29.9597 22.7701 29.2097 22.4111 28.4897C22.2341 28.1397 22.0591 27.7897 21.8951 27.4497C21.3161 26.2397 20.8401 25.1097 20.6321 23.9797C20.4281 22.8597 20.4821 21.7397 20.9761 20.5697C21.4751 19.3697 22.4441 18.0697 24.1541 16.6197C24.2261 16.5597 24.3391 16.5597 24.4151 16.6197C26.2001 18.1197 27.2431 19.4598 27.8121 20.6698C28.3761 21.8698 28.4931 22.9897 28.3611 24.0897C28.2261 25.2097 27.8331 26.3197 27.3481 27.5097C27.2321 27.7897 27.1111 28.0797 26.9871 28.3797C26.6721 29.1297 26.3421 29.9097 26.0621 30.7197H23.4721Z" fill="#FFCD29"/>
<path d="M23.7421 15.9919C24.0469 15.7812 24.4381 15.7754 24.7451 15.9421L24.8798 16.0309L24.8974 16.0456C26.7374 17.5918 27.8626 19.0145 28.4912 20.3512C29.121 21.6915 29.2523 22.955 29.1054 24.1794C28.9577 25.4047 28.5318 26.593 28.0429 27.7926L28.041 27.7965C27.9235 28.0801 27.805 28.3658 27.6806 28.6667L27.6787 28.6706L27.0517 28.4059L26.9873 28.3796L27.6787 28.6706C27.3615 29.4256 27.041 30.1819 26.7705 30.9645C26.666 31.2666 26.3821 31.4692 26.0625 31.4694H23.4716C23.2101 31.4693 22.9703 31.3337 22.8349 31.1159L22.7841 31.0182L22.5361 30.4655C22.282 29.9141 22.0103 29.3665 21.7402 28.8249V28.8239L21.2197 27.776L21.2187 27.7731L21.8955 27.4499L22.0078 27.3942L21.2187 27.7731C20.6355 26.5542 20.1216 25.3493 19.8945 24.1159L20.8779 23.9342L19.8945 24.1139C19.6687 22.8739 19.7258 21.6028 20.2851 20.278C20.8439 18.9363 21.9019 17.5459 23.6689 16.0475L23.6738 16.0436L23.7421 15.9919ZM24.2861 17.4987C22.8604 18.7696 22.0761 19.8789 21.6689 20.8581L21.667 20.862L20.9882 20.5749L20.9755 20.57L21.667 20.862C21.2386 21.8766 21.1882 22.845 21.3701 23.8444L21.4521 24.2301C21.6702 25.1354 22.0679 26.0737 22.5703 27.1237C22.7312 27.4574 22.9039 27.8028 23.08 28.151L23.082 28.1549C23.3704 28.7334 23.6737 29.345 23.958 29.9694H25.5361C25.7806 29.314 26.0466 28.6831 26.2959 28.0895C26.4189 27.7919 26.5413 27.4984 26.6552 27.2233C27.1355 26.0446 27.494 25.0131 27.6162 23.9997C27.7331 23.0244 27.6316 22.0482 27.1337 20.9889C26.6602 19.9819 25.7952 18.8246 24.2861 17.4987ZM19.8945 24.1159V24.1139L20.6318 23.9801L19.8945 24.1159Z" fill="#1A1A1A"/>
<path d="M25.6321 30.5399C25.7251 29.7199 25.7761 28.8798 25.8251 28.0798C25.8491 27.6798 25.8731 27.2899 25.9021 26.9099C26.0011 25.5799 26.1561 24.3599 26.5431 23.2799C26.9231 22.2099 27.5281 21.2698 28.5461 20.4998C29.5731 19.7098 31.0661 19.0699 33.2701 18.6699C33.3631 18.6499 33.4621 18.7099 33.4961 18.7999C34.2921 20.9899 34.5271 22.6698 34.4141 24.0098C34.3011 25.3298 33.8441 26.3498 33.1791 27.2398C32.5031 28.1398 31.6061 28.9098 30.5911 29.6998C30.3501 29.8798 30.1001 30.0698 29.8461 30.2698C29.1971 30.7598 28.5191 31.2698 27.8751 31.8298L25.6321 30.5399Z" fill="#FFCD29"/>
<path d="M28.3673 32.3956C28.1261 32.6053 27.7783 32.6389 27.5011 32.4796L27.8752 31.8301L28.3673 32.3956ZM33.1359 17.9337C33.6205 17.8417 34.049 18.1422 34.1974 18.5352L33.4826 18.8038L33.4963 18.7999L34.1974 18.5352L34.2013 18.544C35.0217 20.8011 35.2861 22.5935 35.1613 24.0733V24.0743L34.6759 24.0323L34.4084 24.0098L35.1613 24.0743C35.035 25.549 34.5184 26.6996 33.7795 27.6885L33.7785 27.6905L33.4914 28.0518C32.7977 28.879 31.9479 29.5947 31.0519 30.2921C31.0481 30.2951 31.0441 30.2979 31.0402 30.3008L30.3097 30.8594L30.298 30.8682C29.6448 31.3614 28.9882 31.8557 28.3673 32.3956L27.8752 31.8292L27.5011 32.4796L25.258 31.1905C24.9989 31.0415 24.8532 30.7521 24.8869 30.4551C24.9773 29.658 25.0271 28.8378 25.0763 28.0342C25.1003 27.6345 25.125 27.2391 25.1545 26.8526C25.2544 25.5108 25.4145 24.207 25.8371 23.0274C26.2586 21.8411 26.9429 20.7721 28.0939 19.9014C29.2449 19.0178 30.8609 18.3446 33.1359 17.9317V17.9337ZM32.9445 19.4971C31.0749 19.8844 29.8391 20.4517 29.0031 21.0948L28.9982 21.0977C28.1138 21.7667 27.5886 22.5782 27.2502 23.5313L27.2492 23.5333C26.8982 24.513 26.7476 25.6485 26.6496 26.9659L26.1506 26.9288H26.1632L26.6496 26.9659V26.9669C26.6211 27.3401 26.5974 27.725 26.5734 28.1251L25.8468 28.0811L25.8244 28.0801L26.5734 28.126C26.5341 28.7675 26.4915 29.4501 26.4269 30.1319L27.7931 30.9171C28.3322 30.472 28.88 30.0588 29.3937 29.671C29.6499 29.4694 29.9011 29.2785 30.1418 29.0987C31.1427 28.3191 31.9688 27.6019 32.5793 26.7891C33.1693 25.9989 33.5663 25.1109 33.6662 23.9473L33.6818 23.7178C33.7355 22.6367 33.5454 21.2708 32.9445 19.4971ZM33.2668 18.6563L33.3048 18.8682L33.2697 18.67L33.2668 18.6563Z" fill="#1A1A1A"/>
<path d="M27.8281 31.98C28.2641 31.28 28.6701 30.55 29.0601 29.84C29.2531 29.5 29.4431 29.1499 29.6321 28.8199C30.2951 27.6699 30.9601 26.6299 31.7761 25.8199C32.5801 25.0199 33.5311 24.43 34.7831 24.17C36.0471 23.91 37.6721 23.97 39.8341 24.56C39.9251 24.58 39.9901 24.67 39.9811 24.77C39.7561 27.09 39.2441 28.71 38.5661 29.87C37.8961 31.01 37.0411 31.74 36.0591 32.25C35.0591 32.78 33.9201 33.08 32.6651 33.36C32.3661 33.42 32.0601 33.48 31.7471 33.55C30.9491 33.71 30.1151 33.89 29.2941 34.11L27.8281 31.98Z" fill="#FFCD29"/>
<path d="M29.4882 34.8339C29.1816 34.9161 28.8567 34.7965 28.6767 34.5351L29.2939 34.1103L29.4882 34.8339ZM34.6318 23.4354C36.0366 23.1465 37.7739 23.2265 39.9941 23.828C40.0004 23.8294 40.0074 23.8314 40.0136 23.8329C40.0194 23.8345 40.0254 23.8352 40.0312 23.8368L40.0302 23.8378C40.4906 23.9575 40.7681 24.395 40.7285 24.8368L40.7275 24.8427L40.0371 24.7743L39.9746 24.7685L40.7275 24.8427C40.4956 27.2334 39.9624 28.967 39.2138 30.2479L38.3554 29.746L38.5664 29.87L39.2138 30.2479L39.2128 30.2499C38.4648 31.5226 37.5003 32.3472 36.4052 32.9159L36.4042 32.9149C35.3091 33.4942 34.0854 33.8112 32.8281 34.0917L32.663 33.3554L32.665 33.3603L32.8281 34.0917C32.8229 34.0928 32.8176 34.0946 32.8124 34.0956C32.5092 34.1565 32.2137 34.2144 31.9111 34.2821L31.8945 34.2851C31.1028 34.4438 30.2867 34.6199 29.4882 34.8339L29.2939 34.1093L28.6767 34.5351L27.2099 32.4052C27.0408 32.1594 27.0336 31.8361 27.1914 31.5829L27.5048 31.0673C27.8138 30.5459 28.1099 30.0107 28.4023 29.4784L28.4081 29.4696L28.9814 28.4472L28.9824 28.4452C29.6497 27.2878 30.3556 26.173 31.247 25.288C32.138 24.4015 33.2155 23.7294 34.6308 23.4354H34.6318ZM39.1826 25.1659C37.3305 24.7103 35.9673 24.6909 34.9345 24.9032L34.9355 24.9042C33.8469 25.1303 33.0216 25.638 32.3046 26.3515V26.3524C31.5644 27.0872 30.9407 28.0521 30.2822 29.1942C30.0864 29.5361 29.9261 29.8311 29.7167 30.2001C29.4023 30.7725 29.0714 31.368 28.7206 31.954L29.6152 33.2528C30.288 33.0859 30.9588 32.9428 31.5996 32.8144C31.9114 32.7449 32.2167 32.685 32.5019 32.6278L33.4033 32.4149C34.2691 32.1952 35.0304 31.9459 35.708 31.5868L36.083 32.2968L36.0595 32.2499L35.708 31.5868L35.7138 31.5839C36.5825 31.1327 37.328 30.4972 37.9199 29.4901C38.4835 28.5251 38.9448 27.1569 39.1826 25.1659Z" fill="#1A1A1A"/>
<path d="M29.0371 34.1297C29.7401 33.6997 30.4291 33.2197 31.0931 32.7697C31.4221 32.5397 31.7451 32.3197 32.0611 32.1097C33.1721 31.3697 34.2281 30.7497 35.3231 30.3797C36.3991 30.0297 37.5131 29.9297 38.7491 30.2497C39.9971 30.5797 41.4251 31.3597 43.0941 32.8597C43.1641 32.9197 43.1821 33.0297 43.1291 33.1197C41.8901 35.0897 40.7091 36.3097 39.5851 37.0397C38.4741 37.7597 37.3831 38.0297 36.2751 38.0497C35.1471 38.0797 33.9911 37.8397 32.7461 37.5197C32.4501 37.4497 32.1481 37.3697 31.8401 37.2797C31.0521 37.0797 30.2281 36.8596 29.3941 36.6896L29.0371 34.1297Z" fill="#FFCD29"/>
<path d="M35.0909 29.6666C36.2079 29.3033 37.3862 29.1783 38.6778 29.4616L38.9376 29.5241L38.9405 29.525C40.3363 29.8941 41.8676 30.7492 43.5958 32.3024C43.9519 32.6188 43.995 33.1278 43.7755 33.5006C43.7718 33.5069 43.7676 33.513 43.7637 33.5192C42.4873 35.5486 41.2359 36.8615 39.9932 37.6686L39.1768 36.4108C40.1114 35.8037 41.1361 34.7862 42.2413 33.111C40.7904 31.8719 39.5799 31.2463 38.5616 30.9762L38.3604 30.9274C37.3636 30.708 36.4581 30.7994 35.5587 31.0914C34.5608 31.4293 33.572 32.0044 32.4766 32.734L31.5225 33.3844L31.5137 33.3912L31.5128 33.3903C30.987 33.7466 30.4235 34.1362 29.8467 34.5055L30.0645 36.068C30.7423 36.2213 31.4067 36.3966 32.0245 36.5534C32.0331 36.5556 32.0423 36.5577 32.0508 36.5602L31.8399 37.2799L31.836 37.2926L32.0508 36.5602C32.3469 36.6467 32.6364 36.7229 32.919 36.7897C32.9236 36.7908 32.9281 36.7924 32.9327 36.7936C34.1683 37.1112 35.2384 37.3274 36.2549 37.3004L36.2755 38.07V38.0495L36.2549 37.3004H36.2618C37.2438 37.2827 38.1951 37.0468 39.1768 36.4108L39.9932 37.6686C38.7549 38.4711 37.526 38.7754 36.294 38.7985L36.295 38.7995C36.293 38.7995 36.2911 38.7984 36.2891 38.7985C35.0522 38.8303 33.8115 38.5685 32.5596 38.2467C32.2596 38.1755 31.9545 38.0939 31.6446 38.0036C30.8477 37.8012 30.0518 37.5891 29.2442 37.4245C28.9329 37.3609 28.6954 37.1083 28.6514 36.7936L28.294 34.233C28.253 33.9376 28.3911 33.6456 28.6456 33.4899C29.329 33.0718 29.9967 32.6067 30.6719 32.1491L31.6466 31.485C32.7712 30.736 33.8929 30.0717 35.0831 29.6696L35.3106 30.3424L35.2989 30.3063L35.0831 29.6696L35.0909 29.6666ZM43.0841 32.8707L42.961 33.0143L43.0938 32.86L43.0841 32.8707Z" fill="#1A1A1A"/>
<path d="M29.36 36.2201C30.183 36.1901 31.015 36.1202 31.816 36.0502C32.214 36.0102 32.604 35.9801 32.981 35.9501C34.312 35.8501 35.54 35.8201 36.672 36.0401C37.785 36.2501 38.805 36.7101 39.723 37.6001C40.65 38.5001 41.513 39.8801 42.238 42.0001C42.268 42.0901 42.229 42.1901 42.141 42.2401C40.095 43.3601 38.469 43.8402 37.132 43.9302C35.808 44.0102 34.725 43.72 33.748 43.1901C32.755 42.6601 31.862 41.8901 30.932 41.0001C30.711 40.7901 30.486 40.5701 30.257 40.3501C29.673 39.7801 29.061 39.1901 28.416 38.6301L29.36 36.2201Z" fill="#FFCD29"/>
<path d="M32.9249 35.2019C34.2664 35.1011 35.5764 35.0643 36.8106 35.3035C37.9721 35.5226 39.0641 35.9927 40.0499 36.8787L40.2452 37.0613C41.2168 38.0046 42.0821 39.3782 42.8048 41.3543L42.9474 41.7576L42.9493 41.7625C43.0984 42.2097 42.895 42.6746 42.5118 42.8923L42.1407 42.24L42.1427 42.2429L42.5118 42.8923L42.5011 42.8982L42.1095 43.1072C40.175 44.1171 38.5663 44.5853 37.1827 44.6785H37.1778C35.7055 44.7674 34.4832 44.442 33.3907 43.8494V43.8484C32.3055 43.2683 31.3528 42.441 30.4151 41.5437L29.7374 40.8904L30.2257 40.3816L30.1983 40.4089L29.7374 40.8904L29.7335 40.8865L28.8458 40.032C28.5449 39.7486 28.2385 39.4683 27.9249 39.196C27.6853 38.988 27.6021 38.6517 27.7179 38.3562L28.6622 35.946L28.7101 35.8464C28.8376 35.6243 29.072 35.48 29.3331 35.4705C30.1347 35.4412 30.9495 35.3725 31.7511 35.3025V35.3035C32.1552 35.263 32.5509 35.2314 32.922 35.2019H32.9249ZM31.88 36.7966C31.236 36.8529 30.5602 36.9088 29.881 36.9451L29.3038 38.4168C29.8206 38.8829 30.3147 39.3578 30.7813 39.8132H30.7804C31.0154 40.0391 31.2294 40.2478 31.4483 40.4558L31.4503 40.4578C32.3707 41.3386 33.2035 42.0487 34.1017 42.5281L34.1056 42.531C34.9658 42.9977 35.9089 43.2515 37.0821 43.1814L37.3106 43.1619C38.385 43.0525 39.7076 42.6632 41.3702 41.8005C40.7078 40.0121 39.9573 38.8734 39.2003 38.1384C38.4008 37.3634 37.5203 36.9634 36.5333 36.7771L36.6905 35.946L36.6563 36.1179L36.5333 36.7771L36.5294 36.7761L36.1378 36.7117C35.2117 36.5834 34.1912 36.6113 33.0372 36.698L33.0362 36.697C32.6577 36.7271 32.2777 36.7577 31.8907 36.7966L31.881 36.7976L31.88 36.7966ZM31.8194 36.0876L31.8155 36.0525L31.8741 36.7293L31.8194 36.0876Z" fill="#1A1A1A"/>
<path d="M28.3249 38.3301C29.0769 38.6601 29.8559 38.9701 30.6059 39.2601C30.9779 39.4001 31.3429 39.5402 31.6939 39.6802C32.9319 40.1802 34.0459 40.7001 34.9629 41.4001C35.8659 42.0901 36.5769 42.9501 37.0059 44.1501C37.4389 45.3701 37.6019 46.9901 37.3129 49.2101C37.3009 49.3001 37.2179 49.3801 37.1189 49.3801C34.7899 49.4801 33.1169 49.1902 31.8799 48.6802C30.6549 48.1702 29.8159 47.4201 29.1729 46.5201C28.5179 45.6001 28.0599 44.5102 27.6179 43.3102C27.5129 43.0202 27.4079 42.7202 27.3019 42.4202C27.0289 41.6602 26.7439 40.8501 26.4099 40.0701L28.3249 38.3301Z" fill="#FFCD29"/>
<path d="M27.8202 37.7751C28.0392 37.5761 28.3558 37.5243 28.6268 37.6433C29.3636 37.9666 30.1307 38.2718 30.8768 38.5603C31.2494 38.7005 31.6164 38.8415 31.9715 38.9831L31.7332 39.5808L31.7645 39.5046L31.9715 38.9831L31.9744 38.9841C33.2249 39.4891 34.4172 40.0397 35.4178 40.8034L35.4188 40.8044C36.4186 41.5685 37.227 42.5415 37.7118 43.8972L36.7196 44.2507L37.7127 43.8991C38.1965 45.2623 38.3556 47.0083 38.0565 49.3064V49.3093L37.3289 49.2116L37.1639 49.1901L38.0565 49.3093C37.9986 49.7421 37.6299 50.1121 37.1502 50.1276L37.1512 50.1296C34.7486 50.2328 32.9601 49.9366 31.5946 49.3737L31.9315 48.5564L31.5916 49.3728C30.2237 48.8033 29.2775 47.9568 28.5623 46.9558C27.8457 45.9492 27.3592 44.778 26.9139 43.5691L26.9129 43.5651L27.5448 43.3357L27.618 43.3093L26.9129 43.5651C26.8066 43.2715 26.6995 42.9667 26.5946 42.6696C26.3882 42.095 26.1813 41.5099 25.9549 40.9362L25.7205 40.3649L25.6825 40.2526C25.6157 39.9875 25.6991 39.7024 25.9061 39.5144L27.8202 37.7751ZM31.5946 49.3737L31.5916 49.3728L31.8797 48.6804L31.5946 49.3737ZM27.3026 40.2712C27.3988 40.5118 27.4929 40.7521 27.5819 40.9909L28.0077 42.1667L28.0096 42.1696C28.1162 42.4712 28.2189 42.7654 28.3221 43.0505L28.6522 43.9099C28.9858 44.7349 29.3384 45.4589 29.783 46.0837C30.3534 46.882 31.0852 47.5356 32.1659 47.986C33.1965 48.411 34.6156 48.6856 36.6229 48.6442C36.8205 46.7514 36.653 45.3984 36.2996 44.4021C35.9264 43.3583 35.3135 42.6115 34.5077 41.9958L34.1864 41.7644C33.413 41.2376 32.4854 40.8079 31.4129 40.3747C31.069 40.2376 30.7097 40.1001 30.3416 39.9616L30.3358 39.9597L29.1844 39.5046C28.9467 39.4083 28.7087 39.3092 28.4715 39.2087L27.3026 40.2712ZM37.7127 43.8991L37.0057 44.1501L37.7118 43.8972L37.7127 43.8991Z" fill="#1A1A1A"/>
<path d="M26.7121 39.7998C27.2021 40.4598 27.732 41.1097 28.243 41.7297C28.496 42.0397 28.7441 42.3398 28.9811 42.6398C29.8141 43.6798 30.53 44.6797 30.986 45.7397C31.435 46.7797 31.6321 47.8798 31.4141 49.1398C31.1941 50.4098 30.5411 51.8997 29.1981 53.6897C29.1411 53.7697 29.031 53.7998 28.943 53.7498C26.868 52.6898 25.5521 51.6198 24.7261 50.5598C23.9091 49.5198 23.5451 48.4597 23.4281 47.3497C23.3091 46.2297 23.4441 45.0598 23.6511 43.7898C23.7001 43.4898 23.7541 43.1798 23.8081 42.8698C23.9481 42.0598 24.0951 41.2298 24.1881 40.3798L26.7121 39.7998Z" fill="#FFCD29"/>
<path d="M26.5437 39.0694C26.834 39.0027 27.1367 39.1136 27.3142 39.3526C27.553 39.6742 27.8021 39.9945 28.0555 40.3116L28.8221 41.253L28.824 41.2559C29.0718 41.5596 29.3253 41.8662 29.5662 42.171C30.4079 43.2218 31.177 44.2861 31.6746 45.4425C32.1729 46.5966 32.3994 47.8443 32.1531 49.2677L32.1014 49.5362C31.8154 50.8851 31.1047 52.3931 29.8084 54.1241C29.5532 54.4822 29.0464 54.6492 28.6023 54.4161V54.4181C26.4652 53.3263 25.0499 52.1947 24.1365 51.0235L23.9705 50.8048C23.1727 49.7112 22.8045 48.5866 22.6824 47.4288L24.1736 47.2716C24.271 48.1948 24.5561 49.0638 25.1853 49.9249L25.3162 50.0968L25.3182 50.0987C26.0047 50.9798 27.1042 51.9122 28.8709 52.8643C29.9767 51.3108 30.4949 50.0492 30.6746 49.0118C30.8406 48.0523 30.7336 47.2033 30.4363 46.3858L30.2976 46.0372L30.2967 46.0362C29.8823 45.073 29.2193 44.1373 28.3953 43.1085L28.3924 43.1046C28.161 42.8117 27.92 42.521 27.6639 42.2071L26.8836 41.2481C26.7234 41.0476 26.5644 40.8438 26.407 40.6388L24.867 40.9923C24.7747 41.6836 24.6573 42.3568 24.5467 42.9972C24.4925 43.3079 24.4396 43.6158 24.3914 43.9112C24.1861 45.1707 24.0659 46.2577 24.1736 47.2716L23.4285 47.3497L22.6824 47.4288C22.5522 46.2029 22.7023 44.9491 22.9109 43.669L23.0691 42.7413C23.2102 41.925 23.3523 41.1198 23.4422 40.2979C23.477 39.9808 23.7093 39.72 24.0203 39.6485L26.5437 39.0694Z" fill="#1A1A1A"/>
<path d="M24.776 40.45C24.868 41.27 25.004 42.1 25.134 42.89C25.199 43.28 25.262 43.67 25.319 44.05C25.518 45.36 25.638 46.59 25.502 47.73C25.369 48.86 24.988 49.91 24.168 50.89C23.34 51.88 22.029 52.84 19.968 53.72C19.882 53.76 19.773 53.73 19.719 53.64C18.456 51.69 17.853 50.1 17.667 48.77C17.482 47.46 17.7 46.36 18.151 45.35C18.609 44.31 19.313 43.37 20.128 42.37C20.321 42.14 20.522 41.9 20.727 41.65C21.25 41.03 21.797 40.3799 22.302 39.6899L24.776 40.45Z" fill="#FFCD29"/>
<path d="M21.6968 39.2465C21.8855 38.9889 22.2167 38.8794 22.522 38.973L24.9966 39.7328L25.0991 39.7728C25.3305 39.8832 25.4918 40.1067 25.521 40.3666C25.6105 41.1643 25.7441 41.9754 25.8745 42.768C25.9398 43.1598 26.0033 43.5538 26.061 43.9389C26.262 45.2619 26.395 46.5742 26.2466 47.8187C26.0989 49.0716 25.67 50.2644 24.7436 51.3715L23.5932 50.4086C24.3064 49.5561 24.6388 48.6485 24.7573 47.642C24.8653 46.7364 24.7975 45.7441 24.647 44.642L24.5776 44.1625L24.394 43.0131C24.2896 42.3782 24.1798 41.7019 24.0913 41.0228L22.5835 40.56C22.1587 41.1114 21.7196 41.6342 21.3061 42.1244L21.3071 42.1254C21.1016 42.376 20.8995 42.6155 20.7085 42.8432C19.8979 43.8377 19.2515 44.7115 18.8374 45.6518L18.0434 45.3021L18.1509 45.35L18.8374 45.6518L18.8354 45.6557C18.4607 46.4948 18.2711 47.3895 18.3833 48.4506L18.4097 48.6654C18.5645 49.7723 19.0496 51.1364 20.1001 52.8402C21.8365 52.047 22.9171 51.217 23.5932 50.4086L24.7436 51.3715C23.8176 52.4787 22.3948 53.499 20.2622 54.4096L20.2612 54.4086C19.8387 54.5919 19.3407 54.4422 19.0893 54.0463C17.787 52.0355 17.1299 50.3436 16.9243 48.8744L16.8911 48.6029C16.7498 47.2574 16.9953 46.1011 17.4653 45.0473C17.9672 43.9079 18.7272 42.901 19.5464 41.8959L19.5532 41.8881L20.147 41.1742L20.1538 41.1664C20.6787 40.5441 21.2093 39.9125 21.6968 39.2465ZM19.7182 53.64L19.7251 53.6361L19.8813 53.5336L19.7182 53.64ZM20.3462 53.2328L19.8813 53.5336L19.8872 53.5307L20.3462 53.2328Z" fill="#1A1A1A"/>
<path d="M22.544 39.9102C22.266 40.6902 22.024 41.4901 21.791 42.2601C21.676 42.6401 21.563 43.0101 21.448 43.3801C21.045 44.6501 20.614 45.8001 19.988 46.7701C19.371 47.7201 18.566 48.4901 17.398 49.0101C16.218 49.5401 14.617 49.8201 12.379 49.7001C12.285 49.7001 12.202 49.6201 12.19 49.5201C11.919 47.2101 12.078 45.5201 12.495 44.2501C12.909 42.9901 13.59 42.0901 14.441 41.3801C15.307 40.6601 16.357 40.1201 17.526 39.5901C17.803 39.4601 18.09 39.3301 18.381 39.2001C19.126 38.8701 19.905 38.5301 20.66 38.1401L22.544 39.9102Z" fill="#FFCD29"/>
<path d="M20.3157 37.4738C20.5627 37.3462 20.8565 37.3669 21.0813 37.5197L21.1731 37.593L23.0579 39.3635C23.2749 39.5676 23.3502 39.8807 23.2502 40.1613C22.9794 40.9212 22.7429 41.7039 22.509 42.4768C22.3937 42.8579 22.28 43.2304 22.1643 43.6027L21.4963 43.3947L21.5169 43.4016L22.1643 43.6027L22.1633 43.6066L21.8489 43.507L22.1624 43.6066C21.7555 44.8888 21.3011 46.1191 20.6184 47.177L20.6174 47.1779L20.3489 47.5656C19.6976 48.4476 18.8559 49.1813 17.7034 49.6945C16.3811 50.288 14.6522 50.5724 12.3391 50.4484V50.4475C11.8389 50.427 11.4956 50.0254 11.4456 49.6096V49.6076L11.3977 49.1672C11.1864 47.0016 11.3504 45.3318 11.7825 44.0158L11.8723 43.757C12.3405 42.4848 13.0706 41.5462 13.9602 40.8039L13.9612 40.8029C14.9086 40.0153 16.0361 39.4414 17.2161 38.9064C17.4963 38.7751 17.7854 38.6444 18.0754 38.5148L18.0774 38.5139C18.8294 38.1808 19.5851 37.8512 20.3157 37.4738ZM20.5266 39.0432C19.9009 39.348 19.2729 39.6254 18.6848 39.8859C18.3968 40.0146 18.1152 40.1419 17.845 40.2688L17.5002 39.5344L17.5256 39.59L17.845 40.2688L17.8352 40.2727C16.6774 40.7976 15.7047 41.304 14.9202 41.9563C14.1676 42.5844 13.5734 43.3693 13.2073 44.4836C12.8605 45.5398 12.6965 46.9741 12.886 48.9689C14.7956 49.0239 16.13 48.757 17.0911 48.3254L17.093 48.3244L17.2903 48.7688L17.3909 48.9934L17.093 48.3244C18.1113 47.8711 18.8098 47.2065 19.3586 46.3615C19.9274 45.4798 20.3338 44.4096 20.7327 43.1525C20.8465 42.7864 20.9593 42.4195 21.0735 42.0422C21.2607 41.4235 21.4572 40.7719 21.676 40.1232L20.5266 39.0432Z" fill="#1A1A1A"/>
<path d="M20.6459 37.29C20.0969 37.91 19.5739 38.5601 19.0699 39.1801C18.8209 39.5001 18.5759 39.8 18.3339 40.09C17.4839 41.12 16.6539 42.0299 15.7109 42.6899C14.7839 43.3399 13.7469 43.7601 12.4699 43.8101C11.1789 43.8501 9.58689 43.5199 7.55689 42.5699C7.47089 42.5299 7.42189 42.43 7.44789 42.33C8.06289 40.08 8.84189 38.58 9.70589 37.55C10.5599 36.54 11.5259 35.96 12.5809 35.62C13.6549 35.28 14.8299 35.17 16.1129 35.11C16.4179 35.1 16.7309 35.09 17.0499 35.08C17.8639 35.05 18.7159 35.0199 19.5629 34.9399L20.6459 37.29Z" fill="#FFCD29"/>
<path d="M19.6099 34.1909C19.8819 34.2079 20.127 34.3733 20.2437 34.6265L21.3267 36.9761C21.4512 37.2462 21.4048 37.5649 21.2076 37.7876L20.8101 38.2466C20.4197 38.706 20.0385 39.1753 19.6607 39.6401L19.6617 39.6411C19.4058 39.9699 19.155 40.2769 18.9097 40.5708C18.1608 41.4781 17.3914 42.3382 16.521 43.022L16.1411 43.3042C15.1142 44.0242 13.9406 44.5026 12.4995 44.5591L12.4927 44.5601L12.4702 43.8101L12.4654 43.6821L12.4927 44.5601C11.0522 44.6046 9.34183 44.2337 7.2388 43.2495L7.23978 43.2485C6.81978 43.0525 6.60699 42.5842 6.7222 42.1411L6.72415 42.1323L6.84525 41.7056C7.46142 39.6126 8.23789 38.133 9.13138 37.0679L9.13333 37.0659C10.0854 35.9399 11.1743 35.285 12.3511 34.9058L12.355 34.9048C13.5271 34.5338 14.784 34.4213 16.0777 34.3608L16.0884 34.3599V34.3608C16.3924 34.3509 16.7042 34.3415 17.022 34.3315V34.3306C17.8406 34.3004 18.671 34.2705 19.4927 34.1929L19.6099 34.1909ZM16.1372 35.8599L16.1363 35.8589C14.8692 35.9185 13.7799 36.0275 12.8072 36.3354L12.8062 36.3345C11.8748 36.6354 11.0335 37.1421 10.2788 38.0347C9.55882 38.8938 8.86997 40.1574 8.29837 42.0815C9.92875 42.7948 11.2064 43.0575 12.229 43.063L12.4468 43.0601C13.5566 43.0154 14.4554 42.6544 15.2808 42.0757L15.5982 41.8394C16.331 41.2632 17.0179 40.5065 17.7554 39.6128L17.7583 39.6099C17.9969 39.3239 18.236 39.0303 18.4781 38.7192C18.4813 38.7151 18.4845 38.7106 18.4878 38.7065L19.0699 39.1802L19.0835 39.1909L18.4878 38.7065C18.8909 38.2108 19.317 37.6831 19.7613 37.1646L19.1001 35.73C18.4073 35.7804 17.722 35.8058 17.0777 35.8296H17.0738L16.1372 35.8599Z" fill="#1A1A1A"/>
<path d="M19.5471 35.9001C18.7561 36.1401 17.9681 36.4102 17.2091 36.6802C16.8331 36.8102 16.4631 36.9402 16.1041 37.0602C14.8391 37.4902 13.6561 37.8201 12.5051 37.8801C11.3731 37.9501 10.2721 37.7501 9.16306 37.1201C8.04306 36.4701 6.86805 35.3501 5.64505 33.4701C5.59305 33.3901 5.60606 33.2801 5.67906 33.2101C7.38806 31.6301 8.84606 30.7601 10.1201 30.3501C11.3821 29.9401 12.5051 29.9601 13.5811 30.2301C14.6751 30.5001 15.7301 31.0301 16.8491 31.6601C17.1151 31.8101 17.3871 31.9601 17.6631 32.1201C18.3691 32.5301 19.1081 32.9601 19.8701 33.3301L19.5471 35.9001Z" fill="#FFCD29"/>
<path d="M9.88978 29.6369C11.2959 29.1804 12.5613 29.202 13.7599 29.5022C14.809 29.7611 15.8057 30.2323 16.7941 30.7717L17.2169 31.0061V31.0071L18.0392 31.4709C18.7496 31.8835 19.4647 32.2997 20.1974 32.6555C20.4864 32.7958 20.6543 33.1043 20.6144 33.4231L20.2911 35.9934C20.2542 36.2871 20.048 36.5314 19.7648 36.6174C18.99 36.8525 18.2142 37.1187 17.4601 37.3869L17.4542 37.3889C17.084 37.5169 16.7069 37.6474 16.3439 37.7688L16.3449 37.7698C15.066 38.2044 13.8026 38.5635 12.5441 38.6291L12.5431 38.6282C11.2841 38.7047 10.038 38.4795 8.79212 37.7717L8.78626 37.7688L9.16321 37.1194L9.17786 37.094L8.78626 37.7688C7.53692 37.0437 6.28358 35.8264 5.01673 33.8791L5.01575 33.8782C4.75983 33.484 4.83818 32.9771 5.16028 32.6682L5.17005 32.6594C6.93058 31.0318 8.48053 30.0896 9.88978 29.636V29.6369ZM10.3497 31.0637C9.29098 31.4044 8.03564 32.1181 6.53236 33.4485C7.6131 35.0214 8.62162 35.9383 9.53919 36.4709C10.5067 37.0191 11.4588 37.1929 12.4591 37.1311H12.4659C13.5092 37.0767 14.6115 36.7751 15.8624 36.3498L15.8663 36.3489L16.1036 37.0598L16.1154 37.094L15.8663 36.3489C16.2184 36.2312 16.5787 36.1038 16.9572 35.9729C17.5735 35.7536 18.2141 35.5332 18.8624 35.3274L19.0597 33.76C18.4411 33.4382 17.8438 33.0926 17.2863 32.7688C17.0153 32.6117 16.7549 32.4674 16.4806 32.3127C15.371 31.6881 14.3905 31.2024 13.4015 30.9582L13.3986 30.9573C12.4466 30.7184 11.4677 30.7002 10.3517 31.0627L10.3497 31.0637L10.1242 30.3625L10.1193 30.3498L10.3497 31.0637Z" fill="#1A1A1A"/>
<path d="M20.1231 33.6398C19.3141 33.4798 18.4881 33.3598 17.6911 33.2498C17.2961 33.1898 16.9091 33.1397 16.5341 33.0797C15.2161 32.8697 14.0141 32.6198 12.9631 32.1398C11.9291 31.6798 11.0411 30.9998 10.3521 29.9198C9.65515 28.8298 9.13215 27.2997 8.91315 25.0697C8.90315 24.9697 8.96614 24.8797 9.06214 24.8497C11.3101 24.2297 13.0041 24.1397 14.3251 24.3597C15.6331 24.5797 16.6191 25.1197 17.4501 25.8497C18.2951 26.5997 18.9862 27.5498 19.6892 28.6298C19.8562 28.8798 20.0241 29.1498 20.1961 29.4198C20.6351 30.0998 21.0931 30.8198 21.5951 31.5098L20.1231 33.6398Z" fill="#FFCD29"/>
<path d="M8.86235 24.1272C11.1825 23.4874 12.9906 23.3777 14.4483 23.6204H14.4493C15.7273 23.8354 16.7383 24.3288 17.5899 24.9925L17.9454 25.2864L17.9483 25.2894C18.8695 26.107 19.6036 27.1245 20.3125 28.2132C20.4847 28.4709 20.661 28.7536 20.8262 29.013C21.2698 29.7 21.7145 30.3996 22.2012 31.0687C22.3886 31.3263 22.3931 31.6747 22.212 31.9368L20.7403 34.0667C20.5917 34.2816 20.3438 34.4011 20.0879 34.389L19.9776 34.3763L19.3848 34.2659C18.7888 34.1621 18.1855 34.0758 17.5889 33.9935L17.5782 33.9915L17.6915 33.2503L17.6963 33.2103L17.5782 33.9915L16.4161 33.8206C15.0887 33.6091 13.8008 33.3475 12.6514 32.8226V32.8216C11.5044 32.31 10.4965 31.541 9.71978 30.3235V30.3226C8.94167 29.1051 8.39383 27.4524 8.16704 25.1448L8.16216 25.0569C8.15773 24.621 8.44873 24.256 8.83892 24.1341L8.86235 24.1272ZM14.2012 25.0989C13.1 24.9157 11.6563 24.9643 9.71001 25.4544C9.92797 27.222 10.3514 28.4493 10.8702 29.3304L10.9844 29.5159V29.5169C11.584 30.4567 12.3499 31.046 13.2676 31.4544L13.2745 31.4573V31.4583C14.2271 31.8934 15.3438 32.1307 16.6524 32.3392L17.8038 32.5081H17.8028C18.443 32.5965 19.1124 32.6941 19.7813 32.8138L20.6797 31.514C20.5318 31.3008 20.3865 31.0877 20.2461 30.8753L19.5665 29.8265L19.5635 29.8235C19.3855 29.544 19.2264 29.2872 19.0655 29.0462L19.0606 29.0394L18.8018 28.6478C18.2017 27.7543 17.6229 27.0058 16.9522 26.4104C16.2148 25.7635 15.3549 25.294 14.2012 25.0999V25.0989Z" fill="#1A1A1A"/>
<path d="M21.3671 31.88C20.7231 31.37 20.0441 30.88 19.3901 30.41C19.0661 30.18 18.7481 29.9499 18.4431 29.7299C17.3691 28.9399 16.4191 28.1599 15.7041 27.2499C15.0021 26.3599 14.5281 25.3499 14.4131 24.0799C14.2961 22.7899 14.5421 21.1799 15.3761 19.1099C15.4111 19.0199 15.5111 18.9599 15.6081 18.9799C17.8861 19.4699 19.4341 20.1699 20.5051 20.9699C21.5641 21.7699 22.1911 22.6999 22.5891 23.7399C22.9941 24.7899 23.1661 25.9599 23.2931 27.2399C23.3241 27.5399 23.3521 27.85 23.3801 28.17C23.4521 28.98 23.5281 29.83 23.6561 30.67L21.3671 31.88Z" fill="#FFCD29"/>
<path d="M15.6699 18.2307L15.7597 18.2454L15.7656 18.2464L16.1982 18.344C18.1793 18.811 19.6401 19.4498 20.7265 20.2053L20.954 20.3684L20.957 20.3714L21.1728 20.5403C22.225 21.3946 22.8731 22.384 23.289 23.47L23.4433 23.9055C23.7762 24.9331 23.927 26.0344 24.039 27.1624C24.0706 27.4683 24.0988 27.7832 24.1269 28.1038L24.2431 29.3303C24.2862 29.7403 24.3355 30.1504 24.3974 30.5569L23.6552 30.6692L23.6562 30.6702L24.3974 30.5569C24.4454 30.8724 24.2889 31.1841 24.0068 31.3333L21.7177 32.5432C21.4549 32.6821 21.1344 32.6526 20.9013 32.468C20.2741 31.9714 19.61 31.4918 18.956 31.0217L18.0039 30.3382L17.999 30.3342C16.9138 29.5361 15.8948 28.7066 15.1142 27.7132V27.7122C14.3366 26.7258 13.7959 25.582 13.666 24.1477C13.5352 22.7057 13.8168 20.9734 14.6806 18.8294C14.8307 18.4545 15.2262 18.1821 15.6699 18.2307ZM15.9062 19.8157C15.2386 21.5996 15.0644 22.9565 15.1601 24.012L15.1826 24.2161C15.2947 25.0909 15.6055 25.8206 16.0683 26.4837L16.2929 26.7854L16.2939 26.7864C16.9433 27.6129 17.8248 28.3435 18.8876 29.1253C19.1921 29.3449 19.5051 29.5716 19.8242 29.7981L19.8281 29.801C20.3538 30.1789 20.9049 30.5771 21.4443 30.9905L22.8417 30.2522C22.7526 29.5626 22.6898 28.8787 22.6328 28.2366V28.2356C22.6048 27.9164 22.5772 27.6106 22.5468 27.3167V27.3137C22.4209 26.0442 22.2559 24.9598 21.8896 24.01L21.8886 24.0081L21.747 23.6673C21.394 22.8865 20.8743 22.1891 20.0566 21.5706L19.8701 21.4368C18.9844 20.8208 17.726 20.2498 15.9062 19.8157Z" fill="#1A1A1A"/>
<path d="M15.4561 33.88C15.4561 38.73 17.6161 40.6201 18.7761 41.4301C24.7871 45.6001 28.9311 41.74 31.0951 37.78C32.2271 35.7 32.2881 33.1201 30.9421 31.1801C28.9121 28.2501 26.0171 27.41 24.1471 27.12C18.3061 26.22 15.4561 30.34 15.4561 33.88Z" fill="#A55E40"/>
<path d="M17.0967 28.2897C18.6216 26.8521 20.8363 26.0073 23.6836 26.3043L24.2617 26.3786L24.6436 26.444C26.6147 26.8053 29.4975 27.7797 31.5576 30.7526C33.0936 32.9664 32.9956 35.8565 31.7539 38.1383L30.8076 37.6227L31.7529 38.1403C30.6365 40.1832 28.9597 42.3009 26.6895 43.3366C24.4252 44.3694 21.7098 44.2641 18.6465 42.2477L18.3486 42.0465L18.3467 42.0456L18.7607 41.4528L18.7754 41.4303L18.3467 42.0456C17.7138 41.6036 16.7908 40.8533 16.0322 39.5465C15.2733 38.239 14.7061 36.4213 14.7061 33.8805C14.7061 31.9224 15.4909 29.8036 17.0967 28.2897ZM31.7539 38.1383L31.7529 38.1403L31.0947 37.7799L31.7539 38.1383ZM16.2061 33.8805C16.2061 36.1892 16.7192 37.7412 17.3301 38.7936C17.9413 39.8465 18.678 40.447 19.2051 40.8151H19.2041C22.0293 42.7747 24.2892 42.7825 26.0674 41.9713C27.7972 41.182 29.2033 39.5574 30.2354 37.778L30.4365 37.4206C31.458 35.5428 31.4817 33.2738 30.3262 31.6081L30.9424 31.1803L31.1006 31.07L30.3252 31.6071C28.4627 28.9192 25.8073 28.1363 24.0322 27.861V27.86C21.3186 27.4421 19.3845 28.1943 18.126 29.3805C16.8466 30.5866 16.2061 32.2987 16.2061 33.8805Z" fill="#1A1A1A"/>
<path fill-rule="evenodd" clip-rule="evenodd" d="M21.4523 35.5673C21.7611 35.2913 22.2352 35.3178 22.5113 35.6266C23.0853 36.2687 24.0825 36.2929 24.6874 35.6791L24.7664 35.5992C25.0576 35.3046 25.5325 35.3019 25.827 35.5931C26.1216 35.8844 26.1243 36.3592 25.833 36.6538L25.7558 36.7319C25.7557 36.7321 25.756 36.7317 25.7558 36.7319C24.5436 37.9615 22.5442 37.914 21.393 36.6263C21.1169 36.3175 21.1435 35.8434 21.4523 35.5673Z" fill="#1A1A1A"/>
<path d="M20.5034 32.5752C20.0312 32.5752 19.6484 32.958 19.6484 33.4302C19.6484 33.9024 20.0312 34.2852 20.5034 34.2852C20.9756 34.2852 21.3584 33.9024 21.3584 33.4302C21.3584 32.958 20.9756 32.5752 20.5034 32.5752Z" fill="#1A1A1A"/>
<path d="M27.0091 32.5752C27.4813 32.5752 27.8641 32.958 27.8641 33.4302C27.8641 33.9024 27.4813 34.2852 27.0091 34.2852C26.5368 34.2852 26.1541 33.9024 26.1541 33.4302C26.1541 32.958 26.5368 32.5752 27.0091 32.5752Z" fill="#1A1A1A"/>
</svg>
