<svg width="48" height="55" viewBox="0 0 48 55" fill="none" xmlns="http://www.w3.org/2000/svg">
<path d="M25.472 20.57C43.49 21.55 31.365 34.76 26.191 40.71L25.723 41.3001C24.352 43.0201 21.708 42.93 20.461 41.11C16.711 35.9 4.16798 19.41 25.472 20.57Z" fill="#C5B2DC"/>
<path d="M14.6947 21.9803C16.6825 20.3278 20.1395 19.5285 25.513 19.8211C30.0654 20.0687 32.9481 21.0918 34.472 22.7928C36.0499 24.5541 35.9914 26.817 35.2386 29.0184C34.4861 31.2186 32.9887 33.5357 31.3929 35.6434C29.7937 37.7555 28.048 39.7166 26.763 41.1942L26.3109 41.7664L26.3099 41.7674L25.8509 41.4012L25.8294 41.3846L26.3099 41.7674C24.6289 43.8763 21.3885 43.7711 19.8519 41.5477C18.9215 40.255 17.4139 38.2199 16.0247 35.9285C14.6414 33.6466 13.3332 31.0436 12.8363 28.6004C12.3366 26.1437 12.6363 23.6914 14.6947 21.9803ZM25.431 21.3192C20.1529 21.0318 17.1886 21.8577 15.6537 23.1336C14.1893 24.3509 13.8642 26.1296 14.306 28.3016C14.7505 30.4871 15.9506 32.9112 17.3079 35.1502C18.6594 37.3794 20.1251 39.3594 21.0697 40.6717L20.4456 41.1199L20.4613 41.1102L21.0697 40.6717L21.0745 40.6785L21.0794 40.6863C22.0404 42.0888 24.0773 42.1588 25.1351 40.8338L25.6038 40.244L25.6136 40.2303L25.6253 40.2176C26.9267 38.7211 28.634 36.8032 30.1976 34.7381C31.7673 32.6648 33.1454 30.5016 33.8187 28.533C34.4914 26.5659 34.4092 24.9707 33.3548 23.7938C32.2463 22.5564 29.8874 21.5615 25.431 21.3192Z" fill="#1A1A1A"/>
<path d="M6.05881 30.55C9.27181 16.24 20.1018 28.53 24.1618 35.06L24.6778 35.8199C25.8618 37.5599 25.1158 39.9499 23.1538 40.6999C17.6138 42.9799 2.05981 48.35 6.05881 30.55Z" fill="#C5B2DC"/>
<path d="M9.3391 23.6272C11.2059 22.7025 13.2781 23.243 15.1692 24.3411C17.0766 25.4486 18.9737 27.2162 20.634 29.0901C22.292 30.9612 23.7479 32.9773 24.7825 34.6379L25.2971 35.3977C26.7521 37.536 25.8374 40.477 23.4211 41.4006L23.4202 41.3997C22.0201 41.9753 19.9805 42.7499 17.7659 43.3059C15.5529 43.8614 13.1027 44.2163 10.9202 43.8967C8.71083 43.5732 6.71455 42.5433 5.59301 40.301C4.4971 38.1099 4.31245 34.9026 5.32738 30.385C6.14565 26.741 7.49755 24.5394 9.3391 23.6272ZM14.4163 25.6379C12.6909 24.6361 11.1993 24.3796 10.0051 24.971C8.86187 25.5372 7.7301 27.0038 6.94359 30.0774L6.79027 30.7141C5.80574 35.0964 6.06599 37.8931 6.93481 39.6301C7.77799 41.3158 9.26631 42.1384 11.1379 42.4124C13.0365 42.6903 15.2641 42.3872 17.4006 41.8508C19.5256 41.3174 21.4991 40.5697 22.8684 40.0061L22.8772 40.0022L22.886 39.9993C24.3937 39.4229 24.9709 37.5832 24.0579 36.2415H24.0569L24.678 35.8196L24.6965 35.8069L24.0569 36.2415L23.5413 35.4807L23.5325 35.469L23.5246 35.4553C22.5302 33.856 21.1172 31.8979 19.511 30.0852C17.8984 28.2653 16.1254 26.6304 14.4163 25.6379Z" fill="#1A1A1A"/>
<path d="M13.6548 52.51C3.57581 47.49 14.7318 40.8 20.3548 38.63L20.8798 38.4C22.4218 37.72 24.1788 38.73 24.3758 40.4C25.0508 45.27 26.2028 58.77 13.6548 52.51Z" fill="#C5B2DC"/>
<path d="M20.5791 37.7127C22.5795 36.832 24.8545 38.1377 25.1192 40.2966L25.249 41.3191C25.3787 42.433 25.4947 43.7989 25.5 45.2244C25.507 47.1137 25.3211 49.1671 24.6768 50.8914C24.027 52.6302 22.8734 54.1185 20.9209 54.6658C19.0124 55.2007 16.5254 54.7794 13.3203 53.1804V53.1814C10.7216 51.8871 9.27789 50.3821 8.92483 48.6804C8.57119 46.9755 9.37241 45.366 10.5498 44.0095C12.8956 41.3073 17.2095 39.0444 20.0586 37.9412L20.5791 37.7127ZM20.8799 38.4002L21.1826 39.0857L21.1807 39.0867L20.6563 39.3171L20.6406 39.323L20.625 39.3298L20.0908 39.5427C17.3515 40.6712 13.6618 42.713 11.6826 44.9929C10.6285 46.2074 10.1802 47.347 10.3936 48.3757C10.6078 49.4081 11.5485 50.623 13.9893 51.8386L14.5537 52.1111C17.3152 53.3973 19.2197 53.585 20.5166 53.2214C21.8559 52.8459 22.7252 51.8282 23.2715 50.366C23.8233 48.8891 24.0067 47.0452 24 45.2293C23.9933 43.4244 23.7994 41.7048 23.6328 40.5027L23.6319 40.4949L23.6309 40.488C23.4927 39.3169 22.261 38.6104 21.1826 39.0857L20.8379 38.3035L20.8799 38.4002Z" fill="#1A1A1A"/>
<path d="M34.312 52.4199C43.534 47.5899 33.114 40.7399 27.882 38.4699L27.522 38.2999C26.065 37.5899 24.348 38.5599 24.199 40.1699C23.659 45.0099 22.83 58.4299 34.312 52.4199Z" fill="#C5B2DC"/>
<path d="M23.4543 40.0864C23.6605 37.9641 25.9249 36.6887 27.8498 37.6265L28.1955 37.7886C30.8524 38.9435 34.885 41.2792 37.0998 44.0132C38.2103 45.384 38.9652 46.9826 38.6721 48.6519C38.3761 50.3368 37.0622 51.8265 34.6604 53.0845L33.9641 51.7554C36.1728 50.5985 37.014 49.4206 37.1946 48.3921C37.3779 47.3476 36.9306 46.1857 35.9348 44.9565C33.9413 42.4958 30.1586 40.2751 27.5832 39.1577L27.5618 39.1479L27.2014 38.978L27.1936 38.9741L27.0071 38.897C26.0678 38.5778 25.0402 39.2181 24.9455 40.2388L24.9446 40.2534L24.844 41.2397C24.7468 42.3098 24.6679 43.6101 24.6868 44.9604C24.712 46.771 24.9134 48.6187 25.4524 50.1089C25.99 51.5952 26.8188 52.6168 28.0403 53.0073C29.2899 53.4068 31.1682 53.2188 33.9641 51.7554L34.6604 53.0845C31.7155 54.6259 29.3906 55.0138 27.5832 54.436C25.748 53.8492 24.6651 52.3408 24.0422 50.6187C23.4207 48.9002 23.213 46.861 23.1868 44.9819C23.1604 43.0928 23.3177 41.3111 23.4543 40.0864Z" fill="#1A1A1A"/>
<path d="M41.955 30.55C38.815 16.24 28.229 28.53 24.261 35.06L23.727 35.8699C22.577 37.5899 23.314 39.9399 25.246 40.6999C30.661 42.9799 45.864 48.35 41.955 30.55Z" fill="#C5B2DC"/>
<path fill-rule="evenodd" clip-rule="evenodd" d="M12.6232 27.9261C13.5308 27.0386 14.719 27.2524 15.2697 27.4134C15.9114 27.601 16.4952 27.9398 16.8596 28.2064L16.8605 28.2054C17.6289 28.7626 18.2929 29.485 18.8391 30.1058L19.3459 30.6829L19.3508 30.6888L19.3566 30.6946C19.6995 31.0885 20.0496 31.4788 20.4045 31.8655L21.4807 33.0149L21.5012 33.0374L21.5217 33.0608C21.5129 33.0509 21.5407 33.075 21.7365 33.2737C21.8804 33.4198 22.0737 33.6206 22.2502 33.8245C22.31 33.8937 22.3952 33.9962 22.4865 34.1185C22.792 34.2658 23.0495 34.5177 23.2004 34.8509C23.4177 35.3309 23.3591 35.8643 23.0949 36.2776C23.2817 36.2487 23.4727 36.2555 23.6574 36.2972C24.1371 36.1884 24.6601 36.3178 25.0383 36.6868C25.2874 36.93 25.4317 37.2387 25.4748 37.5589C25.6244 37.7389 25.7733 37.9463 25.8967 38.1341L26.1994 38.6087L26.2053 38.6185C26.3413 38.8263 26.5176 39.0826 26.7023 39.3538C26.7414 39.3844 26.7822 39.4167 26.8254 39.4495C27.0781 39.6417 27.4888 39.9352 27.8254 40.2278L27.8449 40.2454C28.1302 40.5022 28.4075 40.7937 28.6584 41.0706L29.3146 41.8069L29.3166 41.8089C30.1885 42.7639 30.96 43.8202 31.6017 44.9427L31.8693 45.428L31.8713 45.4319C32.1574 45.9761 32.5305 46.7548 32.5305 47.722L32.5256 47.9183C32.5112 48.1923 32.4255 48.5153 32.2043 48.8099C31.9849 49.1017 31.7058 49.2676 31.468 49.3548C31.0481 49.5086 30.6713 49.4537 30.5139 49.4241C30.315 49.3867 30.1346 49.3235 29.9885 49.2562C29.8993 49.2151 29.66 49.0995 29.4416 48.8802C29.433 48.8716 29.4248 48.8634 29.4162 48.8548C29.4085 48.8467 29.4004 48.8387 29.3928 48.8304C28.601 48.02 27.9771 46.9169 27.5666 46.3118L27.5646 46.3099C26.5848 44.859 25.6884 43.3428 24.8107 41.9319L24.8098 41.931C24.6889 41.7363 24.5735 41.5622 24.4582 41.3909C24.2713 41.2255 24.0818 41.0386 23.9045 40.8294C23.7975 40.7031 23.7159 40.5638 23.6574 40.4183C23.5993 40.5634 23.5178 40.7025 23.4113 40.8284C23.2348 41.0371 23.0448 41.2229 22.8586 41.388C22.7428 41.56 22.6274 41.7355 22.506 41.931L22.5051 41.9319C21.627 43.3435 20.7306 44.8586 19.7521 46.3089L19.7502 46.3118L19.3947 46.8597C19.0103 47.4614 18.5119 48.2259 17.9221 48.8294L17.923 48.8304C17.9153 48.8388 17.9064 48.8466 17.8986 48.8548C17.8904 48.8632 17.8825 48.8728 17.8742 48.8812L17.8732 48.8802C17.6546 49.0994 17.4153 49.2153 17.3264 49.2562C17.1802 49.3234 16.9996 49.3869 16.801 49.4241C16.6433 49.4537 16.2668 49.509 15.8478 49.3558C15.6103 49.2688 15.3313 49.1027 15.1115 48.8108C14.9452 48.5899 14.8553 48.3526 14.8146 48.1321L14.7892 47.9183C14.7338 46.859 15.1403 46.0104 15.4445 45.4319L15.4465 45.429C16.1363 44.1239 17.0035 42.8997 17.9982 41.8089L18.0002 41.8069L18.6574 41.0706C18.9084 40.7938 19.1859 40.5014 19.4719 40.2444L19.4807 40.2357L19.4904 40.2278C19.8266 39.9355 20.2381 39.6424 20.4904 39.4505C20.5331 39.418 20.5738 39.3851 20.6125 39.3548C20.7974 39.0832 20.9744 38.8265 21.1105 38.6185L21.1164 38.6087C21.2195 38.4539 21.524 37.9342 21.841 37.553C21.8678 37.3594 21.9321 37.1704 22.0344 36.9974C21.7908 37.0806 21.5708 37.1407 21.426 37.1819L21.4172 37.1849L20.7971 37.3704C20.1777 37.5687 19.5525 37.8023 18.8752 38.0491L18.8723 38.0501L17.9142 38.4017C16.924 38.7655 15.8428 39.1484 14.7336 39.3939L14.7238 39.3958C14.6616 39.4091 14.206 39.5056 13.8449 39.5237C13.7601 39.528 13.5714 39.5352 13.3625 39.4974C13.2672 39.4801 13.0386 39.4324 12.7951 39.2806C12.5158 39.1063 12.1157 38.7157 12.0764 38.0765C12.0435 37.54 12.2958 37.17 12.3947 37.0403C12.5134 36.8849 12.6389 36.7798 12.7101 36.7239C12.7108 36.7232 12.7113 36.7216 12.7121 36.721C12.3019 36.6346 11.8924 36.5369 11.4885 36.4192L11.4767 36.4163C11.4625 36.4124 11.3212 36.3715 11.1867 36.3294C11.0257 36.279 10.8083 36.2071 10.5881 36.1204C10.3868 36.0412 10.1019 35.9184 9.84882 35.7523C9.72838 35.6732 9.52532 35.5272 9.34882 35.3011C9.17127 35.0735 8.88585 34.5781 9.03241 33.929C9.15709 33.3763 9.52771 33.0751 9.68573 32.9632C9.86898 32.8335 10.048 32.759 10.1564 32.7191C10.3809 32.6365 10.6133 32.5895 10.7687 32.5618C10.9392 32.5314 11.1024 32.5101 11.215 32.4964C11.2437 32.4929 11.2708 32.4893 11.2932 32.4866C11.316 32.4839 11.3327 32.4825 11.3469 32.4808L13.132 32.178C13.3339 32.1469 13.5385 32.1183 13.7443 32.0911C13.5277 31.9253 13.3082 31.7454 13.0949 31.5472L12.8615 31.3206L12.8566 31.3148L12.8517 31.3099L12.6799 31.1292C12.6154 31.0594 12.5466 30.9818 12.4816 30.9017C12.3533 30.7434 12.1731 30.4961 12.0539 30.1741C11.9231 29.8205 11.8705 29.3872 12.0021 28.9271C12.1263 28.4933 12.3777 28.1642 12.6232 27.9251V27.9261ZM16.8244 47.8294L16.8146 47.8196L16.8068 47.8128H16.8059L16.8244 47.8294ZM30.506 47.8148L30.5021 47.8196L31.6105 46.8099L30.506 47.8148ZM33.8127 28.4739C34.3646 28.3127 35.5534 28.0988 36.4611 28.9866L36.6437 29.1829C36.8235 29.3969 36.9875 29.6642 37.0803 29.9896C37.2111 30.4492 37.1591 30.8817 37.0285 31.2347C36.9095 31.5561 36.7297 31.8031 36.6017 31.9612C36.4723 32.1211 36.3268 32.2714 36.2326 32.3694L36.2277 32.3753L36.2219 32.3812L35.9894 32.6067C35.938 32.6546 35.8843 32.6995 35.8322 32.7454C36.4465 32.841 37.0413 32.9526 37.6008 33.053C37.6995 33.0621 37.9798 33.0909 38.218 33.1321C38.376 33.1595 38.6095 33.2067 38.8351 33.2894C38.9442 33.3293 39.1244 33.4029 39.3078 33.5325C39.4675 33.6456 39.8417 33.9505 39.9641 34.5091H39.965L39.9855 34.6263C40.0691 35.2013 39.8222 35.6434 39.6525 35.8646C39.4758 36.0948 39.2714 36.2434 39.1486 36.3245C38.8922 36.4939 38.6039 36.6177 38.4016 36.6966C37.9851 36.859 37.5305 36.9829 37.5168 36.9866L37.5139 36.9876C36.928 37.1619 36.3304 37.294 35.7346 37.4026C35.8006 37.4366 35.8674 37.4704 35.9328 37.5052L35.9338 37.5062L36.1467 37.6273C36.2218 37.6736 36.3 37.7262 36.3742 37.7845C36.4457 37.8407 36.571 37.9476 36.6896 38.1038C36.7891 38.2349 37.0407 38.6055 37.006 39.1419C36.9645 39.7795 36.5644 40.1679 36.2863 40.3411C36.0431 40.4925 35.8143 40.5407 35.7189 40.5579C35.5106 40.5956 35.3226 40.5885 35.2375 40.5843C34.8811 40.5664 34.4334 40.4722 34.3596 40.4564C32.869 40.1378 31.4407 39.5647 30.2004 39.1067V39.1058C29.32 38.7845 28.494 38.484 27.6564 38.2415V38.2425C27.4894 38.1949 27.0273 38.0869 26.6281 37.9056C25.8742 37.5627 25.5413 36.6733 25.884 35.9192C26.0333 35.5909 26.2859 35.3424 26.5861 35.1946C26.6808 35.0665 26.7699 34.959 26.8322 34.887C27.1052 34.5716 27.5215 34.163 27.5969 34.0911C28.1423 33.5107 28.6828 32.929 29.2101 32.3441L29.7336 31.7571C30.3608 31.0429 31.1953 30.0103 32.2219 29.2659V29.2669C32.5863 29.0003 33.1706 28.6616 33.8127 28.4739ZM14.6418 39.014L14.4103 37.93L14.3869 37.8245L14.6418 39.014ZM11.6955 34.5306L10.5598 34.2737L10.4797 34.2562L11.6955 34.5306ZM15.174 34.0843L15.1379 33.4593L15.1779 34.0853L15.1271 33.2835L15.174 34.0843ZM35.3332 30.1409L34.6525 30.8392L35.4826 29.9896L35.3332 30.1409ZM15.9504 29.4603L15.6984 29.806L15.6994 29.8069L15.9894 29.4075L15.9504 29.4603ZM14.4289 29.7796L13.7648 29.097L13.6652 28.9954L14.4289 29.7796Z" fill="#473956"/>
<path d="M33.0355 24.3452C34.8855 23.2461 36.9244 22.6985 38.763 23.6303C40.5695 24.5459 41.8893 26.7501 42.6878 30.3891L42.8597 31.2202C43.6531 35.3012 43.4316 38.2445 42.429 40.2953C41.3333 42.5367 39.3782 43.5719 37.2083 43.8969C35.0686 44.2174 32.6687 43.861 30.5042 43.3051C28.3281 42.7462 26.3249 41.9677 24.9554 41.3911V41.3901C22.5921 40.4486 21.6902 37.5669 23.1038 35.4526L23.6351 34.6469C24.6462 32.986 26.0704 30.9692 27.6917 29.0971C29.3144 27.2235 31.1687 25.4541 33.0355 24.3452ZM38.0843 24.9682C36.931 24.384 35.4868 24.6344 33.8021 25.6352C32.1339 26.6262 30.4018 28.2595 28.8255 30.0795C27.2557 31.8922 25.8737 33.8501 24.9017 35.4496L24.8948 35.4614L24.887 35.4731L24.3529 36.2827L24.3509 36.2866L24.2718 36.4116C23.5281 37.6769 24.0431 39.3249 25.3841 39.9438L25.5208 40.0024L25.5286 40.0053L25.5374 40.0082C26.8754 40.5716 28.8024 41.32 30.8773 41.853C32.964 42.3889 35.1365 42.6904 36.9857 42.4135C38.8047 42.1411 40.2568 41.3229 41.0814 39.6362C41.9322 37.8956 42.1857 35.0941 41.223 30.7104C40.4515 27.1947 39.2697 25.5689 38.0843 24.9682Z" fill="#1A1A1A"/>
<path d="M24.243 43.2059C27.8209 43.2059 30.7213 40.069 30.7213 36.1996C30.7213 32.3301 27.8209 29.1934 24.243 29.1934C20.6651 29.1934 17.7646 32.3301 17.7646 36.1996C17.7646 40.069 20.6651 43.2059 24.243 43.2059Z" fill="#FFCD29"/>
<path d="M29.9717 36.1992C29.9715 32.6878 27.3524 29.9435 24.2432 29.9434C21.1338 29.9434 18.5148 32.6878 18.5146 36.1992C18.5146 39.7109 21.1338 42.4561 24.2432 42.4561C27.3525 42.4559 29.9717 39.7108 29.9717 36.1992ZM31.4717 36.1992C31.4717 40.4264 28.2894 43.9559 24.2432 43.9561C20.1968 43.9561 17.0146 40.4265 17.0146 36.1992C17.0148 31.9721 20.197 28.4434 24.2432 28.4434C28.2893 28.4435 31.4715 31.9722 31.4717 36.1992Z" fill="#1A1A1A"/>
<path fill-rule="evenodd" clip-rule="evenodd" d="M21.9381 36.4169C22.2469 36.1409 22.7211 36.1674 22.9971 36.4762C23.5712 37.1183 24.5684 37.1425 25.1732 36.5287L25.2522 36.4488C25.5434 36.1542 26.0183 36.1515 26.3128 36.4427C26.6074 36.734 26.6101 37.2088 26.3189 37.5034L26.2417 37.5815C26.2415 37.5817 26.2419 37.5813 26.2417 37.5815C25.0295 38.8111 23.03 38.7636 21.8789 37.4759C21.6028 37.1671 21.6293 36.693 21.9381 36.4169Z" fill="#1A1A1A"/>
<path d="M20.9505 34.4961C20.4783 34.4961 20.0955 34.8789 20.0955 35.3511C20.0955 35.8233 20.4783 36.2061 20.9505 36.2061C21.4227 36.2061 21.8055 35.8233 21.8055 35.3511C21.8055 34.8789 21.4227 34.4961 20.9505 34.4961Z" fill="#1A1A1A"/>
<path d="M27.4561 34.4961C27.9283 34.4961 28.3111 34.8789 28.3111 35.3511C28.3111 35.8233 27.9283 36.2061 27.4561 36.2061C26.9839 36.2061 26.6011 35.8233 26.6011 35.3511C26.6011 34.8789 26.9839 34.4961 27.4561 34.4961Z" fill="#1A1A1A"/>
</svg>
