<svg width="48" height="55" viewBox="0 0 48 55" fill="none" xmlns="http://www.w3.org/2000/svg">
<path d="M22.982 30.1941C22.562 29.4041 22.083 28.614 21.622 27.864C21.395 27.484 21.1711 27.1241 20.9621 26.7641C20.2341 25.5341 19.647 24.384 19.4 23.234C19.16 22.124 19.24 21.0041 19.881 19.8041C20.535 18.5841 21.801 17.224 24.032 15.724C24.103 15.674 24.2121 15.674 24.2851 15.724C26.6061 17.284 27.966 18.6641 28.709 19.9141C29.439 21.1441 29.595 22.264 29.443 23.364C29.287 24.494 28.803 25.614 28.193 26.844C28.046 27.134 27.891 27.434 27.732 27.744C27.328 28.524 26.904 29.3541 26.549 30.1941H22.982Z" fill="#85E0A3"/>
<path d="M23.6135 15.1026C23.9437 14.8782 24.3822 14.8868 24.7024 15.1026L24.7034 15.1016C26.9248 16.5947 28.3466 17.966 29.1926 19.2706L29.3538 19.5313C30.1741 20.9135 30.36 22.2059 30.1858 23.4669C30.0118 24.7271 29.4774 25.941 28.8645 27.1768L28.8616 27.1837L28.1926 26.8438L28.1506 26.8224L28.8616 27.1837C28.7136 27.4755 28.5571 27.7791 28.3997 28.086L27.5774 27.6641L27.7317 27.7442L28.3997 28.086L28.3977 28.089C27.9934 28.8696 27.5818 29.6765 27.2395 30.4864C27.1221 30.7638 26.8503 30.9444 26.5491 30.9444H22.9817C22.7045 30.9443 22.4497 30.7908 22.3196 30.546C22.1156 30.1623 21.8967 29.7774 21.6711 29.3946L20.9827 28.2569L20.9778 28.2491L21.6047 27.8741L21.6213 27.8643L20.9778 28.2491C20.7626 27.8888 20.5266 27.507 20.3166 27.1456V27.1466C19.5825 25.9062 18.9414 24.6682 18.6672 23.3927L18.6204 23.1544C18.4078 21.9627 18.5332 20.737 19.22 19.4513V19.4503L19.3655 19.1925C20.1269 17.9048 21.4634 16.5498 23.5998 15.1114C23.6043 15.1083 23.6091 15.1047 23.6135 15.1016V15.1026ZM24.1584 16.546C22.1716 17.9247 21.0912 19.1344 20.5422 20.1583L20.5413 20.1573C19.9922 21.1855 19.927 22.122 20.133 23.0753V23.0763C20.3255 23.9722 20.7576 24.8977 21.3459 25.9317L21.6077 26.3819L21.6106 26.3878L21.0012 26.7403L20.9622 26.7638L21.6106 26.3878C21.8165 26.7424 22.0252 27.0772 22.261 27.4718L22.9631 28.6329C23.1207 28.9002 23.275 29.172 23.426 29.4444H26.0618C26.3819 28.7344 26.7334 28.0411 27.0657 27.3995C27.2256 27.0877 27.3781 26.7921 27.5237 26.505C28.1292 25.2836 28.5626 24.2598 28.7004 23.2618C28.8302 22.3228 28.7034 21.3738 28.0637 20.296C27.4282 19.2274 26.247 17.9876 24.1584 16.546ZM24.1565 15.9102H24.1575L24.0325 15.7237L24.0247 15.713L24.1565 15.9102Z" fill="#1A1A1A"/>
<path d="M26.0549 30.2641C26.1789 29.3741 26.2509 28.464 26.3199 27.584C26.3539 27.144 26.3869 26.7241 26.4259 26.3041C26.5609 24.8841 26.7609 23.6041 27.2329 22.5341C27.6929 21.4841 28.4129 20.6341 29.6339 20.0341C30.8809 19.4341 32.7009 19.0741 35.3929 19.1641C35.4779 19.1641 35.5669 19.2341 35.5969 19.3141C36.5619 21.9341 36.8489 23.8541 36.7189 25.3041C36.5919 26.7241 36.0589 27.7241 35.2919 28.5241C34.5039 29.3441 33.4509 29.974 32.2409 30.604C31.9489 30.764 31.6459 30.914 31.3369 31.074C30.5499 31.464 29.7239 31.884 28.9429 32.354L26.0549 30.2641Z" fill="#85E0A3"/>
<path d="M29.3089 19.3584C30.7042 18.687 32.6578 18.3217 35.4183 18.414L35.4173 18.416C35.6488 18.4221 35.8378 18.513 35.9662 18.6093C36.1002 18.71 36.2271 18.8585 36.2992 19.0507L36.3011 19.0546L36.4779 19.5498C37.2687 21.8227 37.5615 23.6158 37.4876 25.0654L37.4662 25.3711C37.3232 26.9691 36.7123 28.1262 35.8333 29.0429L35.1058 28.3457L35.8324 29.0439C34.9539 29.9579 33.8068 30.6345 32.5872 31.2695C32.2894 31.4322 31.9697 31.5912 31.682 31.7402L31.6703 31.7461C30.8854 32.135 30.0824 32.5439 29.3294 32.997C29.1041 33.1324 28.8268 33.139 28.598 33.0205L28.5033 32.9619L25.6156 30.872C25.3907 30.7093 25.2736 30.435 25.3119 30.1601C25.4322 29.2962 25.5033 28.4085 25.5726 27.5253C25.6066 27.0858 25.6395 26.6605 25.679 26.2343V26.2334L25.7347 25.6992C25.8727 24.4597 26.0887 23.2707 26.5472 22.2314C27.0724 21.0335 27.9114 20.0452 29.3031 19.3613L29.3089 19.3584ZM35.0111 19.9052C32.5902 19.86 31.0074 20.2056 29.9593 20.7099C28.9134 21.2254 28.3144 21.9354 27.9203 22.8349L27.2328 22.5341L27.2894 22.5586L27.9203 22.8349L27.9193 22.8369L27.7718 23.2041C27.4519 24.0858 27.2894 25.14 27.1722 26.372L27.1732 26.373C27.1348 26.7865 27.1017 27.2015 27.0677 27.6416V27.6425C27.0102 28.3756 26.9468 29.1473 26.8538 29.916L28.9886 31.4609C29.6642 31.0756 30.3542 30.7244 31.0042 30.4023C31.3248 30.2365 31.6016 30.0989 31.8802 29.9462C31.8849 29.9437 31.8902 29.9409 31.8949 29.9384C33.0947 29.3137 34.0529 28.7303 34.7503 28.0048C35.4054 27.3216 35.8609 26.4791 35.972 25.2373L35.9896 24.9873C36.0514 23.7695 35.8012 22.1369 35.0111 19.9052Z" fill="#1A1A1A"/>
<path d="M28.499 32.124C29.12 31.484 29.716 30.784 30.288 30.114C30.571 29.774 30.849 29.454 31.121 29.144C32.067 28.064 32.979 27.144 33.99 26.554C34.974 25.984 36.061 25.7041 37.399 25.9441C38.764 26.1841 40.447 26.964 42.575 28.614C42.642 28.664 42.677 28.774 42.653 28.854C41.896 31.544 41.001 33.274 40.047 34.364C39.11 35.444 38.092 35.944 37.001 36.134C35.881 36.344 34.658 36.234 33.308 36.034C32.982 35.984 32.647 35.934 32.305 35.874C31.434 35.744 30.521 35.594 29.611 35.514L28.499 32.124Z" fill="#85E0A3"/>
<path d="M33.6142 25.905C34.7311 25.2581 35.9967 24.9306 37.5312 25.2058L37.5302 25.2068C39.0599 25.4761 40.8547 26.3314 43.0341 28.0213C43.2141 28.1595 43.3133 28.3413 43.3622 28.4929C43.4111 28.6446 43.4331 28.845 43.373 29.0564L43.3749 29.0574C42.6023 31.803 41.667 33.6492 40.6122 34.8552L40.6132 34.8562C39.5623 36.0673 38.3909 36.6509 37.1386 36.8709C35.8867 37.1055 34.557 36.9774 33.1982 36.7761L33.3212 35.9451L33.3075 36.034L33.1982 36.7761L33.1943 36.7752L32.1943 36.616L30.8671 36.4177C30.6466 36.3865 30.4262 36.3573 30.206 36.3308L29.5448 36.2615L29.4355 36.2439C29.1852 36.1838 28.9802 35.9973 28.8984 35.7478L27.7861 32.3582C27.6992 32.0934 27.7668 31.8023 27.9609 31.6023L28.4081 31.1267C28.8518 30.6423 29.2862 30.1331 29.7177 29.6277C30.0049 29.2828 30.286 28.9587 30.5575 28.6492C31.5107 27.5611 32.4897 26.5621 33.6122 25.907L33.6142 25.905ZM37.2665 26.6824C36.1261 26.4778 35.2175 26.7088 34.3671 27.2009L34.3681 27.2019C33.469 27.7266 32.624 28.567 31.6855 29.6384C31.4149 29.9469 31.1409 30.262 30.8642 30.5945L30.8583 30.6013L30.3105 30.1326L30.2792 30.1072L30.8583 30.6013C30.3837 31.1572 29.8771 31.7484 29.3505 32.3132L30.1718 34.8191C30.4761 34.8532 30.7794 34.8912 31.078 34.9334L32.4159 35.1326L32.4345 35.1355C32.7662 35.1937 33.0909 35.2421 33.4208 35.2927C34.7605 35.4911 35.876 35.5823 36.8632 35.3972L36.872 35.3953C37.7981 35.234 38.6599 34.8185 39.4804 33.8728L39.4823 33.8699C40.2974 32.9386 41.1132 31.4234 41.831 28.991C39.8954 27.5347 38.414 26.8847 37.2695 26.6834L37.4462 25.6785L37.2665 26.6824ZM42.4394 28.7937L42.6523 28.8543L42.6454 28.8513L42.4394 28.7937ZM42.4384 28.7888L42.5751 28.614L42.5839 28.6004L42.4384 28.7888ZM37.2695 26.6834L37.2665 26.6824L37.3993 25.9441L37.2695 26.6834Z" fill="#1A1A1A"/>
<path d="M29.3861 35.0741C30.2681 34.9141 31.1601 34.6941 32.0191 34.4841C32.4431 34.3841 32.8591 34.2842 33.2611 34.1942C34.6601 33.8742 35.9351 33.6642 37.1011 33.7842C38.2361 33.8942 39.2771 34.3042 40.2221 35.2842C41.1871 36.2742 42.0921 37.8941 42.8471 40.4841C42.8711 40.5641 42.8381 40.6641 42.7701 40.7241C40.5781 42.4541 38.8411 43.3342 37.4261 43.6542C36.0361 43.9742 34.9191 43.7842 33.9201 43.3042C32.8931 42.8142 31.9661 42.0042 30.9891 41.0542C30.7531 40.8242 30.5131 40.5841 30.2681 40.3441C29.6451 39.7141 28.9911 39.0641 28.2991 38.4641L29.3861 35.0741Z" fill="#85E0A3"/>
<path d="M33.0969 33.4628C34.5055 33.1407 35.8821 32.9046 37.1779 33.038L37.177 33.039C38.4656 33.1645 39.6775 33.6404 40.759 34.7606L40.9611 34.9765C41.9603 36.0933 42.84 37.7847 43.5647 40.2684C43.6843 40.6673 43.5216 41.0603 43.2658 41.286L42.7736 40.7284L42.7775 40.7333L43.2658 41.286C43.2556 41.295 43.2453 41.3039 43.2346 41.3124C40.9978 43.0777 39.1584 44.0312 37.591 44.3856L37.59 44.3847C36.0313 44.7427 34.7426 44.5314 33.5969 43.9813L33.384 43.8749C32.3251 43.323 31.3866 42.4868 30.466 41.5917L29.7434 40.8798L30.299 40.3124L30.2678 40.3436L29.7434 40.8798L29.7346 40.871C29.1129 40.2423 28.4761 39.6106 27.8078 39.0311C27.581 38.8345 27.4936 38.5211 27.5852 38.2352L28.6721 34.8446L28.7102 34.7499C28.8132 34.5349 29.0135 34.3791 29.2522 34.3358C30.1076 34.1806 30.9767 33.9671 31.841 33.7557L31.8469 33.7538L32.0061 34.4315L32.0109 34.4491L31.8469 33.7538C32.2666 33.6548 32.6895 33.553 33.0969 33.4618V33.4628ZM37.0246 34.5302C35.9894 34.4236 34.8163 34.6081 33.4279 34.9257H33.425C33.0302 35.0141 32.6227 35.1113 32.1965 35.2118C31.4822 35.3864 30.7245 35.5707 29.9641 35.7235L29.1613 38.2294C29.7354 38.7497 30.2809 39.2905 30.7932 39.8085L31.5129 40.5165H31.5119C32.4841 41.4618 33.3363 42.1941 34.2434 42.6268L34.2453 42.6278L34.5686 42.7694C35.3359 43.0714 36.1917 43.1682 37.258 42.9227H37.2609C38.468 42.6497 40.0139 41.8983 42.0236 40.3524C41.3104 38.0315 40.4925 36.6361 39.6848 35.8075L39.5305 35.6532C38.7668 34.9259 37.9462 34.6191 37.0285 34.5302H37.0246Z" fill="#1A1A1A"/>
<path d="M28.3779 37.9741C29.1849 38.3641 30.0359 38.7142 30.8539 39.0442C31.2579 39.2142 31.6539 39.3742 32.0339 39.5342C33.3519 40.0942 34.5069 40.6741 35.3849 41.4541C36.2389 42.2141 36.8369 43.1542 37.0299 44.5042C37.2269 45.8742 37.0109 47.7142 36.1059 50.2542C36.0779 50.3342 35.9899 50.3942 35.9029 50.4042C33.1089 50.5242 31.1909 50.2042 29.8529 49.6442C28.5389 49.0942 27.7479 48.2742 27.2199 47.3042C26.6769 46.3042 26.3979 45.1042 26.1659 43.7642C26.1099 43.4342 26.0559 43.1042 26.0019 42.7642C25.8629 41.8942 25.7169 40.9741 25.5049 40.0841L28.3779 37.9741Z" fill="#85E0A3"/>
<path d="M28.0214 37.3138C28.2314 37.2004 28.4854 37.1935 28.704 37.2991C29.0953 37.4882 29.4986 37.6681 29.9062 37.8421L31.1347 38.349L31.1445 38.3529L30.8652 39.015L30.8535 39.0443L31.1445 38.3529C31.3436 38.4367 31.5419 38.5176 31.7392 38.599C31.9356 38.68 32.1322 38.7619 32.3251 38.8431L32.083 39.4154L32.0996 39.3773L32.3251 38.8431L32.3271 38.8441L32.8212 39.0589C33.9649 39.5676 35.0299 40.1353 35.8828 40.8929L35.8837 40.8939C36.854 41.7574 37.5514 42.8522 37.7724 44.3968L37.8076 44.6907C37.9582 46.1823 37.6816 48.0668 36.8124 50.5062L36.8105 50.5052C36.6681 50.9063 36.3 51.1129 35.9882 51.1488C35.9707 51.1508 35.9531 51.1529 35.9355 51.1536C33.0785 51.2763 31.0391 50.9538 29.5634 50.3363C28.0815 49.716 27.1654 48.7719 26.5615 47.6624L27.3603 47.2269L27.2197 47.304L26.5615 47.6624L26.5605 47.6615C25.9549 46.5459 25.6603 45.241 25.4267 43.8919V43.889C25.3702 43.5562 25.315 43.2233 25.2607 42.8812L25.2617 42.8802C25.1219 42.0055 24.9794 41.115 24.7753 40.2581C24.7055 39.965 24.8178 39.6583 25.0605 39.4798L27.9335 37.3695L28.0214 37.3138ZM26.3417 40.3997C26.5041 41.1645 26.6283 41.9335 26.7421 42.6458V42.6468L26.9052 43.6361L26.9931 44.1243C27.2044 45.2372 27.4588 46.1719 27.8789 46.9456L28.0585 47.2503C28.5045 47.9466 29.1396 48.5327 30.1425 48.9525C31.2899 49.4326 32.9825 49.7422 35.5146 49.6663C36.2962 47.3685 36.4523 45.7597 36.2871 44.6107V44.6097C36.1219 43.4553 35.6239 42.6701 34.8867 42.014C34.1054 41.3201 33.0462 40.7789 31.7402 40.224V40.223C31.5541 40.1447 31.3634 40.0667 31.1669 39.9857C30.9705 39.9046 30.7681 39.8218 30.5634 39.7357V39.7347C29.8819 39.4597 29.1646 39.164 28.4638 38.8411L26.3417 40.3997Z" fill="#1A1A1A"/>
<path d="M25.8589 39.7339C26.2849 40.5239 26.7699 41.304 27.2359 42.054C27.4659 42.424 27.6929 42.7839 27.9049 43.1439C28.6419 44.3739 29.2369 45.5239 29.4919 46.6639C29.7409 47.7739 29.6689 48.8939 29.0369 50.0939C28.3919 51.3239 27.1359 52.6839 24.9159 54.2139C24.8459 54.2639 24.7369 54.2639 24.6639 54.2139C22.3309 52.6739 20.9609 51.294 20.2079 50.054C19.4689 48.834 19.3049 47.7139 19.4489 46.6139C19.5969 45.4839 20.0719 44.3539 20.6729 43.1239C20.8169 42.8239 20.9709 42.5239 21.1269 42.2139C21.5249 41.4339 21.9429 40.6039 22.2929 39.7639L25.8589 39.7339Z" fill="#85E0A3"/>
<path d="M25.9561 38.9897C26.1929 39.0206 26.4032 39.1638 26.5186 39.3774C26.9318 40.1436 27.4049 40.9042 27.8731 41.6577C28.0984 42.0201 28.3309 42.3899 28.5479 42.7583C29.2909 43.9984 29.9407 45.2351 30.2237 46.4995C30.5077 47.7656 30.4234 49.0708 29.7003 50.4438C28.9768 51.8226 27.6136 53.2659 25.3419 54.8315L25.3409 54.8296C25.0094 55.06 24.5701 55.0508 24.251 54.8384V54.8394C24.2487 54.8378 24.2465 54.836 24.2442 54.8345C24.243 54.8337 24.2415 54.8333 24.2403 54.8325V54.8315C21.8627 53.2606 20.3968 51.8103 19.5665 50.4429L19.418 50.186C18.7123 48.9086 18.5504 47.6982 18.7051 46.5161C18.8702 45.2565 19.3941 44.0327 19.9991 42.7944C20.1465 42.4876 20.3056 42.1776 20.4571 41.8765L20.4591 41.8726L21.0655 42.1831L21.1163 42.2085L20.4591 41.8726C20.8574 41.0919 21.2631 40.2851 21.6007 39.4751L21.6514 39.3765C21.7846 39.1559 22.0234 39.0165 22.2862 39.0142L25.8526 38.9839L25.9561 38.9897ZM22.7852 40.5093C22.4702 41.2181 22.1229 41.9096 21.796 42.5503C21.6363 42.8675 21.4887 43.1571 21.3487 43.4487L21.3467 43.4536C20.7499 44.6751 20.3234 45.7113 20.1925 46.7114C20.0696 47.6502 20.2026 48.5974 20.8487 49.6646C21.4934 50.7262 22.6849 51.9669 24.7823 53.3901C26.7612 51.9843 27.8325 50.7766 28.3731 49.7456V49.7446L28.4688 49.5532C28.9204 48.6006 28.9605 47.722 28.7598 46.8276C28.5611 45.9393 28.1225 45.0144 27.5264 43.98L27.2618 43.5298L27.2589 43.5249L27.878 43.1597L27.9044 43.144L27.2589 43.5249C27.0528 43.175 26.8324 42.8256 26.5987 42.4497C26.2108 41.8254 25.801 41.1628 25.42 40.4868L22.7852 40.5093Z" fill="#1A1A1A"/>
<path d="M22.7859 39.6843C22.6679 40.5743 22.6029 41.4843 22.5409 42.3643C22.5099 42.8043 22.4799 43.2343 22.4439 43.6443C22.3199 45.0743 22.1289 46.3443 21.6649 47.4243C21.2129 48.4743 20.4989 49.3343 19.2819 49.9343C18.0399 50.5543 16.2219 50.9242 13.5299 50.8542C13.4459 50.8542 13.3559 50.7942 13.3249 50.7042C12.3399 48.0942 12.0389 46.1742 12.1579 44.7242C12.2749 43.3042 12.8009 42.2943 13.5609 41.4943C14.3439 40.6643 15.3919 40.0243 16.5979 39.3843C16.8879 39.2343 17.1899 39.0743 17.4979 38.9143C18.2819 38.5143 19.1049 38.0943 19.8819 37.6143L22.7859 39.6843Z" fill="#85E0A3"/>
<path d="M19.4878 36.9762C19.7446 36.8175 20.0711 36.8283 20.3169 37.0035L23.2212 39.0729L22.7846 39.6832H22.7856L23.2212 39.0729C23.4473 39.234 23.5663 39.5076 23.5298 39.7828L23.4526 40.4342C23.3835 41.0895 23.3352 41.7542 23.2886 42.4166C23.2577 42.8547 23.2276 43.2918 23.1909 43.7096C23.0736 45.062 22.8925 46.3519 22.4468 47.4938L22.354 47.7203C21.8385 48.9178 21.0061 49.9206 19.6137 50.607L19.6128 50.6061C18.2231 51.2987 16.2756 51.6725 13.5298 51.6031C13.5265 51.6031 13.5233 51.6032 13.52 51.6031C13.5168 51.6031 13.5134 51.6032 13.5102 51.6031V51.6022C13.1213 51.5939 12.7623 51.3437 12.6235 50.9674V50.9684C11.6169 48.3011 11.2792 46.2642 11.4106 44.6627L11.4409 44.3678C11.6186 42.9204 12.1983 41.839 13.0171 40.9772C13.8895 40.0531 15.031 39.3664 16.2466 38.7213L16.2534 38.7174C16.549 38.5645 16.8303 38.4157 17.1518 38.2486L17.1567 38.2457C17.9451 37.8435 18.7411 37.4374 19.4878 36.9762L19.8813 37.6139H19.8823L19.4878 36.9762ZM19.8432 38.5074C19.1703 38.899 18.483 39.2518 17.8423 39.5787L17.8432 39.5797C17.5492 39.7325 17.2269 39.9035 16.9428 40.0504C15.7504 40.6835 14.7979 41.2749 14.1059 42.0084L14.105 42.0104C13.4583 42.691 13.0082 43.5425 12.9057 44.7857C12.8039 46.0275 13.0413 47.7303 13.9048 50.109C16.3277 50.1367 17.906 49.7828 18.9468 49.2633L18.9507 49.2613C19.992 48.7478 20.5876 48.03 20.9761 47.1275L21.1206 46.7574C21.4349 45.869 21.5892 44.8189 21.6968 43.5787L21.7925 42.3111C21.8441 41.5779 21.9011 40.8059 21.9887 40.0367L19.8432 38.5074Z" fill="#1A1A1A"/>
<path d="M20.3279 37.8342C19.7119 38.4842 19.1219 39.1943 18.5539 39.8743C18.2729 40.2043 17.9979 40.5342 17.7279 40.8442C16.7899 41.9242 15.8849 42.8542 14.8789 43.4542C13.8989 44.0342 12.8139 44.3142 11.4739 44.0842C10.1069 43.8542 8.41895 43.0942 6.27895 41.4542C6.21095 41.4042 6.17594 41.3042 6.19894 41.2142C6.93594 38.5242 7.81795 36.7843 8.76395 35.6843C9.69295 34.6043 10.7069 34.0943 11.7959 33.8943C12.9159 33.6843 14.1389 33.7742 15.4899 33.9642C15.8169 34.0142 16.1519 34.0642 16.4949 34.1142C17.3659 34.2442 18.2809 34.3842 19.1909 34.4542L20.3279 37.8342Z" fill="#85E0A3"/>
<path d="M16.606 33.372C17.2644 33.4703 17.9276 33.5718 18.5884 33.6445L19.2485 33.706L19.3589 33.7236C19.6103 33.7813 19.8179 33.9653 19.9019 34.2148L21.0386 37.5947C21.1271 37.8578 21.0635 38.1491 20.8726 38.3505L20.3276 37.8339H20.3267L20.8726 38.3505C20.276 38.9801 19.7014 39.6707 19.1294 40.3554L19.1245 40.3603L18.606 39.9179L18.5825 39.8984L19.1245 40.3603C18.8513 40.6812 18.5674 41.0225 18.2944 41.3359C17.3509 42.4223 16.3796 43.4327 15.2632 44.0986L15.2612 44.0996L14.9292 43.539L14.853 43.4111L15.2612 44.0996C14.1453 44.76 12.8818 45.0858 11.3491 44.8232C9.81803 44.5655 8.01722 43.7315 5.82276 42.0498L5.82374 42.0488C5.50168 41.8043 5.37974 41.39 5.47217 41.0283L6.23292 41.2226L5.47608 41.0156C6.22867 38.2689 7.14975 36.4116 8.19581 35.1953C9.23933 33.9822 10.4075 33.3864 11.6606 33.1562V33.1572C12.9056 32.9243 14.2285 33.0296 15.5942 33.2216L15.603 33.2226C15.9282 33.2723 16.2617 33.3223 16.603 33.372H16.606ZM11.9312 34.6318C11.0065 34.8017 10.1469 35.2271 9.33253 36.1738C8.52389 37.1142 7.71769 38.6384 7.01807 41.0713C8.96387 42.5176 10.4503 43.1515 11.5981 43.3447H11.6011C12.7473 43.5414 13.6531 43.3077 14.4966 42.8086C15.3914 42.2744 16.2299 41.4253 17.1616 40.3525L17.1626 40.3515L17.9829 39.3877C18.4531 38.8247 18.9539 38.2256 19.4751 37.6533L18.6353 35.1543C17.8612 35.0759 17.0956 34.9626 16.3843 34.8564V34.8554C16.0405 34.8053 15.7044 34.7552 15.3765 34.705C14.0453 34.5182 12.926 34.4458 11.9341 34.6318H11.9312L11.8032 33.9345L11.7993 33.916L11.9312 34.6318ZM6.19874 41.2138L5.47217 41.0283L5.4751 41.0156L6.19874 41.2138ZM16.5005 34.0781L16.4946 34.1123L16.519 33.9482L16.5005 34.0781Z" fill="#1A1A1A"/>
<path d="M19.4201 34.9043C18.5391 35.0643 17.6481 35.2942 16.7911 35.5042C16.3681 35.6142 15.9521 35.7143 15.5511 35.8143C14.1551 36.1443 12.8811 36.3542 11.7141 36.2542C10.5781 36.1442 9.5351 35.7443 8.5821 34.7743C7.6101 33.7843 6.6931 32.1742 5.9191 29.5942C5.8941 29.5142 5.9261 29.4042 5.9941 29.3542C8.1741 27.6042 9.9041 26.7142 11.3171 26.3742C12.7041 26.0442 13.8221 26.2342 14.8251 26.7042C15.8551 27.1842 16.7881 27.9843 17.7721 28.9343C18.0101 29.1543 18.2511 29.3943 18.4981 29.6443C19.1261 30.2543 19.7851 30.9042 20.4811 31.4942L19.4201 34.9043Z" fill="#85E0A3"/>
<path d="M11.1432 25.645C12.704 25.2737 13.9945 25.488 15.1412 26.0249C16.2877 26.5592 17.2936 27.4309 18.2809 28.3833C18.5282 28.612 18.776 28.858 19.0211 29.106L19.9801 30.0317C20.303 30.3373 20.6304 30.6375 20.9664 30.9224C21.1958 31.117 21.2863 31.43 21.1969 31.7173L20.1363 35.1274L20.0992 35.2241C19.9969 35.4414 19.7947 35.5984 19.5543 35.6421C18.7019 35.7969 17.84 36.0196 16.9693 36.2329L16.9684 36.2319C16.5446 36.342 16.1222 36.4454 15.733 36.5425L15.7242 36.5444L15.5514 35.814L15.5406 35.77L15.7242 36.5444C14.312 36.8782 12.9408 37.1121 11.65 37.0015L11.6422 37.0005C10.3553 36.8759 9.13999 36.4121 8.04747 35.3003C6.95854 34.1912 5.99396 32.4538 5.20079 29.8101L5.20274 29.8091C5.13999 29.6015 5.15661 29.4009 5.20469 29.2436C5.25112 29.0918 5.34789 28.9094 5.52598 28.769C7.75191 26.9822 9.58203 26.0207 11.1432 25.645ZM14.5084 27.3843L14.5074 27.3833L14.1803 27.2436C13.4076 26.9464 12.5505 26.8507 11.4898 27.103C10.2811 27.3944 8.73922 28.1564 6.74278 29.7183C7.47278 32.0293 8.30196 33.4176 9.11778 34.2485C9.93089 35.076 10.8012 35.4119 11.7857 35.5073C12.8242 35.5949 13.9961 35.4102 15.3678 35.0864C15.7769 34.9844 16.1839 34.8876 16.6022 34.7788L16.6129 34.7759C17.3169 34.6034 18.0752 34.4109 18.8356 34.2554L19.6197 31.7358C19.0392 31.2191 18.4861 30.6784 17.9752 30.1821C17.9716 30.1786 17.968 30.175 17.9645 30.1714C17.7191 29.9231 17.4882 29.6928 17.2633 29.4849L17.2516 29.4741L16.8902 29.1304C16.0594 28.3544 15.3035 27.7548 14.5084 27.3843Z" fill="#1A1A1A"/>
<path d="M20.4059 31.9943C19.5959 31.6043 18.7429 31.2643 17.9229 30.9443C17.5169 30.7743 17.1189 30.6142 16.7389 30.4642C15.4159 29.9042 14.2569 29.3343 13.3739 28.5643C12.5139 27.8143 11.9089 26.8743 11.7059 25.5243C11.4979 24.1543 11.7009 22.3143 12.5869 19.7743C12.6149 19.6943 12.7019 19.6243 12.7889 19.6243C15.5819 19.4843 17.5019 19.7742 18.8449 20.3342C20.1629 20.8742 20.9589 21.6843 21.4949 22.6543C22.0449 23.6543 22.3329 24.8443 22.5749 26.1843C22.6329 26.5143 22.6889 26.8443 22.7469 27.1843C22.8919 28.0543 23.0449 28.9742 23.2629 29.8542L20.4059 31.9943Z" fill="#85E0A3"/>
<path d="M12.7511 18.8752C15.5987 18.7325 17.6428 19.0213 19.129 19.6399C20.6148 20.2486 21.538 21.1811 22.1515 22.2913L22.1525 22.2922L22.2638 22.5032C22.7311 23.4261 23.0042 24.4627 23.2179 25.5471L23.3126 26.051L23.3136 26.0539C23.372 26.3863 23.4286 26.7189 23.4864 27.0579V27.0608L22.7472 27.1838L22.6271 27.2034L23.4864 27.0608C23.5959 27.7173 23.7067 28.3826 23.8439 29.0315L23.9913 29.6741L24.0099 29.7834C24.0343 30.0407 23.924 30.2962 23.713 30.4543L20.8556 32.594C20.6316 32.7618 20.3324 32.7916 20.0802 32.6702C19.6895 32.4821 19.2873 32.3047 18.88 32.135L17.6505 31.6428L17.6329 31.636L17.923 30.9446L17.9239 30.9407L17.6329 31.636C17.2333 31.4687 16.8408 31.3101 16.464 31.1614C16.4583 31.1591 16.452 31.1569 16.4464 31.1545L16.7394 30.4641L16.7452 30.4465L16.4464 31.1545C15.1157 30.5912 13.8604 29.9833 12.881 29.1291C11.9014 28.2748 11.1962 27.1796 10.964 25.636L10.965 25.635C10.7321 24.0991 10.9715 22.1283 11.879 19.5266C11.9476 19.3305 12.074 19.177 12.2111 19.0725C12.3409 18.9736 12.5269 18.8854 12.7511 18.8762V18.8752ZM18.3243 20.9348C17.1845 20.512 15.5518 20.2691 13.1798 20.3586C12.4161 22.6548 12.273 24.2629 12.4474 25.4114V25.4123C12.6212 26.5684 13.1271 27.3537 13.8673 27.9993C14.6528 28.6841 15.7137 29.2159 17.0265 29.7717C17.4059 29.9215 17.8052 30.0814 18.213 30.2522C18.8931 30.5177 19.6107 30.8052 20.3136 31.1252L22.423 29.5461C22.2554 28.7873 22.1256 28.0185 22.007 27.3069C21.949 26.9671 21.8935 26.6403 21.8361 26.3137V26.3127C21.5963 24.986 21.3247 23.9009 20.838 23.0159V23.0149C20.4081 22.2376 19.793 21.585 18.7706 21.1184L18.5607 21.0276L18.5568 21.0266L18.3243 20.9348Z" fill="#1A1A1A"/>
<path d="M16.6899 33.46C16.6899 37.59 18.5279 39.2 19.5149 39.88C24.3929 43.27 27.8249 40.44 29.7299 37.25C30.9399 35.22 31.0159 32.58 29.5469 30.73C27.8459 28.59 25.5799 27.94 24.0859 27.71C19.1159 26.94 16.6899 30.44 16.6899 33.46Z" fill="#14AE5C"/>
<path d="M18.0103 28.6178C19.4221 27.2883 21.5089 26.5532 24.1987 26.9694L24.1997 26.9684C25.7836 27.2123 28.2665 27.9135 30.1343 30.2633L30.2886 30.4675C31.8277 32.5944 31.6667 35.4665 30.3745 37.6344C29.3829 39.2949 27.94 40.9594 26.0161 41.7292C24.035 42.5218 21.6948 42.3067 19.0894 40.4967C18.54 40.1182 17.7401 39.4713 17.0835 38.3405C16.4265 37.2091 15.94 35.6412 15.9399 33.4606C15.9399 31.7628 16.6188 29.9283 18.0103 28.6178ZM17.4399 33.4606C17.44 35.4094 17.8727 36.7116 18.3813 37.5876C18.8904 38.464 19.5034 38.9609 19.9409 39.2624L19.9429 39.2643L20.3638 39.5426C22.44 40.8485 24.1178 40.8729 25.4585 40.3366C26.9462 39.7414 28.1721 38.3952 29.0854 36.8659C30.1714 35.0439 30.1945 32.7525 28.9595 31.1969C27.5213 29.3876 25.6304 28.7478 24.2427 28.4967L23.9722 28.4518L23.9712 28.4508L24.0815 27.7409L24.1333 27.402L23.9712 28.4508C21.6922 28.0978 20.0819 28.7272 19.0386 29.7096C17.9745 30.7117 17.4399 32.1384 17.4399 33.4606Z" fill="#1A1A1A"/>
<path fill-rule="evenodd" clip-rule="evenodd" d="M21.4113 35.0175C21.7201 34.7415 22.1942 34.768 22.4703 35.0768C23.0443 35.7189 24.0415 35.7431 24.6464 35.1293L24.7253 35.0494C25.0166 34.7548 25.4914 34.7521 25.786 35.0433C26.0805 35.3345 26.0833 35.8094 25.792 36.104L25.7148 36.1821C25.7146 36.1823 25.715 36.1819 25.7148 36.1821C24.5026 37.4117 22.5032 37.3642 21.352 36.0765C21.0759 35.7677 21.1025 35.2936 21.4113 35.0175Z" fill="#1A1A1A"/>
<path d="M20.4675 31.9448C19.9953 31.9448 19.6125 32.3276 19.6125 32.7998C19.6125 33.272 19.9953 33.6548 20.4675 33.6548C20.9398 33.6548 21.3225 33.272 21.3225 32.7998C21.3225 32.3276 20.9398 31.9448 20.4675 31.9448Z" fill="#1A1A1A"/>
<path d="M26.9732 31.9448C27.4454 31.9448 27.8282 32.3276 27.8282 32.7998C27.8282 33.272 27.4454 33.6548 26.9732 33.6548C26.501 33.6548 26.1182 33.272 26.1182 32.7998C26.1182 32.3276 26.501 31.9448 26.9732 31.9448Z" fill="#1A1A1A"/>
</svg>
