<svg width="48" height="56" viewBox="0 0 48 56" fill="none" xmlns="http://www.w3.org/2000/svg">
<path fill-rule="evenodd" clip-rule="evenodd" d="M24.1289 21.6697C25.897 20.2298 27.8881 19.3498 29.8643 19.8796C31.1611 20.2296 32.621 21.1301 34.0889 22.4001C35.5468 23.6601 36.9652 25.2497 38.1807 26.9197C39.397 28.5797 40.3939 30.3003 41.0234 31.8103C41.3382 32.5703 41.5543 33.2603 41.6641 33.8503C41.7751 34.4502 41.7682 34.9005 41.6836 35.2204C41.4667 36.0304 41.2491 37.1506 41.0078 38.3904C40.9625 38.6303 40.9162 38.8702 40.8691 39.1101C40.5675 40.6501 40.2202 42.3402 39.7822 43.9402C39.3422 45.5401 38.8214 47.0102 38.1875 48.1101C37.5426 49.2298 36.8652 49.8302 36.1729 49.9802C35.5209 50.1102 34.593 50.0503 33.4561 49.8103C33.3548 49.7886 33.2528 49.7642 33.1494 49.74C31.8075 50.7414 29.8406 51.9915 27.6953 52.9304C25.1642 54.0303 22.531 54.6399 20.4141 54.0701C17.4556 53.2801 14.9322 52.5105 12.6465 51.0906C10.3782 49.6906 8.30214 47.6203 6.31445 44.1804C5.40129 42.5905 5.15568 40.6503 5.42871 38.5105C5.70174 36.3705 6.48864 34.0901 7.57617 31.9001C9.76583 27.5004 13.0784 23.6601 15.5537 22.24C17.4045 21.17 19.7928 21.3105 22.1563 22.0505C22.53 22.1671 22.8991 22.2972 23.2607 22.4372C23.5381 22.1727 23.828 21.9146 24.1289 21.6697Z" fill="#F24822"/>
<path fill-rule="evenodd" clip-rule="evenodd" d="M17.2531 25.8397C18.1972 25.4201 19.3202 25.8102 20.5197 26.8299C21.6728 27.7999 22.6711 29.1702 23.2375 30.1502L27.4084 39.1288C29.0149 39.845 30.4269 40.5913 31.4572 41.3299C32.0154 41.7298 32.4349 42.1001 32.7121 42.45C32.9918 42.7998 33.0854 43.0599 33.093 43.2499C33.1184 43.8899 32.7503 44.5205 31.7971 45.1405C30.8453 45.7704 29.4437 46.2805 27.7551 46.6805C24.3902 47.4805 20.1142 47.7507 16.6467 47.6307C15.0114 47.5707 13.7861 47.1398 12.8733 46.4999C11.9595 45.8699 11.315 44.9898 10.8918 43.9598C10.0358 41.8799 10.1069 39.2303 10.6994 37.0204C10.9132 36.2204 11.2644 35.71 11.6594 35.37C12.0583 35.04 12.5478 34.8406 13.094 34.7606C13.3187 34.7264 13.5492 34.7119 13.7805 34.7137C13.562 33.4596 13.642 32.0688 13.9758 30.7303C14.5652 28.3603 15.8612 26.4497 17.2531 25.8397ZM27.1535 30.0106C27.665 29.8806 28.6074 29.8501 29.7883 29.9901C30.9447 30.1201 32.245 30.4006 33.4328 30.8006C34.6328 31.2106 35.6575 31.7206 36.3117 32.3006C36.9562 32.8604 37.1306 33.3701 36.9973 33.87C36.8078 34.5799 36.3078 35.3397 35.5686 36.0897C34.8369 36.8396 33.9157 37.54 32.9631 38.12C32.0105 38.71 31.0496 39.1603 30.2522 39.4403C29.8528 39.5802 29.5101 39.6698 29.2404 39.7098C29.1064 39.7198 29.0002 39.7303 28.9211 39.7303C28.8445 39.7303 28.8107 39.7216 28.8069 39.7206C28.795 39.7106 28.7289 39.6801 28.6106 39.5702C28.4972 39.4602 28.3655 39.3102 28.219 39.1102C27.9253 38.7002 27.6158 38.1699 27.301 37.5799C27.0625 37.13 26.8312 36.6598 26.6067 36.2098C26.5354 36.0698 26.4646 35.9299 26.3947 35.7899C26.149 35.2999 25.9053 34.8298 25.6828 34.4598C25.5845 33.48 25.5874 32.4501 25.8098 31.6102C26.0411 30.7303 26.4659 30.2006 27.1535 30.0106Z" fill="#DC3412"/>
<path d="M27.7158 37.8004C27.2821 37.3504 26.9328 36.8603 26.6807 36.4803C26.6792 36.2503 26.7186 35.9403 26.8147 35.5903C26.9326 35.1503 27.1223 34.7004 27.3672 34.3104C27.8875 33.4704 28.4598 33.1704 29.0007 33.3104C30.7917 33.7904 31.6682 35.0303 31.9442 36.0403C31.9635 36.1103 31.9631 36.3403 31.7987 36.7403C31.646 37.1003 31.3929 37.5103 31.0789 37.8803C30.7636 38.2503 30.4142 38.5503 30.0874 38.7303C29.7527 38.9203 29.5239 38.9303 29.389 38.9003C28.7855 38.7403 28.2188 38.3204 27.7158 37.8004Z" fill="#BD2915"/>
<path fill-rule="evenodd" clip-rule="evenodd" d="M24.0048 20.8134C25.7727 19.4669 27.8796 18.5716 30.0595 19.1562C31.5117 19.5482 33.0729 20.5291 34.58 21.833C36.0884 23.1366 37.5449 24.7706 38.788 26.4785C40.0309 28.175 41.0599 29.9459 41.7167 31.5214L41.7177 31.5234C42.0458 32.3156 42.2802 33.0572 42.4023 33.7128L42.4433 33.957C42.525 34.5147 42.518 35.0037 42.4101 35.4121L42.4091 35.414C42.2008 36.1919 41.987 37.28 41.744 38.5283L41.745 38.5292C41.6994 38.771 41.6528 39.0131 41.6054 39.2548C41.3035 40.7963 40.9525 42.5093 40.5067 44.1376L40.3349 44.7421C39.9235 46.1391 39.4351 47.4495 38.8388 48.4843C38.1564 49.6692 37.3353 50.4954 36.3319 50.7128L36.3202 50.7158C35.5237 50.8746 34.4842 50.7918 33.3212 50.5478C31.9556 51.5383 30.0581 52.7145 27.996 53.6171H27.994C25.4197 54.7359 22.5889 55.4316 20.2196 54.7939C17.2594 54.0034 14.6404 53.2104 12.2519 51.7265C9.86329 50.2518 7.7053 48.084 5.66592 44.5546L5.66495 44.5537L5.48233 44.2167C4.61696 42.5144 4.41676 40.5208 4.68545 38.415C4.97207 36.1691 5.79164 33.8069 6.9042 31.5664L8.24795 32.2333L6.90518 31.5654C8.02698 29.3114 9.43492 27.2016 10.8827 25.4707C12.2327 23.8568 13.6478 22.5358 14.9276 21.7412L15.1815 21.5888C17.3007 20.3652 19.9401 20.5698 22.3808 21.3339L22.3798 21.3349C22.6185 21.4094 22.8546 21.4911 23.0888 21.5751C23.2731 21.4091 23.4624 21.2465 23.6562 21.0888L24.0048 20.8134ZM21.9003 22.7558C19.6279 22.05 17.5048 21.979 15.9306 22.8886L15.9276 22.8906C14.7976 23.5389 13.4167 24.7806 12.0341 26.4335C10.6593 28.0772 9.31574 30.088 8.24795 32.2333C7.18579 34.3723 6.4333 36.5708 6.17373 38.6044C5.91433 40.6371 6.15788 42.3987 6.96475 43.8046L7.32803 44.4169C9.14957 47.3981 11.0281 49.2087 13.0409 50.4511L13.0429 50.4521C15.2253 51.8079 17.6522 52.5553 20.6083 53.3447L20.6093 53.3456C22.4734 53.8475 24.9074 53.3227 27.3944 52.2421C28.8703 51.5962 30.2626 50.7962 31.413 50.039C30.8002 49.8473 30.1737 49.6281 29.5478 49.3916L29.5448 49.3906C28.29 48.9094 27.0366 48.3575 25.8983 47.8144C22.874 48.3169 19.4725 48.4775 16.621 48.3789C14.8646 48.3144 13.4923 47.8495 12.4433 47.1142C11.5245 46.4794 10.8535 45.6308 10.3866 44.666L10.1981 44.2451C9.26037 41.9663 9.35552 39.1372 9.97549 36.8251C10.2241 35.8959 10.6502 35.2499 11.1708 34.8017L11.1825 34.7919C11.6906 34.3718 12.2972 34.1275 12.9413 34.0263C12.8504 32.8792 12.9663 31.6823 13.2489 30.5488C13.5624 29.2886 14.0663 28.1366 14.6913 27.207C15.3104 26.2862 16.0817 25.5357 16.9521 25.1542C17.8993 24.7345 18.8865 24.9187 19.8231 25.4306L19.8358 25.4121C20.3036 24.6904 21.0131 23.7219 21.9003 22.7558ZM36.3202 50.7158L36.1737 49.9804L36.1718 49.9736L36.3202 50.7158ZM29.6698 20.6044C28.1446 20.196 26.5202 20.7844 24.9228 21.9999L24.6034 22.2519C23.1585 23.4278 21.9664 24.9303 21.2489 25.9951V26.4697C22.3811 27.4898 23.3315 28.8149 23.8866 29.7753L23.9032 29.8037L23.9179 29.8349L24.955 32.0683C24.9875 31.8463 25.0295 31.6291 25.0849 31.4199C25.3569 30.385 25.9204 29.5737 26.954 29.288L26.9608 29.2851L26.9687 29.2832C27.612 29.1197 28.6603 29.103 29.871 29.246L29.872 29.2451C31.0798 29.3808 32.4323 29.6724 33.6718 30.0898L33.6757 30.0908C34.9101 30.5126 36.0399 31.0604 36.8026 31.7343L36.9403 31.8583C37.2514 32.1518 37.4931 32.47 37.6386 32.8212C37.8112 33.2383 37.8301 33.6598 37.7226 34.0634C37.4866 34.9471 36.8895 35.8162 36.1044 36.6132L36.1054 36.6142C35.322 37.417 34.3485 38.1523 33.3564 38.7568L33.3573 38.7578C32.4853 39.2979 31.6019 39.7277 30.8241 40.0273C31.21 40.2574 31.5697 40.4869 31.8944 40.7197C32.4765 41.1367 32.9584 41.5539 33.2978 41.9814C33.6317 42.399 33.8262 42.8097 33.8427 43.2197C33.8829 44.2328 33.2704 45.074 32.2108 45.7646C31.2444 46.4042 29.9109 46.9028 28.3808 47.2949C28.9388 47.5359 29.5081 47.77 30.0771 47.9882C31.3259 48.4603 32.5413 48.8467 33.6112 49.0761C34.706 49.3072 35.5118 49.3437 36.0155 49.246C36.397 49.1628 36.9321 48.79 37.539 47.7363C38.125 46.7192 38.6253 45.3209 39.0595 43.7421L39.2167 43.1484C39.5745 41.7558 39.8701 40.3116 40.1337 38.9658L40.2714 38.2509L40.2724 38.247L40.2812 38.2021C40.5171 36.9895 40.7374 35.8571 40.9599 35.0263C41.0053 34.8527 41.0271 34.5249 40.9276 33.9873C40.8301 33.4631 40.6323 32.8241 40.331 32.0966C39.7289 30.6532 38.7646 28.9853 37.5761 27.3632L37.5751 27.3613C36.3873 25.7294 35.0059 24.184 33.5985 22.9677C32.1701 21.7318 30.811 20.9125 29.6698 20.6044ZM13.1874 35.5039C12.7669 35.5678 12.4188 35.7178 12.1454 35.9414C11.9114 36.144 11.6716 36.4554 11.496 36.9755L11.4247 37.2138C10.8596 39.3214 10.8118 41.7926 11.5858 43.6738C11.9163 44.4781 12.387 45.1572 13.0185 45.6718L13.2987 45.8828L13.3036 45.8857C14.0802 46.4301 15.1608 46.8243 16.6747 46.8798C20.097 46.9982 24.302 46.7302 27.5829 45.9501C29.2398 45.5576 30.541 45.0723 31.3837 44.5146L31.3886 44.5107C32.227 43.9652 32.3536 43.5495 32.3446 43.2841C32.3429 43.2756 32.3206 43.1601 32.1269 42.9179L32.1249 42.915C31.91 42.6438 31.5532 42.3211 31.0204 41.9394C30.3 41.423 29.3656 40.8939 28.286 40.3662L27.6747 40.3896L26.9413 40.414C25.1682 40.4618 22.9798 40.4501 20.8935 40.2265L20.8886 40.2255C19.624 40.0828 18.3971 39.8669 17.3241 39.5439L16.8739 39.3994L16.871 39.3984L16.4423 39.2373C15.4672 38.8457 14.674 38.3358 14.1855 37.6601C13.7193 37.0239 13.394 36.2898 13.1874 35.5039ZM20.0341 27.4023C18.8908 26.4304 18.0869 26.2899 17.5575 26.5253L17.3564 26.6259C16.8902 26.8871 16.3948 27.3621 15.9364 28.0439C15.4187 28.814 14.9799 29.8018 14.704 30.9111C14.1504 33.1312 14.3676 35.3735 15.3974 36.7763L14.7187 37.2744L14.7929 37.2207L15.3974 36.7763L15.4013 36.7812C15.6955 37.1881 16.3085 37.6118 17.3632 37.9814C18.3895 38.3357 19.6631 38.5774 21.0517 38.7343C22.8907 38.9315 24.8323 38.9566 26.4853 38.9228L22.5731 30.5009C22.0327 29.572 21.094 28.2934 20.037 27.4042L20.0341 27.4023L20.5204 26.83L20.5868 26.7509L20.0341 27.4023ZM28.8056 34.0351C28.7451 34.0209 28.671 34.0214 28.5565 34.0888C28.42 34.1695 28.2256 34.3485 28.0048 34.705L28.0019 34.7089C27.8 35.0304 27.6391 35.4107 27.539 35.7841L27.538 35.789L27.1835 35.6904L27.1845 35.6914L27.538 35.789C27.4932 35.952 27.4663 36.0983 27.4501 36.2216C27.4811 36.2838 27.5118 36.3461 27.5429 36.4082C27.7446 36.6908 27.9824 36.9965 28.2548 37.2792L28.4276 37.4501C28.8087 37.8113 29.1817 38.0527 29.5282 38.1582C29.5567 38.1515 29.6191 38.1334 29.7167 38.0781L30.0731 38.706L30.0536 38.6699L29.7167 38.0781L29.7255 38.0732L29.9052 37.9599C30.0929 37.8266 30.3024 37.6344 30.5077 37.3935C30.7775 37.0753 30.9884 36.7297 31.1083 36.4472C31.1654 36.307 31.1871 36.2117 31.1962 36.1601C30.9596 35.3938 30.266 34.4263 28.8065 34.0351H28.8056ZM31.3837 38.1406V38.1396L31.2187 37.999L30.9931 37.8076L31.3837 38.1406ZM29.2841 30.6923C28.3587 30.6113 27.6823 30.6517 27.3476 30.7343C27.0086 30.8299 26.7246 31.08 26.5351 31.8007V31.8027L25.8095 31.6103L25.5829 31.5507L26.5351 31.8027C26.3568 32.4765 26.3369 33.3406 26.4149 34.2285C26.4387 34.2696 26.4603 34.3128 26.4843 34.3554C26.5594 34.2043 26.6407 34.0565 26.7294 33.915C27.314 32.9712 28.1674 32.3199 29.1884 32.5839L28.9823 33.3759L29.0009 33.3105L29.1884 32.5839L29.1952 32.5859C31.2672 33.1413 32.3283 34.6002 32.6679 35.8427H32.6669C32.7171 36.0264 32.7066 36.2229 32.6815 36.3828C32.6528 36.5656 32.5929 36.78 32.4921 37.0253L32.4892 37.0332C32.3888 37.2698 32.254 37.5158 32.0966 37.7597C32.2525 37.671 32.4106 37.5804 32.5673 37.4833L32.5722 37.4794C33.4835 36.9247 34.3533 36.262 35.0321 35.5664L35.0341 35.5644C35.7259 34.8626 36.1294 34.2117 36.2724 33.6767C36.2979 33.5809 36.2951 33.4977 36.2528 33.3955C36.216 33.3066 36.1413 33.1837 35.9931 33.0302L35.8192 32.8671L35.8134 32.8623L36.3114 32.3007L36.3554 32.2499L35.8134 32.8623C35.2683 32.3791 34.3538 31.9085 33.1933 31.5117L32.7626 31.373C31.7476 31.0636 30.6707 30.845 29.704 30.7363L29.7001 30.7353L29.2841 30.6923ZM42.4091 35.414L41.7851 35.246L41.6386 35.208L42.4091 35.414ZM40.8427 31.8847L41.0243 31.8105L41.7167 31.5214L40.8427 31.8847ZM15.9276 22.8906L15.5546 22.2392L15.9306 22.8886L15.4892 22.1259L15.9276 22.8906Z" fill="#1A1A1A"/>
<path fill-rule="evenodd" clip-rule="evenodd" d="M15.0767 42.1377C15.4428 41.9439 15.8967 42.0836 16.0905 42.4496C16.6523 43.5109 18.0247 43.8285 18.9955 43.122L19.1036 43.0432C19.4384 42.7993 19.9075 42.8729 20.1514 43.2077C20.3954 43.5425 20.3217 44.0116 19.9869 44.2555L19.8788 44.3343C18.1696 45.5786 15.7538 45.0196 14.7648 43.1515C14.571 42.7854 14.7106 42.3315 15.0767 42.1377Z" fill="#1A1A1A"/>
<path d="M21.9828 42.197C22.5237 42.3086 22.8718 42.8375 22.7603 43.3784C22.6488 43.9193 22.1199 44.2674 21.579 44.1558C21.038 44.0443 20.69 43.5154 20.8015 42.9745C20.913 42.4336 21.4419 42.0855 21.9828 42.197Z" fill="#1A1A1A"/>
<path d="M13.579 40.197C13.0381 40.3085 12.69 40.8374 12.8015 41.3783C12.9131 41.9192 13.442 42.2673 13.9829 42.1558C14.5238 42.0443 14.8719 41.5154 14.7603 40.9745C14.6488 40.4336 14.1199 40.0855 13.579 40.197Z" fill="#1A1A1A"/>
</svg>
