<svg width="48" height="55" viewBox="0 0 48 55" fill="none" xmlns="http://www.w3.org/2000/svg">
<path fill-rule="evenodd" clip-rule="evenodd" d="M24.9539 18C27.3069 18 29.3019 19.53 29.9919 21.66C30.9449 20.74 32.2389 20.1801 33.6649 20.1801C36.5909 20.1801 38.9629 22.55 38.9629 25.48C38.9629 25.9 38.9119 26.32 38.8159 26.72C38.9129 26.71 39.0109 26.71 39.1099 26.71C42.0359 26.71 44.4069 29.08 44.4069 32.01C44.4069 33.26 43.9769 34.4001 43.2569 35.3101C44.6119 36.2701 45.4959 37.85 45.4959 39.63C45.4959 42.42 43.3369 44.71 40.5969 44.91C40.9449 45.62 41.1409 46.41 41.1409 47.25C41.1409 50.18 38.7689 52.55 35.8429 52.55C33.9209 52.55 32.2389 51.53 31.3099 50C31.0279 52.66 28.7769 54.73 26.0419 54.73C23.9799 54.73 22.1929 53.55 21.3179 51.83C20.3469 52.94 18.9209 53.64 17.3309 53.64C14.5389 53.64 12.2519 51.48 12.0479 48.74C11.3429 49.09 10.5479 49.29 9.70792 49.29C6.78292 49.29 4.41092 46.91 4.41092 43.99C4.41092 43.28 4.54892 42.61 4.79892 41.99C3.26092 41.07 2.23291 39.38 2.23291 37.45C2.23291 35.67 3.11689 34.09 4.47189 33.13C3.75189 32.22 3.3219 31.08 3.3219 29.83C3.3219 26.91 5.6939 24.53 8.6189 24.53C9.4719 24.53 10.2779 24.74 10.9909 25.09C10.9599 24.86 10.9439 24.63 10.9439 24.39C10.9439 21.46 13.3159 19.09 16.2419 19.09C17.8319 19.09 19.2579 19.79 20.2289 20.9C21.1039 19.18 22.8909 18 24.9539 18Z" fill="#FF24BD"/>
<path d="M21.5044 50.3398C21.9982 50.4 22.4289 50.7105 22.6548 51.1504C23.2838 52.3901 24.5658 53.2303 26.0415 53.2305V54.7305L25.6587 54.7158C23.7602 54.5799 22.1382 53.4425 21.3179 51.8301C20.3469 52.94 18.9205 53.6396 17.3306 53.6396V52.1396C18.4696 52.1396 19.4909 51.6398 20.1899 50.8398L20.3198 50.71C20.6405 50.4263 21.072 50.2873 21.5044 50.3398Z" fill="#1A1A1A"/>
<path d="M30.9829 48.5303C31.6109 48.3903 32.2593 48.6697 32.5933 49.2197C33.2613 50.3197 34.4673 51.0498 35.8433 51.0498V52.5498L35.4858 52.5381C33.7138 52.4205 32.1811 51.4344 31.3101 50C31.0281 52.66 28.7765 54.7305 26.0415 54.7305V53.2305C28.0015 53.2305 29.6158 51.7398 29.8188 49.8398C29.8869 49.1999 30.355 48.6703 30.9829 48.5303Z" fill="#1A1A1A"/>
<path d="M11.3853 47.4004C11.8322 47.1805 12.3596 47.1905 12.7915 47.4404C13.2245 47.6904 13.5064 48.1299 13.5435 48.6299C13.6894 50.5898 15.3297 52.1395 17.3306 52.1396V53.6396C14.5388 53.6395 12.2525 51.48 12.0483 48.7402C11.3433 49.0902 10.5475 49.29 9.70752 49.29V47.79C10.3125 47.79 10.8813 47.6404 11.3853 47.4004L12.0454 48.7393H12.0474L11.3853 47.4004Z" fill="#1A1A1A"/>
<path d="M4.41064 43.9902C4.41064 43.2803 4.54933 42.6102 4.79932 41.9902C3.35736 41.1277 2.36311 39.588 2.24463 37.8086L2.23291 37.4502C2.23291 35.6702 3.11717 34.0899 4.47217 33.1299C3.79726 32.2769 3.37663 31.2218 3.32666 30.0635L3.32178 29.8301C3.32178 26.9102 5.69376 24.5304 8.61865 24.5303L8.93604 24.54C9.67158 24.585 10.3668 24.7836 10.9907 25.0898C10.9597 24.8599 10.9438 24.6296 10.9438 24.3896C10.944 21.4599 13.3159 19.09 16.2417 19.0898C17.8317 19.0898 19.258 19.7904 20.229 20.9004C21.104 19.1805 22.8907 18.0001 24.9536 18C27.3066 18 29.3017 19.5302 29.9917 21.6602C30.9446 20.7402 32.2387 20.1798 33.6646 20.1797C36.5905 20.1797 38.9634 22.5505 38.9634 25.4805C38.9633 25.9002 38.9118 26.32 38.8159 26.7197C38.9129 26.7097 39.0109 26.71 39.1099 26.71C42.0358 26.71 44.4066 29.0799 44.4067 32.0098C44.4067 33.2598 43.9773 34.4005 43.2573 35.3105C44.612 36.2706 45.4956 37.8502 45.4956 39.6299C45.4956 42.4198 43.337 44.71 40.5972 44.9102C40.9451 45.6201 41.1411 46.4101 41.1411 47.25L41.1343 47.5234C40.9922 50.3259 38.6775 52.5496 35.8433 52.5498V51.0498C37.9401 51.0496 39.6411 49.3499 39.6411 47.25C39.6411 46.65 39.4995 46.0801 39.2515 45.5801L40.5962 44.915L40.5972 44.9102L39.2515 45.5801C39.0305 45.1301 39.0474 44.5999 39.2954 44.1699C39.5424 43.7401 39.989 43.4599 40.4858 43.4199C42.4478 43.2699 43.9956 41.6299 43.9956 39.6299C43.9956 38.4299 43.4416 37.3614 42.5688 36.6641L42.3901 36.5303L42.269 36.4346C42.0004 36.1976 41.8228 35.8704 41.772 35.5205C41.714 35.1106 41.8267 34.6901 42.0825 34.3701L43.2544 35.3076L43.2563 35.3047L42.0825 34.3701C42.5995 33.7201 42.9067 32.8998 42.9067 32.0098C42.9066 29.9099 41.2068 28.21 39.1099 28.21C39.0379 28.21 38.9679 28.2097 38.8979 28.2197C38.424 28.2397 37.9666 28.0397 37.6626 27.6797C37.3599 27.3197 37.246 26.8299 37.3569 26.3701L37.4028 26.1504C37.4423 25.9299 37.4633 25.7052 37.4634 25.4805C37.4634 23.3805 35.7616 21.6797 33.6646 21.6797C32.6417 21.6798 31.7167 22.0803 31.0317 22.7402C30.6597 23.1001 30.1293 23.2403 29.6274 23.1104C29.1266 22.9903 28.7259 22.6099 28.5659 22.1201L29.9917 21.6602L29.9878 21.6562L28.5659 22.1201C28.0699 20.6001 26.6376 19.5 24.9536 19.5C23.4767 19.5001 22.1949 20.3402 21.5659 21.5801L20.229 20.9004L19.1011 21.8896C18.4021 21.0897 17.3806 20.5898 16.2417 20.5898C14.1449 20.59 12.444 22.2899 12.4438 24.3896C12.4438 24.5595 12.4561 24.7297 12.478 24.8896C12.551 25.4496 12.3138 25.9905 11.8618 26.3105C11.4089 26.6404 10.8147 26.6796 10.3188 26.4297C9.8089 26.1797 9.23257 26.0303 8.61865 26.0303C6.52176 26.0304 4.82178 27.7302 4.82178 29.8301C4.82181 30.73 5.12902 31.5405 5.646 32.1904L4.47217 33.125L4.47412 33.1279L5.646 32.1904C5.90279 32.5204 6.0145 32.93 5.95654 33.3398C5.89857 33.7497 5.67609 34.1096 5.33936 34.3496L5.16064 34.4844C4.28777 35.1817 3.73291 36.2501 3.73291 37.4502C3.733 38.83 4.46688 40.04 5.57275 40.71C6.20475 41.09 6.46599 41.8705 6.18799 42.5605L4.79932 41.9902L4.79834 41.9951L6.18799 42.5605C6.01009 43.0004 5.91064 43.4804 5.91064 43.9902C5.91078 46.08 7.61078 47.7898 9.70752 47.79V49.29C6.87397 49.2898 4.55917 47.0561 4.41748 44.2617L4.41064 43.9902Z" fill="#1A1A1A"/>
<path d="M21.5659 21.5801C21.3399 22.02 20.9085 22.3297 20.4146 22.3896C19.9207 22.4495 19.429 22.2596 19.1011 21.8896L20.229 20.9004L21.5659 21.5801Z" fill="#1A1A1A"/>
<path d="M9.85498 36.9803C9.85498 30.5203 13.584 28.0104 15.586 26.9304C26.161 21.2704 33.386 26.7203 37.058 32.1003C38.761 34.5903 38.813 37.9503 36.865 40.2503C33.352 44.4103 28.17 45.5903 24.856 45.9803C14.776 47.1803 9.85498 41.7003 9.85498 36.9803Z" fill="#FFBDF2"/>
<path d="M15.7407 26.0035C20.9783 23.345 25.4801 23.3055 29.1714 24.6715C32.9503 26.0701 35.7855 28.9065 37.6763 31.6764C39.5412 34.4031 39.6335 38.1388 37.437 40.733C33.7352 45.1166 28.3118 46.3288 24.9438 46.7252L24.9429 46.7242C14.57 47.9584 9.10511 42.2896 9.10498 36.9801C9.10498 33.5933 10.0866 31.1907 11.3706 29.486C12.6461 27.7925 14.1859 26.8334 15.23 26.2701L15.5649 26.8912L15.4946 26.7594L15.23 26.2701L15.2319 26.2692L15.7407 26.0035ZM10.605 36.9801C10.6051 41.1102 14.9815 46.3999 24.7671 45.235H24.7681C28.0281 44.8513 32.9674 43.7022 36.2915 39.7662L36.7778 40.1764L36.7192 40.1266L36.2915 39.7662L36.2925 39.7652L36.4468 39.5748C37.9396 37.6388 37.9334 34.8904 36.5786 32.7369L36.439 32.5231L36.0952 32.0338C34.3281 29.5956 31.8324 27.2565 28.6499 26.0787C25.2863 24.834 21.0598 24.8501 15.9409 27.5895L15.9419 27.5904C14.984 28.1072 13.6581 28.9422 12.5688 30.3883C11.4879 31.8235 10.605 33.9069 10.605 36.9801Z" fill="#1A1A1A"/>
<path d="M26.4896 36.5174C26.785 36.2273 27.2599 36.2318 27.5501 36.5272C27.8402 36.8226 27.8357 37.2975 27.5403 37.5877L27.4183 37.7078L27.4163 37.7088L26.8929 37.1727L26.8333 37.1121L27.4163 37.7088C25.7361 39.3492 23.0343 39.2841 21.4358 37.5633C21.1539 37.2598 21.1714 36.7846 21.4749 36.5027C21.7784 36.2208 22.2535 36.2383 22.5355 36.5418C23.5602 37.645 25.2915 37.687 26.3685 36.6356V36.6365L26.4896 36.5174Z" fill="#1A1A1A"/>
<path d="M18.7883 33.249C18.0648 33.249 17.4783 33.8355 17.4783 34.559C17.4783 35.2825 18.0648 35.869 18.7883 35.869C19.5118 35.869 20.0983 35.2825 20.0983 34.559C20.0983 33.8355 19.5118 33.249 18.7883 33.249Z" fill="#1A1A1A"/>
<path d="M29.6787 33.249C30.4021 33.249 30.9887 33.8355 30.9887 34.559C30.9887 35.2825 30.4021 35.869 29.6787 35.869C28.9552 35.869 28.3687 35.2825 28.3687 34.559C28.3687 33.8355 28.9552 33.249 29.6787 33.249Z" fill="#1A1A1A"/>
</svg>
