<svg width="48" height="55" viewBox="0 0 48 55" fill="none" xmlns="http://www.w3.org/2000/svg">
<path fill-rule="evenodd" clip-rule="evenodd" d="M22.6059 40.9297C22.5884 41.1697 22.5712 41.4102 22.5532 41.6602C22.3613 44.3201 22.1191 47.6699 21.3833 50.2998C20.951 51.8498 20.3827 53.0104 19.6675 53.6504C19.3245 53.9504 18.9527 54.1404 18.5346 54.1904C18.1109 54.2504 17.5845 54.1899 16.9282 53.9199C16.2733 53.65 15.8393 53.3198 15.5552 52.96C15.2731 52.61 15.1099 52.1899 15.0513 51.71C14.9305 50.71 15.2588 49.45 15.9272 48C17.0681 45.54 19.0314 42.8998 20.5903 40.7998C20.7261 40.62 20.8589 40.4403 20.9878 40.2705L22.6059 40.9297ZM26.1626 40.21C27.8287 42.2899 29.9296 44.9099 31.1802 47.3398C31.9146 48.7698 32.2872 50.01 32.1968 50.96C32.1535 51.4199 32.0042 51.7999 31.7368 52.1299C31.4657 52.4599 31.038 52.7705 30.3735 53.0205C29.7101 53.2705 29.1652 53.32 28.7143 53.25C28.2668 53.19 27.8657 52.9897 27.4946 52.6797C26.728 52.0297 26.107 50.88 25.6157 49.3701C24.7772 46.7801 24.4213 43.5099 24.1391 40.9199C24.1145 40.69 24.0907 40.47 24.0669 40.25L25.7055 39.6396C25.8532 39.8296 26.0061 40.02 26.1626 40.21ZM29.2886 37.3105C31.8237 38.1305 35.0201 39.1601 37.4018 40.5C38.8008 41.29 39.794 42.1197 40.2436 42.9697C40.4593 43.3697 40.5471 43.7802 40.5034 44.2002C40.4592 44.6202 40.2739 45.1205 39.8559 45.6904C39.4387 46.2603 39.0122 46.6098 38.5981 46.7998C38.1872 46.9898 37.7459 47.0502 37.2632 46.9902C36.2661 46.8702 35.1131 46.2497 33.8706 45.2598C31.7494 43.5598 29.6525 41.0298 27.9878 39.0098C27.8428 38.8399 27.7012 38.6699 27.563 38.5L28.5932 37.0898C28.8183 37.1598 29.0506 37.2306 29.2886 37.3105ZM19.8423 39.1299C19.6754 39.2999 19.5035 39.4704 19.3276 39.6504C17.4534 41.5403 15.0902 43.9302 12.8188 45.4502C11.4846 46.3502 10.2968 46.8599 9.33836 46.8799C8.87886 46.8898 8.47845 46.7798 8.12352 46.5498C7.76395 46.3198 7.40461 45.9296 7.08152 45.2998C6.75903 44.6699 6.6454 44.1396 6.6616 43.6797C6.67777 43.2298 6.82384 42.8103 7.09324 42.4004C7.65003 41.5704 8.72406 40.8201 10.1704 40.1602C12.6394 39.0302 15.8476 38.2997 18.395 37.7197C18.6171 37.6697 18.8342 37.6203 19.0454 37.5703L19.8423 39.1299ZM7.05809 30.5195C8.02299 30.2395 9.32767 30.36 10.8589 30.79C13.4728 31.5201 16.3918 33.04 18.7095 34.25C18.9115 34.35 19.1089 34.4499 19.3013 34.5498L18.9038 36.2598C18.6679 36.2798 18.4244 36.3003 18.1753 36.3203C15.5215 36.5603 12.1757 36.8498 9.45945 36.5498C7.86395 36.3698 6.62651 35.9899 5.88231 35.3799C5.52562 35.0999 5.28703 34.7595 5.16356 34.3496C5.03846 33.9397 5.01598 33.4195 5.17723 32.7197C5.33833 32.0299 5.59713 31.5497 5.90379 31.2197C6.20824 30.8799 6.59104 30.6495 7.05809 30.5195ZM36.8862 30.4102C38.4284 29.9602 39.7152 29.8296 40.6343 30.0996C41.075 30.2296 41.4248 30.4503 41.6938 30.7803C41.9664 31.1103 42.1907 31.5902 42.3071 32.29C42.4233 32.99 42.37 33.53 42.2163 33.96C42.0638 34.3899 41.797 34.7398 41.4175 35.0498C40.6335 35.6797 39.3828 36.0597 37.8042 36.2598C35.1091 36.5798 31.8305 36.3001 29.228 36.0801C29.0013 36.0601 28.7797 36.0403 28.5639 36.0303L28.2768 34.2998C28.4867 34.1899 28.7028 34.0799 28.9243 33.96C31.2844 32.72 34.2606 31.1702 36.8862 30.4102ZM13.1772 21.1396C13.6261 21.0897 14.0651 21.1604 14.5083 21.3604C15.4239 21.7704 16.3385 22.7103 17.227 24.0303C18.7437 26.2803 19.9854 29.33 20.9712 31.75C21.0571 31.96 21.141 32.1604 21.2231 32.3604L19.8169 33.4004C19.624 33.2704 19.4243 33.1304 19.2202 32.9805C17.0464 31.4405 14.3052 29.4998 12.4341 27.5098C11.3355 26.3401 10.6373 25.2503 10.4614 24.3105C10.3772 23.8507 10.4143 23.4405 10.5815 23.0605C10.751 22.6607 11.0758 22.2402 11.646 21.8203C12.2154 21.4004 12.725 21.1997 13.1772 21.1396ZM32.9858 20.71C33.4068 20.52 33.8166 20.46 34.2319 20.54C34.6527 20.62 35.1333 20.84 35.6733 21.2998C36.2124 21.7597 36.5228 22.2097 36.6821 22.6396C36.8403 23.0595 36.8662 23.4997 36.772 23.9795C36.5772 24.9694 35.871 26.0696 34.7876 27.2295C32.9378 29.2195 30.2514 31.1199 28.1186 32.6299C27.9328 32.7598 27.7512 32.8898 27.5747 33.0098L26.2427 31.8799C26.3326 31.6601 26.4245 31.43 26.519 31.2002C27.5269 28.7402 28.7985 25.6296 30.3159 23.3496C31.2069 22.02 32.1079 21.09 32.9858 20.71ZM23.0913 17.25C23.7995 17.25 24.3277 17.3904 24.7261 17.6104C25.1213 17.8304 25.43 18.1602 25.6675 18.5801C26.1579 19.4601 26.3351 20.75 26.2651 22.3398C26.1455 25.0598 25.3319 28.2405 24.686 30.7705C24.6298 30.9903 24.5751 31.2101 24.522 31.4199H22.772C22.6985 31.1901 22.6224 30.9603 22.5444 30.7305C21.7125 28.1905 20.6635 25 20.3442 22.29C20.1567 20.6901 20.2415 19.4 20.6606 18.54C20.8616 18.1301 21.1367 17.8203 21.5014 17.6104C21.8713 17.3904 22.3817 17.25 23.0913 17.25Z" fill="#FF5C16"/>
<path fill-rule="evenodd" clip-rule="evenodd" d="M26.2972 39.1797C26.4397 39.3631 26.5881 39.5473 26.7405 39.7324L26.7474 39.7402L28.0599 41.3916C29.4235 43.134 30.877 45.1135 31.846 46.9961L30.8499 47.5078L31.18 47.3398L31.847 46.9971C32.5982 48.4597 33.0539 49.8599 32.9427 51.0303C32.8868 51.6231 32.6876 52.1463 32.3186 52.6016L32.3157 52.6055C31.9419 53.0605 31.3929 53.4373 30.637 53.7217C29.8827 54.0059 29.2119 54.0819 28.6145 53.9922C28.6094 53.9915 28.604 53.9919 28.5989 53.9912C27.9896 53.9061 27.4648 53.6323 27.013 53.2549L27.0091 53.252C26.082 52.4657 25.4066 51.1534 24.9017 49.6016C24.0349 46.9241 23.6738 43.5708 23.3938 41.001L23.3929 40.999L23.3685 40.7812L23.3548 40.9854C23.3373 41.2255 23.32 41.4655 23.302 41.7148C23.1116 44.3544 22.866 47.786 22.1058 50.5029C21.6631 52.0895 21.0466 53.4221 20.1673 54.209L20.1614 54.2148L19.9964 54.3506C19.6036 54.6552 19.1496 54.8726 18.6243 54.9355L18.6233 54.9336C18.1168 55.0022 17.5518 54.9407 16.9212 54.7197L16.6438 54.6143C15.8971 54.3066 15.3464 53.9063 14.9661 53.4248L14.9671 53.4238C14.6354 53.01 14.4337 52.5342 14.3401 52.0234L14.3069 51.8018C14.1607 50.5916 14.5607 49.1741 15.2464 47.6865L15.2474 47.6846C16.427 45.1412 18.4422 42.4366 19.9886 40.3535L19.9925 40.3486C20.1152 40.1861 20.2676 39.9799 20.3909 39.8174L20.7386 39.3584L23.3294 40.415L23.2581 39.75L25.4436 38.9365L25.9593 38.7451L26.2972 39.1797ZM21.1917 41.2471L21.1927 41.248C19.6218 43.3641 17.7099 45.9378 16.6077 48.3135L16.6087 48.3145C15.9581 49.7259 15.7012 50.8295 15.7962 51.6191L15.8157 51.752C15.8567 51.9764 15.9284 52.1682 16.0286 52.333L16.139 52.4902L16.1438 52.4961L16.221 52.5859C16.4157 52.7983 16.7214 53.0238 17.2132 53.2266C17.7748 53.4575 18.1663 53.4856 18.43 53.4482L18.4378 53.4463L18.4456 53.4453C18.6803 53.4172 18.9148 53.3105 19.1702 53.0879C19.7197 52.594 20.2404 51.6082 20.6614 50.0986L20.7893 49.6133C21.4025 47.1493 21.6247 44.1192 21.806 41.6064C21.8105 41.5435 21.8142 41.4807 21.8186 41.4189L21.2405 41.1826C21.2247 41.2036 21.2083 41.2251 21.1917 41.2471ZM24.8743 40.748C24.8775 40.7781 24.8818 40.8085 24.8851 40.8389L25.1165 42.8848C25.3727 44.9992 25.7211 47.2612 26.3284 49.1377L26.511 49.666C26.9477 50.8451 27.4488 51.6578 27.9788 52.1074C28.2637 52.3445 28.536 52.4686 28.8138 52.5059L28.8216 52.5068L28.8294 52.5088C29.1298 52.5554 29.543 52.5306 30.1087 52.3174L30.3118 52.2354C30.7566 52.0415 31.0093 51.8326 31.1565 51.6533C31.3204 51.4497 31.4189 51.2132 31.4495 50.8887C31.5189 50.1593 31.2294 49.0784 30.512 47.6816C29.3026 45.3323 27.2552 42.7735 25.5765 40.6777C25.5366 40.6293 25.4977 40.5798 25.4583 40.5312L24.8743 40.748ZM32.678 20.0264C33.2191 19.7823 33.7861 19.6904 34.3743 19.8037L34.3733 19.8047C34.874 19.9001 35.393 20.1334 35.929 20.543L36.1604 20.7295C36.7748 21.2537 37.1704 21.8042 37.3831 22.376C37.57 22.8723 37.6156 23.3814 37.5452 23.9014L37.5081 24.125C37.2722 25.3231 36.4482 26.5486 35.3352 27.7402L35.3362 27.7412C33.4234 29.7988 30.6679 31.7442 28.552 33.2422L28.5481 33.2451C28.4268 33.3299 28.2956 33.4203 28.1673 33.5098C28.3004 33.4407 28.4318 33.3743 28.5677 33.3008L28.5755 33.2959C30.92 32.0641 33.965 30.4755 36.677 29.6904C38.255 29.2301 39.7139 29.0478 40.845 29.3799L40.4222 30.8193C39.7153 30.6119 38.6015 30.6906 37.096 31.1299H37.094C34.5551 31.8649 31.6482 33.375 29.2727 34.623C29.217 34.6532 29.1603 34.6816 29.1048 34.7109L29.2073 35.3262C29.2364 35.3287 29.2656 35.3305 29.2942 35.333C31.915 35.5545 35.1065 35.8237 37.7093 35.5156C39.252 35.3202 40.3303 34.9608 40.9476 34.4648C41.2375 34.2269 41.4107 33.9864 41.5091 33.709L41.5101 33.707C41.6127 33.4196 41.6661 33.0123 41.5667 32.4131C41.4793 31.8874 41.3301 31.5547 41.18 31.3418L41.1155 31.2578L41.1126 31.2539L41.6888 30.7842L41.7239 30.7549L41.1126 31.2539C40.951 31.0558 40.7368 30.9122 40.4222 30.8193L40.6341 30.0996L40.845 29.3799L40.846 29.3809C41.4107 29.5474 41.895 29.8427 42.2708 30.3018C42.6459 30.7557 42.9143 31.368 43.0472 32.167L43.0882 32.4609C43.1642 33.1328 43.1007 33.7095 42.9222 34.21C42.7161 34.791 42.3582 35.2501 41.8919 35.6309L41.887 35.6348C40.9362 36.3987 39.5125 36.7994 37.8977 37.0039L37.8919 37.0049L37.804 36.2598L37.7903 36.1523L37.8919 37.0049C35.5869 37.2785 32.8897 37.1235 30.5647 36.9395C32.8949 37.7008 35.6386 38.6477 37.7698 39.8467C39.2014 40.6551 40.3533 41.5732 40.9065 42.6191C41.1851 43.1377 41.3098 43.6957 41.2493 44.2773L41.2171 44.4971C41.1222 45.013 40.8802 45.5624 40.4612 46.1338L40.4602 46.1328C39.9874 46.7785 39.4684 47.2239 38.9124 47.4795L38.9134 47.4805C38.3616 47.7355 37.777 47.8096 37.1712 47.7344C35.9655 47.5884 34.6789 46.8626 33.4036 45.8467L33.4017 45.8447C31.2125 44.0902 29.0695 41.5019 27.4173 39.4971L26.9808 38.9736L26.6155 38.5244L26.9573 38.0576L27.9202 36.7383L27.4476 33.8877V33.8867L25.3421 32.1006L25.5481 31.5967L25.8255 30.915C26.8254 28.4745 28.1249 25.2889 29.6917 22.9346L29.6927 22.9326C30.6003 21.5781 31.5986 20.4977 32.678 20.0264ZM13.094 20.3955C13.6818 20.33 14.2552 20.4237 14.8147 20.6758L15.0218 20.7764C16.0512 21.3101 16.994 22.3413 17.8489 23.6113C19.4173 25.9381 20.6874 29.066 21.6653 31.4668L22.139 32.6162L20.1018 34.1211L20.1634 34.1533L19.5306 36.873L19.7132 37.2295L20.7552 39.2705L20.3772 39.6562L19.8636 40.1748L19.8597 40.1787C18.0012 42.0527 15.5824 44.5011 13.2366 46.0713C11.8691 46.9937 10.5332 47.6053 9.3538 47.6299L9.35282 47.6289C8.75634 47.6415 8.20794 47.4975 7.71904 47.1816C7.22247 46.8639 6.78256 46.3603 6.41435 45.6426C6.04571 44.9227 5.89 44.2659 5.91142 43.6543C5.93314 43.0487 6.13243 42.4961 6.46611 41.9883L6.46904 41.9824C7.1427 40.9784 8.37195 40.1566 9.85771 39.4785L10.345 39.2646C12.6324 38.2969 15.4033 37.636 17.6809 37.1152C15.3034 37.3267 12.4063 37.5517 9.90947 37.3467L9.37626 37.2959C7.7489 37.1123 6.33583 36.7144 5.41923 35.9697C4.95022 35.6016 4.61681 35.1347 4.4456 34.5664L4.44657 34.5654C4.27532 34.0021 4.2627 33.3457 4.4456 32.5518L5.21611 32.7295L5.04325 32.6885L4.4456 32.5518L4.44657 32.5498L4.52177 32.2627C4.68303 31.7055 4.91282 31.2483 5.20341 30.8838L5.3538 30.71C5.75859 30.2619 6.2641 29.965 6.84892 29.8008C8.01718 29.4618 9.48702 29.6264 11.0608 30.0684L11.0599 30.0693C13.3819 30.7178 15.915 31.9622 18.0413 33.0605L17.0706 32.3672C15.2801 31.0681 13.3376 29.5661 11.888 28.0244C10.7628 26.8266 9.94032 25.6052 9.72392 24.4482L9.72294 24.4453L9.68974 24.2275C9.6294 23.7211 9.68789 23.2292 9.89482 22.7588C10.1286 22.2125 10.5518 21.6952 11.2015 21.2168L11.4436 21.0469C12.0076 20.6745 12.5529 20.4673 13.0784 20.3975L13.094 20.3955ZM28.513 38.4688L28.5589 38.5234L28.5667 38.5332C30.2421 40.5661 32.2885 43.0304 34.3372 44.6729C35.5457 45.6357 36.5654 46.1502 37.3528 46.2451L37.2679 46.9541L37.2806 46.8525L37.3528 46.2451H37.3558C37.7151 46.2897 38.0136 46.2438 38.2835 46.1191L38.5872 46.7764L38.4974 46.5801L38.2835 46.1191L38.3909 46.0654C38.6411 45.9267 38.9355 45.6783 39.2513 45.2471C39.6082 44.7603 39.7296 44.3822 39.7571 44.1211C39.7835 43.8651 39.7339 43.6056 39.5833 43.3262L39.5804 43.3203C39.2343 42.6664 38.3995 41.9237 37.0335 41.1523C35.3063 40.1808 33.1205 39.3713 31.0579 38.6787L29.0579 38.0234L29.0501 38.0205L28.8802 37.9668L28.513 38.4688ZM18.5589 38.4521L18.5579 38.4512C15.9914 39.0355 12.8657 39.7517 10.4817 40.8428L9.97685 41.085C8.85289 41.6535 8.09987 42.2448 7.71513 42.8184C7.51303 43.1278 7.42093 43.4151 7.41044 43.707C7.3997 44.0151 7.47305 44.4195 7.74931 44.959C7.99233 45.4324 8.23572 45.7029 8.44169 45.8584L8.52763 45.9189L8.53154 45.9209C8.75114 46.0631 9.00219 46.1378 9.32255 46.1309C10.0597 46.1155 11.0982 45.7053 12.3987 44.8281L12.4007 44.8271C14.5969 43.3576 16.9048 41.0273 18.7942 39.1221C18.8361 39.0793 18.8806 39.0333 18.9261 38.9873L18.6429 38.4326C18.6152 38.4389 18.5867 38.4459 18.5589 38.4521ZM10.6565 31.5127C9.16817 31.0947 8.0283 31.0193 7.26689 31.2402L7.25907 31.2432C6.91771 31.3382 6.66285 31.4967 6.4622 31.7207L6.45243 31.7305L5.91728 31.2324L5.88896 31.207L6.45243 31.7305C6.25307 31.9451 6.04566 32.299 5.90751 32.8906C5.76889 33.4935 5.80316 33.8753 5.88114 34.1309L5.88212 34.1338L5.91337 34.2266C5.99489 34.4383 6.13146 34.6224 6.34501 34.79L6.35185 34.7949L6.35771 34.7998C6.92969 35.2686 7.98645 35.6291 9.54228 35.8047C12.1696 36.0947 15.4371 35.8148 18.1077 35.5732L18.1155 35.5723L18.2962 35.5566L18.4368 34.9531L18.3763 34.9229L18.3694 34.9189L18.3616 34.915L16.6468 34.0283C14.8685 33.1254 12.9338 32.214 11.1331 31.6533L10.6565 31.5127ZM18.6331 34.3936L18.7093 34.25L18.721 34.2266L18.6331 34.3936ZM14.1995 22.0439C13.8758 21.8979 13.5737 21.8517 13.2669 21.8848C12.9643 21.9267 12.5743 22.0675 12.0911 22.4238L11.9202 22.5566C11.5491 22.8616 11.3645 23.1347 11.2718 23.3535L11.2679 23.3633C11.1703 23.5852 11.1371 23.84 11.1985 24.1758C11.3348 24.8983 11.9098 25.8569 12.9808 26.9971L13.3294 27.3574C15.1218 29.1568 17.5999 30.9132 19.6536 32.3682L19.6643 32.376C19.7113 32.4104 19.7596 32.4422 19.8059 32.4756L20.3059 32.1055C20.2961 32.0816 20.2862 32.0574 20.2767 32.0342C19.2832 29.5953 18.0694 26.6231 16.6048 24.4502C15.7398 23.1652 14.9221 22.3676 14.2015 22.0449L14.1995 22.0439ZM23.0911 16.5C23.899 16.5 24.5582 16.6599 25.0892 16.9531L25.0911 16.9551C25.5601 17.2161 25.9252 17.5852 26.2054 18.0205L26.3206 18.2109L26.3226 18.2148C26.9155 19.2785 27.0869 20.7388 27.0149 22.373C26.8913 25.1854 26.0542 28.4449 25.4134 30.9551L25.1058 32.1699H22.2249L22.0579 31.6484C21.986 31.4235 21.9112 31.1972 21.8343 30.9707L21.8323 30.9639C21.0587 28.6018 20.0634 25.5829 19.6702 22.9082L19.5999 22.3779C19.4082 20.7414 19.4711 19.2704 19.9876 18.2109L20.0901 18.0176C20.3405 17.5796 20.6806 17.2175 21.1282 16.96C21.6414 16.6575 22.2895 16.5 23.0911 16.5ZM34.1995 20.709L34.0921 21.2773H34.0901L33.9056 21.2568C33.7184 21.2514 33.5197 21.2918 33.2942 21.3936L33.2845 21.3984L32.9954 20.7295L32.9925 20.7246L33.2845 21.3984C32.6118 21.6895 31.8104 22.4668 30.9388 23.7676C29.4716 25.9728 28.2287 29.0058 27.2132 31.4844C27.189 31.5431 27.1651 31.6021 27.1419 31.6592L27.6185 32.0635C27.6413 32.0474 27.6652 32.0321 27.6888 32.0156C29.8375 30.4943 32.4519 28.6407 34.2376 26.7197L34.2395 26.7188C35.2929 25.5911 35.8824 24.6173 36.0364 23.8359C36.1075 23.4741 36.0824 23.1769 35.9798 22.9043L35.9788 22.9014C35.8726 22.6147 35.6491 22.2645 35.1868 21.8701C34.7259 21.4779 34.3609 21.3285 34.0921 21.2773L34.2435 20.4834L34.1995 20.709ZM23.0911 18C22.4787 18 22.1102 18.121 21.8851 18.2549L21.8763 18.2598L21.72 18.3672C21.5713 18.487 21.4426 18.6476 21.3343 18.8682L21.3352 18.8691C21.0136 19.5295 20.9061 20.6395 21.0892 22.2021C21.3976 24.8202 22.4171 27.9303 23.2552 30.4893L23.3147 30.6699H23.9388C23.946 30.6413 23.953 30.6125 23.9602 30.584C24.6112 28.0344 25.4004 24.9338 25.5159 22.3066C25.5839 20.7612 25.4001 19.6406 25.012 18.9443C24.8307 18.6253 24.6148 18.4066 24.3616 18.2656C24.0959 18.1195 23.698 18 23.0911 18Z" fill="#1A1A1A"/>
<path d="M15.4619 34.8103C15.4619 39.6903 17.6361 41.6003 18.8039 42.4103C24.8646 46.6103 29.0387 42.7102 31.2133 38.7102C32.3429 36.6402 32.4039 34.0602 31.062 32.1102C29.0183 29.1502 26.0956 28.3003 24.2098 28.0103C18.3312 27.1003 15.4619 31.2403 15.4619 34.8103Z" fill="#EBB49D"/>
<path d="M24.3242 27.2684C26.2441 27.5637 29.2713 28.4257 31.4688 31.3905L31.6797 31.6844C33.2087 33.9063 33.1127 36.7955 31.8721 39.0692L31.8711 39.0682C30.7494 41.1313 29.0636 43.2699 26.7783 44.3173C24.4258 45.3953 21.5874 45.2511 18.377 43.0262C17.7381 42.5831 16.8089 41.828 16.0459 40.5126C15.2826 39.1965 14.712 37.3663 14.7119 34.8104C14.7119 32.8376 15.5015 30.7061 17.1172 29.1844C18.7536 27.6434 21.1792 26.7826 24.3242 27.2694L24.0947 28.7509C21.3615 28.3279 19.4133 29.0824 18.1455 30.2762C16.8571 31.4896 16.2119 33.2134 16.2119 34.8104C16.212 37.1339 16.7283 38.6984 17.3438 39.7596C17.9598 40.8217 18.7025 41.4269 19.2314 41.7938L19.4971 41.9735C22.2234 43.7685 24.4161 43.7492 26.1533 42.953C28.0138 42.1004 29.5018 40.2882 30.5547 38.3514V38.3505C31.573 36.4842 31.5991 34.2131 30.4443 32.535V32.5341C28.5681 29.8179 25.8851 29.027 24.0957 28.7518L24.3242 27.2684Z" fill="#1A1A1A"/>
<path fill-rule="evenodd" clip-rule="evenodd" d="M21.5761 35.3681C21.8849 35.092 22.359 35.1186 22.6351 35.4274C23.2091 36.0695 24.2063 36.0937 24.8112 35.4798L24.8901 35.4C25.1814 35.1054 25.6562 35.1027 25.9508 35.3939C26.2453 35.6851 26.248 36.16 25.9568 36.4546L25.8796 36.5327C25.8794 36.5328 25.8798 36.5325 25.8796 36.5327C24.6674 37.7623 22.668 37.7148 21.5168 36.4271C21.2407 36.1183 21.2673 35.6442 21.5761 35.3681Z" fill="#1A1A1A"/>
<path d="M20.6033 33.5068C20.1311 33.5068 19.7483 33.8896 19.7483 34.3618C19.7483 34.834 20.1311 35.2168 20.6033 35.2168C21.0755 35.2168 21.4583 34.834 21.4583 34.3618C21.4583 33.8896 21.0755 33.5068 20.6033 33.5068Z" fill="#1A1A1A"/>
<path d="M27.0296 33.5068C27.5018 33.5068 27.8846 33.8896 27.8846 34.3618C27.8846 34.834 27.5018 35.2168 27.0296 35.2168C26.5574 35.2168 26.1746 34.834 26.1746 34.3618C26.1746 33.8896 26.5574 33.5068 27.0296 33.5068Z" fill="#1A1A1A"/>
</svg>
