<svg width="48" height="55" viewBox="0 0 48 55" fill="none" xmlns="http://www.w3.org/2000/svg">
<path d="M6.51401 35.697L8.58801 33L10.775 34.039L12.061 36.509L18.335 36.459L19.333 34.382L20.411 35.697L22.92 34.039L24.405 35.16H25.961L33.377 34.382L38.148 35.16L40.398 36.512L41.675 38.376L43.145 40.205L45.202 45.222V48.074L44.061 51.186L42.505 52.431L36.497 54.194L30.791 51.86L25.961 52.431L20.411 54.194H18.596L17.092 51.86L8.95001 51.186L4.07501 53.105L2.259 51.86L2 50.097L5.022 47.99L4.689 43.378L6.51401 35.697Z" fill="#2C2C2C"/>
<path opacity="0.7" d="M8.3717 43.9995C9.68171 43.9995 10.7445 44.9299 10.7448 46.0776C10.7448 47.2255 9.68187 48.1567 8.3717 48.1567C7.06169 48.1566 5.99963 47.2254 5.99963 46.0776C5.9999 44.93 7.06185 43.9997 8.3717 43.9995ZM21.3717 43.9995C22.6817 43.9995 23.7445 44.9299 23.7448 46.0776C23.7448 47.2255 22.6819 48.1567 21.3717 48.1567C20.0617 48.1566 18.9996 47.2254 18.9996 46.0776C18.9999 44.93 20.0619 43.9997 21.3717 43.9995Z" fill="#FFAFA3"/>
<path opacity="0.7" d="M8.29457 35.2947C8.47255 35.0528 8.78881 34.9452 9.07875 35.0271C9.43375 35.1271 10.2042 35.8201 10.6432 36.5691C10.821 36.8721 10.611 37.2193 10.2721 37.3104C9.50221 37.5163 8.88524 37.8062 8.17836 38.3221C7.73736 38.6431 7.16238 38.3266 7.30238 37.7986C7.54738 36.8688 7.91064 35.8146 8.29457 35.2947ZM21.9205 35.0271C22.2104 34.9452 22.5267 35.053 22.7047 35.2947C23.0887 35.8146 23.4529 36.8687 23.6979 37.7986C23.8379 38.3266 23.2629 38.6431 22.8219 38.3221C22.115 37.8061 21.498 37.5163 20.7282 37.3104C20.3892 37.2194 20.1791 36.8721 20.3571 36.5691C20.7959 35.8204 21.5654 35.1276 21.9205 35.0271Z" fill="#FFAFA3"/>
<path d="M14.9609 47.5C15.2371 47.5 15.4609 47.7239 15.4609 48C15.4609 48.2761 15.2371 48.5 14.9609 48.5H14C13.7239 48.5 13.5 48.2761 13.5 48C13.5 47.7239 13.7239 47.5 14 47.5H14.9609Z" fill="#D9D9D9"/>
<path d="M3.76667 45.0883C3.76667 43.48 3.76536 42.2594 4.11823 40.5365C4.29791 38.55 4.84868 35.5838 6.54401 33.2856C7.1729 32.4352 8.27811 32.0591 9.29499 32.3451L9.53522 32.4174C10.1068 32.6015 10.763 32.9016 11.3751 33.436C11.9989 33.9808 12.5447 34.7421 12.919 35.8002C13.5474 35.6289 14.2274 35.4214 15.1055 35.4213C16.0308 35.4213 16.8874 35.6222 17.6573 35.8246C17.8032 35.4291 17.9743 35.095 18.1719 34.8002C18.4738 34.3501 18.8164 34.0233 19.1456 33.7319L20.1397 34.8549L19.1466 33.7309C19.3107 33.5858 19.5559 33.4456 19.8682 33.4555C20.1732 33.4653 20.3953 33.6143 20.5264 33.7338C20.7563 33.9433 20.9142 34.2572 20.9981 34.4203C21.0214 34.4655 21.0423 34.5067 21.0616 34.5444C21.0695 34.5366 21.0788 34.53 21.087 34.5219C21.296 34.3147 21.5023 34.0771 21.752 33.8071C21.9706 33.5707 22.2493 33.2785 22.5303 33.0981C22.6681 33.0097 22.8967 32.8876 23.1788 32.8822C23.4825 32.8765 23.7439 33.006 23.9278 33.2123L24.002 33.3051L24.1583 33.5336C24.3951 33.8917 24.6017 34.2652 24.7852 34.6459H25.6202C26.4186 34.6431 27.3815 34.5064 28.4747 34.349L29.2891 34.2192C29.5907 34.1688 29.9208 34.1125 30.2725 34.0531C30.9687 33.9357 31.7398 33.8097 32.5069 33.7074C33.2726 33.6054 34.0479 33.5251 34.751 33.5033C35.4301 33.4824 36.0991 33.5141 36.6417 33.6615C38.8981 34.2118 40.6859 35.3097 41.9708 36.8774C43.2128 38.3929 43.9494 40.3055 44.2257 42.4906C46.2951 44.3114 46.6899 47.2841 45.7471 49.6742C44.6939 52.3439 42.1133 54.269 38.4825 54.728L38.294 53.2397C41.4849 52.8365 43.5349 51.1936 44.3516 49.1235C45.1292 47.1518 44.7221 44.8231 43.1094 43.5102L43.0977 43.5004L43.086 43.4897L43.5831 42.9281L43.588 42.9213L43.086 43.4897C42.9008 43.3258 42.7862 43.0989 42.7608 42.8578C42.5303 40.8135 41.8704 39.1217 40.8106 37.8285C39.7537 36.5389 38.2626 35.6003 36.2872 35.1186L36.2745 35.1156L36.2628 35.1117L36.1329 35.0805C35.8122 35.0126 35.3619 34.9859 34.7979 35.0033C34.1665 35.0228 33.447 35.0949 32.7051 35.1938C31.965 35.2924 31.215 35.4157 30.5216 35.5326C29.835 35.6485 29.1917 35.7608 28.6895 35.8334C27.6291 35.986 26.5513 36.1427 25.626 36.1459H25.3809C25.4968 36.5055 25.5965 36.8644 25.6817 37.2182C25.7787 37.6208 25.5315 38.0263 25.129 38.1235C24.7263 38.2205 24.3207 37.9724 24.2237 37.5697C23.9741 36.5336 23.6066 35.5083 23.0616 34.6088C23.0006 34.6703 22.93 34.7409 22.8526 34.8246C22.6483 35.0456 22.3826 35.3505 22.1436 35.5873C22.0197 35.7102 21.8827 35.8352 21.7403 35.9418C21.6389 36.0177 21.5102 36.1028 21.3604 36.1664L21.2032 36.2221C20.5655 36.4011 20.1604 35.9231 20.0333 35.7514C19.9171 35.5944 19.8133 35.396 19.7344 35.2416C19.6179 35.3657 19.5138 35.4934 19.418 35.6362C19.2256 35.9233 19.0461 36.3048 18.8985 36.8881L18.8956 36.8871C18.8059 37.2458 18.4855 37.478 18.1407 37.478H18.1221C18.1114 37.4777 18.0916 37.4773 18.0675 37.475C18.0463 37.4731 18.0023 37.4674 17.9454 37.4526C16.914 37.1866 16.0651 36.9213 15.1055 36.9213C14.2545 36.9214 13.8602 37.1372 12.836 37.3725L12.8253 37.3744C12.2782 37.4914 11.7645 37.1518 11.6173 36.6508L11.6163 36.6469L11.4971 36.2778C11.2036 35.4586 10.801 34.9259 10.3887 34.5658C9.97152 34.2015 9.51302 33.9862 9.07526 33.8451L8.88874 33.7895C8.47016 33.6717 8.00829 33.8285 7.75104 34.1752L7.75202 34.1762C6.30982 36.1313 5.78964 38.7472 5.6153 40.643C5.61479 40.6691 5.61276 40.6956 5.60944 40.7221C5.60834 40.7309 5.60583 40.7393 5.60456 40.7475C5.60425 40.7514 5.60398 40.7562 5.60358 40.7612C5.60239 40.7763 5.60093 40.7987 5.5987 40.8217C5.59295 40.8809 5.57705 40.9367 5.55866 40.9906C5.26961 42.47 5.26667 43.537 5.26667 45.0883C5.2667 46.1936 5.53121 47.0727 5.98151 47.7797C6.434 48.4901 7.10148 49.0686 7.96882 49.5268C9.72448 50.4542 12.226 50.849 15.1055 50.849C15.9936 50.849 16.5737 50.8117 17.3272 50.7299C17.409 50.536 17.51 50.3527 17.626 50.1821C18.2709 49.2341 19.4021 48.5948 20.4239 48.3549C20.827 48.2604 21.2305 48.5104 21.3253 48.9135C21.4199 49.3166 21.1697 49.7201 20.7667 49.8149C20.0205 49.99 19.2529 50.4575 18.8663 51.0258C18.682 51.2968 18.5973 51.57 18.6094 51.8432C18.6216 52.1149 18.7332 52.4618 19.0743 52.8754L18.3936 53.4369L18.4962 53.353L19.0753 52.8764C19.4686 53.3537 20.0483 53.5404 20.8096 53.4614C21.5869 53.3806 22.4679 53.0228 23.2618 52.5209L24.0635 53.7895C23.1445 54.3704 22.0424 54.8406 20.9649 54.9526C19.8716 55.0662 18.7246 54.8099 17.9171 53.8295C17.5001 53.3241 17.2458 52.7955 17.1514 52.2582C16.499 52.3208 15.9177 52.349 15.1055 52.349C13.1324 52.349 11.2375 52.1704 9.57819 51.7299C8.79499 52.5025 7.51321 53.21 6.25202 53.5766C5.51544 53.7907 4.72659 53.9074 3.9903 53.8276C3.24694 53.747 2.51046 53.4577 1.98444 52.8197C1.45739 52.1801 1.21825 51.4875 1.253 50.7905C1.28703 50.1091 1.57851 49.5047 1.96198 49.0102C2.51724 48.2941 3.32941 47.7247 4.1319 47.3783C3.89097 46.6874 3.76669 45.924 3.76667 45.0883ZM29.543 48.0004C30.0196 50.3524 31.7703 51.6866 33.4532 52.392C35.1237 53.0921 36.9493 53.2822 38.1466 53.2514L38.2198 53.2494L38.294 53.2397L38.4825 54.728L38.3721 54.7426L38.336 54.7465L38.1876 54.7504C36.9194 54.7832 35.0395 54.6026 33.2335 53.9194L32.8731 53.7758C32.3103 53.5399 31.7212 53.2307 31.1514 52.8393C29.9948 52.7177 29.0181 52.6207 28.1221 52.5141C26.7977 52.3569 25.3824 52.9545 24.0645 53.7885L23.2618 52.5209C24.6517 51.6412 26.4426 50.8042 28.2999 51.0248C28.635 51.0647 28.9814 51.1008 29.3458 51.1401C28.7606 50.3671 28.3025 49.4293 28.0733 48.2983L29.543 48.0004ZM4.80769 48.7231C4.19538 48.9722 3.55204 49.4075 3.14753 49.9291C2.89522 50.2545 2.76566 50.5724 2.75104 50.8656C2.73728 51.1431 2.82097 51.4773 3.14069 51.8656C3.35013 52.1197 3.67753 52.2849 4.15144 52.3364C4.63249 52.3885 5.21602 52.3155 5.83308 52.1362C6.61081 51.9101 7.34946 51.5425 7.91022 51.1586C7.68982 51.063 7.47537 50.9622 7.26862 50.853C6.26986 50.3254 5.42113 49.6278 4.80769 48.7231ZM30.4014 44.7856C31.9639 44.4698 33.4877 45.4385 33.879 46.9653L33.9132 47.1147C33.9773 47.432 34.188 47.7906 34.8594 48.1342L35.1768 48.2807L35.5264 48.4125C36.3349 48.6867 37.2363 48.794 37.8829 48.7953C39.6251 48.5376 40.0878 47.7831 40.2051 47.4867C40.2981 47.2499 40.2866 47.0873 40.2667 46.9994C40.2572 46.9576 40.2432 46.9296 40.2354 46.9145C39.9676 46.6462 39.9405 46.2134 40.1846 45.9125C40.4457 45.5909 40.9177 45.5421 41.2393 45.8031C41.4735 45.9932 41.6491 46.3171 41.7286 46.6674C41.8158 47.0517 41.8028 47.5215 41.5997 48.0375V48.0395C41.254 48.9125 40.2787 49.9736 38.0469 50.2885L37.9971 50.2953L37.9473 50.2963C37.0601 50.3028 35.7406 50.1424 34.5977 49.6635C33.4048 49.1645 32.6492 48.4359 32.4425 47.4125C32.2794 46.6116 31.4991 46.0934 30.6983 46.2553L30.6993 46.2563C29.8986 46.419 29.3809 47.2003 29.543 48.0004L28.0733 48.2983C27.7458 46.6847 28.7896 45.114 30.4005 44.7865L30.4014 44.7856ZM4.128 40.4897C4.12737 40.4927 4.12697 40.4973 4.12604 40.5024C4.12727 40.4952 4.12852 40.488 4.12995 40.4809C4.12938 40.4834 4.12868 40.4864 4.128 40.4897ZM18.1466 36.6977L17.4454 36.5199L18.1397 36.6967L18.1466 36.6977L18.171 36.7045L18.1866 36.7074L18.1466 36.6977Z" fill="#1A1A1A"/>
<path d="M19.6817 44.3867C19.9417 44.0725 20.398 44.0359 20.7009 44.3057C21.0036 44.5754 21.0379 45.0489 20.7781 45.3631C19.9866 46.3196 19.0716 46.5989 18.2268 46.4312C17.4499 46.277 16.8414 45.7674 16.5084 45.3592C16.2505 45.0431 16.2884 44.5703 16.5931 44.3027C16.8978 44.0352 17.3535 44.0745 17.6113 44.3906C17.8026 44.6251 18.1404 44.8868 18.4978 44.9579C18.7875 45.0154 19.1958 44.9739 19.6817 44.3867Z" fill="#D9D9D9"/>
<path d="M9.6084 44.3867C9.34839 44.0725 8.89207 44.0359 8.58921 44.3057C8.28646 44.5754 8.25216 45.0489 8.51204 45.3631C9.30348 46.3196 10.2185 46.5989 11.0633 46.4312C11.8402 46.277 12.4487 45.7674 12.7817 45.3592C13.0396 45.0431 13.0017 44.5703 12.697 44.3027C12.3923 44.0352 11.9366 44.0745 11.6788 44.3906C11.4875 44.6251 11.1497 44.8868 10.7923 44.9579C10.5026 45.0154 10.0943 44.9739 9.6084 44.3867Z" fill="#D9D9D9"/>
</svg>
