<svg width="48" height="55" viewBox="0 0 48 55" fill="none" xmlns="http://www.w3.org/2000/svg">
<path d="M6.51401 35.697L8.58801 33L10.775 34.039L12.061 36.509L18.335 36.459L19.333 34.382L21.76 33.034L24.405 35.16H25.961L33.377 34.382L39.391 35.16L41.675 38.376L43.114 40.687L45.202 45.222V48.074L44.061 51.186L42.505 52.431L36.497 54.194L30.791 51.86L25.961 52.431L20.411 54.194H18.596L17.092 51.86L8.95001 51.186L4.07501 53.105L2.259 51.86L2 50.097L5.022 47.99L4.689 43.378L6.51401 35.697Z" fill="#FFE0FC"/>
<path d="M19.6022 49.2505C20.0164 49.2505 20.3522 49.5863 20.3522 50.0005C20.352 50.3641 20.0932 50.6665 19.7496 50.7349V51.9233C19.808 51.9629 19.894 52.0238 19.9811 52.1108C20.0299 52.1597 20.073 52.2108 20.0953 52.2368C20.109 52.2527 20.1175 52.2628 20.1256 52.272C20.1274 52.2741 20.1291 52.2763 20.1305 52.2778C20.1333 52.2799 20.1406 52.2849 20.1598 52.2974L20.1676 52.3022L20.1744 52.3071L20.316 52.4028L20.319 52.4048C20.3794 52.4451 20.4165 52.4705 20.4664 52.5034L20.4723 52.5073C20.4828 52.5098 20.4947 52.5119 20.5065 52.5151C20.5473 52.5264 20.6313 52.5524 20.7233 52.6089L20.7379 52.6177L20.7526 52.6274C20.7655 52.6363 20.7778 52.6457 20.7897 52.6548C20.815 52.6646 20.8376 52.6732 20.8551 52.6812C20.8564 52.6817 20.8578 52.6825 20.859 52.6831H22.316C22.7299 52.6833 23.0658 53.0192 23.066 53.4331C23.0658 53.847 22.73 54.1829 22.316 54.1831H20.8073C20.7717 54.1832 20.5996 54.1889 20.4156 54.1265L20.403 54.1226C20.3605 54.1073 20.324 54.0911 20.2994 54.0796C20.2876 54.074 20.276 54.0678 20.2662 54.063C20.2468 54.0589 20.2201 54.0537 20.192 54.0454C20.1694 54.0387 20.1355 54.0275 20.0953 54.0103L19.9586 53.936L19.9508 53.9302L19.942 53.9243C19.9341 53.9186 19.9271 53.9116 19.9196 53.9058C19.7728 53.8477 19.6526 53.7636 19.6373 53.7534V53.7524C19.5883 53.72 19.5271 53.6796 19.4869 53.6528V53.6519C19.433 53.6162 19.379 53.5802 19.3307 53.5474V53.5464C19.2645 53.5031 19.1697 53.4381 19.0709 53.3394L19.066 53.3345C19.0203 53.2878 18.978 53.238 18.9576 53.2144C18.9448 53.1994 18.9366 53.1893 18.9293 53.1812C18.9233 53.1744 18.9207 53.1716 18.9205 53.1714C18.928 53.1789 18.9325 53.1807 18.8873 53.1509L18.8844 53.1489C18.8241 53.1088 18.7868 53.0823 18.7369 53.0493L18.734 53.0474C18.7203 53.0382 18.6205 52.9767 18.5221 52.8813L18.4264 52.7749L18.4205 52.7671C18.2359 52.516 18.2495 52.2497 18.2496 52.2212V50.5044C18.2496 50.4281 18.2522 50.2532 18.358 50.0454C18.3764 50.0091 18.3942 49.9775 18.4069 49.9565C18.4208 49.9336 18.4355 49.9111 18.444 49.8979C18.4462 49.8944 18.449 49.8909 18.4508 49.8882C18.4678 49.8419 18.5464 49.6353 18.7662 49.4917L18.7653 49.4907L18.7682 49.4897C18.7692 49.4891 18.7702 49.4876 18.7711 49.4868L18.7721 49.4878C18.7917 49.4753 18.8119 49.466 18.8297 49.4565C18.8602 49.4301 18.8941 49.4025 18.9332 49.3784L18.9352 49.3813C19.1006 49.2792 19.2616 49.2609 19.3082 49.2563C19.3727 49.2501 19.4364 49.2505 19.4528 49.2505H19.6022ZM36.6823 49.4702C36.9752 49.1774 37.4499 49.1774 37.7428 49.4702C38.0156 49.7435 38.0339 50.1749 37.7975 50.4692C37.7894 50.4914 37.7811 50.5164 37.7692 50.5415L37.7701 50.5425C37.7692 50.5442 37.7671 50.5456 37.7662 50.5474C37.7649 50.5503 37.7648 50.5542 37.7633 50.5571L37.7614 50.5562C37.7518 50.5753 37.741 50.5918 37.7321 50.6069H37.733C37.7118 50.657 37.6683 50.7431 37.5875 50.8306C37.571 50.8542 37.5554 50.8738 37.5426 50.8892L37.5348 50.9028C37.4916 50.9849 37.443 51.0435 37.4186 51.0718C37.405 51.0875 37.393 51.1008 37.3854 51.1089C37.3815 51.113 37.3781 51.1171 37.3756 51.1196C37.3727 51.1227 37.3712 51.1239 37.3698 51.1255L37.3561 51.1401L37.3414 51.1538C37.3363 51.1586 37.3302 51.1632 37.3239 51.1694C37.3218 51.173 37.3202 51.1774 37.318 51.1812C37.3109 51.1931 37.3018 51.2097 37.2906 51.2271L37.2877 51.231C37.2573 51.3102 37.2181 51.3844 37.1774 51.4468L37.1793 51.4478C37.1769 51.4515 37.173 51.4548 37.1705 51.4585C37.1696 51.4599 37.1695 51.462 37.1686 51.4634L37.1676 51.4624C37.1503 51.4882 37.1338 51.5103 37.1217 51.5259V51.5269C37.1207 51.5286 37.1187 51.5305 37.1168 51.5337C37.1138 51.539 37.1069 51.5524 37.1002 51.564C37.093 51.5764 37.0817 51.594 37.069 51.6138L37.0612 51.6274L37.0514 51.6401C37.0129 51.6948 36.974 51.7376 36.9401 51.7729C36.938 51.7766 36.9364 51.7809 36.9342 51.7847C36.927 51.7971 36.9157 51.8156 36.903 51.8354L36.8932 51.8511L36.8307 51.9312C36.8107 51.9546 36.7925 51.9755 36.776 51.9927C36.7724 51.9988 36.7685 52.006 36.7643 52.0132C36.7561 52.0268 36.744 52.046 36.7301 52.0669L36.7272 52.0718L36.6344 52.1899C36.6068 52.2207 36.5839 52.2424 36.5719 52.2544C36.5399 52.2864 36.4853 52.3413 36.4039 52.4097L36.3971 52.4155L36.3961 52.4146C36.305 52.4894 36.2783 52.508 36.2135 52.5649C36.1608 52.6112 36.1048 52.6668 36.0367 52.7349C35.9725 52.7991 35.9153 52.8564 35.8649 52.9058C35.8191 52.9524 35.757 53.0143 35.6754 53.0786L35.6744 53.0776C35.6274 53.115 35.5623 53.1625 35.5319 53.1841C35.5309 53.1849 35.5301 53.1861 35.5289 53.187C35.515 53.199 35.4952 53.216 35.4713 53.2368C35.4239 53.2781 35.3633 53.3316 35.3024 53.3853C35.2414 53.4389 35.1805 53.4919 35.1344 53.5327C35.0942 53.5683 35.0742 53.5868 35.069 53.5913C34.7684 53.8758 34.2932 53.8623 34.0084 53.562C33.724 53.2613 33.7373 52.7872 34.0377 52.5024C34.0603 52.481 34.1974 52.3594 34.3112 52.2593C34.4141 52.1687 34.5729 52.0289 34.6207 51.9927L34.6315 51.9849C34.6454 51.9747 34.6595 51.9644 34.6705 51.9565C34.6828 51.9479 34.6927 51.9413 34.7028 51.9341C34.7233 51.9194 34.7346 51.9098 34.7408 51.9048L34.7477 51.8999C34.7529 51.8958 34.7602 51.8903 34.8043 51.8452L34.816 51.8335C34.8596 51.7909 34.9105 51.74 34.9762 51.6743C35.0381 51.6124 35.1279 51.5217 35.2233 51.438C35.3057 51.3656 35.4235 51.2739 35.4449 51.2563C35.4582 51.2451 35.4684 51.2353 35.4772 51.2271C35.4835 51.2211 35.4891 51.215 35.4957 51.2085C35.4972 51.206 35.4991 51.2032 35.5006 51.2007C35.5078 51.1885 35.5188 51.1716 35.5309 51.1528L36.152 51.5522L36.1393 51.5435L35.5309 51.1528L35.5406 51.1372C35.5884 51.0669 35.6386 51.012 35.6608 50.9888C35.6635 50.9842 35.6666 50.9791 35.6696 50.9741C35.6786 50.9591 35.6914 50.9389 35.7067 50.9165H35.7076C35.7545 50.847 35.806 50.7887 35.8278 50.7661C35.8301 50.762 35.8329 50.7578 35.8356 50.7534C35.8431 50.7408 35.8528 50.7238 35.8649 50.7056C35.876 50.6885 35.8891 50.6743 35.899 50.6606C35.9085 50.6324 35.919 50.5982 35.9352 50.564L35.943 50.5503C35.9655 50.5052 35.9883 50.47 36.0035 50.4478L36.0387 50.3989C36.0429 50.3916 36.0488 50.3806 36.0553 50.3696C36.0624 50.3576 36.0724 50.3412 36.0836 50.3237L36.0934 50.3081C36.1435 50.2342 36.1926 50.1813 36.2252 50.1479C36.2468 50.107 36.2707 50.0723 36.2916 50.0435L36.3453 49.9761C36.3641 49.943 36.3894 49.9067 36.4205 49.8687C36.4522 49.7879 36.4898 49.7145 36.525 49.6597L36.5309 49.6519L36.5358 49.644C36.5982 49.5521 36.6615 49.491 36.6823 49.4702ZM20.3248 53.2544L20.3307 53.2476L20.7028 52.6411L20.3248 53.2544ZM3.94495 48.2505C4.359 48.2507 4.69495 48.5864 4.69495 49.0005C4.69478 49.3641 4.43588 49.6664 4.09241 49.7349V50.9233C4.11439 50.9382 4.1406 50.956 4.16858 50.9771L4.31897 51.106L4.32483 51.1108L4.32971 51.1167C4.37553 51.1635 4.41773 51.2128 4.43909 51.2378C4.45212 51.253 4.46162 51.2642 4.46936 51.2729C4.47117 51.275 4.47289 51.2773 4.47424 51.2788C4.46833 51.273 4.4653 51.2728 4.50842 51.3013L4.51135 51.3032C4.57953 51.3487 4.60669 51.3684 4.65393 51.3989L4.23303 52.0483L4.2467 52.0288L4.65393 51.3989L4.66077 51.4038L4.66858 51.4087C4.71876 51.4428 4.76457 51.474 4.8092 51.5034L4.81213 51.5054L4.81409 51.5063C4.82542 51.509 4.83846 51.5116 4.8512 51.5151C4.89289 51.5268 4.97563 51.5533 5.06604 51.6089L5.07483 51.6138L5.08362 51.6196C5.10068 51.6308 5.11716 51.6431 5.13245 51.6548C5.15924 51.6652 5.18282 51.6748 5.20081 51.6831H6.65881C7.07254 51.6835 7.4086 52.0193 7.40881 52.4331C7.40862 52.8469 7.07255 53.1827 6.65881 53.1831H5.15002C5.11393 53.1831 4.94492 53.1891 4.76233 53.1284L4.75354 53.1255L4.74573 53.1226C4.70337 53.1073 4.66704 53.0903 4.64221 53.0786C4.63123 53.0734 4.62026 53.0676 4.61096 53.063C4.5915 53.0589 4.5644 53.0538 4.53577 53.0454C4.51308 53.0388 4.47842 53.0276 4.43811 53.0103L4.30139 52.936L4.28772 52.9263L4.27307 52.9155C4.26911 52.9126 4.26518 52.9088 4.26135 52.9058C4.11902 52.8492 4.00133 52.7676 3.9801 52.7534V52.7524C3.92655 52.7171 3.87296 52.6817 3.82483 52.6489V52.6479C3.77287 52.6139 3.71008 52.5718 3.67932 52.5513V52.5503C3.62292 52.5131 3.51951 52.4451 3.4137 52.3394L3.40881 52.3345C3.36281 52.2875 3.32082 52.2374 3.29944 52.2124C3.28651 52.1973 3.27782 52.1869 3.27014 52.1782L3.26917 52.1772L3.2301 52.1509L3.22717 52.1489L3.08459 52.0532L3.07092 52.0435L3.4928 51.4233L3.50159 51.4097L3.07092 52.0435C3.05029 52.0294 3.00541 51.9994 2.96252 51.9663C2.94387 51.9519 2.9138 51.928 2.87952 51.896L2.76917 51.7749L2.76331 51.7671C2.62416 51.5779 2.59699 51.3798 2.59241 51.2817V49.5044C2.59241 49.4281 2.59385 49.2534 2.69983 49.0454L2.75159 48.9556C2.76464 48.9342 2.77783 48.9124 2.78577 48.8999C2.78792 48.8965 2.7909 48.8937 2.7926 48.8911V48.8882C2.80742 48.8492 2.88231 48.6456 3.09827 48.4995L3.09729 48.4985C3.10116 48.4959 3.10617 48.4942 3.10999 48.4917C3.11556 48.4881 3.12082 48.4835 3.12659 48.48L3.12854 48.4819C3.14297 48.473 3.1572 48.4657 3.17053 48.4585C3.19856 48.4339 3.22961 48.4091 3.26526 48.3862L3.26624 48.3872C3.43674 48.2781 3.60556 48.2607 3.651 48.2563C3.71588 48.2501 3.77991 48.2505 3.79553 48.2505H3.94495ZM33.6813 48.4702C33.9741 48.1773 34.4489 48.1774 34.7418 48.4702C35.0139 48.7423 35.0329 49.1709 34.7994 49.4653C34.791 49.4884 34.7791 49.5136 34.7662 49.5405L34.7692 49.5425C34.7667 49.5475 34.7628 49.5523 34.7604 49.5571C34.7559 49.566 34.7527 49.5764 34.7477 49.5854L34.7448 49.5835C34.7412 49.5899 34.7374 49.5962 34.734 49.6021C34.7336 49.6035 34.7336 49.6056 34.733 49.6069C34.7118 49.6571 34.6673 49.7432 34.5865 49.8306C34.5701 49.8541 34.5543 49.8738 34.5416 49.8892L34.5377 49.896L34.5348 49.9028C34.4916 49.9848 34.442 50.0436 34.4176 50.0718C34.4041 50.0873 34.3919 50.1009 34.3844 50.1089C34.3807 50.1129 34.377 50.1172 34.3746 50.1196C34.372 50.1224 34.3702 50.124 34.3688 50.1255L34.3551 50.1401L34.3405 50.1538C34.3356 50.1584 34.3299 50.1635 34.3239 50.1694C34.3219 50.173 34.3202 50.1775 34.318 50.1812C34.3109 50.1931 34.3008 50.2098 34.2897 50.2271L34.2867 50.231C34.2564 50.3099 34.218 50.3846 34.1774 50.4468L34.1783 50.4478C34.1773 50.4493 34.1754 50.4511 34.1744 50.4526C34.1723 50.456 34.1708 50.4602 34.1686 50.4634L34.1666 50.4624C34.1453 50.4943 34.1259 50.5215 34.1139 50.5366C34.1103 50.5429 34.1049 50.5542 34.0992 50.564C34.0921 50.5763 34.0815 50.5943 34.069 50.6138L34.0602 50.6274L34.0514 50.6401C34.0129 50.6948 33.973 50.7376 33.9391 50.7729C33.9371 50.7765 33.9353 50.781 33.9332 50.7847C33.926 50.7971 33.9156 50.8158 33.903 50.8354L33.8971 50.8433L33.8922 50.8511L33.2848 50.438L33.2623 50.4233L33.8922 50.8511C33.8508 50.912 33.808 50.9584 33.775 50.9927C33.7715 50.9987 33.7675 51.0062 33.7633 51.0132C33.7552 51.0268 33.7439 51.0463 33.7301 51.0669L33.7262 51.0718L33.6334 51.1899C33.6059 51.2205 33.5828 51.2425 33.5709 51.2544C33.5389 51.2864 33.4841 51.3415 33.403 51.4097L33.3971 51.4155L33.3961 51.4146C33.3049 51.4894 33.2775 51.5079 33.2125 51.5649C33.16 51.6111 33.1037 51.6669 33.0358 51.7349C32.9717 51.7989 32.9142 51.8565 32.8639 51.9058C32.8182 51.9524 32.7559 52.0145 32.6744 52.0786L32.6735 52.0776C32.626 52.1153 32.5599 52.1629 32.5299 52.1841C32.2437 52.4711 31.78 52.4801 31.484 52.1997C31.1837 51.9151 31.1707 51.4409 31.4547 51.1401L31.524 51.0718C31.5504 51.0477 31.5819 51.0214 31.6198 50.9927L31.6305 50.9849L31.6696 50.9565C31.6816 50.948 31.6919 50.9411 31.7018 50.9341C31.7221 50.9196 31.7345 50.9099 31.7408 50.9048L31.7467 50.8999L31.8033 50.8452L31.8151 50.8335C31.8585 50.791 31.9097 50.7398 31.9752 50.6743C32.037 50.6125 32.1272 50.5216 32.2223 50.438C32.2984 50.3711 32.4055 50.2874 32.4381 50.2612L32.4772 50.2271C32.484 50.2206 32.4903 50.2139 32.4977 50.2065C32.4986 50.205 32.4997 50.2024 32.5006 50.2007C32.5077 50.1886 32.5181 50.1713 32.5299 50.1528L33.151 50.5522L33.1383 50.5435L32.5299 50.1528L32.5397 50.1372C32.5861 50.0688 32.6358 50.015 32.6588 49.9907C32.6618 49.9856 32.6661 49.9798 32.6696 49.9741C32.6785 49.9592 32.6907 49.9386 32.7057 49.9165L32.7916 49.8062C32.8057 49.7901 32.8176 49.7767 32.8258 49.7681C32.8285 49.7634 32.8325 49.7585 32.8356 49.7534C32.8436 49.74 32.8548 49.7222 32.8678 49.7026C32.8778 49.6874 32.8881 49.673 32.8971 49.6606C32.9065 49.6324 32.9189 49.5983 32.9352 49.564L32.9381 49.5571L32.942 49.5503L33.0026 49.4478C33.0174 49.4261 33.0312 49.4074 33.0377 49.3989C33.0419 49.3917 33.0479 49.3805 33.0543 49.3696C33.0614 49.3577 33.0715 49.341 33.0826 49.3237L33.0875 49.3159L33.0934 49.3081C33.1447 49.2325 33.1947 49.1781 33.2272 49.145C33.2699 49.0649 33.3176 49.0066 33.3444 48.9761L33.3453 48.9741C33.3641 48.9413 33.3897 48.9053 33.4205 48.8677C33.4503 48.7921 33.4871 48.7204 33.526 48.6606V48.6597C33.5274 48.6574 33.5294 48.655 33.5309 48.6528C33.5326 48.6502 33.5341 48.6467 33.5358 48.644L33.5367 48.645C33.5988 48.5522 33.6616 48.4899 33.6813 48.4702ZM4.66467 52.2603L4.67346 52.2476L5.04553 51.6411L4.66467 52.2603ZM37.1139 51.5376L36.4938 51.1167L37.1246 51.522L36.4703 51.1011L37.1139 51.5376ZM37.0299 51.0825H37.0309L36.6598 50.8218L37.1266 51.1216L36.6451 50.812L37.0299 51.0825ZM37.2897 51.0991L36.8258 50.6099L37.276 51.0366L36.8219 50.606L37.2897 51.0991ZM37.5094 50.8892L36.8893 50.562L36.861 50.5483L37.5094 50.8892ZM37.275 50.5884L37.277 50.5894L37.2067 50.5122L37.275 50.5884ZM34.1129 50.5376L33.4928 50.1167L33.9791 50.4292L33.4694 50.1011L34.1129 50.5376ZM37.7604 50.5269C37.7616 50.5231 37.7643 50.52 37.7653 50.5171C37.7692 50.5046 37.7746 50.4849 37.7692 50.5044C37.7683 50.5071 37.764 50.5149 37.7604 50.5269ZM37.1783 50.481H37.1793L37.0377 50.3237L37.0299 50.3159L37.1783 50.481ZM19.5895 50.4458L19.3268 50.0171L19.316 50.0005L19.5895 50.4458ZM37.1285 50.1636L37.4547 50.2681L37.4537 50.2671L37.1246 50.1616L37.1285 50.1636ZM36.2799 50.1235C36.2735 50.1415 36.2685 50.1601 36.2721 50.1479C36.2725 50.1467 36.2777 50.1324 36.2848 50.1118C36.2832 50.116 36.2812 50.12 36.2799 50.1235ZM34.0289 50.0825L33.6588 49.8218L34.1256 50.1216L33.65 49.8159L34.0289 50.0825ZM34.3229 50.1216C34.3238 50.1186 34.3259 50.1154 34.3268 50.1128C34.3295 50.1037 34.3304 50.0954 34.3317 50.0903C34.33 50.0973 34.3264 50.1082 34.3229 50.1216ZM34.5094 49.8892L33.8883 49.562L33.8639 49.5503L34.5094 49.8892ZM18.6315 49.7114C18.6302 49.7138 18.6294 49.7164 18.6285 49.7183C18.6297 49.7158 18.6343 49.7084 18.6393 49.6987C18.6363 49.704 18.6331 49.7083 18.6315 49.7114ZM3.94788 49.4526L3.94885 49.4536L3.94495 49.4468L3.79553 49.2134L3.66956 49.0171L3.94788 49.4526ZM4.30432 49.4048C4.30581 49.4021 4.30804 49.4 4.3092 49.3979C4.31254 49.3918 4.3148 49.3858 4.31604 49.3833C4.31527 49.3847 4.31014 49.3936 4.30432 49.4048ZM33.986 49.3901L33.9772 49.3853L33.3297 49.0796L33.986 49.3901ZM33.3707 49.0239C33.3708 49.0234 33.3714 49.0221 33.3717 49.021V49.0181C33.3711 49.0208 33.3709 49.0231 33.3707 49.0239ZM12.9928 38.3374C13.3479 38.2382 13.6786 38.2286 13.9781 38.3315C14.2782 38.4348 14.4882 38.6309 14.6403 38.8296C14.7076 38.9177 14.7678 39.0126 14.8219 39.106C14.8842 39.0067 14.9524 38.9092 15.027 38.8208C15.19 38.6276 15.407 38.4422 15.691 38.3403C15.9467 38.2489 16.2242 38.237 16.5133 38.3071L16.6383 38.3423L16.8307 38.4165C17.0156 38.5002 17.178 38.6147 17.3073 38.7642C17.4817 38.9662 17.5707 39.2044 17.5963 39.4468C17.6449 39.9081 17.4659 40.3898 17.2321 40.8013C16.7583 41.6343 15.8832 42.4881 15.0758 42.8989L14.8795 42.9985L14.6735 42.9214L14.4645 42.8364C13.4365 42.3848 12.6386 41.5368 12.2545 40.7144C12.0512 40.2787 11.9375 39.793 12.028 39.3481C12.127 38.8619 12.4607 38.4862 12.9928 38.3374ZM8.70862 33.0005C9.94462 33.8725 12.3792 35.7855 12.2272 36.4595C10.0402 39.1354 7.3456 40.0146 4.99963 41.3706L6.33069 35.3062L8.70862 33.0005ZM21.7584 33.2134C22.0534 33.0775 22.3975 33.1001 22.6754 33.269L24.2301 34.2095C24.438 34.3355 24.5936 34.5333 24.6666 34.7651L25.6842 38.0112C25.8561 38.5581 25.536 39.1469 24.9772 39.272C22.8842 39.741 20.0726 39.8569 18.7926 35.1069C18.6628 34.7447 20.4948 33.7972 21.7584 33.2134Z" fill="#FFBDF2"/>
<path d="M8.3717 43.9995C9.68171 43.9995 10.7445 44.9299 10.7448 46.0776C10.7448 47.2255 9.68187 48.1567 8.3717 48.1567C7.06169 48.1566 5.99963 47.2254 5.99963 46.0776C5.9999 44.93 7.06185 43.9997 8.3717 43.9995ZM21.3717 43.9995C22.6817 43.9995 23.7445 44.9299 23.7448 46.0776C23.7448 47.2255 22.6819 48.1567 21.3717 48.1567C20.0617 48.1566 18.9996 47.2254 18.9996 46.0776C18.9999 44.93 20.0619 43.9997 21.3717 43.9995Z" fill="#FF99E0"/>
<path d="M30.4014 44.7856C31.9638 44.4698 33.4876 45.4385 33.879 46.9653L33.9132 47.1147C33.9773 47.432 34.188 47.7906 34.8594 48.1342L35.1768 48.2807L35.5264 48.4125C36.3349 48.6867 37.2363 48.794 37.8829 48.7953C39.6251 48.5376 40.0878 47.7831 40.2051 47.4867C40.2981 47.2498 40.2866 47.0873 40.2667 46.9994C40.2572 46.9575 40.2432 46.9296 40.2354 46.9145C39.9676 46.6462 39.9405 46.2134 40.1846 45.9125C40.4457 45.5909 40.9177 45.5421 41.2393 45.8031C41.4735 45.9932 41.6491 46.3171 41.7286 46.6674C41.8158 47.0517 41.8028 47.5215 41.5997 48.0375V48.0395C41.254 48.9125 40.2787 49.9736 38.0469 50.2885L37.9971 50.2953L37.9473 50.2963C37.0601 50.3028 35.7406 50.1424 34.5977 49.6635C33.4048 49.1645 32.6492 48.4359 32.4425 47.4125C32.2794 46.6116 31.4991 46.0934 30.6983 46.2553C29.8972 46.4183 29.3806 47.2 29.543 48.0004C30.0196 50.3524 31.7703 51.6866 33.4532 52.392C35.1238 53.0921 36.9493 53.2822 38.1466 53.2514L38.2198 53.2494L38.293 53.2397L38.4825 54.728L38.3721 54.7426L38.336 54.7465L38.1876 54.7504C36.9194 54.7832 35.0395 54.6026 33.2335 53.9194L32.8731 53.7758C32.3103 53.5399 31.7212 53.2307 31.1514 52.8393C29.9948 52.7177 29.0181 52.6207 28.1221 52.5141C26.7976 52.3569 25.3815 52.9553 24.0635 53.7895C23.1445 54.3704 22.0424 54.8406 20.9649 54.9526C19.8716 55.0661 18.7246 54.8099 17.9171 53.8295C17.5001 53.3241 17.2458 52.7955 17.1514 52.2582C16.499 52.3208 15.9177 52.349 15.1055 52.349C13.132 52.349 11.2367 52.1705 9.57722 51.7299C8.79433 52.5026 7.51291 53.21 6.25202 53.5766C5.5155 53.7907 4.72658 53.9073 3.9903 53.8276C3.24708 53.747 2.51044 53.4584 1.98444 52.8207C1.4574 52.1811 1.21825 51.4875 1.253 50.7905C1.28703 50.1091 1.57851 49.5047 1.96198 49.0102C2.51724 48.2941 3.32941 47.7247 4.1319 47.3783C3.89098 46.6874 3.76668 45.924 3.76667 45.0883C3.76667 43.48 3.76535 42.2594 4.11823 40.5365C4.29791 38.55 4.84867 35.5838 6.54401 33.2856C7.1729 32.4352 8.27811 32.0591 9.29499 32.3451C9.91759 32.5205 10.6754 32.8251 11.3751 33.436C11.9989 33.9808 12.5447 34.7421 12.919 35.8002C13.5474 35.6289 14.2274 35.4214 15.1055 35.4213C16.0293 35.4213 16.8845 35.6215 17.6534 35.8237C18.0101 34.8109 18.5205 34.0643 19.1085 33.518C19.8195 32.8573 20.6017 32.5283 21.253 32.3451L21.4444 32.2992C22.4046 32.1083 23.421 32.4856 24.002 33.3051C24.3048 33.732 24.5624 34.1835 24.7852 34.6459H25.6202C26.4186 34.6431 27.3815 34.5064 28.4747 34.349L29.2891 34.2201C29.5908 34.1698 29.9208 34.1125 30.2725 34.0531C30.9687 33.9357 31.7398 33.8097 32.5069 33.7074C33.2726 33.6054 34.0479 33.5251 34.751 33.5033C35.4301 33.4824 36.0991 33.5141 36.6417 33.6615C38.8981 34.2118 40.6859 35.3097 41.9708 36.8774C43.2128 38.3929 43.9494 40.3055 44.2257 42.4906C46.2951 44.3114 46.6899 47.284 45.7471 49.6742C44.6939 52.3439 42.1133 54.269 38.4825 54.728L38.293 53.2397C41.4839 52.8365 43.5349 51.1936 44.3516 49.1235C45.1292 47.1518 44.7221 44.8231 43.1094 43.5102L43.0977 43.5004L43.086 43.4897C42.9008 43.3258 42.7862 43.0988 42.7608 42.8578C42.5303 40.8135 41.8704 39.1217 40.8106 37.8285C39.7537 36.5389 38.2626 35.6003 36.2872 35.1186L36.2745 35.1156L36.2628 35.1127L36.1329 35.0805C35.8122 35.0126 35.3619 34.9859 34.7979 35.0033C34.1665 35.0228 33.447 35.0949 32.7051 35.1938C31.965 35.2924 31.215 35.4157 30.5216 35.5326C29.835 35.6485 29.1917 35.7608 28.6895 35.8334C27.6291 35.986 26.5513 36.1427 25.626 36.1459H25.3809C25.4968 36.5054 25.5965 36.8644 25.6817 37.2182C25.7787 37.6208 25.5315 38.0263 25.129 38.1235C24.7263 38.2205 24.3207 37.9724 24.2237 37.5697C23.9329 36.3626 23.4843 35.1688 22.7784 34.1733C22.5362 33.8317 22.0811 33.6708 21.6592 33.7895C21.1586 33.9303 20.6149 34.167 20.13 34.6176C19.6494 35.0641 19.1841 35.7599 18.8985 36.8881L18.8956 36.8871C18.8059 37.2458 18.4855 37.478 18.1407 37.478H18.1221C18.1114 37.4777 18.0916 37.4772 18.0675 37.475C18.0463 37.4731 18.0023 37.4674 17.9454 37.4526C16.914 37.1866 16.0651 36.9213 15.1055 36.9213C14.2545 36.9214 13.8602 37.1372 12.836 37.3725L12.8253 37.3744C12.2782 37.4914 11.7645 37.1518 11.6173 36.6508L11.6163 36.6469L11.4971 36.2778C11.2036 35.4587 10.801 34.9259 10.3887 34.5658C9.97152 34.2015 9.51302 33.9862 9.07526 33.8451L8.88874 33.7895C8.47016 33.6717 8.00829 33.8285 7.75104 34.1752L7.75202 34.1762C6.30982 36.1313 5.78965 38.7472 5.6153 40.643C5.61479 40.6691 5.61276 40.6956 5.60944 40.7221C5.60835 40.7309 5.60583 40.7393 5.60456 40.7475C5.60425 40.7514 5.60398 40.7562 5.60358 40.7612C5.60239 40.7763 5.60093 40.7987 5.5987 40.8217C5.59295 40.8809 5.57705 40.9367 5.55866 40.9906C5.2696 42.47 5.26667 43.537 5.26667 45.0883C5.26669 46.1936 5.53121 47.0727 5.98151 47.7797C6.434 48.4901 7.10148 49.0686 7.96882 49.5268C9.72448 50.4542 12.226 50.849 15.1055 50.849C15.9936 50.849 16.5737 50.8117 17.3272 50.7299C17.409 50.536 17.51 50.3527 17.626 50.1821C18.2709 49.2341 19.4021 48.5948 20.4239 48.3549C20.827 48.2604 21.2305 48.5105 21.3253 48.9135C21.4199 49.3166 21.1697 49.7201 20.7667 49.8149C20.0205 49.99 19.2529 50.4575 18.8663 51.0258C18.682 51.2968 18.5973 51.57 18.6094 51.8432C18.6216 52.1148 18.7333 52.4618 19.0743 52.8754L18.3936 53.4369L18.4962 53.353L19.0753 52.8764C19.4686 53.3537 20.0483 53.5404 20.8096 53.4613C21.5869 53.3806 22.4679 53.0228 23.2618 52.5209C24.6517 51.6412 26.4426 50.8042 28.2999 51.0248C28.635 51.0647 28.9814 51.1008 29.3458 51.1401C28.8094 50.4316 28.3793 49.5848 28.1348 48.5776L28.0733 48.2983C27.7459 46.685 28.7882 45.114 30.4005 44.7865L30.4014 44.7856ZM4.80769 48.7231C4.19538 48.9722 3.55204 49.4076 3.14753 49.9291C2.89522 50.2545 2.76566 50.5724 2.75104 50.8656C2.73727 51.1431 2.82097 51.4773 3.14069 51.8656C3.35014 52.1197 3.67754 52.2849 4.15144 52.3363C4.6325 52.3885 5.21606 52.3155 5.83308 52.1362C6.61086 51.9101 7.34871 51.5416 7.90925 51.1576C7.68926 51.0621 7.475 50.962 7.26862 50.853C6.26985 50.3254 5.42113 49.6278 4.80769 48.7231ZM44.252 42.6967L44.253 42.7016C44.2528 42.6996 44.2513 42.6977 44.251 42.6957L44.252 42.6967ZM4.128 40.4897C4.12737 40.4927 4.12696 40.4973 4.12604 40.5024C4.12727 40.4952 4.12852 40.488 4.12995 40.4809C4.12938 40.4834 4.12868 40.4864 4.128 40.4897ZM18.1466 36.6977L17.4454 36.5199L18.1397 36.6967L18.1466 36.6977L18.171 36.7045L18.1866 36.7074L18.1466 36.6977Z" fill="#1A1A1A"/>
<path d="M8.29457 35.2947C8.47255 35.0528 8.78881 34.9452 9.07875 35.0271C9.43375 35.1271 10.2042 35.8201 10.6432 36.5691C10.821 36.8721 10.611 37.2193 10.2721 37.3104C9.50221 37.5163 8.88524 37.8062 8.17836 38.3221C7.73736 38.6431 7.16238 38.3266 7.30238 37.7986C7.54738 36.8688 7.91064 35.8146 8.29457 35.2947ZM21.9205 35.0271C22.2104 34.9452 22.5267 35.053 22.7047 35.2947C23.0887 35.8146 23.4529 36.8687 23.6979 37.7986C23.8379 38.3266 23.2629 38.6431 22.8219 38.3221C22.115 37.8061 21.498 37.5163 20.7282 37.3104C20.3892 37.2194 20.1791 36.8721 20.3571 36.5691C20.7959 35.8204 21.5654 35.1276 21.9205 35.0271Z" fill="#FF99E0"/>
<path d="M14.9609 47.5C15.2371 47.5 15.4609 47.7239 15.4609 48C15.4609 48.2761 15.2371 48.5 14.9609 48.5H14C13.7239 48.5 13.5 48.2761 13.5 48C13.5 47.7239 13.7239 47.5 14 47.5H14.9609Z" fill="#1A1A1A"/>
<path d="M19.6817 44.3867C19.9417 44.0725 20.398 44.0359 20.7009 44.3057C21.0036 44.5754 21.0379 45.0489 20.7781 45.3631C19.9866 46.3196 19.0716 46.5989 18.2268 46.4312C17.4499 46.277 16.8414 45.7674 16.5084 45.3592C16.2505 45.0431 16.2884 44.5703 16.5931 44.3027C16.8978 44.0352 17.3535 44.0745 17.6113 44.3906C17.8026 44.6251 18.1404 44.8868 18.4978 44.9579C18.7875 45.0154 19.1958 44.9739 19.6817 44.3867Z" fill="#1A1A1A"/>
<path d="M9.6084 44.3867C9.34839 44.0725 8.89207 44.0359 8.58921 44.3057C8.28646 44.5754 8.25216 45.0489 8.51204 45.3631C9.30348 46.3196 10.2185 46.5989 11.0633 46.4312C11.8402 46.277 12.4487 45.7674 12.7817 45.3592C13.0396 45.0431 13.0017 44.5703 12.697 44.3027C12.3923 44.0352 11.9366 44.0745 11.6788 44.3906C11.4875 44.6251 11.1497 44.8868 10.7923 44.9579C10.5026 45.0154 10.0943 44.9739 9.6084 44.3867Z" fill="#1A1A1A"/>
</svg>
