<svg width="48" height="55" viewBox="0 0 48 55" fill="none" xmlns="http://www.w3.org/2000/svg">
<path d="M6.51352 35.697L8.58805 33L10.7751 34.039L12.0614 36.509L18.3347 36.459L19.3331 34.382L21.7597 33.034L24.4047 35.16H25.9606L33.377 34.382L39.3912 35.16L41.675 38.376L43.1138 40.687L45.2016 45.222V48.074L44.0607 51.186L42.5048 52.431L36.4966 54.194L30.7913 51.86L25.9606 52.431L20.4113 54.194H18.5961L17.0921 51.86L8.94963 51.186L4.07451 53.105L2.25934 51.86L2 50.097L5.02222 47.99L4.68941 43.378L6.51352 35.697Z" fill="#FFAFA3"/>
<path d="M19.6796 49.2539C20.0577 49.2924 20.3524 49.6117 20.3524 50C20.3524 50.3637 20.0935 50.6659 19.7499 50.7344V51.9229C19.7724 51.9381 19.7989 51.9553 19.8271 51.9766L19.9794 52.1084L19.9853 52.1143H19.9843C20.0317 52.1622 20.0755 52.2127 20.0966 52.2373C20.1094 52.2523 20.1175 52.2621 20.1249 52.2705C20.1275 52.2735 20.1302 52.2757 20.1317 52.2773C20.1332 52.2784 20.1353 52.2812 20.1396 52.2842L20.163 52.2988L20.1718 52.3047L20.3134 52.4004L20.3222 52.4062L20.4648 52.501L20.4716 52.5059C20.483 52.5085 20.4959 52.5111 20.5087 52.5146C20.5501 52.5262 20.6355 52.5533 20.7284 52.6113L20.7372 52.6162L20.745 52.6221L20.787 52.6533C20.8146 52.6639 20.8388 52.6731 20.8573 52.6816L20.8593 52.6826H22.3153C22.7294 52.6826 23.0651 53.0186 23.0653 53.4326C23.0653 53.8207 22.7704 54.1401 22.3925 54.1787L22.3153 54.1826H20.8075C20.7722 54.1826 20.6018 54.1888 20.4179 54.127L20.4052 54.123V54.1221C20.3621 54.1067 20.3259 54.0909 20.3007 54.0791C20.2882 54.0732 20.2757 54.0675 20.2655 54.0625C20.2462 54.0584 20.2201 54.0531 20.1923 54.0449C20.1694 54.0382 20.1351 54.0263 20.0946 54.0088L19.9579 53.9346L19.9501 53.9287L19.9413 53.9229C19.9341 53.9176 19.9277 53.9116 19.9208 53.9062C19.7876 53.8538 19.6777 53.7795 19.6435 53.7559V53.7568C19.5873 53.7201 19.5288 53.6803 19.4843 53.6504V53.6494C19.4309 53.6143 19.3757 53.577 19.3339 53.5488V53.5479C19.2729 53.5079 19.1725 53.4411 19.0692 53.3369C19.0216 53.2888 18.9783 53.2378 18.9569 53.2129C18.9437 53.1974 18.9353 53.1873 18.9276 53.1787C18.9256 53.1764 18.9241 53.1743 18.9228 53.1729L18.8896 53.1514L18.8817 53.1465L19.3007 52.5244L19.3065 52.5146L18.8817 53.1465L18.7392 53.0508L18.7314 53.0449C18.7088 53.0297 18.6632 52.9999 18.619 52.9658C18.6 52.9511 18.5704 52.9267 18.536 52.8945L18.4257 52.7725L18.4198 52.7656L19.0243 52.3223L19.0478 52.3047L18.4198 52.7646C18.236 52.5134 18.2498 52.2481 18.2499 52.2207V50.5039L18.2519 50.4307C18.2571 50.3408 18.2776 50.2049 18.3554 50.0498L18.4091 49.9541C18.4226 49.9321 18.4362 49.91 18.4442 49.8975C18.4464 49.8941 18.4494 49.8913 18.4511 49.8887C18.4669 49.8464 18.5427 49.6395 18.7626 49.4941L18.7616 49.4932C18.7636 49.4918 18.7664 49.4915 18.7685 49.4902C18.7719 49.488 18.7748 49.4846 18.7782 49.4824L18.7792 49.4844C18.7961 49.4737 18.8135 49.4663 18.829 49.458C18.8541 49.4361 18.8819 49.4142 18.913 49.3936L18.912 49.3926C18.9133 49.3917 18.9155 49.3914 18.9169 49.3906C18.9212 49.3878 18.9252 49.3837 18.9296 49.3809L18.9315 49.3828C19.1002 49.2774 19.265 49.2601 19.3085 49.2559C19.3734 49.2496 19.4372 49.25 19.453 49.25H19.6024L19.6796 49.2539ZM36.7362 49.4209C37.0295 49.1792 37.4641 49.1937 37.7401 49.4668C38.0152 49.7393 38.0346 50.1721 37.7978 50.4678C37.7883 50.4937 37.7775 50.5227 37.7626 50.5527L37.7646 50.5537C37.7629 50.5571 37.7604 50.5602 37.7587 50.5635C37.758 50.5649 37.7575 50.5669 37.7567 50.5684L37.7558 50.5674C37.7478 50.5827 37.7387 50.5959 37.7314 50.6084C37.7304 50.6108 37.7305 50.6138 37.7294 50.6162C37.7075 50.6659 37.6637 50.7454 37.5888 50.8271C37.5702 50.854 37.5526 50.8754 37.539 50.8916L37.538 50.8936C37.537 50.8956 37.5371 50.8984 37.536 50.9004L37.5351 50.8994C37.4909 50.9845 37.442 51.0455 37.4169 51.0742C37.3925 51.1022 37.3644 51.1296 37.3622 51.1318L37.3554 51.1396L37.3476 51.1465C37.3388 51.155 37.331 51.1621 37.3241 51.1689C37.3219 51.1728 37.3207 51.1776 37.3183 51.1816C37.3111 51.1938 37.2999 51.2093 37.288 51.2275C37.2554 51.3126 37.2158 51.3929 37.1747 51.4551L37.1728 51.457L36.5487 51.042L36.4423 50.9717L37.1728 51.457C37.1528 51.487 37.132 51.5117 37.119 51.5283C37.1181 51.53 37.1176 51.5326 37.1161 51.5352C37.1121 51.5421 37.1044 51.5552 37.0966 51.5684C37.0886 51.5818 37.0771 51.6004 37.0634 51.6211L37.0595 51.6279L37.0556 51.6338L36.4384 51.208L36.4276 51.2012L37.0556 51.6338C37.0145 51.6934 36.9727 51.7386 36.9403 51.7725C36.9374 51.7776 36.934 51.7833 36.9306 51.7891C36.9226 51.8025 36.9111 51.8221 36.8974 51.8428L36.8964 51.8438L36.4237 51.5293L36.3114 51.4551L36.8964 51.8438C36.8521 51.9104 36.8064 51.9607 36.7743 51.9941C36.7709 52 36.7676 52.007 36.7636 52.0137C36.7544 52.029 36.7404 52.0508 36.7235 52.0752L36.7226 52.0742C36.6591 52.1674 36.5922 52.231 36.5712 52.252L36.5722 52.2529C36.5366 52.2886 36.4832 52.3416 36.4042 52.4082L36.3974 52.4141C36.3047 52.4903 36.279 52.5064 36.2128 52.5645C36.1605 52.6103 36.1045 52.6665 36.038 52.7334C35.9759 52.7957 35.9156 52.853 35.8749 52.8936L35.8759 52.8945C35.8269 52.9443 35.7633 53.0088 35.6786 53.0762C35.6401 53.1068 35.602 53.1341 35.5751 53.1533C35.5553 53.1675 35.5438 53.1755 35.5351 53.1816C35.5334 53.183 35.5314 53.1847 35.5292 53.1865C35.5151 53.1986 35.4955 53.2155 35.4716 53.2363C35.424 53.2777 35.3627 53.3311 35.3017 53.3848C35.2407 53.4383 35.1806 53.4916 35.1347 53.5322C35.1117 53.5526 35.0924 53.5701 35.079 53.582C35.0558 53.6027 35.0659 53.5949 35.08 53.5811C34.7848 53.8714 34.309 53.8673 34.0185 53.5723C33.7282 53.2771 33.7324 52.8022 34.0273 52.5117C34.0562 52.4833 34.2039 52.3534 34.3114 52.2588C34.4161 52.1668 34.5734 52.029 34.619 51.9941L34.6298 51.9854C34.6439 51.975 34.6586 51.965 34.6698 51.957C34.6824 51.9481 34.6916 51.9411 34.7021 51.9336C34.7232 51.9185 34.7364 51.9084 34.744 51.9023H34.745L34.8056 51.8428L34.8105 51.8379L35.3144 52.3428L35.3407 52.3682L34.8114 51.8379C34.8627 51.7867 34.9102 51.7394 34.9745 51.6748C35.0373 51.6117 35.1277 51.5216 35.2235 51.4375L35.4442 51.2559C35.4582 51.244 35.4694 51.234 35.4784 51.2256C35.485 51.2194 35.4905 51.2125 35.497 51.2061C35.4981 51.2041 35.4997 51.2021 35.5009 51.2002C35.5089 51.1865 35.5214 51.1667 35.536 51.1445L35.537 51.1426L35.6278 51.0244C35.6402 51.0103 35.6512 50.9985 35.6601 50.9893C35.6626 50.9849 35.666 50.9804 35.6689 50.9756L35.703 50.9219C35.7502 50.8508 35.7996 50.7962 35.8271 50.7676C35.8294 50.7635 35.8323 50.7593 35.8349 50.7549C35.843 50.7412 35.8542 50.7221 35.8681 50.7012C35.8785 50.6854 35.889 50.6709 35.8983 50.6582C35.9082 50.6287 35.9211 50.5944 35.9384 50.5586L35.9442 50.5469L36.0048 50.4443C36.0174 50.4261 36.0283 50.4101 36.0351 50.4014C36.0392 50.3942 36.0476 50.3815 36.0556 50.3682C36.0637 50.3545 36.0759 50.3354 36.0898 50.3145C36.1433 50.2336 36.1968 50.176 36.2323 50.1406L36.2343 50.1377C36.2763 50.0603 36.3198 50.0039 36.3456 49.9746L36.3476 49.9727C36.3669 49.9391 36.3911 49.9015 36.4228 49.8633C36.4554 49.7818 36.4941 49.7075 36.5312 49.6514L36.6239 49.5303C36.6512 49.4995 36.6727 49.4797 36.6796 49.4727L36.7362 49.4209ZM3.94522 48.25C4.35926 48.2502 4.69522 48.5859 4.69522 49C4.69514 49.3622 4.43803 49.6633 4.09659 49.7334C4.09536 49.7576 4.09269 49.7822 4.09268 49.8066V50.9229C4.11535 50.9382 4.14173 50.9563 4.16983 50.9775L4.32217 51.1084L4.32706 51.1133L4.43936 51.2373C4.45234 51.2524 4.46117 51.2621 4.46866 51.2705C4.47165 51.2739 4.47399 51.2767 4.47549 51.2783C4.477 51.2795 4.47921 51.282 4.48233 51.2842L4.50577 51.2988L4.51456 51.3047L4.65616 51.4004L4.66495 51.4062L4.80753 51.501L4.81631 51.5068L4.85049 51.5146C4.87111 51.5204 4.90353 51.5298 4.94131 51.5449L5.07022 51.6113L5.07901 51.6162L5.0878 51.6221C5.1019 51.6315 5.11498 51.6426 5.12784 51.6523C5.15608 51.6631 5.18126 51.673 5.2001 51.6816L5.20206 51.6826H6.65811C7.07202 51.6828 7.4079 52.0187 7.40811 52.4326C7.40802 52.8206 7.11302 53.1399 6.73526 53.1787L6.65811 53.1826H5.1503C5.11534 53.1826 4.9446 53.1887 4.76065 53.127L4.74796 53.1221C4.7051 53.1068 4.66868 53.0909 4.64346 53.0791C4.63062 53.0731 4.61765 53.0667 4.60733 53.0615C4.58815 53.0574 4.56235 53.052 4.53506 53.0439C4.48944 53.0305 4.39772 53.0008 4.30069 52.9346L4.2919 52.9287L4.28409 52.9229C4.27703 52.9177 4.2703 52.9115 4.26358 52.9062C4.11827 52.849 3.99964 52.766 3.97745 52.751V52.75C3.92434 52.7151 3.86934 52.6789 3.82706 52.6504V52.6494C3.7738 52.6144 3.71888 52.5773 3.67667 52.5488V52.5479C3.64799 52.529 3.60963 52.5048 3.56729 52.4727L3.41202 52.3369C3.36448 52.2889 3.321 52.2377 3.29971 52.2129L3.26456 52.1719C3.25957 52.1683 3.2504 52.1625 3.23331 52.1514L3.22452 52.1465C3.1687 52.1089 3.12653 52.0799 3.08194 52.0508L3.07413 52.0449C3.05143 52.0296 3.0058 51.9998 2.96182 51.9658C2.92356 51.9363 2.8417 51.8705 2.76846 51.7734L2.76163 51.7646L2.7626 51.7637C2.62486 51.575 2.59743 51.3787 2.59268 51.2812V49.8066C2.5927 49.6242 2.60788 49.3088 2.72452 49.0127C2.78537 48.8584 2.89016 48.6663 3.0751 48.5098C3.27384 48.3417 3.524 48.25 3.79581 48.25H3.94522ZM21.0273 52.9453C21.0301 52.951 21.0266 52.9435 21.0224 52.9355C21.0214 52.9338 21.0197 52.932 21.0185 52.9297C21.0227 52.9378 21.0265 52.9438 21.0273 52.9453ZM34.244 48.251C34.4237 48.2586 34.6012 48.3304 34.7392 48.4668C35.0145 48.7392 35.0346 49.172 34.7978 49.4678C34.7883 49.4936 34.7775 49.5228 34.7626 49.5527L34.7646 49.5537C34.7632 49.5564 34.761 49.5589 34.7597 49.5615C34.7586 49.5636 34.7578 49.5663 34.7567 49.5684L34.7558 49.5674C34.7472 49.5839 34.7373 49.5982 34.7294 49.6113C34.7289 49.6128 34.729 49.6148 34.7284 49.6162C34.7062 49.6666 34.6627 49.7482 34.5858 49.8311C34.5681 49.8562 34.5519 49.8771 34.539 49.8926C34.5378 49.895 34.5373 49.898 34.536 49.9004L34.5341 49.8994C34.4899 49.9843 34.4419 50.0455 34.4169 50.0742C34.393 50.1016 34.3654 50.1286 34.3622 50.1318L34.3554 50.1396L34.3476 50.1465L34.3241 50.1689C34.3219 50.1729 34.3198 50.1775 34.3173 50.1816C34.3106 50.1928 34.3005 50.2073 34.2899 50.2236C34.2568 50.3112 34.2149 50.3928 34.1737 50.4551C34.1516 50.4885 34.1292 50.5166 34.1161 50.5332L34.1151 50.5361C34.111 50.5434 34.1033 50.5565 34.0956 50.5693C34.0877 50.5827 34.0766 50.601 34.0634 50.6211L34.0565 50.6318L33.9706 50.7412C33.9601 50.7531 33.9486 50.7628 33.9394 50.7725C33.9364 50.7777 33.934 50.7842 33.9306 50.79C33.9226 50.8035 33.9108 50.8224 33.8974 50.8428C33.8534 50.9092 33.8073 50.9597 33.7753 50.9932C33.7719 50.9991 33.7677 51.0059 33.7636 51.0127C33.7546 51.0278 33.7409 51.0503 33.7245 51.0742L33.7235 51.0732C33.6588 51.1684 33.5904 51.2347 33.5722 51.2529L33.5712 51.2539C33.5364 51.2887 33.483 51.3418 33.4042 51.4082L33.3974 51.4141C33.3046 51.4904 33.2782 51.5062 33.2118 51.5645C33.1596 51.6103 33.1035 51.6666 33.037 51.7334C32.9711 51.7996 32.9122 51.8575 32.869 51.9004C32.8209 51.9493 32.7594 52.0108 32.6786 52.0752V52.0762L32.5751 52.1533C32.5513 52.1703 32.5388 52.1777 32.5292 52.1846C32.3828 52.3309 32.1904 52.4036 31.998 52.4033C31.8062 52.4077 31.6125 52.3397 31.4628 52.1963C31.164 51.9098 31.1531 51.4348 31.4394 51.1357L31.5077 51.0703C31.5336 51.0468 31.5638 51.0211 31.6005 50.9932L31.6112 50.9854L31.6503 50.957C31.6629 50.9481 31.6729 50.9412 31.6835 50.9336C31.7043 50.9187 31.7174 50.9088 31.7255 50.9023C31.734 50.8955 31.7445 50.8861 31.787 50.8428L31.7929 50.8379L31.956 50.6748C32.0187 50.6117 32.1092 50.5215 32.205 50.4375C32.2863 50.3661 32.406 50.272 32.4257 50.2559C32.4394 50.2441 32.4508 50.2341 32.4599 50.2256C32.4661 50.2198 32.4714 50.213 32.4774 50.207C32.4788 50.2047 32.4809 50.2025 32.4823 50.2002C32.4903 50.1866 32.502 50.1664 32.5165 50.1445L32.6093 50.0244C32.6222 50.0098 32.6337 49.9974 32.6425 49.9883C32.6448 49.9844 32.6478 49.9797 32.6503 49.9756C32.6582 49.9623 32.6693 49.9439 32.6825 49.9238L32.7753 49.8037C32.7875 49.7898 32.798 49.7775 32.8065 49.7686C32.8091 49.7642 32.8125 49.7596 32.8153 49.7549C32.8233 49.7415 32.835 49.7226 32.8485 49.7021L32.8798 49.6582C32.8894 49.6296 32.9014 49.5961 32.9179 49.5615L32.9218 49.5537L32.9247 49.5469L32.9862 49.4434C32.9985 49.4256 33.0098 49.4101 33.0165 49.4014C33.0206 49.3943 33.0292 49.3813 33.037 49.3682C33.045 49.3548 33.0558 49.3358 33.0692 49.3154L33.1591 49.1982C33.1797 49.1747 33.1985 49.1549 33.2138 49.1396C33.2318 49.1062 33.2489 49.0757 33.2665 49.0508L33.3271 48.9746C33.3463 48.9408 33.3713 48.9029 33.4032 48.8643C33.4354 48.7838 33.4736 48.709 33.5116 48.6514L33.5136 48.6504L33.6054 48.5312C33.6318 48.5014 33.6521 48.4807 33.6601 48.4727L33.7167 48.4209C33.8633 48.2999 34.0457 48.2434 34.2255 48.251H34.244ZM36.3271 51.3369L36.6571 51.5547V51.5537L36.2304 51.2725L36.3271 51.3369ZM37.1181 51.5312L36.4931 51.1162L37.119 51.5293L36.3222 51.0029L37.1181 51.5312ZM37.2274 51.3125L37.2265 51.3145C37.2268 51.314 37.2277 51.3134 37.2284 51.3125C37.2291 51.3116 37.2302 51.3101 37.2314 51.3086L37.2274 51.3125ZM37.3232 51.1211L36.8251 50.6094L37.2665 51.0391L36.8153 50.5996L37.3232 51.1211ZM37.0946 50.9805L37.0478 50.9492L37.0487 50.9502L37.0946 50.9805L37.0976 50.9834H37.0985L36.787 50.6807L37.0946 50.9805ZM37.7021 50.5967C37.7031 50.5937 37.7052 50.5912 37.706 50.5889V50.5879L37.705 50.5869C37.7041 50.5898 37.7032 50.5932 37.7021 50.5967ZM37.0722 50.2852L37.6347 50.5537L37.0556 50.2764L37.0722 50.2852ZM37.7607 50.5283C37.7618 50.525 37.7637 50.5222 37.7646 50.5195C37.7655 50.5165 37.7664 50.5123 37.7675 50.5088C37.7667 50.5114 37.7638 50.5183 37.7607 50.5283ZM32.4569 50.2432C32.4569 50.2432 32.458 50.2426 32.4589 50.2412L32.4599 50.2383C32.4583 50.2408 32.4571 50.243 32.4569 50.2432ZM37.0917 50.2207L37.0634 50.2061L36.8017 50.0771L37.0917 50.2207ZM36.3251 50.0957C36.3254 50.0948 36.3267 50.0939 36.3271 50.0928C36.328 50.0895 36.3292 50.0842 36.331 50.0781C36.3284 50.0861 36.326 50.0924 36.3251 50.0957ZM18.6357 49.7051C18.6337 49.7088 18.6319 49.7126 18.6308 49.7148C18.6315 49.7134 18.6351 49.7089 18.6386 49.7021C18.6379 49.7033 18.6362 49.7041 18.6357 49.7051ZM8.70889 33C9.94517 33.8721 12.3795 35.785 12.2274 36.459C10.0402 39.135 7.34557 40.0141 4.99991 41.3701L6.33096 35.3057L8.70889 33ZM21.7577 33.2129C22.0534 33.0769 22.3971 33.0996 22.6757 33.2686L24.2304 34.209C24.4387 34.335 24.594 34.5329 24.6669 34.7646L25.6845 38.0107C25.8561 38.5577 25.536 39.1465 24.9765 39.2715C22.8839 39.7405 20.0731 39.8563 18.7929 35.1064C18.6635 34.7441 20.4947 33.7966 21.7577 33.2129Z" fill="#FFC7C2"/>
<path d="M8.37227 48.1564C9.68244 48.1564 10.7445 47.2258 10.7445 46.0779C10.7445 44.9301 9.68244 43.9995 8.37227 43.9995C7.0621 43.9995 6 44.9301 6 46.0779C6 47.2258 7.0621 48.1564 8.37227 48.1564Z" fill="#F24822"/>
<path d="M21.3723 48.1564C22.6824 48.1564 23.7445 47.2258 23.7445 46.0779C23.7445 44.9301 22.6824 43.9995 21.3723 43.9995C20.0621 43.9995 19 44.9301 19 46.0779C19 47.2258 20.0621 48.1564 21.3723 48.1564Z" fill="#F24822"/>
<path fill-rule="evenodd" clip-rule="evenodd" d="M32.8731 53.7755C32.3103 53.5396 31.7211 53.2303 31.1514 52.8389C30.5793 52.7789 30.0514 52.7254 29.5557 52.6729L28.1221 52.5137C26.7976 52.3565 25.3814 52.954 24.0635 53.7882C23.1446 54.3691 22.0424 54.8403 20.9649 54.9522C19.9398 55.0587 18.8679 54.8405 18.0723 54.005L17.917 53.8302C17.5002 53.3247 17.2457 52.7951 17.1514 52.2579C16.4991 52.3204 15.9185 52.3487 15.1065 52.3487C13.133 52.3487 11.2376 52.1701 9.57813 51.7296C8.7951 52.5023 7.51312 53.2096 6.25196 53.5762C5.5154 53.7904 4.72652 53.907 3.99024 53.8272C3.29331 53.7517 2.60198 53.4934 2.08497 52.9356L1.98438 52.8194C1.4573 52.1798 1.21818 51.4871 1.25294 50.7901C1.28697 50.1087 1.57844 49.5044 1.96192 49.0098C2.51739 48.2936 3.33014 47.7243 4.13282 47.378C3.89186 46.687 3.7676 45.9237 3.76759 45.088V45.0682C3.76758 43.4735 3.76758 42.258 4.11622 40.5489C4.29482 38.5626 4.84538 35.5885 6.54493 33.2852L6.66798 33.1309C7.31104 32.3897 8.34207 32.0765 9.29493 32.3448L9.53419 32.4171C10.1058 32.6012 10.7626 32.901 11.375 33.4356C11.999 33.9804 12.5446 34.7418 12.919 35.7999C13.5475 35.6286 14.2277 35.421 15.1065 35.421C16.0298 35.421 16.8845 35.6212 17.6533 35.8233C18.0101 34.8105 18.5214 34.064 19.1094 33.5177C19.8203 32.8572 20.6019 32.528 21.2529 32.3448L21.4443 32.2989C22.4041 32.1079 23.4208 32.4853 24.002 33.3048L24.1582 33.5333C24.395 33.8914 24.6017 34.2648 24.7852 34.6456H25.6211C26.4195 34.6428 27.3816 34.506 28.4746 34.3487C28.9538 34.2794 29.5685 34.1714 30.2715 34.0528C30.9678 33.9353 31.7395 33.8093 32.5068 33.7071C33.2726 33.6051 34.0478 33.5247 34.751 33.503C35.4301 33.482 36.099 33.5137 36.6416 33.6612C38.8982 34.2115 40.686 35.3094 41.9707 36.877C43.2127 38.3926 43.9493 40.3052 44.2256 42.4903C46.2284 44.2527 46.6626 47.0943 45.833 49.4425L45.7461 49.6739C44.7256 52.2602 42.2733 54.1482 38.8193 54.6807L38.4824 54.7276L38.3721 54.7423L38.335 54.7462L38.1865 54.7501C36.8343 54.785 34.7857 54.5769 32.8731 53.7755ZM29.543 48.0001C29.3808 47.1992 29.8982 46.4187 30.6992 46.2559C31.4998 46.0942 32.28 46.6116 32.4424 47.4122L32.4873 47.6007C32.7452 48.5259 33.4793 49.1953 34.5977 49.6632C35.5978 50.0822 36.7335 50.2574 37.5957 50.2901L37.9473 50.296L37.9971 50.295L38.0469 50.2882C40.2782 49.9733 41.2548 48.9122 41.5996 48.0382L41.667 47.8468C41.8047 47.4058 41.8057 47.0034 41.7295 46.6671C41.6502 46.3168 41.4739 45.9929 41.2402 45.8028C40.919 45.5418 40.4469 45.5902 40.1856 45.9112C39.9413 46.2116 39.9685 46.6436 40.2354 46.9122C40.2431 46.927 40.2569 46.9561 40.2666 46.9991C40.2815 47.0652 40.2912 47.1733 40.2559 47.3233L40.2041 47.4874C40.0876 47.7827 39.6254 48.5372 37.8828 48.795C37.2368 48.7937 36.335 48.6864 35.5264 48.4122L35.1768 48.2803L34.8594 48.1339C34.2837 47.8392 34.0467 47.5341 33.9502 47.253L33.9131 47.1153C33.5865 45.5023 32.0139 44.4602 30.4014 44.7862C28.7892 45.1135 27.7456 46.6848 28.0723 48.2979L28.1348 48.5772C28.3792 49.5845 28.8093 50.4313 29.3457 51.1397L28.2998 51.0245C26.4427 50.8039 24.6516 51.6409 23.2617 52.5206L22.9609 52.7022C22.25 53.1079 21.4906 53.3903 20.8106 53.461C20.0965 53.5352 19.5413 53.3759 19.1504 52.962L19.0742 52.8761C18.7333 52.4626 18.6216 52.1155 18.6094 51.8438C18.5971 51.5704 18.6827 51.2967 18.8672 51.0255C19.2538 50.4571 20.0206 49.9897 20.7666 49.8145C21.1697 49.7198 21.4199 49.3163 21.3252 48.9132C21.2305 48.5101 20.8269 48.2601 20.4238 48.3546C19.4022 48.5944 18.2718 49.2338 17.627 50.1817C17.5109 50.3524 17.41 50.5357 17.3281 50.7296C16.5743 50.8114 15.9947 50.8487 15.1065 50.8487C12.2266 50.8487 9.7245 50.4539 7.96876 49.5264C7.1016 49.0683 6.43485 48.4896 5.98243 47.7794C5.53205 47.0723 5.26761 46.1933 5.26759 45.088C5.26759 43.536 5.27031 42.4688 5.55958 40.9884C5.57851 40.9323 5.59436 40.8742 5.59962 40.8126C5.60137 40.7919 5.60271 40.7708 5.6045 40.7501C5.60974 40.7183 5.61311 40.6868 5.61427 40.6553C5.78763 38.7583 6.30624 36.1352 7.75196 34.1759L7.75098 34.1749C8.0077 33.8282 8.47049 33.6714 8.88868 33.7891L9.07423 33.8448C9.51218 33.9858 9.9711 34.201 10.3887 34.5655C10.8012 34.9256 11.2045 35.4583 11.4981 36.2774L11.6172 36.6466L11.6484 36.7393C11.8273 37.1932 12.3127 37.483 12.8242 37.3741L12.8359 37.3721C13.8602 37.1368 14.2547 36.921 15.1065 36.921C16.0655 36.921 16.9137 37.1872 17.9453 37.4532V37.4503C17.992 37.4625 18.0327 37.4706 18.0645 37.4737C18.0882 37.476 18.1078 37.4773 18.1201 37.4776H18.1406C18.4637 37.4776 18.7352 37.2833 18.8555 37.0118L18.8975 36.8907L18.8984 36.8878C19.1841 35.7597 19.6494 35.0638 20.1299 34.6173C20.6148 34.1667 21.1587 33.93 21.6592 33.7891L21.8184 33.7569C22.1912 33.7129 22.5665 33.8741 22.7783 34.1729L23.0313 34.5548C23.5938 35.4667 23.9689 36.5129 24.2236 37.5694C24.3207 37.9721 24.7262 38.2202 25.1289 38.1231C25.5316 38.026 25.7787 37.6205 25.6816 37.2179C25.5963 36.8641 25.4968 36.5051 25.3809 36.1456H25.626C26.5397 36.1424 27.6008 35.9897 28.6482 35.8389L28.6885 35.8331C29.1907 35.7604 29.835 35.6481 30.5215 35.5323C31.215 35.4153 31.9649 35.2921 32.7051 35.1934C33.4468 35.0946 34.1656 35.0225 34.7969 35.003C35.4415 34.9831 35.9379 35.0215 36.2617 35.1124L36.2871 35.1182C38.2628 35.6 39.7537 36.5386 40.8106 37.8282C41.8713 39.1226 42.5317 40.8164 42.7617 42.8634L42.7754 42.9522C42.8174 43.1563 42.9237 43.3457 43.084 43.4884L43.1094 43.5098C44.6211 44.7409 45.0738 46.8648 44.4834 48.7501L44.3516 49.1231C43.5602 51.1287 41.6121 52.7335 38.5899 53.1983L38.294 53.2393L38.2197 53.2491L38.1465 53.2511C36.9498 53.2819 35.124 53.0919 33.4531 52.3917C31.8227 51.7083 30.1282 50.4348 29.5908 48.2178L29.543 48.0001ZM3.14747 49.9288C3.55201 49.4072 4.19538 48.9718 4.80763 48.7227C5.42104 49.6275 6.26978 50.325 7.26856 50.8526C7.47514 50.9617 7.68994 51.0617 7.91016 51.1573C7.34944 51.5413 6.61105 51.9097 5.83302 52.1358C5.21596 52.3152 4.63242 52.3882 4.15138 52.336C3.73678 52.291 3.43481 52.1594 3.22559 51.9571L3.14161 51.8653C2.82149 51.4767 2.73721 51.1428 2.75098 50.8653C2.7656 50.5721 2.89512 50.2542 3.14747 49.9288Z" fill="#1A1A1A"/>
<path d="M8.29501 35.2951C7.91123 35.8151 7.54674 36.8691 7.3016 37.7991C7.16249 38.3271 7.73689 38.6431 8.17785 38.3221C8.88546 37.8061 9.50213 37.5161 10.2718 37.3101C10.6112 37.2191 10.8208 36.8721 10.6429 36.5691C10.2037 35.8201 9.43449 35.1271 9.07882 35.0271C8.78947 34.9451 8.47351 35.0531 8.29501 35.2951Z" fill="#F24822"/>
<path d="M22.705 35.2951C23.0888 35.8151 23.4533 36.8691 23.6984 37.7991C23.8375 38.3271 23.2631 38.6431 22.8222 38.3221C22.1146 37.8061 21.4979 37.5161 20.7282 37.3101C20.3888 37.2191 20.1792 36.8721 20.3571 36.5691C20.7963 35.8201 21.5655 35.1271 21.9212 35.0271C22.2106 34.9451 22.5265 35.0531 22.705 35.2951Z" fill="#F24822"/>
<path d="M14.9609 47.5C15.2371 47.5 15.4609 47.7239 15.4609 48C15.4609 48.2761 15.2371 48.5 14.9609 48.5H14C13.7239 48.5 13.5 48.2761 13.5 48C13.5 47.7239 13.7239 47.5 14 47.5H14.9609Z" fill="#1A1A1A"/>
<path d="M12.9927 38.3371C13.3478 38.2379 13.6775 38.2284 13.977 38.3312C14.2773 38.4345 14.488 38.6305 14.6401 38.8293C14.7074 38.9172 14.7667 39.0124 14.8208 39.1056C14.8832 39.0061 14.9521 38.9092 15.0269 38.8205C15.19 38.6272 15.4067 38.4418 15.6909 38.34C15.9832 38.2355 16.3037 38.2351 16.6382 38.342L16.8306 38.4162C17.0155 38.4998 17.1779 38.6144 17.3071 38.7638C17.4816 38.9658 17.5716 39.2041 17.5972 39.4465C17.6456 39.9078 17.4659 40.3895 17.2319 40.8009C16.7581 41.6341 15.8829 42.4878 15.0757 42.8986L14.8794 42.9982L14.6733 42.9211L14.4644 42.8361C13.4366 42.3844 12.6385 41.5364 12.2544 40.714C12.051 40.2784 11.9374 39.7926 12.0278 39.3478C12.1268 38.8615 12.4604 38.4858 12.9927 38.3371Z" fill="#F24822"/>
<path d="M19.6816 44.3862C19.9416 44.072 20.3979 44.0354 20.7008 44.3052C21.0035 44.5749 21.0378 45.0484 20.778 45.3626C19.9865 46.3191 19.0715 46.5984 18.2267 46.4307C17.4498 46.2765 16.8413 45.7669 16.5083 45.3587C16.2504 45.0426 16.2883 44.5698 16.593 44.3023C16.8977 44.0347 17.3534 44.074 17.6112 44.3901C17.8025 44.6247 18.1403 44.8863 18.4977 44.9574C18.7874 45.0149 19.1958 44.9734 19.6816 44.3862Z" fill="#1A1A1A"/>
<path d="M9.6084 44.3862C9.34839 44.072 8.89207 44.0354 8.58921 44.3052C8.28646 44.5749 8.25216 45.0484 8.51204 45.3626C9.30348 46.3191 10.2185 46.5984 11.0633 46.4307C11.8402 46.2765 12.4487 45.7669 12.7817 45.3587C13.0396 45.0426 13.0017 44.5698 12.697 44.3023C12.3923 44.0347 11.9366 44.074 11.6788 44.3901C11.4875 44.6247 11.1497 44.8863 10.7923 44.9574C10.5026 45.0149 10.0943 44.9734 9.6084 44.3862Z" fill="#1A1A1A"/>
</svg>
