<svg width="48" height="55" viewBox="0 0 48 55" fill="none" xmlns="http://www.w3.org/2000/svg">
<path d="M6.51401 35.697L8.58801 33L10.775 34.039L12.061 36.509L18.335 36.459L19.333 34.382L21.76 33.034L24.405 35.16H25.961L33.377 34.382L39.391 35.16L41.675 38.376L43.114 40.687L45.202 45.222V48.074L44.061 51.186L42.505 52.431L36.497 54.194L30.791 51.86L25.961 52.431L20.411 54.194H18.596L17.092 51.86L8.95001 51.186L4.07501 53.105L2.259 51.86L2 50.097L5.022 47.99L4.689 43.378L6.51401 35.697Z" fill="#E6E6E6"/>
<path d="M19.6022 49.2505C20.0164 49.2505 20.3522 49.5863 20.3522 50.0005C20.352 50.3641 20.0932 50.6665 19.7496 50.7349V51.9233C19.808 51.9629 19.894 52.0238 19.9811 52.1108C20.0299 52.1597 20.073 52.2108 20.0953 52.2368C20.109 52.2527 20.1175 52.2628 20.1256 52.272C20.1274 52.2741 20.1291 52.2763 20.1305 52.2778C20.1333 52.2799 20.1406 52.2849 20.1598 52.2974L20.1676 52.3022L20.1744 52.3071L20.316 52.4028L20.319 52.4048C20.3794 52.4451 20.4165 52.4705 20.4664 52.5034L20.4723 52.5073C20.4828 52.5098 20.4947 52.5119 20.5065 52.5151C20.5473 52.5264 20.6313 52.5524 20.7233 52.6089L20.7379 52.6177L20.7526 52.6274C20.7655 52.6363 20.7778 52.6457 20.7897 52.6548C20.815 52.6646 20.8376 52.6732 20.8551 52.6812C20.8564 52.6817 20.8578 52.6825 20.859 52.6831H22.316C22.7299 52.6833 23.0658 53.0192 23.066 53.4331C23.0658 53.847 22.73 54.1829 22.316 54.1831H20.8073C20.7717 54.1832 20.5996 54.1889 20.4156 54.1265L20.403 54.1226C20.3605 54.1073 20.324 54.0911 20.2994 54.0796C20.2876 54.074 20.276 54.0678 20.2662 54.063C20.2468 54.0589 20.2201 54.0537 20.192 54.0454C20.1694 54.0387 20.1355 54.0275 20.0953 54.0103L19.9586 53.936L19.9508 53.9302L19.942 53.9243C19.9341 53.9186 19.9271 53.9116 19.9196 53.9058C19.7728 53.8477 19.6526 53.7636 19.6373 53.7534V53.7524C19.5883 53.72 19.5271 53.6796 19.4869 53.6528V53.6519C19.433 53.6162 19.379 53.5802 19.3307 53.5474V53.5464C19.2645 53.5031 19.1697 53.4381 19.0709 53.3394L19.066 53.3345C19.0203 53.2878 18.978 53.238 18.9576 53.2144C18.9448 53.1994 18.9366 53.1893 18.9293 53.1812C18.9233 53.1744 18.9207 53.1716 18.9205 53.1714C18.928 53.1789 18.9325 53.1807 18.8873 53.1509L18.8844 53.1489C18.8241 53.1088 18.7868 53.0823 18.7369 53.0493L18.734 53.0474C18.7203 53.0382 18.6205 52.9767 18.5221 52.8813L18.4264 52.7749L18.4205 52.7671C18.2359 52.516 18.2495 52.2497 18.2496 52.2212V50.5044C18.2496 50.4281 18.2522 50.2532 18.358 50.0454C18.3764 50.0091 18.3942 49.9775 18.4069 49.9565C18.4208 49.9336 18.4355 49.9111 18.444 49.8979C18.4462 49.8944 18.449 49.8909 18.4508 49.8882C18.4678 49.8419 18.5464 49.6353 18.7662 49.4917L18.7653 49.4907L18.7682 49.4897C18.7692 49.4891 18.7702 49.4876 18.7711 49.4868L18.7721 49.4878C18.7917 49.4753 18.8119 49.466 18.8297 49.4565C18.8602 49.4301 18.8941 49.4025 18.9332 49.3784L18.9352 49.3813C19.1006 49.2792 19.2616 49.2609 19.3082 49.2563C19.3727 49.2501 19.4364 49.2505 19.4528 49.2505H19.6022ZM36.6813 49.4702C36.9741 49.1773 37.4489 49.1774 37.7418 49.4702C38.0139 49.7423 38.0329 50.1709 37.7994 50.4653C37.791 50.4884 37.7791 50.5136 37.7662 50.5405L37.7692 50.5425C37.7667 50.5475 37.7628 50.5523 37.7604 50.5571C37.7559 50.566 37.7527 50.5764 37.7477 50.5854L37.7448 50.5835C37.7412 50.5899 37.7374 50.5962 37.734 50.6021C37.7336 50.6035 37.7336 50.6056 37.733 50.6069C37.7118 50.6571 37.6673 50.7432 37.5865 50.8306C37.5701 50.8541 37.5543 50.8738 37.5416 50.8892L37.5377 50.896L37.5348 50.9028C37.4916 50.9848 37.442 51.0436 37.4176 51.0718C37.4041 51.0873 37.3919 51.1009 37.3844 51.1089C37.3807 51.1129 37.377 51.1172 37.3746 51.1196C37.372 51.1224 37.3702 51.124 37.3688 51.1255L37.3551 51.1401L37.3405 51.1538C37.3356 51.1584 37.3299 51.1635 37.3239 51.1694C37.3219 51.173 37.3202 51.1775 37.318 51.1812C37.3109 51.1931 37.3008 51.2098 37.2897 51.2271L37.2867 51.231C37.2564 51.3099 37.218 51.3846 37.1774 51.4468L37.1783 51.4478C37.1773 51.4493 37.1754 51.4511 37.1744 51.4526C37.1723 51.456 37.1708 51.4602 37.1686 51.4634L37.1666 51.4624C37.1453 51.4943 37.1259 51.5215 37.1139 51.5366C37.1103 51.5429 37.1049 51.5542 37.0992 51.564C37.0921 51.5763 37.0815 51.5943 37.069 51.6138L37.0602 51.6274L37.0514 51.6401C37.0129 51.6948 36.973 51.7376 36.9391 51.7729C36.9371 51.7765 36.9353 51.781 36.9332 51.7847C36.926 51.7971 36.9156 51.8158 36.903 51.8354L36.8971 51.8433L36.8922 51.8511L36.2848 51.438L36.2623 51.4233L36.8922 51.8511C36.8508 51.912 36.808 51.9584 36.775 51.9927C36.7715 51.9987 36.7675 52.0062 36.7633 52.0132C36.7552 52.0268 36.7439 52.0463 36.7301 52.0669L36.7262 52.0718L36.6334 52.1899C36.6059 52.2205 36.5828 52.2425 36.5709 52.2544C36.5389 52.2864 36.4841 52.3415 36.403 52.4097L36.3971 52.4155L36.3961 52.4146C36.3049 52.4894 36.2775 52.5079 36.2125 52.5649C36.16 52.6111 36.1037 52.6669 36.0358 52.7349C35.9717 52.7989 35.9142 52.8565 35.8639 52.9058C35.8182 52.9524 35.7559 53.0145 35.6744 53.0786L35.6735 53.0776C35.626 53.1153 35.5599 53.1629 35.5299 53.1841C35.2437 53.4711 34.78 53.4801 34.484 53.1997C34.1837 52.9151 34.1707 52.4409 34.4547 52.1401L34.524 52.0718C34.5504 52.0477 34.5819 52.0214 34.6198 51.9927L34.6305 51.9849L34.6696 51.9565C34.6816 51.948 34.6919 51.9411 34.7018 51.9341C34.7221 51.9196 34.7345 51.9099 34.7408 51.9048L34.7467 51.8999L34.8033 51.8452L34.8151 51.8335C34.8585 51.791 34.9097 51.7398 34.9752 51.6743C35.037 51.6125 35.1272 51.5216 35.2223 51.438C35.2984 51.3711 35.4055 51.2874 35.4381 51.2612L35.4772 51.2271C35.484 51.2206 35.4903 51.2139 35.4977 51.2065C35.4986 51.205 35.4997 51.2024 35.5006 51.2007C35.5077 51.1886 35.5181 51.1713 35.5299 51.1528L36.151 51.5522L36.1383 51.5435L35.5299 51.1528L35.5397 51.1372C35.5861 51.0688 35.6358 51.015 35.6588 50.9907C35.6618 50.9856 35.6661 50.9798 35.6696 50.9741C35.6785 50.9592 35.6907 50.9386 35.7057 50.9165L35.7916 50.8062C35.8057 50.7901 35.8176 50.7767 35.8258 50.7681C35.8285 50.7634 35.8325 50.7585 35.8356 50.7534C35.8436 50.74 35.8548 50.7222 35.8678 50.7026C35.8778 50.6874 35.8881 50.673 35.8971 50.6606C35.9065 50.6324 35.9189 50.5983 35.9352 50.564L35.9381 50.5571L35.942 50.5503L36.0026 50.4478C36.0174 50.4261 36.0312 50.4074 36.0377 50.3989C36.0419 50.3917 36.0479 50.3805 36.0543 50.3696C36.0614 50.3577 36.0715 50.341 36.0826 50.3237L36.0875 50.3159L36.0934 50.3081C36.1447 50.2325 36.1947 50.1781 36.2272 50.145C36.2699 50.0649 36.3176 50.0066 36.3444 49.9761L36.3453 49.9741C36.3641 49.9413 36.3897 49.9053 36.4205 49.8677C36.4503 49.7921 36.4871 49.7204 36.526 49.6606V49.6597C36.5274 49.6574 36.5294 49.655 36.5309 49.6528C36.5326 49.6502 36.5341 49.6467 36.5358 49.644L36.5367 49.645C36.5988 49.5522 36.6616 49.4899 36.6813 49.4702ZM20.3248 53.2544L20.3307 53.2476L20.7028 52.6411L20.3248 53.2544ZM3.94495 48.2505C4.359 48.2507 4.69495 48.5864 4.69495 49.0005C4.69478 49.3641 4.43588 49.6664 4.09241 49.7349V50.9233C4.11439 50.9382 4.1406 50.956 4.16858 50.9771L4.31897 51.106L4.32483 51.1108L4.32971 51.1167C4.37553 51.1635 4.41773 51.2128 4.43909 51.2378C4.45212 51.253 4.46162 51.2642 4.46936 51.2729C4.47117 51.275 4.47289 51.2773 4.47424 51.2788C4.46833 51.273 4.4653 51.2728 4.50842 51.3013L4.51135 51.3032C4.57953 51.3487 4.60669 51.3684 4.65393 51.3989L4.23303 52.0483L4.2467 52.0288L4.65393 51.3989L4.66077 51.4038L4.66858 51.4087C4.71876 51.4428 4.76457 51.474 4.8092 51.5034L4.81213 51.5054L4.81409 51.5063C4.82542 51.509 4.83846 51.5116 4.8512 51.5151C4.89289 51.5268 4.97563 51.5533 5.06604 51.6089L5.07483 51.6138L5.08362 51.6196C5.10068 51.6308 5.11716 51.6431 5.13245 51.6548C5.15924 51.6652 5.18282 51.6748 5.20081 51.6831H6.65881C7.07254 51.6835 7.4086 52.0193 7.40881 52.4331C7.40862 52.8469 7.07255 53.1827 6.65881 53.1831H5.15002C5.11393 53.1831 4.94492 53.1891 4.76233 53.1284L4.75354 53.1255L4.74573 53.1226C4.70337 53.1073 4.66704 53.0903 4.64221 53.0786C4.63123 53.0734 4.62026 53.0676 4.61096 53.063C4.5915 53.0589 4.5644 53.0538 4.53577 53.0454C4.51308 53.0388 4.47842 53.0276 4.43811 53.0103L4.30139 52.936L4.28772 52.9263L4.27307 52.9155C4.26911 52.9126 4.26518 52.9088 4.26135 52.9058C4.11902 52.8492 4.00133 52.7676 3.9801 52.7534V52.7524C3.92655 52.7171 3.87296 52.6817 3.82483 52.6489V52.6479C3.77287 52.6139 3.71008 52.5718 3.67932 52.5513V52.5503C3.62292 52.5131 3.51951 52.4451 3.4137 52.3394L3.40881 52.3345C3.36281 52.2875 3.32082 52.2374 3.29944 52.2124C3.28651 52.1973 3.27782 52.1869 3.27014 52.1782L3.26917 52.1772L3.2301 52.1509L3.22717 52.1489L3.08459 52.0532L3.07092 52.0435L3.4928 51.4233L3.50159 51.4097L3.07092 52.0435C3.05029 52.0294 3.00541 51.9994 2.96252 51.9663C2.94387 51.9519 2.9138 51.928 2.87952 51.896L2.76917 51.7749L2.76331 51.7671C2.62416 51.5779 2.59699 51.3798 2.59241 51.2817V49.5044C2.59241 49.4281 2.59385 49.2534 2.69983 49.0454L2.75159 48.9556C2.76464 48.9342 2.77783 48.9124 2.78577 48.8999C2.78792 48.8965 2.7909 48.8937 2.7926 48.8911V48.8882C2.80742 48.8492 2.88231 48.6456 3.09827 48.4995L3.09729 48.4985C3.10116 48.4959 3.10617 48.4942 3.10999 48.4917C3.11556 48.4881 3.12082 48.4835 3.12659 48.48L3.12854 48.4819C3.14297 48.473 3.1572 48.4657 3.17053 48.4585C3.19856 48.4339 3.22961 48.4091 3.26526 48.3862L3.26624 48.3872C3.43674 48.2781 3.60556 48.2607 3.651 48.2563C3.71588 48.2501 3.77991 48.2505 3.79553 48.2505H3.94495ZM33.6813 48.4702C33.9741 48.1773 34.4489 48.1774 34.7418 48.4702C35.0139 48.7423 35.0329 49.1709 34.7994 49.4653C34.791 49.4884 34.7791 49.5136 34.7662 49.5405L34.7692 49.5425C34.7667 49.5475 34.7628 49.5523 34.7604 49.5571C34.7559 49.566 34.7527 49.5764 34.7477 49.5854L34.7448 49.5835C34.7412 49.5899 34.7374 49.5962 34.734 49.6021C34.7336 49.6035 34.7336 49.6056 34.733 49.6069C34.7118 49.6571 34.6673 49.7432 34.5865 49.8306C34.5701 49.8541 34.5543 49.8738 34.5416 49.8892L34.5377 49.896L34.5348 49.9028C34.4916 49.9848 34.442 50.0436 34.4176 50.0718C34.4041 50.0873 34.3919 50.1009 34.3844 50.1089C34.3807 50.1129 34.377 50.1172 34.3746 50.1196C34.372 50.1224 34.3702 50.124 34.3688 50.1255L34.3551 50.1401L34.3405 50.1538C34.3356 50.1584 34.3299 50.1635 34.3239 50.1694C34.3219 50.173 34.3202 50.1775 34.318 50.1812C34.3109 50.1931 34.3008 50.2098 34.2897 50.2271L34.2867 50.231C34.2564 50.3099 34.218 50.3846 34.1774 50.4468L34.1783 50.4478C34.1773 50.4493 34.1754 50.4511 34.1744 50.4526C34.1723 50.456 34.1708 50.4602 34.1686 50.4634L34.1666 50.4624C34.1453 50.4943 34.1259 50.5215 34.1139 50.5366C34.1103 50.5429 34.1049 50.5542 34.0992 50.564C34.0921 50.5763 34.0815 50.5943 34.069 50.6138L34.0602 50.6274L34.0514 50.6401C34.0129 50.6948 33.973 50.7376 33.9391 50.7729C33.9371 50.7765 33.9353 50.781 33.9332 50.7847C33.926 50.7971 33.9156 50.8158 33.903 50.8354L33.8971 50.8433L33.8922 50.8511L33.2848 50.438L33.2623 50.4233L33.8922 50.8511C33.8508 50.912 33.808 50.9584 33.775 50.9927C33.7715 50.9987 33.7675 51.0062 33.7633 51.0132C33.7552 51.0268 33.7439 51.0463 33.7301 51.0669L33.7262 51.0718L33.6334 51.1899C33.6059 51.2205 33.5828 51.2425 33.5709 51.2544C33.5389 51.2864 33.4841 51.3415 33.403 51.4097L33.3971 51.4155L33.3961 51.4146C33.3049 51.4894 33.2775 51.5079 33.2125 51.5649C33.16 51.6111 33.1037 51.6669 33.0358 51.7349C32.9717 51.7989 32.9142 51.8565 32.8639 51.9058C32.8182 51.9524 32.7559 52.0145 32.6744 52.0786L32.6735 52.0776C32.626 52.1153 32.5599 52.1629 32.5299 52.1841C32.2437 52.4711 31.78 52.4801 31.484 52.1997C31.1837 51.9151 31.1707 51.4409 31.4547 51.1401L31.524 51.0718C31.5504 51.0477 31.5819 51.0214 31.6198 50.9927L31.6305 50.9849L31.6696 50.9565C31.6816 50.948 31.6919 50.9411 31.7018 50.9341C31.7221 50.9196 31.7345 50.9099 31.7408 50.9048L31.7467 50.8999L31.8033 50.8452L31.8151 50.8335C31.8585 50.791 31.9097 50.7398 31.9752 50.6743C32.037 50.6125 32.1272 50.5216 32.2223 50.438C32.2984 50.3711 32.4055 50.2874 32.4381 50.2612L32.4772 50.2271C32.484 50.2206 32.4903 50.2139 32.4977 50.2065C32.4986 50.205 32.4997 50.2024 32.5006 50.2007C32.5077 50.1886 32.5181 50.1713 32.5299 50.1528L33.151 50.5522L33.1383 50.5435L32.5299 50.1528L32.5397 50.1372C32.5861 50.0688 32.6358 50.015 32.6588 49.9907C32.6618 49.9856 32.6661 49.9798 32.6696 49.9741C32.6785 49.9592 32.6907 49.9386 32.7057 49.9165L32.7916 49.8062C32.8057 49.7901 32.8176 49.7767 32.8258 49.7681C32.8285 49.7634 32.8325 49.7585 32.8356 49.7534C32.8436 49.74 32.8548 49.7222 32.8678 49.7026C32.8778 49.6874 32.8881 49.673 32.8971 49.6606C32.9065 49.6324 32.9189 49.5983 32.9352 49.564L32.9381 49.5571L32.942 49.5503L33.0026 49.4478C33.0174 49.4261 33.0312 49.4074 33.0377 49.3989C33.0419 49.3917 33.0479 49.3805 33.0543 49.3696C33.0614 49.3577 33.0715 49.341 33.0826 49.3237L33.0875 49.3159L33.0934 49.3081C33.1447 49.2325 33.1947 49.1781 33.2272 49.145C33.2699 49.0649 33.3176 49.0066 33.3444 48.9761L33.3453 48.9741C33.3641 48.9413 33.3897 48.9053 33.4205 48.8677C33.4503 48.7921 33.4871 48.7204 33.526 48.6606V48.6597C33.5274 48.6574 33.5294 48.655 33.5309 48.6528C33.5326 48.6502 33.5341 48.6467 33.5358 48.644L33.5367 48.645C33.5988 48.5522 33.6616 48.4899 33.6813 48.4702ZM4.66467 52.2603L4.67346 52.2476L5.04553 51.6411L4.66467 52.2603ZM37.1129 51.5376L36.4928 51.1167L36.9791 51.4292L36.4694 51.1011L37.1129 51.5376ZM37.0289 51.0825L36.6588 50.8218L37.1256 51.1216L36.65 50.8159L37.0289 51.0825ZM37.3229 51.1216C37.3238 51.1186 37.3259 51.1154 37.3268 51.1128C37.3295 51.1037 37.3304 51.0954 37.3317 51.0903C37.33 51.0973 37.3264 51.1082 37.3229 51.1216ZM37.5094 50.8892L36.8883 50.562L36.8639 50.5503L37.5094 50.8892ZM34.1129 50.5376L33.4928 50.1167L33.9791 50.4292L33.4694 50.1011L34.1129 50.5376ZM19.5895 50.4458L19.3268 50.0171L19.316 50.0005L19.5895 50.4458ZM36.986 50.3901L36.9772 50.3853L36.3297 50.0796L36.986 50.3901ZM34.0289 50.0825L33.6588 49.8218L34.1256 50.1216L33.65 49.8159L34.0289 50.0825ZM34.3229 50.1216C34.3238 50.1186 34.3259 50.1154 34.3268 50.1128C34.3295 50.1037 34.3304 50.0954 34.3317 50.0903C34.33 50.0973 34.3264 50.1082 34.3229 50.1216ZM36.3707 50.0239C36.3708 50.0234 36.3714 50.0221 36.3717 50.021V50.0181C36.3711 50.0208 36.3709 50.0231 36.3707 50.0239ZM34.5094 49.8892L33.8883 49.562L33.8639 49.5503L34.5094 49.8892ZM18.6315 49.7114C18.6302 49.7138 18.6294 49.7164 18.6285 49.7183C18.6297 49.7158 18.6343 49.7084 18.6393 49.6987C18.6363 49.704 18.6331 49.7083 18.6315 49.7114ZM3.94788 49.4526L3.94885 49.4536L3.94495 49.4468L3.79553 49.2134L3.66956 49.0171L3.94788 49.4526ZM4.30432 49.4048C4.30581 49.4021 4.30804 49.4 4.3092 49.3979C4.31254 49.3918 4.3148 49.3858 4.31604 49.3833C4.31527 49.3847 4.31014 49.3936 4.30432 49.4048ZM33.986 49.3901L33.9772 49.3853L33.3297 49.0796L33.986 49.3901ZM33.3707 49.0239C33.3708 49.0234 33.3714 49.0221 33.3717 49.021V49.0181C33.3711 49.0208 33.3709 49.0231 33.3707 49.0239ZM14.9996 36.2505C15.4138 36.2505 15.7496 36.5863 15.7496 37.0005V37.1665C15.751 37.1646 15.7531 37.1625 15.7545 37.1606C15.8852 36.9408 16.1228 36.7917 16.3971 36.7915C16.8111 36.7918 17.1471 37.1274 17.1471 37.5415C17.147 37.5446 17.1465 37.5586 17.1461 37.5737C17.1457 37.5901 17.1445 37.6198 17.1403 37.6548C17.1371 37.6812 17.1228 37.7809 17.066 37.8999C17.0525 37.9421 17.0341 37.9907 17.0065 38.0405C16.9959 38.0752 16.9843 38.111 16.9713 38.144L16.9664 38.1577L16.9606 38.1704C16.9404 38.2164 16.9183 38.2536 16.901 38.2827C16.8914 38.3141 16.8701 38.3808 16.8473 38.4438C16.8162 38.5313 16.7788 38.6192 16.7477 38.686L16.7438 38.6929L16.7408 38.6997L16.692 38.7954C16.6779 38.8225 16.6714 38.8355 16.6666 38.8452L16.6637 38.8521L16.6598 38.8579L16.6588 38.8608L16.6559 38.8687L16.6549 38.8735L15.9664 38.6382L15.9039 38.6177L16.6539 38.8735C16.6512 38.8821 16.6208 38.9808 16.5836 39.0718L16.5797 39.0806C16.5598 39.1274 16.5354 39.1795 16.5201 39.2124C16.5023 39.251 16.4868 39.2858 16.4723 39.3208C16.4396 39.3998 16.4044 39.4972 16.3639 39.6118L16.3629 39.6138L15.7496 39.394V39.395L16.3629 39.6138C16.3211 39.7309 16.279 39.8463 16.2311 39.978L16.2301 39.9829L15.7496 39.8032V39.8042L16.2301 39.9829C16.1792 40.12 16.1315 40.2474 16.1041 40.3335V40.3354L16.0729 40.4409C16.0644 40.471 16.0484 40.5269 16.0289 40.5825L16.027 40.5903C16.0067 40.6461 15.982 40.7011 15.9742 40.7192C15.9641 40.7427 15.9563 40.763 15.9469 40.7896C15.9214 40.8659 15.8868 40.9861 15.86 41.0835L15.858 41.0903L15.8307 41.188C15.8262 41.2051 15.8265 41.2053 15.8278 41.1978C15.8292 41.1893 15.8306 41.1797 15.8278 41.2065C15.8267 41.2162 15.8237 41.2384 15.8199 41.2632C15.816 41.289 15.8086 41.3311 15.7946 41.3794L15.7936 41.3784C15.7685 41.4649 15.7361 41.5291 15.7203 41.5581C15.725 41.5489 15.7311 41.535 15.7379 41.519C15.7388 41.517 15.7391 41.5143 15.7399 41.5122L15.1256 41.2593H14.361C14.3688 41.2751 14.3741 41.2874 14.3776 41.2935C14.3804 41.2984 14.3829 41.3024 14.3834 41.3032C14.3834 41.3032 14.3828 41.3025 14.3815 41.3003C14.379 41.2963 14.3688 41.2804 14.358 41.2612V41.2593H14.2906V41.0962C14.2712 41.0333 14.259 40.9786 14.2545 40.937C14.249 40.885 14.2496 40.8383 14.2496 40.8335V37.9058C14.2467 37.9132 14.245 37.9217 14.2418 37.9292L14.2428 37.9302C14.2302 37.9599 14.2167 37.9864 14.2067 38.0063V38.0698C14.207 38.0871 14.2174 38.3141 14.1285 38.5249C14.1153 38.5563 14.1003 38.5849 14.0865 38.6099C14.08 38.6872 14.0631 38.7933 14.0133 38.9106L14.0143 38.9116C14.0007 38.9437 13.9862 38.9719 13.9772 38.9897V39.1255C13.9776 39.1373 13.9916 39.3665 13.8639 39.5942V39.6606C13.8639 39.7199 13.8668 39.8787 13.7858 40.0708L13.7828 40.0767C13.7713 40.1033 13.7591 40.1274 13.7496 40.146V40.5679C13.7492 40.9817 13.4136 41.3179 12.9996 41.3179C12.5858 41.3177 12.25 40.9816 12.2496 40.5679V40.0317C12.2496 39.9712 12.2502 39.8203 12.3278 39.6362L12.3336 39.6226C12.3443 39.5986 12.355 39.5765 12.3639 39.5591V39.4966L12.3688 39.3413C12.3774 39.2565 12.399 39.1474 12.444 39.0415H12.443C12.4442 39.0387 12.4457 39.0355 12.4469 39.0327C12.4482 39.0297 12.4495 39.026 12.4508 39.0229H12.4528C12.4608 39.0051 12.4687 38.9873 12.4772 38.9712V38.9614C12.4772 38.9201 12.4731 38.7458 12.5338 38.5571H12.5328C12.5338 38.5542 12.5357 38.5512 12.5367 38.5483C12.5373 38.5467 12.5373 38.5442 12.5377 38.5425H12.5387C12.5578 38.4851 12.5798 38.4345 12.5973 38.3979C12.6031 38.3123 12.6194 38.1844 12.6715 38.061H12.6705C12.6819 38.0341 12.6948 38.009 12.7067 37.9868V37.9067L12.7155 37.7515C12.7248 37.6803 12.7442 37.5919 12.7848 37.4956L12.7906 37.4829C12.8013 37.4589 12.8121 37.4368 12.8209 37.4194V37.0005C12.8209 36.5864 13.1569 36.2507 13.5709 36.2505C13.9091 36.2506 14.1922 36.4751 14.2858 36.7827C14.3793 36.4752 14.6616 36.2507 14.9996 36.2505ZM15.7399 41.5122C15.7625 41.4569 15.774 41.4086 15.7799 41.3745L15.3844 41.2593H15.1266L15.7399 41.5122ZM8.70862 33.0005C9.94462 33.8725 12.3792 35.7855 12.2272 36.4595C10.0402 39.1354 7.3456 40.0146 4.99963 41.3706L6.33069 35.3062L8.70862 33.0005ZM15.7819 41.3667C15.7823 41.3639 15.7834 41.3605 15.7838 41.3579C15.7867 41.3381 15.7887 41.3197 15.7897 41.3042C15.7902 41.2965 15.7904 41.2888 15.7906 41.2817V41.2603L15.3971 41.2593L15.7819 41.3667ZM21.7584 33.2134C22.0534 33.0775 22.3975 33.1001 22.6754 33.269L24.2301 34.2095C24.438 34.3355 24.5936 34.5333 24.6666 34.7651L25.6842 38.0112C25.8561 38.5581 25.536 39.1469 24.9772 39.272C23.1369 39.6843 20.7426 39.8235 19.3209 36.6226V36.6655C19.3209 36.7311 19.3221 36.8718 19.2633 37.0503L19.2643 37.0513C19.2526 37.0868 19.2406 37.1194 19.2311 37.1431C19.2226 37.1643 19.2133 37.185 19.2067 37.2007V37.3696C19.2067 37.4049 19.2146 37.6193 19.149 37.8159L19.1481 37.8149C19.1306 37.8674 19.1091 37.9143 19.0905 37.9517C19.0901 38.0257 19.087 38.1544 19.0348 38.311C19.023 38.3462 19.0105 38.3781 19.0026 38.3979C18.9984 38.4084 18.9941 38.4193 18.9908 38.4272C18.9874 38.4358 18.9846 38.4433 18.9821 38.4497C18.9809 38.4525 18.979 38.4552 18.9781 38.4575C18.9781 38.4599 18.9782 38.4631 18.9781 38.4663C18.9779 38.4781 18.9772 38.4913 18.9772 38.5112V38.7202C18.9773 38.741 18.99 38.9584 18.8873 39.1753L18.8844 39.1831L18.8805 39.1899L18.8639 39.2192V39.4058C18.8639 39.4704 18.8665 39.6147 18.8063 39.7954C18.7947 39.8302 18.7824 39.8622 18.7731 39.8853C18.765 39.9051 18.7561 39.9249 18.7496 39.9399V40.5679C18.7492 40.9817 18.4136 41.3179 17.9996 41.3179C17.5858 41.3177 17.25 40.9816 17.2496 40.5679V39.8813C17.2496 39.8213 17.2494 39.6851 17.3073 39.5112L17.3092 39.5044C17.3206 39.4713 17.3333 39.4407 17.3424 39.4185C17.3501 39.3996 17.3578 39.3801 17.3639 39.3657V39.1968L17.3678 39.0317C17.3742 38.9501 17.3905 38.8488 17.4235 38.7505H17.4225C17.4232 38.7483 17.4246 38.7458 17.4254 38.7437C17.4258 38.7424 17.426 38.7401 17.4264 38.7388H17.4274C17.4425 38.6954 17.4604 38.6564 17.4772 38.6226V38.5112C17.4772 38.448 17.4753 38.2821 17.5211 38.1011H17.5201C17.5425 38.0118 17.5727 37.934 17.5895 37.8921C17.591 37.8882 17.5929 37.884 17.5944 37.8804C17.5948 37.8059 17.5996 37.6463 17.65 37.4946L17.7067 37.3618V37.1606L17.7125 37.0103C17.7193 36.9436 17.7341 36.8616 17.7643 36.771L17.7662 36.7642L17.7994 36.6782C17.8072 36.6593 17.8149 36.6396 17.8209 36.6255V36.0005C17.8209 35.5864 18.1569 35.2507 18.5709 35.2505C18.6692 35.2505 18.7632 35.2698 18.8492 35.3042C18.8307 35.2393 18.8106 35.1737 18.7926 35.1069C18.6628 34.7447 20.4948 33.7972 21.7584 33.2134ZM13.1383 39.7983L13.693 40.0317L13.0592 39.7642L13.1383 39.7983ZM13.0338 39.9341L13.0182 39.9272L12.3854 39.6606L13.0338 39.9341ZM13.7047 38.5005L13.4264 38.3794L13.3649 38.354L13.7047 38.5005ZM16.8551 38.1245V38.1235L16.274 37.8696L16.8014 38.0767L16.2604 37.8638L16.8551 38.1245ZM16.6149 37.8188H16.6158L16.3688 37.603L16.3649 37.6001L16.6149 37.8188ZM13.5299 37.6294L13.5035 37.6177L12.9186 37.3716L13.5299 37.6294ZM18.5514 36.8179L18.6696 36.856L18.0953 36.6655L18.5514 36.8179Z" fill="#B3B3B3"/>
<path d="M8.3717 43.9995C9.68171 43.9995 10.7445 44.9299 10.7448 46.0776C10.7448 47.2255 9.68187 48.1567 8.3717 48.1567C7.06169 48.1566 5.99963 47.2254 5.99963 46.0776C5.9999 44.93 7.06185 43.9997 8.3717 43.9995ZM21.3717 43.9995C22.6817 43.9995 23.7445 44.9299 23.7448 46.0776C23.7448 47.2255 22.6819 48.1567 21.3717 48.1567C20.0617 48.1566 18.9996 47.2254 18.9996 46.0776C18.9999 44.93 20.0619 43.9997 21.3717 43.9995Z" fill="#FFAFA3"/>
<path d="M30.4014 44.7856C31.9638 44.4698 33.4876 45.4385 33.879 46.9653L33.9132 47.1147C33.9773 47.432 34.188 47.7906 34.8594 48.1342L35.1768 48.2807L35.5264 48.4125C36.3349 48.6867 37.2363 48.794 37.8829 48.7953C39.6251 48.5376 40.0878 47.7831 40.2051 47.4867C40.2981 47.2498 40.2866 47.0873 40.2667 46.9994C40.2572 46.9575 40.2432 46.9296 40.2354 46.9145C39.9676 46.6462 39.9405 46.2134 40.1846 45.9125C40.4457 45.5909 40.9177 45.5421 41.2393 45.8031C41.4735 45.9932 41.6491 46.3171 41.7286 46.6674C41.8158 47.0517 41.8028 47.5215 41.5997 48.0375V48.0395C41.254 48.9125 40.2787 49.9736 38.0469 50.2885L37.9971 50.2953L37.9473 50.2963C37.0601 50.3028 35.7406 50.1424 34.5977 49.6635C33.4048 49.1645 32.6492 48.4359 32.4425 47.4125C32.2794 46.6116 31.4991 46.0934 30.6983 46.2553C29.8972 46.4183 29.3806 47.2 29.543 48.0004C30.0196 50.3524 31.7703 51.6866 33.4532 52.392C35.1238 53.0921 36.9493 53.2822 38.1466 53.2514L38.2198 53.2494L38.293 53.2397L38.4825 54.728L38.3721 54.7426L38.336 54.7465L38.1876 54.7504C36.9194 54.7832 35.0395 54.6026 33.2335 53.9194L32.8731 53.7758C32.3103 53.5399 31.7212 53.2307 31.1514 52.8393C29.9948 52.7177 29.0181 52.6207 28.1221 52.5141C26.7976 52.3569 25.3815 52.9553 24.0635 53.7895C23.1445 54.3704 22.0424 54.8406 20.9649 54.9526C19.8716 55.0661 18.7246 54.8099 17.9171 53.8295C17.5001 53.3241 17.2458 52.7955 17.1514 52.2582C16.499 52.3208 15.9177 52.349 15.1055 52.349C13.132 52.349 11.2367 52.1705 9.57722 51.7299C8.79433 52.5026 7.51291 53.21 6.25202 53.5766C5.5155 53.7907 4.72658 53.9073 3.9903 53.8276C3.24708 53.747 2.51044 53.4584 1.98444 52.8207C1.4574 52.1811 1.21825 51.4875 1.253 50.7905C1.28703 50.1091 1.57851 49.5047 1.96198 49.0102C2.51724 48.2941 3.32941 47.7247 4.1319 47.3783C3.89098 46.6874 3.76668 45.924 3.76667 45.0883C3.76667 43.48 3.76535 42.2594 4.11823 40.5365C4.29791 38.55 4.84867 35.5838 6.54401 33.2856C7.1729 32.4352 8.27811 32.0591 9.29499 32.3451C9.91759 32.5205 10.6754 32.8251 11.3751 33.436C11.9989 33.9808 12.5447 34.7421 12.919 35.8002C13.5474 35.6289 14.2274 35.4214 15.1055 35.4213C16.0293 35.4213 16.8845 35.6215 17.6534 35.8237C18.0101 34.8109 18.5205 34.0643 19.1085 33.518C19.8195 32.8573 20.6017 32.5283 21.253 32.3451L21.4444 32.2992C22.4046 32.1083 23.421 32.4856 24.002 33.3051C24.3048 33.732 24.5624 34.1835 24.7852 34.6459H25.6202C26.4186 34.6431 27.3815 34.5064 28.4747 34.349L29.2891 34.2201C29.5908 34.1698 29.9208 34.1125 30.2725 34.0531C30.9687 33.9357 31.7398 33.8097 32.5069 33.7074C33.2726 33.6054 34.0479 33.5251 34.751 33.5033C35.4301 33.4824 36.0991 33.5141 36.6417 33.6615C38.8981 34.2118 40.6859 35.3097 41.9708 36.8774C43.2128 38.3929 43.9494 40.3055 44.2257 42.4906C46.2951 44.3114 46.6899 47.284 45.7471 49.6742C44.6939 52.3439 42.1133 54.269 38.4825 54.728L38.293 53.2397C41.4839 52.8365 43.5349 51.1936 44.3516 49.1235C45.1292 47.1518 44.7221 44.8231 43.1094 43.5102L43.0977 43.5004L43.086 43.4897C42.9008 43.3258 42.7862 43.0988 42.7608 42.8578C42.5303 40.8135 41.8704 39.1217 40.8106 37.8285C39.7537 36.5389 38.2626 35.6003 36.2872 35.1186L36.2745 35.1156L36.2628 35.1127L36.1329 35.0805C35.8122 35.0126 35.3619 34.9859 34.7979 35.0033C34.1665 35.0228 33.447 35.0949 32.7051 35.1938C31.965 35.2924 31.215 35.4157 30.5216 35.5326C29.835 35.6485 29.1917 35.7608 28.6895 35.8334C27.6291 35.986 26.5513 36.1427 25.626 36.1459H25.3809C25.4968 36.5054 25.5965 36.8644 25.6817 37.2182C25.7787 37.6208 25.5315 38.0263 25.129 38.1235C24.7263 38.2205 24.3207 37.9724 24.2237 37.5697C23.9329 36.3626 23.4843 35.1688 22.7784 34.1733C22.5362 33.8317 22.0811 33.6708 21.6592 33.7895C21.1586 33.9303 20.6149 34.167 20.13 34.6176C19.6494 35.0641 19.1841 35.7599 18.8985 36.8881L18.8956 36.8871C18.8059 37.2458 18.4855 37.478 18.1407 37.478H18.1221C18.1114 37.4777 18.0916 37.4772 18.0675 37.475C18.0463 37.4731 18.0023 37.4674 17.9454 37.4526C16.914 37.1866 16.0651 36.9213 15.1055 36.9213C14.2545 36.9214 13.8602 37.1372 12.836 37.3725L12.8253 37.3744C12.2782 37.4914 11.7645 37.1518 11.6173 36.6508L11.6163 36.6469L11.4971 36.2778C11.2036 35.4587 10.801 34.9259 10.3887 34.5658C9.97152 34.2015 9.51302 33.9862 9.07526 33.8451L8.88874 33.7895C8.47016 33.6717 8.00829 33.8285 7.75104 34.1752L7.75202 34.1762C6.30982 36.1313 5.78965 38.7472 5.6153 40.643C5.61479 40.6691 5.61276 40.6956 5.60944 40.7221C5.60835 40.7309 5.60583 40.7393 5.60456 40.7475C5.60425 40.7514 5.60398 40.7562 5.60358 40.7612C5.60239 40.7763 5.60093 40.7987 5.5987 40.8217C5.59295 40.8809 5.57705 40.9367 5.55866 40.9906C5.2696 42.47 5.26667 43.537 5.26667 45.0883C5.26669 46.1936 5.53121 47.0727 5.98151 47.7797C6.434 48.4901 7.10148 49.0686 7.96882 49.5268C9.72448 50.4542 12.226 50.849 15.1055 50.849C15.9936 50.849 16.5737 50.8117 17.3272 50.7299C17.409 50.536 17.51 50.3527 17.626 50.1821C18.2709 49.2341 19.4021 48.5948 20.4239 48.3549C20.827 48.2604 21.2305 48.5105 21.3253 48.9135C21.4199 49.3166 21.1697 49.7201 20.7667 49.8149C20.0205 49.99 19.2529 50.4575 18.8663 51.0258C18.682 51.2968 18.5973 51.57 18.6094 51.8432C18.6216 52.1148 18.7333 52.4618 19.0743 52.8754L18.3936 53.4369L18.4962 53.353L19.0753 52.8764C19.4686 53.3537 20.0483 53.5404 20.8096 53.4613C21.5869 53.3806 22.4679 53.0228 23.2618 52.5209C24.6517 51.6412 26.4426 50.8042 28.2999 51.0248C28.635 51.0647 28.9814 51.1008 29.3458 51.1401C28.8094 50.4316 28.3793 49.5848 28.1348 48.5776L28.0733 48.2983C27.7459 46.685 28.7882 45.114 30.4005 44.7865L30.4014 44.7856ZM4.80769 48.7231C4.19538 48.9722 3.55204 49.4076 3.14753 49.9291C2.89522 50.2545 2.76566 50.5724 2.75104 50.8656C2.73727 51.1431 2.82097 51.4773 3.14069 51.8656C3.35014 52.1197 3.67754 52.2849 4.15144 52.3363C4.6325 52.3885 5.21606 52.3155 5.83308 52.1362C6.61086 51.9101 7.34871 51.5416 7.90925 51.1576C7.68926 51.0621 7.475 50.962 7.26862 50.853C6.26985 50.3254 5.42113 49.6278 4.80769 48.7231ZM44.252 42.6967L44.253 42.7016C44.2528 42.6996 44.2513 42.6977 44.251 42.6957L44.252 42.6967ZM4.128 40.4897C4.12737 40.4927 4.12696 40.4973 4.12604 40.5024C4.12727 40.4952 4.12852 40.488 4.12995 40.4809C4.12938 40.4834 4.12868 40.4864 4.128 40.4897ZM18.1466 36.6977L17.4454 36.5199L18.1397 36.6967L18.1466 36.6977L18.171 36.7045L18.1866 36.7074L18.1466 36.6977Z" fill="#1A1A1A"/>
<path d="M8.29457 35.2947C8.47255 35.0528 8.78881 34.9452 9.07875 35.0271C9.43375 35.1271 10.2042 35.8201 10.6432 36.5691C10.821 36.8721 10.611 37.2193 10.2721 37.3104C9.50221 37.5163 8.88524 37.8062 8.17836 38.3221C7.73736 38.6431 7.16238 38.3266 7.30238 37.7986C7.54738 36.8688 7.91064 35.8146 8.29457 35.2947ZM21.9205 35.0271C22.2104 34.9452 22.5267 35.053 22.7047 35.2947C23.0887 35.8146 23.4529 36.8687 23.6979 37.7986C23.8379 38.3266 23.2629 38.6431 22.8219 38.3221C22.115 37.8061 21.498 37.5163 20.7282 37.3104C20.3892 37.2194 20.1791 36.8721 20.3571 36.5691C20.7959 35.8204 21.5654 35.1276 21.9205 35.0271Z" fill="#FFAFA3"/>
<path d="M14.9609 47.5C15.2371 47.5 15.4609 47.7239 15.4609 48C15.4609 48.2761 15.2371 48.5 14.9609 48.5H14C13.7239 48.5 13.5 48.2761 13.5 48C13.5 47.7239 13.7239 47.5 14 47.5H14.9609Z" fill="#1A1A1A"/>
<path d="M19.6817 44.3867C19.9417 44.0725 20.398 44.0359 20.7009 44.3057C21.0036 44.5754 21.0379 45.0489 20.7781 45.3631C19.9866 46.3196 19.0716 46.5989 18.2268 46.4312C17.4499 46.277 16.8414 45.7674 16.5084 45.3592C16.2505 45.0431 16.2884 44.5703 16.5931 44.3027C16.8978 44.0352 17.3535 44.0745 17.6113 44.3906C17.8026 44.6251 18.1404 44.8868 18.4978 44.9579C18.7875 45.0154 19.1958 44.9739 19.6817 44.3867Z" fill="#1A1A1A"/>
<path d="M9.6084 44.3867C9.34839 44.0725 8.89207 44.0359 8.58921 44.3057C8.28646 44.5754 8.25216 45.0489 8.51204 45.3631C9.30348 46.3196 10.2185 46.5989 11.0633 46.4312C11.8402 46.277 12.4487 45.7674 12.7817 45.3592C13.0396 45.0431 13.0017 44.5703 12.697 44.3027C12.3923 44.0352 11.9366 44.0745 11.6788 44.3906C11.4875 44.6251 11.1497 44.8868 10.7923 44.9579C10.5026 45.0154 10.0943 44.9739 9.6084 44.3867Z" fill="#1A1A1A"/>
</svg>
