<svg width="48" height="55" viewBox="0 0 48 55" fill="none" xmlns="http://www.w3.org/2000/svg">
<path d="M2 38.191C2 33.428 2 30.191 7 22.191C9.9102 18.033 28.0304 16.641 38.0788 19.74C41.5428 20.808 43.663 23.993 44.4477 27.532C45.3686 31.685 46.1157 36.933 45.948 42.053C45.7349 48.557 40.1829 52.871 33.6863 53.239C27.4785 53.591 19.604 53.682 12.8082 52.922C9.6305 52.566 6.4812 51.285 4.751 48.596C2.5305 45.145 2 41.226 2 38.191Z" fill="#FFA629"/>
<path d="M8 29.0571L7 21.5571L8.5 20.0571L11 19.0571L19.5 18.0571H30.5L38.5 19.5571L43.5 23.0571V27.0571L41.9192 31.7211L36.5 28.0571L32.5 33.5571L27.7901 30.2331L23.2645 33.5571L19 29.0571L15.0817 33.1821L12.5388 27.1311L8 29.0571Z" fill="#FDEECE"/>
<path d="M34.25 23.0571C34.25 23.1081 34.2126 23.3071 33.7803 23.6131C33.3674 23.9061 32.7214 24.2011 31.8556 24.4601C30.1335 24.9771 27.7095 25.3071 25 25.3071C22.2905 25.3071 19.8665 24.9771 18.1444 24.4601C17.2786 24.2011 16.6326 23.9061 16.2197 23.6131C15.7874 23.3071 15.75 23.1081 15.75 23.0571C15.75 23.0071 15.7874 22.8081 16.2197 22.5011C16.6326 22.2091 17.2786 21.9141 18.1444 21.6541C19.8665 21.1381 22.2905 20.8071 25 20.8071C27.7095 20.8071 30.1335 21.1381 31.8556 21.6541C32.7214 21.9141 33.3674 22.2091 33.7803 22.5011C34.2126 22.8081 34.25 23.0071 34.25 23.0571Z" fill="#DD7C0E"/>
<path d="M19.8398 17.4981C26.0623 17.0065 33.2234 17.4455 38.3652 19.0762C40.8868 19.8759 42.706 21.6913 43.877 23.9014C43.8998 23.9439 43.923 23.9861 43.9443 24.0293C44.4926 25.0938 44.8929 26.2462 45.1504 27.418C46.1029 31.7543 46.8856 37.2959 46.6924 42.7051C46.4418 49.714 40.4902 54.2817 33.6982 54.6738C27.4926 55.031 19.6128 55.1253 12.7822 54.3516C9.44911 53.9743 6.0077 52.5889 4.1123 49.583C1.79014 45.8989 1.25005 41.7462 1.25 38.5821C1.25 36.1601 1.24743 34.0331 1.89844 31.4795C2.54885 28.9285 3.83886 25.992 6.36035 21.8789L6.37109 21.8623L6.38184 21.8467C6.83803 21.1825 7.552 20.6266 8.40137 20.1582C9.25796 19.6859 10.3002 19.2767 11.4688 18.9268C13.8065 18.2268 16.7229 17.7443 19.8398 17.4981ZM6.04883 25.3965C4.60908 28.0345 3.80564 30.0688 3.35156 31.8496C2.75283 34.1982 2.75 36.1495 2.75 38.5821C2.75005 41.6017 3.26966 45.4337 5.38086 48.7832C6.93689 51.2509 9.85287 52.5106 12.9502 52.8613C19.6613 53.6216 27.4466 53.5316 33.6113 53.1768C39.8489 52.8168 44.9776 48.6859 45.1934 42.6514C45.357 38.0709 44.7975 33.3649 44.0303 29.4102C43.7708 30.3679 43.4438 31.2056 43.1895 31.7569C42.9223 32.3357 42.2501 32.8055 41.4766 32.5684C40.6734 32.322 39.7938 31.7355 39.0322 31.1709C38.6404 30.8804 38.2555 30.5769 37.9053 30.3008C37.5502 30.0209 37.235 29.7721 36.9639 29.5752L36.9531 29.5694C36.9516 29.5686 36.9504 29.5674 36.9502 29.5674C36.9497 29.5676 36.9483 29.5682 36.9473 29.5684C36.9421 29.5695 36.9191 29.5761 36.8945 29.6104C36.414 30.2794 35.8167 31.183 35.2129 32.0664C34.628 32.9222 34.0228 33.7803 33.5664 34.2725L33.4307 34.3994C33.0866 34.6794 32.5598 34.8316 32.0469 34.5459C31.7534 34.3824 31.4244 34.1263 31.1025 33.8545C30.7725 33.5758 30.41 33.2464 30.0459 32.9121C29.3013 32.2286 28.5523 31.5307 27.9248 31.0645C27.9107 31.0542 27.8967 31.0492 27.875 31.0518C27.8488 31.055 27.8094 31.0704 27.7725 31.1084C27.2288 31.6716 26.5505 32.386 25.8906 33.0176C25.2495 33.6312 24.5503 34.242 23.9648 34.5449L23.9629 34.5459C23.4126 34.8285 22.8197 34.6658 22.4424 34.3272C21.8456 33.7924 21.1302 32.8876 20.5146 32.0967C20.1965 31.688 19.9002 31.3025 19.6357 30.9746C19.4898 30.7937 19.3617 30.6427 19.2549 30.5225C18.7229 30.9909 18.1478 31.595 17.5693 32.1992C16.9454 32.851 16.2834 33.5421 15.7422 33.9248L15.7412 33.9258L15.5986 34.0127C15.2588 34.1924 14.87 34.2023 14.5293 34.0401C14.1665 33.8671 13.9301 33.5366 13.8281 33.1856C13.5077 32.0788 13.0745 29.9634 12.79 28.3897C12.7718 28.29 12.7028 28.2025 12.5908 28.1563C12.4785 28.1101 12.3665 28.1232 12.2822 28.1817C11.0938 29.0051 9.7197 29.8726 8.80762 30.1836C8.39144 30.3249 7.79828 30.2829 7.42188 29.7979C7.14211 29.4373 6.88384 28.8826 6.6709 28.2754C6.45191 27.6508 6.25914 26.9075 6.13867 26.1289C6.10195 25.8916 6.07151 25.6463 6.04883 25.3965ZM37.9121 20.5059C33.0178 18.9536 26.0668 18.5106 19.958 18.9932C16.9097 19.234 14.1051 19.7029 11.8994 20.3633C10.7966 20.6935 9.86109 21.0664 9.12598 21.4717C8.63375 21.7431 8.25208 22.0188 7.9707 22.2891C7.47615 23.1512 7.40578 24.5075 7.62109 25.8994C7.72753 26.5873 7.89743 27.2416 8.08594 27.7793C8.2282 28.185 8.37144 28.4941 8.48926 28.6973C9.1914 28.4122 10.3076 27.7247 11.4268 26.9492C12.5038 26.2017 14.0311 26.8278 14.2656 28.1231C14.5231 29.5474 14.8945 31.3621 15.1826 32.4531C15.5376 32.1441 15.9782 31.693 16.4863 31.1621C17.1208 30.4994 17.8405 29.7402 18.5127 29.1846L18.5146 29.1826C18.8067 28.9429 19.4031 28.7017 19.9316 29.0879L20.0371 29.1738L20.2148 29.3496C20.3994 29.5423 20.6013 29.7835 20.8027 30.0332C21.0781 30.3746 21.3885 30.7779 21.6982 31.1758C22.311 31.963 22.9134 32.7143 23.3809 33.1514C23.7468 32.9332 24.2621 32.4997 24.8535 31.9336C25.4859 31.3283 26.1366 30.6432 26.6934 30.0664L26.7969 29.9678C27.336 29.4973 28.1671 29.3752 28.8203 29.8604C29.5263 30.385 30.3455 31.1502 31.0605 31.8067C31.426 32.1421 31.7669 32.4528 32.0703 32.709C32.2757 32.8824 32.4497 33.016 32.5889 33.1133C32.9482 32.6937 33.4385 32.0052 33.9746 31.2207C34.556 30.3701 35.1824 29.4223 35.6758 28.7354C36.1596 28.0618 37.1063 27.8269 37.8438 28.3613C38.144 28.5793 38.486 28.8488 38.834 29.1231C39.1869 29.4012 39.5547 29.6907 39.9258 29.9658C40.6525 30.5046 41.3174 30.9261 41.8369 31.1065C42.1565 30.4092 42.6099 29.1983 42.8301 27.918C43.0572 26.5966 43.0094 25.3588 42.499 24.5078L42.502 24.5059C41.4766 22.6191 39.9393 21.1488 37.9121 20.5059ZM25 20.0567C27.589 20.0567 29.948 20.3523 31.7236 20.836L32.0713 20.9356L32.4023 21.0401C33.1556 21.289 33.7707 21.576 34.2129 21.8887H34.2148L34.3955 22.0274C34.7916 22.3529 34.9999 22.7002 35 23.0567C35 23.4649 34.7284 23.8603 34.2139 24.2246L34.0137 24.3574C33.5224 24.6635 32.8631 24.9408 32.0713 25.1778C30.2615 25.7211 27.7613 26.0567 25 26.0567C22.2387 26.0567 19.7385 25.7211 17.9287 25.1778V25.1768C17.0239 24.906 16.2919 24.5834 15.7861 24.2246L15.6045 24.0869C15.2078 23.7616 15 23.4139 15 23.0567C15.0001 22.6493 15.2717 22.2533 15.7852 21.8887H15.7871C16.2925 21.5314 17.0237 21.2074 17.9287 20.9356L18.2764 20.836C20.052 20.3523 22.411 20.0567 25 20.0567ZM25 21.5567C22.3427 21.5567 19.9942 21.8813 18.3594 22.3711C17.6015 22.5987 17.0678 22.8432 16.7373 23.0567C17.0671 23.2706 17.6009 23.5143 18.3594 23.7412H18.3604L18.6748 23.8311C20.2892 24.271 22.5084 24.5567 25 24.5567C27.6575 24.5567 30.0053 24.2319 31.6396 23.7412H31.6406C32.3986 23.5145 32.9318 23.2705 33.2617 23.0567C32.9312 22.8432 32.3973 22.5996 31.6396 22.3721C30.0049 21.8824 27.657 21.5567 25 21.5567Z" fill="#1A1A1A"/>
<path d="M17.7314 15.5421L20.6292 14.8281L23.482 24.5151C23.482 24.5151 22.4411 24.5241 21.7789 24.4961C21.2015 24.4721 20.3078 24.3941 20.3078 24.3941L17.7314 15.5421Z" fill="#14AE5C"/>
<path d="M10.9092 41.0576C12.5158 41.0577 13.8184 42.0343 13.8184 43.2393C13.8183 44.4442 12.5157 45.4209 10.9092 45.4209C9.30259 45.4209 8.00009 44.4442 8 43.2393C8 42.0343 9.30253 41.0576 10.9092 41.0576ZM36.9092 41.0576C38.5158 41.0577 39.8184 42.0343 39.8184 43.2393C39.8183 44.4442 38.5157 45.4209 36.9092 45.4209C35.3026 45.4209 34.0001 44.4442 34 43.2393C34 42.0343 35.3025 41.0576 36.9092 41.0576Z" fill="#FFC7C2"/>
<path d="M26.5042 42.9468C26.7997 42.6568 27.2745 42.6613 27.5648 42.9566C27.8548 43.252 27.8503 43.7269 27.555 44.0171L27.4329 44.1373L27.431 44.1382L26.9075 43.6021L26.848 43.5416L27.431 44.1382C25.7507 45.7787 23.0489 45.7135 21.4505 43.9927C21.1686 43.6893 21.1861 43.2141 21.4896 42.9322C21.793 42.6503 22.2682 42.6678 22.5501 42.9712C23.5748 44.0744 25.3061 44.1165 26.3831 43.065V43.066L26.5042 42.9468Z" fill="#1A1A1A"/>
<path d="M29.1965 40.0588C29.8564 40.0588 30.3915 40.5939 30.3915 41.2538C30.3915 41.9138 29.8564 42.4488 29.1965 42.4488C28.5365 42.4488 28.0015 41.9138 28.0015 41.2538C28.0015 40.5939 28.5365 40.0588 29.1965 40.0588Z" fill="#1A1A1A"/>
<path d="M19.1965 40.0588C18.5365 40.0588 18.0015 40.5939 18.0015 41.2538C18.0015 41.9138 18.5365 42.4488 19.1965 42.4488C19.8564 42.4488 20.3915 41.9138 20.3915 41.2538C20.3915 40.5939 19.8564 40.0588 19.1965 40.0588Z" fill="#1A1A1A"/>
</svg>
