<svg width="48" height="55" viewBox="0 0 48 55" fill="none" xmlns="http://www.w3.org/2000/svg">
<path d="M2 38.1903C2 33.4273 2 30.1903 7 22.1903C9.91019 18.0333 28.0304 16.6413 38.0788 19.7393C41.5428 20.8073 43.663 23.9923 44.4477 27.5313C45.3686 31.6843 46.1157 36.9323 45.948 42.0523C45.7349 48.5563 40.1829 52.8702 33.6863 53.2382C27.4785 53.5902 19.604 53.6813 12.8082 52.9213C9.6305 52.5653 6.48115 51.2842 4.75098 48.5952C2.53055 45.1442 2 41.2253 2 38.1903Z" fill="#E24C0C"/>
<path d="M8 29.0571L7 21.5571L8.5 20.0571L11 19.0571L19.5 18.0571H30.5L38.5 19.5571L43.5 23.0571V27.0571L41.9192 31.7211L36.5 28.0571L32.5 33.5571L27.7901 30.2331L23.2645 33.5571L19 29.0571L15.0817 33.1821L12.5388 27.1301L8 29.0571Z" fill="#FDEECE"/>
<path d="M34.25 23.0571C34.25 23.1071 34.2126 23.3061 33.7803 23.6131C33.3674 23.9051 32.7214 24.2001 31.8556 24.4601C30.1335 24.9761 27.7095 25.3071 25 25.3071C22.2905 25.3071 19.8665 24.9761 18.1444 24.4601C17.2786 24.2001 16.6326 23.9051 16.2197 23.6131C15.7874 23.3061 15.75 23.1071 15.75 23.0571C15.75 23.0061 15.7874 22.8071 16.2197 22.5011C16.6326 22.2081 17.2786 21.9131 18.1444 21.6541C19.8665 21.1371 22.2905 20.8071 25 20.8071C27.7095 20.8071 30.1335 21.1371 31.8556 21.6541C32.7214 21.9131 33.3674 22.2081 33.7803 22.5011C34.2126 22.8071 34.25 23.0061 34.25 23.0571Z" fill="#9F1F18"/>
<path d="M19.8398 17.4975C26.0624 17.006 33.2234 17.4454 38.3652 19.0756C40.8827 19.874 42.6999 21.6849 43.8711 23.89C43.8961 23.9361 43.9212 23.9819 43.9443 24.0287C44.4926 25.0933 44.8929 26.2455 45.1504 27.4174L45.3271 28.2445C46.1972 32.4462 46.8735 37.6344 46.6924 42.7045C46.4417 49.7132 40.4903 54.2821 33.6982 54.6732C27.4926 55.0304 19.6128 55.1247 12.7822 54.351C9.44913 53.9737 6.00772 52.5884 4.1123 49.5824C1.78999 45.8992 1.25004 41.7456 1.25 38.5814C1.25 36.1593 1.24734 34.0318 1.89844 31.4779C2.54889 28.927 3.839 25.9912 6.36035 21.8783L6.37109 21.8617L6.38184 21.8461L6.56445 21.602C7.01833 21.0441 7.65805 20.5675 8.40137 20.1576C9.25802 19.6853 10.3001 19.2751 11.4688 18.9252C13.8065 18.2253 16.7229 17.7437 19.8398 17.4975ZM6.0498 25.3979C4.61026 28.0353 3.80556 30.0684 3.35156 31.849C2.75278 34.1977 2.75 36.1488 2.75 38.5814C2.75004 41.6012 3.26959 45.4341 5.38086 48.7826C6.9369 51.2503 9.85289 52.5091 12.9502 52.8598C19.6614 53.62 27.4466 53.53 33.6113 53.1752C39.8487 52.8162 44.9775 48.6854 45.1934 42.6508C45.357 38.0712 44.7975 33.3645 44.0303 29.4096C43.7708 30.3674 43.4439 31.2052 43.1895 31.7563L42.5088 31.4418L41.9063 31.1645L43.1895 31.7563C42.9223 32.3351 42.2501 32.8049 41.4766 32.5678C40.6734 32.3214 39.7939 31.7349 39.0322 31.1703C38.6403 30.8798 38.2556 30.5764 37.9053 30.3002C37.5507 30.0207 37.2359 29.7726 36.9648 29.5756L36.9541 29.5688C36.9523 29.568 36.9505 29.5678 36.9502 29.5678C36.9496 29.5677 36.9481 29.5674 36.9463 29.5678C36.9408 29.5689 36.9187 29.5761 36.8945 29.6098C36.414 30.2787 35.8167 31.1832 35.2129 32.0668C34.6282 32.9225 34.0229 33.7811 33.5664 34.2729C33.2394 34.6248 32.635 34.8739 32.0469 34.5463C31.7537 34.3826 31.4243 34.1267 31.1025 33.8549C30.7725 33.576 30.4101 33.2459 30.0459 32.9115C29.3944 32.3133 28.7397 31.7045 28.166 31.2494L27.9258 31.0639C27.9117 31.0535 27.8967 31.0486 27.875 31.0512C27.8488 31.0544 27.8094 31.0698 27.7725 31.1078C27.2289 31.6709 26.5504 32.3853 25.8906 33.017C25.2498 33.6305 24.5506 34.2417 23.9648 34.5443L23.4697 33.5854L23.6201 33.8783L23.9648 34.5443L23.9629 34.5453C23.4815 34.7924 22.9681 34.6985 22.5947 34.4457L22.4434 34.3285L22.4424 34.3275C21.8456 33.7928 21.1302 32.8882 20.5146 32.0971C20.1964 31.6881 19.9003 31.3021 19.6357 30.974C19.4898 30.793 19.3617 30.6422 19.2549 30.5219C18.7229 30.9898 18.148 31.5943 17.5693 32.1986C16.9455 32.8502 16.2834 33.5416 15.7422 33.9242L15.7412 33.9252L15.5986 34.0121C15.2595 34.1914 14.8714 34.2015 14.5303 34.0395C14.1667 33.8666 13.9301 33.5365 13.8281 33.185C13.5076 32.0792 13.0745 29.9636 12.79 28.39L12.7666 28.3178C12.7344 28.2494 12.6749 28.1915 12.5908 28.1566C12.4783 28.1103 12.3662 28.1228 12.2822 28.1811L11.6416 27.2582L12.2813 28.182C11.0949 29.004 9.72217 29.87 8.80957 30.1811L8.81055 30.182C8.39235 30.3262 7.79846 30.2836 7.42188 29.7982L8.01465 29.3383L8.41211 29.0287L7.42188 29.7982C7.14228 29.4374 6.88383 28.8822 6.6709 28.2748C6.45189 27.65 6.25916 26.907 6.13867 26.1283C6.10205 25.8916 6.07247 25.647 6.0498 25.3979ZM37.9121 20.5053C33.0178 18.9535 26.0668 18.5101 19.958 18.9926C16.9096 19.2334 14.1052 19.7024 11.8994 20.3627C10.7965 20.6929 9.86112 21.0658 9.12598 21.4711C8.63366 21.7426 8.25201 22.0182 7.9707 22.2885C7.47622 23.1506 7.40576 24.5068 7.62109 25.8988C7.72755 26.5869 7.89739 27.2408 8.08594 27.7787C8.22826 28.1847 8.37132 28.4941 8.48926 28.6977C9.19063 28.4136 10.3066 27.7248 11.4268 26.9486L11.5293 26.8832C12.5989 26.2411 14.0387 26.8692 14.2656 28.1225C14.5232 29.5474 14.8945 31.3633 15.1826 32.4535C15.5377 32.1445 15.9779 31.6925 16.4863 31.1615C17.1207 30.499 17.8404 29.7401 18.5127 29.185C18.8054 28.943 19.4024 28.7004 19.9316 29.0873L20.0371 29.1732L20.2148 29.349C20.3994 29.5418 20.6012 29.7828 20.8027 30.0326C21.0782 30.3742 21.3884 30.778 21.6982 31.1762C22.3108 31.9634 22.9135 32.7137 23.3809 33.1508C23.7464 32.9332 24.2618 32.4995 24.8535 31.933C25.4858 31.3277 26.1366 30.6426 26.6934 30.0658L26.7969 29.9672C27.3361 29.4967 28.1671 29.3745 28.8203 29.8598C29.5264 30.3844 30.3454 31.1494 31.0605 31.8061C31.426 32.1416 31.7669 32.452 32.0703 32.7084C32.2754 32.8816 32.4488 33.0162 32.5879 33.1137C32.9472 32.6947 33.4379 32.0056 33.9746 31.2201C34.5559 30.3695 35.1824 29.4218 35.6758 28.7348C36.1307 28.1016 36.9918 27.8588 37.7041 28.2699L37.8447 28.3607L37.8457 28.3617C38.1457 28.5798 38.4862 28.8483 38.834 29.1225C39.1869 29.4007 39.5546 29.6901 39.9258 29.9652C40.6525 30.5039 41.3172 30.9255 41.8369 31.1059C42.1564 30.4092 42.6099 29.1981 42.8301 27.9174C43.0573 26.5957 43.0094 25.3583 42.499 24.5072L42.502 24.5053C41.4766 22.6185 39.9392 21.1482 37.9121 20.5053ZM37.459 28.893L37.4639 28.8871L37.502 28.8344L37.459 28.893ZM25 20.057C27.7613 20.057 30.2615 20.3926 32.0713 20.9359H32.0703C32.9756 21.2067 33.7079 21.5301 34.2139 21.8891L34.3955 22.0268C34.7923 22.3521 35 22.6998 35 23.057C35 23.4645 34.7281 23.8594 34.2148 24.224L34.2129 24.225C33.7076 24.5823 32.9764 24.9063 32.0713 25.1781L31.7236 25.2777C29.948 25.7614 27.589 26.057 25 26.057C22.2384 26.057 19.7381 25.7203 17.9287 25.1781L17.5977 25.0736C16.8444 24.8247 16.2293 24.5377 15.7871 24.225L15.7852 24.224C15.2719 23.8594 15 23.4645 15 23.057C15 22.6489 15.2715 22.2534 15.7861 21.8891L15.9863 21.7563C16.4776 21.4502 17.1369 21.1729 17.9287 20.9359L18.2764 20.8363C20.0524 20.3518 22.4114 20.057 25 20.057ZM25 21.557C22.3425 21.557 19.9947 21.8818 18.3604 22.3725H18.3594C17.6011 22.5993 17.0672 22.8422 16.7373 23.0561C17.0678 23.2697 17.6019 23.5138 18.3604 23.7416C19.9951 24.2313 22.343 24.557 25 24.557C27.657 24.557 30.0049 24.2313 31.6396 23.7416C32.3976 23.514 32.9312 23.2696 33.2617 23.0561C32.9318 22.8423 32.3983 22.5991 31.6406 22.3725H31.6396C30.0053 21.8818 27.6575 21.557 25 21.557Z" fill="#1A1A1A"/>
<path d="M17.7314 15.5421L20.6292 14.8271L23.482 24.5141C23.482 24.5141 22.4411 24.5231 21.7789 24.4961C21.2015 24.4711 20.3078 24.3941 20.3078 24.3941L17.7314 15.5421Z" fill="#78B136"/>
<path d="M10.9092 41.0566C12.5158 41.0567 13.8184 42.0333 13.8184 43.2383C13.8182 44.4432 12.5157 45.4199 10.9092 45.4199C9.30262 45.4199 8.00013 44.4432 8 43.2383C8 42.0333 9.30253 41.0566 10.9092 41.0566ZM36.9092 41.0566C38.5158 41.0567 39.8184 42.0333 39.8184 43.2383C39.8182 44.4432 38.5157 45.4199 36.9092 45.4199C35.3026 45.4199 34.0001 44.4432 34 43.2383C34 42.0333 35.3025 41.0566 36.9092 41.0566Z" fill="#FFC7C2"/>
<path d="M26.3792 42.9459C26.6747 42.6558 27.1495 42.6603 27.4398 42.9556C27.7298 43.2511 27.7253 43.7259 27.43 44.0162L27.3079 44.1363L27.306 44.1373L26.7825 43.6011L26.723 43.5406L27.306 44.1373C25.6257 45.7777 22.9239 45.7125 21.3255 43.9918C21.0436 43.6883 21.0611 43.2131 21.3646 42.9312C21.668 42.6493 22.1432 42.6668 22.4251 42.9703C23.4498 44.0734 25.1811 44.1155 26.2581 43.064V43.065L26.3792 42.9459Z" fill="#1A1A1A"/>
<path d="M29.1974 40.0569C29.8574 40.0569 30.3924 40.5919 30.3924 41.2519C30.3924 41.9119 29.8574 42.4469 29.1974 42.4469C28.5375 42.4469 28.0024 41.9119 28.0024 41.2519C28.0024 40.5919 28.5375 40.0569 29.1974 40.0569Z" fill="#1A1A1A"/>
<path d="M19.1974 40.0569C18.5375 40.0569 18.0024 40.5919 18.0024 41.2519C18.0024 41.9119 18.5375 42.4469 19.1974 42.4469C19.8574 42.4469 20.3924 41.9119 20.3924 41.2519C20.3924 40.5919 19.8574 40.0569 19.1974 40.0569Z" fill="#1A1A1A"/>
</svg>
