<svg width="48" height="55" viewBox="0 0 48 55" fill="none" xmlns="http://www.w3.org/2000/svg">
<path d="M41.25 39.46C41.25 38.92 41.2499 38.66 41.2446 38.45C41.0149 29.33 33.6728 21.99 24.5487 21.76C24.3356 21.75 24.0812 21.75 23.5447 21.75H22.5126C13.8072 21.75 6.75 28.81 6.75 37.51C6.75 46.69 14.1909 54.1299 23.3697 54.1299H35.8065C36.8406 54.1299 37.575 54.1301 38.1513 54.0901C38.72 54.0501 39.0744 53.9701 39.3569 53.8401C40.0626 53.5101 40.6289 52.94 40.9532 52.24C41.083 51.96 41.1639 51.6 41.2064 51.03C41.2495 50.46 41.25 49.7199 41.25 48.6899V39.46Z" fill="#F24822"/>
<path d="M6 37.5098C6.00013 28.3957 13.3932 21 22.5127 21H23.5449C24.0594 21 24.3349 21.0005 24.5664 21.0107L24.5674 21.0098C34.0905 21.2498 41.7542 28.9112 41.9941 38.4307C41.9997 38.6525 42 38.9247 42 39.46V48.6904C42 49.7084 41.9998 50.4821 41.9541 51.0869C41.9086 51.6956 41.8181 52.1581 41.6338 52.5557C41.2352 53.4158 40.5404 54.1147 39.6748 54.5195L39.3506 53.8262L39.3564 53.8398L39.6748 54.5195L39.6709 54.5215L39.5176 54.5859C39.1546 54.7268 38.7387 54.8003 38.2041 54.8379H38.2031C37.5947 54.8801 36.8293 54.8799 35.8066 54.8799H23.3701C13.7771 54.8799 6 47.104 6 37.5098ZM7.5 37.5098C7.5 46.2755 14.6055 53.3799 23.3701 53.3799H35.8066C36.8515 53.3799 37.5547 53.3795 38.0986 53.3418C38.6244 53.3048 38.8772 53.2354 39.043 53.1592C39.5869 52.9038 40.023 52.4632 40.2725 51.9248C40.3476 51.7627 40.4184 51.5051 40.458 50.9746L40.459 50.9736C40.4994 50.4387 40.5 49.732 40.5 48.6904V39.46C40.5 38.9153 40.5001 38.6669 40.4951 38.4688C40.2754 29.7486 33.255 22.7299 24.5303 22.5098H24.5215L24.5137 22.5088C24.3227 22.4998 24.0901 22.5 23.5449 22.5H22.5127C14.2216 22.5 7.50013 29.2241 7.5 37.5098Z" fill="#1A1A1A"/>
<path d="M26.2905 39.8208C26.4239 39.4287 26.8496 39.2188 27.2417 39.352C27.6337 39.4854 27.8436 39.9111 27.7104 40.3032C26.5473 43.722 21.584 43.8272 20.4878 40.2837C20.3654 39.888 20.5872 39.4676 20.9829 39.3452C21.3786 39.2228 21.7989 39.4446 21.9214 39.8403C22.5575 41.8966 25.5619 41.9617 26.2905 39.8208Z" fill="#1A1A1A"/>
<path d="M28 36C28.5523 36 29 36.4477 29 37C29 37.5523 28.5523 38 28 38C27.4477 38 27 37.5523 27 37C27 36.4477 27.4477 36 28 36Z" fill="#1A1A1A"/>
<path d="M20 36C19.4477 36 19 36.4477 19 37C19 37.5523 19.4477 38 20 38C20.5523 38 21 37.5523 21 37C21 36.4477 20.5523 36 20 36Z" fill="#1A1A1A"/>
</svg>
