<svg width="48" height="56" viewBox="0 0 48 56" fill="none" xmlns="http://www.w3.org/2000/svg">
<path d="M41.25 39.71C41.25 39.17 41.25 38.91 41.245 38.7C41.015 29.58 33.673 22.24 24.549 22.01C24.336 22 24.081 22 23.545 22H22.513C13.807 22 6.75 29.06 6.75 37.76C6.75 46.94 14.191 54.3799 23.37 54.3799H35.806C36.841 54.3799 37.575 54.3801 38.151 54.3401C38.72 54.3001 39.074 54.2201 39.357 54.0901C40.063 53.7601 40.629 53.19 40.953 52.49C41.083 52.21 41.164 51.85 41.206 51.28C41.25 50.71 41.25 49.9699 41.25 48.9399V39.71Z" fill="#FFCD29"/>
<path d="M6 37.7598C6.00013 28.6458 13.3927 21.2502 22.5127 21.25H23.5449C24.0596 21.25 24.3358 21.2505 24.5674 21.2607C34.0904 21.5008 41.7548 29.1612 41.9951 38.6807V38.6816L42 39.71V48.9404C42 49.9576 42.0009 50.7322 41.9541 51.3379C41.9092 51.9454 41.8169 52.4065 41.6328 52.8037L41.6338 52.8047C41.2356 53.6651 40.5409 54.3646 39.6748 54.7695L39.6699 54.7715L39.3916 54.1641L39.3682 54.1152L39.6699 54.7715C39.3704 54.909 39.0396 54.9948 38.6348 55.0469L38.2031 55.0879C37.5949 55.1301 36.8293 55.1299 35.8057 55.1299H23.3701C13.7769 55.1299 6 47.354 6 37.7598ZM7.5 37.7598C7.5 46.5255 14.6053 53.6299 23.3701 53.6299H35.8057C36.8518 53.6299 37.5549 53.6295 38.0986 53.5918L38.4443 53.5586C38.6449 53.5327 38.7887 53.4996 38.8994 53.4639L39.0439 53.4082C39.5876 53.1528 40.0234 52.7128 40.2725 52.1748V52.1738C40.3476 52.0119 40.4189 51.7547 40.458 51.2246V51.2227C40.4992 50.6885 40.5 49.9828 40.5 48.9404V39.71C40.5 39.1662 40.4998 38.9173 40.4951 38.7188C40.2751 29.9985 33.255 22.9798 24.5303 22.7598L24.5498 21.9873L24.5488 22.0098L24.5303 22.7598H24.5215L24.5137 22.7588C24.3228 22.7498 24.0896 22.75 23.5449 22.75H22.5127C14.2211 22.7502 7.50013 29.4742 7.5 37.7598Z" fill="#1A1A1A"/>
<path d="M26.2905 40.0708C26.4239 39.6787 26.8496 39.4688 27.2417 39.602C27.6337 39.7354 27.8436 40.1611 27.7104 40.5532C26.5473 43.972 21.584 44.0772 20.4878 40.5337C20.3654 40.138 20.5872 39.7176 20.9829 39.5952C21.3786 39.4728 21.7989 39.6946 21.9214 40.0903C22.5575 42.1466 25.5619 42.2117 26.2905 40.0708Z" fill="#1A1A1A"/>
<path d="M28 36.25C28.5523 36.25 29 36.6977 29 37.25C29 37.8023 28.5523 38.25 28 38.25C27.4477 38.25 27 37.8023 27 37.25C27 36.6977 27.4477 36.25 28 36.25Z" fill="#1A1A1A"/>
<path d="M20 36.25C19.4477 36.25 19 36.6977 19 37.25C19 37.8023 19.4477 38.25 20 38.25C20.5523 38.25 21 37.8023 21 37.25C21 36.6977 20.5523 36.25 20 36.25Z" fill="#1A1A1A"/>
</svg>
