<svg width="48" height="55" viewBox="0 0 48 55" fill="none" xmlns="http://www.w3.org/2000/svg">
<path d="M4.969 40.673L1.577 42.725L1 39.148L5.471 33.727H16.651L19.165 33L22.015 34.565L23.955 35.059H25.509L32.916 34.282L37.682 35.059L40.323 36.15L41.5 36.5L44 22.5L45.5 21L47 32.5L44.622 43.926V49.446L43.587 51.065L42.033 52.308L38.259 54.069H34.554L33.688 53.213L33.105 51.875L30.333 51.738L25.509 52.308L19.966 54.069L19.165 53.736L18.153 51.738L8.518 51.065L4.595 54.031L2.024 53.277L2.455 50.799L4.595 47.873L4.263 43.266L4.969 40.673Z" fill="#FFD966"/>
<path d="M19.6793 44.5117C19.9393 44.1975 20.3956 44.1609 20.6984 44.4307C21.0012 44.7004 21.0355 45.1739 20.7756 45.4881C19.9842 46.4446 19.0691 46.7239 18.2244 46.5562C17.4475 46.402 16.839 45.8924 16.5059 45.4842C16.2481 45.1681 16.286 44.6953 16.5906 44.4277C16.8953 44.1602 17.351 44.1995 17.6089 44.5156C17.8002 44.7501 18.138 45.0118 18.4954 45.0829C18.7851 45.1404 19.1934 45.0989 19.6793 44.5117Z" fill="#1A1A1A"/>
<path d="M11.6792 44.5117C11.9392 44.1975 12.3955 44.1609 12.6984 44.4307C13.0011 44.7004 13.0354 45.1739 12.7756 45.4881C11.9841 46.4446 11.0691 46.7239 10.2243 46.5562C9.4474 46.402 8.8389 45.8924 8.50588 45.4842C8.24801 45.1681 8.28591 44.6953 8.59058 44.4277C8.89525 44.1602 9.35095 44.1995 9.60882 44.5156C9.80014 44.7501 10.1379 45.0118 10.4953 45.0829C10.785 45.1404 11.1933 45.0989 11.6792 44.5117Z" fill="#1A1A1A"/>
<path d="M15.623 47.0289C14.77 46.9619 13.703 47.0219 12.863 47.1029C12.367 47.1519 12.001 47.6049 12.298 48.0049C12.755 48.6239 13.646 49.1179 14.305 49.3939C14.515 49.4829 14.754 49.4869 14.952 49.3749C15.463 49.0859 15.875 48.5829 16.168 48.1039C16.457 47.6319 16.174 47.0709 15.623 47.0289Z" fill="#FFAFA3"/>
<path d="M44.7978 20.2922C45.7995 20.1399 46.4858 20.9606 46.7138 21.9241C47.2709 24.2775 47.6516 27.3764 47.7011 30.4534C47.7504 33.519 47.4723 36.6347 46.6689 38.9924V38.9934C46.2935 40.0945 45.9137 41.3514 45.6982 42.6008C45.4813 43.8581 45.4406 45.0523 45.6962 46.0491C45.9406 47.0015 46.097 47.9993 46.0459 48.9094C45.9952 49.8095 45.734 50.7145 45.0507 51.3645C44.2855 52.1212 43.0652 52.8579 41.6611 53.4592C40.2445 54.0659 38.5848 54.5595 36.9023 54.8C35.7516 54.9645 34.5261 54.5753 33.6806 53.8489C33.4776 53.6744 33.2936 53.4754 33.1357 53.2571C33.1205 53.2555 33.1051 53.2547 33.0898 53.2522L31.9023 53.0588H31.8916L31.8251 53.0471C31.825 53.0471 31.8031 53.0436 31.747 53.0344C31.6932 53.0256 31.6166 53.013 31.5205 52.9973C31.3285 52.966 31.059 52.9219 30.7382 52.8694L28.4072 52.4836C27.279 52.2952 26.068 52.7257 24.8935 53.3977L24.3925 53.6995C23.4747 54.2793 22.3745 54.7489 21.2988 54.8606C20.2071 54.9738 19.0613 54.7172 18.2548 53.7385C17.8387 53.2335 17.5843 52.7048 17.4902 52.1682C16.8389 52.2307 16.2591 52.26 15.4482 52.26C13.4881 52.26 11.5985 52.0831 9.94038 51.6448C9.21507 52.435 8.01247 53.4321 6.7812 54.1077C6.07144 54.4971 5.29054 54.8149 4.54487 54.8918C3.82637 54.9659 3.06792 54.817 2.50191 54.2229L2.39155 54.0979C1.26156 52.727 1.59003 50.9899 2.27534 49.7122C2.62737 49.0558 3.10031 48.4588 3.61519 47.9915C3.88993 47.7421 4.19159 47.5177 4.50679 47.3411C4.25752 46.6452 4.12203 45.8687 4.12202 45.0061C4.12202 44.2546 4.12229 43.5877 4.15816 42.9143C4.11258 42.9462 4.0672 42.9783 4.02046 43.0081C3.59354 43.2797 3.07096 43.4857 2.49019 43.4612C1.89251 43.4358 1.3315 43.1697 0.83882 42.677C0.467469 42.3055 0.307619 41.8199 0.263624 41.3459C0.219734 40.873 0.284562 40.3597 0.413038 39.8489C0.670313 38.826 1.21609 37.6841 1.91401 36.637C2.61279 35.5886 3.49462 34.5903 4.45796 33.8772C5.40781 33.1741 6.53457 32.6789 7.68452 32.8372L7.91109 32.8743C8.43687 32.974 8.93938 33.1573 9.35054 33.2932C9.85569 33.4601 10.2628 33.5725 10.6562 33.5725H14.9794C15.749 33.5724 16.524 33.2661 17.3789 32.8577L17.625 32.7454C18.2162 32.4903 18.9251 32.2864 19.666 32.2864C20.0428 32.2864 20.4589 32.428 20.833 32.594C21.2297 32.7701 21.6724 33.016 22.1308 33.3079C22.6872 33.662 23.2844 34.0957 23.8759 34.5764H25.9511C26.7479 34.5746 27.7087 34.4369 28.8007 34.2786L29.6142 34.1497C29.9153 34.0995 30.2445 34.0438 30.5957 33.9846C31.2911 33.8675 32.0616 33.7409 32.8281 33.6389C33.5929 33.5371 34.3669 33.4574 35.0693 33.4358C35.7473 33.4149 36.4151 33.446 36.957 33.593H36.958C38.6342 34.0011 40.053 34.7139 41.1992 35.6995C41.2627 35.4194 41.3326 35.0872 41.4033 34.7082C41.5825 33.7466 41.7779 32.5148 41.9804 31.1379C42.386 28.3814 42.8156 25.0884 43.207 22.2717L43.2373 22.092C43.4116 21.2003 43.9483 20.4216 44.7978 20.2922ZM5.19038 48.676C5.01364 48.7802 4.82207 48.9221 4.62398 49.1018C4.23512 49.4547 3.86829 49.9165 3.59761 50.4211C3.03745 51.4655 2.98584 52.4607 3.54878 53.1438L3.61226 53.2122C3.77143 53.3617 4.00622 53.4394 4.39155 53.3997C4.85251 53.352 5.42967 53.1378 6.05952 52.7922C6.90936 52.3259 7.74085 51.6803 8.35347 51.1096C7.839 50.8924 7.35768 50.6428 6.9189 50.3508C6.22567 49.8894 5.64289 49.3315 5.19038 48.676ZM5.62202 45.0061C5.62205 46.9231 6.41686 48.2145 7.74995 49.1018C9.50036 50.2664 12.2294 50.76 15.4482 50.76C16.3354 50.76 16.9141 50.7227 17.6669 50.6409C17.7487 50.4474 17.849 50.2643 17.9648 50.094C18.6089 49.1471 19.7386 48.5087 20.7587 48.2688C21.1618 48.1743 21.5653 48.4243 21.6601 48.8274C21.7549 49.2306 21.5047 49.634 21.1015 49.7288C20.3567 49.9039 19.5909 50.3704 19.205 50.9377C19.021 51.2084 18.936 51.4813 18.9482 51.7541C18.9588 51.9915 19.0461 52.2862 19.2959 52.6331L19.413 52.7854L19.4882 52.8713C19.878 53.2839 20.4312 53.4422 21.1435 53.3684C21.9191 53.288 22.7988 52.9319 23.5917 52.4309L24.1289 52.1067C25.4259 51.361 27.0176 50.7308 28.6542 51.0041H28.6552C30.1348 51.2522 31.6575 51.5001 32.0156 51.5588H32.0234L32.0839 51.5686L32.583 51.6497C32.5775 51.3143 32.6334 50.9617 32.7685 50.5989C33.0761 49.773 33.8048 49.2247 34.5839 49.0295L34.8115 48.9788C35.3375 48.8748 35.8314 48.8668 36.2617 48.842C36.5269 48.8268 36.7976 48.8038 37.0918 48.7561C36.6192 48.4182 36.0831 47.9862 35.624 47.4631C34.8194 46.5465 34.1666 45.2574 34.5859 43.6809C34.6925 43.2808 35.1036 43.0432 35.5039 43.1497C35.904 43.2562 36.1424 43.6665 36.0361 44.0666C35.7934 44.979 36.1304 45.7659 36.7509 46.4729C37.3824 47.1922 38.2235 47.7268 38.7714 48.0725H38.7705C38.9113 48.1612 39.0827 48.2973 39.1972 48.5032C39.3287 48.7395 39.361 49.0294 39.248 49.3049C39.1498 49.5442 38.9744 49.6944 38.8447 49.7805C38.7077 49.8715 38.5573 49.9341 38.4169 49.9788H38.416C37.579 50.2435 36.9161 50.3074 36.3486 50.3401C35.8398 50.3694 35.4826 50.3745 35.1093 50.4485L34.9482 50.4846C34.5697 50.5794 34.2824 50.8306 34.1738 51.1223C33.9505 51.7221 34.148 52.2728 34.6582 52.7112C35.1905 53.1686 35.9862 53.416 36.6894 53.3157C38.2318 53.0952 39.7649 52.6394 41.0703 52.0803C42.3881 51.5159 43.4193 50.8704 43.997 50.2991L44.0039 50.2913L44.0107 50.2854C44.3157 49.9993 44.5093 49.5262 44.5488 48.8254C44.588 48.1286 44.4677 47.2964 44.2431 46.4211C43.9128 45.1331 43.9869 43.7012 44.2207 42.3459C44.4558 40.9828 44.8634 39.6398 45.249 38.509L45.3798 38.1028C46.0055 36.0245 46.2463 33.2851 46.2011 30.4778C46.1531 27.4942 45.7828 24.5043 45.2539 22.2698C45.1838 21.9735 45.0821 21.8419 45.0322 21.7961C45.024 21.7886 45.0174 21.7839 45.0126 21.7805C44.9937 21.7903 44.9559 21.816 44.9072 21.8801C44.8277 21.9846 44.7355 22.1759 44.6933 22.4788C44.3047 25.275 43.8712 28.5941 43.4648 31.3567C43.2614 32.7392 43.0624 33.9936 42.8779 34.9836C42.7857 35.4781 42.6964 35.9141 42.6093 36.2707C42.5257 36.6131 42.4332 36.9297 42.3281 37.1565L42.3271 37.1584C42.2436 37.337 42.0768 37.5535 41.7841 37.6448C41.5134 37.7291 41.2799 37.6592 41.1543 37.6057C40.9236 37.5075 40.7432 37.328 40.6689 37.2532L40.6669 37.2512C39.6556 36.2245 38.3118 35.4669 36.6035 35.051L36.5908 35.0481L36.5781 35.0442C36.2546 34.9535 35.7589 34.915 35.1152 34.9348C34.4847 34.9543 33.767 35.0277 33.0263 35.1262C32.287 35.2246 31.5373 35.3465 30.8447 35.4631C30.502 35.5209 30.1701 35.5777 29.8613 35.6291L29.0156 35.7629C27.9557 35.9166 26.8802 36.0742 25.955 36.0764H25.5283C26.2486 36.8099 26.8962 37.5966 27.3339 38.3665C27.8483 39.2711 28.2113 40.4018 27.6494 41.3752C27.2627 42.0445 26.5875 42.5328 25.8525 42.8362C25.1082 43.1433 24.2372 43.2894 23.372 43.2219C21.6109 43.0846 19.8213 42.0429 19.2695 39.6702C19.1757 39.2668 19.4267 38.8637 19.83 38.7698C20.2335 38.676 20.6366 38.9269 20.7304 39.3303C21.1087 40.9572 22.261 41.631 23.4882 41.7268C24.1173 41.7758 24.7527 41.6672 25.2802 41.4495C25.8166 41.2281 26.1792 40.9217 26.3505 40.6252L26.3945 40.5256C26.48 40.268 26.4354 39.8203 26.0302 39.1077C25.5934 38.3393 24.8519 37.4779 23.9814 36.6584C23.1168 35.8446 22.1598 35.1048 21.3251 34.5735C20.9076 34.3077 20.5327 34.1018 20.2246 33.9651C19.8934 33.8181 19.7159 33.7864 19.666 33.7864C19.1209 33.7864 18.5439 33.9627 18.0273 34.2102L18.0263 34.2112C17.1618 34.6243 16.1173 35.0724 14.9794 35.0725H10.6562C9.99864 35.0725 9.38843 34.8851 8.87984 34.717C8.33622 34.5374 7.91438 34.3826 7.47944 34.3225V34.3235C6.88598 34.2419 6.15404 34.4868 5.34956 35.0823C4.55869 35.6677 3.79063 36.526 3.16206 37.469C2.53253 38.4135 2.07338 39.399 1.86812 40.2151C1.7654 40.6235 1.73362 40.9576 1.75679 41.2073C1.77985 41.4558 1.85061 41.5676 1.89937 41.6165L1.99898 41.7092C2.22497 41.9039 2.4106 41.956 2.55366 41.9622C2.73423 41.9698 2.95463 41.9079 3.2148 41.7424C3.75348 41.3997 4.25621 40.7445 4.55171 40.2112H4.55269C4.64759 40.0403 4.81041 39.9029 5.01753 39.8479C5.21631 39.7952 5.39709 39.8324 5.52632 39.8918C5.74564 39.9928 6.02096 40.2795 5.95698 40.6868C5.95479 40.7024 5.95316 40.7136 5.95308 40.7141L5.93355 40.8215C5.92454 40.8686 5.91272 40.9262 5.90132 40.9846C5.62578 42.426 5.62202 43.4822 5.62202 45.0061Z" fill="#1A1A1A"/>
</svg>
