<svg width="48" height="55" viewBox="0 0 48 55" fill="none" xmlns="http://www.w3.org/2000/svg">
<path d="M4.595 47.8729L4.313 43.9619H1.62L1 39.1479L5.47099 33.7269H16.651L21.467 32.9189L22.582 34.2819L23.955 35.059H25.509L32.916 34.2819L37.682 35.059L40.942 36.7449L42.856 37.293L44.981 34.5649L46.437 36.895L44.622 43.926V49.4459L43.587 51.0649L42.033 52.3079L38.259 54.0689H34.554L33.688 53.213L33.105 51.8749L30.333 51.7379L25.509 52.3079L19.966 54.0689L19.165 53.6599L17.799 51.7219L8.51801 51.0649L4.595 54.0309L2.024 53.2769L2.455 50.799L4.595 47.8729Z" fill="#0D99FF"/>
<path d="M22.2178 50.8797C23.2738 50.3787 24.5254 51.5998 24.1524 52.7078C24.0684 52.9577 23.9081 53.2064 23.6582 53.4822C23.2562 53.9272 22.7485 54.1937 22.2705 54.2547C21.5188 54.3523 20.8834 53.6404 20.8633 52.8826C20.8513 52.4117 21.0207 51.9264 21.4336 51.4705C21.6676 51.2106 21.9389 51.0127 22.2178 50.8797ZM41.418 47.5203C41.889 47.0004 42.6031 46.8156 43.292 46.9656C44.089 47.1396 44.6306 47.8649 44.9366 48.6209C45.2415 49.3748 45.1898 49.8957 44.6739 50.4656C44.1039 51.0955 43.178 51.2335 42.3721 50.8826C41.8961 50.6746 41.5397 50.2616 41.3037 49.7996C40.8857 48.9786 40.841 48.1583 41.418 47.5203ZM32.5 41.9998C34.0329 41.9998 35.3346 42.8434 35.8086 44.0193C36.0576 44.6382 35.949 45.3412 35.6651 45.9451C35.0921 47.1651 34.057 47.9998 32.5 47.9998C31.1951 47.9998 30.0561 47.3873 29.4551 46.4793C28.8821 45.6143 29.1489 44.4759 29.6709 43.5799C30.3189 42.4681 31.0702 41.9998 32.5 41.9998ZM3.00003 38.9998C3.80494 38.9998 4.49942 39.475 4.81644 40.1609C5.05844 40.6829 4.97362 41.2992 4.72562 41.8172C4.38563 42.5272 3.81899 42.9998 3.00003 42.9998C2.3722 42.9998 1.81137 42.7094 1.44437 42.2566C0.878424 41.5577 1.06597 40.5176 1.54886 39.7586C1.88586 39.2286 2.30103 38.9998 3.00003 38.9998ZM16.5 36.9998C17.5829 36.9998 18.5045 37.6883 18.8526 38.6512C19.0465 39.192 18.965 39.7931 18.7461 40.325C18.3331 41.321 17.598 41.9998 16.5 41.9998C15.5932 41.9998 14.7984 41.5165 14.3604 40.7937C13.8944 40.0237 14.1006 39.041 14.5166 38.243C14.9716 37.3691 15.5061 36.9998 16.5 36.9998ZM39 34.9998C40.234 34.9998 41.2929 35.6196 41.7539 36.5066C42.0698 37.1156 41.954 37.8578 41.625 38.4588C41.119 39.3816 40.2579 39.9998 39 39.9998C38.0022 39.9998 37.1183 39.5934 36.5733 38.9685C35.8733 38.1675 36.1274 36.9402 36.7364 36.0682C37.2583 35.3194 37.8902 34.9998 39 34.9998ZM26.9522 34.9998C27.877 34.9999 28.6843 35.4 29.1162 35.9969C29.5352 36.5749 29.4158 37.3875 29.0098 37.9725C28.5768 38.5953 27.9 38.9997 26.9522 38.9998C26.2723 38.9998 25.6551 38.7824 25.2041 38.4295C24.3351 37.7495 24.5277 36.3531 25.3047 35.5691C25.6977 35.1731 26.1902 34.9998 26.9522 34.9998ZM10.0723 33.8416C10.6451 33.8797 11.1537 34.2258 11.5176 34.6707C12.0826 35.3627 12.2919 36.1689 11.8809 36.9939C11.5549 37.6476 10.9461 38.0655 10.2764 38.1746C9.38841 38.3196 8.56923 37.6893 8.07523 36.9373C7.65928 36.3064 7.61282 35.7695 7.97366 35.0467C8.37766 34.2347 9.2203 33.7856 10.0723 33.8416Z" fill="#007BE5"/>
<path d="M19.6795 44.5117C19.9395 44.1975 20.3958 44.1609 20.6987 44.4307C21.0014 44.7004 21.0357 45.1739 20.7759 45.4881C19.9844 46.4446 19.0694 46.7239 18.2246 46.5562C17.4477 46.402 16.8392 45.8924 16.5062 45.4842C16.2483 45.1681 16.2862 44.6953 16.5909 44.4277C16.8956 44.1602 17.3513 44.1995 17.6091 44.5156C17.8004 44.7501 18.1382 45.0118 18.4956 45.0829C18.7853 45.1404 19.1936 45.0989 19.6795 44.5117Z" fill="#1A1A1A"/>
<path d="M11.6794 44.5117C11.9395 44.1975 12.3958 44.1609 12.6986 44.4307C13.0014 44.7004 13.0357 45.1739 12.7758 45.4881C11.9844 46.4446 11.0693 46.7239 10.2245 46.5562C9.44764 46.402 8.83915 45.8924 8.50612 45.4842C8.24826 45.1681 8.28615 44.6953 8.59082 44.4277C8.8955 44.1602 9.35119 44.1995 9.60907 44.5156C9.80038 44.7501 10.1382 45.0118 10.4956 45.0829C10.7852 45.1404 11.1936 45.0989 11.6794 44.5117Z" fill="#1A1A1A"/>
<path d="M15.623 47.0289C14.77 46.9619 13.703 47.0219 12.863 47.1029C12.367 47.1519 12.001 47.6049 12.298 48.0049C12.755 48.6239 13.646 49.1179 14.305 49.3939C14.515 49.4829 14.754 49.4869 14.952 49.3749C15.463 49.0859 15.875 48.5829 16.168 48.1039C16.457 47.6319 16.174 47.0709 15.623 47.0289Z" fill="#0768CF"/>
<path d="M20.9313 32.2998C21.3967 32.2999 21.8318 32.5521 22.1618 32.7939C22.5226 33.0584 22.9027 33.4201 23.279 33.835C23.4849 34.0619 23.6935 34.3113 23.904 34.5762H25.9509C26.7477 34.5743 27.7081 34.4367 28.8005 34.2793L29.614 34.1504C29.9151 34.1001 30.2442 34.0436 30.5954 33.9844C31.2909 33.8671 32.0614 33.7407 32.8278 33.6387C33.5926 33.5368 34.3667 33.4572 35.069 33.4355C35.7473 33.4146 36.4157 33.4456 36.9577 33.5928C38.9043 34.0666 40.5047 34.9502 41.7331 36.1963L41.8806 36.3564C41.9252 36.4083 41.9655 36.4575 42.0007 36.501L42.1852 36.7236L42.2526 36.792C42.3149 36.8479 42.3598 36.8692 42.3786 36.875H42.3796C42.3842 36.8734 42.3933 36.8703 42.4069 36.8623C42.4692 36.8256 42.6141 36.705 42.8005 36.3682C42.9838 36.0368 43.1825 35.5404 43.3766 34.8203C43.5561 34.1545 44.0695 33.6781 44.6677 33.5332C45.294 33.3815 45.9966 33.6061 46.3884 34.2725V34.2734C47.2372 35.719 47.9085 37.6756 47.2419 39.5312C47.037 40.1018 46.7945 40.6904 46.569 41.2568C46.3401 41.832 46.1242 42.3956 45.9509 42.9541C45.6019 44.0783 45.4547 45.1042 45.697 46.0488H45.696C45.9403 47.0013 46.0978 47.999 46.0466 48.9092C45.9959 49.8093 45.7338 50.7142 45.0505 51.3643C44.2853 52.1209 43.065 52.8585 41.6608 53.46C40.4212 53.9909 38.9953 54.4347 37.5309 54.6982L36.902 54.7998C35.7515 54.9643 34.5268 54.575 33.6813 53.8486C33.4782 53.6741 33.2934 53.4753 33.1354 53.2568C33.1202 53.2553 33.1048 53.2544 33.0895 53.252L31.902 53.0586H31.9001L31.8415 53.0498C31.795 53.0424 30.0901 52.7656 28.4069 52.4844C27.1178 52.2682 25.7199 52.8609 24.3923 53.6992C23.4747 54.2792 22.3743 54.7488 21.2985 54.8604C20.207 54.9735 19.062 54.7176 18.2556 53.7393C17.8395 53.2344 17.5852 52.7054 17.4909 52.1689C16.8393 52.2315 16.2592 52.2598 15.4479 52.2598C13.4877 52.2598 11.5983 52.0829 9.94012 51.6445C9.2148 52.4348 8.01217 53.4318 6.78094 54.1074C6.07133 54.4968 5.2911 54.8146 4.54559 54.8916C3.77901 54.9707 2.96669 54.796 2.3913 54.0977C1.26137 52.7267 1.59075 50.9897 2.27606 49.7119C2.62805 49.0557 3.10018 48.4584 3.61493 47.9912C3.88963 47.7419 4.19138 47.5174 4.50653 47.3408C4.27499 46.6943 4.14403 45.9781 4.12665 45.1875C3.76258 45.3455 3.36373 45.4042 2.98895 45.3809C2.1491 45.3286 1.24649 44.8688 0.804382 43.9941C0.444278 43.2825 0.154008 42.3888 0.153992 41.6719C0.153992 39.7612 1.10886 37.3311 2.45184 35.5059C3.12943 34.585 3.9405 33.7696 4.83661 33.2432C5.73893 32.7132 6.77535 32.4527 7.83368 32.751C8.36706 32.9012 8.94696 33.144 9.3786 33.2969C9.85385 33.4652 10.2604 33.5723 10.6559 33.5723H14.9792C15.7928 33.5722 16.6446 33.312 17.5524 33C18.5727 32.6493 19.9687 32.2998 20.9313 32.2998ZM5.1911 48.6768C5.01429 48.781 4.82191 48.9217 4.62372 49.1016C4.23485 49.4545 3.86804 49.9162 3.59735 50.4209C3.03724 51.4652 2.98571 52.4605 3.54852 53.1436C3.70762 53.3367 3.95122 53.4448 4.3913 53.3994C4.85225 53.3518 5.42937 53.1376 6.05927 52.792C6.90908 52.3257 7.74157 51.681 8.35419 51.1104C7.83929 50.893 7.35774 50.6428 6.91864 50.3506C6.2257 49.8894 5.64355 49.3318 5.1911 48.6768ZM5.98798 40.4678C5.98851 40.4649 5.98974 40.463 5.98993 40.4619V40.458C5.98951 40.4608 5.9885 40.4643 5.98798 40.4678ZM1.65399 41.6719C1.65401 42.0608 1.83748 42.7132 2.14325 43.3174L2.21259 43.4316C2.39607 43.6869 2.72426 43.8614 3.08173 43.8838C3.48152 43.9087 3.73254 43.7445 3.83075 43.5049C4.00282 43.0846 4.12639 42.5796 4.22235 42.0859C4.27497 41.5734 4.35422 41.0371 4.47723 40.4404C4.48474 40.3883 4.49714 40.3045 4.5036 40.2607C4.50603 40.2443 4.50787 40.227 4.50946 40.2168C4.5096 40.2159 4.51169 40.2076 4.51337 40.1982C4.51382 40.1957 4.5145 40.1885 4.5163 40.1797C4.51715 40.1755 4.51947 40.1665 4.52216 40.1553C4.52252 40.1537 4.53132 40.1147 4.54852 40.0684C4.56284 40.0327 4.62982 39.9102 4.69208 39.8301C5.01418 39.6183 5.72244 39.7464 5.93915 40.0312C5.97076 40.1187 5.99646 40.245 5.99969 40.2812C6.00066 40.2999 6.00174 40.3299 6.00165 40.3418C6.0013 40.3622 6.00007 40.3786 5.99969 40.3838C5.99917 40.391 5.99806 40.3971 5.99774 40.4004C5.9967 40.4114 5.99593 40.4207 5.99579 40.4219C5.99545 40.4246 5.99503 40.427 5.99481 40.4287C5.99433 40.4324 5.99332 40.437 5.99286 40.4404C5.98938 40.466 5.98057 40.5318 5.96259 40.6582V40.6592C5.91575 40.9877 5.83989 41.6188 5.70575 42.3154C5.62246 43.1733 5.62177 43.9847 5.62177 45.0059C5.62178 46.9238 6.41652 48.2142 7.74969 49.1016C9.50008 50.2663 12.2291 50.7598 15.4479 50.7598C16.3351 50.7598 16.9139 50.7224 17.6667 50.6406C17.7484 50.4471 17.8496 50.2641 17.9655 50.0938C18.6098 49.1471 19.7388 48.5089 20.7595 48.2695C21.1627 48.175 21.5663 48.4258 21.6608 48.8291C21.7551 49.2323 21.5054 49.636 21.1022 49.7305C20.3572 49.9051 19.5918 50.3705 19.2057 50.9375C19.0216 51.2081 18.9358 51.4811 18.9479 51.7539C18.9601 52.0251 19.0722 52.3719 19.4128 52.7852L19.489 52.8711C19.8787 53.2834 20.4319 53.442 21.1442 53.3682C21.9199 53.2877 22.7992 52.9315 23.5915 52.4307L24.1286 52.1064C25.4258 51.3607 27.018 50.7304 28.655 51.0049L30.9802 51.3896C31.3003 51.4421 31.5696 51.4854 31.7614 51.5166C31.8572 51.5322 31.9341 51.545 31.988 51.5537C31.9986 51.5554 32.0085 51.5572 32.0173 51.5586H32.0241L32.0837 51.5684L32.5827 51.6494C32.5773 51.3142 32.6333 50.9623 32.7682 50.5996C33.0757 49.7734 33.8043 49.2245 34.5837 49.0293L34.8112 48.9785C35.3375 48.8745 35.832 48.8666 36.2624 48.8418C36.5271 48.8266 36.797 48.8044 37.0905 48.7568C36.6181 48.4189 36.0828 47.9858 35.6237 47.4629C34.8191 46.5463 34.1673 45.2572 34.5866 43.6807C34.6933 43.2807 35.1035 43.043 35.5036 43.1494C35.9038 43.2559 36.1422 43.6662 36.0358 44.0664C35.7931 44.9789 36.13 45.7665 36.7507 46.4736C37.3821 47.1929 38.2232 47.7266 38.7712 48.0723L38.7722 48.0732C38.9125 48.1621 39.0828 48.2985 39.197 48.5039C39.3282 48.7399 39.3611 49.0298 39.2477 49.3057C39.1494 49.5448 38.9739 49.6944 38.8444 49.7803C38.7075 49.871 38.5568 49.934 38.4167 49.9785H38.4157C37.5787 50.2432 36.9159 50.3072 36.3483 50.3398C35.8394 50.3691 35.4824 50.3742 35.1091 50.4482L34.9479 50.4844C34.5695 50.5792 34.2821 50.8304 34.1735 51.1221C33.9502 51.7219 34.1486 52.2725 34.6589 52.7109C35.1914 53.1684 35.9869 53.4159 36.6901 53.3154C38.2322 53.0955 39.7648 52.6401 41.07 52.0811C42.3877 51.5166 43.4189 50.8701 43.9968 50.2988L44.0104 50.2852C44.3154 49.9991 44.5091 49.526 44.5485 48.8252C44.5878 48.1283 44.4684 47.2962 44.2438 46.4209C43.9001 45.0806 44.137 43.737 44.5182 42.5088C44.71 41.8912 44.9446 41.2823 45.1755 40.7021C45.4099 40.1132 45.6362 39.5633 45.8298 39.0244C46.2711 37.7961 45.8625 36.3386 45.0954 35.0322V35.0332C45.0811 35.0088 45.0697 34.9972 45.0651 34.9932C45.0627 34.991 45.0609 34.9897 45.0602 34.9893H45.0593C45.0592 34.9892 45.0569 34.9876 45.0515 34.9873C45.0456 34.987 45.0353 34.9878 45.0212 34.9912C44.9746 35.0025 44.9087 35.0414 44.863 35.1191L44.8249 35.2109C44.6116 36.0018 44.3743 36.6224 44.113 37.0947C43.8547 37.5615 43.5463 37.9316 43.1686 38.1543C42.765 38.3923 42.3324 38.4308 41.9362 38.3086C41.5677 38.1949 41.2791 37.9585 41.071 37.7275C40.9802 37.6268 40.8943 37.5194 40.8337 37.4443C40.7662 37.3608 40.7169 37.3015 40.6686 37.2529L40.6667 37.251C39.6553 36.2243 38.3115 35.4666 36.6032 35.0508L36.5905 35.0479L36.5788 35.0439C36.2554 34.9532 35.7597 34.9147 35.1159 34.9346C34.4853 34.954 33.767 35.0273 33.0261 35.126C32.2869 35.2244 31.5379 35.3471 30.8454 35.4639C30.5025 35.5217 30.1701 35.5783 29.861 35.6299L29.0153 35.7637C27.956 35.9163 26.8798 36.074 25.9548 36.0762H24.987C25.1783 36.3667 25.3654 36.6651 25.5456 36.9678C26.2482 38.1477 26.8671 39.4252 27.2233 40.5811C27.4014 41.1588 27.5221 41.7307 27.5446 42.2588C27.5668 42.7805 27.4954 43.3211 27.2292 43.7822L27.2282 43.7812C26.4811 45.0759 24.6741 45.7235 23.1882 45.1416C22.409 44.8364 21.753 44.2083 21.3786 43.249C21.011 42.307 20.9248 41.0761 21.1882 39.5361C21.2582 39.128 21.6452 38.854 22.0534 38.9238C22.4616 38.9937 22.7363 39.3809 22.6667 39.7891C22.4321 41.1604 22.5389 42.0952 22.7761 42.7031C23.0064 43.2934 23.3661 43.6006 23.735 43.7451C24.5457 44.0626 25.5623 43.6702 25.9304 43.0322L25.9811 42.9199C26.0271 42.7885 26.0572 42.5952 26.0456 42.3223C26.0303 41.9644 25.9446 41.5261 25.7897 41.0234C25.4799 40.0183 24.9226 38.8523 24.2575 37.7354C23.5935 36.6202 22.8424 35.5867 22.1677 34.8428C21.8291 34.4695 21.5249 34.1871 21.2751 34.0039C20.9947 33.7984 20.8922 33.7998 20.9313 33.7998C20.222 33.7998 19.0154 34.0826 18.0397 34.418C17.1437 34.7259 16.0735 35.0722 14.9792 35.0723H10.6559C10.0005 35.0723 9.3996 34.8958 8.87762 34.7109C8.31233 34.5107 7.90475 34.329 7.42645 34.1943C6.87033 34.0377 6.25782 34.1486 5.59637 34.5371C4.92895 34.9292 4.25992 35.58 3.65985 36.3955C2.44721 38.0437 1.65399 40.1686 1.65399 41.6719Z" fill="#1A1A1A"/>
</svg>
