<svg width="48" height="55" viewBox="0 0 48 55" fill="none" xmlns="http://www.w3.org/2000/svg">
<path d="M4.392 40.5458L4.8946 36.7678L7.4449 28.3398L9.4448 27.3398L11.4449 29.3398V34.1538L16.0739 33.5988L17.9449 29.3398L19.9449 28.3398L21.9449 31.8398L23.3778 34.9308H24.9318L32.3392 34.1538L37.1048 34.9308L41.008 37.7548L44.3201 35.4598L45.8599 36.7678L44.0451 43.7978V49.3188L43.0101 50.9378L41.456 52.1808L37.6822 53.9418H33.9774L32.5283 53.4408V51.7478L29.7567 51.6108L24.9318 52.1808L19.3891 53.9418L17.4449 53.3398L16.9449 51.7478L16.0739 51.6108L7.9413 50.9378L4.0186 53.9038L1.4467 53.1498L1 49.8498L4.0186 47.7458L3.6862 43.1388L4.392 40.5458Z" fill="#F79722"/>
<path d="M14.4996 34.3403C14.4997 37.8406 15.4998 46.8403 18.9996 49.3403L18.2086 50.394C19.3184 50.577 20.6495 51.2953 20.9996 53.4243H18.9996L17.4996 52.9243L17.1881 51.3403H13.9996L8.99963 50.8403L6.99963 49.8403C9.3329 48.6743 12.9995 43.1401 12.9996 34.3403H14.4996ZM28.6373 48.4106C29.9394 48.2477 32.8236 48.293 33.8239 49.354C33.8841 49.4177 33.9284 49.4886 33.9606 49.564C34.7862 50.0279 35.645 51.2396 35.9996 53.396H34.4996L32.4352 52.1245C32.1649 52.2052 31.875 52.2307 31.5817 52.189L29.859 51.9429C29.7154 51.9219 29.5818 51.8563 29.4791 51.7534C29.275 51.5494 28.9629 51.4984 28.7047 51.6274L28.2692 51.8452C28.1815 51.8891 28.089 51.9228 27.9938 51.9468L27.7545 52.0073C27.0222 52.1903 26.1149 51.5082 26.027 50.7583C25.9068 49.7303 26.0822 48.7296 28.6373 48.4106ZM0.999634 50.3804C1.99963 50.2144 4.19963 50.4804 4.99963 52.8804L2.49963 53.3804L0.999634 52.8804V50.3804ZM45.068 36.2603L45.858 38.3511C45.0136 38.9121 43.2176 39.5876 41.9811 36.9478L43.401 35.8374L45.068 36.2603Z" fill="white"/>
<path d="M20.2503 29.3399C20.7013 29.34 21.1046 29.6201 21.263 30.043L22.3724 33.001C22.4566 33.225 22.5003 33.4632 22.5003 33.7032V35.6456C22.5003 36.6234 21.7795 37.507 20.8128 37.3624C19.7667 37.2064 18.968 36.7474 18.4622 36.3184C18.1324 36.0384 17.9939 35.6058 18.0316 35.1749C18.176 33.5239 18.7899 31.399 19.2493 30.046C19.3945 29.619 19.7992 29.3399 20.2503 29.3399ZM8.22492 27.7979C8.36452 27.5659 8.68634 27.5258 8.87824 27.7178C8.95631 27.7958 8.99971 27.9019 8.99933 28.0128C8.99333 29.9178 8.8882 33.7889 8.50031 35.3399C8.20153 36.0869 7.23332 37.2626 5.59601 36.6339C5.22031 36.4899 5.03716 36.0807 5.09406 35.6827L5.47687 33.001C5.49207 32.895 5.52447 32.7904 5.57257 32.6944L7.00031 29.8399L8.22492 27.7979Z" fill="#EBB49D"/>
<path d="M18.6792 44.8516C18.9392 44.5374 19.3955 44.5008 19.6984 44.7705C20.0011 45.0403 20.0354 45.5137 19.7755 45.8279C18.9841 46.7844 18.069 47.0637 17.2243 46.8961C16.4474 46.7419 15.8389 46.2323 15.5058 45.824C15.248 45.5079 15.2859 45.0351 15.5905 44.7676C15.8952 44.5001 16.3509 44.5394 16.6088 44.8555C16.8001 45.09 17.1379 45.3516 17.4953 45.4227C17.785 45.4802 18.1933 45.4387 18.6792 44.8516Z" fill="#1A1A1A"/>
<path d="M8.60593 44.8516C8.34592 44.5374 7.88959 44.5008 7.58674 44.7705C7.28399 45.0403 7.24969 45.5137 7.50957 45.8279C8.30101 46.7844 9.21605 47.0637 10.0608 46.8961C10.8377 46.7419 11.4462 46.2323 11.7792 45.824C12.0371 45.5079 11.9992 45.0351 11.6946 44.7676C11.3899 44.5001 10.9342 44.5394 10.6763 44.8555C10.485 45.09 10.1472 45.3516 9.78981 45.4227C9.50013 45.4802 9.09178 45.4387 8.60593 44.8516Z" fill="#1A1A1A"/>
<path d="M14.8185 46.4039C13.9221 46.2739 12.7271 46.3639 11.8142 46.4889C11.3393 46.5529 10.9839 46.98 11.1606 47.426C11.5343 48.367 12.4852 49.1319 13.2092 49.5659C13.4707 49.7219 13.8009 49.7269 14.0329 49.5289C14.6241 49.0249 15.0749 48.1369 15.3541 47.4019C15.5236 46.9549 15.2908 46.4729 14.8185 46.4039Z" fill="#1A1A1A"/>
<path d="M9.13874 26.275C10.0273 26.2664 10.8819 26.7845 11.211 27.7965C11.6977 29.2933 11.87 31.0367 11.5147 32.9928C11.4944 33.1049 11.5258 33.2168 11.5889 33.2984C11.6493 33.3764 11.7249 33.4117 11.8048 33.4117H14.3819C14.4804 33.4116 14.5785 33.3506 14.6221 33.2467C15.5595 31.013 16.4036 29.4819 17.2335 28.3453H17.2344C18.1286 27.1216 19.9476 27.0486 20.8477 28.318L20.9317 28.4459L21.1817 28.8736C22.0233 30.3987 22.5566 32.2802 22.8038 34.4156H24.5509C25.3476 34.4137 26.3076 34.2771 27.3995 34.1197C27.8781 34.0507 28.493 33.9432 29.1954 33.8248C29.8908 33.7076 30.6615 33.5812 31.4278 33.4791C32.1925 33.3772 32.9667 33.2977 33.669 33.276C34.3474 33.255 35.0156 33.2859 35.5577 33.4332C37.5045 33.9082 39.1046 34.7909 40.3341 36.0377C40.44 36.145 40.5307 36.2564 40.6007 36.3434C40.6771 36.4383 40.728 36.5027 40.7833 36.5641C40.8873 36.6792 40.9539 36.7076 40.9757 36.7145C41.007 36.704 41.1276 36.6453 41.3116 36.3561C41.8464 35.5162 42.7008 34.8673 43.5802 34.6998C44.0317 34.6138 44.5312 34.6501 44.9766 34.9137C45.4288 35.1814 45.73 35.6267 45.8819 36.1744L45.9757 36.5572C46.1706 37.4602 46.1801 38.4298 45.8419 39.3717C45.6369 39.9424 45.3944 40.5309 45.169 41.0973C44.9401 41.6725 44.7232 42.2361 44.5499 42.7945C44.2011 43.9184 44.0539 44.9438 44.296 45.8883C44.5404 46.8411 44.6969 47.8402 44.6456 48.7506C44.5947 49.6505 44.3334 50.5552 43.6505 51.2047C42.885 51.9612 41.6649 52.6988 40.2608 53.3004C38.8443 53.9073 37.1844 54.4007 35.502 54.6412H35.501C34.3507 54.805 33.1259 54.4153 32.2803 53.6891C32.0773 53.5146 31.8934 53.3156 31.7354 53.0973C31.7202 53.0958 31.7048 53.0949 31.6895 53.0924L30.4425 52.8902L30.3428 52.8746L30.338 52.8717C29.9409 52.8075 28.466 52.5695 27.0059 52.3248C25.717 52.1086 24.32 52.7005 22.9923 53.5397C22.0744 54.1197 20.9735 54.5902 19.8975 54.7018C18.806 54.8149 17.6612 54.5582 16.8546 53.5797C16.4384 53.0746 16.1842 52.546 16.0899 52.0094C15.4386 52.0719 14.8588 52.1012 14.0479 52.1012C12.0872 52.1012 10.1973 51.9238 8.53913 51.485C7.81391 52.2751 6.61187 53.2722 5.38093 53.9479C4.67124 54.3374 3.89019 54.6549 3.1446 54.732C2.37821 54.8113 1.56576 54.6371 0.990307 53.9391C-0.13964 52.5683 0.189868 50.8312 0.875073 49.5533C1.22712 48.8968 1.69988 48.299 2.21492 47.8316C2.48974 47.5823 2.79117 47.3578 3.10652 47.1813C2.85738 46.4856 2.72179 45.7095 2.72175 44.8473C2.72175 43.2393 2.71925 42.0171 3.07331 40.2926C3.22996 39.1115 3.70232 36.2408 4.37996 33.9488L4.38093 33.9459C5.11398 31.5112 5.85176 29.7629 6.96199 27.6539C7.42281 26.7787 8.27823 26.2834 9.13874 26.275ZM3.79011 48.5172C3.61316 48.6214 3.42111 48.763 3.22273 48.943C2.83385 49.2958 2.46703 49.7576 2.19636 50.2623C1.63649 51.3067 1.58547 52.302 2.14851 52.985C2.3075 53.1777 2.55046 53.2853 2.99031 53.2399C3.4513 53.1922 4.02935 52.9782 4.65925 52.6324C5.50877 52.1661 6.33977 51.5204 6.95222 50.9498C6.43777 50.7325 5.95641 50.482 5.51765 50.19C4.82474 49.7292 4.24251 49.1723 3.79011 48.5172ZM30.2491 52.8316C30.2505 52.8323 30.2529 52.8332 30.2559 52.8346L30.252 52.8326L30.2471 52.8307L30.2491 52.8316ZM21.4659 37.3404C21.4659 33.9129 20.8331 31.1369 19.6563 29.234V29.235C19.393 28.8093 18.7889 28.76 18.4454 29.2301C17.7069 30.2414 16.9147 31.6587 16.005 33.8268C15.733 34.4747 15.0986 34.9116 14.3819 34.9117H11.8048C10.6109 34.9117 9.84679 33.7852 10.0391 32.7252C10.3497 31.0156 10.1949 29.5233 9.78425 28.2604C9.66847 27.9043 9.42234 27.7724 9.15339 27.775C8.85645 27.7779 8.49862 27.9546 8.28913 28.3522C7.22099 30.3812 6.52119 32.0412 5.81746 34.3785C5.16672 36.581 4.70573 39.3893 4.55769 40.5162L4.55378 40.5436L4.54792 40.5709C4.22253 42.1448 4.22175 43.2353 4.22175 44.8473C4.22185 46.7641 5.01625 48.0548 6.34871 48.941V48.942C8.09931 50.1069 10.8289 50.6012 14.0479 50.6012C14.9342 50.6012 15.5128 50.5637 16.2647 50.482C16.3466 50.288 16.4484 50.1049 16.5645 49.9342C17.2088 48.9873 18.3379 48.3493 19.3585 48.11C19.7617 48.0154 20.1652 48.2654 20.2598 48.6686C20.3544 49.0717 20.1043 49.4752 19.7012 49.5699C18.9564 49.7446 18.1907 50.2108 17.8048 50.7779C17.6207 51.0485 17.5348 51.3214 17.5469 51.5943C17.5591 51.8657 17.6713 52.2122 18.0118 52.6256C18.4045 53.102 18.9834 53.2884 19.7432 53.2096C20.5188 53.1291 21.3979 52.773 22.1905 52.2721C23.5713 51.3994 25.383 50.5315 27.254 50.8453C28.0938 50.9861 28.9386 51.1253 29.5792 51.2301C29.8994 51.2825 30.1687 51.3259 30.3604 51.357C30.4563 51.3726 30.5331 51.3854 30.587 51.3941C30.6138 51.3985 30.6353 51.4015 30.6505 51.4039L30.6739 51.4078H30.6749C30.6772 51.4082 30.6794 51.4094 30.6817 51.4098L31.1817 51.4899C31.1764 51.1547 31.2323 50.8026 31.3673 50.44C31.6749 49.6144 32.4034 49.066 33.1827 48.8707L33.4102 48.8199C33.9368 48.7155 34.431 48.708 34.8614 48.6832C35.1264 48.668 35.3965 48.645 35.6905 48.5973C35.218 48.2592 34.6819 47.8264 34.2227 47.3033C33.4181 46.3868 32.766 45.0983 33.1856 43.5221C33.2922 43.1218 33.7033 42.8833 34.1036 42.9899C34.5037 43.0965 34.7413 43.5077 34.6348 43.9078C34.3921 44.8195 34.7298 45.6059 35.3507 46.3131C35.9823 47.0325 36.8229 47.5672 37.3712 47.9137L37.4805 47.9899C37.5933 48.0753 37.7113 48.1901 37.7969 48.3443C37.9281 48.5806 37.9598 48.8708 37.8468 49.1461C37.7486 49.3851 37.5733 49.5346 37.4434 49.6207C37.3064 49.7116 37.1561 49.7736 37.0157 49.818C36.178 50.0833 35.5149 50.1476 34.9473 50.1803C34.3661 50.2137 33.9836 50.2164 33.5479 50.3258C33.1696 50.4205 32.8815 50.6714 32.7725 50.9635C32.5492 51.5632 32.7476 52.113 33.2579 52.5514C33.7903 53.0087 34.5857 53.2568 35.2891 53.1568L35.8673 53.0631C37.2115 52.8205 38.5279 52.4108 39.67 51.9215C40.9878 51.3569 42.0186 50.7097 42.5968 50.1383L42.6104 50.1246C42.9149 49.8391 43.1089 49.3668 43.1485 48.6656C43.1829 48.0558 43.0957 47.3425 42.9229 46.5875L42.8428 46.2613C42.4992 44.9212 42.7362 43.5782 43.1173 42.3502C43.309 41.7325 43.5445 41.1229 43.7755 40.5426C44.0098 39.9537 44.2362 39.4038 44.4298 38.8649C44.6831 38.1594 44.6592 37.3775 44.4366 36.5758C44.3656 36.3199 44.2652 36.2347 44.213 36.2037C44.1538 36.1687 44.0448 36.1383 43.8604 36.1734C43.5171 36.239 43.0685 36.5124 42.7198 36.9596L42.5772 37.1617C42.1959 37.7611 41.6856 38.1883 41.0421 38.2154C40.4256 38.2414 39.9552 37.8855 39.67 37.5699V37.569C39.5787 37.4678 39.4937 37.3596 39.4327 37.2838L39.2667 37.0914C38.2544 36.0646 36.9108 35.3071 35.2022 34.8902L35.1905 34.8873L35.1778 34.8844C34.8545 34.7937 34.3589 34.7551 33.7149 34.775C33.0845 34.7945 32.3668 34.8677 31.626 34.9664C30.8867 35.0649 30.1371 35.1875 29.4444 35.3043C28.7587 35.4199 28.116 35.5317 27.6143 35.6041C26.5552 35.7567 25.4789 35.9135 24.5538 35.9156H22.9288C22.953 36.3808 22.9659 36.8563 22.9659 37.3404C22.9656 37.7544 22.63 38.0904 22.2159 38.0904C21.802 38.0902 21.4661 37.7543 21.4659 37.3404Z" fill="#1A1A1A"/>
</svg>
