<svg width="48" height="55" viewBox="0 0 48 55" fill="none" xmlns="http://www.w3.org/2000/svg">
<path d="M4.96899 40.673L1.577 42.725L1 39.148L5.47101 33.727H16.651L19.165 33L22.015 34.565L23.955 35.059H25.509L32.916 34.282L37.682 35.059L41.585 37.883L44.897 35.587L46.437 36.895L44.622 43.926V49.446L43.587 51.065L42.033 52.308L38.259 54.069H34.554L33.688 53.213L33.105 51.875L30.333 51.738L25.509 52.308L19.966 54.069L19.165 53.798L17.671 51.738L8.51801 51.065L4.595 54.031L2.02399 53.277L2.45499 50.799L4.595 47.873L4.263 43.266L4.96899 40.673Z" fill="#E6E6E6"/>
<path d="M22.2177 50.8797C23.2736 50.3787 24.5252 51.5998 24.1522 52.7078C24.0682 52.9578 23.9081 53.2072 23.6581 53.4832C23.2562 53.928 22.7492 54.1936 22.2714 54.2547C21.5194 54.3527 20.8832 53.6406 20.8632 52.8826C20.8512 52.4117 21.0206 51.9264 21.4335 51.4705C21.6674 51.2106 21.9387 51.0127 22.2177 50.8797ZM41.4179 47.5203C41.8888 47.0005 42.603 46.8157 43.2919 46.9656C44.0889 47.1396 44.6314 47.8649 44.9374 48.6209C45.2422 49.3747 45.1896 49.8957 44.6737 50.4656C44.1037 51.0956 43.1779 51.2336 42.372 50.8826C41.896 50.6746 41.5396 50.2616 41.3036 49.7996C40.8857 48.9787 40.8409 48.1582 41.4179 47.5203ZM32.4999 41.9998C34.0328 41.9998 35.3354 42.8434 35.8095 44.0193C36.0585 44.6383 35.9489 45.3421 35.6649 45.9461C35.0919 47.1659 34.0567 47.9998 32.4999 47.9998C31.1949 47.9998 30.056 47.3873 29.455 46.4793C28.8823 45.6144 29.1489 44.4767 29.6708 43.5809C30.3188 42.4689 31.07 41.9998 32.4999 41.9998ZM2.99989 38.9998C3.80489 38.9998 4.4993 39.4759 4.8163 40.1619C5.05814 40.6838 4.97441 41.3002 4.72645 41.8182C4.38644 42.528 3.81881 42.9998 2.99989 42.9998C2.37196 42.9998 1.8112 42.7096 1.44423 42.2566C0.878242 41.5577 1.06575 40.5176 1.54872 39.7586C1.8857 39.2286 2.30096 38.9998 2.99989 38.9998ZM16.4999 36.9998C17.5829 36.9998 18.5044 37.6891 18.8524 38.6521C19.0463 39.1931 18.9649 39.7941 18.746 40.326C18.333 41.3219 17.5978 41.9998 16.4999 41.9998C15.593 41.9998 14.7983 41.5166 14.3602 40.7937C13.8943 40.0238 14.1006 39.0419 14.5165 38.2439C14.9715 37.3699 15.5059 36.9998 16.4999 36.9998ZM38.9999 34.9998C40.2338 34.9998 41.2928 35.6197 41.7538 36.5066C42.0698 37.1156 41.9539 37.8578 41.6249 38.4588C41.1189 39.3817 40.2578 39.9998 38.9999 39.9998C38.0019 39.9998 37.1181 39.5935 36.5731 38.9685C35.8732 38.1676 36.1273 36.9411 36.7362 36.0691C37.2582 35.3201 37.8899 34.9998 38.9999 34.9998ZM27.4999 34.9998C28.4249 34.9998 29.232 35.4008 29.664 35.9978C30.0829 36.5758 29.9635 37.3875 29.5575 37.9725C29.1245 38.5954 28.4479 38.9998 27.4999 38.9998C26.8199 38.9998 26.2028 38.7825 25.7518 38.4295C24.8831 37.7494 25.0765 36.3541 25.8534 35.5701C26.2464 35.1741 26.7379 34.9998 27.4999 34.9998ZM10.0722 33.8416C10.6451 33.8797 11.1545 34.2257 11.5184 34.6707C12.0833 35.3626 12.2917 36.169 11.8807 36.9939C11.5548 37.6477 10.9461 38.0655 10.2763 38.1746C9.38826 38.3196 8.56908 37.6893 8.07508 36.9373C7.65926 36.3064 7.61266 35.7695 7.97352 35.0467C8.37752 34.2347 9.22016 33.7856 10.0722 33.8416Z" fill="#1A1A1A"/>
<path d="M19.6796 44.5117C19.9396 44.1975 20.396 44.1609 20.6988 44.4307C21.0016 44.7004 21.0359 45.1739 20.776 45.4881C19.9845 46.4446 19.0695 46.7239 18.2247 46.5562C17.4478 46.402 16.8393 45.8924 16.5063 45.4842C16.2484 45.1681 16.2863 44.6953 16.591 44.4277C16.8957 44.1602 17.3514 44.1995 17.6093 44.5156C17.8006 44.7501 18.1383 45.0118 18.4957 45.0829C18.7854 45.1404 19.1938 45.0989 19.6796 44.5117Z" fill="#1A1A1A"/>
<path d="M11.6796 44.5117C11.9396 44.1975 12.3959 44.1609 12.6988 44.4307C13.0015 44.7004 13.0358 45.1739 12.7759 45.4881C11.9845 46.4446 11.0694 46.7239 10.2247 46.5562C9.44777 46.402 8.83927 45.8924 8.50624 45.4842C8.24838 45.1681 8.28628 44.6953 8.59094 44.4277C8.89562 44.1602 9.35132 44.1995 9.60919 44.5156C9.8005 44.7501 10.1383 45.0118 10.4957 45.0829C10.7854 45.1404 11.1937 45.0989 11.6796 44.5117Z" fill="#1A1A1A"/>
<path d="M15.623 47.0289C14.77 46.9619 13.703 47.0219 12.863 47.1029C12.367 47.1519 12.001 47.6049 12.298 48.0049C12.755 48.6239 13.646 49.1179 14.305 49.3939C14.515 49.4829 14.754 49.4869 14.952 49.3749C15.463 49.0859 15.875 48.5829 16.168 48.1039C16.457 47.6319 16.174 47.0709 15.623 47.0289Z" fill="#AB5998"/>
<path d="M19.6658 32.2861C20.0334 32.2861 20.4353 32.4148 20.8006 32.5703C21.1849 32.7339 21.6094 32.9628 22.0457 33.2344C22.6365 33.6021 23.2705 34.063 23.8885 34.5762H25.951C26.7478 34.5743 27.7081 34.4367 28.8006 34.2793C29.2792 34.2099 29.8933 34.1028 30.5955 33.9844C31.291 33.8671 32.0615 33.7417 32.8279 33.6396C33.5927 33.5378 34.3668 33.4582 35.0692 33.4365C35.7581 33.4153 36.4368 33.4464 36.9832 33.5996C38.9187 34.0748 40.509 34.9556 41.7322 36.1963C41.839 36.3037 41.9303 36.4148 42.0008 36.502L42.1854 36.7236C42.2891 36.8389 42.3555 36.8674 42.3768 36.874C42.4088 36.8631 42.5296 36.8041 42.7127 36.5166C43.2475 35.6769 44.1011 35.0273 44.9803 34.8594C45.4318 34.7732 45.9322 34.8088 46.3778 35.0723C46.8302 35.3399 47.1311 35.7862 47.283 36.334C47.5625 37.3428 47.6284 38.455 47.242 39.5312C47.0371 40.1018 46.7946 40.6914 46.5692 41.2578C46.3403 41.8327 46.1243 42.3958 45.951 42.9541C45.602 44.0783 45.4539 45.1042 45.6961 46.0488C45.9405 47.0015 46.098 47.9998 46.0467 48.9102C45.996 49.8101 45.7337 50.7143 45.0506 51.3643L45.0516 51.3652C44.2864 52.1219 43.0652 52.8585 41.661 53.46C40.2444 54.0668 38.5848 54.5608 36.9022 54.8008C35.7515 54.9652 34.5269 54.575 33.6815 53.8486C33.4783 53.6741 33.2936 53.4754 33.1356 53.2568C33.1203 53.2553 33.105 53.2544 33.0897 53.252L31.9031 53.0596H31.9002L31.8416 53.0498C31.7951 53.0424 30.0903 52.7666 28.407 52.4854C27.2791 52.2962 26.0679 52.7254 24.8934 53.3975L24.3924 53.6992C23.4745 54.2791 22.3744 54.7487 21.2986 54.8604C20.2071 54.9736 19.0622 54.7177 18.2557 53.7393C17.8395 53.2344 17.5853 52.7055 17.491 52.1689C16.8394 52.2315 16.2594 52.2598 15.4481 52.2598C13.4878 52.2598 11.5984 52.0829 9.94025 51.6445C9.21495 52.4348 8.0124 53.4318 6.78107 54.1074C6.07144 54.4968 5.29126 54.8146 4.54572 54.8916C3.77911 54.9707 2.96682 54.796 2.39142 54.0977C1.26167 52.7268 1.59095 50.9906 2.27619 49.7129C2.62824 49.0565 3.10014 48.4585 3.61505 47.9912C3.88981 47.7419 4.19144 47.5175 4.50666 47.3408C4.25755 46.6451 4.12189 45.8685 4.12189 45.0059C4.12189 44.2544 4.12214 43.5875 4.15802 42.9141C4.11243 42.946 4.06709 42.9781 4.02033 43.0078C3.59348 43.2794 3.07168 43.4854 2.49103 43.4609C1.89324 43.4357 1.33146 43.1704 0.838688 42.6777C0.467231 42.3063 0.307515 41.8197 0.263492 41.3457C0.219622 40.8728 0.28445 40.3594 0.412906 39.8486C0.670184 38.8259 1.21602 37.6847 1.91388 36.6377C2.61273 35.5892 3.49435 34.5901 4.45783 33.877C5.40768 33.1739 6.53448 32.6786 7.68439 32.8369L7.91095 32.874C8.43694 32.9738 8.94012 33.1571 9.35138 33.293C9.85637 33.4598 10.2627 33.5723 10.6561 33.5723H14.9793C15.7491 33.5722 16.5245 33.2661 17.3797 32.8574L17.6258 32.7461C18.216 32.492 18.9246 32.2862 19.6658 32.2861ZM5.19025 48.6768C5.0135 48.781 4.82193 48.9228 4.62384 49.1025C4.23496 49.4555 3.86817 49.9172 3.59748 50.4219C3.0375 51.4662 2.98572 52.4616 3.54865 53.1445C3.70775 53.3376 3.95142 53.4448 4.39142 53.3994C4.85231 53.3518 5.42963 53.1385 6.05939 52.793C6.90905 52.3268 7.74075 51.681 8.35334 51.1104C7.83873 50.8931 7.35764 50.6426 6.91877 50.3506C6.2256 49.8892 5.64276 49.3321 5.19025 48.6768ZM5.62189 45.0059C5.62189 46.9238 6.41663 48.2142 7.74982 49.1016C9.50021 50.2663 12.2291 50.7598 15.4481 50.7598C16.3352 50.7598 16.9141 50.7234 17.6668 50.6416C17.7486 50.4479 17.8497 50.2652 17.9656 50.0947C18.6098 49.1479 19.7383 48.5089 20.7586 48.2695C21.1619 48.1749 21.5654 48.4258 21.66 48.8291C21.7544 49.2323 21.5046 49.6359 21.1014 49.7305C20.3567 49.9051 19.5907 50.3713 19.2049 50.9385C19.0211 51.2088 18.936 51.4814 18.9481 51.7539C18.9602 52.0252 19.0723 52.3719 19.4129 52.7852L19.4891 52.8711C19.8788 53.2835 20.4313 53.442 21.1434 53.3682C21.919 53.2877 22.7987 52.9317 23.5916 52.4307C24.9717 51.5592 26.7837 50.6916 28.6541 51.0049C29.4938 51.1452 30.3396 51.2847 30.9803 51.3896C31.3005 51.4421 31.5697 51.4864 31.7615 51.5176C31.8574 51.5332 31.9342 51.545 31.9881 51.5537C32.0007 51.5558 32.0122 51.5579 32.0223 51.5596L32.5828 51.6494C32.5774 51.3142 32.6333 50.9623 32.7684 50.5996C33.0758 49.7734 33.8044 49.2245 34.5838 49.0293C35.195 48.8764 35.7706 48.8711 36.2625 48.8428C36.5275 48.8275 36.7977 48.8045 37.0916 48.7568C36.619 48.4189 36.0831 47.9861 35.6238 47.4629C34.8193 46.5463 34.1666 45.258 34.5858 43.6816C34.6922 43.2814 35.1034 43.043 35.5037 43.1494C35.904 43.2559 36.1424 43.6671 36.036 44.0674C35.7935 44.9797 36.1302 45.7666 36.7508 46.4736C37.3822 47.193 38.2233 47.7275 38.7713 48.0732C38.9116 48.1621 39.0829 48.2986 39.1971 48.5039C39.3283 48.7399 39.3612 49.0298 39.2479 49.3057C39.1495 49.5451 38.9741 49.6954 38.8445 49.7812C38.7076 49.872 38.5569 49.934 38.4168 49.9785L38.4158 49.9795C37.5789 50.2442 36.9159 50.3072 36.3485 50.3398C35.7671 50.3733 35.3839 50.3753 34.9481 50.4844C34.5695 50.5792 34.2822 50.8313 34.1736 51.123C33.9505 51.7228 34.1488 52.2726 34.659 52.7109C35.1915 53.1684 35.987 53.416 36.6903 53.3154C38.2324 53.0954 39.7649 52.6401 41.0701 52.0811C42.3879 51.5166 43.4191 50.8702 43.9969 50.2988L44.0106 50.2852C44.3155 49.9991 44.5092 49.526 44.5486 48.8252C44.5878 48.1285 44.4684 47.2969 44.244 46.4219C43.9002 45.0816 44.1371 43.738 44.5184 42.5098C44.7101 41.892 44.9446 41.2824 45.1756 40.7021C45.41 40.1132 45.6364 39.5632 45.8299 39.0244C46.0516 38.407 46.0611 37.7314 45.911 37.0342L45.8377 36.7344C45.7667 36.4785 45.6662 36.3941 45.6141 36.3633C45.555 36.3284 45.446 36.2978 45.2615 36.333C44.8689 36.4081 44.3384 36.7553 43.9774 37.3223C43.5961 37.9209 43.0862 38.3477 42.4432 38.375C41.8263 38.401 41.3554 38.0445 41.0701 37.7275C40.9795 37.627 40.8943 37.5193 40.8338 37.4443C40.7663 37.3609 40.717 37.3024 40.6688 37.2539L40.6668 37.251C39.6555 36.2243 38.3115 35.4666 36.6033 35.0508L36.5906 35.0479L36.5789 35.0439C36.2555 34.9532 35.7598 34.9157 35.116 34.9355C34.4855 34.955 33.767 35.0273 33.0262 35.126C32.2871 35.2244 31.538 35.3471 30.8455 35.4639C30.1598 35.5795 29.5168 35.692 29.0154 35.7646C27.9563 35.9172 26.8798 36.074 25.9549 36.0762H25.4813C26.0551 36.6954 26.563 37.3518 26.9149 38.0039C27.3921 38.8885 27.6926 39.9762 27.1424 40.9287L27.1414 40.9277C26.7898 41.5368 26.3172 41.9538 25.7147 42.1055C25.1377 42.2506 24.5739 42.1186 24.0994 41.9229C23.6221 41.726 23.1526 41.4298 22.7283 41.1396C22.2516 40.8136 21.9285 40.5664 21.5106 40.2871C21.1662 40.0569 21.0734 39.5905 21.3035 39.2461C21.5338 38.9019 21.9993 38.8099 22.3436 39.04C22.717 39.2896 23.2216 39.6596 23.575 39.9014C23.9809 40.179 24.345 40.4014 24.6717 40.5361C25.0011 40.672 25.2122 40.6846 25.3485 40.6504C25.4591 40.6225 25.6377 40.5345 25.8436 40.1777C25.9908 39.9227 25.9998 39.4669 25.5945 38.7158C25.2063 37.9962 24.5321 37.1947 23.7274 36.4336C22.9285 35.6781 22.0373 34.9962 21.2528 34.5078C20.8602 34.2634 20.5059 34.075 20.2127 33.9502C19.9005 33.8173 19.725 33.7861 19.6658 33.7861C19.1894 33.7862 18.6884 33.9225 18.2235 34.1221L18.0262 34.2109C17.1616 34.6241 16.1172 35.0722 14.9793 35.0723H10.6561C9.99859 35.0723 9.38924 34.8849 8.88068 34.7168C8.33683 34.5371 7.91439 34.3834 7.47931 34.3232C6.8859 34.2417 6.15479 34.4877 5.35041 35.083C4.55951 35.6684 3.79053 36.5258 3.16193 37.4688C2.53238 38.4132 2.07323 39.3988 1.86798 40.2148C1.76526 40.6233 1.73352 40.9573 1.75666 41.207C1.77976 41.4558 1.85044 41.5684 1.89923 41.6172C2.17085 41.8887 2.39095 41.956 2.55451 41.9629C2.73507 41.9704 2.95556 41.9077 3.21564 41.7422C3.68669 41.4424 4.13002 40.904 4.43146 40.417L4.55158 40.2119C4.64627 40.0408 4.80986 39.9038 5.0174 39.8486C5.21624 39.7958 5.39685 39.833 5.52619 39.8926C5.74693 39.9943 6.02225 40.2827 5.9549 40.6924C5.95307 40.7049 5.95301 40.7135 5.95295 40.7139L5.93341 40.8213C5.92476 40.8665 5.91311 40.9214 5.90216 40.9775C5.62528 42.4225 5.62189 43.4796 5.62189 45.0059Z" fill="#1A1A1A"/>
</svg>
