<svg width="48" height="55" viewBox="0 0 48 55" fill="none" xmlns="http://www.w3.org/2000/svg">
<path d="M33.533 32.46C38.245 32.46 42.221 35.6 43.493 39.9C44.395 40.42 45 41.37 45 42.46C45 43.23 44.696 43.93 44.201 44.46C44.696 44.99 45 45.69 45 46.46C45 47.37 44.575 48.1899 43.908 48.7399C43.966 48.9699 44 49.21 44 49.46C44 51.12 42.657 52.46 41 52.46C40.452 52.46 39.94 52.3099 39.498 52.0499C38.942 53.0499 37.978 53.71 36.882 53.71C36.621 53.71 36.367 53.6699 36.124 53.5999C35.557 54.2799 34.763 54.71 33.882 54.71C33.12 54.71 32.422 54.3899 31.881 53.8599C31.34 54.3899 30.643 54.71 29.882 54.71C29.12 54.71 28.422 54.3899 27.881 53.8599C27.34 54.3899 26.643 54.71 25.882 54.71C24.859 54.71 23.95 54.1299 23.382 53.2499C22.813 54.1299 21.905 54.71 20.882 54.71C20.12 54.71 19.422 54.3899 18.881 53.8599C18.34 54.3899 17.643 54.71 16.882 54.71C15.834 54.71 14.908 54.1099 14.343 53.1899C14.233 53.1699 14.125 53.16 14.017 53.14C13.487 53.8 12.738 54.21 11.904 54.21C11.057 54.21 10.297 53.7899 9.76599 53.1099C9.39399 53.3299 8.963 53.46 8.5 53.46C7.119 53.46 6 52.34 6 50.96C6 50.32 6.23999 49.7399 6.63199 49.2999C5.67999 48.9499 5 48.03 5 46.96C5 46.64 5.06 46.3399 5.168 46.0599C4.496 45.8499 4 45.1399 4 44.2899C4 44.1599 4.01099 44.0399 4.03299 43.9099C4.01099 43.7699 4 43.61 4 43.46C4 42.5 4.45001 41.6499 5.14801 41.0999C5.97901 36.1999 10.247 32.46 15.389 32.46H33.533Z" fill="white"/>
<path d="M14.4922 51.6904C14.8999 51.7342 15.271 51.9384 15.5215 52.2568L15.6211 52.4004L15.7549 52.5957C16.0818 53.0188 16.4977 53.2099 16.8818 53.21V54.71C15.834 54.7099 14.9078 54.1102 14.3428 53.1904C14.2328 53.1704 14.1246 53.1596 14.0166 53.1396L14.2129 51.6602C14.3469 51.6702 14.4142 51.6804 14.4922 51.6904Z" fill="#1A1A1A"/>
<path d="M18.8779 53.8623C18.3373 54.3907 17.6415 54.71 16.8818 54.71V53.21C17.2068 53.21 17.54 53.07 17.835 52.79L18.8779 53.8623Z" fill="#1A1A1A"/>
<path d="M19.9268 52.79C20.2217 53.07 20.5549 53.2099 20.8818 53.21V54.71C20.1209 54.7099 19.4235 54.391 18.8828 53.8623L19.9268 52.79Z" fill="#1A1A1A"/>
<path d="M23.3818 51.75C23.8918 51.75 24.3676 52.0104 24.6436 52.4404C24.9835 52.9703 25.4519 53.2099 25.8818 53.21V54.71C24.8589 54.7099 23.9498 54.13 23.3818 53.25C22.8128 54.1299 21.9048 54.71 20.8818 54.71V53.21C21.3118 53.21 21.7791 52.9702 22.1201 52.4404L22.2324 52.2871C22.5152 51.9492 22.9347 51.75 23.3818 51.75Z" fill="#1A1A1A"/>
<path d="M27.8779 53.8623C27.3373 54.3907 26.6415 54.71 25.8818 54.71V53.21C26.2068 53.21 26.54 53.07 26.835 52.79L27.8779 53.8623Z" fill="#1A1A1A"/>
<path d="M28.9268 52.79C29.2217 53.07 29.5549 53.2099 29.8818 53.21V54.71C29.1209 54.7099 28.4235 54.391 27.8828 53.8623L28.9268 52.79Z" fill="#1A1A1A"/>
<path d="M31.8779 53.8623C31.3373 54.3907 30.6415 54.71 29.8818 54.71V53.21C30.2068 53.21 30.54 53.07 30.835 52.79L31.8779 53.8623Z" fill="#1A1A1A"/>
<path d="M32.9268 52.79C33.2217 53.07 33.5549 53.2099 33.8818 53.21V54.71C33.1209 54.7099 32.4235 54.391 31.8828 53.8623L32.9268 52.79Z" fill="#1A1A1A"/>
<path d="M34.9697 52.6396C35.3517 52.1797 35.969 51.9902 36.542 52.1602C36.6539 52.1901 36.7669 52.2099 36.8818 52.21V53.71C36.6209 53.7099 36.367 53.6696 36.124 53.5996C35.557 54.2796 34.7628 54.71 33.8818 54.71V53.21C34.2538 53.21 34.6457 53.0296 34.9697 52.6396Z" fill="#1A1A1A"/>
<path d="M9.00391 51.8203C9.60942 51.4641 10.3758 51.5732 10.8516 52.0742L10.9434 52.1797L11.0547 52.3086C11.3216 52.5873 11.6242 52.71 11.9043 52.71V54.21L11.7461 54.2051C10.9628 54.1564 10.2634 53.7478 9.76562 53.1104C9.39373 53.3302 8.96281 53.46 8.5 53.46V51.96C8.67991 51.96 8.84997 51.9102 9.00391 51.8203Z" fill="#1A1A1A"/>
<path d="M14.0137 53.1426C13.4839 53.8006 12.7368 54.2099 11.9043 54.21V52.71C12.2191 52.7099 12.5607 52.5598 12.8506 52.2002L14.0137 53.1426Z" fill="#1A1A1A"/>
<path d="M17.835 52.79C18.4169 52.2201 19.3448 52.2201 19.9268 52.79L18.8809 53.8604L17.835 52.79Z" fill="#1A1A1A"/>
<path d="M26.835 52.79C27.4169 52.2201 28.3448 52.2201 28.9268 52.79L27.8809 53.8604L26.835 52.79Z" fill="#1A1A1A"/>
<path d="M30.835 52.79C31.4169 52.2201 32.3448 52.2201 32.9268 52.79L31.8809 53.8604L30.835 52.79Z" fill="#1A1A1A"/>
<path d="M39.4951 52.0537C38.9388 53.0514 37.9763 53.71 36.8818 53.71V52.21C37.3388 52.21 37.8485 51.9303 38.1895 51.3203L39.4951 52.0537Z" fill="#1A1A1A"/>
<path d="M5.14746 41.0996L6.07617 42.2803C5.72119 42.5603 5.5 42.98 5.5 43.46C5.5 43.5048 5.50118 43.5447 5.50391 43.582L5.51562 43.6904L5.5293 43.8115C5.53787 43.9343 5.53126 44.0597 5.50879 44.1797L4.04688 43.9121L4.03223 43.915L5.50879 44.1797C5.50379 44.2097 5.5 44.25 5.5 44.29C5.50002 44.42 5.53916 44.5201 5.57715 44.5801C5.59725 44.6095 5.61321 44.6244 5.62109 44.6309L5.61523 44.6299C6.01114 44.7499 6.33759 45.0402 6.51855 45.4102C6.69849 45.78 6.7172 46.2097 6.56836 46.5996C6.52336 46.7196 6.5 46.84 6.5 46.96C6.5 47.3274 6.70411 47.6569 7.01367 47.834L7.15332 47.9004L7.32129 47.9736C7.70145 48.1687 7.98188 48.5203 8.08691 48.9404C8.20672 49.4203 8.0818 49.9299 7.75293 50.2998L6.63281 49.3008L6.63184 49.3047L7.75293 50.2998C7.59293 50.4798 7.5 50.71 7.5 50.96C7.5 51.51 7.948 51.96 8.5 51.96V53.46C7.119 53.46 6 52.34 6 50.96C6 50.32 6.23984 49.7398 6.63184 49.2998C5.67993 48.9498 5 48.0299 5 46.96C5 46.64 5.05997 46.3396 5.16797 46.0596C4.53796 45.8626 4.06271 45.2265 4.00586 44.4473L4 44.29C4 44.1601 4.01123 44.0401 4.0332 43.9102C4.0112 43.7702 4 43.61 4 43.46C4 42.5 4.44957 41.6496 5.14746 41.0996Z" fill="#1A1A1A"/>
<path d="M14.2129 51.6602L14.0166 53.1396L12.8506 52.2002C13.1796 51.7902 13.6949 51.5902 14.2129 51.6602Z" fill="#1A1A1A"/>
<path d="M40.251 50.7598C40.476 50.8898 40.73 50.96 41 50.96V52.46C40.4528 52.46 39.9416 52.3101 39.5 52.0508L40.251 50.7598Z" fill="#1A1A1A"/>
<path d="M42.5 49.46C42.5 49.4049 42.4962 49.3472 42.4883 49.2871L42.4521 49.0996L42.4297 48.9941C42.3384 48.4667 42.5361 47.9268 42.9541 47.5801L43.9072 48.7393L43.9082 48.7402C43.9662 48.9701 44 49.2101 44 49.46C44 51.12 42.657 52.46 41 52.46V50.96C41.828 50.96 42.5 50.29 42.5 49.46Z" fill="#1A1A1A"/>
<path d="M39.1006 50.6104C39.4885 50.5004 39.903 50.5498 40.251 50.7598L39.498 52.0498L38.1895 51.3203C38.3854 50.9705 38.7138 50.7104 39.1006 50.6104Z" fill="#1A1A1A"/>
<path d="M43.5 46.46C43.5 46.1 43.3595 45.7595 43.1045 45.4795C42.5675 44.9095 42.5675 44.0104 43.1045 43.4404C43.3595 43.1604 43.5 42.82 43.5 42.46C43.5 42.0136 43.284 41.5901 42.9082 41.3037L42.7383 41.1904L42.6182 41.1133C42.3488 40.9217 42.1492 40.6439 42.0547 40.3203L43.4893 39.9014L43.4912 39.8965C43.4916 39.8977 43.4928 39.8992 43.4932 39.9004C44.395 40.4204 45 41.3701 45 42.46C45 43.2299 44.6961 43.93 44.2012 44.46C44.6961 44.99 45 45.69 45 46.46C45 47.3688 44.5757 48.1873 43.9102 48.7373L42.9541 47.5801C43.3021 47.2901 43.5 46.89 43.5 46.46Z" fill="#1A1A1A"/>
<path d="M33.9727 32.4688C38.4889 32.657 42.2573 35.7317 43.4912 39.8945L42.0547 40.3203C40.9647 36.6404 37.5611 33.9601 33.5332 33.96H15.3887C10.9909 33.9601 7.33805 37.1599 6.62695 41.3496C6.56495 41.7196 6.36817 42.0503 6.07617 42.2803L5.14746 41.0996C5.97859 36.1999 10.247 32.4601 15.3887 32.46H33.5332L33.9727 32.4688Z" fill="#1A1A1A"/>
<path d="M23.7469 19.707C33.8949 19.707 41.8369 27.2371 45.6049 31.6301C47.2129 33.5001 47.5389 36.08 46.7509 38.42L46.2049 40.04C45.5159 42.08 43.3279 43.2101 41.3049 42.4501C35.6069 40.3301 29.6179 37.5301 23.8999 37.5301C18.8459 37.5301 12.5689 40.5101 6.95192 42.5701C5.01492 43.2701 2.92892 42.2401 2.18092 40.3201L1.45893 38.4601C0.540934 36.1001 0.78292 33.4401 2.40092 31.4901C6.06592 27.0871 13.7009 19.707 23.7469 19.707Z" fill="#D9D9D9"/>
<path d="M38.189 24.7871C39.0127 25.3728 39.7924 25.9804 40.5249 26.5938C40.7008 27.3746 40.8745 28.2326 41.0337 29.0771C41.6145 32.1622 41.2567 35.3589 40.1743 38.001L38.7505 41.4629C38.1936 41.2444 37.6344 41.0244 37.0737 40.8057L38.5083 37.3184C39.4577 35.0007 39.7821 32.1577 39.2651 29.4111L38.978 27.9531C38.6889 26.5553 38.3995 25.3774 38.1655 24.7969L38.189 24.7871Z" fill="#B3B3B3"/>
<path d="M5.31201 28.3281C5.5588 28.5005 5.80688 28.6764 6.05029 28.8535C7.87118 30.1794 9.02347 32.197 9.48291 34.4287L10.77 40.6992L9.00732 41.0605L7.72021 34.791C7.35962 33.0398 6.50699 31.5293 5.24756 30.5068L4.99072 30.3086C4.67196 30.0766 4.35136 29.8484 4.03857 29.6338C4.43621 29.2083 4.86087 28.7708 5.31201 28.3281Z" fill="#B3B3B3"/>
<path d="M12.4429 22.8691C13.1032 23.4393 13.7882 24.0595 14.4253 24.6562C16.0656 26.1916 16.9849 28.3334 17.1978 30.627L17.9204 38.4482C17.3399 38.6207 16.7548 38.812 16.1655 39.0137L15.4058 30.793C15.2266 28.8627 14.4634 27.1562 13.1958 25.9697C12.4229 25.2457 11.5863 24.4968 10.8228 23.8555C11.3463 23.5133 11.887 23.1841 12.4429 22.8691Z" fill="#B3B3B3"/>
<path d="M31.5386 21.1787C32.2407 21.4439 32.9242 21.741 33.5903 22.0596C33.8833 23.3834 34.1944 24.9401 34.4614 26.4277C35.0126 29.504 34.486 32.5831 33.2319 35.0127L32.9712 35.4893L31.1265 38.6904C30.5282 38.5105 29.9308 38.3435 29.3345 38.1953L31.4116 34.5908C32.6361 32.4672 33.2038 29.6146 32.6899 26.7461C32.3241 24.7076 31.8874 22.6112 31.5386 21.1787Z" fill="#B3B3B3"/>
<path d="M24.605 22.6533C25.9864 25.4181 26.5223 28.6675 26.0767 31.6035L25.9741 32.1865L24.9155 37.4766C24.5362 37.4528 24.1582 37.4404 23.7817 37.4404C23.5511 37.4404 23.3178 37.4477 23.0825 37.46L24.2085 31.834L24.2974 31.3291C24.6828 28.7825 24.2195 25.9094 22.9946 23.458C22.4094 22.2872 21.778 21.0264 21.1978 19.8662C21.833 19.7871 22.4793 19.7364 23.1362 19.7168C23.6213 20.6871 24.1286 21.7002 24.605 22.6533Z" fill="#B3B3B3"/>
<path d="M23.7473 19.46C34.015 19.4601 42.024 27.1683 45.7366 31.5342C47.2588 33.3244 47.6225 35.7653 46.9661 38.0195L46.3401 40.1787L44.8997 39.7607L45.5256 37.6016L45.6165 37.2539C46.0198 35.5195 45.6699 33.7713 44.594 32.5059C40.9186 28.1837 33.2994 20.9601 23.7473 20.96C14.3128 20.96 7.00783 28.0127 3.43678 32.3447L3.43775 32.3457C2.35323 33.6652 2.05537 35.4771 2.55592 37.2422L2.66724 37.5947L3.49342 39.9951C3.92866 41.2526 5.23863 41.8894 6.41724 41.4814C7.35517 41.1532 8.32278 40.8043 9.30592 40.4453L9.30982 40.4443C11.2026 39.7666 13.1726 39.0498 15.096 38.4443C18.0215 37.5276 21.0098 36.8203 23.7473 36.8203C29.0708 36.8204 34.7788 38.8532 39.9094 40.6816L41.8655 41.3701L41.8733 41.3721C43.1295 41.8136 44.5091 41.1032 44.8997 39.7607L46.3401 40.1787C45.7191 42.3136 43.4798 43.5225 41.3821 42.7891L39.4163 42.0986L39.4114 42.0967L37.4524 41.4023C32.8607 39.7939 28.1367 38.3204 23.7473 38.3203C21.2409 38.3203 18.4276 38.9727 15.5452 39.876L15.5442 39.875C13.6561 40.4694 11.7203 41.1744 9.81568 41.8564L9.8147 41.8555C8.8286 42.2155 7.85496 42.5666 6.90943 42.8975L6.90748 42.8984L6.71998 42.958C4.83871 43.5027 2.87857 42.4939 2.14576 40.6699L2.07642 40.4854L2.78541 40.2402L3.12916 40.1201L2.07642 40.4854L1.24928 38.085L1.11353 37.6533C0.498964 35.4845 0.835779 33.1489 2.27857 31.3936L2.27955 31.3926C5.89497 27.0064 13.589 19.46 23.7473 19.46Z" fill="#1A1A1A"/>
<path d="M26.3084 44.5235C26.6039 44.2334 27.0787 44.2379 27.369 44.5333C27.659 44.8287 27.6545 45.3036 27.3592 45.5938L27.2371 45.7139L27.2352 45.7149L26.7117 45.1788L26.6522 45.1182L27.2352 45.7149C25.5549 47.3553 22.8531 47.2902 21.2547 45.5694C20.9728 45.2659 20.9903 44.7908 21.2938 44.5088C21.5972 44.2269 22.0724 44.2444 22.3543 44.5479C23.379 45.6511 25.1103 45.6931 26.1873 44.6417V44.6426L26.3084 44.5235Z" fill="#1A1A1A"/>
<path d="M29.0002 42.46C29.6602 42.46 30.1952 42.9524 30.1952 43.56C30.1952 44.1675 29.6602 44.66 29.0002 44.66C28.3402 44.66 27.8052 44.1675 27.8052 43.56C27.8052 42.9524 28.3402 42.46 29.0002 42.46Z" fill="#1A1A1A"/>
<path d="M19.0002 42.46C18.3402 42.46 17.8052 42.9524 17.8052 43.56C17.8052 44.1675 18.3402 44.66 19.0002 44.66C19.6602 44.66 20.1952 44.1675 20.1952 43.56C20.1952 42.9524 19.6602 42.46 19.0002 42.46Z" fill="#1A1A1A"/>
</svg>
