<svg width="48" height="55" viewBox="0 0 48 55" fill="none" xmlns="http://www.w3.org/2000/svg">
<path fill-rule="evenodd" clip-rule="evenodd" d="M4 44.2899C4 45.1399 4.4941 45.8499 5.1656 46.0599C5.0586 46.3399 5 46.64 5 46.96C5 48.03 5.677 48.9499 6.6275 49.2999C6.237 49.7399 6 50.32 6 50.96C6 52.34 7.1193 53.46 8.5 53.46C8.9615 53.46 9.3938 53.3299 9.7648 53.1199C10.2957 53.7899 11.0579 54.21 11.9046 54.21C12.738 54.21 13.4895 53.8 14.0192 53.15C14.126 53.16 14.2334 53.1699 14.3412 53.1899C14.9067 54.1099 15.8338 54.71 16.8815 54.71C17.6426 54.71 18.3401 54.3899 18.8815 53.8599C19.4229 54.3899 20.1203 54.71 20.8815 54.71C21.9047 54.71 22.8128 54.1299 23.3815 53.2499C23.9501 54.1299 24.8582 54.71 25.8815 54.71C26.6426 54.71 27.3401 54.3899 27.8815 53.8599C28.4229 54.3899 29.1203 54.71 29.8815 54.71C30.6426 54.71 31.3401 54.3899 31.8815 53.8599C32.4229 54.3899 33.1203 54.71 33.8815 54.71C34.7626 54.71 35.5583 54.2799 36.1255 53.5999C36.3675 53.6699 36.6208 53.71 36.8815 53.71C37.9772 53.71 38.941 53.0499 39.4972 52.0599C39.9391 52.3099 40.4524 52.46 41 52.46C42.6569 52.46 44 51.12 44 49.46C44 49.21 43.9696 48.9699 43.9123 48.7399C44.5782 48.1899 45 47.37 45 46.46C45 45.69 44.6997 44.99 44.2059 44.46C44.6997 43.93 45 43.23 45 42.46C45 41.37 44.3973 40.42 43.4954 39.89C42.222 35.59 38.2437 32.46 33.5332 32.46H15.3889C10.2469 32.46 5.9775 36.1999 5.1464 41.0999C4.4483 41.6499 4 42.5 4 43.46C4 43.61 4.0116 43.7699 4.034 43.9099C4.0117 44.0399 4 44.1599 4 44.2899Z" fill="white"/>
<path d="M14.4922 51.6904C14.8999 51.7342 15.271 51.9384 15.5215 52.2568L15.6211 52.4004L15.7549 52.5957C16.0818 53.0188 16.4977 53.2099 16.8818 53.21V54.71C15.834 54.7099 14.9078 54.1102 14.3428 53.1904C14.2328 53.1704 14.1246 53.1596 14.0166 53.1396L14.2129 51.6602C14.3469 51.6702 14.4142 51.6804 14.4922 51.6904Z" fill="#1A1A1A"/>
<path d="M18.8779 53.8623C18.3373 54.3907 17.6415 54.71 16.8818 54.71V53.21C17.2068 53.21 17.54 53.07 17.835 52.79L18.8779 53.8623Z" fill="#1A1A1A"/>
<path d="M19.9268 52.79C20.2217 53.07 20.5549 53.2099 20.8818 53.21V54.71C20.1209 54.7099 19.4235 54.391 18.8828 53.8623L19.9268 52.79Z" fill="#1A1A1A"/>
<path d="M23.3818 51.75C23.8918 51.75 24.3676 52.0104 24.6436 52.4404C24.9835 52.9703 25.4519 53.2099 25.8818 53.21V54.71C24.8589 54.7099 23.9498 54.13 23.3818 53.25C22.8128 54.1299 21.9048 54.71 20.8818 54.71V53.21C21.3118 53.21 21.7791 52.9702 22.1201 52.4404L22.2324 52.2871C22.5152 51.9492 22.9347 51.75 23.3818 51.75Z" fill="#1A1A1A"/>
<path d="M27.8779 53.8623C27.3373 54.3907 26.6415 54.71 25.8818 54.71V53.21C26.2068 53.21 26.54 53.07 26.835 52.79L27.8779 53.8623Z" fill="#1A1A1A"/>
<path d="M28.9268 52.79C29.2217 53.07 29.5549 53.2099 29.8818 53.21V54.71C29.1209 54.7099 28.4235 54.391 27.8828 53.8623L28.9268 52.79Z" fill="#1A1A1A"/>
<path d="M31.8779 53.8623C31.3373 54.3907 30.6415 54.71 29.8818 54.71V53.21C30.2068 53.21 30.54 53.07 30.835 52.79L31.8779 53.8623Z" fill="#1A1A1A"/>
<path d="M32.9268 52.79C33.2217 53.07 33.5549 53.2099 33.8818 53.21V54.71C33.1209 54.7099 32.4235 54.391 31.8828 53.8623L32.9268 52.79Z" fill="#1A1A1A"/>
<path d="M34.9697 52.6396C35.3517 52.1797 35.969 51.9902 36.542 52.1602C36.6539 52.1901 36.7669 52.2099 36.8818 52.21V53.71C36.6209 53.7099 36.367 53.6696 36.124 53.5996C35.557 54.2796 34.7628 54.71 33.8818 54.71V53.21C34.2538 53.21 34.6457 53.0296 34.9697 52.6396Z" fill="#1A1A1A"/>
<path d="M9.00391 51.8203C9.60942 51.4641 10.3758 51.5732 10.8516 52.0742L10.9434 52.1797L11.0547 52.3086C11.3216 52.5873 11.6242 52.71 11.9043 52.71V54.21L11.7461 54.2051C10.9628 54.1564 10.2634 53.7478 9.76562 53.1104C9.39373 53.3302 8.96281 53.46 8.5 53.46V51.96C8.67991 51.96 8.84997 51.9102 9.00391 51.8203Z" fill="#1A1A1A"/>
<path d="M14.0137 53.1426C13.4839 53.8006 12.7368 54.2099 11.9043 54.21V52.71C12.2191 52.7099 12.5607 52.5598 12.8506 52.2002L14.0137 53.1426Z" fill="#1A1A1A"/>
<path d="M17.835 52.79C18.4169 52.2201 19.3448 52.2201 19.9268 52.79L18.8809 53.8604L17.835 52.79Z" fill="#1A1A1A"/>
<path d="M26.835 52.79C27.4169 52.2201 28.3448 52.2201 28.9268 52.79L27.8809 53.8604L26.835 52.79Z" fill="#1A1A1A"/>
<path d="M30.835 52.79C31.4169 52.2201 32.3448 52.2201 32.9268 52.79L31.8809 53.8604L30.835 52.79Z" fill="#1A1A1A"/>
<path d="M39.4951 52.0537C38.9388 53.0514 37.9763 53.71 36.8818 53.71V52.21C37.3388 52.21 37.8485 51.9303 38.1895 51.3203L39.4951 52.0537Z" fill="#1A1A1A"/>
<path d="M5.14746 41.0996L6.07617 42.2803C5.72119 42.5603 5.5 42.98 5.5 43.46C5.5 43.5048 5.50118 43.5447 5.50391 43.582L5.51562 43.6904L5.5293 43.8115C5.53787 43.9343 5.53126 44.0597 5.50879 44.1797L4.04688 43.9121L4.03223 43.915L5.50879 44.1797C5.50379 44.2097 5.5 44.25 5.5 44.29C5.50002 44.42 5.53916 44.5201 5.57715 44.5801C5.59725 44.6095 5.61321 44.6244 5.62109 44.6309L5.61523 44.6299C6.01114 44.7499 6.33759 45.0402 6.51855 45.4102C6.69849 45.78 6.7172 46.2097 6.56836 46.5996C6.52336 46.7196 6.5 46.84 6.5 46.96C6.5 47.3274 6.70411 47.6569 7.01367 47.834L7.15332 47.9004L7.32129 47.9736C7.70145 48.1687 7.98188 48.5203 8.08691 48.9404C8.20672 49.4203 8.0818 49.9299 7.75293 50.2998L6.63281 49.3008L6.63184 49.3047L7.75293 50.2998C7.59293 50.4798 7.5 50.71 7.5 50.96C7.5 51.51 7.948 51.96 8.5 51.96V53.46C7.119 53.46 6 52.34 6 50.96C6 50.32 6.23984 49.7398 6.63184 49.2998C5.67993 48.9498 5 48.0299 5 46.96C5 46.64 5.05997 46.3396 5.16797 46.0596C4.53796 45.8626 4.06271 45.2265 4.00586 44.4473L4 44.29C4 44.1601 4.01123 44.0401 4.0332 43.9102C4.0112 43.7702 4 43.61 4 43.46C4 42.5 4.44957 41.6496 5.14746 41.0996Z" fill="#1A1A1A"/>
<path d="M14.2129 51.6602L14.0166 53.1396L12.8506 52.2002C13.1796 51.7902 13.6949 51.5902 14.2129 51.6602Z" fill="#1A1A1A"/>
<path d="M40.251 50.7598C40.476 50.8898 40.73 50.96 41 50.96V52.46C40.4528 52.46 39.9416 52.3101 39.5 52.0508L40.251 50.7598Z" fill="#1A1A1A"/>
<path d="M42.5 49.46C42.5 49.4049 42.4962 49.3472 42.4883 49.2871L42.4521 49.0996L42.4297 48.9941C42.3384 48.4667 42.5361 47.9268 42.9541 47.5801L43.9072 48.7393L43.9082 48.7402C43.9662 48.9701 44 49.2101 44 49.46C44 51.12 42.657 52.46 41 52.46V50.96C41.828 50.96 42.5 50.29 42.5 49.46Z" fill="#1A1A1A"/>
<path d="M39.1006 50.6104C39.4885 50.5004 39.903 50.5498 40.251 50.7598L39.498 52.0498L38.1895 51.3203C38.3854 50.9705 38.7138 50.7104 39.1006 50.6104Z" fill="#1A1A1A"/>
<path d="M43.5 46.46C43.5 46.1 43.3595 45.7595 43.1045 45.4795C42.5675 44.9095 42.5675 44.0104 43.1045 43.4404C43.3595 43.1604 43.5 42.82 43.5 42.46C43.5 42.0136 43.284 41.5901 42.9082 41.3037L42.7383 41.1904L42.6182 41.1133C42.3488 40.9217 42.1492 40.6439 42.0547 40.3203L43.4893 39.9014L43.4912 39.8965C43.4916 39.8977 43.4928 39.8992 43.4932 39.9004C44.395 40.4204 45 41.3701 45 42.46C45 43.2299 44.6961 43.93 44.2012 44.46C44.6961 44.99 45 45.69 45 46.46C45 47.3688 44.5757 48.1873 43.9102 48.7373L42.9541 47.5801C43.3021 47.2901 43.5 46.89 43.5 46.46Z" fill="#1A1A1A"/>
<path d="M33.9727 32.4688C38.4889 32.657 42.2573 35.7317 43.4912 39.8945L42.0547 40.3203C40.9647 36.6404 37.5611 33.9601 33.5332 33.96H15.3887C10.9909 33.9601 7.33805 37.1599 6.62695 41.3496C6.56495 41.7196 6.36817 42.0503 6.07617 42.2803L5.14746 41.0996C5.97859 36.1999 10.247 32.4601 15.3887 32.46H33.5332L33.9727 32.4688Z" fill="#1A1A1A"/>
<path d="M23.7473 19.46C33.895 19.46 41.8367 26.9899 45.605 31.3799C47.2125 33.2499 47.5389 35.8299 46.7506 38.1699L46.2052 39.7899C45.5158 41.8399 43.3277 42.96 41.305 42.21C35.607 40.08 29.6176 37.28 23.9003 37.28C18.846 37.28 12.5692 40.2599 6.95194 42.3199C5.01514 43.0299 2.92884 41.9899 2.18104 40.0699L1.45854 38.21C0.540843 35.85 0.783343 33.1899 2.40124 31.2499C6.06604 26.8399 13.7013 19.46 23.7473 19.46Z" fill="#FC9E24"/>
<path d="M38.4111 24.6973C39.08 25.1805 39.7196 25.6769 40.3271 26.1787C40.537 27.0657 40.7456 28.0887 40.9355 29.0957C41.5134 32.1621 41.1563 35.3388 40.0811 37.9629L38.7451 41.2109C38.25 41.0167 37.753 40.8216 37.2549 40.627L38.6006 37.3564C39.5577 35.0208 39.8843 32.1579 39.3633 29.3926C38.9859 27.3916 38.5755 25.5448 38.2588 24.7598L38.4111 24.6973ZM5.05957 28.3359C5.35979 28.5433 5.66353 28.758 5.96094 28.9746L6.28809 29.2266C7.88661 30.5239 8.91089 32.3951 9.33594 34.459L10.623 40.7295L9.15332 41.0303L7.86621 34.7607C7.49954 32.9809 6.63249 31.4371 5.3418 30.3896L5.07812 30.1875C4.71836 29.9255 4.35555 29.668 4.00391 29.4287C4.33661 29.0714 4.68896 28.7062 5.05957 28.3359ZM14.4082 24.6738C16.0434 26.2043 16.9601 28.3403 17.1719 30.6289L17.873 38.2119C17.3083 38.3805 16.7391 38.5666 16.166 38.7627L15.4297 30.791C15.2507 28.8559 14.4848 27.1436 13.2119 25.9521L14.4082 24.6738ZM31.5 20.918C32.183 21.1746 32.849 21.4602 33.498 21.7676C33.8097 23.1512 34.1483 24.8316 34.4355 26.4326C35.0229 29.7079 34.3859 32.9855 32.9492 35.4766L31.2236 38.4697C30.6431 38.2937 30.0631 38.131 29.4844 37.9844L31.4326 34.6035C32.6606 32.4747 33.2284 29.6156 32.7129 26.7412C32.325 24.5792 31.8583 22.3505 31.5 20.918ZM24.6045 22.6533C26.0784 25.6026 26.5896 29.103 25.9736 32.1865L24.9639 37.2305C24.5681 37.2047 24.1739 37.1904 23.7812 37.1904C23.5669 37.1904 23.3502 37.1964 23.1318 37.207L24.208 31.833C24.7405 29.1667 24.3008 26.0726 22.9941 23.458C22.3697 22.2087 21.6926 20.8567 21.0811 19.6338C21.7143 19.5513 22.3586 19.4971 23.0137 19.4736C23.5352 20.5167 24.0881 21.6202 24.6045 22.6533ZM12.248 22.7334C12.9626 23.344 13.7135 24.0232 14.4082 24.6738L13.8096 25.3125L13.2119 25.9521L12.5361 25.3262C11.911 24.7551 11.2704 24.1927 10.6797 23.7021C11.1867 23.3667 11.7103 23.0437 12.248 22.7334Z" fill="#FFC470"/>
<path d="M23.7479 19.46C33.8948 19.4601 41.8356 26.9892 45.6044 31.3809C47.2117 33.2519 47.539 35.8288 46.7508 38.1689L46.2059 39.7891L45.3065 39.4863L46.2049 39.79C45.5179 41.8234 43.3421 42.9589 41.2909 42.2861C41.1383 42.2393 40.9855 42.1906 40.8397 42.1436C40.692 42.0959 40.55 42.0507 40.409 42.0078L40.3934 42.002L40.6278 41.29L40.6327 41.2754L40.3934 42.002C34.9202 40.2031 29.1618 38.3204 23.7479 38.3203C21.2253 38.3203 18.4245 38.8796 15.5604 39.6729L15.5594 39.6719C13.3981 40.2764 11.1905 41.0016 9.0399 41.7119L6.97642 42.3936C5.01329 43.0313 2.92893 41.9869 2.1815 40.0723L2.88072 39.7998L3.01841 39.7461L2.1815 40.0723L1.45884 38.2119C0.541247 35.8509 0.784036 33.193 2.4022 31.25C6.06744 26.8388 13.7025 19.46 23.7479 19.46ZM23.7479 20.96C14.4185 20.96 7.17117 27.8561 3.55454 32.209L3.21275 31.9248L3.07994 31.8145L3.55454 32.209C2.3412 33.6659 2.10288 35.7291 2.8563 37.668L3.57896 39.5273L3.67661 39.7461C4.21 40.8055 5.40992 41.3248 6.51255 40.9668C7.18649 40.7475 7.87022 40.5191 8.56919 40.2881C10.7172 39.5786 12.9578 38.8429 15.1581 38.2275H15.16C18.0724 37.4209 21.0252 36.8203 23.7479 36.8203C29.4469 36.8204 35.4432 38.7961 40.8622 40.5771C41.0114 40.6227 41.1591 40.6701 41.3006 40.7158L41.7313 40.8525L41.7391 40.8555L41.7479 40.8584C42.9962 41.2738 44.3513 40.5905 44.784 39.3096L45.329 37.6904C45.9352 35.8907 45.7111 34.0178 44.6835 32.6299L44.4676 32.3584C40.7397 28.014 33.1863 20.9601 23.7479 20.96Z" fill="#1A1A1A"/>
<path d="M30.4031 21.2998C30.3656 21.4218 30.3148 21.5368 30.2553 21.6438C29.9565 22.1808 29.128 22.6018 28.4956 22.6198C26.5756 22.6748 25.4101 20.0167 26.9389 18.9227C26.9812 18.8927 27.0217 18.8668 27.0596 18.8458C27.3249 18.7388 27.5711 18.6707 27.7982 18.6337C29.2252 18.4037 30.8169 19.9498 30.4031 21.2998Z" fill="#FF5C16"/>
<path d="M27.7031 18.0417C28.6551 17.8885 29.5935 18.3265 30.2157 18.9509C30.8357 19.5731 31.2703 20.5178 30.9765 21.4763C30.9254 21.6424 30.8568 21.7957 30.7792 21.9353C30.555 22.3382 30.1678 22.6477 29.7851 22.8542C29.4462 23.0371 29.0546 23.1701 28.6747 23.2087L28.5126 23.2195C27.2508 23.2556 26.2853 22.4031 25.872 21.4382C25.4578 20.4707 25.5283 19.1949 26.5898 18.4353L26.5917 18.4333L26.9238 18.9031L26.9306 18.9119L26.5917 18.4333C26.6473 18.3939 26.7068 18.3552 26.7685 18.321L26.8349 18.2898C27.1378 18.1676 27.4275 18.0865 27.7021 18.0417L27.7695 18.4597L27.7802 18.5242L27.7031 18.0417ZM27.8935 19.2253L27.8945 19.2263C27.726 19.2538 27.5367 19.3036 27.3261 19.3855C27.3149 19.3926 27.3006 19.4008 27.2851 19.4119C26.8199 19.7465 26.7099 20.3464 26.9755 20.9665C27.2428 21.5902 27.8204 22.0391 28.4784 22.0202C28.6819 22.0145 28.9561 21.9387 29.2157 21.7986C29.4798 21.656 29.6557 21.4863 29.7304 21.3523C29.7717 21.278 29.8051 21.2015 29.829 21.1238L29.8613 20.9724C29.9062 20.6078 29.7417 20.1746 29.3661 19.7976C28.9393 19.3692 28.3682 19.1488 27.8935 19.2253Z" fill="#1A1A1A"/>
<path d="M20.7041 24.2479C20.5932 24.1619 20.4966 24.0639 20.413 23.9609C19.9807 23.4289 19.9475 22.4309 20.2652 21.8299C21.1215 20.2119 23.8546 20.3969 24.3171 22.1799C24.3401 22.2689 24.3526 22.349 24.3567 22.418C24.3369 22.731 24.2811 22.9989 24.2004 23.2299C23.7442 24.5299 21.7998 25.1069 20.7041 24.2479Z" fill="#FF5C16"/>
<path d="M22.4861 20.1319C23.4527 20.2082 24.4526 20.7521 24.8308 21.8106L24.8972 22.0293L24.2497 22.1973L24.8982 22.0303C24.9138 22.0907 24.9266 22.1504 24.9363 22.209L24.9558 22.3828L24.9548 22.4561C24.9318 22.8189 24.8665 23.141 24.7663 23.4278L24.3884 23.2959L24.0759 23.1866L24.7663 23.4278C24.4585 24.3049 23.6747 24.8852 22.8601 25.1241C22.0454 25.3628 21.0729 25.2977 20.3357 24.7207C20.2599 24.662 20.1903 24.6003 20.1257 24.5362L19.947 24.3389C19.6272 23.9452 19.486 23.4277 19.4587 22.9561C19.4313 22.4817 19.5133 21.9677 19.7341 21.5498L20.7956 22.1104C20.6988 22.2935 20.6392 22.5791 20.657 22.8868C20.6749 23.1972 20.7663 23.4448 20.8786 23.583C20.9371 23.6551 21.0013 23.7193 21.071 23.7735L20.6716 24.2881L20.7038 24.2481L21.071 23.7735L21.0739 23.7754C21.4322 24.0563 21.9783 24.1324 22.5232 23.9727C23.0685 23.8128 23.4851 23.454 23.6335 23.0313C23.6909 22.8668 23.7338 22.6683 23.7527 22.4268C23.7496 22.4025 23.7461 22.3703 23.7361 22.3311L23.7038 22.2246C23.5194 21.7053 23.015 21.3773 22.3913 21.3282C21.7229 21.2755 21.0866 21.561 20.7956 22.1104L19.7341 21.5498C20.2996 20.4816 21.4585 20.0509 22.4861 20.1319Z" fill="#1A1A1A"/>
<path d="M24.7432 24.2459C24.6323 24.1589 24.5357 24.0609 24.4521 23.9579C24.0197 23.4259 23.9866 22.4279 24.3043 21.8269C25.1605 20.2089 27.8937 20.3949 28.3562 22.1769C28.3792 22.2659 28.3917 22.3459 28.3958 22.4149C28.376 22.7279 28.3202 22.9959 28.2395 23.2269C27.7833 24.5279 25.8389 25.1049 24.7432 24.2459Z" fill="#FF5C16"/>
<path d="M26.5256 20.1292C27.5565 20.2108 28.6248 20.8247 28.9367 22.0267L27.7756 22.3275C27.625 21.7477 27.096 21.3781 26.4309 21.3255C25.7622 21.2727 25.126 21.5583 24.8352 22.1077L23.9289 21.6283L24.3049 21.8275L24.8352 22.1077C24.7384 22.2909 24.6787 22.5766 24.6965 22.8841C24.7145 23.1944 24.8059 23.4413 24.9182 23.5794C24.9766 23.6514 25.0416 23.7174 25.1135 23.7738L25.2561 23.8695C25.608 24.07 26.086 24.1109 26.5627 23.971C27.1079 23.8111 27.5245 23.4518 27.6731 23.0286L27.716 22.89C27.7524 22.7555 27.7783 22.6014 27.7922 22.4242C27.7892 22.3997 27.7859 22.3672 27.7756 22.3275L28.9367 22.0267C28.9681 22.1481 28.9886 22.2667 28.9953 22.3792C28.9968 22.4036 28.9959 22.4281 28.9944 22.4525C28.9771 22.7248 28.9361 22.9746 28.8742 23.2035L28.8059 23.4251C28.4982 24.3027 27.7153 24.8833 26.9006 25.1224C26.1361 25.3467 25.2316 25.3034 24.5139 24.8206L24.3733 24.7181C24.2984 24.6594 24.2286 24.5975 24.1643 24.5335L23.9866 24.3363C23.6667 23.9426 23.5256 23.425 23.4983 22.9535C23.4708 22.4789 23.5528 21.9641 23.7737 21.5462C24.3391 20.4779 25.4981 20.0481 26.5256 20.1292Z" fill="#1A1A1A"/>
<path d="M22.4276 21.2608C22.2666 21.1868 22.1252 21.0968 22.0017 20.9978C21.3064 20.4358 21.2312 19.1688 21.7704 18.4688C22.8752 17.0328 25.3803 17.1298 26.1888 18.7668C26.2837 18.9598 26.3277 19.1328 26.3364 19.2628C26.3057 19.6758 26.2028 20.0128 26.057 20.2848C25.4218 21.4698 23.6628 21.8268 22.4276 21.2608Z" fill="#FF5C16"/>
<path d="M24.1248 16.866C25.1582 16.925 26.207 17.4496 26.7263 18.5008L26.7273 18.5018L26.8093 18.6893C26.8816 18.8751 26.9242 19.0566 26.9353 19.2225C26.9372 19.2506 26.9364 19.2793 26.9343 19.3074L26.3367 19.2625H26.3318L26.9343 19.3074C26.898 19.7966 26.7744 20.216 26.5857 20.5682C26.1683 21.3469 25.4042 21.8153 24.6111 22.0115C23.818 22.2077 22.9294 22.151 22.1775 21.8065L22.6775 20.7156C23.1607 20.937 23.7691 20.9845 24.323 20.8475C24.8769 20.7104 25.3103 20.4079 25.5281 20.0018C25.6252 19.8206 25.7017 19.5829 25.7312 19.2733C25.7231 19.2245 25.7031 19.141 25.6502 19.033L25.5925 18.9256C25.2849 18.4054 24.7101 18.1016 24.0564 18.0643C23.3559 18.0243 22.6584 18.2986 22.2459 18.8348L22.1882 18.9188C22.0635 19.1271 21.9959 19.423 22.0212 19.7371C22.0503 20.0966 22.1927 20.3807 22.3787 20.5311H22.3777C22.4647 20.6006 22.5642 20.6635 22.6775 20.7156L22.1765 21.8065C21.9686 21.7109 21.7853 21.5936 21.6257 21.4656L21.6248 21.4647C21.1157 21.0532 20.8726 20.423 20.825 19.8338C20.7773 19.2439 20.9157 18.5944 21.2947 18.1024H21.2957C21.9879 17.2032 23.0948 16.8073 24.1248 16.866Z" fill="#1A1A1A"/>
<path d="M17.9365 22.6259C17.8257 22.5389 17.729 22.441 17.6454 22.338C17.2131 21.806 17.1799 20.8079 17.4976 20.2069C18.3539 18.5889 21.087 18.7749 21.5495 20.5579C21.5725 20.6459 21.5851 20.7269 21.5891 20.7949C21.5693 21.1079 21.5135 21.377 21.4328 21.607C20.9766 22.908 19.0322 23.4849 17.9365 22.6259Z" fill="#FF5C16"/>
<path d="M19.719 18.5092C20.7495 18.5908 21.8166 19.2044 22.1291 20.4056H22.1301C22.1619 20.5272 22.1821 20.6476 22.1887 20.7592C22.1901 20.7834 22.1892 20.8081 22.1877 20.8324C22.1648 21.1946 22.0997 21.5184 21.9992 21.8051C21.6915 22.6826 20.9086 23.2633 20.094 23.5023C19.2786 23.7415 18.3041 23.6761 17.5666 23.098C17.4919 23.0394 17.4219 22.9774 17.3576 22.9135L17.1799 22.7162C16.8599 22.3224 16.7189 21.8041 16.6916 21.3324C16.6642 20.8579 16.7462 20.3439 16.967 19.9262L17.0803 19.7328C17.6773 18.8057 18.7556 18.4329 19.719 18.5092ZM19.6242 19.7054C18.9556 19.6525 18.3194 19.9382 18.0285 20.4877C17.9318 20.6708 17.8721 20.9565 17.8899 21.264C17.9079 21.5743 17.9993 21.8212 18.1115 21.9594C18.1698 22.0311 18.2348 22.0971 18.3068 22.1537L18.4494 22.2494C18.8013 22.4499 19.2793 22.4908 19.7561 22.351C20.3012 22.191 20.7179 21.8317 20.8664 21.4086C20.9235 21.246 20.9665 21.0467 20.9856 20.8051C20.9826 20.7808 20.9791 20.748 20.969 20.7094V20.7084C20.8184 20.128 20.2892 19.7581 19.6242 19.7054Z" fill="#1A1A1A"/>
<path d="M26.3079 44.5232C26.6034 44.2332 27.0782 44.2377 27.3685 44.533C27.6585 44.8285 27.654 45.3033 27.3587 45.5936L27.2366 45.7137L27.2347 45.7147L26.7112 45.1785L26.6517 45.118L27.2347 45.7147C25.5545 47.3551 22.8527 47.2899 21.2542 45.5691C20.9723 45.2657 20.9898 44.7905 21.2933 44.5086C21.5967 44.2267 22.0719 44.2442 22.3538 44.5477C23.3785 45.6508 25.1098 45.6929 26.1868 44.6414V44.6424L26.3079 44.5232Z" fill="#1A1A1A"/>
<path d="M29.0002 42.46C29.6602 42.46 30.1952 42.9524 30.1952 43.56C30.1952 44.1675 29.6602 44.66 29.0002 44.66C28.3402 44.66 27.8052 44.1675 27.8052 43.56C27.8052 42.9524 28.3402 42.46 29.0002 42.46Z" fill="#1A1A1A"/>
<path d="M19.0002 42.46C18.3402 42.46 17.8052 42.9524 17.8052 43.56C17.8052 44.1675 18.3402 44.66 19.0002 44.66C19.6602 44.66 20.1952 44.1675 20.1952 43.56C20.1952 42.9524 19.6602 42.46 19.0002 42.46Z" fill="#1A1A1A"/>
</svg>
