<svg width="48" height="55" viewBox="0 0 48 55" fill="none" xmlns="http://www.w3.org/2000/svg">
<path d="M33.5379 32.46C38.2499 32.46 42.2259 35.6 43.4979 39.9C44.3999 40.42 45.0049 41.37 45.0049 42.46C45.0049 43.23 44.7009 43.93 44.2059 44.46C44.7009 44.99 45.0049 45.69 45.0049 46.46C45.0049 47.37 44.5799 48.1899 43.9129 48.7399C43.9709 48.9699 44.0049 49.21 44.0049 49.46C44.0049 51.12 42.6619 52.46 41.0049 52.46C40.4569 52.46 39.9449 52.3099 39.5029 52.0499C38.9469 53.0499 37.9829 53.71 36.8869 53.71C36.6259 53.71 36.3719 53.6699 36.1289 53.5999C35.5619 54.2799 34.7679 54.71 33.8869 54.71C33.1249 54.71 32.4269 54.3899 31.8859 53.8599C31.3449 54.3899 30.6479 54.71 29.8869 54.71C29.1249 54.71 28.4269 54.3899 27.8859 53.8599C27.3449 54.3899 26.6479 54.71 25.8869 54.71C24.8639 54.71 23.9549 54.1299 23.3869 53.2499C22.8179 54.1299 21.9099 54.71 20.8869 54.71C20.1249 54.71 19.4269 54.3899 18.8859 53.8599C18.3449 54.3899 17.6479 54.71 16.8869 54.71C15.8389 54.71 14.9129 54.1099 14.3479 53.1899C14.2379 53.1699 14.1299 53.16 14.0219 53.14C13.4919 53.8 12.7429 54.21 11.9089 54.21C11.0619 54.21 10.3019 53.7899 9.77088 53.1099C9.39888 53.3299 8.96788 53.46 8.50488 53.46C7.12388 53.46 6.00488 52.34 6.00488 50.96C6.00488 50.32 6.24489 49.7399 6.63689 49.2999C5.68489 48.9499 5.00488 48.03 5.00488 46.96C5.00488 46.64 5.06488 46.3399 5.17288 46.0599C4.50088 45.8499 4.00488 45.1399 4.00488 44.2899C4.00488 44.1599 4.01588 44.0399 4.03788 43.9099C4.01588 43.7699 4.00488 43.61 4.00488 43.46C4.00488 42.5 4.45489 41.6499 5.15289 41.0999C5.98389 36.1999 10.2519 32.46 15.3939 32.46H33.5379Z" fill="white"/>
<path d="M14.4971 51.6904C14.9048 51.7342 15.2759 51.9384 15.5264 52.2568L15.626 52.4004L15.7598 52.5957C16.0867 53.0188 16.5026 53.2099 16.8867 53.21V54.71C15.8389 54.7099 14.9126 54.1102 14.3477 53.1904C14.2377 53.1704 14.1294 53.1596 14.0215 53.1396L14.2178 51.6602C14.3518 51.6702 14.4191 51.6804 14.4971 51.6904Z" fill="#1A1A1A"/>
<path d="M18.8828 53.8623C18.3422 54.3907 17.6464 54.71 16.8867 54.71V53.21C17.2117 53.21 17.5449 53.07 17.8398 52.79L18.8828 53.8623Z" fill="#1A1A1A"/>
<path d="M19.9316 52.79C20.2266 53.07 20.5598 53.2099 20.8867 53.21V54.71C20.1258 54.7099 19.4284 54.391 18.8877 53.8623L19.9316 52.79Z" fill="#1A1A1A"/>
<path d="M23.3867 51.75C23.8967 51.75 24.3724 52.0104 24.6484 52.4404C24.9884 52.9703 25.4568 53.2099 25.8867 53.21V54.71C24.8638 54.7099 23.9547 54.13 23.3867 53.25C22.8177 54.1299 21.9097 54.71 20.8867 54.71V53.21C21.3166 53.21 21.784 52.9702 22.125 52.4404L22.2373 52.2871C22.5201 51.9492 22.9396 51.75 23.3867 51.75Z" fill="#1A1A1A"/>
<path d="M27.8828 53.8623C27.3422 54.3907 26.6464 54.71 25.8867 54.71V53.21C26.2117 53.21 26.5449 53.07 26.8398 52.79L27.8828 53.8623Z" fill="#1A1A1A"/>
<path d="M28.9316 52.79C29.2266 53.07 29.5598 53.2099 29.8867 53.21V54.71C29.1258 54.7099 28.4284 54.391 27.8877 53.8623L28.9316 52.79Z" fill="#1A1A1A"/>
<path d="M31.8828 53.8623C31.3422 54.3907 30.6464 54.71 29.8867 54.71V53.21C30.2117 53.21 30.5449 53.07 30.8398 52.79L31.8828 53.8623Z" fill="#1A1A1A"/>
<path d="M32.9316 52.79C33.2266 53.07 33.5598 53.2099 33.8867 53.21V54.71C33.1258 54.7099 32.4284 54.391 31.8877 53.8623L32.9316 52.79Z" fill="#1A1A1A"/>
<path d="M34.9746 52.6396C35.3566 52.1797 35.9739 51.9902 36.5469 52.1602C36.6588 52.1901 36.7718 52.2099 36.8867 52.21V53.71C36.6258 53.7099 36.3719 53.6696 36.1289 53.5996C35.5619 54.2796 34.7677 54.71 33.8867 54.71V53.21C34.2587 53.21 34.6506 53.0296 34.9746 52.6396Z" fill="#1A1A1A"/>
<path d="M9.00879 51.8203C9.6143 51.4641 10.3807 51.5732 10.8564 52.0742L10.9482 52.1797L11.0596 52.3086C11.3264 52.5873 11.6291 52.71 11.9092 52.71V54.21L11.751 54.2051C10.9677 54.1564 10.2683 53.7478 9.77051 53.1104C9.39861 53.3302 8.96769 53.46 8.50488 53.46V51.96C8.68479 51.96 8.85485 51.9102 9.00879 51.8203Z" fill="#1A1A1A"/>
<path d="M14.0186 53.1426C13.4888 53.8006 12.7417 54.2099 11.9092 54.21V52.71C12.224 52.7099 12.5656 52.5598 12.8555 52.2002L14.0186 53.1426Z" fill="#1A1A1A"/>
<path d="M17.8398 52.79C18.4218 52.2201 19.3496 52.2201 19.9316 52.79L18.8857 53.8604L17.8398 52.79Z" fill="#1A1A1A"/>
<path d="M26.8398 52.79C27.4218 52.2201 28.3496 52.2201 28.9316 52.79L27.8857 53.8604L26.8398 52.79Z" fill="#1A1A1A"/>
<path d="M30.8398 52.79C31.4218 52.2201 32.3496 52.2201 32.9316 52.79L31.8857 53.8604L30.8398 52.79Z" fill="#1A1A1A"/>
<path d="M39.5 52.0537C38.9436 53.0514 37.9812 53.71 36.8867 53.71V52.21C37.3437 52.21 37.8533 51.9303 38.1943 51.3203L39.5 52.0537Z" fill="#1A1A1A"/>
<path d="M5.15234 41.0996L6.08105 42.2803C5.72608 42.5603 5.50488 42.98 5.50488 43.46C5.50488 43.5048 5.50606 43.5447 5.50879 43.582L5.52051 43.6904L5.53418 43.8115C5.54276 43.9343 5.53614 44.0597 5.51367 44.1797L4.05176 43.9121L4.03711 43.915L5.51367 44.1797C5.50867 44.2097 5.50488 44.25 5.50488 44.29C5.50491 44.42 5.54404 44.5201 5.58203 44.5801C5.60213 44.6095 5.61809 44.6244 5.62598 44.6309L5.62012 44.6299C6.01602 44.7499 6.34247 45.0402 6.52344 45.4102C6.70337 45.78 6.72208 46.2097 6.57324 46.5996C6.52824 46.7196 6.50488 46.84 6.50488 46.96C6.50488 47.3274 6.70899 47.6569 7.01855 47.834L7.1582 47.9004L7.32617 47.9736C7.70633 48.1687 7.98676 48.5203 8.0918 48.9404C8.21161 49.4203 8.08669 49.9299 7.75781 50.2998L6.6377 49.3008L6.63672 49.3047L7.75781 50.2998C7.59781 50.4798 7.50488 50.71 7.50488 50.96C7.50488 51.51 7.95288 51.96 8.50488 51.96V53.46C7.12388 53.46 6.00488 52.34 6.00488 50.96C6.00488 50.32 6.24472 49.7398 6.63672 49.2998C5.68481 48.9498 5.00488 48.0299 5.00488 46.96C5.00488 46.64 5.06485 46.3396 5.17285 46.0596C4.54284 45.8626 4.0676 45.2265 4.01074 44.4473L4.00488 44.29C4.00488 44.1601 4.01611 44.0401 4.03809 43.9102C4.01609 43.7702 4.00488 43.61 4.00488 43.46C4.00488 42.5 4.45445 41.6496 5.15234 41.0996Z" fill="#1A1A1A"/>
<path d="M14.2178 51.6602L14.0215 53.1396L12.8555 52.2002C13.1845 51.7902 13.6998 51.5902 14.2178 51.6602Z" fill="#1A1A1A"/>
<path d="M40.2559 50.7598C40.4809 50.8898 40.7349 50.96 41.0049 50.96V52.46C40.4577 52.46 39.9465 52.3101 39.5049 52.0508L40.2559 50.7598Z" fill="#1A1A1A"/>
<path d="M42.5049 49.46C42.5049 49.4049 42.5011 49.3472 42.4932 49.2871L42.457 49.0996L42.4346 48.9941C42.3433 48.4667 42.541 47.9268 42.959 47.5801L43.9121 48.7393L43.9131 48.7402C43.971 48.9701 44.0049 49.2101 44.0049 49.46C44.0049 51.12 42.6619 52.46 41.0049 52.46V50.96C41.8329 50.96 42.5049 50.29 42.5049 49.46Z" fill="#1A1A1A"/>
<path d="M39.1055 50.6104C39.4934 50.5004 39.9079 50.5498 40.2559 50.7598L39.5029 52.0498L38.1943 51.3203C38.3903 50.9705 38.7187 50.7104 39.1055 50.6104Z" fill="#1A1A1A"/>
<path d="M43.5049 46.46C43.5049 46.1 43.3644 45.7595 43.1094 45.4795C42.5724 44.9095 42.5724 44.0104 43.1094 43.4404C43.3644 43.1604 43.5049 42.82 43.5049 42.46C43.5049 42.0136 43.2888 41.5901 42.9131 41.3037L42.7432 41.1904L42.623 41.1133C42.3537 40.9217 42.1541 40.6439 42.0596 40.3203L43.4941 39.9014L43.4961 39.8965C43.4965 39.8977 43.4977 39.8992 43.498 39.9004C44.3999 40.4204 45.0049 41.3701 45.0049 42.46C45.0049 43.2299 44.701 43.93 44.2061 44.46C44.701 44.99 45.0049 45.69 45.0049 46.46C45.0049 47.3688 44.5806 48.1873 43.915 48.7373L42.959 47.5801C43.307 47.2901 43.5049 46.89 43.5049 46.46Z" fill="#1A1A1A"/>
<path d="M33.9775 32.4688C38.4938 32.657 42.2622 35.7317 43.4961 39.8945L42.0596 40.3203C40.9696 36.6404 37.566 33.9601 33.5381 33.96H15.3936C10.9958 33.9601 7.34294 37.1599 6.63184 41.3496C6.56984 41.7196 6.37305 42.0503 6.08105 42.2803L5.15234 41.0996C5.98348 36.1999 10.2518 32.4601 15.3936 32.46H33.5381L33.9775 32.4688Z" fill="#1A1A1A"/>
<path d="M23.5048 20.207C32.4208 20.207 39.5358 23.5001 43.6378 25.9871C46.1338 27.5001 47.1108 30.4781 46.4778 33.3301L44.7388 41.16C44.6128 41.72 44.0308 42.0601 43.4758 41.8901C37.0558 39.8901 30.5098 37.2801 23.9048 37.2801C18.0958 37.2801 11.1218 40.09 4.98577 41.92C4.44877 42.08 3.88877 41.76 3.74777 41.22L1.08577 30.9481C0.72677 29.5611 1.13577 28.0941 2.27877 27.2311C5.50277 24.7971 12.9788 20.207 23.5048 20.207Z" fill="#FFD966"/>
<path d="M17.0049 38.2101C17.0049 33.2101 16.0049 25.207 16.0049 21.707L17.0049 21.207L24.5049 20.207L31.0049 21.207C31.0049 26.807 31.8379 34.7101 32.0049 38.2101L29.0049 37.7101L23.0049 37.2101L17.0049 38.2101Z" fill="#2C2C2C"/>
<path d="M23.7516 19.46C34.4448 19.46 42.6883 24.335 46.1803 26.8057L46.3913 26.9668C47.4024 27.8077 47.8173 29.1537 47.5553 30.4658L45.5036 40.7959C45.2414 42.1151 43.7685 42.8051 42.5319 42.2559C36.868 39.75 29.8043 38.3203 23.7516 38.3203C18.4096 38.3203 11.1587 40.136 5.74379 42.4297L5.74477 42.4307C4.56491 42.9311 3.19873 42.2925 2.87856 41.0703L0.13051 30.5918L0.0680097 30.3164C-0.19208 28.9368 0.298625 27.5269 1.45766 26.7139C5.01941 24.216 13.1895 19.46 23.7516 19.46ZM23.7516 20.96C13.6277 20.96 5.76123 25.5283 2.31899 27.9424C1.69517 28.3801 1.37823 29.1752 1.54164 30.0371L1.58071 30.2109L4.32973 40.6895C4.40788 40.987 4.78292 41.2093 5.15883 41.0498L6.21938 40.6152C11.6228 38.4751 18.5017 36.8203 23.7516 36.8203C30.0064 36.8203 37.2784 38.29 43.1403 40.8838L43.1413 40.8848C43.5704 41.0752 43.972 40.8046 44.0319 40.5039L46.0836 30.1719C46.2491 29.343 45.9791 28.5762 45.4284 28.1182L45.3141 28.0303C41.9399 25.6429 34.0019 20.96 23.7516 20.96Z" fill="#1A1A1A"/>
<path d="M26.3128 44.5235C26.6082 44.2334 27.0831 44.2379 27.3733 44.5333C27.6634 44.8287 27.6589 45.3036 27.3636 45.5938L27.2415 45.7139L27.2396 45.7149L26.7161 45.1788L26.6565 45.1182L27.2396 45.7149C25.5593 47.3553 22.8575 47.2902 21.2591 45.5694C20.9772 45.2659 20.9947 44.7908 21.2981 44.5088C21.6016 44.2269 22.0768 44.2444 22.3587 44.5479C23.3834 45.6511 25.1147 45.6931 26.1917 44.6417V44.6426L26.3128 44.5235Z" fill="#1A1A1A"/>
<path d="M29.0046 42.46C29.6646 42.46 30.1996 42.9524 30.1996 43.56C30.1996 44.1675 29.6646 44.66 29.0046 44.66C28.3446 44.66 27.8096 44.1675 27.8096 43.56C27.8096 42.9524 28.3446 42.46 29.0046 42.46Z" fill="#1A1A1A"/>
<path d="M19.0046 42.46C18.3446 42.46 17.8096 42.9524 17.8096 43.56C17.8096 44.1675 18.3446 44.66 19.0046 44.66C19.6646 44.66 20.1996 44.1675 20.1996 43.56C20.1996 42.9524 19.6646 42.46 19.0046 42.46Z" fill="#1A1A1A"/>
</svg>
