<svg width="48" height="55" viewBox="0 0 48 55" fill="none" xmlns="http://www.w3.org/2000/svg">
<path d="M25.0002 15.707C26.0452 15.707 26.9642 16.2421 27.5012 17.0521C27.7602 16.8351 28.0782 16.707 28.4222 16.707C29.1672 16.707 29.7902 17.3081 29.9552 18.1151C30.0542 18.1371 30.1532 18.1581 30.2512 18.1811C30.7712 17.7291 31.4182 17.4601 32.1182 17.4601C33.2982 17.4601 34.3252 18.2221 34.8542 19.3441C34.9422 19.3351 35.0302 19.3311 35.1202 19.3311C36.2622 19.3311 37.2232 20.0971 37.5212 21.1431C37.6772 21.1181 37.8372 21.1061 38.0002 21.1061C39.6572 21.1061 41.0002 22.4491 41.0002 24.1061C41.0002 24.3681 40.9622 24.6201 40.8992 24.8621C41.8552 25.2141 42.5362 26.13 42.5362 27.207C42.5362 27.209 42.5352 27.2111 42.5352 27.2141C43.3542 27.2811 44.0002 28.072 44.0002 29.04C44.0002 29.522 43.8382 29.9601 43.5752 30.2881C44.4322 30.9331 45.0002 32.0501 45.0002 33.3301C45.0002 33.9101 44.8812 34.4601 44.6712 34.9501C44.8792 35.3501 45.0002 35.8001 45.0002 36.2801C45.0002 37.1601 44.6062 37.9501 43.9822 38.4901C44.6062 39.0401 45.0002 39.8301 45.0002 40.7101C45.0002 42.0901 44.0292 43.25 42.7082 43.6C42.9842 43.93 43.1562 44.3801 43.1562 44.8701C43.1562 45.8101 42.5462 46.5901 41.7622 46.6901C41.7622 46.7001 41.7632 46.7001 41.7632 46.7101C41.7632 48.3001 40.5212 49.6001 38.9532 49.7001C38.7222 51.2701 37.6252 52.4901 36.2542 52.6801C35.6822 53.4601 34.8322 53.9501 33.8822 53.9501C33.2882 53.9501 32.7322 53.76 32.2602 53.42C31.6882 54.21 30.8352 54.7101 29.8822 54.7101C29.1202 54.7101 28.4222 54.39 27.8812 53.86C27.3402 54.39 26.6432 54.7101 25.8822 54.7101C24.8592 54.7101 23.9502 54.1301 23.3822 53.2501C22.8132 54.1301 21.9052 54.7101 20.8822 54.7101C20.1202 54.7101 19.4222 54.39 18.8812 53.86C18.3402 54.39 17.6432 54.7101 16.8822 54.7101C15.3752 54.7101 14.1172 53.4601 13.8262 51.8101C13.4212 52.0601 12.9602 52.2001 12.4712 52.2001C11.4442 52.2001 10.5442 51.5801 10.0272 50.6501C9.85716 50.6901 9.68117 50.7101 9.50017 50.7101C8.16117 50.7101 7.07016 49.6501 7.00616 48.3301C6.15316 47.8901 5.58517 47.1001 5.58517 46.2101C5.58517 45.6401 5.81516 45.1101 6.20016 44.6901C5.09616 44.5701 4.23416 43.5001 4.23416 42.2101C4.23416 41.4701 4.51116 40.82 4.95016 40.36C3.99716 39.86 3.34717 38.8601 3.34717 37.7101C3.34717 36.6501 3.89717 35.7201 4.72717 35.1801C4.20517 34.8801 3.84416 34.26 3.84416 33.54C3.84416 32.54 4.53916 31.7201 5.40016 31.7101L5.40117 31.7001C5.14817 31.2601 5.00017 30.751 5.00017 30.207C5.00017 29.04 5.66717 28.031 6.64017 27.535C6.62717 27.427 6.62016 27.318 6.62016 27.207C6.62016 26.12 7.22817 25.1971 8.07617 24.8521C8.02817 24.6461 8.00017 24.43 8.00017 24.207C8.00017 22.826 8.98117 21.707 10.1902 21.707C10.4792 21.707 10.7542 21.7721 11.0062 21.8871C11.0022 21.8281 11.0002 21.767 11.0002 21.707C11.0002 20.05 12.3432 18.707 14.0002 18.707C14.4582 18.707 14.8912 18.812 15.2792 18.996C15.7702 17.957 16.8552 17.2341 18.1182 17.2341C18.4602 17.2341 18.7892 17.289 19.0972 17.386C19.6142 16.961 20.2782 16.707 21.0002 16.707C21.5352 16.707 22.0372 16.8491 22.4722 17.0941C23.0052 16.2611 23.9372 15.707 25.0002 15.707Z" fill="white"/>
<path d="M9.8335 49.1592C10.4404 49.0789 11.0403 49.3762 11.3403 49.9199C11.6433 50.4699 12.0872 50.7002 12.4712 50.7002C12.6632 50.7002 12.8555 50.65 13.0415 50.54L13.2046 50.4531C13.5945 50.2743 14.0456 50.2666 14.4419 50.4502C14.8948 50.6502 15.2172 51.0599 15.3032 51.5498C15.4992 52.6598 16.2693 53.21 16.8823 53.21V54.71L16.603 54.6953C15.2221 54.5521 14.0997 53.3573 13.8267 51.8105C13.4217 52.0605 12.9602 52.2002 12.4712 52.2002C11.4442 52.2002 10.5439 51.5803 10.0269 50.6504C9.85707 50.6903 9.68125 50.7099 9.50049 50.71V49.21C9.5644 49.2099 9.63453 49.1997 9.7124 49.1797L9.8335 49.1592Z" fill="#1A1A1A"/>
<path d="M17.9478 52.6895C18.5314 52.2218 19.3816 52.2556 19.9272 52.79C20.2222 53.07 20.5553 53.21 20.8823 53.21V54.71L20.5991 54.6953C19.9479 54.6267 19.3546 54.3239 18.8813 53.8604C18.3404 54.3903 17.6432 54.7099 16.8823 54.71V53.21C17.2073 53.2099 17.5405 53.07 17.8354 52.79L17.9478 52.6895Z" fill="#1A1A1A"/>
<path d="M23.3823 51.75C23.8923 51.7501 24.3681 52.0105 24.644 52.4404C24.984 52.9703 25.4524 53.21 25.8823 53.21V54.71L25.6919 54.7031C24.747 54.6362 23.9148 54.075 23.3823 53.25C22.8134 54.13 21.9053 54.7099 20.8823 54.71V53.21C21.3123 53.2099 21.7796 52.9703 22.1206 52.4404L22.2329 52.2871C22.5157 51.9493 22.9352 51.75 23.3823 51.75Z" fill="#1A1A1A"/>
<path d="M26.9478 52.6895C27.5314 52.2218 28.3816 52.2556 28.9272 52.79C29.2222 53.07 29.5553 53.21 29.8823 53.21V54.71L29.5991 54.6953C28.9479 54.6267 28.3546 54.3239 27.8813 53.8604C27.3404 54.3903 26.6432 54.7099 25.8823 54.71V53.21C26.2073 53.2099 26.5405 53.07 26.8354 52.79L26.9478 52.6895Z" fill="#1A1A1A"/>
<path d="M31.144 52.4219C31.6471 51.8635 32.5004 51.7596 33.1274 52.2002C33.3684 52.3701 33.6244 52.4502 33.8823 52.4502V53.9502L33.6616 53.9414C33.1507 53.9004 32.6733 53.7175 32.2603 53.4199C31.6883 54.2099 30.8353 54.7099 29.8823 54.71V53.21C30.2833 53.2099 30.7134 53 31.0483 52.54L31.144 52.4219Z" fill="#1A1A1A"/>
<path d="M43.5005 40.71C43.5005 40.29 43.3167 39.9101 42.9917 39.6201C42.6679 39.3402 42.482 38.9301 42.4819 38.4902C42.4819 38.0604 42.6679 37.6501 42.9917 37.3701C43.3167 37.0802 43.5004 36.7002 43.5005 36.2803C43.5005 36.0603 43.4444 35.8396 43.3394 35.6396C43.1325 35.2397 43.1155 34.7695 43.2935 34.3496C43.4233 34.0497 43.5005 33.7099 43.5005 33.3301C43.5005 32.4902 43.1253 31.8303 42.6733 31.4902C42.3493 31.2402 42.1374 30.8766 42.0874 30.4746C42.0365 30.0717 42.1509 29.6655 42.4048 29.3496C42.4498 29.2926 42.5005 29.187 42.5005 29.04C42.5005 28.8871 42.4487 28.7834 42.4067 28.7314C42.3945 28.7162 42.3848 28.7085 42.3794 28.7041C41.6155 28.6238 41.0337 27.9809 41.0356 27.21C41.0356 27.2067 41.0356 27.2034 41.0356 27.2002C41.0328 26.7762 40.7651 26.4118 40.3813 26.2705C39.6575 26.0036 39.254 25.2313 39.4478 24.4844C39.4827 24.3485 39.5005 24.2233 39.5005 24.1064C39.5005 23.2786 38.8283 22.6066 38.0005 22.6064C37.9564 22.6064 37.9138 22.6082 37.8735 22.6113L37.6187 22.6396C36.9208 22.6861 36.2755 22.2399 36.0796 21.5557C35.9595 21.1339 35.5723 20.8313 35.1206 20.8311C35.0806 20.8311 35.0442 20.8329 35.0122 20.8359C34.3784 20.9029 33.7706 20.5621 33.4985 19.9854C33.1666 19.2806 32.6085 18.9602 32.1187 18.96C31.8167 18.96 31.5118 19.0735 31.2358 19.3135C30.8709 19.6302 30.3766 19.7516 29.9067 19.6406C29.8219 19.6207 29.734 19.602 29.6362 19.5811C29.0562 19.4541 28.6048 18.997 28.4858 18.416C28.4691 18.3336 28.4367 18.2779 28.4106 18.2422C28.091 18.4874 27.6864 18.5948 27.2856 18.5371C26.8636 18.4761 26.4875 18.2369 26.2515 17.8809C25.9795 17.4709 25.5194 17.2071 25.0005 17.207C24.4725 17.207 24.0058 17.4803 23.7358 17.9023C23.3068 18.5731 22.4278 18.7923 21.7339 18.4014C21.515 18.2774 21.2663 18.2071 21.0005 18.207C20.6366 18.207 20.3073 18.334 20.0493 18.5459C19.6563 18.8679 19.1271 18.9704 18.6431 18.8164C18.4752 18.7635 18.3005 18.7344 18.1187 18.7344C17.4358 18.7344 16.8783 19.1239 16.6362 19.6357C16.4663 19.9956 16.1605 20.2742 15.7856 20.4082C15.4117 20.5422 14.9981 20.5225 14.6382 20.3525C14.4403 20.2586 14.2254 20.2071 14.0005 20.207C13.1725 20.207 12.5005 20.878 12.5005 21.707C12.5005 21.73 12.5014 21.7589 12.5034 21.7979C12.5344 22.3239 12.288 22.828 11.853 23.125C11.4181 23.4229 10.8593 23.4699 10.3804 23.251C10.3124 23.22 10.2499 23.207 10.1899 23.207C10.069 23.2071 9.9169 23.2589 9.77002 23.4277C9.62002 23.5987 9.50049 23.87 9.50049 24.207C9.50049 24.304 9.51263 24.4058 9.5376 24.5107C9.7056 25.2297 9.32511 25.9642 8.64111 26.2422C8.42512 26.3302 8.12061 26.6551 8.12061 27.207C8.12061 27.254 8.12337 27.3053 8.13037 27.3643C8.20128 27.9862 7.87874 28.5871 7.3208 28.8711C6.82898 29.1221 6.50049 29.6282 6.50049 30.207C6.50049 30.476 6.57266 30.7281 6.70166 30.9521C6.88754 31.2701 6.94468 31.6506 6.8667 32.0205L6.83447 32.1475C6.64753 32.7591 6.09757 33.1847 5.45752 33.208C5.45354 33.2111 5.44757 33.2141 5.44189 33.2197C5.39889 33.2697 5.34424 33.38 5.34424 33.54C5.34424 33.6498 5.37089 33.7398 5.40381 33.7998C5.4384 33.8591 5.47047 33.8794 5.47217 33.8799C5.92704 34.1398 6.21293 34.6198 6.22607 35.1396C6.24007 35.6696 5.9795 36.1604 5.53857 36.4404C5.11861 36.7204 4.84721 37.18 4.84717 37.71C4.84717 38.2799 5.16797 38.7803 5.6499 39.0303C6.0659 39.2503 6.35615 39.6601 6.43115 40.1201C6.50613 40.5901 6.35773 41.0604 6.03174 41.4004C5.86892 41.5704 5.73392 41.8503 5.73389 42.21C5.73389 42.89 6.16854 43.1802 6.37354 43.2002C6.93331 43.2703 7.40896 43.6401 7.60596 44.1699C7.80295 44.6999 7.6871 45.29 7.30713 45.71C7.14017 45.8899 7.08548 46.06 7.08545 46.21C7.08545 46.4199 7.22506 46.75 7.69482 47C8.16974 47.24 8.4783 47.7199 8.50439 48.2598C8.53039 48.7898 8.96749 49.21 9.50049 49.21V50.71L9.25244 50.6982C8.02892 50.5771 7.06636 49.5677 7.00635 48.3301C6.20673 47.9176 5.65691 47.1976 5.59131 46.376L5.58545 46.21C5.58548 45.6402 5.81497 45.1103 6.19971 44.6904C5.09591 44.5702 4.23389 43.4998 4.23389 42.21C4.23392 41.4702 4.51095 40.8203 4.94971 40.3604C3.99683 39.8603 3.34717 38.8599 3.34717 37.71C3.34721 36.65 3.89708 35.7197 4.72705 35.1797C4.23781 34.8984 3.88971 34.3362 3.84814 33.6738L3.84424 33.54C3.84424 32.5401 4.53902 31.7201 5.3999 31.71L5.40088 31.7002C5.1795 31.3152 5.03909 30.8771 5.00732 30.4092L5.00049 30.207C5.00049 29.0401 5.66718 28.0312 6.64014 27.5352C6.63363 27.4811 6.62886 27.4267 6.62549 27.3721L6.62061 27.207C6.62061 26.12 7.22866 25.1975 8.07666 24.8525C8.04067 24.6981 8.0155 24.5375 8.00537 24.373L8.00049 24.207C8.00049 22.8261 8.98105 21.7072 10.1899 21.707C10.4789 21.707 10.7543 21.7717 11.0063 21.8867C11.0024 21.8278 11.0005 21.7669 11.0005 21.707C11.0005 20.05 12.3435 18.707 14.0005 18.707L14.1704 18.7119C14.509 18.7313 14.8321 18.8078 15.1313 18.9307L15.2788 18.9961C15.7698 17.9571 16.8557 17.2344 18.1187 17.2344L18.3726 17.2441C18.6236 17.2642 18.8663 17.3131 19.0972 17.3857C19.6141 16.9608 20.2786 16.707 21.0005 16.707L21.1987 16.7139C21.6593 16.7443 22.0915 16.8794 22.4722 17.0938C23.0052 16.2609 23.9376 15.707 25.0005 15.707L25.1948 15.7129C26.1587 15.7747 26.9981 16.2925 27.5015 17.0518C27.7604 16.8349 28.0785 16.707 28.4224 16.707C29.1673 16.7071 29.7906 17.3083 29.9556 18.1152L30.2515 18.1807C30.7714 17.7289 31.4188 17.46 32.1187 17.46L32.3374 17.4688C33.4244 17.5565 34.358 18.292 34.854 19.3438C34.942 19.3347 35.0306 19.3311 35.1206 19.3311L35.3325 19.3398C36.3101 19.4221 37.1259 20.0675 37.4575 20.9502L37.521 21.1436C37.677 21.1186 37.8375 21.1064 38.0005 21.1064L38.1548 21.1104C39.7399 21.1908 41.0005 22.5013 41.0005 24.1064L40.9937 24.3008C40.98 24.4935 40.9462 24.6808 40.8989 24.8623C41.8549 25.2143 42.5366 26.13 42.5366 27.207C42.5366 27.209 42.5357 27.211 42.5356 27.2139C43.3544 27.2811 44.0005 28.0722 44.0005 29.04L43.9927 29.2188C43.958 29.6299 43.8048 30.0011 43.5747 30.2881C44.4317 30.9331 45.0005 32.0501 45.0005 33.3301L44.9946 33.5459C44.969 34.0465 44.8552 34.5214 44.6714 34.9502C44.8793 35.3501 45.0005 35.8003 45.0005 36.2803L44.9956 36.4443C44.9499 37.2581 44.5669 37.9841 43.9819 38.4902C44.6059 39.0402 45.0005 39.83 45.0005 40.71L44.9888 40.9658C44.8774 42.2316 43.9468 43.2713 42.7085 43.5996C42.9845 43.9296 43.1558 44.3801 43.1558 44.8701C43.1557 45.8101 42.5462 46.5904 41.7622 46.6904C41.7622 46.7 41.7632 46.7002 41.7632 46.71L41.7485 47.0049C41.6062 48.4579 40.4233 49.6063 38.9536 49.7002C38.7226 51.2701 37.6252 52.4896 36.2544 52.6797C35.6824 53.4596 34.8323 53.9501 33.8823 53.9502V52.4502C34.2823 52.4501 34.7105 52.25 35.0454 51.79L35.1411 51.6719C35.3766 51.4099 35.6976 51.2429 36.0483 51.1904C36.6282 51.1104 37.3141 50.5301 37.4692 49.4805L37.4946 49.3506C37.6466 48.7157 38.1963 48.2472 38.8589 48.2002C39.6387 48.1505 40.2557 47.507 40.2622 46.7227C40.2621 46.7148 40.2622 46.7069 40.2622 46.7002C40.2582 45.9502 40.8141 45.31 41.561 45.21C41.5142 45.21 41.5249 45.2296 41.5669 45.1797C41.6079 45.1197 41.6557 45.02 41.6558 44.8701C41.6558 44.7204 41.6031 44.6107 41.5581 44.5605C41.2281 44.1705 41.1228 43.6296 41.2788 43.1396C41.4338 42.65 41.829 42.2805 42.3247 42.1504C43.0417 41.9604 43.5005 41.35 43.5005 40.71Z" fill="#1A1A1A"/>
<path d="M6.88818 31.9004C6.88618 31.9105 6.88334 31.9304 6.88037 31.9502C6.88336 31.9402 6.88717 31.9203 6.88818 31.9004Z" fill="#1A1A1A"/>
<path d="M38.7422 32.7101C38.7422 38.7701 32.5272 43.9601 24.4922 43.9601C16.4572 43.9601 10.2422 38.7701 10.2422 32.7101C10.2422 26.6411 16.4572 21.457 24.4922 21.457C32.5272 21.457 38.7422 26.6411 38.7422 32.7101Z" fill="#678E79"/>
<path d="M37.9922 32.71C37.9921 27.2003 32.2747 22.207 24.4922 22.207C16.7097 22.207 10.9923 27.2003 10.9922 32.71C10.9922 38.2108 16.7097 43.21 24.4922 43.21C32.2746 43.21 37.9922 38.2108 37.9922 32.71ZM39.4922 32.71C39.4922 39.3292 32.7797 44.71 24.4922 44.71C16.2046 44.71 9.49219 39.3292 9.49219 32.71C9.49227 26.0817 16.2048 20.707 24.4922 20.707C32.7795 20.707 39.4921 26.0817 39.4922 32.71Z" fill="#476656"/>
<path d="M13.2593 38.2701L12.4593 36.6401C12.2083 36.1301 12.4333 35.5201 12.9533 35.2901L33.9613 26.0221C34.5523 25.7611 35.2323 26.1211 35.3483 26.7571L36.9393 35.4401C37.0443 36.0201 36.6373 36.5601 36.0563 36.6201L14.2583 38.8301C13.8423 38.8701 13.4433 38.6501 13.2593 38.2701Z" fill="#92DA40"/>
<path d="M33.6582 25.3357C34.6925 24.8789 35.8825 25.5091 36.086 26.6218L37.6768 35.3044L36.6641 35.489L36.9395 35.4402L37.6768 35.3044L37.6778 35.3064C37.8603 36.3147 37.1503 37.2607 36.1338 37.366H36.1319L36.0567 36.6199L36.0039 36.1062L36.1319 37.366L14.334 39.5759L14.3301 39.5769L14.2588 38.8327L14.2471 38.7185L14.3301 39.5769C13.6057 39.6465 12.9064 39.2629 12.584 38.5974L11.7861 36.9714L11.7139 36.8015C11.3973 35.9438 11.8012 34.9798 12.6504 34.6042L33.6582 25.3357L34.2637 26.7087L13.2559 35.9753C13.122 36.0348 13.0711 36.1859 13.1319 36.3093L13.9326 37.9392L13.1836 38.3064L13.2598 38.2702L13.9326 37.9392L13.9346 37.9431C13.9799 38.0366 14.0772 38.0918 14.1836 38.0827L35.9795 35.8738L36.0313 35.863C36.148 35.8255 36.2245 35.7072 36.2012 35.5749L34.6104 26.8923C34.5813 26.7339 34.4119 26.643 34.2647 26.7077L33.6582 25.3357Z" fill="#78B136"/>
<path d="M17.0115 40.1901L17.0165 40.0701C17.0365 39.5501 17.4475 39.1301 17.9635 39.1101L32.6085 38.3401C33.7165 38.2801 34.0805 39.8001 33.0655 40.2501L26.3455 43.2401C26.1375 43.3301 25.9045 43.3501 25.6845 43.2901L17.7555 41.2001C17.3025 41.0801 16.9935 40.6601 17.0115 40.1901Z" fill="#92DA40"/>
<path d="M32.5682 37.5914C34.5119 37.4865 35.1416 40.1502 33.369 40.9361L33.368 40.9351L26.6502 43.9254L26.6434 43.9283C26.2878 44.0822 25.8826 44.1191 25.493 44.0142V44.0152L17.5643 41.9254H17.5633L17.7069 41.3844L17.7684 41.151L17.5633 41.9254C16.7686 41.7148 16.2303 40.9797 16.2615 40.1617L17.161 40.1959L17.0067 40.189L16.2615 40.1617V40.1588L16.2674 40.0416H16.2664C16.3009 39.1444 17.0105 38.4018 17.9237 38.3609L32.5682 37.5924V37.5914ZM32.6082 38.3404L32.6492 39.0894H32.6473L18.0028 39.859L17.992 39.8599L17.9647 39.1324L17.9627 39.1002L17.992 39.8599C17.8784 39.8645 17.7708 39.96 17.7654 40.0992V40.1012L17.7606 40.2213C17.757 40.3421 17.8368 40.4458 17.9471 40.4752H17.9461L25.8758 42.565L25.8817 42.567L25.9608 42.5738L26.0477 42.5514L32.7606 39.565L32.7615 39.564C32.8473 39.5259 32.8776 39.4811 32.8924 39.4478C32.9111 39.4058 32.9191 39.3459 32.9031 39.2789C32.8871 39.2117 32.8526 39.1611 32.8172 39.1324C32.7893 39.1099 32.7422 39.0845 32.6492 39.0894L32.5936 38.0562L32.6082 38.3404Z" fill="#78B136"/>
<path d="M11.8861 33.4403L11.5031 31.6602C11.4251 31.3002 11.5521 30.9292 11.8341 30.6912L20.9071 22.9962C21.1131 22.8212 21.3821 22.7372 21.6521 22.7642L29.9161 23.5763C30.9101 23.6743 31.1621 25.0082 30.2721 25.4622L13.3181 34.1203C12.7331 34.4103 12.0241 34.0803 11.8861 33.4403Z" fill="#92DA40"/>
<path d="M21.7268 22.018L21.7258 22.019L29.9895 22.8295C31.7291 23.001 32.1701 25.3359 30.6135 26.1303L29.9319 24.7943C30.0021 24.7585 30.032 24.7165 30.0481 24.6811C30.0668 24.6396 30.075 24.5845 30.0637 24.5248C30.0524 24.4651 30.0249 24.4169 29.9924 24.3852C29.9646 24.358 29.9214 24.3304 29.843 24.3227L21.5793 23.5102H21.5774L21.6526 22.7641L21.6965 22.3168L21.5774 23.5102C21.527 23.5052 21.4769 23.5159 21.4338 23.5395L21.3928 23.5678L12.3196 31.2631L12.3176 31.2641C12.2469 31.3239 12.2176 31.414 12.2366 31.5014L12.6194 33.2816C12.6513 33.4296 12.8234 33.5255 12.9817 33.4496L29.9319 24.7943L30.6135 26.1303L13.6594 34.7885L13.6516 34.7924C12.6408 35.2935 11.3974 34.7291 11.1535 33.5981L10.7698 31.8178L10.7707 31.8168C10.6346 31.1848 10.8582 30.5334 11.3508 30.1176L20.4221 22.4242L20.5618 22.3168C20.9005 22.0836 21.3133 21.9767 21.7268 22.018Z" fill="#78B136"/>
<path d="M26.4813 47.2728C26.7767 46.9827 27.2516 46.9872 27.5418 47.2825C27.8319 47.578 27.8274 48.0528 27.532 48.3431L27.41 48.4632L27.408 48.4642L26.8846 47.928L26.825 47.8675L27.408 48.4642C25.7278 50.1046 23.026 50.0394 21.4275 48.3187C21.1456 48.0152 21.1631 47.54 21.4666 47.2581C21.7701 46.9762 22.2452 46.9937 22.5272 47.2972C23.5519 48.4003 25.2832 48.4424 26.3602 47.3909V47.3919L26.4813 47.2728Z" fill="#1A1A1A"/>
<path d="M29.1735 45.21C29.8335 45.21 30.3685 45.7024 30.3685 46.31C30.3685 46.9175 29.8335 47.41 29.1735 47.41C28.5135 47.41 27.9785 46.9175 27.9785 46.31C27.9785 45.7024 28.5135 45.21 29.1735 45.21Z" fill="#1A1A1A"/>
<path d="M19.1735 45.21C18.5135 45.21 17.9785 45.7024 17.9785 46.31C17.9785 46.9175 18.5135 47.41 19.1735 47.41C19.8335 47.41 20.3685 46.9175 20.3685 46.31C20.3685 45.7024 19.8335 45.21 19.1735 45.21Z" fill="#1A1A1A"/>
</svg>
