<svg width="48" height="55" viewBox="0 0 48 55" fill="none" xmlns="http://www.w3.org/2000/svg">
<path d="M24.9997 15.707C26.0447 15.707 26.9637 16.2421 27.5007 17.0521C27.7597 16.8351 28.0777 16.707 28.4217 16.707C29.1667 16.707 29.7897 17.3081 29.9547 18.1151C30.0537 18.1371 30.1527 18.1581 30.2507 18.1811C30.7707 17.7291 31.4177 17.4601 32.1177 17.4601C33.2977 17.4601 34.3247 18.2221 34.8537 19.3441C34.9417 19.3351 35.0297 19.3311 35.1197 19.3311C36.2617 19.3311 37.2227 20.0971 37.5207 21.1431C37.6767 21.1181 37.8367 21.1061 37.9997 21.1061C39.6567 21.1061 40.9997 22.4491 40.9997 24.1061C40.9997 24.3681 40.9617 24.6201 40.8987 24.8621C41.8547 25.2141 42.5357 26.13 42.5357 27.207C42.5357 27.209 42.5347 27.2111 42.5347 27.2141C43.3537 27.2811 43.9997 28.072 43.9997 29.04C43.9997 29.522 43.8377 29.9601 43.5747 30.2881C44.4317 30.9331 44.9997 32.0501 44.9997 33.3301C44.9997 33.9101 44.8807 34.4601 44.6707 34.9501C44.8787 35.3501 44.9997 35.8001 44.9997 36.2801C44.9997 37.1601 44.6057 37.9501 43.9817 38.4901C44.6057 39.0401 44.9997 39.8301 44.9997 40.7101C44.9997 42.0901 44.0287 43.25 42.7077 43.6C42.9837 43.93 43.1557 44.3801 43.1557 44.8701C43.1557 45.8101 42.5457 46.5901 41.7617 46.6901C41.7617 46.7001 41.7627 46.7001 41.7627 46.7101C41.7627 48.3001 40.5207 49.6001 38.9527 49.7001C38.7217 51.2701 37.6247 52.4901 36.2537 52.6801C35.6817 53.4601 34.8317 53.9501 33.8817 53.9501C33.2877 53.9501 32.7317 53.76 32.2597 53.42C31.6877 54.21 30.8347 54.7101 29.8817 54.7101C29.1197 54.7101 28.4217 54.39 27.8807 53.86C27.3397 54.39 26.6427 54.7101 25.8817 54.7101C24.8587 54.7101 23.9497 54.1301 23.3817 53.2501C22.8127 54.1301 21.9047 54.7101 20.8817 54.7101C20.1197 54.7101 19.4217 54.39 18.8807 53.86C18.3397 54.39 17.6427 54.7101 16.8817 54.7101C15.3747 54.7101 14.1167 53.4601 13.8257 51.8101C13.4207 52.0601 12.9597 52.2001 12.4707 52.2001C11.4437 52.2001 10.5437 51.5801 10.0267 50.6501C9.85667 50.6901 9.68068 50.7101 9.49968 50.7101C8.16068 50.7101 7.06968 49.6501 7.00568 48.3301C6.15268 47.8901 5.58469 47.1001 5.58469 46.2101C5.58469 45.6401 5.81468 45.1101 6.19968 44.6901C5.09568 44.5701 4.23367 43.5001 4.23367 42.2101C4.23367 41.4701 4.51068 40.82 4.94968 40.36C3.99668 39.86 3.34668 38.8601 3.34668 37.7101C3.34668 36.6501 3.89668 35.7201 4.72668 35.1801C4.20468 34.8801 3.84367 34.26 3.84367 33.54C3.84367 32.54 4.53867 31.7201 5.39967 31.7101L5.40068 31.7001C5.14768 31.2601 4.99968 30.751 4.99968 30.207C4.99968 29.04 5.66668 28.031 6.63968 27.535C6.62668 27.427 6.61967 27.318 6.61967 27.207C6.61967 26.12 7.22768 25.1971 8.07568 24.8521C8.02768 24.6461 7.99968 24.43 7.99968 24.207C7.99968 22.826 8.98068 21.707 10.1897 21.707C10.4787 21.707 10.7537 21.7721 11.0057 21.8871C11.0017 21.8281 10.9997 21.767 10.9997 21.707C10.9997 20.05 12.3427 18.707 13.9997 18.707C14.4577 18.707 14.8907 18.812 15.2787 18.996C15.7697 17.957 16.8547 17.2341 18.1177 17.2341C18.4597 17.2341 18.7887 17.289 19.0967 17.386C19.6137 16.961 20.2777 16.707 20.9997 16.707C21.5347 16.707 22.0367 16.8491 22.4717 17.0941C23.0047 16.2611 23.9367 15.707 24.9997 15.707Z" fill="#E5F4FF"/>
<path d="M9.83301 49.1592C10.4399 49.0789 11.0398 49.3762 11.3398 49.9199C11.6428 50.4699 12.0867 50.7002 12.4707 50.7002C12.6627 50.7002 12.855 50.65 13.041 50.54L13.2041 50.4531C13.5941 50.2743 14.0451 50.2666 14.4414 50.4502C14.8943 50.6502 15.2167 51.0599 15.3027 51.5498C15.4987 52.6598 16.2688 53.21 16.8818 53.21V54.71L16.6025 54.6953C15.2216 54.5521 14.0992 53.3573 13.8262 51.8105C13.4212 52.0605 12.9597 52.2002 12.4707 52.2002C11.4437 52.2002 10.5434 51.5803 10.0264 50.6504C9.85658 50.6903 9.68076 50.7099 9.5 50.71V49.21C9.56391 49.2099 9.63404 49.1997 9.71191 49.1797L9.83301 49.1592Z" fill="#1A1A1A"/>
<path d="M17.9473 52.6895C18.5309 52.2218 19.3811 52.2556 19.9268 52.79C20.2217 53.07 20.5549 53.21 20.8818 53.21V54.71L20.5986 54.6953C19.9475 54.6267 19.3541 54.3239 18.8809 53.8604C18.3399 54.3903 17.6427 54.7099 16.8818 54.71V53.21C17.2068 53.2099 17.54 53.07 17.835 52.79L17.9473 52.6895Z" fill="#1A1A1A"/>
<path d="M23.3818 51.75C23.8918 51.7501 24.3676 52.0105 24.6436 52.4404C24.9835 52.9703 25.4519 53.21 25.8818 53.21V54.71L25.6914 54.7031C24.7465 54.6362 23.9144 54.075 23.3818 53.25C22.8129 54.13 21.9048 54.7099 20.8818 54.71V53.21C21.3118 53.2099 21.7792 52.9703 22.1201 52.4404L22.2324 52.2871C22.5152 51.9493 22.9347 51.75 23.3818 51.75Z" fill="#1A1A1A"/>
<path d="M26.9473 52.6895C27.5309 52.2218 28.3811 52.2556 28.9268 52.79C29.2217 53.07 29.5549 53.21 29.8818 53.21V54.71L29.5986 54.6953C28.9475 54.6267 28.3541 54.3239 27.8809 53.8604C27.3399 54.3903 26.6427 54.7099 25.8818 54.71V53.21C26.2068 53.2099 26.54 53.07 26.835 52.79L26.9473 52.6895Z" fill="#1A1A1A"/>
<path d="M31.1436 52.4219C31.6466 51.8635 32.4999 51.7596 33.127 52.2002C33.3679 52.3701 33.6239 52.4502 33.8818 52.4502V53.9502L33.6611 53.9414C33.1502 53.9004 32.6729 53.7175 32.2598 53.4199C31.6878 54.2099 30.8348 54.7099 29.8818 54.71V53.21C30.2828 53.2099 30.7129 53 31.0479 52.54L31.1436 52.4219Z" fill="#1A1A1A"/>
<path d="M43.5 40.71C43.5 40.29 43.3162 39.9101 42.9912 39.6201C42.6674 39.3402 42.4815 38.9301 42.4814 38.4902C42.4814 38.0604 42.6674 37.6501 42.9912 37.3701C43.3162 37.0802 43.4999 36.7002 43.5 36.2803C43.5 36.0603 43.4439 35.8396 43.3389 35.6396C43.132 35.2397 43.115 34.7695 43.293 34.3496C43.4228 34.0497 43.5 33.7099 43.5 33.3301C43.5 32.4902 43.1248 31.8303 42.6729 31.4902C42.3489 31.2402 42.1369 30.8766 42.0869 30.4746C42.036 30.0717 42.1504 29.6655 42.4043 29.3496C42.4493 29.2926 42.5 29.187 42.5 29.04C42.5 28.8871 42.4482 28.7834 42.4062 28.7314C42.394 28.7162 42.3843 28.7085 42.3789 28.7041C41.6151 28.6238 41.0332 27.9809 41.0352 27.21C41.0352 27.2067 41.0351 27.2034 41.0352 27.2002C41.0323 26.7762 40.7646 26.4118 40.3809 26.2705C39.657 26.0036 39.2535 25.2313 39.4473 24.4844C39.4822 24.3485 39.5 24.2233 39.5 24.1064C39.5 23.2786 38.8279 22.6066 38 22.6064C37.9559 22.6064 37.9133 22.6082 37.873 22.6113L37.6182 22.6396C36.9203 22.6861 36.275 22.2399 36.0791 21.5557C35.959 21.1339 35.5718 20.8313 35.1201 20.8311C35.0801 20.8311 35.0437 20.8329 35.0117 20.8359C34.3779 20.9029 33.7701 20.5621 33.498 19.9854C33.1662 19.2806 32.608 18.9602 32.1182 18.96C31.8162 18.96 31.5114 19.0735 31.2354 19.3135C30.8704 19.6302 30.3761 19.7516 29.9062 19.6406C29.8214 19.6207 29.7335 19.602 29.6357 19.5811C29.0557 19.4541 28.6044 18.997 28.4854 18.416C28.4686 18.3336 28.4362 18.2779 28.4102 18.2422C28.0906 18.4874 27.6859 18.5948 27.2852 18.5371C26.8632 18.4761 26.487 18.2369 26.251 17.8809C25.979 17.4709 25.5189 17.2071 25 17.207C24.472 17.207 24.0054 17.4803 23.7354 17.9023C23.3063 18.5731 22.4273 18.7923 21.7334 18.4014C21.5145 18.2774 21.2658 18.2071 21 18.207C20.6361 18.207 20.3068 18.334 20.0488 18.5459C19.6558 18.8679 19.1266 18.9704 18.6426 18.8164C18.4747 18.7635 18.3 18.7344 18.1182 18.7344C17.4353 18.7344 16.8778 19.1239 16.6357 19.6357C16.4658 19.9956 16.16 20.2742 15.7852 20.4082C15.4112 20.5422 14.9976 20.5225 14.6377 20.3525C14.4398 20.2586 14.2249 20.2071 14 20.207C13.172 20.207 12.5 20.878 12.5 21.707C12.5 21.73 12.5009 21.7589 12.5029 21.7979C12.5339 22.3239 12.2875 22.828 11.8525 23.125C11.4176 23.4229 10.8588 23.4699 10.3799 23.251C10.3119 23.22 10.2495 23.207 10.1895 23.207C10.0685 23.2071 9.91641 23.2589 9.76953 23.4277C9.61953 23.5987 9.5 23.87 9.5 24.207C9.5 24.304 9.51214 24.4058 9.53711 24.5107C9.70511 25.2297 9.32463 25.9642 8.64062 26.2422C8.42463 26.3302 8.12012 26.6551 8.12012 27.207C8.12012 27.254 8.12288 27.3053 8.12988 27.3643C8.20079 27.9862 7.87825 28.5871 7.32031 28.8711C6.82849 29.1221 6.5 29.6282 6.5 30.207C6.5 30.476 6.57217 30.7281 6.70117 30.9521C6.88705 31.2701 6.94419 31.6506 6.86621 32.0205L6.83398 32.1475C6.64704 32.7591 6.09708 33.1847 5.45703 33.208C5.45305 33.2111 5.44708 33.2141 5.44141 33.2197C5.39841 33.2697 5.34375 33.38 5.34375 33.54C5.34375 33.6498 5.37041 33.7398 5.40332 33.7998C5.43791 33.8591 5.46998 33.8794 5.47168 33.8799C5.92655 34.1398 6.21244 34.6198 6.22559 35.1396C6.23958 35.6696 5.97901 36.1604 5.53809 36.4404C5.11812 36.7204 4.84672 37.18 4.84668 37.71C4.84668 38.2799 5.16749 38.7803 5.64941 39.0303C6.06541 39.2503 6.35566 39.6601 6.43066 40.1201C6.50564 40.5901 6.35724 41.0604 6.03125 41.4004C5.86843 41.5704 5.73343 41.8503 5.7334 42.21C5.7334 42.89 6.16805 43.1802 6.37305 43.2002C6.93282 43.2703 7.40847 43.6401 7.60547 44.1699C7.80246 44.6999 7.68661 45.29 7.30664 45.71C7.13969 45.8899 7.08499 46.06 7.08496 46.21C7.08496 46.4199 7.22458 46.75 7.69434 47C8.16925 47.24 8.47781 47.7199 8.50391 48.2598C8.52991 48.7898 8.967 49.21 9.5 49.21V50.71L9.25195 50.6982C8.02843 50.5771 7.06587 49.5677 7.00586 48.3301C6.20624 47.9176 5.65642 47.1976 5.59082 46.376L5.58496 46.21C5.58499 45.6402 5.81448 45.1103 6.19922 44.6904C5.09542 44.5702 4.2334 43.4998 4.2334 42.21C4.23343 41.4702 4.51046 40.8203 4.94922 40.3604C3.99635 39.8603 3.34668 38.8599 3.34668 37.71C3.34672 36.65 3.89659 35.7197 4.72656 35.1797C4.23732 34.8984 3.88922 34.3362 3.84766 33.6738L3.84375 33.54C3.84375 32.5401 4.53853 31.7201 5.39941 31.71L5.40039 31.7002C5.17901 31.3152 5.03861 30.8771 5.00684 30.4092L5 30.207C5 29.0401 5.66669 28.0312 6.63965 27.5352C6.63315 27.4811 6.62838 27.4267 6.625 27.3721L6.62012 27.207C6.62012 26.12 7.22817 25.1975 8.07617 24.8525C8.04018 24.6981 8.01501 24.5375 8.00488 24.373L8 24.207C8 22.8261 8.98056 21.7072 10.1895 21.707C10.4785 21.707 10.7539 21.7717 11.0059 21.8867C11.0019 21.8278 11 21.7669 11 21.707C11 20.05 12.343 18.707 14 18.707L14.1699 18.7119C14.5085 18.7313 14.8316 18.8078 15.1309 18.9307L15.2783 18.9961C15.7693 17.9571 16.8552 17.2344 18.1182 17.2344L18.3721 17.2441C18.6231 17.2642 18.8658 17.3131 19.0967 17.3857C19.6137 16.9608 20.2781 16.707 21 16.707L21.1982 16.7139C21.6588 16.7443 22.091 16.8794 22.4717 17.0938C23.0047 16.2609 23.9371 15.707 25 15.707L25.1943 15.7129C26.1582 15.7747 26.9976 16.2925 27.501 17.0518C27.7599 16.8349 28.078 16.707 28.4219 16.707C29.1668 16.7071 29.7901 17.3083 29.9551 18.1152L30.251 18.1807C30.7709 17.7289 31.4183 17.46 32.1182 17.46L32.3369 17.4688C33.4239 17.5565 34.3575 18.292 34.8535 19.3438C34.9415 19.3347 35.0301 19.3311 35.1201 19.3311L35.332 19.3398C36.3096 19.4221 37.1254 20.0675 37.457 20.9502L37.5205 21.1436C37.6765 21.1186 37.837 21.1064 38 21.1064L38.1543 21.1104C39.7394 21.1908 41 22.5013 41 24.1064L40.9932 24.3008C40.9795 24.4935 40.9457 24.6808 40.8984 24.8623C41.8544 25.2143 42.5361 26.13 42.5361 27.207C42.5361 27.209 42.5352 27.211 42.5352 27.2139C43.3539 27.2811 44 28.0722 44 29.04L43.9922 29.2188C43.9576 29.6299 43.8043 30.0011 43.5742 30.2881C44.4312 30.9331 45 32.0501 45 33.3301L44.9941 33.5459C44.9685 34.0465 44.8547 34.5214 44.6709 34.9502C44.8788 35.3501 45 35.8003 45 36.2803L44.9951 36.4443C44.9495 37.2581 44.5664 37.9841 43.9814 38.4902C44.6054 39.0402 45 39.83 45 40.71L44.9883 40.9658C44.8769 42.2316 43.9463 43.2713 42.708 43.5996C42.984 43.9296 43.1553 44.3801 43.1553 44.8701C43.1552 45.8101 42.5457 46.5904 41.7617 46.6904C41.7617 46.7 41.7627 46.7002 41.7627 46.71L41.748 47.0049C41.6057 48.4579 40.4228 49.6063 38.9531 49.7002C38.7221 51.2701 37.6248 52.4896 36.2539 52.6797C35.6819 53.4596 34.8318 53.9501 33.8818 53.9502V52.4502C34.2818 52.4501 34.71 52.25 35.0449 51.79L35.1406 51.6719C35.3762 51.4099 35.6971 51.2429 36.0479 51.1904C36.6278 51.1104 37.3136 50.5301 37.4688 49.4805L37.4941 49.3506C37.6461 48.7157 38.1958 48.2472 38.8584 48.2002C39.6382 48.1505 40.2552 47.507 40.2617 46.7227C40.2616 46.7148 40.2617 46.7069 40.2617 46.7002C40.2577 45.9502 40.8136 45.31 41.5605 45.21C41.5137 45.21 41.5244 45.2296 41.5664 45.1797C41.6074 45.1197 41.6553 45.02 41.6553 44.8701C41.6553 44.7204 41.6026 44.6107 41.5576 44.5605C41.2276 44.1705 41.1223 43.6296 41.2783 43.1396C41.4333 42.65 41.8286 42.2805 42.3242 42.1504C43.0412 41.9604 43.5 41.35 43.5 40.71Z" fill="#1A1A1A"/>
<path d="M6.8877 31.9004C6.8857 31.9105 6.88285 31.9304 6.87988 31.9502C6.88287 31.9402 6.88668 31.9203 6.8877 31.9004Z" fill="#1A1A1A"/>
<path d="M38.7417 32.7101C38.7417 38.7701 32.5267 43.9601 24.4917 43.9601C16.4567 43.9601 10.2417 38.7701 10.2417 32.7101C10.2417 26.6411 16.4567 21.457 24.4917 21.457C32.5267 21.457 38.7417 26.6411 38.7417 32.7101Z" fill="#047195"/>
<path d="M37.9917 32.71C37.9916 27.2003 32.2742 22.207 24.4917 22.207C16.7092 22.207 10.9918 27.2003 10.9917 32.71C10.9917 38.2108 16.7092 43.21 24.4917 43.21C32.2742 43.21 37.9917 38.2108 37.9917 32.71ZM39.4917 32.71C39.4917 39.3292 32.7792 44.71 24.4917 44.71C16.2042 44.71 9.4917 39.3292 9.4917 32.71C9.49178 26.0817 16.2043 20.707 24.4917 20.707C32.7791 20.707 39.4916 26.0817 39.4917 32.71Z" fill="#085A78"/>
<path d="M36.1291 38.2701L36.9301 36.6401C37.1801 36.1301 36.9551 35.5201 36.4351 35.2901L15.4271 26.0221C14.8361 25.7611 14.1561 26.1211 14.0401 26.7571L12.4492 35.4401C12.3442 36.0201 12.7511 36.5601 13.3321 36.6201L35.1302 38.8301C35.5462 38.8701 35.9451 38.6501 36.1291 38.2701Z" fill="#80CAFF"/>
<path d="M13.3026 26.6218C13.506 25.5091 14.696 24.8789 15.7303 25.3357L15.7293 25.3367L36.7381 34.6042L36.9022 34.6872C37.6906 35.1382 38.015 36.1306 37.6034 36.9704L36.8026 38.6013L36.8016 38.6003C36.4785 39.2637 35.7815 39.6463 35.0584 39.5769L35.1415 38.7185L35.1297 38.8327L35.0584 39.5769L35.0545 39.5759L13.2567 37.366L13.3846 36.1052L13.3319 36.6199L13.2567 37.366H13.2547C12.2382 37.2608 11.5282 36.3147 11.7108 35.3064L11.7118 35.3044L12.4491 35.4402L12.6678 35.4792L11.7118 35.3044L13.3026 26.6218ZM15.1239 26.7077C14.9766 26.6429 14.8073 26.7329 14.7782 26.8913V26.8923L13.1864 35.573C13.1589 35.7245 13.2638 35.8587 13.409 35.8738H13.4081L35.204 38.0827C35.3107 38.0922 35.4086 38.0368 35.454 37.9431L35.4559 37.9392L36.2567 36.3093C36.3171 36.1853 36.2656 36.0356 36.1317 35.9763V35.9753L15.1239 26.7087V26.7077ZM15.4266 26.0222L15.1297 26.696L15.4266 26.0222Z" fill="#0D99FF"/>
<path d="M32.3766 40.1901L32.3716 40.0701C32.3516 39.5501 31.9406 39.1301 31.4246 39.1101L16.7806 38.3401C15.6726 38.2801 15.3086 39.8001 16.3226 40.2501L23.0436 43.2401C23.2516 43.3301 23.4846 43.3501 23.7046 43.2901L31.6326 41.2001C32.0856 41.0801 32.3946 40.6601 32.3766 40.1901Z" fill="#80CAFF"/>
<path d="M16.8217 37.5914L16.8207 37.5924L31.4642 38.3609C32.3771 38.4011 33.0856 39.1422 33.1215 40.0387L33.1263 40.1588V40.1617L32.3773 40.19L32.2269 40.1959L33.1263 40.1617C33.1576 40.9797 32.6193 41.7149 31.8246 41.9254L23.8959 44.0152L23.8949 44.0143C23.5057 44.1186 23.1016 44.0819 22.7465 43.9283L22.7386 43.9254L23.0443 43.2399L23.0531 43.2184L22.7386 43.9254L16.0189 40.9352C14.2469 40.1488 14.8783 37.4862 16.8217 37.5914ZM16.7416 39.0895L16.6781 39.0904C16.6244 39.0967 16.5926 39.1155 16.5717 39.1324C16.5362 39.1612 16.5018 39.2116 16.4857 39.2789C16.4696 39.3461 16.4777 39.4068 16.4965 39.4488C16.5113 39.4821 16.542 39.5272 16.6273 39.565L23.3412 42.5514C23.3996 42.5767 23.4587 42.5801 23.5072 42.567L23.514 42.565L31.4408 40.4752C31.5512 40.4459 31.6309 40.3422 31.6273 40.2213L31.6224 40.1012V40.0992L31.6156 40.0484C31.5897 39.937 31.4953 39.8638 31.3959 39.86L31.4271 39.0709L31.3851 39.859L16.7416 39.0895ZM31.3959 39.86L31.3851 39.859L31.4252 39.11L31.3959 39.86Z" fill="#0D99FF"/>
<path d="M37.4909 33.4403L37.8729 31.6602C37.9509 31.3002 37.8239 30.9292 37.5429 30.6912L28.4699 22.9962C28.2629 22.8212 27.9939 22.7372 27.7249 22.7642L19.4609 23.5763C18.4669 23.6743 18.2139 25.0082 19.1039 25.4622L36.0589 34.1203C36.6429 34.4103 37.3519 34.0803 37.4909 33.4403Z" fill="#80CAFF"/>
<path d="M27.6506 22.018C28.1229 21.9707 28.5932 22.118 28.9543 22.4232L28.9553 22.4242L38.0275 30.1186C38.5183 30.5342 38.7418 31.185 38.6057 31.8168L38.2248 33.5971L38.2238 33.599L37.4914 33.4398L37.4533 33.4311L38.2238 33.599C37.9787 34.7278 36.7367 35.2941 35.7258 34.7924L36.0588 34.1205L36.0422 34.1518L35.7258 34.7924L35.718 34.7885L18.7629 26.1303L19.4455 24.7943L36.3928 33.4486L36.4523 33.4701C36.5915 33.502 36.7293 33.4128 36.758 33.2807L37.1398 31.5023C37.1588 31.4147 37.1295 31.323 37.0588 31.2631L27.9855 23.5687C27.9328 23.5243 27.8654 23.5036 27.8 23.5102L27.6809 22.3168L27.7248 22.7641L27.8 23.5102H27.798L19.5344 24.3227C19.4562 24.3304 19.4129 24.3579 19.385 24.3852C19.3524 24.4169 19.3241 24.4652 19.3127 24.5248C19.3014 24.5845 19.3098 24.6398 19.3283 24.6811C19.3443 24.7164 19.3753 24.7585 19.4455 24.7943L18.7629 26.1303C17.2044 25.3349 17.6503 23.0008 19.3879 22.8295L27.6506 22.018Z" fill="#0D99FF"/>
<path d="M26.4808 47.2728C26.7762 46.9827 27.2511 46.9872 27.5413 47.2825C27.8314 47.578 27.8269 48.0528 27.5315 48.3431L27.4095 48.4632L27.4075 48.4642L26.8841 47.928L26.8245 47.8675L27.4075 48.4642C25.7273 50.1046 23.0255 50.0394 21.4271 48.3187C21.1452 48.0152 21.1627 47.54 21.4661 47.2581C21.7696 46.9762 22.2448 46.9937 22.5267 47.2972C23.5514 48.4003 25.2827 48.4424 26.3597 47.3909V47.3919L26.4808 47.2728Z" fill="#1A1A1A"/>
<path d="M29.173 45.21C29.833 45.21 30.368 45.7024 30.368 46.31C30.368 46.9175 29.833 47.41 29.173 47.41C28.513 47.41 27.978 46.9175 27.978 46.31C27.978 45.7024 28.513 45.21 29.173 45.21Z" fill="#1A1A1A"/>
<path d="M19.173 45.21C18.513 45.21 17.978 45.7024 17.978 46.31C17.978 46.9175 18.513 47.41 19.173 47.41C19.833 47.41 20.368 46.9175 20.368 46.31C20.368 45.7024 19.833 45.21 19.173 45.21Z" fill="#1A1A1A"/>
</svg>
