<svg width="48" height="55" viewBox="0 0 48 55" fill="none" xmlns="http://www.w3.org/2000/svg">
<path d="M33.5332 32.46C38.2445 32.46 42.2205 35.6 43.4932 39.9C44.3952 40.42 45 41.37 45 42.46C45 43.23 44.6963 43.93 44.2012 44.46C44.6963 44.99 45 45.69 45 46.46C45 47.37 44.5754 48.1899 43.9082 48.7399C43.9657 48.9699 44 49.21 44 49.46C44 51.12 42.6569 52.46 41 52.46C40.4521 52.46 39.9401 52.3099 39.498 52.0499C38.9422 53.0499 37.9785 53.71 36.8818 53.71C36.6206 53.71 36.3665 53.6699 36.124 53.5999C35.557 54.2799 34.7627 54.71 33.8818 54.71C33.1203 54.71 32.4224 54.3899 31.8809 53.8599C31.3395 54.3899 30.643 54.71 29.8818 54.71C29.1203 54.71 28.4224 54.3899 27.8809 53.8599C27.3395 54.3899 26.643 54.71 25.8818 54.71C24.8585 54.71 23.9505 54.1299 23.3818 53.2499C22.8133 54.1299 21.9051 54.71 20.8818 54.71C20.1203 54.71 19.4224 54.3899 18.8809 53.8599C18.3395 54.3899 17.643 54.71 16.8818 54.71C15.8344 54.71 14.9083 54.1099 14.3428 53.1899C14.2334 53.1699 14.1249 53.16 14.0166 53.14C13.4869 53.8 12.7382 54.21 11.9043 54.21C11.0567 54.21 10.2966 53.7899 9.76562 53.1099C9.394 53.3299 8.96256 53.46 8.5 53.46C7.11929 53.46 6 52.34 6 50.96C6 50.32 6.23972 49.7399 6.63184 49.2999C5.67965 48.9499 5 48.03 5 46.96C5 46.64 5.06042 46.3399 5.16797 46.0599C4.49564 45.8499 4 45.1399 4 44.2899C4.00002 44.1599 4.01119 44.0399 4.0332 43.9099C4.01064 43.7699 4 43.61 4 43.46C4 42.5 4.44979 41.6499 5.14844 41.0999C5.97939 36.1999 10.2467 32.46 15.3887 32.46H33.5332Z" fill="white"/>
<path d="M14.4922 51.6904C14.8999 51.7342 15.271 51.9384 15.5215 52.2568L15.6211 52.4004L15.7549 52.5957C16.0818 53.0188 16.4977 53.2099 16.8818 53.21V54.71C15.834 54.7099 14.9078 54.1102 14.3428 53.1904C14.2328 53.1704 14.1246 53.1596 14.0166 53.1396L14.2129 51.6602C14.3469 51.6702 14.4142 51.6804 14.4922 51.6904Z" fill="#1A1A1A"/>
<path d="M18.8779 53.8623C18.3373 54.3907 17.6415 54.71 16.8818 54.71V53.21C17.2068 53.21 17.54 53.07 17.835 52.79L18.8779 53.8623Z" fill="#1A1A1A"/>
<path d="M19.9268 52.79C20.2217 53.07 20.5549 53.2099 20.8818 53.21V54.71C20.1209 54.7099 19.4235 54.391 18.8828 53.8623L19.9268 52.79Z" fill="#1A1A1A"/>
<path d="M23.3818 51.75C23.8918 51.75 24.3676 52.0104 24.6436 52.4404C24.9835 52.9703 25.4519 53.2099 25.8818 53.21V54.71C24.8589 54.7099 23.9498 54.13 23.3818 53.25C22.8128 54.1299 21.9048 54.71 20.8818 54.71V53.21C21.3118 53.21 21.7791 52.9702 22.1201 52.4404L22.2324 52.2871C22.5152 51.9492 22.9347 51.75 23.3818 51.75Z" fill="#1A1A1A"/>
<path d="M27.8779 53.8623C27.3373 54.3907 26.6415 54.71 25.8818 54.71V53.21C26.2068 53.21 26.54 53.07 26.835 52.79L27.8779 53.8623Z" fill="#1A1A1A"/>
<path d="M28.9268 52.79C29.2217 53.07 29.5549 53.2099 29.8818 53.21V54.71C29.1209 54.7099 28.4235 54.391 27.8828 53.8623L28.9268 52.79Z" fill="#1A1A1A"/>
<path d="M31.8779 53.8623C31.3373 54.3907 30.6415 54.71 29.8818 54.71V53.21C30.2068 53.21 30.54 53.07 30.835 52.79L31.8779 53.8623Z" fill="#1A1A1A"/>
<path d="M32.9268 52.79C33.2217 53.07 33.5549 53.2099 33.8818 53.21V54.71C33.1209 54.7099 32.4235 54.391 31.8828 53.8623L32.9268 52.79Z" fill="#1A1A1A"/>
<path d="M34.9697 52.6396C35.3517 52.1797 35.969 51.9902 36.542 52.1602C36.6539 52.1901 36.7669 52.2099 36.8818 52.21V53.71C36.6209 53.7099 36.367 53.6696 36.124 53.5996C35.557 54.2796 34.7628 54.71 33.8818 54.71V53.21C34.2538 53.21 34.6457 53.0296 34.9697 52.6396Z" fill="#1A1A1A"/>
<path d="M9.00391 51.8203C9.60942 51.4641 10.3758 51.5732 10.8516 52.0742L10.9434 52.1797L11.0547 52.3086C11.3216 52.5873 11.6242 52.71 11.9043 52.71V54.21L11.7461 54.2051C10.9628 54.1564 10.2634 53.7478 9.76562 53.1104C9.39373 53.3302 8.96281 53.46 8.5 53.46V51.96C8.67991 51.96 8.84997 51.9102 9.00391 51.8203Z" fill="#1A1A1A"/>
<path d="M14.0137 53.1426C13.4839 53.8006 12.7368 54.2099 11.9043 54.21V52.71C12.2191 52.7099 12.5607 52.5598 12.8506 52.2002L14.0137 53.1426Z" fill="#1A1A1A"/>
<path d="M17.835 52.79C18.4169 52.2201 19.3448 52.2201 19.9268 52.79L18.8809 53.8604L17.835 52.79Z" fill="#1A1A1A"/>
<path d="M26.835 52.79C27.4169 52.2201 28.3448 52.2201 28.9268 52.79L27.8809 53.8604L26.835 52.79Z" fill="#1A1A1A"/>
<path d="M30.835 52.79C31.4169 52.2201 32.3448 52.2201 32.9268 52.79L31.8809 53.8604L30.835 52.79Z" fill="#1A1A1A"/>
<path d="M39.4951 52.0537C38.9388 53.0514 37.9763 53.71 36.8818 53.71V52.21C37.3388 52.21 37.8485 51.9303 38.1895 51.3203L39.4951 52.0537Z" fill="#1A1A1A"/>
<path d="M5.14746 41.0996L6.07617 42.2803C5.72119 42.5603 5.5 42.98 5.5 43.46C5.5 43.5048 5.50118 43.5447 5.50391 43.582L5.51562 43.6904L5.5293 43.8115C5.53787 43.9343 5.53126 44.0597 5.50879 44.1797L4.04688 43.9121L4.03223 43.915L5.50879 44.1797C5.50379 44.2097 5.5 44.25 5.5 44.29C5.50002 44.42 5.53916 44.5201 5.57715 44.5801C5.59725 44.6095 5.61321 44.6244 5.62109 44.6309L5.61523 44.6299C6.01114 44.7499 6.33759 45.0402 6.51855 45.4102C6.69849 45.78 6.7172 46.2097 6.56836 46.5996C6.52336 46.7196 6.5 46.84 6.5 46.96C6.5 47.3274 6.70411 47.6569 7.01367 47.834L7.15332 47.9004L7.32129 47.9736C7.70145 48.1687 7.98188 48.5203 8.08691 48.9404C8.20672 49.4203 8.0818 49.9299 7.75293 50.2998L6.63281 49.3008L6.63184 49.3047L7.75293 50.2998C7.59293 50.4798 7.5 50.71 7.5 50.96C7.5 51.51 7.948 51.96 8.5 51.96V53.46C7.119 53.46 6 52.34 6 50.96C6 50.32 6.23984 49.7398 6.63184 49.2998C5.67993 48.9498 5 48.0299 5 46.96C5 46.64 5.05997 46.3396 5.16797 46.0596C4.53796 45.8626 4.06271 45.2265 4.00586 44.4473L4 44.29C4 44.1601 4.01123 44.0401 4.0332 43.9102C4.0112 43.7702 4 43.61 4 43.46C4 42.5 4.44957 41.6496 5.14746 41.0996Z" fill="#1A1A1A"/>
<path d="M14.2129 51.6602L14.0166 53.1396L12.8506 52.2002C13.1796 51.7902 13.6949 51.5902 14.2129 51.6602Z" fill="#1A1A1A"/>
<path d="M40.251 50.7598C40.476 50.8898 40.73 50.96 41 50.96V52.46C40.4528 52.46 39.9416 52.3101 39.5 52.0508L40.251 50.7598Z" fill="#1A1A1A"/>
<path d="M42.5 49.46C42.5 49.4049 42.4962 49.3472 42.4883 49.2871L42.4521 49.0996L42.4297 48.9941C42.3384 48.4667 42.5361 47.9268 42.9541 47.5801L43.9072 48.7393L43.9082 48.7402C43.9662 48.9701 44 49.2101 44 49.46C44 51.12 42.657 52.46 41 52.46V50.96C41.828 50.96 42.5 50.29 42.5 49.46Z" fill="#1A1A1A"/>
<path d="M39.1006 50.6104C39.4885 50.5004 39.903 50.5498 40.251 50.7598L39.498 52.0498L38.1895 51.3203C38.3854 50.9705 38.7138 50.7104 39.1006 50.6104Z" fill="#1A1A1A"/>
<path d="M43.5 46.46C43.5 46.1 43.3595 45.7595 43.1045 45.4795C42.5675 44.9095 42.5675 44.0104 43.1045 43.4404C43.3595 43.1604 43.5 42.82 43.5 42.46C43.5 42.0136 43.284 41.5901 42.9082 41.3037L42.7383 41.1904L42.6182 41.1133C42.3488 40.9217 42.1492 40.6439 42.0547 40.3203L43.4893 39.9014L43.4912 39.8965C43.4916 39.8977 43.4928 39.8992 43.4932 39.9004C44.395 40.4204 45 41.3701 45 42.46C45 43.2299 44.6961 43.93 44.2012 44.46C44.6961 44.99 45 45.69 45 46.46C45 47.3688 44.5757 48.1873 43.9102 48.7373L42.9541 47.5801C43.3021 47.2901 43.5 46.89 43.5 46.46Z" fill="#1A1A1A"/>
<path d="M33.9727 32.4688C38.4889 32.657 42.2573 35.7317 43.4912 39.8945L42.0547 40.3203C40.9647 36.6404 37.5611 33.9601 33.5332 33.96H15.3887C10.9909 33.9601 7.33805 37.1599 6.62695 41.3496C6.56495 41.7196 6.36817 42.0503 6.07617 42.2803L5.14746 41.0996C5.97859 36.1999 10.247 32.4601 15.3887 32.46H33.5332L33.9727 32.4688Z" fill="#1A1A1A"/>
<path d="M23.7473 19.46C33.895 19.46 41.8367 26.9899 45.605 31.3799C47.2125 33.2499 47.5389 35.8299 46.7506 38.1699L46.2052 39.7899C45.5158 41.8399 43.3277 42.96 41.305 42.21C35.607 40.08 29.6176 37.28 23.9003 37.28C18.846 37.28 12.5692 40.2599 6.95196 42.3199C5.01518 43.0299 2.92882 41.9899 2.18103 40.0699L1.45849 38.21C0.540866 35.85 0.783348 33.1899 2.40124 31.2499C6.06602 26.8399 13.7013 19.46 23.7473 19.46Z" fill="#BD2915"/>
<path d="M17 38.7101C17 33.7101 16 25.707 16 22.207L17 21.707L24.5 20.707L31 21.707C31 27.307 31.8333 35.2101 32 38.7101L29 38.2101L23 37.7101L17 38.7101Z" fill="#2C2C2C"/>
<path d="M23.7479 19.46C33.8948 19.4601 41.8357 26.9892 45.6044 31.3809C47.2118 33.2519 47.539 35.8288 46.7509 38.1689L46.2059 39.7891L45.3065 39.4863L46.205 39.79C45.5179 41.8234 43.3422 42.9589 41.2909 42.2861C41.1383 42.2393 40.9855 42.1906 40.8397 42.1436C40.6921 42.0959 40.55 42.0507 40.4091 42.0078L40.3934 42.002L40.6278 41.29L40.6327 41.2754L40.3934 42.002C34.9203 40.2031 29.1618 38.3204 23.7479 38.3203C21.2253 38.3203 18.4245 38.8796 15.5604 39.6729L15.5594 39.6719C13.3982 40.2764 11.1905 41.0016 9.03992 41.7119L6.97644 42.3936C5.01331 43.0313 2.92902 41.9869 2.18152 40.0723L3.01843 39.7461L2.7655 39.8438L2.18152 40.0723L1.45886 38.2119C0.541244 35.8509 0.78402 33.193 2.40222 31.25C6.06744 26.8388 13.7025 19.46 23.7479 19.46ZM23.7479 20.96C14.4188 20.96 7.17225 27.8561 3.55554 32.209L3.55456 32.21L2.99109 31.7402L2.77234 31.5586L3.55456 32.21C2.3412 33.6669 2.10288 35.7291 2.85632 37.668L3.57898 39.5273L3.67664 39.7461C4.21008 40.8055 5.40998 41.3248 6.51257 40.9668C7.18654 40.7475 7.87013 40.5191 8.56921 40.2881C10.7172 39.5786 12.9579 38.8429 15.1581 38.2275H15.16C18.0724 37.4209 21.0253 36.8203 23.7479 36.8203C29.4469 36.8204 35.4433 38.7961 40.8622 40.5771C41.0114 40.6227 41.1591 40.6701 41.3007 40.7158L41.7313 40.8525L41.7391 40.8555L41.7479 40.8584C42.9963 41.2738 44.3513 40.5905 44.7841 39.3096L45.329 37.6904C45.9352 35.8907 45.7111 34.0178 44.6835 32.6299L44.4677 32.3584C40.7397 28.014 33.1863 20.9601 23.7479 20.96Z" fill="#1A1A1A"/>
<path d="M26.3079 44.5232C26.6034 44.2332 27.0782 44.2377 27.3685 44.533C27.6585 44.8285 27.654 45.3033 27.3587 45.5936L27.2366 45.7137L27.2347 45.7147L26.7112 45.1785L26.6517 45.118L27.2347 45.7147C25.5545 47.3551 22.8527 47.2899 21.2542 45.5691C20.9723 45.2657 20.9898 44.7905 21.2933 44.5086C21.5967 44.2267 22.0719 44.2442 22.3538 44.5477C23.3785 45.6508 25.1098 45.6929 26.1868 44.6414V44.6424L26.3079 44.5232Z" fill="#1A1A1A"/>
<path d="M28.9987 42.46C29.6587 42.46 30.1937 42.9524 30.1937 43.56C30.1937 44.1675 29.6587 44.66 28.9987 44.66C28.3387 44.66 27.8037 44.1675 27.8037 43.56C27.8037 42.9524 28.3387 42.46 28.9987 42.46Z" fill="#1A1A1A"/>
<path d="M18.9987 42.46C18.3387 42.46 17.8037 42.9524 17.8037 43.56C17.8037 44.1675 18.3387 44.66 18.9987 44.66C19.6587 44.66 20.1937 44.1675 20.1937 43.56C20.1937 42.9524 19.6587 42.46 18.9987 42.46Z" fill="#1A1A1A"/>
</svg>
