<svg width="48" height="55" viewBox="0 0 48 55" fill="none" xmlns="http://www.w3.org/2000/svg">
<path d="M18.3148 17.01C18.0845 16.2187 17.2491 15.7372 16.4489 15.9346C15.6487 16.132 15.1867 16.9335 15.417 17.7249L19.5828 32.0372C19.8131 32.8286 20.6485 33.31 21.4487 33.1127C22.2489 32.9153 22.7109 32.1137 22.4805 31.3224L18.3148 17.01Z" fill="#4A5878"/>
<path d="M11 24.292L12.625 25.992C13.51 26.919 14.99 26.919 15.875 25.992C16.76 25.066 18.24 25.066 19.125 25.992C20.01 26.919 21.49 26.919 22.375 25.992C23.26 25.066 24.74 25.066 25.625 25.992L25.699 26.069C26.544 26.954 27.956 26.954 28.801 26.069L28.94 25.924C29.765 25.061 31.163 25.124 31.907 26.058C32.613 26.945 33.92 27.055 34.764 26.298L37 24.292L33.952 51.057C33.837 52.067 32.982 52.831 31.965 52.831H15.528C14.496 52.831 13.634 52.046 13.536 51.02L11 24.292Z" fill="url(#paint0_linear_53654_3766)"/>
<path d="M23.5844 50.5029C23.4794 50.6319 23.3614 50.747 23.2384 50.848C22.6204 51.354 21.4224 51.493 20.6524 51.242C18.2734 50.465 18.1284 46.678 20.5284 46.056C20.5884 46.041 20.6434 46.0289 20.6944 46.0219C21.0634 46.0099 21.3924 46.036 21.6834 46.09C23.5414 46.44 24.7604 49.0559 23.5844 50.5029Z" fill="#603A2A"/>
<path d="M20.6813 45.6225C21.0767 45.6096 21.435 45.6371 21.7564 45.6967H21.7574C22.847 45.9021 23.7085 46.7571 24.1373 47.7231C24.5388 48.6279 24.6011 49.7296 24.0191 50.5873L23.8941 50.7553C23.7702 50.9075 23.6327 51.041 23.4918 51.1567L23.2379 50.8481L23.3219 50.9506L23.4918 51.1567V51.1576L23.3404 51.269C22.9735 51.5156 22.5095 51.6614 22.0582 51.725C21.6043 51.789 21.1221 51.7759 20.7037 51.6723L20.5279 51.6225C19.1412 51.1696 18.4355 49.8507 18.398 48.603C18.3606 47.3527 18.996 46.0395 20.4273 45.6684L20.4313 45.6674C20.4962 45.6512 20.5673 45.6353 20.6393 45.6254L20.6813 45.6225ZM20.735 46.4203C20.7075 46.4248 20.6726 46.4313 20.6266 46.4428C19.6592 46.6944 19.1682 47.5863 19.1979 48.5785C19.2277 49.574 19.7839 50.5376 20.776 50.8618C21.0905 50.9643 21.5189 50.9931 21.9459 50.933C22.3759 50.8725 22.7511 50.729 22.984 50.5385C23.0891 50.4522 23.188 50.3561 23.274 50.2504L23.3551 50.141C23.7372 49.5769 23.7355 48.79 23.4059 48.0473C23.0547 47.2562 22.3772 46.6276 21.609 46.4828V46.4819C21.3559 46.435 21.0653 46.4114 20.735 46.4203Z" fill="#BDE3FF"/>
<path d="M31.3852 52.0519C31.2032 52.0419 31.0282 52.0119 30.8612 51.9669C30.0082 51.7349 29.1792 50.751 29.0032 49.913C28.5142 47.57 31.5522 45.6309 33.4682 47.1719C33.5502 47.2379 33.6182 47.3019 33.6722 47.3619C33.9002 47.6899 34.0612 48.001 34.1692 48.293C34.7952 49.995 33.2402 52.1519 31.3852 52.0519Z" fill="#603A2A"/>
<path d="M30.1224 46.7465C31.1682 46.0944 32.598 45.9581 33.7191 46.8598C33.8148 46.9368 33.8986 47.0158 33.9691 47.0942C33.9802 47.1065 33.9909 47.1196 34.0004 47.1332C34.1844 47.398 34.3303 47.6563 34.4428 47.9067L34.5443 48.1538C34.9144 49.1599 34.6309 50.2647 34.0297 51.0844C33.4278 51.9051 32.4569 52.5105 31.3637 52.4516L31.4066 51.6528C32.1683 51.6938 32.9023 51.27 33.3851 50.6118C33.8687 49.9525 34.0493 49.1259 33.7933 48.4301C33.7003 48.1791 33.5596 47.9056 33.3568 47.6108C33.3213 47.5734 33.2752 47.5306 33.2172 47.4838C32.4224 46.8446 31.3753 46.9075 30.5453 47.4252C29.7131 47.9444 29.1931 48.8622 29.3949 49.8305L29.4271 49.9594C29.5188 50.2642 29.7139 50.6033 29.9779 50.9018C30.2804 51.2438 30.6374 51.4911 30.9652 51.5805C31.1074 51.6188 31.2547 51.6444 31.4066 51.6528L31.3637 52.4516C31.152 52.4399 30.9487 52.4046 30.7572 52.353L30.8812 51.893L30.8607 51.9672L30.7572 52.353C30.2323 52.2102 29.7473 51.8492 29.3783 51.4321C29.0086 51.0141 28.7173 50.4979 28.6117 49.9956C28.3248 48.6211 29.0791 47.3973 30.1224 46.7465Z" fill="#BDE3FF"/>
<path d="M32.7622 48.3108C32.7132 48.4698 32.6472 48.6198 32.5692 48.7588C32.1802 49.4578 31.1022 50.0058 30.2792 50.0298C27.7792 50.1008 26.2622 46.6408 28.2522 45.2168C28.3072 45.1768 28.3602 45.1438 28.4092 45.1168C28.7552 44.9768 29.0752 44.8888 29.3712 44.8408C31.2292 44.5418 33.3012 46.5538 32.7622 48.3108Z" fill="#603A2A"/>
<path d="M29.3082 44.4458C30.3959 44.271 31.5007 44.7717 32.2486 45.522C32.9951 46.271 33.4726 47.3607 33.1451 48.4282C33.0872 48.6161 33.0094 48.7926 32.9185 48.9546L32.9176 48.9536C32.6731 49.3923 32.2371 49.751 31.7769 49.9995C31.3134 50.2498 30.7771 50.415 30.2906 50.4292C28.8395 50.4704 27.7061 49.4891 27.2144 48.3413C26.722 47.1918 26.826 45.7449 28.0191 44.8911C28.0875 44.8415 28.1544 44.8003 28.2164 44.7661C28.2302 44.7585 28.2447 44.7515 28.2594 44.7456L28.5338 44.6431C28.804 44.55 29.0625 44.4856 29.3082 44.4458L29.4351 45.2359C29.1778 45.2776 28.8949 45.3535 28.5846 45.4771C28.5542 45.4946 28.5219 45.5158 28.4879 45.5405L28.4849 45.5425L28.2525 45.2163L28.189 45.1294L28.4849 45.5425C27.6884 46.1127 27.5563 47.1083 27.9498 48.0269C28.3441 48.9469 29.2188 49.6588 30.2672 49.6294C30.6036 49.6196 31.0186 49.4998 31.3971 49.2954C31.7786 49.0893 32.0747 48.8239 32.2193 48.564L32.6451 48.8013L32.5689 48.7583L32.2193 48.564L32.2203 48.563C32.2852 48.4473 32.3394 48.3236 32.3795 48.1939L32.4137 48.063C32.5538 47.4053 32.2627 46.67 31.6822 46.0874C31.0646 45.4677 30.205 45.1121 29.4351 45.2359L29.3082 44.4458Z" fill="#BDE3FF"/>
<path d="M18.7622 47.3108C18.7132 47.4698 18.6472 47.6198 18.5692 47.7588C18.1802 48.4578 17.1022 49.0058 16.2792 49.0298C13.7792 49.1008 12.2622 45.6408 14.2522 44.2168C14.3072 44.1768 14.3602 44.1438 14.4092 44.1168C14.7552 43.9768 15.0752 43.8888 15.3712 43.8408C17.2292 43.5418 19.3012 45.5538 18.7622 47.3108Z" fill="#603A2A"/>
<path d="M15.3082 43.4458C16.3959 43.271 17.5007 43.7717 18.2486 44.522C18.9951 45.271 19.4726 46.3607 19.1451 47.4282C19.0872 47.6161 19.0094 47.7926 18.9185 47.9546L18.9176 47.9536C18.6731 48.3923 18.2371 48.751 17.7769 48.9995C17.3134 49.2498 16.7771 49.415 16.2906 49.4292C14.8395 49.4704 13.7061 48.4891 13.2144 47.3413C12.722 46.1918 12.826 44.7449 14.0191 43.8911C14.0875 43.8415 14.1544 43.8003 14.2164 43.7661C14.2302 43.7585 14.2447 43.7515 14.2594 43.7456L14.5338 43.6431C14.804 43.55 15.0625 43.4856 15.3082 43.4458L15.4351 44.2359C15.1778 44.2776 14.8949 44.3535 14.5846 44.4771C14.5542 44.4946 14.5219 44.5158 14.4879 44.5405L14.4849 44.5425L14.2525 44.2163L14.189 44.1294L14.4849 44.5425C13.6884 45.1127 13.5563 46.1083 13.9498 47.0269C14.3441 47.9469 15.2188 48.6588 16.2672 48.6294C16.6036 48.6196 17.0186 48.4998 17.3971 48.2954C17.7786 48.0893 18.0747 47.8239 18.2193 47.564L18.6451 47.8013L18.5689 47.7583L18.2193 47.564L18.2203 47.563C18.2852 47.4473 18.3394 47.3236 18.3795 47.1939L18.4137 47.063C18.5538 46.4053 18.2627 45.67 17.6822 45.0874C17.0646 44.4677 16.205 44.1121 15.4351 44.2359L15.3082 43.4458Z" fill="#BDE3FF"/>
<path d="M24.3852 49.0519C24.2032 49.0419 24.0282 49.0119 23.8612 48.9659C23.0082 48.7349 22.1792 47.751 22.0032 46.913C21.5142 44.57 24.5522 42.6309 26.4682 44.1719C26.5502 44.2369 26.6182 44.3019 26.6722 44.3619C26.9002 44.6899 27.0612 45.001 27.1692 45.293C27.7952 46.995 26.2402 49.1519 24.3852 49.0519Z" fill="#603A2A"/>
<path d="M23.1224 43.7465C24.1682 43.0944 25.598 42.9581 26.7191 43.8598C26.8175 43.9379 26.9002 44.0177 26.9691 44.0942C26.9802 44.1065 26.9909 44.1196 27.0004 44.1332C27.1844 44.398 27.3303 44.6563 27.4428 44.9067L27.5443 45.1538C27.9144 46.1599 27.6309 47.2647 27.0297 48.0844C26.4278 48.9051 25.4569 49.5105 24.3637 49.4516L24.4066 48.6528C25.1683 48.6938 25.9023 48.27 26.3851 47.6118C26.8687 46.9525 27.0493 46.1259 26.7933 45.4301C26.7004 45.1792 26.5593 44.9064 26.3568 44.6118C26.3417 44.5957 26.3255 44.5783 26.307 44.561L26.2191 44.4858L26.2172 44.4838L26.4584 44.184L26.4603 44.1801L26.2172 44.4838C25.4224 43.8446 24.3753 43.9075 23.5453 44.4252C22.7131 44.9444 22.1931 45.8622 22.3949 46.8305L22.4271 46.9594C22.5189 47.2643 22.7139 47.6034 22.9779 47.9018C23.2805 48.2438 23.6375 48.4907 23.9652 48.5795L23.9672 48.5805L23.8607 48.9663L23.8373 49.0522L23.9672 48.5805C24.1079 48.6193 24.2546 48.6444 24.4066 48.6528L24.3637 49.4516C24.1521 49.44 23.9481 49.4051 23.7553 49.352C23.2306 49.2095 22.747 48.8488 22.3783 48.4321C22.0086 48.0142 21.7173 47.4979 21.6117 46.9956C21.3248 45.6211 22.0791 44.3973 23.1224 43.7465Z" fill="#BDE3FF"/>
<path d="M26.3852 52.0519C26.2032 52.0419 26.0282 52.0119 25.8612 51.9669C25.0082 51.7349 24.1792 50.751 24.0032 49.913C23.5142 47.57 26.5522 45.6309 28.4682 47.1719C28.5502 47.2379 28.6182 47.3019 28.6722 47.3619C28.9002 47.6899 29.0612 48.001 29.1692 48.293C29.7952 49.995 28.2402 52.1519 26.3852 52.0519Z" fill="#603A2A"/>
<path d="M25.1224 46.7465C26.1682 46.0944 27.598 45.9581 28.7191 46.8598C28.8148 46.9368 28.8986 47.0158 28.9691 47.0942C28.9802 47.1065 28.9909 47.1196 29.0004 47.1332C29.1844 47.398 29.3303 47.6563 29.4428 47.9067L29.5443 48.1538C29.9144 49.1599 29.6309 50.2647 29.0297 51.0844C28.4278 51.9051 27.4569 52.5105 26.3637 52.4516L26.4066 51.6528C27.1683 51.6938 27.9023 51.27 28.3851 50.6118C28.8687 49.9525 29.0493 49.1259 28.7933 48.4301C28.7003 48.1791 28.5596 47.9056 28.3568 47.6108C28.3213 47.5734 28.2752 47.5306 28.2172 47.4838C27.4224 46.8446 26.3753 46.9075 25.5453 47.4252C24.7131 47.9444 24.1931 48.8622 24.3949 49.8305L24.4271 49.9594C24.5188 50.2642 24.7139 50.6033 24.9779 50.9018C25.2804 51.2438 25.6374 51.4911 25.9652 51.5805C26.1074 51.6188 26.2547 51.6444 26.4066 51.6528L26.3637 52.4516C26.152 52.4399 25.9487 52.4046 25.7572 52.353L25.8812 51.893L25.8607 51.9672L25.7572 52.353C25.2323 52.2102 24.7473 51.8492 24.3783 51.4321C24.0086 51.0141 23.7173 50.4979 23.6117 49.9956C23.3248 48.6211 24.0791 47.3973 25.1224 46.7465Z" fill="#BDE3FF"/>
<path d="M16.2702 51.2847C16.1252 51.1707 16.0002 51.0447 15.8912 50.9107C15.3282 50.2167 15.2852 48.9178 15.6982 48.1368C16.8132 46.0298 20.3712 46.2717 20.9732 48.5917C21.0032 48.7077 21.0192 48.8117 21.0252 48.9007C20.9992 49.3087 20.9262 49.6587 20.8212 49.9577C20.2272 51.6517 17.6962 52.4027 16.2702 51.2847Z" fill="#603A2A"/>
<path d="M18.5593 46.3053C19.7854 46.402 21.0062 47.1244 21.361 48.4918C21.3968 48.6301 21.4167 48.7585 21.4245 48.8737L21.0212 48.9H21.0251L21.4245 48.8737C21.4257 48.8911 21.4256 48.909 21.4245 48.9264L21.3942 49.2467C21.3545 49.5573 21.2876 49.8379 21.1989 50.0905C20.8488 51.0888 19.9454 51.7731 18.9704 52.0592C17.9949 52.3454 16.8626 52.2574 16.0231 51.5992C15.8532 51.4656 15.7069 51.3188 15.5808 51.1637L16.2019 50.6588C16.2935 50.7715 16.3975 50.8761 16.5173 50.9703L16.6306 51.0524C17.2097 51.4406 17.9998 51.5102 18.7448 51.2916C19.5402 51.0583 20.2001 50.5213 20.444 49.8258C20.5337 49.5704 20.5985 49.2646 20.6237 48.901C20.6214 48.8767 20.6186 48.8503 20.614 48.8219L20.5866 48.692C20.3394 47.7395 19.4789 47.1806 18.4968 47.1032C17.5125 47.0255 16.5185 47.4435 16.0524 48.3239C15.8874 48.636 15.8015 49.0803 15.8278 49.5338C15.8543 49.9889 15.9895 50.3969 16.2019 50.6588L15.5808 51.1637C15.2303 50.7317 15.0626 50.1425 15.03 49.5797C14.9973 49.0151 15.0965 48.4187 15.3444 47.9498L15.4743 47.7282C16.1609 46.6615 17.4121 46.2149 18.5593 46.3053Z" fill="#BDE3FF"/>
<path d="M38.6191 19.292H9.38091C8.61825 19.292 8 19.9103 8 20.6729C8 21.4356 8.61825 22.0538 9.38091 22.0538H38.6191C39.3818 22.0538 40 21.4356 40 20.6729C40 19.9103 39.3818 19.292 38.6191 19.292Z" fill="#1A1A1A"/>
<path d="M37.439 20.542C38.1784 20.542 38.767 21.181 38.6812 21.9307V21.9316C37.923 28.4693 36.4046 41.4412 35.4507 49.7705C35.1762 52.1723 33.144 53.9844 30.7271 53.9844H17.1353C15.0707 53.9844 13.2591 52.6218 12.9116 50.5146C11.8747 44.2318 10.2006 30.0609 9.31396 21.9199H9.31299L9.30615 21.7803C9.30697 21.09 9.87448 20.542 10.5571 20.542H37.439ZM10.8354 22.042C11.7302 30.2293 13.3748 44.1068 14.3921 50.2705C14.6086 51.5833 15.7318 52.4844 17.1353 52.4844H30.7271C32.3819 52.4844 33.7717 51.2436 33.9595 49.5996H33.9604C34.9009 41.3878 36.3896 28.662 37.1577 22.042H10.8354Z" fill="#1A1A1A"/>
<path d="M26.5042 36.355C26.7997 36.065 27.2745 36.0695 27.5648 36.3648C27.8548 36.6602 27.8503 37.1351 27.555 37.4253L27.4329 37.5455L27.431 37.5464L26.9075 37.0103L26.848 36.9498L27.431 37.5464C25.7507 39.1869 23.0489 39.1217 21.4505 37.4009C21.1686 37.0975 21.1861 36.6223 21.4896 36.3404C21.793 36.0585 22.2682 36.076 22.5501 36.3794C23.5748 37.4826 25.3061 37.5247 26.3831 36.4732V36.4742L26.5042 36.355Z" fill="#1A1A1A"/>
<path d="M29.1916 33.293C29.8516 33.293 30.3866 33.7855 30.3866 34.393C30.3866 35.0005 29.8516 35.493 29.1916 35.493C28.5316 35.493 27.9966 35.0005 27.9966 34.393C27.9966 33.7855 28.5316 33.293 29.1916 33.293Z" fill="#1A1A1A"/>
<path d="M19.2013 33.293C18.5414 33.293 18.0063 33.7855 18.0063 34.393C18.0063 35.0005 18.5414 35.493 19.2013 35.493C19.8613 35.493 20.3963 35.0005 20.3963 34.393C20.3963 33.7855 19.8613 33.293 19.2013 33.293Z" fill="#1A1A1A"/>
<defs>
<linearGradient id="paint0_linear_53654_3766" x1="24" y1="21.347" x2="24" y2="52.831" gradientUnits="userSpaceOnUse">
<stop stop-color="#E5F4FF"/>
<stop offset="0.634615" stop-color="#80CAFF"/>
</linearGradient>
</defs>
</svg>
