<svg width="15" height="28" viewBox="0 0 15 28" fill="none" xmlns="http://www.w3.org/2000/svg">
<path d="M1.21754 25.6787C1.48607 26.1606 1.54121 26.5441 1.95453 26.5441C14.7636 26.5441 14.767 26.668 14.767 26.668L14.7414 0.841797H0.539892L0.542559 6.75012C2.19402 6.77392 4.26947 7.00736 5.93594 7.17785C7.64759 7.35307 11.3153 7.31307 12.6291 8.18963L12.7559 8.47626C12.2341 9.67946 9.06798 9.94689 7.88793 10.2037C5.51252 10.7209 2.85806 11.008 0.53302 11.6987L0.539472 20.5167C2.40349 20.6786 9.89336 21.1231 11.0379 21.9733L11.1822 22.2802C10.8825 22.8424 10.0526 23.1986 9.47204 23.3359C6.77199 23.9749 3.97835 24.5635 1.26917 25.1463C1.10923 25.4824 1.12817 25.3107 1.21754 25.6787Z" fill="#DCAB6E"/>
<path d="M14.7413 0.841797H0.848947L0.851556 6.75012C2.46707 6.77392 4.49734 7.00736 6.12754 7.17785C7.80194 7.35307 11.3898 7.31307 12.675 8.18963L12.799 8.47626C12.2886 9.67946 9.19141 9.94688 8.03704 10.2037C5.71334 10.7209 3.11666 11.008 0.842224 11.6987L0.848536 20.5167C2.67198 20.6786 9.99883 21.1231 11.1185 21.9733L11.2596 22.2802C10.9664 22.8424 10.1546 23.1986 9.58668 23.3359C6.94539 23.9749 4.21256 24.5635 1.56235 25.1463C1.40589 25.4824 1.42442 25.3107 1.51184 25.6787C1.77453 26.1606 1.82847 26.5441 2.23279 26.5441C8.21301 26.5441 14.7669 26.668 14.7669 26.668" stroke="black" stroke-width="1.68359"/>
</svg>
