<svg width="48" height="55" viewBox="0 0 48 55" fill="none" xmlns="http://www.w3.org/2000/svg">
<path d="M30.5507 32.1711C35.2597 32.1711 39.2357 35.3011 40.5097 39.6011C41.4017 40.1211 41.9997 41.0811 41.9997 42.1711C41.9997 42.9411 41.7007 43.6411 41.2137 44.1711C41.7007 44.7011 41.9997 45.4011 41.9997 46.1711C41.9997 47.0811 41.5827 47.9011 40.9267 48.4511C40.9837 48.6811 41.0167 48.9211 41.0167 49.1711C41.0167 50.8311 39.6967 52.1711 38.0687 52.1711C37.5287 52.1711 37.0247 52.0211 36.5897 51.7611C36.0437 52.7611 35.0977 53.4211 34.0197 53.4211C33.7627 53.4211 33.5137 53.3811 33.2757 53.3111C32.7177 53.9911 31.9377 54.4211 31.0717 54.4211C30.3227 54.4211 29.6367 54.1011 29.1047 53.5711C28.5727 54.1011 27.8877 54.4211 27.1397 54.4211C26.3907 54.4211 25.7057 54.1011 25.1727 53.5711C24.6407 54.1011 23.9567 54.4211 23.2077 54.4211C22.2007 54.4211 21.3087 53.8411 20.7497 52.9511C20.1917 53.8411 19.3007 54.4211 18.2927 54.4211C17.5447 54.4211 16.8597 54.1011 16.3277 53.5711C15.7947 54.1011 15.1097 54.4211 14.3617 54.4211C13.3237 54.4211 12.4077 53.8111 11.8537 52.8711C11.7557 52.8611 11.6567 52.8511 11.5597 52.8411C11.0387 53.5011 10.2967 53.9211 9.4697 53.9211C8.6367 53.9211 7.88871 53.5011 7.36771 52.8211C7.00171 53.0411 6.57768 53.1711 6.12268 53.1711C4.76568 53.1711 3.66568 52.0511 3.66568 50.6711C3.66568 50.0311 3.90168 49.4511 4.28668 49.0111C3.35168 48.6611 2.68369 47.7411 2.68369 46.6711C2.68369 46.3511 2.74269 46.0511 2.84869 45.7711C2.18769 45.5611 1.70068 44.8511 1.70068 44.0011C1.70068 43.8711 1.71269 43.7411 1.73569 43.6111C1.71469 43.4711 1.70068 43.3211 1.70068 43.1711C1.70068 42.2111 2.1437 41.3611 2.8317 40.8111C3.6647 35.9011 7.93169 32.1711 13.0727 32.1711H30.5507Z" fill="white"/>
<path d="M11.8428 51.6904C12.2505 51.7342 12.6216 51.9384 12.8721 52.2568L12.9717 52.4004L13.1055 52.5957C13.4324 53.0188 13.8483 53.2099 14.2324 53.21V54.71C13.1846 54.7099 12.2583 54.1102 11.6934 53.1904C11.5834 53.1704 11.4751 53.1596 11.3672 53.1396L11.5635 51.6602C11.6975 51.6702 11.7648 51.6804 11.8428 51.6904Z" fill="#1A1A1A"/>
<path d="M16.2285 53.8623C15.6879 54.3907 14.9921 54.71 14.2324 54.71V53.21C14.5574 53.21 14.8906 53.07 15.1855 52.79L16.2285 53.8623Z" fill="#1A1A1A"/>
<path d="M17.2773 52.79C17.5723 53.07 17.9055 53.2099 18.2324 53.21V54.71C17.4715 54.7099 16.7741 54.391 16.2334 53.8623L17.2773 52.79Z" fill="#1A1A1A"/>
<path d="M20.7324 51.75C21.2424 51.75 21.7181 52.0104 21.9941 52.4404C22.3341 52.9703 22.8025 53.2099 23.2324 53.21V54.71C22.2095 54.7099 21.3004 54.13 20.7324 53.25C20.1634 54.1299 19.2554 54.71 18.2324 54.71V53.21C18.6623 53.21 19.1297 52.9702 19.4707 52.4404L19.583 52.2871C19.8658 51.9492 20.2853 51.75 20.7324 51.75Z" fill="#1A1A1A"/>
<path d="M25.2285 53.8623C24.6879 54.3907 23.9921 54.71 23.2324 54.71V53.21C23.5574 53.21 23.8906 53.07 24.1855 52.79L25.2285 53.8623Z" fill="#1A1A1A"/>
<path d="M26.2773 52.79C26.5723 53.07 26.9055 53.2099 27.2324 53.21V54.71C26.4715 54.7099 25.7741 54.391 25.2334 53.8623L26.2773 52.79Z" fill="#1A1A1A"/>
<path d="M29.2285 53.8623C28.6879 54.3907 27.9921 54.71 27.2324 54.71V53.21C27.5574 53.21 27.8906 53.07 28.1855 52.79L29.2285 53.8623Z" fill="#1A1A1A"/>
<path d="M30.2773 52.79C30.5723 53.07 30.9055 53.2099 31.2324 53.21V54.71C30.4715 54.7099 29.7741 54.391 29.2334 53.8623L30.2773 52.79Z" fill="#1A1A1A"/>
<path d="M32.3203 52.6396C32.7023 52.1797 33.3196 51.9902 33.8926 52.1602C34.0045 52.1901 34.1175 52.2099 34.2324 52.21V53.71C33.9715 53.7099 33.7176 53.6696 33.4746 53.5996C32.9076 54.2796 32.1134 54.71 31.2324 54.71V53.21C31.6044 53.21 31.9963 53.0296 32.3203 52.6396Z" fill="#1A1A1A"/>
<path d="M6.35449 51.8203C6.96 51.4641 7.72636 51.5732 8.20215 52.0742L8.29395 52.1797L8.40527 52.3086C8.67214 52.5873 8.97477 52.71 9.25488 52.71V54.21L9.09668 54.2051C8.31342 54.1564 7.61399 53.7478 7.11621 53.1104C6.74432 53.3302 6.3134 53.46 5.85059 53.46V51.96C6.0305 51.96 6.20055 51.9102 6.35449 51.8203Z" fill="#1A1A1A"/>
<path d="M11.3643 53.1426C10.8345 53.8006 10.0874 54.2099 9.25488 54.21V52.71C9.56969 52.7099 9.91133 52.5598 10.2012 52.2002L11.3643 53.1426Z" fill="#1A1A1A"/>
<path d="M15.1855 52.79C15.7675 52.2201 16.6953 52.2201 17.2773 52.79L16.2314 53.8604L15.1855 52.79Z" fill="#1A1A1A"/>
<path d="M24.1855 52.79C24.7675 52.2201 25.6953 52.2201 26.2773 52.79L25.2314 53.8604L24.1855 52.79Z" fill="#1A1A1A"/>
<path d="M28.1855 52.79C28.7675 52.2201 29.6953 52.2201 30.2773 52.79L29.2314 53.8604L28.1855 52.79Z" fill="#1A1A1A"/>
<path d="M36.8457 52.0537C36.2893 53.0514 35.3269 53.71 34.2324 53.71V52.21C34.6894 52.21 35.199 51.9303 35.54 51.3203L36.8457 52.0537Z" fill="#1A1A1A"/>
<path d="M2.49805 41.0996L3.42676 42.2803C3.07178 42.5603 2.85059 42.98 2.85059 43.46C2.85059 43.5048 2.85176 43.5447 2.85449 43.582L2.86621 43.6904L2.87988 43.8115C2.88846 43.9343 2.88185 44.0597 2.85938 44.1797L1.39746 43.9121L1.38281 43.915L2.85938 44.1797C2.85438 44.2097 2.85059 44.25 2.85059 44.29C2.85061 44.42 2.88975 44.5201 2.92773 44.5801C2.94783 44.6095 2.96379 44.6244 2.97168 44.6309L2.96582 44.6299C3.36173 44.7499 3.68817 45.0402 3.86914 45.4102C4.04907 45.78 4.06778 46.2097 3.91895 46.5996C3.87395 46.7196 3.85059 46.84 3.85059 46.96C3.85059 47.3274 4.05469 47.6569 4.36426 47.834L4.50391 47.9004L4.67188 47.9736C5.05203 48.1687 5.33246 48.5203 5.4375 48.9404C5.55731 49.4203 5.43239 49.9299 5.10352 50.2998L3.9834 49.3008L3.98242 49.3047L5.10352 50.2998C4.94352 50.4798 4.85059 50.71 4.85059 50.96C4.85059 51.51 5.29859 51.96 5.85059 51.96V53.46C4.46959 53.46 3.35059 52.34 3.35059 50.96C3.35059 50.32 3.59043 49.7398 3.98242 49.2998C3.03051 48.9498 2.35059 48.0299 2.35059 46.96C2.35059 46.64 2.41055 46.3396 2.51855 46.0596C1.88854 45.8626 1.4133 45.2265 1.35645 44.4473L1.35059 44.29C1.35059 44.1601 1.36181 44.0401 1.38379 43.9102C1.36179 43.7702 1.35059 43.61 1.35059 43.46C1.35059 42.5 1.80016 41.6496 2.49805 41.0996Z" fill="#1A1A1A"/>
<path d="M11.5635 51.6602L11.3672 53.1396L10.2012 52.2002C10.5302 51.7902 11.0455 51.5902 11.5635 51.6602Z" fill="#1A1A1A"/>
<path d="M37.6016 50.7598C37.8266 50.8898 38.0806 50.96 38.3506 50.96V52.46C37.8034 52.46 37.2922 52.3101 36.8506 52.0508L37.6016 50.7598Z" fill="#1A1A1A"/>
<path d="M39.8506 49.46C39.8506 49.4049 39.8468 49.3472 39.8389 49.2871L39.8027 49.0996L39.7803 48.9941C39.689 48.4667 39.8867 47.9268 40.3047 47.5801L41.2578 48.7393L41.2588 48.7402C41.3167 48.9701 41.3506 49.2101 41.3506 49.46C41.3506 51.12 40.0076 52.46 38.3506 52.46V50.96C39.1786 50.96 39.8506 50.29 39.8506 49.46Z" fill="#1A1A1A"/>
<path d="M36.4512 50.6104C36.8391 50.5004 37.2536 50.5498 37.6016 50.7598L36.8486 52.0498L35.54 51.3203C35.736 50.9705 36.0644 50.7104 36.4512 50.6104Z" fill="#1A1A1A"/>
<path d="M40.8506 46.46C40.8506 46.1 40.7101 45.7595 40.4551 45.4795C39.9181 44.9095 39.9181 44.0104 40.4551 43.4404C40.7101 43.1604 40.8506 42.82 40.8506 42.46C40.8506 42.0136 40.6345 41.5901 40.2588 41.3037L40.0889 41.1904L39.9688 41.1133C39.6994 40.9217 39.4998 40.6439 39.4053 40.3203L40.8398 39.9014L40.8418 39.8965C40.8422 39.8977 40.8434 39.8992 40.8438 39.9004C41.7456 40.4204 42.3506 41.3701 42.3506 42.46C42.3506 43.2299 42.0467 43.93 41.5518 44.46C42.0467 44.99 42.3506 45.69 42.3506 46.46C42.3506 47.3688 41.9263 48.1873 41.2607 48.7373L40.3047 47.5801C40.6527 47.2901 40.8506 46.89 40.8506 46.46Z" fill="#1A1A1A"/>
<path d="M31.3232 32.4688C35.8395 32.657 39.6079 35.7317 40.8418 39.8945L39.4053 40.3203C38.3153 36.6404 34.9117 33.9601 30.8838 33.96H12.7393C8.34151 33.9601 4.68864 37.1599 3.97754 41.3496C3.91554 41.7196 3.71876 42.0503 3.42676 42.2803L2.49805 41.0996C3.32918 36.1999 7.59754 32.4601 12.7393 32.46H30.8838L31.3232 32.4688Z" fill="#1A1A1A"/>
<path d="M17.6679 24.6903C21.5036 23.3343 25.1749 23.4473 27.2001 24.7616C31.2889 24.3236 34.7384 25.5041 35.6386 27.6121C36.1051 27.893 36.5791 28.21 37.0527 28.5623C40.4095 31.0603 41.4109 36.1696 40.6201 37.7498C40.4091 38.1698 40.0115 38.3003 39.4775 38.2303C38.4734 39.67 36.4266 40.3998 33.2041 40.0799C32.7613 40.0358 32.3308 39.9694 31.915 39.8856C30.4587 40.2456 28.6663 40.1967 26.7851 39.7049C24.6571 40.7203 21.5703 40.9395 18.3388 40.1102C18.2986 40.0998 18.2588 40.0876 18.2187 40.077C16.9289 40.5144 15.4208 40.7137 13.8134 40.6004C13.4552 40.5751 13.1028 40.532 12.7568 40.4784C11.8837 40.8171 10.8998 41.0813 9.8437 41.2401C5.7219 41.86 2.06199 40.67 1.67085 38.5701C1.65987 38.5102 1.65341 38.4601 1.64741 38.4002C0.503444 36.4603 1.76604 32.8503 4.62788 30.1024C6.22208 28.5684 7.99286 27.6067 9.5273 27.3143C9.85594 27.0539 10.2005 26.8045 10.5585 26.5672C13.1185 24.8715 15.775 24.2423 17.6679 24.6903Z" fill="#FFC7C2"/>
<path fill-rule="evenodd" clip-rule="evenodd" d="M17.6673 24.6904C21.5027 23.3346 25.1743 23.4466 27.1996 24.7607C31.7739 24.2708 35.5509 25.8074 35.8499 28.4013C36.0027 29.7342 35.2081 31.0999 33.7904 32.2597C35.1852 34.0196 35.7315 35.9401 35.0726 37.5C34.0709 39.8772 30.6093 40.7045 26.7855 39.7051C26.8058 39.6953 26.8259 39.6846 26.846 39.6748C24.8268 40.6617 21.9213 40.9212 18.8441 40.2314L18.3382 40.1094C18.2984 40.0991 18.2587 40.0877 18.2191 40.0771C18.2467 40.0678 18.2738 40.0564 18.3011 40.0469C17.1097 40.4635 15.7275 40.6763 14.2494 40.623L13.8138 40.5996C13.4556 40.5743 13.1032 40.5312 12.7572 40.4775C11.884 40.8164 10.9004 41.0814 9.84409 41.2402L9.45932 41.293C5.62473 41.7691 2.27311 40.679 1.71713 38.7646L1.67124 38.5703C1.66026 38.5104 1.65282 38.4602 1.64682 38.4004C0.538603 36.5209 1.68949 33.0742 4.3646 30.3623L4.62827 30.1025C6.27595 28.5172 8.11207 27.5448 9.681 27.289C9.63071 27.2972 9.57949 27.3038 9.52866 27.3135C9.85681 27.0535 10.2004 26.8033 10.558 26.5664C13.1262 24.8653 15.7917 24.2387 17.6859 24.6953C17.6798 24.6938 17.6735 24.6919 17.6673 24.6904ZM11.6058 29.1357C11.3748 28.8477 10.8063 28.5502 9.61753 28.8281C8.46161 29.0992 7.02716 29.8758 5.66831 31.1806C4.38431 32.4206 3.49219 33.8205 3.04819 35.0605C2.61516 36.2791 2.68059 37.1113 2.89487 37.5566L2.93979 37.6406L3.10678 37.9199L3.13999 38.25C3.14266 38.2766 3.14487 38.29 3.14487 38.29C3.18716 38.5202 3.51864 39.0702 4.82358 39.5C6.04045 39.8998 7.74488 40.0406 9.61948 39.7607C11.4963 39.4707 13.0436 38.84 14.0316 38.1201C15.0868 37.3406 15.1631 36.7704 15.1273 36.5801C15.1002 36.44 14.9722 36.1604 14.4681 35.8408C13.9643 35.5209 13.1979 35.2408 12.2074 35.0908L10.1205 34.7705L11.1058 32.9101C11.5917 31.9903 11.8419 31.1399 11.8919 30.458C11.9418 29.7738 11.7876 29.3638 11.6058 29.1357ZM16.3197 26.0498C15.093 26.068 13.52 26.523 11.8861 27.5039C11.8714 27.4971 11.856 27.4919 11.8412 27.4853C12.2059 27.6466 12.5228 27.8814 12.7757 28.1963C13.7514 29.4143 13.5468 31.5006 12.433 33.6103C14.6957 33.9504 16.3469 34.9406 16.6019 36.3105C16.7822 37.2803 16.2324 38.2719 15.1839 39.1211C16.7343 39.0499 18.0766 38.6532 19.0638 38.0596C20.3103 37.2997 20.8738 36.3497 20.89 35.4199C20.9077 34.3701 20.2262 33.1496 18.6947 32.1299L17.5902 31.3994L18.182 30.2099C18.8938 28.7821 18.9097 27.7022 18.6097 27.0713C18.3415 26.5096 17.673 26.0299 16.3197 26.0498ZM24.5443 25.3545C23.1668 25.1105 21.3984 25.1954 19.4769 25.7021C19.6701 25.9149 19.8348 26.1558 19.9642 26.4277C20.5451 27.6516 20.3356 29.2531 19.5248 30.8789C21.305 32.0595 22.4163 33.6992 22.388 35.4385L22.389 35.4394C22.3651 36.8471 21.5983 38.0828 20.346 38.9961C20.3504 38.9929 20.3554 38.9905 20.3597 38.9873C22.2104 39.2474 23.9015 39.1183 25.2308 38.7002C26.9736 38.1602 27.8525 37.2399 28.0716 36.29C28.3145 35.2401 27.8167 33.7999 26.1849 32.3301L25.0873 31.3496L26.0482 30.2363C27.215 28.8846 27.4502 27.7781 27.2464 27.0791C27.0482 26.3992 26.2868 25.6624 24.5443 25.3545ZM28.4974 26.1758C28.5728 26.3309 28.6366 26.4923 28.6859 26.6611C29.0968 28.0711 28.4949 29.6978 27.1839 31.2197C29.0109 32.8496 29.9524 34.8199 29.5326 36.6299L29.4486 36.9355C29.25 37.5551 28.896 38.1056 28.4173 38.582C28.4379 38.5615 28.4597 38.5423 28.4798 38.5215C29.34 38.6438 30.1447 38.6535 30.8558 38.5605C32.4905 38.3505 33.3738 37.6698 33.6908 36.9199C34.0456 36.0799 33.8512 34.7499 32.6185 33.2002L31.6976 32.04L32.8402 31.0996C34.0858 30.0809 34.4284 29.1643 34.3607 28.5693C34.2946 27.9984 33.7762 27.2441 32.2699 26.6992C31.2631 26.3349 29.9652 26.1351 28.4974 26.1758Z" fill="#FFAFA3"/>
<path d="M36.876 30.8231C37.542 29.7971 43.682 32.1401 46.053 33.9601C49.677 36.7401 47.383 39.64 44.218 38.29C44.169 38.27 44.116 38.2401 44.058 38.2101C44.069 38.2401 44.08 38.27 44.089 38.29C45.202 41.65 42.143 44.2601 39.422 40.5001C37.799 38.2601 36.127 32.63 36.83 31.04C36.824 30.956 36.838 30.8821 36.876 30.8231Z" fill="#FFAFA3"/>
<path d="M17.668 24.6914C21.3831 23.3778 24.9451 23.4425 27.0059 24.6426L27.2002 24.7627C31.1508 24.3388 34.5059 25.4266 35.5401 27.4023C36.1219 27.7313 36.7187 28.1196 37.3135 28.5625C38.1683 29.1987 38.8692 30.0053 39.4278 30.8789C39.1325 30.7982 38.8519 30.7317 38.5918 30.6816C40.7649 31.1027 44.3643 32.664 46.0528 33.9599C49.6764 36.7398 47.3826 39.6397 44.2178 38.29C44.1689 38.27 44.1155 38.2399 44.0576 38.2099C44.0686 38.2398 44.0799 38.27 44.0889 38.29C45.2018 41.6499 42.1428 44.2597 39.4219 40.5C39.1706 40.1531 38.9175 39.725 38.6729 39.2431C37.6207 39.9238 36.0954 40.2549 34.0547 40.1289L33.4639 40.081C32.9711 40.0311 32.493 39.9603 32.0342 39.8603C30.5574 40.2503 28.7169 40.2108 26.7842 39.7109C24.6563 40.7208 21.5687 40.9402 18.3389 40.1103C18.3011 40.1004 18.2624 40.091 18.2237 40.081C17.0943 40.4658 15.7977 40.6669 14.4131 40.6308L13.8145 40.6006C13.4526 40.5806 13.0959 40.5304 12.7471 40.4804C11.8762 40.8204 10.8956 41.0802 9.84475 41.2402C5.7222 41.86 2.06141 40.6699 1.66994 38.5703C1.66 38.5106 1.65344 38.46 1.64846 38.4004C0.503538 36.4604 1.76608 32.8505 4.62795 30.1025C6.22291 28.5686 7.99438 27.6074 9.52834 27.3144C9.85713 27.0546 10.2009 26.8052 10.5586 26.5674C13.1185 24.8725 15.775 24.2435 17.668 24.6914ZM38.1651 32.1299C38.1662 32.2974 38.1781 32.4937 38.2022 32.7207C38.2742 33.3906 38.4464 34.2304 38.6973 35.1201C39.2103 36.9299 39.9748 38.7001 40.6367 39.6201C41.2006 40.3999 41.678 40.6998 41.958 40.7998C42.2026 40.8896 42.3255 40.8399 42.3985 40.79C42.5937 40.6703 43.0744 40.0261 42.6699 38.7783C42.6668 38.769 42.6618 38.7587 42.6563 38.7402L41.2481 35.04L44.7559 36.8799C44.7718 36.8898 44.784 36.9004 44.794 36.9004C44.8014 36.9086 44.8067 36.9101 44.8067 36.9101C45.3645 37.15 45.789 37.1605 46.044 37.1006C46.2964 37.0508 46.3674 36.9514 46.3789 36.9306C46.3822 36.9203 46.4486 36.8196 46.3389 36.5303C46.2209 36.2303 45.8975 35.7303 45.1406 35.1504C44.1287 34.3805 42.1631 33.4002 40.3194 32.7402C39.4723 32.434 38.7218 32.2227 38.1651 32.1299ZM23.0908 25.2256C21.637 25.2056 19.9368 25.4796 18.168 26.1054L17.752 26.2529L17.3223 26.1504C15.9783 25.8324 13.7487 26.2534 11.3877 27.8183C11.0639 28.0322 10.7538 28.2573 10.46 28.4902L10.1709 28.7197L9.80959 28.789C8.62762 29.014 7.10794 29.7977 5.66799 31.1806C4.3841 32.4206 3.49185 33.8206 3.04787 35.0605C2.61581 36.2791 2.68138 37.1113 2.89553 37.5566L2.94045 37.6406L3.10744 37.9209L3.14064 38.251L3.14553 38.291L3.1758 38.3906C3.28508 38.6559 3.68087 39.1248 4.82424 39.501C6.04118 39.9008 7.74549 40.0407 9.62014 39.7607C10.5679 39.6107 11.4413 39.3809 12.2051 39.081L12.5811 38.9404L12.9785 39.001C13.2952 39.0509 13.6083 39.0903 13.9199 39.1103C15.3437 39.2103 16.6523 39.0301 17.7422 38.6601L18.1699 38.5107L18.6084 38.6308C18.6431 38.6408 18.6775 38.6504 18.6914 38.6504C18.7056 38.6574 18.7129 38.6601 18.7129 38.6601C21.6945 39.4199 24.4048 39.1804 26.1377 38.3506L26.6319 38.1211L27.1631 38.251C28.9069 38.7108 30.4776 38.7201 31.6494 38.4101L31.9971 38.3203L32.3477 38.3906C32.7555 38.4806 33.1785 38.5508 33.6133 38.5908C35.9916 38.8274 37.3243 38.4136 38.0469 37.8467C38.061 37.8817 38.0757 37.9164 38.0899 37.9511C37.0455 35.3959 36.326 32.1801 36.8301 31.04C36.8241 30.9561 36.838 30.8822 36.876 30.8232C36.956 30.7 37.115 30.6265 37.3369 30.5937C37.3347 30.5941 37.3324 30.5944 37.3301 30.5947C37.0504 30.2898 36.7466 30.0101 36.418 29.7656C35.8712 29.3588 35.3266 29.0059 34.8008 28.708L34.416 28.4892L34.211 28.0976C33.948 27.5947 33.2685 27.0133 32.0078 26.6113C30.779 26.2194 29.1669 26.061 27.3604 26.2539L26.8301 26.3105L26.3828 26.0205C25.6829 25.5666 24.5644 25.2456 23.0908 25.2256Z" fill="#1A1A1A"/>
<path d="M18.8118 45.5235C19.1073 45.2334 19.5821 45.2379 19.8724 45.5333C20.1624 45.8287 20.1579 46.3036 19.8626 46.5938L19.7405 46.7139L19.7386 46.7149L19.2151 46.1788L19.1556 46.1182L19.7386 46.7149C18.0584 48.3553 15.3566 48.2902 13.7581 46.5694C13.4762 46.2659 13.4937 45.7908 13.7972 45.5088C14.1007 45.2269 14.5758 45.2444 14.8577 45.5479C15.8824 46.6511 17.6137 46.6931 18.6907 45.6417V45.6426L18.8118 45.5235Z" fill="#1A1A1A"/>
<path d="M21.5041 43.46C22.1641 43.46 22.6991 43.9524 22.6991 44.56C22.6991 45.1675 22.1641 45.66 21.5041 45.66C20.8441 45.66 20.3091 45.1675 20.3091 44.56C20.3091 43.9524 20.8441 43.46 21.5041 43.46Z" fill="#1A1A1A"/>
<path d="M11.5041 43.46C10.8441 43.46 10.3091 43.9524 10.3091 44.56C10.3091 45.1675 10.8441 45.66 11.5041 45.66C12.1641 45.66 12.6991 45.1675 12.6991 44.56C12.6991 43.9524 12.1641 43.46 11.5041 43.46Z" fill="#1A1A1A"/>
</svg>
