<svg width="48" height="55" viewBox="0 0 48 55" fill="none" xmlns="http://www.w3.org/2000/svg">
<path d="M33.533 32.46C38.245 32.46 42.221 35.6 43.493 39.9C44.395 40.42 45 41.37 45 42.46C45 43.23 44.696 43.93 44.201 44.46C44.696 44.99 45 45.69 45 46.46C45 47.37 44.575 48.1899 43.908 48.7399C43.966 48.9699 44 49.21 44 49.46C44 51.12 42.657 52.46 41 52.46C40.452 52.46 39.94 52.3099 39.498 52.0499C38.942 53.0499 37.978 53.71 36.882 53.71C36.621 53.71 36.367 53.6699 36.124 53.5999C35.557 54.2799 34.763 54.71 33.882 54.71C33.12 54.71 32.422 54.3899 31.881 53.8599C31.34 54.3899 30.643 54.71 29.882 54.71C29.12 54.71 28.422 54.3899 27.881 53.8599C27.34 54.3899 26.643 54.71 25.882 54.71C24.859 54.71 23.95 54.1299 23.382 53.2499C22.813 54.1299 21.905 54.71 20.882 54.71C20.12 54.71 19.422 54.3899 18.881 53.8599C18.34 54.3899 17.643 54.71 16.882 54.71C15.834 54.71 14.908 54.1099 14.343 53.1899C14.233 53.1699 14.125 53.16 14.017 53.14C13.487 53.8 12.738 54.21 11.904 54.21C11.057 54.21 10.297 53.7899 9.76599 53.1099C9.39399 53.3299 8.963 53.46 8.5 53.46C7.119 53.46 6 52.34 6 50.96C6 50.32 6.23999 49.7399 6.63199 49.2999C5.67999 48.9499 5 48.03 5 46.96C5 46.64 5.06 46.3399 5.168 46.0599C4.496 45.8499 4 45.1399 4 44.2899C4 44.1599 4.011 44.0399 4.033 43.9099C4.011 43.7699 4 43.61 4 43.46C4 42.5 4.44999 41.6499 5.14799 41.0999C5.97899 36.1999 10.247 32.46 15.389 32.46H33.533Z" fill="white"/>
<path d="M14.4922 51.6904C14.8999 51.7342 15.271 51.9384 15.5215 52.2568L15.6211 52.4004L15.7549 52.5957C16.0818 53.0188 16.4977 53.2099 16.8818 53.21V54.71C15.834 54.7099 14.9078 54.1102 14.3428 53.1904C14.2328 53.1704 14.1246 53.1596 14.0166 53.1396L14.2129 51.6602C14.3469 51.6702 14.4142 51.6804 14.4922 51.6904Z" fill="#1A1A1A"/>
<path d="M18.8779 53.8623C18.3373 54.3907 17.6415 54.71 16.8818 54.71V53.21C17.2068 53.21 17.54 53.07 17.835 52.79L18.8779 53.8623Z" fill="#1A1A1A"/>
<path d="M19.9268 52.79C20.2217 53.07 20.5549 53.2099 20.8818 53.21V54.71C20.1209 54.7099 19.4235 54.391 18.8828 53.8623L19.9268 52.79Z" fill="#1A1A1A"/>
<path d="M23.3818 51.75C23.8918 51.75 24.3676 52.0104 24.6436 52.4404C24.9835 52.9703 25.4519 53.2099 25.8818 53.21V54.71C24.8589 54.7099 23.9498 54.13 23.3818 53.25C22.8128 54.1299 21.9048 54.71 20.8818 54.71V53.21C21.3118 53.21 21.7791 52.9702 22.1201 52.4404L22.2324 52.2871C22.5152 51.9492 22.9347 51.75 23.3818 51.75Z" fill="#1A1A1A"/>
<path d="M27.8779 53.8623C27.3373 54.3907 26.6415 54.71 25.8818 54.71V53.21C26.2068 53.21 26.54 53.07 26.835 52.79L27.8779 53.8623Z" fill="#1A1A1A"/>
<path d="M28.9268 52.79C29.2217 53.07 29.5549 53.2099 29.8818 53.21V54.71C29.1209 54.7099 28.4235 54.391 27.8828 53.8623L28.9268 52.79Z" fill="#1A1A1A"/>
<path d="M31.8779 53.8623C31.3373 54.3907 30.6415 54.71 29.8818 54.71V53.21C30.2068 53.21 30.54 53.07 30.835 52.79L31.8779 53.8623Z" fill="#1A1A1A"/>
<path d="M32.9268 52.79C33.2217 53.07 33.5549 53.2099 33.8818 53.21V54.71C33.1209 54.7099 32.4235 54.391 31.8828 53.8623L32.9268 52.79Z" fill="#1A1A1A"/>
<path d="M34.9697 52.6396C35.3517 52.1797 35.969 51.9902 36.542 52.1602C36.6539 52.1901 36.7669 52.2099 36.8818 52.21V53.71C36.6209 53.7099 36.367 53.6696 36.124 53.5996C35.557 54.2796 34.7628 54.71 33.8818 54.71V53.21C34.2538 53.21 34.6457 53.0296 34.9697 52.6396Z" fill="#1A1A1A"/>
<path d="M9.00391 51.8203C9.60942 51.4641 10.3758 51.5732 10.8516 52.0742L10.9434 52.1797L11.0547 52.3086C11.3216 52.5873 11.6242 52.71 11.9043 52.71V54.21L11.7461 54.2051C10.9628 54.1564 10.2634 53.7478 9.76562 53.1104C9.39373 53.3302 8.96281 53.46 8.5 53.46V51.96C8.67991 51.96 8.84997 51.9102 9.00391 51.8203Z" fill="#1A1A1A"/>
<path d="M14.0137 53.1426C13.4839 53.8006 12.7368 54.2099 11.9043 54.21V52.71C12.2191 52.7099 12.5607 52.5598 12.8506 52.2002L14.0137 53.1426Z" fill="#1A1A1A"/>
<path d="M17.835 52.79C18.4169 52.2201 19.3448 52.2201 19.9268 52.79L18.8809 53.8604L17.835 52.79Z" fill="#1A1A1A"/>
<path d="M26.835 52.79C27.4169 52.2201 28.3448 52.2201 28.9268 52.79L27.8809 53.8604L26.835 52.79Z" fill="#1A1A1A"/>
<path d="M30.835 52.79C31.4169 52.2201 32.3448 52.2201 32.9268 52.79L31.8809 53.8604L30.835 52.79Z" fill="#1A1A1A"/>
<path d="M39.4951 52.0537C38.9388 53.0514 37.9763 53.71 36.8818 53.71V52.21C37.3388 52.21 37.8485 51.9303 38.1895 51.3203L39.4951 52.0537Z" fill="#1A1A1A"/>
<path d="M5.14746 41.0996L6.07617 42.2803C5.72119 42.5603 5.5 42.98 5.5 43.46C5.5 43.5048 5.50118 43.5447 5.50391 43.582L5.51562 43.6904L5.5293 43.8115C5.53787 43.9343 5.53126 44.0597 5.50879 44.1797L4.04688 43.9121L4.03223 43.915L5.50879 44.1797C5.50379 44.2097 5.5 44.25 5.5 44.29C5.50002 44.42 5.53916 44.5201 5.57715 44.5801C5.59725 44.6095 5.61321 44.6244 5.62109 44.6309L5.61523 44.6299C6.01114 44.7499 6.33759 45.0402 6.51855 45.4102C6.69849 45.78 6.7172 46.2097 6.56836 46.5996C6.52336 46.7196 6.5 46.84 6.5 46.96C6.5 47.3274 6.70411 47.6569 7.01367 47.834L7.15332 47.9004L7.32129 47.9736C7.70145 48.1687 7.98188 48.5203 8.08691 48.9404C8.20672 49.4203 8.0818 49.9299 7.75293 50.2998L6.63281 49.3008L6.63184 49.3047L7.75293 50.2998C7.59293 50.4798 7.5 50.71 7.5 50.96C7.5 51.51 7.948 51.96 8.5 51.96V53.46C7.119 53.46 6 52.34 6 50.96C6 50.32 6.23984 49.7398 6.63184 49.2998C5.67993 48.9498 5 48.0299 5 46.96C5 46.64 5.05997 46.3396 5.16797 46.0596C4.53796 45.8626 4.06271 45.2265 4.00586 44.4473L4 44.29C4 44.1601 4.01123 44.0401 4.0332 43.9102C4.0112 43.7702 4 43.61 4 43.46C4 42.5 4.44957 41.6496 5.14746 41.0996Z" fill="#1A1A1A"/>
<path d="M14.2129 51.6602L14.0166 53.1396L12.8506 52.2002C13.1796 51.7902 13.6949 51.5902 14.2129 51.6602Z" fill="#1A1A1A"/>
<path d="M40.251 50.7598C40.476 50.8898 40.73 50.96 41 50.96V52.46C40.4528 52.46 39.9416 52.3101 39.5 52.0508L40.251 50.7598Z" fill="#1A1A1A"/>
<path d="M42.5 49.46C42.5 49.4049 42.4962 49.3472 42.4883 49.2871L42.4521 49.0996L42.4297 48.9941C42.3384 48.4667 42.5361 47.9268 42.9541 47.5801L43.9072 48.7393L43.9082 48.7402C43.9662 48.9701 44 49.2101 44 49.46C44 51.12 42.657 52.46 41 52.46V50.96C41.828 50.96 42.5 50.29 42.5 49.46Z" fill="#1A1A1A"/>
<path d="M39.1006 50.6104C39.4885 50.5004 39.903 50.5498 40.251 50.7598L39.498 52.0498L38.1895 51.3203C38.3854 50.9705 38.7138 50.7104 39.1006 50.6104Z" fill="#1A1A1A"/>
<path d="M43.5 46.46C43.5 46.1 43.3595 45.7595 43.1045 45.4795C42.5675 44.9095 42.5675 44.0104 43.1045 43.4404C43.3595 43.1604 43.5 42.82 43.5 42.46C43.5 42.0136 43.284 41.5901 42.9082 41.3037L42.7383 41.1904L42.6182 41.1133C42.3488 40.9217 42.1492 40.6439 42.0547 40.3203L43.4893 39.9014L43.4912 39.8965C43.4916 39.8977 43.4928 39.8992 43.4932 39.9004C44.395 40.4204 45 41.3701 45 42.46C45 43.2299 44.6961 43.93 44.2012 44.46C44.6961 44.99 45 45.69 45 46.46C45 47.3688 44.5757 48.1873 43.9102 48.7373L42.9541 47.5801C43.3021 47.2901 43.5 46.89 43.5 46.46Z" fill="#1A1A1A"/>
<path d="M33.9727 32.4688C38.4889 32.657 42.2573 35.7317 43.4912 39.8945L42.0547 40.3203C40.9647 36.6404 37.5611 33.9601 33.5332 33.96H15.3887C10.9909 33.9601 7.33805 37.1599 6.62695 41.3496C6.56495 41.7196 6.36817 42.0503 6.07617 42.2803L5.14746 41.0996C5.97859 36.1999 10.247 32.4601 15.3887 32.46H33.5332L33.9727 32.4688Z" fill="#1A1A1A"/>
<path d="M23.7469 19.46C33.8949 19.46 41.8369 26.9899 45.6049 31.3799C47.2129 33.2499 47.5389 35.8299 46.7509 38.1699L46.2049 39.7899C45.5159 41.8399 43.3279 42.96 41.3049 42.21C35.6069 40.08 29.6179 37.28 23.8999 37.28C18.8459 37.28 12.5689 40.2599 6.95193 42.3199C5.01493 43.0299 2.92893 41.9899 2.18093 40.0699L1.45893 38.21C0.540929 35.85 0.782931 33.1899 2.40093 31.2499C6.06593 26.8399 13.7009 19.46 23.7469 19.46Z" fill="#681ABB"/>
<path d="M38.4111 24.6973C39.1279 25.2152 39.8098 25.7496 40.4561 26.2881C40.6561 27.1472 40.853 28.121 41.0332 29.0771C41.614 32.1623 41.2562 35.3589 40.1738 38.001L38.8379 41.248C38.2813 41.0298 37.7225 40.8096 37.1621 40.5908L38.5078 37.3184C39.4573 35.0007 39.7816 32.1577 39.2646 29.4111L38.9775 27.9531C38.6884 26.5552 38.3991 25.3774 38.165 24.7969L38.4111 24.6973ZM5.16797 28.2285C5.46213 28.432 5.75918 28.642 6.0498 28.8535C7.87074 30.1794 9.023 32.1969 9.48242 34.4287L10.7695 40.6992L9.00684 41.0605L7.71973 34.791C7.35915 33.0397 6.50653 31.5293 5.24707 30.5068L4.99023 30.3086C4.62431 30.0423 4.25549 29.7817 3.89941 29.54C4.29432 29.1129 4.71834 28.6744 5.16797 28.2285ZM12.2695 22.7207C12.9826 23.3304 13.732 24.0073 14.4248 24.6562C16.0651 26.1917 16.9844 28.3334 17.1973 30.627L17.8975 38.2051C17.317 38.3779 16.7318 38.5695 16.1426 38.7715L15.4053 30.793C15.2261 28.8627 14.4629 27.1563 13.1953 25.9697C12.3662 25.1931 11.4647 24.387 10.6572 23.7168C11.178 23.3716 11.7162 23.0393 12.2695 22.7207ZM31.4717 20.9072C32.1747 21.1704 32.8592 21.4653 33.5264 21.7822C33.8371 23.1628 34.175 24.8348 34.4609 26.4277C35.0122 29.504 34.4855 32.5831 33.2314 35.0127L32.9707 35.4893L31.249 38.4766C30.6516 38.295 30.0545 38.128 29.459 37.9775L31.4111 34.5908C32.6357 32.4671 33.2033 29.6146 32.6895 26.7461C32.2998 24.5748 31.8305 22.3377 31.4717 20.9072ZM24.6045 22.6533C25.9859 25.4182 26.5219 28.6674 26.0762 31.6035L25.9736 32.1865L24.9639 37.2305C24.5681 37.2047 24.1739 37.1904 23.7812 37.1904C23.5669 37.1904 23.3502 37.1964 23.1318 37.207L24.208 31.834L24.2969 31.3291C24.6824 28.7825 24.219 25.9095 22.9941 23.458C22.3696 22.2085 21.6926 20.8565 21.0811 19.6338C21.7143 19.5513 22.3586 19.4971 23.0137 19.4736C23.5352 20.5167 24.0881 21.6202 24.6045 22.6533Z" fill="white" fill-opacity="0.3"/>
<path d="M23.747 19.46C33.8949 19.46 41.8359 26.9891 45.6044 31.3809H45.6054C47.2129 33.2519 47.5398 35.8295 46.7509 38.1699L46.206 39.7891V39.79L46.1366 39.9785C45.3821 41.8929 43.2778 42.938 41.2909 42.2861V42.2871C41.1384 42.2403 40.9858 42.1907 40.8398 42.1436C40.692 42.0959 40.5499 42.0498 40.4091 42.0068L40.4013 42.0049L40.3935 42.002L40.6278 41.29L40.6318 41.2764L40.3935 42.002C34.9194 40.2031 29.1613 38.3203 23.747 38.3203C21.2251 38.3203 18.4243 38.8796 15.5605 39.6729L15.5595 39.6719C13.3983 40.2764 11.1897 41.0017 9.03996 41.7119C8.34746 41.9408 7.65469 42.1728 6.97551 42.3936C5.01308 43.0311 2.92892 41.9867 2.18156 40.0723L3.01848 39.7461L2.8798 39.7998L2.18156 40.0723L2.18058 40.0713L1.4589 38.2119L1.3007 37.7656C0.576885 35.5212 0.884999 33.0716 2.40226 31.25C6.06768 26.8389 13.7024 19.46 23.747 19.46ZM23.747 20.96C14.4184 20.96 7.17144 27.8561 3.55461 32.209V32.21L3.21281 31.9248L3.08 31.8145L3.55461 32.21C2.34108 33.6669 2.10341 35.7289 2.85734 37.668V37.6689L3.57902 39.5273L3.67668 39.7461C4.21019 40.8056 5.41067 41.325 6.51262 40.9668C7.18723 40.7476 7.87094 40.5192 8.57023 40.2881C10.7176 39.5786 12.9581 38.8429 15.1581 38.2275H15.1601C18.0721 37.4209 21.025 36.8203 23.747 36.8203C29.4464 36.8203 35.4425 38.7961 40.8622 40.5771C41.0111 40.6227 41.1589 40.6701 41.3007 40.7158L41.7314 40.8525L41.7402 40.8555L41.748 40.8584C42.9957 41.2738 44.3508 40.5912 44.7841 39.3105L45.329 37.6904L45.4394 37.3301C45.9024 35.6435 45.6428 33.9255 44.6835 32.6299L44.4677 32.3584H44.4667C40.739 28.014 33.1864 20.96 23.747 20.96Z" fill="#1A1A1A"/>
<path d="M26.3079 44.5235C26.6034 44.2334 27.0782 44.2379 27.3685 44.5333C27.6585 44.8287 27.654 45.3036 27.3587 45.5938L27.2366 45.7139L27.2347 45.7149L26.7112 45.1788L26.6517 45.1182L27.2347 45.7149C25.5545 47.3553 22.8527 47.2902 21.2542 45.5694C20.9723 45.2659 20.9898 44.7908 21.2933 44.5088C21.5967 44.2269 22.0719 44.2444 22.3538 44.5479C23.3785 45.6511 25.1098 45.6931 26.1868 44.6417V44.6426L26.3079 44.5235Z" fill="#1A1A1A"/>
<path d="M29.0002 42.46C29.6602 42.46 30.1952 42.9524 30.1952 43.56C30.1952 44.1675 29.6602 44.66 29.0002 44.66C28.3402 44.66 27.8052 44.1675 27.8052 43.56C27.8052 42.9524 28.3402 42.46 29.0002 42.46Z" fill="#1A1A1A"/>
<path d="M19.0002 42.46C18.3402 42.46 17.8052 42.9524 17.8052 43.56C17.8052 44.1675 18.3402 44.66 19.0002 44.66C19.6602 44.66 20.1952 44.1675 20.1952 43.56C20.1952 42.9524 19.6602 42.46 19.0002 42.46Z" fill="#1A1A1A"/>
</svg>
