<svg width="48" height="55" viewBox="0 0 48 55" fill="none" xmlns="http://www.w3.org/2000/svg">
<path d="M33.533 32.46C38.245 32.46 42.221 35.6 43.493 39.9C44.395 40.42 45 41.37 45 42.46C45 43.23 44.696 43.93 44.201 44.46C44.696 44.99 45 45.69 45 46.46C45 47.37 44.575 48.1899 43.908 48.7399C43.966 48.9699 44 49.21 44 49.46C44 51.12 42.657 52.46 41 52.46C40.452 52.46 39.94 52.3099 39.498 52.0499C38.942 53.0499 37.978 53.71 36.882 53.71C36.621 53.71 36.367 53.6699 36.124 53.5999C35.557 54.2799 34.763 54.71 33.882 54.71C33.12 54.71 32.422 54.3899 31.881 53.8599C31.34 54.3899 30.643 54.71 29.882 54.71C29.12 54.71 28.422 54.3899 27.881 53.8599C27.34 54.3899 26.643 54.71 25.882 54.71C24.859 54.71 23.95 54.1299 23.382 53.2499C22.813 54.1299 21.905 54.71 20.882 54.71C20.12 54.71 19.422 54.3899 18.881 53.8599C18.34 54.3899 17.643 54.71 16.882 54.71C15.834 54.71 14.908 54.1099 14.343 53.1899C14.233 53.1699 14.125 53.16 14.017 53.14C13.487 53.8 12.738 54.21 11.904 54.21C11.057 54.21 10.297 53.7899 9.76599 53.1099C9.39399 53.3299 8.963 53.46 8.5 53.46C7.119 53.46 6 52.34 6 50.96C6 50.32 6.23999 49.7399 6.63199 49.2999C5.67999 48.9499 5 48.03 5 46.96C5 46.64 5.06 46.3399 5.168 46.0599C4.496 45.8499 4 45.1399 4 44.2899C4 44.1599 4.01099 44.0399 4.03299 43.9099C4.01099 43.7699 4 43.61 4 43.46C4 42.5 4.45001 41.6499 5.14801 41.0999C5.97901 36.1999 10.247 32.46 15.389 32.46H33.533Z" fill="white"/>
<path d="M14.4922 51.6904C14.8999 51.7342 15.271 51.9384 15.5215 52.2568L15.6211 52.4004L15.7549 52.5957C16.0818 53.0188 16.4977 53.2099 16.8818 53.21V54.71C15.834 54.7099 14.9078 54.1102 14.3428 53.1904C14.2328 53.1704 14.1246 53.1596 14.0166 53.1396L14.2129 51.6602C14.3469 51.6702 14.4142 51.6804 14.4922 51.6904Z" fill="#1A1A1A"/>
<path d="M18.8779 53.8623C18.3373 54.3907 17.6415 54.71 16.8818 54.71V53.21C17.2068 53.21 17.54 53.07 17.835 52.79L18.8779 53.8623Z" fill="#1A1A1A"/>
<path d="M19.9268 52.79C20.2217 53.07 20.5549 53.2099 20.8818 53.21V54.71C20.1209 54.7099 19.4235 54.391 18.8828 53.8623L19.9268 52.79Z" fill="#1A1A1A"/>
<path d="M23.3818 51.75C23.8918 51.75 24.3676 52.0104 24.6436 52.4404C24.9835 52.9703 25.4519 53.2099 25.8818 53.21V54.71C24.8589 54.7099 23.9498 54.13 23.3818 53.25C22.8128 54.1299 21.9048 54.71 20.8818 54.71V53.21C21.3118 53.21 21.7791 52.9702 22.1201 52.4404L22.2324 52.2871C22.5152 51.9492 22.9347 51.75 23.3818 51.75Z" fill="#1A1A1A"/>
<path d="M27.8779 53.8623C27.3373 54.3907 26.6415 54.71 25.8818 54.71V53.21C26.2068 53.21 26.54 53.07 26.835 52.79L27.8779 53.8623Z" fill="#1A1A1A"/>
<path d="M28.9268 52.79C29.2217 53.07 29.5549 53.2099 29.8818 53.21V54.71C29.1209 54.7099 28.4235 54.391 27.8828 53.8623L28.9268 52.79Z" fill="#1A1A1A"/>
<path d="M31.8779 53.8623C31.3373 54.3907 30.6415 54.71 29.8818 54.71V53.21C30.2068 53.21 30.54 53.07 30.835 52.79L31.8779 53.8623Z" fill="#1A1A1A"/>
<path d="M32.9268 52.79C33.2217 53.07 33.5549 53.2099 33.8818 53.21V54.71C33.1209 54.7099 32.4235 54.391 31.8828 53.8623L32.9268 52.79Z" fill="#1A1A1A"/>
<path d="M34.9697 52.6396C35.3517 52.1797 35.969 51.9902 36.542 52.1602C36.6539 52.1901 36.7669 52.2099 36.8818 52.21V53.71C36.6209 53.7099 36.367 53.6696 36.124 53.5996C35.557 54.2796 34.7628 54.71 33.8818 54.71V53.21C34.2538 53.21 34.6457 53.0296 34.9697 52.6396Z" fill="#1A1A1A"/>
<path d="M9.00391 51.8203C9.60942 51.4641 10.3758 51.5732 10.8516 52.0742L10.9434 52.1797L11.0547 52.3086C11.3216 52.5873 11.6242 52.71 11.9043 52.71V54.21L11.7461 54.2051C10.9628 54.1564 10.2634 53.7478 9.76562 53.1104C9.39373 53.3302 8.96281 53.46 8.5 53.46V51.96C8.67991 51.96 8.84997 51.9102 9.00391 51.8203Z" fill="#1A1A1A"/>
<path d="M14.0137 53.1426C13.4839 53.8006 12.7368 54.2099 11.9043 54.21V52.71C12.2191 52.7099 12.5607 52.5598 12.8506 52.2002L14.0137 53.1426Z" fill="#1A1A1A"/>
<path d="M17.835 52.79C18.4169 52.2201 19.3448 52.2201 19.9268 52.79L18.8809 53.8604L17.835 52.79Z" fill="#1A1A1A"/>
<path d="M26.835 52.79C27.4169 52.2201 28.3448 52.2201 28.9268 52.79L27.8809 53.8604L26.835 52.79Z" fill="#1A1A1A"/>
<path d="M30.835 52.79C31.4169 52.2201 32.3448 52.2201 32.9268 52.79L31.8809 53.8604L30.835 52.79Z" fill="#1A1A1A"/>
<path d="M39.4951 52.0537C38.9388 53.0514 37.9763 53.71 36.8818 53.71V52.21C37.3388 52.21 37.8485 51.9303 38.1895 51.3203L39.4951 52.0537Z" fill="#1A1A1A"/>
<path d="M5.14746 41.0996L6.07617 42.2803C5.72119 42.5603 5.5 42.98 5.5 43.46C5.5 43.5048 5.50118 43.5447 5.50391 43.582L5.51562 43.6904L5.5293 43.8115C5.53787 43.9343 5.53126 44.0597 5.50879 44.1797L4.04688 43.9121L4.03223 43.915L5.50879 44.1797C5.50379 44.2097 5.5 44.25 5.5 44.29C5.50002 44.42 5.53916 44.5201 5.57715 44.5801C5.59725 44.6095 5.61321 44.6244 5.62109 44.6309L5.61523 44.6299C6.01114 44.7499 6.33759 45.0402 6.51855 45.4102C6.69849 45.78 6.7172 46.2097 6.56836 46.5996C6.52336 46.7196 6.5 46.84 6.5 46.96C6.5 47.3274 6.70411 47.6569 7.01367 47.834L7.15332 47.9004L7.32129 47.9736C7.70145 48.1687 7.98188 48.5203 8.08691 48.9404C8.20672 49.4203 8.0818 49.9299 7.75293 50.2998L6.63281 49.3008L6.63184 49.3047L7.75293 50.2998C7.59293 50.4798 7.5 50.71 7.5 50.96C7.5 51.51 7.948 51.96 8.5 51.96V53.46C7.119 53.46 6 52.34 6 50.96C6 50.32 6.23984 49.7398 6.63184 49.2998C5.67993 48.9498 5 48.0299 5 46.96C5 46.64 5.05997 46.3396 5.16797 46.0596C4.53796 45.8626 4.06271 45.2265 4.00586 44.4473L4 44.29C4 44.1601 4.01123 44.0401 4.0332 43.9102C4.0112 43.7702 4 43.61 4 43.46C4 42.5 4.44957 41.6496 5.14746 41.0996Z" fill="#1A1A1A"/>
<path d="M14.2129 51.6602L14.0166 53.1396L12.8506 52.2002C13.1796 51.7902 13.6949 51.5902 14.2129 51.6602Z" fill="#1A1A1A"/>
<path d="M40.251 50.7598C40.476 50.8898 40.73 50.96 41 50.96V52.46C40.4528 52.46 39.9416 52.3101 39.5 52.0508L40.251 50.7598Z" fill="#1A1A1A"/>
<path d="M42.5 49.46C42.5 49.4049 42.4962 49.3472 42.4883 49.2871L42.4521 49.0996L42.4297 48.9941C42.3384 48.4667 42.5361 47.9268 42.9541 47.5801L43.9072 48.7393L43.9082 48.7402C43.9662 48.9701 44 49.2101 44 49.46C44 51.12 42.657 52.46 41 52.46V50.96C41.828 50.96 42.5 50.29 42.5 49.46Z" fill="#1A1A1A"/>
<path d="M39.1006 50.6104C39.4885 50.5004 39.903 50.5498 40.251 50.7598L39.498 52.0498L38.1895 51.3203C38.3854 50.9705 38.7138 50.7104 39.1006 50.6104Z" fill="#1A1A1A"/>
<path d="M43.5 46.46C43.5 46.1 43.3595 45.7595 43.1045 45.4795C42.5675 44.9095 42.5675 44.0104 43.1045 43.4404C43.3595 43.1604 43.5 42.82 43.5 42.46C43.5 42.0136 43.284 41.5901 42.9082 41.3037L42.7383 41.1904L42.6182 41.1133C42.3488 40.9217 42.1492 40.6439 42.0547 40.3203L43.4893 39.9014L43.4912 39.8965C43.4916 39.8977 43.4928 39.8992 43.4932 39.9004C44.395 40.4204 45 41.3701 45 42.46C45 43.2299 44.6961 43.93 44.2012 44.46C44.6961 44.99 45 45.69 45 46.46C45 47.3688 44.5757 48.1873 43.9102 48.7373L42.9541 47.5801C43.3021 47.2901 43.5 46.89 43.5 46.46Z" fill="#1A1A1A"/>
<path d="M33.9727 32.4688C38.4889 32.657 42.2573 35.7317 43.4912 39.8945L42.0547 40.3203C40.9647 36.6404 37.5611 33.9601 33.5332 33.96H15.3887C10.9909 33.9601 7.33805 37.1599 6.62695 41.3496C6.56495 41.7196 6.36817 42.0503 6.07617 42.2803L5.14746 41.0996C5.97859 36.1999 10.247 32.4601 15.3887 32.46H33.5332L33.9727 32.4688Z" fill="#1A1A1A"/>
<path d="M23.9003 20.425C35.6313 20.425 43.7663 33.9001 46.3273 38.7801C46.8833 39.8401 46.7173 41.11 45.9683 42.04C45.5613 42.55 44.8883 42.7601 44.2693 42.5601C37.7743 40.4901 30.5083 37.2801 23.9003 37.2801C18.2823 37.2801 11.1522 40.97 5.09725 42.97C4.15025 43.28 3.12426 42.9001 2.56826 42.0701C1.69526 40.7701 1.53828 39.1201 2.26928 37.7401C4.98128 32.6001 12.6003 20.425 23.9003 20.425Z" fill="url(#paint0_linear_53654_3513)"/>
<path d="M16.0003 38.7101C16.0003 33.7101 15.0933 26.5311 15.0933 23.0311L17.5003 21.707L23.5003 20.707L30.0003 21.707C30.0003 27.307 30.8333 35.2101 31.0003 38.7101L28.0003 38.2101L22.0003 37.7101L16.0003 38.7101Z" fill="#2C2C2C"/>
<path d="M23.7029 19.948C29.6809 19.948 34.8946 23.3845 38.9402 27.3894C42.9872 31.3937 45.8665 35.9689 47.1736 38.2351L47.1746 38.2361C47.7097 39.1668 47.8556 40.2526 47.6541 41.3015L46.1804 41.0183C46.3208 40.2874 46.2126 39.5724 45.8738 38.9832C44.5965 36.7688 41.7956 32.3246 37.8855 28.4558L37.1375 27.7351C33.3428 24.1838 28.7614 21.448 23.7029 21.448C18.5849 21.4481 14.0304 24.2502 10.2976 27.8728C6.58198 31.4785 3.85613 35.7319 2.41871 38.2429L2.32789 38.4138C1.90315 39.2808 1.91053 40.3334 2.36207 41.2898L2.36305 41.2917C2.60136 41.8011 3.14611 42.0278 3.62965 41.8748C4.85461 41.4876 6.17866 41.04 7.55543 40.5701L7.56032 40.5691L7.75856 41.1638L7.77516 41.2117L7.56032 40.5691C9.06053 40.0678 10.6249 39.54 12.1795 39.0486L13.7283 38.571C17.193 37.5288 20.7336 36.6805 23.7029 36.6804C26.9627 36.6804 30.7102 37.4408 34.3865 38.4353C37.3687 39.2312 40.3827 40.2074 43.1248 41.0964L43.1326 41.0994C43.7786 41.317 44.4059 41.5133 45.0339 41.7156C45.5322 41.8754 46.0748 41.565 46.1804 41.0183L47.6541 41.3015C47.3986 42.6262 46.1232 43.4735 44.8347 43.2117L44.5769 43.1443L44.8015 42.4441L44.8054 42.4304L44.5769 43.1443C43.9661 42.9476 43.3185 42.7433 42.6619 42.5222C39.9139 41.6313 36.9385 40.6686 34.0007 39.8845L33.9978 39.8835C30.3573 38.8986 26.762 38.1804 23.7029 38.1804C20.9687 38.1805 17.6077 38.971 14.1589 40.0085C12.1356 40.6139 10.0481 41.3179 8.03981 41.989C6.66276 42.459 5.32468 42.9116 4.0818 43.3044L4.08278 43.3054C2.86104 43.6921 1.55486 43.0987 1.0066 41.9294C0.336424 40.5097 0.33644 38.8596 1.11793 37.4968C2.58863 34.9277 5.39471 30.5405 9.2527 26.7966C13.1117 23.0515 18.0232 19.9481 23.7029 19.948Z" fill="#1A1A1A"/>
<path d="M9.14476 31.8601C8.47514 30.8155 10.398 30.6632 10.9416 30.739C10.7325 31.3701 9.69472 32.7101 9.14476 31.8601ZM32.0422 30.1833C32.5624 30.3635 34.2187 31.3798 33.1604 31.9998C32.2925 32.5097 31.9544 30.8396 32.0422 30.1833ZM14.0158 30.0867C14.2288 30.7026 14.2062 32.3696 13.2346 32.0203C12.0507 31.6003 13.5267 30.3468 14.0158 30.0867ZM34.6799 30.0339C35.1179 29.6949 36.8678 28.864 36.7668 30.1169C36.6838 31.1499 35.1539 30.4809 34.6799 30.0339ZM11.9162 29.3132C11.8282 28.6582 12.1664 26.9819 13.0344 27.4949C14.0931 28.1209 12.4362 29.1342 11.9162 29.3132ZM31.3459 26.532C31.8929 26.558 33.7556 27.0648 32.9045 27.9646C32.2055 28.7036 31.4349 27.188 31.3459 26.532Z" fill="#FDEECE"/>
<path d="M26.3079 44.5235C26.6034 44.2334 27.0782 44.2379 27.3685 44.5333C27.6585 44.8287 27.654 45.3036 27.3587 45.5938L27.2366 45.7139L27.2347 45.7149L26.7112 45.1788L26.6517 45.1182L27.2347 45.7149C25.5545 47.3553 22.8527 47.2902 21.2542 45.5694C20.9723 45.2659 20.9898 44.7908 21.2933 44.5088C21.5967 44.2269 22.0719 44.2444 22.3538 44.5479C23.3785 45.6511 25.1098 45.6931 26.1868 44.6417V44.6426L26.3079 44.5235Z" fill="#1A1A1A"/>
<path d="M28.9997 42.4602C29.6597 42.4602 30.1947 42.9527 30.1947 43.5602C30.1947 44.1677 29.6597 44.6602 28.9997 44.6602C28.3397 44.6602 27.8047 44.1677 27.8047 43.5602C27.8047 42.9527 28.3397 42.4602 28.9997 42.4602Z" fill="#1A1A1A"/>
<path d="M18.9997 42.4602C18.3397 42.4602 17.8047 42.9527 17.8047 43.5602C17.8047 44.1677 18.3397 44.6602 18.9997 44.6602C19.6597 44.6602 20.1947 44.1677 20.1947 43.5602C20.1947 42.9527 19.6597 42.4602 18.9997 42.4602Z" fill="#1A1A1A"/>
<defs>
<linearGradient id="paint0_linear_53654_3513" x1="5.89327" y1="37.8" x2="47.1873" y2="40.23" gradientUnits="userSpaceOnUse">
<stop offset="0.504808" stop-color="#664435"/>
<stop offset="1" stop-color="#2C2C2C"/>
</linearGradient>
</defs>
</svg>
