<svg width="48" height="55" viewBox="0 0 48 55" fill="none" xmlns="http://www.w3.org/2000/svg">
<path d="M11.2513 36.4961L11.8197 42.7559L13.4525 47.7559L15.1712 49.8184C14.0409 50.2033 12.8732 50.2542 11.763 49.8984C8.18721 48.7524 6.56671 43.8336 8.14389 38.9121C8.50075 37.7986 8.9915 36.7806 9.57748 35.8848L11.2513 36.4961Z" fill="#78B136"/>
<path d="M37.4521 49.2562L40.4521 44.2562L43.4521 40.7562L45.4521 37.2562V34.0402L41.4521 36.2562L38.9521 32.7562L34.4521 29.2562L31.2168 28.3582L25.1886 26.1032L23.4919 23.7502L19.2988 20.0332L17.7456 20.7402L11.8194 29.6902L11.117 35.0112L11.8194 42.7562L13.4521 47.7562L15.9521 50.7562L20.9522 52.7562L24.4546 53.3172H28.5L32.9521 52.2562L37.4521 49.2562Z" fill="#FFA629"/>
<path d="M23.081 24.7061C24.3692 28.2811 21.4241 36.3361 14.2458 37.4641C14.0861 37.4901 13.9206 37.4711 13.7687 37.4161L7.39151 35.0861C7.12931 34.9901 6.91901 34.7891 6.81161 34.5311L4.62181 29.2761C4.53031 29.0561 4.52011 28.8111 4.59281 28.5851L5.91871 24.4602C5.95921 24.3342 6.02441 24.2171 6.11051 24.1171L8.67161 21.1201C8.81471 20.9521 9.00911 20.8371 9.22461 20.7911L13.8409 19.8131C13.9616 19.7881 14.0861 19.7851 14.208 19.8051L18.2129 20.4541C18.4004 20.4841 18.5754 20.5671 18.7174 20.6931L22.8332 24.3521C22.943 24.4491 23.0312 24.5681 23.081 24.7061Z" fill="#F79722"/>
<path d="M10.9999 34C8.99992 34 7.99992 34 5.49992 36.5C4.87932 37.121 4.45132 34.853 4.45492 32.923C4.45802 31.248 5.58382 29.706 7.22322 29.364C8.62552 29.071 10.1993 29.111 10.7074 29.188C12.4237 30.458 11.5294 33.285 10.9999 34Z" fill="#412621"/>
<path d="M35.5589 49.1712C26.141 48.2242 22.9392 38.9572 22.4695 33.7862C22.432 33.3722 22.6743 32.9882 23.0613 32.8372C26.1654 31.6312 28.6081 31.7502 30.7393 32.2662C33.0046 32.8142 35.1089 34.0392 36.46 35.9382C39.1111 39.6652 40.4909 44.7752 41.0877 47.8472C41.1754 48.2982 40.9323 48.7472 40.4859 48.8562C38.8863 49.2482 36.3893 49.2662 35.5589 49.1712Z" fill="#78B136"/>
<path d="M39.8594 43.353C36.2376 44.479 26.2415 43.854 22.7415 37.354V32.5H32L36.5 35.5L38.0196 38.394L39.0595 40.713L39.8594 43.353Z" fill="#FFCD29"/>
<path d="M9.34066 19.8877C10.8904 18.9519 13.5245 18.2022 16.4871 18.8936C19.4069 19.5753 22.5542 21.6349 25.2674 26.0899C26.8921 26.3002 29.7979 26.8599 32.7606 28.208C35.8853 29.6301 39.1391 31.959 40.9676 35.7354C41.3629 35.8708 41.6186 35.924 41.9276 35.8526C42.3294 35.7594 42.9502 35.4187 43.9578 34.3282C44.3543 33.8991 44.9335 33.6831 45.4842 33.7881C45.7649 33.8419 46.0432 33.9821 46.2537 34.2256C46.4664 34.4719 46.574 34.7814 46.5868 35.1065C46.6862 37.653 44.96 41.224 41.0086 44.2823C41.3694 45.5599 41.636 46.7362 41.8241 47.7041L41.8455 47.8516C41.9217 48.5937 41.5016 49.3804 40.6639 49.585L40.3289 49.6592C39.6033 49.8071 38.7723 49.8885 38.0067 49.9307C37.7418 50.2703 37.4444 50.6069 37.1043 50.9317C34.8566 53.0781 30.9998 54.6834 24.286 54.6866C22.2111 54.6876 20.1076 54.2792 18.2215 53.3135L17.6639 53.0166C16.4505 52.3475 15.4035 51.6035 14.5116 50.7676C13.5271 50.9614 12.5182 50.9286 11.534 50.6133C9.4615 49.9489 8.01876 48.2094 7.30941 46.0567C6.59982 43.9025 6.5988 41.2779 7.4305 38.6827C7.67387 37.9234 7.97723 37.2041 8.32992 36.5323C8.30587 36.5152 8.28145 36.4987 8.25765 36.4815C7.95638 36.2629 7.67771 36.0271 7.41683 35.7832C7.0215 36.0903 6.56732 36.4941 6.03011 37.0313L6.02914 37.0303C5.86277 37.1965 5.58283 37.3849 5.2098 37.3516C4.85422 37.3198 4.61956 37.1035 4.49398 36.9502C4.25365 36.6568 4.11133 36.228 4.01644 35.8516C3.81286 35.0437 3.70307 33.9285 3.70492 32.9219C3.70655 32.0642 3.95628 31.226 4.40218 30.5166C3.37928 25.7898 6.20561 21.7821 9.34066 19.8877ZM16.1463 20.3545C13.7633 19.7984 11.6483 20.3388 10.3621 21.0313L10.1161 21.1719C7.59859 22.6931 5.43831 25.66 5.72347 29.1778C6.12539 28.9217 6.57735 28.7327 7.07015 28.6299V28.6309C8.37429 28.3584 9.81085 28.3526 10.5487 28.4161L10.8202 28.4473L10.909 28.4659C10.9968 28.4904 11.0794 28.5314 11.1532 28.586C12.3102 29.4423 12.5278 30.787 12.4432 31.8614C12.3594 32.9244 11.968 33.9537 11.6024 34.4473L10.9998 34V34.001L11.6024 34.4473C11.4609 34.6379 11.2372 34.751 10.9998 34.751C10.0161 34.751 9.41422 34.7589 8.77914 34.9873C8.89517 35.0835 9.01469 35.1778 9.13851 35.2676C10.3567 36.1511 11.9955 36.7464 14.2469 36.5918C14.6598 36.5638 15.0182 36.8762 15.0467 37.2891C15.0747 37.7019 14.7622 38.0593 14.3494 38.0879C13.4574 38.1492 12.637 38.1056 11.8836 37.9805C11.7897 41.5697 12.1961 44.3239 13.2293 46.5137C14.3053 48.7934 16.0988 50.5401 18.9061 51.9786H18.9051C20.5417 52.8164 22.402 53.1874 24.285 53.1866C30.6484 53.1836 34.0589 51.6901 35.952 49.9502C35.7712 49.9415 35.6131 49.9305 35.4842 49.9161H35.4735C30.5018 49.4128 27.1653 46.7029 25.033 43.4766C22.913 40.2686 21.9658 36.5323 21.7225 33.8545C21.6545 33.1021 22.0967 32.4088 22.7889 32.1387L22.7899 32.1377C26.0573 30.8684 28.6589 30.9907 30.9159 31.5372C33.3178 32.1182 35.5943 33.4284 37.0711 35.5039C38.6243 37.6875 39.7474 40.3121 40.5399 42.7413C43.8183 40.0468 45.0873 37.1519 45.0897 35.3194C45.0802 35.3275 45.069 35.3354 45.0594 35.3457C43.9878 36.5056 43.1121 37.1174 42.2655 37.3135C41.3949 37.5148 40.69 37.2361 40.1659 37.044C39.9779 36.9749 39.8251 36.8326 39.742 36.6504C38.1461 33.1467 35.1544 30.9454 32.1395 29.5733C29.1255 28.2018 26.1552 27.691 24.7303 27.5332C24.4957 27.5072 24.2858 27.3723 24.1659 27.169C21.5775 22.7777 18.6631 20.9422 16.1463 20.3545ZM9.62777 37.2862C9.32911 37.8629 9.07001 38.483 8.85921 39.1407C8.11366 41.4671 8.13402 43.7649 8.73421 45.587C9.33473 47.4095 10.4895 48.7029 11.992 49.1846C12.3984 49.3148 12.8185 49.3796 13.2459 49.3858C12.7093 48.6991 12.2518 47.9583 11.8719 47.1534C10.6623 44.5897 10.2637 41.4613 10.3953 37.6006C10.1295 37.5071 9.87384 37.4009 9.62777 37.2862ZM30.5633 32.9952C28.5581 32.5097 26.2731 32.3929 23.3328 33.5352L23.3338 33.5362C23.2523 33.5681 23.2098 33.6435 23.2166 33.7188C23.4432 36.212 24.3315 39.6949 26.284 42.6495C28.2231 45.5836 31.1936 47.9783 35.6336 48.4248L35.6444 48.4258C36.0029 48.4668 36.7897 48.4881 37.7 48.4473C38.6086 48.4066 39.5771 48.3069 40.3075 48.128C40.3172 48.1256 40.3228 48.1219 40.325 48.1202C40.3279 48.1178 40.3324 48.1127 40.3377 48.1036C40.3436 48.0934 40.3502 48.0786 40.3534 48.0596L40.3514 47.9903C39.7602 44.9473 38.4045 39.9664 35.8485 36.3731C34.6232 34.651 32.6916 33.5101 30.5633 32.9952ZM10.3993 29.9082C9.81989 29.8605 8.53265 29.8572 7.37679 30.0987L7.14535 30.1582C6.01215 30.5109 5.20731 31.6484 5.20492 32.9248C5.20323 33.847 5.30529 34.8304 5.46957 35.4834C6.50462 34.5084 7.33842 33.9324 8.16781 33.6133C8.98503 33.299 9.75005 33.2585 10.5614 33.253C10.7191 32.9071 10.9 32.3528 10.9481 31.7442C11.0081 30.9824 10.8512 30.3309 10.3993 29.9082Z" fill="#1A1A1A"/>
<path d="M8.13458 24.3398C9.16475 24.3398 9.99982 25.1749 9.99982 26.2051C9.99972 27.2352 9.16469 28.0703 8.13458 28.0703C7.1045 28.0703 6.26945 27.2351 6.26935 26.2051C6.26935 25.1749 7.10444 24.3399 8.13458 24.3398ZM15.1346 24.3398C16.1648 24.3398 16.9998 25.1749 16.9998 26.2051C16.9997 27.2352 16.1647 28.0703 15.1346 28.0703C14.1045 28.0703 13.2694 27.2351 13.2693 26.2051C13.2693 25.1749 14.1044 24.3399 15.1346 24.3398Z" fill="#FFE0C2"/>
<path d="M15.2049 25C15.8704 25 16.4099 25.5395 16.4099 26.205C16.4099 26.8705 15.8704 27.41 15.2049 27.41C14.5394 27.41 13.9999 26.8705 13.9999 26.205C13.9999 25.5395 14.5394 25 15.2049 25Z" fill="#1A1A1A"/>
<path d="M8.20476 25C7.53925 25 6.99976 25.5395 6.99976 26.205C6.99976 26.8705 7.53925 27.41 8.20476 27.41C8.87026 27.41 9.40976 26.8705 9.40976 26.205C9.40976 25.5395 8.87026 25 8.20476 25Z" fill="#1A1A1A"/>
</svg>
