<svg width="48" height="55" viewBox="0 0 48 55" fill="none" xmlns="http://www.w3.org/2000/svg">
<path d="M10.1178 37.1807C10.3487 37.3456 10.6368 37.4079 10.9107 37.335C11.0449 37.2989 11.1798 37.2574 11.316 37.2148L11.8189 42.7598L13.4517 47.7598L15.1705 49.8232C14.0405 50.2078 12.8731 50.258 11.7633 49.9023C8.18734 48.7563 6.56686 43.8376 8.14413 38.916C8.41964 38.0563 8.77583 37.2541 9.19295 36.5205L10.1178 37.1807Z" fill="#603A2A"/>
<path d="M37.452 49.2601L40.452 44.2601L43.452 40.7601L45.452 37.2601V34.0441L41.452 36.2601L38.952 32.7601L34.452 29.2601L31.217 28.3621L25.189 26.1071L23.492 23.7542L19.299 20.0371L17.746 20.7441L11.819 29.6951L11.117 35.0151L11.819 42.7601L13.452 47.7601L15.952 50.7601L20.952 52.7601L24.455 53.3211L29 53.5001L32.952 52.2601L37.452 49.2601Z" fill="#FFC21A"/>
<path d="M18.512 21.3212C22.952 29.6402 16.101 35.9412 10.911 37.3352C10.637 37.4082 10.349 37.3462 10.118 37.1812L7.21197 35.1062C7.05997 34.9972 6.94198 34.8492 6.86998 34.6772L4.62198 29.2802C4.52998 29.0602 4.51998 28.8162 4.59298 28.5892L5.91897 24.4642C5.95897 24.3382 6.02398 24.2222 6.10998 24.1212L8.67197 21.1242C8.81497 20.9562 9.00897 20.8412 9.22497 20.7952L13.786 19.8292C13.942 19.7962 14.104 19.8012 14.258 19.8432L17.909 20.8442C18.165 20.9142 18.387 21.0872 18.512 21.3212Z" fill="#603A2A"/>
<path d="M11.264 32.9251C9.25697 33.7971 5.22997 33.5771 4.00297 32.8631C2.19697 31.8131 4.27298 30.4061 5.47998 29.9711C7.62098 29.0411 9.85697 29.0642 10.707 29.1922C12.424 30.4622 11.794 32.2101 11.264 32.9251Z" fill="#FFA629"/>
<path d="M15.2053 25.0044C15.8708 25.0044 16.4103 25.5439 16.4103 26.2094C16.4103 26.8749 15.8708 27.4144 15.2053 27.4144C14.5398 27.4144 14.0003 26.8749 14.0003 26.2094C14.0003 25.5439 14.5398 25.0044 15.2053 25.0044Z" fill="#1A1A1A"/>
<path d="M8.20518 25.0044C7.53968 25.0044 7.00018 25.5439 7.00018 26.2094C7.00018 26.8749 7.53968 27.4144 8.20518 27.4144C8.87069 27.4144 9.41018 26.8749 9.41018 26.2094C9.41018 25.5439 8.87069 25.0044 8.20518 25.0044Z" fill="#1A1A1A"/>
<path d="M35.559 49.175C26.141 48.228 22.939 38.961 22.47 33.79C22.432 33.376 22.674 32.992 23.061 32.842C26.165 31.635 28.608 31.754 30.739 32.27C33.005 32.818 35.109 34.043 36.46 35.942C39.111 39.669 40.491 44.78 41.088 47.851C41.175 48.302 40.932 48.751 40.486 48.86C38.886 49.252 36.389 49.27 35.559 49.175Z" fill="#603A2A"/>
<path d="M9.34041 19.8918C10.8901 18.9558 13.5241 18.206 16.4869 18.8976C19.4065 19.5794 22.5529 21.6391 25.2662 26.0939C26.891 26.3037 29.797 26.8638 32.7603 28.2121C35.8851 29.634 39.139 31.9629 40.9674 35.7394C41.3627 35.8748 41.6182 35.9281 41.9273 35.8566C42.3291 35.7636 42.9494 35.4227 43.9566 34.3322L43.9576 34.3312L44.1148 34.1808C44.4988 33.854 45.0021 33.7002 45.484 33.7922C45.7649 33.8459 46.0429 33.9867 46.2535 34.2306C46.4658 34.477 46.5739 34.7867 46.5865 35.1115L46.5904 35.3762C46.5656 37.9013 44.8245 41.3336 41.0074 44.2883C41.2957 45.3097 41.5258 46.2658 41.7017 47.1027L41.8248 47.7082V47.7092L41.3336 47.8029L41.0885 47.8508L41.8248 47.7092C41.9659 48.4413 41.6077 49.2606 40.8267 49.5402L40.6646 49.589C39.8681 49.7842 38.8937 49.885 38.0074 49.9338C37.7423 50.2737 37.4444 50.6107 37.1041 50.9357C34.8564 53.082 31.0004 54.6875 24.2867 54.6906C22.211 54.6916 20.108 54.2833 18.2222 53.3176C16.7686 52.5728 15.5383 51.7322 14.5123 50.7707C13.5275 50.9647 12.5183 50.9329 11.5338 50.6174C9.46118 49.953 8.01853 48.2134 7.30916 46.0607C6.59958 43.9066 6.59861 41.2818 7.43025 38.6867C7.67364 37.9274 7.97795 37.2082 8.33064 36.5363C8.30675 36.5194 8.28203 36.5037 8.25838 36.4865C7.31936 35.8054 6.58345 34.98 6.0035 34.1447C5.7369 34.1139 5.47951 34.0792 5.23689 34.0344C4.6287 33.922 4.04485 33.7558 3.62557 33.5119C3.07057 33.1892 2.64472 32.7388 2.55916 32.1349C2.47636 31.5493 2.74974 31.0529 3.03377 30.7092C3.35662 30.3185 3.81097 29.9818 4.26521 29.7189C3.7037 25.3433 6.38418 21.6782 9.34041 19.8918ZM16.1451 20.3586C13.762 19.8024 11.6479 20.3428 10.3619 21.0353L10.1158 21.176C7.62503 22.6811 5.48169 25.6016 5.71248 29.0705C7.69236 28.3425 9.65029 28.3172 10.6226 28.425L10.8189 28.4504L10.9078 28.4699C10.9663 28.4862 11.0228 28.5093 11.0758 28.5392L11.1529 28.589L11.3424 28.7385C12.2536 29.4929 12.5891 30.4111 12.5777 31.2765C12.566 32.1525 12.2033 32.9182 11.8668 33.3722L11.8023 33.4465C11.7343 33.5167 11.6533 33.5742 11.5631 33.6135C10.5861 34.0378 9.25939 34.2157 7.99373 34.2385C8.33265 34.6109 8.71127 34.9619 9.13826 35.2717C10.3565 36.1551 11.9952 36.7505 14.2467 36.5959C14.6596 36.5676 15.0177 36.8793 15.0465 37.2922C15.0746 37.7052 14.7623 38.0636 14.3492 38.092C13.4573 38.1532 12.6376 38.1095 11.8844 37.9845C11.7902 41.5736 12.1959 44.328 13.2291 46.5178C14.305 48.7974 16.0981 50.5441 18.9058 51.9826C20.542 52.8206 22.4017 53.1916 24.2857 53.1906C30.6501 53.1877 34.0599 51.6933 35.9527 49.9533C35.7715 49.9445 35.613 49.9345 35.484 49.9201V49.9211C35.4818 49.9209 35.4793 49.9203 35.4771 49.9201H35.4742V49.9191C30.5023 49.4159 27.165 46.707 25.0328 43.4806C22.9129 40.2727 21.9662 36.5364 21.7232 33.8586L21.7164 33.7179C21.7107 33.0209 22.139 32.3952 22.7896 32.1428L23.3941 31.9211C26.3806 30.8896 28.7998 31.0289 30.9156 31.5412L31.3648 31.6584C33.6 32.2887 35.6875 33.5611 37.0719 35.507C38.6253 37.6911 39.7474 40.3174 40.5396 42.7472C43.8194 40.0511 45.0877 37.1543 45.0894 35.3224C45.0796 35.3308 45.0682 35.34 45.0582 35.3508C43.9874 36.5099 43.1127 37.1215 42.2662 37.3176C41.3952 37.5191 40.69 37.2402 40.1656 37.048C39.9775 36.979 39.8249 36.8368 39.7418 36.6545C38.1459 33.1506 35.1542 30.9493 32.1392 29.5773C29.5016 28.3772 26.8977 27.8371 25.3336 27.6154L24.7301 27.5383L24.6431 27.5236C24.4443 27.4776 24.2706 27.352 24.1656 27.174C21.5768 22.7817 18.6619 20.9462 16.1451 20.3586ZM9.63045 37.2912C9.33184 37.8681 9.06978 38.487 8.85896 39.1447C8.11348 41.471 8.1338 43.769 8.73396 45.591C9.33448 47.4135 10.4893 48.707 11.9918 49.1887C12.3981 49.3188 12.8183 49.3837 13.2457 49.3898C12.709 48.7032 12.2515 47.9623 11.8717 47.1574C10.6622 44.5938 10.2631 41.4651 10.3951 37.6047C10.1301 37.5114 9.87572 37.4054 9.63045 37.2912ZM30.5631 32.9992C28.5581 32.5137 26.2738 32.398 23.3336 33.5412L23.0103 32.7092L23.0885 32.9123L23.3336 33.5412H23.3326C23.2729 33.5643 23.234 33.6121 23.2213 33.6662L23.2174 33.7219V33.7228C23.4436 36.2159 24.3323 39.699 26.2847 42.6535C28.1632 45.4958 31.0096 47.8319 35.2222 48.381L35.6344 48.4289L35.6441 48.4299C36.0025 48.4708 36.7904 48.4922 37.7008 48.4513C38.6091 48.4106 39.5777 48.311 40.3082 48.132L40.3248 48.1242C40.3277 48.1219 40.333 48.117 40.3385 48.1076C40.3503 48.0869 40.362 48.047 40.3521 47.9943L40.232 47.4015C39.5864 44.3346 38.2451 39.7457 35.8492 36.3771C34.624 34.655 32.692 33.5141 30.5631 32.9992ZM10.4088 29.9133C9.5442 29.8256 7.61742 29.8608 5.77889 30.6594L5.73396 30.6769L5.48006 29.9709L5.47908 29.9719L5.73396 30.6769C5.19725 30.8704 4.51557 31.2706 4.19002 31.6642C4.11566 31.7542 4.07644 31.825 4.05818 31.8722C4.0497 31.8942 4.04654 31.9087 4.04549 31.9162C4.04505 31.9194 4.04453 31.9219 4.04451 31.923V31.926C4.04484 31.927 4.04588 31.9293 4.04744 31.9328C4.05093 31.9404 4.05959 31.9579 4.07967 31.9826C4.12163 32.0342 4.20939 32.1161 4.37947 32.215H4.38045C4.5747 32.328 4.95517 32.4574 5.50935 32.5597C6.04598 32.6588 6.68765 32.7226 7.35994 32.7394C8.62947 32.7711 9.90627 32.6314 10.7672 32.3156C10.9258 32.0458 11.0723 31.6608 11.0777 31.257C11.0832 30.8456 10.9468 30.3685 10.4088 29.9133Z" fill="#1A1A1A"/>
</svg>
