<svg width="48" height="55" viewBox="0 0 48 55" fill="none" xmlns="http://www.w3.org/2000/svg">
<path d="M11.2504 36.4951L11.8188 42.7559L13.4516 47.7549L15.1703 49.8174C14.0403 50.202 12.8729 50.2531 11.7631 49.8975C8.18727 48.7514 6.56678 43.8326 8.14395 38.9111C8.50081 37.7976 8.99156 36.7796 9.57755 35.8838L11.2504 36.4951Z" fill="#FF24BD"/>
<path d="M37.452 49.2562L40.452 44.2552L43.452 40.7552L45.452 37.2552V34.0402L41.452 36.2552L38.952 32.7552L34.452 29.2562L31.217 28.3582L25.189 26.1022L23.492 23.7492L19.299 20.0332L17.746 20.7402L11.819 29.6902L11.117 35.0112L11.819 42.7562L13.452 47.7552L15.952 50.7552L20.952 52.7562L24.455 53.3172H28.5L32.952 52.2562L37.452 49.2562Z" fill="#FFBDF2"/>
<path d="M23.081 24.7061C24.369 28.2811 21.424 36.3361 14.246 37.4641C14.086 37.4891 13.9211 37.4711 13.7691 37.4161L7.39204 35.0861C7.12904 34.9901 6.91905 34.7891 6.81205 34.5311L4.62205 29.2761C4.53005 29.0561 4.52003 28.8111 4.59303 28.5851L5.91905 24.4602C5.95905 24.3342 6.02403 24.2171 6.11003 24.1171L8.67204 21.1201C8.81504 20.9521 9.00905 20.8361 9.22505 20.7911L13.841 19.8131C13.962 19.7881 14.0861 19.7851 14.2081 19.8051L18.2131 20.4531C18.4001 20.4841 18.5751 20.5671 18.7171 20.6931L22.833 24.3521C22.943 24.4491 23.031 24.5681 23.081 24.7061Z" fill="#FF24BD"/>
<path d="M15.205 25.0005C15.8705 25.0005 16.41 25.54 16.41 26.2055C16.41 26.871 15.8705 27.4105 15.205 27.4105C14.5395 27.4105 14 26.871 14 26.2055C14 25.54 14.5395 25.0005 15.205 25.0005Z" fill="#1A1A1A"/>
<path d="M8.20488 25.0005C7.53937 25.0005 6.99988 25.54 6.99988 26.2055C6.99988 26.871 7.53937 27.4105 8.20488 27.4105C8.87038 27.4105 9.40988 26.871 9.40988 26.2055C9.40988 25.54 8.87038 25.0005 8.20488 25.0005Z" fill="#1A1A1A"/>
<path d="M10.999 33.9983C8.99899 33.9983 7.99899 33.9983 5.49899 36.4983C4.87799 37.1183 4.45001 34.8504 4.45401 32.9214C4.45701 31.2464 5.58298 29.7044 7.22198 29.3614C8.62398 29.0694 10.198 29.1093 10.706 29.1853C12.422 30.4563 11.528 33.2833 10.999 33.9983Z" fill="#FFBDF2"/>
<path d="M9 34C7 32.999 6.5 31 6.5 30L5.5 30.5L4.5 33.5L5.5 36.5L9 34Z" fill="#2C2C2C"/>
<path d="M35.559 49.1702C26.141 48.2242 22.939 38.9572 22.47 33.7862C22.432 33.3722 22.674 32.9882 23.061 32.8372C26.165 31.6312 28.608 31.7502 30.739 32.2662C33.005 32.8142 35.109 34.0392 36.46 35.9382C39.111 39.6642 40.491 44.7752 41.088 47.8472C41.175 48.2982 40.932 48.7472 40.486 48.8562C38.886 49.2482 36.389 49.2662 35.559 49.1702Z" fill="#FF24BD"/>
<path d="M40.5 48.5C29 45.5 26.5 40 23 33.5L25.5 32L32 32.5L36.5 35.5L39.5 41.5L41 47.5L40.5 48.5Z" fill="#EA10AC"/>
<path d="M9.34073 19.8888C10.8904 18.9528 13.5244 18.2031 16.4872 18.8946C19.4067 19.5763 22.5533 21.6356 25.2665 26.09C26.8915 26.2999 29.7975 26.8605 32.7606 28.2091C35.8854 29.6313 39.1394 31.9599 40.9677 35.7364C41.3627 35.8717 41.6187 35.925 41.9276 35.8536C42.3294 35.7605 42.95 35.4193 43.9569 34.3292L43.9579 34.3282L44.1151 34.1778C44.4992 33.8509 45.0025 33.6973 45.4843 33.7892C45.7652 33.8429 46.0432 33.9836 46.2538 34.2276C46.4661 34.4739 46.5743 34.7828 46.5868 35.1075L46.5907 35.3732C46.5653 37.8987 44.8245 41.33 41.0087 44.2833C41.3693 45.5607 41.6361 46.7365 41.8241 47.7042V47.7052L41.8456 47.8526C41.9156 48.5443 41.5551 49.2753 40.8261 49.5362L40.664 49.5851C39.8676 49.7801 38.8938 49.8821 38.0077 49.9308C37.7427 50.2709 37.4447 50.6077 37.1044 50.9327C34.8568 53.079 31.0003 54.6844 24.287 54.6876C22.2115 54.6886 20.1081 54.2802 18.2226 53.3146C16.7685 52.5696 15.5378 51.7286 14.5116 50.7667C13.5269 50.9606 12.5175 50.9279 11.5331 50.6124C9.46068 49.948 8.01782 48.2084 7.3085 46.0558C6.59894 43.9016 6.59792 41.2769 7.42959 38.6818C7.67292 37.9226 7.97658 37.2032 8.32901 36.5314C8.30571 36.5148 8.28177 36.4993 8.2587 36.4825C7.9565 36.2633 7.67653 36.027 7.41495 35.7823C7.01989 36.0891 6.56589 36.4917 6.0292 37.0284L5.88272 37.1534C5.71589 37.2747 5.48793 37.3741 5.20792 37.3487C4.85274 37.3165 4.61861 37.1006 4.49307 36.9474C4.25272 36.6538 4.10946 36.2253 4.01456 35.8487C3.81093 35.0407 3.70192 33.9254 3.70401 32.9191C3.70568 32.0614 3.95547 31.2239 4.40127 30.5148C3.37979 25.789 6.20627 21.7829 9.34073 19.8888ZM16.1454 20.3556C13.7624 19.7995 11.6482 20.3398 10.3622 21.0323L10.1161 21.173C7.59925 22.694 5.43848 25.6592 5.72256 29.1759C6.12429 28.9198 6.57581 28.7301 7.06827 28.6271H7.06924C8.37344 28.3554 9.81007 28.3506 10.5468 28.4132L10.8173 28.4435L10.9071 28.462C10.9952 28.4865 11.0783 28.5274 11.1523 28.5821C12.3089 29.4389 12.5267 30.784 12.4423 31.8585C12.3587 32.9217 11.9667 33.9508 11.6015 34.4444C11.46 34.6353 11.2365 34.7482 10.9989 34.7482C10.0148 34.7482 9.41266 34.7567 8.77725 34.9855C8.89399 35.0824 9.01388 35.1782 9.13858 35.2687C10.3568 36.1521 11.9959 36.7474 14.247 36.5929C14.6599 36.5648 15.0182 36.8763 15.0468 37.2892C15.0747 37.7019 14.7623 38.0604 14.3495 38.089C13.4578 38.1502 12.6378 38.1065 11.8847 37.9816C11.7905 41.5701 12.1962 44.324 13.2294 46.5138C14.3053 48.7936 16.0984 50.5411 18.9062 51.9796C20.5422 52.8174 22.4022 53.1885 24.286 53.1876C30.6512 53.1846 34.0614 51.6898 35.954 49.9493C35.7722 49.9404 35.6128 49.9298 35.4833 49.9151V49.9161C35.4821 49.9159 35.4806 49.9153 35.4794 49.9151C35.4772 49.915 35.4747 49.9154 35.4726 49.9151V49.9142C30.5013 49.4112 27.1642 46.7028 25.0321 43.4767C22.9122 40.2688 21.9655 36.5324 21.7226 33.8546L21.7157 33.715C21.7097 33.0174 22.1387 32.3923 22.788 32.1388L22.789 32.1378C26.0561 30.8684 28.6582 30.9909 30.9149 31.5372C33.3177 32.1183 35.5944 33.4274 37.0712 35.503C38.6244 37.6861 39.7485 40.3108 40.5409 42.7403C43.8185 40.0461 45.0874 37.1518 45.0898 35.3194C45.0799 35.3278 45.0685 35.337 45.0585 35.3478C43.9879 36.5067 43.1129 37.1184 42.2665 37.3146C41.3958 37.516 40.6902 37.2372 40.1659 37.045C39.978 36.976 39.8253 36.8336 39.7421 36.6515C38.1463 33.1475 35.1545 30.9466 32.1396 29.5743C29.502 28.374 26.8981 27.8332 25.3339 27.6114L24.7304 27.5343L24.6435 27.5196C24.4447 27.4737 24.271 27.3478 24.1659 27.17C21.5772 22.7782 18.6622 20.9432 16.1454 20.3556ZM9.62784 37.2872C9.32953 37.8636 9.06893 38.4826 8.85831 39.1398C8.11278 41.4661 8.13314 43.764 8.73331 45.586C9.33378 47.4085 10.4887 48.702 11.9911 49.1837C12.3971 49.3138 12.8171 49.3786 13.244 49.3849C12.7081 48.6988 12.2514 47.9585 11.872 47.1544C10.6623 44.5906 10.2635 41.4618 10.3954 37.6017C10.1296 37.5081 9.87381 37.402 9.62784 37.2872ZM30.5624 32.9952C28.5573 32.5098 26.2723 32.3929 23.3319 33.5353L23.3329 33.5362C23.2723 33.5601 23.2334 33.6082 23.2206 33.6622L23.2167 33.7179V33.7189C23.4429 36.212 24.3316 39.6951 26.2841 42.6495C28.1625 45.4917 31.009 47.8273 35.2216 48.3761L35.6337 48.4239L35.6444 48.4249C36.0022 48.4663 36.7895 48.4881 37.7001 48.4474C38.6084 48.4068 39.577 48.307 40.3075 48.128L40.3241 48.1212C40.327 48.119 40.3322 48.1133 40.3378 48.1036C40.3497 48.0829 40.3614 48.0431 40.3515 47.9903L40.2314 47.3976C39.5858 44.3297 38.2446 39.7408 35.8485 36.3732C34.6233 34.651 32.6915 33.5101 30.5624 32.9952ZM10.3983 29.9054C9.81795 29.8581 8.53092 29.8544 7.37588 30.0948C6.12261 30.3571 5.20666 31.5607 5.20401 32.922V32.923C5.20213 33.8451 5.30421 34.8285 5.46866 35.4816C6.50396 34.5063 7.33734 33.9296 8.1669 33.6105C8.98412 33.2961 9.74914 33.2556 10.5605 33.2501C10.7181 32.904 10.8993 32.3499 10.9472 31.7413C11.0071 30.9798 10.8499 30.3285 10.3983 29.9054Z" fill="#1A1A1A"/>
</svg>
