<svg width="48" height="55" viewBox="0 0 48 55" fill="none" xmlns="http://www.w3.org/2000/svg">
<path d="M29.905 29.87C30.987 30.07 31.707 31.1001 31.513 32.1801C31.421 32.7001 31.356 33.07 31.314 33.35C31.593 33.41 31.964 33.48 32.477 33.57C33.56 33.76 34.2801 34.8 34.0851 35.88C33.9711 36.52 33.562 37.0301 33.024 37.3001C33.433 37.7501 33.639 38.37 33.525 39.01C33.33 40.09 32.295 40.81 31.213 40.61C30.7 40.52 30.328 40.4601 30.046 40.4201C29.987 40.6901 29.918 41.07 29.826 41.58C29.632 42.66 28.597 43.38 27.515 43.19C26.96 43.09 26.501 42.77 26.211 42.33C25.788 42.64 25.247 42.7801 24.692 42.6801C23.61 42.4901 22.89 41.45 23.084 40.37C23.176 39.86 23.24 39.48 23.282 39.2C23.003 39.14 22.633 39.07 22.12 38.98C21.038 38.79 20.318 37.7501 20.512 36.6701C20.627 36.0301 21.035 35.52 21.572 35.25C21.163 34.8 20.958 34.1801 21.073 33.5501C21.267 32.4601 22.302 31.74 23.384 31.94C23.897 32.03 24.268 32.09 24.55 32.13C24.61 31.86 24.679 31.49 24.771 30.97C24.965 29.89 26 29.17 27.083 29.36C27.637 29.46 28.095 29.78 28.385 30.22C28.808 29.91 29.35 29.77 29.905 29.87Z" fill="white"/>
<path d="M25.7791 31.3901C25.8561 30.9601 26.2701 30.6701 26.7031 30.7501C27.1361 30.8201 27.4241 31.2401 27.3461 31.6701C27.2091 32.4401 27.0961 33.0802 26.9521 33.5602C26.8101 34.0402 26.5931 34.5401 26.1331 34.8601C25.6731 35.1801 25.1311 35.2101 24.6321 35.1701C24.1281 35.1401 23.4881 35.0201 22.7231 34.8901C22.2901 34.8101 22.0021 34.4001 22.0801 33.9601C22.1581 33.5301 22.5721 33.24 23.0051 33.32C23.8081 33.46 24.3441 33.5601 24.7391 33.5801C25.1401 33.6101 25.2211 33.5501 25.2231 33.5501C25.2251 33.5501 25.3101 33.4901 25.4241 33.1101C25.5371 32.7301 25.6351 32.1901 25.7791 31.3901Z" fill="#DC3412"/>
<path d="M30.1682 32.18C30.2462 31.74 29.9582 31.33 29.5252 31.25C29.0922 31.18 28.6782 31.46 28.6012 31.9C28.4632 32.66 28.3472 33.3 28.3132 33.81C28.2802 34.3 28.3102 34.85 28.6302 35.31C28.9502 35.77 29.4482 35.98 29.9272 36.12C30.4122 36.27 31.0522 36.38 31.8172 36.52C32.2502 36.6 32.6642 36.31 32.7412 35.88C32.8192 35.44 32.5312 35.0299 32.0982 34.9499C31.2952 34.8099 30.7592 34.7099 30.3802 34.5999C29.9952 34.4799 29.9382 34.4 29.9382 34.4C29.9362 34.39 29.8762 34.31 29.9032 33.91C29.9292 33.52 30.0242 32.98 30.1682 32.18Z" fill="#DC3412"/>
<path d="M24.0923 40.79C24.0143 41.22 24.3023 41.6299 24.7353 41.7099C25.1683 41.7899 25.5823 41.4999 25.6603 41.0699C25.7973 40.2999 25.9143 39.66 25.9473 39.16C25.9813 38.66 25.9513 38.12 25.6303 37.66C25.3103 37.2 24.8133 36.9799 24.3343 36.8399C23.8493 36.6899 23.2093 36.5799 22.4443 36.4399C22.0113 36.3699 21.5973 36.6499 21.5193 37.0899C21.4423 37.5199 21.7303 37.93 22.1633 38.01C22.9663 38.16 23.5013 38.25 23.8813 38.37C24.2663 38.48 24.3213 38.5599 24.3233 38.5699C24.3233 38.5699 24.3853 38.65 24.3583 39.05C24.3313 39.45 24.2363 39.98 24.0923 40.79Z" fill="#DC3412"/>
<path d="M28.4821 41.5701C28.4041 42.0101 27.9901 42.2901 27.5571 42.2201C27.1241 42.1401 26.8361 41.7201 26.9141 41.2901C27.0511 40.5301 27.1651 39.8901 27.3091 39.4001C27.4511 38.9201 27.6671 38.4301 28.1281 38.1101C28.5881 37.7901 29.1301 37.7501 29.6281 37.7901C30.1331 37.8201 30.7731 37.9401 31.5371 38.0801C31.9701 38.1501 32.2581 38.5701 32.1801 39.0001C32.1031 39.4301 31.6891 39.7201 31.2561 39.6401C30.4531 39.5001 29.9171 39.4001 29.5221 39.3801C29.1211 39.3501 29.0391 39.4101 29.0371 39.4101C29.0351 39.4101 28.9501 39.4701 28.8361 39.8501C28.7241 40.2301 28.6261 40.7701 28.4821 41.5701Z" fill="#DC3412"/>
</svg>
