<svg width="49" height="55" viewBox="0 0 49 55" fill="none" xmlns="http://www.w3.org/2000/svg">
<path d="M20.8799 23.1667C17.1069 22.5567 8.48392 23.1667 4.71092 32.9237L2.62402 41.9197C4.24092 40.6997 7.94492 40.2417 11.1789 40.2417C21.9579 40.2417 25.2819 42.0707 28.4259 42.0707C33.2769 29.8747 24.6529 23.7757 20.8799 23.1667Z" fill="#CFBFA8" stroke="#1A1A1A" stroke-width="1.5" stroke-linejoin="round"/>
<path d="M22.0349 20.9152L20.6654 20.729C19.9991 20.6384 19.4014 21.107 19.3304 21.7756C19.2594 22.4443 19.742 23.0597 20.4082 23.1503L21.7778 23.3365C22.4441 23.4271 23.0417 22.9585 23.1128 22.2898C23.1838 21.6212 22.7012 21.0057 22.0349 20.9152Z" fill="#1A1A1A" stroke="#1A1A1A"/>
<path d="M21.0161 23C23.2701 26.853 26.4161 34.931 23.7111 41.295" stroke="#A7977E" stroke-dasharray="1 1"/>
<path d="M21.016 23C18.762 26.853 16.704 33.367 16.165 40.075" stroke="#A7977E" stroke-dasharray="1 1"/>
<path d="M20.0161 23C12.4701 26.659 8.15912 32.757 7.62012 39.465" stroke="#A7977E" stroke-dasharray="1 1"/>
<path d="M20.8801 23.1667C17.1071 22.5567 8.48412 23.1667 4.71112 32.9237L2.64502 41.9607C4.26212 40.7417 7.94912 40.3937 10.1011 40.2417C18.7241 39.6317 25.2821 42.0707 28.4261 42.0707C33.2771 29.8747 24.6531 23.7757 20.8801 23.1667Z" stroke="#1A1A1A" stroke-width="1.5" stroke-linejoin="round"/>
<path d="M3.86352 32.2038C0.548017 33.8348 -0.46608 36.9928 2.53302 42.0598C3.86352 41.4498 7.68512 40.3978 10.6181 40.2308C14.7071 39.9968 17.0851 40.2308 21.9361 40.8398C18.6291 30.8688 7.17912 30.5718 3.86352 32.2038Z" fill="#C4B091" stroke="#1A1A1A" stroke-width="1.5" stroke-linejoin="round"/>
<path d="M21.383 23.1853C17.6101 22.5753 8.98652 23.1853 5.21369 32.9423L3.07959 41.9543C4.69652 40.7353 8.4475 40.2603 11.6813 40.2603C22.4609 40.2603 25.7844 42.0893 28.9286 42.0893C33.7794 29.8933 25.1558 23.7943 21.383 23.1853Z" fill="#CFBFA8"/>
<path d="M24.8599 41.0469C24.8013 41.2016 24.7394 41.3558 24.6743 41.5088L23.7534 41.1182C23.8132 40.9774 23.8703 40.8349 23.9243 40.6924L24.8599 41.0469ZM17.2075 39.6445C17.1926 39.8073 17.1786 39.9708 17.1655 40.1338L16.1694 40.0537C16.1828 39.8868 16.1972 39.7193 16.2124 39.5527L17.2075 39.6445ZM25.4185 39.1436C25.3491 39.4659 25.2684 39.7866 25.1753 40.1045L24.2153 39.8242C24.3014 39.5303 24.3764 39.2322 24.4409 38.9326L25.4185 39.1436ZM8.66553 39.0488C8.64847 39.2066 8.63334 39.3649 8.62061 39.5234L7.62451 39.4434C7.63798 39.2758 7.65334 39.1083 7.67139 38.9414L8.66553 39.0488ZM17.4292 37.6914C17.3855 38.0153 17.3451 38.3411 17.3081 38.667L16.3149 38.5537C16.3527 38.2208 16.3934 37.8883 16.438 37.5576L17.4292 37.6914ZM25.7036 37.1895C25.6771 37.517 25.6405 37.8443 25.5933 38.1699L24.604 38.0264C24.6481 37.7222 24.6816 37.4159 24.7065 37.1084L25.7036 37.1895ZM8.9751 37.167C8.90617 37.4772 8.8461 37.7897 8.79443 38.1035L7.80811 37.9414C7.86278 37.6093 7.92657 37.2784 7.99951 36.9502L8.9751 37.167ZM17.7319 35.749C17.675 36.0704 17.6215 36.3941 17.5708 36.7188L16.5825 36.5645C16.6343 36.2329 16.6895 35.9023 16.7476 35.5742L17.7319 35.749ZM9.4917 35.3311C9.38874 35.6323 9.29446 35.9365 9.2085 36.2422L8.24561 35.9717C8.33658 35.6482 8.4365 35.3265 8.54541 35.0078L9.4917 35.3311ZM25.7495 35.2236C25.7598 35.5506 25.7617 35.8786 25.7544 36.2061L24.7544 36.1836C24.7613 35.8748 24.7592 35.5647 24.7495 35.2549L25.7495 35.2236ZM18.1147 33.8193C18.045 34.1377 17.9775 34.4591 17.9136 34.7822L16.9331 34.5879C16.9984 34.2582 17.0661 33.9303 17.1372 33.6055L18.1147 33.8193ZM10.2065 33.5625C10.0712 33.8515 9.94356 34.1434 9.82471 34.4375L8.89795 34.0625C9.02347 33.7519 9.15745 33.4437 9.30029 33.1387L10.2065 33.5625ZM25.5923 33.2715C25.6334 33.5943 25.6674 33.9196 25.6938 34.2451L24.6968 34.3262C24.6717 34.0165 24.6394 33.7066 24.6001 33.3984L25.5923 33.2715ZM18.5737 31.9082C18.4913 32.2227 18.4116 32.5414 18.3345 32.8623L17.3618 32.6279C17.4406 32.3003 17.5227 31.9755 17.6069 31.6543L18.5737 31.9082ZM11.1069 31.8789C10.9415 32.1527 10.7838 32.4295 10.6343 32.709L9.75244 32.2373C9.91025 31.9423 10.0761 31.65 10.2505 31.3613L11.1069 31.8789ZM25.2642 31.3477C25.3312 31.6641 25.3928 31.9841 25.4478 32.3057L24.4624 32.4746C24.4098 32.1665 24.351 31.8597 24.2866 31.5557L25.2642 31.3477ZM12.1772 30.2949C11.9846 30.5512 11.7991 30.8107 11.6216 31.0732L10.7935 30.5137C10.9804 30.2372 11.1758 29.9639 11.3784 29.6943L12.1772 30.2949ZM19.1118 30.0176C19.0164 30.3271 18.924 30.642 18.8335 30.96L17.8716 30.6855C17.964 30.3609 18.0593 30.0399 18.1567 29.7236L19.1118 30.0176ZM24.7915 29.46C24.8806 29.769 24.9659 30.0826 25.0454 30.3994L24.0747 30.6426C23.9982 30.3374 23.9165 30.0346 23.8306 29.7363L24.7915 29.46ZM13.4009 28.8213C13.184 29.0587 12.9736 29.3 12.771 29.5439L12.0015 28.9053C12.2142 28.6491 12.4352 28.3964 12.6626 28.1475L13.4009 28.8213ZM19.7329 28.1543C19.6237 28.4579 19.5164 28.7683 19.4116 29.083L18.4634 28.7666C18.5706 28.4446 18.6806 28.1275 18.7925 27.8164L19.7329 28.1543ZM24.1919 27.6113C24.3002 27.9118 24.4061 28.2186 24.5073 28.5303L23.5562 28.8389C23.4584 28.5376 23.3562 28.2409 23.2515 27.9502L24.1919 27.6113ZM14.7573 27.4658C14.5193 27.6833 14.2877 27.9046 14.063 28.1289L13.3569 27.4219C13.5922 27.187 13.8346 26.9549 14.0835 26.7275L14.7573 27.4658ZM20.4438 26.3281C20.3197 26.6232 20.1971 26.9265 20.0767 27.2363L19.144 26.874C19.2677 26.5557 19.3941 26.2433 19.522 25.9395L20.4438 26.3281ZM23.8481 26.7021L22.9185 27.0703C22.8009 26.7736 22.6806 26.4834 22.5591 26.2021L23.4771 25.8057C23.6026 26.0962 23.7268 26.3956 23.8481 26.7021ZM16.229 26.2334C15.9731 26.4302 15.7235 26.631 15.48 26.835L14.8374 26.0684C15.0917 25.8554 15.3527 25.6457 15.6196 25.4404L16.229 26.2334ZM17.7983 25.123C17.5275 25.2993 17.2618 25.4787 17.0024 25.6621L16.4253 24.8457C16.6954 24.6547 16.9717 24.4674 17.2534 24.2842L17.7983 25.123ZM21.2583 24.5518C21.1166 24.8347 20.9753 25.1292 20.8364 25.4326L19.9272 25.0156C20.0706 24.7023 20.2167 24.3982 20.3638 24.1045L21.2583 24.5518ZM22.6499 24.0479C22.7923 24.3265 22.9362 24.6179 23.0786 24.9209L22.1733 25.3467C22.0357 25.0538 21.8976 24.7717 21.7603 24.5029L22.6499 24.0479ZM19.4517 24.1328C19.1678 24.2891 18.8889 24.4488 18.6157 24.6123L18.1021 23.7549C18.3856 23.5852 18.675 23.4188 18.9692 23.2568L19.4517 24.1328ZM22.1919 23.1885L21.9058 23.3477C21.8407 23.4598 21.7752 23.5745 21.7104 23.6914L21.4995 23.5742L21.3188 23.6758C21.2625 23.5748 21.2054 23.4766 21.1499 23.3809L20.8354 23.207C20.9186 23.0568 21.0024 22.9092 21.0864 22.7656L21.5181 23.0186L21.9507 22.7656C22.0301 22.9014 22.1107 23.043 22.1919 23.1885ZM20.7368 23.4688C20.5913 23.5393 20.4472 23.6112 20.3042 23.6836L19.8521 22.791C20.0003 22.716 20.1505 22.6414 20.3013 22.5684L20.7368 23.4688Z" fill="#A7977E"/>
<path fill-rule="evenodd" clip-rule="evenodd" d="M21.2208 20.2501L22.5899 20.4367C23.5297 20.5645 24.2106 21.4329 24.1104 22.3761C24.0768 22.6924 23.9579 22.9755 23.7813 23.2091C25.5707 24.0775 27.5642 25.6343 29.0196 27.8849C31.1828 31.2301 32.1337 36.0614 29.6261 42.3663L29.5763 42.4689C29.4432 42.696 29.1975 42.8389 28.9288 42.839C28.066 42.839 27.0043 42.6736 25.8165 42.4552C24.5994 42.2314 23.2482 41.9522 21.6944 41.6857C18.6145 41.1574 14.8844 40.7099 10.6563 41.0089C9.56848 41.0858 8.12349 41.1736 6.74814 41.3908C5.33791 41.6135 4.158 41.9516 3.51181 42.4386L3.41318 42.5011C3.17409 42.6286 2.88017 42.6179 2.64853 42.466C2.38409 42.292 2.25774 41.9709 2.33212 41.6632L4.48447 32.7658C4.4922 32.7338 4.50289 32.7026 4.51474 32.672C6.47701 27.5974 9.72736 24.8568 13.0089 23.4845C15.2717 22.5384 17.5302 22.2503 19.3663 22.2706C19.3293 22.0956 19.3173 21.9127 19.337 21.7267C19.4373 20.7837 20.2811 20.1225 21.2208 20.2501ZM21.2638 23.9259C19.4838 23.6381 16.531 23.6378 13.588 24.8683C10.6801 26.0842 7.74163 28.5162 5.92978 33.171L4.16513 40.4591C4.90437 40.2051 5.72491 40.034 6.51474 39.9093C7.96842 39.6798 9.48731 39.587 10.5509 39.5119C14.9459 39.201 18.8069 39.6685 21.9474 40.2072C23.5034 40.4741 24.9211 40.7662 26.087 40.9806C27.0159 41.1514 27.7898 41.2725 28.421 41.3185C30.5205 35.6796 29.5859 31.5231 27.7599 28.6994C25.8465 25.7408 22.927 24.1946 21.2638 23.9259Z" fill="#1A1A1A"/>
<path d="M4.36598 32.2223C1.05043 33.8533 0.0363698 37.0113 3.03548 42.0783C4.36598 41.4683 8.18748 40.4163 11.1201 40.2493C15.21 40.0153 17.5878 40.2493 22.4385 40.8593C19.1313 30.8873 7.68153 30.5903 4.36598 32.2223Z" fill="#C4B091"/>
<path d="M8.10205 30.7313C9.7676 30.6834 11.694 30.888 13.6226 31.4716C17.4913 32.6423 21.4041 35.3559 23.1509 40.6229C23.2319 40.8673 23.1815 41.1369 23.0181 41.3358C22.8546 41.5345 22.6005 41.6354 22.3452 41.6034L22.439 40.8593H22.438L22.3452 41.6034C17.5081 40.9951 15.1835 40.7679 11.1626 40.9979C9.75751 41.078 8.11694 41.3724 6.65381 41.7265C5.18212 42.0826 3.94831 42.4845 3.34814 42.7597C2.99916 42.9197 2.58568 42.7902 2.39014 42.4599C0.848198 39.8547 0.255504 37.6086 0.594237 35.7284C0.940626 33.8062 2.22627 32.4394 4.03467 31.5497C4.99627 31.0764 6.45257 30.7789 8.10205 30.7313ZM8.14502 32.2304C6.61184 32.2745 5.39294 32.5527 4.69678 32.8954C3.19009 33.6367 2.31058 34.6641 2.0708 35.995C1.84266 37.2619 2.16719 38.948 3.36279 41.1347C4.12029 40.8543 5.16427 40.5433 6.30029 40.2684C7.81353 39.9023 9.55023 39.5878 11.0776 39.5009C14.8678 39.284 17.2234 39.465 21.2935 39.9618C19.5832 35.9955 16.4058 33.8809 13.188 32.9071C11.4263 32.374 9.66208 32.1867 8.14502 32.2304Z" fill="#1A1A1A"/>
</svg>
