<svg width="48" height="55" viewBox="0 0 48 55" fill="none" xmlns="http://www.w3.org/2000/svg">
<path d="M21.3669 23.1858C17.594 22.5758 8.97041 23.1858 5.19758 32.9428L3.06348 41.9547C4.68041 40.7357 8.43139 40.2608 11.6652 40.2608C22.4448 40.2608 25.7683 42.0898 28.9125 42.0898C33.7633 29.8938 25.1397 23.7948 21.3669 23.1858Z" fill="#007BE5" stroke="#1A1A1A" stroke-width="1.5" stroke-linejoin="round"/>
<path d="M24.8438 41.0474C24.7852 41.2021 24.7232 41.3562 24.6582 41.5093L23.7373 41.1187C23.7971 40.9779 23.8542 40.8354 23.9082 40.6929L24.8438 41.0474ZM17.1914 39.645C17.1765 39.8078 17.1625 39.9712 17.1494 40.1343L16.1533 40.0542C16.1667 39.8873 16.181 39.7198 16.1963 39.5532L17.1914 39.645ZM25.4023 39.144C25.333 39.4664 25.2522 39.7871 25.1592 40.105L24.1992 39.8247C24.2853 39.5307 24.3603 39.2327 24.4248 38.9331L25.4023 39.144ZM8.64941 39.0493C8.63235 39.2071 8.61723 39.3654 8.60449 39.5239L7.6084 39.4438C7.62187 39.2763 7.63723 39.1087 7.65527 38.9419L8.64941 39.0493ZM17.4131 37.6919C17.3694 38.0158 17.329 38.3416 17.292 38.6675L16.2988 38.5542C16.3366 38.2213 16.3773 37.8888 16.4219 37.5581L17.4131 37.6919ZM25.6875 37.1899C25.661 37.5175 25.6243 37.8448 25.5771 38.1704L24.5879 38.0269C24.632 37.7227 24.6655 37.4164 24.6904 37.1089L25.6875 37.1899ZM8.95898 37.1675C8.89006 37.4777 8.82998 37.7902 8.77832 38.104L7.79199 37.9419C7.84666 37.6098 7.91046 37.2789 7.9834 36.9507L8.95898 37.1675ZM17.7158 35.7495C17.6589 36.0709 17.6054 36.3946 17.5547 36.7192L16.5664 36.5649C16.6181 36.2334 16.6734 35.9027 16.7314 35.5747L17.7158 35.7495ZM9.47559 35.3315C9.37263 35.6328 9.27835 35.937 9.19238 36.2427L8.22949 35.9722C8.32046 35.6487 8.42038 35.327 8.5293 35.0083L9.47559 35.3315ZM25.7334 35.2241C25.7436 35.5511 25.7456 35.8791 25.7383 36.2065L24.7383 36.1841C24.7452 35.8753 24.7431 35.5652 24.7334 35.2554L25.7334 35.2241ZM18.0986 33.8198C18.0289 34.1381 17.9614 34.4596 17.8975 34.7827L16.917 34.5884C16.9823 34.2587 17.05 33.9307 17.1211 33.606L18.0986 33.8198ZM10.1904 33.563C10.055 33.852 9.92745 34.1439 9.80859 34.438L8.88184 34.063C9.00736 33.7524 9.14133 33.4441 9.28418 33.1392L10.1904 33.563ZM25.5762 33.272C25.6173 33.5947 25.6513 33.9201 25.6777 34.2456L24.6807 34.3267C24.6555 34.017 24.6232 33.7071 24.584 33.3989L25.5762 33.272ZM18.5576 31.9087C18.4752 32.2232 18.3955 32.5419 18.3184 32.8628L17.3457 32.6284C17.4245 32.3008 17.5066 31.976 17.5908 31.6548L18.5576 31.9087ZM11.0908 31.8794C10.9254 32.1532 10.7677 32.43 10.6182 32.7095L9.73633 32.2378C9.89414 31.9428 10.06 31.6504 10.2344 31.3618L11.0908 31.8794ZM25.248 31.3481C25.3151 31.6646 25.3767 31.9846 25.4316 32.3062L24.4463 32.4751C24.3937 32.167 24.3349 31.8602 24.2705 31.5562L25.248 31.3481ZM12.1611 30.2954C11.9685 30.5517 11.783 30.8112 11.6055 31.0737L10.7773 30.5142C10.9643 30.2377 11.1597 29.9644 11.3623 29.6948L12.1611 30.2954ZM19.0957 30.0181C19.0003 30.3276 18.9079 30.6425 18.8174 30.9604L17.8555 30.686C17.9479 30.3614 18.0432 30.0404 18.1406 29.7241L19.0957 30.0181ZM24.7754 29.4604C24.8645 29.7695 24.9498 30.0831 25.0293 30.3999L24.0586 30.6431C23.982 30.3379 23.9004 30.0351 23.8145 29.7368L24.7754 29.4604ZM13.3848 28.8218C13.1679 29.0592 12.9575 29.3004 12.7549 29.5444L11.9854 28.9058C12.1981 28.6496 12.4191 28.3968 12.6465 28.1479L13.3848 28.8218ZM19.7168 28.1548C19.6076 28.4583 19.5003 28.7688 19.3955 29.0835L18.4473 28.7671C18.5545 28.4451 18.6645 28.128 18.7764 27.8169L19.7168 28.1548ZM24.1758 27.6118C24.2841 27.9123 24.39 28.2191 24.4912 28.5308L23.54 28.8394C23.4422 28.5381 23.3401 28.2414 23.2354 27.9507L24.1758 27.6118ZM14.7412 27.4663C14.5032 27.6837 14.2716 27.9051 14.0469 28.1294L13.3408 27.4224C13.5761 27.1874 13.8185 26.9554 14.0674 26.728L14.7412 27.4663ZM20.4277 26.3286C20.3036 26.6236 20.181 26.927 20.0605 27.2368L19.1279 26.8745C19.2516 26.5562 19.378 26.2438 19.5059 25.9399L20.4277 26.3286ZM23.832 26.7026L22.9023 27.0708C22.7848 26.7741 22.6645 26.4839 22.543 26.2026L23.4609 25.8062C23.5865 26.0966 23.7106 26.3961 23.832 26.7026ZM16.2129 26.2339C15.957 26.4307 15.7074 26.6315 15.4639 26.8354L14.8213 26.0688C15.0756 25.8559 15.3366 25.6462 15.6035 25.4409L16.2129 26.2339ZM17.7822 25.1235C17.5114 25.2997 17.2457 25.4792 16.9863 25.6626L16.4092 24.8462C16.6793 24.6552 16.9556 24.4679 17.2373 24.2847L17.7822 25.1235ZM21.2422 24.5522C21.1005 24.8352 20.9592 25.1297 20.8203 25.4331L19.9111 25.0161C20.0545 24.7028 20.2006 24.3987 20.3477 24.105L21.2422 24.5522ZM22.6338 24.0483C22.7761 24.327 22.9201 24.6184 23.0625 24.9214L22.1572 25.3472C22.0196 25.0543 21.8814 24.7722 21.7441 24.5034L22.6338 24.0483ZM19.4355 24.1333C19.1517 24.2896 18.8728 24.4493 18.5996 24.6128L18.0859 23.7554C18.3695 23.5856 18.6588 23.4193 18.9531 23.2573L19.4355 24.1333ZM22.1758 23.189L21.8896 23.3481C21.8246 23.4603 21.7591 23.575 21.6943 23.6919L21.4834 23.5747L21.3027 23.6763C21.2464 23.5753 21.1892 23.4771 21.1338 23.3813L20.8193 23.2075C20.9025 23.0573 20.9863 22.9097 21.0703 22.7661L21.502 23.019L21.9346 22.7661C22.014 22.9019 22.0946 23.0435 22.1758 23.189ZM20.7207 23.4692C20.5752 23.5398 20.4311 23.6117 20.2881 23.6841L19.8359 22.7915C19.9842 22.7165 20.1344 22.6419 20.2852 22.5688L20.7207 23.4692Z" fill="#80CAFF"/>
<path fill-rule="evenodd" clip-rule="evenodd" d="M21.2047 20.2506L22.5738 20.4371C23.5136 20.565 24.1945 21.4334 24.0943 22.3766C24.0606 22.6929 23.9417 22.976 23.7652 23.2096C25.5546 24.078 27.5481 25.6348 29.0035 27.8854C31.1667 31.2306 32.1176 36.0619 29.61 42.3668L29.5602 42.4694C29.4271 42.6965 29.1814 42.8393 28.9127 42.8395C28.0499 42.8395 26.9882 42.6741 25.8004 42.4557C24.5833 42.2319 23.2321 41.9527 21.6783 41.6862C18.5984 41.1579 14.8683 40.7104 10.6402 41.0094C9.55237 41.0863 8.10737 41.1741 6.73203 41.3912C5.3218 41.6139 4.14189 41.952 3.4957 42.4391L3.39707 42.5016C3.15798 42.6291 2.86405 42.6184 2.63242 42.4664C2.36797 42.2925 2.24163 41.9714 2.31601 41.6637L4.46836 32.7662C4.47609 32.7343 4.48678 32.7031 4.49863 32.6725C6.46089 27.5979 9.71125 24.8572 12.9928 23.485C15.2556 22.5389 17.5141 22.2508 19.3502 22.2711C19.3131 22.0961 19.3012 21.9132 19.3209 21.7272C19.4212 20.7842 20.265 20.123 21.2047 20.2506ZM21.2477 23.9264C19.4677 23.6386 16.5149 23.6383 13.5719 24.8688C10.664 26.0847 7.72552 28.5167 5.91367 33.1715L4.14902 40.4596C4.88825 40.2056 5.7088 40.0345 6.49863 39.9098C7.95231 39.6803 9.4712 39.5875 10.5348 39.5123C14.9298 39.2015 18.7908 39.669 21.9312 40.2077C23.4872 40.4746 24.905 40.7667 26.0709 40.9811C26.9998 41.1519 27.7737 41.273 28.4049 41.319C30.5044 35.6801 29.5698 31.5236 27.7437 28.6998C25.8303 25.7413 22.9109 24.1951 21.2477 23.9264Z" fill="#1A1A1A"/>
<path d="M4.34987 32.2228C1.03432 33.8538 0.0202565 37.0118 3.01937 42.0788C4.34987 41.4688 8.17137 40.4168 11.104 40.2498C15.1939 40.0158 17.5717 40.2498 22.4224 40.8598C19.1152 30.8878 7.66542 30.5908 4.34987 32.2228Z" fill="#034AC1"/>
<path d="M8.08594 30.7318C9.75148 30.6839 11.6779 30.8885 13.6064 31.4721C17.4752 32.6428 21.3879 35.3564 23.1348 40.6234C23.2158 40.8678 23.1654 41.1374 23.002 41.3363C22.8385 41.535 22.5844 41.6359 22.3291 41.6039L22.4228 40.8598H22.4219L22.3291 41.6039C17.492 40.9956 15.1674 40.7684 11.1465 40.9984C9.7414 41.0785 8.10083 41.3729 6.63769 41.7269C5.16601 42.083 3.9322 42.485 3.33203 42.7601C2.98305 42.9201 2.56957 42.7907 2.37402 42.4603C0.832085 39.8552 0.239391 37.6091 0.578123 35.7289C0.924512 33.8067 2.21016 32.4399 4.01855 31.5502C4.98016 31.0769 6.43646 30.7793 8.08594 30.7318ZM8.1289 32.2308C6.59573 32.275 5.37683 32.5532 4.68066 32.8959C3.17397 33.6371 2.29446 34.6646 2.05469 35.9955C1.82655 37.2624 2.15108 38.9485 3.34668 41.1351C4.10418 40.8547 5.14816 40.5438 6.28418 40.2689C7.79742 39.9028 9.53412 39.5883 11.0615 39.5014C14.8517 39.2845 17.2073 39.4655 21.2773 39.9623C19.5671 35.996 16.3897 33.8814 13.1719 32.9076C11.4102 32.3745 9.64597 32.1871 8.1289 32.2308Z" fill="#1A1A1A"/>
</svg>
