<svg width="48" height="55" viewBox="0 0 48 55" fill="none" xmlns="http://www.w3.org/2000/svg">
<circle cx="14.8517" cy="22.5372" r="5.52258" fill="url(#paint0_radial_53542_4519)"/>
<path d="M14.25 27.1592V25C14.25 24.5858 14.5858 24.25 15 24.25C15.4142 24.25 15.75 24.5858 15.75 25V27.1592C15.7499 27.5733 15.4142 27.9092 15 27.9092C14.5858 27.9092 14.2501 27.5733 14.25 27.1592Z" fill="#E8CD7D"/>
<path d="M10.716 38.623C10.216 38.123 9.716 27.6231 10.1913 27.5271C10.6667 27.4311 18.716 26.719 19.216 27.123C19.716 27.527 19.716 38.346 19.216 39.123C18.716 39.9 13.988 39.763 10.716 38.623Z" fill="#FFF1C2"/>
<path d="M17.6515 26.2517C18.0751 26.2459 18.4569 26.2511 18.7569 26.2723C18.9055 26.2828 19.0523 26.2986 19.1817 26.324C19.2575 26.3389 19.4431 26.3753 19.6153 26.4871L19.6876 26.5398L19.7882 26.6365C19.8751 26.7348 19.9223 26.8328 19.9444 26.8816C19.9821 26.9648 20.0091 27.049 20.0284 27.1209C20.0675 27.2661 20.098 27.4384 20.1231 27.6189C20.1741 27.9846 20.2145 28.4666 20.2462 29.0154C20.3098 30.1179 20.3409 31.5485 20.3409 32.9832C20.3409 34.4181 20.3097 35.8705 20.2462 37.0183C20.2145 37.5908 20.1742 38.0987 20.1241 38.4949C20.0992 38.6918 20.0708 38.8738 20.0362 39.0281C20.0081 39.1535 19.9564 39.3587 19.8468 39.5291C19.65 39.8346 19.3309 39.9893 19.1036 40.074C18.8497 40.1686 18.5518 40.2318 18.2403 40.2752C17.6137 40.3624 16.8236 40.3817 15.9698 40.3406C14.2625 40.2584 12.1887 39.9297 10.4698 39.3308L10.3067 39.2742L10.1856 39.1531C10.0748 39.0422 10.0142 38.92 9.98544 38.8562C9.95103 38.78 9.92444 38.7014 9.90341 38.6307C9.86116 38.4885 9.82454 38.319 9.79208 38.1394C9.72661 37.7772 9.66605 37.3044 9.61044 36.7693C9.49877 35.6947 9.40341 34.3172 9.33895 32.9588C9.27452 31.6008 9.24062 30.2474 9.25302 29.2215C9.25918 28.712 9.27624 28.265 9.31063 27.9334C9.32732 27.7725 9.35143 27.6069 9.38974 27.4656C9.40792 27.3986 9.43934 27.296 9.49813 27.1932C9.54014 27.1197 9.69938 26.8612 10.0431 26.7918L10.2559 26.7605C10.5482 26.724 11.0634 26.6726 11.6651 26.6189C12.4995 26.5445 13.5718 26.4587 14.6456 26.3885C15.7171 26.3184 16.7999 26.2635 17.6515 26.2517ZM17.672 27.7517C16.8589 27.7629 15.8059 27.8161 14.7433 27.8855C13.6828 27.9548 12.6221 28.0396 11.7979 28.1131C11.3968 28.1488 11.0533 28.1818 10.794 28.2088C10.7731 28.4654 10.7572 28.8148 10.752 29.24C10.7401 30.2253 10.7734 31.5462 10.837 32.8875C10.9006 34.2285 10.9948 35.5763 11.1026 36.614C11.1567 37.1348 11.213 37.5649 11.2686 37.8728C11.2789 37.9298 11.2886 37.9806 11.2979 38.0252C12.7869 38.4976 14.5556 38.771 16.0421 38.8426C16.8412 38.881 17.5308 38.8597 18.0333 38.7898C18.2855 38.7547 18.465 38.7107 18.5782 38.6687C18.5964 38.581 18.6163 38.4608 18.6358 38.3064C18.6795 37.9607 18.7173 37.4926 18.7481 36.9353C18.8096 35.8236 18.8409 34.4005 18.8409 32.9832C18.8409 31.5655 18.8095 30.1663 18.7481 29.1023C18.7173 28.5681 18.6805 28.1323 18.6378 27.826C18.6349 27.8055 18.6308 27.786 18.628 27.7674C18.3921 27.7518 18.0674 27.7463 17.672 27.7517Z" fill="#E8CD7D"/>
<path d="M11.7148 32.3838C11.7148 32.1868 11.7111 31.9936 11.7051 31.8047C11.6869 31.8468 11.6684 31.889 11.6475 31.9287C11.6029 32.0131 11.5195 32.1537 11.3789 32.2705C11.2155 32.406 10.9341 32.5342 10.5996 32.4385C10.4119 32.3848 10.2808 32.2801 10.2139 32.2197C10.1385 32.1518 10.0769 32.0784 10.0312 32.0205C9.94343 31.9091 9.85222 31.7699 9.79297 31.6826C9.74371 31.6101 9.7061 31.5615 9.67969 31.5273C9.42654 31.4069 9.25 31.1516 9.25 30.8525C9.25025 30.4385 9.58594 30.1025 10 30.1025C10.2292 30.1025 10.4051 30.1919 10.5088 30.2598C10.5339 30.2762 10.5557 30.2962 10.5781 30.3135C10.5963 30.2561 10.6274 30.1659 10.6758 30.0811C10.7505 29.9501 10.8697 29.7687 11.0352 29.6104C11.1938 29.4586 11.4788 29.25 11.873 29.25L12.0586 29.2637C12.242 29.292 12.4155 29.3642 12.5674 29.4814C12.758 29.6286 12.8687 29.8127 12.9346 29.9609C13.0527 30.2271 13.0921 30.5464 13.1113 30.667C13.2049 31.252 13.2148 31.852 13.2148 32.3838C13.2148 32.8609 13.2197 33.3027 13.2988 33.6172L13.3379 33.7441L13.5059 34.249C13.5591 34.4125 13.6092 34.5561 13.666 34.6836C13.669 34.6903 13.6728 34.6966 13.6758 34.7031C13.6685 34.5023 13.6502 34.2822 13.627 34.0586C13.5984 33.7842 13.5557 33.4413 13.5557 33.2178C13.5557 32.6781 13.5466 31.6855 13.5557 31.123C13.5683 30.3401 14.1564 29.7031 14.9834 29.7031L15.0752 29.708C15.2841 29.7287 15.4547 29.8144 15.542 29.8623C15.6676 29.9312 15.7857 30.0168 15.8857 30.0986C15.9871 30.1815 16.0871 30.2746 16.1719 30.3691C16.2376 30.4424 16.3608 30.5878 16.4287 30.7705L15.4561 31.1318L15.7256 31.0322L16.4287 30.7705L16.4297 30.7725C16.4592 30.8522 16.494 30.9318 16.5322 31.0215C16.5923 30.8433 16.6838 30.6049 16.8008 30.3789C16.8839 30.2183 16.9995 30.0254 17.1494 29.8623C17.2822 29.718 17.5608 29.4679 17.9727 29.4678L18.1035 29.4775C18.3941 29.5225 18.5835 29.7073 18.6465 29.7705C18.7521 29.8764 18.8411 30.0006 18.9102 30.1064C19.0511 30.3224 19.1955 30.5961 19.3193 30.835C19.452 31.0908 19.5642 31.3129 19.6641 31.4834C19.7022 31.5485 19.7313 31.5917 19.75 31.6182C20.0035 31.8058 20.1223 32.1385 20.0176 32.4541C19.887 32.8472 19.4624 33.0603 19.0693 32.9297C18.9142 32.8781 18.8047 32.7914 18.7451 32.7383C18.6798 32.68 18.6271 32.6184 18.5869 32.5674C18.5067 32.4657 18.4327 32.349 18.3701 32.2422C18.2448 32.0284 18.1072 31.7566 17.9873 31.5254C17.9791 31.5095 17.97 31.4941 17.9619 31.4785C17.9422 31.5356 17.9265 31.5815 17.9189 31.6094C17.9046 31.6619 17.779 32.1957 17.5996 32.6104C17.5524 32.7195 17.4936 32.8396 17.4219 32.9521C17.3557 33.056 17.2481 33.2031 17.0859 33.3174C16.9046 33.4451 16.6169 33.5524 16.2871 33.4512C15.9992 33.3627 15.8243 33.1564 15.7285 33.0127C15.5995 32.8192 15.5209 32.6215 15.4668 32.4648C15.4397 32.3863 15.4154 32.3078 15.3955 32.2441C15.3743 32.1764 15.3575 32.1222 15.3398 32.0723L15.1992 31.7236C15.1549 31.6203 15.1047 31.4989 15.0557 31.373C15.0515 31.9302 15.0557 32.7214 15.0557 33.2178C15.0557 33.3386 15.0817 33.553 15.1182 33.9033C15.1507 34.2164 15.1868 34.6049 15.1787 34.9648C15.1747 35.1459 15.1591 35.3408 15.1191 35.5283C15.0805 35.7095 15.0089 35.9335 14.8604 36.1328C14.6971 36.3516 14.4511 36.5251 14.1318 36.5723C13.8391 36.6155 13.565 36.5407 13.3398 36.4395V36.4385L13.1377 36.332C12.6958 36.0592 12.4482 35.6357 12.2959 35.2939C12.2061 35.0924 12.1359 34.8883 12.0791 34.7139C12.0178 34.5256 11.9766 34.3904 11.9297 34.2627L11.8555 34.0215C11.7046 33.4439 11.7148 32.7766 11.7148 32.3838Z" fill="#E8CD7D"/>
<path d="M13.2175 20L13.862 19.616C13.7043 19.351 13.4003 19.21 13.0959 19.26C12.7915 19.31 12.5488 19.541 12.4842 19.843L13.2175 20ZM13.2175 23.344L13.8853 23.002L13.7901 22.816L13.6123 22.706L13.2175 23.344ZM14.6431 20.42C14.3919 20.333 14.139 20.082 13.862 19.616L12.5731 20.384C12.8913 20.918 13.3769 21.569 14.1524 21.838L14.6431 20.42ZM12.4842 19.843C12.4315 20.089 12.3169 20.895 12.2706 21.673C12.2473 22.062 12.2389 22.4789 12.2716 22.8299C12.2877 23.0039 12.3165 23.194 12.3732 23.369C12.4205 23.514 12.5341 23.803 12.8228 23.981L13.6123 22.706C13.79 22.816 13.8177 22.96 13.8 22.906C13.7917 22.88 13.7764 22.8129 13.7651 22.6919C13.7429 22.4519 13.7463 22.124 13.7679 21.762C13.8112 21.036 13.9186 20.308 13.9509 20.157L12.4842 19.843ZM12.5498 23.685C12.824 24.221 13.3838 24.524 13.8361 24.672C14.3042 24.825 14.8823 24.888 15.3765 24.741L14.9504 23.303C14.8371 23.337 14.5844 23.338 14.3024 23.246C14.1718 23.203 14.0635 23.149 13.986 23.095C13.9057 23.039 13.885 23.001 13.8853 23.002L12.5498 23.685ZM15.3765 24.741C15.9082 24.584 16.3101 24.217 16.5711 23.816C16.8318 23.416 16.9871 22.93 16.9871 22.451H15.4871C15.4871 22.618 15.4287 22.8219 15.3141 22.9979C15.1999 23.1729 15.065 23.269 14.9504 23.303L15.3765 24.741ZM16.9871 22.451C16.9871 22.047 16.8582 21.696 16.6329 21.413C16.4193 21.144 16.1465 20.969 15.9029 20.85C15.6586 20.731 15.4021 20.648 15.1886 20.584C14.9499 20.512 14.795 20.473 14.6431 20.42L14.1524 21.838C14.3422 21.903 14.5881 21.97 14.7583 22.021C14.9538 22.079 15.1144 22.135 15.2445 22.198C15.3753 22.262 15.4342 22.315 15.4587 22.346C15.4715 22.362 15.4871 22.383 15.4871 22.451H16.9871Z" fill="#F79722"/>
<defs>
<radialGradient id="paint0_radial_53542_4519" cx="0" cy="0" r="1" gradientUnits="userSpaceOnUse" gradientTransform="translate(14.8517 22.5372) rotate(69.6264) scale(5.32155)">
<stop stop-color="#FFD755" stop-opacity="0.8"/>
<stop offset="0.865385" stop-color="#FFD755" stop-opacity="0"/>
</radialGradient>
</defs>
</svg>
