<svg width="48" height="55" viewBox="0 0 48 55" fill="none" xmlns="http://www.w3.org/2000/svg">
<path d="M37.612 18.3221L33.61 27.2721C33.504 27.5101 33.485 27.7921 33.665 27.9811C34.018 28.3541 34.664 28.6311 35.195 28.7991C35.514 28.8991 35.855 28.8001 36.081 28.5531C37.559 26.9301 40.312 23.1081 41.765 21.0231C41.899 20.8321 41.969 20.5991 41.899 20.3771C41.544 19.2531 40.021 18.3411 38.82 17.8211C38.35 17.6181 37.821 17.8551 37.612 18.3221Z" fill="#FFA629"/>
<path d="M36.9272 18.0156C37.2635 17.2641 38.1157 16.8091 38.9506 17.0703L39.1176 17.1328L39.6098 17.3594C40.115 17.6063 40.6501 17.913 41.1283 18.2734C41.7493 18.7414 42.3663 19.3682 42.6137 20.1514L42.6596 20.3437C42.7312 20.786 42.5687 21.1841 42.3793 21.4541C40.9324 23.5303 38.1517 27.3922 36.6352 29.0576L35.9662 28.4472L36.6342 29.0596C36.2206 29.5115 35.5795 29.7057 34.9701 29.5146H34.9682C34.4245 29.3426 33.6153 29.0196 33.1205 28.4971L33.1215 28.4961C32.6332 27.982 32.7681 27.3195 32.9252 26.9668V26.9658L36.9272 18.0156ZM36.6352 29.0576L36.6342 29.0596L36.0805 28.5527L36.6352 29.0576ZM38.4115 18.5107C38.3687 18.5289 38.3235 18.568 38.2963 18.6289L34.3051 27.5527C34.5461 27.7472 34.9685 27.9404 35.4184 28.083C35.4357 28.0884 35.4534 28.0887 35.4701 28.084C35.4874 28.079 35.5083 28.0681 35.5277 28.0469C36.967 26.4659 39.6908 22.6883 41.1498 20.5947L41.1508 20.5928C41.1588 20.5814 41.1631 20.5699 41.1674 20.5615C41.0474 20.2308 40.7328 19.8543 40.225 19.4717C39.7121 19.0852 39.0881 18.7549 38.5219 18.5097V18.5088C38.4865 18.4937 38.4507 18.4941 38.4115 18.5107ZM33.6645 27.9814L33.6596 27.9863L34.1557 27.5156L33.6645 27.9814Z" fill="#DD7C0E"/>
<path d="M43.501 26.9161L38.407 30.985C38.204 31.147 38.073 31.389 38.2 31.605C38.409 31.959 38.87 32.387 39.238 32.698C39.505 32.924 39.884 32.979 40.223 32.854C42.652 31.956 43.865 31.4041 45.846 30.4941C46.08 30.3861 46.281 30.1961 46.28 29.9471C46.274 29.1111 45.468 27.8451 44.815 27.0151C44.501 26.6151 43.911 26.5891 43.501 26.9161Z" fill="#FFA629"/>
<path d="M43.0338 26.3295C43.712 25.7889 44.7897 25.7702 45.4039 26.5522C45.7489 26.9906 46.1405 27.5497 46.4498 28.1215C46.7079 28.5986 46.9556 29.1661 47.0163 29.7104L47.0299 29.9418V29.9438C47.0327 30.6377 46.4891 31.0236 46.1608 31.1752H46.1588L45.8786 30.5639L45.651 30.0707L46.1588 31.1752C44.1712 32.0883 42.9383 32.6494 40.483 33.5571V33.558C39.9141 33.7678 39.246 33.6864 38.7545 33.2709L38.4547 33.0092C38.133 32.7173 37.7661 32.3445 37.5543 31.9858L38.5202 31.4164L38.1998 31.6049L37.5543 31.9858L37.5534 31.9848C37.3541 31.6456 37.3709 31.2851 37.4821 31.0014C37.5852 30.7385 37.7662 30.5369 37.9391 30.3989L43.0329 26.3295H43.0338ZM40.4498 33.4692L40.1012 32.5229L40.4498 33.4692ZM44.1452 27.4409C44.0964 27.4377 44.0295 27.4528 43.9684 27.5014L39.0211 31.4536C39.1357 31.5852 39.2833 31.7337 39.4459 31.8823L39.7223 32.1254C39.7647 32.1614 39.8547 32.19 39.9635 32.1498C42.359 31.2642 43.5521 30.722 45.5163 29.8198C45.4786 29.5887 45.3555 29.2512 45.1305 28.8354C44.8722 28.358 44.5332 27.8703 44.2252 27.4789V27.478C44.211 27.4599 44.1893 27.4438 44.1452 27.4409Z" fill="#DD7C0E"/>
</svg>
