<svg width="48" height="55" viewBox="0 0 48 55" fill="none" xmlns="http://www.w3.org/2000/svg">
<path d="M8.18959 20.6944C7.64031 21.9547 7.25177 24.3067 7.06497 25.864C7.02092 26.2312 7.19142 26.5889 7.49919 26.7941L12.9921 30.4561C13.2827 30.6498 13.6533 30.6779 13.9697 30.5303L21.2207 27.1465C21.4252 27.051 21.5987 26.8915 21.6639 26.6755C22.1267 25.1423 21.1762 22.5423 20.3598 20.8498C20.1272 20.3675 19.5613 20.2241 19.1772 20.5971C18.2113 21.5348 16.8064 23.2825 15.9152 24.4477C15.724 24.6977 15.4285 24.8454 15.1138 24.8454H13.203C12.7264 24.8454 12.3237 24.5043 12.1471 24.0615C11.5608 22.5919 10.2548 21.276 9.27261 20.4864C8.90109 20.1877 8.38003 20.2574 8.18959 20.6944Z" fill="#CB0B96"/>
<path d="M9.94186 39.5367C5.23781 36.7927 4.04182 28.4892 4.00004 23.636C3.99431 22.9702 4.65256 22.5184 5.24711 22.8181C8.333 24.3737 10.0019 27.3929 10.4803 29.3066C9.34553 24.0111 12.5566 20.5424 14.9359 18.6819C15.4153 18.3071 16.1106 18.4868 16.334 19.0529C17.9315 23.1004 17.4364 27.5348 16.9414 29.845C18.3573 25.9512 21.5672 24.4574 23.7619 23.7498C24.3895 23.5474 25.018 24.0374 25.0037 24.6966C24.8077 33.7341 22.5954 38.3371 20.7104 39.5367C16.403 41.6904 11.1982 40.4341 9.94186 39.5367Z" fill="#FF99E0"/>
<path fill-rule="evenodd" clip-rule="evenodd" d="M14.4739 18.0911C15.337 17.4164 16.6191 17.7323 17.0316 18.7777C17.3273 19.5267 17.5544 20.2869 17.7253 21.044C18.0542 20.6733 18.3711 20.3345 18.6546 20.0593C19.0261 19.6985 19.5217 19.5652 19.9909 19.6715C20.4493 19.7753 20.8275 20.0934 21.0352 20.5242C21.4444 21.3725 21.8917 22.4521 22.1898 23.5326C22.6646 23.3314 23.1182 23.1694 23.5317 23.0361C24.6743 22.6677 25.7784 23.5639 25.7535 24.713C25.6543 29.2857 25.0447 32.7742 24.2017 35.2939C23.3693 37.7815 22.2729 39.4314 21.1131 40.1695L21.0804 40.1903L21.0458 40.2076C18.7356 41.3627 16.2113 41.5929 14.1232 41.4286C13.0757 41.3463 12.1229 41.1636 11.3416 40.9391C10.596 40.7248 9.95318 40.4573 9.53595 40.1682C6.94999 38.6448 5.40954 35.6629 4.50322 32.5895C3.58574 29.4784 3.27136 26.116 3.25006 23.6425C3.24003 22.4765 4.43522 21.569 5.58471 22.1485C6.01095 22.3633 6.41181 22.6037 6.7879 22.8639C6.97992 21.9393 7.21824 21.0459 7.50191 20.395C7.70004 19.9403 8.09136 19.6525 8.53513 19.5757C8.96453 19.5014 9.40242 19.6288 9.74239 19.9021C10.2169 20.2835 10.7796 20.7943 11.3119 21.3978C12.2749 19.9787 13.4641 18.8808 14.4739 18.0911ZM10.5102 22.7762C9.9884 22.1172 9.37398 21.5339 8.83395 21.0965C8.54525 21.8047 8.29822 22.8739 8.10762 23.9448C8.68454 24.499 9.18026 25.0956 9.59844 25.6991C9.75591 24.6274 10.0815 23.6538 10.5102 22.7762ZM20.8167 24.2093C20.8009 24.1457 20.7843 24.0814 20.767 24.0165C20.7521 23.9608 20.7367 23.9051 20.7209 23.8493C20.4539 22.9081 20.0572 21.9491 19.6842 21.1759C19.6811 21.1695 19.6781 21.1639 19.6751 21.1592C19.206 21.6179 18.6235 22.2805 18.048 22.9731C18.1812 24.1576 18.1973 25.3032 18.1459 26.3518C18.9672 25.4257 19.8975 24.7337 20.8167 24.2093ZM15.3978 19.2729C15.4935 19.198 15.6021 19.2415 15.6363 19.3283C17.1544 23.1745 16.6905 27.4362 16.208 29.688L17.6462 30.1014C18.9433 26.5345 21.8763 25.1458 23.9921 24.4637C24.1047 24.4274 24.2575 24.5111 24.2539 24.6804C24.157 29.1451 23.5625 32.4769 22.7792 34.818C21.9962 37.158 21.0595 38.4073 20.3383 38.8842C18.3505 39.8672 16.1343 40.0822 14.2408 39.9333C13.2916 39.8586 12.4384 39.6935 11.7559 39.4974C11.0558 39.2962 10.5899 39.078 10.3778 38.9265L10.3496 38.9064L10.3198 38.889C8.21856 37.6633 6.81683 35.1319 5.94197 32.1653C5.075 29.2254 4.77049 26.0094 4.75001 23.6296C4.74936 23.5541 4.78326 23.5099 4.81437 23.4892C4.83027 23.4786 4.84445 23.4747 4.85529 23.4739C4.86398 23.4733 4.88113 23.4736 4.9095 23.4879C7.75732 24.9235 9.31414 27.7344 9.75268 29.4886L11.2136 29.1496C10.1716 24.2866 13.0889 21.0783 15.3978 19.2729Z" fill="#1A1A1A"/>
</svg>
