<svg width="48" height="55" viewBox="0 0 48 55" fill="none" xmlns="http://www.w3.org/2000/svg">
<path d="M3.97485 39.2145C9.09351 40.8645 13.2988 40.4745 15.464 40.4745C17.5708 40.4745 23.97 39.5145 26.3367 38.1145C26.6115 37.9545 26.7325 37.6246 26.6681 37.3146C25.368 31.0046 18.9458 26.5746 14.1609 27.0546C9.74821 27.4846 3.71241 30.9545 3.38315 38.3745C3.36618 38.7545 3.61098 39.0945 3.97485 39.2145Z" fill="#5C806D"/>
<path d="M15.0566 26.2939C17.9756 27.1288 21.4801 30.6737 22.2227 37.2607L20.7324 37.4287C20.1229 32.0223 17.5716 29.1163 15.4785 28.0664C15.3723 30.5982 15.3322 34.9429 15.7979 37.4688L14.3232 37.7402C13.8376 35.106 13.8705 30.7678 13.9727 28.1807C11.683 29.3393 8.72168 32.2833 8.72168 37.1748H7.22168C7.22168 30.6717 11.8298 27.1087 14.6445 26.3037L14.8486 27.0195L15.0566 26.2939Z" fill="#517361"/>
<path d="M14.0866 26.3079C16.7222 26.0436 19.7103 27.1277 22.1813 29.0452C24.663 30.9711 26.7105 33.8029 27.403 37.1614L27.4215 37.2718C27.4943 37.8224 27.2708 38.4346 26.7174 38.7591L26.7184 38.76C25.4103 39.5337 23.1001 40.1417 20.945 40.5559C18.7666 40.9747 16.5868 41.2239 15.4645 41.2239C13.3553 41.2239 9.00352 41.6232 3.74476 39.928L3.73987 39.927C3.07242 39.7069 2.60182 39.0728 2.63441 38.3411C2.98519 30.436 9.42748 26.7637 14.0866 26.3089V26.3079ZM21.2614 30.2307C19.0001 28.476 16.3851 27.5855 14.236 27.8011H14.234C10.0678 28.207 4.44018 31.4737 4.13245 38.4075C4.13122 38.4352 4.14919 38.4798 4.20667 38.5003C9.1846 40.1046 13.2435 39.7239 15.4645 39.7239C16.4492 39.7239 18.5226 39.4945 20.6617 39.0833C22.8106 38.6702 24.8696 38.1013 25.9342 37.4798C25.9342 37.4758 25.9351 37.4714 25.9342 37.4671L25.9332 37.4661C25.3252 34.5153 23.5116 31.9771 21.2614 30.2307Z" fill="#1A1A1A"/>
<path d="M2.02474 40.1644C1.9666 39.4444 2.01728 38.6344 2.11075 37.8944C2.241 36.8644 3.29278 36.2844 4.30703 36.5044C10.739 37.8644 20.8157 37.1145 26.2968 36.4445C27.1038 36.3445 27.8836 36.7944 28.0531 37.5844C28.1683 38.1244 28.2482 38.6944 28.3155 39.2144C28.4413 40.1944 27.8092 41.1744 26.8458 41.3844C18.7671 43.1544 10.9228 42.5944 3.30586 41.4144C2.64006 41.3144 2.07843 40.8444 2.02474 40.1644Z" fill="#5C806D"/>
<path fill-rule="evenodd" clip-rule="evenodd" d="M11.5928 37.0146C11.5928 37.54 11.5381 38.4243 11.4766 39.3682C11.414 40.3277 11.3424 41.3721 11.3057 42.2559L9.80762 42.1934C9.84528 41.2873 9.91752 40.2208 9.97949 39.2705C10.0425 38.305 10.0928 37.4793 10.0928 37.0146H11.5928ZM20.3164 37.0146C20.3164 37.4793 20.3667 38.305 20.4297 39.2705C20.4917 40.2208 20.5649 41.2873 20.6025 42.1934L19.1035 42.2559C19.0668 41.3721 18.9962 40.3277 18.9336 39.3682C18.872 38.4243 18.8164 37.54 18.8164 37.0146H20.3164ZM14.3867 36.9697C14.4182 37.4903 14.4159 38.3747 14.4111 39.3193C14.4063 40.2801 14.3987 41.3271 14.415 42.2109L12.915 42.2383C12.8983 41.3324 12.9064 40.2639 12.9111 39.3125C12.916 38.3454 12.9165 37.5191 12.8887 37.0596L14.3867 36.9697ZM17.4932 36.9697C17.5247 37.4903 17.5223 38.3747 17.5176 39.3193C17.5128 40.2801 17.5051 41.3271 17.5215 42.2109L16.0215 42.2383C16.0047 41.3324 16.0128 40.2639 16.0176 39.3125C16.0224 38.3454 16.023 37.5191 15.9951 37.0596L17.4932 36.9697ZM23.1055 36.9219C23.202 37.6943 23.4137 39.6661 23.4893 41.4834L21.9902 41.5459C21.917 39.7839 21.7107 37.8555 21.6172 37.1074L23.1055 36.9219ZM25.9922 36.9219C26.0887 37.6943 26.3003 39.6661 26.376 41.4834L24.877 41.5459C24.8036 39.7838 24.5974 37.8555 24.5039 37.1074L25.9922 36.9219ZM5.90527 37.0078C5.81173 37.756 5.60548 39.6843 5.53223 41.4463L4.0332 41.3838C4.10877 39.5663 4.32042 37.5936 4.41699 36.8213L5.90527 37.0078ZM8.79199 37.0078C8.69844 37.756 8.49221 39.6844 8.41895 41.4463L6.9209 41.3838C6.99647 39.5663 7.20714 37.5936 7.30371 36.8213L8.79199 37.0078Z" fill="#517361"/>
<path d="M26.204 35.7C27.316 35.5623 28.5189 36.1822 28.7861 37.4266V37.4276C28.8471 37.7137 28.8988 38.006 28.9433 38.2918L29.0595 39.118V39.119C29.2195 40.3662 28.4848 41.6461 27.2577 42.0487L27.0058 42.117C18.7965 43.9156 10.8473 43.3405 3.19426 42.1551C2.27546 42.017 1.36564 41.3362 1.27727 40.2245C1.21343 39.4337 1.26928 38.5676 1.36614 37.8006C1.56403 36.2357 3.12274 35.4837 4.46086 35.7713L4.46184 35.7704C10.7582 37.1017 20.7214 36.3711 26.204 35.701V35.7ZM26.3886 37.1883H26.3876C20.9078 37.8582 10.7191 38.6265 4.15227 37.2381L4.14836 37.2372C3.45915 37.0877 2.91689 37.495 2.85442 37.9881C2.77562 38.612 2.73144 39.2674 2.75676 39.8563L2.77239 40.1043V40.1053C2.79196 40.3527 3.00472 40.6107 3.41692 40.6727H3.42082C11.0005 41.8469 18.7388 42.3923 26.6855 40.6512H26.6864C27.2356 40.5312 27.6516 39.9395 27.5712 39.3104C27.521 38.9224 27.4658 38.5193 27.3954 38.1278L27.3193 37.7411C27.247 37.4059 26.8903 37.1262 26.3886 37.1883Z" fill="#1A1A1A"/>
</svg>
