<svg width="52" height="55" viewBox="0 0 52 55" fill="none" xmlns="http://www.w3.org/2000/svg">
<path fill-rule="evenodd" clip-rule="evenodd" d="M11.8872 24.9171C10.0242 25.3611 7.00342 26.0801 7.00342 29.7851C7.00342 32.5281 10.8612 35.1921 20.1152 34.4951C21.9932 34.3541 24.7882 34.1021 27.3742 33.5181C31.6552 32.5511 32.0842 27.7031 28.1092 25.8431C24.4332 24.1231 19.0612 23.2061 11.9602 24.9001C11.9362 24.9051 11.9122 24.9111 11.8872 24.9171ZM14.2502 27.6051C12.4202 27.7781 10.2212 27.9861 10.2062 29.3711C10.1872 31.1391 14.2762 31.8301 23.6312 31.1111C28.9322 30.7031 29.3772 28.0931 24.0682 27.5461C21.3972 27.2711 18.2112 27.2261 14.4512 27.5861C14.3842 27.5921 14.3172 27.5981 14.2502 27.6051Z" fill="#FFE8A3"/>
<path d="M7.75321 29.7852C7.75321 28.1822 8.38521 27.3022 9.18021 26.7412C10.0312 26.1392 11.1092 25.8732 12.0612 25.6462L11.7142 24.1872C10.8032 24.4042 9.43922 24.7202 8.31422 25.5162C7.13192 26.3512 6.25342 27.6832 6.25342 29.7852H7.75321ZM20.0592 33.7472C15.4962 34.0912 12.3542 33.5962 10.3882 32.7422C8.42221 31.8882 7.75321 30.7472 7.75321 29.7852H6.25342C6.25342 31.5662 7.51321 33.1292 9.79021 34.1182C12.0662 35.1072 15.4802 35.5962 20.1722 35.2432L20.0592 33.7472ZM27.2092 32.7862C24.6802 33.3572 21.9322 33.6062 20.0592 33.7472L20.1722 35.2432C22.0542 35.1012 24.8962 34.8462 27.5392 34.2492L27.2092 32.7862ZM27.7912 26.5222C29.5302 27.3362 30.2032 28.7352 30.0912 29.9462C29.9792 31.1502 29.0722 32.3662 27.2092 32.7862L27.5392 34.2492C29.9572 33.7032 31.4052 32.0122 31.5842 30.0852C31.7632 28.1652 30.6632 26.2102 28.4272 25.1632L27.7912 26.5222ZM12.1342 25.6292C19.0872 23.9712 24.2832 24.8812 27.7912 26.5222L28.4272 25.1632C24.5832 23.3652 19.0362 22.4412 11.7862 24.1702L12.1342 25.6292ZM12.0612 25.6462C12.0852 25.6412 12.1102 25.6352 12.1342 25.6292L11.7862 24.1702C11.7622 24.1762 11.7382 24.1812 11.7142 24.1872L12.0612 25.6462ZM10.9562 29.3792C10.9572 29.2612 10.9942 29.1792 11.0942 29.0882C11.2162 28.9762 11.4332 28.8562 11.7742 28.7482C12.4622 28.5312 13.3812 28.4402 14.3202 28.3512L14.1792 26.8582C13.2882 26.9422 12.1932 27.0422 11.3212 27.3182C10.8822 27.4572 10.4322 27.6602 10.0802 27.9822C9.70722 28.3242 9.46321 28.7882 9.45621 29.3632L10.9562 29.3792ZM23.5732 30.3632C18.9082 30.7222 15.6132 30.7232 13.5062 30.4312C12.4462 30.2842 11.7562 30.0712 11.3532 29.8392C10.9742 29.6222 10.9552 29.4612 10.9562 29.3792L9.45621 29.3632C9.44822 30.1652 9.93322 30.7542 10.6072 31.1412C11.2582 31.5142 12.1722 31.7602 13.3002 31.9172C15.5722 32.2322 18.9992 32.2192 23.6882 31.8592L23.5732 30.3632ZM23.9912 28.2922C25.2712 28.4242 26.1322 28.6752 26.6352 28.9402C27.1842 29.2292 27.0702 29.3832 27.0862 29.2752C27.0892 29.2492 27.0392 29.4822 26.3792 29.7732C25.7792 30.0382 24.8482 30.2652 23.5732 30.3632L23.6882 31.8592C25.0652 31.7532 26.1772 31.5012 26.9852 31.1452C27.7342 30.8152 28.4572 30.2842 28.5712 29.4872C28.6962 28.6062 28.0302 27.9802 27.3352 27.6132C26.5942 27.2222 25.5192 26.9422 24.1452 26.8002L23.9912 28.2922ZM14.5222 28.3322C18.2372 27.9772 21.3722 28.0222 23.9912 28.2922L24.1452 26.8002C21.4212 26.5192 18.1862 26.4752 14.3802 26.8392L14.5222 28.3322ZM14.3202 28.3512C14.3882 28.3452 14.4552 28.3392 14.5222 28.3322L14.3802 26.8392C14.3142 26.8452 14.2472 26.8522 14.1792 26.8582L14.3202 28.3512Z" fill="#FFC21A"/>
<ellipse cx="18.4971" cy="29.8039" rx="18.4971" ry="10.4455" fill="url(#paint0_radial_53542_4533)"/>
<defs>
<radialGradient id="paint0_radial_53542_4533" cx="0" cy="0" r="1" gradientTransform="matrix(6.20516 9.43557 -16.7088 3.5041 18.4971 29.8039)" gradientUnits="userSpaceOnUse">
<stop stop-color="#F7C522" stop-opacity="0.5"/>
<stop offset="1" stop-color="#F7C522" stop-opacity="0"/>
</radialGradient>
</defs>
</svg>
