<svg width="48" height="55" viewBox="0 0 48 55" fill="none" xmlns="http://www.w3.org/2000/svg">
<path d="M11 21.75V18C11 15.791 12.7909 14 15 14H27C29.2091 14 31 15.791 31 18V21.75C31 23.959 29.2091 25.75 27 25.75H21.2273L16.3182 30V25.75H15C12.7909 25.75 11 23.959 11 21.75Z" fill="white"/>
<path d="M30.25 18C30.25 16.2052 28.7949 14.75 27 14.75H15C13.2051 14.75 11.75 16.2052 11.75 18V21.75C11.75 23.5448 13.2051 25 15 25H16.3184C16.7325 25.0001 17.0684 25.3358 17.0684 25.75V28.3574L20.7363 25.1826C20.8726 25.0647 21.0473 25 21.2275 25H27C28.7949 25 30.25 23.5448 30.25 21.75V18ZM31.75 21.75C31.75 24.3732 29.6233 26.5 27 26.5H21.5068L16.8096 30.5674C16.5878 30.7594 16.2737 30.8044 16.0068 30.6826C15.7398 30.5606 15.5684 30.2936 15.5684 30V26.5H15C12.3767 26.5 10.25 24.3732 10.25 21.75V18C10.25 15.3768 12.3767 13.25 15 13.25H27C29.6233 13.25 31.75 15.3768 31.75 18V21.75Z" fill="#1A1A1A"/>
<path d="M20.5156 17.1293C20.8461 17.6173 21.1875 18.1253 21.1962 18.7133C21.2004 18.9963 21.3705 18.4473 21.448 18.3503C21.5856 18.1793 21.7068 17.9893 21.8714 17.8363C22.1635 17.5653 22.4231 17.2943 22.7798 17.0953C23.2517 16.8333 23.8809 16.5873 24.4277 16.5873C24.8448 16.5873 25.1292 16.6873 25.3816 17.0203C25.6569 17.3843 25.7588 17.9783 25.6562 18.4093C25.5167 18.9953 25.1682 19.4513 24.7787 19.9043C24.3564 20.3953 23.9056 20.8773 23.4389 21.3293C22.8931 21.8583 22.3868 22.3853 21.7508 22.8193C21.4255 23.0423 21.1145 23.2843 20.7862 23.5023C20.6748 23.5763 20.61 23.6823 20.5156 23.5333C20.3699 23.3033 20.2075 23.0823 20.0413 22.8653C19.8913 22.6693 19.7612 22.4513 19.6059 22.2633C19.238 21.8173 18.9627 21.3133 18.5662 20.8843C17.8267 20.0833 16.9925 19.2573 17.0001 18.1133C17.0023 17.7713 17.0465 17.4533 17.2225 17.1523C17.432 16.7953 17.7855 16.4613 18.1362 16.2333C18.3452 16.0983 18.5714 16.0023 18.8248 16.0023C19.0193 16.0023 19.2324 15.9813 19.4116 16.0673C19.506 16.1133 19.5907 16.1883 19.6769 16.2463C19.8136 16.3403 19.9322 16.4953 20.0493 16.6103L20.0501 16.6113C20.213 16.7703 20.388 16.9413 20.5156 17.1293Z" fill="#E24C0C"/>
</svg>
