<svg width="48" height="55" viewBox="0 0 48 55" fill="none" xmlns="http://www.w3.org/2000/svg">
<path d="M14.1177 30.8693L14 28.9973L17.4493 28.7803L17.567 30.6533L15.8873 31.4763L14.1177 30.8693Z" fill="#787878"/>
<path d="M17.408 28.1336C17.5795 28.1228 17.7489 28.1802 17.8778 28.2938C18.0066 28.4073 18.0847 28.5677 18.0955 28.7391L18.2137 30.6121L17.5662 30.6522L17.5672 30.6531L18.2137 30.6121C18.2301 30.8736 18.0875 31.1198 17.8524 31.2352L16.1727 32.0584C16.0182 32.1341 15.8393 32.1445 15.6766 32.0887L13.9071 31.4822L13.8182 31.4442C13.6472 31.3552 13.5248 31.1941 13.4842 31.0057L13.4705 30.91L13.3534 29.0379C13.3309 28.6808 13.6018 28.373 13.9588 28.3504L17.408 28.1336ZM14.6864 29.6024L14.7371 30.3953L15.8436 30.7752L16.8924 30.2615L16.8426 29.4666L14.6864 29.6024Z" fill="#1A1A1A"/>
<circle cx="15.184" cy="23.4945" r="9.83777" fill="url(#paint0_radial_53542_4496)"/>
<path d="M17.7762 28.8861L13.4561 29.3351C13.3121 28.5861 13.3411 26.9081 12.8513 26.1891C12.239 25.2901 10 24.8401 10 23.0421C10 21.2441 12.1601 18.9971 14.9425 18.9971C17.7249 18.9971 20.3683 20.3451 20.3683 22.1431C20.3683 23.9411 18.2083 24.8401 17.7762 25.7391C17.4306 26.4581 17.7762 28.0601 17.7762 28.8861Z" fill="#FFE054"/>
<path d="M19.7207 22.1436C19.7207 21.5903 19.3063 20.9758 18.3838 20.4619C17.4843 19.961 16.2388 19.6455 14.9424 19.6455C13.7274 19.6455 12.6408 20.1362 11.8574 20.8301C11.0591 21.5373 10.6485 22.3856 10.6484 23.042C10.6484 23.6134 10.9803 24.0069 11.5703 24.4238C11.8907 24.6502 12.1544 24.7977 12.5059 25.0312C12.8059 25.2306 13.1564 25.4862 13.3867 25.8242C13.5706 26.0941 13.6842 26.4174 13.7607 26.7197C13.839 27.0287 13.8893 27.3604 13.9268 27.6738C13.9641 27.9868 13.9902 28.303 14.0146 28.5693C14.0164 28.5878 14.0179 28.6061 14.0195 28.624L17.0908 28.3047C17.0879 28.2739 17.0861 28.2422 17.083 28.21C17.0569 27.9416 17.0224 27.6266 17 27.3193C16.9776 27.0111 16.9646 26.6843 16.9834 26.3779C17.0017 26.0805 17.0529 25.7482 17.1924 25.458C17.361 25.1074 17.6658 24.8079 17.9277 24.5703C18.2402 24.2869 18.4843 24.0958 18.7891 23.8076C19.3562 23.2712 19.7205 22.7602 19.7207 22.1436ZM21.0166 22.1436C21.0164 23.3244 20.3003 24.162 19.6797 24.749C19.3905 25.0225 19.0129 25.3361 18.7988 25.5303C18.5345 25.77 18.4079 25.9208 18.3604 26.0195C18.3271 26.0887 18.2915 26.2272 18.2773 26.458C18.2638 26.6799 18.2722 26.9404 18.293 27.2256C18.3138 27.5118 18.3452 27.7973 18.373 28.084C18.3998 28.359 18.4238 28.6436 18.4238 28.8857C18.4238 29.2177 18.173 29.496 17.8428 29.5303L13.5234 29.9795C13.189 30.0142 12.8828 29.7872 12.8193 29.457C12.7764 29.2335 12.7493 28.9564 12.7246 28.6875C12.6987 28.4062 12.6743 28.1171 12.6396 27.8271C12.6051 27.5381 12.5624 27.2691 12.5039 27.0381C12.4437 26.8002 12.3765 26.6433 12.3154 26.5537C12.2395 26.4423 12.0808 26.3042 11.7891 26.1104C11.5488 25.9507 11.1379 25.7045 10.8223 25.4814C10.1397 24.9991 9.35156 24.2685 9.35156 23.042C9.35159 21.9005 10.0209 20.7261 10.998 19.8604C11.9903 18.9813 13.3751 18.3487 14.9424 18.3486C16.4283 18.3486 17.8959 18.7076 19.0137 19.3301C20.1083 19.9397 21.0166 20.8988 21.0166 22.1436Z" fill="#E4981F"/>
<defs>
<radialGradient id="paint0_radial_53542_4496" cx="0" cy="0" r="1" gradientUnits="userSpaceOnUse" gradientTransform="translate(15.184 23.4945) rotate(69.6264) scale(9.47965)">
<stop stop-color="#F7E922" stop-opacity="0.8"/>
<stop offset="0.865385" stop-color="#F7E922" stop-opacity="0"/>
</radialGradient>
</defs>
</svg>
