<svg width="48" height="55" viewBox="0 0 48 55" fill="none" xmlns="http://www.w3.org/2000/svg">
<path d="M25.0792 36.7957C13.6203 38.0957 6.90128 35.7957 4.97412 34.4857L17.4574 16.6797L25.0792 36.7957Z" fill="#FFCD29"/>
<path d="M8.01855 30.5591C9.4029 30.5592 10.5254 31.6816 10.5254 33.0659C10.5253 34.4502 9.40286 35.5727 8.01855 35.5728C6.63418 35.5728 5.51178 34.4503 5.51172 33.0659C5.51172 31.6815 6.63414 30.5591 8.01855 30.5591ZM15.54 30.5591C16.9244 30.5592 18.0469 31.6816 18.0469 33.0659C18.0468 34.4502 16.9243 35.5727 15.54 35.5728C14.1557 35.5728 13.0333 34.4503 13.0332 33.0659C13.0332 31.6815 14.1556 30.5591 15.54 30.5591ZM23.8057 34.7856L24.1846 34.6558C23.7885 34.9157 23.315 35.0659 22.8047 35.0659C21.4205 35.0659 20.2982 33.9457 20.2979 32.5659C20.2979 31.3859 21.1099 30.3955 22.2041 30.1255L23.8057 34.7856ZM11.6035 25.0396C12.9877 25.0397 14.1102 26.1612 14.1104 27.5454C14.1104 28.9297 12.9878 30.0521 11.6035 30.0522C10.2191 30.0522 9.09668 28.9298 9.09668 27.5454C9.09684 26.1611 10.2192 25.0396 11.6035 25.0396ZM18.7998 23.8091C20.1842 23.8092 21.3066 24.9316 21.3066 26.3159C21.3066 27.7002 20.1841 28.8227 18.7998 28.8228C17.4154 28.8228 16.293 27.7003 16.293 26.3159C16.293 24.9315 17.4154 23.8091 18.7998 23.8091ZM14.9121 19.5776C15.892 19.9187 16.5967 20.848 16.5967 21.9438C16.5965 23.3256 15.474 24.4453 14.0898 24.4556C13.335 24.4556 12.6598 24.1154 12.2002 23.5854L14.9121 19.5776Z" fill="#007BE5"/>
<path d="M17.4032 14.6834C17.6848 14.7165 17.9236 14.9061 18.0204 15.1726L25.7841 36.5388C25.8625 36.7547 25.8377 36.9949 25.7167 37.1902C25.5957 37.3855 25.3922 37.5149 25.164 37.5408L24.0907 37.6531C18.7919 38.1602 14.5251 37.8617 11.3016 37.2537C7.88375 36.6089 5.59443 35.6073 4.50184 34.8123C4.17789 34.5765 4.09682 34.1273 4.31727 33.7927L16.6893 15.0154C16.8454 14.7788 17.1217 14.6503 17.4032 14.6834ZM5.9911 33.9773C7.04662 34.558 8.90128 35.2747 11.58 35.78C14.6753 36.3639 18.8329 36.6571 24.0468 36.1492L17.121 17.0877L5.9911 33.9773Z" fill="#1A1A1A"/>
<path fill-rule="evenodd" clip-rule="evenodd" d="M16.8 12.8388C17.206 12.7593 17.6007 13.0246 17.6808 13.4306C17.783 13.9492 17.8697 14.5169 17.9289 15.1327C18.2432 14.743 18.518 14.3658 18.7589 14.0068C18.9897 13.6631 19.4551 13.5712 19.799 13.8017C20.1426 14.0325 20.2347 14.4989 20.0041 14.8427C19.6553 15.3625 19.2418 15.9144 18.7511 16.4853C19.2702 16.4495 19.8144 16.3912 20.3839 16.3007C20.7929 16.2357 21.1772 16.5148 21.2423 16.9237C21.3072 17.3327 21.0283 17.7171 20.6193 17.7821C20.007 17.8794 19.4207 17.9426 18.8605 17.9814C19.1803 18.2493 19.5209 18.5185 19.8869 18.7841C20.2219 19.0274 20.2959 19.4968 20.0529 19.832C19.8096 20.1668 19.3411 20.241 19.006 19.998C18.5975 19.7014 18.2167 19.4015 17.8605 19.1015C17.8059 19.5364 17.7369 19.9861 17.6466 20.4501C17.5675 20.8566 17.1733 21.1219 16.7668 21.0429C16.3604 20.9636 16.095 20.5704 16.174 20.164C16.2682 19.6801 16.3383 19.2139 16.3908 18.7655C15.9676 19.1066 15.5115 19.448 15.0158 19.7821C14.6725 20.0136 14.2064 19.9231 13.9748 19.58C13.7433 19.2365 13.8345 18.7705 14.1779 18.539C14.5117 18.3139 14.8251 18.0847 15.1222 17.8564C14.575 17.7789 14.068 17.681 13.6017 17.5722C13.1989 17.4777 12.9483 17.0738 13.0421 16.6708C13.1364 16.2678 13.5404 16.0174 13.9435 16.1112C14.3339 16.2024 14.7567 16.2845 15.2111 16.3525C14.8172 15.8434 14.4813 15.3513 14.1925 14.8866C13.9742 14.5349 14.082 14.073 14.4337 13.8544C14.7855 13.6361 15.2474 13.7441 15.466 14.0956C15.7436 14.5424 16.0691 15.0189 16.4562 15.5126C16.4032 14.8557 16.3152 14.258 16.2091 13.7196C16.1295 13.3135 16.3938 12.9188 16.8 12.8388Z" fill="#007BE5"/>
</svg>
