<svg width="48" height="55" viewBox="0 0 48 55" fill="none" xmlns="http://www.w3.org/2000/svg">
<path d="M5.184 41.2126C9.52538 42.5586 13.0867 42.2346 14.931 42.2346C16.7129 42.2346 22.0575 41.4516 24.1847 40.2966C24.4999 40.1256 24.6371 39.7626 24.5585 39.4126C23.3721 34.1316 17.8965 30.4456 13.8077 30.8456C10.0389 31.2136 4.89629 34.1066 4.52654 40.2766C4.50102 40.7026 4.77645 41.0866 5.184 41.2126Z" fill="#4D49FC" stroke="#385ED9" stroke-width="1.5" stroke-linecap="round"/>
<path d="M5.20366 41.2894C7.98822 42.1464 8.69515 42.1274 10.4382 42.1274C10.8871 37.3544 11.4847 34.5974 13.9508 30.8154C10.3109 31.1554 4.95661 34.6134 4.53223 40.3394C4.50007 40.7724 4.7879 41.1614 5.20366 41.2894Z" fill="#F24822"/>
<path d="M24.1754 40.0304C22.3963 41.0924 20.3363 41.6614 18.2686 41.6614C17.6938 37.2424 16.7256 34.7784 14.2505 30.8154C17.8807 31.1694 23.7269 35.1064 24.5868 39.1284C24.6631 39.4854 24.489 39.8424 24.1754 40.0304Z" fill="#FFCD29"/>
<path d="M13.7417 29.7753C16.0392 29.5512 18.6929 30.5713 20.8921 32.2695C23.1037 33.9773 24.9706 36.4577 25.6206 39.3173C25.7645 39.9506 25.5228 40.6721 24.8755 41.0253L24.8745 41.0263L24.6411 41.1464C23.4244 41.7421 21.5088 42.239 19.7251 42.5918C17.8089 42.9707 15.8974 43.2109 14.9312 43.2109C13.1981 43.2109 9.66875 43.5219 5.37942 42.2802L4.96243 42.1552H4.96145C4.23816 41.9298 3.73138 41.2428 3.77786 40.4589C4.1731 33.8094 9.68216 30.1728 13.7417 29.7753ZM13.8882 31.2685C10.409 31.6091 5.6178 34.7794 5.27493 40.5478C5.27098 40.6152 5.31472 40.6934 5.40481 40.7226H5.40579C9.61148 42.0256 13.0315 41.7109 14.9312 41.7109C15.7487 41.7109 17.5457 41.4936 19.4341 41.1201C21.3349 40.7441 23.1816 40.2374 24.1558 39.7089L24.1568 39.708C24.1598 39.7005 24.1647 39.6798 24.1577 39.6494C23.6015 37.2024 21.9766 35.0026 19.9751 33.457C17.9611 31.9018 15.6799 31.0939 13.8882 31.2685Z" fill="#1A1A1A"/>
<path d="M14.3843 31.5352C12.3817 34.1162 11.2661 37.462 10.9087 41.8115L9.9126 41.7295C10.2802 37.2552 11.4366 33.7027 13.5942 30.9219L14.3843 31.5352Z" fill="#BD2915"/>
<path d="M14.3848 30.6616C16.52 33.4136 18.2124 37.2944 18.7197 41.3794L17.7275 41.5024C17.2424 37.5958 15.6187 33.8847 13.5938 31.2749L14.3848 30.6616Z" fill="#EBA611"/>
<path fill-rule="evenodd" clip-rule="evenodd" d="M17.4035 24.8164C17.5288 24.8164 17.6366 24.8472 17.675 24.8584C17.7344 24.8757 17.7952 24.8977 17.8537 24.9229C17.965 24.9708 18.1141 25.049 18.2502 25.165C18.3697 25.2669 18.5967 25.499 18.6233 25.8643C18.6532 26.2784 18.4123 26.5699 18.2043 26.7314L18.0608 26.8369C17.7172 27.0737 17.3275 27.2453 16.9778 27.3799C16.7739 27.4583 16.5695 27.5294 16.3821 27.5938C16.1898 27.6598 16.0195 27.7181 15.8635 27.7764H15.8616L15.6008 27.0732L15.5539 26.9492L15.8616 27.7764C15.6661 27.849 15.3751 27.9565 15.0666 28.0166C14.9176 28.0456 14.7411 28.0665 14.552 28.0625C14.6412 28.1599 14.7077 28.2801 14.7356 28.4189C14.8866 29.1744 14.8645 29.9168 14.8645 30.5674C14.8645 30.9816 14.5287 31.3174 14.1145 31.3174C13.7003 31.3173 13.3645 30.9815 13.3645 30.5674C13.3645 29.8503 13.3796 29.2881 13.2649 28.7139C13.242 28.5995 13.2493 28.4867 13.2766 28.3809H10.5901C10.3771 28.3809 9.98539 28.3351 9.63792 28.2705C9.45823 28.2371 9.26481 28.1947 9.093 28.1416C9.00722 28.1151 8.91361 28.082 8.82444 28.041C8.74523 28.0046 8.62016 27.9394 8.50706 27.832H8.50608C8.33399 27.6683 8.27419 27.471 8.25706 27.3301C8.24104 27.1979 8.25761 27.0853 8.27171 27.0176C8.29937 26.8849 8.35152 26.7615 8.37913 26.6973C8.41981 26.6026 8.43095 26.5818 8.45042 26.5342C8.50537 26.1771 8.78394 26.0053 8.86448 25.9619C8.98191 25.8988 9.09739 25.8717 9.1594 25.8594C9.29708 25.832 9.45444 25.8222 9.59397 25.8184C9.88611 25.8102 10.2602 25.8252 10.6272 25.8496C10.9984 25.8743 11.3827 25.91 11.7004 25.9482C11.9815 25.9821 12.3017 26.0278 12.4817 26.0879C12.7328 26.1718 12.9447 26.2975 13.0989 26.3936C13.2763 26.5042 13.3649 26.565 13.469 26.6172C13.489 26.6272 13.5079 26.6388 13.5266 26.6504C13.5842 26.5683 13.6449 26.4946 13.7043 26.4307C13.9067 26.2129 14.1546 26.0301 14.3869 25.8838C14.8509 25.5917 15.3684 25.3748 15.6741 25.2764H15.675C15.784 25.2415 15.8912 25.2008 16.01 25.1543C16.1227 25.1102 16.2586 25.0554 16.3928 25.0078C16.6721 24.9087 17.005 24.8165 17.4035 24.8164Z" fill="#444444"/>
</svg>
