<svg width="48" height="55" viewBox="0 0 48 55" fill="none" xmlns="http://www.w3.org/2000/svg">
<path fill-rule="evenodd" clip-rule="evenodd" d="M12.476 32.8859C6.72903 32.8609 3.03423 29.5259 1.26113 26.8119C0.712533 25.9719 1.06733 24.8759 1.96103 24.4209C9.85403 20.4009 13.666 24.4979 15.17 28.8799C16.674 24.4979 20.486 20.4009 28.379 24.4209C29.273 24.8759 29.628 25.9719 29.079 26.8119C27.142 29.7759 22.913 33.4809 16.221 32.8059L16.389 37.6829C16.418 38.5389 15.732 39.2499 14.875 39.2499C14.14 39.2499 13.511 38.7229 13.383 37.9989L12.476 32.8859Z" fill="#14AE5C"/>
<path d="M12.4763 32.8859L13.2153 32.7549C13.1513 32.3979 12.8423 32.1379 12.4793 32.1359L12.4763 32.8859ZM15.1703 28.8799L14.4613 29.1229C14.5653 29.4259 14.8503 29.6299 15.1703 29.6299C15.4903 29.6299 15.7753 29.4259 15.8793 29.1229L15.1703 28.8799ZM16.2213 32.8059L16.2973 32.0599C16.0813 32.0379 15.8673 32.1099 15.7093 32.2579C15.5513 32.4059 15.4653 32.6149 15.4723 32.8319L16.2213 32.8059ZM12.4793 32.1359C7.05426 32.1119 3.56707 28.9699 1.88927 26.4019L0.633567 27.2219C2.50187 30.0819 6.40527 33.6089 12.4733 33.6359L12.4793 32.1359ZM1.88927 26.4019C1.61147 25.9759 1.76057 25.3639 2.30167 25.0889L1.62096 23.7519C0.374563 24.3869 -0.185833 25.9679 0.633567 27.2219L1.88927 26.4019ZM2.30167 25.0889C6.11327 23.1469 8.77827 23.2409 10.6253 24.1699C12.5063 25.1149 13.7413 27.0259 14.4613 29.1229L15.8793 28.6359C15.0963 26.3519 13.6723 24.0229 11.2983 22.8289C8.89026 21.6189 5.70226 21.6739 1.62096 23.7519L2.30167 25.0889ZM28.7193 23.7519C24.6383 21.6739 21.4503 21.6189 19.0423 22.8289C16.6683 24.0229 15.2453 26.3519 14.4613 28.6359L15.8793 29.1229C16.5993 27.0259 17.8343 25.1149 19.7153 24.1699C21.5623 23.2409 24.2273 23.1469 28.0393 25.0889L28.7193 23.7519ZM29.7073 27.2219C30.5263 25.9679 29.9663 24.3869 28.7193 23.7519L28.0393 25.0889C28.5803 25.3639 28.7293 25.9759 28.4513 26.4019L29.7073 27.2219ZM16.1463 33.5519C23.1943 34.2629 27.6653 30.3479 29.7073 27.2219L28.4513 26.4019C26.6203 29.2039 22.6323 32.6989 16.2973 32.0599L16.1463 33.5519ZM17.1393 37.6569L16.9713 32.7799L15.4723 32.8319L15.6393 37.7079L17.1393 37.6569ZM14.8753 39.9999C16.1563 39.9999 17.1823 38.9379 17.1393 37.6569L15.6393 37.7079C15.6543 38.1409 15.3083 38.4999 14.8753 38.4999V39.9999ZM12.6443 38.1299C12.8363 39.2119 13.7763 39.9999 14.8753 39.9999V38.4999C14.5043 38.4999 14.1863 38.2339 14.1213 37.8679L12.6443 38.1299ZM11.7383 33.0169L12.6443 38.1299L14.1213 37.8679L13.2153 32.7549L11.7383 33.0169Z" fill="#1A1A1A"/>
<path d="M18.1484 28.9771C20.3074 27.4411 22.7224 26.4071 24.5994 25.7921C25.1154 25.6241 25.0794 24.8861 24.5364 24.8801C21.0124 24.8381 18.7424 26.6991 17.5224 28.4671C17.2274 28.8931 17.7274 29.2771 18.1484 28.9771Z" fill="#036838"/>
<path d="M11.1921 28.9761C9.03414 27.4411 6.61813 26.4071 4.74113 25.7921C4.22513 25.6231 4.26214 24.8861 4.80414 24.8791C8.32814 24.8381 10.5991 26.6991 11.8191 28.4671C12.1131 28.8931 11.6141 29.2761 11.1921 28.9761Z" fill="#036838"/>
</svg>
