<svg width="105" height="62" viewBox="0 0 105 62" fill="none" xmlns="http://www.w3.org/2000/svg">
<path d="M54.0486 4.50488C53.7916 14.3936 54.5354 20.7105 55.7068 29.1826L56.2341 32.9658C56.3964 34.3456 56.946 41.3739 57.4431 48.124C57.6921 51.5053 57.9275 54.8058 58.0925 57.2695C58.175 58.5015 58.2397 59.522 58.28 60.2383C58.2854 60.3338 58.2892 60.424 58.2937 60.5078H51.2742C51.197 58.263 50.9133 56.0586 50.7302 53.9004V53.8984L49.4626 39.3174C49.3138 37.4936 48.9752 34.4441 49.0027 32.8945V32.8691L49.0017 32.8428C48.7577 27.2696 48.2162 23.5397 47.6755 19.5361C47.137 15.548 46.5944 11.2653 46.3337 4.54004C46.3258 3.54013 46.3281 2.4717 46.3054 1.4375C46.5545 1.30061 46.7941 1.17459 47.0388 1.07129C47.4188 0.910878 47.7457 0.832545 48.0369 0.842773C49.9793 0.911239 51.8563 0.980165 53.8181 0.9375C53.9318 2.13229 54.0452 3.42189 54.0486 4.50488Z" fill="#DCAB6E" stroke="black" stroke-width="1.68359"/>
<path d="M1.21754 30.7231C1.48607 31.2051 1.54121 31.5885 1.95453 31.5885C14.7636 31.5885 14.767 31.7124 14.767 31.7124L14.7414 5.88623H0.539892L0.542559 11.7945C2.19402 11.8184 4.26947 12.0518 5.93594 12.2223C7.64759 12.3975 11.3153 12.3575 12.6291 13.2341L12.7559 13.5207C12.2341 14.7239 9.06798 14.9913 7.88793 15.2481C5.51252 15.7653 2.85806 16.0524 0.53302 16.7431L0.539472 25.5612C2.40349 25.723 9.89336 26.1676 11.0379 27.0177L11.1822 27.3246C10.8825 27.8868 10.0526 28.243 9.47204 28.3804C6.77199 29.0193 3.97835 29.608 1.26917 30.1907C1.10923 30.5268 1.12817 30.3552 1.21754 30.7231Z" fill="#DCAB6E"/>
<path d="M14.7413 5.88623H0.848947L0.851556 11.7945C2.46707 11.8184 4.49734 12.0518 6.12754 12.2223C7.80194 12.3975 11.3898 12.3575 12.675 13.2341L12.799 13.5207C12.2886 14.7239 9.19141 14.9913 8.03704 15.2481C5.71334 15.7653 3.11666 16.0524 0.842224 16.7431L0.848536 25.5612C2.67198 25.723 9.99883 26.1676 11.1185 27.0177L11.2596 27.3246C10.9664 27.8868 10.1546 28.243 9.58668 28.3804C6.94539 29.0193 4.21256 29.608 1.56235 30.1907C1.40589 30.5268 1.42442 30.3552 1.51184 30.7231C1.77453 31.2051 1.82847 31.5885 2.23279 31.5885C8.21301 31.5885 14.7669 31.7124 14.7669 31.7124" stroke="black" stroke-width="1.68359"/>
<path d="M14.2277 5.88623H90.186V31.7013H14.2277V5.88623Z" fill="#DCAB6E"/>
<path d="M14.2277 5.88623V6.72803H90.186V5.88623V5.04444H14.2277V5.88623ZM90.186 31.7013V30.8595H14.2277V31.7013V32.5431H90.186V31.7013Z" fill="black"/>
<path d="M26.0173 15.2306C26.6758 15.2306 27.2535 15.3593 27.7503 15.6167C28.2531 15.8741 28.6392 16.2423 28.9086 16.7211C29.184 17.194 29.3217 17.7448 29.3217 18.3733C29.3217 19.0018 29.184 19.5526 28.9086 20.0255C28.6392 20.4924 28.2531 20.8545 27.7503 21.1119C27.2535 21.3693 26.6758 21.498 26.0173 21.498H23.8264V15.2306H26.0173ZM25.9724 20.4295C26.6309 20.4295 27.1397 20.2499 27.4989 19.8908C27.858 19.5316 28.0376 19.0258 28.0376 18.3733C28.0376 17.7208 27.858 17.212 27.4989 16.8468C27.1397 16.4757 26.6309 16.2901 25.9724 16.2901H25.0835V20.4295H25.9724ZM32.4266 21.5609C31.9896 21.5609 31.5945 21.4861 31.2414 21.3364C30.8942 21.1868 30.6188 20.9713 30.4153 20.6899C30.2118 20.4086 30.107 20.0763 30.101 19.6932H31.4479C31.4658 19.9506 31.5556 20.1542 31.7173 20.3038C31.8849 20.4535 32.1123 20.5283 32.3997 20.5283C32.693 20.5283 32.9235 20.4595 33.0911 20.3218C33.2587 20.1781 33.3425 19.9925 33.3425 19.7651C33.3425 19.5795 33.2856 19.4269 33.1719 19.3071C33.0581 19.1874 32.9145 19.0946 32.7409 19.0288C32.5733 18.9569 32.3398 18.8791 32.0405 18.7953C31.6335 18.6756 31.3012 18.5589 31.0438 18.4451C30.7924 18.3254 30.5739 18.1488 30.3883 17.9154C30.2088 17.6759 30.119 17.3587 30.119 16.9636C30.119 16.5924 30.2118 16.2692 30.3973 15.9938C30.5829 15.7185 30.8433 15.509 31.1785 15.3653C31.5137 15.2156 31.8968 15.1408 32.3278 15.1408C32.9743 15.1408 33.4981 15.2994 33.8992 15.6167C34.3062 15.928 34.5307 16.365 34.5726 16.9277H33.1898C33.1779 16.7122 33.0851 16.5356 32.9115 16.3979C32.7439 16.2542 32.5194 16.1824 32.2381 16.1824C31.9926 16.1824 31.7951 16.2452 31.6454 16.371C31.5018 16.4967 31.4299 16.6792 31.4299 16.9187C31.4299 17.0863 31.4838 17.227 31.5916 17.3407C31.7053 17.4484 31.843 17.5382 32.0046 17.6101C32.1722 17.6759 32.4057 17.7537 32.705 17.8435C33.112 17.9633 33.4442 18.083 33.7017 18.2027C33.9591 18.3224 34.1805 18.502 34.3661 18.7414C34.5517 18.9809 34.6445 19.2952 34.6445 19.6843C34.6445 20.0195 34.5577 20.3308 34.3841 20.6181C34.2105 20.9054 33.9561 21.1359 33.6208 21.3095C33.2856 21.4771 32.8875 21.5609 32.4266 21.5609ZM42.2377 17.1162C42.0941 16.8528 41.8965 16.6523 41.6451 16.5146C41.3937 16.3769 41.1004 16.3081 40.7652 16.3081C40.394 16.3081 40.0648 16.3919 39.7775 16.5595C39.4901 16.7271 39.2656 16.9666 39.104 17.2778C38.9424 17.5891 38.8616 17.9483 38.8616 18.3553C38.8616 18.7744 38.9424 19.1395 39.104 19.4508C39.2716 19.7621 39.5021 20.0015 39.7954 20.1691C40.0887 20.3367 40.4299 20.4205 40.819 20.4205C41.2979 20.4205 41.69 20.2948 41.9953 20.0434C42.3006 19.786 42.5011 19.4298 42.5969 18.9749H40.4419V18.0141H43.836V19.1096C43.7522 19.5466 43.5726 19.9506 43.2973 20.3218C43.0219 20.6929 42.6657 20.9922 42.2288 21.2197C41.7978 21.4412 41.3129 21.5519 40.7741 21.5519C40.1695 21.5519 39.6218 21.4172 39.131 21.1479C38.6461 20.8725 38.263 20.4924 37.9816 20.0075C37.7063 19.5226 37.5686 18.9719 37.5686 18.3553C37.5686 17.7388 37.7063 17.1881 37.9816 16.7032C38.263 16.2123 38.6461 15.8322 39.131 15.5628C39.6218 15.2875 40.1665 15.1498 40.7652 15.1498C41.4715 15.1498 42.0851 15.3234 42.6059 15.6706C43.1267 16.0118 43.4858 16.4937 43.6834 17.1162H42.2377ZM49.4622 16.5236V21.498H48.1961V20.8695C48.0345 21.085 47.822 21.2556 47.5586 21.3813C47.3012 21.501 47.0198 21.5609 46.7145 21.5609C46.3254 21.5609 45.9812 21.4801 45.6819 21.3185C45.3826 21.1509 45.1462 20.9084 44.9726 20.5912C44.805 20.2679 44.7212 19.8848 44.7212 19.4418V16.5236H45.9783V19.2622C45.9783 19.6573 46.077 19.9626 46.2746 20.1781C46.4721 20.3876 46.7415 20.4924 47.0827 20.4924C47.4299 20.4924 47.7023 20.3876 47.8998 20.1781C48.0973 19.9626 48.1961 19.6573 48.1961 19.2622V16.5236H49.4622ZM50.3792 18.9929C50.3792 18.49 50.478 18.0441 50.6755 17.655C50.8791 17.2659 51.1514 16.9666 51.4926 16.7571C51.8398 16.5475 52.2259 16.4428 52.651 16.4428C53.0221 16.4428 53.3453 16.5176 53.6207 16.6673C53.9021 16.8169 54.1265 17.0055 54.2941 17.233V16.5236H55.5602V21.498H54.2941V20.7707C54.1325 21.0042 53.908 21.1987 53.6207 21.3544C53.3394 21.504 53.0131 21.5789 52.642 21.5789C52.223 21.5789 51.8398 21.4711 51.4926 21.2556C51.1514 21.0401 50.8791 20.7378 50.6755 20.3487C50.478 19.9536 50.3792 19.5017 50.3792 18.9929ZM54.2941 19.0108C54.2941 18.7055 54.2343 18.4451 54.1146 18.2296C53.9948 18.0082 53.8332 17.8405 53.6297 17.7268C53.4262 17.6071 53.2077 17.5472 52.9742 17.5472C52.7407 17.5472 52.5252 17.6041 52.3277 17.7178C52.1302 17.8316 51.9685 17.9992 51.8428 18.2207C51.7231 18.4362 51.6633 18.6936 51.6633 18.9929C51.6633 19.2922 51.7231 19.5556 51.8428 19.783C51.9685 20.0045 52.1302 20.1751 52.3277 20.2948C52.5312 20.4146 52.7467 20.4744 52.9742 20.4744C53.2077 20.4744 53.4262 20.4176 53.6297 20.3038C53.8332 20.1841 53.9948 20.0165 54.1146 19.801C54.2343 19.5795 54.2941 19.3161 54.2941 19.0108ZM58.045 17.2958C58.2067 17.0324 58.4162 16.8259 58.6736 16.6762C58.937 16.5266 59.2363 16.4518 59.5715 16.4518V17.7717H59.2393C58.8442 17.7717 58.5449 17.8645 58.3414 18.0501C58.1438 18.2356 58.045 18.5589 58.045 19.0198V21.498H56.788V16.5236H58.045V17.2958ZM60.095 18.9929C60.095 18.49 60.1937 18.0441 60.3913 17.655C60.5948 17.2659 60.8702 16.9666 61.2173 16.7571C61.5645 16.5475 61.9506 16.4428 62.3757 16.4428C62.6989 16.4428 63.0072 16.5146 63.3005 16.6583C63.5938 16.796 63.8273 16.9815 64.0009 17.215V14.8535H65.2759V21.498H64.0009V20.7618C63.8452 21.0072 63.6268 21.2047 63.3454 21.3544C63.0641 21.504 62.7378 21.5789 62.3667 21.5789C61.9477 21.5789 61.5645 21.4711 61.2173 21.2556C60.8702 21.0401 60.5948 20.7378 60.3913 20.3487C60.1937 19.9536 60.095 19.5017 60.095 18.9929ZM64.0099 19.0108C64.0099 18.7055 63.95 18.4451 63.8303 18.2296C63.7106 18.0082 63.5489 17.8405 63.3454 17.7268C63.1419 17.6071 62.9234 17.5472 62.6899 17.5472C62.4565 17.5472 62.241 17.6041 62.0434 17.7178C61.8459 17.8316 61.6843 17.9992 61.5586 18.2207C61.4388 18.4362 61.379 18.6936 61.379 18.9929C61.379 19.2922 61.4388 19.5556 61.5586 19.783C61.6843 20.0045 61.8459 20.1751 62.0434 20.2948C62.247 20.4146 62.4625 20.4744 62.6899 20.4744C62.9234 20.4744 63.1419 20.4176 63.3454 20.3038C63.5489 20.1841 63.7106 20.0165 63.8303 19.801C63.95 19.5795 64.0099 19.3161 64.0099 19.0108ZM67.1412 15.931C66.9197 15.931 66.7341 15.8621 66.5845 15.7245C66.4408 15.5808 66.369 15.4042 66.369 15.1947C66.369 14.9852 66.4408 14.8116 66.5845 14.6739C66.7341 14.5302 66.9197 14.4584 67.1412 14.4584C67.3627 14.4584 67.5453 14.5302 67.6889 14.6739C67.8386 14.8116 67.9134 14.9852 67.9134 15.1947C67.9134 15.4042 67.8386 15.5808 67.6889 15.7245C67.5453 15.8621 67.3627 15.931 67.1412 15.931ZM67.7608 16.5236V21.498H66.5037V16.5236H67.7608ZM68.6795 18.9929C68.6795 18.49 68.7783 18.0441 68.9758 17.655C69.1794 17.2659 69.4517 16.9666 69.7929 16.7571C70.1401 16.5475 70.5262 16.4428 70.9512 16.4428C71.3224 16.4428 71.6456 16.5176 71.921 16.6673C72.2023 16.8169 72.4268 17.0055 72.5944 17.233V16.5236H73.8605V21.498H72.5944V20.7707C72.4328 21.0042 72.2083 21.1987 71.921 21.3544C71.6396 21.504 71.3134 21.5789 70.9423 21.5789C70.5232 21.5789 70.1401 21.4711 69.7929 21.2556C69.4517 21.0401 69.1794 20.7378 68.9758 20.3487C68.7783 19.9536 68.6795 19.5017 68.6795 18.9929ZM72.5944 19.0108C72.5944 18.7055 72.5346 18.4451 72.4148 18.2296C72.2951 18.0082 72.1335 17.8405 71.93 17.7268C71.7264 17.6071 71.5079 17.5472 71.2745 17.5472C71.041 17.5472 70.8255 17.6041 70.628 17.7178C70.4304 17.8316 70.2688 17.9992 70.1431 18.2207C70.0234 18.4362 69.9635 18.6936 69.9635 18.9929C69.9635 19.2922 70.0234 19.5556 70.1431 19.783C70.2688 20.0045 70.4304 20.1751 70.628 20.2948C70.8315 20.4146 71.047 20.4744 71.2745 20.4744C71.5079 20.4744 71.7264 20.4176 71.93 20.3038C72.1335 20.1841 72.2951 20.0165 72.4148 19.801C72.5346 19.5795 72.5944 19.0108ZM77.8448 16.4518C78.4375 16.4518 78.9164 16.6403 79.2815 17.0175C79.6467 17.3886 79.8292 17.9094 79.8292 18.5798V21.498H78.5722V18.7504C78.5722 18.3553 78.4734 18.053 78.2758 17.8435C78.0783 17.628 77.8089 17.5203 77.4677 17.5203C77.1205 17.5203 76.8452 17.628 76.6416 17.8435C76.4441 18.053 76.3453 18.3553 76.3453 18.7504V21.498H75.0882V16.5236H76.3453V17.1432C76.5129 16.9277 76.7254 16.76 76.9828 16.6403C77.2462 16.5146 77.5336 16.4518 77.8448 16.4518Z" fill="black"/>
<path d="M99.5277 5.89351C95.9108 5.88577 91.1972 5.88603 89.9332 5.88635V31.6772H94.3766L103.805 31.2559C103.349 27.5542 102.548 24.4853 102.057 20.8274C100.915 20.6097 99.7199 20.415 98.5919 20.1583C97.6603 19.9465 95.2738 19.7802 95.4099 18.4961C95.9767 17.6493 100.738 15.4204 101.83 14.9747C101.252 12.5824 100.33 7.91217 99.5277 5.89351Z" fill="#DCAB6E"/>
<path d="M89.9332 5.88635C91.1972 5.88603 95.9108 5.88577 99.5277 5.89351C100.33 7.91217 101.252 12.5824 101.83 14.9747C100.738 15.4204 95.9767 17.6493 95.4099 18.4961C95.2738 19.7802 97.6603 19.9465 98.5919 20.1583C99.7199 20.415 100.915 20.6097 102.057 20.8274C102.548 24.4853 103.349 27.5542 103.805 31.2559L94.3766 31.6772H89.9332" stroke="black" stroke-width="1.68359"/>
</svg>
