<svg width="52" height="58" viewBox="0 0 52 58" fill="none" xmlns="http://www.w3.org/2000/svg">
<path d="M8.67683 29.9243C8.6806 31.7973 4.01048 38.8018 3.09692 40.4705C3.09692 44.0863 3.88631 44.9628 5.75402 46.9445C12.9409 54.5701 25.2028 55.9999 34.2422 55.9999C61.7219 55.9999 45.1601 27.8751 28.463 22.6643C20.605 20.2117 18.1278 22.8411 15.541 24.2857C12.9188 25.75 10.7592 27.7148 8.67683 29.9243Z" fill="#AFBCCF"/>
<path d="M31.4836 42.7155C27.1714 40.0241 21.304 39.9338 16.5374 38.9565C13.7089 38.3765 10.604 36.6071 7.76899 36.6071C5.0889 36.6071 7.8733 30.7769 8.67683 29.9243C10.7592 27.7148 12.9188 25.75 15.541 24.2857C18.1278 22.8411 20.605 20.2117 28.463 22.6643C45.1601 27.8751 61.7219 55.9999 34.2422 55.9999C25.2028 55.9999 12.9409 54.5701 5.75402 46.9445C3.88631 44.9628 3.09692 44.0863 3.09692 40.4705C3.09692 36.8546 6.02373 36.6071 7.17114 36.6071" stroke="#1A1A1A" stroke-width="1.5" stroke-linecap="round"/>
<circle cx="15.1864" cy="33.3097" r="0.958166" transform="rotate(10 15.1864 33.3097)" fill="#1A1A1A"/>
<circle cx="24.7679" cy="35.2257" r="0.958166" transform="rotate(10 24.7679 35.2257)" fill="#1A1A1A"/>
<path fill-rule="evenodd" clip-rule="evenodd" d="M23.6118 17.364C17.8649 17.3383 14.17 14.0034 12.3969 11.2895C11.8483 10.4499 12.2031 9.3535 13.0968 8.8983C20.9896 4.87837 24.8022 8.97575 26.3058 13.3575C27.8093 8.97575 31.622 4.87837 39.5148 8.8983C40.4085 9.3535 40.7633 10.4499 40.2147 11.2895C38.278 14.2537 34.0488 17.9587 27.3572 17.2836L27.5247 22.1603C27.5541 23.017 26.8676 23.7275 26.0104 23.7275C25.2756 23.7275 24.6467 23.2003 24.5184 22.4769L23.6118 17.364Z" fill="#14AE5C"/>
<path d="M23.6118 17.364L24.3503 17.233C24.287 16.8762 23.9776 16.6156 23.6152 16.614L23.6118 17.364ZM12.3969 11.2895L13.0247 10.8793H13.0247L12.3969 11.2895ZM13.0968 8.8983L12.7564 8.22999H12.7564L13.0968 8.8983ZM26.3058 13.3575L25.5964 13.6009C25.7004 13.904 25.9854 14.1075 26.3058 14.1075C26.6262 14.1075 26.9112 13.904 27.0152 13.6009L26.3058 13.3575ZM39.5148 8.8983L39.1744 9.56661V9.56661L39.5148 8.8983ZM40.2147 11.2895L39.5868 10.8793V10.8793L40.2147 11.2895ZM27.3572 17.2836L27.4325 16.5374C27.2171 16.5156 27.0028 16.588 26.8448 16.736C26.6867 16.8839 26.6002 17.0929 26.6077 17.3093L27.3572 17.2836ZM27.5247 22.1603L28.2742 22.1346V22.1346L27.5247 22.1603ZM24.5184 22.4769L23.78 22.6078L24.5184 22.4769ZM23.6118 17.364L23.6152 16.614C18.1893 16.5898 14.7026 13.4473 13.0247 10.8793L12.3969 11.2895L11.769 11.6997C13.6374 14.5595 17.5405 18.0869 23.6085 18.114L23.6118 17.364ZM12.3969 11.2895L13.0247 10.8793C12.7469 10.454 12.8961 9.84221 13.4372 9.56661L13.0968 8.8983L12.7564 8.22999C11.51 8.86478 10.9497 10.4457 11.769 11.6997L12.3969 11.2895ZM13.0968 8.8983L13.4372 9.56661C17.2488 7.62526 19.9135 7.71894 21.7604 8.64737C23.642 9.59324 24.8767 11.5037 25.5964 13.6009L26.3058 13.3575L27.0152 13.1141C26.2313 10.8296 24.8079 8.50046 22.4341 7.30718C20.0256 6.09645 16.8375 6.15141 12.7564 8.22999L13.0968 8.8983ZM39.5148 8.8983L39.8551 8.22999C35.774 6.15141 32.5859 6.09645 30.1775 7.30718C27.8037 8.50046 26.3803 10.8296 25.5964 13.1141L26.3058 13.3575L27.0152 13.6009C27.7348 11.5037 28.9695 9.59324 30.8512 8.64737C32.6981 7.71894 35.3627 7.62526 39.1744 9.56661L39.5148 8.8983ZM40.2147 11.2895L40.8425 11.6997C41.6619 10.4457 41.1015 8.86478 39.8551 8.22999L39.5148 8.8983L39.1744 9.56661C39.7155 9.84221 39.8646 10.454 39.5868 10.8793L40.2147 11.2895ZM27.3572 17.2836L27.2819 18.0298C34.3295 18.7409 38.8004 14.8254 40.8425 11.6997L40.2147 11.2895L39.5868 10.8793C37.7557 13.682 33.768 17.1766 27.4325 16.5374L27.3572 17.2836ZM27.5247 22.1603L28.2742 22.1346L28.1068 17.2578L27.3572 17.2836L26.6077 17.3093L26.7751 22.1861L27.5247 22.1603ZM26.0104 23.7275V24.4775C27.2919 24.4775 28.3182 23.4153 28.2742 22.1346L27.5247 22.1603L26.7751 22.186C26.79 22.6187 26.4433 22.9775 26.0104 22.9775V23.7275ZM24.5184 22.4769L23.78 22.6078C23.9717 23.6894 24.9119 24.4775 26.0104 24.4775V23.7275V22.9775C25.6393 22.9775 25.3217 22.7113 25.2569 22.3459L24.5184 22.4769ZM23.6118 17.364L22.8733 17.4949L23.78 22.6078L24.5184 22.4769L25.2569 22.3459L24.3503 17.233L23.6118 17.364Z" fill="#1A1A1A"/>
<path d="M29.2842 13.4541C31.4424 11.919 33.8579 10.8848 35.7353 10.27C36.2505 10.1013 36.2144 9.36352 35.6723 9.35713C32.1482 9.3156 29.8774 11.1769 28.6574 12.9446C28.3633 13.3706 28.8624 13.7541 29.2842 13.4541Z" fill="#036838"/>
<path d="M22.3276 13.4541C20.1694 11.919 17.7539 10.8848 15.8765 10.27C15.3614 10.1013 15.3974 9.36352 15.9395 9.35713C19.4636 9.3156 21.7345 11.1769 22.9544 12.9446C23.2485 13.3706 22.7494 13.7541 22.3276 13.4541Z" fill="#036838"/>
</svg>
