<svg preserveAspectRatio="none" width="100%" height="100%" overflow="visible" style="display: block;" viewBox="0 0 14.7828 27.5096" fill="none" xmlns="http://www.w3.org/2000/svg">
<g id="Frame 30">
<path id="Vector" d="M1.21753 25.6787C1.48606 26.1606 1.5412 26.5441 1.95452 26.5441C14.7636 26.5441 14.7669 26.668 14.7669 26.668L14.7413 0.841795H0.53988L0.542548 6.75011C2.19401 6.77392 4.26945 7.00736 5.93593 7.17785C7.64758 7.35307 11.3153 7.31307 12.629 8.18962L12.7559 8.47626C12.2341 9.67946 9.06797 9.94688 7.88792 10.2037C5.51251 10.7209 2.85805 11.008 0.533008 11.6987L0.539461 20.5167C2.40348 20.6786 9.89335 21.1231 11.0379 21.9733L11.1821 22.2802C10.8825 22.8424 10.0526 23.1986 9.47203 23.3359C6.77197 23.9749 3.97833 24.5635 1.26916 25.1463C1.10921 25.4824 1.12816 25.3107 1.21753 25.6787Z" fill="var(--fill-0, #DCAB6E)"/>
<path id="Vector_2" d="M14.7413 0.841795H0.848965L0.851574 6.75011C2.46709 6.77392 4.49736 7.00736 6.12756 7.17785C7.80196 7.35307 11.3898 7.31307 12.675 8.18962L12.7991 8.47626C12.2886 9.67946 9.19143 9.94688 8.03706 10.2037C5.71336 10.7209 3.11667 11.008 0.842242 11.6987L0.848554 20.5167C2.672 20.6786 9.99885 21.1231 11.1185 21.9733L11.2596 22.2802C10.9664 22.8424 10.1546 23.1986 9.5867 23.3359C6.94541 23.9749 4.21258 24.5635 1.56237 25.1463C1.40591 25.4824 1.42444 25.3107 1.51186 25.6787C1.77455 26.1606 1.82849 26.5441 2.23281 26.5441C8.21303 26.5441 14.7669 26.668 14.7669 26.668" stroke="var(--stroke-0, black)" stroke-width="1.68359"/>
</g>
</svg>
