<svg preserveAspectRatio="none" width="100%" height="100%" overflow="visible" style="display: block;" viewBox="0 0 14.8192 27.4745" fill="none" xmlns="http://www.w3.org/2000/svg">
<g id="Frame 31">
<path id="Vector" d="M9.59471 0.849074C5.9778 0.841331 1.26423 0.841599 0.000211149 0.841916V26.6327H4.44357L13.8724 26.2115C13.4165 22.5097 12.6153 19.4409 12.1243 15.783C10.9823 15.5653 9.78691 15.3706 8.65891 15.1139C7.72732 14.9021 5.34082 14.7358 5.47691 13.4517C6.04372 12.6048 10.8055 10.376 11.897 9.93031C11.319 7.53797 10.3972 2.86773 9.59471 0.849074Z" fill="var(--fill-0, #DCAB6E)"/>
<path id="Vector_2" d="M0.000211149 0.841916C1.26423 0.841599 5.9778 0.841331 9.59471 0.849074C10.3972 2.86773 11.319 7.53797 11.897 9.93031C10.8055 10.376 6.04372 12.6048 5.47691 13.4517C5.34082 14.7358 7.72732 14.9021 8.65891 15.1139C9.78691 15.3706 10.9823 15.5653 12.1243 15.783C12.6153 19.4409 13.4165 22.5097 13.8724 26.2115L4.44357 26.6327H0.000211149" stroke="var(--stroke-0, black)" stroke-width="1.68359"/>
</g>
</svg>
