<svg width="48" height="55" viewBox="0 0 48 55" fill="none" xmlns="http://www.w3.org/2000/svg">
<path d="M29.9377 5.18576C26.1648 4.57576 17.5412 5.18578 13.7684 14.9428L11.6343 23.9547C13.2512 22.7357 17.0022 22.2608 20.236 22.2608C31.0156 22.2608 34.3391 24.0898 37.4833 24.0898C42.3341 11.8938 33.7105 5.79476 29.9377 5.18576Z" fill="#007BE5" stroke="#1A1A1A" stroke-width="1.5" stroke-linejoin="round"/>
<path fill-rule="evenodd" clip-rule="evenodd" d="M33.4146 23.0474C33.356 23.2021 33.2941 23.3562 33.229 23.5093L32.3081 23.1187C32.3679 22.9779 32.425 22.8354 32.479 22.6929L33.4146 23.0474ZM25.7632 21.645C25.7483 21.8078 25.7343 21.9712 25.7212 22.1343L24.7251 22.0542C24.7385 21.8873 24.7528 21.7198 24.7681 21.5532L25.7632 21.645ZM33.9731 21.144C33.9038 21.4664 33.8231 21.7871 33.73 22.105L32.77 21.8247C32.8561 21.5307 32.9311 21.2327 32.9956 20.9331L33.9731 21.144ZM17.2202 21.0493C17.2032 21.2071 17.188 21.3654 17.1753 21.5239L16.1782 21.4438C16.1917 21.2762 16.208 21.1088 16.2261 20.9419L17.2202 21.0493ZM25.9849 19.6919C25.9412 20.0158 25.9008 20.3415 25.8638 20.6675L24.8706 20.5542C24.9084 20.2213 24.949 19.8888 24.9937 19.5581L25.9849 19.6919ZM34.2583 19.1899C34.2318 19.5175 34.1951 19.8448 34.1479 20.1704L33.1587 20.0269C33.2028 19.7227 33.2363 19.4164 33.2612 19.1089L34.2583 19.1899ZM17.5298 19.1675C17.4608 19.4777 17.4008 19.7901 17.3491 20.104L16.3628 19.9419C16.4175 19.6097 16.4812 19.279 16.5542 18.9507L17.5298 19.1675ZM26.2876 17.7495C26.2307 18.0709 26.1771 18.3945 26.1265 18.7192L25.1382 18.5649C25.1899 18.2334 25.2451 17.9028 25.3032 17.5747L26.2876 17.7495ZM18.0464 17.3315C17.9434 17.6328 17.8492 17.937 17.7632 18.2427L16.8003 17.9722C16.8913 17.6486 16.9912 17.327 17.1001 17.0083L18.0464 17.3315ZM34.3042 17.2241C34.3144 17.5511 34.3164 17.8791 34.3091 18.2065L33.3091 18.1841C33.316 17.8753 33.3139 17.5652 33.3042 17.2554L34.3042 17.2241ZM26.6704 15.8198C26.6007 16.1382 26.5332 16.4596 26.4692 16.7827L25.4888 16.5884C25.554 16.2587 25.6217 15.9308 25.6929 15.606L26.6704 15.8198ZM18.7612 15.563C18.6258 15.8521 18.4983 16.1438 18.3794 16.438L17.4526 16.063C17.5782 15.7523 17.7121 15.4442 17.855 15.1392L18.7612 15.563ZM34.147 15.272C34.1881 15.5947 34.2221 15.9201 34.2485 16.2456L33.2515 16.3267C33.2263 16.017 33.194 15.7071 33.1548 15.3989L34.147 15.272ZM27.1294 13.9087C27.0469 14.2232 26.9673 14.5418 26.8901 14.8628L25.9175 14.6284C25.9963 14.3007 26.0784 13.976 26.1626 13.6548L27.1294 13.9087ZM19.6616 13.8794C19.4962 14.1532 19.3385 14.4299 19.189 14.7095L18.3071 14.2378C18.465 13.9428 18.6308 13.6505 18.8052 13.3618L19.6616 13.8794ZM33.8188 13.3481C33.8859 13.6646 33.9475 13.9846 34.0024 14.3062L33.0171 14.4751C32.9645 14.167 32.9057 13.8601 32.8413 13.5562L33.8188 13.3481ZM20.7319 12.2954C20.5393 12.5517 20.3538 12.8112 20.1763 13.0737L19.3481 12.5142C19.5351 12.2377 19.7305 11.9644 19.9331 11.6948L20.7319 12.2954ZM27.6675 12.0181C27.5721 12.3276 27.4797 12.6424 27.3892 12.9604L26.4272 12.686C26.5197 12.3613 26.6149 12.0405 26.7124 11.7241L27.6675 12.0181ZM33.3462 11.4604C33.4353 11.7695 33.5206 12.0831 33.6001 12.3999L32.6294 12.6431C32.5528 12.3379 32.4712 12.0351 32.3853 11.7368L33.3462 11.4604ZM21.9556 10.8218C21.7386 11.0592 21.5284 11.3004 21.3257 11.5444L20.5562 10.9058C20.7689 10.6496 20.9899 10.3969 21.2173 10.1479L21.9556 10.8218ZM28.2886 10.1548C28.1794 10.4584 28.0721 10.7687 27.9673 11.0835L27.019 10.7671C27.1263 10.445 27.2362 10.1281 27.3481 9.81689L28.2886 10.1548ZM32.7466 9.61182C32.8549 9.91226 32.9608 10.2191 33.062 10.5308L32.1108 10.8394C32.013 10.5381 31.9109 10.2414 31.8062 9.95068L32.7466 9.61182ZM23.312 9.46631C23.074 9.68374 22.8424 9.90507 22.6177 10.1294L21.9116 9.42236C22.1469 9.18745 22.3893 8.95539 22.6382 8.72803L23.312 9.46631ZM28.9995 8.32861C28.8753 8.62374 28.7528 8.92687 28.6323 9.23682L27.6997 8.87451C27.8234 8.55612 27.9497 8.24391 28.0776 7.93994L28.9995 8.32861ZM32.4028 8.70264L31.4731 9.0708C31.3556 8.77407 31.2353 8.48384 31.1138 8.20264L32.0317 7.80615C32.1573 8.09663 32.2815 8.39614 32.4028 8.70264ZM24.7837 8.23389C24.5278 8.43071 24.2781 8.63155 24.0347 8.83545L23.3921 8.06885C23.6464 7.85588 23.9074 7.64619 24.1743 7.44092L24.7837 8.23389ZM26.353 7.12354C26.0822 7.29972 25.8164 7.47924 25.5571 7.6626L24.98 6.84619C25.2501 6.65521 25.5264 6.46791 25.8081 6.28467L26.353 7.12354ZM29.814 6.55225C29.6722 6.8353 29.531 7.12959 29.3921 7.43311L28.4829 7.01611C28.6264 6.70265 28.7723 6.39883 28.9194 6.10498L29.814 6.55225ZM31.2046 6.04834C31.3469 6.32697 31.4909 6.61845 31.6333 6.92139L30.728 7.34717C30.5904 7.05427 30.4522 6.77217 30.3149 6.50342L31.2046 6.04834ZM28.0063 6.1333C27.7225 6.28955 27.4436 6.44931 27.1704 6.61279L26.6567 5.75537C26.9403 5.58567 27.2297 5.4193 27.5239 5.25732L28.0063 6.1333ZM30.7466 5.18896L30.4614 5.34717C30.3962 5.45969 30.331 5.5746 30.2661 5.69189L30.0542 5.57471L29.8735 5.67627C29.817 5.5749 29.7593 5.47649 29.7036 5.38037L29.3911 5.20752C29.4744 5.05714 29.558 4.90977 29.6421 4.76611L30.0737 5.01904L30.5054 4.76611C30.5848 4.90191 30.6654 5.04348 30.7466 5.18896ZM29.2915 5.46924C29.1461 5.53976 29.0018 5.61175 28.8589 5.68408L28.4067 4.7915C28.5549 4.71653 28.7053 4.6419 28.856 4.56885L29.2915 5.46924Z" fill="#80CAFF"/>
<path fill-rule="evenodd" clip-rule="evenodd" d="M29.7759 2.25115L31.1451 2.43767C32.0847 2.56568 32.7657 3.43404 32.6656 4.37713C32.6318 4.69353 32.5121 4.97648 32.3355 5.21013C34.1249 6.07852 36.1182 7.63523 37.5738 9.88591C39.737 13.2311 40.6878 18.0624 38.1802 24.3674L38.1304 24.4699C37.9973 24.6969 37.7517 24.84 37.4829 24.84C36.6201 24.84 35.5586 24.6747 34.3706 24.4562C33.1534 24.2324 31.8025 23.9532 30.2486 23.6867C27.1685 23.1584 23.4387 22.7109 19.2105 23.0099C18.1225 23.0868 16.6777 23.1746 15.3023 23.3918C13.892 23.6145 12.7121 23.9525 12.066 24.4396L11.9673 24.5021C11.7282 24.6295 11.4343 24.619 11.2027 24.467C10.9383 24.2931 10.812 23.9718 10.8863 23.6642L13.0386 14.7668C13.0463 14.735 13.0571 14.7036 13.0689 14.673C15.0311 9.59849 18.2816 6.85779 21.563 5.48552C23.8258 4.53936 26.0843 4.25141 27.9204 4.27166C27.8834 4.09663 27.8724 3.91371 27.8921 3.72771C27.9925 2.78465 28.8361 2.12338 29.7759 2.25115ZM29.8179 5.92693C28.0379 5.63913 25.0852 5.63869 22.1421 6.86931C19.2343 8.08524 16.2957 10.5173 14.4839 15.172L12.7193 22.4601C13.4586 22.2061 14.279 22.0351 15.0689 21.9103C16.5226 21.6808 18.0414 21.588 19.105 21.5129C23.5002 21.202 27.361 21.6695 30.5015 22.2082C32.0577 22.4751 33.4752 22.7672 34.6411 22.9816C35.5702 23.1525 36.3438 23.2735 36.9751 23.3195C39.0747 17.6805 38.14 13.5241 36.314 10.7004C34.4004 7.74156 31.4811 6.19546 29.8179 5.92693Z" fill="#1A1A1A"/>
<path d="M12.9207 14.2228C9.60512 15.8538 8.59106 19.0118 11.5902 24.0788C12.9207 23.4688 16.7422 22.4168 19.6748 22.2498C23.7647 22.0158 26.1425 22.2498 30.9932 22.8598C27.686 12.8878 16.2362 12.5908 12.9207 14.2228Z" fill="#034AC1"/>
<path d="M16.6567 12.7318C18.3223 12.6839 20.2487 12.8885 22.1772 13.4721C26.046 14.6428 29.9587 17.3564 31.7056 22.6234C31.7866 22.8678 31.7362 23.1374 31.5728 23.3363C31.4093 23.535 31.1552 23.6359 30.8999 23.6039L30.9937 22.8598H30.9927L30.8999 23.6039C26.0628 22.9956 23.7382 22.7684 19.7173 22.9984C18.3122 23.0785 16.6716 23.3729 15.2085 23.7269C13.7368 24.083 12.503 24.485 11.9028 24.7601C11.5538 24.9201 11.1404 24.7907 10.9448 24.4603C9.40289 21.8552 8.81019 19.6091 9.14892 17.7289C9.49531 15.8067 10.781 14.4399 12.5894 13.5502C13.551 13.0769 15.0073 12.7793 16.6567 12.7318ZM16.6997 14.2308C15.1665 14.275 13.9476 14.5532 13.2515 14.8959C11.7448 15.6371 10.8653 16.6646 10.6255 17.9955C10.3973 19.2624 10.7219 20.9485 11.9175 23.1351C12.675 22.8547 13.719 22.5438 14.855 22.2689C16.3682 21.9028 18.1049 21.5883 19.6323 21.5014C23.4225 21.2845 25.7781 21.4655 29.8481 21.9623C28.1379 17.996 24.9605 15.8814 21.7427 14.9076C19.981 14.3745 18.2168 14.1871 16.6997 14.2308Z" fill="#1A1A1A"/>
</svg>
