<svg width="48" height="55" viewBox="0 0 48 55" fill="none" xmlns="http://www.w3.org/2000/svg">
<path d="M17.6994 4.6944C17.1501 5.9547 16.7615 8.3067 16.5747 9.864C16.5307 10.2312 16.7012 10.5889 17.009 10.7941L22.5019 14.4561C22.7925 14.6498 23.1631 14.6779 23.4795 14.5303L30.7305 11.1465C30.935 11.051 31.1085 10.8915 31.1737 10.6755C31.6365 9.1423 30.686 6.5423 29.8696 4.8498C29.637 4.3675 29.0711 4.2241 28.687 4.5971C27.7211 5.5348 26.3162 7.2825 25.425 8.4477C25.2338 8.6977 24.9383 8.8454 24.6236 8.8454H22.7128C22.2362 8.8454 21.8335 8.5043 21.6569 8.0615C21.0706 6.5919 19.7646 5.276 18.7824 4.4864C18.4109 4.1877 17.8898 4.2574 17.6994 4.6944Z" fill="#CB0B96"/>
<path d="M19.4516 23.5367C14.7476 20.7927 13.5516 12.4892 13.5098 7.63601C13.5041 6.97021 14.1623 6.51841 14.7569 6.81811C17.8428 8.37371 19.5117 11.3929 19.9901 13.3066C18.8553 8.01111 22.0664 4.54241 24.4457 2.68191C24.9251 2.30711 25.6204 2.48681 25.8438 3.05291C27.4413 7.10041 26.9462 11.5348 26.4512 13.845C27.8671 9.95121 31.077 8.45741 33.2717 7.74981C33.8993 7.54741 34.5278 8.03741 34.5135 8.69661C34.3175 17.7341 32.1052 22.3371 30.2202 23.5367C25.9128 25.6904 20.708 24.4341 19.4516 23.5367Z" fill="#FF99E0"/>
<path fill-rule="evenodd" clip-rule="evenodd" d="M23.9837 2.09114C24.8468 1.41636 26.1288 1.73226 26.5414 2.77769C26.837 3.52674 27.0642 4.28693 27.2351 5.04403C27.564 4.67327 27.8809 4.33447 28.1644 4.05926C28.5359 3.69848 29.0314 3.56515 29.5007 3.67146C29.9591 3.77531 30.3372 4.09344 30.545 4.52416C30.9542 5.37245 31.4015 6.45205 31.6996 7.53255C32.1743 7.33137 32.628 7.1694 33.0415 7.03608C34.184 6.66765 35.2882 7.56387 35.2633 8.71296C35.1641 13.2857 34.5545 16.7742 33.7114 19.2939C32.8791 21.7815 31.7827 23.4314 30.6228 24.1695L30.5902 24.1903L30.5556 24.2076C28.2453 25.3627 25.721 25.5929 23.6329 25.4286C22.5854 25.3463 21.6327 25.1636 20.8514 24.9391C20.1057 24.7248 19.4629 24.4573 19.0457 24.1682C16.4598 22.6448 14.9193 19.6629 14.013 16.5895C13.0955 13.4784 12.7811 10.116 12.7598 7.64255C12.7498 6.47654 13.945 5.56904 15.0945 6.14848C15.5207 6.36335 15.9216 6.60373 16.2977 6.86393C16.4897 5.93928 16.728 5.04587 17.0117 4.39498C17.2098 3.94034 17.6011 3.65254 18.0449 3.57572C18.4743 3.50138 18.9122 3.62876 19.2522 3.90207C19.7266 4.28349 20.2894 4.79427 20.8216 5.39775C21.7847 3.97869 22.9738 2.88081 23.9837 2.09114ZM20.02 6.77621C19.4982 6.11717 18.8837 5.5339 18.3437 5.09647C18.055 5.80472 17.808 6.87385 17.6174 7.94478C18.1943 8.49901 18.69 9.0956 19.1082 9.69908C19.2657 8.62739 19.5913 7.65379 20.02 6.77621ZM30.3264 8.20934C30.3107 8.14573 30.2941 8.08143 30.2767 8.01647C30.2618 7.96084 30.2465 7.90511 30.2306 7.84932C29.9636 6.90811 29.5669 5.94906 29.194 5.17586C29.1909 5.1695 29.1878 5.16395 29.1849 5.1592C28.7158 5.61791 28.1333 6.28049 27.5577 6.97305C27.691 8.15765 27.707 9.30325 27.6556 10.3518C28.477 9.42568 29.4073 8.73373 30.3264 8.20934ZM24.9076 3.27285C25.0033 3.19804 25.1119 3.24153 25.1461 3.32831C26.6642 7.17451 26.2003 11.4362 25.7178 13.688L27.156 14.1014C28.453 10.5345 31.3861 9.14584 33.5019 8.46369C33.6145 8.42737 33.7673 8.51114 33.7636 8.68043C33.6668 13.1451 33.0722 16.4769 32.2889 18.818C31.506 21.158 30.5692 22.4073 29.8481 22.8842C27.8603 23.8672 25.6441 24.0822 23.7505 23.9333C22.8014 23.8586 21.9481 23.6935 21.2656 23.4974C20.5655 23.2962 20.0997 23.078 19.8876 22.9265L19.8594 22.9064L19.8295 22.889C17.7283 21.6633 16.3266 19.1319 15.4517 16.1653C14.5848 13.2254 14.2803 10.0094 14.2598 7.62964C14.2591 7.5541 14.293 7.50994 14.3241 7.4892C14.34 7.47861 14.3542 7.47473 14.3651 7.47394C14.3737 7.4733 14.3909 7.47362 14.4193 7.48792C17.2671 8.9235 18.8239 11.7344 19.2624 13.4886L20.7234 13.1496C19.6813 8.28663 22.5987 5.07832 24.9076 3.27285Z" fill="#1A1A1A"/>
</svg>
