<svg width="48" height="55" viewBox="0 0 48 55" fill="none" xmlns="http://www.w3.org/2000/svg">
<path d="M14.1845 23.2141C18.5259 24.5601 22.0872 24.2361 23.9315 24.2361C25.7134 24.2361 31.058 23.4531 33.1852 22.2981C33.5004 22.1271 33.6376 21.7641 33.559 21.4141C32.3726 16.1331 26.897 12.4471 22.8082 12.8471C19.0394 13.2151 13.8968 16.1081 13.527 22.2781C13.5015 22.7041 13.7769 23.0881 14.1845 23.2141Z" fill="#4D49FC" stroke="#385ED9" stroke-width="1.5" stroke-linecap="round"/>
<path d="M14.2042 23.2909C16.9887 24.1479 17.6956 24.1289 19.4387 24.1289C19.8876 19.3559 20.4852 16.5989 22.9513 12.8169C19.3114 13.1569 13.9571 16.6149 13.5327 22.3409C13.5006 22.7739 13.7884 23.1629 14.2042 23.2909Z" fill="#F24822"/>
<path d="M33.1759 22.0319C31.3968 23.0939 29.3368 23.6629 27.2691 23.6629C26.6943 19.2439 25.7261 16.7799 23.251 12.8169C26.8812 13.1709 32.7274 17.1079 33.5873 21.1299C33.6636 21.4869 33.4895 21.8439 33.1759 22.0319Z" fill="#FFCD29"/>
<path d="M22.7422 11.7768C25.0397 11.5526 27.6934 12.5728 29.8926 14.271C32.1042 15.9788 33.9711 18.4592 34.6211 21.3188C34.765 21.952 34.5233 22.6736 33.876 23.0268L33.875 23.0278L33.6416 23.1479C32.4248 23.7435 30.5093 24.2404 28.7256 24.5932C26.8094 24.9722 24.8978 25.2123 23.9317 25.2124C22.1986 25.2124 18.6692 25.5234 14.3799 24.2817L13.9629 24.1567H13.9619C13.2386 23.9313 12.7319 23.2443 12.7783 22.4604C13.1736 15.8109 18.6826 12.1742 22.7422 11.7768ZM22.8887 13.27C19.4095 13.6106 14.6183 16.7808 14.2754 22.5493C14.2715 22.6167 14.3152 22.6949 14.4053 22.7241H14.4063C18.612 24.027 22.032 23.7124 23.9317 23.7124C24.7492 23.7123 26.5462 23.495 28.4346 23.1215C30.3354 22.7456 32.1821 22.2389 33.1563 21.7104L33.1573 21.7094C33.1603 21.7019 33.1651 21.6812 33.1582 21.6508C32.602 19.2038 30.9771 17.0041 28.9756 15.4585C26.9616 13.9033 24.6804 13.0953 22.8887 13.27Z" fill="#1A1A1A"/>
<path d="M23.3848 13.5366C21.3821 16.1177 20.2665 19.4635 19.9092 23.813L18.9131 23.731C19.2807 19.2566 20.437 15.7042 22.5947 12.9233L23.3848 13.5366Z" fill="#BD2915"/>
<path d="M23.3853 12.6631C25.5205 15.4151 27.2129 19.2958 27.7202 23.3809L26.728 23.5039C26.2428 19.5973 24.6192 15.8862 22.5942 13.2764L23.3853 12.6631Z" fill="#EBA611"/>
<path fill-rule="evenodd" clip-rule="evenodd" d="M26.404 6.81787C26.5293 6.81787 26.6371 6.84867 26.6755 6.85986C26.7349 6.8772 26.7957 6.89914 26.8542 6.92432C26.9655 6.97223 27.1146 7.05051 27.2507 7.1665C27.3702 7.26837 27.5972 7.50043 27.6238 7.86572C27.6537 8.27987 27.4128 8.57136 27.2048 8.73291L27.0613 8.83838C26.7177 9.07518 26.328 9.24676 25.9782 9.38135C25.7744 9.45978 25.57 9.53084 25.3825 9.59521C25.1903 9.66122 25.02 9.71953 24.864 9.77783H24.862L24.6013 9.07471L24.5544 8.95068L24.862 9.77783C24.6666 9.85042 24.3756 9.95794 24.0671 10.0181C23.9181 10.0471 23.7416 10.068 23.5525 10.064C23.6416 10.1613 23.7082 10.2816 23.7361 10.4204C23.887 11.1759 23.865 11.9182 23.865 12.5688C23.865 12.9831 23.5292 13.3188 23.115 13.3188C22.7008 13.3188 22.365 12.983 22.365 12.5688C22.365 11.8517 22.3801 11.2896 22.2654 10.7153C22.2425 10.601 22.2498 10.4882 22.2771 10.3823H19.5906C19.3776 10.3823 18.9859 10.3366 18.6384 10.272C18.4587 10.2386 18.2653 10.1962 18.0935 10.1431C18.0077 10.1166 17.9141 10.0835 17.8249 10.0425C17.7457 10.0061 17.6207 9.94087 17.5075 9.8335H17.5066C17.3345 9.66976 17.2747 9.47248 17.2575 9.33154C17.2415 9.19939 17.2581 9.08678 17.2722 9.01904C17.2999 8.88638 17.352 8.763 17.3796 8.69873C17.4203 8.60406 17.4314 8.58327 17.4509 8.53564C17.5059 8.17858 17.7844 8.00673 17.865 7.96338C17.9824 7.90027 18.0979 7.8732 18.1599 7.86084C18.2976 7.83345 18.4549 7.8237 18.5945 7.81982C18.8866 7.81171 19.2607 7.82665 19.6277 7.85107C19.9989 7.87579 20.3832 7.91143 20.7009 7.94971C20.982 7.98357 21.3022 8.02931 21.4822 8.08936C21.7333 8.17322 21.9452 8.29894 22.0993 8.39502C22.2768 8.50562 22.3654 8.5665 22.4695 8.61865C22.4895 8.62868 22.5084 8.6403 22.5271 8.65186C22.5847 8.56972 22.6454 8.49607 22.7048 8.43213C22.9072 8.21435 23.155 8.03158 23.3874 7.88525C23.8514 7.59316 24.3689 7.37628 24.6745 7.27783H24.6755C24.7845 7.24296 24.8917 7.20227 25.0105 7.15576C25.1232 7.11162 25.2591 7.05691 25.3933 7.00928C25.6726 6.91014 26.0055 6.81795 26.404 6.81787Z" fill="#444444"/>
</svg>
