<svg width="48" height="55" viewBox="0 0 48 55" fill="none" xmlns="http://www.w3.org/2000/svg">
<path d="M32.5 29C35.3 28.6 36 25.5 36 24C36 26.4 38.4716 28 39.7074 28.5C37.0733 28.9 36.8049 31.667 37 33C36.7271 31.135 34.1667 29.5 32.5 29Z" fill="#FFE8A3"/>
<path d="M35.2501 24C35.2501 23.5858 35.5859 23.25 36.0001 23.25C36.4143 23.25 36.7501 23.5858 36.7501 24C36.7501 24.9271 37.2263 25.7466 37.9171 26.4287C38.6082 27.1109 39.4471 27.5856 39.9884 27.8047C40.3016 27.9314 40.4917 28.2524 40.4523 28.5879C40.4127 28.9231 40.1541 29.1904 39.8204 29.2412L39.6359 29.2754C38.7443 29.468 38.2593 30.0182 37.9865 30.6846C37.7172 31.3424 37.6679 32.1001 37.716 32.6631L37.7423 32.8916L37.7492 32.9678C37.766 33.3476 37.4928 33.686 37.1085 33.7422C36.6988 33.802 36.3179 33.5182 36.2579 33.1084C36.1628 32.4586 35.6355 31.7372 34.8048 31.0742C33.9946 30.4276 33.0227 29.9403 32.2843 29.7188C31.9473 29.6176 31.726 29.2952 31.7521 28.9443C31.7784 28.5934 32.0453 28.3078 32.3937 28.2578C33.4897 28.1012 34.1868 27.4295 34.6339 26.5674C35.0915 25.6849 35.2501 24.6592 35.2501 24ZM36.2042 26.7373C36.1328 26.9123 36.0546 27.0869 35.966 27.2578C35.6195 27.9259 35.1232 28.5641 34.4415 29.0342C34.8876 29.2843 35.3315 29.576 35.7404 29.9023C35.9832 30.0962 36.2233 30.3087 36.4484 30.5391C36.4917 30.3971 36.5416 30.2558 36.5988 30.1162C36.8683 29.4581 37.304 28.8368 37.9542 28.3887C37.586 28.1361 37.2107 27.839 36.8634 27.4961C36.6322 27.2678 36.4084 27.0143 36.2042 26.7373Z" fill="#FFC21A"/>
<path d="M40.5 23.5C42.5 22.5 42.6667 20.333 42.5 19C42.9 21.4 44.6667 23 45.5 23.5C44 24.5 43.7144 25.5 43.3216 26.5C42.5 25 41.3811 24.167 40.5 23.5Z" fill="#FFE8A3"/>
<path d="M42.3919 18.2579C42.7958 18.199 43.1734 18.4744 43.2405 18.8771C43.5934 20.9937 45.1747 22.4297 45.886 22.8566C46.1065 22.9888 46.2441 23.2255 46.2503 23.4825C46.2563 23.7395 46.1301 23.9816 45.9163 24.1241C45.2515 24.5673 44.8824 24.9904 44.634 25.3937C44.3711 25.8206 44.2318 26.2348 44.0198 26.7745C43.9133 27.0453 43.6598 27.2297 43.3694 27.2482C43.1153 27.2643 42.8732 27.1509 42.7229 26.9513L42.6643 26.8605L42.5227 26.6154C41.8029 25.4223 40.8743 24.7239 40.0471 24.0978C39.8406 23.9412 39.7293 23.6888 39.7532 23.4308C39.7771 23.1727 39.9334 22.9452 40.1653 22.8292C41.7117 22.0558 41.9135 20.3513 41.7561 19.0929C41.7056 18.688 41.9881 18.3169 42.3919 18.2579ZM42.9016 21.9445C42.6676 22.5216 42.309 23.0766 41.7737 23.5441C42.2278 23.9184 42.7142 24.3676 43.1721 24.9357C43.2292 24.8264 43.2904 24.7159 43.3577 24.6066C43.5875 24.2335 43.8779 23.8674 44.2678 23.5099C43.8231 23.1176 43.3351 22.5913 42.9016 21.9445Z" fill="#FFC21A"/>
<path d="M34.5 17.5C36.2833 16.7 36.757 14.833 36.7709 14C37.1709 15.6 38.2709 16.667 38.7709 17C37.5709 17.8 37.2709 19.333 37.2709 20C36.8709 18.8 35.257 17.833 34.5 17.5Z" fill="#FFE8A3"/>
<path d="M36.6856 13.2549C37.0595 13.2121 37.4068 13.4533 37.4981 13.8184C37.8004 15.0277 38.5763 15.8853 39.0195 16.25L39.1865 16.376L39.2607 16.4326C39.4246 16.574 39.5205 16.7806 39.5205 17C39.5205 17.2508 39.3952 17.485 39.1865 17.6241C38.7494 17.9156 38.4547 18.356 38.2676 18.8272C38.0791 19.3021 38.0205 19.7576 38.0205 20C38.0205 20.3679 37.7537 20.6813 37.3906 20.7403C37.073 20.7916 36.7635 20.6351 36.6133 20.3614L36.5596 20.2373L36.499 20.0879C36.3342 19.7373 35.9982 19.3651 35.5537 19.0137C35.0614 18.6244 34.5254 18.3305 34.1982 18.1866C33.927 18.0672 33.7512 17.7993 33.75 17.503C33.7489 17.2065 33.9229 16.9368 34.1934 16.8155C35.6024 16.1831 36.0101 14.671 36.0215 13.9873L36.0361 13.8496C36.0999 13.537 36.3584 13.2924 36.6856 13.2549ZM36.9385 16.1534C36.7016 16.606 36.3788 17.0557 35.9434 17.4463C36.123 17.5652 36.3058 17.6957 36.4844 17.8369C36.6236 17.947 36.7658 18.0675 36.9053 18.1983C37.0708 17.801 37.306 17.3846 37.6357 17.0088C37.407 16.7738 37.1665 16.4872 36.9385 16.1534Z" fill="#FFC21A"/>
</svg>
