<svg width="48" height="55" viewBox="0 0 48 55" fill="none" xmlns="http://www.w3.org/2000/svg">
<path d="M8.91016 23.22L9.34446 17.177L16.6972 17.653L18.5041 1L35.4718 2.90503L32.4541 18.606H39.3208L38.5418 24.789L8.91016 23.22Z" fill="#2C2C2C"/>
<path d="M17.3161 15L17 17.857L32.2709 18.81L32.8365 15.952L17.3161 15Z" fill="#DC3412"/>
<path d="M18.8448 0.2547L35.8126 2.15997L35.8897 2.17267C36.0663 2.21147 36.2238 2.31289 36.3321 2.45978C36.4561 2.62795 36.5051 2.8405 36.4659 3.04572L33.6446 17.8162L40.0577 18.0164C40.2767 18.0232 40.482 18.125 40.6192 18.2957C40.7565 18.4664 40.812 18.6888 40.7716 18.9041L39.6583 24.8279L38.921 24.6893V24.6902L39.6583 24.8279C39.5978 25.1497 39.338 25.3903 39.0235 25.4334L38.8858 25.4393L8.96397 24.0086C8.75596 23.9986 8.56122 23.9031 8.42686 23.744C8.2925 23.5848 8.23092 23.3765 8.25596 23.1697L9.03721 16.741L9.78135 16.8318V16.8309L9.03721 16.741C9.08048 16.3859 9.36595 16.1179 9.70908 16.0848L9.8585 16.0858L16.461 16.7645L18.0147 0.926575L18.044 0.78009C18.0875 0.638408 18.1723 0.511464 18.2892 0.416809C18.4452 0.290528 18.6454 0.232306 18.8448 0.2547ZM17.881 17.6619C17.8615 17.8605 17.764 18.0435 17.6095 18.1697C17.455 18.296 17.2562 18.3552 17.0577 18.3348L10.4366 17.6531L9.84092 22.5486L38.3038 23.909L39.1349 19.4881L32.7208 19.2899L32.6388 19.282C32.4507 19.2554 32.2783 19.1584 32.1583 19.0086C32.0212 18.8374 31.9658 18.6147 32.0069 18.3992L34.8399 3.55939L19.4337 1.82892L17.881 17.6619Z" fill="#1A1A1A"/>
</svg>
