<svg width="48" height="55" viewBox="0 0 48 55" fill="none" xmlns="http://www.w3.org/2000/svg">
<path d="M39.9413 12.7797C41.3001 13.0297 42.2042 14.3297 41.9603 15.6897C41.8447 16.3297 41.7644 16.7997 41.7123 17.1497C42.0627 17.2297 42.5276 17.3098 43.1717 17.4298C44.5305 17.6698 45.4346 18.9697 45.1907 20.3297C45.0467 21.1297 44.5336 21.7697 43.8593 22.1197C44.3725 22.6697 44.6306 23.4497 44.4866 24.2497C44.2426 25.6097 42.9431 26.5197 41.5842 26.2697C40.9401 26.1597 40.4741 26.0797 40.1197 26.0197C40.0452 26.3697 39.9585 26.8397 39.8428 27.4797C39.5989 28.8397 38.2993 29.7497 36.9405 29.4997C36.2437 29.3797 35.6679 28.9698 35.3038 28.4298C34.7728 28.8098 34.0938 28.9897 33.3975 28.8697C32.0385 28.6197 31.1346 27.3197 31.3785 25.9597C31.4941 25.3197 31.5744 24.8497 31.6265 24.4997C31.2761 24.4297 30.8111 24.3397 30.1671 24.2197C28.8081 23.9797 27.9042 22.6797 28.1481 21.3197C28.292 20.5197 28.8037 19.8797 29.4778 19.5297C28.9652 18.9797 28.7083 18.1997 28.8522 17.3997C29.0961 16.0397 30.3955 15.1297 31.7545 15.3797C32.3986 15.4897 32.8648 15.5697 33.2191 15.6297C33.2935 15.2797 33.3803 14.8098 33.496 14.1698C33.7399 12.8098 35.0393 11.8997 36.3983 12.1497C37.0944 12.2697 37.6691 12.6797 38.0332 13.2197C38.5644 12.8397 39.2447 12.6597 39.9413 12.7797Z" fill="white"/>
<path d="M34.7613 14.6899C34.8588 14.1499 35.3786 13.79 35.9222 13.88C36.4658 13.98 36.8274 14.5 36.7298 15.04C36.5575 16 36.4149 16.81 36.2345 17.42C36.0561 18.02 35.784 18.64 35.206 19.05C34.6281 19.45 33.9479 19.4899 33.3219 19.4399C32.6886 19.3999 31.8853 19.2499 30.9251 19.0799C30.3815 18.9799 30.0199 18.46 30.1175 17.92C30.2151 17.38 30.7348 17.02 31.2784 17.11C32.2868 17.29 32.9599 17.4099 33.456 17.4499C33.9593 17.4799 34.0615 17.41 34.064 17.4C34.0666 17.4 34.173 17.33 34.3165 16.85C34.4578 16.37 34.5803 15.6999 34.7613 14.6899Z" fill="#DC3412"/>
<path d="M40.2728 15.6796C40.3703 15.1396 40.0088 14.6196 39.4652 14.5196C38.9216 14.4196 38.4018 14.7795 38.3042 15.3295C38.1319 16.2895 37.9859 17.0896 37.9435 17.7196C37.9015 18.3496 37.9394 19.0296 38.3415 19.6096C38.7435 20.1896 39.3681 20.4596 39.9696 20.6396C40.5781 20.8196 41.3821 20.9596 42.3422 21.1296C42.8858 21.2296 43.4056 20.8695 43.5032 20.3195C43.6007 19.7795 43.2392 19.2596 42.6956 19.1596C41.6872 18.9796 41.0147 18.8596 40.5381 18.7196C40.0544 18.5696 39.9831 18.4696 39.9831 18.4696C39.9813 18.4596 39.9057 18.3596 39.9395 17.8596C39.9727 17.3596 40.0918 16.6896 40.2728 15.6796Z" fill="#DC3412"/>
<path d="M32.6438 26.4901C32.5462 27.0301 32.9078 27.5501 33.4514 27.6501C33.995 27.7501 34.5147 27.38 34.6123 26.84C34.7847 25.88 34.9306 25.08 34.9731 24.44C35.0151 23.82 34.9771 23.1401 34.5751 22.5601C34.173 21.9801 33.5485 21.7101 32.947 21.5301C32.3384 21.3501 31.5345 21.2101 30.5743 21.0401C30.0307 20.9401 29.511 21.3 29.4134 21.84C29.3158 22.39 29.6774 22.9101 30.221 23.0001C31.2293 23.1901 31.9019 23.31 32.3785 23.45C32.8621 23.59 32.9334 23.7 32.9334 23.7C32.9334 23.7 33.0108 23.8101 32.9771 24.3101C32.9438 24.8101 32.8248 25.4801 32.6438 26.4901Z" fill="#DC3412"/>
<path d="M38.1554 27.4797C38.0578 28.0197 37.538 28.3798 36.9944 28.2798C36.4508 28.1898 36.0893 27.6698 36.1868 27.1198C36.3592 26.1598 36.5017 25.3598 36.6822 24.7498C36.8605 24.1498 37.1327 23.5198 37.7106 23.1198C38.2886 22.7198 38.9688 22.6797 39.5947 22.7197C40.2281 22.7697 41.0314 22.9097 41.9916 23.0897C42.5352 23.1797 42.8967 23.6998 42.7992 24.2498C42.7016 24.7898 42.1818 25.1498 41.6382 25.0498C40.6299 24.8698 39.9567 24.7497 39.4607 24.7197C38.9574 24.6897 38.8551 24.7598 38.8526 24.7598C38.8501 24.7698 38.7436 24.8397 38.6002 25.3197C38.4589 25.7997 38.3364 26.4697 38.1554 27.4797Z" fill="#DC3412"/>
</svg>
