<svg width="48" height="55" viewBox="0 0 48 55" fill="none" xmlns="http://www.w3.org/2000/svg">
<path d="M21.1317 6.95286C25.2146 10.8619 24.9197 16.2449 24.2621 20.8539C24.1304 21.7769 23.179 22.5529 22.2467 22.5509C21.0283 22.5479 20.4711 21.4248 20.5402 20.2088C20.6269 18.6808 20.6079 17.0249 20.5749 15.4999C20.337 11.6029 19.9376 10.1899 19.4658 9.60685C18.9155 8.92785 17.8104 8.76987 17.0255 9.15587C16.231 9.54587 16.0056 10.4669 16.0618 11.1059C16.0708 11.2079 16.1078 11.3089 16.1533 11.4009C18.9194 16.9619 13.0719 17.1709 11.6999 15.0799C10.2603 13.2749 11.8774 11.7389 13.0976 11.0619C13.5377 10.8169 13.8529 10.3429 13.8475 9.83989C13.821 7.38589 15.0277 6.17184 16.3907 5.63884C18.0301 4.99884 19.8605 5.73486 21.1317 6.95286Z" fill="#B3EE71"/>
<path d="M16.1182 4.93983C18.1367 4.15198 20.2662 5.0856 21.6495 6.41053C26.0302 10.6046 25.6618 16.3553 25.005 20.9594C24.9079 21.6394 24.5191 22.222 24.0352 22.6254C23.6118 22.9784 23.0709 23.2316 22.4942 23.2885L22.2452 23.3012L22.0831 23.2953C21.285 23.2449 20.6701 22.8366 20.2833 22.2445C19.8902 21.6429 19.7501 20.8876 19.7911 20.1664C19.8754 18.6797 19.8588 17.0603 19.8262 15.5453C19.7081 13.6108 19.552 12.3242 19.3741 11.4623C19.1932 10.586 19.0048 10.2292 18.8829 10.0785L19.4659 9.60682L20.0489 9.13417C20.3987 9.56647 20.6467 10.2086 20.8428 11.1586C21.0171 12.0025 21.1625 13.156 21.2764 14.7455L21.3253 15.4838C21.3583 17.0103 21.3776 18.6917 21.2891 20.2514C21.261 20.7458 21.3655 21.1597 21.5382 21.4242C21.6914 21.6588 21.907 21.7992 22.2481 21.8002C22.5114 21.8007 22.8165 21.6878 23.0743 21.473C23.3321 21.2581 23.4849 20.9903 23.5196 20.7474C24.1573 16.2778 24.3837 11.4313 20.9561 7.83827L20.6134 7.49452L20.3917 7.29335C19.2638 6.32075 17.8443 5.87521 16.6632 6.33631C16.0924 6.55958 15.5828 6.91458 15.2149 7.44569C14.8488 7.97436 14.5859 8.733 14.5977 9.83143C14.6065 10.6485 14.1069 11.3586 13.463 11.7172C12.914 12.0217 12.3415 12.488 12.0606 13.0053C11.9271 13.2513 11.8683 13.4908 11.8868 13.7279C11.9051 13.9627 12.004 14.2578 12.2862 14.6117L11.6934 15.0834L12.3272 14.6683C12.5392 14.9913 12.977 15.2884 13.5587 15.4447C14.1336 15.5992 14.7429 15.5854 15.2139 15.4076C15.6599 15.2392 15.9718 14.934 16.087 14.4437C16.2115 13.9133 16.1335 13.0454 15.4815 11.7348V11.7328C15.4148 11.5979 15.3349 11.4022 15.3145 11.1713C15.2452 10.3819 15.5029 9.06816 16.6944 8.4828L16.8956 8.39491C17.9242 7.99395 19.2925 8.20088 20.0489 9.13417L18.8829 10.0785C18.5889 9.71636 17.8817 9.57027 17.3565 9.8285L17.2843 9.86952C16.9396 10.0876 16.7718 10.5725 16.8077 11.0267C16.8101 11.034 16.8148 11.0474 16.8243 11.0668C17.5552 12.5363 17.7846 13.78 17.5479 14.7875C17.3018 15.8348 16.5846 16.4943 15.7432 16.8119C14.9268 17.12 13.9897 17.1135 13.169 16.893C12.3685 16.6778 11.5757 16.2277 11.0987 15.5258C10.6718 14.9838 10.4364 14.4186 10.3917 13.8441C10.3466 13.2646 10.4991 12.7386 10.7423 12.2904C11.2151 11.4193 12.0623 10.778 12.7335 10.4057C12.969 10.2742 13.0997 10.0366 13.0977 9.84803C13.0831 8.49271 13.4103 7.41722 13.9815 6.59217C14.551 5.76974 15.3262 5.24954 16.1182 4.93983ZM12.3077 14.639L12.3272 14.6683L11.7003 15.0795L12.2862 14.6117L12.3077 14.639Z" fill="#1A1A1A"/>
<path d="M13.7268 14.7689C14.7068 14.0669 14.8684 13.4109 14.8954 12.8309C14.9036 12.6549 15.1073 12.5709 15.2204 12.7059C16.485 14.2109 15.6743 15.4569 13.7901 15.1259C13.6176 15.0959 13.5845 14.8709 13.7268 14.7689Z" fill="#78B136"/>
</svg>
