<svg width="48" height="55" viewBox="0 0 48 55" fill="none" xmlns="http://www.w3.org/2000/svg">
<path d="M29.9372 5.18576C26.1643 4.57576 17.5407 5.18578 13.7679 14.9428L11.6338 23.9547C13.2507 22.7357 17.0017 22.2608 20.2355 22.2608C31.0151 22.2608 34.3386 24.0898 37.4828 24.0898C42.3336 11.8938 33.71 5.79476 29.9372 5.18576Z" fill="#CFBFA8"/>
<path d="M33.4141 23.0474C33.3555 23.2021 33.2936 23.3562 33.2285 23.5093L32.3076 23.1187C32.3674 22.9779 32.4245 22.8354 32.4785 22.6929L33.4141 23.0474ZM25.7617 21.645C25.7468 21.8078 25.7328 21.9712 25.7197 22.1343L24.7236 22.0542C24.737 21.8873 24.7514 21.7198 24.7666 21.5532L25.7617 21.645ZM33.9727 21.144C33.9033 21.4664 33.8226 21.7871 33.7295 22.105L32.7695 21.8247C32.8556 21.5307 32.9306 21.2327 32.9951 20.9331L33.9727 21.144ZM17.2197 21.0493C17.2027 21.2071 17.1875 21.3654 17.1748 21.5239L16.1787 21.4438C16.1922 21.2763 16.2075 21.1087 16.2256 20.9419L17.2197 21.0493ZM25.9834 19.6919C25.9397 20.0158 25.8993 20.3416 25.8623 20.6675L24.8691 20.5542C24.9069 20.2213 24.9476 19.8888 24.9922 19.5581L25.9834 19.6919ZM34.2578 19.1899C34.2313 19.5175 34.1947 19.8448 34.1475 20.1704L33.1582 20.0269C33.2023 19.7227 33.2358 19.4164 33.2607 19.1089L34.2578 19.1899ZM17.5293 19.1675C17.4604 19.4777 17.4003 19.7902 17.3486 20.104L16.3623 19.9419C16.417 19.6098 16.4808 19.2789 16.5537 18.9507L17.5293 19.1675ZM26.2861 17.7495C26.2292 18.0709 26.1757 18.3946 26.125 18.7192L25.1367 18.5649C25.1885 18.2334 25.2437 17.9027 25.3018 17.5747L26.2861 17.7495ZM18.0459 17.3315C17.9429 17.6328 17.8487 17.937 17.7627 18.2427L16.7998 17.9722C16.8908 17.6487 16.9907 17.327 17.0996 17.0083L18.0459 17.3315ZM34.3037 17.2241C34.314 17.5511 34.3159 17.8791 34.3086 18.2065L33.3086 18.1841C33.3155 17.8753 33.3134 17.5652 33.3037 17.2554L34.3037 17.2241ZM26.6689 15.8198C26.5992 16.1381 26.5317 16.4596 26.4678 16.7827L25.4873 16.5884C25.5526 16.2587 25.6203 15.9307 25.6914 15.606L26.6689 15.8198ZM18.7607 15.563C18.6254 15.852 18.4978 16.1439 18.3789 16.438L17.4521 16.063C17.5777 15.7524 17.7116 15.4441 17.8545 15.1392L18.7607 15.563ZM34.1465 15.272C34.1876 15.5947 34.2216 15.9201 34.248 16.2456L33.251 16.3267C33.2259 16.017 33.1936 15.7071 33.1543 15.3989L34.1465 15.272ZM27.1279 13.9087C27.0455 14.2232 26.9658 14.5419 26.8887 14.8628L25.916 14.6284C25.9948 14.3008 26.0769 13.976 26.1611 13.6548L27.1279 13.9087ZM19.6611 13.8794C19.4957 14.1532 19.338 14.43 19.1885 14.7095L18.3066 14.2378C18.4644 13.9428 18.6303 13.6504 18.8047 13.3618L19.6611 13.8794ZM33.8184 13.3481C33.8854 13.6646 33.947 13.9846 34.002 14.3062L33.0166 14.4751C32.964 14.167 32.9052 13.8602 32.8408 13.5562L33.8184 13.3481ZM20.7314 12.2954C20.5388 12.5517 20.3533 12.8112 20.1758 13.0737L19.3477 12.5142C19.5346 12.2377 19.73 11.9644 19.9326 11.6948L20.7314 12.2954ZM27.666 12.0181C27.5706 12.3276 27.4782 12.6425 27.3877 12.9604L26.4258 12.686C26.5182 12.3614 26.6135 12.0404 26.7109 11.7241L27.666 12.0181ZM33.3457 11.4604C33.4348 11.7695 33.5201 12.0831 33.5996 12.3999L32.6289 12.6431C32.5524 12.3379 32.4707 12.0351 32.3848 11.7368L33.3457 11.4604ZM21.9551 10.8218C21.7382 11.0592 21.5278 11.3004 21.3252 11.5444L20.5557 10.9058C20.7684 10.6496 20.9894 10.3968 21.2168 10.1479L21.9551 10.8218ZM28.2871 10.1548C28.1779 10.4583 28.0706 10.7688 27.9658 11.0835L27.0176 10.7671C27.1248 10.4451 27.2348 10.128 27.3467 9.81689L28.2871 10.1548ZM32.7461 9.61182C32.8544 9.91228 32.9603 10.2191 33.0615 10.5308L32.1104 10.8394C32.0126 10.5381 31.9104 10.2414 31.8057 9.95068L32.7461 9.61182ZM23.3115 9.46631C23.0735 9.68374 22.8419 9.90506 22.6172 10.1294L21.9111 9.42236C22.1464 9.18745 22.3888 8.95539 22.6377 8.72803L23.3115 9.46631ZM28.998 8.32861C28.8739 8.62364 28.7513 8.92698 28.6309 9.23682L27.6982 8.87451C27.8219 8.55623 27.9483 8.24381 28.0762 7.93994L28.998 8.32861ZM32.4023 8.70264L31.4727 9.0708C31.3551 8.77406 31.2348 8.48385 31.1133 8.20264L32.0312 7.80615C32.1568 8.09664 32.281 8.39613 32.4023 8.70264ZM24.7832 8.23389C24.5273 8.43072 24.2777 8.63153 24.0342 8.83545L23.3916 8.06885C23.6459 7.85586 23.9069 7.6462 24.1738 7.44092L24.7832 8.23389ZM26.3525 7.12354C26.0817 7.29974 25.816 7.47921 25.5566 7.6626L24.9795 6.84619C25.2496 6.65519 25.5259 6.46794 25.8076 6.28467L26.3525 7.12354ZM29.8125 6.55225C29.6708 6.8352 29.5295 7.12971 29.3906 7.43311L28.4814 7.01611C28.6248 6.70277 28.7709 6.39872 28.918 6.10498L29.8125 6.55225ZM31.2041 6.04834C31.3465 6.32699 31.4904 6.61843 31.6328 6.92139L30.7275 7.34717C30.5899 7.05425 30.4518 6.77219 30.3145 6.50342L31.2041 6.04834ZM28.0059 6.1333C27.722 6.28958 27.4431 6.44928 27.1699 6.61279L26.6562 5.75537C26.9398 5.58564 27.2292 5.41933 27.5234 5.25732L28.0059 6.1333ZM30.7461 5.18896L30.46 5.34814C30.3949 5.46032 30.3294 5.57498 30.2646 5.69189L30.0537 5.57471L29.873 5.67627C29.8167 5.57529 29.7596 5.47712 29.7041 5.38135L29.3896 5.20752C29.4728 5.05726 29.5566 4.90967 29.6406 4.76611L30.0723 5.01904L30.5049 4.76611C30.5843 4.90193 30.6649 5.04346 30.7461 5.18896ZM29.291 5.46924C29.1455 5.53979 29.0014 5.61172 28.8584 5.68408L28.4062 4.7915C28.5545 4.7165 28.7047 4.64193 28.8555 4.56885L29.291 5.46924Z" fill="#A7977E"/>
<path fill-rule="evenodd" clip-rule="evenodd" d="M29.775 2.25062L31.1441 2.43714C32.0839 2.56504 32.7648 3.43343 32.6646 4.3766C32.631 4.6929 32.5121 4.97599 32.3355 5.2096C34.1249 6.07802 36.1184 7.63483 37.5738 9.88539C39.737 13.2306 40.6879 18.0619 38.1803 24.3668L38.1305 24.4694C37.9974 24.6965 37.7517 24.8393 37.483 24.8395C36.6202 24.8395 35.5585 24.6741 34.3707 24.4557C33.1536 24.2319 31.8024 23.9527 30.2486 23.6862C27.1687 23.1579 23.4386 22.7104 19.2105 23.0094C18.1227 23.0863 16.6777 23.1741 15.3023 23.3912C13.8921 23.6139 12.7122 23.952 12.066 24.4391L11.9674 24.5016C11.7283 24.6291 11.4344 24.6184 11.2027 24.4664C10.9383 24.2925 10.8119 23.9714 10.8863 23.6637L13.0387 14.7662C13.0464 14.7343 13.0571 14.7031 13.0689 14.6725C15.0312 9.59788 18.2816 6.85724 21.5631 5.48499C23.8259 4.53885 26.0844 4.25083 27.9205 4.27113C27.8835 4.09609 27.8715 3.91319 27.8912 3.72718C27.9915 2.78422 28.8353 2.12304 29.775 2.25062ZM29.818 5.9264C28.038 5.63861 25.0852 5.63829 22.1422 6.86878C19.2343 8.08469 16.2958 10.5167 14.484 15.1715L12.7193 22.4596C13.4586 22.2056 14.2791 22.0345 15.0689 21.9098C16.5226 21.6803 18.0415 21.5875 19.1051 21.5123C23.5001 21.2015 27.3611 21.669 30.5016 22.2077C32.0576 22.4746 33.4753 22.7667 34.6412 22.9811C35.5701 23.1519 36.344 23.273 36.9752 23.319C39.0747 17.6801 38.1401 13.5236 36.3141 10.6998C34.4007 7.74128 31.4812 6.19512 29.818 5.9264Z" fill="#1A1A1A"/>
<path d="M12.9202 14.2228C9.60463 15.8538 8.59057 19.0118 11.5897 24.0788C12.9202 23.4688 16.7417 22.4168 19.6743 22.2498C23.7642 22.0158 26.142 22.2498 30.9927 22.8598C27.6855 12.8878 16.2357 12.5908 12.9202 14.2228Z" fill="#C4B091"/>
<path d="M16.6562 12.7318C18.3218 12.6839 20.2482 12.8885 22.1768 13.4721C26.0455 14.6428 29.9583 17.3564 31.7051 22.6234C31.7861 22.8678 31.7357 23.1374 31.5723 23.3363C31.4088 23.535 31.1547 23.6359 30.8994 23.6039L30.9932 22.8598H30.9922L30.8994 23.6039C26.0623 22.9956 23.7377 22.7684 19.7168 22.9984C18.3117 23.0785 16.6711 23.3729 15.208 23.7269C13.7363 24.083 12.5025 24.485 11.9023 24.7601C11.5534 24.9201 11.1399 24.7907 10.9443 24.4603C9.4024 21.8552 8.8097 19.6091 9.14844 17.7289C9.49482 15.8067 10.7805 14.4399 12.5889 13.5502C13.5505 13.0769 15.0068 12.7793 16.6562 12.7318ZM16.6992 14.2308C15.166 14.275 13.9471 14.5532 13.251 14.8959C11.7443 15.6371 10.8648 16.6646 10.625 17.9955C10.3969 19.2624 10.7214 20.9485 11.917 23.1351C12.6745 22.8547 13.7185 22.5438 14.8545 22.2689C16.3677 21.9028 18.1044 21.5883 19.6318 21.5014C23.422 21.2845 25.7776 21.4655 29.8477 21.9623C28.1374 17.996 24.96 15.8814 21.7422 14.9076C19.9805 14.3745 18.2163 14.1871 16.6992 14.2308Z" fill="#1A1A1A"/>
</svg>
