<svg width="48" height="55" viewBox="0 0 48 55" fill="none" xmlns="http://www.w3.org/2000/svg">
<circle cx="21.8517" cy="5.53723" r="5.52258" fill="url(#paint0_radial_53542_4775)"/>
<path d="M21.25 10.1592V8C21.25 7.58579 21.5858 7.25 22 7.25C22.4142 7.25 22.75 7.58579 22.75 8V10.1592C22.7499 10.5733 22.4142 10.9092 22 10.9092C21.5858 10.9092 21.2501 10.5733 21.25 10.1592Z" fill="#E8CD7D"/>
<path d="M17.716 21.623C17.216 21.123 16.716 10.6231 17.1913 10.5271C17.6667 10.4311 25.716 9.71905 26.216 10.123C26.716 10.527 26.716 21.346 26.216 22.123C25.716 22.9 20.988 22.763 17.716 21.623Z" fill="#FFF1C2"/>
<path d="M24.6515 9.25174C25.0751 9.24592 25.4569 9.25105 25.7569 9.27225C25.9055 9.28275 26.0523 9.29864 26.1817 9.32401C26.2575 9.33886 26.4431 9.3753 26.6153 9.4871L26.6876 9.53983L26.7882 9.63651C26.8751 9.73477 26.9223 9.83282 26.9444 9.88163C26.9821 9.96477 27.0091 10.049 27.0284 10.1209C27.0675 10.2661 27.098 10.4384 27.1231 10.6189C27.1741 10.9846 27.2145 11.4666 27.2462 12.0154C27.3098 13.1179 27.3409 14.5485 27.3409 15.9832C27.3409 17.4181 27.3097 18.8705 27.2462 20.0183C27.2145 20.5908 27.1742 21.0987 27.1241 21.4949C27.0992 21.6918 27.0708 21.8738 27.0362 22.0281C27.0081 22.1535 26.9564 22.3587 26.8468 22.5291C26.65 22.8346 26.3309 22.9893 26.1036 23.074C25.8497 23.1686 25.5518 23.2318 25.2403 23.2752C24.6137 23.3624 23.8236 23.3817 22.9698 23.3406C21.2625 23.2584 19.1887 22.9297 17.4698 22.3308L17.3067 22.2742L17.1856 22.1531C17.0748 22.0422 17.0142 21.92 16.9854 21.8562C16.951 21.78 16.9244 21.7014 16.9034 21.6307C16.8612 21.4885 16.8245 21.319 16.7921 21.1394C16.7266 20.7772 16.666 20.3044 16.6104 19.7693C16.4988 18.6947 16.4034 17.3172 16.339 15.9588C16.2745 14.6008 16.2406 13.2474 16.253 12.2215C16.2592 11.712 16.2762 11.265 16.3106 10.9334C16.3273 10.7725 16.3514 10.6069 16.3897 10.4656C16.4079 10.3986 16.4393 10.296 16.4981 10.1932C16.5401 10.1197 16.6994 9.8612 17.0431 9.79178L17.2559 9.76053C17.5482 9.72399 18.0634 9.67258 18.6651 9.61893C19.4995 9.54454 20.5718 9.45865 21.6456 9.38846C22.7171 9.31843 23.7999 9.26345 24.6515 9.25174ZM24.672 10.7517C23.8589 10.7629 22.8059 10.8161 21.7433 10.8855C20.6828 10.9548 19.6221 11.0396 18.7979 11.1131C18.3968 11.1488 18.0533 11.1818 17.794 11.2088C17.7731 11.4654 17.7572 11.8148 17.752 12.24C17.7401 13.2253 17.7734 14.5462 17.837 15.8875C17.9006 17.2285 17.9948 18.5763 18.1026 19.614C18.1567 20.1348 18.213 20.5649 18.2686 20.8728C18.2789 20.9298 18.2886 20.9806 18.2979 21.0252C19.7869 21.4976 21.5556 21.771 23.0421 21.8426C23.8412 21.881 24.5308 21.8597 25.0333 21.7898C25.2855 21.7547 25.465 21.7107 25.5782 21.6687C25.5964 21.581 25.6163 21.4608 25.6358 21.3064C25.6795 20.9607 25.7173 20.4926 25.7481 19.9353C25.8096 18.8236 25.8409 17.4005 25.8409 15.9832C25.8409 14.5655 25.8095 13.1663 25.7481 12.1023C25.7173 11.5681 25.6805 11.1323 25.6378 10.826C25.6349 10.8055 25.6308 10.786 25.628 10.7674C25.3921 10.7518 25.0674 10.7463 24.672 10.7517Z" fill="#E8CD7D"/>
<path d="M18.7148 15.3838C18.7148 15.1868 18.7111 14.9936 18.7051 14.8047C18.6869 14.8468 18.6684 14.889 18.6475 14.9287C18.6029 15.0131 18.5195 15.1537 18.3789 15.2705C18.2155 15.406 17.9341 15.5342 17.5996 15.4385C17.4119 15.3848 17.2808 15.2801 17.2139 15.2197C17.1385 15.1518 17.0769 15.0784 17.0312 15.0205C16.9434 14.9091 16.8522 14.7699 16.793 14.6826C16.7437 14.6101 16.7061 14.5615 16.6797 14.5273C16.4265 14.4069 16.25 14.1516 16.25 13.8525C16.2502 13.4385 16.5859 13.1025 17 13.1025C17.2292 13.1025 17.4051 13.1919 17.5088 13.2598C17.5339 13.2762 17.5557 13.2962 17.5781 13.3135C17.5963 13.2561 17.6274 13.1659 17.6758 13.0811C17.7505 12.9501 17.8697 12.7687 18.0352 12.6104C18.1938 12.4586 18.4788 12.25 18.873 12.25L19.0586 12.2637C19.242 12.292 19.4155 12.3642 19.5674 12.4814C19.758 12.6286 19.8687 12.8127 19.9346 12.9609C20.0527 13.2271 20.0921 13.5464 20.1113 13.667C20.2049 14.252 20.2148 14.852 20.2148 15.3838C20.2148 15.8609 20.2197 16.3027 20.2988 16.6172L20.3379 16.7441L20.5059 17.249C20.5591 17.4125 20.6092 17.5561 20.666 17.6836C20.669 17.6903 20.6728 17.6966 20.6758 17.7031C20.6685 17.5023 20.6502 17.2822 20.627 17.0586C20.5984 16.7842 20.5557 16.4413 20.5557 16.2178C20.5557 15.6781 20.5466 14.6855 20.5557 14.123C20.5683 13.3401 21.1564 12.7031 21.9834 12.7031L22.0752 12.708C22.2841 12.7287 22.4547 12.8144 22.542 12.8623C22.6676 12.9312 22.7857 13.0168 22.8857 13.0986C22.9871 13.1815 23.0871 13.2746 23.1719 13.3691C23.2376 13.4424 23.3608 13.5878 23.4287 13.7705L22.4561 14.1318L22.7256 14.0322L23.4287 13.7705L23.4297 13.7725C23.4592 13.8522 23.494 13.9318 23.5322 14.0215C23.5923 13.8433 23.6838 13.6049 23.8008 13.3789C23.8839 13.2183 23.9995 13.0254 24.1494 12.8623C24.2822 12.718 24.5608 12.4679 24.9727 12.4678L25.1035 12.4775C25.3941 12.5225 25.5835 12.7073 25.6465 12.7705C25.7521 12.8764 25.8411 13.0006 25.9102 13.1064C26.0511 13.3224 26.1955 13.5961 26.3193 13.835C26.452 14.0908 26.5642 14.3129 26.6641 14.4834C26.7022 14.5485 26.7313 14.5917 26.75 14.6182C27.0035 14.8058 27.1223 15.1385 27.0176 15.4541C26.887 15.8472 26.4624 16.0603 26.0693 15.9297C25.9142 15.8781 25.8047 15.7914 25.7451 15.7383C25.6798 15.68 25.6271 15.6184 25.5869 15.5674C25.5067 15.4657 25.4327 15.349 25.3701 15.2422C25.2448 15.0284 25.1072 14.7566 24.9873 14.5254C24.9791 14.5095 24.97 14.4941 24.9619 14.4785C24.9422 14.5356 24.9265 14.5815 24.9189 14.6094C24.9046 14.6619 24.779 15.1957 24.5996 15.6104C24.5524 15.7195 24.4936 15.8396 24.4219 15.9521C24.3557 16.056 24.2481 16.2031 24.0859 16.3174C23.9046 16.4451 23.6169 16.5524 23.2871 16.4512C22.9992 16.3627 22.8243 16.1564 22.7285 16.0127C22.5995 15.8192 22.5209 15.6215 22.4668 15.4648C22.4397 15.3863 22.4154 15.3078 22.3955 15.2441C22.3743 15.1764 22.3575 15.1222 22.3398 15.0723L22.1992 14.7236C22.1549 14.6203 22.1047 14.4989 22.0557 14.373C22.0515 14.9302 22.0557 15.7214 22.0557 16.2178C22.0557 16.3386 22.0817 16.553 22.1182 16.9033C22.1507 17.2164 22.1868 17.6049 22.1787 17.9648C22.1747 18.1459 22.1591 18.3408 22.1191 18.5283C22.0805 18.7095 22.0089 18.9335 21.8604 19.1328C21.6971 19.3516 21.4511 19.5251 21.1318 19.5723C20.8391 19.6155 20.565 19.5407 20.3398 19.4395V19.4385L20.1377 19.332C19.6958 19.0592 19.4482 18.6357 19.2959 18.2939C19.2061 18.0924 19.1359 17.8883 19.0791 17.7139C19.0178 17.5256 18.9766 17.3904 18.9297 17.2627L18.8555 17.0215C18.7046 16.4439 18.7148 15.7766 18.7148 15.3838Z" fill="#E8CD7D"/>
<path d="M20.2175 2.99996L20.862 2.61596C20.7043 2.35096 20.4003 2.20997 20.0959 2.25997C19.7915 2.30997 19.5488 2.54095 19.4842 2.84295L20.2175 2.99996ZM20.2175 6.34396L20.8853 6.00198L20.7901 5.81597L20.6123 5.70596L20.2175 6.34396ZM21.6431 3.41998C21.3919 3.33298 21.139 3.08196 20.862 2.61596L19.5731 3.38397C19.8913 3.91797 20.3769 4.56898 21.1524 4.83798L21.6431 3.41998ZM19.4842 2.84295C19.4315 3.08895 19.3169 3.89497 19.2706 4.67297C19.2473 5.06197 19.2389 5.47895 19.2716 5.82995C19.2877 6.00395 19.3165 6.19395 19.3732 6.36895C19.4205 6.51395 19.5341 6.80295 19.8228 6.98095L20.6123 5.70596C20.79 5.81596 20.8177 5.95997 20.8 5.90597C20.7917 5.87997 20.7764 5.81295 20.7651 5.69195C20.7429 5.45195 20.7463 5.12396 20.7679 4.76196C20.8112 4.03596 20.9186 3.30798 20.9509 3.15698L19.4842 2.84295ZM19.5498 6.68496C19.824 7.22096 20.3838 7.52396 20.8361 7.67196C21.3042 7.82496 21.8823 7.88796 22.3765 7.74096L21.9504 6.30297C21.8371 6.33697 21.5844 6.33797 21.3024 6.24597C21.1718 6.20297 21.0635 6.14896 20.986 6.09496C20.9057 6.03896 20.885 6.00098 20.8853 6.00198L19.5498 6.68496ZM22.3765 7.74096C22.9082 7.58396 23.3101 7.21697 23.5711 6.81597C23.8318 6.41597 23.9871 5.92995 23.9871 5.45095H22.4871C22.4871 5.61795 22.4287 5.82195 22.3141 5.99795C22.1999 6.17295 22.065 6.26897 21.9504 6.30297L22.3765 7.74096ZM23.9871 5.45095C23.9871 5.04695 23.8582 4.69596 23.6329 4.41296C23.4193 4.14396 23.1465 3.96897 22.9029 3.84997C22.6586 3.73097 22.4021 3.64798 22.1886 3.58398C21.9499 3.51198 21.795 3.47298 21.6431 3.41998L21.1524 4.83798C21.3422 4.90298 21.5881 4.96996 21.7583 5.02096C21.9538 5.07896 22.1144 5.13496 22.2445 5.19796C22.3753 5.26196 22.4342 5.31497 22.4587 5.34597C22.4715 5.36197 22.4871 5.38295 22.4871 5.45095H23.9871Z" fill="#F79722"/>
<defs>
<radialGradient id="paint0_radial_53542_4775" cx="0" cy="0" r="1" gradientUnits="userSpaceOnUse" gradientTransform="translate(21.8517 5.53723) rotate(69.6264) scale(5.32155)">
<stop stop-color="#FFD755" stop-opacity="0.8"/>
<stop offset="0.865385" stop-color="#FFD755" stop-opacity="0"/>
</radialGradient>
</defs>
</svg>
