<svg width="48" height="55" viewBox="0 0 48 55" fill="none" xmlns="http://www.w3.org/2000/svg">
<path d="M37.6117 8.32214L33.6101 17.2721C33.5037 17.5101 33.4852 17.7921 33.6647 17.9811C34.0182 18.3541 34.6636 18.6311 35.1949 18.7991C35.5138 18.8991 35.8554 18.8001 36.0805 18.5531C37.5589 16.9301 40.312 13.1081 41.7654 11.0231C41.8986 10.8321 41.9693 10.5991 41.899 10.3771C41.5436 9.25313 40.0208 8.3411 38.8196 7.8211C38.35 7.6181 37.8206 7.85514 37.6117 8.32214Z" fill="#FFA629"/>
<path d="M36.9271 8.01571C37.2859 7.21407 38.2323 6.75022 39.1176 7.1329L39.6097 7.35946C40.1149 7.6063 40.6492 7.9133 41.1273 8.27352C41.7482 8.74137 42.3659 9.36773 42.6137 10.1505C42.7782 10.6702 42.5937 11.1462 42.3803 11.4522L41.1498 10.5938C41.1579 10.5822 41.1629 10.5713 41.1674 10.5626C41.0474 10.2316 40.7331 9.85467 40.225 9.47176C39.8403 9.18184 39.393 8.92356 38.9545 8.70907L38.5219 8.50985C38.4867 8.49466 38.4511 8.49409 38.4115 8.51083C38.3793 8.5245 38.3457 8.54969 38.3197 8.587L38.2963 8.62801L34.3051 17.5518C34.5466 17.7467 34.9686 17.9406 35.4183 18.0831C35.4474 18.0922 35.4891 18.0881 35.5258 18.0479C36.965 16.4679 39.6898 12.6882 41.1498 10.5938L42.3803 11.4522C40.9333 13.528 38.1525 17.3929 36.6351 19.0587C36.2217 19.5124 35.5788 19.7056 34.9701 19.5147L34.7533 19.4425C34.2271 19.2583 33.5547 18.9539 33.1215 18.4972C32.6336 17.9835 32.7665 17.3209 32.9252 16.9659L36.9271 8.01571Z" fill="#DD7C0E"/>
<path d="M43.501 16.9161L38.407 20.985C38.2041 21.147 38.0728 21.389 38.2001 21.605C38.409 21.959 38.8703 22.387 39.2379 22.698C39.505 22.924 39.8844 22.979 40.2229 22.854C42.6526 21.956 43.8655 21.4041 45.8461 20.4941C46.0803 20.3861 46.2814 20.1961 46.2799 19.9471C46.2746 19.1111 45.4681 17.8451 44.8154 17.0151C44.5011 16.6151 43.9113 16.5891 43.501 16.9161Z" fill="#FFA629"/>
<path d="M43.0333 16.3298C43.7117 15.7892 44.7898 15.7699 45.4044 16.5515L44.2257 17.4783C44.2113 17.4599 44.1888 17.444 44.1447 17.4411C44.096 17.438 44.0291 17.4531 43.9679 17.5017L39.0206 21.4538C39.1979 21.6575 39.456 21.9008 39.7218 22.1257L39.7628 22.1501C39.8111 22.1715 39.8815 22.1807 39.962 22.1511L40.8107 21.8328C42.6702 21.1236 43.7979 20.6093 45.5157 19.8201C45.4784 19.5893 45.3551 19.2519 45.13 18.8357C44.9363 18.4776 44.6974 18.1136 44.4601 17.7888L44.2257 17.4783L45.4044 16.5515C45.7491 16.9898 46.1399 17.5499 46.4493 18.1218C46.7442 18.6669 47.0256 19.3307 47.0294 19.9431C47.0334 20.6385 46.4873 21.0243 46.1593 21.1755L45.9777 20.781L45.8019 20.3992L46.1593 21.1755C44.1722 22.0885 42.9384 22.6497 40.4825 23.5574L40.2648 23.6228C39.7489 23.7423 39.1831 23.635 38.7531 23.2712C38.4395 23.006 37.973 22.5876 37.672 22.1667L37.5538 21.9861C37.3536 21.6464 37.3702 21.2847 37.4816 21.0007C37.5848 20.738 37.766 20.537 37.9386 20.3992L43.0333 16.3298Z" fill="#DD7C0E"/>
</svg>
