<svg width="48" height="55" viewBox="0 0 48 55" fill="none" xmlns="http://www.w3.org/2000/svg">
<path d="M12.6868 20.6852C17.8054 22.3352 22.0107 21.9452 24.1759 21.9452C26.2827 21.9452 32.6819 20.9852 35.0486 19.5852C35.3234 19.4252 35.4444 19.0953 35.38 18.7853C34.0799 12.4753 27.6577 8.0453 22.8728 8.5253C18.4601 8.9553 12.4243 12.4252 12.0951 19.8452C12.0781 20.2252 12.3229 20.5652 12.6868 20.6852Z" fill="#5C806D"/>
<path d="M23.7686 7.76465C26.6875 8.59946 30.192 12.1444 30.9346 18.7314L29.4443 18.8994C28.8349 13.493 26.2835 10.587 24.1904 9.53711C24.0842 12.0689 24.0441 16.4136 24.5098 18.9395L23.0352 19.2109C22.5495 16.5767 22.5825 12.2385 22.6846 9.65137C20.3949 10.81 17.4336 13.754 17.4336 18.6455H15.9336C15.9336 12.1424 20.5417 8.57939 23.3564 7.77441L23.5605 8.49023L23.7686 7.76465Z" fill="#517361"/>
<path d="M22.7985 7.7786C25.4341 7.51434 28.4223 8.59842 30.8932 10.5159C33.3749 12.4418 35.4225 15.2736 36.1149 18.6321L36.1334 18.7425C36.2062 19.2931 35.9828 19.9053 35.4293 20.2298L35.4303 20.2307C34.1222 21.0044 31.812 21.6124 29.6569 22.0266C27.4785 22.4454 25.2988 22.6946 24.1764 22.6946C22.0672 22.6946 17.7154 23.0939 12.4567 21.3987L12.4518 21.3977C11.7843 21.1776 11.3137 20.5435 11.3463 19.8118C11.6971 11.9067 18.1394 8.23438 22.7985 7.77958V7.7786ZM29.9733 11.7015C27.7121 9.94669 25.097 9.05618 22.9479 9.27176H22.9459C18.7798 9.67774 13.1521 12.9444 12.8444 19.8782C12.8431 19.9059 12.8611 19.9505 12.9186 19.971C17.8965 21.5753 21.9554 21.1946 24.1764 21.1946C25.1611 21.1946 27.2345 20.9652 29.3737 20.554C31.5225 20.1409 33.5815 19.572 34.6461 18.9505C34.6462 18.9465 34.647 18.9421 34.6461 18.9378L34.6451 18.9368C34.0372 15.986 32.2236 13.4478 29.9733 11.7015Z" fill="#1A1A1A"/>
<path d="M10.7367 21.6351C10.6785 20.9151 10.7292 20.1051 10.8227 19.3651C10.9529 18.3351 12.0047 17.7551 13.0189 17.9751C19.4509 19.3351 29.5276 18.5852 35.0087 17.9152C35.8157 17.8152 36.5955 18.2651 36.765 19.0551C36.8802 19.5951 36.9601 20.1651 37.0274 20.6851C37.1532 21.6651 36.5211 22.6451 35.5577 22.8551C27.479 24.6251 19.6347 24.0651 12.0178 22.8851C11.352 22.7851 10.7903 22.3151 10.7367 21.6351Z" fill="#5C806D"/>
<path fill-rule="evenodd" clip-rule="evenodd" d="M20.3047 18.4854C20.3047 19.0107 20.25 19.895 20.1885 20.8389C20.1259 21.7984 20.0543 22.8428 20.0176 23.7266L18.5195 23.6641C18.5572 22.758 18.6294 21.6915 18.6914 20.7412C18.7544 19.7757 18.8047 18.95 18.8047 18.4854H20.3047ZM29.0283 18.4854C29.0283 18.95 29.0786 19.7757 29.1416 20.7412C29.2036 21.6915 29.2768 22.758 29.3145 23.6641L27.8154 23.7266C27.7787 22.8428 27.7081 21.7984 27.6455 20.8389C27.584 19.895 27.5283 19.0107 27.5283 18.4854H29.0283ZM23.0986 18.4404C23.1301 18.961 23.1278 19.8454 23.123 20.79C23.1182 21.7508 23.1106 22.7978 23.127 23.6816L21.627 23.709C21.6102 22.8031 21.6183 21.7346 21.623 20.7832C21.6279 19.8161 21.6284 18.9898 21.6006 18.5303L23.0986 18.4404ZM26.2051 18.4404C26.2366 18.961 26.2342 19.8454 26.2295 20.79C26.2247 21.7508 26.2171 22.7978 26.2334 23.6816L24.7334 23.709C24.7167 22.8031 24.7247 21.7346 24.7295 20.7832C24.7343 19.8161 24.7349 18.9898 24.707 18.5303L26.2051 18.4404ZM31.8174 18.3926C31.9139 19.165 32.1256 21.1368 32.2012 22.9541L30.7021 23.0166C30.6289 21.2546 30.4226 19.3262 30.3291 18.5781L31.8174 18.3926ZM34.7041 18.3926C34.8006 19.165 35.0123 21.1368 35.0879 22.9541L33.5889 23.0166C33.5155 21.2546 33.3093 19.3262 33.2158 18.5781L34.7041 18.3926ZM14.6172 18.4785C14.5236 19.2267 14.3174 21.1551 14.2441 22.917L12.7451 22.8545C12.8207 21.0374 13.0323 19.0656 13.1289 18.293L14.6172 18.4785ZM17.5039 18.4785C17.4104 19.2267 17.2041 21.1551 17.1309 22.917L15.6328 22.8545C15.7084 21.0374 15.919 19.0656 16.0156 18.293L17.5039 18.4785Z" fill="#517361"/>
<path d="M34.9159 17.1707C36.0279 17.033 37.2308 17.6529 37.498 18.8973V18.8983C37.559 19.1844 37.6107 19.4767 37.6552 19.7625L37.7714 20.5887V20.5897C37.9314 21.8369 37.1967 23.1168 35.9697 23.5194L35.7177 23.5877C27.5084 25.3863 19.5592 24.8112 11.9062 23.6258C10.9874 23.4877 10.0776 22.8069 9.98918 21.6952C9.92535 20.9044 9.98119 20.0383 10.0781 19.2713C10.2759 17.7064 11.8347 16.9544 13.1728 17.242L13.1738 17.2411C19.4701 18.5724 29.4333 17.8418 34.9159 17.1717V17.1707ZM35.1005 18.659H35.0995C29.6197 19.3289 19.431 20.0972 12.8642 18.7088L12.8603 18.7079C12.1711 18.5584 11.6288 18.9657 11.5663 19.4588C11.4875 20.0827 11.4434 20.7381 11.4687 21.327L11.4843 21.575V21.576C11.5039 21.8234 11.7166 22.0814 12.1288 22.1434H12.1327C19.7124 23.3176 27.4507 23.863 35.3974 22.1219H35.3984C35.9475 22.0019 36.3635 21.4102 36.2831 20.7811C36.2329 20.3931 36.1778 19.99 36.1073 19.5985L36.0312 19.2118C35.9589 18.8766 35.6022 18.5969 35.1005 18.659Z" fill="#1A1A1A"/>
</svg>
