<svg width="48" height="55" viewBox="0 0 48 55" fill="none" xmlns="http://www.w3.org/2000/svg">
<path fill-rule="evenodd" clip-rule="evenodd" d="M16.4595 6.91711C14.5963 7.36111 11.5752 8.08012 11.5752 11.7851C11.5752 14.5281 15.4325 17.1921 24.6874 16.4951C26.5646 16.3541 29.3602 16.1021 31.9462 15.5181C36.2272 14.5511 36.6559 9.7031 32.6809 7.8431C29.0048 6.1231 23.6335 5.20611 16.5316 6.90011C16.5078 6.90511 16.4837 6.91111 16.4595 6.91711ZM18.8219 9.60512C16.9917 9.77812 14.7934 9.98612 14.7782 11.3711C14.7589 13.1391 18.8479 13.8301 28.2029 13.1111C33.5037 12.7031 33.9489 10.0931 28.6403 9.5461C25.9685 9.2711 22.7832 9.22611 19.0229 9.58611C18.9565 9.59211 18.8894 9.59812 18.8219 9.60512Z" fill="#FFE8A3"/>
<path d="M12.3252 11.7852C12.3252 10.1822 12.9573 9.30223 13.7516 8.74123C14.603 8.13923 15.6807 7.87322 16.6333 7.64622L16.2857 6.18724C15.3751 6.40424 14.0106 6.72022 12.8857 7.51622C11.7037 8.35122 10.8252 9.68323 10.8252 11.7852H12.3252ZM24.631 15.7472C20.0675 16.0912 16.9259 15.5962 14.9596 14.7422C12.9936 13.8882 12.3252 12.7472 12.3252 11.7852H10.8252C10.8252 13.5662 12.0855 15.1292 14.3618 16.1182C16.6379 17.1072 20.0524 17.5962 24.7437 17.2432L24.631 15.7472ZM31.781 14.7862C29.2524 15.3572 26.5036 15.6062 24.631 15.7472L24.7437 17.2432C26.6256 17.1012 29.468 16.8462 32.1114 16.2492L31.781 14.7862ZM32.363 8.52223C34.1017 9.33623 34.7753 10.7352 34.6628 11.9462C34.5509 13.1502 33.644 14.3662 31.781 14.7862L32.1114 16.2492C34.5294 15.7032 35.9773 14.0122 36.1563 12.0852C36.3347 10.1652 35.2351 8.21022 32.9988 7.16322L32.363 8.52223ZM16.7056 7.62923C23.6589 5.97123 28.8551 6.88123 32.363 8.52223L32.9988 7.16322C29.1546 5.36522 23.608 4.44124 16.3576 6.17024L16.7056 7.62923ZM16.6333 7.64622C16.6575 7.64122 16.6816 7.63523 16.7056 7.62923L16.3576 6.17024C16.3339 6.17624 16.31 6.18124 16.2857 6.18724L16.6333 7.64622ZM15.5282 11.3792C15.5295 11.2612 15.566 11.1792 15.6658 11.0882C15.7882 10.9762 16.0047 10.8562 16.3456 10.7482C17.034 10.5312 17.9532 10.4402 18.8925 10.3512L18.7513 8.85823C17.8604 8.94223 16.7654 9.04222 15.8933 9.31822C15.4539 9.45722 15.0036 9.66022 14.6524 9.98222C14.2785 10.3242 14.0346 10.7882 14.0283 11.3632L15.5282 11.3792ZM28.1454 12.3632C23.4797 12.7222 20.1846 12.7232 18.0783 12.4312C17.0176 12.2842 16.3282 12.0712 15.9254 11.8392C15.5457 11.6222 15.5273 11.4612 15.5282 11.3792L14.0283 11.3632C14.0195 12.1652 14.5049 12.7542 15.1789 13.1412C15.8296 13.5142 16.7436 13.7602 17.8721 13.9172C20.1442 14.2322 23.5711 14.2192 28.2604 13.8592L28.1454 12.3632ZM28.5635 10.2922C29.8435 10.4242 30.7044 10.6752 31.2071 10.9402C31.7555 11.2292 31.6421 11.3832 31.6577 11.2752C31.6613 11.2492 31.611 11.4822 30.9514 11.7732C30.3506 12.0382 29.4196 12.2652 28.1454 12.3632L28.2604 13.8592C29.6365 13.7532 30.749 13.5012 31.5567 13.1452C32.3055 12.8152 33.0286 12.2842 33.1426 11.4872C33.2685 10.6062 32.6024 9.98023 31.9068 9.61323C31.1656 9.22223 30.0915 8.94222 28.7172 8.80022L28.5635 10.2922ZM19.0943 10.3322C22.8085 9.97723 25.9442 10.0222 28.5635 10.2922L28.7172 8.80022C25.9929 8.51922 22.7578 8.47522 18.9515 8.83922L19.0943 10.3322ZM18.8925 10.3512C18.96 10.3452 19.0274 10.3392 19.0943 10.3322L18.9515 8.83922C18.8855 8.84522 18.8189 8.85223 18.7513 8.85823L18.8925 10.3512Z" fill="#FFC21A"/>
<ellipse cx="23.0689" cy="11.8039" rx="18.4971" ry="10.4455" fill="url(#paint0_radial_53542_4789)"/>
<defs>
<radialGradient id="paint0_radial_53542_4789" cx="0" cy="0" r="1" gradientTransform="matrix(6.20516 9.43557 -16.7088 3.5041 23.0689 11.8039)" gradientUnits="userSpaceOnUse">
<stop stop-color="#F7C522" stop-opacity="0.5"/>
<stop offset="1" stop-color="#F7C522" stop-opacity="0"/>
</radialGradient>
</defs>
</svg>
