<svg width="48" height="55" viewBox="0 0 48 55" fill="none" xmlns="http://www.w3.org/2000/svg">
<path d="M24 8.75V5C24 2.791 25.7909 1 28 1H40C42.2091 1 44 2.791 44 5V8.75C44 10.959 42.2091 12.75 40 12.75H34.2273L29.3182 17V12.75H28C25.7909 12.75 24 10.959 24 8.75Z" fill="white"/>
<path d="M43.25 5C43.25 3.2052 41.7949 1.75 40 1.75H28C26.2051 1.75 24.75 3.2052 24.75 5V8.75C24.75 10.5448 26.2051 12 28 12H29.3184C29.7325 12.0001 30.0684 12.3358 30.0684 12.75V15.3574L33.7363 12.1826C33.8726 12.0647 34.0473 12 34.2275 12H40C41.7949 12 43.25 10.5448 43.25 8.75V5ZM44.75 8.75C44.75 11.3732 42.6233 13.5 40 13.5H34.5068L29.8096 17.5674C29.5878 17.7594 29.2737 17.8044 29.0068 17.6826C28.7398 17.5606 28.5684 17.2936 28.5684 17V13.5H28C25.3767 13.5 23.25 11.3732 23.25 8.75V5C23.25 2.3768 25.3767 0.25 28 0.25H40C42.6233 0.25 44.75 2.3768 44.75 5V8.75Z" fill="#1A1A1A"/>
<path d="M33.5156 4.12926C33.8461 4.61726 34.1875 5.12526 34.1962 5.71326C34.2004 5.99626 34.3705 5.44727 34.448 5.35027C34.5856 5.17927 34.7068 4.98926 34.8714 4.83626C35.1635 4.56526 35.4231 4.29426 35.7798 4.09526C36.2517 3.83326 36.8809 3.58727 37.4277 3.58727C37.8448 3.58727 38.1292 3.68727 38.3816 4.02027C38.6569 4.38427 38.7588 4.97826 38.6562 5.40926C38.5167 5.99526 38.1682 6.45127 37.7787 6.90427C37.3564 7.39527 36.9056 7.87726 36.4389 8.32926C35.8931 8.85826 35.3868 9.38526 34.7508 9.81926C34.4255 10.0423 34.1145 10.2843 33.7862 10.5023C33.6748 10.5763 33.61 10.6823 33.5156 10.5333C33.3699 10.3033 33.2075 10.0823 33.0413 9.86527C32.8913 9.66927 32.7612 9.45126 32.6059 9.26326C32.238 8.81726 31.9627 8.31326 31.5662 7.88426C30.8267 7.08326 29.9925 6.25727 30.0001 5.11327C30.0023 4.77127 30.0465 4.45325 30.2225 4.15225C30.432 3.79525 30.7855 3.46126 31.1362 3.23326C31.3452 3.09826 31.5714 3.00226 31.8248 3.00226C32.0193 3.00226 32.2324 2.98126 32.4116 3.06726C32.506 3.11326 32.5907 3.18826 32.6769 3.24626C32.8136 3.34026 32.9322 3.49526 33.0493 3.61026L33.0501 3.61125C33.213 3.77025 33.388 3.94126 33.5156 4.12926Z" fill="#E24C0C"/>
</svg>
