<svg width="48" height="58" viewBox="0 0 48 58" fill="none" xmlns="http://www.w3.org/2000/svg">
<path d="M23.1177 17.2125L23 15.3405L26.4493 15.1235L26.567 16.9965L24.8873 17.8195L23.1177 17.2125Z" fill="#787878"/>
<path d="M26.408 14.4769C26.5795 14.4661 26.7489 14.5234 26.8778 14.637C27.0066 14.7506 27.0847 14.911 27.0955 15.0823L27.2137 16.9554L26.5662 16.9954L26.5672 16.9964L27.2137 16.9554C27.2301 17.2168 27.0875 17.4631 26.8524 17.5784L25.1727 18.4017C25.0182 18.4774 24.8393 18.4878 24.6766 18.432L22.9071 17.8255L22.8182 17.7874C22.6472 17.6985 22.5248 17.5373 22.4842 17.3489L22.4705 17.2532L22.3534 15.3812C22.3309 15.0241 22.6018 14.7163 22.9588 14.6937L26.408 14.4769ZM23.6864 15.9456L23.7371 16.7386L24.8436 17.1185L25.8924 16.6048L25.8426 15.8099L23.6864 15.9456Z" fill="#1A1A1A"/>
<circle cx="24.184" cy="9.83777" r="9.83777" fill="url(#paint0_radial_53542_4752)"/>
<path d="M26.7762 15.2293L22.4561 15.6783C22.3121 14.9293 22.3411 13.2513 21.8513 12.5323C21.239 11.6333 19 11.1833 19 9.38533C19 7.58733 21.1601 5.34033 23.9425 5.34033C26.7249 5.34033 29.3683 6.68834 29.3683 8.48634C29.3683 10.2843 27.2083 11.1833 26.7762 12.0823C26.4306 12.8013 26.7762 14.4033 26.7762 15.2293Z" fill="#FFE054"/>
<path d="M28.7207 8.48682C28.7207 7.93357 28.3063 7.31901 27.3838 6.80518C26.4843 6.30423 25.2388 5.98877 23.9424 5.98877C22.7274 5.9888 21.6408 6.47943 20.8574 7.17334C20.0591 7.88057 19.6485 8.72884 19.6484 9.38525C19.6484 9.95667 19.9803 10.3502 20.5703 10.7671C20.8907 10.9935 21.1544 11.1409 21.5059 11.3745C21.8059 11.5739 22.1564 11.8295 22.3867 12.1675C22.5706 12.4374 22.6842 12.7607 22.7607 13.063C22.839 13.3719 22.8893 13.7036 22.9268 14.0171C22.9641 14.33 22.9902 14.6462 23.0146 14.9126C23.0164 14.9311 23.0179 14.9493 23.0195 14.9673L26.0908 14.6479C26.0879 14.6171 26.0861 14.5855 26.083 14.5532C26.0569 14.2849 26.0224 13.9699 26 13.6626C25.9776 13.3544 25.9646 13.0276 25.9834 12.7212C26.0017 12.4237 26.0529 12.0915 26.1924 11.8013C26.361 11.4506 26.6658 11.1511 26.9277 10.9136C27.2402 10.6302 27.4843 10.4391 27.7891 10.1509C28.3562 9.61442 28.7205 9.10347 28.7207 8.48682ZM30.0166 8.48682C30.0164 9.66768 29.3003 10.5052 28.6797 11.0923C28.3905 11.3658 28.0129 11.6793 27.7988 11.8735C27.5345 12.1133 27.4079 12.2641 27.3604 12.3628C27.3271 12.432 27.2915 12.5704 27.2773 12.8013C27.2638 13.0232 27.2722 13.2836 27.293 13.5688C27.3138 13.8551 27.3452 14.1406 27.373 14.4272C27.3998 14.7023 27.4238 14.9869 27.4238 15.229C27.4238 15.561 27.173 15.8392 26.8428 15.8735L22.5234 16.3228C22.189 16.3575 21.8828 16.1305 21.8193 15.8003C21.7764 15.5768 21.7493 15.2997 21.7246 15.0308C21.6987 14.7495 21.6743 14.4603 21.6396 14.1704C21.6051 13.8813 21.5624 13.6123 21.5039 13.3813C21.4437 13.1434 21.3765 12.9866 21.3154 12.897C21.2395 12.7856 21.0808 12.6475 20.7891 12.4536C20.5488 12.2939 20.1379 12.0478 19.8223 11.8247C19.1397 11.3424 18.3516 10.6118 18.3516 9.38525C18.3516 8.24374 19.0209 7.06932 19.998 6.20361C20.9903 5.32461 22.3751 4.69193 23.9424 4.69189C25.4283 4.69189 26.8959 5.05084 28.0137 5.67334C29.1083 6.28298 30.0166 7.24211 30.0166 8.48682Z" fill="#E4981F"/>
<defs>
<radialGradient id="paint0_radial_53542_4752" cx="0" cy="0" r="1" gradientUnits="userSpaceOnUse" gradientTransform="translate(24.184 9.83777) rotate(69.6264) scale(9.47965)">
<stop stop-color="#F7E922" stop-opacity="0.8"/>
<stop offset="0.865385" stop-color="#F7E922" stop-opacity="0"/>
</radialGradient>
</defs>
</svg>
