<svg width="48" height="55" viewBox="0 0 48 55" fill="none" xmlns="http://www.w3.org/2000/svg">
<path d="M35.0753 24.22C23.6164 25.52 16.8974 23.22 14.9702 21.91L27.4535 4.104L35.0753 24.22Z" fill="#FFCD29"/>
<path d="M18.0146 17.9834C19.399 17.9835 20.5215 19.1059 20.5215 20.4902C20.5214 21.8745 19.399 22.997 18.0146 22.9971C16.6303 22.9971 15.5079 21.8746 15.5078 20.4902C15.5078 19.1058 16.6302 17.9834 18.0146 17.9834ZM25.5361 17.9834C26.9205 17.9835 28.043 19.1059 28.043 20.4902C28.0429 21.8745 26.9204 22.997 25.5361 22.9971C24.1518 22.9971 23.0294 21.8746 23.0293 20.4902C23.0293 19.1058 24.1517 17.9834 25.5361 17.9834ZM33.8018 22.21L34.1807 22.0801C33.7846 22.34 33.3111 22.4902 32.8008 22.4902C31.4166 22.4902 30.2943 21.37 30.2939 19.9902C30.2939 18.8102 31.106 17.8198 32.2002 17.5498L33.8018 22.21ZM21.5996 12.4639C22.9838 12.464 24.1063 13.5855 24.1064 14.9697C24.1064 16.3541 22.9839 17.4764 21.5996 17.4766C20.2152 17.4766 19.0928 16.3541 19.0928 14.9697C19.0929 13.5855 20.2153 12.4639 21.5996 12.4639ZM28.7959 11.2334C30.1802 11.2335 31.3027 12.3559 31.3027 13.7402C31.3027 15.1245 30.1802 16.247 28.7959 16.2471C27.4115 16.2471 26.2891 15.1246 26.2891 13.7402C26.2891 12.3558 27.4115 11.2334 28.7959 11.2334ZM24.9082 7.00195C25.8881 7.34306 26.5928 8.2723 26.5928 9.36816C26.5926 10.7499 25.4701 11.8697 24.0859 11.8799C23.3311 11.8799 22.6559 11.5397 22.1963 11.0098L24.9082 7.00195Z" fill="#007BE5"/>
<path d="M27.3993 2.10767C27.6809 2.14079 27.9197 2.33042 28.0165 2.59693L35.7802 23.9631C35.8586 24.179 35.8337 24.4192 35.7128 24.6145C35.5918 24.8098 35.3883 24.9392 35.16 24.9651L34.0868 25.0774C28.788 25.5846 24.5212 25.2861 21.2977 24.678C17.8798 24.0332 15.5905 23.0316 14.4979 22.2366C14.174 22.0008 14.0929 21.5516 14.3134 21.217L26.6854 2.4397C26.8415 2.20311 27.1178 2.07461 27.3993 2.10767ZM15.9872 21.4016C17.0427 21.9823 18.8974 22.699 21.5761 23.2043C24.6714 23.7882 28.829 24.0814 34.0429 23.5735L27.1171 4.51197L15.9872 21.4016Z" fill="#1A1A1A"/>
<path fill-rule="evenodd" clip-rule="evenodd" d="M26.7952 0.263668C27.2014 0.183916 27.596 0.449239 27.676 0.855465C27.7782 1.37395 27.865 1.94101 27.9241 2.55664C28.2384 2.16685 28.5132 1.78976 28.7542 1.43066C28.9848 1.08708 29.4504 0.995372 29.7942 1.22558C30.1382 1.45635 30.23 1.92262 29.9993 2.2666C29.6505 2.78649 29.238 3.33919 28.7473 3.91015C29.2664 3.8744 29.8106 3.81513 30.3801 3.72461C30.7891 3.6596 31.1733 3.93883 31.2385 4.34765C31.3036 4.75673 31.0246 5.14102 30.6155 5.20605C30.0025 5.30348 29.4156 5.36649 28.8547 5.40527C29.1749 5.6736 29.5165 5.94295 29.8831 6.20898C30.218 6.45235 30.2923 6.92173 30.0491 7.25683C29.8058 7.59163 29.3373 7.66567 29.0022 7.42285C28.5936 7.12626 28.213 6.82548 27.8567 6.52539C27.8021 6.96059 27.7322 7.41068 27.6419 7.875C27.5626 8.28147 27.1685 8.54691 26.762 8.46777C26.3559 8.38832 26.0903 7.99506 26.1692 7.58886C26.2634 7.10504 26.3345 6.63878 26.387 6.19043C25.9638 6.53149 25.5067 6.87184 25.011 7.20605C24.6675 7.43749 24.2015 7.34732 23.97 7.0039C23.7388 6.66051 23.8298 6.19437 24.1731 5.96289C24.5072 5.73769 24.8211 5.50871 25.1184 5.28027C24.5711 5.2028 24.0642 5.10493 23.5979 4.99609C23.1949 4.90166 22.9442 4.49788 23.0383 4.09472C23.1327 3.69172 23.5366 3.44121 23.9397 3.53515C24.3299 3.62623 24.7521 3.70936 25.2063 3.77734C24.8125 3.26842 24.4774 2.7761 24.1887 2.31152C23.9702 1.9597 24.0781 1.49789 24.4299 1.27929C24.7817 1.06088 25.2436 1.16876 25.4622 1.5205C25.7397 1.96719 26.0655 2.44294 26.4524 2.93652C26.3994 2.27976 26.3104 1.6827 26.2044 1.14453C26.1245 0.738407 26.3892 0.34393 26.7952 0.263668Z" fill="#007BE5"/>
</svg>
