<svg width="48" height="55" viewBox="0 0 48 55" fill="none" xmlns="http://www.w3.org/2000/svg">
<path d="M12.6868 20.6847C17.8054 22.3347 22.0107 21.9447 24.1759 21.9447C26.2827 21.9447 32.6819 20.9847 35.0486 19.5848C35.3234 19.4248 35.4444 19.0948 35.38 18.7848C34.0799 12.4748 27.6577 8.04481 22.8728 8.52481C18.4601 8.95481 12.4243 12.4248 12.0951 19.8448C12.0781 20.2248 12.3229 20.5647 12.6868 20.6847Z" fill="#FF99E0"/>
<path d="M23.7686 7.76416C26.6875 8.59897 30.192 12.1439 30.9346 18.731L29.4443 18.8989C28.8349 13.4925 26.2835 10.5865 24.1904 9.53662C24.0842 12.0684 24.0441 16.4132 24.5098 18.939L23.0352 19.2104C22.5495 16.5762 22.5825 12.238 22.6846 9.65088C20.3949 10.8096 17.4336 13.7535 17.4336 18.645H15.9336C15.9336 12.1419 20.5417 8.5789 23.3564 7.77393L23.5605 8.48975L23.7686 7.76416Z" fill="#FFBDF2"/>
<path d="M22.7985 7.77811C25.4341 7.51386 28.4223 8.59793 30.8932 10.5154C33.3749 12.4413 35.4225 15.2731 36.1149 18.6316L36.1334 18.742C36.2062 19.2926 35.9828 19.9048 35.4293 20.2293L35.4303 20.2303C34.1222 21.0039 31.812 21.6119 29.6569 22.0262C27.4785 22.4449 25.2988 22.6941 24.1764 22.6941C22.0672 22.6941 17.7154 23.0934 12.4567 21.3982L12.4518 21.3973C11.7843 21.1771 11.3137 20.543 11.3463 19.8113C11.6971 11.9062 18.1394 8.23389 22.7985 7.77909V7.77811ZM29.9733 11.701C27.7121 9.9462 25.097 9.0557 22.9479 9.27128H22.9459C18.7798 9.67725 13.1521 12.9439 12.8444 19.8777C12.8431 19.9054 12.8611 19.95 12.9186 19.9705C17.8965 21.5748 21.9554 21.1941 24.1764 21.1941C25.1611 21.1941 27.2345 20.9647 29.3737 20.5535C31.5225 20.1404 33.5815 19.5715 34.6461 18.95C34.6462 18.946 34.647 18.9417 34.6461 18.9373L34.6451 18.9363C34.0372 15.9855 32.2236 13.4473 29.9733 11.701Z" fill="#1A1A1A"/>
<path d="M10.7367 21.6347C10.6785 20.9147 10.7292 20.1046 10.8227 19.3646C10.9529 18.3346 12.0047 17.7546 13.0189 17.9746C19.4509 19.3346 29.5276 18.5847 35.0087 17.9147C35.8157 17.8147 36.5955 18.2646 36.765 19.0546C36.8802 19.5946 36.9601 20.1646 37.0274 20.6846C37.1532 21.6646 36.5211 22.6446 35.5577 22.8546C27.479 24.6246 19.6347 24.0647 12.0178 22.8847C11.352 22.7847 10.7903 22.3147 10.7367 21.6347Z" fill="#FF99E0"/>
<path fill-rule="evenodd" clip-rule="evenodd" d="M20.3047 18.4849C20.3047 19.0102 20.25 19.8945 20.1885 20.8384C20.1259 21.7979 20.0543 22.8423 20.0176 23.7261L18.5195 23.6636C18.5572 22.7576 18.6294 21.691 18.6914 20.7407C18.7544 19.7752 18.8047 18.9495 18.8047 18.4849H20.3047ZM29.0283 18.4849C29.0283 18.9495 29.0786 19.7752 29.1416 20.7407C29.2036 21.691 29.2768 22.7576 29.3145 23.6636L27.8154 23.7261C27.7787 22.8423 27.7081 21.7979 27.6455 20.8384C27.584 19.8945 27.5283 19.0102 27.5283 18.4849H29.0283ZM23.0986 18.4399C23.1301 18.9605 23.1278 19.8449 23.123 20.7896C23.1182 21.7503 23.1106 22.7973 23.127 23.6812L21.627 23.7085C21.6102 22.8026 21.6183 21.7341 21.623 20.7827C21.6279 19.8156 21.6284 18.9893 21.6006 18.5298L23.0986 18.4399ZM26.2051 18.4399C26.2366 18.9605 26.2342 19.8449 26.2295 20.7896C26.2247 21.7503 26.2171 22.7973 26.2334 23.6812L24.7334 23.7085C24.7167 22.8026 24.7247 21.7341 24.7295 20.7827C24.7343 19.8156 24.7349 18.9893 24.707 18.5298L26.2051 18.4399ZM31.8174 18.3921C31.9139 19.1646 32.1256 21.1363 32.2012 22.9536L30.7021 23.0161C30.6289 21.2541 30.4226 19.3258 30.3291 18.5776L31.8174 18.3921ZM34.7041 18.3921C34.8006 19.1646 35.0123 21.1363 35.0879 22.9536L33.5889 23.0161C33.5155 21.2541 33.3093 19.3258 33.2158 18.5776L34.7041 18.3921ZM14.6172 18.478C14.5236 19.2262 14.3174 21.1546 14.2441 22.9165L12.7451 22.854C12.8207 21.0369 13.0323 19.0651 13.1289 18.2925L14.6172 18.478ZM17.5039 18.478C17.4104 19.2262 17.2041 21.1546 17.1309 22.9165L15.6328 22.854C15.7084 21.0369 15.919 19.0652 16.0156 18.2925L17.5039 18.478Z" fill="#FFBDF2"/>
<path d="M34.9159 17.1707C36.0279 17.033 37.2308 17.6529 37.498 18.8973V18.8983C37.559 19.1844 37.6107 19.4767 37.6552 19.7625L37.7714 20.5887V20.5897C37.9314 21.8369 37.1967 23.1168 35.9697 23.5194L35.7177 23.5877C27.5084 25.3863 19.5592 24.8112 11.9062 23.6258C10.9874 23.4877 10.0776 22.8069 9.98918 21.6952C9.92535 20.9044 9.98119 20.0383 10.0781 19.2713C10.2759 17.7064 11.8347 16.9544 13.1728 17.242L13.1738 17.2411C19.4701 18.5724 29.4333 17.8418 34.9159 17.1717V17.1707ZM35.1005 18.659H35.0995C29.6197 19.3289 19.431 20.0972 12.8642 18.7088L12.8603 18.7079C12.1711 18.5584 11.6288 18.9657 11.5663 19.4588C11.4875 20.0827 11.4434 20.7381 11.4687 21.327L11.4843 21.575V21.576C11.5039 21.8234 11.7166 22.0814 12.1288 22.1434H12.1327C19.7124 23.3176 27.4507 23.863 35.3974 22.1219H35.3984C35.9475 22.0019 36.3635 21.4102 36.2831 20.7811C36.2329 20.3931 36.1778 19.99 36.1073 19.5985L36.0312 19.2118C35.9589 18.8766 35.6022 18.5969 35.1005 18.659Z" fill="#1A1A1A"/>
<path fill-rule="evenodd" clip-rule="evenodd" d="M23.3257 3.01851C23.8676 2.91188 24.3938 3.26484 24.5006 3.8066C24.5883 4.25239 24.666 4.7302 24.7271 5.24019C24.9554 4.94177 25.1631 4.65167 25.3511 4.37203C25.6594 3.91397 26.2806 3.79148 26.7388 4.09957C27.1969 4.40767 27.3181 5.02904 27.0103 5.48726C26.6954 5.95563 26.3322 6.44853 25.9146 6.95797C26.3437 6.91857 26.7881 6.86513 27.2476 6.79195C27.7928 6.70523 28.3051 7.07696 28.3922 7.62203C28.479 8.16739 28.1074 8.67963 27.5621 8.76656C27.047 8.84858 26.5486 8.90856 26.067 8.95211C26.3126 9.14879 26.5694 9.34565 26.8384 9.54097C27.2852 9.86539 27.3854 10.4906 27.0611 10.9375C26.7367 11.3843 26.1106 11.4834 25.6636 11.1591C25.3101 10.9025 24.9755 10.6431 24.6578 10.3837C24.6048 10.7598 24.5403 11.1457 24.4634 11.541C24.3578 12.0829 23.8326 12.4374 23.2906 12.332C22.749 12.2263 22.3954 11.7009 22.5006 11.1591C22.572 10.7919 22.6315 10.434 22.6802 10.0859C22.3142 10.3685 21.9273 10.6511 21.5152 10.9287C21.0572 11.2372 20.4361 11.1161 20.1275 10.6582C19.819 10.2001 19.94 9.57902 20.398 9.27047C20.635 9.11083 20.8619 8.94846 21.0816 8.78707C20.6399 8.71531 20.2237 8.63326 19.8336 8.5439C19.2956 8.42032 18.9593 7.88379 19.0826 7.34566C19.2062 6.80783 19.7428 6.47161 20.2808 6.59469C20.574 6.66184 20.8841 6.72441 21.2105 6.78121C20.8919 6.34836 20.6103 5.92879 20.3609 5.5273C20.0697 5.0582 20.2141 4.44171 20.6832 4.15035C21.1523 3.8592 21.7688 4.00359 22.0601 4.47262C22.2619 4.79748 22.4876 5.13646 22.7408 5.48629C22.6857 5.02518 22.6166 4.59426 22.5377 4.19332C22.4311 3.65169 22.7843 3.12551 23.3257 3.01851Z" fill="#80CAFF"/>
</svg>
