<svg width="48" height="55" viewBox="0 0 48 55" fill="none" xmlns="http://www.w3.org/2000/svg">
<path d="M12.6863 20.6847C17.8049 22.3347 22.0102 21.9447 24.1754 21.9447C26.2822 21.9447 32.6814 20.9847 35.0481 19.5848C35.3229 19.4248 35.4439 19.0948 35.3795 18.7848C34.0794 12.4748 27.6572 8.04481 22.8723 8.52481C18.4596 8.95481 12.4238 12.4248 12.0946 19.8448C12.0776 20.2248 12.3224 20.5647 12.6863 20.6847Z" fill="#E24C0C"/>
<path fill-rule="evenodd" clip-rule="evenodd" d="M23.769 7.76416C26.6879 8.59921 30.1925 12.1443 30.9351 18.731L29.4448 18.8989C28.8353 13.4918 26.2832 10.5852 24.1899 9.53564C24.0837 12.0673 24.0435 16.4128 24.5093 18.939L23.0347 19.2104C22.549 16.5759 22.5829 12.2369 22.6851 9.6499C20.3953 10.8083 17.4341 13.753 17.4341 18.645H15.9341C15.9341 12.1419 20.5422 8.5789 23.3569 7.77393L23.561 8.48975L23.769 7.76416Z" fill="#AA370D"/>
<path d="M22.798 7.77811C25.4336 7.51386 28.4218 8.59793 30.8927 10.5154C33.3744 12.4413 35.422 15.2731 36.1144 18.6316L36.1329 18.742C36.2058 19.2926 35.9823 19.9048 35.4288 20.2293L35.4298 20.2303C34.1217 21.0039 31.8115 21.6119 29.6564 22.0262C27.4781 22.4449 25.2983 22.6941 24.1759 22.6941C22.0667 22.6941 17.7149 23.0934 12.4562 21.3982L12.4513 21.3973C11.7838 21.1771 11.3133 20.543 11.3458 19.8113C11.6966 11.9062 18.1389 8.23389 22.798 7.77909V7.77811ZM29.9728 11.701C27.7116 9.9462 25.0965 9.0557 22.9474 9.27128H22.9454C18.7793 9.67725 13.1516 12.9439 12.8439 19.8777C12.8426 19.9054 12.8606 19.95 12.9181 19.9705C17.896 21.5748 21.9549 21.1941 24.1759 21.1941C25.1606 21.1941 27.234 20.9647 29.3732 20.5535C31.522 20.1404 33.581 19.5715 34.6456 18.95C34.6457 18.946 34.6465 18.9417 34.6456 18.9373L34.6447 18.9363C34.0367 15.9855 32.2231 13.4473 29.9728 11.701Z" fill="#1A1A1A"/>
<path d="M10.7362 21.6347C10.678 20.9147 10.7287 20.1046 10.8222 19.3646C10.9524 18.3346 12.0042 17.7546 13.0185 17.9746C19.4504 19.3346 29.5271 18.5847 35.0082 17.9147C35.8152 17.8147 36.595 18.2646 36.7645 19.0546C36.8797 19.5946 36.9596 20.1646 37.0269 20.6846C37.1527 21.6646 36.5206 22.6446 35.5572 22.8546C27.4785 24.6246 19.6342 24.0647 12.0173 22.8847C11.3515 22.7847 10.7899 22.3147 10.7362 21.6347Z" fill="#E24C0C"/>
<path fill-rule="evenodd" clip-rule="evenodd" d="M20.3042 18.4849C20.3042 19.0102 20.2495 19.8945 20.188 20.8384C20.1254 21.7979 20.0538 22.8423 20.0171 23.7261L18.519 23.6636C18.5567 22.7575 18.6289 21.691 18.6909 20.7407C18.7539 19.7752 18.8042 18.9495 18.8042 18.4849H20.3042ZM29.0278 18.4849C29.0278 18.9495 29.0782 19.7752 29.1411 20.7407C29.2031 21.691 29.2763 22.7576 29.314 23.6636L27.8149 23.7261C27.7782 22.8423 27.7076 21.7979 27.645 20.8384C27.5835 19.8945 27.5278 19.0102 27.5278 18.4849H29.0278ZM23.0981 18.4399C23.1296 18.9605 23.1273 19.8449 23.1226 20.7896C23.1177 21.7503 23.1101 22.7973 23.1265 23.6812L21.6265 23.7085C21.6097 22.8026 21.6178 21.7341 21.6226 20.7827C21.6274 19.8156 21.6279 18.9893 21.6001 18.5298L23.0981 18.4399ZM26.2056 18.4399C26.2371 18.9605 26.2347 19.8449 26.23 20.7896C26.2252 21.7503 26.2175 22.7973 26.2339 23.6812L24.7339 23.7085C24.7171 22.8026 24.7252 21.7341 24.73 20.7827C24.7348 19.8156 24.7354 18.9893 24.7075 18.5298L26.2056 18.4399ZM31.8169 18.3921C31.9134 19.1646 32.1251 21.1363 32.2007 22.9536L30.7017 23.0161C30.6284 21.2541 30.4221 19.3258 30.3286 18.5776L31.8169 18.3921ZM34.7036 18.3921C34.8002 19.1646 35.0118 21.1363 35.0874 22.9536L33.5884 23.0161C33.515 21.2541 33.3088 19.3258 33.2153 18.5776L34.7036 18.3921ZM14.6167 18.478C14.5232 19.2262 14.3169 21.1546 14.2437 22.9165L12.7446 22.854C12.8202 21.0369 13.0318 19.0651 13.1284 18.2925L14.6167 18.478ZM17.5034 18.478C17.4099 19.2262 17.2036 21.1546 17.1304 22.9165L15.6323 22.854C15.7079 21.0369 15.9185 19.0651 16.0151 18.2925L17.5034 18.478Z" fill="#AA370D"/>
<path d="M34.9155 17.1703C36.0274 17.0325 37.2303 17.6524 37.4975 18.8968V18.8978C37.5585 19.1839 37.6102 19.4762 37.6547 19.7621L37.7709 20.5882V20.5892C37.9309 21.8364 37.1962 23.1163 35.9692 23.5189L35.7172 23.5873C27.5079 25.3858 19.5587 24.8108 11.9057 23.6253C10.9869 23.4872 10.0771 22.8064 9.9887 21.6947C9.92486 20.9039 9.9807 20.0378 10.0776 19.2708C10.2755 17.7059 11.8342 16.9539 13.1723 17.2415L13.1733 17.2406C19.4697 18.5719 29.4328 17.8413 34.9155 17.1712V17.1703ZM35.1 18.6585H35.099C29.6192 19.3284 19.4306 20.0967 12.8637 18.7083L12.8598 18.7074C12.1706 18.5579 11.6283 18.9653 11.5658 19.4583C11.487 20.0822 11.4429 20.7376 11.4682 21.3265L11.4838 21.5746V21.5755C11.5034 21.823 11.7161 22.0809 12.1283 22.1429H12.1323C19.7119 23.3171 27.4502 23.8625 35.3969 22.1214H35.3979C35.947 22.0014 36.3631 21.4097 36.2826 20.7806C36.2324 20.3926 36.1773 19.9895 36.1069 19.598L36.0307 19.2113C35.9584 18.8761 35.6017 18.5964 35.1 18.6585Z" fill="#1A1A1A"/>
</svg>
