<svg width="48" height="55" viewBox="0 0 48 55" fill="none" xmlns="http://www.w3.org/2000/svg">
<path fill-rule="evenodd" clip-rule="evenodd" d="M21.8061 15.5461C16.0592 15.5201 12.3643 12.1851 10.5912 9.47108C10.0426 8.63208 10.3974 7.53505 11.2911 7.08005C19.1839 3.06005 22.9965 7.15707 24.5001 11.5391C26.0037 7.15707 29.8163 3.06005 37.7091 7.08005C38.6028 7.53505 38.9576 8.63208 38.409 9.47108C36.4724 12.4351 32.2431 16.1401 25.5515 15.4651L25.719 20.3421C25.7484 21.1991 25.0619 21.9091 24.2047 21.9091C23.4699 21.9091 22.841 21.3821 22.7127 20.6591L21.8061 15.5461Z" fill="#14AE5C"/>
<path d="M21.8059 15.5463L22.5444 15.4153C22.4811 15.0583 22.1717 14.7973 21.8093 14.7963L21.8059 15.5463ZM24.4999 11.5393L23.7905 11.7833C23.8945 12.0863 24.1795 12.2893 24.4999 12.2893C24.8203 12.2893 25.1053 12.0863 25.2093 11.7833L24.4999 11.5393ZM25.5513 15.4653L25.6266 14.7193C25.4112 14.6973 25.1969 14.7703 25.0389 14.9183C24.8808 15.0663 24.7944 15.2753 24.8018 15.4913L25.5513 15.4653ZM21.8093 14.7963C16.3834 14.7713 12.8967 11.6293 11.2189 9.06128L9.96309 9.88129C11.8315 12.7413 15.7346 16.2693 21.8026 16.2963L21.8093 14.7963ZM11.2189 9.06128C10.941 8.63628 11.0902 8.02426 11.6313 7.74826L10.9505 6.41226C9.70419 7.04626 9.14379 8.62729 9.96309 9.88129L11.2189 9.06128ZM11.6313 7.74826C15.443 5.80726 18.1076 5.90128 19.9545 6.82928C21.8361 7.77528 23.0708 9.68526 23.7905 11.7833L25.2093 11.2963C24.4254 9.01126 23.002 6.68229 20.6282 5.48929C18.2197 4.27829 15.0316 4.33326 10.9505 6.41226L11.6313 7.74826ZM38.0493 6.41226C33.9681 4.33326 30.7801 4.27829 28.3716 5.48929C25.9978 6.68229 24.5744 9.01126 23.7905 11.2963L25.2093 11.7833C25.9289 9.68526 27.1637 7.77528 29.0453 6.82928C30.8922 5.90128 33.5568 5.80726 37.3685 7.74826L38.0493 6.41226ZM39.0367 9.88129C39.856 8.62729 39.2956 7.04626 38.0493 6.41226L37.3685 7.74826C37.9096 8.02426 38.0588 8.63628 37.7809 9.06128L39.0367 9.88129ZM25.4761 16.2113C32.5236 16.9233 36.9945 13.0073 39.0367 9.88129L37.7809 9.06128C35.9498 11.8643 31.9621 15.3583 25.6266 14.7193L25.4761 16.2113ZM26.4684 20.3163L26.3009 15.4393L24.8018 15.4913L24.9692 20.3683L26.4684 20.3163ZM24.2045 22.6593C25.486 22.6593 26.5123 21.5973 26.4684 20.3163L24.9692 20.3683C24.9841 20.8003 24.6374 21.1593 24.2045 21.1593V22.6593ZM21.9741 20.7893C22.1659 21.8713 23.106 22.6593 24.2045 22.6593V21.1593C23.8334 21.1593 23.5158 20.8933 23.451 20.5283L21.9741 20.7893ZM21.0674 15.6773L21.9741 20.7893L23.451 20.5283L22.5444 15.4153L21.0674 15.6773Z" fill="#1A1A1A"/>
<path d="M27.4784 11.6363C29.6366 10.1013 32.0521 9.06727 33.9295 8.45227C34.4447 8.28327 34.4086 7.54527 33.8665 7.53927C30.3424 7.49727 28.0716 9.35928 26.8516 11.1263C26.5575 11.5523 27.0566 11.9363 27.4784 11.6363Z" fill="#036838"/>
<path d="M20.5215 11.6363C18.3633 10.1013 15.9478 9.06627 14.0704 8.45227C13.5552 8.28327 13.5913 7.54527 14.1334 7.53927C17.6575 7.49727 19.9283 9.35928 21.1483 11.1263C21.4424 11.5523 20.9433 11.9363 20.5215 11.6363Z" fill="#036838"/>
</svg>
