<svg width="48" height="55" viewBox="0 0 48 55" fill="none" xmlns="http://www.w3.org/2000/svg">
<path d="M39.9862 31.75C42.065 31.75 43.7502 30.065 43.7502 27.986C43.7502 27.224 43.7492 26.562 43.4722 25.307C43.202 24.083 42.6693 22.291 41.6264 19.236C41.091 17.668 38.8807 17.665 38.3434 19.234C37.3017 22.277 36.7696 24.07 36.4998 25.298C36.2233 26.556 36.2222 27.225 36.2222 27.986C36.2222 30.065 37.9074 31.75 39.9862 31.75Z" fill="#007BE5"/>
<path d="M35.4722 27.9863C35.4722 27.1996 35.4741 26.4695 35.7671 25.1367C36.0466 23.8645 36.5913 22.0378 37.6343 18.9912C38.4036 16.7446 41.5703 16.7503 42.3364 18.9931L40.9165 19.4785C40.6117 18.5858 39.3587 18.5857 39.0532 19.4765C38.0128 22.5157 37.492 24.2752 37.2319 25.4589C36.9719 26.642 36.9722 27.251 36.9722 27.9863C36.9724 29.6508 38.3215 30.9998 39.9858 31C41.6503 31 43.0003 29.6509 43.0005 27.9863C43.0005 27.2503 43.0002 26.6486 42.7397 25.4687C42.4792 24.2885 41.9582 22.5301 40.9165 19.4785L42.3364 18.9931C43.3803 22.0511 43.9248 23.8778 44.2046 25.1455C44.4981 26.4754 44.5005 27.1984 44.5005 27.9863C44.5003 30.4794 42.4787 32.5 39.9858 32.5C37.4931 32.4998 35.4724 30.4792 35.4722 27.9863Z" fill="#1A1A1A"/>
<path fill-rule="evenodd" clip-rule="evenodd" d="M41.7994 23.2275C42.6398 26.261 42.6095 27.9739 42.3111 28.8369C41.7994 30.3179 38.8248 30.9836 38.8248 29.8076C38.8253 28.7834 40.704 29.7156 41.3248 28.708C42.0687 27.5011 41.8908 26.3122 41.7994 23.2275ZM39.5103 19.6182C39.8213 19.723 39.0227 25.6386 38.1773 25.5127C37.6595 25.4357 39.1438 19.6182 39.5103 19.6182Z" fill="#BDE3FF"/>
</svg>
