<svg width="48" height="55" viewBox="0 0 48 55" fill="none" xmlns="http://www.w3.org/2000/svg">
<path d="M38.7499 1C39.7255 1 40.6049 1.44001 41.2233 2.14301C41.6115 2.58501 42.2583 2.79598 42.8375 2.69598C43.016 2.66498 43.1992 2.64801 43.3857 2.64801C45.2577 2.64901 46.7751 4.26698 46.7753 6.26398C46.7753 6.68498 46.7071 7.09 46.5826 7.466C46.4869 7.755 46.4869 8.06897 46.5826 8.35797C46.7073 8.73397 46.7753 9.13897 46.7753 9.56097C46.7752 11.557 45.2577 13.176 43.3857 13.176C42.8396 13.176 42.3235 13.038 41.8665 12.793C41.3797 12.533 40.7551 12.533 40.2682 12.793C39.8116 13.038 39.2959 13.176 38.7499 13.176C38.2921 13.176 37.8558 13.079 37.4576 12.903C37.0547 12.725 36.5821 12.725 36.1794 12.903C36.0698 12.951 35.9572 12.994 35.8422 13.03C35.6708 13.084 35.5101 13.168 35.3697 13.28C34.8042 13.732 34.1027 14 33.3418 14C31.4697 14 29.9513 12.382 29.9511 10.385C29.9511 10.225 29.8778 10.073 29.7533 9.97302C28.9352 9.31302 28.4062 8.26601 28.4062 7.08801C28.4063 5.39401 29.4986 3.97202 30.9729 3.58002C31.382 3.47102 31.7424 3.19697 31.9423 2.82397C32.526 1.73497 33.6256 1 34.8867 1C35.3445 1 35.7811 1.09697 36.1794 1.27197C36.5822 1.44997 37.0546 1.45001 37.4574 1.27301C37.8558 1.09701 38.2922 1 38.7499 1Z" fill="white"/>
<path d="M38.7499 1.75C39.4923 1.75 40.172 2.083 40.66 2.638L41.7865 1.64801C41.0376 0.79601 39.9586 0.25 38.75 0.25L38.7499 1.75ZM42.966 3.43402C43.1023 3.41102 43.2424 3.39801 43.3857 3.39801L43.3858 1.89801C43.1559 1.89801 42.9298 1.91797 42.7093 1.95697L42.966 3.43402ZM43.3857 3.39801C44.7988 3.39901 46.0252 4.63498 46.0253 6.26398H47.5253C47.5251 3.89898 45.7166 1.89901 43.3858 1.89801L43.3857 3.39801ZM46.0253 6.26398C46.0253 6.60398 45.9703 6.92898 45.8705 7.22998L47.2944 7.70203C47.444 7.25103 47.5253 6.76698 47.5253 6.26398H46.0253ZM45.8705 8.59399C45.9703 8.89499 46.0253 9.21997 46.0253 9.56097H47.5253C47.5253 9.05797 47.444 8.57301 47.2944 8.12201L45.8705 8.59399ZM46.0253 9.56097C46.0252 11.189 44.7987 12.426 43.3857 12.426L43.3857 13.926C45.7165 13.925 47.5252 11.925 47.5253 9.56097H46.0253ZM43.3857 12.426C42.9676 12.426 42.5728 12.321 42.2206 12.132L41.5126 13.455C42.0744 13.755 42.7115 13.926 43.3857 13.926L43.3857 12.426ZM39.914 12.132C39.5622 12.321 39.1678 12.426 38.7499 12.426V13.926C39.4239 13.926 40.0608 13.755 40.6223 13.455L39.914 12.132ZM38.7499 12.426C38.3995 12.426 38.0661 12.352 37.7603 12.217L37.1546 13.589C37.6453 13.806 38.1846 13.926 38.7499 13.926V12.426ZM35.8763 12.217C35.7921 12.254 35.7059 12.287 35.618 12.314L36.0667 13.746C36.2088 13.701 36.3474 13.649 36.4823 13.589L35.8763 12.217ZM34.9016 12.694C34.4604 13.047 33.9219 13.25 33.3418 13.25V14.75C34.2835 14.75 35.1479 14.417 35.8377 13.866L34.9016 12.694ZM33.3418 13.25C31.9285 13.25 30.7013 12.013 30.7011 10.385H29.2011C29.2013 12.75 31.0109 14.75 33.3418 14.75V13.25ZM30.2243 9.38898C29.5833 8.87198 29.1562 8.04001 29.1562 7.08801H27.6562C27.6562 8.49201 28.2871 9.75303 29.2822 10.556L30.2243 9.38898ZM29.1562 7.08801C29.1564 5.71201 30.0403 4.60402 31.1658 4.30402L30.7802 2.85498C28.9569 3.33998 27.6563 5.07501 27.6562 7.08801H29.1562ZM32.6034 3.17798C33.0704 2.30698 33.9303 1.75 34.8867 1.75V0.25C33.321 0.25 31.9818 1.16297 31.2812 2.46997L32.6034 3.17798ZM34.8867 1.75C35.2374 1.75 35.5711 1.82398 35.8769 1.95898L36.4818 0.585999C35.9909 0.369999 35.4516 0.25 34.8867 0.25V1.75ZM37.7598 1.95898C38.0656 1.82398 38.3993 1.75 38.7499 1.75L38.75 0.25C38.1851 0.25 37.6457 0.369999 37.1549 0.585999L37.7598 1.95898ZM35.8769 1.95898C36.4723 2.22098 37.1643 2.22098 37.7598 1.95898L37.1549 0.585999C36.9448 0.678999 36.6919 0.678999 36.4818 0.585999L35.8769 1.95898ZM30.7011 10.385C30.7011 9.99501 30.523 9.62998 30.2243 9.38898L29.2822 10.556C29.2326 10.516 29.2011 10.454 29.2011 10.385H30.7011ZM35.618 12.314C35.3606 12.395 35.1166 12.522 34.9016 12.694L35.8377 13.866C35.9035 13.814 35.9812 13.772 36.0667 13.746L35.618 12.314ZM42.2206 12.132C41.5125 11.753 40.6221 11.753 39.914 12.132L40.6223 13.455C40.8879 13.312 41.2469 13.312 41.5126 13.455L42.2206 12.132ZM37.7603 12.217C37.1645 11.954 36.472 11.954 35.8763 12.217L36.4823 13.589C36.6921 13.496 36.9448 13.496 37.1546 13.589L37.7603 12.217ZM31.1658 4.30402C31.7636 4.14502 32.2998 3.74498 32.6034 3.17798L31.2812 2.46997C31.1851 2.64997 31.0005 2.79598 30.7802 2.85498L31.1658 4.30402ZM45.8705 7.22998C45.7241 7.67198 45.7241 8.15199 45.8705 8.59399L47.2944 8.12201C47.2495 7.98601 47.2495 7.83803 47.2944 7.70203L45.8705 7.22998ZM40.66 2.638C41.2304 3.287 42.1445 3.57702 42.966 3.43402L42.7093 1.95697C42.3724 2.01497 41.9925 1.88201 41.7865 1.64801L40.66 2.638Z" fill="#1A1A1A"/>
<path d="M27.5093 16.0181C28.3428 16.0181 29.0186 15.3423 29.0186 14.5088C29.0186 13.6752 28.3428 12.9995 27.5093 12.9995C26.6757 12.9995 26 13.6752 26 14.5088C26 15.3423 26.6757 16.0181 27.5093 16.0181Z" fill="white"/>
<path d="M28.2686 14.5093C28.2686 14.0901 27.9289 13.7498 27.5098 13.7495C27.0904 13.7495 26.75 14.0899 26.75 14.5093C26.7503 14.9284 27.0906 15.2681 27.5098 15.2681C27.9287 15.2678 28.2683 14.9282 28.2686 14.5093ZM29.7686 14.5093C29.7683 15.7567 28.7571 16.7678 27.5098 16.7681C26.2622 16.7681 25.2503 15.7568 25.25 14.5093C25.25 13.2615 26.262 12.2495 27.5098 12.2495C28.7573 12.2498 29.7686 13.2617 29.7686 14.5093Z" fill="#1A1A1A"/>
<path d="M24.0093 19.0181C24.5667 19.0181 25.0186 18.5662 25.0186 18.0088C25.0186 17.4514 24.5667 16.9995 24.0093 16.9995C23.4519 16.9995 23 17.4514 23 18.0088C23 18.5662 23.4519 19.0181 24.0093 19.0181Z" fill="white"/>
<path d="M24.2686 18.0093C24.2686 17.8662 24.1527 17.7498 24.0098 17.7495C23.8666 17.7495 23.75 17.8661 23.75 18.0093C23.7503 18.1522 23.8667 18.2681 24.0098 18.2681C24.1526 18.2678 24.2683 18.1521 24.2686 18.0093ZM25.7686 18.0093C25.7683 18.9805 24.981 19.7678 24.0098 19.7681C23.0383 19.7681 22.2503 18.9807 22.25 18.0093C22.25 17.0377 23.0381 16.2495 24.0098 16.2495C24.9812 16.2498 25.7686 17.0378 25.7686 18.0093Z" fill="#1A1A1A"/>
<path d="M41.4975 8.46307C41.2702 8.46307 41.0575 8.39309 40.8595 8.25409C40.6615 8.11409 40.5625 7.88708 40.5625 7.57208C40.5625 7.33008 40.6249 7.13507 40.7495 6.98907C40.8742 6.83507 41.0172 6.72107 41.1785 6.64807C41.3472 6.57407 41.4902 6.53809 41.6075 6.53809C41.7322 6.53809 41.8715 6.56704 42.0255 6.62604C42.1869 6.67704 42.3262 6.77603 42.4435 6.92303C42.5609 7.06203 42.6195 7.26408 42.6195 7.52808C42.6195 7.78408 42.5095 8.00405 42.2895 8.18805C42.0769 8.37105 41.8129 8.46307 41.4975 8.46307Z" fill="#1A1A1A"/>
<path d="M37.4975 8.46307C37.2702 8.46307 37.0575 8.39309 36.8595 8.25409C36.6615 8.11409 36.5625 7.88708 36.5625 7.57208C36.5625 7.33008 36.6249 7.13507 36.7495 6.98907C36.8742 6.83507 37.0172 6.72107 37.1785 6.64807C37.3472 6.57407 37.4902 6.53809 37.6075 6.53809C37.7322 6.53809 37.8715 6.56704 38.0255 6.62604C38.1869 6.67704 38.3262 6.77603 38.4435 6.92303C38.5609 7.06203 38.6195 7.26408 38.6195 7.52808C38.6195 7.78408 38.5095 8.00405 38.2895 8.18805C38.0769 8.37105 37.8129 8.46307 37.4975 8.46307Z" fill="#1A1A1A"/>
<path d="M33.4975 8.46307C33.2702 8.46307 33.0575 8.39309 32.8595 8.25409C32.6615 8.11409 32.5625 7.88708 32.5625 7.57208C32.5625 7.33008 32.6249 7.13507 32.7495 6.98907C32.8742 6.83507 33.0172 6.72107 33.1785 6.64807C33.3472 6.57407 33.4902 6.53809 33.6075 6.53809C33.7322 6.53809 33.8715 6.56704 34.0255 6.62604C34.1869 6.67704 34.3262 6.77603 34.4435 6.92303C34.5609 7.06203 34.6195 7.26408 34.6195 7.52808C34.6195 7.78408 34.5095 8.00405 34.2895 8.18805C34.0769 8.37105 33.8129 8.46307 33.4975 8.46307Z" fill="#1A1A1A"/>
</svg>
