<svg width="48" height="55" viewBox="0 0 48 55" fill="none" xmlns="http://www.w3.org/2000/svg">
<path d="M11.4764 19.2298C11.74 16.4298 18.193 14.7498 25.8895 15.4698C33.5861 16.1998 39.6121 19.0598 39.3485 21.8598C39.0847 24.6598 32.6317 26.3398 24.9354 25.6098C19.7991 25.1298 15.4081 23.6998 13.1327 21.9598L14.0585 20.7198L11.8798 20.6699C11.5753 20.1999 11.4311 19.7198 11.4764 19.2298Z" fill="#383838"/>
<path d="M11.4759 19.2292C11.7317 16.5168 17.7964 14.8554 25.1722 15.4088L25.89 15.4694C33.5859 16.1994 39.6117 19.0593 39.349 21.859L37.8548 21.7194C37.8644 21.6092 37.8397 21.3195 37.3587 20.82C36.8816 20.32 36.0872 19.7799 34.9613 19.2399C32.7212 18.1799 29.47 17.3194 25.7493 16.9694C22.0286 16.6194 18.6736 16.8602 16.2747 17.4801C15.069 17.8001 14.1854 18.1895 13.6243 18.5895C13.2614 18.8459 13.0983 19.053 13.0257 19.195L14.0882 19.2194L14.9945 19.2399L15.8128 20.8698L15.2992 21.5592C17.4939 22.729 20.9663 23.7346 25.0765 24.1198C28.7972 24.4697 32.1523 24.23 34.5511 23.61C35.7568 23.29 36.6394 22.8996 37.2005 22.4997C37.7668 22.0997 37.8453 21.8194 37.8548 21.7194L39.349 21.859C39.0929 24.5713 33.029 26.233 25.6536 25.6706L24.9359 25.61C19.7997 25.13 15.4086 23.6996 13.1331 21.9596L14.0589 20.7194L11.8802 20.6696C11.5758 20.1996 11.4306 19.7192 11.4759 19.2292Z" fill="#1A1A1A"/>
<path d="M33.7187 21.5601C26.5796 22.8601 19.7924 20.95 17.275 19.63C16.9147 19.44 16.8351 18.98 17.0656 18.65L21.2251 12.59L25.7345 6.03004C25.7771 5.96004 25.8332 5.91002 25.8985 5.88002L31.7752 2.52003C32.029 2.37003 32.3526 2.47001 32.4763 2.74001L34.9993 8.14003L31.7112 6.40004C31.4984 6.29004 31.2356 6.35005 31.086 6.54005L29.2559 8.83998C29.1748 8.93998 29.1368 9.06997 29.1501 9.19997L29.6566 14.1701C29.6657 14.2601 29.6984 14.34 29.7513 14.41L34.1613 20.41C34.4812 20.84 34.2496 21.4601 33.7187 21.5601Z" fill="#383838"/>
<path d="M31.8723 18.0196C27.1158 18.8996 21.4981 17.4397 19.1322 16.5497C19.0514 16.5097 18.9624 16.5396 18.9075 16.6096L16.8816 19.0597C16.8013 19.1597 16.8303 19.3096 16.9418 19.3696L19.9732 20.9896C19.9906 20.9996 20.0093 20.9996 20.0286 21.0096L26.9645 22.3696C26.9876 22.3796 27.0113 22.3796 27.0346 22.3796L33.9474 21.2796C34.0934 21.2596 34.1647 21.0896 34.0798 20.9696L32.0738 18.1096C32.0286 18.0396 31.9499 18.0096 31.8723 18.0196Z" fill="#7C2BDA"/>
<path d="M31.3937 1.87504C32.028 1.50019 32.8443 1.75099 33.1555 2.42387L33.1564 2.4229L35.6789 7.82231C35.8152 8.11409 35.7499 8.46041 35.5168 8.68266C35.3129 8.87701 35.0207 8.93865 34.76 8.85063L34.6506 8.80376L31.5744 7.18364L30.1125 9.25297L29.8918 14.003L34.6682 19.918L34.7844 20.0831C35.3007 20.9311 34.8593 22.1128 33.798 22.3077L33.6037 21.2452L33.6623 21.5704L33.798 22.3077L33.7951 22.3086C26.7286 23.5793 20.0071 21.8036 17.1867 20.4258L16.926 20.294L16.925 20.293L17.2756 19.6299L17.4279 19.3399L16.925 20.293C16.1157 19.8659 15.9984 18.8753 16.4484 18.2256H16.4475L25.1164 5.60551L25.1174 5.60649C25.2192 5.45134 25.3573 5.32148 25.5275 5.23051L25.5266 5.22856L31.3937 1.87504ZM26.3195 6.50297L17.7228 19.0157C20.1704 20.2598 26.6514 22.0542 33.4836 20.8389L28.6652 14.8711C28.6614 14.8664 28.6582 14.8613 28.6545 14.8565L29.2268 14.417L29.2482 14.4004L28.6545 14.8565C28.4767 14.625 28.3745 14.3334 28.3889 14.0254L28.6184 9.11528C28.6296 8.87063 28.7096 8.64623 28.841 8.45512L28.8459 8.44731L30.4787 6.13676C30.8504 5.60614 31.5455 5.46647 32.0891 5.75981H32.0881L33.3771 6.43852L31.9123 3.30473L26.3195 6.50297ZM34.0275 20.4366L33.5305 20.8389L34.0851 20.3897L34.0275 20.4366ZM17.0656 18.6504L17.5978 19.0147L17.0168 18.6163L17.0656 18.6504ZM31.7326 6.41997L31.5041 6.85454H31.5031H31.5041L31.7609 6.36528L31.7326 6.41997ZM31.1184 6.58891L31.4992 6.85161L31.0793 6.56157L31.1184 6.58891Z" fill="#1A1A1A"/>
</svg>
