<svg width="48" height="55" viewBox="0 0 48 55" fill="none" xmlns="http://www.w3.org/2000/svg">
<path d="M35.9069 24.1398C24.0469 25.4898 17.0729 22.9299 15.0679 21.4799L27.8769 2.06982L35.9069 24.1398Z" fill="#2F15AC"/>
<path d="M32.6789 21.9761C32.6656 21.9083 32.6 21.8641 32.5322 21.8773C32.4645 21.8906 32.4203 21.9562 32.4335 22.024C32.4404 22.0592 32.4467 22.0966 32.4521 22.1361C32.4321 22.1077 32.4137 22.08 32.3968 22.0533C32.3598 21.9949 32.2826 21.9776 32.2243 22.0145C32.1659 22.0515 32.1486 22.1287 32.1856 22.187C32.2095 22.2248 32.236 22.2643 32.2654 22.305C32.2386 22.2998 32.2129 22.2942 32.1882 22.2883C32.121 22.2723 32.0536 22.3138 32.0376 22.381C32.0216 22.4481 32.0631 22.5156 32.1303 22.5315C32.1681 22.5406 32.208 22.5489 32.2499 22.5563C32.2312 22.5698 32.212 22.5832 32.1922 22.5965C32.135 22.6352 32.12 22.7129 32.1586 22.7701C32.1973 22.8273 32.275 22.8423 32.3322 22.8037C32.3715 22.7771 32.4089 22.7504 32.4446 22.7235C32.4399 22.7538 32.4346 22.7847 32.4285 22.8161C32.4153 22.8839 32.4596 22.9495 32.5273 22.9627C32.5951 22.9759 32.6607 22.9316 32.6739 22.8638C32.6812 22.8262 32.6875 22.7893 32.6929 22.7532C32.7252 22.7793 32.7591 22.8053 32.7945 22.8311C32.8503 22.8718 32.9285 22.8595 32.9692 22.8038C33.0098 22.748 32.9976 22.6698 32.9418 22.6291C32.9169 22.6109 32.8928 22.5927 32.8696 22.5744C32.9187 22.569 32.9692 22.562 33.0212 22.5532C33.0893 22.5416 33.135 22.477 33.1234 22.409C33.1118 22.3409 33.0473 22.2951 32.9792 22.3067C32.938 22.3138 32.8978 22.3195 32.8587 22.324C32.8982 22.2745 32.9331 22.2261 32.9642 22.1795C33.0025 22.122 32.987 22.0444 32.9296 22.0061C32.8721 21.9678 32.7945 21.9833 32.7562 22.0408C32.7395 22.0659 32.7214 22.0917 32.7018 22.118C32.6954 22.0678 32.6875 22.0205 32.6789 21.9761Z" fill="#FFC21A"/>
<path d="M31.5128 14.3257C31.4996 14.2579 31.434 14.2137 31.3662 14.2269C31.2985 14.2402 31.2542 14.3058 31.2675 14.3736C31.2744 14.4088 31.2807 14.4462 31.2861 14.4858C31.266 14.4573 31.2477 14.4296 31.2307 14.4029C31.1938 14.3445 31.1166 14.3272 31.0583 14.3641C30.9999 14.4011 30.9826 14.4783 31.0195 14.5366C31.0435 14.5745 31.07 14.6139 31.0994 14.6546C31.0726 14.6494 31.0468 14.6438 31.0221 14.6379C30.955 14.622 30.8876 14.6634 30.8716 14.7306C30.8556 14.7978 30.8971 14.8652 30.9642 14.8812C31.0021 14.8902 31.042 14.8985 31.0839 14.906C31.0652 14.9194 31.046 14.9328 31.0262 14.9461C30.969 14.9848 30.954 15.0625 30.9926 15.1197C31.0313 15.1769 31.109 15.1919 31.1662 15.1533C31.2055 15.1267 31.2429 15.1 31.2786 15.0731C31.2739 15.1034 31.2686 15.1343 31.2624 15.1658C31.2493 15.2335 31.2935 15.2991 31.3613 15.3123C31.4291 15.3255 31.4947 15.2812 31.5079 15.2134C31.5152 15.1758 31.5215 15.1389 31.5269 15.1028C31.5592 15.1289 31.593 15.1549 31.6285 15.1807C31.6843 15.2214 31.7625 15.2092 31.8031 15.1534C31.8438 15.0976 31.8316 15.0194 31.7758 14.9787C31.7508 14.9605 31.7268 14.9423 31.7036 14.924C31.7527 14.9187 31.8032 14.9117 31.8552 14.9028C31.9233 14.8912 31.969 14.8266 31.9574 14.7586C31.9458 14.6905 31.8812 14.6447 31.8132 14.6563C31.7719 14.6634 31.7318 14.6691 31.6927 14.6736C31.7322 14.6241 31.7671 14.5757 31.7982 14.5291C31.8365 14.4716 31.821 14.394 31.7635 14.3557C31.7061 14.3174 31.6285 14.333 31.5902 14.3904C31.5735 14.4155 31.5554 14.4413 31.5358 14.4676C31.5294 14.4174 31.5215 14.3701 31.5128 14.3257Z" fill="#FFC21A"/>
<path d="M26.3625 12.2109C26.3492 12.1432 26.2836 12.099 26.2158 12.1122C26.1481 12.1254 26.1039 12.1911 26.1171 12.2588C26.124 12.2941 26.1303 12.3315 26.1357 12.371C26.1157 12.3425 26.0973 12.3149 26.0803 12.2881C26.0434 12.2298 25.9662 12.2125 25.9079 12.2494C25.8495 12.2863 25.8322 12.3636 25.8691 12.4219C25.8931 12.4597 25.9196 12.4992 25.949 12.5399C25.9222 12.5347 25.8965 12.5291 25.8718 12.5232C25.8046 12.5072 25.7372 12.5487 25.7212 12.6159C25.7052 12.683 25.7467 12.7504 25.8138 12.7664C25.8517 12.7754 25.8916 12.7838 25.9335 12.7912C25.9148 12.8046 25.8956 12.818 25.8758 12.8314C25.8186 12.87 25.8036 12.9477 25.8422 13.0049C25.8809 13.0621 25.9586 13.0772 26.0158 13.0385C26.0551 13.012 26.0925 12.9852 26.1282 12.9584C26.1235 12.9886 26.1182 13.0195 26.1121 13.051C26.0989 13.1188 26.1432 13.1844 26.2109 13.1976C26.2787 13.2107 26.3443 13.1665 26.3575 13.0987C26.3648 13.0611 26.3711 13.0242 26.3765 12.9881C26.4088 13.0141 26.4427 13.0401 26.4781 13.066C26.5339 13.1067 26.6121 13.0944 26.6527 13.0386C26.6934 12.9828 26.6812 12.9047 26.6254 12.864C26.6004 12.8458 26.5764 12.8275 26.5532 12.8092C26.6023 12.8039 26.6528 12.7969 26.7048 12.788C26.7729 12.7764 26.8186 12.7119 26.807 12.6438C26.7954 12.5758 26.7309 12.53 26.6628 12.5416C26.6215 12.5486 26.5814 12.5544 26.5423 12.5589C26.5818 12.5093 26.6167 12.461 26.6478 12.4143C26.6861 12.3569 26.6706 12.2793 26.6132 12.241C26.5557 12.2027 26.4781 12.2182 26.4398 12.2756C26.4231 12.3008 26.405 12.3266 26.3854 12.3529C26.379 12.3027 26.3711 12.2554 26.3625 12.2109Z" fill="#FFC21A"/>
<path d="M29.3546 11.0161C29.3414 10.9484 29.2758 10.9042 29.208 10.9174C29.1402 10.9306 29.096 10.9963 29.1093 11.064C29.1162 11.0993 29.1225 11.1366 29.1279 11.1762C29.1078 11.1477 29.0895 11.12 29.0725 11.0933C29.0356 11.035 28.9584 11.0176 28.9001 11.0546C28.8417 11.0915 28.8244 11.1687 28.8613 11.2271C28.8853 11.2649 28.9118 11.3043 28.9412 11.345C28.9144 11.3399 28.8886 11.3343 28.8639 11.3284C28.7968 11.3124 28.7294 11.3539 28.7134 11.421C28.6974 11.4882 28.7389 11.5556 28.806 11.5716C28.8439 11.5806 28.8838 11.589 28.9257 11.5964C28.907 11.6098 28.8878 11.6232 28.868 11.6366C28.8108 11.6752 28.7958 11.7529 28.8344 11.8101C28.8731 11.8673 28.9508 11.8823 29.008 11.8437C29.0473 11.8171 29.0847 11.7904 29.1204 11.7635C29.1157 11.7938 29.1104 11.8247 29.1042 11.8562C29.0911 11.924 29.1353 11.9896 29.2031 12.0027C29.2709 12.0159 29.3365 11.9716 29.3497 11.9039C29.357 11.8662 29.3633 11.8294 29.3687 11.7932C29.401 11.8193 29.4348 11.8453 29.4703 11.8712C29.5261 11.9118 29.6043 11.8996 29.6449 11.8438C29.6856 11.788 29.6734 11.7098 29.6176 11.6692C29.5926 11.651 29.5686 11.6327 29.5454 11.6144C29.5945 11.6091 29.645 11.6021 29.697 11.5932C29.7651 11.5816 29.8108 11.517 29.7992 11.449C29.7876 11.3809 29.723 11.3352 29.655 11.3468C29.6137 11.3538 29.5736 11.3595 29.5345 11.3641C29.574 11.3145 29.6089 11.2661 29.64 11.2195C29.6783 11.1621 29.6628 11.0844 29.6053 11.0462C29.5479 11.0079 29.4703 11.0234 29.432 11.0808C29.4152 11.1059 29.3972 11.1317 29.3776 11.1581C29.3712 11.1079 29.3633 11.0605 29.3546 11.0161Z" fill="#FFC21A"/>
<path d="M23.6266 10.1357C23.6134 10.068 23.5477 10.0238 23.48 10.037C23.4122 10.0502 23.368 10.1159 23.3812 10.1836C23.3881 10.2189 23.3945 10.2563 23.3998 10.2958C23.3798 10.2673 23.3614 10.2397 23.3445 10.2129C23.3076 10.1546 23.2303 10.1373 23.172 10.1742C23.1137 10.2111 23.0964 10.2884 23.1333 10.3467C23.1573 10.3845 23.1837 10.424 23.2132 10.4647C23.1864 10.4595 23.1606 10.4539 23.1359 10.448C23.0688 10.432 23.0014 10.4735 22.9854 10.5407C22.9694 10.6078 23.0109 10.6752 23.078 10.6912C23.1158 10.7002 23.1557 10.7086 23.1977 10.716C23.179 10.7294 23.1598 10.7428 23.14 10.7562C23.0828 10.7948 23.0677 10.8725 23.1064 10.9297C23.145 10.9869 23.2228 11.002 23.28 10.9633C23.3193 10.9368 23.3567 10.91 23.3923 10.8832C23.3877 10.9134 23.3823 10.9443 23.3762 10.9758C23.3631 11.0436 23.4073 11.1092 23.4751 11.1224C23.5429 11.1355 23.6085 11.0913 23.6216 11.0235C23.6289 10.9859 23.6353 10.949 23.6407 10.9129C23.673 10.9389 23.7068 10.9649 23.7423 10.9908C23.798 11.0315 23.8762 11.0192 23.9169 10.9634C23.9576 10.9077 23.9453 10.8295 23.8896 10.7888C23.8646 10.7706 23.8406 10.7523 23.8174 10.7341C23.8665 10.7287 23.917 10.7217 23.969 10.7129C24.037 10.7013 24.0828 10.6367 24.0712 10.5686C24.0596 10.5006 23.995 10.4548 23.927 10.4664C23.8857 10.4734 23.8455 10.4792 23.8065 10.4837C23.846 10.4341 23.8809 10.3858 23.912 10.3391C23.9503 10.2817 23.9348 10.2041 23.8773 10.1658C23.8199 10.1275 23.7423 10.143 23.704 10.2005C23.6872 10.2256 23.6692 10.2514 23.6496 10.2777C23.6431 10.2275 23.6353 10.1802 23.6266 10.1357Z" fill="#FFC21A"/>
<path d="M23.3615 14.1411C23.3482 14.0734 23.2826 14.0292 23.2148 14.0424C23.1471 14.0556 23.1029 14.1213 23.1161 14.189C23.123 14.2243 23.1293 14.2616 23.1347 14.3012C23.1147 14.2727 23.0963 14.245 23.0794 14.2183C23.0424 14.16 22.9652 14.1426 22.9069 14.1796C22.8486 14.2165 22.8312 14.2937 22.8682 14.3521C22.8921 14.3899 22.9186 14.4293 22.948 14.47C22.9212 14.4649 22.8955 14.4593 22.8708 14.4534C22.8036 14.4374 22.7362 14.4789 22.7202 14.546C22.7042 14.6132 22.7457 14.6806 22.8129 14.6966C22.8507 14.7056 22.8906 14.714 22.9325 14.7214C22.9138 14.7348 22.8946 14.7482 22.8749 14.7616C22.8177 14.8002 22.8026 14.8779 22.8413 14.9351C22.8799 14.9923 22.9576 15.0073 23.0148 14.9687C23.0541 14.9421 23.0915 14.9154 23.1272 14.8885C23.1226 14.9188 23.1172 14.9497 23.1111 14.9812C23.0979 15.049 23.1422 15.1146 23.2099 15.1277C23.2777 15.1409 23.3433 15.0966 23.3565 15.0289C23.3638 14.9912 23.3701 14.9544 23.3755 14.9182C23.4078 14.9443 23.4417 14.9703 23.4771 14.9962C23.5329 15.0368 23.6111 15.0246 23.6518 14.9688C23.6924 14.913 23.6802 14.8348 23.6244 14.7942C23.5995 14.776 23.5754 14.7577 23.5523 14.7394C23.6013 14.7341 23.6518 14.7271 23.7038 14.7182C23.7719 14.7066 23.8177 14.642 23.8061 14.574C23.7945 14.5059 23.7299 14.4602 23.6618 14.4718C23.6206 14.4788 23.5804 14.4845 23.5413 14.4891C23.5808 14.4395 23.6158 14.3911 23.6468 14.3445C23.6851 14.2871 23.6696 14.2094 23.6122 14.1712C23.5547 14.1329 23.4771 14.1484 23.4388 14.2058C23.4221 14.2309 23.404 14.2567 23.3845 14.2831C23.378 14.2329 23.3701 14.1855 23.3615 14.1411Z" fill="#FFC21A"/>
<path d="M25.6535 16.271C25.6402 16.2032 25.5746 16.159 25.5068 16.1723C25.4391 16.1855 25.3949 16.2511 25.4081 16.3189C25.415 16.3541 25.4213 16.3915 25.4267 16.4311C25.4067 16.4026 25.3883 16.3749 25.3714 16.3482C25.3344 16.2899 25.2572 16.2725 25.1989 16.3095C25.1406 16.3464 25.1232 16.4236 25.1602 16.4819C25.1841 16.5198 25.2106 16.5592 25.24 16.5999C25.2132 16.5947 25.1875 16.5891 25.1628 16.5833C25.0956 16.5673 25.0282 16.6088 25.0122 16.6759C24.9962 16.7431 25.0377 16.8105 25.1049 16.8265C25.1427 16.8355 25.1826 16.8439 25.2245 16.8513C25.2058 16.8647 25.1866 16.8781 25.1668 16.8914C25.1096 16.9301 25.0946 17.0078 25.1333 17.065C25.1719 17.1222 25.2496 17.1372 25.3068 17.0986C25.3461 17.072 25.3835 17.0453 25.4192 17.0184C25.4145 17.0487 25.4092 17.0796 25.4031 17.1111C25.3899 17.1788 25.4342 17.2445 25.5019 17.2576C25.5697 17.2708 25.6353 17.2265 25.6485 17.1588C25.6558 17.1211 25.6621 17.0842 25.6675 17.0481C25.6998 17.0742 25.7337 17.1002 25.7691 17.126C25.8249 17.1667 25.9031 17.1545 25.9438 17.0987C25.9844 17.0429 25.9722 16.9647 25.9164 16.924C25.8915 16.9059 25.8674 16.8876 25.8443 16.8693C25.8933 16.864 25.9438 16.857 25.9958 16.8481C26.0639 16.8365 26.1096 16.7719 26.098 16.7039C26.0864 16.6358 26.0219 16.5901 25.9538 16.6017C25.9126 16.6087 25.8724 16.6144 25.8333 16.619C25.8728 16.5694 25.9077 16.521 25.9388 16.4744C25.9771 16.4169 25.9616 16.3393 25.9042 16.301C25.8467 16.2627 25.7691 16.2783 25.7308 16.3357C25.7141 16.3608 25.696 16.3866 25.6765 16.4129C25.67 16.3627 25.6621 16.3154 25.6535 16.271Z" fill="#FFC21A"/>
<path d="M20.9245 16.7109C20.9112 16.6432 20.8456 16.599 20.7778 16.6122C20.7101 16.6254 20.6659 16.6911 20.6791 16.7588C20.686 16.7941 20.6923 16.8315 20.6977 16.871C20.6777 16.8425 20.6593 16.8149 20.6424 16.7881C20.6054 16.7298 20.5282 16.7125 20.4699 16.7494C20.4116 16.7863 20.3942 16.8636 20.4312 16.9219C20.4551 16.9597 20.4816 16.9992 20.511 17.0399C20.4842 17.0347 20.4585 17.0291 20.4338 17.0232C20.3666 17.0072 20.2992 17.0487 20.2832 17.1159C20.2672 17.183 20.3087 17.2504 20.3759 17.2664C20.4137 17.2754 20.4536 17.2838 20.4955 17.2912C20.4768 17.3046 20.4576 17.318 20.4378 17.3314C20.3806 17.37 20.3656 17.4477 20.4043 17.5049C20.4429 17.5621 20.5206 17.5772 20.5778 17.5385C20.6171 17.512 20.6545 17.4852 20.6902 17.4584C20.6855 17.4886 20.6802 17.5195 20.6741 17.551C20.6609 17.6188 20.7052 17.6844 20.7729 17.6976C20.8407 17.7107 20.9063 17.6665 20.9195 17.5987C20.9268 17.5611 20.9331 17.5242 20.9385 17.4881C20.9708 17.5141 21.0047 17.5401 21.0401 17.566C21.0959 17.6067 21.1741 17.5944 21.2148 17.5386C21.2554 17.4828 21.2432 17.4047 21.1874 17.364C21.1625 17.3458 21.1384 17.3275 21.1152 17.3092C21.1643 17.3039 21.2148 17.2969 21.2668 17.288C21.3349 17.2764 21.3806 17.2119 21.369 17.1438C21.3574 17.0758 21.2929 17.03 21.2248 17.0416C21.1836 17.0486 21.1434 17.0544 21.1043 17.0589C21.1438 17.0093 21.1787 16.961 21.2098 16.9143C21.2481 16.8569 21.2326 16.7793 21.1752 16.741C21.1177 16.7027 21.0401 16.7182 21.0018 16.7756C20.9851 16.8008 20.967 16.8266 20.9475 16.8529C20.941 16.8027 20.9331 16.7554 20.9245 16.7109Z" fill="#FFC21A"/>
<path d="M23.672 19.126C23.6588 19.0582 23.5931 19.014 23.5254 19.0272C23.4576 19.0405 23.4134 19.1061 23.4267 19.1739C23.4335 19.2091 23.4399 19.2465 23.4452 19.286C23.4252 19.2576 23.4069 19.2299 23.3899 19.2032C23.353 19.1448 23.2758 19.1275 23.2174 19.1644C23.1591 19.2014 23.1418 19.2786 23.1787 19.3369C23.2027 19.3747 23.2292 19.4142 23.2586 19.4549C23.2318 19.4497 23.206 19.4441 23.1813 19.4382C23.1142 19.4223 23.0468 19.4637 23.0308 19.5309C23.0148 19.598 23.0563 19.6655 23.1234 19.6814C23.1613 19.6905 23.2011 19.6988 23.2431 19.7062C23.2244 19.7197 23.2052 19.7331 23.1854 19.7464C23.1282 19.7851 23.1132 19.8628 23.1518 19.92C23.1905 19.9772 23.2682 19.9922 23.3254 19.9536C23.3647 19.927 23.4021 19.9003 23.4377 19.8734C23.4331 19.9037 23.4277 19.9346 23.4216 19.9661C23.4085 20.0338 23.4527 20.0994 23.5205 20.1126C23.5883 20.1258 23.6539 20.0815 23.667 20.0137C23.6744 19.9761 23.6807 19.9392 23.6861 19.9031C23.7184 19.9292 23.7522 19.9552 23.7877 19.981C23.8434 20.0217 23.9216 20.0094 23.9623 19.9537C24.003 19.8979 23.9907 19.8197 23.935 19.779C23.91 19.7608 23.886 19.7426 23.8628 19.7243C23.9119 19.7189 23.9624 19.7119 24.0144 19.7031C24.0824 19.6915 24.1282 19.6269 24.1166 19.5589C24.105 19.4908 24.0404 19.445 23.9724 19.4566C23.9311 19.4637 23.891 19.4694 23.8519 19.4739C23.8914 19.4244 23.9263 19.376 23.9574 19.3294C23.9957 19.2719 23.9802 19.1943 23.9227 19.156C23.8653 19.1177 23.7877 19.1332 23.7494 19.1907C23.7326 19.2158 23.7146 19.2416 23.695 19.2679C23.6886 19.2177 23.6807 19.1704 23.672 19.126Z" fill="#FFC21A"/>
<path d="M19.5197 20.4209C19.5065 20.3531 19.4408 20.3089 19.373 20.3222C19.3053 20.3354 19.2611 20.401 19.2743 20.4688C19.2812 20.504 19.2875 20.5414 19.2929 20.581C19.2729 20.5525 19.2545 20.5248 19.2376 20.4981C19.2006 20.4398 19.1234 20.4224 19.0651 20.4594C19.0068 20.4963 18.9894 20.5735 19.0264 20.6318C19.0503 20.6697 19.0768 20.7091 19.1062 20.7498C19.0794 20.7446 19.0537 20.739 19.029 20.7332C18.9618 20.7172 18.8944 20.7587 18.8784 20.8258C18.8624 20.893 18.9039 20.9604 18.9711 20.9764C19.0089 20.9854 19.0488 20.9938 19.0907 21.0012C19.072 21.0146 19.0528 21.028 19.0331 21.0413C18.9759 21.08 18.9608 21.1577 18.9995 21.2149C19.0381 21.2721 19.1158 21.2871 19.173 21.2485C19.2123 21.2219 19.2497 21.1952 19.2854 21.1683C19.2808 21.1986 19.2754 21.2295 19.2693 21.261C19.2561 21.3287 19.3004 21.3944 19.3682 21.4075C19.4359 21.4207 19.5015 21.3764 19.5147 21.3087C19.522 21.271 19.5283 21.2341 19.5337 21.198C19.5661 21.2241 19.5999 21.2501 19.6353 21.2759C19.6911 21.3166 19.7693 21.3044 19.81 21.2486C19.8506 21.1928 19.8384 21.1146 19.7826 21.0739C19.7577 21.0558 19.7336 21.0375 19.7105 21.0192C19.7595 21.0139 19.81 21.0069 19.862 20.998C19.9301 20.9864 19.9759 20.9218 19.9643 20.8538C19.9527 20.7857 19.8881 20.74 19.82 20.7516C19.7788 20.7586 19.7386 20.7643 19.6995 20.7689C19.739 20.7193 19.774 20.6709 19.805 20.6243C19.8433 20.5668 19.8278 20.4892 19.7704 20.4509C19.7129 20.4126 19.6353 20.4282 19.597 20.4856C19.5803 20.5107 19.5622 20.5365 19.5427 20.5628C19.5362 20.5126 19.5284 20.4653 19.5197 20.4209Z" fill="#FFC21A"/>
<path d="M26.2594 8.13574C26.2462 8.06798 26.1805 8.02378 26.1128 8.03701C26.045 8.05024 26.0008 8.11589 26.0141 8.18364C26.0209 8.21889 26.0273 8.25628 26.0326 8.29582C26.0126 8.26735 25.9943 8.23966 25.9773 8.21292C25.9404 8.1546 25.8632 8.13726 25.8048 8.1742C25.7465 8.21114 25.7292 8.28836 25.7661 8.34668C25.7901 8.38451 25.8166 8.42397 25.846 8.46465C25.8192 8.45948 25.7934 8.45389 25.7687 8.44801C25.7016 8.43202 25.6342 8.4735 25.6182 8.54066C25.6022 8.60781 25.6437 8.67522 25.7108 8.69121C25.7487 8.70022 25.7885 8.7086 25.8305 8.71601C25.8118 8.72943 25.7926 8.74283 25.7728 8.75618C25.7156 8.79483 25.7006 8.87253 25.7392 8.92974C25.7779 8.98694 25.8556 9.00198 25.9128 8.96333C25.9521 8.93677 25.9895 8.91002 26.0251 8.88317C26.0205 8.91343 26.0152 8.94432 26.009 8.97582C25.9959 9.04359 26.0401 9.1092 26.1079 9.12236C26.1757 9.13553 26.2413 9.09127 26.2544 9.0235C26.2618 8.98587 26.2681 8.94899 26.2735 8.91287C26.3058 8.93894 26.3396 8.96494 26.3751 8.99079C26.4309 9.03146 26.509 9.01921 26.5497 8.96343C26.5904 8.90765 26.5781 8.82946 26.5224 8.78879C26.4974 8.7706 26.4734 8.75234 26.4502 8.73405C26.4993 8.72871 26.5498 8.72171 26.6018 8.71285C26.6698 8.70125 26.7156 8.63668 26.704 8.56862C26.6924 8.50057 26.6278 8.45481 26.5598 8.46641C26.5185 8.47344 26.4784 8.47916 26.4393 8.4837C26.4788 8.43415 26.5137 8.38576 26.5448 8.33913C26.5831 8.28169 26.5676 8.20408 26.5101 8.16578C26.4527 8.12749 26.3751 8.14301 26.3368 8.20045C26.32 8.22557 26.302 8.25136 26.2824 8.27769C26.276 8.22748 26.2681 8.18016 26.2594 8.13574Z" fill="#FFC21A"/>
<path d="M28.5197 5.39062C28.5065 5.32287 28.4408 5.27866 28.373 5.29189C28.3053 5.30512 28.2611 5.37077 28.2743 5.43853C28.2812 5.47377 28.2875 5.51116 28.2929 5.5507C28.2729 5.52223 28.2545 5.49454 28.2376 5.4678C28.2006 5.40948 28.1234 5.39214 28.0651 5.42908C28.0068 5.46602 27.9894 5.54324 28.0264 5.60157C28.0503 5.63939 28.0768 5.67885 28.1062 5.71954C28.0794 5.71437 28.0537 5.70877 28.029 5.70289C27.9618 5.6869 27.8944 5.72838 27.8784 5.79554C27.8624 5.8627 27.9039 5.9301 27.9711 5.94609C28.0089 5.9551 28.0488 5.96349 28.0907 5.97089C28.072 5.98431 28.0528 5.99771 28.0331 6.01106C27.9759 6.04971 27.9608 6.12742 27.9995 6.18462C28.0381 6.24182 28.1158 6.25686 28.173 6.21821C28.2123 6.19166 28.2497 6.16491 28.2854 6.13805C28.2808 6.16832 28.2754 6.1992 28.2693 6.2307C28.2561 6.29847 28.3004 6.36408 28.3682 6.37725C28.4359 6.39041 28.5015 6.34615 28.5147 6.27838C28.522 6.24075 28.5283 6.20388 28.5337 6.16775C28.5661 6.19383 28.5999 6.21983 28.6353 6.24567C28.6911 6.28634 28.7693 6.2741 28.81 6.21832C28.8506 6.16253 28.8384 6.08434 28.7826 6.04367C28.7577 6.02548 28.7336 6.00723 28.7105 5.98893C28.7595 5.9836 28.81 5.9766 28.862 5.96773C28.9301 5.95613 28.9759 5.89156 28.9643 5.82351C28.9527 5.75545 28.8881 5.70969 28.82 5.72129C28.7788 5.72832 28.7386 5.73404 28.6995 5.73859C28.739 5.68903 28.774 5.64064 28.805 5.59401C28.8433 5.53657 28.8278 5.45896 28.7704 5.42067C28.7129 5.38237 28.6353 5.39789 28.597 5.45533C28.5803 5.48045 28.5622 5.50624 28.5427 5.53257C28.5362 5.48237 28.5284 5.43505 28.5197 5.39062Z" fill="#FFC21A"/>
<path d="M23.566 22.36C31.726 25.5 32.989 17.1299 28.279 14.6799C28.131 14.5999 27.969 14.7399 28.008 14.8999C28.61 17.3999 28.576 20.22 23.571 21.99C23.396 22.05 23.393 22.3 23.566 22.36Z" fill="#FFC21A"/>
<path fill-rule="evenodd" clip-rule="evenodd" d="M27.9646 1.32498C28.2461 1.35812 28.4848 1.54708 28.5817 1.8134L36.6117 23.8834C36.6903 24.0992 36.6656 24.3392 36.5446 24.5345C36.4237 24.7298 36.22 24.859 35.9918 24.885C29.9926 25.5678 25.2087 25.2642 21.6535 24.597C18.1182 23.9335 15.7543 22.9018 14.6284 22.0876C14.3029 21.8522 14.2207 21.4021 14.442 21.0668L27.2509 1.65674C27.407 1.4202 27.6832 1.29185 27.9646 1.32498ZM16.117 21.2518C17.2095 21.8537 19.1389 22.5988 21.9301 23.1227C25.1429 23.7256 29.4596 24.0279 34.8743 23.4952L27.6818 3.72715L16.117 21.2518Z" fill="#1A1A1A"/>
</svg>
