<svg width="48" height="55" viewBox="0 0 48 55" fill="none" xmlns="http://www.w3.org/2000/svg">
<path d="M25.0599 31.002C28.8709 31.002 32.7057 33.1432 35.6136 36.4072C38.5176 39.6661 40.4055 43.9458 40.4056 48.0557C40.4056 48.5807 40.4181 49.0774 40.4301 49.5244C40.435 49.7392 40.4398 49.942 40.4427 50.1318C40.4537 50.7368 40.447 51.2191 40.391 51.6211C40.336 52.0168 40.239 52.2967 40.0951 52.5146C39.9551 52.7256 39.7377 52.9292 39.3627 53.1162C38.5686 53.5121 37.1843 53.7863 34.7426 53.9463C32.3286 54.1043 28.9894 54.1465 24.3627 54.1465C23.3927 54.1465 22.4578 54.0566 21.5638 53.8877L16.0433 54.2959C15.1125 54.3644 14.2769 53.8762 13.85 53.1221C13.3008 53.2073 12.7346 53.2549 12.1556 53.2549C7.09296 53.2548 3.07287 51.4048 3.07263 47.2002C3.07267 46.0805 3.8289 44.2069 5.09802 42.4443C4.3171 41.535 3.76024 40.3465 3.57361 38.9717C3.10062 35.4847 5.22199 32.4371 8.10291 31.999C10.8931 31.575 13.6485 33.7108 14.2504 37.0107C14.5294 36.6913 14.824 36.3709 15.1322 36.0537C17.7582 33.3538 21.2741 31.002 25.0599 31.002Z" fill="#D9B8FF"/>
<path d="M18.7816 53.8848L16.1459 54.2773C14.7789 54.4813 13.5502 53.422 13.5502 52.04C13.5503 50.8452 14.4803 49.8562 15.6732 49.7832L17.8676 49.6484L18.7816 53.8848ZM26.4232 37.2012C29.5828 37.2014 32.1449 39.6072 32.1449 42.5742C32.1448 44.3855 31.1886 45.9859 29.726 46.959C29.7975 47.0204 29.8643 47.0906 29.9213 47.1719C31.3263 49.1789 33.9003 51.4148 37.5892 51.0908C42.4619 50.6618 43.7341 48.3491 43.7601 47.2471C43.9631 45.6521 42.464 45.4002 41.058 45.3682C40.5811 45.3562 40.1668 45.0293 40.0707 44.5625L39.9076 43.7754C39.7866 43.1894 40.2051 42.623 40.8031 42.624C44.485 42.6271 46.4072 44.4222 46.6332 46.9941C46.8811 49.8161 43.6008 53.4056 37.101 53.9766C30.6924 54.5404 28.4926 48.7628 28.3461 47.6338C27.745 47.8352 27.098 47.9462 26.4232 47.9463C23.2636 47.9462 20.7027 45.5411 20.7025 42.5742C20.7025 39.6071 23.2635 37.2012 26.4232 37.2012ZM3.44958 49.249C3.89947 50.3691 4.73357 51.2381 5.84314 51.877L6.29138 53.3525L3.53064 53.7666C2.16384 53.9704 0.935117 52.912 0.934937 51.5303C0.934937 50.3353 1.86504 49.3465 3.05798 49.2734L3.44958 49.249ZM8.19568 32.9414C10.3358 32.942 12.0844 35.1944 12.1976 38.0293C12.1843 38.0292 12.1699 38.0293 12.1566 38.0293C9.42977 38.0294 7.00562 39.9412 5.349 42.1084C4.63135 41.1363 4.18695 39.7989 4.18689 38.3223C4.18689 35.3509 5.98202 32.9415 8.19568 32.9414Z" fill="#FFE0FC"/>
<path d="M25.0599 30.252C29.1475 30.252 33.1718 32.5383 36.1742 35.9082C37.7877 37.719 39.1037 39.8436 39.9779 42.0928C40.2148 41.9557 40.493 41.8747 40.8031 41.875C42.7604 41.8766 44.343 42.354 45.4808 43.2588C46.6296 44.1725 47.2515 45.4634 47.3802 46.9287C47.5321 48.6594 46.6009 50.4834 44.8744 51.9082C43.1351 53.3434 40.538 54.4274 37.1664 54.7236C36.3776 54.793 35.6459 54.7722 34.9681 54.6807C34.91 54.6847 34.8515 54.6905 34.7924 54.6943C32.3507 54.8541 28.9883 54.8965 24.3636 54.8965C24.3066 54.8965 24.2496 54.8932 24.1927 54.8926C24.1508 54.8999 24.1079 54.9053 24.0638 54.9053H15.6566C14.8797 54.9053 14.1765 54.5933 13.6615 54.0898C13.1616 54.1389 12.6587 54.1679 12.1566 54.168C11.8452 54.168 11.5363 54.1602 11.2308 54.1465L3.48181 54.7188C1.7023 54.8495 0.18504 53.44 0.184937 51.6543C0.185388 50.2401 1.14479 49.0449 2.45544 48.6914C2.36998 48.2732 2.32362 47.8308 2.32361 47.3633C2.32381 46.5589 2.62628 45.5465 3.10095 44.5254C3.39911 43.8842 3.7776 43.2116 4.22595 42.5479C3.51091 41.5833 3.0112 40.3968 2.83142 39.0723C2.31452 35.2606 4.62889 31.7702 7.9906 31.2588L8.30603 31.2197C11.0276 30.9642 13.5578 32.7605 14.6078 35.5166L15.1088 35.0176C17.7376 32.4706 21.2285 30.252 25.0599 30.252ZM22.9388 47.79C22.8417 48.2321 22.6936 48.6531 22.5023 49.0527C22.7998 49.146 23.0199 49.4181 23.0287 49.7471C23.0391 50.1606 22.7128 50.5055 22.2992 50.5166L15.6205 50.6943L15.4847 50.7051C14.8144 50.7902 14.3002 51.3615 14.3002 52.0498C14.3006 52.7982 14.9081 53.4053 15.6566 53.4053H24.0013L23.9955 53.3916C24.1175 53.3946 24.2404 53.3965 24.3636 53.3965C27.1635 53.3965 29.4828 53.3775 31.4066 53.3301C30.7658 52.8954 30.217 52.3945 29.7543 51.8721C29.014 51.0362 28.4933 50.1503 28.1508 49.4053C28.09 49.2731 28.0351 49.1427 27.9838 49.0166C27.9861 49.0224 27.9882 49.0284 27.9906 49.0342C27.5263 49.1716 27.0271 49.249 26.4935 49.249C25.2814 49.2487 24.0233 48.5987 22.9388 47.79ZM40.8021 43.374C40.7535 43.3741 40.7129 43.393 40.681 43.4346C40.6465 43.4799 40.6265 43.5475 40.642 43.623L40.8051 44.4102L40.8353 44.4873C40.8795 44.5593 40.9645 44.6152 41.0765 44.6182C41.7823 44.6343 42.6607 44.7028 43.351 45.0527C43.7146 45.2372 44.0575 45.5151 44.2806 45.9287C44.4981 46.332 44.5641 46.7965 44.5072 47.2979C44.4458 48.9389 42.6934 51.3942 37.6547 51.8379C33.5893 52.1948 30.7891 49.721 29.306 47.6025C29.2643 47.5431 29.2085 47.4972 29.1478 47.4678C29.1257 47.4571 29.1043 47.4507 29.0853 47.4453C29.086 47.4715 29.0853 47.4974 29.0873 47.5225L29.1156 47.6797C29.1663 47.8969 29.2863 48.2852 29.5131 48.7783C29.8057 49.4148 30.2514 50.1702 30.8773 50.877C32.1139 52.2732 34.0612 53.491 37.0355 53.2295C40.1633 52.9547 42.4567 51.9587 43.9203 50.751C45.3963 49.5328 45.981 48.1507 45.8851 47.0596C45.7879 45.9531 45.3362 45.0601 44.5472 44.4326C43.747 43.7963 42.5267 43.3754 40.8021 43.374ZM2.9447 50.1152C2.22455 50.2605 1.68541 50.8963 1.68494 51.6543C1.68504 52.5681 2.46148 53.2893 3.37146 53.2227L6.10388 53.0205C5.83505 52.8945 5.57598 52.759 5.32947 52.6104C4.28947 51.9829 3.46529 51.1514 2.9447 50.1152ZM26.4935 34.4424C24.4025 34.4425 22.3175 35.0477 20.7767 36.0342C19.2878 36.9878 18.4123 38.2198 18.3441 39.5215C18.3862 39.7063 18.3593 39.907 18.2523 40.0811C18.1077 40.3157 17.8543 40.4399 17.597 40.4346C17.594 40.4346 17.5904 40.4355 17.5873 40.4355C17.409 40.4354 17.2472 40.3698 17.1185 40.2656C15.7329 39.4377 14.02 38.9425 12.1566 38.9424C9.9511 38.9424 7.87096 40.3918 6.29333 42.2891C5.51576 43.2243 4.88981 44.2357 4.4613 45.1572C4.02451 46.0968 3.82383 46.8769 3.82361 47.3633C3.82365 49.1762 4.66751 50.4585 6.10388 51.3252C7.58063 52.216 9.69887 52.668 12.1566 52.668C12.3927 52.668 12.6285 52.6608 12.8636 52.6484C12.8224 52.4554 12.8002 52.2552 12.8002 52.0498C12.8002 50.5021 14.0331 49.2375 15.5795 49.1953L20.7709 49.0557C21.2763 48.3194 21.5589 47.5 21.5717 46.6152C20.6661 45.7345 19.8971 44.7755 19.433 43.9941C19.222 43.6383 19.3403 43.1784 19.6957 42.9668C20.0517 42.7555 20.5115 42.8726 20.723 43.2285C21.2176 44.0612 22.1827 45.2205 23.3041 46.167C24.4555 47.1387 25.6118 47.7487 26.4935 47.749C26.8798 47.749 27.2452 47.6931 27.5883 47.5889L27.5922 47.6494C27.5827 47.5345 27.5804 47.4185 27.5844 47.3027C27.5969 46.9228 27.7375 46.571 28.0111 46.3125C28.2758 46.0625 28.6073 45.9541 28.9135 45.9355C29.1707 45.92 29.4347 45.9686 29.684 46.0693C29.8285 45.8845 29.9676 45.6882 30.0961 45.4795C30.9533 44.0868 31.3928 42.2706 31.3929 40.6738C31.3929 39.025 31.1006 37.4476 30.3578 36.3057C29.6486 35.2157 28.4802 34.4425 26.4935 34.4424ZM25.0599 31.752C21.5752 31.752 18.2421 33.9319 15.6693 36.5771C15.4545 36.7982 15.2466 37.0206 15.0463 37.2432C15.0722 37.4358 15.0907 37.6277 15.1019 37.8184C15.7629 37.9911 16.3954 38.2198 16.9906 38.5C17.3891 36.9656 18.5342 35.6898 19.9681 34.7715C21.7679 33.6192 24.1373 32.9425 26.4935 32.9424C28.9541 32.9425 30.6108 33.9454 31.6146 35.4883C32.5846 36.9795 32.8929 38.8939 32.8929 40.6738C32.8928 42.5066 32.3965 44.6034 31.3734 46.2656C31.1968 46.5525 30.9999 46.8272 30.7885 47.0879C32.1511 48.8714 34.4119 50.6168 37.5228 50.3438C38.3645 50.2697 39.0804 50.1376 39.6888 49.9707L39.6801 49.5439C39.668 49.0961 39.6566 48.5913 39.6566 48.0557C39.6565 44.1638 37.8601 40.0554 35.0541 36.9062C32.2406 33.7483 28.5942 31.752 25.0599 31.752ZM41.0238 46.1172C41.1091 46.7635 41.1566 47.4107 41.1566 48.0557C41.1566 48.529 41.1662 48.9799 41.1771 49.3965C42.665 48.6087 43.0014 47.5926 43.0101 47.2295L43.0111 47.1904L43.016 47.1523L43.0287 46.9658C43.0285 46.802 42.9934 46.702 42.9603 46.6406C42.9156 46.5579 42.8339 46.4722 42.6732 46.3906C42.4034 46.2538 42.0135 46.1777 41.5404 46.1416L41.0404 46.1182H41.0385C41.0336 46.118 41.0287 46.1174 41.0238 46.1172ZM27.6117 47.8037C27.6188 47.8472 27.6278 47.8932 27.6381 47.9414C27.6279 47.8931 27.6188 47.8472 27.6117 47.8037ZM27.6078 47.7793C27.6089 47.7867 27.6105 47.7942 27.6117 47.8018C27.6031 47.7488 27.5962 47.6996 27.5922 47.6543L27.6078 47.7793ZM13.5599 37.4414C13.1317 34.2861 10.6038 32.3789 8.21619 32.7412C5.81642 33.1063 3.88885 35.7092 4.31775 38.8711C4.44276 39.7918 4.74866 40.6052 5.17517 41.2881C6.87193 39.2628 9.31942 37.4424 12.1566 37.4424C12.6359 37.4424 13.1077 37.4729 13.5697 37.5283L13.5599 37.4414Z" fill="#1A1A1A"/>
<path d="M0.884039 46.7528L3.08912 46.909C3.07905 47.0107 3.07349 47.108 3.07349 47.2C3.07352 47.6316 3.11797 48.0382 3.19947 48.4207L0.776617 48.2488C0.364049 48.2196 0.0536038 47.8607 0.0822815 47.4481C0.11228 47.0351 0.470074 46.7238 0.884039 46.7528ZM18.2805 46.1072C18.6877 46.032 19.0791 46.3007 19.1545 46.7078C19.2299 47.1151 18.9602 47.5064 18.553 47.5819L15.6887 48.1121C15.2814 48.1875 14.8901 47.9179 14.8147 47.5106C14.7396 47.1035 15.0083 46.713 15.4153 46.6375L18.2805 46.1072ZM16.5754 43.3338C16.9222 43.1077 17.3862 43.2051 17.6126 43.5516C17.8387 43.8984 17.7415 44.3633 17.3948 44.5897L15.385 45.9012C15.0382 46.1273 14.5733 46.0292 14.3469 45.6824C14.1207 45.3356 14.218 44.8707 14.5647 44.6444L16.5754 43.3338ZM0.897711 44.1854C1.01971 43.7904 1.44019 43.5683 1.83619 43.6903L3.94361 44.3406C3.69968 44.8257 3.50299 45.2955 3.35865 45.7303L1.39283 45.1229C0.997267 45.0008 0.775261 44.5811 0.897711 44.1854Z" fill="#1A1A1A"/>
<path d="M8.73593 50.2755C9.41774 50.2755 9.97046 49.8789 9.97046 49.3897C9.97046 48.9005 9.41774 48.5039 8.73593 48.5039C8.05412 48.5039 7.5014 48.9005 7.5014 49.3897C7.5014 49.8789 8.05412 50.2755 8.73593 50.2755Z" fill="#1A1A1A"/>
<path d="M9.54619 45.8445C9.85808 45.5862 10.3125 45.6391 10.5616 45.9627C10.6734 46.1078 10.8586 46.2501 11.0237 46.2849C11.0917 46.2992 11.1569 46.2953 11.2298 46.2654C11.3065 46.2339 11.4311 46.1563 11.5865 45.9578C11.838 45.6362 12.2938 45.5875 12.6038 45.8484C12.9133 46.1095 12.9606 46.5815 12.7092 46.9029C12.1294 47.6441 11.4197 47.8978 10.7367 47.7543C10.1323 47.6272 9.67603 47.2146 9.43232 46.898C9.18333 46.5745 9.23435 46.103 9.54619 45.8445Z" fill="#1A1A1A"/>
<path d="M8.3509 45.8445C8.03901 45.5862 7.58455 45.6391 7.33548 45.9627C7.22368 46.1078 7.03846 46.2501 6.87341 46.2849C6.80535 46.2992 6.74019 46.2953 6.66731 46.2654C6.59059 46.2339 6.46596 46.1563 6.31064 45.9578C6.05911 45.6362 5.60327 45.5875 5.29333 45.8484C4.98378 46.1095 4.93654 46.5815 5.18793 46.9029C5.76768 47.6441 6.47739 47.8978 7.16043 47.7543C7.76481 47.6272 8.22106 47.2146 8.46477 46.898C8.71376 46.5745 8.66275 46.103 8.3509 45.8445Z" fill="#1A1A1A"/>
</svg>
