<svg width="48" height="55" viewBox="0 0 48 55" fill="none" xmlns="http://www.w3.org/2000/svg">
<path d="M25.06 31.002C28.871 31.002 32.7057 33.1432 35.6137 36.4072C38.5176 39.6661 40.4056 43.9458 40.4057 48.0557C40.4057 48.5807 40.4181 49.0774 40.4301 49.5244C40.4351 49.7392 40.4398 49.942 40.4428 50.1318C40.4538 50.7368 40.4471 51.2191 40.3911 51.6211C40.3361 52.0168 40.239 52.2967 40.0952 52.5146C39.9552 52.7256 39.7377 52.9292 39.3627 53.1162C38.5687 53.5121 37.1843 53.7863 34.7426 53.9463C32.3286 54.1043 28.9895 54.1465 24.3627 54.1465C23.3928 54.1465 22.4578 54.0566 21.5639 53.8877L16.0434 54.2959C15.1126 54.3644 14.277 53.8762 13.85 53.1221C13.3008 53.2073 12.7347 53.2549 12.1557 53.2549C7.09302 53.2548 3.07293 51.4048 3.07269 47.2002C3.07273 46.0805 3.82896 44.2069 5.09808 42.4443C4.31716 41.535 3.7603 40.3465 3.57367 38.9717C3.10068 35.4847 5.22205 32.4371 8.10297 31.999C10.8932 31.575 13.6486 33.7108 14.2504 37.0107C14.5294 36.6913 14.824 36.3709 15.1323 36.0537C17.7582 33.3538 21.2741 31.002 25.06 31.002Z" fill="#B3B3B3"/>
<path d="M18.7817 53.8848L16.1459 54.2773C14.779 54.4813 13.5502 53.422 13.5502 52.04C13.5504 50.8452 14.4804 49.8562 15.6733 49.7832L17.8676 49.6484L18.7817 53.8848ZM26.4233 37.2012C29.5829 37.2014 32.145 39.6072 32.145 42.5742C32.1448 44.3855 31.1887 45.9859 29.726 46.959C29.7975 47.0204 29.8644 47.0906 29.9213 47.1719C31.3263 49.1789 33.9003 51.4148 37.5893 51.0908C42.462 50.6618 43.7342 48.3491 43.7602 47.2471C43.9632 45.6521 42.464 45.4002 41.058 45.3682C40.5812 45.3562 40.1669 45.0293 40.0707 44.5625L39.9077 43.7754C39.7867 43.1894 40.2052 42.623 40.8032 42.624C44.4851 42.6271 46.4072 44.4222 46.6332 46.9941C46.8811 49.8161 43.6009 53.4056 37.101 53.9766C30.6924 54.5404 28.4927 48.7628 28.3461 47.6338C27.7451 47.8352 27.098 47.9462 26.4233 47.9463C23.2637 47.9462 20.7028 45.5411 20.7026 42.5742C20.7026 39.6071 23.2635 37.2012 26.4233 37.2012ZM3.44965 49.249C3.89953 50.3691 4.73363 51.2381 5.8432 51.877L6.29144 53.3525L3.5307 53.7666C2.1639 53.9704 0.935178 52.912 0.934998 51.5303C0.934998 50.3353 1.8651 49.3465 3.05804 49.2734L3.44965 49.249ZM8.19574 32.9414C10.3359 32.942 12.0845 35.1944 12.1977 38.0293C12.1844 38.0292 12.17 38.0293 12.1567 38.0293C9.42983 38.0294 7.00568 39.9412 5.34906 42.1084C4.63141 41.1363 4.18701 39.7989 4.18695 38.3223C4.18695 35.3509 5.98208 32.9415 8.19574 32.9414Z" fill="#FFC7C2"/>
<path d="M25.06 30.252C29.1476 30.252 33.1719 32.5383 36.1743 35.9082C37.7878 37.719 39.1037 39.8436 39.978 42.0928C40.2149 41.9557 40.4931 41.8747 40.8032 41.875C42.7604 41.8766 44.3431 42.354 45.4809 43.2588C46.6297 44.1725 47.2516 45.4634 47.3803 46.9287C47.5322 48.6594 46.601 50.4834 44.8745 51.9082C43.1352 53.3434 40.538 54.4274 37.1664 54.7236C36.3777 54.793 35.6459 54.7722 34.9682 54.6807C34.9101 54.6847 34.8516 54.6905 34.7924 54.6943C32.3508 54.8541 28.9884 54.8965 24.3637 54.8965C24.3066 54.8965 24.2497 54.8932 24.1928 54.8926C24.1509 54.8999 24.1079 54.9053 24.0639 54.9053H15.6567C14.88 54.9053 14.1765 54.594 13.6616 54.0908C13.1617 54.1399 12.6588 54.1679 12.1567 54.168C11.8449 54.168 11.5357 54.1603 11.2299 54.1465L3.48187 54.7188C1.70236 54.8495 0.185101 53.44 0.184998 51.6543C0.185449 50.2401 1.14485 49.0449 2.45551 48.6914C2.37009 48.2733 2.32368 47.8307 2.32367 47.3633C2.32387 46.5589 2.62635 45.5465 3.10101 44.5254C3.39913 43.8843 3.77775 43.2115 4.22601 42.5479C3.51072 41.5832 3.01126 40.396 2.83148 39.0713C2.31497 35.2599 4.6291 31.7691 7.99066 31.2578L8.30609 31.2188C11.0277 30.9632 13.5578 32.7603 14.6078 35.5166L15.1088 35.0176C17.7377 32.4706 21.2285 30.252 25.06 30.252ZM22.9379 47.79C22.8408 48.2319 22.6932 48.6532 22.5024 49.0527C22.7998 49.146 23.02 49.4181 23.0287 49.7471C23.0392 50.1606 22.7129 50.5055 22.2993 50.5166L15.6205 50.6943L15.4848 50.7051C14.8145 50.7902 14.3002 51.3615 14.3002 52.0498C14.3007 52.7982 14.9082 53.4053 15.6567 53.4053H24.0014L23.9955 53.3916C24.1176 53.3946 24.2404 53.3965 24.3637 53.3965C27.1635 53.3965 29.4828 53.3775 31.4067 53.3301C30.7659 52.8954 30.2171 52.3945 29.7543 51.8721C29.014 51.0362 28.4934 50.1503 28.1508 49.4053C28.0928 49.2791 28.04 49.1548 27.9907 49.0342C27.5264 49.1715 27.028 49.249 26.4946 49.249C25.2819 49.249 24.0227 48.5992 22.9379 47.79ZM40.8022 43.374C40.7536 43.3741 40.7129 43.393 40.6811 43.4346C40.6465 43.4799 40.6265 43.5475 40.642 43.623L40.8051 44.4102L40.8354 44.4873C40.8796 44.5593 40.9646 44.6152 41.0766 44.6182C41.7823 44.6343 42.6608 44.7028 43.351 45.0527C43.7147 45.2372 44.0575 45.5151 44.2807 45.9287C44.4982 46.332 44.5642 46.7965 44.5073 47.2979C44.4459 48.9389 42.6934 51.3942 37.6547 51.8379C33.5894 52.1948 30.7892 49.721 29.3061 47.6025C29.2644 47.5431 29.2086 47.4972 29.1479 47.4678C29.1258 47.4571 29.1044 47.4507 29.0854 47.4453C29.086 47.4715 29.0853 47.4974 29.0873 47.5225L29.1157 47.6797C29.1664 47.8969 29.2864 48.2852 29.5131 48.7783C29.8058 49.4148 30.2514 50.1702 30.8774 50.877C32.114 52.2732 34.0613 53.491 37.0356 53.2295C40.1633 52.9547 42.4567 51.9587 43.9203 50.751C45.3964 49.5328 45.981 48.1507 45.8852 47.0596C45.7879 45.9531 45.3362 45.0601 44.5473 44.4326C43.7471 43.7963 42.5268 43.3754 40.8022 43.374ZM2.94379 50.1152C2.2241 50.2608 1.68547 50.8967 1.685 51.6543C1.6851 52.5681 2.46154 53.2893 3.37152 53.2227L6.10199 53.0205C5.83374 52.8947 5.57555 52.7587 5.32953 52.6104C4.28927 51.9828 3.46434 51.1517 2.94379 50.1152ZM26.4946 34.4424C24.4033 34.4424 22.3187 35.0476 20.7778 36.0342C19.2883 36.988 18.412 38.2204 18.3442 39.5225C18.3858 39.707 18.3591 39.9074 18.2524 40.0811C18.1095 40.3127 17.8607 40.4356 17.6069 40.4336C17.6007 40.4337 17.5945 40.4355 17.5883 40.4355C17.4112 40.4355 17.2508 40.3704 17.1225 40.2676C15.7362 39.4383 14.0218 38.9425 12.1567 38.9424C9.95118 38.9424 7.87102 40.3918 6.2934 42.2891C5.51585 43.2243 4.88987 44.2358 4.46136 45.1572C4.02458 46.0968 3.82389 46.8769 3.82367 47.3633C3.82371 49.1762 4.6675 50.4585 6.10394 51.3252C7.5807 52.216 9.69888 52.668 12.1567 52.668C12.3927 52.668 12.6285 52.6608 12.8637 52.6484C12.8224 52.4554 12.8003 52.2552 12.8002 52.0498C12.8002 50.5021 14.0331 49.2375 15.5795 49.1953L20.7709 49.0557C21.2763 48.3194 21.5589 47.4998 21.5717 46.6152C20.6664 45.7346 19.8981 44.7754 19.434 43.9941C19.223 43.6381 19.3409 43.1782 19.6967 42.9668C20.0528 42.7556 20.5126 42.8726 20.7241 43.2285C21.2187 44.0612 22.1838 45.2206 23.3051 46.167C24.4568 47.1388 25.6128 47.749 26.4946 47.749C26.881 47.749 27.2461 47.6932 27.5893 47.5889C27.5835 47.4938 27.5812 47.3982 27.5844 47.3027C27.597 46.9228 27.7376 46.571 28.0112 46.3125C28.2759 46.0625 28.6074 45.9541 28.9135 45.9355C29.1711 45.92 29.4355 45.9684 29.685 46.0693C29.8295 45.8846 29.9686 45.6882 30.0971 45.4795C30.9542 44.0869 31.3938 42.2704 31.394 40.6738C31.3939 39.0253 31.1014 37.4475 30.3588 36.3057C29.6497 35.2158 28.4811 34.4425 26.4946 34.4424ZM30.7895 47.0879C32.1521 48.8713 34.4122 50.6167 37.5229 50.3438C38.3646 50.2697 39.0804 50.1376 39.6889 49.9707L39.6801 49.5439C39.6681 49.0961 39.6567 48.5913 39.6567 48.0557C39.6566 44.1638 37.8601 40.0554 35.0541 36.9062C32.2406 33.7483 28.5943 31.752 25.06 31.752C21.5753 31.752 18.2421 33.9319 15.6694 36.5771C15.4546 36.7982 15.2467 37.0206 15.0463 37.2432C15.0722 37.4354 15.0898 37.627 15.101 37.8174C15.7628 37.9902 16.3958 38.2194 16.9916 38.5C17.3903 36.9657 18.5351 35.6898 19.9692 34.7715C21.7691 33.6191 24.1382 32.9424 26.4946 32.9424C28.9551 32.9425 30.6119 33.9454 31.6157 35.4883C32.5854 36.9794 32.8939 38.8941 32.894 40.6738C32.8938 42.5064 32.3974 44.6035 31.3745 46.2656C31.1979 46.5524 31.0009 46.8272 30.7895 47.0879ZM41.0239 46.1172C41.1092 46.7635 41.1567 47.4107 41.1567 48.0557C41.1567 48.529 41.1663 48.9799 41.1772 49.3965C42.6651 48.6087 43.0015 47.5926 43.0102 47.2295L43.0112 47.1904L43.0161 47.1523L43.0287 46.9658C43.0286 46.802 42.9935 46.702 42.9604 46.6406C42.9157 46.5579 42.834 46.4722 42.6733 46.3906C42.4035 46.2538 42.0136 46.1777 41.5405 46.1416L41.0405 46.1182H41.0385C41.0336 46.118 41.0288 46.1174 41.0239 46.1172ZM28.3276 47.5889L27.5932 47.6533L27.769 47.6387L28.3412 47.5879L28.3276 47.5889ZM28.3784 47.584L28.4086 47.582L28.4223 47.5811L28.3784 47.584ZM30.4828 46.6729C30.5002 46.6954 30.5181 46.7177 30.5346 46.7412L29.9203 47.1719L29.687 47.3359L29.9496 47.1523L30.5356 46.7412C30.519 46.7175 30.5004 46.6955 30.4828 46.6729ZM13.56 37.4404C13.1315 34.2856 10.6037 32.3779 8.21625 32.7402C5.8166 33.1052 3.8893 35.7085 4.31781 38.8701C4.44283 39.7911 4.74848 40.605 5.17523 41.2881C6.872 39.2628 9.31947 37.4424 12.1567 37.4424C12.636 37.4424 13.1077 37.4728 13.5698 37.5283L13.56 37.4404ZM27.5922 47.6484L28.3403 47.5879L28.3784 47.584L27.5922 47.6484ZM30.4575 46.6387C30.4474 46.6263 30.4365 46.6146 30.4262 46.6025C30.4365 46.6147 30.4474 46.6263 30.4575 46.6387Z" fill="#1A1A1A"/>
<path d="M0.8841 46.7528L3.08918 46.909C3.07911 47.0107 3.07355 47.108 3.07355 47.2C3.07358 47.6316 3.11803 48.0382 3.19953 48.4207L0.776678 48.2488C0.36411 48.2196 0.0536649 47.8607 0.0823425 47.4481C0.112341 47.0351 0.470135 46.7238 0.8841 46.7528ZM18.2806 46.1072C18.6877 46.032 19.0792 46.3007 19.1546 46.7078C19.2299 47.1151 18.9602 47.5064 18.553 47.5819L15.6888 48.1121C15.2815 48.1875 14.8901 47.9179 14.8148 47.5106C14.7397 47.1035 15.0084 46.713 15.4154 46.6375L18.2806 46.1072ZM16.5755 43.3338C16.9223 43.1077 17.3862 43.2051 17.6126 43.5516C17.8387 43.8984 17.7415 44.3633 17.3948 44.5897L15.3851 45.9012C15.0382 46.1273 14.5733 46.0292 14.347 45.6824C14.1208 45.3356 14.2181 44.8707 14.5648 44.6444L16.5755 43.3338ZM0.897772 44.1854C1.01977 43.7904 1.44025 43.5683 1.83625 43.6903L3.94367 44.3406C3.69974 44.8257 3.50305 45.2955 3.35871 45.7303L1.39289 45.1229C0.997328 45.0008 0.775322 44.5811 0.897772 44.1854Z" fill="#1A1A1A"/>
<path d="M8.73599 50.2755C9.4178 50.2755 9.97052 49.8789 9.97052 49.3897C9.97052 48.9005 9.4178 48.5039 8.73599 48.5039C8.05418 48.5039 7.50146 48.9005 7.50146 49.3897C7.50146 49.8789 8.05418 50.2755 8.73599 50.2755Z" fill="#1A1A1A"/>
<path d="M9.54626 45.8445C9.85814 45.5862 10.3126 45.6391 10.5617 45.9627C10.6735 46.1078 10.8587 46.2501 11.0238 46.2849C11.0918 46.2992 11.157 46.2953 11.2298 46.2654C11.3066 46.2339 11.4312 46.1563 11.5865 45.9578C11.838 45.6362 12.2939 45.5875 12.6038 45.8484C12.9134 46.1095 12.9606 46.5815 12.7092 46.9029C12.1295 47.6441 11.4198 47.8978 10.7367 47.7543C10.1323 47.6272 9.67609 47.2146 9.43238 46.898C9.18339 46.5745 9.23441 46.103 9.54626 45.8445Z" fill="#1A1A1A"/>
<path d="M8.35096 45.8445C8.03907 45.5862 7.58461 45.6391 7.33554 45.9627C7.22374 46.1078 7.03852 46.2501 6.87347 46.2849C6.80541 46.2992 6.74025 46.2953 6.66737 46.2654C6.59066 46.2339 6.46602 46.1563 6.3107 45.9578C6.05917 45.6362 5.60334 45.5875 5.29339 45.8484C4.98385 46.1095 4.9366 46.5815 5.18799 46.9029C5.76774 47.6441 6.47745 47.8978 7.1605 47.7543C7.76487 47.6272 8.22112 47.2146 8.46483 46.898C8.71383 46.5745 8.66281 46.103 8.35096 45.8445Z" fill="#1A1A1A"/>
</svg>
