<svg width="48" height="55" viewBox="0 0 48 55" fill="none" xmlns="http://www.w3.org/2000/svg">
<path d="M23.2259 25.6599C23.3579 25.8299 23.5575 25.94 23.7735 25.95C23.9894 25.96 24.2007 25.88 24.3529 25.73C25.2577 24.81 26.9059 23.42 28.8664 22.26C30.8387 21.1 33.0432 20.22 35.0822 20.22C36.9322 20.22 38.8237 20.94 40.5214 21.95C42.2125 22.96 43.6523 24.2099 44.5811 25.1699C44.766 25.3599 44.8735 25.64 44.8735 25.95V51.3601C44.8735 52.2901 43.8182 53.0101 42.8543 52.6001C40.5487 51.6401 37.5613 50.6699 35.0822 50.6699C33.3687 50.6699 31.3388 51.1901 29.4533 51.8501C27.5531 52.5201 25.7336 53.36 24.4178 54.03C24.0288 54.23 23.5733 54.2401 23.1852 54.0601C21.7691 53.3801 19.8248 52.5401 17.8623 51.8701C15.9211 51.2001 13.8807 50.6699 12.3039 50.6699C10.1069 50.6699 7.40137 51.7 5.2575 52.74C4.26961 53.22 3.12695 52.49 3.12695 51.53V25.6699C3.12695 25.4699 3.17061 25.2999 3.24515 25.1699C4.32816 23.3299 7.34545 20.22 12.3039 20.22C17.6665 20.22 21.8341 23.8499 23.2259 25.6599Z" fill="#F24822"/>
<path d="M35.082 19.47C37.1177 19.47 39.1446 20.2575 40.9053 21.3049L40.9062 21.3059L41.2324 21.5061C42.847 22.5164 44.2129 23.7114 45.1182 24.6467C45.4577 24.9956 45.624 25.4731 45.624 25.9504V51.3606C45.6237 52.8581 43.9908 53.8987 42.5605 53.2903V53.2893C40.2749 52.3381 37.404 51.4202 35.082 51.4202C33.4966 51.4202 31.5626 51.9057 29.7021 52.5569C27.8429 53.2125 26.0555 54.0368 24.7598 54.6965L24.7607 54.6975C24.5302 54.816 24.2832 54.8893 24.0322 54.9202C23.9694 54.9372 23.9042 54.9495 23.8359 54.9495C23.782 54.9495 23.7294 54.9437 23.6787 54.9329C23.4021 54.9213 23.1272 54.8596 22.8701 54.7405L22.8604 54.7366C21.4647 54.0664 19.5485 53.2387 17.6201 52.5803L17.6172 52.5793C15.69 51.9142 13.7487 51.4202 12.3037 51.4202C10.5409 51.4202 8.35005 52.156 6.40234 53.0325L5.58496 53.4143C4.14052 54.116 2.37732 53.0894 2.37695 51.5305V25.6702C2.37695 25.3644 2.44367 25.0606 2.59473 24.7971L2.59863 24.7893C3.77363 22.7931 7.00496 19.4701 12.3037 19.47C17.9335 19.47 22.2691 23.2208 23.7793 25.1516C23.798 25.1502 23.8169 25.1497 23.8359 25.1497C23.8477 25.1497 23.8594 25.1501 23.8711 25.1506C24.8282 24.1882 26.5018 22.7876 28.4844 21.6145L28.4863 21.6135C30.5055 20.426 32.8478 19.47 35.082 19.47ZM12.3037 20.97C7.69226 20.9701 4.89019 23.8585 3.89551 25.5432L3.88672 25.5696C3.88175 25.59 3.87695 25.623 3.87695 25.6702V51.5305C3.87715 51.6999 3.98103 51.8973 4.2041 52.0295C4.41972 52.1573 4.6857 52.1842 4.92969 52.0657C7.08644 51.0194 9.92435 49.9202 12.3037 49.9202C14.0115 49.9202 16.1501 50.486 18.1045 51.1604L18.8516 51.4231C20.3981 51.984 21.8897 52.6259 23.0859 53.1858V26.51C22.9562 26.4368 22.8381 26.3457 22.7363 26.2395L22.6338 26.1204L22.6318 26.1174C21.3205 24.412 17.3483 20.97 12.3037 20.97ZM35.082 20.97C33.2384 20.97 31.1713 21.7732 29.2461 22.9055C27.3455 24.0303 25.7494 25.3799 24.8877 26.2561L24.8799 26.2639L24.7607 26.3694C24.7054 26.4135 24.6463 26.4519 24.5859 26.4875V53.1067C25.8639 52.4764 27.4997 51.7438 29.2041 51.1428L29.2051 51.1418C31.1151 50.4733 33.2409 49.9202 35.082 49.9202C37.7162 49.9202 40.818 50.9396 43.1426 51.9075L43.1475 51.9104L43.2412 51.9426C43.7032 52.0714 44.1236 51.6999 44.124 51.3606V25.9504C44.124 25.8434 44.0961 25.769 44.0693 25.7258L44.0439 25.6926L44.042 25.6917C43.1501 24.7698 41.7617 23.564 40.1377 22.594C38.5031 21.6216 36.7463 20.97 35.082 20.97Z" fill="#1A1A1A"/>
<path d="M36.2881 37.3628C36.4214 36.9707 36.8471 36.7607 37.2392 36.894C37.6313 37.0274 37.8412 37.4531 37.708 37.8452C36.5449 41.264 31.5816 41.3692 30.4853 37.8257C30.3629 37.43 30.5847 37.0096 30.9804 36.8872C31.3761 36.7648 31.7965 36.9866 31.9189 37.3823C32.5551 39.4386 35.5594 39.5037 36.2881 37.3628Z" fill="#1A1A1A"/>
<path d="M36 33.55C36.5523 33.55 37 33.9978 37 34.55C37 35.1023 36.5523 35.55 36 35.55C35.4477 35.55 35 35.1023 35 34.55C35 33.9978 35.4477 33.5501 36 33.55Z" fill="#1A1A1A"/>
<path d="M30 33.55C29.4477 33.55 29 33.9978 29 34.55C29 35.1023 29.4477 35.55 30 35.55C30.5523 35.55 31 35.1023 31 34.55C31 33.9978 30.5523 33.5501 30 33.55Z" fill="#1A1A1A"/>
<path d="M16.0888 37.3628C16.2222 36.9707 16.6479 36.7607 17.04 36.894C17.432 37.0274 17.6419 37.4531 17.5088 37.8452C16.3456 41.264 11.3823 41.3692 10.2861 37.8257C10.1637 37.43 10.3855 37.0096 10.7812 36.8872C11.1769 36.7648 11.5973 36.9866 11.7197 37.3823C12.3559 39.4386 15.3602 39.5037 16.0888 37.3628Z" fill="#1A1A1A"/>
<path d="M18 33.55C18.5523 33.55 19 33.9978 19 34.55C19 35.1023 18.5523 35.55 18 35.55C17.4477 35.55 17 35.1023 17 34.55C17 33.9978 17.4477 33.5501 18 33.55Z" fill="#1A1A1A"/>
<path d="M12 33.55C11.4477 33.55 11 33.9978 11 34.55C11 35.1023 11.4477 35.55 12 35.55C12.5523 35.55 13 35.1023 13 34.55C13 33.9978 12.5523 33.5501 12 33.55Z" fill="#1A1A1A"/>
</svg>
