<svg width="48" height="55" viewBox="0 0 48 55" fill="none" xmlns="http://www.w3.org/2000/svg">
<path d="M9.50611 43.294V36.788L7.8796 35.703L5.16874 34.619L3.54223 31.908L3.00006 28.113L5.16874 24.86L9.50611 21.065L14.3857 18.354H18.723L23.0604 21.065L27.3978 27.029H28.4821L33.3617 29.197L37.555 31.454L40.7099 35.297L41.252 41.261L39.9414 47.631L38.7834 51.969L36.6147 52.511L28.4821 53.595L26.3134 51.969L17.3663 52.325L13.2896 50.3891L11.1327 47.631L9.50611 43.294Z" fill="#383838"/>
<path d="M20.0004 50.4912C21.2656 50.3102 24.0119 50.1663 24.8793 51.0332L24.3373 52.6602L22.3705 54.2861L20.5424 53.7441L20.0004 50.4912ZM29.9164 49.3799C30.4572 50.5368 30.8933 52.0919 30.3158 53.1748L28.6888 53.7168L27.0629 52.6328L26.5209 50.4639L29.9164 49.3799ZM12.7719 49.9619L14.6019 50.9766C14.5137 52.3122 14.495 52.7596 13.3187 53.3936C11.8566 54.1814 10.6068 53.147 10.224 51.9951C9.81851 49.9621 9.805 47.6493 9.974 45.2773L12.7719 49.9619ZM3.54236 27.5234C5.71146 26.44 13.6265 30.6685 12.7592 36.7412H10.0482L6.2533 35.6562L3.54236 32.4023L3.00037 27.5234H3.54236ZM21.7113 18.3535C22.3756 18.6855 22.7952 19.3656 22.7953 20.1084V22.3486C22.7953 22.5676 22.7079 22.7776 22.5531 22.9326C22.3646 23.1215 22.0972 23.209 21.8344 23.165C20.9239 23.012 19.6634 22.7413 19.1898 21.8623C18.9388 21.3954 19.2113 20.8534 19.5863 20.4785L21.7113 18.3535ZM12.5375 16.8857L14.5668 19.3096L11.4369 20.2051L10.3519 20.7471L10.1136 18.916L11.5121 16.5303L12.5375 16.8857Z" fill="#1A1A1A"/>
<path d="M11.0833 15.5227C11.7685 15.2776 12.5436 15.4411 13.1439 15.967L13.5111 16.3039C14.0066 16.7821 14.4137 17.2757 14.7074 17.7385C14.7122 17.7376 14.7172 17.7374 14.722 17.7365L15.2054 17.6643C16.9772 17.4534 18.6496 17.839 19.8138 18.2893C19.9171 18.1877 20.0208 18.0878 20.1243 17.9914C20.7396 17.4191 21.5451 17.2692 22.2386 17.5725C22.9205 17.8709 23.3657 18.5507 23.4173 19.3654C23.4514 19.9057 23.4514 20.5033 23.3929 21.1193C24.4952 22.2913 25.7236 23.8041 27.1859 25.9182C27.6327 26.5637 28.2831 27.0389 29.0365 27.2717L29.7708 27.5061C31.575 28.0985 33.9741 29.0193 36.1683 30.3674C38.6625 31.9 41.008 34.056 41.8021 37.0188C43.2214 42.3171 41.4671 45.6352 39.4964 51.9504C39.1761 52.9759 38.2915 53.7432 37.2074 53.8791C34.8734 54.1718 31.525 54.5629 29.6224 54.6926C28.9614 54.738 28.0061 54.7476 27.2435 54.1701C26.9188 53.9237 26.6686 53.6267 26.4876 53.3049C25.8522 53.2917 25.2705 53.2707 24.7327 53.2404C24.4223 53.7576 23.9967 54.2116 23.4163 54.5236C22.4553 55.0398 21.5057 54.97 20.7445 54.5432C20.188 54.2309 19.7551 53.7418 19.474 53.2043C17.814 53.1606 16.3859 52.8947 15.1605 52.4484C14.8426 53.0984 14.3718 53.6793 13.6751 54.0549C12.7138 54.5729 11.7626 54.504 11.0003 54.0774C10.2721 53.6694 9.7539 52.9592 9.51204 52.2317L9.4886 52.1428L9.41438 51.7043C9.25978 50.6288 9.23326 49.1964 9.25911 47.7883C9.26941 47.2276 9.29005 46.6623 9.3138 46.1135C8.34071 43.0496 8.46497 39.6423 8.55305 37.4221C5.06773 36.3189 3.28457 34.3519 2.59505 32.1897C1.88701 29.9683 2.38191 27.6911 3.07161 26.2209C3.70301 24.8756 5.19628 23.5229 6.77473 22.3342C7.78299 21.5749 8.88079 20.8464 9.91633 20.1867C9.8078 19.8148 9.75673 19.3967 9.73665 18.9973C9.70769 18.4208 9.73855 17.7922 9.80598 17.2092C9.89986 16.3983 10.3907 15.7707 11.0833 15.5227ZM21.637 18.9465C21.5401 18.9042 21.3638 18.8873 21.1458 19.09C20.1676 20.0004 19.1512 21.2323 18.6009 21.968C18.3528 22.2996 17.8828 22.3674 17.5511 22.1193C17.2194 21.8713 17.1517 21.4012 17.3997 21.0695C17.7122 20.6517 18.1688 20.0804 18.6898 19.4865C17.7718 19.2056 16.6002 19.0101 15.39 19.1525L14.9886 19.2121C14.1364 19.3656 13.3477 19.8199 12.4622 20.3645C11.0043 21.2611 9.2246 22.3671 7.67708 23.5324C6.09695 24.7224 4.88694 25.8822 4.42903 26.8576C3.84932 28.0933 3.46203 29.9725 4.02376 31.7346C4.56775 33.4404 6.05137 35.1907 9.52473 36.1457C10.3809 36.3816 11.3013 36.3728 12.2044 36.1652C13.2106 35.9334 14.3878 35.6206 15.4613 35.2531C16.5547 34.8788 17.4682 34.4711 17.9984 34.0725C18.3294 33.8242 18.7994 33.8911 19.0482 34.2219C19.2965 34.5527 19.2302 35.0228 18.8997 35.2717C18.1694 35.8208 17.0655 36.2903 15.9476 36.6731C15.0942 36.9652 14.1882 37.2211 13.3509 37.4318L12.5404 37.6272C11.7297 37.8135 10.8818 37.8736 10.0413 37.7707C9.95274 40.1387 9.88732 43.3818 10.9163 46.1643C11.4892 47.7131 12.3911 49.0832 13.7962 50.0715C15.0508 50.9538 16.7585 51.5663 19.0999 51.6877C18.9976 50.6856 18.9821 49.4613 19.0042 48.2551C19.0341 46.6264 19.1362 44.9587 19.221 43.7678C19.2507 43.3548 19.6098 43.044 20.0228 43.0734C20.4355 43.1032 20.7462 43.4615 20.7171 43.8742C20.633 45.055 20.5334 46.6925 20.5042 48.2824C20.4752 49.8625 20.5188 51.332 20.6956 52.2639C20.8414 52.6722 21.1313 53.04 21.4779 53.2346C21.8016 53.4161 22.207 53.4705 22.7064 53.2024C23.5185 52.7656 23.9219 51.6706 24.0072 50.3801C24.1509 48.2049 24.2874 45.6157 24.2874 43.8215C24.2876 43.4075 24.6234 43.0717 25.0374 43.0715C25.4514 43.0717 25.7873 43.4075 25.7874 43.8215C25.7874 45.2072 25.7088 47.034 25.6087 48.7795L25.5042 50.4787C25.4776 50.8819 25.419 51.3238 25.3128 51.7678C25.5691 51.779 25.8368 51.7894 26.1165 51.7971C26.1324 51.0626 26.4179 50.3096 26.9935 49.8039L27.1165 49.7024C27.3735 49.505 27.688 49.3449 28.0501 49.215C28.0799 49.2044 28.1111 49.1955 28.1419 49.1887C28.6942 49.0667 29.8196 48.8534 30.8919 48.7395C30.3049 47.5654 29.8008 46.0886 29.8011 44.6594C29.8014 43.6848 30.0375 42.6907 30.6849 41.8459C31.3349 40.9982 32.3407 40.3776 33.7337 40.0422L33.8089 40.0275C34.1854 39.9766 34.5471 40.2186 34.638 40.5959C34.7346 40.9983 34.4866 41.4031 34.0843 41.5002C32.9445 41.7747 32.2707 42.2433 31.8753 42.759C31.4779 43.2778 31.3013 43.9242 31.3011 44.6604C31.301 46.1683 32.0427 47.8804 32.765 49.008C32.9125 49.2387 32.9226 49.5324 32.7913 49.7727C32.6597 50.0127 32.4069 50.1622 32.1331 50.1623C31.0278 50.1624 29.3028 50.4717 28.515 50.6428C28.2782 50.7312 28.125 50.8194 28.0296 50.8928L28.0267 50.8947C27.7892 51.0764 27.6109 51.436 27.6136 51.8703C27.6164 52.291 27.7906 52.7022 28.1497 52.9748C28.4322 53.1887 28.8724 53.241 29.5199 53.1965C31.3738 53.0701 34.6823 52.6841 37.0208 52.3908L37.1986 52.3557C37.6022 52.2425 37.932 51.9253 38.0638 51.5041L38.4417 50.3137C40.2939 44.5753 41.5489 41.8725 40.3529 37.4074C39.7047 34.9888 37.7454 33.0973 35.3831 31.6457C33.0343 30.2025 30.399 29.2631 28.5931 28.7043C27.5218 28.3731 26.5921 27.6958 25.9525 26.7717C24.8472 25.1738 23.8858 23.9414 23.0218 22.9484C22.8755 23.3952 22.6862 23.8329 22.4388 24.2453C22.2257 24.6004 21.7646 24.7161 21.4095 24.5031C21.0543 24.29 20.9395 23.829 21.1527 23.4738C21.8495 22.3125 22.0042 20.79 21.9202 19.4602C21.8998 19.1387 21.7454 18.9939 21.637 18.9465ZM10.7532 49.0979C10.7648 50.1707 10.8228 51.1241 10.9505 51.7971C11.0964 52.2058 11.3869 52.5745 11.7337 52.7688C12.0573 52.9497 12.4633 53.0038 12.9632 52.7346C13.3144 52.5452 13.588 52.2314 13.7933 51.8322C13.4917 51.667 13.2045 51.49 12.9329 51.299C12.0408 50.6716 11.3265 49.9212 10.7532 49.0979ZM12.1556 17.0949C11.9254 16.8932 11.714 16.8903 11.5892 16.9348C11.4722 16.9767 11.3294 17.0957 11.2962 17.3811C11.2362 17.8998 11.2107 18.4443 11.2347 18.9221C11.2424 19.0744 11.2569 19.212 11.2728 19.3352C11.4101 19.2504 11.5446 19.167 11.6761 19.0861C12.1468 18.7966 12.6632 18.4861 13.224 18.2277C12.9682 17.8875 12.6141 17.4965 12.1556 17.0949Z" fill="#1A1A1A"/>
<path d="M16.4685 24.3639C17.1835 24.4545 17.6897 25.1076 17.599 25.8227C17.5083 26.5377 16.8552 27.0438 16.1402 26.9531C15.4252 26.8625 14.9191 26.2093 15.0097 25.4943C15.1004 24.7793 15.7535 24.2732 16.4685 24.3639Z" fill="#D9D9D9"/>
<path d="M12.7223 23.4219C12.0396 23.191 11.299 23.5574 11.0681 24.2402C10.8373 24.9229 11.2036 25.6635 11.8864 25.8944C12.5692 26.1252 13.3098 25.7589 13.5406 25.0761C13.7715 24.3933 13.4051 23.6527 12.7223 23.4219Z" fill="#D9D9D9"/>
</svg>
