<svg width="48" height="55" viewBox="0 0 48 55" fill="none" xmlns="http://www.w3.org/2000/svg">
<path d="M9.50611 43.294V36.788L7.8796 35.703L5.16874 34.619L3.54223 31.908L3.00006 28.113L5.16874 24.86L9.50611 21.065L14.3857 18.354H18.723L23.0604 21.065L27.3978 27.029H28.4821L33.3617 29.197L37.555 31.454L40.7099 35.297L41.252 41.261L39.9414 47.631L38.7834 51.969L36.6147 52.511L28.4821 53.595L26.3134 51.969L17.3663 52.325L13.2896 50.3891L11.1327 47.631L9.50611 43.294Z" fill="#CEDEE4"/>
<path d="M20.0004 50.4912C21.2656 50.3102 24.0119 50.1663 24.8793 51.0332L24.3373 52.6602L22.3705 54.2861L20.5424 53.7441L20.0004 50.4912ZM29.9164 49.3799C30.4572 50.5368 30.8933 52.0919 30.3158 53.1748L28.6888 53.7168L27.0629 52.6328L26.5209 50.4639L29.9164 49.3799ZM12.7719 49.9619L14.6019 50.9766C14.5137 52.3122 14.495 52.7596 13.3187 53.3936C11.8566 54.1814 10.6068 53.147 10.224 51.9951C9.81851 49.9621 9.805 47.6493 9.974 45.2773L12.7719 49.9619ZM3.54236 27.5234C5.71146 26.44 13.6265 30.6685 12.7592 36.7412H10.0482L6.2533 35.6562L3.54236 32.4023L3.00037 27.5234H3.54236ZM21.7113 18.3535C22.3756 18.6855 22.7952 19.3656 22.7953 20.1084V22.3486C22.7953 22.5676 22.7079 22.7776 22.5531 22.9326C22.3646 23.1215 22.0972 23.209 21.8344 23.165C20.9239 23.012 19.6634 22.7413 19.1898 21.8623C18.9388 21.3954 19.2113 20.8534 19.5863 20.4785L21.7113 18.3535ZM12.5375 16.8857L14.5668 19.3096L11.4369 20.2051L10.3519 20.7471L10.1136 18.916L11.5121 16.5303L12.5375 16.8857Z" fill="#2F4C56"/>
<path d="M11.0834 15.5227C11.7685 15.2776 12.5437 15.4411 13.1439 15.967L13.5111 16.3039C14.0067 16.7821 14.4138 17.2757 14.7074 17.7385C14.7122 17.7376 14.7172 17.7374 14.7221 17.7365L15.2055 17.6643C16.9775 17.4534 18.6497 17.8399 19.8139 18.2902C19.9173 18.1886 20.0207 18.0879 20.1244 17.9914C20.7396 17.4191 21.5452 17.2692 22.2387 17.5725C22.9206 17.8709 23.3658 18.5507 23.4174 19.3654C23.4515 19.906 23.4515 20.5039 23.393 21.1203C24.495 22.2924 25.7239 23.8044 27.1859 25.9182C27.6328 26.5637 28.2832 27.0389 29.0365 27.2717L29.7709 27.5061C31.575 28.0985 33.9742 29.0193 36.1683 30.3674C38.6626 31.9 41.008 34.0559 41.8021 37.0188C43.2215 42.3173 41.4672 45.635 39.4965 51.9504C39.1762 52.976 38.2916 53.7432 37.2074 53.8791C34.8734 54.1718 31.5251 54.5629 29.6224 54.6926C28.9615 54.738 28.0062 54.7477 27.2435 54.1701C26.9188 53.9237 26.6686 53.6268 26.4877 53.3049C25.8523 53.2917 25.2706 53.2707 24.7328 53.2404C24.4223 53.7577 23.9969 54.2116 23.4164 54.5236C22.4554 55.0399 21.5058 54.97 20.7445 54.5432C20.1881 54.2309 19.7552 53.7418 19.474 53.2043C17.8141 53.1606 16.3859 52.8947 15.1605 52.4484C14.8427 53.0984 14.3719 53.6793 13.6752 54.0549C12.7138 54.5729 11.7626 54.504 11.0004 54.0774C10.2722 53.6694 9.75396 52.9592 9.5121 52.2317L9.48866 52.1428L9.41444 51.7043C9.25984 50.6288 9.23332 49.1964 9.25917 47.7883C9.26947 47.2276 9.29011 46.6623 9.31385 46.1135C8.34076 43.0495 8.46503 39.6423 8.55311 37.4221C5.06772 36.3189 3.2846 34.352 2.5951 32.1897C1.88697 29.9681 2.3819 27.6911 3.07167 26.2209C3.70303 24.8755 5.19621 23.523 6.77479 22.3342C7.78312 21.5749 8.88081 20.8464 9.91639 20.1867C9.80786 19.8148 9.75679 19.3967 9.73671 18.9973C9.70775 18.4208 9.73861 17.7922 9.80604 17.2092C9.89992 16.3983 10.3908 15.7707 11.0834 15.5227ZM21.6371 18.9465C21.5402 18.9042 21.3639 18.8873 21.1459 19.09C20.1677 20.0004 19.1512 21.2323 18.601 21.968C18.3529 22.2996 17.8828 22.3674 17.5512 22.1193C17.2195 21.8713 17.1517 21.4012 17.3998 21.0695C17.7123 20.6517 18.1689 20.0804 18.6898 19.4865C17.7719 19.2055 16.6003 19.0101 15.39 19.1525L14.9887 19.2121C14.1364 19.3656 13.3478 19.8198 12.4623 20.3645C11.0043 21.2612 9.22473 22.367 7.67714 23.5324C6.09683 24.7225 4.88694 25.8821 4.42909 26.8576C3.84931 28.0934 3.46199 29.9724 4.02382 31.7346C4.56777 33.4404 6.05133 35.1907 9.52479 36.1457C10.381 36.3816 11.3013 36.3729 12.2045 36.1652C13.2107 35.9334 14.3878 35.6206 15.4613 35.2531C16.5549 34.8787 17.4683 34.4712 17.9984 34.0725C18.3294 33.8241 18.7994 33.8911 19.0482 34.2219C19.2966 34.5528 19.2304 35.0228 18.8998 35.2717C18.1695 35.8209 17.0657 36.2903 15.9476 36.6731C15.0942 36.9652 14.1883 37.2211 13.351 37.4318L12.5404 37.6272C11.7298 37.8135 10.8819 37.8736 10.0414 37.7707C9.95279 40.1387 9.8873 43.3817 10.9164 46.1643C11.4893 47.7131 12.3911 49.0832 13.7963 50.0715C15.0508 50.9538 16.7585 51.5663 19.1 51.6877C18.9976 50.6855 18.9821 49.4615 19.0043 48.2551C19.0342 46.6262 19.1362 44.9588 19.2211 43.7678C19.2506 43.3547 19.6097 43.044 20.0228 43.0734C20.4356 43.1032 20.7464 43.4614 20.7172 43.8742C20.633 45.0551 20.5335 46.6923 20.5043 48.2824C20.4753 49.8627 20.5188 51.3319 20.6957 52.2639C20.8415 52.6722 21.1313 53.04 21.4779 53.2346C21.8016 53.4161 22.207 53.4706 22.7064 53.2024C23.5187 52.7657 23.9219 51.6708 24.0072 50.3801C24.151 48.2048 24.2875 45.6158 24.2875 43.8215C24.2875 43.4074 24.6234 43.0717 25.0375 43.0715C25.4515 43.0717 25.7875 43.4074 25.7875 43.8215C25.7875 45.2073 25.7088 47.0339 25.6088 48.7795L25.5043 50.4787C25.4777 50.882 25.4191 51.3236 25.3129 51.7678C25.5691 51.779 25.8368 51.7894 26.1166 51.7971C26.1324 51.0625 26.4178 50.3096 26.9935 49.8039L27.1166 49.7024C27.3736 49.5049 27.6879 49.345 28.0502 49.215C28.08 49.2044 28.1111 49.1955 28.142 49.1887C28.6942 49.0667 29.8196 48.8534 30.892 48.7395C30.3049 47.5653 29.8008 46.0887 29.8012 44.6594C29.8014 43.6847 30.0374 42.6908 30.6849 41.8459C31.3349 40.9981 32.3406 40.3776 33.7338 40.0422L33.809 40.0275C34.1855 39.9766 34.5472 40.2185 34.6381 40.5959C34.7348 40.9984 34.4868 41.4031 34.0844 41.5002C32.9444 41.7747 32.2708 42.2432 31.8754 42.759C31.4778 43.2779 31.3014 43.924 31.3012 44.6604C31.301 46.1684 32.0427 47.8803 32.765 49.008C32.9126 49.2387 32.9228 49.5323 32.7914 49.7727C32.6598 50.0128 32.407 50.1622 32.1332 50.1623C31.0278 50.1624 29.3028 50.4717 28.515 50.6428C28.2781 50.7312 28.1251 50.8193 28.0297 50.8928L28.0267 50.8947C27.7891 51.0764 27.6109 51.4358 27.6137 51.8703C27.6164 52.2911 27.7905 52.7022 28.1498 52.9748C28.4323 53.1887 28.8725 53.241 29.5199 53.1965C31.3739 53.0701 34.6824 52.6841 37.0209 52.3908L37.1986 52.3557C37.6024 52.2425 37.9321 51.9255 38.0639 51.5041L38.4418 50.3137C40.294 44.5751 41.5491 41.8727 40.3529 37.4074C39.7048 34.9887 37.7455 33.0973 35.3832 31.6457C33.0343 30.2025 30.3991 29.2631 28.5932 28.7043C27.5219 28.3731 26.5922 27.6958 25.9525 26.7717C24.8471 25.1735 23.8868 23.9397 23.0228 22.9465C22.8765 23.394 22.6866 23.8323 22.4389 24.2453C22.2257 24.6004 21.7647 24.7161 21.4096 24.5031C21.0544 24.29 20.9396 23.829 21.1527 23.4738C21.8495 22.3125 22.0043 20.79 21.9203 19.4602C21.8999 19.1387 21.7454 18.9939 21.6371 18.9465ZM10.7533 49.0979C10.7649 50.1707 10.8229 51.1241 10.9506 51.7971C11.0965 52.2058 11.387 52.5745 11.7338 52.7688C12.0574 52.9497 12.4634 53.0038 12.9633 52.7346C13.3145 52.5452 13.5881 52.2314 13.7933 51.8322C13.4917 51.667 13.2046 51.49 12.933 51.299C12.0408 50.6715 11.3266 49.9213 10.7533 49.0979ZM12.1557 17.0949C11.9254 16.8932 11.7141 16.8903 11.5892 16.9348C11.4723 16.9767 11.3294 17.0957 11.2963 17.3811C11.2363 17.8998 11.2108 18.4443 11.2348 18.9221C11.2424 19.0744 11.257 19.212 11.2728 19.3352C11.4102 19.2504 11.5446 19.167 11.6762 19.0861C12.1469 18.7966 12.6632 18.4861 13.224 18.2277C12.9682 17.8875 12.6142 17.4965 12.1557 17.0949Z" fill="#1A1A1A"/>
<path d="M16.4685 24.3639C17.1835 24.4545 17.6897 25.1076 17.599 25.8227C17.5083 26.5377 16.8552 27.0438 16.1402 26.9531C15.4252 26.8625 14.9191 26.2093 15.0097 25.4943C15.1004 24.7793 15.7535 24.2732 16.4685 24.3639Z" fill="#1A1A1A"/>
<path d="M12.7224 23.4219C12.0396 23.191 11.299 23.5574 11.0682 24.2402C10.8373 24.9229 11.2037 25.6635 11.8865 25.8944C12.5692 26.1252 13.3098 25.7589 13.5407 25.0761C13.7715 24.3933 13.4052 23.6527 12.7224 23.4219Z" fill="#1A1A1A"/>
</svg>
