<svg width="48" height="55" viewBox="0 0 48 55" fill="none" xmlns="http://www.w3.org/2000/svg">
<path d="M32.6019 48.3568C32.7642 48.4998 32.8573 48.7048 32.8573 48.9208V54.0498H39.6233C41.0699 51.0118 43.6233 43.9578 43.6233 37.0176C43.6233 28.1864 34.8604 19.5498 24.5589 19.5498C19.3781 19.5498 13.7976 21.2798 9.52635 24.7442C5.27368 28.1935 2.3009 33.373 2.3009 40.3563C2.3009 47.5248 3.78745 50.6188 5.42417 51.9828C6.84567 53.1668 8.51893 53.1988 10.0912 53.1848V49.3658C9.44699 49.4058 8.72293 49.4088 8.07927 49.3038C7.04033 49.1351 5.96925 48.5534 5.96925 47.3628C5.96925 45.4498 6.86397 44.2768 7.96293 43.6238C9.00875 43.0018 10.1902 42.8724 10.8412 42.8724C11.4952 42.8724 13.1795 42.9197 14.6638 44.5728C16.0493 46.1158 17.148 48.9358 17.2454 54.0498H23.8089V48.9208C23.8089 48.7048 23.9024 48.4988 24.0654 48.3558C24.3615 48.0978 24.6933 48.1844 25.0352 48.2248C25.2725 48.2538 25.6046 48.2918 25.9836 48.3298C26.7488 48.4068 27.6777 48.4788 28.4003 48.4738C29.1005 48.4688 29.9975 48.3958 30.734 48.3218C31.0991 48.2858 31.419 48.2488 31.6475 48.2218C31.9844 48.1805 32.3112 48.1025 32.6019 48.3568Z" fill="#9FC1AA"/>
<path fill-rule="evenodd" clip-rule="evenodd" d="M24.5589 18.7998C19.2242 18.7998 13.4722 20.5781 9.0539 24.1617C4.63554 27.7454 1.5509 33.1345 1.5509 40.3563C1.5509 47.578 3.0389 50.9713 4.94402 52.559C6.59959 53.9379 8.54055 53.9486 10.0979 53.9348C10.5095 53.9311 10.8412 53.5964 10.8412 53.1848V49.3658C10.8412 49.1588 10.7557 48.961 10.6049 48.8193C10.454 48.6775 10.2513 48.6044 10.0447 48.6172C9.42441 48.6558 8.76331 48.6555 8.19946 48.5635C8.01229 48.5331 7.83328 48.488 7.66883 48.4298C7.44799 48.3517 7.25343 48.25 7.10069 48.1289C6.85658 47.9353 6.71925 47.698 6.71925 47.3628C6.71925 45.7306 7.46055 44.7947 8.34631 44.2684C9.23232 43.7415 10.2629 43.6224 10.8412 43.6224C11.4204 43.6224 12.8353 43.659 14.1058 45.0739C15.0339 46.1075 15.8859 47.8783 16.277 50.9125C16.3966 51.8399 16.4731 52.8855 16.4956 54.0641C16.5033 54.4727 16.8368 54.7998 17.2454 54.7998H23.8089C24.2231 54.7998 24.5589 54.464 24.5589 54.0498V48.928L25.0316 48.9798L25.9088 49.0761C26.68 49.1537 27.6415 49.2291 28.4057 49.2238C29.6036 49.2152 30.7921 49.0668 31.9805 48.9351C32.0446 48.928 32.0826 48.9266 32.1073 48.9276V54.0498C32.1073 54.464 32.4431 54.7998 32.8573 54.7998H39.6233C39.9126 54.7998 40.1761 54.6334 40.3005 54.3722C41.774 51.2776 44.3733 44.1096 44.3733 37.0176C44.3733 27.7278 35.2288 18.7998 24.5589 18.7998ZM24.5589 20.2998C19.5321 20.2998 14.1231 21.9815 9.9988 25.3267C9.96505 25.3541 9.93139 25.3815 9.89781 25.4091C8.94127 26.1953 8.05331 27.0731 7.25521 28.044C5.40286 30.2976 4.03455 33.0531 3.41629 36.33C3.17779 37.5941 3.0509 38.9359 3.0509 40.3563C3.0509 47.252 4.44572 50.0896 5.7773 51.2962C5.81967 51.3346 5.86198 51.3714 5.90417 51.4065C6.90273 52.2382 8.05581 52.4083 9.34122 52.433V50.1415C8.88513 50.1429 8.40925 50.1175 7.95852 50.044C6.56973 49.8184 5.21925 48.9348 5.21925 47.3628C5.21925 45.3932 6.06434 44.0551 7.18667 43.238C7.3144 43.145 7.44573 43.0587 7.57982 42.979C8.78538 42.2621 10.1176 42.1224 10.8412 42.1224C11.57 42.1224 13.5237 42.1804 15.2219 44.0717C16.4573 45.4476 17.4141 47.6381 17.8074 51.0722C17.8807 51.7129 17.9345 52.3969 17.9668 53.127C17.9693 53.1843 17.9717 53.2419 17.974 53.2998H23.0589V48.9208C23.0589 48.488 23.2462 48.0768 23.5708 47.792L23.5728 47.7903C24.2309 47.217 25.2684 47.5043 26.0587 47.5836C26.8179 47.66 27.7142 47.7285 28.3951 47.7238C29.0589 47.7191 29.9272 47.6491 30.659 47.5756L30.6604 47.5754C31.4495 47.4976 32.4379 47.2167 33.0958 47.7924L33.0977 47.7941C33.4206 48.0785 33.6073 48.4881 33.6073 48.9208V53.2998H39.1447C40.5871 50.1198 42.8733 43.4996 42.8733 37.0176C42.8733 28.645 34.4921 20.2998 24.5589 20.2998Z" fill="#1A1A1A"/>
<path d="M43.8771 34.1516C43.5191 33.9432 43.06 34.0646 42.8516 34.4226C42.6433 34.7806 42.7647 35.2397 43.1227 35.448C43.8581 35.876 46.7218 38.2605 45.5777 43.8859C45.5515 43.9118 45.5271 43.9396 45.5048 43.9692L45.5032 43.9706C45.4421 44.0247 45.3622 44.1033 45.3125 44.1522C45.2954 44.169 45.2819 44.1823 45.274 44.1899L45.2661 44.1973C44.9309 44.5165 44.6201 44.8551 44.2733 45.1627C44.058 45.3536 43.8244 45.7413 43.7417 45.9438L43.622 46.4481C43.5288 46.8517 43.7805 47.2544 44.1841 47.3476C44.5122 47.4233 44.8879 47.2642 45.049 46.9878C44.9922 47.281 44.9776 47.3288 44.962 47.5045C44.9456 47.6891 44.9328 47.8729 44.921 48.05C44.8935 48.4633 45.2063 48.8206 45.6196 48.8481C46.0329 48.8756 46.3902 48.5628 46.4177 48.1495C46.4221 48.0835 46.4265 48.0182 46.4312 47.9534C46.568 48.1001 46.7631 48.1917 46.9795 48.1917C47.3937 48.1917 47.7295 47.856 47.7295 47.4417C47.7295 47.1996 47.7271 46.8717 47.6477 46.5377C47.6133 46.3936 47.589 46.24 47.5628 46.0584L47.5518 45.981C47.5297 45.8258 47.4338 45.4291 47.358 45.0399C47.2822 44.6507 47.0635 44.1061 47.0635 44.1061C48.3091 37.828 45.0916 34.8583 43.8771 34.1516Z" fill="#1A1A1A"/>
<path fill-rule="evenodd" clip-rule="evenodd" d="M17.2115 24.8996C16.3469 25.7045 15.8392 26.6244 15.7129 27.0936C15.6053 27.4936 15.1937 27.7306 14.7938 27.6229C14.3938 27.5153 14.1568 27.1037 14.2645 26.7038C14.4794 25.9054 15.168 24.7526 16.1894 23.8017C17.2261 22.8367 18.688 22.0033 20.4818 22.0033C21.5028 22.0033 23.2105 22.2041 24.6775 23.3202C26.1833 24.4657 27.3008 26.4707 27.3008 29.7976C27.3008 33.1803 25.7445 35.986 23.8394 37.8677C22.8864 38.809 21.8313 39.5346 20.8107 39.9921C19.8058 40.4427 18.7621 40.6645 17.8624 40.4909C16.1568 40.1617 15.0486 38.9086 14.4839 37.4134C13.9225 35.9271 13.8606 34.1302 14.2597 32.4811C14.3572 32.0785 14.7625 31.8311 15.1651 31.9285C15.5677 32.026 15.8151 32.4313 15.7177 32.8339C15.3797 34.2304 15.4461 35.7158 15.8871 36.8834C16.3248 38.0422 17.093 38.8147 18.1466 39.0181C18.6266 39.1107 19.341 39.0072 20.1971 38.6234C21.0377 38.2465 21.9467 37.6289 22.7853 36.8005C24.4636 35.1429 25.8008 32.7039 25.8008 29.7976C25.8008 26.8354 24.8267 25.3184 23.7693 24.514C22.6733 23.6801 21.3465 23.5033 20.4818 23.5033C19.175 23.5033 18.061 24.1088 17.2115 24.8996Z" fill="#1A1A1A"/>
<path d="M11.55 36.0493C12.1023 36.0493 12.55 36.497 12.55 37.0493C12.55 37.6016 12.1023 38.0493 11.55 38.0493C10.9977 38.0493 10.55 37.6016 10.55 37.0493C10.55 36.497 10.9977 36.0493 11.55 36.0493Z" fill="#1A1A1A"/>
<path fill-rule="evenodd" clip-rule="evenodd" d="M9.01696 40.0598C9.32316 39.7809 9.79752 39.803 10.0765 40.1092C10.9304 41.0464 10.8632 42.4982 9.9267 43.3527L9.62088 43.6312C9.31466 43.9102 8.8403 43.888 8.56138 43.5818C8.28245 43.2756 8.30459 42.8012 8.61081 42.5223L8.91566 42.2446C8.91574 42.2446 8.91558 42.2447 8.91566 42.2446C9.24038 41.9481 9.26379 41.4444 8.96764 41.1194C8.68869 40.8132 8.71077 40.3388 9.01696 40.0598Z" fill="#1A1A1A"/>
<path d="M5.17999 36.0493C4.6277 36.0493 4.17999 36.497 4.17999 37.0493C4.17999 37.6016 4.6277 38.0493 5.17999 38.0493C5.73228 38.0493 6.17999 37.6016 6.17999 37.0493C6.17999 36.497 5.73228 36.0493 5.17999 36.0493Z" fill="#1A1A1A"/>
</svg>
