<svg width="48" height="55" viewBox="0 0 48 55" fill="none" xmlns="http://www.w3.org/2000/svg">
<path d="M19.3172 52.74C14.8719 46.63 9.74548 31.67 6.82638 22.59C6.41248 21.31 7.37778 20.06 8.71218 20.27C19.1553 21.96 45 31.09 45 34.13C45 35.97 34.3576 37.1 27.7053 38.69C26.6454 38.94 25.8527 39.79 25.5782 40.85C24.6684 44.34 23.1668 49.1601 21.984 52.2901C21.5261 53.5001 20.0799 53.79 19.3172 52.74Z" fill="#FFA629"/>
<path d="M8.6477 19.5067L8.82935 19.5291L8.83228 19.5301C14.1253 20.3867 23.2505 23.1106 31.0325 25.9901C34.9278 27.4314 38.5153 28.9225 41.1379 30.2508C42.4453 30.913 43.5403 31.5485 44.3186 32.1307C44.7061 32.4206 45.0417 32.7166 45.2874 33.0164C45.5209 33.3016 45.7501 33.6833 45.7502 34.1297C45.7502 34.7461 45.3109 35.161 44.9563 35.4061C44.5711 35.6723 44.0563 35.8999 43.4836 36.1024C42.3288 36.5107 40.746 36.8829 38.9973 37.2391C35.445 37.9626 31.1989 38.6265 27.8801 39.4198L27.678 38.5721L27.7249 38.7723L27.8801 39.4198H27.8782L27.7375 39.4588C27.0445 39.6773 26.5043 40.2685 26.3049 41.0379L26.304 41.0389C25.3886 44.5501 23.8795 49.3966 22.6858 52.5555L22.6223 52.7098C22.2834 53.4622 21.6367 53.9675 20.8977 54.1004C20.0963 54.2445 19.2581 53.9348 18.7102 53.1805C16.4247 50.0387 14.0024 44.6884 11.801 39.0516C9.59079 33.3921 7.5748 27.3655 6.11353 22.8201C5.56536 21.1239 6.79874 19.3382 8.6477 19.5067ZM8.59302 21.0096C7.91922 20.9055 7.35407 21.4731 7.50122 22.2098L7.54028 22.3592C8.99806 26.8937 11.0046 32.888 13.1985 38.5057C15.2635 43.7933 17.4697 48.6806 19.5168 51.7166L19.9241 52.2987L20.0071 52.4002C20.2049 52.6109 20.4338 52.6604 20.6321 52.6248C20.8719 52.5817 21.1414 52.3971 21.2825 52.0242C22.4543 48.9231 23.9486 44.1295 24.8528 40.661C25.1684 39.4435 26.0532 38.417 27.2825 38.0291L27.5334 37.9598C30.8666 37.1633 35.2664 36.4681 38.6975 35.7694C40.441 35.4143 41.9352 35.059 42.9836 34.6883C43.5125 34.5013 43.881 34.3256 44.1038 34.1717C44.1531 34.1376 44.1877 34.1081 44.2131 34.0858C44.1945 34.0559 44.1673 34.0166 44.1272 33.9676C43.9892 33.7991 43.7594 33.5856 43.4202 33.3319C42.7444 32.8263 41.7387 32.2363 40.4602 31.5887C37.9106 30.2973 34.3832 28.8297 30.512 27.3973C22.7612 24.5294 13.743 21.8431 8.59302 21.0096Z" fill="#1A1A1A"/>
<path d="M17.055 27.0051C17.6377 27.0051 18.11 27.4775 18.11 28.0601C18.11 28.6428 17.6377 29.1151 17.055 29.1151C16.4723 29.1151 16 28.6428 16 28.0601C16 27.4775 16.4723 27.0051 17.055 27.0051Z" fill="#1A1A1A"/>
<path d="M13.055 27.0051C12.4723 27.0051 12 27.4775 12 28.0601C12 28.6428 12.4723 29.1151 13.055 29.1151C13.6377 29.1151 14.11 28.6428 14.11 28.0601C14.11 27.4775 13.6377 27.0051 13.055 27.0051Z" fill="#1A1A1A"/>
<path d="M20.8459 33.1333C21.1704 32.8763 21.6416 32.931 21.8989 33.2553C22.1561 33.5798 22.1024 34.0519 21.7779 34.3092C19.7867 35.8875 17.5026 36.5899 15.0366 36.7521C14.6232 36.7793 14.2665 36.4658 14.2393 36.0525C14.2123 35.6394 14.5248 35.2825 14.9379 35.2552C17.1716 35.1083 19.144 34.4823 20.8459 33.1333Z" fill="#1A1A1A"/>
</svg>
