<svg width="48" height="55" viewBox="0 0 48 55" fill="none" xmlns="http://www.w3.org/2000/svg">
<path d="M24 55C34.4934 55 43 46.9411 43 37C43 27.0589 34.4934 19 24 19C13.5066 19 5 27.0589 5 37C5 46.9411 13.5066 55 24 55Z" fill="#F5F5F5"/>
<path fill-rule="evenodd" clip-rule="evenodd" d="M40.2822 44.1104L39.5957 45.9199L37.7031 48.8203L35.0684 51.4004L33.5049 52.5H32.7373L33.7246 49.04L38.7178 43.2803L40.2822 44.1104ZM25.8545 40.5605L27.0918 47.9102L20.0137 50.8604L14.6533 45.0205L18.0898 39.1104L25.8545 40.5605ZM8.95215 43.9297L9.46094 47.4102H9.16406L8.12793 45.8398L7.33301 43.75L6.66113 41.5605L6.2793 39.1299V37.1797H6.66113L8.95215 43.9297ZM38.9824 30.7305L37.5391 35.8799L31.4219 34.2305L28.9482 27.5L33.3467 24.8896L38.9824 30.7305ZM20.9072 25.8496L15.4092 31.0703L10.1182 30.6602L11.7676 25.0205L18.2275 22L20.9072 25.8496Z" fill="#444444"/>
<path fill-rule="evenodd" clip-rule="evenodd" d="M20.5 54.25H19.5V50H20.5V54.25ZM34.374 48.6611L34.1699 49.6396L26.6035 48.0596L26.8086 47.0811L34.374 48.6611ZM15.6074 44.4062L15.4531 45.3936L8.3584 44.2842L8.5127 43.2959L15.6074 44.4062ZM39.2158 43.6455L38.2344 43.834L36.5449 35.0137L37.5273 34.8262L39.2158 43.6455ZM32.0127 34.3301L25.8838 41.29L25.1338 40.6299L31.2627 33.6699L32.0127 34.3301ZM18.8564 39.5469L17.9121 39.874L14.8096 30.9033L15.7549 30.5771L18.8564 39.5469ZM11.416 30.3506L6.76953 37.5898L5.92676 37.0498L10.5752 29.8096L11.416 30.3506ZM40.9131 31.25H38.3291V30.25H40.9131V31.25ZM29.832 27.3018L29.6143 28.2773L20.1807 26.168L20.3994 25.1914L29.832 27.3018ZM33.8994 26.0537L32.8994 26.0654L32.8516 22.1855L33.8516 22.1738L33.8994 26.0537ZM22.5586 20.2979L18.2754 23.1172L17.7246 22.2822L22.0088 19.4619L22.5586 20.2979Z" fill="#444444"/>
<g opacity="0.3">
<path fill-rule="evenodd" clip-rule="evenodd" d="M9.90781 40.3801C9.90781 43.0301 10.4988 45.5301 11.5508 47.7601C8.85081 44.7701 7.19482 40.7402 7.19482 36.3002C7.19482 27.1002 14.3188 19.6401 23.1068 19.6401C29.3638 19.6401 34.7768 23.4202 37.3758 28.9202C34.4758 25.7102 30.3708 23.7101 25.8198 23.7101C17.0318 23.7101 9.90781 31.1701 9.90781 40.3801Z" fill="white"/>
<path fill-rule="evenodd" clip-rule="evenodd" d="M39.0689 33.5898C39.0689 32.4898 40.5129 31.9299 40.8019 32.9899C41.2019 34.4499 41.4159 35.9898 41.4159 37.5898C41.4159 46.7898 34.2909 54.2499 25.5029 54.2499C21.4599 54.2499 17.7679 52.6698 14.9609 50.0698C14.1099 49.2798 15.3919 48.1898 16.4349 48.6998C18.4769 49.6898 20.7549 50.2499 23.1569 50.2499C31.9449 50.2499 39.0689 42.7898 39.0689 33.5898Z" fill="#878787"/>
</g>
<path d="M41.5 37C41.5 27.9615 33.742 20.5 24 20.5C14.258 20.5 6.5 27.9615 6.5 37C6.5 46.0385 14.258 53.5 24 53.5C33.742 53.5 41.5 46.0385 41.5 37ZM43 37C43 46.9415 34.494 55 24 55C13.506 55 5 46.9415 5 37C5 27.0585 13.506 19 24 19C34.494 19 43 27.0585 43 37Z" fill="#1A1A1A"/>
<path fill-rule="evenodd" clip-rule="evenodd" d="M20.1315 33.4151C20.5067 33.2398 20.9531 33.4018 21.1285 33.7771C21.6368 34.865 22.9917 35.2505 23.9964 34.5932L24.1083 34.5199C24.4548 34.2929 24.9197 34.3898 25.1467 34.7363C25.3737 35.0828 25.2768 35.5477 24.9303 35.7746L24.8183 35.8479C23.0493 37.0057 20.6643 36.3271 19.7695 34.4121C19.5942 34.0368 19.7562 33.5905 20.1315 33.4151Z" fill="#1A1A1A"/>
<path d="M19.2452 30.8768C18.7106 30.7386 18.165 31.0599 18.0267 31.5946C17.8884 32.1293 18.2098 32.6749 18.7445 32.8131C19.2792 32.9514 19.8247 32.6301 19.963 32.0954C20.1013 31.5607 19.7799 31.0151 19.2452 30.8768Z" fill="#1A1A1A"/>
<path d="M26.943 32.9364C27.4777 33.0747 27.7991 33.6202 27.6608 34.1549C27.5225 34.6896 26.9769 35.011 26.4422 34.8727C25.9075 34.7344 25.5862 34.1889 25.7245 33.6542C25.8628 33.1195 26.4083 32.7981 26.943 32.9364Z" fill="#1A1A1A"/>
</svg>
