<svg width="48" height="55" viewBox="0 0 48 55" fill="none" xmlns="http://www.w3.org/2000/svg">
<path d="M24 55C34.4934 55 43 46.9411 43 37C43 27.0589 34.4934 19 24 19C13.5066 19 5 27.0589 5 37C5 46.9411 13.5066 55 24 55Z" fill="#383838"/>
<path opacity="0.2" fill-rule="evenodd" clip-rule="evenodd" d="M26.9832 24.0699C32.0152 24.0699 36.5541 26.07 39.7611 29.28C36.8871 23.78 30.9012 20 23.9832 20C14.2662 20 6.38916 27.46 6.38916 36.66C6.38916 41.1 8.22014 45.13 11.2051 48.12C10.0431 45.9 9.38916 43.39 9.38916 40.74C9.38916 31.53 17.2662 24.0699 26.9832 24.0699Z" fill="white"/>
<path d="M19.0142 49.1299C23.9847 49.1299 28.0142 45.5482 28.0142 41.1299C28.0142 36.7116 23.9847 33.1299 19.0142 33.1299C14.0436 33.1299 10.0142 36.7116 10.0142 41.1299C10.0142 45.5482 14.0436 49.1299 19.0142 49.1299Z" fill="#E6E6E6"/>
<path d="M16.3689 46.2602C15.7169 46.1202 15.2179 45.9302 14.8719 45.6802C14.5249 45.4302 14.2979 45.1502 14.1919 44.8102C14.0939 44.4802 14.0859 44.1201 14.1689 43.7301C14.2359 43.4201 14.4249 43.1102 14.7379 42.8002C15.0619 42.4902 15.4729 42.1802 15.9739 41.8702C16.4749 41.5502 17.0259 41.2302 17.6239 40.9202C17.0579 40.5402 16.6869 40.2002 16.5119 39.9002C16.3479 39.5902 16.3019 39.2602 16.3739 38.9202C16.4189 38.7102 16.5789 38.4801 16.8539 38.2301C17.1389 37.9701 17.489 37.7201 17.903 37.4801C18.327 37.2401 18.7679 37.0201 19.2239 36.8301C19.6899 36.6401 20.1319 36.5002 20.5499 36.4102C20.9769 36.3102 21.3269 36.3001 21.5979 36.3501C21.8779 36.4101 22.0979 36.5301 22.2569 36.6901C22.4179 36.8501 22.4699 37.0701 22.4129 37.3401C22.3889 37.4501 22.3319 37.5701 22.2419 37.7001C22.1519 37.8301 22.0159 37.9302 21.8329 38.0002C21.6589 38.0702 21.4149 38.0702 21.1019 38.0002C21.0079 37.9802 20.9049 37.9502 20.7919 37.9002C20.3879 38.0102 19.9969 38.1302 19.6189 38.2802C19.2419 38.4402 18.9089 38.6002 18.6219 38.7902C18.3339 38.9802 18.1229 39.1802 17.9899 39.3902C18.1599 39.5002 18.3389 39.6202 18.5259 39.7402C18.7219 39.8602 18.9299 39.9902 19.1509 40.1102C19.3499 40.0102 19.5479 39.9102 19.7459 39.8102C19.9549 39.7102 20.1589 39.6002 20.3599 39.4902C21.1379 39.0802 21.8479 38.7202 22.4889 38.4202C23.1379 38.1102 23.684 37.8801 24.127 37.7101C24.577 37.5501 24.8869 37.4902 25.0569 37.5302C25.2009 37.5602 25.3079 37.6402 25.3779 37.7702C25.4479 37.9002 25.4669 38.0302 25.4369 38.1802C25.4129 38.2902 25.3349 38.4102 25.2029 38.5302C25.0789 38.6502 24.8589 38.8102 24.5419 39.0102C24.2269 39.2002 23.7799 39.4502 23.2019 39.7502C22.6339 40.0502 21.8979 40.4302 20.9929 40.8902C20.8829 40.9502 20.7699 41.0002 20.6519 41.0602C21.1489 41.4302 21.5099 41.8101 21.7339 42.2201C21.9609 42.6101 22.0189 43.0701 21.9089 43.5801C21.7739 44.2201 21.4639 44.7802 20.9779 45.2702C20.5029 45.7602 19.8769 46.1002 19.0999 46.2902C18.3219 46.4902 17.4119 46.4802 16.3689 46.2602ZM19.1669 41.7902C18.6229 42.0602 18.1179 42.3102 17.6509 42.5402C17.1919 42.7802 16.8159 43.0101 16.5209 43.2301C16.2269 43.4501 16.0609 43.6501 16.0209 43.8301C15.9709 44.0701 16.0249 44.2701 16.1849 44.4401C16.3459 44.6001 16.6469 44.7201 17.0879 44.8201C17.3929 44.8801 17.7149 44.8901 18.0539 44.8401C18.3929 44.7801 18.7119 44.6802 19.0109 44.5202C19.3189 44.3702 19.5819 44.1701 19.7989 43.9401C20.0169 43.7101 20.1589 43.4402 20.2239 43.1302C20.2779 42.8802 20.1999 42.6402 19.9899 42.4202C19.7889 42.2002 19.5139 41.9902 19.1669 41.7902Z" fill="#1E1E1E"/>
<path d="M41.5 37C41.5 27.9615 33.742 20.5 24 20.5C14.258 20.5 6.5 27.9615 6.5 37C6.5 46.0385 14.258 53.5 24 53.5C33.742 53.5 41.5 46.0385 41.5 37ZM43 37C43 46.9415 34.494 55 24 55C13.506 55 5 46.9415 5 37C5 27.0585 13.506 19 24 19C34.494 19 43 27.0585 43 37Z" fill="#1A1A1A"/>
<path opacity="0.5" fill-rule="evenodd" clip-rule="evenodd" d="M21 49.9302C18.352 49.9302 15.841 49.3702 13.589 48.3802C12.541 47.9202 11.42 49.0402 12.294 49.7802C15.404 52.4002 19.505 54.0002 24 54.0002C33.717 54.0002 41.594 46.5401 41.594 37.3401C41.594 35.2001 41.169 33.1502 40.394 31.2702C39.957 30.2102 38.472 30.9802 38.554 32.1202C38.581 32.5002 38.594 32.8802 38.594 33.2602C38.594 42.4702 30.717 49.9302 21 49.9302Z" fill="#1E1E1E"/>
<path fill-rule="evenodd" clip-rule="evenodd" d="M17.5166 27.7456C17.8934 27.5736 18.3383 27.7395 18.5104 28.1163C19.0093 29.2086 20.3607 29.6059 21.3711 28.9574L21.4837 28.885C21.8322 28.6611 22.2962 28.7621 22.5201 29.1105C22.7441 29.459 22.6431 29.923 22.2946 30.1469L22.1821 30.2193C20.403 31.3615 18.0241 30.6622 17.146 28.7394C16.9739 28.3626 17.1399 27.9177 17.5166 27.7456Z" fill="#D9D9D9"/>
<path d="M16.6256 25.2085C16.0921 25.0656 15.5438 25.3822 15.4008 25.9156C15.2579 26.4491 15.5745 26.9974 16.108 27.1404C16.6414 27.2833 17.1898 26.9667 17.3327 26.4333C17.4756 25.8998 17.1591 25.3515 16.6256 25.2085Z" fill="#D9D9D9"/>
<path d="M24.3233 27.2681C24.8568 27.411 25.1734 27.9594 25.0305 28.4928C24.8875 29.0263 24.3392 29.3429 23.8057 29.1999C23.2722 29.057 22.9557 28.5087 23.0986 27.9752C23.2415 27.4417 23.7899 27.1252 24.3233 27.2681Z" fill="#D9D9D9"/>
</svg>
