<svg width="48" height="55" viewBox="0 0 48 55" fill="none" xmlns="http://www.w3.org/2000/svg">
<path d="M24 55C34.4934 55 43 46.9411 43 37C43 27.0589 34.4934 19 24 19C13.5066 19 5 27.0589 5 37C5 46.9411 13.5066 55 24 55Z" fill="#B3EE71"/>
<path opacity="0.3" fill-rule="evenodd" clip-rule="evenodd" d="M26.9832 24.0699C32.0152 24.0699 36.5542 26.07 39.7612 29.28C36.8872 23.78 30.9012 20 23.9832 20C14.2662 20 6.38916 27.46 6.38916 36.66C6.38916 41.1 8.22015 45.13 11.2052 48.12C10.0432 45.9 9.38916 43.39 9.38916 40.74C9.38916 31.53 17.2662 24.0699 26.9832 24.0699Z" fill="white"/>
<path d="M31.9956 21.061C32.4535 20.7522 33.0755 20.8736 33.3843 21.3315C38.1936 28.4644 39.6215 34.4982 38.7954 39.1244C37.9624 43.789 34.8585 46.8691 31.0073 48.018V48.019C27.6162 49.0278 24.9343 48.7723 22.6909 47.4594C20.5068 46.181 18.8823 43.9781 17.4019 41.4213L17.3745 41.3754L17.353 41.3266L18.2671 40.9203L18.272 40.9164L17.353 41.3266C16.3391 39.0494 15.4537 36.8061 14.0327 35.0229C13.514 34.3724 12.3862 33.657 11.0064 33.1059C9.64308 32.5614 8.24244 32.2604 7.30713 32.2895C6.75527 32.3067 6.29332 31.8735 6.27588 31.3217C6.25869 30.7697 6.69267 30.3077 7.24463 30.2905C8.55623 30.2496 10.244 30.648 11.7476 31.2485C13.1415 31.8052 14.5632 32.6092 15.4312 33.5805L15.5972 33.7768L15.894 34.1645C17.3334 36.1151 18.2699 38.4652 19.1577 40.4633C20.5922 42.9336 21.9955 44.7346 23.7007 45.7328C25.3569 46.7022 27.4407 46.9929 30.436 46.102L30.73 46.0092C33.7479 45.0036 36.1522 42.5442 36.8257 38.7729C37.5277 34.8417 36.3694 29.3353 31.7261 22.4487C31.4175 21.9908 31.5379 21.3697 31.9956 21.061Z" fill="white"/>
<path d="M41.5 37C41.5 27.9615 33.742 20.5 24 20.5C14.258 20.5 6.5 27.9615 6.5 37C6.5 46.0385 14.258 53.5 24 53.5C33.742 53.5 41.5 46.0385 41.5 37ZM43 37C43 46.9415 34.494 55 24 55C13.506 55 5 46.9415 5 37C5 27.0585 13.506 19 24 19C34.494 19 43 27.0585 43 37Z" fill="#1A1A1A"/>
<path opacity="0.14" fill-rule="evenodd" clip-rule="evenodd" d="M41.2718 34.14C41.4828 35.18 41.5938 36.2399 41.5938 37.3399C41.5938 46.5399 33.7168 54 23.9998 54C19.7208 54 15.7988 52.55 12.7488 50.15C11.8258 49.42 13.0138 48.31 14.0808 48.81C16.4138 49.89 19.0378 50.5 21.8118 50.5C31.5288 50.5 39.4058 43.0399 39.4058 33.8299C39.4058 32.9199 40.6958 32.44 40.9988 33.3C41.0968 33.58 41.1878 33.86 41.2718 34.14Z" fill="#3C670C"/>
<path fill-rule="evenodd" clip-rule="evenodd" d="M17.5175 27.7448C17.8944 27.5728 18.3392 27.739 18.5111 28.1158C19.0095 29.2084 20.3607 29.6063 21.3715 28.9582L21.4841 28.8859C21.8326 28.6621 22.2966 28.7633 22.5204 29.1118C22.7442 29.4604 22.643 29.9244 22.2945 30.1481L22.1819 30.2204C20.4023 31.3619 18.0237 30.6615 17.1464 28.7384C16.9745 28.3615 17.1407 27.9167 17.5175 27.7448Z" fill="#1A1A1A"/>
<path d="M16.6261 25.2085C16.0926 25.0656 15.5443 25.3822 15.4013 25.9156C15.2584 26.4491 15.575 26.9974 16.1084 27.1404C16.6419 27.2833 17.1902 26.9667 17.3332 26.4333C17.4761 25.8998 17.1595 25.3515 16.6261 25.2085Z" fill="#1A1A1A"/>
<path d="M24.3233 27.2681C24.8568 27.411 25.1734 27.9594 25.0305 28.4928C24.8875 29.0263 24.3392 29.3429 23.8057 29.1999C23.2722 29.057 22.9557 28.5087 23.0986 27.9752C23.2415 27.4417 23.7899 27.1252 24.3233 27.2681Z" fill="#1A1A1A"/>
</svg>
