<svg width="48" height="55" viewBox="0 0 48 55" fill="none" xmlns="http://www.w3.org/2000/svg">
<path d="M24 55C34.4934 55 43 46.9411 43 37C43 27.0589 34.4934 19 24 19C13.5066 19 5 27.0589 5 37C5 46.9411 13.5066 55 24 55Z" fill="#FFF0FE"/>
<path d="M30.7439 43.51C32.6209 38.62 32.4219 32.85 32.0569 30.53L28.2549 27.75C26.0639 28.61 22.1759 28.38 16.9349 32.45C12.1259 36.17 9.11295 40.6 7.57495 43.62L8.42194 45.47L9.97693 48.59L12.4969 51.1L15.1969 52.71L18.5339 54.26L22.1759 55C24.3359 52.98 28.7889 48.59 30.7439 43.51Z" fill="#FF99E0"/>
<path d="M21.3601 22.5997C22.7961 23.0497 26.1081 24.5998 27.5841 25.3098L30.5731 24.4797C30.5381 24.0197 30.4681 22.9397 30.4621 22.3297C30.4561 21.7197 29.7471 20.4197 29.3941 19.8497L25.2091 19.2598L20.8601 19.4397L16.8911 20.5797L12.9951 22.8998C15.1851 22.6098 19.9241 22.1397 21.3601 22.5997Z" fill="#FFC470"/>
<path d="M37.0681 26.52L34.4321 26.9399L33.9761 29.9999C35.0421 31.1299 36.543 32.2199 38.218 34.6999C39.814 37.0699 40.4241 40.77 41.0051 43.16L41.718 40.8299L42.386 37.68L41.7511 33.66L40.7151 29.9799L38.9261 26.9399C38.5931 26.7499 37.7561 26.41 37.0681 26.52Z" fill="#85E0A3"/>
<path d="M28.8787 30.0318C30.6908 31.5898 33.1421 31.7103 34.3538 30.3009C35.5656 28.8915 35.079 26.4859 33.2669 24.9279C31.4548 23.3699 29.0035 23.2495 27.7917 24.6589C26.58 26.0683 27.0666 28.4738 28.8787 30.0318Z" fill="#E5F4FF"/>
<path d="M41.5 37C41.5 27.9615 33.742 20.5 24 20.5C14.258 20.5 6.5 27.9615 6.5 37C6.5 46.0385 14.258 53.5 24 53.5C33.742 53.5 41.5 46.0385 41.5 37ZM43 37C43 46.9415 34.494 55 24 55C13.506 55 5 46.9415 5 37C5 27.0585 13.506 19 24 19C34.494 19 43 27.0585 43 37Z" fill="#1A1A1A"/>
<path opacity="0.2" d="M23.9832 20C30.9002 20 36.8841 23.78 39.7581 29.28C36.5521 26.07 32.0142 24.0699 26.9832 24.0699C17.2662 24.0699 9.38916 31.53 9.38916 40.74C9.38916 43.39 10.0442 45.9 11.2082 48.12C8.22116 45.13 6.38916 41.1 6.38916 36.67C6.38916 27.46 14.2662 20 23.9832 20Z" fill="white"/>
<path opacity="0.5" d="M23.9999 54.0001C19.3179 54.0001 15.0629 52.27 11.9109 49.44C11.0529 48.67 12.2339 47.6 13.2679 48.11C15.7009 49.32 18.4699 50.0001 21.4059 50.0001C31.1229 50.0001 38.9999 42.54 38.9999 33.33C38.9989 32.19 40.5399 31.53 40.8809 32.62C41.3449 34.12 41.5939 35.7 41.5939 37.33C41.5939 46.54 33.7169 54.0001 23.9999 54.0001Z" fill="#DAAACE"/>
<path fill-rule="evenodd" clip-rule="evenodd" d="M17.5175 27.7448C17.8944 27.5728 18.3392 27.739 18.5111 28.1158C19.0095 29.2084 20.3607 29.6063 21.3715 28.9582L21.4841 28.8859C21.8326 28.6621 22.2966 28.7633 22.5204 29.1118C22.7442 29.4604 22.643 29.9244 22.2945 30.1481L22.1819 30.2204C20.4023 31.3619 18.0237 30.6615 17.1464 28.7384C16.9745 28.3615 17.1407 27.9167 17.5175 27.7448Z" fill="#1A1A1A"/>
<path d="M16.6261 25.2085C16.0926 25.0656 15.5443 25.3822 15.4013 25.9156C15.2584 26.4491 15.575 26.9974 16.1084 27.1404C16.6419 27.2833 17.1902 26.9667 17.3332 26.4333C17.4761 25.8998 17.1595 25.3515 16.6261 25.2085Z" fill="#1A1A1A"/>
<path d="M24.3233 27.2681C24.8568 27.411 25.1734 27.9594 25.0305 28.4928C24.8875 29.0263 24.3392 29.3429 23.8057 29.1999C23.2722 29.057 22.9557 28.5087 23.0986 27.9752C23.2415 27.4417 23.7899 27.1252 24.3233 27.2681Z" fill="#1A1A1A"/>
</svg>
