<svg width="48" height="55" viewBox="0 0 48 55" fill="none" xmlns="http://www.w3.org/2000/svg">
<path d="M6.77425 28.11C6.77802 29.98 2.1079 36.9801 1.19434 38.6501C1.19434 42.2701 1.98373 43.14 3.85144 45.13C11.0383 52.75 23.3002 54.1801 32.3396 54.1801C59.8193 54.1801 43.2575 26.06 26.5604 20.85C18.7023 18.39 16.2252 21.02 13.6384 22.47C11.0162 23.93 8.85659 25.9 6.77425 28.11Z" fill="#EBA99D"/>
<path fill-rule="evenodd" clip-rule="evenodd" d="M15.1112 22.4597C14.7525 22.6829 14.3909 22.9081 14.0051 23.1243L14.0033 23.1253C11.4784 24.5311 9.38018 26.438 7.32011 28.6244L7.31926 28.6253C7.20205 28.7493 6.91904 29.1826 6.5877 29.8471C6.27027 30.4837 5.94887 31.2507 5.73329 31.9811C5.50984 32.7382 5.43231 33.3513 5.50215 33.7298C5.53431 33.9041 5.58593 33.9636 5.60499 33.9807C5.61588 33.9905 5.67178 34.0401 5.86641 34.0401C7.42203 34.0401 9.01266 34.5233 10.4989 35.039C10.8287 35.1535 11.1527 35.2692 11.4716 35.383C12.6329 35.7977 13.7262 36.1882 14.7855 36.4054L14.7859 36.4055C15.9536 36.6455 17.1939 36.8321 18.4832 37.0206C18.5914 37.0365 18.7001 37.0523 18.809 37.0682C19.9904 37.2405 21.2081 37.4181 22.4147 37.6414C25.0463 38.1281 27.7018 38.8438 29.978 40.2638C30.3294 40.483 30.4366 40.9456 30.2174 41.2971C29.9981 41.6485 29.5355 41.7557 29.1841 41.5364C27.1481 40.2664 24.7137 39.5921 22.1419 39.1163C20.9648 38.8986 19.775 38.725 18.5887 38.5519C18.4811 38.5363 18.3736 38.5206 18.2662 38.5049C16.9799 38.3168 15.6994 38.1246 14.4838 37.8747C13.3102 37.634 12.0842 37.1957 10.9096 36.7757C10.6047 36.6667 10.3033 36.5589 10.0072 36.4562C8.52511 35.9419 7.14578 35.5401 5.86641 35.5401C5.73568 35.5401 5.60738 35.5301 5.48285 35.5091C5.41495 35.5293 5.34302 35.5401 5.26856 35.5401C4.72769 35.5401 3.87736 35.6043 3.18086 36.0131C2.5516 36.3825 1.94434 37.0914 1.94434 38.6501C1.94434 40.413 2.13834 41.4084 2.50155 42.1829C2.87262 42.9743 3.44684 43.6031 4.39761 44.6161C7.86082 48.2877 12.5759 50.4973 17.5876 51.7862C22.5974 53.0746 27.8537 53.4301 32.3396 53.4301C39.1155 53.4301 42.9376 51.6934 44.779 49.2532C46.6123 46.8237 46.6653 43.4488 45.3115 39.7251C43.9625 36.0147 41.2597 32.1036 37.8495 28.7941C34.4398 25.4849 30.3723 22.8251 26.337 21.566L26.3364 21.5658C22.504 20.3661 20.0719 20.4339 18.3222 20.9168C17.0064 21.2799 16.0696 21.8631 15.1112 22.4597ZM4.0565 34.14C4.04527 34.0939 4.0355 34.0478 4.02705 34.002C3.8903 33.2608 4.05656 32.3632 4.29464 31.5565C4.54059 30.7232 4.89845 29.8734 5.24534 29.1777C5.57815 28.5103 5.94431 27.8965 6.22881 27.5953C8.33304 25.3621 10.5537 23.3293 13.2726 21.8153C13.5574 21.6557 13.858 21.4683 14.1794 21.2679C15.1789 20.645 16.3787 19.8971 17.9232 19.4708C20.0231 18.8913 22.7585 18.874 26.7838 20.1341M4.0565 34.14C3.54104 34.2307 2.96365 34.4013 2.42147 34.7196C1.30047 35.3777 0.444336 36.5988 0.444336 38.6501C0.444336 40.5072 0.645025 41.7568 1.14344 42.8198C1.63165 43.8609 2.38114 44.6595 3.29199 45.6299L3.30457 45.6433L3.30583 45.6447C7.02945 49.5927 12.0386 51.9079 17.214 53.239C22.3918 54.5706 27.7861 54.9301 32.3396 54.9301C39.3036 54.9301 43.7162 53.1518 45.9763 50.1567C48.2445 47.1509 48.16 43.1701 46.7212 39.2126C45.2775 35.2417 42.4267 31.1459 38.8942 27.7176C35.3615 24.2891 31.0975 21.4802 26.7845 20.1343" fill="#1A1A1A"/>
<path d="M23.0301 32.4626C23.5523 32.5547 23.9009 33.0526 23.8088 33.5747C23.7168 34.0969 23.2189 34.4455 22.6967 34.3534C22.1746 34.2614 21.8259 33.7635 21.918 33.2413C22.0101 32.7192 22.508 32.3705 23.0301 32.4626Z" fill="#1A1A1A"/>
<path d="M13.4518 30.5461C12.9296 30.454 12.4317 30.8027 12.3396 31.3248C12.2476 31.847 12.5962 32.3449 13.1184 32.4369C13.6405 32.529 14.1384 32.1804 14.2305 31.6582C14.3225 31.1361 13.9739 30.6382 13.4518 30.5461Z" fill="#1A1A1A"/>
</svg>
