<svg width="48" height="55" viewBox="0 0 48 55" fill="none" xmlns="http://www.w3.org/2000/svg">
<path d="M6.77408 28.11C6.77808 29.98 2.10809 36.9801 1.19409 38.6501C1.19409 42.2701 1.98409 43.14 3.85109 45.13C11.0381 52.75 23.3001 54.1801 32.3391 54.1801C59.8191 54.1801 43.2571 26.06 26.5601 20.85C18.7021 18.39 16.2251 21.02 13.6381 22.47C11.0161 23.93 8.85608 25.9 6.77408 28.11Z" fill="#C5B2DC"/>
<path fill-rule="evenodd" clip-rule="evenodd" d="M15.1111 22.4596C14.7524 22.6829 14.3906 22.908 14.0048 23.1243L14.003 23.1253C11.4783 24.5311 9.37965 26.438 7.31998 28.6243L7.31927 28.6251C7.20207 28.7492 6.91907 29.1826 6.58775 29.8471C6.27033 30.4837 5.9489 31.2507 5.73327 31.9812C5.50977 32.7383 5.43218 33.3513 5.50198 33.7299C5.53412 33.9042 5.58573 33.9636 5.60476 33.9808C5.61562 33.9905 5.67148 34.0401 5.86609 34.0401C7.42171 34.0401 9.01237 34.5233 10.4987 35.039C10.8284 35.1534 11.1523 35.2691 11.471 35.3829C12.6326 35.7977 13.7261 36.1881 14.7857 36.4054L14.7862 36.4055C15.9537 36.6455 17.194 36.8321 18.4832 37.0206C18.5916 37.0365 18.7004 37.0523 18.8094 37.0683C19.9906 37.2406 21.2082 37.4182 22.4148 37.6414C25.0464 38.1281 27.7019 38.8438 29.9781 40.2638C30.3295 40.483 30.4367 40.9456 30.2174 41.2971C29.9982 41.6485 29.5356 41.7557 29.1841 41.5364C27.1482 40.2664 24.7138 39.5921 22.1419 39.1163C20.9649 38.8986 19.7752 38.725 18.589 38.552C18.4814 38.5363 18.3738 38.5206 18.2662 38.5049C16.9801 38.3168 15.6998 38.1247 14.4845 37.8748C13.3104 37.6341 12.0841 37.1957 10.9092 36.7756C10.6044 36.6666 10.3031 36.5589 10.007 36.4562C8.52482 35.9419 7.14546 35.5401 5.86609 35.5401C5.73534 35.5401 5.60701 35.5301 5.48245 35.509C5.41453 35.5293 5.34258 35.5401 5.2681 35.5401C4.72746 35.5401 3.87717 35.6043 3.18067 36.0131C2.55139 36.3826 1.94409 37.0915 1.94409 38.6501C1.94409 40.4129 2.13823 41.4083 2.5015 42.1829C2.87269 42.9744 3.44697 43.6032 4.39756 44.6164C7.86079 48.2878 12.5758 50.4973 17.5874 51.7862C22.5971 53.0746 27.8534 53.4301 32.3391 53.4301C39.115 53.4301 42.9371 51.6934 44.7786 49.2532C46.6119 46.8237 46.6649 43.4488 45.3111 39.7251C43.9621 36.0147 41.2593 32.1036 37.8491 28.7941C34.4394 25.4849 30.372 22.8251 26.3367 21.566L26.336 21.5658C22.5037 20.3661 20.0717 20.4339 18.322 20.9168C17.0062 21.2799 16.0695 21.863 15.1111 22.4596ZM4.0563 34.14C4.04508 34.0938 4.03531 34.0477 4.02685 34.0019C3.89018 33.2607 4.05652 32.3631 4.29465 31.5565C4.54064 30.7232 4.89852 29.8733 5.24538 29.1777C5.5782 28.5103 5.94428 27.8965 6.22853 27.5954C8.33249 25.3621 10.5535 23.3294 13.2722 21.8154C13.557 21.6557 13.8578 21.4682 14.1792 21.2679C15.1787 20.6449 16.3786 19.897 17.9229 19.4708C20.023 18.8912 22.7585 18.874 26.7842 20.1343C31.0972 21.4803 35.3611 24.2891 38.8938 27.7176C42.4263 31.1459 45.2772 35.2417 46.7208 39.2126C48.1596 43.1701 48.2442 47.1509 45.9759 50.1567C43.7158 53.1518 39.3031 54.9301 32.3391 54.9301C27.7858 54.9301 22.3915 54.5706 17.2138 53.239C12.0383 51.9079 7.02917 49.5927 3.30548 45.6447L3.30413 45.6432L3.29028 45.6285C2.38041 44.6587 1.63145 43.8604 1.14343 42.8198C0.64495 41.7569 0.444092 40.5073 0.444092 38.6501C0.444092 36.5987 1.30029 35.3776 2.42127 34.7196C2.96347 34.4013 3.54087 34.2306 4.0563 34.14Z" fill="#1A1A1A"/>
<path d="M13.1188 32.4367C12.5966 32.3447 12.248 31.8467 12.34 31.3246C12.4321 30.8025 12.93 30.4538 13.4522 30.5459C13.9743 30.638 14.3229 31.1359 14.2309 31.658C14.1388 32.1801 13.6409 32.5288 13.1188 32.4367Z" fill="#1A1A1A"/>
<path d="M23.0301 32.4626C23.5523 32.5547 23.9009 33.0526 23.8088 33.5747C23.7168 34.0969 23.2189 34.4455 22.6967 34.3534C22.1746 34.2614 21.8259 33.7635 21.918 33.2413C22.0101 32.7192 22.508 32.3705 23.0301 32.4626Z" fill="#1A1A1A"/>
</svg>
