<svg width="48" height="55" viewBox="0 0 48 55" fill="none" xmlns="http://www.w3.org/2000/svg">
<path d="M25.5 20.1501C27.6378 20.1501 29.4893 21.3701 30.3994 23.1501C30.4329 23.1501 30.4664 23.1501 30.5 23.1501C33.0764 23.1501 35.2387 24.9202 35.8359 27.3102C38.228 27.9102 40 30.0801 40 32.6501C40 32.6901 39.9977 32.7201 39.9971 32.7501C41.7792 33.6601 43 35.5101 43 37.6501C43 37.6901 42.9977 37.7201 42.9971 37.7501C44.7792 38.6601 46 40.5101 46 42.6501C46 43.4501 45.8263 44.2101 45.5186 44.9001C46.4368 45.8801 47 47.2001 47 48.6501C47 51.6901 44.5376 54.1501 41.5 54.1501C40.3928 54.1501 39.363 53.8201 38.5 53.2601C37.637 53.8201 36.6072 54.1501 35.5 54.1501C33.9233 54.1501 32.5028 53.4902 31.5 52.4202C30.4972 53.4902 29.0767 54.1501 27.5 54.1501C26.1702 54.1501 24.951 53.6801 24 52.8901C23.049 53.6801 21.8298 54.1501 20.5 54.1501C19.1702 54.1501 17.951 53.6801 17 52.8901C16.049 53.6801 14.8298 54.1501 13.5 54.1501C12.5995 54.1501 11.7503 53.9302 11 53.5502C10.2497 53.9302 9.4005 54.1501 8.5 54.1501C5.4624 54.1501 3 51.6901 3 48.6501C3 47.2001 3.5625 45.8801 4.4805 44.9001C4.1728 44.2101 4 43.4501 4 42.6501C4 40.5101 5.2203 38.6601 7.002 37.7501C7.0014 37.7201 7 37.6901 7 37.6501C7 35.1301 8.695 33.0101 11.0068 32.3601C11.1356 29.9101 12.8631 27.8902 15.1631 27.3102C15.7603 24.9202 17.9235 23.1501 20.5 23.1501C20.5333 23.1501 20.5665 23.1501 20.5996 23.1501C21.5097 21.3701 23.362 20.1501 25.5 20.1501Z" fill="#F5F5F5"/>
<path d="M16.4902 41.1904C20.7426 41.5204 28.8746 41.9004 32.5225 41.2705C32.826 41.2205 33.116 41.4303 33.1406 41.7402C33.43 45.3556 34.0296 51.4791 34.6436 54.083C33.4126 53.8911 32.3175 53.2922 31.5 52.4199C30.4972 53.4899 29.0766 54.1503 27.5 54.1504C26.1703 54.1504 24.951 53.6805 24 52.8906C23.0491 53.6806 21.8297 54.1503 20.5 54.1504C19.1703 54.1504 17.951 53.6805 17 52.8906C16.4474 53.3497 15.8034 53.6986 15.1006 53.9121C15.4081 50.1373 15.8705 44.0865 15.9424 41.6904C15.9511 41.4004 16.199 41.1704 16.4902 41.1904Z" fill="#2C2C2C"/>
<path d="M30.3994 23.1501L29.7315 23.5001C29.8619 23.7501 30.1263 23.9101 30.4129 23.9001L30.3994 23.1501ZM35.8359 27.3102L35.1083 27.5001C35.1754 27.7701 35.3854 27.9802 35.6544 28.0402L35.8359 27.3102ZM39.9971 32.7501L39.2472 32.7401C39.2421 33.0201 39.4008 33.2902 39.656 33.4202L39.9971 32.7501ZM42.9971 37.7501L42.2472 37.7401C42.2421 38.0201 42.4008 38.2902 42.656 38.4202L42.9971 37.7501ZM45.5186 44.9001L44.8342 44.5901C44.7107 44.8701 44.7644 45.1902 44.9705 45.4102L45.5186 44.9001ZM38.5 53.2601L38.9098 52.6301C38.6607 52.4701 38.3393 52.4701 38.0902 52.6301L38.5 53.2601ZM31.5 52.4202L32.0455 51.9102C31.9038 51.7602 31.7065 51.6702 31.5 51.6702C31.2935 51.6702 31.0962 51.7602 30.9545 51.9102L31.5 52.4202ZM24 52.8901L24.4776 52.3201C24.2004 52.0901 23.7996 52.0901 23.5224 52.3201L24 52.8901ZM17 52.8901L17.4776 52.3201C17.2004 52.0901 16.7996 52.0901 16.5224 52.3201L17 52.8901ZM11 53.5502L11.3415 52.8801C11.127 52.7701 10.873 52.7701 10.6585 52.8801L11 53.5502ZM4.4805 44.9001L5.0286 45.4102C5.2346 45.1902 5.2883 44.8701 5.1648 44.5901L4.4805 44.9001ZM7.002 37.7501L7.3431 38.4202C7.5983 38.2902 7.7569 38.0201 7.7518 37.7401L7.002 37.7501ZM11.0068 32.3601L11.2101 33.0801C11.5194 32.9901 11.7389 32.7201 11.7558 32.4001L11.0068 32.3601ZM15.1631 27.3102L15.3448 28.0402C15.6137 27.9802 15.8236 27.7701 15.8907 27.5001L15.1631 27.3102ZM20.5996 23.1501L20.5863 23.9001C20.8728 23.9101 21.1372 23.7501 21.2675 23.4901L20.5996 23.1501ZM25.5 20.1501V20.9001C27.3448 20.9001 28.9444 21.9501 29.7315 23.5001L30.3994 23.1501L31.0673 22.8102C30.0342 20.7902 27.9308 19.4001 25.5 19.4001V20.1501ZM30.3994 23.1501L30.4129 23.9001C30.4712 23.9001 30.4729 23.9001 30.5 23.9001V23.1501V22.4001C30.4599 22.4001 30.3945 22.4001 30.386 22.4001L30.3994 23.1501ZM30.5 23.1501V23.9001C32.724 23.9001 34.5924 25.4301 35.1083 27.5001L35.8359 27.3102L36.5636 27.1301C35.8849 24.4201 33.4289 22.4001 30.5 22.4001V23.1501ZM35.8359 27.3102L35.6544 28.0402C37.7202 28.5602 39.25 30.4301 39.25 32.6501H40H40.75C40.75 29.7201 38.7357 27.2701 36.0175 26.5901L35.8359 27.3102ZM40 32.6501H39.25C39.25 32.6501 39.25 32.6502 39.2499 32.6602C39.2498 32.6602 39.2496 32.6602 39.2493 32.6702C39.2489 32.6802 39.2477 32.7101 39.2472 32.7401L39.9971 32.7501L40.747 32.7601C40.7471 32.7601 40.7473 32.7501 40.7482 32.7301C40.7489 32.7101 40.75 32.6801 40.75 32.6501H40ZM39.9971 32.7501L39.656 33.4202C41.1973 34.2102 42.25 35.8101 42.25 37.6501H43H43.75C43.75 35.2201 42.3611 33.1201 40.3381 32.0801L39.9971 32.7501ZM43 37.6501H42.25C42.25 37.6501 42.25 37.6502 42.2499 37.6602C42.2498 37.6602 42.2496 37.6602 42.2493 37.6702C42.2489 37.6802 42.2477 37.7101 42.2472 37.7401L42.9971 37.7501L43.747 37.7601C43.7471 37.7601 43.7473 37.7501 43.7482 37.7301C43.7489 37.7101 43.75 37.6801 43.75 37.6501H43ZM42.9971 37.7501L42.656 38.4202C44.1973 39.2102 45.25 40.8101 45.25 42.6501H46H46.75C46.75 40.2201 45.3611 38.1201 43.3381 37.0801L42.9971 37.7501ZM46 42.6501H45.25C45.25 43.3401 45.1003 44.0001 44.8342 44.5901L45.5186 44.9001L46.2029 45.2101C46.5524 44.4301 46.75 43.5601 46.75 42.6501H46ZM45.5186 44.9001L44.9705 45.4102C45.7646 46.2602 46.25 47.4001 46.25 48.6501H47H47.75C47.75 47.0001 47.1091 45.5001 46.0666 44.3901L45.5186 44.9001ZM47 48.6501H46.25C46.25 51.2801 44.1234 53.4001 41.5 53.4001V54.1501V54.9001C44.9518 54.9001 47.75 52.1001 47.75 48.6501H47ZM41.5 54.1501V53.4001C40.5435 53.4001 39.6553 53.1201 38.9098 52.6301L38.5 53.2601L38.0902 53.8901C39.0707 54.5301 40.2421 54.9001 41.5 54.9001V54.1501ZM38.5 53.2601L38.0902 52.6301C37.3447 53.1201 36.4565 53.4001 35.5 53.4001V54.1501V54.9001C36.7579 54.9001 37.9293 54.5301 38.9098 53.8901L38.5 53.2601ZM35.5 54.1501V53.4001C34.1388 53.4001 32.913 52.8302 32.0455 51.9102L31.5 52.4202L30.9545 52.9401C32.0927 54.1501 33.7078 54.9001 35.5 54.9001V54.1501ZM31.5 52.4202L30.9545 51.9102C30.087 52.8302 28.8612 53.4001 27.5 53.4001V54.1501V54.9001C29.2922 54.9001 30.9073 54.1501 32.0455 52.9401L31.5 52.4202ZM27.5 54.1501V53.4001C26.3511 53.4001 25.2993 52.9901 24.4776 52.3201L24 52.8901L23.5224 53.4701C24.6026 54.3601 25.9894 54.9001 27.5 54.9001V54.1501ZM24 52.8901L23.5224 52.3201C22.7007 52.9901 21.6489 53.4001 20.5 53.4001V54.1501V54.9001C22.0106 54.9001 23.3974 54.3601 24.4776 53.4701L24 52.8901ZM20.5 54.1501V53.4001C19.3511 53.4001 18.2993 52.9901 17.4776 52.3201L17 52.8901L16.5224 53.4701C17.6026 54.3601 18.9894 54.9001 20.5 54.9001V54.1501ZM17 52.8901L16.5224 52.3201C15.7007 52.9901 14.6489 53.4001 13.5 53.4001V54.1501V54.9001C15.0106 54.9001 16.3974 54.3601 17.4776 53.4701L17 52.8901ZM13.5 54.1501V53.4001C12.7219 53.4001 11.9893 53.2101 11.3415 52.8801L11 53.5502L10.6585 54.2201C11.5112 54.6501 12.4771 54.9001 13.5 54.9001V54.1501ZM11 53.5502L10.6585 52.8801C10.0107 53.2101 9.2781 53.4001 8.5 53.4001V54.1501V54.9001C9.5229 54.9001 10.4888 54.6501 11.3415 54.2201L11 53.5502ZM8.5 54.1501V53.4001C5.8766 53.4001 3.75 51.2801 3.75 48.6501H3H2.25C2.25 52.1001 5.0482 54.9001 8.5 54.9001V54.1501ZM3 48.6501H3.75C3.75 47.4001 4.2349 46.2602 5.0286 45.4102L4.4805 44.9001L3.9324 44.3901C2.89 45.5001 2.25 47.0001 2.25 48.6501H3ZM4.4805 44.9001L5.1648 44.5901C4.8991 44.0001 4.75 43.3401 4.75 42.6501H4H3.25C3.25 43.5601 3.4465 44.4301 3.7961 45.2101L4.4805 44.9001ZM4 42.6501H4.75C4.75 40.8101 5.8023 39.2102 7.3431 38.4202L7.002 37.7501L6.6608 37.0801C4.6382 38.1201 3.25 40.2201 3.25 42.6501H4ZM7.002 37.7501L7.7518 37.7401C7.7508 37.6801 7.75 37.6801 7.75 37.6501H7H6.25C6.25 37.6901 6.2519 37.7601 6.2521 37.7601L7.002 37.7501ZM7 37.6501H7.75C7.75 35.4801 9.2129 33.6401 11.2101 33.0801L11.0068 32.3601L10.8036 31.6401C8.1771 32.3801 6.25 34.7901 6.25 37.6501H7ZM11.0068 32.3601L11.7558 32.4001C11.8669 30.2901 13.3584 28.5402 15.3448 28.0402L15.1631 27.3102L14.9814 26.5901C12.3677 27.2401 10.4043 29.5401 10.2579 32.3201L11.0068 32.3601ZM15.1631 27.3102L15.8907 27.5001C16.4065 25.4301 18.2757 23.9001 20.5 23.9001V23.1501V22.4001C17.5712 22.4001 15.114 24.4201 14.4354 27.1301L15.1631 27.3102ZM20.5 23.1501V23.9001C20.5273 23.9001 20.5269 23.9001 20.5863 23.9001L20.5996 23.1501L20.6129 22.4001C20.606 22.4001 20.5392 22.4001 20.5 22.4001V23.1501ZM20.5996 23.1501L21.2675 23.4901C22.0545 21.9501 23.6548 20.9001 25.5 20.9001V20.1501V19.4001C23.0692 19.4001 20.9648 20.7902 19.9317 22.8102L20.5996 23.1501Z" fill="#1A1A1A"/>
<path d="M20.9948 29.76C20.9142 29.86 20.8241 29.95 20.7291 30.03C20.2547 30.42 19.3347 30.5199 18.7431 30.3299C16.9152 29.7299 16.8037 26.83 18.6479 26.35C18.6934 26.34 18.7361 26.3299 18.7753 26.3199C19.0589 26.3099 19.311 26.33 19.5347 26.37C20.9618 26.64 21.8982 28.65 20.9948 29.76Z" fill="#FF5C16"/>
<path d="M18.7537 25.7207C19.0784 25.7093 19.3736 25.7316 19.6405 25.7793L19.6463 25.7803L19.8221 25.8203C20.6901 26.0532 21.3519 26.751 21.6873 27.5069C22.0439 28.3105 22.0995 29.3489 21.4608 30.1358L21.4617 30.1367C21.3546 30.2696 21.2365 30.3871 21.1151 30.4893L21.1102 30.4932L20.7498 30.0557L20.7469 30.0518L21.1102 30.4932C20.7574 30.7832 20.2891 30.9334 19.8621 30.9922C19.4299 31.0517 18.9581 31.0295 18.5594 30.9014L18.5555 30.9004C17.3474 30.5038 16.7501 29.3627 16.7186 28.3125C16.6871 27.2583 17.2293 26.0995 18.4969 25.7696L18.5194 25.7637C18.5596 25.7548 18.5955 25.7463 18.6268 25.7383L18.7537 25.7207ZM18.8455 26.919C18.8298 26.9227 18.8138 26.9261 18.7977 26.9297L18.7987 26.9307C18.2224 27.0808 17.8978 27.6118 17.9178 28.2774C17.938 28.9466 18.3105 29.5552 18.9295 29.7588C19.1223 29.8201 19.4053 29.843 19.6981 29.8028C19.9974 29.7616 20.2259 29.6662 20.3475 29.5664C20.4139 29.51 20.4746 29.449 20.5272 29.3838L21.0506 29.8057L20.9295 29.7071L20.5272 29.3838L20.5291 29.3809C20.7917 29.0581 20.8318 28.5387 20.5897 27.9932C20.3483 27.4495 19.8952 27.0494 19.4227 26.96C19.2559 26.9306 19.0646 26.9143 18.8455 26.919Z" fill="#1A1A1A"/>
<path d="M25.1418 27.2403C24.9877 27.2403 24.8388 27.2103 24.6973 27.1703C23.973 26.9803 23.2694 26.1404 23.1208 25.4304C22.7054 23.4404 25.2841 21.7903 26.9101 23.1003C26.9795 23.1603 27.0372 23.2103 27.0826 23.2603C27.2767 23.5403 27.4133 23.8103 27.5043 24.0503C28.0356 25.5003 26.7159 27.3303 25.1418 27.2403Z" fill="#FF5C16"/>
<path d="M23.932 22.5184C24.8897 21.9198 26.2284 21.7805 27.2865 22.6327L26.9027 23.1073L26.9105 23.1005L27.2865 22.6327C27.2919 22.6371 27.2978 22.6418 27.3031 22.6464C27.3648 22.6997 27.4521 22.7751 27.5267 22.8573L27.0804 23.2616L27.0833 23.2606L27.5267 22.8573C27.5443 22.8767 27.5616 22.8973 27.5765 22.9188C27.798 23.2385 27.9574 23.5519 28.0658 23.8378L28.0677 23.8436C28.4183 24.8005 28.146 25.8296 27.597 26.578C27.0531 27.3195 26.1642 27.8838 25.1419 27.8388C25.137 27.8388 25.1322 27.8388 25.1273 27.8388C25.1209 27.8384 25.1142 27.8391 25.1078 27.8388C24.8959 27.8347 24.7044 27.7943 24.5453 27.7499H24.5423C24.5397 27.7492 24.5371 27.7487 24.5345 27.7479C24.0255 27.6112 23.5757 27.2683 23.2435 26.8925C22.9495 26.5598 22.7037 26.1517 22.5794 25.7333L22.5335 25.5536L23.7083 25.3075C23.7565 25.5371 23.9093 25.8331 24.1429 26.0975C24.349 26.3307 24.5746 26.4901 24.7689 26.5634L24.85 26.5897L24.8607 26.5927L24.6986 27.163V27.1679L24.8607 26.5927C24.9175 26.6087 24.9685 26.621 25.015 26.6288L25.1419 26.6405L25.1761 26.6415C25.7136 26.6722 26.2586 26.3732 26.6292 25.868C26.9993 25.3635 27.1212 24.7546 26.9437 24.2626L26.8812 24.1112C26.8158 23.9664 26.7287 23.8087 26.6175 23.6434C26.6004 23.6272 26.5745 23.6032 26.5296 23.5643C25.9623 23.1104 25.2012 23.1409 24.5687 23.536C23.9308 23.9347 23.5642 24.6167 23.7083 25.3075L22.5335 25.5536C22.2625 24.2546 22.978 23.1147 23.932 22.5184Z" fill="#1A1A1A"/>
<path d="M28.2253 24.6C28.0858 24.59 27.951 24.57 27.8229 24.54C27.1672 24.36 26.5304 23.6 26.3959 22.96C26.0199 21.16 28.3541 19.67 29.8259 20.85C29.8887 20.9 29.9409 20.95 29.982 21C30.1577 21.25 30.2814 21.49 30.3637 21.71C30.8447 23.02 29.6501 24.68 28.2253 24.6Z" fill="#FF5C16"/>
<path d="M27.1002 20.2785C27.982 19.728 29.2199 19.5956 30.2007 20.382L30.1998 20.383C30.2867 20.4523 30.3715 20.53 30.4449 20.6193L29.981 21.0002H29.982L30.4449 20.6193C30.4545 20.631 30.4636 20.6431 30.4722 20.6554C30.6246 20.8723 30.7465 21.0864 30.8404 21.2941L30.9254 21.5002L30.9263 21.5031C31.2521 22.3904 30.9976 23.3422 30.4927 24.0314C30.0184 24.6788 29.256 25.186 28.3697 25.2023L28.191 25.1994L28.1822 25.1984L27.9312 25.1711C27.8485 25.1588 27.7667 25.1431 27.6861 25.1242C27.6787 25.1225 27.6709 25.1203 27.6636 25.1183L27.8228 24.5402L27.8297 24.5129L27.6636 25.1183C27.1881 24.9878 26.7705 24.6677 26.4634 24.3195C26.1937 24.0136 25.9665 23.6377 25.8511 23.2502L25.8082 23.0832C25.5565 21.8786 26.2218 20.8271 27.1002 20.2785ZM29.4498 21.3185C28.959 20.9251 28.2941 20.9469 27.7349 21.2961C27.1724 21.6474 26.8588 22.2418 26.983 22.8371L27.0298 22.9933C27.094 23.1594 27.2081 23.3489 27.3638 23.5256C27.5688 23.758 27.7928 23.906 27.9713 23.9582C28.06 23.9783 28.156 23.9924 28.2584 24.0002C28.7209 24.0261 29.1976 23.7683 29.525 23.3215C29.8523 22.8744 29.9548 22.3421 29.8013 21.9201L29.7466 21.7883C29.6885 21.6598 29.6102 21.5203 29.5084 21.3722C29.4974 21.3606 29.4802 21.3422 29.4517 21.3195L29.4498 21.3185L29.8257 20.8498L29.8824 20.7785L29.4498 21.3185Z" fill="#1A1A1A"/>
<path d="M28.2253 28.7301C28.0858 28.7201 27.951 28.7002 27.8229 28.6602C27.1672 28.4902 26.5304 27.7301 26.3959 27.0901C26.0199 25.2901 28.3541 23.8001 29.8259 24.9801C29.8887 25.0301 29.9409 25.0801 29.982 25.1301C30.1577 25.3801 30.2814 25.6201 30.3637 25.8401C30.8447 27.1501 29.6501 28.8101 28.2253 28.7301Z" fill="#FF5C16"/>
<path d="M27.1002 24.4084C27.982 23.8579 29.2199 23.7255 30.2007 24.5119L30.1998 24.5129C30.2867 24.5822 30.3715 24.6599 30.4449 24.7492L29.981 25.1301H29.982L30.4449 24.7492C30.4545 24.7608 30.4636 24.773 30.4722 24.7853C30.6246 25.0021 30.7465 25.2163 30.8404 25.424L30.9254 25.6301L30.9263 25.633C31.2521 26.5203 30.9976 27.4721 30.4927 28.1613C30.0184 28.8087 29.256 29.3159 28.3697 29.3322L28.191 29.3293L28.1822 29.3283L27.9205 29.298C27.8301 29.2829 27.7367 29.2618 27.6431 29.2326V29.2316C27.1753 29.102 26.7657 28.7895 26.4644 28.4494C26.1939 28.144 25.9666 27.7676 25.8511 27.3801L25.8082 27.2131C25.5565 26.0085 26.2218 24.957 27.1002 24.4084ZM29.4498 25.4484C28.959 25.055 28.2941 25.0767 27.7349 25.426C27.1724 25.7773 26.8588 26.3717 26.983 26.967L27.0298 27.1232C27.094 27.2891 27.2077 27.4783 27.3629 27.6535C27.5712 27.8887 27.7976 28.0337 27.9732 28.0793L28.0015 28.0871L28.1187 28.1144C28.1604 28.1214 28.2069 28.1261 28.2593 28.1301C28.7217 28.1557 29.1978 27.898 29.525 27.4513C29.8523 27.0043 29.9548 26.472 29.8013 26.05L29.7466 25.9181C29.6885 25.7897 29.6102 25.6502 29.5084 25.5021C29.4974 25.4905 29.4802 25.472 29.4517 25.4494L29.4498 25.4484L29.8257 24.9797L29.8824 24.9084L29.4498 25.4484Z" fill="#1A1A1A"/>
<path d="M24.2962 23.5202C24.2587 23.6502 24.2079 23.7602 24.1483 23.8702C23.8495 24.4002 23.021 24.8301 22.3887 24.8401C20.4686 24.9001 19.3031 22.2402 20.832 21.1502C20.8743 21.1202 20.9148 21.0901 20.9526 21.0701C21.2179 20.9601 21.4641 20.8901 21.6912 20.8601C23.1183 20.6301 24.71 22.1702 24.2962 23.5202Z" fill="#FF5C16"/>
<path d="M21.6127 20.2658C22.5583 20.1203 23.4898 20.5535 24.1088 21.173C24.7271 21.7918 25.1594 22.7304 24.8715 23.6857L24.8725 23.6867C24.8192 23.8713 24.7483 24.0224 24.6762 24.1555L24.1264 23.8576L24.1479 23.8703L24.6762 24.1555L24.6713 24.1652L24.5795 24.3098C24.3506 24.6375 24.0136 24.8963 23.6791 25.0773C23.2949 25.2852 22.8386 25.43 22.4067 25.4387L22.4076 25.4396C22.4048 25.4397 22.4017 25.4386 22.3989 25.4387L22.3979 25.4396L22.3969 25.4387C21.1393 25.4731 20.1773 24.6239 19.7651 23.6623C19.3509 22.6956 19.4211 21.419 20.4838 20.6613L20.4848 20.6603L20.6889 20.9494L20.8227 21.1369L20.4848 20.6603C20.5057 20.6455 20.5902 20.5827 20.6723 20.5393L20.7231 20.5158C21.0251 20.3906 21.3226 20.3032 21.6127 20.2648V20.2658ZM21.6938 20.8791L21.7865 21.4523C21.781 21.4532 21.7755 21.4545 21.7699 21.4553L21.641 21.4768C21.5168 21.503 21.3774 21.5454 21.2221 21.6076C21.2188 21.6099 21.2156 21.6134 21.2114 21.6164C21.2068 21.6196 21.202 21.6233 21.1967 21.6271C21.1914 21.6309 21.1852 21.6355 21.1791 21.6398C20.7142 21.9722 20.6028 22.5695 20.8686 23.1896C21.1357 23.8127 21.7123 24.2608 22.3696 24.2404H22.3793C22.577 24.2373 22.8477 24.1633 23.1078 24.0227C23.3708 23.8804 23.5477 23.7099 23.6235 23.5773C23.6685 23.4937 23.6981 23.4268 23.7192 23.3537L24.3227 23.5275L24.2875 23.5168L23.7192 23.3537L23.7221 23.3439C23.8419 22.9527 23.6879 22.4507 23.2592 22.0217C22.8328 21.595 22.2622 21.3757 21.7865 21.4523L21.6889 20.8449L21.6938 20.8791Z" fill="#1A1A1A"/>
<path d="M18.2752 27.4901C18.2376 27.6201 18.1869 27.7301 18.1273 27.8401C17.8285 28.3701 17 28.8002 16.3677 28.8102C14.4476 28.8702 13.2821 26.2102 14.811 25.1202C14.8532 25.0902 14.8938 25.0602 14.9316 25.0402C15.1969 24.9302 15.4431 24.8601 15.6702 24.8301C17.0972 24.6001 18.6889 26.1401 18.2752 27.4901Z" fill="#FF5C16"/>
<path d="M15.5919 24.2358C16.5374 24.0903 17.4689 24.5235 18.088 25.143C18.7062 25.7618 19.1385 26.7004 18.8507 27.6557L18.8516 27.6567C18.7984 27.8409 18.7276 27.992 18.6554 28.1254L18.1056 27.8276L18.127 27.8403L18.6554 28.1254L18.6505 28.1352L18.5587 28.2797C18.3297 28.6076 17.9929 28.8673 17.6583 29.0483C17.2741 29.2561 16.8178 29.4 16.3858 29.4086L16.3868 29.4096C16.384 29.4097 16.3808 29.4086 16.378 29.4086L16.377 29.4096L16.3761 29.4086C15.1185 29.4431 14.1565 28.5948 13.7442 27.6332C13.3298 26.6665 13.4001 25.3891 14.463 24.6313C14.4859 24.615 14.5692 24.5537 14.6514 24.5102L14.7022 24.4858C15.004 24.3607 15.3016 24.2732 15.5919 24.2348V24.2358ZM15.6729 24.8491L15.7657 25.4223C15.7602 25.4232 15.7547 25.4245 15.7491 25.4252L15.6202 25.4467C15.496 25.473 15.3568 25.5163 15.2013 25.5786C15.1979 25.5809 15.1939 25.5843 15.1895 25.5873C15.1853 25.5904 15.1809 25.5935 15.1759 25.5971C15.1708 25.6007 15.1641 25.6037 15.1583 25.6079L15.1593 25.6088C14.6935 25.941 14.5818 26.539 14.8477 27.1596C15.1149 27.7827 15.6915 28.2308 16.3487 28.2104H16.3585C16.5562 28.2072 16.8268 28.1333 17.087 27.9926C17.3499 27.8504 17.5269 27.6799 17.6026 27.5473C17.6474 27.464 17.678 27.3973 17.6993 27.3237L18.294 27.4956L18.2667 27.4868L17.6993 27.3237L17.7013 27.3139C17.821 26.9226 17.6671 26.4207 17.2384 25.9916C16.8119 25.565 16.2413 25.3457 15.7657 25.4223L15.6681 24.8149L15.6729 24.8491Z" fill="#1A1A1A"/>
<path d="M33.3977 25.9301C33.3602 26.0601 33.3094 26.1701 33.2499 26.2801C32.9511 26.8101 32.1226 27.24 31.4902 27.25C29.5702 27.31 28.4047 24.6501 29.9335 23.5601C29.9758 23.5301 30.0163 23.5 30.0542 23.48C30.3195 23.37 30.5657 23.3001 30.7928 23.2701C32.2198 23.0401 33.8115 24.5801 33.3977 25.9301Z" fill="#FF5C16"/>
<path d="M30.7143 22.676C31.6598 22.5305 32.5913 22.9637 33.2104 23.5832C33.8286 24.202 34.2609 25.1406 33.9731 26.0959L33.974 26.0969C33.9207 26.2816 33.8496 26.4327 33.7777 26.5656L33.2279 26.2678L33.2494 26.2805L33.7777 26.5656L33.7729 26.5754L33.6811 26.7199C33.4521 27.0478 33.1153 27.3075 32.7807 27.4885C32.3965 27.6963 31.9402 27.8402 31.5082 27.8488L31.5092 27.8498C31.5064 27.8499 31.5032 27.8487 31.5004 27.8488L31.4994 27.8498L31.4984 27.8488C30.2408 27.8833 29.2789 27.0341 28.8666 26.0725C28.4524 25.1058 28.5227 23.8291 29.5854 23.0715L29.7904 23.3596L29.9242 23.5471L29.5863 23.0705C29.6073 23.0557 29.6913 22.993 29.7738 22.9494L29.8246 22.926C30.1266 22.8008 30.4241 22.7133 30.7143 22.675V22.676ZM30.7953 23.2893L30.8881 23.8625C30.8825 23.8634 30.8771 23.8647 30.8715 23.8654L30.7426 23.8869C30.6184 23.9132 30.479 23.9556 30.3236 24.0178C30.3203 24.0201 30.3172 24.0235 30.3129 24.0266C30.3083 24.0299 30.3027 24.0334 30.2973 24.0373C30.2921 24.041 30.2867 24.0458 30.2807 24.05C29.8158 24.3824 29.7043 24.9797 29.9701 25.5998C30.2372 26.2229 30.8139 26.671 31.4711 26.6506H31.4809C31.6786 26.6474 31.9493 26.5734 32.2094 26.4328C32.4723 26.2906 32.6493 26.1201 32.725 25.9875C32.77 25.9037 32.7996 25.8369 32.8207 25.7639L33.4242 25.9377L33.3891 25.927L32.8207 25.7639L32.8236 25.7541C32.9435 25.3628 32.7894 24.8609 32.3607 24.4318C31.9343 24.0052 31.3637 23.7858 30.8881 23.8625L30.7904 23.2551L30.7953 23.2893Z" fill="#1A1A1A"/>
<path d="M21.9528 28.3602C21.8133 28.3602 21.6784 28.3303 21.5504 28.3003C20.8947 28.1203 20.2579 27.3602 20.1234 26.7202C19.7474 24.9202 22.0816 23.4302 23.5534 24.6102C23.6162 24.6602 23.6684 24.7103 23.7095 24.7603C23.8852 25.0103 24.0089 25.2502 24.0912 25.4802C24.5721 26.7802 23.3776 28.4402 21.9528 28.3602Z" fill="#FF5C16"/>
<path d="M20.8282 24.0385C21.71 23.488 22.9479 23.3556 23.9288 24.142L23.9278 24.143C24.0147 24.2123 24.0995 24.29 24.1729 24.3793L23.709 24.7602H23.71L24.1729 24.3793C24.1825 24.391 24.1916 24.4031 24.2003 24.4155C24.4024 24.7031 24.5522 24.9883 24.6544 25.2719L24.709 25.4389C24.9482 26.2738 24.6935 27.1483 24.2208 27.7924C23.7209 28.4733 22.9009 28.9992 21.9532 28.9594V28.9604C21.9418 28.9604 21.9302 28.9596 21.919 28.9594V28.9584C21.7151 28.954 21.5312 28.9119 21.4131 28.8842C21.406 28.8825 21.3988 28.8803 21.3917 28.8783C20.9161 28.7478 20.4985 28.4277 20.1915 28.0795C19.9217 27.7736 19.6946 27.3977 19.5792 27.0102L19.5362 26.8432C19.2846 25.6386 19.9498 24.5871 20.8282 24.0385ZM23.1778 25.0785C22.687 24.6851 22.0221 24.7069 21.463 25.0561C20.9005 25.4074 20.5868 26.0018 20.711 26.5971L20.7579 26.7533C20.8221 26.9194 20.9361 27.1089 21.0919 27.2856C21.2975 27.5187 21.5225 27.6665 21.7012 27.7182C21.7606 27.732 21.8074 27.7428 21.8467 27.7494L21.9532 27.7602L21.9864 27.7612C22.4491 27.7871 22.9256 27.5284 23.253 27.0824C23.5817 26.6347 23.6823 26.1039 23.5284 25.6879L23.5264 25.6821L23.4727 25.5483C23.4155 25.4184 23.338 25.2801 23.2364 25.1322C23.2255 25.1206 23.2082 25.1022 23.1797 25.0795L23.1778 25.0785L23.5538 24.6098L23.6104 24.5385L23.1778 25.0785Z" fill="#1A1A1A"/>
<path d="M24.2428 30.9302C24.1034 30.9202 23.9685 30.9001 23.8405 30.8601C23.1848 30.6801 22.548 29.9302 22.4135 29.2802C22.0375 27.4802 24.3717 25.9902 25.8435 27.1802C25.9063 27.2302 25.9585 27.2801 25.9996 27.3201C26.1753 27.5801 26.299 27.8202 26.3813 28.0402C26.8622 29.3502 25.6677 31.0002 24.2428 30.9302Z" fill="#FF5C16"/>
<path d="M23.1177 26.5999C24.0008 26.0499 25.24 25.9216 26.2202 26.7142L26.2193 26.7152C26.3046 26.7834 26.374 26.8477 26.4175 26.89L25.9976 27.3206H25.9995L26.4175 26.89C26.4469 26.9185 26.4737 26.9507 26.4966 26.9847C26.6452 27.2046 26.7647 27.4183 26.8579 27.6253L26.9429 27.8304L26.9439 27.8333L26.4097 28.0286L26.3804 28.0403L26.9439 27.8333C27.2696 28.7207 27.0153 29.6696 26.5103 30.3577C26.0358 31.0041 25.2746 31.5097 24.3911 31.5316L24.2124 31.5296L24.1997 31.5286C24.0385 31.5171 23.8613 31.4919 23.6812 31.4378V31.4388C23.6743 31.4369 23.6675 31.4349 23.6607 31.4329V31.4319C23.1957 31.2985 22.7859 30.987 22.482 30.6439C22.1726 30.2946 21.9192 29.8533 21.8257 29.4027C21.5743 28.1984 22.2387 27.1475 23.1177 26.5999ZM25.4654 27.6468C24.9739 27.2496 24.3103 27.2711 23.7525 27.6185C23.1906 27.9684 22.8761 28.562 23.0005 29.1575V29.1585C23.0417 29.3574 23.1741 29.616 23.3804 29.8489C23.5878 30.0829 23.8165 30.2315 23.9986 30.2816L24.0191 30.2874L24.1363 30.3148C24.1795 30.322 24.228 30.3264 24.2827 30.3304C24.7451 30.3487 25.218 30.0898 25.5425 29.6478C25.8697 29.2021 25.9722 28.6723 25.8189 28.2503L25.7642 28.1175C25.7085 27.9939 25.6322 27.8586 25.5347 27.7093L25.4693 27.6497L25.4654 27.6468Z" fill="#1A1A1A"/>
<path d="M34.3702 28.5602C34.2308 28.5502 34.0959 28.5301 33.9679 28.4901C33.3122 28.3201 32.6754 27.5602 32.5409 26.9202C32.1649 25.1202 34.499 23.6302 35.9709 24.8102C36.0337 24.8602 36.0858 24.9101 36.1269 24.9601C36.3027 25.2101 36.4263 25.4502 36.5087 25.6702C36.9896 26.9802 35.7951 28.6402 34.3702 28.5602Z" fill="#FF5C16"/>
<path d="M33.2447 24.2386C34.1266 23.6878 35.3652 23.5556 36.3463 24.3421L36.3453 24.3431C36.3885 24.3775 36.4315 24.4133 36.4723 24.4525L36.5904 24.5794L36.6178 24.6146C36.7704 24.8316 36.8921 25.0466 36.9859 25.2542L37.0709 25.4603L37.0719 25.4632C37.3976 26.3505 37.1432 27.3023 36.6383 27.9915C36.1639 28.6389 35.4015 29.1461 34.5152 29.1624L34.3365 29.1595L34.3277 29.1585L34.066 29.1282C33.9756 29.1131 33.8823 29.0921 33.7887 29.0628V29.0618C33.3209 28.9322 32.9113 28.6197 32.61 28.2796C32.3395 27.9742 32.1121 27.5978 31.9967 27.2103L31.9537 27.0433C31.7021 25.8388 32.3664 24.7872 33.2447 24.2386ZM35.5953 25.2786C35.1045 24.8852 34.4396 24.907 33.8805 25.2562C33.318 25.6075 33.0043 26.2019 33.1285 26.7972L33.1754 26.9534C33.2396 27.1193 33.3533 27.3086 33.5084 27.4837C33.7168 27.7189 33.9431 27.8639 34.1188 27.9095L34.1471 27.9173L34.2643 27.9446C34.306 27.9516 34.3526 27.9563 34.4049 27.9603C34.8672 27.9859 35.3434 27.7281 35.6705 27.2816C35.9976 26.8348 36.0998 26.3031 35.9469 25.8812L35.8922 25.7484C35.834 25.6197 35.7557 25.4802 35.6539 25.3323C35.6431 25.3207 35.6258 25.3023 35.5973 25.2796L35.5953 25.2786L35.9713 24.8099L36.0279 24.7386L35.5953 25.2786Z" fill="#1A1A1A"/>
<path d="M30.689 30.6303C30.5496 30.6203 30.4147 30.6002 30.2867 30.5702C29.631 30.3902 28.9942 29.6302 28.8597 28.9902C28.4837 27.1902 30.8178 25.7003 32.2897 26.8803C32.3525 26.9303 32.4046 26.9803 32.4457 27.0303C32.6215 27.2803 32.7451 27.5202 32.8275 27.7402C33.3084 29.0502 32.1139 30.7103 30.689 30.6303Z" fill="#FF5C16"/>
<path d="M29.5636 26.3084C30.4454 25.7576 31.6841 25.6254 32.6651 26.4119L32.6642 26.4129C32.7515 26.4825 32.8361 26.5602 32.9093 26.6492C32.9188 26.6608 32.928 26.6731 32.9366 26.6854C33.0891 26.9023 33.2109 27.1165 33.3048 27.324L33.3898 27.5301L33.3907 27.533C33.7165 28.4203 33.462 29.3721 32.9571 30.0613C32.4828 30.7088 31.7204 31.2159 30.8341 31.2322L30.6554 31.2293L30.6466 31.2283L30.3956 31.201C30.3126 31.1886 30.2302 31.173 30.1495 31.1541C30.1423 31.1524 30.1352 31.1502 30.128 31.1483L30.2833 30.5819L30.2872 30.5662L30.128 31.1483C29.6525 31.0177 29.2349 30.6976 28.9278 30.3494C28.6581 30.0436 28.4309 29.6676 28.3155 29.2801L28.2726 29.1131C28.021 27.9086 28.6853 26.8571 29.5636 26.3084ZM31.9142 27.3485C31.4233 26.955 30.7584 26.9768 30.1993 27.326C29.6368 27.6773 29.3232 28.2717 29.4474 28.867L29.4942 29.0233C29.5584 29.1893 29.6725 29.3789 29.8282 29.5555C30.035 29.7899 30.2613 29.9382 30.4405 29.9891C30.5281 30.0087 30.6226 30.0225 30.7228 30.0301C31.1854 30.0561 31.662 29.7982 31.9894 29.3514C32.3164 28.9046 32.4187 28.3729 32.2657 27.951L32.211 27.8182C32.1529 27.6896 32.0746 27.5501 31.9728 27.4022C31.9618 27.3904 31.9445 27.372 31.9161 27.3494L31.9142 27.3485L32.2901 26.8797L32.3468 26.8084L31.9142 27.3485Z" fill="#1A1A1A"/>
<path d="M16.8418 26.5002C16.7309 26.4102 16.6342 26.3202 16.5506 26.2102C16.1183 25.6802 16.0852 24.6802 16.4028 24.0802C17.2591 22.4602 19.9922 22.6502 20.4547 24.4302C20.4777 24.5202 20.4903 24.6002 20.4944 24.6702C20.4746 24.9802 20.4188 25.2502 20.338 25.4802C19.8818 26.7802 17.9375 27.3602 16.8418 26.5002Z" fill="#FF5C16"/>
<path d="M18.6237 22.3823C19.59 22.4593 20.5892 23.0039 20.9675 24.061L21.0349 24.2798L21.0358 24.2817L20.5358 24.4087L20.5593 24.4028L21.0358 24.2817C21.0513 24.3424 21.0643 24.4023 21.0739 24.4614L21.0935 24.6352L21.0925 24.7085C21.0695 25.0677 21.0048 25.3924 20.904 25.6792C20.5962 26.5559 19.8132 27.1359 18.9987 27.3755C18.2343 27.6003 17.33 27.5581 16.612 27.0747L16.4714 26.9722L16.4636 26.9663C16.338 26.8644 16.2072 26.7435 16.0866 26.5884L16.0856 26.5893C16.083 26.5861 16.0814 26.5819 16.0788 26.5786C16.0772 26.5765 16.0746 26.5749 16.073 26.5727L16.0739 26.5718C15.7624 26.1805 15.6233 25.6706 15.5964 25.2056C15.569 24.7312 15.6508 24.2168 15.8718 23.7993C16.4373 22.7296 17.5961 22.3005 18.6237 22.3823ZM18.529 23.5786C17.9024 23.5287 17.3039 23.776 16.9919 24.2602L16.9333 24.3608C16.8368 24.5432 16.7768 24.8292 16.7946 25.1372C16.8127 25.4478 16.904 25.6939 17.0153 25.8306L16.5505 26.2095L16.5583 26.2026L17.0153 25.8306L17.028 25.8472L17.1052 25.9341C17.1344 25.9627 17.1693 25.9932 17.2116 26.0278C17.5695 26.3087 18.1151 26.3843 18.6599 26.2241C19.2052 26.0637 19.6226 25.7047 19.7712 25.2817C19.8283 25.1191 19.8714 24.9188 19.8903 24.6792C19.8873 24.6542 19.8835 24.6206 19.8728 24.5786V24.5776C19.7211 24.0007 19.1929 23.6316 18.529 23.5786Z" fill="#1A1A1A"/>
<path d="M23.8162 22.7901C23.6552 22.7201 23.5138 22.6301 23.3904 22.5301C22.6951 21.9701 22.6199 20.7001 23.1591 20.0001C24.2638 18.5601 26.7689 18.6601 27.5775 20.3001C27.6724 20.4901 27.7163 20.6601 27.7251 20.7901C27.6944 21.2101 27.5915 21.5401 27.4457 21.8101C26.8105 23.0001 25.0514 23.3601 23.8162 22.7901Z" fill="#FF5C16"/>
<path d="M25.5134 18.3964C26.5466 18.4561 27.5935 18.9816 28.113 20.0322H28.114C28.2068 20.218 28.2695 20.4033 28.3015 20.5781L28.324 20.75L28.323 20.8339C28.2866 21.3317 28.1625 21.7454 27.9734 22.0957L27.9724 22.0947C27.5553 22.8741 26.7936 23.3447 26.0007 23.542C25.2112 23.7383 24.327 23.6822 23.5769 23.3398V23.3408C23.3613 23.247 23.174 23.1271 23.0134 22.997C22.5036 22.5862 22.2612 21.9553 22.2136 21.3662C22.166 20.7761 22.3042 20.126 22.6834 19.6337C23.3755 18.7323 24.4829 18.337 25.5134 18.3964ZM25.4441 19.5937C24.7443 19.5534 24.047 19.8275 23.6345 20.3652V20.3662C23.4745 20.5739 23.3809 20.9096 23.4099 21.2695C23.439 21.6298 23.5815 21.9134 23.7664 22.0625L23.3162 22.6211L23.3904 22.5302L23.7664 22.0625L23.7683 22.0634C23.8113 22.0983 23.8562 22.1316 23.9041 22.1611L24.0554 22.2402L24.0671 22.2451C24.5497 22.4677 25.1573 22.5154 25.7107 22.3779C26.264 22.2403 26.6975 21.9363 26.9158 21.5273L26.9177 21.5253C27.0148 21.3455 27.0907 21.1139 27.1199 20.7988C27.1116 20.7512 27.0922 20.6714 27.0408 20.5683L27.657 20.2607L27.5164 20.3291L27.0408 20.5683L27.0388 20.5654C26.7492 19.9781 26.1408 19.634 25.4441 19.5937Z" fill="#1A1A1A"/>
<path d="M16 34.1499C17.1045 34.1499 17.9999 34.8215 18 35.6499C18 36.4783 17.1046 37.1499 16 37.1499C14.8954 37.1499 14 36.4783 14 35.6499C14.0001 34.8215 14.8955 34.1499 16 34.1499ZM34 34.1499C35.1045 34.1499 35.9999 34.8215 36 35.6499C36 36.4783 35.1046 37.1499 34 37.1499C32.8954 37.1499 32 36.4783 32 35.6499C32.0001 34.8215 32.8955 34.1499 34 34.1499Z" fill="#FFAFA3"/>
<path d="M27.5042 35.0435C27.7997 34.7534 28.2745 34.7579 28.5648 35.0533C28.8548 35.3487 28.8503 35.8236 28.555 36.1138L28.4329 36.2339L28.431 36.2349L27.9075 35.6988L27.848 35.6382L28.431 36.2349C26.7507 37.8753 24.0489 37.8102 22.4505 36.0894C22.1686 35.7859 22.1861 35.3108 22.4896 35.0289C22.793 34.747 23.2682 34.7645 23.5501 35.0679C24.5748 36.1711 26.3061 36.2131 27.3831 35.1617V35.1627L27.5042 35.0435Z" fill="#1A1A1A"/>
<path d="M30.1965 32.1553C30.8564 32.1553 31.3915 32.6903 31.3915 33.3503C31.3915 34.0103 30.8564 34.5453 30.1965 34.5453C29.5365 34.5453 29.0015 34.0103 29.0015 33.3503C29.0015 32.6903 29.5365 32.1553 30.1965 32.1553Z" fill="#1A1A1A"/>
<path d="M20.1965 32.1553C19.5365 32.1553 19.0015 32.6903 19.0015 33.3503C19.0015 34.0103 19.5365 34.5453 20.1965 34.5453C20.8564 34.5453 21.3915 34.0103 21.3915 33.3503C21.3915 32.6903 20.8564 32.1553 20.1965 32.1553Z" fill="#1A1A1A"/>
</svg>
