<svg width="48" height="55" viewBox="0 0 48 55" fill="none" xmlns="http://www.w3.org/2000/svg">
<path fill-rule="evenodd" clip-rule="evenodd" d="M35.5 54.1499C36.607 54.1499 37.637 53.8199 38.5 53.2599C39.363 53.8199 40.393 54.1499 41.5 54.1499C44.538 54.1499 47 51.6899 47 48.6499C47 47.1999 46.439 45.8799 45.521 44.8999C45.829 44.2099 46 43.4499 46 42.6499C46 40.5099 44.78 38.6599 42.999 37.7499C43 37.7199 43 37.6899 43 37.6499C43 35.5099 41.78 33.6599 39.999 32.7499C40 32.7199 40 32.6899 40 32.6499C40 30.0799 38.228 27.9098 35.836 27.3198C35.239 24.9198 33.077 23.1499 30.5 23.1499C30.467 23.1499 30.434 23.1499 30.401 23.1499C29.491 21.3699 27.638 20.1499 25.5 20.1499C23.362 20.1499 21.509 21.3699 20.599 23.1499C20.566 23.1499 20.533 23.1499 20.5 23.1499C17.923 23.1499 15.761 24.9198 15.164 27.3198C12.864 27.8898 11.137 29.9099 11.008 32.3599C8.695 33.0099 7 35.1299 7 37.6499C7 37.6899 7.00001 37.7199 7.00101 37.7499C5.22001 38.6599 4 40.5099 4 42.6499C4 43.4499 4.171 44.2099 4.479 44.8999C3.561 45.8799 3 47.1999 3 48.6499C3 51.6899 5.462 54.1499 8.5 54.1499C9.4 54.1499 10.25 53.9399 11 53.5499C11.75 53.9399 12.6 54.1499 13.5 54.1499C14.83 54.1499 16.049 53.6799 17 52.8899C17.951 53.6799 19.17 54.1499 20.5 54.1499C21.83 54.1499 23.049 53.6799 24 52.8899C24.951 53.6799 26.17 54.1499 27.5 54.1499C29.076 54.1499 30.497 53.4899 31.5 52.4299C32.503 53.4899 33.924 54.1499 35.5 54.1499Z" fill="#F5F5F5"/>
<path d="M38.5 53.2599L38.91 52.6299C38.661 52.4699 38.339 52.4699 38.09 52.6299L38.5 53.2599ZM45.521 44.8999L44.837 44.5898C44.713 44.8698 44.767 45.1899 44.973 45.4099L45.521 44.8999ZM42.999 37.7499L42.249 37.7399C42.244 38.0199 42.403 38.2899 42.658 38.4199L42.999 37.7499ZM39.999 32.7499L39.249 32.7399C39.244 33.0199 39.403 33.2899 39.658 33.4199L39.999 32.7499ZM35.836 27.3198L35.109 27.4999C35.176 27.7699 35.386 27.9799 35.655 28.0399L35.836 27.3198ZM30.401 23.1499L29.733 23.4899C29.863 23.7499 30.128 23.9099 30.414 23.8999L30.401 23.1499ZM20.599 23.1499L20.586 23.8999C20.872 23.9099 21.137 23.7499 21.267 23.4899L20.599 23.1499ZM15.164 27.3198L15.345 28.0399C15.614 27.9799 15.824 27.7699 15.891 27.4999L15.164 27.3198ZM11.008 32.3599L11.211 33.0798C11.52 32.9898 11.74 32.7199 11.757 32.3999L11.008 32.3599ZM7.00101 37.7499L7.342 38.4199C7.597 38.2899 7.75601 38.0199 7.75101 37.7399L7.00101 37.7499ZM4.479 44.8999L5.02699 45.4099C5.23299 45.1899 5.28699 44.8698 5.16299 44.5898L4.479 44.8999ZM11 53.5499L11.341 52.8799C11.127 52.7699 10.873 52.7699 10.659 52.8799L11 53.5499ZM17 52.8899L17.478 52.3198C17.2 52.0898 16.8 52.0898 16.522 52.3198L17 52.8899ZM24 52.8899L24.478 52.3198C24.2 52.0898 23.8 52.0898 23.522 52.3198L24 52.8899ZM31.5 52.4299L32.045 51.9099C31.904 51.7599 31.706 51.6799 31.5 51.6799C31.294 51.6799 31.096 51.7599 30.955 51.9099L31.5 52.4299ZM38.09 52.6299C37.346 53.1199 36.457 53.3999 35.5 53.3999V54.8999C36.757 54.8999 37.929 54.5299 38.91 53.8899L38.09 52.6299ZM41.5 53.3999C40.543 53.3999 39.654 53.1199 38.91 52.6299L38.09 53.8899C39.071 54.5299 40.243 54.8999 41.5 54.8999V53.3999ZM46.25 48.6499C46.25 51.2799 44.123 53.3999 41.5 53.3999V54.8999C44.952 54.8999 47.75 52.0999 47.75 48.6499H46.25ZM44.973 45.4099C45.766 46.2599 46.25 47.3999 46.25 48.6499H47.75C47.75 46.9999 47.111 45.4999 46.069 44.3899L44.973 45.4099ZM45.25 42.6499C45.25 43.3399 45.102 43.9998 44.837 44.5898L46.206 45.2098C46.556 44.4298 46.75 43.5599 46.75 42.6499H45.25ZM42.658 38.4199C44.198 39.2099 45.25 40.8099 45.25 42.6499H46.75C46.75 40.2199 45.363 38.1198 43.34 37.0798L42.658 38.4199ZM42.25 37.6499C42.25 37.6799 42.25 37.7099 42.249 37.7399L43.749 37.7599C43.75 37.7299 43.75 37.6899 43.75 37.6499H42.25ZM39.658 33.4199C41.198 34.2099 42.25 35.8099 42.25 37.6499H43.75C43.75 35.2199 42.363 33.1198 40.34 32.0798L39.658 33.4199ZM39.25 32.6499C39.25 32.6799 39.25 32.7099 39.249 32.7399L40.749 32.7599C40.75 32.7299 40.75 32.6899 40.75 32.6499H39.25ZM35.655 28.0399C37.72 28.5599 39.25 30.4299 39.25 32.6499H40.75C40.75 29.7199 38.736 27.2698 36.018 26.5898L35.655 28.0399ZM30.5 23.8999C32.724 23.8999 34.593 25.4299 35.109 27.4999L36.564 27.1299C35.886 24.4199 33.429 22.3999 30.5 22.3999V23.8999ZM30.414 23.8999C30.443 23.8999 30.471 23.8999 30.5 23.8999V22.3999C30.462 22.3999 30.425 22.3999 30.387 22.3999L30.414 23.8999ZM25.5 20.8999C27.345 20.8999 28.946 21.9499 29.733 23.4899L31.069 22.8099C30.035 20.7899 27.93 19.3999 25.5 19.3999V20.8999ZM21.267 23.4899C22.054 21.9499 23.655 20.8999 25.5 20.8999V19.3999C23.07 19.3999 20.965 20.7899 19.931 22.8099L21.267 23.4899ZM20.5 23.8999C20.529 23.8999 20.557 23.8999 20.586 23.8999L20.613 22.3999C20.575 22.3999 20.538 22.3999 20.5 22.3999V23.8999ZM15.891 27.4999C16.407 25.4299 18.276 23.8999 20.5 23.8999V22.3999C17.571 22.3999 15.114 24.4199 14.436 27.1299L15.891 27.4999ZM11.757 32.3999C11.868 30.2899 13.359 28.5399 15.345 28.0399L14.982 26.5898C12.368 27.2398 10.406 29.5398 10.259 32.3198L11.757 32.3999ZM7.75 37.6499C7.75 35.4799 9.213 33.6398 11.211 33.0798L10.805 31.6299C8.17699 32.3699 6.25 34.7899 6.25 37.6499H7.75ZM7.75101 37.7399C7.75001 37.7099 7.75 37.6799 7.75 37.6499H6.25C6.25 37.6899 6.25001 37.7299 6.25101 37.7599L7.75101 37.7399ZM4.75 42.6499C4.75 40.8099 5.802 39.2099 7.342 38.4199L6.66 37.0798C4.637 38.1198 3.25 40.2199 3.25 42.6499H4.75ZM5.16299 44.5898C4.89799 43.9998 4.75 43.3399 4.75 42.6499H3.25C3.25 43.5599 3.44401 44.4298 3.79401 45.2098L5.16299 44.5898ZM3.75 48.6499C3.75 47.3999 4.23399 46.2599 5.02699 45.4099L3.931 44.3899C2.889 45.4999 2.25 46.9999 2.25 48.6499H3.75ZM8.5 53.3999C5.877 53.3999 3.75 51.2799 3.75 48.6499H2.25C2.25 52.0999 5.048 54.8999 8.5 54.8999V53.3999ZM10.659 52.8799C10.012 53.2199 9.279 53.3999 8.5 53.3999V54.8999C9.522 54.8999 10.488 54.6598 11.341 54.2198L10.659 52.8799ZM13.5 53.3999C12.721 53.3999 11.988 53.2199 11.341 52.8799L10.659 54.2198C11.512 54.6598 12.478 54.8999 13.5 54.8999V53.3999ZM16.522 52.3198C15.701 52.9898 14.649 53.3999 13.5 53.3999V54.8999C15.01 54.8999 16.397 54.3698 17.478 53.4698L16.522 52.3198ZM20.5 53.3999C19.351 53.3999 18.299 52.9898 17.478 52.3198L16.522 53.4698C17.603 54.3698 18.99 54.8999 20.5 54.8999V53.3999ZM23.522 52.3198C22.701 52.9898 21.649 53.3999 20.5 53.3999V54.8999C22.01 54.8999 23.397 54.3698 24.478 53.4698L23.522 52.3198ZM27.5 53.3999C26.351 53.3999 25.299 52.9898 24.478 52.3198L23.522 53.4698C24.603 54.3698 25.99 54.8999 27.5 54.8999V53.3999ZM30.955 51.9099C30.088 52.8299 28.861 53.3999 27.5 53.3999V54.8999C29.291 54.8999 30.907 54.1498 32.045 52.9398L30.955 51.9099ZM35.5 53.3999C34.139 53.3999 32.912 52.8299 32.045 51.9099L30.955 52.9398C32.093 54.1498 33.709 54.8999 35.5 54.8999V53.3999Z" fill="#1A1A1A"/>
<path d="M14.7741 48.43C15.0331 48.6 15.3711 48.59 15.6241 48.41C15.8781 48.23 15.9931 47.91 15.9151 47.61C15.6871 46.73 15.4651 45.41 15.5201 44.28C15.5481 43.71 15.6431 43.25 15.7971 42.93C15.9411 42.64 16.1091 42.5099 16.3141 42.4599C16.9781 42.3099 17.7701 42.5699 18.5791 43.0899C19.3691 43.6099 20.0451 44.29 20.4141 44.76C20.5701 44.96 20.8141 45.06 21.0641 45.04C21.3141 45.02 21.5371 44.88 21.6591 44.66L24.2271 40C24.7021 39.14 25.9411 39.14 26.4161 40L28.9841 44.66C29.1051 44.88 29.3291 45.02 29.5791 45.04C29.8291 45.06 30.0731 44.96 30.2291 44.76C30.5981 44.29 31.2741 43.6099 32.0641 43.0899C32.8731 42.5699 33.6651 42.3099 34.3291 42.4599C34.5341 42.5099 34.7021 42.64 34.8461 42.93C35.0001 43.25 35.0951 43.71 35.1231 44.28C35.1781 45.41 34.9561 46.73 34.7281 47.61C34.6501 47.91 34.7651 48.23 35.0191 48.41C35.2721 48.59 35.6101 48.6 35.8691 48.43C36.7671 47.83 38.0651 47.13 39.0901 46.89C39.6201 46.77 39.9241 46.81 40.0591 46.87H40.0611C40.1061 46.9 40.2501 46.9699 40.2501 47.4399C40.2501 48.5199 39.5861 49.8699 38.6131 51.2099C37.7471 52.4099 36.7171 53.47 35.9681 54.15H14.6741C13.9261 53.47 12.8961 52.4099 12.0291 51.2099C11.0571 49.8699 10.3931 48.5199 10.3931 47.4399C10.3931 46.9699 10.5371 46.9 10.5821 46.87H10.5841C10.7191 46.81 11.0231 46.77 11.5531 46.89C12.5781 47.13 13.8761 47.83 14.7741 48.43Z" fill="#009951"/>
<path d="M23.5708 39.6371C24.3074 38.3039 26.1894 38.2623 26.9976 39.5121L27.0728 39.6371V39.6381L29.6372 44.2914L29.6392 44.2924C29.6403 44.2925 29.6412 44.2924 29.6421 44.2924C30.0561 43.7661 30.7894 43.031 31.6519 42.4633L31.6587 42.4594C32.4708 41.9374 33.4088 41.561 34.314 41.6948L34.4946 41.728L34.5063 41.7309C34.9137 41.8302 35.2145 42.0804 35.4302 42.4369L35.5181 42.5961L35.522 42.6049C35.7374 43.0527 35.8422 43.6259 35.8726 44.2436C35.925 45.3219 35.7484 46.5288 35.5435 47.4311L35.4536 47.7983L35.4546 47.7992L35.4526 47.7983L35.4536 47.7992C35.4557 47.8007 35.458 47.7999 35.4595 47.8002C36.3835 47.1838 37.7669 46.4295 38.9194 46.1596L38.9243 46.1586C39.4661 46.036 39.9253 46.0299 40.269 46.1489C40.3425 46.1701 40.4127 46.2027 40.4771 46.2455C40.4944 46.2566 40.5593 46.3004 40.6157 46.352C40.6999 46.4289 40.7758 46.5256 40.8374 46.644C40.9552 46.8704 41.0005 47.1387 41.0005 47.4399C41.0005 48.7729 40.2083 50.2901 39.2202 51.6508C38.3164 52.9028 37.2486 54.0006 36.4722 54.7055C36.3342 54.8307 36.1545 54.8998 35.9683 54.8998H14.6743C14.4877 54.8998 14.3075 54.83 14.1694 54.7045C13.394 53.9995 12.3262 52.9012 11.4214 51.6489V51.6479C10.4351 50.2878 9.64307 48.7722 9.64307 47.4399C9.64307 47.1388 9.68745 46.8704 9.80518 46.644C9.86682 46.5255 9.94359 46.429 10.0278 46.352C10.1021 46.2841 10.1903 46.2296 10.1665 46.2455C10.2309 46.2027 10.301 46.17 10.3745 46.1489C10.6712 46.0462 11.0538 46.0362 11.5015 46.1147L11.7183 46.1586L11.7241 46.1596C12.8762 46.4294 14.2581 47.1839 15.1821 47.8002L15.189 47.7992V47.7983C14.9502 46.8767 14.711 45.476 14.771 44.2436C14.8013 43.6258 14.9061 43.0527 15.1216 42.6049L15.1255 42.5961C15.3448 42.1547 15.6707 41.8444 16.1362 41.7309L16.1489 41.728C16.989 41.5383 17.8671 41.8143 18.6538 42.2592L18.9849 42.4594L18.9917 42.4633C19.8542 43.0311 20.5875 43.7661 21.0015 44.2924H21.0054L23.5708 39.6371ZM25.7593 40.3617C25.5694 40.0193 25.0742 40.0194 24.8843 40.3617L22.3159 45.0219L22.3149 45.0239C22.0679 45.4693 21.6172 45.748 21.1235 45.7875C20.6367 45.8264 20.1433 45.631 19.8237 45.2221C19.5 44.81 18.8853 44.1911 18.1733 43.7211L17.8999 43.5561C17.3025 43.2206 16.8346 43.1266 16.5132 43.186C16.5034 43.1998 16.4891 43.2228 16.4712 43.2582C16.3793 43.451 16.2946 43.7974 16.269 44.3168C16.2191 45.3441 16.424 46.5831 16.6411 47.4213L16.6655 47.5336C16.767 48.0988 16.5366 48.6827 16.0581 49.0219L16.0571 49.0209C15.5589 49.3748 14.8864 49.4006 14.3628 49.0571L14.3569 49.0532C13.4854 48.4709 12.2772 47.8302 11.3833 47.6205C11.293 47.6002 11.2147 47.5875 11.1479 47.5785C11.1957 48.2885 11.6 49.2299 12.2974 50.2817L12.6362 50.77L12.6372 50.7709C13.3883 51.8104 14.2738 52.7459 14.9692 53.3998H35.6743C36.3703 52.7461 37.2554 51.8101 38.0054 50.7709L38.0063 50.769C38.9118 49.5219 39.4386 48.3965 39.4937 47.5785C39.4274 47.5875 39.3496 47.5995 39.2603 47.6196C38.3661 47.8291 37.1574 48.4707 36.2856 49.0532L36.2808 49.0571C35.757 49.4008 35.0838 49.3751 34.5854 49.0209V49.0219C34.075 48.6601 33.8467 48.0204 34.0024 47.4213L34.0825 47.0903C34.2666 46.2774 34.4172 45.216 34.3735 44.3168C34.348 43.7972 34.2633 43.451 34.1714 43.2582C34.1534 43.2227 34.1392 43.1998 34.1294 43.186C33.7604 43.118 33.1982 43.2526 32.4692 43.7211C31.7583 44.1905 31.1438 44.8081 30.8198 45.2201L30.8208 45.2211C30.5012 45.6309 30.0064 45.8265 29.519 45.7875C29.0271 45.7481 28.5736 45.4699 28.3267 45.0209V45.02L25.7593 40.3617Z" fill="#1A1A1A"/>
<path d="M16 34.1499C17.1045 34.1499 17.9999 34.8215 18 35.6499C18 36.4783 17.1046 37.1499 16 37.1499C14.8954 37.1499 14 36.4783 14 35.6499C14.0001 34.8215 14.8955 34.1499 16 34.1499ZM34 34.1499C35.1045 34.1499 35.9999 34.8215 36 35.6499C36 36.4783 35.1046 37.1499 34 37.1499C32.8954 37.1499 32 36.4783 32 35.6499C32.0001 34.8215 32.8955 34.1499 34 34.1499Z" fill="#FFAFA3"/>
<path d="M27.5042 35.043C27.7997 34.753 28.2745 34.7574 28.5648 35.0528C28.8548 35.3482 28.8503 35.8231 28.555 36.1133L28.4329 36.2335L28.431 36.2344L27.9075 35.6983L27.848 35.6377L28.431 36.2344C26.7507 37.8749 24.0489 37.8097 22.4505 36.0889C22.1686 35.7854 22.1861 35.3103 22.4896 35.0284C22.793 34.7465 23.2682 34.764 23.5501 35.0674C24.5748 36.1706 26.3061 36.2127 27.3831 35.1612V35.1622L27.5042 35.043Z" fill="#1A1A1A"/>
<path d="M30.1965 32.155C30.8564 32.155 31.3915 32.69 31.3915 33.35C31.3915 34.01 30.8564 34.545 30.1965 34.545C29.5365 34.545 29.0015 34.01 29.0015 33.35C29.0015 32.69 29.5365 32.155 30.1965 32.155Z" fill="#1A1A1A"/>
<path d="M20.1965 32.155C19.5365 32.155 19.0015 32.69 19.0015 33.35C19.0015 34.01 19.5365 34.545 20.1965 34.545C20.8564 34.545 21.3915 34.01 21.3915 33.35C21.3915 32.69 20.8564 32.155 20.1965 32.155Z" fill="#1A1A1A"/>
</svg>
