<svg width="48" height="55" viewBox="0 0 48 55" fill="none" xmlns="http://www.w3.org/2000/svg">
<path d="M17.619 50.23L19.117 32.75H28.358L29.606 50.28C29.74 52.16 28.25 53.76 26.365 53.76H20.857C18.953 53.76 17.457 52.13 17.619 50.23Z" fill="#757575"/>
<path d="M29.056 32L30.3539 50.2266C30.5188 52.5407 28.6848 54.5098 26.3646 54.5098H20.8568C18.5127 54.5098 16.6722 52.503 16.8715 50.166L18.4281 32H29.056ZM18.3666 50.2939C18.242 51.7568 19.393 53.0098 20.8568 53.0098H26.3646C27.8145 53.0098 28.9609 51.7789 28.8578 50.333L27.6596 33.5H19.8051L18.3666 50.2939Z" fill="#1A1A1A"/>
<path d="M23.63 19.75C27.474 19.75 29.862 20.83 31.476 22.2C33.061 23.54 33.961 25.2099 34.754 26.6899C34.783 26.7399 34.811 26.79 34.84 26.84C35.449 27.97 36.614 28.82 37.855 29.52C38.749 30.02 39.769 30.49 40.766 30.96C41.161 31.14 41.552 31.32 41.93 31.5C43.302 32.16 44.53 32.82 45.414 33.59C46.283 34.35 46.75 35.16 46.75 36.12C46.75 36.64 46.558 37.06 46.176 37.42C45.773 37.81 45.144 38.15 44.273 38.42C42.527 38.96 40.055 39.18 37.233 39.21C34.426 39.24 31.344 39.08 28.407 38.91C28.09 38.9 27.775 38.88 27.462 38.86C24.885 38.71 22.451 38.58 20.5 38.58C19.137 38.58 17.725 38.6 16.311 38.63C13.164 38.7 10.004 38.77 7.332 38.51C5.399 38.32 3.834 37.97 2.771 37.38C1.757 36.83 1.25 36.09 1.25 35.05C1.25 33.82 1.76401 33 2.60501 32.37C3.48601 31.71 4.72 31.26 6.108 30.88C6.686 30.73 7.27199 30.59 7.85699 30.45C7.96699 30.42 8.078 30.39 8.189 30.37C8.876 30.2 9.56 30.03 10.185 29.84C10.807 29.64 11.404 29.41 11.909 29.12C12.414 28.83 12.875 28.44 13.16 27.91C13.336 27.59 13.512 27.2199 13.701 26.8199C14.261 25.6499 14.941 24.22 16.1 22.9C17.593 21.2 19.861 19.75 23.63 19.75Z" fill="#B3B3B3"/>
<path d="M0.5 35.0498C0.500071 33.5548 1.14965 32.5229 2.15527 31.7695C3.15627 31.0197 4.50783 30.5402 5.91016 30.1562L6.11426 30.9062L6.1084 30.8799L5.91016 30.1562L5.91992 30.1543C6.50148 30.0034 7.08978 29.8622 7.66895 29.7236C7.76246 29.6981 7.88211 29.6667 8.00879 29.6416C8.69927 29.4707 9.3639 29.3054 9.9668 29.1221C10.564 28.9296 11.0996 28.7198 11.5352 28.4697C11.9655 28.2226 12.3018 27.9213 12.499 27.5547L12.5029 27.5488C12.6658 27.2527 12.8317 26.9037 13.0225 26.5L13.0244 26.4961L13.7012 26.8203L13.8193 26.876L13.0244 26.4961C13.5814 25.3323 14.3002 23.8129 15.5361 22.4053L15.8516 22.0615C17.4765 20.3661 19.8804 19 23.6299 19C27.629 19 30.1948 20.1292 31.96 21.627C33.666 23.0693 34.6246 24.8602 35.4121 26.3301C35.4249 26.3522 35.437 26.3738 35.4482 26.3936L35.4893 26.4639L35.4951 26.4736L35.5 26.4844C36.0027 27.4171 37.0058 28.1796 38.2207 28.8652C39.0861 29.3493 40.077 29.8056 41.0859 30.2812L42.2529 30.8232L42.2549 30.8242C43.6281 31.4848 44.9387 32.1817 45.9062 33.0244L45.9082 33.0254C46.8787 33.8742 47.5 34.874 47.5 36.1201C47.5 36.859 47.2136 37.4728 46.6904 37.9658L46.6895 37.9648C46.1703 38.4642 45.4214 38.8493 44.4941 39.1367L44.3379 38.6299L44.4941 39.1367C42.6393 39.7103 40.0768 39.9298 37.2412 39.96C34.4053 39.9903 31.2991 39.8291 28.3633 39.6592V39.6582C28.0391 39.6476 27.719 39.6279 27.4141 39.6084V39.6074C24.8351 39.4573 22.4245 39.3301 20.5 39.3301C19.1441 39.3301 17.7378 39.349 16.3271 39.3789C13.1933 39.4486 9.98512 39.522 7.25977 39.2568L7.34277 38.4004L7.25879 39.2568C5.30067 39.0644 3.60894 38.703 2.40723 38.0361V38.0352C1.82729 37.7196 1.34266 37.3236 1.00488 36.8125C0.661165 36.2922 0.5 35.6992 0.5 35.0498ZM16.3105 38.6299L16.3096 38.5752L16.3105 38.6299ZM30.9922 22.7725L30.9902 22.7715L31.4756 22.2002L30.9922 22.7725ZM2 35.0498C2 35.4404 2.09262 35.7382 2.25586 35.9854C2.4238 36.2396 2.69788 36.4869 3.12891 36.7207L2.75781 37.4023L2.77148 37.3799L3.12891 36.7207L3.13477 36.7246C4.05902 37.2376 5.49761 37.5762 7.40527 37.7637H7.4043C10.0226 38.0184 13.1343 37.9502 16.2939 37.8799H16.2949C17.7121 37.8498 19.13 37.8301 20.5 37.8301C22.4764 37.8301 24.9325 37.9615 27.5059 38.1113H27.5098C27.8245 38.1314 28.1277 38.1506 28.4307 38.1602L28.4404 38.1611H28.4502C31.3883 38.3312 34.4466 38.4896 37.2246 38.46C39.857 38.432 42.1146 38.2364 43.7354 37.7949L44.0518 37.7031C44.8618 37.4519 45.3678 37.1581 45.6543 36.8809L45.6611 36.874C45.9019 36.6471 46 36.4211 46 36.1201C46 35.4463 45.6873 34.8254 44.9199 34.1543V34.1533C44.1196 33.4568 42.974 32.8346 41.6045 32.1758V32.1748C41.2332 31.998 40.8474 31.8214 40.4551 31.6426L40.4463 31.6387L38.9443 30.9258C38.694 30.8041 38.4456 30.6808 38.2021 30.5557L37.4893 30.1748L37.4863 30.1729C36.2271 29.4626 34.9088 28.5315 34.1914 27.2158L34.1455 27.1367L34.1055 27.0664L34.0986 27.0557L34.0928 27.0439C33.2949 25.5549 32.4538 24.0082 30.9922 22.7725L31.7275 21.9023L30.9902 22.7715C29.5274 21.5299 27.3174 20.5 23.6299 20.5C20.0921 20.5 18.0249 21.8453 16.6641 23.3945C15.5822 24.6267 14.9409 25.9674 14.3779 27.1436C14.1914 27.5384 14.0049 27.9278 13.8164 28.2705C13.4434 28.9607 12.8603 29.4386 12.2822 29.7705C11.7108 30.0986 11.0569 30.3473 10.415 30.5537L10.4033 30.5576L9.9082 30.7012C9.40544 30.8412 8.88167 30.9708 8.36914 31.0977L8.3457 31.1035L8.32227 31.1084L8.18945 30.3701L8.18848 30.3682L8.32227 31.1084C8.24869 31.1217 8.16835 31.1428 8.05469 31.1738L8.03125 31.1797L7.86035 30.4639L7.85645 30.4502L8.03125 31.1797C7.44495 31.32 6.86564 31.4576 6.2959 31.6055C4.92682 31.9808 3.81384 32.402 3.05469 32.9707C2.37855 33.4773 2.00006 34.0851 2 35.0498Z" fill="#1A1A1A"/>
<path d="M27.2603 34C29.3369 34.0001 31.02 35.6831 31.02 37.7598C31.02 37.9314 31.0071 38.1001 30.9849 38.2656C30.1431 38.2232 29.3018 38.178 28.4702 38.1299C26.7479 38.0352 25.0552 37.9334 23.5015 37.8662C23.5005 37.8308 23.4995 37.7954 23.4995 37.7598C23.4995 35.683 25.1835 34 27.2603 34ZM8.26025 33C10.3369 33.0001 12.02 34.6831 12.02 36.7598C12.02 37.1608 11.9556 37.5467 11.8394 37.9092C10.2838 37.9054 8.79316 37.8617 7.42627 37.7295C6.29226 37.6224 5.32377 37.4559 4.52979 37.2334C4.51028 37.0782 4.49951 36.9202 4.49951 36.7598C4.49951 34.683 6.18353 33 8.26025 33ZM37.5454 30.1592C38.8145 30.8715 40.3465 31.5352 41.6284 32.1494C42.5104 32.5685 43.2992 32.9807 43.9634 33.4072C43.6565 35.1753 42.116 36.5204 40.2603 36.5205C38.1835 36.5205 36.4995 34.8365 36.4995 32.7598C36.4995 31.7503 36.898 30.8345 37.5454 30.1592ZM16.1001 24.0947C17.7723 24.4763 19.02 25.9719 19.02 27.7598C19.02 29.8364 17.3369 31.5204 15.2603 31.5205C13.952 31.5205 12.8002 30.8517 12.1265 29.8379C12.1872 29.8056 12.248 29.7742 12.3071 29.7402C12.8811 29.4103 13.4673 28.9301 13.8423 28.2402L14.1216 27.6895C14.6617 26.6026 15.1879 25.3346 16.1001 24.0947ZM30.2192 22.1465C30.5058 22.3366 30.7699 22.5349 31.0122 22.7402C32.529 24.0302 33.3758 25.6401 34.2007 27.1699L34.3433 27.4102C34.395 27.494 34.4499 27.5757 34.5063 27.6562C33.8539 28.771 32.645 29.5204 31.2603 29.5205C29.1835 29.5205 27.4995 27.8365 27.4995 25.7598C27.4995 24.0443 28.6489 22.5982 30.2192 22.1465Z" fill="#D9D9D9"/>
<path fill-rule="evenodd" clip-rule="evenodd" d="M21.2671 31.3714C21.5865 31.1077 22.0593 31.1528 22.323 31.4722C23.0875 32.3982 24.4957 32.4322 25.3039 31.5442L25.3939 31.4452C25.6726 31.1387 26.1469 31.1161 26.4534 31.3948C26.7599 31.6734 26.7825 32.1477 26.5038 32.4542L26.4138 32.5532C24.991 34.117 22.5121 34.0572 21.1663 32.4272C20.9026 32.1078 20.9477 31.6351 21.2671 31.3714Z" fill="#1A1A1A"/>
<path d="M20.2549 29C19.7026 29 19.2549 29.4477 19.2549 30C19.2549 30.5523 19.7026 31 20.2549 31C20.8072 31 21.2549 30.5523 21.2549 30C21.2549 29.4477 20.8072 29 20.2549 29Z" fill="#1A1A1A"/>
<path d="M27.7454 29C28.2976 29 28.7454 29.4477 28.7454 30C28.7454 30.5523 28.2976 31 27.7454 31C27.1931 31 26.7454 30.5523 26.7454 30C26.7454 29.4477 27.1931 29 27.7454 29Z" fill="#1A1A1A"/>
</svg>
