<svg width="48" height="55" viewBox="0 0 48 55" fill="none" xmlns="http://www.w3.org/2000/svg">
<path d="M17.619 50.23L19.117 32.75H28.358L29.606 50.28C29.74 52.16 28.25 53.76 26.365 53.76H20.8569C18.9529 53.76 17.457 52.13 17.619 50.23Z" fill="#F3D6C9"/>
<path d="M29.056 32L30.3539 50.2266C30.5188 52.5407 28.6848 54.5098 26.3646 54.5098H20.8568C18.5127 54.5098 16.6722 52.503 16.8715 50.166L18.4281 32H29.056ZM18.3666 50.2939C18.242 51.7568 19.393 53.0098 20.8568 53.0098H26.3646C27.8145 53.0098 28.9609 51.7789 28.8578 50.333L27.6596 33.5H19.8051L18.3666 50.2939Z" fill="#1A1A1A"/>
<path d="M23.63 19.75C27.436 19.75 29.807 21.02 31.428 22.66C33.026 24.28 33.936 26.29 34.731 28.05C34.759 28.11 34.788 28.18 34.817 28.24C35.407 29.54 36.551 30.54 37.805 31.38C38.7 31.99 39.723 32.55 40.72 33.1C41.114 33.32 41.505 33.54 41.882 33.75C43.25 34.54 44.479 35.32 45.367 36.25C46.236 37.16 46.75 38.16 46.75 39.41C46.75 40.13 46.527 40.68 46.131 41.13C45.721 41.59 45.092 41.9901 44.234 42.3101C42.506 42.9601 40.05 43.21 37.232 43.25C34.43 43.28 31.353 43.09 28.415 42.9C28.098 42.87 27.783 42.85 27.47 42.83C24.894 42.66 22.455 42.49 20.5 42.49C19.129 42.49 17.713 42.5301 16.297 42.5601C13.155 42.6401 10.009 42.72 7.34599 42.41C5.42199 42.19 3.873 41.77 2.821 41.08C1.821 40.43 1.25 39.52 1.25 38.14C1.25 36.58 1.809 35.55 2.655 34.79C3.535 34 4.762 33.47 6.142 33.02C6.719 32.84 7.30299 32.67 7.88699 32.5C7.99799 32.47 8.109 32.44 8.22 32.41C8.907 32.21 9.59401 32.01 10.223 31.77C11.436 31.32 12.654 30.68 13.183 29.52C13.354 29.14 13.527 28.71 13.714 28.24C14.275 26.83 14.969 25.1 16.14 23.51C17.654 21.45 19.914 19.75 23.63 19.75Z" fill="#14AE5C"/>
<path d="M28.5 35.9995C30.9852 35.9995 32.9998 38.0144 33 40.4995C33 41.1792 32.8479 41.8231 32.5781 42.4009C31.2762 42.3326 29.9653 42.2477 28.6768 42.1597C27.141 42.0538 25.6284 41.9429 24.209 41.8589C24.0732 41.43 24 40.9733 24 40.4995C24.0002 38.0144 26.0148 35.9995 28.5 35.9995ZM9.5 36.9995C11.9852 36.9995 13.9998 39.0144 14 41.4995C14 41.6149 13.9939 41.7291 13.9854 41.8423C11.3847 41.8983 8.86574 41.905 6.65527 41.6401C6.06054 41.5686 5.50966 41.4751 5.00293 41.3677C5.07288 38.9435 7.05895 36.9995 9.5 36.9995ZM38.8809 32.3442C40.0454 33.0865 41.335 33.7839 42.4453 34.4399C43.8772 35.2899 45.0761 36.0898 45.9131 36.9897C46.0538 37.142 46.1788 37.2927 46.291 37.4409C45.4914 38.6904 44.0935 39.52 42.5 39.52C40.0148 39.52 38.0001 37.5052 38 35.02C38 34.018 38.327 33.0921 38.8809 32.3442ZM15.249 24.938C16.3136 25.761 16.9999 27.0498 17 28.4995C17 30.9848 14.9853 32.9995 12.5 32.9995C11.5856 32.9995 10.7355 32.7259 10.0254 32.2573C10.626 32.014 11.2293 31.7219 11.7637 31.3403C12.3637 30.9103 12.9771 30.2997 13.3691 29.4097L13.6621 28.6997C14.1248 27.5499 14.5761 26.2497 15.249 24.938ZM29.7061 20.9722C30.3354 21.3769 30.8726 21.8346 31.3369 22.3198C32.9239 23.9798 33.8099 26.0598 34.6729 28.0298L34.8223 28.3403C34.8239 28.3436 34.8255 28.3468 34.8271 28.3501C34.148 28.7615 33.352 28.9995 32.5 28.9995C30.0147 28.9995 28 26.9848 28 24.4995C28.0001 23.0701 28.6668 21.7965 29.7061 20.9722Z" fill="#F5F5F5"/>
<path d="M0.5 38.1396C0.50009 36.365 1.15098 35.133 2.15332 34.2324L3.15625 35.3477C2.46696 35.9669 2.00008 36.795 2 38.1396C2 38.7228 2.11911 39.1667 2.31543 39.5195C2.51234 39.8734 2.81058 40.1789 3.22949 40.4512L3.23242 40.4531L3.4082 40.5615C4.31543 41.0956 5.66442 41.463 7.43164 41.665C10.0312 41.9677 13.1212 41.8909 16.2783 41.8105H16.2812C17.6897 41.7807 19.1186 41.7402 20.5 41.7402C22.4851 41.7402 24.9531 41.9119 27.5166 42.0811C27.8205 42.1005 28.1403 42.1213 28.4629 42.1514C31.4042 42.3416 34.453 42.5295 37.2217 42.5L38.251 42.4746C40.6008 42.3917 42.5709 42.1345 43.9697 41.6084L43.9717 41.6074C44.7581 41.3141 45.2682 40.9709 45.5713 40.6309C45.8408 40.323 46 39.9516 46 39.4102C46 38.4004 45.5967 37.5765 44.8242 36.7676C44.0197 35.9252 42.8795 35.1927 41.5166 34.4053L40.3574 33.7559C39.3697 33.211 38.3127 32.6338 37.3828 32C36.0946 31.1364 34.8104 30.0406 34.1338 28.5498C34.1164 28.513 34.1002 28.4761 34.0879 28.4482L34.0518 28.3672L34.0479 28.3584C33.2462 26.5837 32.3843 24.6968 30.8945 23.1865C29.4187 21.6936 27.2412 20.5 23.6299 20.5C20.1977 20.5 18.1458 22.0469 16.7441 23.9541L15.5361 23.0654C17.1624 20.8529 19.6305 19 23.6299 19C27.63 19 30.1948 20.3461 31.9609 22.1328L31.9619 22.1338C33.665 23.8604 34.6226 25.989 35.4102 27.7324C35.4704 27.8616 35.4533 27.8336 35.4922 27.9141L35.5 27.9297L35.5996 28.1357C36.0577 29.0149 36.8343 29.7641 37.7764 30.4463L38.2227 30.7568L38.2275 30.7598L37.832 31.3379L37.7852 31.4082L38.2275 30.7598C39.0873 31.3457 40.0762 31.8885 41.082 32.4434L41.0859 32.4453L40.7197 33.0996L40.7031 33.1299L41.0859 32.4453L42.2471 33.0947L42.2568 33.1006C43.6254 33.8909 44.9396 34.717 45.9092 35.7324C46.8747 36.7435 47.5 37.92 47.5 39.4102C47.5 40.3062 47.2145 41.0337 46.6943 41.625L46.0752 41.0801L46.1309 41.1299L46.6943 41.625L46.6904 41.6289C46.1735 42.2088 45.4256 42.666 44.4961 43.0127L44.4951 43.0117C42.6379 43.7097 40.0717 43.9598 37.2422 44H37.2402L37.2334 43.3242L37.2295 43.0605L37.2402 44C34.4055 44.0304 31.3001 43.8382 28.3662 43.6484L28.3447 43.6465C28.041 43.6177 27.7368 43.5982 27.4219 43.5781C24.8344 43.4074 22.4241 43.2402 20.5 43.2402C19.1403 43.2402 17.7381 43.2784 16.3154 43.3086L16.3164 43.3096C13.1896 43.3892 9.98522 43.4727 7.25879 43.1553C5.29677 42.9308 3.60796 42.4933 2.40918 41.707C1.82973 41.3298 1.34278 40.8554 1.00488 40.248C0.665839 39.6385 0.5 38.9363 0.5 38.1396ZM16.7441 23.9541C15.6377 25.4565 14.9742 27.1023 14.4111 28.5176C14.2247 28.9861 14.0459 29.4309 13.8672 29.8281L13.1777 29.5176L13.2891 29.5684L13.8672 29.8281L13.8652 29.8311C13.2002 31.2894 11.7125 32.0176 10.4834 32.4736L10.4824 32.4727C9.82194 32.7242 9.10785 32.9325 8.42969 33.1299L8.41602 33.1338L8.24902 33.1787C8.19365 33.1937 8.13831 33.2087 8.08301 33.2236C7.50553 33.3917 6.93577 33.5573 6.37402 33.7324C5.01515 34.1755 3.91436 34.6672 3.15625 35.3477L2.15332 34.2324C3.15511 33.3331 4.50845 32.7634 5.90918 32.3066L5.91895 32.3037C6.50381 32.1213 7.09501 31.9499 7.67773 31.7803L7.69141 31.7764L7.87695 32.4648L7.87891 32.4707L7.69141 31.7764C7.74697 31.7613 7.80291 31.7464 7.8584 31.7314C7.91097 31.7172 7.96312 31.7017 8.01562 31.6875C8.70681 31.4863 9.36226 31.2959 9.95605 31.0693L9.96191 31.0664C11.1573 30.6229 12.1052 30.0718 12.499 29.2119C12.6622 28.8492 12.8301 28.4342 13.0176 27.9629C13.5764 26.5583 14.3007 24.7429 15.5361 23.0654L16.7441 23.9541Z" fill="#1A1A1A"/>
<path fill-rule="evenodd" clip-rule="evenodd" d="M21.2671 31.3714C21.5865 31.1077 22.0593 31.1528 22.323 31.4722C23.0875 32.3982 24.4957 32.4322 25.3039 31.5442L25.3939 31.4452C25.6726 31.1387 26.1469 31.1161 26.4534 31.3948C26.7599 31.6734 26.7825 32.1477 26.5038 32.4542L26.4138 32.5532C24.991 34.117 22.5121 34.0572 21.1663 32.4272C20.9026 32.1078 20.9477 31.6351 21.2671 31.3714Z" fill="#1A1A1A"/>
<path d="M20.2549 29C19.7026 29 19.2549 29.4477 19.2549 30C19.2549 30.5523 19.7026 31 20.2549 31C20.8072 31 21.2549 30.5523 21.2549 30C21.2549 29.4477 20.8072 29 20.2549 29Z" fill="#1A1A1A"/>
<path d="M27.7454 29C28.2976 29 28.7454 29.4477 28.7454 30C28.7454 30.5523 28.2976 31 27.7454 31C27.1931 31 26.7454 30.5523 26.7454 30C26.7454 29.4477 27.1931 29 27.7454 29Z" fill="#1A1A1A"/>
</svg>
