<svg width="48" height="55" viewBox="0 0 48 55" fill="none" xmlns="http://www.w3.org/2000/svg">
<path d="M20.2359 50.33L21.1959 32.75H26.5429L27.3429 50.36C27.4269 52.21 25.9489 53.76 24.0959 53.76H23.4809C21.6159 53.76 20.1339 52.19 20.2359 50.33Z" fill="#383838"/>
<path d="M27.2593 32L28.0923 50.3262C28.1955 52.6023 26.3774 54.5096 24.0962 54.5098H23.481C21.1847 54.5098 19.3614 52.5777 19.4868 50.2891L20.4858 32H27.2593ZM20.9849 50.3711C20.9064 51.8023 22.0473 53.0098 23.481 53.0098H24.0962C25.5207 53.0096 26.6579 51.8172 26.5933 50.3936L25.8257 33.5H21.9058L20.9849 50.3711Z" fill="#1A1A1A"/>
<path d="M11.242 34.0699C9.73196 26.2499 15.717 19 23.674 19C31.693 19 37.693 26.36 36.075 34.22L34.944 39.71C34.789 40.46 34.128 41 33.362 41H13.927C13.146 41 12.475 40.4501 12.327 39.6801L11.242 34.0699Z" fill="url(#paint0_linear_53532_2488)"/>
<path d="M23.6737 18.25C32.1679 18.25 38.5232 26.0461 36.8095 34.3711L35.6786 39.8613L35.6269 40.0635C35.3298 41.0545 34.4148 41.7498 33.3622 41.75H13.9267C12.7885 41.7499 11.8073 40.9471 11.5907 39.8223L10.5058 34.2119C8.9066 25.9295 15.2454 18.2501 23.6737 18.25ZM23.6737 19.75C16.1883 19.7501 10.5577 26.5703 11.9784 33.9277L13.0634 39.5381L13.1064 39.6885C13.2346 40.0229 13.5564 40.2499 13.9267 40.25H33.3622C33.7711 40.2498 34.1255 39.961 34.2089 39.5586L35.3407 34.0684C36.8627 26.6736 31.2174 19.75 23.6737 19.75Z" fill="#1A1A1A"/>
<path fill-rule="evenodd" clip-rule="evenodd" d="M21.0362 32.3714C21.3556 32.1077 21.8283 32.1528 22.092 32.4722C22.8566 33.3982 24.2648 33.4322 25.073 32.5442L25.163 32.4452C25.4416 32.1387 25.9159 32.1161 26.2224 32.3948C26.5289 32.6734 26.5515 33.1477 26.2729 33.4542L26.1829 33.5532C24.7601 35.117 22.2812 35.0572 20.9354 33.4272C20.6716 33.1078 20.7168 32.6351 21.0362 32.3714Z" fill="#D9D9D9"/>
<path d="M20.0239 30C19.4716 30 19.0239 30.4477 19.0239 31C19.0239 31.5523 19.4716 32 20.0239 32C20.5762 32 21.0239 31.5523 21.0239 31C21.0239 30.4477 20.5762 30 20.0239 30Z" fill="#D9D9D9"/>
<path d="M27.5144 30C28.0667 30 28.5144 30.4477 28.5144 31C28.5144 31.5523 28.0667 32 27.5144 32C26.9621 32 26.5144 31.5523 26.5144 31C26.5144 30.4477 26.9621 30 27.5144 30Z" fill="#D9D9D9"/>
<defs>
<linearGradient id="paint0_linear_53532_2488" x1="23.769" y1="19" x2="23.769" y2="41" gradientUnits="userSpaceOnUse">
<stop offset="0.572115" stop-color="#444444"/>
<stop offset="1" stop-color="#757575"/>
</linearGradient>
</defs>
</svg>
