<svg width="48" height="55" viewBox="0 0 48 55" fill="none" xmlns="http://www.w3.org/2000/svg">
<path d="M29.9413 12.7797C31.3001 13.0297 32.2042 14.3297 31.9603 15.6897C31.8447 16.3297 31.7644 16.7997 31.7123 17.1497C32.0627 17.2297 32.5276 17.3098 33.1717 17.4298C34.5305 17.6698 35.4346 18.9697 35.1907 20.3297C35.0467 21.1297 34.5336 21.7697 33.8593 22.1197C34.3725 22.6697 34.6306 23.4497 34.4866 24.2497C34.2426 25.6097 32.9431 26.5197 31.5842 26.2697C30.9401 26.1597 30.4741 26.0797 30.1197 26.0197C30.0452 26.3697 29.9585 26.8397 29.8428 27.4797C29.5989 28.8397 28.2993 29.7497 26.9405 29.4997C26.2437 29.3797 25.6679 28.9698 25.3038 28.4298C24.7728 28.8098 24.0938 28.9897 23.3975 28.8697C22.0385 28.6197 21.1346 27.3197 21.3785 25.9597C21.4941 25.3197 21.5744 24.8497 21.6265 24.4997C21.2761 24.4297 20.8111 24.3397 20.1671 24.2197C18.8081 23.9797 17.9042 22.6797 18.1481 21.3197C18.292 20.5197 18.8037 19.8797 19.4778 19.5297C18.9652 18.9797 18.7083 18.1997 18.8522 17.3997C19.0961 16.0397 20.3955 15.1297 21.7545 15.3797C22.3986 15.4897 22.8648 15.5697 23.2191 15.6297C23.2935 15.2797 23.3803 14.8098 23.496 14.1698C23.7399 12.8098 25.0393 11.8997 26.3983 12.1497C27.0944 12.2697 27.6691 12.6797 28.0332 13.2197C28.5644 12.8397 29.2447 12.6597 29.9413 12.7797Z" fill="white"/>
<path d="M24.7613 14.6899C24.8588 14.1499 25.3786 13.79 25.9222 13.88C26.4658 13.98 26.8274 14.5 26.7298 15.04C26.5575 16 26.4149 16.81 26.2345 17.42C26.0561 18.02 25.784 18.64 25.206 19.05C24.6281 19.45 23.9479 19.4899 23.3219 19.4399C22.6886 19.3999 21.8853 19.2499 20.9251 19.0799C20.3815 18.9799 20.0199 18.46 20.1175 17.92C20.2151 17.38 20.7348 17.02 21.2784 17.11C22.2868 17.29 22.9599 17.4099 23.456 17.4499C23.9593 17.4799 24.0615 17.41 24.064 17.4C24.0666 17.4 24.173 17.33 24.3165 16.85C24.4578 16.37 24.5803 15.6999 24.7613 14.6899Z" fill="#DC3412"/>
<path d="M30.2728 15.6796C30.3703 15.1396 30.0088 14.6196 29.4652 14.5196C28.9216 14.4196 28.4018 14.7795 28.3042 15.3295C28.1319 16.2895 27.9859 17.0896 27.9435 17.7196C27.9015 18.3496 27.9394 19.0296 28.3415 19.6096C28.7435 20.1896 29.3681 20.4596 29.9696 20.6396C30.5781 20.8196 31.3821 20.9596 32.3422 21.1296C32.8858 21.2296 33.4056 20.8695 33.5032 20.3195C33.6007 19.7795 33.2392 19.2596 32.6956 19.1596C31.6872 18.9796 31.0147 18.8596 30.5381 18.7196C30.0544 18.5696 29.9831 18.4696 29.9831 18.4696C29.9813 18.4596 29.9057 18.3596 29.9395 17.8596C29.9727 17.3596 30.0918 16.6896 30.2728 15.6796Z" fill="#DC3412"/>
<path d="M22.6438 26.4901C22.5462 27.0301 22.9078 27.5501 23.4514 27.6501C23.995 27.7501 24.5147 27.38 24.6123 26.84C24.7847 25.88 24.9306 25.08 24.9731 24.44C25.0151 23.82 24.9771 23.1401 24.5751 22.5601C24.173 21.9801 23.5485 21.7101 22.947 21.5301C22.3384 21.3501 21.5345 21.2101 20.5743 21.0401C20.0307 20.9401 19.511 21.3 19.4134 21.84C19.3158 22.39 19.6774 22.9101 20.221 23.0001C21.2293 23.1901 21.9019 23.31 22.3785 23.45C22.8621 23.59 22.9334 23.7 22.9334 23.7C22.9334 23.7 23.0108 23.8101 22.9771 24.3101C22.9438 24.8101 22.8248 25.4801 22.6438 26.4901Z" fill="#DC3412"/>
<path d="M28.1554 27.4797C28.0578 28.0197 27.538 28.3798 26.9944 28.2798C26.4508 28.1898 26.0893 27.6698 26.1868 27.1198C26.3592 26.1598 26.5017 25.3598 26.6822 24.7498C26.8605 24.1498 27.1327 23.5198 27.7106 23.1198C28.2886 22.7198 28.9688 22.6797 29.5947 22.7197C30.2281 22.7697 31.0314 22.9097 31.9916 23.0897C32.5352 23.1797 32.8967 23.6998 32.7992 24.2498C32.7016 24.7898 32.1818 25.1498 31.6382 25.0498C30.6299 24.8698 29.9567 24.7497 29.4607 24.7197C28.9574 24.6897 28.8551 24.7598 28.8526 24.7598C28.8501 24.7698 28.7436 24.8397 28.6002 25.3197C28.4589 25.7997 28.3364 26.4697 28.1554 27.4797Z" fill="#DC3412"/>
</svg>
