<svg width="48" height="55" viewBox="0 0 48 55" fill="none" xmlns="http://www.w3.org/2000/svg">
<circle cx="14.8517" cy="6.53723" r="5.52258" fill="url(#paint0_radial_53542_5015)"/>
<path d="M14.75 11.6592V9.5C14.75 9.08579 15.0858 8.75 15.5 8.75C15.9142 8.75 16.25 9.08579 16.25 9.5V11.6592C16.2499 12.0733 15.9142 12.4092 15.5 12.4092C15.0858 12.4092 14.7501 12.0733 14.75 11.6592Z" fill="#E8CD7D"/>
<path d="M11.216 23.123C10.716 22.623 10.216 12.1231 10.6913 12.0271C11.1667 11.9311 19.216 11.219 19.716 11.623C20.216 12.027 20.216 22.846 19.716 23.623C19.216 24.4 14.488 24.263 11.216 23.123Z" fill="#FFF1C2"/>
<path d="M18.1515 10.7517C18.5751 10.7459 18.9569 10.7511 19.2569 10.7723C19.4055 10.7828 19.5523 10.7986 19.6817 10.824C19.7575 10.8389 19.9431 10.8753 20.1153 10.9871L20.1876 11.0398L20.2882 11.1365C20.3751 11.2348 20.4223 11.3328 20.4444 11.3816C20.4821 11.4648 20.5091 11.549 20.5284 11.6209C20.5675 11.7661 20.598 11.9384 20.6231 12.1189C20.6741 12.4846 20.7145 12.9666 20.7462 13.5154C20.8098 14.6179 20.8409 16.0485 20.8409 17.4832C20.8409 18.9181 20.8097 20.3705 20.7462 21.5183C20.7145 22.0908 20.6742 22.5987 20.6241 22.9949C20.5992 23.1918 20.5708 23.3738 20.5362 23.5281C20.5081 23.6535 20.4564 23.8587 20.3468 24.0291C20.15 24.3346 19.8309 24.4893 19.6036 24.574C19.3497 24.6686 19.0518 24.7318 18.7403 24.7752C18.1137 24.8624 17.3236 24.8817 16.4698 24.8406C14.7625 24.7584 12.6887 24.4297 10.9698 23.8308L10.8067 23.7742L10.6856 23.6531C10.5748 23.5422 10.5142 23.42 10.4854 23.3562C10.451 23.28 10.4244 23.2014 10.4034 23.1307C10.3612 22.9885 10.3245 22.819 10.2921 22.6394C10.2266 22.2772 10.166 21.8044 10.1104 21.2693C9.99877 20.1947 9.90341 18.8172 9.83895 17.4588C9.77452 16.1008 9.74062 14.7474 9.75302 13.7215C9.75918 13.212 9.77624 12.765 9.81063 12.4334C9.82732 12.2725 9.85143 12.1069 9.88974 11.9656C9.90792 11.8986 9.93934 11.796 9.99813 11.6932C10.0401 11.6197 10.1994 11.3612 10.5431 11.2918L10.7559 11.2605C11.0482 11.224 11.5634 11.1726 12.1651 11.1189C12.9995 11.0445 14.0718 10.9587 15.1456 10.8885C16.2171 10.8184 17.2999 10.7635 18.1515 10.7517ZM18.172 12.2517C17.3589 12.2629 16.3059 12.3161 15.2433 12.3855C14.1828 12.4548 13.1221 12.5396 12.2979 12.6131C11.8968 12.6488 11.5533 12.6818 11.294 12.7088C11.2731 12.9654 11.2572 13.3148 11.252 13.74C11.2401 14.7253 11.2734 16.0462 11.337 17.3875C11.4006 18.7285 11.4948 20.0763 11.6026 21.114C11.6567 21.6348 11.713 22.0649 11.7686 22.3728C11.7789 22.4298 11.7886 22.4806 11.7979 22.5252C13.2869 22.9976 15.0556 23.271 16.5421 23.3426C17.3412 23.381 18.0308 23.3597 18.5333 23.2898C18.7855 23.2547 18.965 23.2107 19.0782 23.1687C19.0964 23.081 19.1163 22.9608 19.1358 22.8064C19.1795 22.4607 19.2173 21.9926 19.2481 21.4353C19.3096 20.3236 19.3409 18.9005 19.3409 17.4832C19.3409 16.0655 19.3095 14.6663 19.2481 13.6023C19.2173 13.0681 19.1805 12.6323 19.1378 12.326C19.1349 12.3055 19.1308 12.286 19.128 12.2674C18.8921 12.2518 18.5674 12.2463 18.172 12.2517Z" fill="#E8CD7D"/>
<path d="M12.2148 16.8838C12.2148 16.6868 12.2111 16.4936 12.2051 16.3047C12.1869 16.3468 12.1684 16.389 12.1475 16.4287C12.1029 16.5131 12.0195 16.6537 11.8789 16.7705C11.7155 16.906 11.4341 17.0342 11.0996 16.9385C10.9119 16.8848 10.7808 16.7801 10.7139 16.7197C10.6385 16.6518 10.5769 16.5784 10.5312 16.5205C10.4434 16.4091 10.3522 16.2699 10.293 16.1826C10.2437 16.1101 10.2061 16.0615 10.1797 16.0273C9.92654 15.9069 9.75 15.6516 9.75 15.3525C9.75025 14.9385 10.0859 14.6025 10.5 14.6025C10.7292 14.6025 10.9051 14.6919 11.0088 14.7598C11.0339 14.7762 11.0557 14.7962 11.0781 14.8135C11.0963 14.7561 11.1274 14.6659 11.1758 14.5811C11.2505 14.4501 11.3697 14.2687 11.5352 14.1104C11.6938 13.9586 11.9788 13.75 12.373 13.75L12.5586 13.7637C12.742 13.792 12.9155 13.8642 13.0674 13.9814C13.258 14.1286 13.3687 14.3127 13.4346 14.4609C13.5527 14.7271 13.5921 15.0464 13.6113 15.167C13.7049 15.752 13.7148 16.352 13.7148 16.8838C13.7148 17.3609 13.7197 17.8027 13.7988 18.1172L13.8379 18.2441L14.0059 18.749C14.0591 18.9125 14.1092 19.0561 14.166 19.1836C14.169 19.1903 14.1728 19.1966 14.1758 19.2031C14.1685 19.0023 14.1502 18.7822 14.127 18.5586C14.0984 18.2842 14.0557 17.9413 14.0557 17.7178C14.0557 17.1781 14.0466 16.1855 14.0557 15.623C14.0683 14.8401 14.6564 14.2031 15.4834 14.2031L15.5752 14.208C15.7841 14.2287 15.9547 14.3144 16.042 14.3623C16.1676 14.4312 16.2857 14.5168 16.3857 14.5986C16.4871 14.6815 16.5871 14.7746 16.6719 14.8691C16.7376 14.9424 16.8608 15.0878 16.9287 15.2705L15.9561 15.6318L16.2256 15.5322L16.9287 15.2705L16.9297 15.2725C16.9592 15.3522 16.994 15.4318 17.0322 15.5215C17.0923 15.3433 17.1838 15.1049 17.3008 14.8789C17.3839 14.7183 17.4995 14.5254 17.6494 14.3623C17.7822 14.218 18.0608 13.9679 18.4727 13.9678L18.6035 13.9775C18.8941 14.0225 19.0835 14.2073 19.1465 14.2705C19.2521 14.3764 19.3411 14.5006 19.4102 14.6064C19.5511 14.8224 19.6955 15.0961 19.8193 15.335C19.952 15.5908 20.0642 15.8129 20.1641 15.9834C20.2022 16.0485 20.2313 16.0917 20.25 16.1182C20.5035 16.3058 20.6223 16.6385 20.5176 16.9541C20.387 17.3472 19.9624 17.5603 19.5693 17.4297C19.4142 17.3781 19.3047 17.2914 19.2451 17.2383C19.1798 17.18 19.1271 17.1184 19.0869 17.0674C19.0067 16.9657 18.9327 16.849 18.8701 16.7422C18.7448 16.5284 18.6072 16.2566 18.4873 16.0254C18.4791 16.0095 18.47 15.9941 18.4619 15.9785C18.4422 16.0356 18.4265 16.0815 18.4189 16.1094C18.4046 16.1619 18.279 16.6957 18.0996 17.1104C18.0524 17.2195 17.9936 17.3396 17.9219 17.4521C17.8557 17.556 17.7481 17.7031 17.5859 17.8174C17.4046 17.9451 17.1169 18.0524 16.7871 17.9512C16.4992 17.8627 16.3243 17.6564 16.2285 17.5127C16.0995 17.3192 16.0209 17.1215 15.9668 16.9648C15.9397 16.8863 15.9154 16.8078 15.8955 16.7441C15.8743 16.6764 15.8575 16.6222 15.8398 16.5723L15.6992 16.2236C15.6549 16.1203 15.6047 15.9989 15.5557 15.873C15.5515 16.4302 15.5557 17.2214 15.5557 17.7178C15.5557 17.8386 15.5817 18.053 15.6182 18.4033C15.6507 18.7164 15.6868 19.1049 15.6787 19.4648C15.6747 19.6459 15.6591 19.8408 15.6191 20.0283C15.5805 20.2095 15.5089 20.4335 15.3604 20.6328C15.1971 20.8516 14.9511 21.0251 14.6318 21.0723C14.3391 21.1155 14.065 21.0407 13.8398 20.9395V20.9385L13.6377 20.832C13.1958 20.5592 12.9482 20.1357 12.7959 19.7939C12.7061 19.5924 12.6359 19.3883 12.5791 19.2139C12.5178 19.0256 12.4766 18.8904 12.4297 18.7627L12.3555 18.5215C12.2046 17.9439 12.2148 17.2766 12.2148 16.8838Z" fill="#E8CD7D"/>
<path d="M13.7175 4.49996L14.362 4.11596C14.2043 3.85096 13.9003 3.70997 13.5959 3.75997C13.2915 3.80997 13.0488 4.04095 12.9842 4.34295L13.7175 4.49996ZM13.7175 7.84396L14.3853 7.50198L14.2901 7.31597L14.1123 7.20596L13.7175 7.84396ZM15.1431 4.91998C14.8919 4.83298 14.639 4.58196 14.362 4.11596L13.0731 4.88397C13.3913 5.41797 13.8769 6.06898 14.6524 6.33798L15.1431 4.91998ZM12.9842 4.34295C12.9315 4.58895 12.8169 5.39497 12.7706 6.17297C12.7473 6.56197 12.7389 6.97895 12.7716 7.32995C12.7877 7.50395 12.8165 7.69395 12.8732 7.86895C12.9205 8.01395 13.0341 8.30295 13.3228 8.48095L14.1123 7.20596C14.29 7.31596 14.3177 7.45997 14.3 7.40597C14.2917 7.37997 14.2764 7.31295 14.2651 7.19195C14.2429 6.95195 14.2463 6.62396 14.2679 6.26196C14.3112 5.53596 14.4186 4.80798 14.4509 4.65698L12.9842 4.34295ZM13.0498 8.18496C13.324 8.72096 13.8838 9.02396 14.3361 9.17196C14.8042 9.32496 15.3823 9.38796 15.8765 9.24096L15.4504 7.80297C15.3371 7.83697 15.0844 7.83797 14.8024 7.74597C14.6718 7.70297 14.5635 7.64896 14.486 7.59496C14.4057 7.53896 14.385 7.50098 14.3853 7.50198L13.0498 8.18496ZM15.8765 9.24096C16.4082 9.08396 16.8101 8.71697 17.0711 8.31597C17.3318 7.91597 17.4871 7.42995 17.4871 6.95095H15.9871C15.9871 7.11795 15.9287 7.32195 15.8141 7.49795C15.6999 7.67295 15.565 7.76897 15.4504 7.80297L15.8765 9.24096ZM17.4871 6.95095C17.4871 6.54695 17.3582 6.19596 17.1329 5.91296C16.9193 5.64396 16.6465 5.46897 16.4029 5.34997C16.1586 5.23097 15.9021 5.14798 15.6886 5.08398C15.4499 5.01198 15.295 4.97298 15.1431 4.91998L14.6524 6.33798C14.8422 6.40298 15.0881 6.46996 15.2583 6.52096C15.4538 6.57896 15.6144 6.63496 15.7445 6.69796C15.8753 6.76196 15.9342 6.81497 15.9587 6.84597C15.9715 6.86197 15.9871 6.88295 15.9871 6.95095H17.4871Z" fill="#F79722"/>
<defs>
<radialGradient id="paint0_radial_53542_5015" cx="0" cy="0" r="1" gradientUnits="userSpaceOnUse" gradientTransform="translate(14.8517 6.53723) rotate(69.6264) scale(5.32155)">
<stop stop-color="#FFD755" stop-opacity="0.8"/>
<stop offset="0.865385" stop-color="#FFD755" stop-opacity="0"/>
</radialGradient>
</defs>
</svg>
