<svg width="48" height="55" viewBox="0 0 48 55" fill="none" xmlns="http://www.w3.org/2000/svg">
<path d="M27.6117 7.82214L23.6101 16.7721C23.5037 17.0101 23.4852 17.2921 23.6647 17.4811C24.0182 17.8541 24.6636 18.1311 25.1949 18.2991C25.5138 18.3991 25.8554 18.3001 26.0805 18.0531C27.5589 16.4301 30.312 12.6081 31.7654 10.5231C31.8986 10.3321 31.9693 10.0991 31.899 9.87713C31.5436 8.75313 30.0208 7.8411 28.8196 7.3211C28.35 7.1181 27.8206 7.35514 27.6117 7.82214Z" fill="#FFA629"/>
<path d="M26.9271 7.51571C27.2859 6.71408 28.2323 6.25021 29.1176 6.6329L29.6097 6.85946C30.1149 7.1063 30.6492 7.4133 31.1273 7.77352C31.7482 8.24137 32.3659 8.86773 32.6137 9.65048C32.7782 10.1702 32.5937 10.6462 32.3803 10.9522L31.1498 10.0938C31.1579 10.0822 31.1629 10.0713 31.1674 10.0626C31.0474 9.73157 30.7331 9.35467 30.225 8.97176C29.8403 8.68184 29.393 8.42356 28.9545 8.20907L28.5219 8.00985C28.4867 7.99466 28.4511 7.99409 28.4115 8.01083C28.3793 8.0245 28.3457 8.04969 28.3197 8.087L28.2963 8.12801L24.3051 17.0528C24.5467 17.2476 24.9689 17.4407 25.4183 17.5831C25.4474 17.5922 25.4891 17.5881 25.5258 17.5479C26.965 15.9679 29.6898 12.1882 31.1498 10.0938L32.3803 10.9522C30.9333 13.028 28.1525 16.8929 26.6351 18.5587C26.2217 19.0124 25.5788 19.2056 24.9701 19.0147L24.7533 18.9425C24.2271 18.7583 23.5547 18.4539 23.1215 17.9972C22.6336 17.4835 22.7665 16.8209 22.9252 16.4659L26.9271 7.51571Z" fill="#DD7C0E"/>
<path d="M33.5006 16.4161L28.4066 20.485C28.2037 20.647 28.0724 20.889 28.1997 21.105C28.4086 21.459 28.8699 21.887 29.2375 22.198C29.5046 22.424 29.8839 22.479 30.2224 22.354C32.6521 21.456 33.865 20.9041 35.8456 19.9941C36.0798 19.8861 36.2809 19.6961 36.2794 19.4471C36.2742 18.6111 35.4677 17.3451 34.815 16.5151C34.5007 16.1151 33.9109 16.0891 33.5006 16.4161Z" fill="#FFA629"/>
<path d="M33.0333 15.8298C33.7117 15.2892 34.7898 15.2699 35.4044 16.0515L34.2257 16.9783C34.2113 16.9599 34.1888 16.944 34.1447 16.9411C34.096 16.938 34.0291 16.9531 33.9679 17.0017L29.0206 20.9538C29.1979 21.1575 29.456 21.4008 29.7218 21.6257L29.7628 21.6501C29.8111 21.6715 29.8815 21.6807 29.962 21.6511L30.8107 21.3327C32.6702 20.6236 33.7979 20.1093 35.5157 19.3201C35.4784 19.0893 35.3551 18.7519 35.13 18.3357C34.9363 17.9776 34.6974 17.6136 34.4601 17.2888L34.2257 16.9783L35.4044 16.0515C35.7491 16.4898 36.1399 17.0499 36.4493 17.6218C36.7442 18.1669 37.0256 18.8307 37.0294 19.4431C37.0334 20.1385 36.4873 20.5243 36.1593 20.6755L35.9777 20.281L35.8019 19.8992L36.1593 20.6755C34.1722 21.5885 32.9384 22.1497 30.4825 23.0574L30.2648 23.1228C29.7489 23.2423 29.1831 23.135 28.7531 22.7712C28.4395 22.506 27.973 22.0876 27.672 21.6667L27.5538 21.4861C27.3536 21.1464 27.3702 20.7847 27.4816 20.5007C27.5848 20.238 27.766 20.037 27.9386 19.8992L33.0333 15.8298Z" fill="#DD7C0E"/>
</svg>
