<svg width="48" height="55" viewBox="0 0 48 55" fill="none" xmlns="http://www.w3.org/2000/svg">
<path d="M8.19057 2.96833C7.64129 4.22863 7.25275 6.58062 7.06595 8.13792C7.0219 8.50512 7.1924 8.86282 7.50017 9.06802L12.9931 12.73C13.2837 12.9237 13.6543 12.9518 13.9707 12.8042L21.2217 9.42043C21.4262 9.32493 21.5997 9.16543 21.6649 8.94943C22.1277 7.41623 21.1772 4.81623 20.3608 3.12373C20.1282 2.64143 19.5623 2.49803 19.1782 2.87103C18.2123 3.80873 16.8074 5.55643 15.9162 6.72163C15.725 6.97163 15.4295 7.11932 15.1148 7.11932H13.204C12.7274 7.11932 12.3247 6.77823 12.1481 6.33543C11.5618 4.86583 10.2558 3.54993 9.27359 2.76033C8.90207 2.46163 8.38101 2.53133 8.19057 2.96833Z" fill="#CB0B96"/>
<path d="M9.94283 21.8106C5.23878 19.0666 4.04279 10.7631 4.00101 5.90994C3.99528 5.24414 4.65353 4.79234 5.24808 5.09204C8.33397 6.64764 10.0029 9.66684 10.4813 11.5805C9.3465 6.28504 12.5576 2.81634 14.9369 0.955838C15.4163 0.581038 16.1116 0.760736 16.335 1.32684C17.9325 5.37434 17.4374 9.80874 16.9424 12.1189C18.3583 8.22514 21.5682 6.73134 23.7629 6.02374C24.3905 5.82134 25.019 6.31134 25.0047 6.97054C24.8087 16.008 22.5964 20.611 20.7114 21.8106C16.404 23.9643 11.1992 22.708 9.94283 21.8106Z" fill="#FF99E0"/>
<path fill-rule="evenodd" clip-rule="evenodd" d="M14.4749 0.365066C15.338 -0.309715 16.62 0.00618827 17.0326 1.05161C17.3282 1.80067 17.5554 2.56086 17.7263 3.31796C18.0552 2.9472 18.3721 2.60839 18.6556 2.33319C19.0271 1.9724 19.5227 1.83908 19.9919 1.94538C20.4503 2.04923 20.8285 2.36736 21.0362 2.79809C21.4454 3.64638 21.8927 4.72598 22.1908 5.80648C22.6655 5.6053 23.1192 5.44333 23.5327 5.31001C24.6753 4.94158 25.7794 5.8378 25.7545 6.98689C25.6553 11.5597 25.0457 15.0481 24.2026 17.5679C23.3703 20.0554 22.2739 21.7053 21.114 22.4435L21.0814 22.4642L21.0468 22.4815C18.7366 23.6367 16.2123 23.8668 14.1241 23.7026C13.0766 23.6202 12.1239 23.4375 11.3426 23.213C10.5969 22.9987 9.95416 22.7313 9.53693 22.4421C6.95096 20.9187 5.41052 17.9368 4.5042 14.8635C3.58672 11.7523 3.27233 8.3899 3.25104 5.91648C3.241 4.75046 4.43619 3.84297 5.58569 4.42241C6.01192 4.63727 6.41279 4.87766 6.78887 5.13786C6.9809 4.2132 7.21921 3.31979 7.50289 2.66891C7.70102 2.21427 8.09234 1.92647 8.53611 1.84964C8.96551 1.7753 9.4034 1.90268 9.74336 2.17599C10.2178 2.55741 10.7806 3.0682 11.3128 3.67168C12.2759 2.25261 13.4651 1.15473 14.4749 0.365066ZM10.5112 5.05014C9.98937 4.3911 9.37495 3.80783 8.83492 3.37039C8.54623 4.07865 8.2992 5.14778 8.10859 6.21871C8.68552 6.77294 9.18123 7.36952 9.59941 7.97301C9.75689 6.90131 10.0825 5.92772 10.5112 5.05014ZM20.8176 6.48326C20.8019 6.41966 20.7853 6.35535 20.7679 6.29039C20.753 6.23477 20.7377 6.17904 20.7218 6.12325C20.4548 5.18204 20.0581 4.22299 19.6852 3.44978C19.6821 3.44343 19.679 3.43787 19.6761 3.43312C19.207 3.89183 18.6245 4.55442 18.049 5.24698C18.1822 6.43158 18.1982 7.57718 18.1469 8.62573C18.9682 7.69961 19.8985 7.00765 20.8176 6.48326ZM15.3988 1.54678C15.4945 1.47196 15.6031 1.51545 15.6373 1.60223C17.1554 5.44844 16.6915 9.71012 16.209 11.9619L17.6472 12.3753C18.9442 8.80842 21.8773 7.41977 23.9931 6.73762C24.1057 6.70129 24.2585 6.78506 24.2548 6.95436C24.158 11.4191 23.5635 14.7509 22.7801 17.0919C21.9972 19.4319 21.0604 20.6813 20.3393 21.1581C18.3515 22.1411 16.1353 22.3561 14.2418 22.2072C13.2926 22.1325 12.4393 21.9675 11.7568 21.7713C11.0567 21.5702 10.5909 21.3519 10.3788 21.2004L10.3506 21.1803L10.3207 21.1629C8.21954 19.9372 6.81781 17.4058 5.94294 14.4392C5.07597 11.4993 4.77147 8.28334 4.75098 5.90357C4.75033 5.82802 4.78423 5.78386 4.81535 5.76313C4.83125 5.75253 4.84543 5.74865 4.85626 5.74786C4.86496 5.74723 4.88211 5.74755 4.91048 5.76184C7.75829 7.19743 9.31512 10.0083 9.75365 11.7625L11.2146 11.4235C10.1725 6.56055 13.0899 3.35224 15.3988 1.54678Z" fill="#1A1A1A"/>
</svg>
