<svg width="52" height="55" viewBox="0 0 52 55" fill="none" xmlns="http://www.w3.org/2000/svg">
<ellipse cx="18.4971" cy="12.8039" rx="18.4971" ry="10.4455" fill="url(#paint0_radial_53542_5029)"/>
<path fill-rule="evenodd" clip-rule="evenodd" d="M11.3877 8.41711C9.52455 8.86111 6.50342 9.58012 6.50342 13.2851C6.50342 16.0281 10.3608 18.6921 19.6156 17.9951C21.4928 17.8541 24.2884 17.6021 26.8744 17.0181C31.1554 16.0511 31.5841 11.2031 27.6091 9.3431C23.933 7.6231 18.5617 6.70611 11.4598 8.40011C11.436 8.40511 11.4119 8.41111 11.3877 8.41711ZM13.7501 11.1051C11.9199 11.2781 9.72161 11.4861 9.70646 12.8711C9.68712 14.6391 13.7761 15.3301 23.1311 14.6111C28.4319 14.2031 28.8771 11.5931 23.5685 11.0461C20.8967 10.7711 17.7114 10.7261 13.9511 11.0861C13.8847 11.0921 13.8176 11.0981 13.7501 11.1051Z" fill="#FFE8A3"/>
<path d="M7.25342 13.2852C7.25342 11.6822 7.88551 10.8022 8.67979 10.2412C9.53127 9.63923 10.6089 9.37322 11.5615 9.14622L11.2139 7.68724C10.3034 7.90424 8.93885 8.22022 7.81396 9.01622C6.63189 9.85122 5.75342 11.1832 5.75342 13.2852H7.25342ZM19.5592 17.2472C14.9957 17.5912 11.8541 17.0962 9.88785 16.2422C7.9218 15.3882 7.25342 14.2472 7.25342 13.2852H5.75342C5.75342 15.0662 7.01371 16.6292 9.29004 17.6182C11.5661 18.6072 14.9806 19.0962 19.6719 18.7432L19.5592 17.2472ZM26.7092 16.2862C24.1806 16.8572 21.4318 17.1062 19.5592 17.2472L19.6719 18.7432C21.5538 18.6012 24.3962 18.3462 27.0396 17.7492L26.7092 16.2862ZM27.2912 10.0222C29.0299 10.8362 29.7035 12.2352 29.591 13.4462C29.4791 14.6502 28.5722 15.8662 26.7092 16.2862L27.0396 17.7492C29.4576 17.2032 30.9055 15.5122 31.0845 13.5852C31.2629 11.6652 30.1633 9.71022 27.927 8.66322L27.2912 10.0222ZM11.6338 9.12923C18.5871 7.47123 23.7833 8.38123 27.2912 10.0222L27.927 8.66322C24.0828 6.86522 18.5362 5.94124 11.2858 7.67024L11.6338 9.12923ZM11.5615 9.14622C11.5857 9.14122 11.6098 9.13523 11.6338 9.12923L11.2858 7.67024C11.2621 7.67624 11.2382 7.68124 11.2139 7.68724L11.5615 9.14622ZM10.4564 12.8792C10.4577 12.7612 10.4942 12.6792 10.594 12.5882C10.7164 12.4762 10.9329 12.3562 11.2738 12.2482C11.9622 12.0312 12.8814 11.9402 13.8207 11.8512L13.6795 10.3582C12.7886 10.4422 11.6936 10.5422 10.8215 10.8182C10.3821 10.9572 9.93181 11.1602 9.58064 11.4822C9.20677 11.8242 8.96279 12.2882 8.95651 12.8632L10.4564 12.8792ZM23.0736 13.8632C18.4079 14.2222 15.1128 14.2232 13.0065 13.9312C11.9458 13.7842 11.2565 13.5712 10.8536 13.3392C10.474 13.1222 10.4555 12.9612 10.4564 12.8792L8.95651 12.8632C8.94773 13.6652 9.43316 14.2542 10.1071 14.6412C10.7579 15.0142 11.6718 15.2602 12.8003 15.4172C15.0724 15.7322 18.4993 15.7192 23.1886 15.3592L23.0736 13.8632ZM23.4917 11.7922C24.7717 11.9242 25.6326 12.1752 26.1353 12.4402C26.6837 12.7292 26.5703 12.8832 26.5859 12.7752C26.5895 12.7492 26.5392 12.9822 25.8796 13.2732C25.2788 13.5382 24.3478 13.7652 23.0736 13.8632L23.1886 15.3592C24.5647 15.2532 25.6772 15.0012 26.4849 14.6452C27.2337 14.3152 27.9568 13.7842 28.0708 12.9872C28.1967 12.1062 27.5306 11.4802 26.835 11.1132C26.0938 10.7222 25.0197 10.4422 23.6454 10.3002L23.4917 11.7922ZM14.0225 11.8322C17.7367 11.4772 20.8724 11.5222 23.4917 11.7922L23.6454 10.3002C20.9211 10.0192 17.686 9.97522 13.8797 10.3392L14.0225 11.8322ZM13.8207 11.8512C13.8882 11.8452 13.9556 11.8392 14.0225 11.8322L13.8797 10.3392C13.8137 10.3452 13.7471 10.3522 13.6795 10.3582L13.8207 11.8512Z" fill="#FFC21A"/>
<defs>
<radialGradient id="paint0_radial_53542_5029" cx="0" cy="0" r="1" gradientTransform="matrix(6.20516 9.43557 -16.7088 3.5041 18.4971 12.8039)" gradientUnits="userSpaceOnUse">
<stop stop-color="#F7C522" stop-opacity="0.5"/>
<stop offset="1" stop-color="#F7C522" stop-opacity="0"/>
</radialGradient>
</defs>
</svg>
