<svg width="48" height="55" viewBox="0 0 48 55" fill="none" xmlns="http://www.w3.org/2000/svg">
<path d="M26.0807 24.22C14.6218 25.52 7.90275 23.22 5.97559 21.91L18.4589 4.104L26.0807 24.22Z" fill="#FFCD29"/>
<path d="M9.02002 17.9834C10.4044 17.9835 11.5269 19.1059 11.5269 20.4902C11.5268 21.8745 10.4043 22.997 9.02002 22.9971C7.63565 22.9971 6.51325 21.8746 6.51318 20.4902C6.51318 19.1058 7.63561 17.9834 9.02002 17.9834ZM16.5415 17.9834C17.9259 17.9835 19.0483 19.1059 19.0483 20.4902C19.0483 21.8745 17.9258 22.997 16.5415 22.9971C15.1571 22.9971 14.0347 21.8746 14.0347 20.4902C14.0347 19.1058 15.1571 17.9834 16.5415 17.9834ZM24.8062 22.21L25.1851 22.0801C24.789 22.3399 24.3154 22.4902 23.8052 22.4902C22.4212 22.49 21.2996 21.3699 21.2993 19.9902C21.2993 18.8104 22.1106 17.82 23.2046 17.5498L24.8062 22.21ZM12.605 12.4639C13.9892 12.464 15.1117 13.5855 15.1118 14.9697C15.1118 16.3541 13.9893 17.4764 12.605 17.4766C11.2206 17.4766 10.0981 16.3541 10.0981 14.9697C10.0983 13.5855 11.2207 12.4639 12.605 12.4639ZM19.8013 11.2334C21.1857 11.2334 22.3081 12.3558 22.3081 13.7402C22.308 15.1246 21.1856 16.2471 19.8013 16.2471C18.4171 16.2469 17.2955 15.1245 17.2954 13.7402C17.2954 12.3559 18.417 11.2336 19.8013 11.2334ZM15.9136 7.00195C16.8935 7.34306 17.5981 8.2723 17.5981 9.36816C17.598 10.7499 16.4754 11.8697 15.0913 11.8799C14.3365 11.8799 13.6613 11.5397 13.2017 11.0098L15.9136 7.00195Z" fill="#007BE5"/>
<path d="M18.4047 2.10767C18.6863 2.14079 18.925 2.33042 19.0219 2.59693L26.7855 23.9631C26.864 24.179 26.8391 24.4192 26.7182 24.6145C26.5972 24.8098 26.3937 24.9392 26.1654 24.9651L25.0922 25.0774C19.7934 25.5846 15.5265 25.2861 12.3031 24.678C8.88521 24.0332 6.5959 23.0316 5.50331 22.2366C5.17935 22.0008 5.09829 21.5516 5.31874 21.217L17.6908 2.4397C17.8468 2.20311 18.1232 2.07461 18.4047 2.10767ZM6.99257 21.4016C8.04809 21.9823 9.90274 22.699 12.5814 23.2043C15.6768 23.7882 19.8344 24.0814 25.0482 23.5735L18.1224 4.51197L6.99257 21.4016Z" fill="#1A1A1A"/>
<path fill-rule="evenodd" clip-rule="evenodd" d="M17.801 0.263163C18.2071 0.183439 18.6016 0.448977 18.6818 0.854959C18.784 1.37359 18.8708 1.94128 18.9299 2.55711C19.2442 2.16734 19.5191 1.79022 19.76 1.43113C19.9907 1.08746 20.4561 0.995599 20.8 1.22605C21.1439 1.45683 21.2358 1.92311 21.0051 2.26707C20.6565 2.78663 20.2444 3.33907 19.7541 3.90965C20.2729 3.87388 20.8168 3.81555 21.3859 3.72508C21.7949 3.66006 22.1792 3.9392 22.2443 4.34812C22.3092 4.75709 22.0303 5.14151 21.6213 5.20652C21.0087 5.30389 20.4221 5.36695 19.8615 5.40574C20.1814 5.67381 20.5227 5.9427 20.8889 6.20848C21.2237 6.45172 21.2977 6.92122 21.0549 7.25633C20.8116 7.59116 20.3431 7.66526 20.008 7.42234C19.5995 7.12585 19.2187 6.82586 18.8625 6.52586C18.8079 6.96082 18.738 7.41045 18.6477 7.87449C18.5685 8.28107 18.1744 8.54642 17.7678 8.46726C17.3616 8.38784 17.096 7.99465 17.175 7.58836C17.2692 7.10446 17.3403 6.63833 17.3928 6.18992C16.9695 6.53108 16.5127 6.87222 16.0168 7.20652C15.6734 7.43786 15.2073 7.34765 14.9758 7.00437C14.7444 6.66099 14.8356 6.19492 15.1789 5.96336C15.5129 5.73818 15.827 5.50916 16.1242 5.28074C15.5769 5.20326 15.0701 5.10541 14.6037 4.99656C14.2007 4.90227 13.9502 4.49834 14.0441 4.09519C14.1385 3.69205 14.5423 3.44151 14.9455 3.53562C15.3358 3.6267 15.7579 3.70885 16.2121 3.77683C15.8184 3.26792 15.4832 2.7756 15.1945 2.31101C14.976 1.95921 15.084 1.49737 15.4357 1.27879C15.7875 1.0607 16.2495 1.16843 16.468 1.52C16.7456 1.96673 17.0703 2.44337 17.4572 2.93699C17.4043 2.28006 17.3162 1.68231 17.2102 1.14402C17.1306 0.737958 17.3949 0.343267 17.801 0.263163Z" fill="#007BE5"/>
</svg>
