<svg width="48" height="55" viewBox="0 0 48 55" fill="none" xmlns="http://www.w3.org/2000/svg">
<path d="M5.39819 20.6779C10.5169 22.3279 14.7222 21.9379 16.8874 21.9379C18.9942 21.9379 25.3934 20.9779 27.7601 19.5779C28.0349 19.4179 28.1559 19.088 28.0915 18.778C26.7914 12.468 20.3692 8.03798 15.5843 8.51798C11.1716 8.94798 5.13575 12.4179 4.80649 19.8379C4.78952 20.2179 5.03432 20.5579 5.39819 20.6779Z" fill="#FF99E0"/>
<path fill-rule="evenodd" clip-rule="evenodd" d="M16.481 7.75732C19.3998 8.59237 22.9044 12.1374 23.647 18.7241L22.1567 18.8921C21.5472 13.485 18.9951 10.5783 16.9019 9.52881C16.7956 12.0605 16.7555 16.406 17.2212 18.9321L15.7466 19.2036C15.2609 16.569 15.2948 12.23 15.397 9.64307C13.1072 10.8015 10.146 13.7462 10.146 18.6382H8.646C8.646 12.1351 13.2541 8.57206 16.0688 7.76709L16.2729 8.48291L16.481 7.75732Z" fill="#FFBDF2"/>
<path d="M15.5099 7.77128C18.1455 7.50702 21.1337 8.59109 23.6046 10.5086C26.0863 12.4345 28.1339 15.2663 28.8263 18.6248L28.8449 18.7351C28.9177 19.2858 28.6942 19.898 28.1408 20.2224L28.1417 20.2234C26.8337 20.9971 24.5234 21.6051 22.3683 22.0193C20.19 22.438 18.0102 22.6872 16.8878 22.6873C14.7786 22.6873 10.4269 23.0866 5.1681 21.3914L5.16321 21.3904C4.49576 21.1703 4.02516 20.5361 4.05775 19.8045C4.40853 11.8994 10.8508 8.22705 15.5099 7.77225V7.77128ZM22.6847 11.6941C20.4235 9.93937 17.8084 9.04886 15.6593 9.26444H15.6574C11.4912 9.67042 5.86352 12.937 5.55579 19.8709C5.55456 19.8986 5.57253 19.9432 5.63001 19.9637C10.6079 21.568 14.6668 21.1873 16.8878 21.1873C17.8725 21.1872 19.9459 20.9579 22.0851 20.5467C24.2339 20.1336 26.2929 19.5647 27.3575 18.9432C27.3576 18.9392 27.3584 18.9348 27.3575 18.9305L27.3566 18.9295C26.7486 15.9786 24.935 13.4404 22.6847 11.6941Z" fill="#1A1A1A"/>
<path d="M3.44808 21.6278C3.38994 20.9078 3.44062 20.0978 3.53409 19.3578C3.66434 18.3278 4.71612 17.7478 5.73037 17.9678C12.1623 19.3278 22.239 18.5778 27.7201 17.9078C28.5271 17.8078 29.3069 18.2577 29.4764 19.0477C29.5916 19.5877 29.6715 20.1577 29.7388 20.6777C29.8646 21.6577 29.2325 22.6378 28.2691 22.8478C20.1904 24.6178 12.3461 24.0578 4.7292 22.8778C4.0634 22.7778 3.50177 22.3078 3.44808 21.6278Z" fill="#FF99E0"/>
<path fill-rule="evenodd" clip-rule="evenodd" d="M13.0161 18.478C13.0161 19.0034 12.9615 19.8877 12.8999 20.8315C12.8373 21.7911 12.7657 22.8354 12.729 23.7192L11.231 23.6567C11.2686 22.7507 11.3409 21.6842 11.4028 20.7339C11.4658 19.7683 11.5161 18.9426 11.5161 18.478H13.0161ZM21.7397 18.478C21.7398 18.9426 21.7901 19.7683 21.853 20.7339C21.915 21.6842 21.9882 22.7507 22.0259 23.6567L20.5269 23.7192C20.4901 22.8354 20.4195 21.791 20.3569 20.8315C20.2954 19.8877 20.2398 19.0034 20.2397 18.478H21.7397ZM15.8101 18.4331C15.8416 18.9537 15.8392 19.8381 15.8345 20.7827C15.8297 21.7435 15.822 22.7905 15.8384 23.6743L14.3384 23.7017C14.3216 22.7958 14.3297 21.7273 14.3345 20.7759C14.3393 19.8088 14.3398 18.9825 14.312 18.5229L15.8101 18.4331ZM18.9175 18.4331C18.949 18.9537 18.9466 19.8381 18.9419 20.7827C18.9371 21.7435 18.9295 22.7905 18.9458 23.6743L17.4458 23.7017C17.4291 22.7958 17.4371 21.7273 17.4419 20.7759C17.4467 19.8088 17.4473 18.9825 17.4194 18.5229L18.9175 18.4331ZM24.5288 18.3853C24.6254 19.1577 24.8371 21.1295 24.9126 22.9468L23.4136 23.0093C23.3403 21.2473 23.134 19.3189 23.0405 18.5708L24.5288 18.3853ZM27.4155 18.3853C27.5121 19.1577 27.7237 21.1295 27.7993 22.9468L26.3003 23.0093C26.227 21.2472 26.0208 19.3189 25.9272 18.5708L27.4155 18.3853ZM7.32861 18.4712C7.23507 19.2194 7.02882 21.1477 6.95557 22.9097L5.45654 22.8472C5.53211 21.0297 5.74376 19.057 5.84033 18.2847L7.32861 18.4712ZM10.2153 18.4712C10.1218 19.2194 9.91555 21.1477 9.84229 22.9097L8.34424 22.8472C8.41981 21.0297 8.63048 19.057 8.72705 18.2847L10.2153 18.4712Z" fill="#FFBDF2"/>
<path d="M27.6274 17.1634C28.7393 17.0256 29.9422 17.6456 30.2094 18.89V18.891C30.2704 19.1771 30.3221 19.4693 30.3666 19.7552L30.4828 20.5814V20.5824C30.6428 21.8295 29.9081 23.1095 28.6811 23.5121L28.4291 23.5804C20.2198 25.3789 12.2707 24.8039 4.6176 23.6185C3.6988 23.4804 2.78898 22.7996 2.70061 21.6878C2.63677 20.897 2.69262 20.031 2.78948 19.264C2.98737 17.6991 4.54608 16.9471 5.8842 17.2347L5.88518 17.2337C12.1816 18.5651 22.1447 17.8345 27.6274 17.1644V17.1634ZM27.8119 18.6517H27.811C22.3311 19.3215 12.1425 20.0899 5.57561 18.7015L5.5717 18.7005C4.88249 18.551 4.34023 18.9584 4.27776 19.4515C4.19896 20.0754 4.15478 20.7308 4.1801 21.3197L4.19573 21.5677V21.5687C4.2153 21.8161 4.42806 22.0741 4.84026 22.1361H4.84416C12.4238 23.3103 20.1621 23.8557 28.1088 22.1146H28.1098C28.6589 21.9946 29.075 21.4028 28.9946 20.7738C28.9443 20.3857 28.8892 19.9827 28.8188 19.5912L28.7426 19.2044C28.6704 18.8693 28.3136 18.5895 27.8119 18.6517Z" fill="#1A1A1A"/>
<path fill-rule="evenodd" clip-rule="evenodd" d="M16.0371 3.01118C16.5788 2.90456 17.105 3.25768 17.2119 3.79926C17.2997 4.24524 17.3774 4.7236 17.4385 5.23383C17.6669 4.93531 17.8744 4.64539 18.0625 4.36567C18.3707 3.90737 18.9919 3.78505 19.4502 4.09321C19.9082 4.40142 20.0297 5.02272 19.7217 5.4809C19.4069 5.94902 19.0442 6.44148 18.627 6.95063C19.0557 6.91124 19.4998 6.85871 19.959 6.78559C20.5043 6.69884 21.0167 7.07036 21.1035 7.61567C21.1903 8.161 20.8188 8.67327 20.2735 8.7602C19.7588 8.84215 19.2606 8.90123 18.7793 8.94477C19.0248 9.14133 19.2809 9.33844 19.5498 9.53364C19.9967 9.85797 20.0966 10.4832 19.7725 10.9301C19.4481 11.3771 18.822 11.4762 18.375 11.1518C18.0216 10.8953 17.6868 10.6367 17.3692 10.3774C17.3162 10.7532 17.2517 11.1386 17.1748 11.5336C17.0693 12.0757 16.5441 12.4301 16.002 12.3247C15.4604 12.2188 15.1066 11.6936 15.2119 11.1518C15.2834 10.7844 15.3429 10.4267 15.3916 10.0786C15.0255 10.3613 14.6388 10.6447 14.2266 10.9223C13.7687 11.2307 13.1475 11.1095 12.8389 10.6518C12.5304 10.1938 12.6514 9.57266 13.1094 9.26411C13.3462 9.10463 13.5726 8.94194 13.792 8.78071C13.3507 8.70899 12.9348 8.62684 12.545 8.53754C12.007 8.41399 11.6708 7.87739 11.794 7.3393C11.9174 6.80125 12.4541 6.46519 12.9922 6.58833C13.2854 6.65547 13.5956 6.71708 13.9219 6.77387C13.6033 6.34109 13.3217 5.9214 13.0723 5.51997C12.7813 5.05089 12.9256 4.43433 13.3946 4.14301C13.8636 3.85203 14.4801 3.99646 14.7715 4.46528C14.9734 4.79028 15.1988 5.12993 15.4522 5.47993C15.3971 5.01858 15.328 4.58711 15.2491 4.18598C15.1427 3.64446 15.4958 3.11814 16.0371 3.01118Z" fill="#80CAFF"/>
</svg>
