<svg width="48" height="55" viewBox="0 0 48 55" fill="none" xmlns="http://www.w3.org/2000/svg">
<path d="M5.68351 22.717C10.0249 24.063 13.5862 23.739 15.4305 23.739C17.2124 23.739 22.557 22.956 24.6842 21.801C24.9994 21.63 25.1366 21.267 25.058 20.917C23.8716 15.636 18.396 11.95 14.3072 12.35C10.5384 12.718 5.3958 15.611 5.02605 21.781C5.00053 22.207 5.27596 22.591 5.68351 22.717Z" fill="#4D49FC" stroke="#385ED9" stroke-width="1.5" stroke-linecap="round"/>
<path d="M5.70318 22.7938C8.48774 23.6508 9.19467 23.6318 10.9377 23.6318C11.3866 18.8588 11.9842 16.1018 14.4503 12.3198C10.8104 12.6598 5.45613 16.1178 5.03175 21.8438C4.99959 22.2768 5.28742 22.6658 5.70318 22.7938Z" fill="#F24822"/>
<path d="M24.6749 21.5348C22.8958 22.5968 20.8358 23.1658 18.7681 23.1658C18.1933 18.7468 17.2251 16.2828 14.75 12.3198C18.3802 12.6738 24.2264 16.6108 25.0863 20.6328C25.1626 20.9898 24.9885 21.3468 24.6749 21.5348Z" fill="#FFCD29"/>
<path d="M14.2412 11.2797C16.5387 11.0556 19.1924 12.0757 21.3916 13.7739C23.6032 15.4817 25.4701 17.9621 26.1201 20.8217C26.264 21.455 26.0223 22.1765 25.375 22.5297L25.374 22.5307L25.1406 22.6508C23.9239 23.2464 22.0083 23.7434 20.2246 24.0961C18.3084 24.4751 16.3969 24.7153 15.4307 24.7153C13.6976 24.7153 10.1683 25.0263 5.87893 23.7846L5.46194 23.6596H5.46096C4.73767 23.4342 4.23089 22.7472 4.27737 21.9633C4.67261 15.3138 10.1817 11.6772 14.2412 11.2797ZM14.3877 12.7729C10.9085 13.1135 6.11731 16.2838 5.77444 22.0522C5.77049 22.1196 5.81424 22.1978 5.90432 22.227H5.9053C10.111 23.53 13.5311 23.2153 15.4307 23.2153C16.2482 23.2153 18.0452 22.998 19.9336 22.6245C21.8344 22.2485 23.6811 21.7418 24.6553 21.2133L24.6563 21.2124C24.6593 21.2049 24.6642 21.1842 24.6573 21.1538C24.101 18.7068 22.4761 16.507 20.4746 14.9614C18.4606 13.4062 16.1794 12.5983 14.3877 12.7729Z" fill="#1A1A1A"/>
<path d="M14.8838 13.0396C12.8812 15.6206 11.7656 18.9664 11.4082 23.3159L10.4121 23.2339C10.7798 18.7596 11.9361 15.2071 14.0938 12.4263L14.8838 13.0396Z" fill="#BD2915"/>
<path d="M14.8843 12.166C17.0195 14.918 18.7119 18.7988 19.2192 22.8838L18.2271 23.0068C17.7419 19.1002 16.1182 15.3891 14.0933 12.7793L14.8843 12.166Z" fill="#EBA611"/>
<path fill-rule="evenodd" clip-rule="evenodd" d="M17.903 6.3208C18.028 6.3208 18.1359 6.35153 18.1745 6.36279C18.2339 6.38011 18.2948 6.40211 18.3532 6.42725C18.4644 6.47514 18.6136 6.55351 18.7497 6.66943C18.8692 6.7713 19.0962 7.00337 19.1228 7.36865C19.1527 7.7828 18.9118 8.07429 18.7038 8.23584L18.5603 8.34131C18.2168 8.57805 17.827 8.74972 17.4773 8.88428C17.2735 8.96267 17.069 9.03379 16.8816 9.09814C16.6894 9.16412 16.519 9.22249 16.363 9.28076H16.3611L16.1003 8.57764L16.0534 8.45361L16.3611 9.28076C16.1656 9.35335 15.8745 9.46089 15.5661 9.521C15.4171 9.55001 15.2406 9.57095 15.0515 9.56689C15.1407 9.66426 15.2072 9.78446 15.2351 9.92334C15.3861 10.6788 15.364 11.4212 15.364 12.0718C15.364 12.486 15.0282 12.8218 14.614 12.8218C14.2 12.8216 13.864 12.4859 13.864 12.0718C13.864 11.3547 13.8791 10.7925 13.7644 10.2183C13.7416 10.104 13.7489 9.99109 13.7761 9.88525H11.0896C10.8766 9.88521 10.4848 9.83947 10.1374 9.7749C9.95781 9.7415 9.76424 9.69905 9.5925 9.646C9.50679 9.61949 9.41304 9.58637 9.32395 9.54541C9.24472 9.50896 9.11956 9.44369 9.00657 9.33643H9.00559C8.8336 9.17271 8.7737 8.97537 8.75657 8.83447C8.74055 8.70235 8.75712 8.58971 8.77121 8.52197C8.79886 8.38937 8.85101 8.26596 8.87864 8.20166C8.91929 8.10704 8.93048 8.08614 8.94992 8.03857C9.00482 7.68181 9.28317 7.50984 9.36399 7.46631C9.48126 7.40329 9.59683 7.37615 9.65891 7.36377C9.7965 7.33639 9.95401 7.32664 10.0935 7.32275C10.3855 7.31464 10.7598 7.32959 11.1267 7.354C11.4978 7.37871 11.8822 7.41437 12.1999 7.45264C12.4809 7.48649 12.8012 7.53228 12.9812 7.59229C13.2322 7.67611 13.4442 7.80189 13.5984 7.89795C13.7757 8.00848 13.8645 8.06945 13.9685 8.12158C13.9884 8.13158 14.0075 8.14328 14.0261 8.15479C14.0837 8.07266 14.1444 7.999 14.2038 7.93506C14.4061 7.71734 14.6541 7.53449 14.8864 7.38818C15.3503 7.09617 15.8679 6.87925 16.1736 6.78076H16.1745C16.2834 6.74591 16.3908 6.70516 16.5095 6.65869C16.6222 6.61458 16.7582 6.55982 16.8923 6.51221C17.1716 6.4131 17.5046 6.32092 17.903 6.3208Z" fill="#444444"/>
</svg>
