<svg width="48" height="55" viewBox="0 0 48 55" fill="none" xmlns="http://www.w3.org/2000/svg">
<path d="M23.2843 10.3833V10.2393C23.2871 9.74132 23.3311 9.34529 23.4164 9.05029C23.5044 8.75429 23.6323 8.51632 23.7999 8.33432C23.9675 8.15232 24.1692 7.98729 24.405 7.83929C24.5811 7.72629 24.7388 7.6083 24.878 7.4863C25.0172 7.3643 25.128 7.2293 25.2104 7.0813C25.2928 6.9303 25.334 6.76331 25.334 6.57831C25.334 6.38231 25.2871 6.21032 25.1933 6.06232C25.0996 5.91532 24.9732 5.80129 24.8141 5.72229C24.6578 5.64229 24.4845 5.60229 24.2942 5.60229C24.1095 5.60229 23.9348 5.64332 23.7701 5.72632C23.6053 5.80532 23.4703 5.92532 23.3652 6.08432C23.2601 6.24032 23.2033 6.4353 23.1948 6.6683H21.4561C21.4703 6.0993 21.6067 5.63129 21.8652 5.26129C22.1237 4.88929 22.4661 4.6123 22.8922 4.4303C23.3183 4.2463 23.7885 4.15332 24.3027 4.15332C24.8681 4.15332 25.3681 4.2473 25.8027 4.4353C26.2374 4.6193 26.5783 4.8883 26.8255 5.2403C27.0726 5.5923 27.1962 6.01731 27.1962 6.51431C27.1962 6.84731 27.1408 7.1423 27.03 7.4003C26.922 7.6563 26.7701 7.88331 26.574 8.08231C26.378 8.27831 26.1465 8.4563 25.8794 8.6153C25.655 8.7483 25.4703 8.88829 25.3255 9.03329C25.1834 9.17729 25.0769 9.34531 25.0058 9.53531C24.9377 9.72631 24.9022 9.96032 24.8993 10.2393V10.3833H23.2843ZM24.128 13.1113C23.8439 13.1113 23.601 13.0113 23.3993 12.8123C23.2005 12.6113 23.1024 12.3693 23.1053 12.0883C23.1024 11.8103 23.2005 11.5713 23.3993 11.3723C23.601 11.1733 23.8439 11.0743 24.128 11.0743C24.3979 11.0743 24.6351 11.1733 24.8397 11.3723C25.0442 11.5713 25.1479 11.8103 25.1507 12.0883C25.1479 12.2753 25.0982 12.4473 25.0016 12.6043C24.9078 12.7573 24.7843 12.8813 24.6308 12.9743C24.4774 13.0653 24.3098 13.1113 24.128 13.1113Z" fill="white"/>
<path d="M24.1279 11.0743C23.8439 11.0743 23.6011 11.1733 23.3994 11.3723C23.2006 11.5713 23.1027 11.8103 23.1054 12.0883C23.1026 12.3693 23.2005 12.6113 23.3994 12.8123C23.5759 12.9863 23.7838 13.0853 24.0234 13.1063L24.1279 13.1103C24.2641 13.1103 24.3924 13.0853 24.5127 13.0343L24.6308 12.9753C24.7842 12.8813 24.9072 12.7573 25.001 12.6043C25.0734 12.4863 25.1199 12.3603 25.1396 12.2263L25.1504 12.0883C25.1475 11.8103 25.0442 11.5713 24.8398 11.3723C24.6353 11.1733 24.3978 11.0743 24.1279 11.0743ZM25.3262 6.71429C25.3107 6.84629 25.2717 6.9683 25.2099 7.0813L25.1435 7.1893C25.0711 7.2953 24.9822 7.39429 24.8779 7.48529C24.7387 7.60729 24.5813 7.7263 24.4053 7.8403C24.1695 7.9883 23.9674 8.15232 23.7998 8.33432C23.6322 8.51632 23.5041 8.75429 23.416 9.05029C23.3308 9.34529 23.287 9.74131 23.2842 10.2383V10.3843H24.8994V10.2383C24.9023 9.96031 24.9377 9.72531 25.0058 9.53531C25.0769 9.34531 25.1832 9.17732 25.3252 9.03232C25.4339 8.92432 25.5652 8.81831 25.7187 8.71631L25.8789 8.6153C26.0792 8.4963 26.2596 8.36632 26.4199 8.22632L26.5742 8.08231C26.7701 7.88331 26.9224 7.6563 27.0303 7.4003C27.1132 7.2073 27.1647 6.99229 27.1855 6.75729L27.1963 6.51532C27.1963 6.08032 27.1012 5.70031 26.9121 5.37631L26.8252 5.2403C26.6089 4.9323 26.3208 4.6883 25.9609 4.5083L25.8027 4.4353C25.3681 4.2473 24.868 4.15332 24.3027 4.15332C23.7885 4.15332 23.3177 4.2463 22.8916 4.4313L22.7363 4.5033C22.3817 4.6833 22.0915 4.9363 21.8652 5.2623C21.6068 5.6313 21.4702 6.1003 21.456 6.6683H23.1943L23.2099 6.50031C23.2263 6.39331 23.2544 6.29631 23.2949 6.20831L23.3652 6.08432C23.4441 5.96532 23.5398 5.8683 23.6523 5.7933L23.7695 5.72632C23.9343 5.64332 24.1093 5.6033 24.2939 5.6033C24.4841 5.6033 24.6573 5.64229 24.8135 5.72229L24.9267 5.7883C25.0338 5.8613 25.123 5.95232 25.1933 6.06232C25.2871 6.21032 25.334 6.38231 25.334 6.57831L25.3262 6.71429ZM28.6963 6.51532C28.6962 7.01132 28.6118 7.51031 28.4101 7.98331L28.4121 7.98431C28.2298 8.41631 27.971 8.80329 27.6426 9.13629L27.6347 9.14432L27.6338 9.14331C27.3401 9.43631 27.0075 9.68832 26.6465 9.90332C26.5288 9.97332 26.4553 10.0323 26.4121 10.0703C26.4117 10.0733 26.4116 10.0763 26.4111 10.0793C26.4055 10.1163 26.4002 10.1733 26.3994 10.2543V10.3843C26.3994 10.5493 26.3709 10.7083 26.3213 10.8573C26.5301 11.2203 26.6459 11.6323 26.6504 12.0733V12.1103C26.6435 12.5633 26.5194 13.0013 26.2773 13.3933L26.2763 13.3923C26.0863 13.7013 25.8398 13.9633 25.5439 14.1693L25.4131 14.2543C25.4073 14.2573 25.4013 14.2613 25.3955 14.2653C25.0059 14.4963 24.5732 14.6103 24.1279 14.6103C23.5355 14.6103 22.9852 14.4173 22.5332 14.0493L22.3457 13.8813L22.331 13.8653C21.861 13.3883 21.6071 12.7753 21.6064 12.1033L21.6054 12.1043V12.0733C21.6059 11.6613 21.7026 11.2723 21.8857 10.9243C21.8209 10.7563 21.7842 10.5743 21.7842 10.3843V10.2303L21.7959 9.81232C21.8173 9.39732 21.87 8.99631 21.9746 8.63431L21.9785 8.62131L22.0342 8.4483C22.0671 8.3543 22.1054 8.2613 22.1465 8.1683H21.456C21.0517 8.1683 20.6641 8.0043 20.3818 7.7153C20.0996 7.4253 19.9459 7.03431 19.956 6.63031L19.9717 6.3363C20.0282 5.6523 20.2273 4.98531 20.6357 4.40131C21.0571 3.79631 21.6213 3.34329 22.2959 3.05429L22.5351 2.95831C23.0986 2.75031 23.6926 2.65332 24.3027 2.65332C25.03 2.65332 25.7352 2.77429 26.3877 3.05429H26.3887C27.0554 3.33729 27.629 3.7753 28.0527 4.3793L28.2099 4.6243C28.5486 5.2063 28.6963 5.85332 28.6963 6.51532Z" fill="#1A1A1A"/>
</svg>
