<svg width="48" height="55" viewBox="0 0 48 55" fill="none" xmlns="http://www.w3.org/2000/svg">
<path d="M4.97485 20.7004C10.0935 22.3504 14.2988 21.9604 16.464 21.9604C18.5708 21.9604 24.97 21.0004 27.3367 19.6004C27.6115 19.4404 27.7325 19.1104 27.6681 18.8004C26.368 12.4904 19.9458 8.06044 15.1609 8.54044C10.7482 8.97044 4.71241 12.4404 4.38315 19.8604C4.36618 20.2404 4.61098 20.5804 4.97485 20.7004Z" fill="#E24C0C"/>
<path d="M16.0566 7.77979C18.9756 8.6146 22.4801 12.1596 23.2227 18.7466L21.7324 18.9146C21.1229 13.5081 18.5716 10.6021 16.4785 9.55225C16.3723 12.0841 16.3322 16.4288 16.7979 18.9546L15.3232 19.2261C14.8376 16.5918 14.8705 12.2536 14.9727 9.6665C12.683 10.8252 9.72168 13.7692 9.72168 18.6606H8.22168C8.22168 12.1576 12.8298 8.59452 15.6445 7.78955L15.8486 8.50537L16.0566 7.77979Z" fill="#AA370D"/>
<path d="M15.0866 7.79374C17.7222 7.52948 20.7103 8.61356 23.1813 10.531C25.663 12.4569 27.7105 15.2888 28.403 18.6473L28.4215 18.7576C28.4943 19.3083 28.2708 19.9204 27.7174 20.2449L27.7184 20.2459C26.4103 21.0195 24.1001 21.6275 21.945 22.0418C19.7666 22.4605 17.5868 22.7097 16.4645 22.7098C14.3553 22.7098 10.0035 23.109 4.74476 21.4139L4.73987 21.4129C4.07242 21.1927 3.60182 20.5586 3.63441 19.8269C3.98519 11.9219 10.4275 8.24952 15.0866 7.79471V7.79374ZM22.2614 11.7166C20.0001 9.96183 17.3851 9.07132 15.236 9.2869H15.234C11.0678 9.69288 5.44018 12.9595 5.13245 19.8933C5.13122 19.921 5.14919 19.9657 5.20667 19.9861C10.1846 21.5904 14.2435 21.2098 16.4645 21.2098C17.4492 21.2097 19.5226 20.9803 21.6617 20.5691C23.8106 20.1561 25.8696 19.5872 26.9342 18.9656C26.9342 18.9616 26.9351 18.9573 26.9342 18.9529L26.9332 18.9519C26.3252 16.0011 24.5116 13.4629 22.2614 11.7166Z" fill="#1A1A1A"/>
<path d="M3.02474 21.6503C2.9666 20.9303 3.01728 20.1203 3.11075 19.3803C3.241 18.3503 4.29278 17.7702 5.30703 17.9902C11.739 19.3502 21.8157 18.6003 27.2968 17.9303C28.1038 17.8303 28.8836 18.2802 29.0531 19.0702C29.1683 19.6102 29.2482 20.1802 29.3155 20.7002C29.4413 21.6802 28.8092 22.6602 27.8458 22.8702C19.7671 24.6402 11.9228 24.0803 4.30586 22.9003C3.64006 22.8003 3.07843 22.3303 3.02474 21.6503Z" fill="#E24C0C"/>
<path fill-rule="evenodd" clip-rule="evenodd" d="M12.5928 18.5005C12.5928 19.0258 12.5381 19.9101 12.4766 20.854C12.414 21.8135 12.3424 22.8579 12.3057 23.7417L10.8076 23.6792C10.8453 22.7732 10.9175 21.7067 10.9795 20.7563C11.0425 19.7908 11.0928 18.9651 11.0928 18.5005H12.5928ZM21.3164 18.5005C21.3164 18.9651 21.3667 19.7908 21.4297 20.7563C21.4917 21.7067 21.5649 22.7732 21.6025 23.6792L20.1035 23.7417C20.0668 22.8579 19.9962 21.8135 19.9336 20.854C19.872 19.9101 19.8164 19.0259 19.8164 18.5005H21.3164ZM15.3867 18.4556C15.4182 18.9762 15.4159 19.8606 15.4111 20.8052C15.4063 21.7659 15.3987 22.813 15.415 23.6968L13.915 23.7241C13.8983 22.8183 13.9064 21.7498 13.9111 20.7983C13.916 19.8312 13.9165 19.0049 13.8887 18.5454L15.3867 18.4556ZM18.4932 18.4556C18.5247 18.9762 18.5223 19.8605 18.5176 20.8052C18.5128 21.7659 18.5051 22.813 18.5215 23.6968L17.0215 23.7241C17.0047 22.8183 17.0128 21.7498 17.0176 20.7983C17.0224 19.8312 17.023 19.0049 16.9951 18.5454L18.4932 18.4556ZM24.1055 18.4077C24.202 19.1802 24.4137 21.1519 24.4893 22.9692L22.9902 23.0317C22.917 21.2697 22.7107 19.3414 22.6172 18.5933L24.1055 18.4077ZM26.9922 18.4077C27.0887 19.1802 27.3003 21.152 27.376 22.9692L25.877 23.0317C25.8036 21.2697 25.5974 19.3414 25.5039 18.5933L26.9922 18.4077ZM6.90527 18.4937C6.81173 19.2418 6.60548 21.1702 6.53223 22.9321L5.0332 22.8696C5.10877 21.0522 5.32042 19.0795 5.41699 18.3071L6.90527 18.4937ZM9.79199 18.4937C9.69844 19.2419 9.49221 21.1702 9.41895 22.9321L7.9209 22.8696C7.99647 21.0522 8.20714 19.0795 8.30371 18.3071L9.79199 18.4937Z" fill="#AA370D"/>
<path d="M27.204 17.1859C28.316 17.0481 29.5189 17.6681 29.7861 18.9124V18.9134C29.8471 19.1995 29.8988 19.4918 29.9433 19.7777L30.0595 20.6039V20.6048C30.2195 21.852 29.4848 23.132 28.2577 23.5345L28.0058 23.6029C19.7965 25.4014 11.8473 24.8264 4.19426 23.641C3.27546 23.5029 2.36564 22.822 2.27727 21.7103C2.21343 20.9195 2.26928 20.0535 2.36614 19.2865C2.56403 17.7215 4.12274 16.9696 5.46086 17.2572L5.46184 17.2562C11.7582 18.5875 21.7214 17.8569 27.204 17.1869V17.1859ZM27.3886 18.6742H27.3876C21.9078 19.344 11.7191 20.1124 5.15227 18.724L5.14836 18.723C4.45915 18.5735 3.91689 18.9809 3.85442 19.474C3.77562 20.0979 3.73144 20.7532 3.75676 21.3421L3.77239 21.5902V21.5912C3.79196 21.8386 4.00472 22.0965 4.41692 22.1585H4.42082C12.0005 23.3328 19.7388 23.8781 27.6855 22.1371H27.6864C28.2356 22.0171 28.6516 21.4253 28.5712 20.7962C28.521 20.4082 28.4658 20.0051 28.3954 19.6136L28.3193 19.2269C28.247 18.8917 27.8903 18.612 27.3886 18.6742Z" fill="#1A1A1A"/>
</svg>
