<svg width="48" height="55" viewBox="0 0 48 55" fill="none" xmlns="http://www.w3.org/2000/svg">
<path d="M23 30.5C25.8 30.1 26.5 27 26.5 25.5C26.5 27.9 28.9716 29.5 30.2074 30C27.5733 30.4 27.3049 33.167 27.5 34.5C27.2271 32.635 24.6667 31 23 30.5Z" fill="#FFE8A3"/>
<path d="M25.7501 25.5C25.7501 25.0858 26.0859 24.75 26.5001 24.75C26.9143 24.75 27.2501 25.0858 27.2501 25.5C27.2501 26.4271 27.7263 27.2466 28.4171 27.9287C29.1082 28.6109 29.9471 29.0856 30.4884 29.3047C30.8016 29.4314 30.9917 29.7524 30.9523 30.0879C30.9127 30.4231 30.6541 30.6904 30.3204 30.7412L30.1359 30.7754C29.2443 30.968 28.7593 31.5182 28.4865 32.1846C28.2172 32.8424 28.1679 33.6001 28.216 34.1631L28.2423 34.3916L28.2492 34.4678C28.266 34.8476 27.9928 35.186 27.6085 35.2422C27.1988 35.302 26.8179 35.0182 26.7579 34.6084C26.6628 33.9586 26.1355 33.2372 25.3048 32.5742C24.4946 31.9276 23.5227 31.4403 22.7843 31.2188C22.4473 31.1176 22.226 30.7952 22.2521 30.4443C22.2784 30.0934 22.5453 29.8078 22.8937 29.7578C23.9897 29.6012 24.6868 28.9295 25.1339 28.0674C25.5915 27.1849 25.7501 26.1592 25.7501 25.5ZM26.7042 28.2373C26.6328 28.4123 26.5546 28.5869 26.466 28.7578C26.1195 29.4259 25.6232 30.0641 24.9415 30.5342C25.3876 30.7843 25.8315 31.076 26.2404 31.4023C26.4832 31.5962 26.7233 31.8087 26.9484 32.0391C26.9917 31.8971 27.0416 31.7558 27.0988 31.6162C27.3683 30.9581 27.804 30.3368 28.4542 29.8887C28.086 29.6361 27.7107 29.339 27.3634 28.9961C27.1322 28.7678 26.9084 28.5143 26.7042 28.2373Z" fill="#FFC21A"/>
<path d="M31 25C33 24 33.1667 21.833 33 20.5C33.4 22.9 35.1667 24.5 36 25C34.5 26 34.2144 27 33.8216 28C33 26.5 31.8811 25.667 31 25Z" fill="#FFE8A3"/>
<path d="M32.8919 19.7579C33.2958 19.699 33.6734 19.9744 33.7405 20.3771C34.0934 22.4937 35.6747 23.9297 36.386 24.3566C36.6065 24.4888 36.7441 24.7255 36.7503 24.9825C36.7563 25.2395 36.6301 25.4816 36.4163 25.6241C35.7515 26.0673 35.3824 26.4904 35.134 26.8937C34.8711 27.3206 34.7318 27.7348 34.5198 28.2745C34.4133 28.5453 34.1598 28.7297 33.8694 28.7482C33.6153 28.7643 33.3732 28.6509 33.2229 28.4513L33.1643 28.3605L33.0227 28.1154C32.3029 26.9223 31.3743 26.2239 30.5471 25.5978C30.3406 25.4412 30.2293 25.1888 30.2532 24.9308C30.2771 24.6727 30.4334 24.4452 30.6653 24.3292C32.2117 23.5558 32.4135 21.8513 32.2561 20.5929C32.2056 20.188 32.4881 19.8169 32.8919 19.7579ZM33.4016 23.4445C33.1676 24.0216 32.809 24.5766 32.2737 25.0441C32.7278 25.4184 33.2142 25.8676 33.6721 26.4357C33.7292 26.3264 33.7904 26.2159 33.8577 26.1066C34.0875 25.7335 34.3779 25.3674 34.7678 25.0099C34.3231 24.6176 33.8351 24.0913 33.4016 23.4445Z" fill="#FFC21A"/>
<path d="M25 19C26.7833 18.2 27.257 16.333 27.2709 15.5C27.6709 17.1 28.7709 18.167 29.2709 18.5C28.0709 19.3 27.7709 20.833 27.7709 21.5C27.3709 20.3 25.757 19.333 25 19Z" fill="#FFE8A3"/>
<path d="M27.1856 14.7549C27.5595 14.7121 27.9068 14.9533 27.9981 15.3184C28.3004 16.5277 29.0763 17.3853 29.5195 17.75L29.6865 17.876L29.7607 17.9327C29.9246 18.074 30.0205 18.2806 30.0205 18.5C30.0205 18.7508 29.8952 18.985 29.6865 19.1241C29.2494 19.4156 28.9547 19.856 28.7676 20.3272C28.5791 20.8021 28.5205 21.2576 28.5205 21.5C28.5205 21.8679 28.2537 22.1813 27.8906 22.2403C27.573 22.2916 27.2635 22.1351 27.1133 21.8614L27.0596 21.7373L26.999 21.5879C26.8342 21.2373 26.4982 20.8651 26.0537 20.5137C25.5614 20.1244 25.0254 19.8305 24.6982 19.6866C24.427 19.5672 24.2512 19.2993 24.25 19.003C24.2489 18.7065 24.4229 18.4368 24.6934 18.3155C26.1024 17.6831 26.5101 16.171 26.5215 15.4873L26.5361 15.3496C26.5999 15.037 26.8584 14.7924 27.1856 14.7549ZM27.4385 17.6534C27.2016 18.106 26.8788 18.5557 26.4434 18.9463C26.623 19.0652 26.8058 19.1957 26.9844 19.3369C27.1236 19.447 27.2658 19.5675 27.4053 19.6983C27.5708 19.301 27.806 18.8846 28.1357 18.5088C27.907 18.2738 27.6665 17.9872 27.4385 17.6534Z" fill="#FFC21A"/>
</svg>
