<svg width="48" height="55" viewBox="0 0 48 55" fill="none" xmlns="http://www.w3.org/2000/svg">
<path fill-rule="evenodd" clip-rule="evenodd" d="M12.8061 15.5461C7.05922 15.5201 3.36431 12.1851 1.59121 9.47108C1.04262 8.63208 1.39739 7.53505 2.29112 7.08005C10.1839 3.06005 13.9965 7.15707 15.5001 11.5391C17.0037 7.15707 20.8163 3.06005 28.7091 7.08005C29.6028 7.53505 29.9576 8.63208 29.409 9.47108C27.4724 12.4351 23.2431 16.1401 16.5515 15.4651L16.719 20.3421C16.7484 21.1991 16.0619 21.9091 15.2047 21.9091C14.4699 21.9091 13.841 21.3821 13.7127 20.6591L12.8061 15.5461Z" fill="#14AE5C"/>
<path d="M12.8059 15.5463L13.5444 15.4153C13.4811 15.0583 13.1717 14.7973 12.8093 14.7963L12.8059 15.5463ZM15.4999 11.5393L14.7905 11.7833C14.8945 12.0863 15.1795 12.2893 15.4999 12.2893C15.8203 12.2893 16.1053 12.0863 16.2093 11.7833L15.4999 11.5393ZM16.5513 15.4653L16.6266 14.7193C16.4112 14.6973 16.1969 14.7703 16.0389 14.9183C15.8808 15.0663 15.7944 15.2753 15.8018 15.4913L16.5513 15.4653ZM12.8093 14.7963C7.3834 14.7713 3.89668 11.6293 2.21886 9.06128L0.963117 9.88129C2.8315 12.7413 6.7346 16.2693 12.8026 16.2963L12.8093 14.7963ZM2.21886 9.06128C1.94102 8.63628 2.09017 8.02426 2.63128 7.74826L1.95052 6.41226C0.704161 7.04626 0.143784 8.62729 0.963117 9.88129L2.21886 9.06128ZM2.63128 7.74826C6.44296 5.80726 9.10758 5.90128 10.9545 6.82928C12.8361 7.77528 14.0708 9.68526 14.7905 11.7833L16.2093 11.2963C15.4254 9.01126 14.002 6.68229 11.6282 5.48929C9.21972 4.27829 6.03164 4.33326 1.95052 6.41226L2.63128 7.74826ZM29.0493 6.41226C24.9681 4.33326 21.7801 4.27829 19.3716 5.48929C16.9978 6.68229 15.5744 9.01126 14.7905 11.2963L16.2093 11.7833C16.9289 9.68526 18.1637 7.77528 20.0453 6.82928C21.8922 5.90128 24.5568 5.80726 28.3685 7.74826L29.0493 6.41226ZM30.0367 9.88129C30.856 8.62729 30.2956 7.04626 29.0493 6.41226L28.3685 7.74826C28.9096 8.02426 29.0588 8.63628 28.7809 9.06128L30.0367 9.88129ZM16.4761 16.2113C23.5236 16.9233 27.9945 13.0073 30.0367 9.88129L28.7809 9.06128C26.9498 11.8643 22.9621 15.3583 16.6266 14.7193L16.4761 16.2113ZM17.4684 20.3163L17.3009 15.4393L15.8018 15.4913L15.9692 20.3683L17.4684 20.3163ZM15.2045 22.6593C16.486 22.6593 17.5123 21.5973 17.4684 20.3163L15.9692 20.3683C15.9841 20.8003 15.6374 21.1593 15.2045 21.1593V22.6593ZM12.9741 20.7893C13.1659 21.8713 14.106 22.6593 15.2045 22.6593V21.1593C14.8334 21.1593 14.5158 20.8933 14.451 20.5283L12.9741 20.7893ZM12.0674 15.6773L12.9741 20.7893L14.451 20.5283L13.5444 15.4153L12.0674 15.6773Z" fill="#1A1A1A"/>
<path d="M18.4779 11.6363C20.6361 10.1013 23.0516 9.06727 24.929 8.45227C25.4442 8.28327 25.4081 7.54527 24.866 7.53927C21.3419 7.49727 19.0711 9.35928 17.8511 11.1263C17.557 11.5523 18.0561 11.9363 18.4779 11.6363Z" fill="#036838"/>
<path d="M11.5215 11.6363C9.3633 10.1013 6.94786 9.06627 5.07045 8.45227C4.55527 8.28327 4.59134 7.54527 5.13339 7.53927C8.65754 7.49727 10.9283 9.35928 12.1483 11.1263C12.4424 11.5523 11.9433 11.9363 11.5215 11.6363Z" fill="#036838"/>
</svg>
