<svg width="48" height="55" viewBox="0 0 48 55" fill="none" xmlns="http://www.w3.org/2000/svg">
<path d="M25.9862 31.75C28.065 31.75 29.7502 30.065 29.7502 27.986C29.7502 27.224 29.7492 26.562 29.4722 25.307C29.202 24.083 28.6693 22.291 27.6264 19.236C27.091 17.668 24.8807 17.665 24.3434 19.234C23.3017 22.277 22.7696 24.07 22.4998 25.298C22.2233 26.556 22.2222 27.225 22.2222 27.986C22.2222 30.065 23.9074 31.75 25.9862 31.75Z" fill="#007BE5"/>
<path d="M21.4722 27.9863C21.4722 27.1996 21.4741 26.4695 21.7671 25.1367C22.0466 23.8645 22.5913 22.0378 23.6343 18.9912C24.4036 16.7446 27.5703 16.7503 28.3364 18.9931L26.9165 19.4785C26.6117 18.5858 25.3587 18.5857 25.0532 19.4765C24.0128 22.5157 23.492 24.2752 23.2319 25.4589C22.9719 26.642 22.9722 27.251 22.9722 27.9863C22.9724 29.6508 24.3215 30.9998 25.9858 31C27.6503 31 29.0003 29.6509 29.0005 27.9863C29.0005 27.2503 29.0002 26.6486 28.7397 25.4687C28.4792 24.2885 27.9582 22.5301 26.9165 19.4785L28.3364 18.9931C29.3803 22.0511 29.9248 23.8778 30.2046 25.1455C30.4981 26.4754 30.5005 27.1984 30.5005 27.9863C30.5003 30.4794 28.4787 32.5 25.9858 32.5C23.4931 32.4998 21.4724 30.4792 21.4722 27.9863Z" fill="#1A1A1A"/>
<path fill-rule="evenodd" clip-rule="evenodd" d="M27.7994 23.2275C28.6398 26.261 28.6095 27.9739 28.3111 28.8369C27.7994 30.3179 24.8248 30.9836 24.8248 29.8076C24.8253 28.7834 26.704 29.7156 27.3248 28.708C28.0687 27.5011 27.8908 26.3122 27.7994 23.2275ZM25.5103 19.6182C25.8213 19.723 25.0227 25.6386 24.1773 25.5127C23.6595 25.4357 25.1438 19.6182 25.5103 19.6182Z" fill="#BDE3FF"/>
</svg>
