<svg width="48" height="55" viewBox="0 0 48 55" fill="none" xmlns="http://www.w3.org/2000/svg">
<path d="M2.47693 19.2303C2.74046 16.4303 9.19351 14.7503 16.89 15.4703C24.5866 16.2003 30.6126 19.0603 30.349 21.8603C30.0852 24.6603 23.6322 26.3403 15.9359 25.6103C10.7996 25.1303 6.40855 23.7003 4.13318 21.9603L5.05896 20.7203L2.88025 20.6704C2.57581 20.2004 2.43162 19.7203 2.47693 19.2303Z" fill="#383838"/>
<path d="M2.4764 19.2296C2.7322 16.5173 8.7969 14.8559 16.1727 15.4093L16.8905 15.4699C24.5864 16.1999 30.6122 19.0597 30.3494 21.8595L28.8553 21.7199C28.8648 21.6097 28.8401 21.32 28.3592 20.8205C27.8821 20.3205 27.0877 19.7804 25.9618 19.2404C23.7217 18.1804 20.4705 17.3199 16.7498 16.9699C13.0291 16.6199 9.67407 16.8607 7.27523 17.4806C6.06946 17.8006 5.18593 18.19 4.62484 18.59C4.2619 18.8464 4.09876 19.0535 4.0262 19.1955L5.0887 19.2199L5.99495 19.2404L6.81331 20.8703L6.29964 21.5597C8.4944 22.7295 11.9668 23.735 16.077 24.1203C19.7976 24.4702 23.1528 24.2305 25.5516 23.6105C26.7573 23.2905 27.6399 22.9001 28.201 22.5001C28.7672 22.1002 28.8458 21.8199 28.8553 21.7199L30.3494 21.8595C30.0933 24.5718 24.0295 26.2334 16.6541 25.671L15.9364 25.6105C10.8002 25.1305 6.40905 23.7 4.13363 21.9601L5.05941 20.7199L2.8807 20.6701C2.57626 20.2001 2.43109 19.7196 2.4764 19.2296Z" fill="#1A1A1A"/>
<path d="M24.7192 21.5601C17.5801 22.8601 10.7929 20.95 8.27552 19.63C7.91516 19.44 7.83557 18.98 8.06614 18.65L12.2256 12.59L16.735 6.03004C16.7776 5.96004 16.8337 5.91002 16.899 5.88002L22.7757 2.52003C23.0295 2.37003 23.3531 2.47001 23.4768 2.74001L25.9998 8.14003L22.7117 6.40004C22.4989 6.29004 22.2361 6.35005 22.0865 6.54005L20.2564 8.83998C20.1753 8.93998 20.1373 9.06997 20.1506 9.19997L20.6571 14.1701C20.6662 14.2601 20.6989 14.34 20.7518 14.41L25.1618 20.41C25.4817 20.84 25.2501 21.4601 24.7192 21.5601Z" fill="#383838"/>
<path d="M22.8728 18.0201C18.1163 18.9001 12.4986 17.4402 10.1327 16.5502C10.0519 16.5102 9.96285 16.5401 9.90797 16.6101L7.88212 19.0602C7.80177 19.1602 7.83082 19.3101 7.94228 19.3701L10.9737 20.9901C10.9911 21.0001 11.0098 21.0001 11.0291 21.0101L17.965 22.3701C17.9881 22.3801 18.0118 22.3801 18.0351 22.3801L24.9479 21.2801C25.0939 21.2601 25.1652 21.0901 25.0803 20.9701L23.0743 18.1101C23.0291 18.0401 22.9504 18.0101 22.8728 18.0201Z" fill="#7C2BDA"/>
<path d="M22.3942 1.87553C23.0285 1.50068 23.8447 1.75148 24.156 2.42436L24.1569 2.42338L26.6794 7.8228C26.8157 8.11458 26.7504 8.4609 26.5173 8.68315C26.3134 8.8775 26.0212 8.93914 25.7604 8.85112L25.6511 8.80424L22.5749 7.18413L21.113 9.25346L20.8923 14.0035L25.6686 19.9185L25.7849 20.0835C26.3012 20.9316 25.8598 22.1133 24.7985 22.3081L24.6042 21.2456L24.6628 21.5708L24.7985 22.3081L24.7956 22.3091C17.7291 23.5798 11.0075 21.8041 8.1872 20.4263L7.92646 20.2945L7.92548 20.2935L8.27607 19.6304L8.42841 19.3404L7.92548 20.2935C7.11615 19.8664 6.99888 18.8758 7.44892 18.2261H7.44794L16.1169 5.606L16.1179 5.60698C16.2197 5.45183 16.3578 5.32197 16.528 5.231L16.527 5.22905L22.3942 1.87553ZM17.32 6.50346L8.72333 19.0162C11.1708 20.2603 17.6518 22.0547 24.4841 20.8394L19.6657 14.8716C19.6619 14.8669 19.6587 14.8618 19.655 14.857L20.2272 14.4175L20.2487 14.4009L19.655 14.857C19.4772 14.6255 19.375 14.3339 19.3893 14.0259L19.6188 9.11577C19.6301 8.87112 19.7101 8.64672 19.8415 8.45561L19.8464 8.4478L21.4792 6.13725C21.8509 5.60663 22.5459 5.46695 23.0895 5.7603H23.0886L24.3776 6.43901L22.9128 3.30522L17.32 6.50346ZM25.028 20.4371L24.531 20.8394L25.0856 20.3902L25.028 20.4371ZM8.06611 18.6509L8.59833 19.0152L8.01728 18.6167L8.06611 18.6509ZM22.7331 6.42045L22.5046 6.85502H22.5036H22.5046L22.7614 6.36577L22.7331 6.42045ZM22.1188 6.5894L22.4997 6.8521L22.0798 6.56206L22.1188 6.5894Z" fill="#1A1A1A"/>
</svg>
