<svg width="48" height="55" viewBox="0 0 48 55" fill="none" xmlns="http://www.w3.org/2000/svg">
<path d="M26.3063 23.8566C14.4463 25.2066 7.47229 22.6467 5.46729 21.1967L18.2763 1.78662L26.3063 23.8566Z" fill="#2F15AC"/>
<path fill-rule="evenodd" clip-rule="evenodd" d="M22.9316 21.5941C22.9993 21.5811 23.0649 21.6251 23.0781 21.6927C23.0868 21.737 23.0941 21.7843 23.1006 21.8343C23.1201 21.808 23.1385 21.7823 23.1553 21.7572C23.1935 21.6999 23.2707 21.6849 23.3281 21.723C23.3855 21.7613 23.4015 21.8384 23.3633 21.8959C23.3322 21.9424 23.2973 21.9909 23.2578 22.0404C23.2968 22.0359 23.3368 22.0298 23.3779 22.0228C23.4459 22.0112 23.5108 22.0574 23.5225 22.1254C23.5341 22.1934 23.488 22.2583 23.4199 22.2699C23.368 22.2787 23.3175 22.286 23.2685 22.2914C23.2917 22.3096 23.3159 22.3279 23.3408 22.3461C23.3964 22.3867 23.4086 22.4642 23.3682 22.5199C23.3275 22.5757 23.2491 22.5879 23.1933 22.5472C23.158 22.5215 23.124 22.4961 23.0918 22.4701C23.0864 22.5061 23.0805 22.5429 23.0732 22.5804C23.0601 22.6481 22.9944 22.692 22.9267 22.6791C22.859 22.6659 22.814 22.6003 22.8271 22.5326C22.8333 22.5011 22.8391 22.4701 22.8437 22.4398C22.8082 22.4666 22.7706 22.4934 22.7314 22.5199C22.6742 22.5585 22.5963 22.5439 22.5576 22.4867C22.519 22.4296 22.5338 22.3516 22.5908 22.3129C22.6106 22.2995 22.6307 22.2862 22.6494 22.2728C22.6075 22.2654 22.5671 22.2574 22.5293 22.2484C22.4623 22.2324 22.4208 22.165 22.4365 22.098C22.4525 22.0309 22.5198 21.9894 22.5869 22.0052C22.6115 22.0111 22.6374 22.0167 22.6641 22.0218C22.6347 21.9812 22.6089 21.9414 22.585 21.9037C22.548 21.8454 22.5648 21.7678 22.623 21.7308C22.6814 21.6939 22.759 21.7116 22.7959 21.7699C22.8128 21.7966 22.8316 21.8245 22.8516 21.8529C22.8462 21.8134 22.8399 21.7758 22.833 21.7406C22.8198 21.6728 22.8639 21.6073 22.9316 21.5941ZM9.77245 20.0394C9.84015 20.0263 9.90572 20.0703 9.91894 20.138C9.92758 20.1824 9.93496 20.2296 9.9414 20.2796C9.96092 20.2534 9.97936 20.2276 9.99608 20.2025C10.0344 20.1451 10.1125 20.1291 10.1699 20.1673C10.2273 20.2057 10.2424 20.2838 10.2041 20.3412C10.173 20.3878 10.1381 20.4362 10.0986 20.4857C10.1376 20.4812 10.1776 20.4751 10.2187 20.4681C10.2868 20.4565 10.3517 20.5026 10.3633 20.5707C10.3748 20.6387 10.3288 20.7036 10.2607 20.7152C10.2089 20.724 10.1583 20.7304 10.1094 20.7357C10.1325 20.7539 10.1568 20.7723 10.1816 20.7904C10.2374 20.8311 10.2496 20.9094 10.209 20.9652C10.1683 21.021 10.09 21.0332 10.0342 20.9925C9.99884 20.9668 9.96482 20.9404 9.93261 20.9144C9.92719 20.9505 9.92136 20.9881 9.91405 21.0257C9.90079 21.0933 9.83516 21.1374 9.76757 21.1244C9.69987 21.1112 9.65493 21.0456 9.66796 20.9779C9.67408 20.9464 9.67992 20.9154 9.68456 20.8851C9.64894 20.912 9.61153 20.9387 9.57226 20.9652C9.51509 21.0038 9.43711 20.9891 9.39843 20.932C9.35978 20.8748 9.37541 20.7968 9.43261 20.7582C9.45229 20.7449 9.47161 20.7315 9.49022 20.7181C9.44829 20.7107 9.40795 20.7017 9.37011 20.6927C9.30308 20.6767 9.26136 20.6094 9.27733 20.5423C9.29337 20.4755 9.36079 20.4339 9.42772 20.4496C9.45242 20.4555 9.47903 20.461 9.50585 20.4662C9.47653 20.4256 9.44965 20.3867 9.42577 20.349C9.38889 20.2908 9.40575 20.2131 9.46386 20.1761C9.52218 20.1392 9.59977 20.1569 9.63671 20.2152C9.6536 20.2419 9.67242 20.2698 9.69237 20.2982C9.68702 20.2588 9.68067 20.221 9.67382 20.1859C9.66059 20.1181 9.7047 20.0526 9.77245 20.0394ZM13.9248 18.7445C13.9925 18.7314 14.0581 18.7754 14.0713 18.8431C14.0799 18.8874 14.0873 18.9347 14.0937 18.9847C14.1133 18.9584 14.1317 18.9327 14.1484 18.9076C14.1867 18.8501 14.2648 18.8341 14.3223 18.8724C14.3796 18.9107 14.3947 18.9888 14.3564 19.0463C14.3254 19.0928 14.2904 19.1413 14.251 19.1908C14.2899 19.1863 14.33 19.1802 14.3711 19.1732C14.4391 19.1616 14.504 19.2077 14.5156 19.2757C14.5272 19.3438 14.4811 19.4087 14.4131 19.4203C14.3613 19.4291 14.3106 19.4355 14.2617 19.4408C14.2848 19.459 14.3091 19.4773 14.334 19.4955C14.3897 19.5361 14.402 19.6145 14.3613 19.6703C14.3206 19.7261 14.2423 19.7383 14.1865 19.6976C14.1512 19.6718 14.1172 19.6455 14.085 19.6195C14.0795 19.6556 14.0737 19.6932 14.0664 19.7308C14.0531 19.7984 13.9875 19.8424 13.9199 19.8295C13.8522 19.8163 13.8073 19.7507 13.8203 19.683C13.8264 19.6515 13.8323 19.6205 13.8369 19.5902C13.8013 19.617 13.7639 19.6437 13.7246 19.6703C13.6674 19.7089 13.5894 19.6942 13.5508 19.6371C13.5121 19.5799 13.5277 19.5019 13.585 19.4632C13.6046 19.4499 13.624 19.4366 13.6426 19.4232C13.6006 19.4158 13.5603 19.4068 13.5225 19.3978C13.4554 19.3817 13.4137 19.3145 13.4297 19.2474C13.4457 19.1805 13.5131 19.139 13.5801 19.1546C13.6048 19.1605 13.6314 19.1661 13.6582 19.1713C13.6289 19.1307 13.602 19.0918 13.5781 19.0541C13.5412 18.9958 13.5581 18.9182 13.6162 18.8812C13.6745 18.8443 13.7521 18.862 13.7891 18.9203C13.8059 18.9469 13.8248 18.9749 13.8447 19.0033C13.8394 18.9639 13.833 18.9261 13.8262 18.891C13.8129 18.8232 13.857 18.7577 13.9248 18.7445ZM11.1767 16.3295C11.2445 16.3162 11.311 16.3603 11.3242 16.4281C11.3328 16.4724 11.3402 16.5196 11.3467 16.5697C11.3662 16.5434 11.3846 16.5177 11.4014 16.4925C11.4396 16.4352 11.5168 16.4194 11.5742 16.4574C11.6317 16.4957 11.6477 16.5738 11.6094 16.6312C11.5783 16.6778 11.5434 16.7262 11.5039 16.7757C11.5429 16.7712 11.5829 16.7652 11.624 16.7582C11.6921 16.7466 11.7569 16.7927 11.7685 16.8607C11.7801 16.9287 11.734 16.9936 11.666 17.0052C11.6141 17.0141 11.5636 17.0204 11.5146 17.0257C11.5378 17.044 11.562 17.0623 11.5869 17.0804C11.6426 17.1211 11.6548 17.1995 11.6142 17.2552C11.5736 17.311 11.4952 17.3233 11.4394 17.2826C11.4041 17.2568 11.3701 17.2305 11.3379 17.2045C11.3325 17.2406 11.3266 17.2782 11.3193 17.3158C11.3061 17.3834 11.2396 17.4276 11.1719 17.4144C11.1044 17.4011 11.0602 17.3355 11.0732 17.2679C11.0794 17.2364 11.0852 17.2054 11.0898 17.1752C11.0543 17.202 11.0167 17.2287 10.9775 17.2552C10.9204 17.2938 10.8424 17.279 10.8037 17.222C10.7651 17.1649 10.7799 17.0869 10.8369 17.0482C10.8565 17.0349 10.8759 17.0215 10.8945 17.0082C10.8527 17.0008 10.8131 16.9918 10.7754 16.9828C10.7082 16.9668 10.6666 16.8995 10.6826 16.8324C10.6987 16.7655 10.766 16.7238 10.833 16.7396C10.8576 16.7455 10.8835 16.7511 10.9101 16.7562C10.881 16.7158 10.8548 16.6766 10.831 16.639C10.7941 16.5807 10.8109 16.5031 10.8691 16.4662C10.9275 16.4292 11.005 16.4469 11.042 16.5052C11.0589 16.5319 11.0767 16.5599 11.0967 16.5882C11.0913 16.5488 11.085 16.5111 11.0781 16.4759C11.0649 16.4084 11.1093 16.3429 11.1767 16.3295ZM15.9062 15.889C15.9739 15.8758 16.0394 15.92 16.0527 15.9877C16.0614 16.032 16.0697 16.0792 16.0762 16.1293C16.0956 16.1031 16.1132 16.0771 16.1299 16.0521C16.1682 15.9948 16.2463 15.9797 16.3037 16.0179C16.361 16.0562 16.3761 16.1334 16.3379 16.1908C16.3068 16.2374 16.2719 16.2858 16.2324 16.3353C16.2715 16.3308 16.3123 16.3257 16.3535 16.3187C16.4213 16.3073 16.4853 16.3525 16.4971 16.4203C16.5086 16.4882 16.4634 16.5531 16.3955 16.5648C16.3437 16.5736 16.2931 16.581 16.2441 16.5863C16.2671 16.6044 16.2907 16.6229 16.3154 16.641C16.3712 16.6817 16.3834 16.76 16.3428 16.8158C16.3021 16.8711 16.2246 16.8833 16.1689 16.8431C16.1336 16.8174 16.0996 16.791 16.0674 16.765C16.062 16.8011 16.0551 16.8378 16.0478 16.8754C16.0347 16.9431 15.9691 16.9872 15.9014 16.974C15.8336 16.9608 15.7896 16.8952 15.8027 16.8275C15.8088 16.7961 15.8137 16.7649 15.8183 16.7347C15.7827 16.7616 15.7453 16.7892 15.706 16.8158C15.6489 16.8542 15.5708 16.8387 15.5322 16.7816C15.4938 16.7244 15.5093 16.6464 15.5664 16.6078C15.5861 16.5945 15.6054 16.5811 15.624 16.5677C15.5821 16.5603 15.5417 16.5523 15.5039 16.5433C15.437 16.5272 15.3962 16.4599 15.4121 16.3929C15.4281 16.3258 15.4953 16.2842 15.5625 16.3002C15.5871 16.306 15.6129 16.3116 15.6396 16.3168C15.6102 16.2761 15.5835 16.2364 15.5596 16.1986C15.5227 16.1403 15.5403 16.0636 15.5986 16.0267C15.6569 15.9899 15.7335 16.0067 15.7705 16.0648C15.7874 16.0915 15.8062 16.1193 15.8262 16.1478C15.8208 16.1083 15.8145 16.0707 15.8076 16.0355C15.7945 15.9678 15.8385 15.9022 15.9062 15.889ZM21.7656 13.9437C21.8332 13.9306 21.8987 13.9749 21.9121 14.0423C21.9208 14.0868 21.9291 14.1347 21.9355 14.1849C21.955 14.1587 21.9726 14.1328 21.9892 14.1078C22.0275 14.0503 22.1056 14.0343 22.1631 14.0726C22.2204 14.1109 22.2355 14.189 22.1973 14.2464C22.1662 14.293 22.1312 14.3415 22.0918 14.391C22.1309 14.3864 22.1716 14.3804 22.2129 14.3734C22.2808 14.362 22.3449 14.408 22.3564 14.4759C22.3678 14.5437 22.3226 14.6077 22.2549 14.6195C22.2029 14.6284 22.1516 14.6356 22.1025 14.641C22.1256 14.6592 22.1499 14.6775 22.1748 14.6957C22.2306 14.7363 22.2428 14.8147 22.2021 14.8705C22.1614 14.9261 22.0831 14.9384 22.0273 14.8978C21.992 14.872 21.958 14.8457 21.9258 14.8197C21.9204 14.8557 21.9145 14.8926 21.9072 14.93C21.8941 14.9977 21.8284 15.0427 21.7607 15.0296C21.6931 15.0165 21.6491 14.9508 21.6621 14.8832C21.6682 14.8518 21.6731 14.8206 21.6777 14.7904C21.6421 14.8172 21.6047 14.844 21.5654 14.8705C21.5082 14.909 21.4302 14.8935 21.3916 14.8363C21.3533 14.7791 21.3687 14.702 21.4258 14.6634C21.4455 14.6501 21.4647 14.6368 21.4834 14.6234C21.4414 14.616 21.4011 14.607 21.3633 14.598C21.2963 14.5819 21.2546 14.5147 21.2705 14.4476C21.2865 14.3805 21.3547 14.3389 21.4219 14.3548C21.4464 14.3607 21.4723 14.3663 21.499 14.3714C21.4696 14.3308 21.4429 14.2911 21.4189 14.2533C21.3822 14.195 21.3997 14.1183 21.458 14.0814C21.5162 14.0447 21.5929 14.0615 21.6299 14.1195C21.6468 14.1462 21.6656 14.1741 21.6855 14.2025C21.6802 14.1631 21.6738 14.1254 21.667 14.0902C21.654 14.0226 21.698 13.9569 21.7656 13.9437ZM13.6142 13.7591C13.682 13.7459 13.7475 13.79 13.7607 13.8578C13.7694 13.9021 13.7777 13.9493 13.7842 13.9994C13.8036 13.9732 13.8212 13.9472 13.8379 13.9222C13.8762 13.8648 13.9543 13.8498 14.0117 13.888C14.0689 13.9264 14.0841 14.0035 14.0459 14.0609C14.0148 14.1075 13.9799 14.1559 13.9404 14.2054C13.9795 14.2009 14.0203 14.1949 14.0615 14.1879C14.1294 14.1765 14.1934 14.2226 14.2051 14.2904C14.2167 14.3584 14.1714 14.4232 14.1035 14.4349C14.0517 14.4438 14.0011 14.4511 13.9521 14.4564C13.9751 14.4745 13.9987 14.4931 14.0234 14.5111C14.0792 14.5517 14.0914 14.6291 14.0508 14.6849C14.0101 14.7407 13.9327 14.7529 13.8769 14.7123C13.8417 14.6865 13.8076 14.6611 13.7754 14.6351C13.77 14.6712 13.7631 14.7079 13.7558 14.7455C13.7427 14.8132 13.6771 14.8573 13.6094 14.8441C13.5416 14.8309 13.4976 14.7654 13.5107 14.6976C13.5168 14.6662 13.5217 14.6351 13.5264 14.6048C13.4907 14.6317 13.4533 14.6584 13.4141 14.6849C13.3569 14.7236 13.2789 14.7089 13.2402 14.6517C13.2017 14.5945 13.2173 14.5165 13.2744 14.4779C13.2941 14.4646 13.3134 14.4512 13.332 14.4379C13.2901 14.4304 13.2497 14.4224 13.2119 14.4134C13.145 14.3974 13.1044 14.33 13.1201 14.263C13.1361 14.1959 13.2033 14.1543 13.2705 14.1703C13.2951 14.1761 13.321 14.1817 13.3476 14.1869C13.3182 14.1462 13.2915 14.1065 13.2676 14.0687C13.2306 14.0104 13.2483 13.9328 13.3066 13.8959C13.3649 13.8592 13.4416 13.8768 13.4785 13.9349C13.4954 13.9617 13.5142 13.9895 13.5342 14.0179C13.5288 13.9784 13.5225 13.9408 13.5156 13.9056C13.5024 13.8379 13.5465 13.7724 13.6142 13.7591ZM16.6152 11.8295C16.683 11.8162 16.7485 11.8603 16.7617 11.9281C16.7704 11.9724 16.7787 12.0196 16.7851 12.0697C16.8046 12.0435 16.8222 12.0175 16.8389 11.9925C16.8771 11.9351 16.9553 11.9192 17.0127 11.9574C17.0701 11.9957 17.0852 12.0738 17.0469 12.1312C17.0158 12.1778 16.9808 12.2263 16.9414 12.2757C16.9805 12.2712 17.0212 12.2652 17.0625 12.2582C17.1304 12.2468 17.1945 12.2928 17.206 12.3607C17.2176 12.4287 17.1724 12.4935 17.1045 12.5052C17.0527 12.5141 17.002 12.5204 16.9531 12.5257C16.9761 12.5439 16.9997 12.5624 17.0244 12.5804C17.0802 12.6211 17.0924 12.6995 17.0517 12.7552C17.0111 12.8109 16.9337 12.8231 16.8779 12.7826C16.8425 12.7568 16.8086 12.7305 16.7764 12.7045C16.7709 12.7406 16.7641 12.7782 16.7568 12.8158C16.7435 12.8834 16.678 12.9275 16.6103 12.9144C16.5426 12.9013 16.4986 12.8357 16.5117 12.7679C16.5178 12.7364 16.5227 12.7054 16.5273 12.6752C16.4917 12.702 16.4543 12.7287 16.415 12.7552C16.3578 12.7938 16.2798 12.7792 16.2412 12.722C16.2026 12.6648 16.2182 12.5869 16.2754 12.5482C16.2951 12.5349 16.3143 12.5216 16.333 12.5082C16.2911 12.5008 16.2507 12.4918 16.2129 12.4828C16.146 12.4666 16.1051 12.3994 16.1211 12.3324C16.1372 12.2654 16.2044 12.2236 16.2715 12.2396C16.2961 12.2455 16.3219 12.2511 16.3486 12.2562C16.3193 12.2157 16.2924 12.1767 16.2685 12.139C16.2316 12.0807 16.2493 12.0031 16.3076 11.9662C16.3659 11.9294 16.4426 11.947 16.4795 12.0052C16.4964 12.0319 16.5152 12.0598 16.5351 12.0882C16.5298 12.0488 16.5234 12.0111 16.5166 11.9759C16.5034 11.9082 16.5475 11.8427 16.6152 11.8295ZM19.6074 10.6341C19.6752 10.6209 19.7407 10.665 19.7539 10.7328C19.7626 10.7771 19.7709 10.8243 19.7773 10.8744C19.7968 10.8482 19.8144 10.8222 19.831 10.7972C19.8693 10.7398 19.9474 10.7248 20.0049 10.763C20.0622 10.8014 20.0773 10.8785 20.0391 10.9359C20.008 10.9825 19.9731 11.0309 19.9336 11.0804C19.9727 11.0759 20.0134 11.0699 20.0547 11.0629C20.1226 11.0514 20.1876 11.0975 20.1992 11.1654C20.2108 11.2334 20.1647 11.2983 20.0967 11.3099C20.0448 11.3188 19.9943 11.3261 19.9453 11.3314C19.9683 11.3496 19.9928 11.368 20.0176 11.3861C20.0728 11.4267 20.085 11.5043 20.0449 11.5599C20.0042 11.6157 19.9259 11.6279 19.8701 11.5873C19.8348 11.5615 19.8007 11.5361 19.7685 11.5101C19.7631 11.5462 19.7563 11.5829 19.749 11.6205C19.7358 11.6882 19.6703 11.7323 19.6025 11.7191C19.5348 11.7059 19.4907 11.6403 19.5039 11.5726C19.51 11.5412 19.5149 11.5101 19.5195 11.4798C19.4839 11.5067 19.4465 11.5334 19.4072 11.5599C19.3501 11.5985 19.2731 11.5837 19.2344 11.5267C19.1957 11.4695 19.2104 11.3915 19.2676 11.3529C19.2873 11.3396 19.3065 11.3262 19.3252 11.3129C19.2835 11.3055 19.2437 11.2974 19.206 11.2884C19.139 11.2725 19.0975 11.2051 19.1133 11.138C19.1293 11.0709 19.1965 11.0293 19.2637 11.0453C19.2883 11.0511 19.3141 11.0567 19.3408 11.0619C19.3114 11.0212 19.2847 10.9815 19.2607 10.9437C19.2238 10.8854 19.2415 10.8078 19.2998 10.7709C19.358 10.7342 19.4348 10.7518 19.4717 10.8099C19.4886 10.8367 19.5073 10.8645 19.5273 10.8929C19.522 10.8534 19.5157 10.8159 19.5088 10.7806C19.4956 10.7129 19.5397 10.6474 19.6074 10.6341ZM13.8789 9.75426C13.9467 9.74103 14.0131 9.78514 14.0264 9.85289C14.035 9.89719 14.0424 9.94445 14.0488 9.99449C14.0684 9.96816 14.0868 9.94246 14.1035 9.91735C14.1417 9.86006 14.219 9.84419 14.2764 9.88219C14.3338 9.92047 14.3498 9.99858 14.3115 10.056C14.2805 10.1026 14.2455 10.151 14.206 10.2005C14.245 10.196 14.285 10.19 14.3262 10.183C14.3942 10.1714 14.4591 10.2175 14.4707 10.2855C14.4822 10.3535 14.4362 10.4184 14.3682 10.43C14.3163 10.4389 14.2658 10.4452 14.2168 10.4505C14.24 10.4688 14.2641 10.4871 14.2891 10.5052C14.3448 10.5459 14.3569 10.6243 14.3164 10.68C14.2757 10.7358 14.1974 10.7481 14.1416 10.7074C14.1062 10.6816 14.0723 10.6553 14.04 10.6293C14.0346 10.6654 14.0278 10.703 14.0205 10.7406C14.0072 10.8081 13.9417 10.8524 13.874 10.8392C13.8065 10.8259 13.7623 10.7603 13.7754 10.6927C13.7815 10.6612 13.7873 10.6302 13.792 10.6C13.7564 10.6267 13.7189 10.6536 13.6797 10.68C13.6226 10.7186 13.5446 10.7038 13.5058 10.6468C13.4672 10.5897 13.482 10.5117 13.5391 10.473C13.5587 10.4597 13.5781 10.4463 13.5967 10.433C13.5549 10.4256 13.5153 10.4166 13.4775 10.4076C13.4104 10.3916 13.3688 10.3243 13.3848 10.2572C13.4009 10.1902 13.4681 10.1485 13.5351 10.1644C13.5598 10.1703 13.5856 10.1759 13.6123 10.181C13.583 10.1405 13.5561 10.1015 13.5322 10.0638C13.4953 10.0055 13.513 9.92792 13.5713 9.89098C13.6296 9.85404 13.7072 9.87172 13.7441 9.93004C13.761 9.95666 13.7789 9.98472 13.7988 10.013C13.7935 9.9736 13.7871 9.93591 13.7803 9.90074C13.7671 9.83313 13.8114 9.76768 13.8789 9.75426ZM16.5117 7.75426C16.5795 7.74103 16.6459 7.78514 16.6592 7.85289C16.6678 7.89719 16.6752 7.94445 16.6816 7.99449C16.7012 7.96816 16.7196 7.94246 16.7363 7.91735C16.7745 7.86004 16.8518 7.84425 16.9092 7.88219C16.9666 7.92048 16.9826 7.99858 16.9443 8.05602C16.9133 8.10263 16.8783 8.15101 16.8389 8.20055C16.8778 8.19601 16.9178 8.18998 16.959 8.18297C17.027 8.17137 17.0919 8.21746 17.1035 8.28551C17.115 8.35352 17.069 8.41845 17.001 8.43004C16.9491 8.43888 16.8986 8.44522 16.8496 8.45055C16.8727 8.46882 16.897 8.48707 16.9219 8.50524C16.9776 8.54587 16.9897 8.62427 16.9492 8.68004C16.9085 8.73582 16.8302 8.74806 16.7744 8.70738C16.739 8.68157 16.7051 8.6553 16.6728 8.62926C16.6674 8.66539 16.6616 8.70296 16.6543 8.74059C16.641 8.80824 16.5745 8.85237 16.5068 8.83922C16.4394 8.82587 16.3952 8.7603 16.4082 8.69274C16.4143 8.66124 16.4202 8.63023 16.4248 8.59996C16.3892 8.62676 16.3517 8.65354 16.3125 8.68004C16.2554 8.71864 16.1774 8.70384 16.1387 8.64684C16.1001 8.58972 16.1149 8.51172 16.1719 8.47301C16.1915 8.45974 16.2109 8.44631 16.2295 8.43297C16.1877 8.42558 16.1481 8.41656 16.1103 8.40758C16.0432 8.39159 16.0016 8.32435 16.0176 8.25719C16.0336 8.19025 16.101 8.1486 16.168 8.16442C16.1925 8.17027 16.2184 8.17586 16.2451 8.18102C16.2159 8.14065 16.1898 8.10138 16.166 8.06383C16.1291 8.00554 16.1459 7.92794 16.2041 7.89098C16.2624 7.85404 16.34 7.87172 16.3769 7.93004C16.3938 7.95667 16.4117 7.9847 16.4316 8.01305C16.4263 7.97359 16.4199 7.93592 16.4131 7.90074C16.3999 7.83317 16.4443 7.76774 16.5117 7.75426ZM18.7725 5.00914C18.8401 4.99604 18.9057 5.04009 18.9189 5.10777C18.9276 5.15208 18.935 5.19932 18.9414 5.24938C18.961 5.22304 18.9793 5.19735 18.9961 5.17223C19.0344 5.11483 19.1125 5.09976 19.1699 5.13805C19.227 5.17643 19.2423 5.2536 19.2041 5.3109C19.173 5.3575 19.1381 5.4059 19.0986 5.45543C19.1376 5.4509 19.1776 5.44486 19.2187 5.43785C19.2867 5.42626 19.3516 5.47243 19.3633 5.54039C19.3749 5.60845 19.3288 5.67332 19.2607 5.68492C19.2089 5.69375 19.1583 5.70108 19.1094 5.70641C19.1325 5.72468 19.1567 5.74292 19.1816 5.7611C19.2373 5.80174 19.2494 5.87919 19.209 5.93492C19.1683 5.9907 19.09 6.00294 19.0342 5.96227C18.9989 5.93652 18.9648 5.91109 18.9326 5.88512C18.9272 5.92113 18.9213 5.95797 18.9141 5.99547C18.9009 6.06316 18.8353 6.10713 18.7676 6.0941C18.6998 6.08094 18.6548 6.01539 18.668 5.94762C18.6741 5.91613 18.6799 5.88511 18.6846 5.85485C18.649 5.88166 18.6115 5.90841 18.5723 5.93492C18.5151 5.97357 18.4371 5.95892 18.3984 5.90172C18.3598 5.84452 18.3754 5.76653 18.4326 5.72789C18.4522 5.71462 18.4716 5.70119 18.4902 5.68785C18.4483 5.68044 18.4079 5.67245 18.3701 5.66344C18.3031 5.64747 18.2617 5.58002 18.2773 5.51305C18.2933 5.44599 18.3607 5.40449 18.4277 5.42027C18.4524 5.42616 18.479 5.4317 18.5058 5.43688C18.4765 5.39626 18.4497 5.35648 18.4258 5.31871C18.3889 5.26044 18.4057 5.18284 18.4639 5.14586C18.5222 5.10892 18.5998 5.1266 18.6367 5.18492C18.6536 5.21164 18.6724 5.23948 18.6924 5.26793C18.687 5.22844 18.6807 5.19083 18.6738 5.15563C18.6606 5.08787 18.7047 5.02237 18.7725 5.00914Z" fill="#FFC21A"/>
<path d="M13.9654 22.0768C22.1254 25.2168 23.3884 16.8467 18.6784 14.3967C18.5304 14.3167 18.3684 14.4567 18.4074 14.6167C19.0094 17.1167 18.9754 19.9368 13.9704 21.7068C13.7954 21.7668 13.7924 22.0168 13.9654 22.0768Z" fill="#FFC21A"/>
<path fill-rule="evenodd" clip-rule="evenodd" d="M18.364 1.04178C18.6455 1.07491 18.8842 1.26387 18.9811 1.5302L27.0111 23.6001C27.0897 23.816 27.065 24.056 26.9441 24.2513C26.8232 24.4466 26.6194 24.5758 26.3912 24.6018C20.3921 25.2846 15.6081 24.981 12.0529 24.3138C8.51762 23.6503 6.15368 22.6186 5.02784 21.8044C4.70232 21.569 4.62009 21.1189 4.84136 20.7836L17.6504 1.37354C17.8065 1.137 18.0826 1.00865 18.364 1.04178ZM6.51645 20.9686C7.60894 21.5705 9.53828 22.3156 12.3296 22.8395C15.5423 23.4424 19.859 23.7447 25.2737 23.212L18.0812 3.44395L6.51645 20.9686Z" fill="#1A1A1A"/>
</svg>
