<svg width="48" height="55" viewBox="0 0 48 55" fill="none" xmlns="http://www.w3.org/2000/svg">
<path d="M47.2448 54.25H0.755859C0.899859 44.92 3.71986 36.37 8.06186 30.11C12.5269 23.67 18.5329 19.75 24.8329 19.75C31.1179 19.75 36.7018 23.65 40.7528 30.08C44.6948 36.33 47.1218 44.9 47.2448 54.25Z" fill="#FF24BD"/>
<path d="M24.8331 19C31.4605 19.0001 37.2519 23.115 41.3878 29.6797H41.3868C45.4143 36.0652 47.8707 44.7757 47.9952 54.2402C47.9978 54.4408 47.9193 54.6336 47.7784 54.7764C47.6375 54.9191 47.4457 54.9999 47.2452 55H0.755948C0.555117 55 0.362723 54.9194 0.221769 54.7764C0.0807984 54.6332 0.00284789 54.4392 0.00594846 54.2383C0.152098 44.7708 3.0125 36.0738 7.4454 29.6826L7.87704 29.0742C12.3855 22.8644 18.4132 19 24.8331 19ZM24.8331 20.5C18.8601 20.5 13.0563 24.2218 8.67782 30.5371C4.54451 36.4962 1.80358 44.6057 1.5245 53.5H46.4786C46.247 44.8496 44.0193 36.9498 40.4757 31.0596L40.1183 30.4805L40.753 30.0801L40.1183 30.4795C36.1523 24.1845 30.7754 20.5001 24.8331 20.5Z" fill="#1A1A1A"/>
<path d="M42.2458 54.2501H6.75781C6.90281 47.2801 9.05681 40.8901 12.3528 36.2101C15.7728 31.3601 20.3568 28.4302 25.1438 28.4302C29.9158 28.4302 34.1728 31.3401 37.2738 36.1901C40.2648 40.8601 42.1218 47.2501 42.2458 54.2501Z" fill="#85E0A3"/>
<path d="M11.7392 35.7778L12.0976 36.0308L12.9657 36.6421C9.88175 41.0211 7.80982 46.969 7.53214 53.5005H41.4745C41.2362 46.9183 39.4394 40.9612 36.6425 36.5942L37.9052 35.7856C40.9826 40.5905 42.8699 47.121 42.996 54.2368C42.9996 54.4379 42.9221 54.6324 42.7812 54.7759C42.6402 54.9193 42.4471 55.0004 42.246 55.0005H6.75772C6.55611 55.0005 6.36267 54.9189 6.22159 54.7749C6.0807 54.631 6.00363 54.4362 6.00772 54.2349C6.15561 47.1263 8.35126 40.5883 11.7392 35.7778ZM25.1435 27.6802C30.2519 27.6802 34.7164 30.7986 37.9052 35.7856L36.6425 36.5942C33.6293 31.8816 29.5789 29.1802 25.1435 29.1802C20.6778 29.1803 16.2966 31.9186 12.9657 36.6421L11.7392 35.7778C15.2481 30.8018 20.0354 27.6803 25.1435 27.6802Z" fill="#1A1A1A"/>
<path d="M37.3467 54.2499H11.7627C11.9197 49.7899 13.4617 45.7098 15.7967 42.7198C18.2647 39.5398 21.5707 37.6299 25.0237 37.6299C28.4647 37.6299 31.5277 39.5298 33.7607 42.6898C35.8777 45.6798 37.2117 49.7699 37.3467 54.2499Z" fill="#75D7F0"/>
<path d="M25.0237 36.8799C28.7668 36.8799 32.0374 38.9514 34.3733 42.2568L34.5783 42.5527C36.6709 45.6474 37.9624 49.7641 38.0969 54.2275C38.1029 54.4302 38.0262 54.627 37.885 54.7725C37.7438 54.9179 37.5496 55 37.3469 55H11.7629C11.5594 55 11.3642 54.9169 11.2229 54.7705C11.0818 54.6242 11.0058 54.4268 11.0129 54.2236C11.1753 49.6119 12.77 45.3775 15.2063 42.2578C17.7773 38.9462 21.2831 36.88 25.0237 36.8799ZM25.0237 38.3799C21.8593 38.38 18.7546 40.1329 16.3899 43.1797L16.3879 43.1816C14.2892 45.8692 12.8473 49.4978 12.5549 53.5H36.5608C36.3252 49.7234 35.2122 46.2941 33.5188 43.6709L33.1487 43.123C31.0185 40.1086 28.1624 38.3799 25.0237 38.3799Z" fill="#1A1A1A"/>
<path d="M26.5198 47.8773C26.8153 47.5872 27.2901 47.5917 27.5804 47.887C27.8704 48.1825 27.866 48.6573 27.5706 48.9476L27.4485 49.0677L27.4466 49.0687L26.9232 48.5325L26.8636 48.472L27.4466 49.0687C25.7664 50.7091 23.0646 50.6439 21.4661 48.9231C21.1842 48.6197 21.2017 48.1445 21.5052 47.8626C21.8087 47.5807 22.2838 47.5982 22.5657 47.9017C23.5904 49.0048 25.3217 49.0469 26.3987 47.9954V47.9964L26.5198 47.8773Z" fill="#1A1A1A"/>
<path d="M19.2052 44.9951C18.5397 44.9951 18.0002 45.5346 18.0002 46.2001C18.0002 46.8656 18.5397 47.4051 19.2052 47.4051C19.8707 47.4051 20.4102 46.8656 20.4102 46.2001C20.4102 45.5346 19.8707 44.9951 19.2052 44.9951Z" fill="#1A1A1A"/>
<path d="M29.2026 44.9951C29.8681 44.9951 30.4076 45.5346 30.4076 46.2001C30.4076 46.8656 29.8681 47.4051 29.2026 47.4051C28.5371 47.4051 27.9976 46.8656 27.9976 46.2001C27.9976 45.5346 28.5371 44.9951 29.2026 44.9951Z" fill="#1A1A1A"/>
</svg>
