<svg width="48" height="55" viewBox="0 0 48 55" fill="none" xmlns="http://www.w3.org/2000/svg">
<path d="M47.2452 54.0898H0.755859C0.899859 44.7598 3.72036 36.1998 8.06226 29.9398C12.5276 23.5098 18.5332 19.5898 24.8333 19.5898C31.1177 19.5898 36.7025 23.4899 40.7528 29.9199C44.6951 36.1699 47.1217 44.7298 47.2452 54.0898Z" fill="#FFA629"/>
<path d="M24.8331 18.8398C31.4598 18.8398 37.2516 22.9551 41.3868 29.5195C45.4145 35.905 47.8702 44.6055 47.9952 54.0801C47.9978 54.2805 47.92 54.4735 47.7794 54.6162C47.6385 54.759 47.4458 54.8398 47.2452 54.8398H0.755948C0.555117 54.8398 0.362723 54.7593 0.221769 54.6162C0.0807984 54.473 0.00284789 54.279 0.00594846 54.0781C0.152096 44.6108 3.01345 35.904 7.44638 29.5127L8.6788 30.3672C4.54565 36.3262 1.8036 44.4449 1.5245 53.3398H46.4796C46.2477 44.6811 44.0194 36.7901 40.4757 30.9004L40.1183 30.3203C36.1529 24.0254 30.7749 20.3398 24.8331 20.3398C18.8601 20.3399 13.0576 24.062 8.6788 30.3672L7.44638 29.5127C11.998 22.9585 18.2063 18.8399 24.8331 18.8398Z" fill="#1A1A1A"/>
<path d="M42.2465 54.0897H6.75781C6.90261 47.1097 9.05741 40.7298 12.3532 36.0498C15.7733 31.1998 20.3567 28.2598 25.1439 28.2598C29.9156 28.2598 34.1733 31.1798 37.2737 36.0198C40.2655 40.6998 42.1223 47.0897 42.2465 54.0897Z" fill="#FFC470"/>
<path d="M25.1435 27.5098C30.0927 27.5098 34.4377 30.4467 37.6025 35.1543L37.9052 35.6152L37.5575 35.8369L37.4267 35.9219L37.9052 35.6162C40.9829 40.4306 42.8697 46.9603 42.996 54.0762C42.9996 54.2774 42.9222 54.4717 42.7812 54.6152C42.6402 54.7587 42.4472 54.8398 42.246 54.8398H6.75773C6.55612 54.8398 6.36267 54.7583 6.2216 54.6143C6.08072 54.4703 6.00357 54.2756 6.00773 54.0742C6.15541 46.9554 8.35257 40.4285 11.7402 35.6182V35.6172C15.2485 30.6421 20.0344 27.5099 25.1435 27.5098ZM25.1435 29.0098C20.6787 29.0099 16.2983 31.7573 12.9667 36.4814C9.88261 40.8608 7.80956 46.8 7.53214 53.3398H41.4755C41.237 46.7579 39.4396 40.7998 36.6415 36.4229C33.6284 31.7198 29.5776 29.0098 25.1435 29.0098Z" fill="#1A1A1A"/>
<path d="M37.3467 54.0897H11.7632C11.9197 49.6297 13.4624 45.5498 15.797 42.5498C18.265 39.3798 21.5708 37.4697 25.0245 37.4697C28.4646 37.4697 31.5283 39.3698 33.761 42.5198C35.878 45.5198 37.2123 49.5997 37.3467 54.0897Z" fill="#FFE0C2"/>
<path d="M25.0249 36.7197C28.7667 36.7199 32.0371 38.7912 34.3725 42.0859L33.7602 42.5195H33.7612L34.3725 42.0859L34.3735 42.0869C36.5857 45.2218 37.9579 49.4492 38.0962 54.0674L37.3471 54.0889V54.0898L38.0962 54.0674C38.1022 54.27 38.0264 54.4668 37.8852 54.6123C37.7441 54.7577 37.5498 54.8397 37.3471 54.8398H11.7631C11.5597 54.8398 11.3654 54.7567 11.2241 54.6104C11.0828 54.464 11.006 54.2668 11.0131 54.0635C11.175 49.4513 12.7706 45.2178 15.2055 42.0889C17.7766 38.7867 21.2831 36.7197 25.0249 36.7197ZM25.0249 38.2197C21.8594 38.2197 18.7541 39.9732 16.3891 43.0107C14.2898 45.7084 12.8462 49.3378 12.5542 53.3398H36.561C36.3094 49.2871 35.0497 45.6471 33.1479 42.9521V42.9512C31.0183 39.9476 28.1621 38.2199 25.0249 38.2197Z" fill="#1A1A1A"/>
<path d="M26.5201 47.7107C26.8155 47.4207 27.2904 47.4252 27.5806 47.7205C27.8707 48.016 27.8662 48.4908 27.5709 48.7811L27.4488 48.9012L27.4468 48.9022L26.9234 48.366L26.8638 48.3055L27.4468 48.9022C25.7666 50.5426 23.0648 50.4774 21.4664 48.7566C21.1845 48.4532 21.202 47.978 21.5054 47.6961C21.8089 47.4142 22.2841 47.4317 22.566 47.7352C23.5907 48.8383 25.322 48.8804 26.399 47.8289V47.8299L26.5201 47.7107Z" fill="#1A1A1A"/>
<path d="M19.205 44.835C18.5395 44.835 18 45.3745 18 46.04C18 46.7055 18.5395 47.245 19.205 47.245C19.8705 47.245 20.41 46.7055 20.41 46.04C20.41 45.3745 19.8705 44.835 19.205 44.835Z" fill="#1A1A1A"/>
<path d="M29.2023 44.835C29.8678 44.835 30.4073 45.3745 30.4073 46.04C30.4073 46.7055 29.8678 47.245 29.2023 47.245C28.5368 47.245 27.9973 46.7055 27.9973 46.04C27.9973 45.3745 28.5368 44.835 29.2023 44.835Z" fill="#1A1A1A"/>
</svg>
