<svg width="48" height="55" viewBox="0 0 48 55" fill="none" xmlns="http://www.w3.org/2000/svg">
<path d="M45.0581 46.6409C45.4528 46.8399 45.5906 47.0299 45.6328 47.1269C45.6655 47.2019 45.6672 47.2749 45.6108 47.3759C45.4702 47.6279 44.9436 48.0129 43.9999 48.0129H38.5234C37.5861 48.0129 37.3388 49.3079 38.2101 49.6529L42.5066 51.3569C43.1236 51.6019 43.2897 52.0459 43.2557 52.3579C43.2232 52.6569 42.9887 53.0219 42.3461 53.0889C37.0079 53.6499 30.0412 54.0529 26.3334 54.1469C20.8479 54.2859 15.354 53.9309 10.7931 53.1479C8.51271 52.7569 6.54915 52.2729 4.9683 51.7259C3.37551 51.1739 2.22141 50.5749 1.51791 49.9799C0.816489 49.3859 0.703009 48.9279 0.76544 48.6019C0.839874 48.2129 1.21772 47.6649 2.22197 47.0419C4.20705 45.8109 7.91354 44.7399 12.7884 44.0709C17.6343 43.4059 23.2401 43.1909 28.6438 43.4669C34.0535 43.7439 38.8872 44.4919 42.3282 45.5689C43.4101 45.9079 44.3214 46.2679 45.0581 46.6409Z" fill="#91D940"/>
<path fill-rule="evenodd" clip-rule="evenodd" d="M42.7838 50.6603C43.6874 51.0193 44.0751 51.7647 44.0016 52.4396C43.968 52.7476 43.8302 53.0817 43.5485 53.3517C43.2637 53.6245 42.8781 53.7867 42.4235 53.8341L42.4244 53.8351C37.735 54.3279 31.7999 54.6984 27.8932 54.8468L26.3522 54.8966C20.8264 55.0366 15.2832 54.6794 10.6666 53.8868L9.81505 53.7345C7.86248 53.3673 6.14911 52.9281 4.72326 52.4347C3.09411 51.8701 1.83856 51.2333 1.03283 50.5519C0.222301 49.8653 -0.104447 49.1577 0.0289218 48.4611L0.0591953 48.3292C0.239674 47.673 0.830116 47.0227 1.82677 46.4044L2.24474 46.1603C4.43519 44.9526 8.09544 43.9583 12.6861 43.3282L13.6129 43.2072C18.2888 42.6307 23.5766 42.4571 28.6822 42.7179L29.6969 42.7755C34.7353 43.0921 39.25 43.82 42.5524 44.8536L43.3551 45.1193C44.1267 45.3895 44.8083 45.6738 45.3951 45.9708C45.8904 46.2206 46.1875 46.5215 46.3209 46.8282C46.3728 46.9474 46.4156 47.1038 46.4039 47.2892C46.3925 47.4695 46.3322 47.6214 46.2653 47.7413L46.1998 47.8468C45.8419 48.3654 45.0402 48.7628 43.9996 48.7628H38.5231C38.4939 48.7629 38.4785 48.7683 38.4723 48.7706C38.4659 48.7731 38.4616 48.7758 38.4576 48.7794C38.4482 48.7878 38.4322 48.8087 38.4254 48.8439C38.4186 48.8793 38.4257 48.9059 38.4313 48.9171C38.4336 48.9216 38.4364 48.9255 38.441 48.9298C38.4458 48.9342 38.4585 48.9453 38.486 48.9562L42.7838 50.6603ZM10.0904 52.2599C8.19302 51.903 6.55401 51.4815 5.21349 51.0177C3.65769 50.4785 2.60377 49.9158 2.00255 49.4073C1.70494 49.1553 1.5825 48.9735 1.5338 48.8702C1.49323 48.7841 1.50138 48.7484 1.50255 48.7433C1.51731 48.6662 1.67142 48.2649 2.61584 47.6788L2.61681 47.6798C4.46198 46.5356 8.03731 45.4796 12.8903 44.8136L13.7985 44.6954C18.3796 44.1308 23.5789 43.9593 28.6051 44.2159L29.6061 44.2726C34.5695 44.5847 38.9547 45.2986 42.1041 46.2843L42.86 46.5353C43.4857 46.7545 44.0343 46.9786 44.5065 47.2052C44.3697 47.238 44.2019 47.2628 43.9996 47.2628H38.5231C36.7599 47.2631 36.2927 49.6998 37.9342 50.3497L42.2301 52.0538C42.4117 52.126 42.4732 52.2041 42.4918 52.2335C42.5017 52.2491 42.5054 52.2618 42.5074 52.2697C42.4955 52.2798 42.4351 52.3254 42.2672 52.3429C37.6151 52.8318 31.7154 53.2006 27.8414 53.3478L26.3141 53.3976C20.8691 53.5355 15.4245 53.1817 10.9195 52.4083L10.0904 52.2599Z" fill="#1A1A1A"/>
<path d="M24.8066 23.314C24.8487 20.5931 27.4778 18.3915 30.3447 19.1714C32.6127 19.7884 33.9442 22.0541 33.4912 24.27C36.008 24.8701 37.8368 27.13 37.8369 29.7798C37.8369 30.3125 37.7632 30.8265 37.627 31.313C39.9317 33.3345 41.2498 35.8381 41.25 38.4995C41.25 40.68 40.3652 42.755 38.7783 44.5454L38.3281 48.1245C38.1401 49.6175 36.7686 50.766 35.2656 50.689C34.01 50.6237 33.0627 49.7239 32.8936 48.5591C30.3035 49.6277 27.2639 50.2495 24 50.2495C20.6608 50.2495 17.5561 49.5991 14.9277 48.4849C14.789 49.6856 13.8282 50.6224 12.5459 50.689C11.0429 50.7659 9.67237 49.6175 9.48438 48.1245L9.00098 44.2896C7.55291 42.5585 6.75 40.5768 6.75 38.4995C6.75015 35.8213 8.08417 33.302 10.416 31.274C10.2857 30.7973 10.2158 30.2945 10.2158 29.774C10.2159 27.1251 12.0438 24.8663 14.5605 24.2661C14.1106 22.0512 15.4411 19.7874 17.707 19.1714C20.573 18.3914 23.2001 20.5901 23.2461 23.3081C23.7659 23.2811 24.2868 23.283 24.8066 23.314Z" fill="#2C2C2C"/>
<path fill-rule="evenodd" clip-rule="evenodd" d="M24.1289 22.5396C24.6091 19.7208 27.4516 17.6063 30.542 18.4469C32.9649 19.1062 34.473 21.3722 34.3174 23.7349C36.8262 24.6233 38.5868 27.0123 38.5869 29.7799C38.5869 30.2186 38.5402 30.6457 38.457 31.0582C40.6814 33.1381 41.9999 35.7107 42 38.4996C42 40.8783 41.0416 43.1007 39.3799 44.9937L38.9746 48.2183C38.7375 50.101 37.0249 51.535 35.1299 51.4381L35.1289 51.4371C33.8541 51.3708 32.8152 50.6303 32.3232 49.5826C29.8339 50.486 27.0036 50.9996 24 50.9996C20.997 50.9996 18.1676 50.4851 15.6787 49.5816C15.1866 50.6294 14.15 51.3709 12.875 51.4371L12.874 51.4381C11.0382 51.5319 9.37427 50.1888 9.05664 48.3931L9.03027 48.2183L8.62402 44.9976C6.96032 43.1035 6 40.88 6 38.4996C6.00014 35.692 7.33542 33.1024 9.58691 31.0152C9.50854 30.6143 9.46582 30.1995 9.46582 29.774C9.46584 27.0083 11.2257 24.6193 13.7344 23.7301C13.5814 21.3693 15.0896 19.1063 17.5107 18.4469C20.6018 17.6056 23.4426 19.7211 23.9229 22.5396C23.9915 22.5394 24.0602 22.5389 24.1289 22.5396ZM10.1172 32.5914C8.4164 34.3534 7.50013 36.3954 7.5 38.4996C7.5 40.2638 8.14333 41.9851 9.35352 43.5338C9.69884 43.5628 9.98897 43.8286 10.0342 44.1861L10.5186 48.0308L10.5547 48.2349C10.7864 49.2382 11.7558 49.9929 12.7969 49.94C13.798 49.8881 14.5127 49.1062 14.4883 48.1353L14.4727 47.9381L13.9893 44.0933C13.9378 43.6825 14.2288 43.3072 14.6396 43.2554C15.0503 43.2039 15.4256 43.4952 15.4775 43.9058L15.9609 47.7506L15.9795 47.9303C15.9836 47.9857 15.9859 48.0414 15.9873 48.0963C18.3477 48.9826 21.0742 49.4996 24 49.4996C26.9273 49.4996 29.6552 48.9821 32.0166 48.0953C32.0196 47.9817 32.0284 47.8664 32.043 47.7506L32.5273 43.9058C32.5793 43.4952 32.9544 43.2037 33.3652 43.2554C33.7758 43.3074 34.0671 43.6827 34.0156 44.0933L33.5312 47.9381C33.3977 48.9983 34.139 49.8846 35.207 49.94C36.3177 49.9966 37.3474 49.1339 37.4863 48.0308L37.9697 44.1861C38.0146 43.831 38.3012 43.5667 38.6436 43.5347C39.855 41.9858 40.5 40.2646 40.5 38.4996C40.4999 36.4105 39.5965 34.3827 37.9189 32.6295C36.7617 34.9581 34.2373 36.4661 31.457 36.1539L25.1387 35.4439C24.3578 35.357 23.5699 35.3569 22.7891 35.4459L16.6016 36.147C13.8064 36.4636 11.2678 34.9403 10.1172 32.5914ZM30.1494 19.8951C27.7785 19.2491 25.5908 21.0679 25.5566 23.3258L25.5518 23.4019C25.5306 23.5783 25.4484 23.7423 25.3164 23.8648C25.1664 24.0038 24.9657 24.0761 24.7607 24.0631C24.2699 24.0331 23.777 24.0312 23.2861 24.0572C23.0822 24.0682 22.8833 23.9949 22.7354 23.857C22.5864 23.718 22.5001 23.5239 22.4961 23.3209C22.458 21.0661 20.2731 19.2503 17.9043 19.8951C16.0274 20.4051 14.9231 22.2809 15.2959 24.1158C15.3769 24.5127 15.1281 24.9005 14.7354 24.9947L14.5322 25.0484C12.4545 25.6392 10.9658 27.5478 10.9658 29.774C10.9658 32.7069 13.5188 34.9866 16.4326 34.6568L22.6201 33.9547C23.5129 33.8537 24.4138 33.8537 25.3066 33.9537L31.624 34.6637C34.537 34.9907 37.0869 32.7109 37.0869 29.7799C37.0868 27.481 35.5002 25.5197 33.3174 24.9996C32.9234 24.9056 32.6749 24.5167 32.7559 24.1197L32.7871 23.9478C33.0623 22.1681 31.9685 20.3903 30.1494 19.8951Z" fill="#1A1A1A"/>
<path d="M15.607 30.3197C16.7562 30.3197 17.6879 29.4007 17.6879 28.267C17.6879 27.1334 16.7562 26.2144 15.607 26.2144C14.4578 26.2144 13.5261 27.1334 13.5261 28.267C13.5261 29.4007 14.4578 30.3197 15.607 30.3197Z" fill="#FFAFA3"/>
<path d="M32.446 30.3197C33.5952 30.3197 34.5269 29.4007 34.5269 28.267C34.5269 27.1334 33.5952 26.2144 32.446 26.2144C31.2968 26.2144 30.3651 27.1334 30.3651 28.267C30.3651 29.4007 31.2968 30.3197 32.446 30.3197Z" fill="#FFAFA3"/>
<path d="M29.2436 22.7905C29.7324 22.7905 30.1286 23.1868 30.1286 23.6755C30.1286 24.1643 29.7324 24.5605 29.2436 24.5605C28.7548 24.5605 28.3586 24.1643 28.3586 23.6755C28.3586 23.1868 28.7548 22.7905 29.2436 22.7905Z" fill="#D9D9D9"/>
<path d="M18.808 22.7905C18.3193 22.7905 17.923 23.1868 17.923 23.6755C17.923 24.1643 18.3193 24.5605 18.808 24.5605C19.2968 24.5605 19.693 24.1643 19.693 23.6755C19.693 23.1868 19.2968 22.7905 18.808 22.7905Z" fill="#D9D9D9"/>
<path fill-rule="evenodd" clip-rule="evenodd" d="M21.8264 27.4869C22.1352 27.7629 22.6093 27.7364 22.8854 27.4276C23.4594 26.7855 24.4566 26.7613 25.0615 27.3751L25.1404 27.455C25.4317 27.7496 25.9065 27.7523 26.2011 27.4611C26.4956 27.1698 26.4984 26.695 26.2071 26.4004L26.1299 26.3223C26.1297 26.3221 26.1301 26.3225 26.1299 26.3223C24.9177 25.0927 22.9183 25.1402 21.7671 26.4279C21.491 26.7367 21.5176 27.2108 21.8264 27.4869Z" fill="#D9D9D9"/>
</svg>
