<svg width="48" height="55" viewBox="0 0 48 55" fill="none" xmlns="http://www.w3.org/2000/svg">
<path d="M25.5 20.1499C27.638 20.1499 29.489 21.3699 30.399 23.1499C30.433 23.1499 30.466 23.1499 30.5 23.1499C33.076 23.1499 35.239 24.9199 35.836 27.3099C38.228 27.9099 40 30.0799 40 32.6499C40 32.6899 39.998 32.7199 39.997 32.7499C41.779 33.6599 43 35.5099 43 37.6499C43 37.6899 42.998 37.7199 42.997 37.7499C44.779 38.6599 46 40.5099 46 42.6499C46 43.4499 45.826 44.2099 45.519 44.8999C46.437 45.8799 47 47.1999 47 48.6499C47 51.6899 44.538 54.1499 41.5 54.1499C40.393 54.1499 39.363 53.8199 38.5 53.2599C37.637 53.8199 36.607 54.1499 35.5 54.1499C33.923 54.1499 32.503 53.4899 31.5 52.4199C30.497 53.4899 29.077 54.1499 27.5 54.1499C26.17 54.1499 24.951 53.6799 24 52.8899C23.049 53.6799 21.83 54.1499 20.5 54.1499C19.17 54.1499 17.951 53.6799 17 52.8899C16.049 53.6799 14.83 54.1499 13.5 54.1499C12.599 54.1499 11.75 53.9299 11 53.5499C10.25 53.9299 9.401 54.1499 8.5 54.1499C5.462 54.1499 3 51.6899 3 48.6499C3 47.1999 3.562 45.8799 4.48 44.8999C4.173 44.2099 4 43.4499 4 42.6499C4 40.5099 5.22001 38.6599 7.00201 37.7499C7.00101 37.7199 7 37.6899 7 37.6499C7 35.1299 8.69499 33.0099 11.007 32.3599C11.136 29.9099 12.863 27.8899 15.163 27.3099C15.76 24.9199 17.923 23.1499 20.5 23.1499C20.533 23.1499 20.566 23.1499 20.6 23.1499C21.51 21.3699 23.362 20.1499 25.5 20.1499Z" fill="#F1E5FF"/>
<path d="M16.4902 41.1899C20.7422 41.5199 28.8743 41.8999 32.5225 41.27C32.8253 41.22 33.1154 41.43 33.1406 41.7397C33.4295 45.3554 34.0297 51.4799 34.6436 54.0835C33.4126 53.8916 32.3176 53.2926 31.5 52.4204C30.497 53.4904 29.077 54.1499 27.5 54.1499C26.17 54.1499 24.951 53.6801 24 52.8901C23.049 53.6801 21.83 54.1499 20.5 54.1499C19.17 54.1499 17.951 53.6801 17 52.8901C16.4473 53.3493 15.8036 53.6991 15.1006 53.9126C15.4082 50.1378 15.871 44.0861 15.9434 41.6899C15.9525 41.4 16.1993 41.1699 16.4902 41.1899Z" fill="#4B0D87"/>
<path d="M30.399 23.1499L29.732 23.4999C29.862 23.7499 30.126 23.9099 30.413 23.8999L30.399 23.1499ZM35.836 27.3099L35.108 27.4999C35.175 27.7699 35.385 27.9799 35.654 28.0399L35.836 27.3099ZM39.997 32.7499L39.247 32.7399C39.242 33.0199 39.401 33.2899 39.656 33.4199L39.997 32.7499ZM42.997 37.7499L42.247 37.7399C42.242 38.0199 42.401 38.2899 42.656 38.4199L42.997 37.7499ZM45.519 44.8999L44.834 44.5898C44.711 44.8698 44.764 45.1899 44.971 45.4099L45.519 44.8999ZM38.5 53.2599L38.91 52.6299C38.661 52.4699 38.339 52.4699 38.09 52.6299L38.5 53.2599ZM31.5 52.4199L32.046 51.9099C31.904 51.7599 31.706 51.6699 31.5 51.6699C31.294 51.6699 31.096 51.7599 30.954 51.9099L31.5 52.4199ZM24 52.8899L24.478 52.3198C24.2 52.0898 23.8 52.0898 23.522 52.3198L24 52.8899ZM17 52.8899L17.478 52.3198C17.2 52.0898 16.8 52.0898 16.522 52.3198L17 52.8899ZM11 53.5499L11.341 52.8799C11.127 52.7699 10.873 52.7699 10.659 52.8799L11 53.5499ZM4.48 44.8999L5.02901 45.4099C5.23501 45.1899 5.28799 44.8698 5.16499 44.5898L4.48 44.8999ZM7.00201 37.7499L7.34299 38.4199C7.59799 38.2899 7.75701 38.0199 7.75201 37.7399L7.00201 37.7499ZM11.007 32.3599L11.21 33.0798C11.519 32.9898 11.739 32.7199 11.756 32.3999L11.007 32.3599ZM15.163 27.3099L15.345 28.0399C15.614 27.9799 15.824 27.7699 15.891 27.4999L15.163 27.3099ZM20.6 23.1499L20.586 23.8999C20.873 23.9099 21.137 23.7499 21.268 23.4899L20.6 23.1499ZM25.5 20.1499V20.8999C27.345 20.8999 28.944 21.9499 29.732 23.4999L30.399 23.1499L31.067 22.8099C30.034 20.7899 27.931 19.3999 25.5 19.3999V20.1499ZM30.399 23.1499L30.413 23.8999C30.471 23.8999 30.473 23.8999 30.5 23.8999V23.1499V22.3999C30.46 22.3999 30.395 22.3999 30.386 22.3999L30.399 23.1499ZM30.5 23.1499V23.8999C32.724 23.8999 34.592 25.4299 35.108 27.4999L35.836 27.3099L36.564 27.1299C35.885 24.4199 33.429 22.3999 30.5 22.3999V23.1499ZM35.836 27.3099L35.654 28.0399C37.72 28.5599 39.25 30.4299 39.25 32.6499H40H40.75C40.75 29.7199 38.736 27.2698 36.018 26.5898L35.836 27.3099ZM40 32.6499H39.25C39.25 32.6499 39.25 32.6499 39.25 32.6599C39.25 32.6599 39.25 32.6599 39.249 32.6699C39.249 32.6799 39.248 32.7099 39.247 32.7399L39.997 32.7499L40.747 32.7599C40.747 32.7599 40.747 32.7499 40.748 32.7299C40.749 32.7099 40.75 32.6799 40.75 32.6499H40ZM39.997 32.7499L39.656 33.4199C41.197 34.2099 42.25 35.8099 42.25 37.6499H43H43.75C43.75 35.2199 42.361 33.1198 40.338 32.0798L39.997 32.7499ZM43 37.6499H42.25C42.25 37.6499 42.25 37.6499 42.25 37.6599C42.25 37.6599 42.25 37.6599 42.249 37.6699C42.249 37.6799 42.248 37.7099 42.247 37.7399L42.997 37.7499L43.747 37.7599C43.747 37.7599 43.747 37.7499 43.748 37.7299C43.749 37.7099 43.75 37.6799 43.75 37.6499H43ZM42.997 37.7499L42.656 38.4199C44.197 39.2099 45.25 40.8099 45.25 42.6499H46H46.75C46.75 40.2199 45.361 38.1198 43.338 37.0798L42.997 37.7499ZM46 42.6499H45.25C45.25 43.3399 45.1 43.9998 44.834 44.5898L45.519 44.8999L46.203 45.2098C46.552 44.4298 46.75 43.5599 46.75 42.6499H46ZM45.519 44.8999L44.971 45.4099C45.765 46.2599 46.25 47.3999 46.25 48.6499H47H47.75C47.75 46.9999 47.109 45.4999 46.067 44.3899L45.519 44.8999ZM47 48.6499H46.25C46.25 51.2799 44.123 53.3999 41.5 53.3999V54.1499V54.8999C44.952 54.8999 47.75 52.0999 47.75 48.6499H47ZM41.5 54.1499V53.3999C40.544 53.3999 39.655 53.1199 38.91 52.6299L38.5 53.2599L38.09 53.8899C39.071 54.5299 40.242 54.8999 41.5 54.8999V54.1499ZM38.5 53.2599L38.09 52.6299C37.345 53.1199 36.456 53.3999 35.5 53.3999V54.1499V54.8999C36.758 54.8999 37.929 54.5299 38.91 53.8899L38.5 53.2599ZM35.5 54.1499V53.3999C34.139 53.3999 32.913 52.8299 32.046 51.9099L31.5 52.4199L30.954 52.9398C32.093 54.1498 33.708 54.8999 35.5 54.8999V54.1499ZM31.5 52.4199L30.954 51.9099C30.087 52.8299 28.861 53.3999 27.5 53.3999V54.1499V54.8999C29.292 54.8999 30.907 54.1498 32.046 52.9398L31.5 52.4199ZM27.5 54.1499V53.3999C26.351 53.3999 25.299 52.9898 24.478 52.3198L24 52.8899L23.522 53.4698C24.603 54.3598 25.989 54.8999 27.5 54.8999V54.1499ZM24 52.8899L23.522 52.3198C22.701 52.9898 21.649 53.3999 20.5 53.3999V54.1499V54.8999C22.011 54.8999 23.397 54.3598 24.478 53.4698L24 52.8899ZM20.5 54.1499V53.3999C19.351 53.3999 18.299 52.9898 17.478 52.3198L17 52.8899L16.522 53.4698C17.603 54.3598 18.989 54.8999 20.5 54.8999V54.1499ZM17 52.8899L16.522 52.3198C15.701 52.9898 14.649 53.3999 13.5 53.3999V54.1499V54.8999C15.011 54.8999 16.397 54.3598 17.478 53.4698L17 52.8899ZM13.5 54.1499V53.3999C12.722 53.3999 11.989 53.2099 11.341 52.8799L11 53.5499L10.659 54.2198C11.511 54.6498 12.477 54.8999 13.5 54.8999V54.1499ZM11 53.5499L10.659 52.8799C10.011 53.2099 9.278 53.3999 8.5 53.3999V54.1499V54.8999C9.523 54.8999 10.489 54.6498 11.341 54.2198L11 53.5499ZM8.5 54.1499V53.3999C5.877 53.3999 3.75 51.2799 3.75 48.6499H3H2.25C2.25 52.0999 5.048 54.8999 8.5 54.8999V54.1499ZM3 48.6499H3.75C3.75 47.3999 4.23501 46.2599 5.02901 45.4099L4.48 44.8999L3.93201 44.3899C2.89001 45.4999 2.25 46.9999 2.25 48.6499H3ZM4.48 44.8999L5.16499 44.5898C4.89899 43.9998 4.75 43.3399 4.75 42.6499H4H3.25C3.25 43.5599 3.44601 44.4298 3.79601 45.2098L4.48 44.8999ZM4 42.6499H4.75C4.75 40.8099 5.80199 39.2099 7.34299 38.4199L7.00201 37.7499L6.66101 37.0798C4.63801 38.1198 3.25 40.2199 3.25 42.6499H4ZM7.00201 37.7499L7.75201 37.7399C7.75101 37.6799 7.75 37.6799 7.75 37.6499H7H6.25C6.25 37.6899 6.25201 37.7599 6.25201 37.7599L7.00201 37.7499ZM7 37.6499H7.75C7.75 35.4799 9.21299 33.6398 11.21 33.0798L11.007 32.3599L10.804 31.6399C8.17699 32.3799 6.25 34.7899 6.25 37.6499H7ZM11.007 32.3599L11.756 32.3999C11.867 30.2899 13.358 28.5399 15.345 28.0399L15.163 27.3099L14.981 26.5898C12.368 27.2398 10.404 29.5398 10.258 32.3198L11.007 32.3599ZM15.163 27.3099L15.891 27.4999C16.406 25.4299 18.276 23.8999 20.5 23.8999V23.1499V22.3999C17.571 22.3999 15.114 24.4199 14.435 27.1299L15.163 27.3099ZM20.5 23.1499V23.8999C20.527 23.8999 20.527 23.8999 20.586 23.8999L20.6 23.1499L20.613 22.3999C20.606 22.3999 20.539 22.3999 20.5 22.3999V23.1499ZM20.6 23.1499L21.268 23.4899C22.055 21.9499 23.655 20.8999 25.5 20.8999V20.1499V19.3999C23.069 19.3999 20.965 20.7899 19.932 22.8099L20.6 23.1499Z" fill="#1A1A1A"/>
<path d="M16 34.1499C17.1045 34.1499 17.9999 34.8215 18 35.6499C18 36.4783 17.1046 37.1499 16 37.1499C14.8954 37.1499 14 36.4783 14 35.6499C14.0001 34.8215 14.8955 34.1499 16 34.1499ZM34 34.1499C35.1045 34.1499 35.9999 34.8215 36 35.6499C36 36.4783 35.1046 37.1499 34 37.1499C32.8954 37.1499 32 36.4783 32 35.6499C32.0001 34.8215 32.8955 34.1499 34 34.1499Z" fill="#FFAFA3"/>
<path d="M27.5042 35.0433C27.7997 34.7532 28.2745 34.7577 28.5648 35.053C28.8548 35.3485 28.8503 35.8233 28.555 36.1136L28.4329 36.2337L28.431 36.2347L27.9075 35.6985L27.848 35.638L28.431 36.2347C26.7507 37.8751 24.0489 37.81 22.4505 36.0892C22.1686 35.7857 22.1861 35.3105 22.4896 35.0286C22.793 34.7467 23.2682 34.7642 23.5501 35.0677C24.5748 36.1708 26.3061 36.2129 27.3831 35.1614V35.1624L27.5042 35.0433Z" fill="#1A1A1A"/>
<path d="M30.1965 32.155C30.8564 32.155 31.3915 32.69 31.3915 33.35C31.3915 34.01 30.8564 34.545 30.1965 34.545C29.5365 34.545 29.0015 34.01 29.0015 33.35C29.0015 32.69 29.5365 32.155 30.1965 32.155Z" fill="#1A1A1A"/>
<path d="M20.1965 32.155C19.5365 32.155 19.0015 32.69 19.0015 33.35C19.0015 34.01 19.5365 34.545 20.1965 34.545C20.8564 34.545 21.3915 34.01 21.3915 33.35C21.3915 32.69 20.8564 32.155 20.1965 32.155Z" fill="#1A1A1A"/>
</svg>
