<svg width="48" height="55" viewBox="0 0 48 55" fill="none" xmlns="http://www.w3.org/2000/svg">
<path d="M25.5 20.1499C27.6378 20.1499 29.4893 21.3699 30.3994 23.1499C30.4329 23.1499 30.4664 23.1499 30.5 23.1499C33.0764 23.1499 35.2387 24.9199 35.8359 27.3099C38.228 27.9099 40 30.0799 40 32.6499C40 32.6899 39.9977 32.7199 39.9971 32.7499C41.7792 33.6599 43 35.5099 43 37.6499C43 37.6899 42.9977 37.7199 42.9971 37.7499C44.7792 38.6599 46 40.5099 46 42.6499C46 43.4499 45.8263 44.2099 45.5186 44.8999C46.4368 45.8799 47 47.1999 47 48.6499C47 51.6899 44.5376 54.1499 41.5 54.1499C40.3928 54.1499 39.363 53.8199 38.5 53.2599C37.637 53.8199 36.6072 54.1499 35.5 54.1499C33.9233 54.1499 32.5028 53.4899 31.5 52.4199C30.4972 53.4899 29.0767 54.1499 27.5 54.1499C26.1702 54.1499 24.951 53.6799 24 52.8899C23.049 53.6799 21.8298 54.1499 20.5 54.1499C19.1702 54.1499 17.951 53.6799 17 52.8899C16.049 53.6799 14.8298 54.1499 13.5 54.1499C12.5995 54.1499 11.7503 53.9299 11 53.5499C10.2497 53.9299 9.40052 54.1499 8.5 54.1499C5.46243 54.1499 3 51.6899 3 48.6499C3 47.1999 3.56246 45.8799 4.48047 44.8999C4.17279 44.2099 4 43.4499 4 42.6499C4 40.5099 5.22025 38.6599 7.00195 37.7499C7.00136 37.7199 7 37.6899 7 37.6499C7 35.1299 8.69496 33.0099 11.0068 32.3599C11.1356 29.9099 12.8631 27.8899 15.1631 27.3099C15.7603 24.9199 17.9235 23.1499 20.5 23.1499C20.5333 23.1499 20.5665 23.1499 20.5996 23.1499C21.5097 21.3699 23.362 20.1499 25.5 20.1499Z" fill="#F5F5F5"/>
<path d="M24.6055 26.7754C25.1759 26.7347 26.5042 26.6953 27.7793 26.8692C27.8062 26.8728 27.833 26.8789 27.8604 26.8828C28.6567 26.8973 29.8069 27.0476 30.7032 27.8467L30.7022 27.8477C31.7359 28.7686 32.4819 29.8148 33.0782 30.9658H33.0791C33.609 31.9836 33.6417 33.0959 33.5908 33.9024C33.5383 34.7344 33.3688 35.558 33.2696 36.0762C32.8901 38.0645 31.6112 39.8928 30.333 41.0772L30.3321 41.0762C29.0818 42.2471 27.6348 42.6151 26.3672 42.7559L25.834 42.8047H25.8301C23.7686 42.95 21.9776 42.5762 20.1709 41.7959L20.1631 41.792L19.9932 41.711C19.611 41.5124 19.3209 41.2531 19.128 41.0576C18.8911 40.8176 18.6887 40.5591 18.5274 40.332C18.3663 40.1054 18.2216 39.8745 18.0987 39.667L17.8028 39.1406L17.7998 39.1348C17.0893 37.7916 16.7771 36.3081 17.1758 34.666C16.9598 33.1672 17.2326 31.2685 18.4024 29.8613L18.4043 29.8594C18.971 29.1791 19.5927 28.3378 20.875 27.6992L21.1123 27.586C22.2969 27.0433 23.4726 26.8505 24.6055 26.7754Z" fill="#DC3412"/>
<path d="M16.4824 43.9497C20.7455 44.2097 28.9217 44.5202 32.5557 44.0102C32.848 43.9702 33.119 44.1704 33.1484 44.4604C33.4308 47.2752 33.9954 51.904 34.582 54.0727C33.3762 53.8707 32.3038 53.278 31.5 52.4204C30.4972 53.4903 29.0766 54.1499 27.5 54.1499C26.1702 54.1499 24.951 53.6801 24 52.8901C23.049 53.6801 21.8298 54.1499 20.5 54.1499C19.1702 54.1499 17.951 53.6801 17 52.8901C16.4539 53.3437 15.8191 53.6906 15.126 53.9048C15.4277 50.9165 15.8576 46.3827 15.9385 44.4497C15.9507 44.1599 16.1942 43.9297 16.4824 43.9497Z" fill="#F7FDFF"/>
<path d="M16.4824 43.9497C20.7455 44.2097 28.9217 44.5202 32.5557 44.0102C32.848 43.9702 33.119 44.1704 33.1484 44.4604C33.4308 47.2752 33.9954 51.904 34.582 54.0727C33.3762 53.8707 32.3038 53.278 31.5 52.4204C30.4972 53.4903 29.0766 54.1499 27.5 54.1499C26.1702 54.1499 24.951 53.6801 24 52.8901C23.049 53.6801 21.8298 54.1499 20.5 54.1499C19.1702 54.1499 17.951 53.6801 17 52.8901C16.4539 53.3437 15.8191 53.6906 15.126 53.9048C15.4277 50.9165 15.8576 46.3827 15.9385 44.4497C15.9507 44.1599 16.1942 43.9297 16.4824 43.9497Z" fill="#2C2C2C"/>
<path d="M30.3994 23.1499L29.7315 23.4999C29.8619 23.7499 30.1263 23.9099 30.4129 23.8999L30.3994 23.1499ZM35.8359 27.3099L35.1083 27.4999C35.1754 27.7699 35.3854 27.9799 35.6544 28.0399L35.8359 27.3099ZM39.9971 32.7499L39.2472 32.7399C39.2421 33.0199 39.4008 33.2899 39.656 33.4199L39.9971 32.7499ZM42.9971 37.7499L42.2472 37.7399C42.2421 38.0199 42.4008 38.2899 42.656 38.4199L42.9971 37.7499ZM45.5186 44.8999L44.8342 44.5898C44.7107 44.8698 44.7644 45.1899 44.9705 45.4099L45.5186 44.8999ZM38.5 53.2599L38.9098 52.6299C38.6607 52.4699 38.3393 52.4699 38.0902 52.6299L38.5 53.2599ZM31.5 52.4199L32.0455 51.9099C31.9038 51.7599 31.7065 51.6699 31.5 51.6699C31.2935 51.6699 31.0962 51.7599 30.9545 51.9099L31.5 52.4199ZM24 52.8899L24.4776 52.3198C24.2004 52.0898 23.7996 52.0898 23.5224 52.3198L24 52.8899ZM17 52.8899L17.4776 52.3198C17.2004 52.0898 16.7996 52.0898 16.5224 52.3198L17 52.8899ZM11 53.5499L11.3415 52.8799C11.127 52.7699 10.873 52.7699 10.6585 52.8799L11 53.5499ZM4.48047 44.8999L5.02856 45.4099C5.23464 45.1899 5.28834 44.8698 5.16483 44.5898L4.48047 44.8999ZM7.00195 37.7499L7.34311 38.4199C7.59831 38.2899 7.75692 38.0199 7.75183 37.7399L7.00195 37.7499ZM11.0068 32.3599L11.2101 33.0798C11.5194 32.9898 11.7389 32.7199 11.7558 32.3999L11.0068 32.3599ZM15.1631 27.3099L15.3448 28.0399C15.6137 27.9799 15.8236 27.7699 15.8907 27.4999L15.1631 27.3099ZM20.5996 23.1499L20.5863 23.8999C20.8728 23.9099 21.1372 23.7499 21.2675 23.4899L20.5996 23.1499ZM25.5 20.1499V20.8999C27.3448 20.8999 28.9444 21.9499 29.7315 23.4999L30.3994 23.1499L31.0673 22.8099C30.0342 20.7899 27.9308 19.3999 25.5 19.3999V20.1499ZM30.3994 23.1499L30.4129 23.8999C30.4712 23.8999 30.4729 23.8999 30.5 23.8999V23.1499V22.3999C30.4599 22.3999 30.3945 22.3999 30.386 22.3999L30.3994 23.1499ZM30.5 23.1499V23.8999C32.724 23.8999 34.5924 25.4299 35.1083 27.4999L35.8359 27.3099L36.5636 27.1299C35.8849 24.4199 33.4289 22.3999 30.5 22.3999V23.1499ZM35.8359 27.3099L35.6544 28.0399C37.7202 28.5599 39.25 30.4299 39.25 32.6499H40H40.75C40.75 29.7199 38.7357 27.2698 36.0175 26.5898L35.8359 27.3099ZM40 32.6499H39.25C39.25 32.6499 39.25 32.6499 39.2499 32.6599C39.2498 32.6599 39.2496 32.6599 39.2493 32.6699C39.2489 32.6799 39.2477 32.7099 39.2472 32.7399L39.9971 32.7499L40.747 32.7599C40.7471 32.7599 40.7473 32.7499 40.7482 32.7299C40.7489 32.7099 40.75 32.6799 40.75 32.6499H40ZM39.9971 32.7499L39.656 33.4199C41.1973 34.2099 42.25 35.8099 42.25 37.6499H43H43.75C43.75 35.2199 42.3611 33.1198 40.3381 32.0798L39.9971 32.7499ZM43 37.6499H42.25C42.25 37.6499 42.25 37.6499 42.2499 37.6599C42.2498 37.6599 42.2496 37.6599 42.2493 37.6699C42.2489 37.6799 42.2477 37.7099 42.2472 37.7399L42.9971 37.7499L43.747 37.7599C43.7471 37.7599 43.7473 37.7499 43.7482 37.7299C43.7489 37.7099 43.75 37.6799 43.75 37.6499H43ZM42.9971 37.7499L42.656 38.4199C44.1973 39.2099 45.25 40.8099 45.25 42.6499H46H46.75C46.75 40.2199 45.3611 38.1198 43.3381 37.0798L42.9971 37.7499ZM46 42.6499H45.25C45.25 43.3399 45.1003 43.9998 44.8342 44.5898L45.5186 44.8999L46.2029 45.2098C46.5524 44.4298 46.75 43.5599 46.75 42.6499H46ZM45.5186 44.8999L44.9705 45.4099C45.7646 46.2599 46.25 47.3999 46.25 48.6499H47H47.75C47.75 46.9999 47.1091 45.4999 46.0666 44.3899L45.5186 44.8999ZM47 48.6499H46.25C46.25 51.2799 44.1234 53.3999 41.5 53.3999V54.1499V54.8999C44.9518 54.8999 47.75 52.0999 47.75 48.6499H47ZM41.5 54.1499V53.3999C40.5435 53.3999 39.6553 53.1199 38.9098 52.6299L38.5 53.2599L38.0902 53.8899C39.0707 54.5299 40.2421 54.8999 41.5 54.8999V54.1499ZM38.5 53.2599L38.0902 52.6299C37.3447 53.1199 36.4565 53.3999 35.5 53.3999V54.1499V54.8999C36.7579 54.8999 37.9293 54.5299 38.9098 53.8899L38.5 53.2599ZM35.5 54.1499V53.3999C34.1388 53.3999 32.913 52.8299 32.0455 51.9099L31.5 52.4199L30.9545 52.9398C32.0927 54.1498 33.7078 54.8999 35.5 54.8999V54.1499ZM31.5 52.4199L30.9545 51.9099C30.087 52.8299 28.8612 53.3999 27.5 53.3999V54.1499V54.8999C29.2922 54.8999 30.9073 54.1498 32.0455 52.9398L31.5 52.4199ZM27.5 54.1499V53.3999C26.3511 53.3999 25.2993 52.9898 24.4776 52.3198L24 52.8899L23.5224 53.4698C24.6026 54.3598 25.9894 54.8999 27.5 54.8999V54.1499ZM24 52.8899L23.5224 52.3198C22.7007 52.9898 21.6489 53.3999 20.5 53.3999V54.1499V54.8999C22.0106 54.8999 23.3974 54.3598 24.4776 53.4698L24 52.8899ZM20.5 54.1499V53.3999C19.3511 53.3999 18.2993 52.9898 17.4776 52.3198L17 52.8899L16.5224 53.4698C17.6026 54.3598 18.9894 54.8999 20.5 54.8999V54.1499ZM17 52.8899L16.5224 52.3198C15.7007 52.9898 14.6489 53.3999 13.5 53.3999V54.1499V54.8999C15.0106 54.8999 16.3974 54.3598 17.4776 53.4698L17 52.8899ZM13.5 54.1499V53.3999C12.7219 53.3999 11.9893 53.2099 11.3415 52.8799L11 53.5499L10.6585 54.2198C11.5112 54.6498 12.4771 54.8999 13.5 54.8999V54.1499ZM11 53.5499L10.6585 52.8799C10.0107 53.2099 9.27812 53.3999 8.5 53.3999V54.1499V54.8999C9.52293 54.8999 10.4888 54.6498 11.3415 54.2198L11 53.5499ZM8.5 54.1499V53.3999C5.87665 53.3999 3.75 51.2799 3.75 48.6499H3H2.25C2.25 52.0999 5.04822 54.8999 8.5 54.8999V54.1499ZM3 48.6499H3.75C3.75 47.3999 4.23493 46.2599 5.02856 45.4099L4.48047 44.8999L3.93238 44.3899C2.88998 45.4999 2.25 46.9999 2.25 48.6499H3ZM4.48047 44.8999L5.16483 44.5898C4.89908 43.9998 4.75 43.3399 4.75 42.6499H4H3.25C3.25 43.5599 3.44649 44.4298 3.79611 45.2098L4.48047 44.8999ZM4 42.6499H4.75C4.75 40.8099 5.80233 39.2099 7.34311 38.4199L7.00195 37.7499L6.66079 37.0798C4.63817 38.1198 3.25 40.2199 3.25 42.6499H4ZM7.00195 37.7499L7.75183 37.7399C7.75078 37.6799 7.75 37.6799 7.75 37.6499H7H6.25C6.25 37.6899 6.25195 37.7599 6.25207 37.7599L7.00195 37.7499ZM7 37.6499H7.75C7.75 35.4799 9.21286 33.6398 11.2101 33.0798L11.0068 32.3599L10.8036 31.6399C8.17707 32.3799 6.25 34.7899 6.25 37.6499H7ZM11.0068 32.3599L11.7558 32.3999C11.8669 30.2899 13.3584 28.5399 15.3448 28.0399L15.1631 27.3099L14.9814 26.5898C12.3677 27.2398 10.4043 29.5398 10.2579 32.3198L11.0068 32.3599ZM15.1631 27.3099L15.8907 27.4999C16.4065 25.4299 18.2757 23.8999 20.5 23.8999V23.1499V22.3999C17.5712 22.3999 15.114 24.4199 14.4354 27.1299L15.1631 27.3099ZM20.5 23.1499V23.8999C20.5273 23.8999 20.5269 23.8999 20.5863 23.8999L20.5996 23.1499L20.6129 22.3999C20.606 22.3999 20.5392 22.3999 20.5 22.3999V23.1499ZM20.5996 23.1499L21.2675 23.4899C22.0545 21.9499 23.6548 20.8999 25.5 20.8999V20.1499V19.3999C23.0692 19.3999 20.9648 20.7899 19.9317 22.8099L20.5996 23.1499Z" fill="#1A1A1A"/>
<path d="M16 34.1499C17.1045 34.1499 17.9999 34.8215 18 35.6499C18 36.4783 17.1046 37.1499 16 37.1499C14.8954 37.1499 14 36.4783 14 35.6499C14.0001 34.8215 14.8955 34.1499 16 34.1499ZM34 34.1499C35.1045 34.1499 35.9999 34.8215 36 35.6499C36 36.4783 35.1046 37.1499 34 37.1499C32.8954 37.1499 32 36.4783 32 35.6499C32.0001 34.8215 32.8955 34.1499 34 34.1499Z" fill="#FFAFA3"/>
<path d="M27.5042 35.0433C27.7997 34.7532 28.2745 34.7577 28.5648 35.053C28.8548 35.3485 28.8503 35.8233 28.555 36.1136L28.4329 36.2337L28.431 36.2347L27.9075 35.6985L27.848 35.638L28.431 36.2347C26.7507 37.8751 24.0489 37.81 22.4505 36.0892C22.1686 35.7857 22.1861 35.3105 22.4896 35.0286C22.793 34.7467 23.2682 34.7642 23.5501 35.0677C24.5748 36.1708 26.3061 36.2129 27.3831 35.1614V35.1624L27.5042 35.0433Z" fill="#1A1A1A"/>
<path d="M30.195 32.1538C30.855 32.1538 31.39 32.6888 31.39 33.3488C31.39 34.0088 30.855 34.5438 30.195 34.5438C29.535 34.5438 29 34.0088 29 33.3488C29 32.6888 29.535 32.1538 30.195 32.1538Z" fill="#1A1A1A"/>
<path d="M20.195 32.1538C19.535 32.1538 19 32.6888 19 33.3488C19 34.0088 19.535 34.5438 20.195 34.5438C20.855 34.5438 21.39 34.0088 21.39 33.3488C21.39 32.6888 20.855 32.1538 20.195 32.1538Z" fill="#1A1A1A"/>
</svg>
