<svg width="48" height="55" viewBox="0 0 48 55" fill="none" xmlns="http://www.w3.org/2000/svg">
<path fill-rule="evenodd" clip-rule="evenodd" d="M35.5 54.1499C36.607 54.1499 37.637 53.8199 38.5 53.2599C39.363 53.8199 40.393 54.1499 41.5 54.1499C44.538 54.1499 47 51.6899 47 48.6499C47 47.1999 46.439 45.8799 45.521 44.8999C45.829 44.2099 46 43.4499 46 42.6499C46 40.5099 44.78 38.6599 42.999 37.7499C43 37.7199 43 37.6899 43 37.6499C43 35.5099 41.78 33.6599 39.999 32.7499C40 32.7199 40 32.6899 40 32.6499C40 30.0799 38.228 27.9098 35.836 27.3198C35.239 24.9198 33.077 23.1499 30.5 23.1499C30.467 23.1499 30.434 23.1499 30.401 23.1499C29.491 21.3699 27.638 20.1499 25.5 20.1499C23.362 20.1499 21.509 21.3699 20.599 23.1499C20.566 23.1499 20.533 23.1499 20.5 23.1499C17.923 23.1499 15.761 24.9198 15.164 27.3198C12.864 27.8898 11.137 29.9099 11.008 32.3599C8.695 33.0099 7 35.1299 7 37.6499C7 37.6899 7.00001 37.7199 7.00101 37.7499C5.22001 38.6599 4 40.5099 4 42.6499C4 43.4499 4.171 44.2099 4.479 44.8999C3.561 45.8799 3 47.1999 3 48.6499C3 51.6899 5.462 54.1499 8.5 54.1499C9.4 54.1499 10.25 53.9399 11 53.5499C11.75 53.9399 12.6 54.1499 13.5 54.1499C14.83 54.1499 16.049 53.6799 17 52.8899C17.951 53.6799 19.17 54.1499 20.5 54.1499C21.83 54.1499 23.049 53.6799 24 52.8899C24.951 53.6799 26.17 54.1499 27.5 54.1499C29.076 54.1499 30.497 53.4899 31.5 52.4299C32.503 53.4899 33.924 54.1499 35.5 54.1499Z" fill="#F5F5F5"/>
<path d="M16.4902 41.1899C20.7422 41.5199 28.8743 41.8999 32.5225 41.27C32.8253 41.22 33.1154 41.43 33.1406 41.7397C33.4295 45.3554 34.0297 51.4799 34.6436 54.0835C33.413 53.8918 32.3176 53.2942 31.5 52.4302C30.497 53.4902 29.076 54.1499 27.5 54.1499C26.17 54.1499 24.951 53.6801 24 52.8901C23.049 53.6801 21.83 54.1499 20.5 54.1499C19.17 54.1499 17.951 53.6801 17 52.8901C16.4473 53.3493 15.8036 53.6991 15.1006 53.9126C15.4082 50.1378 15.871 44.0861 15.9434 41.6899C15.9525 41.4 16.1993 41.1699 16.4902 41.1899Z" fill="#2C2C2C"/>
<path d="M38.5 53.2599L38.91 52.6299C38.661 52.4699 38.339 52.4699 38.09 52.6299L38.5 53.2599ZM45.521 44.8999L44.837 44.5898C44.713 44.8698 44.767 45.1899 44.973 45.4099L45.521 44.8999ZM42.999 37.7499L42.249 37.7399C42.244 38.0199 42.403 38.2899 42.658 38.4199L42.999 37.7499ZM39.999 32.7499L39.249 32.7399C39.244 33.0199 39.403 33.2899 39.658 33.4199L39.999 32.7499ZM35.836 27.3198L35.109 27.4999C35.176 27.7699 35.386 27.9799 35.655 28.0399L35.836 27.3198ZM30.401 23.1499L29.733 23.4899C29.863 23.7499 30.128 23.9099 30.414 23.8999L30.401 23.1499ZM20.599 23.1499L20.586 23.8999C20.872 23.9099 21.137 23.7499 21.267 23.4899L20.599 23.1499ZM15.164 27.3198L15.345 28.0399C15.614 27.9799 15.824 27.7699 15.891 27.4999L15.164 27.3198ZM11.008 32.3599L11.211 33.0798C11.52 32.9898 11.74 32.7199 11.757 32.3999L11.008 32.3599ZM7.00101 37.7499L7.34201 38.4199C7.59701 38.2899 7.75601 38.0199 7.75101 37.7399L7.00101 37.7499ZM4.479 44.8999L5.02701 45.4099C5.23301 45.1899 5.28699 44.8698 5.16299 44.5898L4.479 44.8999ZM11 53.5499L11.341 52.8799C11.127 52.7699 10.873 52.7699 10.659 52.8799L11 53.5499ZM17 52.8899L17.478 52.3198C17.2 52.0898 16.8 52.0898 16.522 52.3198L17 52.8899ZM24 52.8899L24.478 52.3198C24.2 52.0898 23.8 52.0898 23.522 52.3198L24 52.8899ZM31.5 52.4299L32.045 51.9099C31.904 51.7599 31.706 51.6799 31.5 51.6799C31.294 51.6799 31.096 51.7599 30.955 51.9099L31.5 52.4299ZM38.09 52.6299C37.346 53.1199 36.457 53.3999 35.5 53.3999V54.8999C36.757 54.8999 37.929 54.5299 38.91 53.8899L38.09 52.6299ZM41.5 53.3999C40.543 53.3999 39.654 53.1199 38.91 52.6299L38.09 53.8899C39.071 54.5299 40.243 54.8999 41.5 54.8999V53.3999ZM46.25 48.6499C46.25 51.2799 44.123 53.3999 41.5 53.3999V54.8999C44.952 54.8999 47.75 52.0999 47.75 48.6499H46.25ZM44.973 45.4099C45.766 46.2599 46.25 47.3999 46.25 48.6499H47.75C47.75 46.9999 47.111 45.4999 46.069 44.3899L44.973 45.4099ZM45.25 42.6499C45.25 43.3399 45.102 43.9998 44.837 44.5898L46.206 45.2098C46.556 44.4298 46.75 43.5599 46.75 42.6499H45.25ZM42.658 38.4199C44.198 39.2099 45.25 40.8099 45.25 42.6499H46.75C46.75 40.2199 45.363 38.1198 43.34 37.0798L42.658 38.4199ZM42.25 37.6499C42.25 37.6799 42.25 37.7099 42.249 37.7399L43.749 37.7599C43.75 37.7299 43.75 37.6899 43.75 37.6499H42.25ZM39.658 33.4199C41.198 34.2099 42.25 35.8099 42.25 37.6499H43.75C43.75 35.2199 42.363 33.1198 40.34 32.0798L39.658 33.4199ZM39.25 32.6499C39.25 32.6799 39.25 32.7099 39.249 32.7399L40.749 32.7599C40.75 32.7299 40.75 32.6899 40.75 32.6499H39.25ZM35.655 28.0399C37.72 28.5599 39.25 30.4299 39.25 32.6499H40.75C40.75 29.7199 38.736 27.2698 36.018 26.5898L35.655 28.0399ZM30.5 23.8999C32.724 23.8999 34.593 25.4299 35.109 27.4999L36.564 27.1299C35.886 24.4199 33.429 22.3999 30.5 22.3999V23.8999ZM30.414 23.8999C30.443 23.8999 30.471 23.8999 30.5 23.8999V22.3999C30.462 22.3999 30.425 22.3999 30.387 22.3999L30.414 23.8999ZM25.5 20.8999C27.345 20.8999 28.946 21.9499 29.733 23.4899L31.069 22.8099C30.035 20.7899 27.93 19.3999 25.5 19.3999V20.8999ZM21.267 23.4899C22.054 21.9499 23.655 20.8999 25.5 20.8999V19.3999C23.07 19.3999 20.965 20.7899 19.931 22.8099L21.267 23.4899ZM20.5 23.8999C20.529 23.8999 20.557 23.8999 20.586 23.8999L20.613 22.3999C20.575 22.3999 20.538 22.3999 20.5 22.3999V23.8999ZM15.891 27.4999C16.407 25.4299 18.276 23.8999 20.5 23.8999V22.3999C17.571 22.3999 15.114 24.4199 14.436 27.1299L15.891 27.4999ZM11.757 32.3999C11.868 30.2899 13.359 28.5399 15.345 28.0399L14.982 26.5898C12.368 27.2398 10.406 29.5398 10.259 32.3198L11.757 32.3999ZM7.75 37.6499C7.75 35.4799 9.213 33.6398 11.211 33.0798L10.805 31.6299C8.17699 32.3699 6.25 34.7899 6.25 37.6499H7.75ZM7.75101 37.7399C7.75001 37.7099 7.75 37.6799 7.75 37.6499H6.25C6.25 37.6899 6.25001 37.7299 6.25101 37.7599L7.75101 37.7399ZM4.75 42.6499C4.75 40.8099 5.80201 39.2099 7.34201 38.4199L6.66 37.0798C4.637 38.1198 3.25 40.2199 3.25 42.6499H4.75ZM5.16299 44.5898C4.89799 43.9998 4.75 43.3399 4.75 42.6499H3.25C3.25 43.5599 3.44401 44.4298 3.79401 45.2098L5.16299 44.5898ZM3.75 48.6499C3.75 47.3999 4.23401 46.2599 5.02701 45.4099L3.931 44.3899C2.889 45.4999 2.25 46.9999 2.25 48.6499H3.75ZM8.5 53.3999C5.877 53.3999 3.75 51.2799 3.75 48.6499H2.25C2.25 52.0999 5.048 54.8999 8.5 54.8999V53.3999ZM10.659 52.8799C10.012 53.2199 9.279 53.3999 8.5 53.3999V54.8999C9.522 54.8999 10.488 54.6598 11.341 54.2198L10.659 52.8799ZM13.5 53.3999C12.721 53.3999 11.988 53.2199 11.341 52.8799L10.659 54.2198C11.512 54.6598 12.478 54.8999 13.5 54.8999V53.3999ZM16.522 52.3198C15.701 52.9898 14.649 53.3999 13.5 53.3999V54.8999C15.01 54.8999 16.397 54.3698 17.478 53.4698L16.522 52.3198ZM20.5 53.3999C19.351 53.3999 18.299 52.9898 17.478 52.3198L16.522 53.4698C17.603 54.3698 18.99 54.8999 20.5 54.8999V53.3999ZM23.522 52.3198C22.701 52.9898 21.649 53.3999 20.5 53.3999V54.8999C22.01 54.8999 23.397 54.3698 24.478 53.4698L23.522 52.3198ZM27.5 53.3999C26.351 53.3999 25.299 52.9898 24.478 52.3198L23.522 53.4698C24.603 54.3698 25.99 54.8999 27.5 54.8999V53.3999ZM30.955 51.9099C30.088 52.8299 28.861 53.3999 27.5 53.3999V54.8999C29.291 54.8999 30.907 54.1498 32.045 52.9398L30.955 51.9099ZM35.5 53.3999C34.139 53.3999 32.912 52.8299 32.045 51.9099L30.955 52.9398C32.093 54.1498 33.709 54.8999 35.5 54.8999V53.3999Z" fill="#1A1A1A"/>
<path d="M16 34.1499C17.1045 34.1499 17.9999 34.8215 18 35.6499C18 36.4783 17.1046 37.1499 16 37.1499C14.8954 37.1499 14 36.4783 14 35.6499C14.0001 34.8215 14.8955 34.1499 16 34.1499ZM34 34.1499C35.1045 34.1499 35.9999 34.8215 36 35.6499C36 36.4783 35.1046 37.1499 34 37.1499C32.8954 37.1499 32 36.4783 32 35.6499C32.0001 34.8215 32.8955 34.1499 34 34.1499Z" fill="#FFAFA3"/>
<path d="M27.5042 35.0433C27.7997 34.7532 28.2745 34.7577 28.5648 35.053C28.8548 35.3485 28.8503 35.8233 28.555 36.1136L28.4329 36.2337L28.431 36.2347L27.9075 35.6985L27.848 35.638L28.431 36.2347C26.7507 37.8751 24.0489 37.81 22.4505 36.0892C22.1686 35.7857 22.1861 35.3105 22.4896 35.0286C22.793 34.7467 23.2682 34.7642 23.5501 35.0677C24.5748 36.1708 26.3061 36.2129 27.3831 35.1614V35.1624L27.5042 35.0433Z" fill="#1A1A1A"/>
<path d="M30.1965 32.155C30.8564 32.155 31.3915 32.69 31.3915 33.35C31.3915 34.01 30.8564 34.545 30.1965 34.545C29.5365 34.545 29.0015 34.01 29.0015 33.35C29.0015 32.69 29.5365 32.155 30.1965 32.155Z" fill="#1A1A1A"/>
<path d="M20.1965 32.155C19.5365 32.155 19.0015 32.69 19.0015 33.35C19.0015 34.01 19.5365 34.545 20.1965 34.545C20.8564 34.545 21.3915 34.01 21.3915 33.35C21.3915 32.69 20.8564 32.155 20.1965 32.155Z" fill="#1A1A1A"/>
</svg>
