<svg width="48" height="55" viewBox="0 0 48 55" fill="none" xmlns="http://www.w3.org/2000/svg">
<path d="M23.9817 46.1697C23.7847 45.8297 23.3507 45.6997 22.9947 45.8797C21.5427 46.5997 18.7447 46.9398 15.9277 46.4798C13.1127 46.0198 10.5367 44.7997 9.3157 42.6797C8.7207 41.6497 8.62471 40.1299 8.88971 38.1199C9.11971 36.3699 9.59969 34.3697 10.1247 32.1997C10.1987 31.8897 10.2737 31.5798 10.3497 31.2598C10.3547 31.2398 10.3587 31.2197 10.3617 31.1897C11.0127 26.7097 11.9947 23.0698 12.8637 20.0598C13.0507 19.4098 13.7147 19.0398 14.3497 19.2198C18.3657 20.3298 23.3157 21.9397 27.7717 23.6597C27.9647 23.7297 28.1577 23.7997 28.3477 23.8797C30.1407 24.5597 31.7997 25.1998 33.2287 25.9698C34.7997 26.8198 36.0147 27.7999 36.7697 29.1099C38.5957 32.2699 38.3287 35.2898 37.1207 37.5698C35.8897 39.8898 33.7177 41.3798 31.7887 41.5398C31.5237 41.5598 31.2897 41.7197 31.1737 41.9597C31.0577 42.1997 31.0777 42.4797 31.2247 42.6997L34.9127 48.2398C34.9907 48.3498 34.9567 48.5099 34.8367 48.5899L28.0747 52.8098C27.9547 52.8898 27.7957 52.8498 27.7247 52.7197L23.9817 46.1697Z" fill="#D9B8FF"/>
<path d="M12.1427 19.8522C12.4414 18.8145 13.5109 18.2064 14.549 18.4977C18.5833 19.6127 23.5506 21.2277 28.0265 22.9547H28.0275C28.2165 23.0232 28.4266 23.0982 28.6359 23.1861C30.413 23.8602 32.1105 24.5152 33.5841 25.3092L33.5861 25.3102C35.2204 26.1945 36.5677 27.2582 37.4191 28.735L37.5968 29.0524C39.3629 32.3341 39.065 35.5025 37.7834 37.9215C36.4583 40.4187 34.0844 42.1015 31.8507 42.2867L35.5373 47.8238H35.5353C35.8657 48.3099 35.6842 48.927 35.2531 49.2145C35.2468 49.2186 35.2399 49.2222 35.2335 49.2262L34.8371 48.5904L34.8332 48.5846L35.2335 49.2262L28.4904 53.4332C28.4868 53.4356 28.4832 53.4378 28.4796 53.4401L28.4718 53.4459L28.4709 53.4449C27.9802 53.7568 27.3492 53.5806 27.0734 53.0914L23.3341 46.5485L23.3283 46.5514C21.6891 47.3642 18.7176 47.6957 15.8068 47.2203C12.897 46.7448 10.0522 45.4585 8.66714 43.0543C7.94076 41.7967 7.87781 40.0612 8.14664 38.0221L9.63296 38.2184C9.37193 40.1986 9.5017 41.502 9.965 42.3043L9.2814 42.6998L9.31558 42.6803L9.965 42.3043L9.96597 42.3053C11.023 44.1406 13.329 45.2954 16.049 45.7399C18.7719 46.1844 21.3964 45.8347 22.6613 45.2076C23.3252 44.875 24.1268 45.0801 24.5509 45.6705L24.631 45.7936L24.633 45.7975L28.1193 51.8971L34.0021 48.2262L30.6007 43.1158V43.1149C30.307 42.6741 30.2668 42.1123 30.4982 41.6334C30.701 41.2137 31.086 40.9149 31.5363 40.8199L31.7326 40.7916C33.3558 40.6543 35.3225 39.3586 36.4582 37.2184L36.6535 36.8238C37.5763 34.8117 37.705 32.2274 36.1203 29.485L35.9914 29.2731C35.3244 28.2302 34.2858 27.3939 32.8732 26.6295V26.6305C31.495 25.8879 29.8828 25.2636 28.0822 24.5807C28.0738 24.5775 28.0651 24.5744 28.0568 24.5709C27.8872 24.4995 27.7118 24.4359 27.5158 24.3649L27.5021 24.36L25.8195 23.7242C22.4194 22.4661 18.8417 21.2962 15.6886 20.3795L14.1496 19.943L14.1457 19.941L14.0578 19.9264C13.8537 19.9114 13.6497 20.0395 13.5841 20.2672L12.8634 20.0602L13.5841 20.2682L13.256 21.4205C12.4815 24.179 11.667 27.4211 11.1037 31.2975L11.1027 31.2965C11.0964 31.3475 11.0882 31.3912 11.0783 31.4322L11.0793 31.4332C11.0035 31.7523 10.9276 32.0681 10.8546 32.3736L10.8537 32.3766L10.1252 32.1998L10.0959 32.193L10.8537 32.3766C10.3263 34.5565 9.8577 36.5151 9.63394 38.2174L8.14664 38.0221C8.38289 36.2246 8.87317 34.1827 9.39566 32.0231C9.46964 31.7132 9.54227 31.4132 9.61734 31.0973C9.61797 31.0922 9.61855 31.0868 9.61929 31.0817C10.2775 26.5519 11.2703 22.8741 12.1427 19.8522ZM28.3742 52.3473L27.9337 52.5992L27.9406 52.5963L27.9416 52.5953L28.3742 52.3473ZM31.8439 42.2828L31.7931 41.6012L31.7814 41.4479L31.8439 42.2828Z" fill="#1A1A1A"/>
<path d="M12.3301 19.3398L15.1631 24.9697L16.5031 24.2898L13.6701 18.6597L12.3301 19.3398ZM15.1631 24.9697C17.3041 29.2197 19.8101 33.2899 22.6551 37.1099L23.8581 36.2097C21.0661 32.4597 18.6051 28.4698 16.5031 24.2898L15.1631 24.9697Z" fill="#1A1A1A"/>
<path d="M26.957 38.72C26.957 39.23 26.661 39.82 26.131 40.3C25.602 40.77 24.949 41.05 24.407 41.05C23.884 41.05 23.498 40.83 23.223 40.47C22.933 40.09 22.75 39.5301 22.75 38.8701C22.75 37.6801 23.681 36.75 24.784 36.75C25.989 36.75 26.957 37.63 26.957 38.72Z" fill="white"/>
<path d="M26.207 38.7197C26.2069 38.111 25.645 37.5001 24.7842 37.5C24.1153 37.5 23.5 38.0742 23.5 38.8701C23.5 39.3999 23.6481 39.7902 23.8193 40.0146C23.9607 40.1997 24.1314 40.2998 24.4072 40.2998C24.7197 40.2997 25.2025 40.1216 25.6328 39.7393C26.0535 39.3561 26.207 38.956 26.207 38.7197ZM27.707 38.7197C27.707 39.5023 27.2699 40.2801 26.6348 40.8555L26.6289 40.8604C26.0014 41.4179 25.1787 41.7997 24.4072 41.7998C23.7333 41.7998 23.1884 41.5397 22.7891 41.1162L22.627 40.9248C22.2182 40.3892 22 39.6603 22 38.8701C22 37.2861 23.2471 36 24.7842 36C26.3329 36.0001 27.7069 37.1487 27.707 38.7197Z" fill="#1A1A1A"/>
<path d="M25.9461 26.9988C25.3634 26.9988 24.8911 27.4711 24.8911 28.0538C24.8911 28.6364 25.3634 29.1088 25.9461 29.1088C26.5288 29.1088 27.0011 28.6364 27.0011 28.0538C27.0011 27.4711 26.5288 26.9988 25.9461 26.9988Z" fill="#1A1A1A"/>
<path d="M29.9461 28.9988C30.5288 28.9988 31.0011 29.4711 31.0011 30.0538C31.0011 30.6364 30.5288 31.1088 29.9461 31.1088C29.3635 31.1088 28.8911 30.6364 28.8911 30.0538C28.8911 29.4711 29.3635 28.9988 29.9461 28.9988Z" fill="#1A1A1A"/>
</svg>
