<svg width="48" height="55" viewBox="0 0 48 55" fill="none" xmlns="http://www.w3.org/2000/svg">
<path d="M23.9823 46.1699C23.7847 45.8299 23.3513 45.6999 22.9952 45.8799C21.5427 46.5999 18.7445 46.94 15.9283 46.48C13.1126 46.02 10.5373 44.8 9.31601 42.68C8.72094 41.65 8.62448 40.1301 8.88981 38.1201C9.11993 36.3701 9.59989 34.37 10.1246 32.2C10.1989 31.89 10.274 31.58 10.3495 31.26C10.3548 31.24 10.3591 31.22 10.3623 31.19C11.0132 26.71 11.9947 23.0701 12.864 20.0601C13.0511 19.4101 13.7144 19.04 14.3499 19.22C18.3658 20.33 23.3155 21.9399 27.7718 23.6599C27.9654 23.7299 28.1575 23.7999 28.3481 23.8799C30.1414 24.5599 31.8004 25.2 33.2289 25.97C34.7997 26.82 36.015 27.8001 36.7696 29.1101C38.596 32.2701 38.3289 35.2901 37.1206 37.5701C35.8901 39.8901 33.7183 41.3801 31.7885 41.5401C31.5237 41.5601 31.2899 41.72 31.1741 41.96C31.0583 42.2 31.0777 42.48 31.2251 42.7L34.9128 48.24C34.991 48.35 34.9569 48.5101 34.8374 48.5901L28.0748 52.8101C27.9544 52.8901 27.7956 52.85 27.7252 52.72L23.9823 46.1699Z" fill="#F24822"/>
<path d="M12.1437 19.8524C12.4425 18.815 13.5104 18.2067 14.549 18.4979C18.5832 19.6129 23.5504 21.2279 28.0265 22.9549L28.3263 23.0643C28.421 23.1 28.5174 23.1382 28.6144 23.1785L29.9357 23.6854C31.0212 24.1085 32.0611 24.5394 33.0197 25.0174L33.5851 25.3094L33.5861 25.3104C35.2202 26.1946 36.5681 27.2582 37.4191 28.7352L37.5969 29.0526C39.3063 32.2286 39.0827 35.2982 37.9045 37.6854L37.7834 37.9217C36.459 40.4186 34.0859 42.1012 31.8517 42.2869L35.5373 47.824C35.8679 48.3106 35.6835 48.9268 35.2551 49.2137L34.8332 48.5838L34.8478 48.6072L35.2551 49.2137C35.2484 49.2181 35.2413 49.2221 35.2345 49.2264L28.4719 53.4461L28.4709 53.4451C27.9822 53.7553 27.3511 53.5832 27.0744 53.0916L23.3332 46.5467L23.3361 46.5496L23.3342 46.5486C23.3348 46.5486 23.3344 46.549 23.3332 46.5496L23.3283 46.5516C21.6887 47.3643 18.7178 47.6958 15.8078 47.2205C12.8969 46.745 10.0514 45.459 8.66619 43.0545L8.66717 43.0535C7.94124 41.7961 7.87754 40.0611 8.14666 38.0223L9.63396 38.2186C9.37256 40.1989 9.50245 41.5021 9.96599 42.3045C11.0233 44.1399 13.3286 45.2956 16.049 45.7401C18.6012 46.1569 21.0683 45.8757 22.4094 45.3221L22.6623 45.2078C23.3266 44.8753 24.1267 45.0808 24.551 45.6697L24.631 45.7928L24.634 45.7977L28.1193 51.8973L34.0021 48.2264L30.6017 43.118L30.5031 42.9461C30.3006 42.5356 30.2975 42.0527 30.4992 41.6346C30.7017 41.215 31.0853 40.9153 31.5353 40.8201L31.7326 40.7918C33.3565 40.6544 35.3231 39.3586 36.4582 37.2186C37.5513 35.1556 37.811 32.4105 36.1203 29.4852L35.9914 29.2733C35.3248 28.2305 34.2858 27.3942 32.8732 26.6297C31.4956 25.8871 29.8832 25.2638 28.0822 24.5809C28.0741 24.5778 28.0658 24.5745 28.0578 24.5711C27.887 24.4994 27.7115 24.4355 27.5168 24.3651L27.5021 24.3602L25.8195 23.7244C21.8527 22.2566 17.6444 20.9089 14.1506 19.9432L14.1457 19.9412L14.0588 19.9266C13.8544 19.9112 13.6509 20.0393 13.5851 20.2674L12.1437 19.8524ZM34.8937 48.2528L34.9133 48.2401L34.7092 48.3846L34.8937 48.2528ZM31.3342 42.6268L31.2658 42.6717L31.8439 42.2869L31.3342 42.6268ZM31.7883 41.5399L31.8498 42.285L31.7814 41.4481L31.7883 41.5399ZM13.5851 20.2674C12.7194 23.2652 11.7483 26.8678 11.1047 31.2977L11.1027 31.2967C11.0962 31.348 11.0872 31.3915 11.0773 31.4315L11.0793 31.4324C11.0034 31.7541 10.9274 32.0673 10.8537 32.3748V32.3768L10.1252 32.2L9.88103 32.1414L10.8537 32.3768C10.3266 34.5568 9.85785 36.5162 9.63396 38.2186L8.14666 38.0223C8.38301 36.225 8.87358 34.1837 9.39568 32.0242C9.47047 31.7122 9.5443 31.4057 9.61931 31.0877C9.61977 31.0858 9.61982 31.0838 9.62029 31.0819L9.74724 30.243C10.4018 26.0952 11.3255 22.6857 12.1437 19.8524L13.5851 20.2674ZM34.9201 48.2342L34.7053 48.3778L34.8937 48.2528L34.9201 48.2342Z" fill="#1A1A1A"/>
<path d="M12.3301 19.3401L15.1631 24.97L16.5031 24.29L13.6701 18.6599L12.3301 19.3401ZM15.1631 24.97C17.3038 29.22 19.8105 33.2901 22.6548 37.1101L23.858 36.21C21.0657 32.46 18.6048 28.47 16.5031 24.29L15.1631 24.97Z" fill="#1A1A1A"/>
<path d="M26.9573 38.72C26.9573 39.23 26.661 39.82 26.131 40.3C25.6019 40.77 24.9489 41.05 24.4074 41.05C23.8841 41.05 23.4978 40.83 23.2225 40.47C22.9333 40.09 22.75 39.5301 22.75 38.8701C22.75 37.6801 23.6813 36.75 24.7845 36.75C25.989 36.75 26.9573 37.63 26.9573 38.72Z" fill="white"/>
<path d="M26.207 38.7197C26.2069 38.111 25.6447 37.5 24.7842 37.5C24.115 37.5002 23.5 38.0745 23.5 38.8701C23.5 39.3987 23.6475 39.7895 23.8184 40.0146L23.873 40.0801C24.0044 40.2232 24.1656 40.2998 24.4072 40.2998C24.7191 40.2998 25.2022 40.1218 25.6328 39.7393C26.0537 39.3559 26.207 38.9558 26.207 38.7197ZM27.707 38.7197C27.707 39.5025 27.2697 40.2803 26.6348 40.8555L26.6289 40.8604C26.0014 41.4178 25.1784 41.7998 24.4072 41.7998C23.6372 41.7998 23.0358 41.4603 22.627 40.9258L22.626 40.9238C22.2189 40.3888 22 39.6606 22 38.8701C22 37.286 23.2472 36.0002 24.7842 36C26.3325 36 27.7069 37.1487 27.707 38.7197Z" fill="#1A1A1A"/>
<path d="M25.9476 27C25.3649 27 24.8926 27.4723 24.8926 28.055C24.8926 28.6377 25.3649 29.11 25.9476 29.11C26.5302 29.11 27.0026 28.6377 27.0026 28.055C27.0026 27.4723 26.5302 27 25.9476 27Z" fill="#1A1A1A"/>
<path d="M29.9476 29C30.5302 29 31.0026 29.4723 31.0026 30.055C31.0026 30.6377 30.5302 31.11 29.9476 31.11C29.3649 31.11 28.8926 30.6377 28.8926 30.055C28.8926 29.4723 29.3649 29 29.9476 29Z" fill="#1A1A1A"/>
</svg>
