<svg width="48" height="55" viewBox="0 0 48 55" fill="none" xmlns="http://www.w3.org/2000/svg">
<path d="M22.596 53.78L22.579 53.77C21.139 53.11 19.2989 52.34 17.4719 51.74C15.6559 51.14 13.7789 50.6699 12.3039 50.6699C10.7539 50.6699 8.96697 51.1801 7.32497 51.8301C6.29897 52.2401 5.56495 52.53 5.01295 52.7C4.43195 52.8899 4.20096 52.8901 4.11896 52.8701C3.90796 52.8301 3.76995 52.77 3.66495 52.7C3.55995 52.63 3.45295 52.5201 3.33395 52.3401C3.28195 52.2601 3.20595 52.06 3.16595 51.53C3.12695 51.01 3.12695 50.3101 3.12695 49.3301V25.95C3.12695 25.66 3.12896 25.6 3.14496 25.5C3.15596 25.44 3.19895 25.29 3.22395 25.23C3.26395 25.14 3.28295 25.1 3.37695 24.96C4.56495 23.09 7.53794 20.22 12.3039 20.22C17.6659 20.22 21.834 23.8499 23.226 25.6599L23.7489 26.3401L24.353 25.73C25.258 24.81 26.906 23.42 28.866 22.26C30.839 21.1 33.043 20.22 35.082 20.22C36.836 20.22 38.629 20.87 40.26 21.8C41.886 22.73 43.3 23.9001 44.281 24.8701C44.282 24.8701 44.283 24.8701 44.284 24.8701C44.554 25.1401 44.616 25.2101 44.686 25.3201C44.745 25.4101 44.812 25.5699 44.838 25.6799C44.869 25.8099 44.8729 25.9299 44.8729 26.3899V49.3301C44.8729 50.2601 44.873 50.9099 44.836 51.3899C44.798 51.8899 44.727 52.0799 44.674 52.1599C44.475 52.4699 44.2749 52.61 43.9159 52.7C43.8309 52.72 43.614 52.7201 43.075 52.5701C42.559 52.4301 41.875 52.2001 40.9129 51.8601C39.028 51.2001 36.921 50.6699 35.082 50.6699C33.487 50.6699 31.62 51.12 29.855 51.72C28.078 52.31 26.346 53.08 25.001 53.74C24.345 54.06 24.154 54.1499 24.015 54.1799C23.845 54.2099 23.744 54.2099 23.573 54.1799C23.433 54.1599 23.246 54.08 22.596 53.78Z" fill="#D9B8FF"/>
<path d="M35.082 19.47C37.0136 19.47 38.9374 20.1825 40.6318 21.1487C42.2045 22.0482 43.5797 23.1606 44.583 24.1204H44.5947L44.8145 24.3401C44.8172 24.3429 44.8195 24.3461 44.8223 24.3489L44.9258 24.2844L45.7227 25.5549L45.5908 25.637C45.621 25.8307 45.623 26.042 45.623 26.3899V49.3303C45.623 50.2466 45.6237 50.9316 45.584 51.4475C45.5448 51.9628 45.4658 52.3225 45.2988 52.5745L45.2979 52.5735C45.1648 52.779 45.0061 52.9702 44.7891 53.1243C44.5699 53.2798 44.3352 53.3677 44.0986 53.427L44.0879 53.4299L43.9619 53.4514C43.8344 53.4656 43.7032 53.4594 43.5742 53.4436C43.3939 53.4215 43.1681 53.3735 42.8789 53.2932C42.3324 53.1449 41.6234 52.907 40.6631 52.5676C38.8096 51.9188 36.7963 51.4202 35.082 51.4202C33.6083 51.4202 31.8323 51.8399 30.0967 52.4299L30.0908 52.4319C28.3568 53.0076 26.6576 53.7624 25.3311 54.4133L25.3301 54.4143L24.6221 54.7522C24.4663 54.8223 24.3236 54.8808 24.1729 54.9133L24.1592 54.9163L24.1455 54.9182L23.9639 54.9436C23.7974 54.9599 23.6487 54.9516 23.4668 54.9211C23.4619 54.9204 23.4571 54.9199 23.4521 54.9192C23.4493 54.9187 23.4462 54.9187 23.4434 54.9182C23.2874 54.893 23.1423 54.8412 22.9902 54.7786L22.2813 54.4612L22.248 54.4456L22.2324 54.4358C20.8138 53.7868 19.0158 53.0362 17.2383 52.4524L17.5684 51.4465L17.2363 52.4524C15.4335 51.8568 13.6521 51.4202 12.3037 51.4202C10.8957 51.4202 9.21378 51.888 7.60254 52.5256C6.59402 52.9287 5.83126 53.23 5.24512 53.4114L5.24609 53.4124C4.93087 53.5154 4.68569 53.5763 4.49121 53.6057C4.32176 53.6314 4.14642 53.6384 3.97949 53.6047V53.6067C3.97262 53.6054 3.96579 53.6032 3.95898 53.6018C3.9532 53.6005 3.94717 53.6003 3.94141 53.5989V53.5969C3.66679 53.5408 3.4422 53.4532 3.24902 53.3245C3.03514 53.1819 2.86203 52.9871 2.70801 52.7542L2.70508 52.7493C2.58365 52.5625 2.50662 52.3099 2.45801 51.9641L2.41797 51.5862C2.37635 51.0313 2.37695 50.2972 2.37695 49.3303V25.9504C2.37695 25.6711 2.37728 25.55 2.4043 25.3811L2.40527 25.3733L2.40723 25.3645C2.42688 25.2575 2.48372 25.0558 2.53125 24.9417L3.24805 25.2405L3.22363 25.2297L2.53125 24.9417L2.53516 24.9338L2.53906 24.925C2.59719 24.7943 2.63711 24.7162 2.75391 24.5422C4.04299 22.5234 7.22342 19.4701 12.3037 19.47C17.9329 19.47 22.2689 23.2209 23.7793 25.1516C23.798 25.1502 23.8169 25.1497 23.8359 25.1497C23.848 25.1497 23.8601 25.1501 23.8721 25.1506C24.8294 24.1883 26.5025 22.7874 28.4844 21.6145L28.4854 21.6135L28.8682 21.3938C30.798 20.3102 32.9873 19.47 35.082 19.47ZM12.3037 20.97C7.86575 20.9701 5.10328 23.6413 4.00977 25.3625L4 25.3782C3.95687 25.4424 3.94258 25.4669 3.93652 25.4778C3.93299 25.4842 3.93009 25.4896 3.91699 25.5188C3.9165 25.5203 3.91564 25.5219 3.91504 25.5237C3.9106 25.5372 3.90505 25.555 3.89941 25.5745C3.8939 25.5935 3.88838 25.6111 3.88477 25.6252C3.88203 25.6429 3.88004 25.654 3.87891 25.6829C3.87709 25.7291 3.87695 25.802 3.87695 25.9504V49.3303C3.87695 50.3231 3.87769 50.9889 3.91406 51.4739L3.94434 51.762C3.95501 51.8364 3.96557 51.8905 3.97461 51.928C3.97729 51.9391 3.98036 51.948 3.98242 51.9553C4.04485 52.045 4.07691 52.0725 4.08106 52.0754C4.08812 52.0801 4.10051 52.0878 4.12402 52.0969C4.14554 52.1053 4.18042 52.1142 4.23242 52.1252C4.24129 52.1243 4.25276 52.1244 4.2666 52.1223C4.35337 52.1092 4.51456 52.0744 4.78027 51.9875L4.79199 51.9827C5.30822 51.8237 6.01041 51.5482 7.04688 51.134L7.04883 51.1331L7.68555 50.8909C9.19081 50.342 10.8238 49.9202 12.3037 49.9202C13.9052 49.9202 15.878 50.4233 17.707 51.0276C19.1034 51.4862 20.5019 52.0405 21.7285 52.5706L22.9268 53.1038L22.9453 53.1145C22.995 53.1374 23.0424 53.157 23.0859 53.177V26.7073L22.6318 26.1174C21.3203 24.412 17.3477 20.97 12.3037 20.97ZM35.082 20.97C33.2389 20.97 31.1728 21.7726 29.2471 22.9045C27.3463 24.0295 25.7499 25.3796 24.8877 26.2561L24.8857 26.2581L24.5859 26.5598V53.1067C24.6135 53.0933 24.6423 53.0801 24.6719 53.0657C26.0349 52.3969 27.7991 51.6121 29.6182 51.0081C31.4111 50.3989 33.3674 49.9202 35.082 49.9202C37.045 49.9202 39.2453 50.4818 41.1611 51.1526L40.918 51.8459L40.9443 51.7727L41.1611 51.1526H41.1631L42.3965 51.5784C42.7424 51.6926 43.0288 51.7801 43.2715 51.8459L43.2764 51.8479C43.5234 51.9166 43.6737 51.9441 43.7568 51.9543C43.7673 51.9556 43.7766 51.9556 43.7842 51.9563C43.8684 51.9316 43.9038 51.9127 43.9209 51.9006C43.9385 51.8881 43.9697 51.8596 44.0244 51.7786C44.0262 51.7724 44.0299 51.7645 44.0322 51.7551C44.0487 51.6873 44.0708 51.5578 44.0879 51.3333C44.1221 50.8892 44.123 50.2738 44.123 49.3303V26.3899C44.123 26.1561 44.122 26.0294 44.1182 25.9465C44.1149 25.8764 44.1104 25.862 44.1084 25.8538C44.1084 25.8538 44.1062 25.8458 44.1016 25.8323C44.0967 25.8181 44.0903 25.8008 44.083 25.7834C44.0757 25.7662 44.0683 25.7509 44.0625 25.7395L44.0586 25.7317L44.0527 25.7229C44.0398 25.7025 44.0313 25.6896 44 25.6545C43.9664 25.6169 43.9146 25.565 43.8252 25.4749L43.7539 25.4036C42.8096 24.4698 41.4463 23.3429 39.8877 22.4514C38.3205 21.558 36.6581 20.97 35.082 20.97ZM17.2383 52.4524H17.2363L17.4717 51.7405L17.2383 52.4524Z" fill="#1A1A1A"/>
<path d="M36.2881 37.3628C36.4214 36.9707 36.8471 36.7607 37.2392 36.894C37.6313 37.0274 37.8412 37.4531 37.708 37.8452C36.5449 41.264 31.5816 41.3692 30.4853 37.8257C30.3629 37.43 30.5847 37.0096 30.9804 36.8872C31.3761 36.7648 31.7965 36.9866 31.9189 37.3823C32.5551 39.4386 35.5594 39.5037 36.2881 37.3628Z" fill="#1A1A1A"/>
<path d="M36 33.55C36.5523 33.55 37 33.9978 37 34.55C37 35.1023 36.5523 35.55 36 35.55C35.4477 35.55 35 35.1023 35 34.55C35 33.9978 35.4477 33.5501 36 33.55Z" fill="#1A1A1A"/>
<path d="M30 33.55C29.4477 33.55 29 33.9978 29 34.55C29 35.1023 29.4477 35.55 30 35.55C30.5523 35.55 31 35.1023 31 34.55C31 33.9978 30.5523 33.5501 30 33.55Z" fill="#1A1A1A"/>
<path d="M16.0883 37.3628C16.2217 36.9707 16.6474 36.7607 17.0395 36.894C17.4316 37.0274 17.6415 37.4531 17.5083 37.8452C16.3451 41.264 11.3818 41.3692 10.2856 37.8257C10.1632 37.43 10.385 37.0096 10.7807 36.8872C11.1764 36.7648 11.5968 36.9866 11.7192 37.3823C12.3554 39.4386 15.3597 39.5037 16.0883 37.3628Z" fill="#1A1A1A"/>
<path d="M18 33.55C18.5523 33.55 19 33.9978 19 34.55C19 35.1023 18.5523 35.55 18 35.55C17.4477 35.55 17 35.1023 17 34.55C17 33.9978 17.4477 33.5501 18 33.55Z" fill="#1A1A1A"/>
<path d="M12 33.55C11.4477 33.55 11 33.9978 11 34.55C11 35.1023 11.4477 35.55 12 35.55C12.5523 35.55 13 35.1023 13 34.55C13 33.9978 12.5523 33.5501 12 33.55Z" fill="#1A1A1A"/>
</svg>
