<svg width="48" height="55" viewBox="0 0 48 55" fill="none" xmlns="http://www.w3.org/2000/svg">
<path d="M22.5962 53.78L22.5789 53.77C21.1389 53.11 19.2995 52.34 17.4721 51.74C15.6562 51.14 13.7792 50.6699 12.304 50.6699C10.7539 50.6699 8.96725 51.1801 7.32555 51.8301C6.29875 52.2401 5.56505 52.53 5.01365 52.7C4.43245 52.8899 4.20165 52.8901 4.11905 52.8701C3.90805 52.8301 3.77035 52.77 3.66525 52.7C3.56015 52.63 3.45315 52.5201 3.33425 52.3401C3.28205 52.2601 3.20655 52.06 3.16625 51.53C3.12745 51.01 3.12695 50.3101 3.12695 49.3301V25.95C3.12695 25.66 3.12885 25.6 3.14505 25.5C3.15615 25.44 3.19895 25.29 3.22425 25.23C3.26405 25.14 3.28315 25.1 3.37705 24.96C4.56575 23.09 7.53845 20.22 12.304 20.22C17.6666 20.22 21.8342 23.8499 23.226 25.6599L23.7494 26.3401L24.353 25.73C25.2578 24.81 26.906 23.42 28.8665 22.26C30.8388 21.1 33.0433 20.22 35.0823 20.22C36.8365 20.22 38.6291 20.87 40.2606 21.8C41.8863 22.73 43.3003 23.9001 44.2809 24.8701C44.2818 24.8701 44.2829 24.8701 44.2839 24.8701C44.5541 25.1401 44.6166 25.2101 44.6866 25.3201C44.7451 25.4101 44.8124 25.5699 44.8386 25.6799C44.8692 25.8099 44.8736 25.9299 44.8736 26.3899V49.3301C44.8736 50.2601 44.8731 50.9099 44.8361 51.3899C44.798 51.8899 44.727 52.0799 44.6748 52.1599C44.4753 52.4699 44.2747 52.61 43.9165 52.7C43.8315 52.72 43.6139 52.7201 43.0751 52.5701C42.5596 52.4301 41.8758 52.2001 40.9134 51.8601C39.0281 51.2001 36.9213 50.6699 35.0823 50.6699C33.4868 50.6699 31.6202 51.12 29.8554 51.72C28.078 52.31 26.3463 53.08 25.0013 53.74C24.3458 54.06 24.1546 54.1499 24.0157 54.1799C23.8457 54.2099 23.7445 54.2099 23.5736 54.1799C23.4338 54.1599 23.2459 54.08 22.5962 53.78Z" fill="#FFA629"/>
<path d="M35.082 19.47C37.0138 19.47 38.937 20.1826 40.6318 21.1487C42.2042 22.0482 43.5799 23.1605 44.583 24.1204H44.5947L44.8145 24.3391L44.8232 24.3479L44.9258 24.2844L45.7227 25.5549L45.5918 25.637C45.6217 25.8294 45.624 26.0396 45.624 26.3899V49.3303C45.624 50.2472 45.6237 50.9317 45.584 51.4475C45.5448 51.9616 45.4655 52.3155 45.3047 52.5647L45.3057 52.5657C45.1711 52.7748 45.0092 52.9682 44.7891 53.1243C44.5701 53.2796 44.3359 53.3676 44.0996 53.427L43.9121 52.6809L43.9209 52.719L44.0996 53.427L44.0879 53.4299C43.9223 53.4688 43.7468 53.4646 43.5752 53.4436C43.3947 53.4215 43.1683 53.3736 42.8789 53.2932C42.333 53.145 41.6238 52.907 40.6631 52.5676C38.8093 51.9189 36.7962 51.4202 35.082 51.4202C33.6077 51.4202 31.8321 51.8399 30.0967 52.4299L30.0918 52.4319C28.3574 53.0076 26.6587 53.7623 25.332 54.4133L24.8818 53.4954L25.001 53.7405L25.332 54.4133L25.3301 54.4143L24.623 54.7522C24.4672 54.8224 24.3244 54.8808 24.1738 54.9133L24.1602 54.9163L24.1455 54.9182C23.8972 54.962 23.7122 54.9621 23.4678 54.9211C23.463 54.9205 23.4579 54.9199 23.4531 54.9192C23.4502 54.9187 23.4472 54.9187 23.4443 54.9182C23.2884 54.893 23.1429 54.8414 22.9902 54.7786C22.8274 54.7115 22.6036 54.6096 22.2822 54.4612L22.25 54.4465L22.2324 54.4358C20.8137 53.7867 19.0162 53.0361 17.2383 52.4524L17.5684 51.4465L17.2363 52.4524C15.4337 51.8568 13.6523 51.4202 12.3037 51.4202C10.895 51.4202 9.21308 51.8895 7.60156 52.5276L7.60059 52.5266C6.59268 52.9291 5.83101 53.2301 5.24609 53.4114L5.24707 53.4124C5.24438 53.4132 5.24096 53.4134 5.23828 53.4143C5.23694 53.4147 5.23571 53.4158 5.23438 53.4163L5.2334 53.4153C4.92422 53.5158 4.68314 53.5767 4.49121 53.6057C4.32093 53.6315 4.14596 53.6383 3.97949 53.6047V53.6067C3.97158 53.6052 3.96389 53.6024 3.95605 53.6008C3.95165 53.5998 3.94678 53.5999 3.94238 53.5989C3.66679 53.5427 3.44217 53.4531 3.24902 53.3245C3.03486 53.1818 2.862 52.9863 2.70801 52.7532L2.70605 52.7502C2.58371 52.5627 2.50654 52.3094 2.45801 51.9641L2.41797 51.5872C2.37659 51.0326 2.37695 50.2979 2.37695 49.3303V25.9504C2.37695 25.6721 2.37678 25.55 2.4043 25.3801L2.40625 25.3713L2.40723 25.3635L3.14551 25.5002L3.16602 25.5032L2.40723 25.3635C2.42658 25.2589 2.48378 25.056 2.5332 24.9387L2.53809 24.927L2.62402 24.7502C2.6561 24.6924 2.69551 24.6293 2.75391 24.5422C4.0435 22.5236 7.22367 19.4701 12.3037 19.47C17.9335 19.47 22.269 23.2208 23.7793 25.1516C23.798 25.1502 23.8169 25.1497 23.8359 25.1497C23.848 25.1497 23.8601 25.1501 23.8721 25.1506C24.8293 24.1882 26.5021 22.7874 28.4844 21.6145L28.4863 21.6135C30.5055 20.426 32.8478 19.47 35.082 19.47ZM12.3037 20.97C7.86632 20.9701 5.10408 23.641 4.00977 25.3625L4 25.3782C3.95687 25.4425 3.94254 25.4669 3.93652 25.4778C3.9331 25.484 3.92959 25.4893 3.91602 25.5198C3.91557 25.5211 3.91558 25.523 3.91504 25.5247C3.91071 25.5378 3.905 25.5552 3.89941 25.5745C3.89386 25.5936 3.88939 25.6119 3.88574 25.6262C3.88545 25.6274 3.88404 25.6281 3.88379 25.6292C3.88141 25.6447 3.87997 25.6558 3.87891 25.6829C3.87709 25.7291 3.87695 25.8018 3.87695 25.9504V49.3303C3.87695 50.3216 3.87795 50.9877 3.91406 51.4729C3.93229 51.7126 3.95655 51.853 3.97461 51.928C3.97737 51.9394 3.98032 51.9488 3.98242 51.9563C4.04472 52.0458 4.07716 52.0727 4.08105 52.0754C4.08856 52.0804 4.10147 52.0878 4.125 52.0969C4.14657 52.1053 4.18107 52.1151 4.2334 52.1262C4.24222 52.1253 4.25388 52.1244 4.26758 52.1223C4.35442 52.1091 4.51506 52.0742 4.78027 51.9875L4.79297 51.9827C5.30873 51.8236 6.01065 51.5482 7.04785 51.134L7.0498 51.1331C8.72147 50.4712 10.6124 49.9202 12.3037 49.9202C13.9054 49.9202 15.8781 50.4233 17.707 51.0276C19.1038 51.4862 20.502 52.0405 21.7285 52.5706L22.8916 53.0881L22.9248 53.1038L22.9395 53.1116C22.9914 53.1355 23.0406 53.1562 23.0859 53.177V26.7073L22.6318 26.1174C21.3205 24.412 17.3483 20.97 12.3037 20.97ZM35.082 20.97C33.2384 20.97 31.1713 21.7732 29.2461 22.9055C27.3455 24.0303 25.7494 25.3799 24.8877 26.2561L24.8857 26.2571L24.5859 26.5598V53.1067C24.6134 53.0933 24.6423 53.0801 24.6719 53.0657C25.8645 52.4805 27.3642 51.8065 28.9395 51.2424L29.6191 51.0081C31.4117 50.399 33.3671 49.9202 35.082 49.9202C37.045 49.9202 39.245 50.4818 41.1611 51.1526H41.1631C42.127 51.4931 42.7864 51.7142 43.2715 51.8459L43.2764 51.8479L43.5781 51.9231C43.6569 51.9399 43.7152 51.9492 43.7568 51.9543C43.7673 51.9556 43.7766 51.9556 43.7842 51.9563C43.8679 51.9317 43.9034 51.913 43.9209 51.9006C43.9386 51.888 43.9701 51.8595 44.0244 51.7795C44.0262 51.7732 44.0289 51.7656 44.0313 51.7561C44.0477 51.688 44.0707 51.5582 44.0879 51.3333C44.1221 50.8891 44.124 50.2732 44.124 49.3303V26.3899C44.124 26.1563 44.1221 26.0293 44.1182 25.9465C44.1148 25.8765 44.1107 25.8605 44.1084 25.8508C44.1075 25.8476 44.1054 25.8418 44.1025 25.8333C44.0977 25.8191 44.0913 25.8019 44.084 25.7844C44.0765 25.7667 44.0685 25.7504 44.0625 25.7385C44.0562 25.7261 44.0542 25.7235 44.0576 25.7288L44.0537 25.7229C44.0372 25.697 44.0323 25.684 43.8398 25.4895L43.7529 25.4036C42.8091 24.4699 41.4461 23.3419 39.8877 22.4504C38.32 21.5571 36.6581 20.97 35.082 20.97ZM17.2383 52.4524H17.2363L17.4717 51.7405L17.2383 52.4524ZM43.9639 25.1897L43.999 25.1555L44.2813 24.8704L43.9639 25.1897Z" fill="#1A1A1A"/>
<path d="M36.2881 37.3628C36.4214 36.9707 36.8471 36.7607 37.2392 36.894C37.6313 37.0274 37.8412 37.4531 37.708 37.8452C36.5449 41.264 31.5816 41.3692 30.4853 37.8257C30.3629 37.43 30.5847 37.0096 30.9804 36.8872C31.3761 36.7648 31.7965 36.9866 31.9189 37.3823C32.5551 39.4386 35.5594 39.5037 36.2881 37.3628Z" fill="#1A1A1A"/>
<path d="M36 33.55C36.5523 33.55 37 33.9978 37 34.55C37 35.1023 36.5523 35.55 36 35.55C35.4477 35.55 35 35.1023 35 34.55C35 33.9978 35.4477 33.5501 36 33.55Z" fill="#1A1A1A"/>
<path d="M30 33.55C29.4477 33.55 29 33.9978 29 34.55C29 35.1023 29.4477 35.55 30 35.55C30.5523 35.55 31 35.1023 31 34.55C31 33.9978 30.5523 33.5501 30 33.55Z" fill="#1A1A1A"/>
<path d="M16.0888 37.3628C16.2222 36.9707 16.6479 36.7607 17.04 36.894C17.432 37.0274 17.6419 37.4531 17.5088 37.8452C16.3456 41.264 11.3823 41.3692 10.2861 37.8257C10.1637 37.43 10.3855 37.0096 10.7812 36.8872C11.1769 36.7648 11.5973 36.9866 11.7197 37.3823C12.3559 39.4386 15.3602 39.5037 16.0888 37.3628Z" fill="#1A1A1A"/>
<path d="M18 33.55C18.5523 33.55 19 33.9978 19 34.55C19 35.1023 18.5523 35.55 18 35.55C17.4477 35.55 17 35.1023 17 34.55C17 33.9978 17.4477 33.5501 18 33.55Z" fill="#1A1A1A"/>
<path d="M12 33.55C11.4477 33.55 11 33.9978 11 34.55C11 35.1023 11.4477 35.55 12 35.55C12.5523 35.55 13 35.1023 13 34.55C13 33.9978 12.5523 33.5501 12 33.55Z" fill="#1A1A1A"/>
</svg>
