<svg width="48" height="55" viewBox="0 0 48 55" fill="none" xmlns="http://www.w3.org/2000/svg">
<path d="M16 19.75C19.6549 19.75 23.4088 21.3599 26.252 23.9199C27.2198 24.788 28.0735 25.7597 28.7793 26.8057C29.1813 26.769 29.5884 26.75 30 26.75C34.8436 26.75 38.5109 28.2597 40.9629 30.6396C43.4161 33.0196 44.7139 36.31 44.7139 40C44.7139 47.3599 38.3737 54.2196 31.0947 54.2197C27.4601 54.2197 23.8676 52.5105 21.1748 49.8506C19.8178 48.5101 18.705 46.9405 17.9346 45.249C16.9502 45.4066 15.9649 45.4902 15 45.4902C11.2969 45.4902 8.24426 44.3002 6.12207 42.2402C4.00265 40.1803 2.75011 37.2102 2.75 33.5205C2.75 26.1605 8.71692 19.75 16 19.75Z" fill="#F24822"/>
<path fill-rule="evenodd" clip-rule="evenodd" d="M17.4969 46.0701C24.5396 45.1501 31.7074 40.43 31.7074 33.52C31.7074 30.82 30.7389 28.24 29.1497 26.03C21.8137 26.46 16 32.55 16 40C16 42.11 16.5461 44.1701 17.4969 46.0701Z" fill="#DC3412"/>
<path d="M16 19C19.8656 19 23.7926 20.6962 26.7529 23.3613L27.0273 23.6133C27.816 24.3521 28.5303 25.1615 29.1504 26.0264C29.4315 26.0095 29.7147 26 30 26C35.0031 26 38.8698 27.5628 41.4854 30.1016C44.0997 32.6379 45.4639 36.13 45.4639 40C45.4639 47.735 38.826 54.9696 31.0947 54.9697C27.2284 54.9697 23.455 53.1561 20.6484 50.3838C19.3695 49.1205 18.2922 47.6553 17.4971 46.0693C16.6587 46.18 15.8226 46.2402 15 46.2402C11.1344 46.2402 7.88434 44.995 5.60059 42.7783L6.30762 42.0498L5.59961 42.7773C3.31758 40.5593 2.00011 37.387 2 33.5205C2 25.7813 8.26857 19 16 19ZM30.084 27.5C30.1278 27.5792 30.1697 27.6594 30.2119 27.7393C30.2157 27.7465 30.2198 27.7535 30.2236 27.7607C30.3658 28.0307 30.4986 28.3046 30.6221 28.582C30.6389 28.6197 30.6554 28.6575 30.6719 28.6953C30.7906 28.9688 30.9004 29.2455 31 29.5254C31.0132 29.5624 31.0262 29.5996 31.0391 29.6367C31.1399 29.9285 31.2296 30.2236 31.3086 30.5215C31.3133 30.5391 31.3186 30.5566 31.3232 30.5742C31.3576 30.7061 31.389 30.8387 31.4189 30.9717C31.424 30.9942 31.4296 31.0165 31.4346 31.0391C31.4654 31.1798 31.4938 31.3211 31.5195 31.4629C31.5292 31.5162 31.5379 31.5696 31.5469 31.623C31.5625 31.7166 31.5765 31.8103 31.5898 31.9043C31.5978 31.9603 31.6061 32.0162 31.6133 32.0723C31.6312 32.2125 31.6464 32.3531 31.6592 32.4941C31.6599 32.5017 31.6614 32.5091 31.6621 32.5166C31.6754 32.6662 31.684 32.8163 31.6914 32.9668C31.6924 32.988 31.6944 33.0091 31.6953 33.0303C31.7019 33.1829 31.7056 33.3359 31.7061 33.4893C31.7061 33.4996 31.707 33.5102 31.707 33.5205L31.7021 33.8428C31.6984 33.9587 31.6914 34.0739 31.6836 34.1885C31.6817 34.2169 31.6789 34.2451 31.6768 34.2734C31.6698 34.364 31.6618 34.4542 31.6523 34.5439C31.6521 34.5458 31.6535 34.5479 31.6533 34.5498C31.6304 34.7675 31.5987 34.9825 31.5615 35.1953C31.558 35.2152 31.5544 35.235 31.5508 35.2549C31.3333 36.4563 30.8941 37.5781 30.2783 38.6113C30.2767 38.6141 30.276 38.6174 30.2744 38.6201C29.9695 39.1307 29.6189 39.6172 29.2334 40.083C29.1665 40.1638 29.0994 40.2448 29.0303 40.3242C28.9802 40.3817 28.9301 40.4393 28.8789 40.4961C28.7854 40.5998 28.6891 40.7015 28.5918 40.8027C28.545 40.8515 28.4979 40.9001 28.4502 40.9482C28.3705 41.0287 28.29 41.1086 28.208 41.1875C28.1229 41.2694 28.0367 41.3505 27.9492 41.4307C27.8922 41.4829 27.8344 41.5345 27.7764 41.5859C27.6803 41.6712 27.5831 41.7557 27.4844 41.8389C27.404 41.9065 27.3223 41.9728 27.2402 42.0391C27.1607 42.1033 27.0811 42.1676 27 42.2305C26.9197 42.2927 26.8386 42.3541 26.7568 42.415C26.6323 42.508 26.5057 42.5986 26.3779 42.6885L26.2529 42.7773C26.2446 42.7831 26.2359 42.7882 26.2275 42.7939C25.0351 43.6129 23.7106 44.2977 22.3184 44.8359C22.3091 44.8395 22.3003 44.8441 22.291 44.8477C22.0774 44.9299 21.862 45.0078 21.6455 45.083C21.6159 45.0933 21.5863 45.1041 21.5566 45.1143C21.3362 45.1898 21.1145 45.2619 20.8916 45.3301C20.8827 45.3328 20.8741 45.3362 20.8652 45.3389C20.6468 45.4053 20.4273 45.468 20.207 45.5273C20.1819 45.5341 20.1569 45.5412 20.1318 45.5479C19.8946 45.6108 19.6567 45.6701 19.418 45.7246C19.3985 45.7291 19.3789 45.7329 19.3594 45.7373C19.256 45.7606 19.1524 45.782 19.0488 45.8037C19.7402 47.0775 20.6402 48.2674 21.7021 49.3164C24.2811 51.864 27.6918 53.4697 31.0947 53.4697C37.9215 53.4696 43.9639 46.9848 43.9639 40C43.9639 36.49 42.7324 33.4013 40.4404 31.1777C38.1656 28.9698 34.7254 27.5173 30.084 27.5ZM16 20.5C9.16527 20.5 3.5 26.5397 3.5 33.5205C3.50011 37.0331 4.68801 39.8004 6.64453 41.7021C8.60514 43.6053 11.4596 44.7402 15 44.7402C15.6159 44.7402 16.2405 44.7026 16.8682 44.6348C16.7976 44.4472 16.7314 44.2583 16.6689 44.0684C16.6543 44.0239 16.6402 43.9792 16.626 43.9346C16.5632 43.7371 16.5049 43.5386 16.4512 43.3389C16.4428 43.3079 16.4339 43.2771 16.4258 43.2461C16.3708 43.0359 16.3211 42.8246 16.2764 42.6123C16.2704 42.584 16.2646 42.5557 16.2588 42.5273C16.2377 42.4237 16.2178 42.3199 16.1992 42.2158C16.127 41.8124 16.0741 41.4055 16.041 40.9961C16.0142 40.6653 16 40.3331 16 40C16 39.9645 16.0007 39.929 16.001 39.8936C16.0034 39.5668 16.0176 39.2429 16.042 38.9219C16.057 38.7247 16.0755 38.5287 16.0986 38.334C16.1028 38.2991 16.1069 38.2643 16.1113 38.2295C16.117 38.1848 16.1229 38.1402 16.1289 38.0957C16.1379 38.0298 16.1464 37.964 16.1562 37.8984C16.165 37.84 16.1751 37.7818 16.1846 37.7236C16.1944 37.6636 16.2043 37.6037 16.2148 37.5439C16.2442 37.3782 16.2764 37.2135 16.3115 37.0498C16.324 36.9914 16.3373 36.9332 16.3506 36.875C16.3596 36.8356 16.3676 36.7961 16.377 36.7568C16.3932 36.6882 16.4105 36.62 16.4277 36.5518C16.4406 36.5008 16.4543 36.4501 16.4678 36.3994C16.5433 36.1144 16.6279 35.8332 16.7207 35.5557C16.7362 35.5094 16.7516 35.4631 16.7676 35.417C16.7943 35.3399 16.8216 35.263 16.8496 35.1865C16.8581 35.1634 16.8664 35.1402 16.875 35.1172C16.8932 35.0682 16.9119 35.0194 16.9307 34.9707C16.9558 34.9053 16.9817 34.8403 17.0078 34.7754C17.0698 34.6214 17.134 34.4686 17.2012 34.3174C17.2231 34.2681 17.2451 34.2189 17.2676 34.1699C17.344 34.0032 17.4231 33.838 17.5059 33.6748C17.5184 33.6501 17.5303 33.6252 17.543 33.6006C17.6835 33.3273 17.8345 33.0603 17.9922 32.7979C18.0071 32.773 18.021 32.7474 18.0361 32.7227C18.233 32.3996 18.4444 32.0864 18.666 31.7812C18.7497 31.666 18.8348 31.552 18.9219 31.4395C18.9657 31.3828 19.01 31.3265 19.0547 31.2705C19.1498 31.1514 19.2468 31.0339 19.3457 30.918C19.3669 30.8932 19.3869 30.8674 19.4082 30.8428C19.5292 30.703 19.6539 30.5665 19.7803 30.4316C19.8061 30.4041 19.8314 30.376 19.8574 30.3486C19.976 30.2241 20.0977 30.1026 20.2207 29.9824C20.2551 29.9488 20.2885 29.9141 20.3232 29.8809C20.4461 29.7633 20.5721 29.6492 20.6992 29.5361C20.7385 29.5012 20.7777 29.4661 20.8174 29.4316C20.9328 29.3313 21.0493 29.2323 21.168 29.1357C21.2165 29.0963 21.2654 29.0574 21.3145 29.0186C21.442 28.9175 21.571 28.8183 21.7021 28.7217C21.7588 28.6799 21.8157 28.6386 21.873 28.5977C21.8869 28.5877 21.9011 28.5782 21.915 28.5684C22.5335 28.1304 23.1889 27.7415 23.876 27.4072C23.9044 27.3934 23.9324 27.3789 23.9609 27.3652C24.0105 27.3416 24.0605 27.319 24.1104 27.2959C24.1679 27.2692 24.2252 27.2418 24.2832 27.2158C24.3058 27.2057 24.3289 27.1965 24.3516 27.1865C25.3234 26.7576 26.353 26.4357 27.4258 26.2363C26.923 25.6152 26.362 25.0266 25.751 24.4785L25.75 24.4775C23.0241 22.0231 19.4438 20.5 16 20.5ZM28.4004 27.6025C26.1129 27.8969 24.0183 28.8074 22.29 30.1631C21.5299 30.7597 20.841 31.442 20.2373 32.1963C19.8286 32.7065 19.4605 33.2501 19.1348 33.8213C18.8267 34.362 18.555 34.9263 18.3291 35.5137C18.1379 36.0105 17.9778 36.5227 17.8506 37.0479C17.7969 37.2695 17.7497 37.4936 17.708 37.7197C17.6433 38.0706 17.5923 38.4265 17.5576 38.7871C17.5364 39.0081 17.5223 39.2309 17.5127 39.4551C17.505 39.6357 17.5 39.8175 17.5 40C17.5 40.1661 17.505 40.3322 17.5127 40.498C17.5743 41.8245 17.879 43.142 18.3877 44.4023C19.4588 44.1989 20.5196 43.903 21.541 43.5244C22.8729 43.0284 24.1408 42.3905 25.2764 41.625C25.3316 41.5877 25.3868 41.5506 25.4414 41.5127C25.5948 41.4063 25.7452 41.2979 25.8926 41.1875C26.0309 41.0835 26.1674 40.9782 26.3008 40.8701C26.8931 40.3929 27.4281 39.8803 27.9004 39.3379C28.6613 38.463 29.2566 37.5083 29.6514 36.4854C29.6774 36.4178 29.7033 36.3503 29.7275 36.2822C30.0399 35.4068 30.207 34.4836 30.207 33.5205C30.207 33.1199 30.1811 32.7208 30.1328 32.3242C30.1034 32.0833 30.0661 31.8433 30.0195 31.6045C29.968 31.3398 29.9057 31.0767 29.834 30.8154C29.5277 29.7026 29.0406 28.6228 28.4004 27.6025Z" fill="#1A1A1A"/>
<path d="M40.7396 41.0174C41.035 40.7273 41.5099 40.7318 41.8001 41.0272C42.0902 41.3226 42.0857 41.7975 41.7903 42.0877L41.6683 42.2078L41.6663 42.2088L41.1429 41.6727L41.0833 41.6121L41.6663 42.2088C39.9861 43.8492 37.2843 43.7841 35.6858 42.0633C35.4039 41.7598 35.4214 41.2846 35.7249 41.0027C36.0284 40.7208 36.5035 40.7383 36.7855 41.0418C37.8102 42.145 39.5415 42.187 40.6185 41.1356V41.1365L40.7396 41.0174Z" fill="#1A1A1A"/>
<path fill-rule="evenodd" clip-rule="evenodd" d="M7.53452 31.1563C7.86457 30.8926 8.35305 30.9377 8.62557 31.2571C9.41559 32.1831 10.8708 32.2171 11.7059 31.3291L11.7989 31.2301C12.0868 30.9236 12.5769 30.9011 12.8936 31.1797C13.2104 31.4583 13.2337 31.9327 12.9458 32.2391L12.8528 32.3381C11.3825 33.9019 8.82101 33.8421 7.43033 32.2122C7.15782 31.8928 7.20446 31.42 7.53452 31.1563Z" fill="#1A1A1A"/>
<path d="M39.9451 37C40.5278 37 41.0001 37.4589 41.0001 38.025C41.0001 38.5911 40.5278 39.05 39.9451 39.05C39.3625 39.05 38.8901 38.5911 38.8901 38.025C38.8901 37.4589 39.3625 37 39.9451 37Z" fill="#1A1A1A"/>
<path d="M34.9476 37C34.3649 37 33.8926 37.4589 33.8926 38.025C33.8926 38.5911 34.3649 39.05 34.9476 39.05C35.5302 39.05 36.0026 38.5911 36.0026 38.025C36.0026 37.4589 35.5302 37 34.9476 37Z" fill="#1A1A1A"/>
<path d="M15.0521 28.0535C15.6347 28.0535 16.1071 28.5124 16.1071 29.0785C16.1071 29.6446 15.6347 30.1035 15.0521 30.1035C14.4694 30.1035 13.9971 29.6446 13.9971 29.0785C13.9971 28.5124 14.4694 28.0535 15.0521 28.0535Z" fill="#1A1A1A"/>
<path d="M10.054 28.0535C9.47136 28.0535 8.99902 28.5124 8.99902 29.0785C8.99902 29.6446 9.47136 30.1035 10.054 30.1035C10.6367 30.1035 11.109 29.6446 11.109 29.0785C11.109 28.5124 10.6367 28.0535 10.054 28.0535Z" fill="#1A1A1A"/>
</svg>
