<svg width="48" height="55" viewBox="0 0 48 55" fill="none" xmlns="http://www.w3.org/2000/svg">
<path d="M19.317 52.74C14.872 46.63 9.74604 31.67 6.82604 22.59C6.41304 21.31 7.37804 20.06 8.71204 20.27C19.155 21.96 45 31.09 45 34.13C45 35.97 34.358 37.1 27.705 38.69C26.645 38.94 25.853 39.79 25.578 40.85C24.668 44.34 23.167 49.1601 21.984 52.2901C21.526 53.5001 20.08 53.79 19.317 52.74Z" fill="#FFCD29"/>
<path d="M8.64724 19.5067L8.82888 19.5291L8.83181 19.5301C14.1248 20.3867 23.25 23.1107 31.032 25.9901C34.9274 27.4314 38.5148 28.9225 41.1375 30.2508C42.4449 30.913 43.5398 31.5485 44.3181 32.1307C44.7056 32.4206 45.0412 32.7166 45.2869 33.0164C45.5204 33.3016 45.7496 33.6833 45.7498 34.1297C45.7498 34.7461 45.3104 35.161 44.9558 35.4061C44.5706 35.6723 44.0558 35.8999 43.4832 36.1024C42.3283 36.5107 40.7455 36.883 38.9968 37.2391C35.4445 37.9626 31.1978 38.6265 27.8787 39.4198H27.8767C27.117 39.599 26.5165 40.2177 26.3035 41.0389C25.388 44.55 23.8793 49.3966 22.6853 52.5555L22.6218 52.7098C22.2829 53.4621 21.6363 53.9675 20.8972 54.1004C20.0958 54.2445 19.2577 53.9346 18.7097 53.1805C16.4243 50.0387 14.002 44.6885 11.8006 39.0516C9.86649 34.0992 8.08085 28.8657 6.68532 24.5897L6.11208 22.8202C5.5651 21.1245 6.79815 19.3381 8.64724 19.5067ZM8.59157 21.0096C7.87403 20.8992 7.27909 21.5521 7.53982 22.3602L8.11208 24.1258C9.50294 28.3875 11.2784 33.5904 13.198 38.5057C15.263 43.7933 17.4694 48.6806 19.5164 51.7166L19.9236 52.2987V52.2997L20.0066 52.4002C20.2046 52.6109 20.4334 52.6604 20.6316 52.6248C20.8715 52.5817 21.1409 52.3972 21.282 52.0243C22.454 48.9232 23.9479 44.1297 24.8523 40.661C25.1684 39.4438 26.0523 38.4171 27.282 38.0291L27.533 37.9598C30.8663 37.1633 35.2661 36.4681 38.697 35.7694C40.4405 35.4143 41.9348 35.059 42.9832 34.6883C43.512 34.5013 43.8806 34.3257 44.1033 34.1717C44.1529 34.1374 44.1872 34.1072 44.2127 34.0848C44.194 34.0551 44.1665 34.0162 44.1267 33.9676C43.9888 33.7991 43.759 33.5857 43.4197 33.3319C42.7439 32.8264 41.7383 32.2363 40.4597 31.5887C37.9101 30.2974 34.3827 28.8297 30.5115 27.3973C22.7605 24.5293 13.7415 21.843 8.59157 21.0096Z" fill="#1A1A1A"/>
<path d="M17.055 27.0051C17.6377 27.0051 18.11 27.4775 18.11 28.0601C18.11 28.6428 17.6377 29.1151 17.055 29.1151C16.4723 29.1151 16 28.6428 16 28.0601C16 27.4775 16.4723 27.0051 17.055 27.0051Z" fill="#1A1A1A"/>
<path d="M13.055 27.0051C12.4723 27.0051 12 27.4775 12 28.0601C12 28.6428 12.4723 29.1151 13.055 29.1151C13.6377 29.1151 14.11 28.6428 14.11 28.0601C14.11 27.4775 13.6377 27.0051 13.055 27.0051Z" fill="#1A1A1A"/>
<path d="M20.8449 33.1333C21.1694 32.8763 21.6406 32.931 21.8979 33.2553C22.1552 33.5798 22.1014 34.0519 21.7769 34.3092C19.7857 35.8875 17.5017 36.5899 15.0356 36.7521C14.6223 36.7793 14.2655 36.4658 14.2383 36.0525C14.2113 35.6394 14.5238 35.2825 14.937 35.2552C17.1706 35.1083 19.143 34.4823 20.8449 33.1333Z" fill="#1A1A1A"/>
</svg>
