<svg width="48" height="56" viewBox="0 0 48 56" fill="none" xmlns="http://www.w3.org/2000/svg">
<path d="M19.317 53.74C14.872 47.63 9.74604 32.67 6.82604 23.59C6.41304 22.31 7.37805 21.06 8.71205 21.27C19.1551 22.96 45 32.09 45 35.13C45 36.97 34.358 38.1 27.705 39.69C26.645 39.94 25.8531 40.79 25.5781 41.85C24.6681 45.34 23.1671 50.1601 21.9841 53.2901C21.5261 54.5001 20.08 54.79 19.317 53.74Z" fill="#E6E6E6"/>
<path d="M8.64724 20.5067L8.82888 20.5291L8.83181 20.5301C14.1248 21.3867 23.25 24.1107 31.032 26.9901C34.9274 28.4314 38.5148 29.9225 41.1375 31.2508C42.4449 31.913 43.5398 32.5485 44.3181 33.1307C44.7056 33.4206 45.0412 33.7166 45.2869 34.0164C45.5204 34.3016 45.7496 34.6833 45.7498 35.1297C45.7498 35.7461 45.3104 36.161 44.9558 36.4061C44.5706 36.6723 44.0558 36.8999 43.4832 37.1024C42.3283 37.5107 40.7455 37.883 38.9968 38.2391C35.4445 38.9626 31.1978 39.6265 27.8787 40.4198H27.8767C27.117 40.599 26.5165 41.2177 26.3035 42.0389C25.388 45.55 23.8793 50.3966 22.6853 53.5555L22.6218 53.7098C22.2829 54.4621 21.6363 54.9675 20.8972 55.1004C20.0958 55.2445 19.2577 54.9346 18.7097 54.1805C16.4243 51.0387 14.002 45.6885 11.8006 40.0516C9.86649 35.0992 8.08084 29.8657 6.68532 25.5897L6.11208 23.8202C5.5651 22.1245 6.79816 20.3381 8.64724 20.5067ZM8.59157 22.0096C7.87402 21.8992 7.27909 22.5521 7.53982 23.3602L8.11208 25.1258C9.50294 29.3875 11.2784 34.5904 13.198 39.5057C15.263 44.7934 17.4694 49.6806 19.5164 52.7166L19.9236 53.2987V53.2997L20.0066 53.4002C20.2046 53.6109 20.4334 53.6604 20.6316 53.6248C20.8715 53.5817 21.1409 53.3972 21.282 53.0243C22.454 49.9232 23.9479 45.1297 24.8523 41.661C25.1684 40.4438 26.0523 39.4171 27.282 39.0291L27.533 38.9598C30.8663 38.1633 35.2661 37.4681 38.697 36.7694C40.4405 36.4143 41.9348 36.059 42.9832 35.6883C43.512 35.5013 43.8806 35.3257 44.1033 35.1717C44.1529 35.1374 44.1872 35.1072 44.2127 35.0848C44.194 35.0551 44.1665 35.0162 44.1267 34.9676C43.9888 34.7991 43.759 34.5857 43.4197 34.3319C42.7439 33.8264 41.7383 33.2363 40.4597 32.5887C37.9101 31.2974 34.3827 29.8297 30.5115 28.3973C22.7605 25.5293 13.7415 22.843 8.59157 22.0096Z" fill="#1A1A1A"/>
<path d="M17.0545 28.0051C17.6372 28.0051 18.1095 28.4775 18.1095 29.0601C18.1095 29.6428 17.6372 30.1151 17.0545 30.1151C16.4719 30.1151 15.9995 29.6428 15.9995 29.0601C15.9995 28.4775 16.4719 28.0051 17.0545 28.0051Z" fill="#1A1A1A"/>
<path d="M13.0545 28.0051C12.4718 28.0051 11.9995 28.4775 11.9995 29.0601C11.9995 29.6428 12.4718 30.1151 13.0545 30.1151C13.6372 30.1151 14.1095 29.6428 14.1095 29.0601C14.1095 28.4775 13.6372 28.0051 13.0545 28.0051Z" fill="#1A1A1A"/>
<path d="M20.8449 34.1333C21.1694 33.8763 21.6406 33.931 21.8979 34.2553C22.1552 34.5798 22.1014 35.0519 21.7769 35.3092C19.7857 36.8875 17.5017 37.5899 15.0356 37.7521C14.6223 37.7793 14.2655 37.4658 14.2383 37.0525C14.2113 36.6394 14.5238 36.2825 14.937 36.2552C17.1706 36.1083 19.143 35.4823 20.8449 34.1333Z" fill="#1A1A1A"/>
</svg>
