<svg width="48" height="55" viewBox="0 0 48 55" fill="none" xmlns="http://www.w3.org/2000/svg">
<path d="M24.0596 19.75C30.0466 19.75 35.4298 21.1201 39.29 23.29C43.1737 25.47 45.3691 28.3702 45.3691 31.4102C45.3691 32.4313 45.1179 33.4368 44.6387 34.4062C45.1181 35.377 45.3691 36.3854 45.3691 37.4102C45.3691 38.2569 45.1971 39.0934 44.8652 39.9072C45.197 40.7222 45.3691 41.5607 45.3691 42.4102C45.3691 45.4401 43.1737 48.3403 39.29 50.5303C35.4298 52.7002 30.0465 54.0703 24.0596 54.0703C18.0726 54.0703 12.6893 52.7002 8.8291 50.5303C4.94543 48.3403 2.75006 45.4401 2.75 42.4102C2.75 41.5608 2.92125 40.7221 3.25293 39.9072C2.92117 39.0935 2.75002 38.2568 2.75 37.4102C2.75 36.3855 3.0001 35.3769 3.47949 34.4062C3.00035 33.4369 2.75002 32.4312 2.75 31.4102C2.75 28.3702 4.94538 25.47 8.8291 23.29C12.6893 21.1201 18.0725 19.75 24.0596 19.75Z" fill="#D9D9D9"/>
<path d="M24.0596 19C30.1508 19 35.6647 20.3923 39.6562 22.6357H39.6572C43.6508 24.8774 46.1191 27.9797 46.1191 31.4102C46.1191 32.4434 45.8922 33.4468 45.4678 34.4072C45.8925 35.3686 46.1191 36.374 46.1191 37.4102C46.1191 38.2674 45.9632 39.1043 45.668 39.9131C45.9613 40.7198 46.1191 41.554 46.1191 42.4102C46.1191 45.8309 43.6501 48.9326 39.6582 51.1836L39.1611 50.3008L39.6572 51.1836C35.6656 53.4274 30.1513 54.8203 24.0596 54.8203C17.9676 54.8203 12.4526 53.4275 8.46094 51.1836H8.45996C4.4682 48.9326 2.00006 45.8308 2 42.4102C2 41.5536 2.15614 40.7184 2.44922 39.9111C2.15461 39.103 2.00001 38.2666 2 37.4102C2 36.3737 2.22511 35.3672 2.64941 34.4053C2.22571 33.4456 2.00002 32.4426 2 31.4102C2 28.0868 4.3162 25.0719 8.0918 22.8486L8.46191 22.6357C12.4535 20.3921 17.968 19 24.0596 19ZM44.5967 41.9424C43.4775 43.5437 41.7844 44.9847 39.6582 46.1836L39.1611 45.3008L39.6572 46.1836C35.6656 48.4274 30.1513 49.8203 24.0596 49.8203C17.9676 49.8203 12.4526 48.4275 8.46094 46.1836H8.45996C6.33402 44.9848 4.64042 43.5445 3.52148 41.9434C3.50824 42.0991 3.5 42.2546 3.5 42.4102C3.50006 45.0489 5.42099 47.7472 9.19531 49.876C12.9241 51.9721 18.1771 53.3203 24.0596 53.3203C29.758 53.3203 34.8646 52.055 38.5684 50.0703L38.9229 49.876C42.6975 47.7471 44.6191 45.0491 44.6191 42.4102C44.6191 42.2543 44.6101 42.0984 44.5967 41.9424ZM44.4658 36.123C43.3473 37.6517 41.7037 39.0301 39.6582 40.1836L39.1611 39.3008L39.6572 40.1836C35.6656 42.4274 30.1513 43.8203 24.0596 43.8203C17.9676 43.8203 12.4526 42.4275 8.46094 40.1836H8.45996C6.41465 39.0302 4.77059 37.6526 3.65234 36.124C3.552 36.5523 3.5 36.9817 3.5 37.4102C3.50006 40.0489 5.42099 42.7472 9.19531 44.876C12.9241 46.9721 18.1771 48.3203 24.0596 48.3203C29.758 48.3203 34.8646 47.055 38.5684 45.0703L38.9229 44.876C42.6975 42.7471 44.6191 40.0491 44.6191 37.4102C44.6191 36.9813 44.5666 36.5517 44.4658 36.123ZM24.0596 20.5C18.1772 20.5 12.9251 21.8482 9.19629 23.9443C5.42248 26.0626 3.5 28.7607 3.5 31.4102C3.50006 34.0489 5.42099 36.7472 9.19531 38.876C12.9241 40.9721 18.1771 42.3203 24.0596 42.3203C29.758 42.3203 34.8646 41.055 38.5684 39.0703L38.9229 38.876C42.6975 36.7471 44.6191 34.0491 44.6191 31.4102C44.6191 28.7606 42.6966 26.0626 38.9229 23.9443V23.9434C35.194 21.8472 29.9418 20.5 24.0596 20.5Z" fill="#1A1A1A"/>
<path d="M22.7273 22.8141C25.4292 22.583 28.2891 22.4879 29.9265 22.7253C30.7462 22.8442 31.3139 23.6057 31.1951 24.4255C31.0761 25.2452 30.3156 25.8138 29.4958 25.695C28.2363 25.5124 25.6866 25.572 22.9822 25.8034C20.2946 26.0333 17.7107 26.4094 16.4109 26.7741L16.4099 26.7751C15.0498 27.1557 12.7366 28.1856 11.3279 29.5212C10.6282 30.1845 10.3099 30.7728 10.2527 31.2467C10.2053 31.6398 10.3027 32.2472 11.1521 33.0973L11.4431 33.3737C12.7297 34.533 14.3156 35.2034 16.2058 35.7301L17.0993 35.9645L17.1042 35.9655L17.782 36.1217C21.1243 36.8296 23.8324 36.4304 27.7546 36.4303C29.0013 36.4303 32.6858 36.1203 35.6218 35.2223C37.1268 34.762 38.1836 34.2197 38.6951 33.6842C38.9218 33.4468 38.9757 33.2783 38.987 33.1696C38.9984 33.0605 38.9871 32.8188 38.7273 32.3971L40.0535 31.5797L39.8865 31.6823L38.7273 32.3971L38.7263 32.3952L38.6296 32.2477C37.5998 30.7447 35.4136 30.0176 32.3669 29.8092C30.8604 29.7062 29.2778 29.7375 27.7478 29.7985C26.2561 29.858 24.7456 29.9499 23.5359 29.9499C22.7472 29.9499 20.8549 30.1502 19.3728 30.6051C18.9692 30.729 18.6556 30.8545 18.4245 30.9684C18.7748 31.1395 19.2342 31.2973 19.8171 31.4206C20.8175 31.6321 21.9946 31.7126 23.1784 31.7174C24.3538 31.7222 25.4865 31.6526 26.3845 31.5827C26.841 31.5471 27.2107 31.5141 27.529 31.488C27.7695 31.4682 28.1215 31.438 28.3552 31.4538C29.1817 31.5097 29.8066 32.2249 29.7507 33.0514C29.6948 33.8778 28.9794 34.5026 28.1531 34.4469C28.2015 34.4502 28.1344 34.4486 27.7742 34.4782C27.4909 34.5014 27.0757 34.5382 26.6169 34.5739C25.6839 34.6465 24.4599 34.7227 23.1667 34.7174C21.882 34.7122 20.4775 34.6271 19.196 34.3561C17.9499 34.0926 16.6173 33.6132 15.6765 32.6696L16.74 31.609L16.739 31.61L15.6765 32.6696L15.5476 32.5387L15.4529 32.3815C15.1335 31.8491 14.9613 31.2162 15.0867 30.5426C15.2076 29.8929 15.5691 29.4017 15.9353 29.0573C16.6259 28.4079 17.6241 28.0034 18.4919 27.737C20.2917 27.1845 22.4845 26.9499 23.5359 26.9499C24.6667 26.9499 26.0335 26.8651 27.6286 26.8014C29.1851 26.7394 30.8988 26.7016 32.572 26.8161C35.7863 27.0359 39.4512 27.8479 41.281 30.8229L41.4626 31.1393C41.8583 31.8838 42.0551 32.6733 41.9704 33.4821C41.8737 34.4065 41.429 35.1647 40.865 35.7555C39.7946 36.8765 38.1038 37.5996 36.4988 38.0905C33.214 39.0951 29.2229 39.4303 27.7546 39.4303C24.0441 39.4304 20.5202 39.9142 16.3786 38.8756C13.8079 38.2396 11.1592 37.3406 9.03392 35.2223L10.0837 34.1696L9.93919 34.3141L9.03392 35.2223L9.03197 35.2214L8.79271 34.9714C7.63842 33.717 7.10048 32.3299 7.27415 30.8883C7.44978 29.4311 8.31885 28.2408 9.26439 27.3444C11.1459 25.5606 13.9581 24.3462 15.6003 23.8864C17.1875 23.4411 20.0085 23.0467 22.7273 22.8141Z" fill="#B3B3B3"/>
<path d="M24.2026 24.9951C24.8681 24.9951 25.4076 25.5346 25.4076 26.2001C25.4076 26.8656 24.8681 27.4051 24.2026 27.4051C23.5371 27.4051 22.9976 26.8656 22.9976 26.2001C22.9976 25.5346 23.5371 24.9951 24.2026 24.9951Z" fill="#1A1A1A"/>
<path d="M14.205 24.9951C13.5395 24.9951 13 25.5346 13 26.2001C13 26.8656 13.5395 27.4051 14.205 27.4051C14.8705 27.4051 15.41 26.8656 15.41 26.2001C15.41 25.5346 14.8705 24.9951 14.205 24.9951Z" fill="#1A1A1A"/>
<path d="M21.5198 27.8773C21.8153 27.5872 22.2901 27.5917 22.5804 27.887C22.8704 28.1825 22.8659 28.6573 22.5706 28.9476L22.4485 29.0677L22.4466 29.0687L21.9232 28.5325L21.8636 28.472L22.4466 29.0687C20.7664 30.7091 18.0646 30.6439 16.4661 28.9231C16.1842 28.6197 16.2017 28.1445 16.5052 27.8626C16.8087 27.5807 17.2838 27.5982 17.5657 27.9017C18.5904 29.0048 20.3217 29.0469 21.3987 27.9954V27.9964L21.5198 27.8773Z" fill="#1A1A1A"/>
</svg>
