<svg width="48" height="55" viewBox="0 0 48 55" fill="none" xmlns="http://www.w3.org/2000/svg">
<path d="M24.0596 19.75C30.0466 19.75 35.4298 21.1201 39.29 23.29C43.1737 25.47 45.3691 28.3702 45.3691 31.4102C45.3691 32.4313 45.1179 33.4368 44.6387 34.4062C45.1181 35.377 45.3691 36.3854 45.3691 37.4102C45.3691 38.2569 45.1971 39.0934 44.8652 39.9072C45.197 40.7222 45.3691 41.5607 45.3691 42.4102C45.3691 45.4401 43.1737 48.3403 39.29 50.5303C35.4298 52.7002 30.0465 54.0703 24.0596 54.0703C18.0726 54.0703 12.6893 52.7002 8.8291 50.5303C4.94543 48.3403 2.75006 45.4401 2.75 42.4102C2.75 41.5608 2.92125 40.7221 3.25293 39.9072C2.92117 39.0935 2.75002 38.2568 2.75 37.4102C2.75 36.3855 3.0001 35.3769 3.47949 34.4062C3.00035 33.4369 2.75002 32.4312 2.75 31.4102C2.75 28.3702 4.94538 25.47 8.8291 23.29C12.6893 21.1201 18.0725 19.75 24.0596 19.75Z" fill="#D7F4B7"/>
<path d="M24.0596 19C30.1508 19 35.6647 20.3923 39.6562 22.6357H39.6572C43.6508 24.8774 46.1191 27.9797 46.1191 31.4102C46.1191 32.4434 45.8922 33.4468 45.4678 34.4072C45.8925 35.3686 46.1191 36.374 46.1191 37.4102C46.1191 38.2674 45.9632 39.1043 45.668 39.9131C45.9613 40.7198 46.1191 41.554 46.1191 42.4102C46.1191 45.8309 43.6501 48.9326 39.6582 51.1836L39.1611 50.3008L39.6572 51.1836C35.6656 53.4274 30.1513 54.8203 24.0596 54.8203C17.9676 54.8203 12.4526 53.4275 8.46094 51.1836H8.45996C4.4682 48.9326 2.00006 45.8308 2 42.4102C2 41.5536 2.15614 40.7184 2.44922 39.9111C2.15461 39.103 2.00001 38.2666 2 37.4102C2 36.3737 2.22511 35.3672 2.64941 34.4053C2.22571 33.4456 2.00002 32.4426 2 31.4102C2 28.0868 4.3162 25.0719 8.0918 22.8486L8.46191 22.6357C12.4535 20.3921 17.968 19 24.0596 19ZM44.5967 41.9424C43.4775 43.5437 41.7844 44.9847 39.6582 46.1836L39.1611 45.3008L39.6572 46.1836C35.6656 48.4274 30.1513 49.8203 24.0596 49.8203C17.9676 49.8203 12.4526 48.4275 8.46094 46.1836H8.45996C6.33402 44.9848 4.64042 43.5445 3.52148 41.9434C3.50824 42.0991 3.5 42.2546 3.5 42.4102C3.50006 45.0489 5.42099 47.7472 9.19531 49.876C12.9241 51.9721 18.1771 53.3203 24.0596 53.3203C29.758 53.3203 34.8646 52.055 38.5684 50.0703L38.9229 49.876C42.6975 47.7471 44.6191 45.0491 44.6191 42.4102C44.6191 42.2543 44.6101 42.0984 44.5967 41.9424ZM44.4658 36.123C43.3473 37.6517 41.7037 39.0301 39.6582 40.1836L39.1611 39.3008L39.6572 40.1836C35.6656 42.4274 30.1513 43.8203 24.0596 43.8203C17.9676 43.8203 12.4526 42.4275 8.46094 40.1836H8.45996C6.41465 39.0302 4.77059 37.6526 3.65234 36.124C3.552 36.5523 3.5 36.9817 3.5 37.4102C3.50006 40.0489 5.42099 42.7472 9.19531 44.876C12.9241 46.9721 18.1771 48.3203 24.0596 48.3203C29.758 48.3203 34.8646 47.055 38.5684 45.0703L38.9229 44.876C42.6975 42.7471 44.6191 40.0491 44.6191 37.4102C44.6191 36.9813 44.5666 36.5517 44.4658 36.123ZM24.0596 20.5C18.1772 20.5 12.9251 21.8482 9.19629 23.9443C5.42248 26.0626 3.5 28.7607 3.5 31.4102C3.50006 34.0489 5.42099 36.7472 9.19531 38.876C12.9241 40.9721 18.1771 42.3203 24.0596 42.3203C29.758 42.3203 34.8646 41.055 38.5684 39.0703L38.9229 38.876C42.6975 36.7471 44.6191 34.0491 44.6191 31.4102C44.6191 28.7606 42.6966 26.0626 38.9229 23.9443V23.9434C35.194 21.8472 29.9418 20.5 24.0596 20.5Z" fill="#1A1A1A"/>
<path d="M24.2026 24.9951C24.8681 24.9951 25.4076 25.5346 25.4076 26.2001C25.4076 26.8656 24.8681 27.4051 24.2026 27.4051C23.5371 27.4051 22.9976 26.8656 22.9976 26.2001C22.9976 25.5346 23.5371 24.9951 24.2026 24.9951Z" fill="#1A1A1A"/>
<path d="M14.205 24.9951C13.5395 24.9951 13 25.5346 13 26.2001C13 26.8656 13.5395 27.4051 14.205 27.4051C14.8705 27.4051 15.41 26.8656 15.41 26.2001C15.41 25.5346 14.8705 24.9951 14.205 24.9951Z" fill="#1A1A1A"/>
<path d="M21.5198 27.8773C21.8153 27.5872 22.2901 27.5917 22.5804 27.887C22.8704 28.1825 22.8659 28.6573 22.5706 28.9476L22.4485 29.0677L22.4466 29.0687L21.9232 28.5325L21.8636 28.472L22.4466 29.0687C20.7664 30.7091 18.0646 30.6439 16.4661 28.9231C16.1842 28.6197 16.2017 28.1445 16.5052 27.8626C16.8087 27.5807 17.2838 27.5982 17.5657 27.9017C18.5904 29.0048 20.3217 29.0469 21.3987 27.9954V27.9964L21.5198 27.8773Z" fill="#1A1A1A"/>
<path d="M35.7226 24.5586C36.0821 24.1394 36.7135 24.0917 37.1328 24.4511C37.3075 24.601 37.7716 24.9353 38.4794 25.4824C39.1447 25.9965 39.9549 26.647 40.6865 27.333C41.3991 28.0012 42.1169 28.7744 42.5195 29.539C42.7218 29.9235 42.8923 30.3947 42.8691 30.9013C42.8436 31.4585 42.5873 31.9527 42.1328 32.3135L41.5097 31.5293L41.5107 31.5302L42.1328 32.3135L41.9589 32.4511L41.7421 32.5029C41.4237 32.5786 41.0896 32.5419 40.8535 32.5029C40.5867 32.4588 40.2922 32.3831 39.9931 32.2939C39.3927 32.1149 38.6915 31.8532 38.0019 31.5722C36.9675 31.1508 35.909 30.6664 35.1718 30.3056L34.5546 29.9931L34.5488 29.9892L34.9833 29.1855L35.0009 29.1523L34.5488 29.9892C33.7276 29.5452 32.7834 29.1422 31.7871 28.7685L30.7763 28.4043L30.7714 28.4033L31.082 27.5224L31.1484 27.333L30.7714 28.4033C30.3641 28.2598 29.8966 28.1248 29.4443 28.0674C29.0978 28.0234 28.8096 28.0305 28.583 28.082C28.7026 28.3868 29.0304 28.799 29.6337 29.1914L29.6376 29.1943C30.7439 29.9208 31.9924 30.6333 33.2705 31.291H33.2714C34.8529 32.1068 36.2267 33.1201 37.2197 34.1074C37.7152 34.6001 38.134 35.1047 38.4365 35.5937C38.7255 36.0609 38.9714 36.6144 38.9755 37.1816C38.9777 37.4825 38.9107 37.8065 38.7275 38.1054C38.5429 38.4063 38.2781 38.6194 37.9853 38.7578C37.4371 39.0169 36.7628 39.0307 36.0781 38.9385C34.6774 38.7497 32.6215 38.0285 29.7949 36.6367L29.789 36.6338C29.3903 36.4338 27.4459 35.3335 25.5322 34.5342C24.565 34.1302 23.7213 33.8554 23.1621 33.7939C23.1436 33.7919 23.126 33.7915 23.1093 33.79C23.3122 34.0862 23.5727 34.3955 23.7626 34.5556L23.7665 34.5586L24.1494 34.8769C25.0541 35.6148 26.0461 36.3226 27.0566 37.0908L27.2812 37.2676C27.5394 37.4798 27.8759 37.7936 28.0937 38.1582C28.2413 38.4053 28.4302 38.8343 28.3134 39.3398C28.1867 39.8872 27.7786 40.216 27.3906 40.3965L26.9589 39.4677L26.9882 39.5332L27.3906 40.3965L27.3828 40.4004L27.1669 40.4834C26.9496 40.5533 26.73 40.5872 26.5419 40.6054C26.2782 40.631 26.0025 40.632 25.746 40.623C25.2342 40.605 24.7192 40.5417 24.3984 40.5019H24.3955C23.096 40.3369 22.0453 39.983 21.0693 39.542L20.6191 39.333C19.5904 38.8375 18.7062 38.2932 17.8759 37.706C17.425 37.3871 17.3178 36.7634 17.6367 36.3125C17.9555 35.8617 18.5794 35.7546 19.0302 36.0732C19.8913 36.6821 20.7996 37.2283 21.8886 37.7177L21.8906 37.7187C22.7279 38.0972 23.5858 38.3827 24.6474 38.5176H24.6464C24.9562 38.556 25.3659 38.6042 25.7617 38.6211C24.7029 37.8192 23.5021 36.9605 22.4697 36.081V36.0801C22.028 35.7063 21.5529 35.1031 21.2636 34.6191C21.1394 34.4113 20.9494 34.0661 20.9062 33.7168C20.8897 33.5828 20.854 33.1028 21.2392 32.7461C21.2594 32.7013 21.2825 32.6572 21.3076 32.6133C21.47 32.3292 21.7041 32.1274 21.9599 31.997C22.4296 31.7579 22.9646 31.7599 23.3808 31.8056C24.246 31.9008 25.3157 32.2762 26.3027 32.6885C28.2972 33.5215 30.4259 34.7155 30.6855 34.8457H30.6845C33.4598 36.2117 35.276 36.8119 36.3447 36.956C36.5904 36.9891 36.7767 36.9934 36.9121 36.9853C36.8736 36.8925 36.8183 36.7781 36.7363 36.6455C36.5381 36.3251 36.2287 35.9421 35.8095 35.5254C34.9723 34.693 33.7688 33.7975 32.3554 33.0683C31.0296 32.3861 29.7176 31.6396 28.54 30.8662V30.8652C27.6683 30.2975 26.8917 29.4943 26.624 28.5263V28.5234L26.5781 28.3388C26.5323 28.1214 26.4964 27.814 26.5712 27.4853C26.6896 26.9657 27.0426 26.5517 27.5761 26.3154L27.5869 26.3105C28.2941 26.007 29.0568 26.0018 29.6962 26.083C30.3466 26.1655 30.9639 26.3501 31.4365 26.5166H31.4355C32.8331 27.0017 34.2597 27.5609 35.4921 28.2265H35.4931C36.0699 28.5331 37.4295 29.179 38.7568 29.7197C39.4202 29.99 40.054 30.2254 40.5654 30.3779C40.6188 30.3938 40.6707 30.4063 40.7197 30.4199C40.4699 29.973 39.9743 29.4071 39.3183 28.792C38.6555 28.1705 37.904 27.5646 37.2568 27.0644C36.6521 26.5971 36.0528 26.1589 35.831 25.9687C35.412 25.6092 35.3632 24.9777 35.7226 24.5586ZM26.455 37.8896L25.9023 38.625L26.5136 37.8125L26.455 37.8896Z" fill="#78B136"/>
</svg>
