<svg width="48" height="55" viewBox="0 0 48 55" fill="none" xmlns="http://www.w3.org/2000/svg">
<path d="M24.0596 19.75C30.0466 19.75 35.4298 21.1201 39.29 23.29C43.1737 25.47 45.3691 28.3702 45.3691 31.4102C45.3691 32.4313 45.1179 33.4368 44.6387 34.4062C45.1181 35.377 45.3691 36.3854 45.3691 37.4102C45.3691 38.2569 45.1971 39.0934 44.8652 39.9072C45.197 40.7222 45.3691 41.5607 45.3691 42.4102C45.3691 45.4401 43.1737 48.3403 39.29 50.5303C35.4298 52.7002 30.0465 54.0703 24.0596 54.0703C18.0726 54.0703 12.6893 52.7002 8.8291 50.5303C4.94543 48.3403 2.75006 45.4401 2.75 42.4102C2.75 41.5608 2.92125 40.7221 3.25293 39.9072C2.92117 39.0935 2.75002 38.2568 2.75 37.4102C2.75 36.3855 3.0001 35.3769 3.47949 34.4062C3.00035 33.4369 2.75002 32.4312 2.75 31.4102C2.75 28.3702 4.94538 25.47 8.8291 23.29C12.6893 21.1201 18.0725 19.75 24.0596 19.75Z" fill="#FFE8A3"/>
<path d="M24.0596 19C30.1508 19 35.6647 20.3923 39.6562 22.6357H39.6572C43.6508 24.8774 46.1191 27.9797 46.1191 31.4102C46.1191 32.4434 45.8922 33.4468 45.4678 34.4072C45.8925 35.3686 46.1191 36.374 46.1191 37.4102C46.1191 38.2674 45.9632 39.1043 45.668 39.9131C45.9613 40.7198 46.1191 41.554 46.1191 42.4102C46.1191 45.8309 43.6501 48.9326 39.6582 51.1836L39.1611 50.3008L39.6572 51.1836C35.6656 53.4274 30.1513 54.8203 24.0596 54.8203C17.9676 54.8203 12.4526 53.4275 8.46094 51.1836H8.45996C4.4682 48.9326 2.00006 45.8308 2 42.4102C2 41.5536 2.15614 40.7184 2.44922 39.9111C2.15461 39.103 2.00001 38.2666 2 37.4102C2 36.3737 2.22511 35.3672 2.64941 34.4053C2.22571 33.4456 2.00002 32.4426 2 31.4102C2 28.0868 4.3162 25.0719 8.0918 22.8486L8.46191 22.6357C12.4535 20.3921 17.968 19 24.0596 19ZM44.5967 41.9424C43.4775 43.5437 41.7844 44.9847 39.6582 46.1836L39.1611 45.3008L39.6572 46.1836C35.6656 48.4274 30.1513 49.8203 24.0596 49.8203C17.9676 49.8203 12.4526 48.4275 8.46094 46.1836H8.45996C6.33402 44.9848 4.64042 43.5445 3.52148 41.9434C3.50824 42.0991 3.5 42.2546 3.5 42.4102C3.50006 45.0489 5.42099 47.7472 9.19531 49.876C12.9241 51.9721 18.1771 53.3203 24.0596 53.3203C29.758 53.3203 34.8646 52.055 38.5684 50.0703L38.9229 49.876C42.6975 47.7471 44.6191 45.0491 44.6191 42.4102C44.6191 42.2543 44.6101 42.0984 44.5967 41.9424ZM44.4658 36.123C43.3473 37.6517 41.7037 39.0301 39.6582 40.1836L39.1611 39.3008L39.6572 40.1836C35.6656 42.4274 30.1513 43.8203 24.0596 43.8203C17.9676 43.8203 12.4526 42.4275 8.46094 40.1836H8.45996C6.41465 39.0302 4.77059 37.6526 3.65234 36.124C3.552 36.5523 3.5 36.9817 3.5 37.4102C3.50006 40.0489 5.42099 42.7472 9.19531 44.876C12.9241 46.9721 18.1771 48.3203 24.0596 48.3203C29.758 48.3203 34.8646 47.055 38.5684 45.0703L38.9229 44.876C42.6975 42.7471 44.6191 40.0491 44.6191 37.4102C44.6191 36.9813 44.5666 36.5517 44.4658 36.123ZM24.0596 20.5C18.1772 20.5 12.9251 21.8482 9.19629 23.9443C5.42248 26.0626 3.5 28.7607 3.5 31.4102C3.50006 34.0489 5.42099 36.7472 9.19531 38.876C12.9241 40.9721 18.1771 42.3203 24.0596 42.3203C29.758 42.3203 34.8646 41.055 38.5684 39.0703L38.9229 38.876C42.6975 36.7471 44.6191 34.0491 44.6191 31.4102C44.6191 28.7606 42.6966 26.0626 38.9229 23.9443V23.9434C35.194 21.8472 29.9418 20.5 24.0596 20.5Z" fill="#1A1A1A"/>
<path d="M24.2026 24.9951C24.8681 24.9951 25.4076 25.5346 25.4076 26.2001C25.4076 26.8656 24.8681 27.4051 24.2026 27.4051C23.5371 27.4051 22.9976 26.8656 22.9976 26.2001C22.9976 25.5346 23.5371 24.9951 24.2026 24.9951Z" fill="#1A1A1A"/>
<path d="M14.205 24.9951C13.5395 24.9951 13 25.5346 13 26.2001C13 26.8656 13.5395 27.4051 14.205 27.4051C14.8705 27.4051 15.41 26.8656 15.41 26.2001C15.41 25.5346 14.8705 24.9951 14.205 24.9951Z" fill="#1A1A1A"/>
<path d="M21.5198 27.8773C21.8153 27.5872 22.2901 27.5917 22.5804 27.887C22.8704 28.1825 22.8659 28.6573 22.5706 28.9476L22.4485 29.0677L22.4466 29.0687L21.9232 28.5325L21.8636 28.472L22.4466 29.0687C20.7664 30.7091 18.0646 30.6439 16.4661 28.9231C16.1842 28.6197 16.2017 28.1445 16.5052 27.8626C16.8087 27.5807 17.2838 27.5982 17.5657 27.9017C18.5904 29.0048 20.3217 29.0469 21.3987 27.9954V27.9964L21.5198 27.8773Z" fill="#1A1A1A"/>
<path d="M22.2049 33.63C20.7329 30.69 26.023 29.9601 28.272 29.5501C35.988 25.4801 43.7099 32.4901 42.4939 39.2901C42.4939 41.1301 42.2209 45.32 39.2769 45.32C35.5959 45.32 37.8389 40.1201 33.7319 38.2701C30.5239 36.8201 24.0449 37.31 22.2049 33.63Z" fill="#FFD966" fill-opacity="0.7"/>
<path d="M24.6661 31.2799L29.1781 28.2799C29.4391 28.0999 29.7671 28.0599 30.0631 28.1699L35.2851 29.9998C36.0741 30.2798 36.1941 31.3499 35.4861 31.7899L30.7981 34.7398C30.5391 34.8998 30.2201 34.9398 29.9321 34.8398L24.8861 33.0499C24.1091 32.7799 23.9801 31.7299 24.6661 31.2799Z" fill="#FFD966"/>
<path d="M28.7624 27.6569C29.2202 27.3458 29.7931 27.2762 30.3103 27.4636L30.3113 27.4626L35.5329 29.2927L35.5359 29.2937C36.9077 29.7808 37.1316 31.6506 35.8816 32.4274L35.8806 32.4265L31.197 35.3747L31.1921 35.3776L31.0212 35.4714C30.6114 35.6666 30.132 35.7032 29.6863 35.5485L29.6814 35.5466L24.6394 33.7575V33.7585C23.3177 33.299 23.0633 31.5581 24.1452 30.7302L24.2546 30.653L28.7624 27.656V27.6569ZM29.8015 28.8728C29.7338 28.8477 29.6619 28.8567 29.6033 28.8972L29.5935 28.905L25.0808 31.905L25.0769 31.9069C24.9116 32.0155 24.9427 32.2755 25.1316 32.3415L25.1365 32.3435L30.1765 34.1315H30.1775C30.2426 34.1542 30.3248 34.1475 30.3982 34.1042L35.0867 31.155L35.0896 31.153C35.2555 31.0499 35.2398 30.7798 35.0339 30.7067V30.7058L29.8152 28.8776L30.071 28.1462L29.8015 28.8728ZM29.8152 28.8776L29.8015 28.8728L30.0632 28.1696L29.8152 28.8776Z" fill="#1A1A1A"/>
</svg>
