<svg width="48" height="55" viewBox="0 0 48 55" fill="none" xmlns="http://www.w3.org/2000/svg">
<path d="M18 21.75H30.935C32.455 21.75 33.52 23.22 33.049 24.64C32.805 25.38 32.556 26.13 32.307 26.88C31.523 29.24 30.738 31.5999 30.101 33.6899C29.681 35.0699 29.321 36.3501 29.065 37.4301C28.813 38.5101 28.65 39.45 28.65 40.15C28.65 42.28 29.385 44.72 30.487 46.63C31.04 47.59 31.704 48.45 32.448 49.08C33.189 49.7 34.062 50.14 35.011 50.14C36.627 50.14 37.839 49.57 38.727 49.03C38.947 48.89 39.148 48.76 39.327 48.64C39.356 48.62 39.384 48.61 39.411 48.59C39.558 48.49 39.683 48.41 39.8 48.33C39.965 48.23 40.066 48.18 40.122 48.16C40.13 48.18 40.137 48.2 40.145 48.23C40.203 48.48 40.193 48.92 40.029 49.49C39.707 50.61 38.868 51.95 37.478 52.77C36.596 53.3 36.017 53.64 34.844 53.87C33.622 54.11 31.752 54.24 28.319 54.24C21.967 54.24 15.75 47.53 15.75 39.11V24C15.75 22.76 16.757 21.75 18 21.75Z" fill="#2C2C2C"/>
<path d="M15 39.1104V24C15 22.3464 16.3421 21 18 21H30.9346C32.9572 21 34.3938 22.9615 33.7607 24.874C33.5165 25.6149 33.2675 26.3664 33.0186 27.1162C32.2337 29.4787 31.4521 31.8291 30.8184 33.9082C30.4006 35.2808 30.0458 36.5449 29.7949 37.6035L29.7939 37.6025C29.5439 38.6743 29.4004 39.5428 29.4004 40.1504C29.4005 42.0058 30.0064 44.1536 30.9443 45.9092L31.1367 46.2549V46.2559C31.6592 47.1628 32.2709 47.9462 32.9297 48.5049L33.1797 48.7021C33.7684 49.1366 34.3882 49.3896 35.0107 49.3896C36.4336 49.3896 37.5064 48.8926 38.3301 48.3926C38.5452 48.2556 38.7388 48.1308 38.9092 48.0166C38.9352 47.999 38.9587 47.9858 38.9766 47.9756C38.9841 47.9713 38.9917 47.9664 38.998 47.9629C39.0725 47.9124 39.1417 47.8678 39.2031 47.8271C39.2684 47.7839 39.3241 47.7471 39.377 47.7109L39.3936 47.6992L39.4111 47.6885C39.5837 47.5839 39.739 47.5009 39.8701 47.4541L40.5498 47.2109L40.8184 47.8818L40.8701 48.0371L40.876 48.0605C40.9608 48.4263 40.942 48.9145 40.8125 49.46L40.75 49.6973C40.3833 50.9727 39.4387 52.4808 37.8633 53.4121L37.8643 53.4131C36.9618 53.9554 36.2922 54.3508 34.9883 54.6064V54.6055C33.6889 54.8606 31.7556 54.9902 28.3193 54.9902C21.4512 54.9902 15.0002 47.8344 15 39.1104ZM16.5 39.1104C16.5002 47.226 22.4837 53.4902 28.3193 53.4902C31.7483 53.4902 33.5547 53.3586 34.6992 53.1338C35.7413 52.9295 36.2303 52.6446 37.0918 52.127L37.0967 52.124C38.1604 51.4965 38.8554 50.5079 39.1934 49.6211C39.1721 49.6347 39.1514 49.6494 39.1299 49.6631L39.1162 49.6709C38.1648 50.2494 36.8157 50.8896 35.0107 50.8896C33.8245 50.8896 32.7866 50.3412 31.9668 49.6553L31.9629 49.6523C31.135 48.9512 30.4196 48.0154 29.8369 47.0039C28.6797 44.9979 27.9005 42.4306 27.9004 40.1504C27.9004 39.3585 28.0813 38.3469 28.335 37.2598V37.2568C28.596 36.1555 28.9616 34.859 29.3838 33.4717C30.0241 31.371 30.8116 29.0009 31.5947 26.6436C31.8438 25.8934 32.0932 25.1444 32.3369 24.4053V24.4043C32.6443 23.4774 31.9512 22.5 30.9346 22.5H18C17.1719 22.5 16.5 23.1736 16.5 24V39.1104Z" fill="#1A1A1A"/>
<path d="M22.8512 19.9302C23.0502 19.8602 23.2072 19.7001 23.2852 19.5001L25.2422 14.5201C25.2802 14.4301 25.3722 14.3701 25.4752 14.3701H30.1342C30.3342 14.3701 30.4532 14.5901 30.3422 14.7501L27.1592 19.5402C27.0322 19.7302 26.9992 19.9701 27.0702 20.1901C27.1402 20.4001 27.3062 20.5802 27.5212 20.6602L30.1852 21.6602L27.3832 23.1602C25.1002 24.3802 22.3372 24.2902 20.1352 22.9302L18.1582 21.7001L22.8512 19.9302Z" fill="#476656"/>
<path d="M30.1335 13.6201C30.8975 13.6201 31.427 14.479 30.9655 15.1641L30.9665 15.165L27.7839 19.9551L27.7848 19.958L30.4489 20.958L30.1843 21.6602L30.5388 22.3213L27.737 23.8213L27.029 22.499L28.3708 21.7803L27.2595 21.3623C26.8225 21.1997 26.4967 20.8426 26.3581 20.4268L26.3561 20.4209C26.2157 19.9858 26.2791 19.5074 26.5339 19.125L29.196 15.1201H25.8122L23.9831 19.7715L23.9841 19.7725C23.8351 20.1545 23.5286 20.48 23.1149 20.6309L23.1159 20.6318L19.8434 21.8652L20.529 22.292C22.5043 23.512 24.9824 23.5925 27.029 22.499L27.737 23.8213C25.2178 25.1675 22.1694 25.0682 19.7409 23.5684L20.1823 22.8535L20.1345 22.9307L19.7409 23.5684L19.7389 23.5674L17.7614 22.3369C17.5192 22.1861 17.384 21.9109 17.4118 21.627C17.4397 21.3429 17.6262 21.0988 17.8932 20.998L22.5856 19.2285L22.5866 19.2275V19.2256L24.5436 14.2461C24.5459 14.2403 24.549 14.2343 24.5514 14.2285L25.2419 14.5205L25.2653 14.5293L24.5514 14.2285C24.7122 13.8478 25.0852 13.6201 25.4753 13.6201H30.1335ZM30.4489 20.958C30.7243 21.0616 30.9137 21.3167 30.9333 21.6104C30.9528 21.9042 30.7984 22.1823 30.5388 22.3213L30.1843 21.6602L30.4489 20.958Z" fill="#1A1A1A"/>
<path fill-rule="evenodd" clip-rule="evenodd" d="M20.0679 34.3704C20.3873 34.1067 20.86 34.1518 21.1238 34.4712C21.8883 35.3972 23.2965 35.4312 24.1047 34.5432L24.1947 34.4442C24.4733 34.1378 24.9477 34.1152 25.2542 34.3938C25.5607 34.6724 25.5832 35.1468 25.3046 35.4533L25.2146 35.5523C23.7918 37.116 21.3129 37.0562 19.9671 35.4263C19.7034 35.1069 19.7485 34.6341 20.0679 34.3704Z" fill="#D9D9D9"/>
<path d="M26.5492 32.0249C27.1098 32.0249 27.5642 32.4614 27.5642 32.9999C27.5642 33.5384 27.1098 33.9749 26.5492 33.9749C25.9886 33.9749 25.5342 33.5384 25.5342 32.9999C25.5342 32.4614 25.9886 32.0249 26.5492 32.0249Z" fill="#D9D9D9"/>
<path d="M18.5487 32.0249C17.9881 32.0249 17.5337 32.4614 17.5337 32.9999C17.5337 33.5384 17.9881 33.9749 18.5487 33.9749C19.1093 33.9749 19.5637 33.5384 19.5637 32.9999C19.5637 32.4614 19.1093 32.0249 18.5487 32.0249Z" fill="#D9D9D9"/>
</svg>
