<svg width="48" height="55" viewBox="0 0 48 55" fill="none" xmlns="http://www.w3.org/2000/svg">
<path d="M12.5142 21.1301C12.6012 22.1001 12.9461 23.1601 13.2841 23.9601C13.4511 24.3501 13.7091 24.7001 14.0131 25.0101L17.9721 28.9701C19.1871 30.1801 21.2552 29.6902 21.7982 28.0602C22.0092 27.4302 21.9372 26.7402 21.6022 26.1702L19.0652 21.8201C18.7582 21.2901 18.3381 20.8301 17.7861 20.5801C17.0541 20.2401 16.1162 19.9001 15.2272 19.6201C13.8882 19.2001 12.3892 19.7301 12.5142 21.1301Z" fill="url(#paint0_linear_53654_3076)"/>
<path d="M12.9952 19.0181C13.7262 18.6641 14.6375 18.6496 15.4513 18.9048C16.3563 19.1898 17.3298 19.5409 18.1026 19.8999C18.8372 20.2346 19.3571 20.8282 19.713 21.4419L22.2491 25.7905L22.3282 25.9341C22.7045 26.6619 22.772 27.5155 22.5099 28.2983C21.7905 30.4554 19.0532 31.1043 17.4435 29.5015L17.9718 28.9702L17.9073 29.0347L17.4435 29.5015L17.4415 29.5005L13.4776 25.5356L13.2218 25.2544C13.0152 25.0094 12.8287 24.7373 12.6798 24.438L12.5948 24.2554L12.5939 24.2524C12.2407 23.4166 11.8644 22.2752 11.7677 21.1968C11.6748 20.1569 12.2156 19.3956 12.9952 19.0181ZM15.0021 20.3345C14.4773 20.1701 13.9703 20.2119 13.6485 20.3677C13.3754 20.5 13.2289 20.7032 13.2609 21.063C13.338 21.9231 13.6505 22.901 13.9728 23.6645C14.0934 23.9463 14.2894 24.2194 14.5441 24.48L18.503 28.4399C19.3232 29.2555 20.72 28.9244 21.087 27.8227C21.2115 27.4508 21.1895 27.0477 21.0314 26.6968L20.9552 26.5503L20.9542 26.5483L21.5362 26.2085L21.6017 26.1704L20.9542 26.5483L18.4171 22.1977L18.4161 22.1958C18.1591 21.7521 17.8419 21.4286 17.4767 21.2632L17.4698 21.2602L17.7862 20.5806L17.7931 20.5649L17.4698 21.2602C16.7787 20.9393 15.8748 20.6094 15.0021 20.3345Z" fill="#1A1A1A"/>
<path d="M9.66876 22.2703C12.5988 23.2903 16.7217 27.1303 19.1797 29.7803C20.1967 30.8703 20.3858 32.4602 19.7678 33.8202L18.5937 36.4103C18.3707 36.9003 18.0048 37.3102 17.5438 37.5802C16.4828 38.2202 15.1128 38.0402 14.2868 37.1202C7.36476 29.3902 6.76675 24.5002 7.90675 22.7002C8.26875 22.1302 9.02876 22.0403 9.66876 22.2703Z" fill="url(#paint1_linear_53654_3076)"/>
<path d="M7.39867 22.1233C8.05171 21.3062 9.15891 21.2941 9.91429 21.5628L9.91527 21.5618C11.5149 22.1187 13.365 23.4084 15.0813 24.8372C16.8152 26.2807 18.4834 27.9263 19.7287 29.2688L19.9494 29.5247C20.9945 30.8396 21.1347 32.6208 20.4504 34.1282L20.4514 34.1292L19.2766 36.72L19.1614 36.9514C18.8718 37.4779 18.4458 37.9207 17.9231 38.2268L17.9221 38.2259C16.651 38.9876 15.0221 38.8405 13.9387 37.8343L13.7287 37.6214C10.2278 33.7117 8.28373 30.4737 7.36839 27.9407C6.4654 25.4417 6.52004 23.4892 7.27367 22.2991L7.39867 22.1233ZM8.83519 22.9192C8.68304 22.9506 8.59412 23.0172 8.54027 23.1018L8.53929 23.1009C8.15318 23.7108 7.93843 25.1033 8.77952 27.4309C9.60865 29.7253 11.4242 32.7993 14.845 36.6194C15.4212 37.2611 16.3917 37.399 17.1565 36.9378L17.1653 36.9329C17.4492 36.7666 17.685 36.523 17.8469 36.2288L17.9114 36.0989L19.0852 33.51L19.1721 33.3001C19.5672 32.2424 19.3729 31.0853 18.6321 30.2913L19.2864 29.68L19.1643 29.7942L18.6321 30.2913L18.6301 30.2903L18.1565 29.7874C17.0108 28.5865 15.5861 27.2099 14.1213 25.9905C12.5349 24.6699 10.9626 23.5845 9.67601 23.0725L9.4221 22.9788L9.41527 22.9759L9.25902 22.9309C9.10439 22.8967 8.95639 22.8943 8.83519 22.9192Z" fill="#1A1A1A"/>
<path d="M37.3529 21.1301C34.7769 21.6301 32.3759 23.6 31.1559 25.09L27.7829 30.34C27.0549 31.47 26.9409 32.9001 27.4779 34.1301C28.9039 37.4201 30.8259 41.7001 31.1559 39.7201C31.4689 37.85 33.7189 34.44 35.6549 32.21C36.6209 31.11 37.6859 30.0701 38.5099 28.8501C40.8049 25.4601 40.8039 23.8501 40.2349 22.6501C39.7259 21.5701 38.5239 20.9101 37.3529 21.1301Z" fill="url(#paint2_linear_53654_3076)"/>
<path d="M37.2142 20.3925C38.7426 20.1054 40.2675 20.9623 40.9124 22.33C41.2654 23.075 41.4315 23.9469 41.179 25.0908C40.9342 26.1994 40.3024 27.5403 39.1312 29.2705L39.1302 29.2695C38.2718 30.5403 37.134 31.6607 36.22 32.7011L36.221 32.7021C35.2791 33.787 34.2568 35.1642 33.4349 36.4941C32.6486 37.7663 32.0984 38.9119 31.9251 39.6923L31.8958 39.8437C31.8694 40.0022 31.8294 40.1641 31.7659 40.3134C31.7044 40.4582 31.5996 40.6401 31.4153 40.7802C31.2091 40.9369 30.9606 40.9968 30.7181 40.9648C30.5017 40.9363 30.3294 40.8408 30.2122 40.7587C29.9829 40.5981 29.782 40.3592 29.6155 40.1298C29.4392 39.8868 29.2579 39.5929 29.0755 39.2714C28.3519 37.9961 27.4995 36.0638 26.7903 34.4277C26.154 32.9683 26.2889 31.2742 27.1526 29.9336L30.5247 24.6845L30.5482 24.6484L30.5755 24.6152L30.8304 24.3154C32.1768 22.7908 34.5759 20.9048 37.2103 20.3935L37.2142 20.3925ZM39.556 22.9697C39.1827 22.178 38.3047 21.7145 37.4915 21.8671L37.4905 21.8662C35.1651 22.3195 32.9211 24.1294 31.7581 25.538L28.4134 30.7451V30.7461L28.3079 30.9209C27.8115 31.8095 27.756 32.8923 28.1653 33.83L28.1663 33.832L27.4778 34.1298L27.4222 34.1543L28.1663 33.832C28.8831 35.4858 29.7038 37.3392 30.3802 38.5312C30.4537 38.6607 30.5243 38.7796 30.5911 38.8877C30.8955 37.9238 31.4838 36.7977 32.1585 35.706C33.0236 34.3062 34.0943 32.8636 35.0882 31.7187L35.7005 32.25L35.6546 32.2099L35.0882 31.7187L35.0911 31.7148C36.1085 30.5563 37.0993 29.5982 37.888 28.4306L37.889 28.4296L38.2825 27.83C39.1361 26.4852 39.5512 25.5057 39.7142 24.7675C39.8925 23.9596 39.7725 23.4264 39.5569 22.9716L39.556 22.9697L40.2347 22.6503L40.4241 22.5605L39.556 22.9697Z" fill="#1A1A1A"/>
<path d="M21.0891 54.0001C9.79106 54.0001 12.0101 44.0801 14.5321 38.8601C15.9071 36.0201 17.6971 32.6602 18.7701 30.8002C18.9681 30.4602 19.1321 30.1001 19.1791 29.7001C19.5351 26.7201 16.9901 24.1101 17.5581 22.2201C18.6421 18.6101 24.0321 18.6201 28.3651 19.4701C30.7171 19.9301 31.6721 22.5501 30.5921 24.6901C29.9871 25.8901 29.3731 27.1201 28.4441 28.8401C27.9391 29.7701 27.8061 30.8602 28.1171 31.8802C28.7511 33.9402 29.3301 35.5401 29.6641 36.3401C31.6181 41.0301 32.9661 43.0001 33.4751 46.2201C33.8051 48.3201 33.2831 50.5901 31.6481 51.9501C28.9621 54.1801 25.4261 54.0001 21.0891 54.0001Z" fill="url(#paint3_linear_53654_3076)"/>
<path d="M21.6179 18.4336C23.7703 18.0695 26.3027 18.3015 28.5095 18.7344L28.5086 18.7354C31.4584 19.3123 32.5122 22.5502 31.2615 25.0284L31.2605 25.0274C30.6562 26.2261 30.0381 27.4656 29.1033 29.1963V29.1983C28.6893 29.9607 28.5845 30.8426 28.8328 31.6592C29.4627 33.706 30.0349 35.2811 30.3562 36.0508V36.0518C31.3383 38.409 32.1275 39.9907 32.7986 41.5323C33.4566 43.0436 33.9473 44.4058 34.2156 46.1026V46.1036C34.5723 48.3737 34.0273 50.9461 32.1277 52.5264L32.1267 52.5274C30.6402 53.7615 28.9343 54.3095 27.0857 54.5547C25.261 54.7968 23.225 54.7501 21.0886 54.7501C18.1615 54.75 16.0043 54.1082 14.492 52.9678C12.9681 51.8187 12.185 50.2286 11.8884 48.5157C11.3058 45.15 12.5732 41.1899 13.8562 38.5342L13.8572 38.5333C15.2394 35.6785 17.0372 32.3027 18.1199 30.4258L18.1218 30.4229C18.298 30.1205 18.4048 29.8641 18.4343 29.6124V29.6114C18.586 28.3419 18.1237 27.1174 17.5955 25.8379C17.3431 25.2266 17.0666 24.5784 16.8982 23.9659C16.7287 23.3493 16.6391 22.6712 16.8396 22.004C17.502 19.7988 19.4729 18.7965 21.6179 18.4336ZM28.2205 20.2061C26.0943 19.789 23.7649 19.5913 21.8679 19.9122C20.0829 20.2142 18.8585 20.9337 18.365 22.1797L18.2761 22.4356C18.1927 22.7133 18.2077 23.071 18.3445 23.5684C18.4824 24.0698 18.7139 24.6149 18.9822 25.2647C19.4954 26.5077 20.1279 28.0787 19.9236 29.7891C19.8592 30.3352 19.6378 30.7972 19.4187 31.1739L19.4197 31.1749C18.4893 32.7876 17.0089 35.5497 15.7371 38.1075L15.2068 39.1866C13.9679 41.7509 12.8651 45.3607 13.367 48.2598C13.6127 49.6794 14.2364 50.8956 15.3953 51.7696C16.5656 52.6521 18.3673 53.25 21.0886 53.2501C23.289 53.2501 25.1896 53.2938 26.8884 53.0684C28.5632 52.8462 29.9684 52.3686 31.1677 51.3731C32.4523 50.3046 32.9712 48.5088 32.781 46.6983L32.7342 46.337C32.4934 44.8142 32.0552 43.5817 31.4236 42.1309C30.8823 40.8876 30.1552 39.3934 29.3308 37.4766L28.9715 36.629C28.6248 35.7985 28.0381 34.1735 27.4002 32.1006L27.3992 32.0987C27.0265 30.8761 27.1894 29.5792 27.7849 28.4825C28.7077 26.774 29.3172 25.5535 29.9226 24.3526C30.8035 22.6071 30.0268 20.6742 28.3826 20.2432L28.2205 20.2061Z" fill="#1A1A1A"/>
<path d="M36.0603 26.6844C36.2732 26.3291 36.7343 26.2137 37.0896 26.4265C37.4448 26.6394 37.5602 27.1005 37.3474 27.4558C36.6792 28.5712 35.6383 29.6021 34.6482 30.4236C33.6513 31.2508 32.6567 31.9053 32.031 32.2615C31.6711 32.4664 31.2135 32.341 31.0086 31.9812C30.8037 31.6213 30.929 31.1637 31.2888 30.9588C31.84 30.645 32.7621 30.0394 33.6902 29.2693C34.6253 28.4934 35.5185 27.5889 36.0603 26.6844Z" fill="#538619"/>
<path d="M10.2151 25.7434C10.5945 25.5773 11.0362 25.7498 11.2024 26.1292C11.6261 27.0966 12.3986 28.107 13.2278 28.9944C14.0508 29.8752 14.8887 30.5902 15.3948 30.969C15.7263 31.2172 15.7934 31.6882 15.5452 32.0198C15.2969 32.3511 14.8268 32.4183 14.4954 32.1702C13.9195 31.739 13.0154 30.9643 12.1311 30.0178C11.2529 29.0779 10.3516 27.9231 9.82935 26.7307C9.66319 26.3513 9.83573 25.9096 10.2151 25.7434Z" fill="#538619"/>
<path d="M35.0343 24.6947C35.2305 24.33 35.6852 24.1939 36.05 24.39C36.4148 24.5862 36.5518 25.0408 36.3556 25.4056C35.9364 26.1851 35.2885 26.8959 34.6828 27.4544C34.0719 28.0176 33.4616 28.4641 33.0724 28.7122C32.7231 28.9349 32.2589 28.832 32.0363 28.4827C31.8141 28.1335 31.9168 27.6702 32.2658 27.4476C32.5825 27.2457 33.1223 26.8524 33.6662 26.3509C34.2154 25.8445 34.7276 25.265 35.0343 24.6947Z" fill="#538619"/>
<path d="M23.956 22.6533C24.1694 22.2984 24.6303 22.1841 24.9852 22.3975C25.3402 22.6109 25.4555 23.0718 25.2421 23.4268C25.1649 23.5551 25.0346 23.8588 24.8895 24.3389C24.7493 24.8029 24.6071 25.3887 24.4921 26.0518C24.2611 27.3832 24.1436 28.9858 24.3339 30.5068C24.7608 33.9284 23.7919 36.4026 23.2919 37.8975C23.1605 38.2903 22.7355 38.5025 22.3427 38.3711C21.9501 38.2396 21.7387 37.8146 21.87 37.4219C22.3801 35.8968 23.2245 33.7311 22.8456 30.6934L22.8095 30.3721C22.649 28.7658 22.7819 27.1373 23.0145 25.7959C23.1391 25.078 23.2936 24.4317 23.453 23.9043C23.6076 23.3929 23.7806 22.945 23.956 22.6533Z" fill="#538619"/>
<path d="M21.0389 22.5127C21.3302 22.2185 21.805 22.2157 22.0994 22.5069C22.5725 22.9753 23.3403 23.5871 23.9246 23.879C24.2951 24.0639 24.4462 24.5143 24.2615 24.8848C24.0765 25.2554 23.6253 25.4058 23.2547 25.2208C22.4773 24.8325 21.5815 24.1047 21.0447 23.5733C20.7505 23.282 20.7477 22.8071 21.0389 22.5127Z" fill="#538619"/>
<path d="M25.5811 26.5395C25.8738 26.2465 26.3486 26.2467 26.6416 26.5395C26.9346 26.8322 26.9353 27.307 26.6426 27.6C25.4177 28.8261 24.1523 28.8295 23.5898 28.8295C23.1756 28.8295 22.8398 28.4937 22.8398 28.0795C22.84 27.6654 23.1757 27.3295 23.5898 27.3295C24.0354 27.3295 24.788 27.3334 25.5811 26.5395Z" fill="#538619"/>
<path d="M25.542 32.7846C25.7272 32.4142 26.1783 32.2644 26.5488 32.4497C26.9191 32.635 27.069 33.0852 26.8838 33.4555C26.5299 34.1633 25.9164 34.5954 25.3945 34.8628C24.8762 35.1282 24.3426 35.2803 24.1328 35.3511C23.7404 35.4833 23.315 35.2718 23.1826 34.8794C23.0505 34.487 23.261 34.0616 23.6533 33.9292C23.9474 33.83 24.3216 33.7272 24.7109 33.5278C25.0967 33.3302 25.3908 33.0868 25.542 32.7846ZM21.2373 29.4292C21.6077 29.2442 22.058 29.3948 22.2431 29.7651C22.3936 30.0656 22.6862 30.3064 23.0713 30.5014C23.4617 30.6993 23.8335 30.7982 24.1328 30.8989C24.5252 31.0311 24.7364 31.4567 24.6045 31.8491C24.4723 32.2416 24.0468 32.4528 23.6543 32.3208C23.4486 32.2515 22.9111 32.1015 22.3935 31.8393C21.8709 31.5745 21.2559 31.1442 20.9013 30.435C20.7164 30.0646 20.8669 29.6144 21.2373 29.4292Z" fill="#538619"/>
<path fill-rule="evenodd" clip-rule="evenodd" d="M21.1055 46.6168C21.4249 46.353 21.8976 46.3982 22.1614 46.7176C22.9259 47.6435 24.3341 47.6776 25.1423 46.7896L25.2323 46.6906C25.5109 46.3841 25.9853 46.3615 26.2918 46.6401C26.5983 46.9188 26.6208 47.3931 26.3422 47.6996L26.2522 47.7986C24.8294 49.3624 22.3505 49.3026 21.0047 47.6726C20.741 47.3532 20.7861 46.8805 21.1055 46.6168Z" fill="#1A1A1A"/>
<path d="M27.5863 44.2451C28.1469 44.2451 28.6013 44.6816 28.6013 45.2201C28.6013 45.7586 28.1469 46.1951 27.5863 46.1951C27.0257 46.1951 26.5713 45.7586 26.5713 45.2201C26.5713 44.6816 27.0257 44.2451 27.5863 44.2451Z" fill="#1A1A1A"/>
<path d="M19.5858 44.2451C19.0252 44.2451 18.5708 44.6816 18.5708 45.2201C18.5708 45.7586 19.0252 46.1951 19.5858 46.1951C20.1464 46.1951 20.6008 45.7586 20.6008 45.2201C20.6008 44.6816 20.1464 44.2451 19.5858 44.2451Z" fill="#1A1A1A"/>
<defs>
<linearGradient id="paint0_linear_53654_3076" x1="12.9262" y1="20.2601" x2="18.0322" y2="24.7901" gradientUnits="userSpaceOnUse">
<stop stop-color="#78B136"/>
<stop offset="1" stop-color="#FFFBEB"/>
</linearGradient>
<linearGradient id="paint1_linear_53654_3076" x1="7.65975" y1="23.5402" x2="13.7897" y2="29.0002" gradientUnits="userSpaceOnUse">
<stop stop-color="#78B136"/>
<stop offset="1" stop-color="#FFFBEB"/>
</linearGradient>
<linearGradient id="paint2_linear_53654_3076" x1="40.2349" y1="21.5601" x2="32.1629" y2="30.1401" gradientUnits="userSpaceOnUse">
<stop stop-color="#78B136"/>
<stop offset="1" stop-color="#FFFBEB"/>
</linearGradient>
<linearGradient id="paint3_linear_53654_3076" x1="23.0961" y1="19.0001" x2="23.1071" y2="42.9001" gradientUnits="userSpaceOnUse">
<stop stop-color="#78B136"/>
<stop offset="1" stop-color="#FFFBEB"/>
</linearGradient>
</defs>
</svg>
