<svg width="48" height="55" viewBox="0 0 48 55" fill="none" xmlns="http://www.w3.org/2000/svg">
<path d="M12.6163 21.1299C12.7053 22.0899 13.0433 23.1299 13.3743 23.9099C13.5423 24.3099 13.8003 24.6498 14.1043 24.9598L18.0243 28.8799C19.2283 30.0799 21.2793 29.5999 21.8173 27.9799C22.0253 27.3599 21.9553 26.6699 21.6233 26.0999L19.1113 21.7999C18.8043 21.2699 18.3853 20.8199 17.8333 20.5599C17.1133 20.2199 16.1943 19.8999 15.3223 19.6199C13.9833 19.1999 12.4863 19.7299 12.6163 21.1299Z" fill="url(#paint0_linear_53654_3012)"/>
<path d="M13.0913 19.0178C13.8217 18.6633 14.7336 18.6493 15.5473 18.9045L15.5522 18.9055C16.4279 19.1866 17.3858 19.519 18.1528 19.8811C18.8775 20.2224 19.3984 20.7991 19.7592 21.4211L22.271 25.7219L20.976 26.4777L18.4643 22.1779L18.4624 22.176C18.2093 21.7391 17.8923 21.4166 17.5141 21.2385L18.0131 20.1789L17.8335 20.5598L17.5141 21.2385C16.8413 20.9208 15.961 20.6128 15.0932 20.3342C14.5698 20.1713 14.0658 20.2124 13.7465 20.3674C13.4754 20.499 13.3303 20.7006 13.3637 21.0607C13.4429 21.9141 13.75 22.8743 14.0649 23.6164L14.0659 23.6193C14.1851 23.9032 14.3759 24.1646 14.6352 24.4299L18.5542 28.3488L18.7124 28.4865C19.5335 29.1132 20.7669 28.7641 21.1059 27.7434L21.1069 27.7414C21.2459 27.3269 21.1993 26.8614 20.976 26.4777L22.271 25.7219C22.7109 26.4772 22.8044 27.3905 22.5288 28.215L22.5297 28.216C21.8153 30.3672 19.0926 31.0027 17.4956 29.4113L13.5688 25.4846L14.1049 24.9602L14.1616 24.9035L13.5688 25.4846C13.2234 25.1323 12.9 24.7162 12.684 24.2033L12.5542 23.883C12.2498 23.1063 11.9561 22.1326 11.8696 21.1994C11.773 20.1596 12.3117 19.3962 13.0913 19.0178Z" fill="#1A1A1A"/>
<path d="M9.80272 22.2399C12.7007 23.2599 16.7717 27.05 19.2087 29.67C20.2257 30.76 20.4147 32.3499 19.7957 33.7099L18.6417 36.2499C18.4207 36.7399 18.0577 37.15 17.6007 37.42C16.5487 38.05 15.1907 37.8699 14.3717 36.9599C7.51972 29.3099 6.91871 24.47 8.04271 22.67C8.40271 22.1 9.16372 22.0199 9.80272 22.2399Z" fill="url(#paint1_linear_53654_3012)"/>
<path d="M7.53306 22.0938C8.19013 21.2696 9.30868 21.2763 10.0467 21.5304L10.0516 21.5323C11.6336 22.0891 13.4614 23.3659 15.1581 24.7784C16.8722 26.2055 18.5221 27.8311 19.7567 29.1583C20.9229 30.4082 21.1801 32.1747 20.6043 33.7159L20.4784 34.0206L19.3241 36.5577L19.325 36.5587C19.0428 37.1843 18.577 37.7119 17.9852 38.0626C16.7216 38.8193 15.1001 38.6721 14.0223 37.6729L13.8143 37.462L13.8133 37.4601C10.3475 33.5906 8.41999 30.3873 7.51059 27.877C6.61299 25.3993 6.66392 23.4611 7.4061 22.2726L7.40806 22.2696L7.53306 22.0938ZM8.96665 22.8937C8.81288 22.9248 8.72754 22.9898 8.67661 23.0704C8.29608 23.6834 8.08755 25.065 8.92075 27.3653C9.74377 29.6372 11.5434 32.6784 14.9286 36.4581C15.4985 37.0914 16.4596 37.2292 17.2157 36.7765L17.2186 36.7745C17.539 36.5852 17.7987 36.2944 17.9579 35.9415L17.9588 35.9396L19.1131 33.3995L19.2 33.1896C19.5693 32.2024 19.4241 31.1291 18.8006 30.3448L18.66 30.1817L18.659 30.1808C17.4567 28.8882 15.8526 27.3092 14.1981 25.9317C12.5277 24.5411 10.8735 23.4135 9.55845 22.9493L9.39829 22.9044C9.24021 22.8708 9.08941 22.8688 8.96665 22.8937Z" fill="#1A1A1A"/>
<path d="M37.2205 21.1199C34.6725 21.6199 32.3005 23.5699 31.0935 25.0399L27.7605 30.2299C27.0325 31.3599 26.9185 32.7799 27.4555 34.0199C28.8685 37.2699 30.7675 41.4999 31.0935 39.5399C31.4025 37.6899 33.6245 34.3199 35.5405 32.1099C36.5055 30.9999 37.5715 29.9699 38.3945 28.7499C40.6485 25.4099 40.6565 23.8199 40.1005 22.6299C39.5955 21.5499 38.3905 20.8899 37.2205 21.1199Z" fill="url(#paint2_linear_53654_3012)"/>
<path d="M37.0757 20.3838C38.6068 20.0828 40.139 20.942 40.7798 22.3125C41.1256 23.0526 41.2848 23.9159 41.0337 25.0459C40.7903 26.1409 40.1667 27.4639 39.0161 29.1689C38.3737 30.1213 37.568 30.99 36.8228 31.8047L36.1069 32.6016C35.1749 33.6766 34.164 35.0386 33.352 36.3535C32.5234 37.6954 31.9622 38.8936 31.8335 39.6631L30.4194 39.4268L31.0933 39.54L31.8335 39.6631C31.8073 39.8203 31.7675 39.9804 31.7046 40.1289C31.6436 40.2728 31.5402 40.4547 31.3569 40.5947C31.1519 40.7513 30.9041 40.8116 30.6616 40.7803C30.4455 40.7523 30.2734 40.6577 30.1567 40.5762C29.9284 40.4167 29.7296 40.1789 29.5649 39.9522C29.3904 39.7118 29.2101 39.422 29.0298 39.1045C28.3142 37.8444 27.4705 35.9349 26.7681 34.3193L27.4839 34.0078L27.2769 34.0967L26.7681 34.3193L26.7671 34.3184L26.6567 34.04C26.1509 32.6405 26.3199 31.0812 27.1304 29.8232L30.4624 24.6348L30.4858 24.5977L30.5142 24.5645C31.7831 23.019 34.2946 20.9297 37.0757 20.3838ZM39.4214 22.9473C39.0522 22.1578 38.1736 21.6965 37.3647 21.8555C35.0652 22.3068 32.8474 24.0976 31.6958 25.4883L28.3911 30.6348V30.6357L28.2856 30.8106C27.7895 31.6977 27.7332 32.7729 28.144 33.7217H28.1431C28.8536 35.3559 29.666 37.1861 30.3345 38.3633C30.4033 38.4845 30.4698 38.5961 30.5327 38.6982C30.8351 37.7474 31.4136 36.6392 32.0767 35.5654C32.9318 34.1806 33.9904 32.7529 34.9741 31.6182L35.7329 30.7725C36.4788 29.9567 37.1808 29.2079 37.7729 28.3301C38.8761 26.6954 39.3838 25.5531 39.5688 24.7207C39.746 23.9236 39.6315 23.397 39.4214 22.9473Z" fill="#1A1A1A"/>
<path d="M21.1145 53.6901C9.91446 53.6901 12.1145 43.8601 14.6145 38.6901C15.9765 35.8801 17.7495 32.5401 18.8135 30.7001C19.0105 30.3601 19.1755 30.0001 19.2215 29.6101C19.5715 26.6501 17.0515 24.0701 17.6145 22.1901C18.6855 18.6201 24.0005 18.6201 28.2885 19.4601C30.6415 19.9101 31.5965 22.5402 30.5165 24.6802C29.9245 25.8502 29.3195 27.0601 28.4125 28.7401C27.9075 29.6701 27.7745 30.7702 28.0855 31.7802C28.7115 33.8202 29.2845 35.4001 29.6145 36.1901C31.5455 40.8301 32.8805 42.7801 33.3875 45.9601C33.7225 48.0601 33.1985 50.3302 31.5595 51.6802C28.8995 53.8702 25.4025 53.6901 21.1145 53.6901Z" fill="url(#paint3_linear_53654_3012)"/>
<path d="M21.6187 18.4315C23.7454 18.0684 26.2486 18.2956 28.4332 18.7235L28.4322 18.7245C31.2944 19.2738 32.3677 22.343 31.2965 24.7841L31.1861 25.0185C30.595 26.1866 29.9854 27.4062 29.0728 29.0966L29.0719 29.0976C28.6831 29.8134 28.5688 30.6425 28.7603 31.4071L28.8023 31.5595V31.5604C29.2687 33.0801 29.7031 34.3347 30.025 35.1874L30.3062 35.9013L30.3072 35.9022C31.2768 38.2319 32.0586 39.8005 32.7223 41.3231C33.3737 42.8179 33.8611 44.1649 34.1285 45.8417C34.4908 48.1127 33.9434 50.6879 32.0367 52.2587C30.5632 53.4718 28.8741 54.0099 27.0455 54.2499C25.2405 54.4868 23.2266 54.4403 21.1148 54.4403C18.2119 54.4403 16.0716 53.803 14.5709 52.6718C13.0588 51.5319 12.282 49.9553 11.9879 48.2567C11.41 44.9195 12.6669 40.994 13.9391 38.3632H13.94C15.3088 35.5393 17.0902 32.1822 18.1646 30.3241L18.2848 30.1034C18.3909 29.8911 18.4559 29.7024 18.4771 29.5224C18.6261 28.2622 18.1684 27.0492 17.6451 25.7811C17.3951 25.1754 17.1206 24.5329 16.9537 23.9247C16.7857 23.3122 16.6972 22.6385 16.8961 21.9745L16.9615 21.7733C17.6734 19.7287 19.5648 18.7823 21.6187 18.4315ZM28.1441 20.1962C26.0409 19.7842 23.7422 19.5917 21.8717 19.911C20.1121 20.2115 18.9069 20.9228 18.4205 22.1522L18.3326 22.4052C18.25 22.6812 18.2658 23.0358 18.401 23.5282C18.5373 24.0249 18.7661 24.5649 19.0318 25.2089C19.5402 26.4408 20.1674 27.9984 19.9664 29.6981C19.9027 30.238 19.6788 30.7027 19.4625 31.0761C18.4089 32.8981 16.6448 36.2217 15.2896 39.0175C14.0619 41.5566 12.9694 45.1309 13.4664 48.0009C13.7098 49.4059 14.3271 50.6098 15.4742 51.4745C16.6329 52.3478 18.418 52.9403 21.1148 52.9403C23.2908 52.9403 25.1699 52.9831 26.8502 52.7626C28.5067 52.5452 29.8963 52.078 31.0826 51.1015C32.4536 49.9722 32.9548 48.0069 32.6471 46.078C32.4074 44.575 31.9727 43.3569 31.3473 41.9218C30.734 40.5148 29.8835 38.7887 28.9225 36.4794L28.6236 35.7216C28.2862 34.828 27.8413 33.5406 27.3687 32.0009L27.3053 31.7724C27.0172 30.624 27.1953 29.4097 27.7535 28.3817C28.6543 26.7132 29.2546 25.513 29.8473 24.3417C30.7576 22.5372 29.8971 20.5309 28.148 20.1962H28.1441Z" fill="#1A1A1A"/>
<path d="M35.9501 26.6143C36.1631 26.2592 36.6242 26.1436 36.9794 26.3565C37.3345 26.5695 37.4501 27.0306 37.2372 27.3858C36.574 28.4911 35.5418 29.5124 34.5604 30.3262C33.5719 31.146 32.5856 31.7951 31.9667 32.1504C31.6075 32.3564 31.1494 32.2322 30.9432 31.8731C30.7372 31.5139 30.8615 31.0558 31.2206 30.8496C31.7686 30.535 32.683 29.9344 33.6024 29.1719C34.5292 28.4033 35.4133 27.5088 35.9501 26.6143Z" fill="#FF24BD"/>
<path d="M10.3321 25.6834C10.7112 25.5168 11.1536 25.6891 11.3204 26.0682C11.7394 27.0207 12.5039 28.0182 13.3263 28.8973C14.1422 29.7697 14.9733 30.4812 15.4766 30.8612C15.8072 31.1107 15.8727 31.5814 15.6231 31.9119C15.3736 32.2423 14.9038 32.3078 14.5733 32.0584C14.0037 31.6284 13.1074 30.8601 12.2306 29.9227C11.36 28.9919 10.4653 27.8491 9.94735 26.6717C9.78071 26.2926 9.95303 25.8502 10.3321 25.6834Z" fill="#FF24BD"/>
<path d="M34.9345 24.6424C35.1318 24.2785 35.587 24.1435 35.9511 24.3407C36.315 24.538 36.45 24.9931 36.2529 25.3573C35.837 26.1253 35.1951 26.8301 34.5947 27.3846C33.9895 27.9435 33.3833 28.3893 32.9931 28.6346C32.6425 28.855 32.1794 28.7497 31.9589 28.3993C31.7386 28.0487 31.8438 27.5856 32.1943 27.3651C32.5039 27.1704 33.0376 26.7813 33.5771 26.283C34.1216 25.7802 34.6304 25.2042 34.9345 24.6424Z" fill="#FF24BD"/>
<path d="M23.9513 22.6133C24.1649 22.2586 24.6258 22.1439 24.9806 22.3574C25.3353 22.5711 25.4499 23.032 25.2364 23.3867C25.161 23.512 25.0326 23.8124 24.8888 24.2891C24.7499 24.7494 24.6092 25.331 24.4952 25.9893C24.2663 27.311 24.1497 28.9012 24.338 30.4072C24.7619 33.799 23.8003 36.2536 23.3058 37.7373C23.1748 38.1303 22.7495 38.3429 22.3565 38.2119C21.9636 38.0809 21.7509 37.6557 21.8819 37.2627C22.3873 35.7464 23.2257 33.6009 22.8497 30.5928C22.638 28.8989 22.7716 27.1541 23.0177 25.7334C23.1411 25.0206 23.2943 24.3791 23.4522 23.8555C23.6053 23.3483 23.7768 22.9031 23.9513 22.6133Z" fill="#FF24BD"/>
<path d="M21.0634 22.4697C21.3563 22.1768 21.8311 22.1768 22.124 22.4697C22.593 22.9387 23.3508 23.5464 23.9228 23.8261C24.2948 24.008 24.4492 24.457 24.2675 24.829C24.0856 25.2011 23.6367 25.3555 23.2646 25.1738C22.4867 24.7934 21.5943 24.0611 21.0634 23.5302C20.7705 23.2373 20.7705 22.7626 21.0634 22.4697Z" fill="#FF24BD"/>
<path d="M25.5635 26.4697C25.8564 26.1768 26.3311 26.1768 26.624 26.4697C26.9169 26.7626 26.9169 27.2373 26.624 27.5302C25.4081 28.7462 24.152 28.7499 23.5938 28.7499C23.1795 28.7499 22.8438 28.4142 22.8438 27.9999C22.8438 27.5857 23.1795 27.2499 23.5938 27.2499C24.0355 27.2499 24.7794 27.2537 25.5635 26.4697Z" fill="#FF24BD"/>
<path d="M25.5224 32.665C25.7077 32.2945 26.1588 32.1438 26.5293 32.3291C26.8996 32.5143 27.0493 32.9645 26.8642 33.3349C26.5123 34.0389 25.9018 34.4661 25.3838 34.7295C24.8709 34.9902 24.3372 35.1411 24.1347 35.2099C23.7427 35.3431 23.3169 35.1332 23.1836 34.7412C23.0504 34.3491 23.2602 33.9233 23.6523 33.79C23.9499 33.6889 24.317 33.5893 24.7041 33.3926C25.0856 33.1986 25.3744 32.9607 25.5224 32.665ZM21.2588 29.3291C21.6292 29.1441 22.0795 29.2947 22.2646 29.665C22.4127 29.9608 22.7023 30.1985 23.084 30.3926C23.4708 30.5892 23.8373 30.6889 24.1347 30.79C24.5269 30.9233 24.7368 31.3491 24.6035 31.7412C24.4702 32.1334 24.0445 32.3433 23.6523 32.2099C23.4499 32.1411 22.9171 31.9901 22.4043 31.7295C21.8862 31.4661 21.2749 31.039 20.9228 30.3349C20.7379 29.9645 20.8884 29.5143 21.2588 29.3291Z" fill="#FF24BD"/>
<path fill-rule="evenodd" clip-rule="evenodd" d="M21.108 46.6163C21.4274 46.3525 21.9001 46.3977 22.1638 46.7171C22.9283 47.643 24.3366 47.6771 25.1447 46.7891L25.2347 46.6901C25.5134 46.3836 25.9877 46.361 26.2942 46.6396C26.6007 46.9183 26.6233 47.3926 26.3447 47.6991L26.2547 47.7981C24.8318 49.3619 22.3529 49.3021 21.0071 47.6721C20.7434 47.3527 20.7885 46.88 21.108 46.6163Z" fill="#1A1A1A"/>
<path d="M27.5892 44.0249C28.1498 44.0249 28.6042 44.4614 28.6042 44.9999C28.6042 45.5384 28.1498 45.9749 27.5892 45.9749C27.0286 45.9749 26.5742 45.5384 26.5742 44.9999C26.5742 44.4614 27.0286 44.0249 27.5892 44.0249Z" fill="#1A1A1A"/>
<path d="M19.5892 44.0249C19.0286 44.0249 18.5742 44.4614 18.5742 44.9999C18.5742 45.5384 19.0286 45.9749 19.5892 45.9749C20.1498 45.9749 20.6042 45.5384 20.6042 44.9999C20.6042 44.4614 20.1498 44.0249 19.5892 44.0249Z" fill="#1A1A1A"/>
<defs>
<linearGradient id="paint0_linear_53654_3012" x1="13.0223" y1="20.2499" x2="18.0833" y2="24.7399" gradientUnits="userSpaceOnUse">
<stop stop-color="#FF24BD"/>
<stop offset="1" stop-color="#FFF0FE"/>
</linearGradient>
<linearGradient id="paint1_linear_53654_3012" x1="7.80271" y1="23.4999" x2="13.8797" y2="28.9099" gradientUnits="userSpaceOnUse">
<stop stop-color="#FF24BD"/>
<stop offset="1" stop-color="#FFF0FE"/>
</linearGradient>
<linearGradient id="paint2_linear_53654_3012" x1="40.0935" y1="21.5399" x2="32.0914" y2="30.0399" gradientUnits="userSpaceOnUse">
<stop stop-color="#FF24BD"/>
<stop offset="1" stop-color="#FFF0FE"/>
</linearGradient>
<linearGradient id="paint3_linear_53654_3012" x1="23.1045" y1="19.0001" x2="23.1145" y2="42.6901" gradientUnits="userSpaceOnUse">
<stop stop-color="#FF24BD"/>
<stop offset="1" stop-color="#FFF0FE"/>
</linearGradient>
</defs>
</svg>
