<svg width="48" height="55" viewBox="0 0 48 55" fill="none" xmlns="http://www.w3.org/2000/svg">
<path fill-rule="evenodd" clip-rule="evenodd" d="M19.3601 54.15C18.4841 53.81 17.4831 54.05 16.6371 54.45C16.1331 54.7 15.5681 54.83 14.9711 54.83C13.3541 54.83 11.9101 53.82 11.3921 52.29C10.2541 48.93 8.3431 42.9 7.6401 38.42C7.1411 35.23 6.9821 31.1201 6.9471 27.8101C6.9131 24.5701 9.5691 22 12.8081 22C13.4401 22 14.0501 22.1 14.6221 22.28C15.4181 22.53 16.3081 22.49 17.0111 22.04C19.0301 20.75 21.4281 20 24.0021 20C26.5451 20 28.9171 20.73 30.9211 21.99C31.6061 22.42 32.4661 22.47 33.2431 22.24C33.7751 22.08 34.3381 22 34.9211 22C38.1841 22 40.8231 24.64 40.6891 27.9C40.4961 32.57 40.0321 39.1001 38.9121 43.9301C38.3071 46.5401 37.2081 49.97 36.4301 52.28C35.9131 53.82 34.4661 54.83 32.8451 54.83C32.2621 54.83 31.7091 54.7 31.2141 54.47C30.3871 54.08 29.4161 53.8601 28.5601 54.1801C27.1421 54.7101 25.6061 55 24.0021 55C22.3661 55 20.8011 54.7 19.3601 54.15Z" fill="#FFCD29"/>
<path d="M15.9885 53.1001C16.9785 52.6302 18.45 52.1907 19.8948 52.7505C21.1688 53.2305 22.5522 53.5005 24.0022 53.5005V55.0005L23.3919 54.9858C21.9768 54.9209 20.6213 54.6311 19.3606 54.1499C18.4846 53.8099 17.483 54.0497 16.637 54.4497C16.133 54.6997 15.568 54.8306 14.971 54.8306V53.3306C15.338 53.3306 15.6825 53.2501 15.9885 53.1001Z" fill="#1A1A1A"/>
<path d="M28.0344 52.77C29.4482 52.2402 30.8799 52.66 31.8508 53.1099C32.1508 53.2498 32.4871 53.3305 32.845 53.3306V54.8306L32.6282 54.8237C32.1968 54.7997 31.7845 54.7047 31.4026 54.5513L31.2141 54.4702C30.3871 54.0802 29.4158 53.8602 28.5598 54.1802C27.1419 54.7101 25.6061 55.0005 24.0022 55.0005V53.5005C25.4232 53.5005 26.7824 53.24 28.0344 52.77Z" fill="#1A1A1A"/>
<path d="M12.8128 51.8101C13.1187 52.72 13.9791 53.3305 14.971 53.3306V54.8306L14.6702 54.8188C13.1773 54.7023 11.8776 53.7248 11.3919 52.2905L11.3909 52.2896L12.8128 51.8101Z" fill="#1A1A1A"/>
<path d="M38.9104 43.9341C38.3052 46.5435 37.2075 49.971 36.43 52.2798C35.913 53.8198 34.466 54.8306 32.845 54.8306V53.3306C33.8379 53.3306 34.702 52.7102 35.0091 51.8003C35.7851 49.5003 36.8644 46.1301 37.4514 43.6001L38.9104 43.9341Z" fill="#1A1A1A"/>
<path d="M9.12233 38.1802C9.80332 42.5301 11.6738 48.44 12.8128 51.8101L11.3909 52.2896C10.2529 48.9294 8.34287 42.9 7.63991 38.4204C7.63962 38.4185 7.63923 38.4164 7.63894 38.4146L9.12233 38.1802Z" fill="#1A1A1A"/>
<path d="M24.4768 20.0083C26.8401 20.0931 29.0424 20.8085 30.9212 21.9897C31.6062 22.4197 32.4664 22.4697 33.2434 22.2397C33.7753 22.0798 34.3383 22.0005 34.9212 22.0005L35.2249 22.0073C38.3462 22.1651 40.8184 24.7418 40.6887 27.8999C40.4957 32.5699 40.0324 39.1002 38.9124 43.9302C38.9121 43.9315 38.9107 43.9327 38.9104 43.9341L37.4514 43.6001C38.5364 38.9102 38.9987 32.5003 39.1907 27.8403C39.2877 25.4703 37.3692 23.5005 34.9212 23.5005C34.4832 23.5005 34.0632 23.5602 33.6673 23.6802C32.5773 24.0002 31.2503 23.9702 30.1214 23.2603C28.3504 22.1503 26.2532 21.5005 24.0022 21.5005C21.7233 21.5005 19.6046 22.1604 17.8196 23.3003C16.6626 24.0403 15.2902 24.0604 14.1702 23.7104C13.7422 23.5704 13.2849 23.5005 12.8079 23.5005C10.364 23.5007 8.42253 25.4206 8.44753 27.7905L6.94753 27.8042C6.91686 24.5671 9.57099 22.0006 12.8079 22.0005L13.0442 22.0044C13.5921 22.026 14.1219 22.1223 14.6223 22.2798C15.4182 22.5297 16.3081 22.4904 17.011 22.0405C19.03 20.7505 21.4282 20.0005 24.0022 20.0005L24.4768 20.0083Z" fill="#1A1A1A"/>
<path d="M8.44753 27.7905C8.48254 31.0905 8.64135 35.1103 9.12233 38.1802L7.63894 38.4146C7.14063 35.2254 6.98251 31.1181 6.94753 27.8101C6.94751 27.8081 6.94755 27.8062 6.94753 27.8042L8.44753 27.7905Z" fill="#1A1A1A"/>
<path d="M20.4599 15.19C20.3819 15.19 20.3039 15.2 20.2299 15.22C19.1659 15.57 18.7469 16.25 18.4389 16.75C18.4169 16.79 18.3959 16.82 18.3759 16.86C18.3079 16.96 18.2099 17.0301 18.0669 17.0601C17.9139 17.0901 17.7109 17.08 17.5019 16.99L16.2059 16.46C15.8729 16.32 15.6519 16.07 15.5659 15.82C15.4859 15.58 15.5169 15.34 15.7009 15.12C16.9869 13.63 19.1819 12.25 22.2899 13.09C23.3499 13.37 24.0749 13.8501 24.5639 14.4101C25.0549 14.9701 25.3409 15.6601 25.4629 16.4001C25.6839 17.7501 25.3469 19.21 24.7969 20.25H22.7319C22.9489 19.45 23.1259 18.54 23.0809 17.72C23.0469 17.12 22.8889 16.47 22.4379 15.96C21.9669 15.44 21.2859 15.19 20.4599 15.19Z" fill="#14AE5C"/>
<path d="M15.4111 14.3244C16.8613 12.8056 19.2375 11.4886 22.4854 12.3664L22.4844 12.3673C23.6714 12.6815 24.5309 13.2328 25.1279 13.9162L25.3408 14.1789C25.7417 14.7173 25.9981 15.3279 26.1406 15.9601L26.2031 16.2785C26.4545 17.8144 26.0738 19.44 25.46 20.6007C25.33 20.8464 25.0748 21.0001 24.7969 21.0002H22.7315C22.4981 21 22.2776 20.8916 22.1358 20.7062C21.9939 20.5207 21.9467 20.2793 22.0078 20.0539C22.2179 19.2795 22.3701 18.4621 22.332 17.7628L22.3164 17.5734C22.2682 17.1409 22.1366 16.7558 21.8819 16.464L21.7647 16.3478C21.4717 16.0925 21.0491 15.9406 20.46 15.9406C20.4497 15.9406 20.4407 15.9422 20.4336 15.9435C19.6601 16.2076 19.3643 16.6776 19.0772 17.1437C19.0642 17.1661 19.0538 17.185 19.0498 17.1916C19.0489 17.1932 19.0476 17.1943 19.0469 17.1955L18.3731 16.8586L18.376 16.8605L19.0469 17.1955C19.032 17.2253 19.0149 17.2548 18.9961 17.2824C18.8164 17.5464 18.5491 17.7252 18.2207 17.7941L18.0635 17.0431L18.0742 17.0998L18.2207 17.7941L18.211 17.7961C17.9157 17.8539 17.564 17.8299 17.2178 17.6837L15.9219 17.1544L15.9151 17.1515L16.2061 16.4601L16.2354 16.3888L15.9151 17.1515C15.4666 16.9629 15.1164 16.6307 14.9278 16.2365L14.8565 16.0636L14.8545 16.0578L14.8057 15.8781C14.7182 15.4568 14.811 15.0155 15.126 14.6388L15.1328 14.63L15.4111 14.3244ZM22.0938 13.8146C19.3542 13.0743 17.4418 14.2592 16.2832 15.5929C16.3043 15.6333 16.3632 15.7106 16.4903 15.7658L17.7861 16.2961L17.7988 16.3009C17.809 16.3053 17.8198 16.3057 17.8291 16.3087C18.1573 15.7769 18.7034 14.933 19.9951 14.508C20.0079 14.5038 20.0212 14.4998 20.0342 14.4962C20.1745 14.4583 20.3186 14.4406 20.46 14.4406C21.3775 14.4406 22.2316 14.7043 22.8692 15.3273L22.9942 15.4562L23 15.463C23.5306 16.063 23.7379 16.7823 23.8076 17.4132L23.8301 17.6779C23.8632 18.2806 23.791 18.9096 23.6768 19.5002H24.3223C24.6909 18.6268 24.8866 17.5261 24.7227 16.5226L24.6778 16.2902C24.5577 15.757 24.3344 15.2858 24 14.9044L23.999 14.9035L23.8467 14.7414C23.4664 14.3683 22.9129 14.0307 22.0986 13.8156L22.3281 12.9464L22.0938 13.8146ZM22.0986 13.8156L22.0938 13.8146L22.2901 13.09L22.0986 13.8156Z" fill="#1A1A1A"/>
<path d="M16.0522 26C16.0522 25.1716 16.7238 24.5 17.5522 24.5C18.3805 24.5002 19.0522 25.1717 19.0522 26C19.0522 27.1355 19.0381 28.2675 19.0249 29.3887C19.0116 30.5132 18.9984 31.6284 19.0014 32.7461C19.0063 34.5127 19.0931 36.2785 19.1977 38.082L19.2641 39.459C19.3169 40.7851 19.3407 41.9873 19.4438 43.3242V43.3252L19.5395 44.4561C19.6465 45.5707 19.7951 46.6421 20.06 47.6113L20.1108 47.8145C20.1537 48.0125 20.1753 48.1927 20.1899 48.3193C20.212 48.5111 20.2208 48.5942 20.2348 48.6748C20.2514 48.7292 20.2679 48.7836 20.2788 48.8252C20.281 48.8338 20.2868 48.8546 20.2924 48.8799C20.2951 48.892 20.3006 48.9171 20.3061 48.9482C20.3078 48.9576 20.3271 49.0617 20.3286 49.1924C20.329 49.2329 20.3289 49.3052 20.3178 49.3945C20.3091 49.4643 20.2813 49.6528 20.1752 49.8691C20.0677 50.0885 19.7628 50.551 19.1254 50.6797C18.5416 50.7975 18.1157 50.5398 17.976 50.4434C17.7042 50.2555 17.5666 50.0198 17.5639 50.0156C17.5242 49.9534 17.498 49.9014 17.4868 49.8789C17.4624 49.8301 17.4462 49.7904 17.4409 49.7773C17.4334 49.7593 17.4277 49.7444 17.4243 49.7354C17.4065 49.6882 17.3917 49.6421 17.3891 49.6338C17.3802 49.6054 17.363 49.549 17.3442 49.4805L17.2895 49.2529L17.2885 49.2461L17.2387 48.9141C17.226 48.8108 17.2161 48.7207 17.2094 48.6631L17.1733 48.4287L17.1704 48.417L17.4946 48.3281V48.3271L17.1704 48.417C16.7302 46.8135 16.5694 45.0735 16.4526 43.5557L16.4077 42.9004C16.3131 41.3496 16.2847 39.6609 16.2026 38.2578L17.6567 38.1719L16.2026 38.2578V38.2568C16.0972 36.4408 16.0065 34.6069 16.0014 32.7539C15.9984 31.6117 16.0116 30.4765 16.0249 29.3535C16.0381 28.2273 16.0522 27.1143 16.0522 26ZM17.6508 48.2842V48.2852L18.6166 48.0195L17.6508 48.2842Z" fill="#FFC21A"/>
<path d="M29.4493 26C29.4493 25.1716 30.1209 24.5 30.9493 24.5C31.7776 24.5002 32.4493 25.1717 32.4493 26C32.4493 27.1143 32.4624 28.2273 32.4757 29.3535C32.4889 30.4765 32.5021 31.6117 32.4991 32.7539C32.494 34.6069 32.4033 36.4408 32.2979 38.2568V38.2578C32.2041 39.8613 32.1814 41.8382 32.0489 43.5557C31.9321 45.0735 31.7703 46.8135 31.3302 48.417L31.3272 48.4287L31.2911 48.6631C31.2778 48.7785 31.2537 49.0234 31.212 49.2461L31.211 49.2529C31.1812 49.4079 31.1293 49.5771 31.1114 49.6338C31.1088 49.6421 31.095 49.6882 31.0772 49.7354C31.0738 49.7444 31.0681 49.7592 31.0606 49.7773C31.0553 49.7905 31.0382 49.8301 31.0138 49.8789C31.0025 49.9014 30.9763 49.9533 30.9366 50.0156C30.9339 50.0198 30.7965 50.2555 30.5245 50.4434C30.3848 50.5398 29.959 50.7976 29.3751 50.6797C28.7378 50.551 28.4328 50.0885 28.3253 49.8691C28.2193 49.6529 28.1924 49.4642 28.1837 49.3945C28.1726 49.3052 28.1715 49.233 28.172 49.1924C28.1734 49.0619 28.1927 48.9579 28.1944 48.9482C28.1999 48.9171 28.2054 48.892 28.2081 48.8799C28.2138 48.8546 28.2195 48.8338 28.2218 48.8252C28.233 48.7821 28.2505 48.7253 28.2677 48.6689C28.281 48.5901 28.289 48.5064 28.3106 48.3193C28.3301 48.1504 28.3626 47.8866 28.4405 47.6113C28.794 46.3178 28.9409 44.8417 29.0577 43.3242C29.1952 41.5419 29.1916 39.9984 29.3038 38.082C29.4084 36.2785 29.4942 34.5127 29.4991 32.7461C29.5021 31.6284 29.4899 30.5132 29.4766 29.3887C29.4634 28.2675 29.4493 27.1355 29.4493 26ZM31.17 49.2451L29.8507 48.9912L29.8331 48.9873L31.17 49.2451Z" fill="#FFC21A"/>
<path fill-rule="evenodd" clip-rule="evenodd" d="M21.3433 38.3702C21.6627 38.1064 22.1354 38.1516 22.3992 38.471C23.1637 39.3969 24.5719 39.431 25.3801 38.543L25.4701 38.444C25.7487 38.1375 26.2231 38.1149 26.5296 38.3936C26.8361 38.6722 26.8586 39.1465 26.58 39.453L26.49 39.552C25.0672 41.1158 22.5883 41.056 21.2425 39.426C20.9788 39.1066 21.0239 38.6339 21.3433 38.3702Z" fill="#1A1A1A"/>
<path d="M27.8255 36.0254C28.3861 36.0254 28.8405 36.4619 28.8405 37.0004C28.8405 37.5389 28.3861 37.9754 27.8255 37.9754C27.265 37.9754 26.8105 37.5389 26.8105 37.0004C26.8105 36.4619 27.265 36.0254 27.8255 36.0254Z" fill="#1A1A1A"/>
<path d="M19.8251 36.0254C19.2645 36.0254 18.8101 36.4619 18.8101 37.0004C18.8101 37.5389 19.2645 37.9754 19.8251 37.9754C20.3856 37.9754 20.8401 37.5389 20.8401 37.0004C20.8401 36.4619 20.3856 36.0254 19.8251 36.0254Z" fill="#1A1A1A"/>
</svg>
