<svg width="48" height="55" viewBox="0 0 48 55" fill="none" xmlns="http://www.w3.org/2000/svg">
<path d="M19.3682 20.1603C19.7872 20.8203 20.0412 22.7903 20.3022 23.5003H27.8052C28.0192 23.4203 28.1442 22.9103 28.2882 22.7503C28.8062 22.1703 29.4732 20.8503 29.9862 20.2603C30.1442 20.0803 30.6352 19.5403 30.3582 19.2903C30.1952 19.1403 29.7502 19.2802 29.5882 19.3202L26.7492 20.2703C26.4972 20.3503 26.2402 20.1102 26.3252 19.8502C26.5312 19.2402 26.7792 18.6403 26.9682 18.0303C27.2392 17.1403 27.4102 16.2502 27.4712 15.3402C27.5142 14.7102 27.6192 13.8202 27.2732 13.2102C27.0522 12.8202 26.6152 13.1303 26.3912 13.3003C25.2932 14.1403 24.5222 15.3402 23.9152 16.4502C23.4322 17.3302 23.0812 18.1903 23.0122 19.1503C23.0102 19.1803 22.9672 19.1202 22.9502 19.0902C22.8762 19.0002 22.7932 18.9102 22.7112 18.8302C22.1542 18.2502 21.4262 17.7603 20.6792 17.3603C19.8652 16.9103 19.0492 16.6703 18.0662 16.7403C17.8532 16.7503 17.5332 16.7603 17.5602 17.0003C17.5932 17.2903 17.7902 17.5802 17.9332 17.8402C18.1892 18.3102 18.4922 18.7502 18.7782 19.2002C18.9802 19.5202 19.1652 19.8403 19.3682 20.1603Z" fill="#757575"/>
<path d="M26.6151 12.3275C26.7818 12.277 27.0261 12.2371 27.2929 12.3187C27.5801 12.4067 27.7915 12.6035 27.9257 12.8402C28.1868 13.3008 28.2544 13.819 28.2675 14.2445C28.2806 14.6703 28.2391 15.1056 28.2196 15.391C28.1544 16.3626 27.9716 17.3087 27.6854 18.2484L27.6845 18.2523L27.5243 18.7338C27.4689 18.892 27.4122 19.0479 27.3563 19.1996C27.3457 19.2284 27.3356 19.2571 27.3251 19.2855L29.3505 18.6088L29.3788 18.599L29.4081 18.5922C29.4432 18.5835 29.666 18.52 29.869 18.4916C29.9756 18.4767 30.1198 18.464 30.2733 18.4809C30.4184 18.4967 30.6591 18.5481 30.8661 18.7387C31.1479 18.9963 31.2134 19.3325 31.1845 19.6019C31.1588 19.84 31.0613 20.0419 30.9862 20.1732C30.8333 20.4407 30.6152 20.6806 30.5497 20.7553C30.3428 20.9941 30.0851 21.4071 29.7763 21.9047C29.5024 22.3458 29.1777 22.8678 28.8729 23.2182C28.8842 23.2025 28.8781 23.2073 28.8544 23.2553C28.8087 23.3479 28.8136 23.3448 28.7479 23.4809C28.706 23.5677 28.6435 23.6919 28.5604 23.808C28.4866 23.9111 28.3302 24.1042 28.0673 24.2025L27.9403 24.2504H19.7792L19.5985 23.7592L19.5409 23.5873C19.4083 23.154 19.2806 22.5052 19.162 21.975C19.0887 21.6474 19.0142 21.3384 18.9354 21.0766C18.8732 20.8696 18.8179 20.7255 18.7743 20.6352L18.7352 20.5619L18.4315 20.0687C18.3339 19.9074 18.24 19.753 18.1434 19.6C17.8776 19.1819 17.5457 18.6969 17.2743 18.1986L17.2753 18.1977C17.2313 18.1182 17.1105 17.9166 17.036 17.7689C16.9498 17.598 16.8467 17.3602 16.8153 17.0853L16.8143 17.0844L17.5604 17.0004L17.5995 16.9955L16.8143 17.0844C16.7869 16.8409 16.8485 16.5829 17.0253 16.3744C17.1802 16.1916 17.3712 16.1096 17.4901 16.0707C17.6949 16.0038 17.9241 15.9952 18.0126 15.9916C19.1646 15.9096 20.1216 16.197 21.0321 16.6986C21.5486 16.9752 22.0723 17.3019 22.5497 17.6791C22.7304 17.124 22.9779 16.599 23.2577 16.0893C23.8763 14.9582 24.7084 13.6432 25.9354 12.7045L26.3671 13.2689L26.3104 13.1937L25.9354 12.7045L25.9374 12.7025L26.0429 12.6244C26.1749 12.5301 26.3821 12.3983 26.6151 12.3275ZM28.8456 23.2523L28.288 22.7504L28.8475 23.2494L28.2225 22.6918L28.8456 23.2523ZM26.7401 13.9799C25.8258 14.7175 25.1464 15.7617 24.5731 16.81L23.8925 16.4379L24.0507 16.5248L24.5731 16.81L24.5721 16.8109C24.1127 17.648 23.8186 18.398 23.7606 19.2035C23.7567 19.2611 23.7337 19.5292 23.4901 19.7328C23.1763 19.995 22.8321 19.8976 22.7186 19.851C22.6009 19.8025 22.5239 19.7354 22.4989 19.7133C22.4641 19.6825 22.4376 19.6542 22.4218 19.6361C22.3957 19.6062 22.3726 19.5752 22.3524 19.5463C22.3006 19.4848 22.2439 19.4218 22.1874 19.3666L22.1786 19.3588L22.1698 19.35C21.687 18.8472 21.0333 18.4001 20.3251 18.0209L20.6698 17.3754L20.6552 17.4018L20.3251 18.0209L20.3163 18.017L20.0497 17.8783C19.5737 17.6471 19.1066 17.5132 18.5936 17.4857C18.833 17.9245 19.1062 18.3186 19.411 18.7982L19.412 18.8002L19.7147 19.2914C19.812 19.4521 19.9052 19.6058 20.0018 19.7582C20.1643 20.0142 20.2815 20.3441 20.372 20.6449C20.4668 20.9602 20.5507 21.3118 20.6259 21.6478C20.7215 22.0755 20.801 22.4527 20.871 22.7504H27.4345C27.4388 22.7411 27.4435 22.7312 27.4481 22.7211C27.4659 22.6827 27.4875 22.6371 27.5096 22.5922C27.5318 22.5473 27.5594 22.4937 27.5917 22.4398C27.6225 22.3883 27.6679 22.3179 27.7304 22.2484C27.9355 22.018 28.1934 21.6106 28.5018 21.1137C28.6631 20.8538 28.8422 20.5656 29.0223 20.3002L26.9872 20.9818L26.9764 20.9848L26.827 21.0209C26.0805 21.1441 25.3423 20.4443 25.6122 19.6176L26.368 19.8646L26.3251 19.85L25.6122 19.6176L25.6141 19.6098C25.7213 19.2925 25.8401 18.9772 25.9491 18.681C26.0601 18.3796 26.1636 18.0927 26.2518 17.808C26.5069 16.9694 26.6657 16.1371 26.7225 15.2904C26.7461 14.9458 26.7786 14.6196 26.7684 14.2904C26.7649 14.175 26.7537 14.072 26.7401 13.9799ZM29.997 20.2699L29.9862 20.2602L29.7509 20.056L29.997 20.2699ZM22.4218 19.1068L22.4384 19.1078L22.7157 18.8256L22.4218 19.1068ZM22.4384 19.1078L22.4218 19.1068L22.7108 18.8305L22.4384 19.1078Z" fill="#1A1A1A"/>
<path d="M32.4742 23.02H14.7862C13.8232 23.02 13.0992 23.9 13.2872 24.85C15.1692 34.33 18.1542 43.55 22.1812 52.34L22.5882 53.22C23.1932 54.55 25.0932 54.47 25.5992 53.11L30.7952 39.12L34.4072 25.54C34.7442 24.27 33.7872 23.02 32.4742 23.02Z" fill="#D9D9D9"/>
<path d="M15.2689 27.9701C18.985 28.0805 22.6677 28.2503 26.3558 28.2503C27.0317 28.2503 27.368 28.2724 27.7142 28.1107C28.0894 27.9355 28.536 28.0978 28.7113 28.473C28.8863 28.8482 28.7241 29.2948 28.349 29.4701C27.6254 29.8081 26.8676 29.7504 26.3558 29.7503C22.638 29.7503 18.9078 29.5796 15.224 29.4701C14.81 29.4577 14.4841 29.1116 14.4964 28.6976C14.5088 28.2837 14.8549 27.9578 15.2689 27.9701Z" fill="#B3B3B3"/>
<path d="M25.6694 34.2315C26.0353 34.0749 26.4627 34.231 26.6382 34.5929C26.8189 34.9656 26.6632 35.4141 26.2905 35.5948C26.0855 35.6942 25.8902 35.7206 25.7446 35.7286C25.6294 35.7349 25.4598 35.7296 25.4155 35.7296H17.0005C16.5863 35.7296 16.2505 35.3938 16.2505 34.9796C16.2507 34.5655 16.5864 34.2296 17.0005 34.2296H25.4155C25.4719 34.2296 25.5375 34.2311 25.5728 34.2315H25.6694Z" fill="#B3B3B3"/>
<path d="M24.7998 40.27C25.214 40.27 25.5498 40.6058 25.5498 41.02C25.5498 41.4342 25.214 41.77 24.7998 41.77H18.6162C18.202 41.77 17.8662 41.4342 17.8662 41.02C17.8662 40.6058 18.202 40.27 18.6162 40.27H24.7998Z" fill="#B3B3B3"/>
<path d="M23.0581 46.27C23.4723 46.27 23.8081 46.6058 23.8081 47.02C23.8081 47.4342 23.4723 47.77 23.0581 47.77H20.8345C20.4203 47.77 20.0845 47.4342 20.0845 47.02C20.0845 46.6058 20.4203 46.27 20.8345 46.27H23.0581Z" fill="#B3B3B3"/>
<path d="M32.474 22.27C34.282 22.27 35.5944 23.9888 35.1322 25.7319L31.5199 39.313L31.5111 39.3472L26.3021 53.3716C25.5659 55.3504 22.7914 55.4773 21.9057 53.5308L21.5004 52.6548L21.4994 52.6528C17.7013 44.3624 14.8242 35.691 12.9193 26.7808L12.5512 24.9956C12.2716 23.583 13.3498 22.27 14.7865 22.27H32.474ZM14.7865 23.77C14.2975 23.77 13.9269 24.2165 14.0228 24.7036L14.3861 26.4673C16.2678 35.2691 19.1097 43.8347 22.8617 52.0249L23.2689 52.9048L23.2709 52.9097C23.5954 53.6226 24.6202 53.5892 24.8959 52.8481L30.0805 38.8901L33.682 25.3472C33.8931 24.5506 33.2917 23.77 32.474 23.77H14.7865Z" fill="#1A1A1A"/>
<path fill-rule="evenodd" clip-rule="evenodd" d="M21.479 33.4168C21.7985 33.1531 22.2712 33.1982 22.5349 33.5176C23.2994 34.4436 24.7077 34.4776 25.5158 33.5896L25.6058 33.4906C25.8845 33.1841 26.3588 33.1616 26.6653 33.4402C26.9718 33.7188 26.9944 34.1932 26.7157 34.4996L26.6257 34.5986C25.2029 36.1624 22.724 36.1026 21.3782 34.4727C21.1145 34.1532 21.1596 33.6805 21.479 33.4168Z" fill="#1A1A1A"/>
<path d="M27.9603 31.0552C28.5209 31.0552 28.9753 31.4917 28.9753 32.0302C28.9753 32.5687 28.5209 33.0052 27.9603 33.0052C27.3997 33.0052 26.9453 32.5687 26.9453 32.0302C26.9453 31.4917 27.3997 31.0552 27.9603 31.0552Z" fill="#1A1A1A"/>
<path d="M19.9603 31.0552C19.3997 31.0552 18.9453 31.4917 18.9453 32.0302C18.9453 32.5687 19.3997 33.0052 19.9603 33.0052C20.5209 33.0052 20.9753 32.5687 20.9753 32.0302C20.9753 31.4917 20.5209 31.0552 19.9603 31.0552Z" fill="#1A1A1A"/>
</svg>
