<svg width="48" height="55" viewBox="0 0 48 55" fill="none" xmlns="http://www.w3.org/2000/svg">
<path d="M18 21.75H30.9349C32.4546 21.75 33.5196 23.22 33.0485 24.64C32.8046 25.38 32.5559 26.13 32.3072 26.88C31.5229 29.24 30.7381 31.5999 30.1008 33.6899C29.6807 35.0699 29.3208 36.3501 29.0654 37.4301C28.8135 38.5101 28.6501 39.45 28.6501 40.15C28.6501 42.28 29.3855 44.72 30.4872 46.63C31.0401 47.59 31.7041 48.45 32.4482 49.08C33.189 49.7 34.0617 50.14 35.0115 50.14C36.6271 50.14 37.8386 49.57 38.7267 49.03C38.9468 48.89 39.1482 48.76 39.327 48.64C39.3559 48.62 39.384 48.61 39.4114 48.59C39.5577 48.49 39.6831 48.41 39.8004 48.33C39.9649 48.23 40.0663 48.18 40.1225 48.16C40.1296 48.18 40.1373 48.2 40.1447 48.23C40.2031 48.48 40.1926 48.92 40.0291 49.49C39.7067 50.61 38.868 51.95 37.4778 52.77C36.596 53.3 36.0172 53.64 34.8445 53.87C33.6221 54.11 31.7524 54.24 28.3191 54.24C21.9667 54.24 15.75 47.53 15.75 39.11V24C15.75 22.76 16.7569 21.75 18 21.75Z" fill="#DC3412"/>
<path d="M15 39.1104V24C15 22.3465 16.342 21 18 21H30.9346C32.9576 21 34.3952 22.963 33.7607 24.876C33.5167 25.6164 33.2681 26.3667 33.0195 27.1162H33.0186C32.2334 29.4787 31.4524 31.8299 30.8184 33.9092C30.401 35.2803 30.0451 36.542 29.7949 37.5996C29.5446 38.6728 29.4004 39.5424 29.4004 40.1504C29.4005 42.1295 30.0906 44.4412 31.1367 46.2549V46.2559C31.6591 47.1628 32.2708 47.9462 32.9297 48.5049L33.1797 48.7021C33.7683 49.1366 34.3883 49.3896 35.0117 49.3896C36.4341 49.3896 37.5062 48.8927 38.3301 48.3926L38.9092 48.0176C38.9353 47.9999 38.9585 47.9859 38.9766 47.9756C38.9866 47.9699 38.9965 47.964 39.0039 47.96C39.0761 47.9108 39.143 47.8669 39.2031 47.8271C39.2691 47.7835 39.3248 47.7462 39.3779 47.71L39.3936 47.6992L39.4111 47.6895C39.5844 47.5841 39.7394 47.5 39.8711 47.4531L40.5781 47.2021L40.8291 47.9092L40.873 48.0508L40.875 48.0596C40.9606 48.4264 40.9416 48.9152 40.8125 49.46L40.75 49.6973C40.383 50.9723 39.4389 52.4807 37.8633 53.4121C36.9613 53.9543 36.2926 54.3508 34.9893 54.6064V54.6055C33.6895 54.8607 31.7561 54.9902 28.3193 54.9902C21.4508 54.9902 15.0002 47.8344 15 39.1104ZM16.5 39.1104C16.5002 47.226 22.4833 53.4902 28.3193 53.4902C31.7488 53.4902 33.5552 53.3586 34.7002 53.1338C35.7419 52.9295 36.2305 52.6446 37.0918 52.127L37.0967 52.124C38.1607 51.4964 38.8553 50.5073 39.1934 49.6201L39.123 49.667L39.1162 49.6709C38.1648 50.2494 36.8164 50.8896 35.0117 50.8896C33.8246 50.8896 32.7865 50.3413 31.9668 49.6553L31.9639 49.6523C31.1357 48.9512 30.4195 48.0155 29.8369 47.0039C28.6801 44.998 27.9005 42.4307 27.9004 40.1504C27.9004 39.3584 28.0815 38.3466 28.335 37.2598L28.3359 37.2578C28.5965 36.1562 28.9614 34.8581 29.3838 33.4707C30.0243 31.3701 30.8123 29.0009 31.5957 26.6436L32.3359 24.4053L32.3369 24.4043C32.6444 23.4774 31.9509 22.5 30.9346 22.5H18C17.1718 22.5 16.5 23.1735 16.5 24V39.1104Z" fill="#1A1A1A"/>
<path d="M22.8512 19.9302C23.0496 19.8602 23.2071 19.7001 23.2847 19.5001L25.2419 14.5201C25.2795 14.4301 25.3718 14.3701 25.4745 14.3701H30.1342C30.3337 14.3701 30.4528 14.5901 30.3423 14.7501L27.1589 19.5402C27.0322 19.7302 26.9993 19.9701 27.0698 20.1901C27.1402 20.4001 27.3062 20.5802 27.5205 20.6602L30.1853 21.6602L27.383 23.1602C25.0994 24.3802 22.3364 24.2902 20.1352 22.9302L18.1577 21.7001L22.8512 19.9302Z" fill="#14AE5C"/>
<path d="M30.1345 13.6201C30.8995 13.6202 31.4263 14.4801 30.9665 15.1641L30.9675 15.165L27.7839 19.9551C27.7845 19.9559 27.7851 19.9573 27.7858 19.958C27.7887 19.9609 27.7888 19.96 27.7839 19.958L30.4489 20.958C30.7246 21.0615 30.9147 21.3166 30.9343 21.6104C30.9537 21.9041 30.7992 22.1823 30.5397 22.3213L27.737 23.8213L27.4987 23.9434C25.1065 25.1207 22.2818 25.0293 19.9704 23.7051L19.7409 23.5684L19.7389 23.5674L20.1354 22.9307V22.9297L19.7389 23.5674L17.7614 22.3369C17.5192 22.1861 17.384 21.9109 17.4118 21.627C17.4397 21.3429 17.6261 21.0988 17.8932 20.998L22.5847 19.2285H22.5856L22.5866 19.2256L24.5436 14.2461C24.5456 14.2412 24.5485 14.2363 24.5505 14.2314L25.2419 14.5205L25.2497 14.5234L24.5505 14.2314C24.7109 13.8475 25.0857 13.6203 25.4743 13.6201H30.1345ZM23.9831 19.7744C23.8336 20.1573 23.5263 20.4807 23.1149 20.6309L23.1159 20.6318L23.1013 20.6377L23.1003 20.6367L19.8434 21.8652L20.53 22.292L20.9059 22.5078C22.8123 23.5175 25.1098 23.524 27.029 22.499L28.3708 21.7803L27.2585 21.3623V21.3633C26.8225 21.2005 26.4981 20.843 26.3591 20.4287L26.3561 20.4189L27.07 20.1904L27.111 20.1768L26.3561 20.4189C26.2169 19.9844 26.2798 19.5066 26.5348 19.124L29.196 15.1201H25.8122L23.9831 19.7744ZM27.2106 19.5742L27.779 19.9521L26.7556 19.2715L27.2106 19.5742ZM22.8513 19.9307L22.8581 19.9492L22.6071 19.2363L22.8513 19.9307ZM27.778 19.9521L27.1589 19.54L27.2106 19.5742L27.778 19.9521Z" fill="#1A1A1A"/>
<path fill-rule="evenodd" clip-rule="evenodd" d="M20.0674 34.3702C20.3868 34.1064 20.8596 34.1516 21.1233 34.471C21.8878 35.3969 23.296 35.431 24.1042 34.543L24.1942 34.444C24.4729 34.1375 24.9472 34.1149 25.2537 34.3936C25.5602 34.6722 25.5828 35.1465 25.3041 35.453L25.2141 35.552C23.7913 37.1158 21.3124 37.056 19.9666 35.426C19.7029 35.1066 19.748 34.6339 20.0674 34.3702Z" fill="#1A1A1A"/>
<path d="M26.5487 32.0249C27.1093 32.0249 27.5637 32.4614 27.5637 32.9999C27.5637 33.5384 27.1093 33.9749 26.5487 33.9749C25.9881 33.9749 25.5337 33.5384 25.5337 32.9999C25.5337 32.4614 25.9881 32.0249 26.5487 32.0249Z" fill="#1A1A1A"/>
<path d="M18.5487 32.0249C17.9881 32.0249 17.5337 32.4614 17.5337 32.9999C17.5337 33.5384 17.9881 33.9749 18.5487 33.9749C19.1093 33.9749 19.5637 33.5384 19.5637 32.9999C19.5637 32.4614 19.1093 32.0249 18.5487 32.0249Z" fill="#1A1A1A"/>
</svg>
