<svg width="48" height="55" viewBox="0 0 48 55" fill="none" xmlns="http://www.w3.org/2000/svg">
<path d="M11.638 23.22C12.818 19.88 22.13 18.19 26.638 17.77C27.166 18.41 28.221 20.32 28.221 22.77C28.221 25.83 37.697 24.59 38.28 26.77C38.746 28.51 37.38 30.16 36.638 30.77C37.912 30.92 40.617 31.8 41.246 34.15C41.875 36.5 40.906 38.87 40.343 39.77C41.633 40.95 44.212 41.53 44.212 44.77C44.212 47.36 42.102 51.8201 36.088 53.4301C31.276 54.7201 26.45 53.53 24.638 52.77C18.502 53.52 5.84304 53.57 4.28704 47.77C2.73204 41.96 7.87304 38.02 10.638 36.77C9.30504 36.62 6.63804 35.61 6.63804 32.77C6.63804 29.93 9.97104 28.92 11.638 28.77C11.146 28.31 10.458 26.57 11.638 23.22Z" fill="#D4693B"/>
<path d="M11.4424 27.7798C12.3624 28.9898 14.6857 31.0005 17.2266 32.0405C18.1246 32.4005 18.5086 33.9305 17.7246 34.5005L14.8076 36.6196C13.3927 38.1395 10.5638 41.7095 10.5635 43.8296C10.5635 51.1396 24.833 47.7805 24.833 51.0005C24.8324 53.3799 20.7251 53.3201 19.0771 53.52L8.05176 51.73L4 47.9204L4.89355 41.4204L10.1377 37.1304L6.98047 34.6899V30.8101L12.0488 28.73L11.4424 27.7798ZM39.9814 31.7202L41.6885 34.0405L41.3496 38.98C41.1182 39.1998 40.013 39.2406 38.1855 40.3003C35.9003 41.61 30.0002 41.7199 30 39.6802C30 37.6402 38.4398 38.13 38.4404 35.8003C38.4404 33.9404 37.3835 31.6702 36.8555 30.77L39.9814 31.7202Z" fill="#864E37"/>
<path d="M43.4618 44.77C43.4618 43.4012 42.9388 42.6434 42.2704 42.0649C41.9146 41.7571 41.5162 41.5 41.0868 41.2251C40.678 40.9633 40.216 40.6705 39.8368 40.3237C39.5699 40.0795 39.5152 39.6793 39.7069 39.3726C40.211 38.5668 41.0757 36.4155 40.5214 34.3442C40.2747 33.4225 39.6145 32.7534 38.8065 32.2827C37.9946 31.8097 37.1016 31.5801 36.5507 31.5151C36.2521 31.48 36.0025 31.2694 35.9179 30.981C35.8334 30.6926 35.9299 30.3818 36.162 30.1909C36.4676 29.9397 36.9265 29.4488 37.2499 28.8413C37.5724 28.2355 37.7226 27.5884 37.5556 26.9644C37.5539 26.9583 37.5278 26.875 37.3075 26.7485C37.0821 26.6192 36.742 26.4969 36.2831 26.3843C35.3608 26.158 34.1809 26.0195 32.9267 25.8423C31.7159 25.6712 30.4294 25.4626 29.4394 25.0786C28.4814 24.707 27.4706 24.0324 27.4706 22.77C27.4706 22.1645 27.4969 21.5198 27.5028 21.021C27.5092 20.4867 27.4957 20.0433 27.4335 19.6743C27.3719 19.3092 27.2699 19.0661 27.1357 18.8979C27.0203 18.7536 26.843 18.6182 26.5321 18.521C23.9782 18.5349 20.6532 19.047 17.8232 19.9565C16.3893 20.4174 15.1128 20.971 14.1376 21.5923C13.1467 22.2236 12.5579 22.866 12.3446 23.4683C11.7825 25.064 11.684 26.2273 11.7577 27.0083C11.8337 27.8138 12.0854 28.1615 12.1503 28.2222C12.3662 28.4241 12.4437 28.7345 12.3476 29.0142C12.2514 29.2937 11.9994 29.4906 11.705 29.5171L11.4062 29.5522C10.6717 29.6562 9.70379 29.9202 8.89932 30.4038C7.9948 30.9476 7.3876 31.7022 7.3876 32.77C7.3876 33.9151 7.91031 34.6694 8.58878 35.1792C9.29352 35.7087 10.1586 35.9615 10.7216 36.0249C11.057 36.0626 11.3261 36.3195 11.3788 36.6528C11.4314 36.9863 11.2547 37.3145 10.9472 37.4536L10.6972 37.5708C9.41972 38.1947 7.69926 39.3768 6.43741 41.0171C5.10622 42.7477 4.30879 44.9492 5.01163 47.5757C5.32843 48.7565 6.22147 49.7011 7.61319 50.4419C9.00901 51.1848 10.8354 51.6818 12.8564 51.9849C16.8945 52.5904 21.521 52.3957 24.5468 52.0259L24.6444 52.02C24.7415 52.0209 24.8376 52.0409 24.9276 52.0786C26.6336 52.7942 31.2856 53.9408 35.8935 52.7056L36.2821 54.1548C31.4225 55.4575 26.5785 54.3381 24.537 53.5356C21.4248 53.9008 16.7623 54.0874 12.6337 53.4683C10.5288 53.1526 8.51512 52.6214 6.90811 51.7661C5.39754 50.9621 4.18385 49.8351 3.65811 48.2808L3.56241 47.9644C2.71044 44.7811 3.70629 42.1073 5.24796 40.103C6.26734 38.7778 7.53546 37.7281 8.70303 36.979C8.35908 36.819 8.01264 36.6228 7.68741 36.3784C6.69914 35.6358 5.8876 34.4649 5.8876 32.77C5.8876 30.998 6.94733 29.8274 8.12589 29.1187C8.88311 28.6634 9.72718 28.3726 10.4755 28.2017C10.3753 27.8934 10.3015 27.5408 10.2646 27.1489C10.1663 26.1075 10.3128 24.7251 10.9306 22.9712C11.3077 21.9039 12.2282 21.0298 13.3319 20.3267C14.4519 19.6132 15.8581 19.0129 17.3642 18.5288C20.3755 17.561 23.9081 17.0201 26.6376 17.02C26.703 17.02 26.7687 17.0285 26.8319 17.0454C27.4563 17.2124 27.9507 17.5156 28.3075 17.9624C28.6558 18.3986 28.8256 18.9132 28.912 19.4253C28.9978 19.9338 29.0084 20.4885 29.0019 21.0386C28.9949 21.6242 28.9706 22.1506 28.9706 22.77C28.9706 23.0376 29.1454 23.3555 29.9823 23.6802C30.7872 23.9923 31.9058 24.183 33.1366 24.3569C34.3239 24.5247 35.6222 24.6774 36.6405 24.9272C37.1519 25.0527 37.6493 25.2148 38.0536 25.4468C38.4561 25.6777 38.8593 26.0325 39.0048 26.5757L39.0536 26.7847C39.2652 27.8221 38.9767 28.7903 38.5741 29.5464C38.4233 29.8297 38.2501 30.0913 38.0722 30.3286C38.5527 30.4836 39.0667 30.6986 39.5614 30.9868C40.5817 31.5812 41.5883 32.5283 41.9706 33.9565C42.561 36.1629 41.8971 38.3401 41.3017 39.5708C41.4772 39.6931 41.675 39.8197 41.8964 39.9614C42.3133 40.2284 42.8017 40.5406 43.2519 40.9302C44.1954 41.7467 44.9618 42.8989 44.9618 44.77C44.9618 47.7093 42.6144 52.4595 36.2821 54.1548L35.8935 52.7056C41.5888 51.1807 43.4618 47.0106 43.4618 44.77Z" fill="#1A1A1A"/>
<path fill-rule="evenodd" clip-rule="evenodd" d="M34.6151 44.6297C34.9597 44.6363 35.3571 44.7417 35.701 45.0281C36.0304 45.3024 36.1869 45.6402 36.2606 45.8924C36.3914 46.3401 36.3335 46.7691 36.3006 46.9705C36.26 47.219 36.1949 47.4544 36.1483 47.6141C36.1248 47.6945 36.1003 47.7749 36.0858 47.823C36.0769 47.8526 36.0716 47.8701 36.0692 47.8787L36.0663 47.8914L36.0223 48.0496C35.9071 48.427 35.7081 48.8504 35.495 49.2332C35.2388 49.6931 34.8983 50.2079 34.4989 50.6648C34.12 51.0982 33.5837 51.6001 32.912 51.8709C32.1418 52.1812 31.1927 52.1699 30.3739 51.5066L30.3729 51.5076C29.6634 50.9356 29.6138 50.1221 29.6405 49.7029C29.6688 49.2585 29.8022 48.83 29.912 48.5223C30.0269 48.2003 30.1661 47.8765 30.2586 47.657C30.3824 47.3636 30.392 47.317 30.3827 47.3631C30.5005 46.7801 30.9422 46.3452 31.4823 46.2068C31.5778 46.0869 31.6783 45.9681 31.786 45.8553C32.4348 45.1755 33.3727 44.6001 34.6151 44.6307V44.6297ZM34.5477 47.5135L34.5868 46.1297L34.5877 46.0594L34.5477 47.5135ZM12.1307 39.7488C12.8213 39.577 13.3361 39.9188 13.4706 40.0135C13.7985 40.2443 14.0322 40.5779 14.1288 40.7176C14.3318 41.0113 14.6082 41.5009 14.6327 41.5476C14.7087 41.6722 14.9562 42.0501 15.1014 42.3074C15.2787 42.6216 15.481 43.0422 15.5741 43.5486L15.5751 43.5506C15.6405 43.9089 15.6593 44.2889 15.619 44.6531C15.5821 44.9862 15.4785 45.4595 15.1727 45.8768C15.0089 46.1001 14.7622 46.339 14.412 46.493C14.1815 46.5942 13.9428 46.6416 13.7098 46.6453C13.518 46.6554 13.3239 46.6295 13.1376 46.5643C12.5977 46.4044 12.2 46.0408 11.9393 45.7488L11.9354 45.7449C11.073 44.7719 10.949 43.5625 10.8426 42.9793C10.8078 42.7884 10.8121 42.5992 10.8475 42.4197C10.7955 41.9269 10.816 41.3873 10.9852 40.8494V40.8484C11.0634 40.6007 11.3425 39.9452 12.1307 39.7488ZM22.7518 25.032C23.3115 24.6015 23.9048 24.6889 24.2079 24.7791L24.3192 24.8162L24.326 24.8191C24.8548 25.0215 25.2914 25.342 25.6463 25.6902C25.8047 25.7724 25.9525 25.8828 26.078 26.0242C26.4713 26.4674 27.3443 27.3103 27.5702 28.5994H27.5711C27.6346 28.9595 27.6721 29.4501 27.5096 29.9383C27.4413 30.2015 27.303 30.434 27.118 30.6189C26.9841 30.7674 26.823 30.8986 26.6336 31.0008C26.2951 31.1833 25.9528 31.231 25.6737 31.2215C25.1533 31.2036 24.7159 30.9893 24.4315 30.8103C24.1227 30.616 23.8396 30.3642 23.6004 30.0906L23.5995 30.0916C23.2601 29.7063 23.0539 29.2885 22.9159 28.9539C22.8006 28.6744 22.6637 28.2629 22.6083 28.1121L22.4881 27.8152C22.4157 27.6292 22.3273 27.39 22.2694 27.2C22.22 27.0381 22.1021 26.6461 22.1258 26.2439C22.1357 26.0765 22.1902 25.4642 22.7518 25.032Z" fill="#FFCD29"/>
<path d="M27.619 35.7542C27.9314 35.5356 28.3498 35.6302 28.5533 35.9657C28.7567 36.301 28.6685 36.7496 28.3564 36.9682L28.1209 37.1325C25.8042 38.7757 22.7827 38.6997 20.5394 36.9475C20.2381 36.7119 20.1717 36.2583 20.3909 35.9345C20.6102 35.6109 21.0326 35.5395 21.334 35.775C23.1237 37.1729 25.5344 37.2331 27.3809 35.9213L27.3844 35.9185L27.619 35.7542Z" fill="#1A1A1A"/>
<path d="M17.645 32.7754C16.7365 32.7754 16 33.5119 16 34.4204C16 35.3289 16.7365 36.0654 17.645 36.0654C18.5535 36.0654 19.29 35.3289 19.29 34.4204C19.29 33.5119 18.5535 32.7754 17.645 32.7754Z" fill="#1A1A1A"/>
<path d="M30.6489 32.7749C31.5574 32.7749 32.2939 33.5114 32.2939 34.4199C32.2939 35.3284 31.5574 36.0649 30.6489 36.0649C29.7404 36.0649 29.0039 35.3284 29.0039 34.4199C29.0039 33.5114 29.7404 32.7749 30.6489 32.7749Z" fill="#1A1A1A"/>
</svg>
