<svg width="48" height="55" viewBox="0 0 48 55" fill="none" xmlns="http://www.w3.org/2000/svg">
<path d="M11.6381 23.22C12.8181 19.88 22.1301 18.19 26.6381 17.77C27.1661 18.41 28.2211 20.32 28.2211 22.77C28.2211 25.83 37.697 24.59 38.28 26.77C38.746 28.51 37.3801 30.16 36.6381 30.77C37.912 30.92 40.6171 31.8 41.2461 34.15C41.8751 36.5 40.906 38.87 40.343 39.77C41.633 40.95 44.2121 41.53 44.2121 44.77C44.2121 47.36 42.1021 51.8201 36.0881 53.4301C31.2761 54.7201 26.4501 53.53 24.6381 52.77C18.5021 53.52 5.84304 53.57 4.28704 47.77C2.73204 41.96 7.87305 38.02 10.6381 36.77C9.30505 36.62 6.63805 35.61 6.63805 32.77C6.63805 29.93 9.97105 28.92 11.6381 28.77C11.1461 28.31 10.4581 26.57 11.6381 23.22Z" fill="#B3B3B3"/>
<path d="M11.4424 27.7798C12.3624 28.9898 14.6857 31.0005 17.2266 32.0405C18.1246 32.4005 18.5086 33.9305 17.7246 34.5005L14.8076 36.6196C13.3927 38.1395 10.5638 41.7095 10.5635 43.8296C10.5635 51.1396 24.833 47.7805 24.833 51.0005C24.8324 53.3799 20.7251 53.3201 19.0771 53.52L8.05176 51.73L4 47.9204L4.89355 41.4204L10.1377 37.1304L6.98047 34.6899V30.8101L12.0488 28.73L11.4424 27.7798ZM39.9814 31.7202L41.6885 34.0405L41.3496 38.98C41.1182 39.1998 40.013 39.2406 38.1855 40.3003C35.9003 41.61 30.0002 41.7199 30 39.6802C30 37.6402 38.4398 38.13 38.4404 35.8003C38.4404 33.9404 37.3835 31.6702 36.8555 30.77L39.9814 31.7202Z" fill="#757575"/>
<path d="M43.4618 44.77C43.4618 43.4012 42.9388 42.6434 42.2704 42.0649C41.9146 41.7571 41.5162 41.5 41.0868 41.2251C40.678 40.9633 40.216 40.6705 39.8368 40.3237C39.5699 40.0795 39.5152 39.6793 39.7069 39.3726C40.211 38.5668 41.0757 36.4155 40.5214 34.3442C40.2747 33.4225 39.6145 32.7534 38.8065 32.2827C37.9946 31.8097 37.1016 31.5801 36.5507 31.5151C36.2521 31.48 36.0025 31.2694 35.9179 30.981C35.8334 30.6926 35.9299 30.3818 36.162 30.1909C36.4676 29.9397 36.9265 29.4488 37.2499 28.8413C37.5724 28.2355 37.7226 27.5884 37.5556 26.9644C37.5539 26.9583 37.5278 26.875 37.3075 26.7485C37.0821 26.6192 36.742 26.4969 36.2831 26.3843C35.3608 26.158 34.1809 26.0195 32.9267 25.8423C31.7159 25.6712 30.4294 25.4626 29.4394 25.0786C28.4814 24.707 27.4706 24.0323 27.4706 22.77C27.4706 22.1645 27.4969 21.5197 27.5028 21.021C27.5092 20.4867 27.4957 20.0433 27.4335 19.6743C27.3719 19.3092 27.2699 19.0661 27.1357 18.8979C27.0203 18.7536 26.843 18.6182 26.5321 18.521C23.9782 18.5349 20.6532 19.047 17.8232 19.9565C16.3893 20.4174 15.1128 20.971 14.1376 21.5923C13.146 22.2241 12.5585 22.8676 12.3456 23.4702C11.7838 25.0655 11.684 26.2274 11.7577 27.0083C11.8337 27.8138 12.0854 28.1615 12.1503 28.2222C12.3662 28.4241 12.4437 28.7345 12.3476 29.0142C12.2514 29.2937 11.9994 29.4906 11.705 29.5171L11.4062 29.5522C10.6717 29.6562 9.70379 29.9202 8.89932 30.4038C7.9948 30.9476 7.3876 31.7022 7.3876 32.77C7.3876 33.9151 7.91031 34.6694 8.58878 35.1792C9.29351 35.7087 10.1586 35.9615 10.7216 36.0249C11.057 36.0626 11.3261 36.3195 11.3788 36.6528C11.4314 36.9863 11.2547 37.3145 10.9472 37.4536L10.6972 37.5708C9.41972 38.1947 7.69926 39.3768 6.43741 41.0171C5.10622 42.7477 4.30879 44.9492 5.01163 47.5757C5.32843 48.7565 6.22147 49.7011 7.61319 50.4419C9.00901 51.1848 10.8354 51.6818 12.8564 51.9849C16.8945 52.5904 21.521 52.3957 24.5468 52.0259L24.6444 52.02C24.7415 52.0209 24.8376 52.0409 24.9276 52.0786C26.6336 52.7942 31.2856 53.9408 35.8935 52.7056L36.2821 54.1548C31.4225 55.4575 26.5785 54.3381 24.537 53.5356C21.4248 53.9008 16.7623 54.0874 12.6337 53.4683C10.5288 53.1526 8.51512 52.6214 6.90811 51.7661C5.39754 50.9621 4.18385 49.8351 3.65811 48.2808L3.56241 47.9644C2.71044 44.7811 3.70629 42.1073 5.24796 40.103C6.26734 38.7778 7.53546 37.7281 8.70303 36.979C8.35908 36.819 8.01264 36.6228 7.68741 36.3784C6.69915 35.6358 5.8876 34.4649 5.8876 32.77C5.8876 30.9978 6.94814 29.8273 8.12686 29.1187C8.884 28.6635 9.72728 28.3726 10.4755 28.2017C10.3753 27.8934 10.3015 27.5408 10.2646 27.1489C10.1663 26.1075 10.3128 24.7251 10.9306 22.9712C11.3077 21.9039 12.2282 21.0298 13.3319 20.3267C14.4519 19.6132 15.8581 19.0129 17.3642 18.5288C20.3755 17.561 23.9081 17.0201 26.6376 17.02C26.703 17.02 26.7687 17.0285 26.8319 17.0454C27.4563 17.2124 27.9507 17.5156 28.3075 17.9624C28.6558 18.3986 28.8256 18.9132 28.912 19.4253C28.9978 19.9338 29.0084 20.4885 29.0019 21.0386C28.9949 21.6242 28.9706 22.1506 28.9706 22.77C28.9706 23.0376 29.1454 23.3555 29.9823 23.6802C30.7871 23.9923 31.9058 24.183 33.1366 24.3569C34.3241 24.5247 35.6231 24.6773 36.6415 24.9272C37.1527 25.0527 37.6494 25.2149 38.0536 25.4468C38.4561 25.6777 38.8593 26.0325 39.0048 26.5757L39.0536 26.7847C39.2652 27.8221 38.9767 28.7903 38.5741 29.5464C38.4233 29.8297 38.2501 30.0913 38.0722 30.3286C38.5527 30.4836 39.0667 30.6986 39.5614 30.9868C40.5817 31.5812 41.5883 32.5283 41.9706 33.9565C42.561 36.1629 41.8971 38.3401 41.3017 39.5708C41.4772 39.6931 41.675 39.8197 41.8964 39.9614C42.3133 40.2284 42.8017 40.5406 43.2519 40.9302C44.1954 41.7467 44.9618 42.8989 44.9618 44.77C44.9618 47.7093 42.6144 52.4595 36.2821 54.1548L35.8935 52.7056C41.5888 51.1807 43.4618 47.0106 43.4618 44.77Z" fill="#1A1A1A"/>
<path d="M27.6193 35.7542C27.9316 35.5356 28.35 35.6302 28.5536 35.9657C28.7569 36.301 28.6688 36.7496 28.3567 36.9682L28.1211 37.1325C25.8045 38.7757 22.7829 38.6997 20.5397 36.9475C20.2384 36.7119 20.1719 36.2583 20.3912 35.9345C20.6105 35.6109 21.0328 35.5395 21.3342 35.775C23.124 37.1729 25.5346 37.2331 27.3811 35.9213L27.3846 35.9185L27.6193 35.7542Z" fill="#1A1A1A"/>
<path d="M17.645 32.7754C16.7365 32.7754 16 33.5119 16 34.4204C16 35.3289 16.7365 36.0654 17.645 36.0654C18.5535 36.0654 19.29 35.3289 19.29 34.4204C19.29 33.5119 18.5535 32.7754 17.645 32.7754Z" fill="#1A1A1A"/>
<path d="M30.6489 32.7749C31.5574 32.7749 32.2939 33.5114 32.2939 34.4199C32.2939 35.3284 31.5574 36.0649 30.6489 36.0649C29.7404 36.0649 29.0039 35.3284 29.0039 34.4199C29.0039 33.5114 29.7404 32.7749 30.6489 32.7749Z" fill="#1A1A1A"/>
</svg>
