<svg width="48" height="55" viewBox="0 0 48 55" fill="none" xmlns="http://www.w3.org/2000/svg">
<path d="M9.50611 43.294V36.788L7.8796 35.703L5.16874 34.619L3.54223 31.908L3.00006 28.113L5.16874 24.86L9.50611 21.065L14.3857 18.354H18.723L23.0604 21.065L27.3978 27.029H28.4821L33.3617 29.197L37.555 31.454L40.7099 35.297L41.252 41.261L39.9414 47.631L38.7834 51.969L36.6147 52.511L28.4821 53.595L26.3134 51.969L17.3663 52.325L13.2896 50.3891L11.1327 47.631L9.50611 43.294Z" fill="#D9D9D9"/>
<path d="M20.0004 50.4912C21.2656 50.3102 24.0119 50.1663 24.8793 51.0332L24.3373 52.6602L22.3705 54.2861L20.5424 53.7441L20.0004 50.4912ZM29.9164 49.3799C30.4572 50.5368 30.8933 52.0919 30.3158 53.1748L28.6888 53.7168L27.0629 52.6328L26.5209 50.4639L29.9164 49.3799ZM12.7719 49.9619L14.6019 50.9766C14.5137 52.3122 14.495 52.7596 13.3187 53.3936C11.8566 54.1814 10.6068 53.147 10.224 51.9951C9.81851 49.9621 9.805 47.6493 9.974 45.2773L12.7719 49.9619ZM3.54236 27.5234C5.71146 26.44 13.6265 30.6685 12.7592 36.7412H10.0482L6.2533 35.6562L3.54236 32.4023L3.00037 27.5234H3.54236ZM21.7113 18.3535C22.3756 18.6855 22.7952 19.3656 22.7953 20.1084V22.3486C22.7953 22.5676 22.7079 22.7776 22.5531 22.9326C22.3646 23.1215 22.0972 23.209 21.8344 23.165C20.9239 23.012 19.6634 22.7413 19.1898 21.8623C18.9388 21.3954 19.2113 20.8534 19.5863 20.4785L21.7113 18.3535ZM12.5375 16.8857L14.5668 19.3096L11.4369 20.2051L10.3519 20.7471L10.1136 18.916L11.5121 16.5312L12.5375 16.8857Z" fill="#383838"/>
<path d="M11.0833 15.5227C11.7684 15.2776 12.5436 15.4411 13.1438 15.967L13.511 16.3039C14.0065 16.7821 14.4137 17.2757 14.7073 17.7385C14.7121 17.7376 14.7171 17.7374 14.7219 17.7365L15.2053 17.6643C16.9772 17.4534 18.6495 17.84 19.8137 18.2902C19.9172 18.1886 20.0206 18.0879 20.1243 17.9914C20.7395 17.4191 21.545 17.2692 22.2385 17.5725C22.9204 17.8709 23.3657 18.5507 23.4172 19.3654C23.4514 19.9057 23.4513 20.5033 23.3928 21.1193C24.495 22.2915 25.7236 23.8043 27.1858 25.9182C27.6326 26.5635 28.2832 27.0389 29.0364 27.2717L29.7708 27.5061C31.5748 28.0985 33.9741 29.0194 36.1682 30.3674C38.6622 31.8999 41.0078 34.0562 41.802 37.0188C43.2212 42.317 41.4669 45.6353 39.4963 51.9504C39.176 52.9759 38.2914 53.7433 37.2073 53.8791C34.8733 54.1718 31.525 54.5629 29.6223 54.6926C28.9614 54.738 28.006 54.7475 27.2434 54.1701C26.9189 53.9238 26.6684 53.6265 26.4876 53.3049C25.8522 53.2917 25.2705 53.2707 24.7327 53.2404C24.4222 53.7577 23.9967 54.2116 23.4163 54.5236C22.4553 55.0398 21.5056 54.9699 20.7444 54.5432C20.1881 54.231 19.755 53.7416 19.4739 53.2043C17.8139 53.1606 16.3859 52.8947 15.1604 52.4484C14.8426 53.0984 14.3717 53.6793 13.6751 54.0549C12.7137 54.5729 11.7625 54.504 11.0003 54.0774C10.272 53.6694 9.75384 52.9592 9.51197 52.2317L9.48853 52.1428L9.41432 51.7043C9.25971 50.6288 9.2332 49.1964 9.25904 47.7883C9.26933 47.228 9.28903 46.663 9.31275 46.1145C8.33966 43.0506 8.4649 39.6423 8.55299 37.4221C5.0679 36.3189 3.28456 34.3518 2.59498 32.1897C1.88708 29.9684 2.38188 27.691 3.07154 26.2209C3.70296 24.8756 5.19618 23.5229 6.77467 22.3342C7.78325 21.5747 8.88148 20.8465 9.91724 20.1867C9.80866 19.8147 9.75667 19.3968 9.73658 18.9973C9.70762 18.4208 9.73849 17.7922 9.80592 17.2092C9.89979 16.3983 10.3907 15.7707 11.0833 15.5227ZM21.637 18.9465C21.5401 18.9042 21.3637 18.8873 21.1458 19.09C20.1676 20.0004 19.1511 21.2323 18.6008 21.968C18.3527 22.2996 17.8827 22.3674 17.551 22.1193C17.2193 21.8713 17.1516 21.4012 17.3997 21.0695C17.712 20.652 18.1682 20.081 18.6887 19.4875C17.771 19.2066 16.5999 19.0101 15.3899 19.1525L14.9885 19.2121C14.1363 19.3656 13.3477 19.8198 12.4622 20.3645C11.0042 21.2612 9.2246 22.367 7.67701 23.5324C6.09684 24.7224 4.88689 25.8822 4.42896 26.8576C3.84929 28.0933 3.46209 29.9726 4.02369 31.7346C4.56774 33.4403 6.05157 35.1907 9.52467 36.1457C10.3808 36.3816 11.3012 36.3729 12.2044 36.1652C13.2105 35.9334 14.3877 35.6206 15.4612 35.2531C16.5548 34.8787 17.4681 34.4712 17.9983 34.0725C18.3292 33.8242 18.7993 33.8913 19.0481 34.2219C19.2962 34.5528 19.2301 35.0229 18.8997 35.2717C18.1693 35.8209 17.0656 36.2903 15.9475 36.6731C15.0941 36.9652 14.1882 37.2211 13.3508 37.4318L12.5403 37.6272C11.7297 37.8135 10.8818 37.8735 10.0413 37.7707C9.95268 40.1386 9.88739 43.3819 10.9163 46.1643C11.4891 47.7129 12.3912 49.0833 13.7962 50.0715C15.0507 50.9537 16.7585 51.5663 19.0999 51.6877C18.9975 50.6857 18.982 49.4612 19.0042 48.2551C19.0341 46.6265 19.1361 44.9587 19.221 43.7678C19.2507 43.3549 19.6098 43.0441 20.0227 43.0734C20.4353 43.1032 20.746 43.4616 20.717 43.8742C20.6329 45.055 20.5334 46.6926 20.5042 48.2824C20.4752 49.8623 20.5188 51.332 20.6956 52.2639C20.8414 52.672 21.1314 53.04 21.4778 53.2346C21.8015 53.416 22.2069 53.4706 22.7063 53.2024C23.5185 52.7657 23.9218 51.6706 24.0071 50.3801C24.1509 48.205 24.2873 45.6157 24.2874 43.8215C24.2876 43.4076 24.6234 43.0717 25.0374 43.0715C25.4512 43.0717 25.7871 43.4076 25.7874 43.8215C25.7873 45.2071 25.7087 47.0342 25.6087 48.7795L25.5042 50.4787C25.4775 50.8818 25.4189 51.3239 25.3128 51.7678C25.569 51.779 25.8367 51.7894 26.1165 51.7971C26.1323 51.0627 26.4178 50.3095 26.9934 49.8039L27.1165 49.7024C27.3735 49.505 27.6878 49.345 28.0501 49.215C28.0799 49.2044 28.111 49.1955 28.1419 49.1887C28.6941 49.0667 29.8194 48.8534 30.8919 48.7395C30.3049 47.5655 29.8008 46.0884 29.801 44.6594C29.8014 43.6849 30.0374 42.6907 30.6848 41.8459C31.3348 40.9981 32.3406 40.3776 33.7337 40.0422L33.8088 40.0275C34.1852 39.9766 34.5469 40.2188 34.6379 40.5959C34.7344 40.9982 34.4865 41.4032 34.0842 41.5002C32.9444 41.7747 32.2707 42.2432 31.8753 42.759C31.4778 43.2777 31.3013 43.9243 31.301 44.6604C31.301 46.1681 32.0427 47.8804 32.7649 49.008C32.9122 49.2386 32.9225 49.5325 32.7913 49.7727C32.6597 50.0127 32.4068 50.1622 32.1331 50.1623C31.0277 50.1624 29.3027 50.4717 28.5149 50.6428C28.278 50.7312 28.125 50.8193 28.0295 50.8928L28.0266 50.8947C27.7891 51.0764 27.6109 51.436 27.6135 51.8703C27.6164 52.2908 27.7907 52.7023 28.1497 52.9748C28.4322 53.1885 28.8725 53.241 29.5198 53.1965C31.3738 53.0701 34.6822 52.6841 37.0208 52.3908L37.1985 52.3557C37.6022 52.2426 37.9319 51.9253 38.0637 51.5041L38.4417 50.3137C40.2938 44.5755 41.5487 41.8724 40.3528 37.4074C39.7046 34.989 37.7452 33.0972 35.3831 31.6457C33.0343 30.2026 30.3989 29.2631 28.593 28.7043C27.5219 28.3732 26.592 27.6956 25.9524 26.7717C24.847 25.1736 23.8867 23.9397 23.0227 22.9465C22.8763 23.394 22.6865 23.8323 22.4387 24.2453C22.2256 24.6004 21.7646 24.7161 21.4094 24.5031C21.0543 24.29 20.9394 23.829 21.1526 23.4738C21.8494 22.3125 22.0042 20.79 21.9202 19.4602C21.8998 19.1387 21.7453 18.9939 21.637 18.9465ZM10.7532 49.0979C10.7648 50.1707 10.8228 51.1241 10.9504 51.7971C11.0964 52.2058 11.3868 52.5745 11.7337 52.7688C12.0573 52.9497 12.4633 53.0038 12.9631 52.7346C13.3144 52.5452 13.5879 52.2314 13.7932 51.8322C13.4917 51.667 13.2044 51.49 12.9329 51.299C12.0408 50.6715 11.3265 49.9214 10.7532 49.0979ZM12.1555 17.0949C11.9253 16.8932 11.714 16.8903 11.5891 16.9348C11.4721 16.9767 11.3293 17.0957 11.2962 17.3811C11.2361 17.8998 11.2106 18.4443 11.2346 18.9221C11.2423 19.0748 11.2568 19.2128 11.2727 19.3361C11.4101 19.2513 11.5444 19.1671 11.676 19.0861C12.1468 18.7966 12.6631 18.4861 13.2239 18.2277C12.9681 17.8875 12.6141 17.4965 12.1555 17.0949Z" fill="#1A1A1A"/>
<path d="M16.4685 24.3639C17.1835 24.4545 17.6897 25.1076 17.599 25.8227C17.5083 26.5377 16.8552 27.0438 16.1402 26.9531C15.4252 26.8625 14.9191 26.2093 15.0097 25.4943C15.1004 24.7793 15.7535 24.2732 16.4685 24.3639Z" fill="#1A1A1A"/>
<path d="M12.7223 23.4219C12.0396 23.191 11.299 23.5574 11.0681 24.2402C10.8373 24.9229 11.2036 25.6635 11.8864 25.8944C12.5692 26.1252 13.3098 25.7589 13.5406 25.0761C13.7715 24.3933 13.4051 23.6527 12.7223 23.4219Z" fill="#1A1A1A"/>
</svg>
