<svg width="48" height="55" viewBox="0 0 48 55" fill="none" xmlns="http://www.w3.org/2000/svg">
<path d="M6.6824 25C6.6824 22.65 8.5852 20.75 10.9324 20.75H43C45.3472 20.75 47.25 22.65 47.25 25V46.11C47.25 48.46 45.3472 50.36 43 50.36H5C2.6528 50.36 0.75 48.46 0.75 46.11V38.52C0.75 37.3 1.7422 36.3101 2.9662 36.3101C5.0186 36.3101 6.6824 34.64 6.6824 32.59V25Z" fill="#D9D9D9"/>
<path d="M1 47.27V36.6899L5.4108 35.55L6.4559 32.9399V23.45L9.605 20.9399H40.451L12.2539 50H3.4733C3.1508 50 2.8481 49.85 2.6604 49.58L1 47.27Z" fill="#F79722"/>
<path d="M11.5 46C13.9868 46 15.9999 47.9575 16 50.3799C16 52.7937 13.9854 54.75 11.5 54.75C9.01456 54.75 7 52.7937 7 50.3799C7.00007 47.9575 9.01324 46 11.5 46Z" fill="#1A1A1A"/>
<path d="M37.5 46C39.9868 46 41.9999 47.9575 42 50.3799C42 52.7937 39.9854 54.75 37.5 54.75C35.0146 54.75 33 52.7937 33 50.3799C33.0001 47.9575 35.0132 46 37.5 46Z" fill="#1A1A1A"/>
<path d="M31 31C32.1046 31 33 31.8954 33 33V38.6553C32.9999 39.7598 32.1045 40.6553 31 40.6553H26C24.8955 40.6553 24.0001 39.7598 24 38.6553V33C24 31.8954 24.8954 31 26 31H31ZM42 31C43.1046 31 44 31.8954 44 33V38.6553C43.9999 39.7598 43.1045 40.6553 42 40.6553H37C35.8955 40.6553 35.0001 39.7598 35 38.6553V33C35 31.8954 35.8954 31 37 31H42Z" fill="#444444"/>
<path d="M46.5 25C46.5 23.0645 44.9333 21.5 43 21.5H10.9326C8.99931 21.5 7.43262 23.0645 7.43262 25V32.5898C7.43262 35.0527 5.43377 37.0605 2.96582 37.0605C2.15434 37.0608 1.5 37.7167 1.5 38.5205V46.1104C1.5002 48.0456 3.06681 49.6104 5 49.6104H43C44.9332 49.6104 46.4998 48.0456 46.5 46.1104V25ZM48 46.1104C47.9998 48.8747 45.761 51.1104 43 51.1104H5C2.23903 51.1104 0.000197711 48.8747 0 46.1104V38.5205C0 36.8846 1.32965 35.5608 2.96582 35.5605C4.60267 35.5605 5.93262 34.227 5.93262 32.5898V25C5.93262 22.2355 8.17153 20 10.9326 20H43C45.7611 20 48 22.2355 48 25V46.1104Z" fill="#1A1A1A"/>
<path d="M18.2242 36.4629C18.6027 36.2947 19.0462 36.4651 19.2144 36.8436C19.3824 37.222 19.2121 37.6646 18.8338 37.8329L18.5484 37.9591C15.7372 39.2289 12.4349 38.6184 10.2618 36.4331C9.96988 36.1394 9.97148 35.6644 10.2651 35.3724C10.5588 35.0805 11.0339 35.0821 11.3259 35.3757C13.0598 37.1191 15.6944 37.6057 17.9354 36.5916L17.9398 36.5893L18.2242 36.4629Z" fill="#1A1A1A"/>
<path d="M10.8794 31.8994C10.3341 31.9871 9.96313 32.5001 10.0508 33.0454C10.1384 33.5907 10.6515 33.9617 11.1968 33.8741C11.7421 33.7865 12.1131 33.2734 12.0254 32.7281C11.9378 32.1828 11.4247 31.8118 10.8794 31.8994Z" fill="#1A1A1A"/>
<path d="M18.2056 32.8989C18.7509 32.9865 19.1219 33.4996 19.0342 34.0449C18.9466 34.5902 18.4335 34.9612 17.8882 34.8736C17.343 34.7859 16.972 34.2729 17.0596 33.7276C17.1472 33.1823 17.6603 32.8113 18.2056 32.8989Z" fill="#1A1A1A"/>
</svg>
