<svg width="24" height="24" viewBox="0 0 24 24" fill="none" xmlns="http://www.w3.org/2000/svg">
<path fill-rule="evenodd" clip-rule="evenodd" d="M20.1834 12.6922C20.142 12.0693 19.9844 11.489 19.7305 10.9541L19.6807 10.8486L19.6651 10.7334C19.4494 9.1429 19.0451 7.45803 18.5215 6.19141C18.2583 5.55461 17.9807 5.06421 17.712 4.74609C17.504 4.49993 17.3528 4.41556 17.2628 4.38867L17.1934 4.37695C16.541 4.37695 15.9283 4.68561 15.3829 5.16992C14.9062 5.59316 14.5257 6.11331 14.2735 6.54785L14.1729 6.72852L13.9297 7.18848L13.4141 7.12207C13.0241 7.07166 12.6254 7.03867 12.2208 7.02539L11.8135 7.01855C11.34 7.01855 10.8763 7.04574 10.4268 7.09668L9.91901 7.1543L9.67975 6.70312C9.43221 6.23602 9.01696 5.63201 8.48151 5.15527C8.01237 4.73761 7.49572 4.45475 6.9483 4.39062L6.71198 4.37695C6.64889 4.37695 6.46706 4.4189 6.17877 4.76367C5.90163 5.09523 5.61601 5.60365 5.34576 6.25781C4.87537 7.39649 4.4998 8.85515 4.27252 10.2666L4.18365 10.8682L4.17096 10.9648L4.13385 11.0557C3.92533 11.5609 3.79573 12.1072 3.76009 12.6924C4.29576 12.5607 4.84313 12.4571 5.22863 12.4571C5.64278 12.4572 5.97863 12.7929 5.97863 13.2071C5.97863 13.6213 5.64278 13.957 5.22863 13.9571C4.97779 13.9571 4.46964 14.0551 3.8856 14.2083C3.94955 14.4864 4.03559 14.7596 4.14238 15.0263C4.58386 14.8406 5.11721 14.6811 5.76574 14.5743L5.84191 14.5655C6.22123 14.5421 6.56398 14.8094 6.62707 15.1924C6.6942 15.601 6.41752 15.9865 6.00891 16.0538C5.55747 16.1281 5.18551 16.2308 4.8775 16.3472C6.28088 18.2749 8.87493 19.623 11.9727 19.623L12.4083 19.6143C15.2963 19.4951 17.7031 18.1987 19.0447 16.3783C18.8724 16.2981 18.7035 16.2285 18.547 16.1749C18.3661 16.1128 18.2289 16.0812 18.1359 16.0694L18.0568 16.0635L17.9806 16.0596C17.6024 16.0212 17.3068 15.7019 17.3068 15.3135C17.307 14.8997 17.6429 14.5638 18.0568 14.5635L18.3048 14.5792C18.5541 14.6087 18.8054 14.6778 19.0333 14.7559C19.2834 14.8417 19.5395 14.9508 19.785 15.0695C19.9 14.7891 19.9919 14.5015 20.0593 14.2084C19.5605 14.0774 19.1171 13.9866 18.8419 13.963L18.7159 13.9571L18.6388 13.9532C18.2608 13.9146 17.9659 13.5953 17.9659 13.2071C17.9659 12.7929 18.3017 12.4571 18.7159 12.4571L18.9279 12.4659C19.2887 12.4934 19.74 12.5832 20.1834 12.6922ZM21.6912 13.1335L21.6944 13.0244C21.6944 12.0906 21.4946 11.2182 21.1348 10.4219C20.9039 8.77692 20.4811 7.00744 19.9073 5.61914C19.6154 4.91291 19.2682 4.26345 18.8585 3.77832C18.4827 3.33351 17.97 2.9306 17.3243 2.88184L17.1934 2.87695C16.048 2.87695 15.0951 3.41889 14.3868 4.04785C13.8484 4.52592 13.4179 5.08309 13.1065 5.5791C12.8307 5.55346 12.5516 5.53561 12.2696 5.52637L11.8135 5.51855C11.4533 5.51855 11.0985 5.53268 10.7501 5.55957C10.44 5.06449 10.0129 4.51012 9.47955 4.03516C8.82444 3.45188 7.95812 2.94408 6.92194 2.88281L6.71198 2.87695C5.99464 2.87695 5.43119 3.31872 5.0274 3.80176C4.61231 4.29835 4.25853 4.96297 3.96002 5.68555C3.37145 7.1103 2.9379 8.92032 2.71198 10.5762C2.41315 11.3325 2.25006 12.1525 2.25006 13.0244L2.25329 13.1335C1.90244 13.2533 1.60072 13.3718 1.42102 13.4678C1.05577 13.6631 0.918177 14.1172 1.1134 14.4825C1.30866 14.8478 1.76275 14.9853 2.12805 14.7901C2.18647 14.7589 2.29612 14.7127 2.44407 14.6574C2.54138 15.0586 2.67389 15.4476 2.83851 15.8224C2.7886 15.8654 2.7413 15.9081 2.69641 15.9503L2.48352 16.1631C2.19949 16.4646 2.21329 16.9397 2.51477 17.2237C2.79732 17.4899 3.23236 17.4939 3.51965 17.2452L3.57531 17.1915C3.5844 17.1818 3.59375 17.172 3.60337 17.162C5.32227 19.5668 8.48674 21.123 11.9727 21.123L12.46 21.1133C15.7467 20.976 18.6943 19.4589 20.3339 17.1723L20.3605 17.1954L20.4161 17.2481C20.7048 17.4953 21.1399 17.4885 21.421 17.2208C21.7022 16.9527 21.7297 16.5181 21.4962 16.2178L21.4464 16.1602L21.3214 16.0391C21.2534 15.9783 21.1765 15.9158 21.0928 15.8524C21.2635 15.4683 21.4005 15.0692 21.5005 14.6572C21.5426 14.673 21.5817 14.688 21.6173 14.7022L21.8155 14.7901L21.8849 14.8233C22.2364 14.9681 22.6478 14.8257 22.8312 14.4835C23.0144 14.1412 22.905 13.7203 22.59 13.5079L22.5236 13.4678L22.3829 13.3995C22.2041 13.3181 21.9623 13.2262 21.6912 13.1335ZM9.58351 11.5366C9.58351 11.9763 9.22702 12.3328 8.78727 12.3328C8.34752 12.3328 7.99103 11.9763 7.99103 11.5366C7.99103 11.0968 8.34752 10.7403 8.78727 10.7403C9.22702 10.7403 9.58351 11.0968 9.58351 11.5366ZM15.1572 12.3328C15.597 12.3328 15.9534 11.9763 15.9534 11.5366C15.9534 11.0968 15.597 10.7403 15.1572 10.7403C14.7175 10.7403 14.361 11.0968 14.361 11.5366C14.361 11.9763 14.7175 12.3328 15.1572 12.3328ZM10.8761 13.2955C10.5942 12.9921 10.119 12.9746 9.81555 13.2565C9.51233 13.5383 9.49497 14.0126 9.77648 14.3161C10.9364 15.5646 12.8972 15.6123 14.1163 14.4215L14.1984 14.3424C14.4944 14.053 14.4994 13.5781 14.2101 13.2819C13.9206 12.9858 13.4458 12.9798 13.1495 13.2692L13.0685 13.3493C12.4525 13.9506 11.4621 13.9261 10.8761 13.2955Z" fill="black"/>
</svg>
