<svg width="16" height="16" viewBox="0 0 16 16" fill="none" xmlns="http://www.w3.org/2000/svg">
<path fill-rule="evenodd" clip-rule="evenodd" d="M7.501 9.50039C7.501 9.633 7.55368 9.76018 7.64745 9.85395C7.74121 9.94771 7.86839 10.0004 8.001 10.0004C8.13361 10.0004 8.26078 9.94771 8.35455 9.85395C8.44832 9.76018 8.501 9.633 8.501 9.50039L8.501 3.70739L10.147 5.35439C10.1935 5.40082 10.2487 5.43763 10.3094 5.46272C10.3701 5.48782 10.4352 5.50072 10.5009 5.50067C10.5666 5.50062 10.6316 5.48764 10.6923 5.46245C10.753 5.43727 10.8081 5.40038 10.8545 5.35389C10.9483 5.26001 11.0009 5.13272 11.0008 5.00004C11.0007 4.93434 10.9877 4.8693 10.9626 4.80862C10.9374 4.74794 10.9005 4.69282 10.854 4.64639L8.354 2.14639C8.26024 2.05266 8.13308 2 8.0005 2C7.86792 2 7.74076 2.05266 7.647 2.14639L5.147 4.64639C5.05311 4.74015 5.00032 4.86736 5.00022 5.00004C5.00013 5.13272 5.05275 5.26001 5.1465 5.35389C5.24025 5.44778 5.36746 5.50058 5.50015 5.50067C5.63283 5.50076 5.76011 5.44815 5.854 5.35439L7.501 3.70739L7.501 9.50039ZM4.5 10.5C4.5 10.3674 4.44732 10.2402 4.35355 10.1464C4.25979 10.0527 4.13261 10 4 10C3.86739 10 3.74021 10.0527 3.64645 10.1464C3.55268 10.2402 3.5 10.3674 3.5 10.5V11.5C3.5 11.8978 3.65804 12.2794 3.93934 12.5607C4.22064 12.842 4.60218 13 5 13H11C11.3978 13 11.7794 12.842 12.0607 12.5607C12.342 12.2794 12.5 11.8978 12.5 11.5V10.5C12.5 10.3674 12.4473 10.2402 12.3536 10.1464C12.2598 10.0527 12.1326 10 12 10C11.8674 10 11.7402 10.0527 11.6464 10.1464C11.5527 10.2402 11.5 10.3674 11.5 10.5V11.5C11.5 11.6326 11.4473 11.7598 11.3536 11.8536C11.2598 11.9473 11.1326 12 11 12H5C4.86739 12 4.74021 11.9473 4.64645 11.8536C4.55268 11.7598 4.5 11.6326 4.5 11.5V10.5Z" fill="black"/>
</svg>
