<svg width="24" height="24" viewBox="0 0 24 24" fill="none" xmlns="http://www.w3.org/2000/svg">
<path fill-rule="evenodd" clip-rule="evenodd" d="M5.19287 5.94309C5.19287 7.18254 5.78965 8.2826 6.71153 8.97162C5.78965 9.66064 5.19287 10.7607 5.19287 12.0002C5.19287 13.2396 5.78965 14.3397 6.71154 15.0287C5.78965 15.7177 5.19287 16.8178 5.19287 18.0573C5.19287 20.1441 6.88458 21.8358 8.97141 21.8358C11.0582 21.8358 12.7499 20.1441 12.7499 18.0573V15.7787V15.0287V15.0147C13.3834 15.4942 14.1727 15.7787 15.0285 15.7787C17.1153 15.7787 18.807 14.087 18.807 12.0002C18.807 10.7607 18.2102 9.66064 17.2884 8.97162C18.2102 8.2826 18.807 7.18254 18.807 5.94309C18.807 3.85626 17.1153 2.16455 15.0285 2.16455H12.7499H11.9999H11.2499H8.97141C6.88458 2.16455 5.19287 3.85626 5.19287 5.94309ZM15.0285 8.22162C16.2869 8.22162 17.307 7.20149 17.307 5.94309C17.307 4.68468 16.2869 3.66455 15.0285 3.66455H12.7499V8.22162H15.0266H15.0285ZM11.2499 12.0002V9.72162H8.97141C7.71301 9.72162 6.69287 10.7418 6.69287 12.0002C6.69287 13.2586 7.71301 14.2787 8.97141 14.2787H11.2499V12.0002ZM12.7499 12.0002C12.7499 13.2586 13.7701 14.2787 15.0285 14.2787C16.2869 14.2787 17.307 13.2586 17.307 12.0002C17.307 10.7418 16.2869 9.72162 15.0285 9.72162H15.027C13.7693 9.72243 12.7499 10.7423 12.7499 12.0002ZM8.97141 15.7787H11.2499V18.0573C11.2499 19.3157 10.2298 20.3358 8.97141 20.3358C7.71301 20.3358 6.69287 19.3157 6.69287 18.0573C6.69287 16.7989 7.71301 15.7787 8.97141 15.7787ZM11.2499 8.22162H8.97141C7.71301 8.22162 6.69287 7.20149 6.69287 5.94309C6.69287 4.68468 7.71301 3.66455 8.97141 3.66455H11.2499V8.22162Z" fill="black"/>
</svg>
