<svg width="24" height="24" viewBox="0 0 24 24" fill="none" xmlns="http://www.w3.org/2000/svg">
<path d="M12.0003 2.24951C12.3075 2.24954 12.6093 2.33156 12.8743 2.48682C13.1061 2.62264 13.3024 2.81044 13.4485 3.03467L13.5081 3.1333L13.511 3.13721L12.9065 3.46924L12.8782 3.48584L13.511 3.13721C14.3688 4.6925 15.075 6.32795 15.6204 8.01807C15.6438 8.0862 15.6882 8.14568 15.7464 8.18799C15.8045 8.2301 15.8738 8.25413 15.9456 8.25537H15.9534L15.9339 9.00439V9.021L15.9534 8.25537C17.4211 8.2925 18.8842 8.43779 20.3304 8.69092C21.6667 8.92543 22.2562 10.5285 21.2405 11.522C20.2848 12.4569 19.2721 13.3312 18.2083 14.1401L17.7493 14.4829H17.7483C17.6368 14.5645 17.6053 14.6886 17.6399 14.7935L17.806 15.3081C18.1274 16.3411 18.3874 17.3922 18.5862 18.4556L18.681 18.9888V18.9907L17.97 19.1069L17.6946 19.1528L18.681 18.9907C18.728 19.2773 18.7713 19.5654 18.8108 19.855L18.8118 19.8579C18.9943 21.2357 17.5862 22.1012 16.4271 21.604L16.3157 21.5522C14.8884 20.821 13.5239 19.9732 12.2357 19.0181C12.1673 18.9683 12.0848 18.9419 12.0003 18.9419C11.9172 18.9419 11.8362 18.9674 11.7689 19.0151L11.2815 19.3687C10.1364 20.1815 8.93394 20.9114 7.68389 21.5522C6.50517 22.1564 5.00043 21.28 5.18878 19.8579V19.8569L5.2835 19.2124C5.521 17.7128 5.88115 16.2349 6.36065 14.7935L6.37335 14.7124C6.37359 14.6298 6.33448 14.5446 6.2503 14.4829L6.69854 13.8716L6.69366 13.8774L6.2503 14.4819L5.84503 14.1802C4.90667 13.4685 4.00718 12.7067 3.15069 11.8979C3.01844 11.774 2.88784 11.6477 2.75811 11.52L2.75909 11.519C1.74517 10.5247 2.3358 8.92524 3.66924 8.69092H3.67022C5.11591 8.43938 6.57834 8.294 8.04522 8.25537L8.10772 8.24854C8.24722 8.22323 8.34395 8.12882 8.3753 8.03174L8.53546 7.55029C8.91878 6.43061 9.37356 5.33589 9.89678 4.27393V4.27295C10.0861 3.89015 10.2836 3.5123 10.4886 3.13916L10.4915 3.1333C10.6418 2.86505 10.8613 2.64206 11.1263 2.48682C11.3913 2.33154 11.693 2.24951 12.0003 2.24951ZM12.0003 3.74951C11.9596 3.74951 11.9192 3.76018 11.8841 3.78076C11.8489 3.80139 11.8198 3.8315 11.8001 3.8667C11.6065 4.21933 11.4203 4.57647 11.2415 4.93799C10.676 6.08589 10.1953 7.27366 9.80303 8.4917C9.56087 9.24258 8.85812 9.73297 8.08721 9.75439L8.06182 8.83936L8.07159 9.21631L8.08721 9.75439H8.08624C6.69214 9.79105 5.30197 9.92845 3.92803 10.1675L3.92901 10.1685C3.81393 10.1887 3.77121 10.2499 3.75714 10.2925C3.74913 10.3167 3.74822 10.3403 3.75323 10.3618C3.75782 10.3812 3.7707 10.4124 3.80889 10.4497L3.80987 10.4517L4.17706 10.8032L4.17901 10.8052C5.11357 11.6878 6.10192 12.5121 7.13799 13.2729H7.13702C7.71971 13.7 7.99386 14.4273 7.82354 15.1265L7.7835 15.2661C7.26527 16.8239 6.89392 18.4272 6.6751 20.0542L6.67608 20.0552C6.67043 20.0978 6.67738 20.1255 6.68682 20.145C6.69762 20.1674 6.71799 20.1918 6.74932 20.2124C6.81054 20.2526 6.90025 20.2686 7.0003 20.2173C8.35565 19.5224 9.65148 18.717 10.8753 17.8101L11.3216 18.4126H11.3226L10.8753 17.8101L10.8802 17.8071C11.2055 17.5697 11.5977 17.4419 12.0003 17.4419C12.4029 17.4419 12.7952 17.5698 13.1204 17.8071L13.1253 17.8101L12.678 18.4126L12.6692 18.4233L13.1253 17.8101C14.3487 18.7174 15.6447 19.5228 17.0003 20.2173L17.0735 20.2437C17.1433 20.2588 17.2051 20.2428 17.2513 20.2124C17.2826 20.1917 17.303 20.1673 17.3138 20.145C17.3185 20.1353 17.3222 20.1233 17.3245 20.1089V20.0542C17.2869 19.7793 17.246 19.5062 17.2015 19.2349L17.1126 18.731C16.9245 17.7249 16.6775 16.7307 16.3733 15.7534L16.2161 15.2661C15.9709 14.527 16.2393 13.7283 16.8636 13.272C18.0383 12.4111 19.1506 11.4682 20.1917 10.4497L20.2317 10.3989C20.2402 10.3841 20.2451 10.3716 20.2474 10.3618C20.2525 10.3402 20.2514 10.3166 20.2435 10.2925C20.233 10.2609 20.2063 10.2187 20.1448 10.1909L20.0716 10.1685C18.6983 9.9281 17.309 9.78964 15.9153 9.75439V9.75342C15.5848 9.74692 15.2629 9.65321 14.9827 9.48096L14.8646 9.40186L14.7523 9.31396C14.5363 9.13008 14.3657 8.89866 14.2532 8.63818L14.2015 8.50537L14.1976 8.4917L14.8812 8.271L14.9095 8.26221L14.1976 8.4917C13.6814 6.88945 13.0121 5.3397 12.1995 3.86572C12.1796 3.83062 12.1504 3.8012 12.1155 3.78076C12.0805 3.7603 12.0407 3.74954 12.0003 3.74951Z" fill="black"/>
</svg>
