<svg width="24" height="24" viewBox="0 0 24 24" fill="none" xmlns="http://www.w3.org/2000/svg">
<path fill-rule="evenodd" clip-rule="evenodd" d="M9.43034 6.13515L17.1578 8.20571C17.6912 8.34865 18.0078 8.89699 17.8649 9.43045L15.7943 17.1578C15.6514 17.6913 15.103 18.0079 14.5696 17.8649L6.84215 15.7944C6.30868 15.6514 5.9921 15.1031 6.13504 14.5696L8.20559 6.84226C8.34853 6.3088 8.89687 5.99221 9.43034 6.13515ZM7.23967 6.58344C7.52555 5.51651 8.62222 4.88334 9.68916 5.16923L17.4166 7.23978C18.4835 7.52566 19.1167 8.62234 18.8308 9.68927L16.7602 17.4166C16.4744 18.4836 15.3777 19.1167 14.3108 18.8309L6.58333 16.7603C5.5164 16.4744 4.88323 15.3777 5.16911 14.3108L7.23967 6.58344ZM9.97336 9.90412C10.5068 10.047 11.0552 9.73048 11.1981 9.19702C11.3411 8.66355 11.0245 8.11521 10.491 7.97227C9.95753 7.82933 9.40919 8.14591 9.26625 8.67938C9.12331 9.21284 9.43989 9.76118 9.97336 9.90412ZM16.0278 10.4911C15.8848 11.0245 15.3365 11.3411 14.803 11.1982C14.2695 11.0552 13.953 10.5069 14.0959 9.97347C14.2388 9.44001 14.7872 9.12342 15.3206 9.26637C15.8541 9.40931 16.1707 9.95765 16.0278 10.4911ZM11.7411 12.966C12.2746 13.1089 12.8229 12.7923 12.9659 12.2588C13.1088 11.7254 12.7922 11.177 12.2588 11.0341C11.7253 10.8912 11.177 11.2077 11.034 11.7412C10.8911 12.2747 11.2077 12.823 11.7411 12.966ZM9.90401 14.0266C9.76107 14.5601 9.21273 14.8767 8.67926 14.7337C8.1458 14.5908 7.82921 14.0424 7.97216 13.509C8.1151 12.9755 8.66344 12.6589 9.1969 12.8019C9.73037 12.9448 10.047 13.4931 9.90401 14.0266ZM13.5099 16.0278C14.0434 16.1708 14.5917 15.8542 14.7347 15.3207C14.8776 14.7873 14.561 14.2389 14.0276 14.096C13.4941 13.953 12.9458 14.2696 12.8028 14.8031C12.6599 15.3365 12.9765 15.8849 13.5099 16.0278Z" fill="black"/>
</svg>
