<svg width="48" height="55" viewBox="0 0 48 55" fill="none" xmlns="http://www.w3.org/2000/svg">
<path d="M24 55C34.4934 55 43 46.9411 43 37C43 27.0589 34.4934 19 24 19C13.5066 19 5 27.0589 5 37C5 46.9411 13.5066 55 24 55Z" fill="#7C2BDA"/>
<path opacity="0.2" fill-rule="evenodd" clip-rule="evenodd" d="M26.9832 24.0699C32.0152 24.0699 36.5541 26.07 39.7611 29.28C36.8871 23.78 30.9012 20 23.9832 20C14.2662 20 6.38916 27.46 6.38916 36.66C6.38916 41.1 8.22014 45.13 11.2051 48.12C10.0431 45.9 9.38916 43.39 9.38916 40.74C9.38916 31.53 17.2662 24.0699 26.9832 24.0699Z" fill="white"/>
<path d="M41.5 37C41.5 27.9615 33.742 20.5 24 20.5C14.258 20.5 6.5 27.9615 6.5 37C6.5 46.0385 14.258 53.5 24 53.5C33.742 53.5 41.5 46.0385 41.5 37ZM43 37C43 46.9415 34.494 55 24 55C13.506 55 5 46.9415 5 37C5 27.0585 13.506 19 24 19C34.494 19 43 27.0585 43 37Z" fill="#1A1A1A"/>
<path opacity="0.5" fill-rule="evenodd" clip-rule="evenodd" d="M21 49.9302C18.352 49.9302 15.841 49.3702 13.589 48.3802C12.541 47.9202 11.42 49.0402 12.294 49.7802C15.404 52.4002 19.505 54.0002 24 54.0002C33.717 54.0002 41.594 46.5401 41.594 37.3401C41.594 35.2001 41.169 33.1502 40.394 31.2702C39.957 30.2102 38.472 30.9802 38.554 32.1202C38.581 32.5002 38.594 32.8802 38.594 33.2602C38.594 42.4702 30.717 49.9302 21 49.9302Z" fill="#1A1A1A"/>
<path d="M11.7865 34.4741C12.1268 33.2049 13.4313 32.4508 14.7006 32.7906C15.97 33.1307 16.724 34.4361 16.3842 35.7056C16.044 36.9752 14.7387 37.7284 13.4691 37.3882C12.1997 37.0479 11.4465 35.7436 11.7865 34.4741Z" fill="#1A1A1A"/>
<path d="M17.6156 28.9136C17.956 27.6443 19.2613 26.8911 20.5307 27.231C21.8002 27.5712 22.5533 28.8765 22.2133 30.146C21.873 31.4154 20.5686 32.1686 19.2992 31.8286C18.0298 31.4883 17.2754 30.1831 17.6156 28.9136Z" fill="#1A1A1A"/>
<path d="M11.3676 27.2339C11.7078 25.9646 13.0123 25.2114 14.2816 25.5513C15.551 25.8914 16.3049 27.196 15.9652 28.4654C15.6251 29.7349 14.3197 30.489 13.0502 30.1489C11.7807 29.8087 11.0274 28.5034 11.3676 27.2339Z" fill="#1A1A1A"/>
<path fill-rule="evenodd" clip-rule="evenodd" d="M28.2817 43.5355C28.4035 43.1396 28.8232 42.9174 29.2191 43.0392C30.3668 43.3922 31.5617 42.6463 31.7485 41.4602L31.7692 41.328C31.8334 40.9188 32.2172 40.6391 32.6264 40.7033C33.0356 40.7675 33.3153 41.1513 33.2511 41.5605L33.2304 41.6927C32.9018 43.7812 30.7985 45.0943 28.7781 44.4729C28.3822 44.3511 28.16 43.9315 28.2817 43.5355Z" fill="#D9D9D9"/>
<path d="M25.8076 42.5307C25.3464 42.8344 25.2186 43.4545 25.5223 43.9158C25.826 44.3771 26.4462 44.5048 26.9074 44.2011C27.3687 43.8974 27.4965 43.2773 27.1928 42.816C26.8891 42.3547 26.2689 42.227 25.8076 42.5307Z" fill="#D9D9D9"/>
<path d="M32.3831 38.0663C32.8444 37.7626 33.4645 37.8904 33.7682 38.3516C34.0719 38.8129 33.9442 39.4331 33.4829 39.7368C33.0216 40.0405 32.4015 39.9127 32.0977 39.4514C31.794 38.9902 31.9218 38.37 32.3831 38.0663Z" fill="#D9D9D9"/>
</svg>
