<svg width="48" height="55" viewBox="0 0 48 55" fill="none" xmlns="http://www.w3.org/2000/svg">
<path d="M24 55C34.4934 55 43 46.9411 43 37C43 27.0589 34.4934 19 24 19C13.5066 19 5 27.0589 5 37C5 46.9411 13.5066 55 24 55Z" fill="#FF5C16"/>
<path opacity="0.2" fill-rule="evenodd" clip-rule="evenodd" d="M26.9832 24.0699C32.0155 24.0699 36.5543 26.07 39.7611 29.28C36.887 23.78 30.9014 20 23.9832 20C14.2663 20 6.38916 27.46 6.38916 36.66C6.38916 41.1 8.22006 45.13 11.2054 48.12C10.0427 45.9 9.38916 43.39 9.38916 40.74C9.38916 31.53 17.2663 24.0699 26.9832 24.0699Z" fill="white"/>
<path d="M41.5 37C41.5 27.9615 33.7419 20.5 24 20.5C14.2581 20.5 6.5 27.9615 6.5 37C6.5 46.0385 14.2581 53.5 24 53.5C33.7419 53.5 41.5 46.0385 41.5 37ZM43 37C43 46.9415 34.4939 55 24 55C13.5061 55 5 46.9415 5 37C5 27.0585 13.5061 19 24 19C34.4939 19 43 27.0585 43 37Z" fill="#1A1A1A"/>
<path opacity="0.5" fill-rule="evenodd" clip-rule="evenodd" d="M21.4058 50.0001C18.4684 50.0001 15.6992 49.3201 13.2648 48.1101C12.2314 47.6001 11.0495 48.67 11.9082 49.44C15.0608 52.27 19.3167 54.0001 24 54.0001C33.717 54.0001 41.5941 46.54 41.5941 37.34C41.5941 35.7 41.3451 34.1201 40.8808 32.6201C40.5403 31.5301 38.9999 32.19 38.9999 33.34C38.9999 42.54 31.1228 50.0001 21.4058 50.0001Z" fill="#AA370D"/>
<path d="M17.7637 38.0122C20.517 43.4712 20.4563 49.5913 17.96 54.0708C17.4706 53.9155 16.9902 53.7415 16.5195 53.5503C18.8663 49.5465 19.0525 43.8998 16.4238 38.688L17.7637 38.0122ZM33.832 51.1118L32.4932 51.7886L16.6504 20.396C17.1168 20.2105 17.5927 20.0425 18.0771 19.8921L33.832 51.1118ZM29.8398 19.8667C30.3287 20.0161 30.8086 20.1845 31.2793 20.3696C30.8418 23.5013 31.3756 26.991 33.0479 30.3022L33.2295 30.6538C35.4858 34.9019 39.1037 37.7568 42.9043 38.8149C42.8508 39.3209 42.7735 39.8203 42.6768 40.313C38.3735 39.1621 34.3465 35.9532 31.9023 31.353L31.708 30.978C29.8721 27.3427 29.2864 23.411 29.8398 19.8667ZM7.09863 28.7681C11.4023 30.0207 15.3966 33.3267 17.7627 38.0112L16.4238 38.688C14.1569 34.1994 10.384 31.1989 6.42871 30.1431C6.63259 29.6747 6.85528 29.2156 7.09863 28.7681Z" fill="black"/>
<path fill-rule="evenodd" clip-rule="evenodd" d="M9.03001 41.1967C9.38686 40.9864 9.84664 41.1052 10.057 41.462C10.6667 42.4965 12.0521 42.7512 12.9896 42.0011L13.0941 41.9175C13.4173 41.6585 13.8893 41.7107 14.1483 42.034C14.4072 42.3572 14.3551 42.8292 14.0318 43.0882L13.9274 43.1718C12.2767 44.4929 9.83795 44.0447 8.76469 42.2236C8.55438 41.8668 8.67317 41.407 9.03001 41.1967Z" fill="#1A1A1A"/>
<path d="M9.42299 38.1979C8.8775 38.1115 8.36527 38.4837 8.27887 39.0292C8.19247 39.5747 8.56463 40.0869 9.11012 40.1733C9.65561 40.2597 10.1678 39.8875 10.2542 39.3421C10.3406 38.7966 9.96848 38.2843 9.42299 38.1979Z" fill="#1A1A1A"/>
<path d="M14.7345 39.0173C15.28 39.1037 15.6522 39.6159 15.5658 40.1614C15.4794 40.7069 14.9671 41.079 14.4216 40.9927C13.8762 40.9063 13.504 40.394 13.5904 39.8485C13.6768 39.303 14.189 38.9309 14.7345 39.0173Z" fill="#1A1A1A"/>
</svg>
