<svg width="48" height="55" viewBox="0 0 48 55" fill="none" xmlns="http://www.w3.org/2000/svg">
<path d="M46.1027 34.85C46.6267 36.22 46.5495 37.75 45.9546 39.1C41.7819 48.54 34.221 55 24.4364 55C14.7805 55 6.26529 48.42 2.1593 39.4C1.46747 37.88 1.49602 36.13 2.2309 34.63C6.42593 26.07 14.818 19 24.4364 19C34.1527 19 42.7384 26.02 46.1027 34.85Z" fill="#A55E40"/>
<path d="M13.5981 23.5098C12.3818 27.0398 9.94971 34.6602 9.94971 36.9502C9.94987 39.2405 12.1997 47.0998 12.8687 50.5098L8.79346 47.5303C7.96235 45.1403 6.30039 39.6703 6.30029 36.9502C6.30029 34.2202 7.96233 29.4098 8.79346 27.3398L13.5981 23.5098ZM40.2407 27.3398C41.0719 29.4098 42.7339 34.2202 42.7339 36.9502C42.7338 39.6703 41.0719 45.1403 40.2407 47.5303L36.1665 50.5098C36.8354 47.0997 39.0853 39.2404 39.0854 36.9502C39.0854 34.6602 36.6533 27.0398 35.437 23.5098L40.2407 27.3398Z" fill="#F5F5F5"/>
<path d="M24.4361 19C34.2188 19 42.8563 26.1152 46.1714 35.0264L46.3247 35.4521V35.4531C46.6713 36.4457 46.6184 37.5364 46.2095 38.5L46.2105 38.501C42.0952 48.2736 34.4239 55 24.4361 55C14.5409 54.9999 5.84345 48.0896 1.86185 38.7246L1.77982 38.5166C1.39916 37.4726 1.44567 36.3099 1.91361 35.2959C5.99256 26.4339 14.5694 19.0001 24.4361 19ZM24.4361 20.5C15.3365 20.5001 7.19623 27.4062 3.27592 35.9238L3.21928 36.0566C2.97119 36.679 2.96036 37.3759 3.189 38.0029L3.24174 38.1357V38.1367C7.03981 47.071 15.2649 53.4999 24.4361 53.5C33.6372 53.5 40.8672 47.3263 44.8287 37.9189L44.8296 37.917C45.0998 37.2814 45.1275 36.5727 44.9087 35.9463C41.8877 27.3361 33.6333 20.5 24.4361 20.5Z" fill="#1A1A1A"/>
<path d="M2.54688 36.5127C6.3236 37.368 16.0365 39.0703 24.6162 39.0703C33.1941 39.0703 42.2516 37.3682 45.6963 36.5146L45.9365 37.4854C42.4397 38.3518 33.2986 40.0703 24.6162 40.0703C15.9357 40.0703 6.14396 38.352 2.32617 37.4873L2.54688 36.5127Z" fill="#603A2A"/>
<path d="M35.5542 35.5371C35.8425 36.0887 36.437 37.5169 36.437 38.8701C36.437 40.2238 35.8489 41.7263 35.5688 42.3057L33.7681 41.4346C34.0005 40.9536 34.437 39.776 34.437 38.8701C34.437 37.9838 34.0069 36.8917 33.7827 36.4629L35.5542 35.5371ZM15.3882 36.4629C15.1641 36.8917 14.7339 37.9836 14.7339 38.8701C14.7339 39.7761 15.1705 40.9536 15.4028 41.4346L13.6021 42.3047C13.3222 41.7254 12.7339 40.2237 12.7339 38.8701C12.7339 37.5169 13.3276 36.0886 13.6157 35.5371L15.3882 36.4629ZM18.7778 36.6533C18.665 37.0349 18.4371 38.0328 18.437 38.8799C18.437 39.7416 18.6666 40.8037 18.7827 41.2236L16.855 41.7568C16.7167 41.2568 16.437 39.9981 16.437 38.8799C16.4371 37.7674 16.7183 36.5656 16.8599 36.0869L18.7778 36.6533ZM32.312 36.0869C32.4536 36.5658 32.7348 37.7676 32.7349 38.8799C32.7348 39.9981 32.4552 41.2568 32.3169 41.7568L30.3892 41.2236C30.5053 40.8037 30.7348 39.7416 30.7349 38.8799C30.7348 38.033 30.5069 37.035 30.394 36.6533L32.312 36.0869ZM22.1567 36.4785C22.1119 36.8877 22.022 37.9491 22.022 38.8799C22.022 39.8224 22.1124 40.9458 22.1577 41.3887L20.1685 41.5918C20.1196 41.1146 20.022 39.9172 20.022 38.8799C20.022 37.8512 20.12 36.7129 20.1694 36.2617L22.1567 36.4785ZM29.0024 36.2617C29.0519 36.713 29.1489 37.8514 29.1489 38.8799C29.1489 39.9171 29.0523 41.1144 29.0034 41.5918L27.0132 41.3887C27.0585 40.9459 27.1489 39.8225 27.1489 38.8799C27.1489 37.9491 27.059 36.8877 27.0142 36.4785L29.0024 36.2617ZM25.3657 41.4902H23.3657V36.3701H25.3657V41.4902Z" fill="#F5F5F5"/>
<path fill-rule="evenodd" clip-rule="evenodd" d="M17.9718 27.7171C18.3496 27.5473 18.7935 27.7159 18.9634 28.0937C19.4557 29.1889 20.8048 29.5942 21.8191 28.9517L21.932 28.88C22.2818 28.6581 22.7452 28.7618 22.9671 29.1116C23.189 29.4614 23.0853 29.9248 22.7355 30.1467L22.6225 30.2183C20.8367 31.35 18.4619 30.6366 17.5952 28.7087C17.4254 28.3309 17.594 27.887 17.9718 27.7171Z" fill="#1A1A1A"/>
<path d="M24.7691 27.2383C25.3026 27.3813 25.6192 27.9296 25.4763 28.4631C25.3333 28.9965 24.785 29.3131 24.2515 29.1702C23.718 29.0272 23.4015 28.4789 23.5444 27.9454C23.6873 27.412 24.2357 27.0954 24.7691 27.2383Z" fill="#1A1A1A"/>
<path d="M17.0719 25.1787C16.5384 25.0358 15.9901 25.3524 15.8471 25.8858C15.7042 26.4193 16.0208 26.9676 16.5542 27.1106C17.0877 27.2535 17.636 26.937 17.779 26.4035C17.9219 25.87 17.6053 25.3217 17.0719 25.1787Z" fill="#1A1A1A"/>
</svg>
