<svg width="48" height="55" viewBox="0 0 48 55" fill="none" xmlns="http://www.w3.org/2000/svg">
<path d="M24 55C34.4934 55 43 46.9411 43 37C43 27.0589 34.4934 19 24 19C13.5066 19 5 27.0589 5 37C5 46.9411 13.5066 55 24 55Z" fill="#FDEECE"/>
<path opacity="0.45" fill-rule="evenodd" clip-rule="evenodd" d="M26.9832 24.0699C32.0152 24.0699 36.5542 26.07 39.7612 29.28C36.8872 23.78 30.9012 20 23.9832 20C14.2662 20 6.38916 27.46 6.38916 36.66C6.38916 41.1 8.22016 45.13 11.2052 48.12C10.0432 45.9 9.38916 43.39 9.38916 40.74C9.38916 31.53 17.2662 24.0699 26.9832 24.0699Z" fill="white"/>
<path d="M6.28516 31.7285C11.943 29.5924 18.0323 32.6437 21.1836 39.3096L21.1846 39.3105C22.7454 42.6186 23.1926 45.3388 22.7422 47.7861C22.2934 50.2242 20.9725 52.2838 19.2168 54.3027L18.085 53.3184C19.7641 51.3875 20.888 49.5713 21.2666 47.5146C21.6434 45.4671 21.3001 43.0719 19.8271 39.9502V39.9492C16.9083 33.7764 11.5381 31.3483 6.81445 33.1318L6.28516 31.7285ZM29.8682 20.0791C29.7301 21.2313 29.5105 22.6358 29.8447 24.4248C30.1773 26.2045 31.0713 28.4137 33.2549 31.0742C35.4199 33.7119 37.4887 34.8465 39.0986 35.3369C40.7234 35.8317 41.9084 35.6905 42.499 35.6904V37.1904C42.0302 37.1905 40.5558 37.3485 38.6611 36.7715C36.7505 36.1894 34.4363 34.878 32.0957 32.0264C29.7737 29.1973 28.7551 26.7603 28.3701 24.7002C27.9871 22.6499 28.245 21.019 28.3789 19.9014L29.8682 20.0791Z" fill="#DC3412"/>
<path fill-rule="evenodd" clip-rule="evenodd" d="M19.2275 50.0422C19.7338 49.8842 20.2259 49.9665 20.6093 50.1038C20.993 50.2412 21.3083 50.4479 21.498 50.5979H21.499C21.8173 50.8506 22.4148 51.3179 22.6523 52.1877C22.725 52.4541 22.568 52.7292 22.3017 52.802C22.0355 52.8744 21.7601 52.7177 21.6875 52.4514C21.543 51.9221 21.1893 51.6292 20.8779 51.3821L20.7656 51.3001C20.638 51.2132 20.4648 51.1144 20.2714 51.0452C20.0131 50.9528 19.7565 50.9256 19.5263 50.9973C19.2629 51.0793 18.9817 50.9325 18.8994 50.6692C18.8173 50.4059 18.9644 50.1248 19.2275 50.0422ZM21.0459 45.7698C21.4461 45.6983 21.8219 45.719 22.0625 45.7551C22.4718 45.8167 23.2177 45.9329 23.8544 46.5647C24.0504 46.7591 24.0517 47.0757 23.8574 47.2717C23.6629 47.4676 23.3464 47.469 23.1503 47.2747C22.7593 46.8867 22.3026 46.8019 21.914 46.7434C21.7557 46.7196 21.492 46.7058 21.2216 46.7542C20.9506 46.8026 20.7128 46.9059 20.5478 47.0813C20.3588 47.2826 20.0421 47.2928 19.8408 47.1038C19.6398 46.9147 19.6303 46.5979 19.8193 46.3967C20.1803 46.0127 20.646 45.8413 21.0459 45.7698ZM20.8828 40.4124C21.2756 40.3224 22.0161 40.1396 22.8486 40.5002C23.1019 40.61 23.218 40.9051 23.1084 41.1585C22.9985 41.4116 22.7044 41.5279 22.4511 41.4182C21.946 41.1994 21.4994 41.297 21.1064 41.387C20.953 41.4221 20.7039 41.5059 20.4716 41.6516C20.2394 41.7974 20.0582 41.9831 19.9707 42.2092C19.8713 42.4667 19.5817 42.5954 19.3242 42.4963C19.0668 42.3968 18.9376 42.1064 19.0371 41.8489C19.2276 41.3558 19.5954 41.0214 19.9404 40.8049C20.2854 40.5885 20.6431 40.4673 20.8828 40.4124ZM18.166 36.3254C18.5123 36.127 19.167 35.7327 20.0673 35.8323C20.3417 35.8627 20.54 36.1106 20.5097 36.385C20.4792 36.6592 20.2313 36.8567 19.957 36.8264C19.412 36.7662 19.0148 36.992 18.663 37.1936C18.5283 37.2708 18.3146 37.4237 18.1347 37.6321C17.9547 37.8407 17.8357 38.0732 17.8183 38.3157C17.7985 38.5907 17.5592 38.7979 17.2841 38.7786C17.0088 38.7589 16.8008 38.5197 16.8203 38.2444C16.858 37.7169 17.1114 37.2876 17.3779 36.9788C17.6444 36.6699 17.9518 36.4482 18.166 36.3254ZM39.083 33.8245C39.3454 33.7388 39.6281 33.8823 39.7138 34.1448C39.7994 34.4072 39.6559 34.6899 39.3935 34.7756C39.161 34.8516 38.9636 35.0241 38.8037 35.2483C38.6443 35.4718 38.5454 35.7146 38.5 35.8645C38.3861 36.2509 38.2632 36.6898 38.4482 37.2131C38.5401 37.4734 38.4038 37.7598 38.1435 37.8518C37.8835 37.9433 37.598 37.8069 37.5058 37.5471C37.2036 36.6924 37.4261 35.9712 37.542 35.5784L37.5429 35.5754C37.6125 35.3456 37.7541 34.9982 37.9902 34.6672C38.2261 34.3366 38.5807 33.9885 39.083 33.8245ZM16.6894 32.1106C16.9647 32.0919 17.2036 32.3002 17.2226 32.5754C17.2415 32.8508 17.0331 33.0895 16.7578 33.1086C16.2082 33.1466 15.8516 33.4344 15.5459 33.6917C15.4248 33.794 15.2417 33.9837 15.1005 34.219C14.9587 34.4556 14.8817 34.7016 14.9062 34.9377C14.9347 35.2123 14.7345 35.4579 14.4599 35.4866C14.1854 35.5149 13.9396 35.3158 13.9111 35.0413C13.8567 34.5177 14.0334 34.0536 14.2421 33.7053C14.4514 33.3564 14.7155 33.0857 14.9023 32.928V32.927C15.2145 32.6643 15.7894 32.1727 16.6894 32.1106ZM35.3105 31.1711C35.5854 31.1929 35.7907 31.4333 35.7695 31.7083C35.748 31.9835 35.5076 32.1896 35.2324 32.1682C34.9934 32.1496 34.7495 32.2338 34.5175 32.3821C34.2862 32.53 34.1017 32.7196 34.0009 32.844C33.751 33.1627 33.475 33.5288 33.4531 34.0696C33.442 34.3455 33.2085 34.5602 32.9326 34.5491C32.657 34.5376 32.4421 34.3051 32.4531 34.0295C32.4893 33.1341 32.9679 32.5407 33.2187 32.221L33.2236 32.2151C33.3739 32.0295 33.6353 31.7587 33.9785 31.5393C34.321 31.3203 34.7819 31.1299 35.3105 31.1711ZM12.1435 30.1516C12.3966 30.0415 12.6915 30.1573 12.8017 30.4104C12.9117 30.6634 12.7958 30.9573 12.5429 31.0676C12.0399 31.2867 11.8016 31.6823 11.5996 32.0305L11.5966 32.0364L11.5341 32.1526C11.4683 32.2864 11.3967 32.4698 11.3564 32.6721C11.3027 32.942 11.3121 33.2038 11.4169 33.4251C11.5352 33.6744 11.4289 33.9726 11.1796 34.0911C10.9301 34.2094 10.632 34.1033 10.5136 33.8538C10.2867 33.3751 10.2954 32.8767 10.375 32.4768C10.4545 32.0771 10.6126 31.7342 10.7382 31.5237C10.9429 31.1706 11.3191 30.5107 12.1435 30.1516ZM30.9736 27.887C31.366 27.7779 31.861 27.7321 32.3535 27.9241C32.6107 28.0245 32.738 28.3143 32.6377 28.5715C32.5373 28.8286 32.2474 28.9559 31.9902 28.8557C31.7649 28.7679 31.5062 28.7765 31.2421 28.8499C30.9783 28.9232 30.7479 29.0506 30.6171 29.1409C30.2874 29.3686 29.9114 29.6406 29.7295 30.1555C29.6376 30.4158 29.3521 30.5528 29.0918 30.4612C28.8316 30.3692 28.6945 30.0837 28.7861 29.8235C29.0842 28.9789 29.7126 28.5508 30.0488 28.3186C30.251 28.179 30.5812 27.9961 30.9736 27.887ZM29.499 22.9885C29.9047 22.9482 30.4007 22.9876 30.8535 23.262C31.0896 23.4051 31.1645 23.7124 31.0214 23.9485C30.8783 24.1846 30.5711 24.2606 30.3349 24.1174C30.1278 23.9919 29.8715 23.9565 29.5986 23.9836C29.3258 24.0108 29.0773 24.0968 28.9336 24.1633C28.5644 24.3343 28.1511 24.5289 27.8828 25.0051C27.7473 25.2456 27.4426 25.3308 27.2021 25.1956C26.9616 25.06 26.8761 24.7545 27.0117 24.5139C27.4532 23.7307 28.1478 23.4251 28.5127 23.2561C28.7358 23.1527 29.0933 23.0289 29.499 22.9885Z" fill="#DC3412"/>
<path d="M41.5 37C41.5 27.9615 33.742 20.5 24 20.5C14.258 20.5 6.5 27.9615 6.5 37C6.5 46.0385 14.258 53.5 24 53.5C33.742 53.5 41.5 46.0385 41.5 37ZM43 37C43 46.9415 34.494 55 24 55C13.506 55 5 46.9415 5 37C5 27.0585 13.506 19 24 19C34.494 19 43 27.0585 43 37Z" fill="#1A1A1A"/>
<path opacity="0.14" fill-rule="evenodd" clip-rule="evenodd" d="M41.366 34.47C41.516 35.35 41.594 36.25 41.594 37.16C41.594 46.37 33.717 53.8299 24 53.8299C20.004 53.8299 16.32 52.5699 13.366 50.4399C12.407 49.7499 13.566 48.6 14.654 49.06C16.841 49.98 19.263 50.5 21.812 50.5C31.529 50.5 39.406 43.0399 39.406 33.8299C39.406 32.9199 40.696 32.44 40.999 33.3C41.134 33.69 41.257 34.08 41.366 34.47Z" fill="#AD7F00"/>
<path fill-rule="evenodd" clip-rule="evenodd" d="M17.5175 27.7448C17.8944 27.5728 18.3392 27.739 18.5111 28.1158C19.0095 29.2084 20.3607 29.6063 21.3715 28.9582L21.4841 28.8859C21.8326 28.6621 22.2966 28.7633 22.5204 29.1118C22.7442 29.4604 22.643 29.9244 22.2945 30.1481L22.1819 30.2204C20.4023 31.3619 18.0237 30.6615 17.1464 28.7384C16.9745 28.3615 17.1407 27.9167 17.5175 27.7448Z" fill="#1A1A1A"/>
<path d="M16.6261 25.2085C16.0926 25.0656 15.5443 25.3822 15.4013 25.9156C15.2584 26.4491 15.575 26.9974 16.1084 27.1404C16.6419 27.2833 17.1902 26.9667 17.3332 26.4333C17.4761 25.8998 17.1595 25.3515 16.6261 25.2085Z" fill="#1A1A1A"/>
<path d="M24.3233 27.2681C24.8568 27.411 25.1734 27.9594 25.0305 28.4928C24.8875 29.0263 24.3392 29.3429 23.8057 29.1999C23.2722 29.057 22.9557 28.5087 23.0986 27.9752C23.2415 27.4417 23.7899 27.1252 24.3233 27.2681Z" fill="#1A1A1A"/>
</svg>
