<svg width="48" height="55" viewBox="0 0 48 55" fill="none" xmlns="http://www.w3.org/2000/svg">
<ellipse cx="23.688" cy="36.82" rx="18.3101" ry="17.0002" fill="#034AC1"/>
<path d="M36.481 42.1914C36.5632 43.0382 36.5476 44.3649 36.4097 45.29C36.1357 47.13 35.2342 49.32 34.8862 50.5L29.2036 53.8203H26.3315C26.8705 52.7703 28.0551 50.3697 28.4731 49.1797C28.8577 48.0754 29.3271 45.312 29.563 43.7637C32.3143 43.1343 34.69 42.5942 36.481 42.1914Z" fill="black" fill-opacity="0.15"/>
<path d="M37.4932 26.6198C29.4212 22.2698 16.0702 27.4998 12.0962 31.8598C12.2352 33.1398 12.7912 36.1698 13.9022 38.1098C22.3722 36.0098 31.0782 34.0399 41.9002 33.4299C41.6912 31.5799 39.8812 27.7398 37.4932 26.6198Z" fill="#F5F5F5"/>
<path d="M13.2591 36.25C11.2701 31.48 12.6411 25.3 14.0481 22.46L11.2011 24.1801C9.35513 26.0101 6.36513 31.23 7.83913 37.79C9.93013 47.1 15.2971 51.04 18.3941 52.87L20.4281 45.85C18.3701 43.66 15.0131 40.45 13.2591 36.25Z" fill="#E6E6E6"/>
<path d="M8.77979 27.9072C7.67032 30.4324 6.95907 33.8723 7.83936 37.79C9.87462 46.8518 15.0147 50.8238 18.1431 52.7168C18.5641 51.8007 19.1923 50.0968 19.3853 49.3799C19.5966 48.591 20.1083 46.8539 20.3169 45.877C23.7983 45.0826 27.0941 44.3282 29.9595 43.6729C29.6423 45.013 29.0314 47.5881 28.77 48.6299C28.495 49.7298 27.3471 52.5097 26.8081 53.7598L23.1235 54.2705L18.7847 53.2217L18.6782 53.6699L12.1616 50.5L6.52197 42.6699L5.646 33.9102L7.6167 28.9805L8.7124 27.0098L8.77979 27.9072ZM41.2017 41.2002L39.4907 45.4199L34.7827 50.29C35.5467 48.6201 36.0714 47.0696 36.2524 45.6797C36.4324 44.28 36.5071 43.2201 36.3892 42.0703C37.13 41.7704 38.2248 41.5101 38.9868 41.3701C39.7278 41.2301 40.6523 41.2002 41.0083 41.2002H41.2017Z" fill="#FFCD29"/>
<path opacity="0.15" fill-rule="evenodd" clip-rule="evenodd" d="M21.7753 22.8899C16.8353 22.8899 12.3703 24.8199 9.17529 27.9299C12.2493 23.0699 17.8613 19.8198 24.2753 19.8198C33.9923 19.8198 41.8693 27.2799 41.8693 36.4799C41.8693 41.0099 39.9653 45.1099 36.8753 48.1099C38.4593 45.6099 39.3693 42.6899 39.3693 39.5599C39.3693 30.3499 31.4923 22.8899 21.7753 22.8899Z" fill="white"/>
<path opacity="0.14" fill-rule="evenodd" clip-rule="evenodd" d="M34.6411 49.86C33.8761 50.58 33.0281 51.2399 32.1011 51.8199C24.2861 56.6799 13.7901 53.93 8.65814 45.68C6.39714 42.05 5.55413 37.96 5.98513 34.1C6.11613 32.93 7.68413 33.35 7.82713 34.52C8.14013 37.07 9.01014 39.62 10.4751 41.98C15.6081 50.23 26.1041 52.97 33.9191 48.11C34.6951 47.63 35.7861 48.47 35.2131 49.18C35.0291 49.41 34.8381 49.64 34.6411 49.86Z" fill="#3C670C"/>
<path d="M41.2642 37C41.2642 27.9615 33.5062 20.5 23.7642 20.5C14.0221 20.5 6.26416 27.9615 6.26416 37C6.26416 46.0385 14.0221 53.5 23.7642 53.5C33.5062 53.5 41.2642 46.0385 41.2642 37ZM42.7642 37C42.7642 46.9415 34.2581 55 23.7642 55C13.2702 55 4.76416 46.9415 4.76416 37C4.76416 27.0585 13.2702 19 23.7642 19C34.2581 19 42.7642 27.0585 42.7642 37Z" fill="#1A1A1A"/>
<path fill-rule="evenodd" clip-rule="evenodd" d="M23.7098 30.5998C23.9959 30.3003 24.4706 30.2894 24.7702 30.5754C25.6385 31.4048 27.0409 31.2726 27.7388 30.2956L27.8165 30.1867C28.0571 29.8495 28.5254 29.7711 28.8626 30.0117C29.1998 30.2522 29.2782 30.7206 29.0376 31.0578L28.9599 31.1667C27.7314 32.8873 25.2627 33.1201 23.7341 31.6602C23.4346 31.3741 23.4237 30.8993 23.7098 30.5998Z" fill="#1A1A1A"/>
<path d="M21.6783 28.6713C21.1655 28.8763 20.9159 29.4582 21.121 29.971C21.326 30.4839 21.9079 30.7334 22.4207 30.5284C22.9335 30.3234 23.1831 29.7414 22.9781 29.2286C22.7731 28.7158 22.1911 28.4663 21.6783 28.6713Z" fill="#1A1A1A"/>
<path d="M29.9748 27.6499C30.5269 27.6636 30.9633 28.1223 30.9496 28.6745C30.9359 29.2266 30.4771 29.663 29.925 29.6493C29.3729 29.6355 28.9365 29.1768 28.9502 28.6247C28.964 28.0726 29.4227 27.6361 29.9748 27.6499Z" fill="#1A1A1A"/>
</svg>
