<svg width="48" height="55" viewBox="0 0 48 55" fill="none" xmlns="http://www.w3.org/2000/svg">
<path fill-rule="evenodd" clip-rule="evenodd" d="M19.3601 54.15C18.4844 53.81 17.483 54.05 16.6379 54.45C16.1336 54.7 15.5685 54.83 14.9717 54.83C13.3545 54.83 11.9105 53.82 11.3923 52.29C10.2545 48.93 8.34369 42.9 7.64059 38.42C7.14149 35.23 6.98229 31.1201 6.94759 27.8101C6.91369 24.5701 9.56889 22 12.8085 22C13.4407 22 14.0501 22.1 14.6226 22.28C15.4179 22.53 16.3088 22.49 17.0117 22.04C19.0303 20.75 21.4289 20 24.0021 20C26.545 20 28.9174 20.73 30.921 21.99C31.606 22.42 32.4667 22.47 33.2431 22.24C33.7751 22.08 34.3383 22 34.9211 22C38.1841 22 40.8232 24.64 40.689 27.9C40.4966 32.57 40.0323 39.1001 38.9123 43.9301C38.3075 46.5401 37.2079 49.97 36.4307 52.28C35.9133 53.82 34.4666 54.83 32.8453 54.83C32.2623 54.83 31.7096 54.7 31.2145 54.47C30.3876 54.08 29.4163 53.8601 28.5609 54.1801C27.1423 54.7101 25.6061 55 24.0021 55C22.3667 55 20.8018 54.7 19.3601 54.15Z" fill="#FF5C16"/>
<path d="M19.8963 52.7502C21.1694 53.2302 22.5533 53.5002 24.0027 53.5002V55.0002L23.3924 54.9856C21.9776 54.9206 20.6216 54.6309 19.3601 54.1497L19.8963 52.7502Z" fill="#1A1A1A"/>
<path d="M28.0349 52.7698C29.4486 52.2398 30.8811 52.6596 31.8523 53.1096C32.1521 53.2496 32.4873 53.3303 32.8455 53.3303V54.8303L32.6287 54.8235C32.1255 54.7955 31.6479 54.6713 31.2146 54.47C30.3878 54.08 29.4166 53.86 28.5613 54.1799C27.1428 54.7099 25.6066 55.0002 24.0027 55.0002V53.5002C25.4243 53.5002 26.7821 53.2397 28.0349 52.7698Z" fill="#1A1A1A"/>
<path d="M12.8132 51.8098C13.1196 52.7198 13.9805 53.3303 14.9724 53.3303V54.8303L14.6707 54.8186C13.1778 54.702 11.8782 53.7245 11.3924 52.2903L11.3914 52.2893L12.8132 51.8098Z" fill="#1A1A1A"/>
<path d="M15.989 53.0999C16.9786 52.6299 18.4508 52.1903 19.8963 52.7502L19.3601 54.1497C18.4845 53.8099 17.4834 54.0505 16.6384 54.4504C16.1343 54.7004 15.5691 54.8303 14.9724 54.8303V53.3303C15.3395 53.3303 15.6833 53.2498 15.989 53.0999Z" fill="#1A1A1A"/>
<path d="M36.4314 52.2795C35.9139 53.8194 34.4667 54.8303 32.8455 54.8303V53.3303C33.8384 53.3303 34.7025 52.71 35.0095 51.8L36.4314 52.2795Z" fill="#1A1A1A"/>
<path d="M9.12282 38.1799C9.8038 42.5298 11.6745 48.4398 12.8132 51.8098L11.3914 52.2893C10.2535 48.9291 8.34343 42.8997 7.6404 38.4202C7.64009 38.4182 7.63972 38.4162 7.63942 38.4143L9.12282 38.1799Z" fill="#1A1A1A"/>
<path d="M38.9109 43.9338C38.306 46.5431 37.2082 49.9707 36.4314 52.2795L35.0095 51.8C35.7859 49.5001 36.864 46.1298 37.4509 43.5999L38.9109 43.9338Z" fill="#1A1A1A"/>
<path d="M24.4773 20.0081C26.8405 20.0929 29.0433 20.8093 30.9216 21.9905C31.6065 22.4201 32.4668 22.4694 33.2429 22.2395C33.7749 22.0795 34.3388 22.0002 34.9216 22.0002L35.2254 22.0081C38.3465 22.166 40.819 24.7417 40.6892 27.8997C40.4968 32.5696 40.0328 39.0999 38.9129 43.9299C38.9126 43.9313 38.9112 43.9325 38.9109 43.9338L37.4509 43.5999C38.5368 38.9099 38.9981 32.5001 39.1902 27.8401C39.2877 25.4702 37.3696 23.5004 34.9216 23.5002C34.484 23.5002 34.0633 23.5599 33.6677 23.6799C32.5772 23.9999 31.2507 23.97 30.1218 23.26C28.3506 22.1501 26.2544 21.5003 24.0027 21.5002C21.7241 21.5002 19.6037 22.16 17.8191 23.3C16.6622 24.0398 15.2903 24.0602 14.1707 23.7102C13.7428 23.5703 13.2855 23.5002 12.8084 23.5002C10.3641 23.5005 8.42332 25.4204 8.44801 27.7903L6.94801 27.804C6.91751 24.567 9.57099 22.0005 12.8084 22.0002L13.0447 22.0051C13.5927 22.0267 14.1219 22.123 14.6228 22.2805C15.4181 22.5305 16.3096 22.4903 17.0125 22.0403C19.031 20.7504 21.4296 20.0002 24.0027 20.0002L24.4773 20.0081Z" fill="#1A1A1A"/>
<path d="M8.44801 27.7903C8.48262 31.0902 8.64144 35.11 9.12282 38.1799L7.63942 38.4143C7.14104 35.2251 6.98269 31.1178 6.94801 27.8098C6.94799 27.8079 6.94803 27.8059 6.94801 27.804L8.44801 27.7903Z" fill="#1A1A1A"/>
<path d="M20.4603 15.19C20.3822 15.19 20.3045 15.2 20.2301 15.22C19.1664 15.57 18.7474 16.25 18.4395 16.75C18.4178 16.79 18.3967 16.82 18.3759 16.86C18.3088 16.96 18.21 17.0301 18.0676 17.0601C17.9139 17.0901 17.7113 17.08 17.502 16.99L16.2064 16.46C15.8733 16.32 15.6524 16.07 15.5666 15.82C15.4861 15.58 15.5176 15.34 15.701 15.12C16.9871 13.63 19.1823 12.25 22.2902 13.09C23.3509 13.37 24.0752 13.8501 24.5641 14.4101C25.0556 14.9701 25.3417 15.6601 25.4633 16.4001C25.6847 17.7501 25.3474 19.21 24.7976 20.25H22.7321C22.9494 19.45 23.1268 18.54 23.0814 17.72C23.0479 17.12 22.889 16.47 22.4381 15.96C21.9678 15.44 21.2868 15.19 20.4603 15.19Z" fill="#14AE5C"/>
<path d="M15.1334 14.6298C16.5484 12.9906 19.0216 11.4298 22.486 12.3662L22.485 12.3672C23.6722 12.6812 24.5308 13.2322 25.1276 13.915C25.7281 14.5992 26.0638 15.4269 26.2037 16.2783C26.4557 17.8147 26.0742 19.4399 25.4606 20.6006C25.3306 20.8462 25.0754 21 24.7975 21H22.7321C22.4986 20.9999 22.2782 20.8914 22.1363 20.706C21.9945 20.5205 21.9473 20.2791 22.0084 20.0537C22.2189 19.2787 22.3713 18.4609 22.3326 17.7617L23.8307 17.6787C23.864 18.2814 23.7927 18.9095 23.6783 19.5H24.3229C24.6649 18.6896 24.8586 17.6836 24.7535 16.7412L24.7233 16.5215C24.62 15.8931 24.3829 15.3409 24.0006 14.9052L23.9996 14.9033L23.8463 14.7412C23.4661 14.3683 22.9136 14.0304 22.0992 13.8154L22.3287 12.9463L22.0944 13.8144C19.3549 13.0741 17.4425 14.2591 16.2838 15.5927C16.3046 15.6327 16.3633 15.7103 16.4908 15.7656L17.7858 16.2959L17.7985 16.3007L17.8297 16.3095C18.1578 15.7777 18.7035 14.933 19.9957 14.5078C20.0088 14.5035 20.0224 14.4996 20.0358 14.4961L20.2467 14.4541C20.3179 14.4448 20.3895 14.4404 20.4606 14.4404C21.3782 14.4404 22.2326 14.7039 22.8697 15.3271L22.9947 15.457L23.0006 15.4629C23.6063 16.148 23.7922 16.9899 23.8307 17.6787L22.3326 17.7617C22.3041 17.2507 22.1723 16.7917 21.8766 16.457C21.5838 16.1374 21.13 15.9404 20.4606 15.9404C20.4511 15.9404 20.4425 15.9411 20.4352 15.9423C19.6655 16.2048 19.3682 16.6711 19.0826 17.1347C19.0676 17.1612 19.0555 17.1833 19.0494 17.1933C19.0454 17.2001 19.0428 17.204 19.0416 17.206L18.3727 16.8574L18.3756 16.8603L19.0416 17.206C19.0288 17.2308 19.0142 17.2551 18.9987 17.2783L18.9274 17.375C18.7501 17.5904 18.5069 17.7339 18.2223 17.7939L18.2115 17.7959L18.0963 17.8144C17.8268 17.8462 17.5209 17.8111 17.2184 17.6836L15.9225 17.1543L15.9156 17.1513L16.2067 16.4599L16.234 16.3925L15.9156 17.1513C15.4672 16.9628 15.1169 16.6306 14.9283 16.2363L14.8571 16.0634L14.8561 16.0586L15.4879 15.8466L15.5446 15.8271L14.8561 16.0586C14.6968 15.5838 14.7667 15.069 15.1246 14.6396L15.1334 14.6298ZM22.0992 13.8154L22.0944 13.8144L22.2906 13.0898L22.0992 13.8154Z" fill="#1A1A1A"/>
<path d="M19.1987 38.083C19.3105 39.9984 19.3072 41.543 19.4448 43.3242L19.5405 44.4561C19.6478 45.5751 19.7969 46.6502 20.0639 47.6221C20.1399 47.8942 20.1718 48.1543 20.1909 48.3203C20.2129 48.5123 20.2208 48.5947 20.2348 48.6738C20.2514 48.728 20.268 48.7814 20.2788 48.8223C20.281 48.8308 20.2868 48.8513 20.2924 48.876C20.2951 48.8878 20.2997 48.9121 20.3051 48.9424C20.3064 48.9495 20.3271 49.0519 20.3295 49.1807C20.3303 49.2202 20.3296 49.2908 20.3198 49.3779C20.3121 49.4456 20.2879 49.6318 20.187 49.8467C20.087 50.0596 19.7874 50.5422 19.1342 50.6777C18.5351 50.802 18.1 50.5305 17.9653 50.4355C17.697 50.2465 17.5615 50.0111 17.56 50.0088C17.5215 49.9477 17.4958 49.8971 17.4848 49.875C17.4612 49.8273 17.4452 49.7883 17.4399 49.7754C17.4326 49.7575 17.4276 49.7423 17.4243 49.7334C17.4069 49.6871 17.3929 49.6426 17.3901 49.6338C17.3726 49.5782 17.3204 49.4057 17.2905 49.2471C17.2481 49.0226 17.2237 48.7782 17.2104 48.6621L17.1743 48.4277L17.1713 48.418C16.7305 46.814 16.5705 45.073 16.4536 43.5557L16.4086 42.9004C16.314 41.3492 16.2855 39.6616 16.2036 38.2578L19.1987 38.083ZM19.7495 48.7842L18.7641 48.9697L18.3881 49.04L19.7475 48.7842H19.7495ZM16.0522 26C16.0522 25.1716 16.7238 24.5001 17.5522 24.5C18.3806 24.5 19.0522 25.1716 19.0522 26C19.0522 27.1355 19.0379 28.2674 19.0248 29.3887C19.0117 30.5132 18.9994 31.6283 19.0024 32.7461C19.0059 34.0713 19.0557 35.3961 19.1245 36.7363L19.1987 38.083L16.2036 38.2578C16.0974 36.441 16.0073 34.6069 16.0024 32.7539C15.9994 31.6118 16.0127 30.4765 16.0258 29.3535C16.039 28.2274 16.0522 27.1144 16.0522 26Z" fill="#E24C0C"/>
<path d="M32.299 38.2578C32.2053 39.8621 32.1818 41.837 32.049 43.5557C31.9321 45.0728 31.7718 46.8132 31.3312 48.417L31.007 48.3271V48.3281L31.3312 48.417L31.3283 48.4287L31.2921 48.6621C31.2788 48.7783 31.2555 49.0243 31.213 49.249C31.1831 49.4075 31.1301 49.579 31.1125 49.6348C31.1096 49.6438 31.0958 49.6887 31.0783 49.7354C31.0749 49.7443 31.0691 49.7593 31.0617 49.7773C31.0563 49.7904 31.04 49.8303 31.0158 49.8789C31.0046 49.9012 30.9781 49.9527 30.9386 50.0146C30.9362 50.0184 30.7986 50.2534 30.5275 50.4414C30.3891 50.5374 29.9615 50.799 29.3742 50.6797C28.7328 50.5493 28.4292 50.0815 28.3234 49.8633C28.2186 49.6471 28.1921 49.4589 28.1837 49.3896C28.173 49.3007 28.1724 49.2288 28.173 49.1885C28.1748 49.0557 28.1955 48.9505 28.1964 48.9453C28.202 48.9144 28.2074 48.8899 28.2101 48.8779C28.2158 48.8528 28.2205 48.8319 28.2228 48.8232C28.2338 48.7814 28.2509 48.7267 28.2677 48.6719C28.2815 48.5932 28.2898 48.5107 28.3117 48.3203C28.331 48.1521 28.3635 47.8872 28.4416 47.6113C28.7954 46.3181 28.9408 44.8424 29.0578 43.3242C29.1955 41.5431 29.192 39.9984 29.3039 38.083L32.299 38.2578ZM29.9386 48.0352L30.8507 48.2852L29.8849 48.0195L29.9386 48.0352ZM29.4503 26C29.4503 25.1716 30.1219 24.5 30.9503 24.5C31.7787 24.5001 32.4503 25.1716 32.4503 26C32.4503 27.1144 32.4635 28.2274 32.4767 29.3535C32.4898 30.4765 32.5031 31.6118 32.5001 32.7539C32.4952 34.6069 32.4053 36.4409 32.299 38.2578L29.3039 38.083V38.082L29.3781 36.7363C29.4469 35.3961 29.4966 34.0713 29.5001 32.7461C29.5031 31.6282 29.4908 30.5132 29.4777 29.3887C29.4646 28.2674 29.4503 27.1355 29.4503 26Z" fill="#E24C0C"/>
<path fill-rule="evenodd" clip-rule="evenodd" d="M21.3443 38.3702C21.6637 38.1064 22.1364 38.1516 22.4001 38.471C23.1647 39.3969 24.5729 39.431 25.3811 38.543L25.4711 38.444C25.7497 38.1375 26.224 38.1149 26.5305 38.3936C26.837 38.6722 26.8596 39.1465 26.581 39.453L26.491 39.552C25.0682 41.1158 22.5893 41.056 21.2435 39.426C20.9797 39.1066 21.0249 38.6339 21.3443 38.3702Z" fill="#1A1A1A"/>
<path d="M27.8275 36.0251C28.3881 36.0251 28.8425 36.4617 28.8425 37.0001C28.8425 37.5386 28.3881 37.9751 27.8275 37.9751C27.2669 37.9751 26.8125 37.5386 26.8125 37.0001C26.8125 36.4617 27.2669 36.0251 27.8275 36.0251Z" fill="#1A1A1A"/>
<path d="M19.827 36.0251C19.2664 36.0251 18.812 36.4617 18.812 37.0001C18.812 37.5386 19.2664 37.9751 19.827 37.9751C20.3876 37.9751 20.842 37.5386 20.842 37.0001C20.842 36.4617 20.3876 36.0251 19.827 36.0251Z" fill="#1A1A1A"/>
</svg>
