<svg width="48" height="55" viewBox="0 0 48 55" fill="none" xmlns="http://www.w3.org/2000/svg">
<path fill-rule="evenodd" clip-rule="evenodd" d="M5.36011 20.8201C4.822 20.8201 4.38037 21.24 4.36077 21.78L4.00049 31.6599L4.36176 42.4399C4.38051 42.9999 4.85435 43.4299 5.41308 43.3999L16.7292 42.8201L19.0488 42.9399L19 44.3401L19.3591 53.8501C19.3794 54.3901 19.8208 54.8201 20.3584 54.8201H31.7287L43.1067 54.3101C43.6411 54.2801 44.0621 53.8401 44.0621 53.3101V35.0801C44.0621 34.5501 43.6409 34.1101 43.1064 34.0801L31.7287 33.5801L29.0626 33.4399V22.3401C29.0626 21.8101 28.6425 21.3701 28.1088 21.3401L16.7292 20.8201H5.36011Z" fill="#F24822"/>
<path d="M20.3589 54.8201L20.2593 54.8152C19.7689 54.7663 19.3799 54.3588 19.3589 53.8542L20.3589 53.8181V54.8201Z" fill="#1A1A1A"/>
<path fill-rule="evenodd" clip-rule="evenodd" d="M44.0571 53.408C44.0091 53.8932 43.6079 54.2821 43.1069 54.3103L31.729 54.8201H20.3589V53.8181L19.3589 53.8542C19.3588 53.8529 19.3589 53.8516 19.3589 53.8503L18.9995 44.3406L19.0483 42.9402L16.729 42.8201L5.4126 43.4001C4.88913 43.428 4.4403 43.0519 4.37061 42.5437L4.36182 42.4402L4.00049 31.6599L4.36084 21.78C4.38044 21.2401 4.82186 20.8202 5.35986 20.8201H16.729L28.1079 21.3396C28.6416 21.3696 29.063 21.8106 29.063 22.3406V33.4402L31.729 33.5798L43.106 34.0798C43.6404 34.1098 44.0619 34.5499 44.062 35.0798V53.3103L44.0571 53.408ZM27.563 33.4402V22.8181L16.729 22.3132V22.3201H5.84229L5.50146 31.6599L5.84326 41.8826L16.6519 41.3201H16.8071L16.729 42.8123V42.8152L16.8071 41.3201L19.1265 41.4402L19.2778 41.4548C20.0205 41.5667 20.575 42.2213 20.5483 42.99L20.5005 44.3552L20.8394 53.3201H31.6616L42.562 52.8308V35.5583L31.6626 35.0798H31.6538L28.9878 34.9402C28.1897 34.9002 27.5631 34.2401 27.563 33.4402Z" fill="#1A1A1A"/>
<path d="M37.4398 43.0174C37.7352 42.7273 38.2101 42.7318 38.5003 43.0272C38.7904 43.3226 38.7859 43.7975 38.4905 44.0877L38.3685 44.2078L38.3665 44.2088L37.8431 43.6727L37.7835 43.6121L38.3665 44.2088C36.6863 45.8492 33.9845 45.7841 32.386 44.0633C32.1041 43.7598 32.1216 43.2846 32.4251 43.0027C32.7286 42.7208 33.2037 42.7383 33.4856 43.0418C34.5104 44.145 36.2417 44.187 37.3187 43.1356V43.1365L37.4398 43.0174Z" fill="#1A1A1A"/>
<path d="M34.0545 39.8149C33.4718 39.8149 32.9995 40.2738 32.9995 40.8399C32.9995 41.406 33.4718 41.8649 34.0545 41.8649C34.6372 41.8649 35.1095 41.406 35.1095 40.8399C35.1095 40.2738 34.6372 39.8149 34.0545 39.8149Z" fill="#1A1A1A"/>
<path d="M39.0521 39.8149C39.6347 39.8149 40.1071 40.2738 40.1071 40.8399C40.1071 41.406 39.6347 41.8649 39.0521 41.8649C38.4694 41.8649 37.9971 41.406 37.9971 40.8399C37.9971 40.2738 38.4694 39.8149 39.0521 39.8149Z" fill="#1A1A1A"/>
<path fill-rule="evenodd" clip-rule="evenodd" d="M9.53452 29.0062C9.86457 28.7424 10.3531 28.7876 10.6256 29.107C11.4156 30.0329 12.8708 30.067 13.7059 29.179L13.7989 29.08C14.0868 28.7735 14.5769 28.7509 14.8936 29.0295C15.2104 29.3082 15.2337 29.7825 14.9458 30.089L14.8528 30.188C13.3825 31.7518 10.821 31.692 9.43033 30.062C9.15782 29.7426 9.20446 29.2699 9.53452 29.0062Z" fill="#1A1A1A"/>
<path d="M9.05451 25.8147C8.47185 25.8147 7.99951 26.2736 7.99951 26.8397C7.99951 27.4058 8.47185 27.8647 9.05451 27.8647C9.63717 27.8647 10.1095 27.4058 10.1095 26.8397C10.1095 26.2736 9.63717 25.8147 9.05451 25.8147Z" fill="#1A1A1A"/>
<path d="M14.0526 25.8147C14.6352 25.8147 15.1076 26.2736 15.1076 26.8397C15.1076 27.4058 14.6352 27.8647 14.0526 27.8647C13.4699 27.8647 12.9976 27.4058 12.9976 26.8397C12.9976 26.2736 13.4699 25.8147 14.0526 25.8147Z" fill="#1A1A1A"/>
</svg>
