<svg width="24" height="24" viewBox="0 0 24 24" fill="none" xmlns="http://www.w3.org/2000/svg">
<path d="M19.2768 8.10772C19.4828 7.74858 19.9409 7.62463 20.3003 7.83037C20.6594 8.0363 20.7843 8.49448 20.5786 8.85381L13.519 21.1829C12.8468 22.3567 11.1531 22.3568 10.4809 21.1829L3.42234 8.85381L3.38718 8.78545C3.23236 8.43825 3.36291 8.02353 3.69968 7.83037C4.03662 7.63745 4.46082 7.73426 4.6821 8.04326L4.72312 8.10772L11.7827 20.4378C11.8787 20.6052 12.1212 20.6052 12.2173 20.4378L19.2768 8.10772Z" fill="black"/>
<path d="M12.1939 2.24561C15.6797 2.24562 18.0582 2.82212 19.6422 3.4878L19.9303 3.6128C20.5784 3.90724 21.0734 4.21037 21.44 4.47803L21.7213 4.6958C21.8046 4.7643 21.8779 4.82892 21.942 4.88819L22.1051 5.04834L22.1666 5.1128L22.1705 5.11768L22.2017 5.15186L22.2799 5.23975L22.2906 5.26319C22.9853 6.155 22.9893 7.45511 22.3053 8.34815L22.1539 8.52686C21.3108 9.42797 19.9648 9.46391 19.0826 8.63233L19.0699 8.62061L19.0582 8.60791L19.0025 8.5503L19.0045 8.55322L18.9078 8.47608C18.8076 8.40298 18.6217 8.28016 18.3297 8.13721L18.0006 7.98877C17.0265 7.57938 15.2193 7.08058 12.1939 7.08057C9.17192 7.08057 7.24553 7.57916 6.14217 8.01026C6.00955 8.06205 5.95499 8.07173 5.75839 8.16455C5.56852 8.25422 5.26766 8.41429 4.79549 8.71729C4.13173 9.1432 3.47321 9.21252 2.91366 9.08252C2.38224 8.959 1.97199 8.66434 1.73592 8.39795L1.71932 8.3794L1.70467 8.35987C0.968279 7.40881 1.02059 6.00919 1.82577 5.12549L1.8453 5.08155L1.96835 4.97803C1.97238 4.97429 1.97717 4.96976 1.98202 4.96533L2.04159 4.9126L2.20663 4.7749L2.43514 4.60303C2.52183 4.54103 2.61978 4.47468 2.72811 4.40479L3.08846 4.18506C3.48384 3.95683 3.98386 3.70752 4.60116 3.46631L4.92049 3.34619C6.56143 2.75212 8.92274 2.24561 12.1939 2.24561ZM12.1939 3.74561C9.07965 3.74561 6.89256 4.22687 5.43026 4.75635L5.14706 4.8628C4.60097 5.07617 4.1692 5.29298 3.83846 5.48389L3.54061 5.66553C3.45222 5.72256 3.37506 5.7759 3.30819 5.82373L3.13827 5.95069L3.02792 6.04346L2.99374 6.07276L2.99276 6.07373L2.99081 6.07471L2.98495 6.07959C2.98278 6.0817 2.98118 6.08548 2.97811 6.08838L2.97225 6.09229C2.96991 6.09451 2.96779 6.09694 2.96542 6.09912C2.63617 6.42294 2.58438 7.01753 2.87264 7.41651C2.93323 7.47762 3.07005 7.57906 3.25253 7.62158C3.42168 7.6609 3.6661 7.6608 3.98592 7.45557C4.49715 7.1275 4.85553 6.93237 5.11874 6.80811C5.37388 6.68766 5.5664 6.62437 5.59628 6.6128C6.89033 6.10719 9.00399 5.58057 12.1939 5.58057C15.3845 5.58058 17.3944 6.10701 18.5816 6.60596L18.9889 6.79053C19.359 6.97172 19.6209 7.13884 19.7926 7.26416L19.9371 7.37647C19.9755 7.40826 20.0035 7.43461 20.023 7.45264L20.0348 7.46338L20.0367 7.4624L20.1148 7.54248C20.3917 7.80113 20.7828 7.79674 21.0582 7.50244L21.1168 7.43311C21.3734 7.09402 21.3838 6.57521 21.1363 6.22119L21.0797 6.14795L21.0787 6.14697L21.0592 6.12549L21.0269 6.09033L20.9234 5.98975C20.8809 5.95042 20.8293 5.90523 20.7682 5.85498L20.5553 5.68994C20.3128 5.51292 19.9797 5.30223 19.5387 5.08643L19.0611 4.87061C17.6901 4.29441 15.5142 3.74562 12.1939 3.74561Z" fill="black"/>
<mask id="mask0_53532_1206" style="mask-type:alpha" maskUnits="userSpaceOnUse" x="4" y="5" width="16" height="16">
<path d="M11.1323 20.1755L4.07275 7.84629L12.0001 5.92529L19.9274 7.84629L12.8679 20.1755C12.4838 20.8463 11.5164 20.8463 11.1323 20.1755Z" fill="#1A1A1A"/>
</mask>
<g mask="url(#mask0_53532_1206)">
<path d="M10.7864 15.7974C10.7864 15.1131 10.2314 14.5582 9.54712 14.5581C8.8628 14.5581 8.30786 15.1131 8.30786 15.7974C8.30796 16.4816 8.86286 17.0367 9.54712 17.0367C10.2313 17.0366 10.7863 16.4816 10.7864 15.7974ZM12.2864 15.7974C12.2863 17.31 11.0597 18.5366 9.54712 18.5367C8.03443 18.5367 6.80796 17.3101 6.80786 15.7974C6.80786 14.2847 8.03437 13.0581 9.54712 13.0581C11.0598 13.0582 12.2864 14.2847 12.2864 15.7974Z" fill="black"/>
<path d="M11.2505 7.91455C11.2505 7.23029 10.6955 6.67539 10.0112 6.67529C9.32691 6.67529 8.77197 7.23023 8.77197 7.91455C8.77207 8.59879 9.32697 9.15381 10.0112 9.15381C10.6954 9.15371 11.2504 8.59872 11.2505 7.91455ZM12.7505 7.91455C12.7504 9.42715 11.5238 10.6537 10.0112 10.6538C8.49854 10.6538 7.27207 9.42721 7.27197 7.91455C7.27197 6.4018 8.49848 5.17529 10.0112 5.17529C11.5239 5.17539 12.7505 6.40186 12.7505 7.91455Z" fill="black"/>
<path d="M17.2744 12.2969C17.2744 11.6126 16.7194 11.0577 16.0352 11.0576C15.3508 11.0576 14.7959 11.6125 14.7959 12.2969C14.796 12.9811 15.3509 13.5361 16.0352 13.5361C16.7193 13.536 17.2743 12.981 17.2744 12.2969ZM18.7744 12.2969C18.7743 13.8095 17.5478 15.036 16.0352 15.0361C14.5225 15.0361 13.296 13.8095 13.2959 12.2969C13.2959 10.7841 14.5224 9.55762 16.0352 9.55762C17.5478 9.55771 18.7744 10.7842 18.7744 12.2969Z" fill="black"/>
</g>
</svg>
