<svg width="48" height="55" viewBox="0 0 48 55" fill="none" xmlns="http://www.w3.org/2000/svg">
<path d="M11.638 23.22C12.8182 19.88 22.1297 18.19 26.638 17.77C27.1656 18.41 28.221 20.32 28.221 22.77C28.221 25.83 37.6974 24.59 38.28 26.77C38.7461 28.51 37.3795 30.16 36.6379 30.77C37.9121 30.92 40.6175 31.8 41.2462 34.15C41.8749 36.5 40.9063 38.87 40.3434 39.77C41.6331 40.95 44.2123 41.53 44.2123 44.77C44.2123 47.36 42.1018 51.8201 36.0877 53.4301C31.2763 54.7201 26.4498 53.53 24.6379 52.77C18.5024 53.52 5.84256 53.57 4.28716 47.77C2.73177 41.96 7.87298 38.02 10.638 36.77C9.30468 36.62 6.63801 35.61 6.63801 32.77C6.63801 29.93 9.97131 28.92 11.638 28.77C11.1462 28.31 10.4577 26.57 11.638 23.22Z" fill="#F24822"/>
<path d="M11.4414 27.7798C12.3624 28.9898 14.6861 31.0005 17.2275 32.0405C18.125 32.4007 18.5098 33.9305 17.7256 34.5005L14.8076 36.6196C13.3929 38.1395 10.5638 41.7095 10.5635 43.8296C10.5635 51.1396 24.833 47.7805 24.833 51.0005C24.8324 53.38 20.7249 53.32 19.0762 53.52L8.05176 51.73L4 47.9204L4.89355 41.4204L10.1377 37.1304L6.97949 34.6899V30.8101L12.0488 28.73L11.4414 27.7798ZM39.9814 31.7104L41.6885 34.0405L41.3496 38.98C41.1186 39.1998 40.0138 39.2406 38.1865 40.3003C35.9018 41.6103 30.0002 41.72 30 39.6802C30 37.6402 38.4389 38.13 38.4395 35.8003C38.4395 33.9404 37.3838 31.6701 36.8555 30.77L39.9814 31.7104Z" fill="#BD2915"/>
<path d="M27.4707 22.77C27.4707 22.1644 27.497 21.5198 27.5029 21.021C27.5093 20.4867 27.4958 20.0433 27.4336 19.6743C27.372 19.3092 27.27 19.0661 27.1358 18.8979C27.0204 18.7536 26.8432 18.6182 26.5322 18.521C23.9784 18.5349 20.6533 19.047 17.8233 19.9565C16.3894 20.4174 15.1129 20.971 14.1377 21.5923C13.1468 22.2236 12.5581 22.866 12.3447 23.4683C11.7825 25.064 11.6841 26.2273 11.7578 27.0083C11.8339 27.8136 12.0854 28.1613 12.1504 28.2222C12.3663 28.4241 12.4438 28.7346 12.3477 29.0142C12.2515 29.2937 11.9995 29.4906 11.7051 29.5171C10.9513 29.585 9.8187 29.8512 8.89942 30.4038C7.99484 30.9476 7.3877 31.7022 7.3877 32.77C7.3877 33.9151 7.91047 34.6694 8.58888 35.1792C9.29357 35.7087 10.1586 35.9615 10.7217 36.0249C11.0571 36.0626 11.3262 36.3195 11.3789 36.6528C11.4315 36.9863 11.2548 37.3145 10.9473 37.4536L10.6973 37.5708C9.4197 38.1947 7.69842 39.3766 6.43653 41.0171C5.10537 42.7477 4.30871 44.9492 5.01173 47.5757C5.32836 48.7564 6.2207 49.7011 7.61231 50.4419C9.00818 51.1849 10.8352 51.6818 12.8565 51.9849C16.8947 52.5904 21.5214 52.3957 24.5469 52.0259L24.6445 52.02C24.7416 52.0209 24.8377 52.0409 24.9277 52.0786C26.6337 52.7942 31.2862 53.9409 35.8936 52.7056C41.5893 51.1808 43.4619 47.0106 43.4619 44.77C43.4619 43.4012 42.939 42.6434 42.2705 42.0649C41.9148 41.7571 41.5172 41.5 41.0879 41.2251C40.7301 40.996 40.3315 40.7428 39.9834 40.4507L39.8369 40.3237L39.7471 40.2251C39.5604 39.9807 39.5401 39.641 39.708 39.3726C40.212 38.5668 41.0755 36.4156 40.5215 34.3442C40.2749 33.4226 39.6147 32.7534 38.8067 32.2827C37.9944 31.8097 37.1008 31.58 36.5498 31.5151C36.2514 31.4799 36.0026 31.2693 35.918 30.981C35.8335 30.6927 35.9293 30.3818 36.1611 30.1909C36.4667 29.9396 36.9265 29.4489 37.25 28.8413C37.5726 28.2355 37.7227 27.5883 37.5557 26.9644V26.9634C37.5544 26.9586 37.5296 26.876 37.3076 26.7485C37.0823 26.6192 36.7429 26.4969 36.2842 26.3843C35.3619 26.1579 34.1812 26.0195 32.9268 25.8423C31.716 25.6712 30.4295 25.4626 29.4395 25.0786C28.4815 24.707 27.4707 24.0324 27.4707 22.77ZM28.9707 22.77C28.9707 23.0376 29.1454 23.3555 29.9824 23.6802C30.7873 23.9923 31.906 24.183 33.1367 24.3569C34.3243 24.5247 35.6232 24.6773 36.6416 24.9272C37.1528 25.0527 37.6495 25.2149 38.0537 25.4468C38.4561 25.6777 38.8595 26.0325 39.0049 26.5757L39.0537 26.7847C39.2654 27.8221 38.9768 28.7903 38.5742 29.5464C38.4234 29.8297 38.2501 30.0913 38.0723 30.3286C38.5528 30.4836 39.0668 30.6986 39.5615 30.9868C40.5819 31.5812 41.5886 32.5282 41.9707 33.9565C42.561 36.1632 41.8982 38.3412 41.3027 39.5718C41.478 39.6939 41.6755 39.8199 41.8965 39.9614C42.3134 40.2283 42.8018 40.5407 43.252 40.9302C44.1955 41.7467 44.9619 42.8989 44.9619 44.77C44.9619 47.7094 42.6137 52.4586 36.2813 54.1538L36.2822 54.1548C31.4232 55.4575 26.5786 54.3381 24.5371 53.5356C21.4251 53.9009 16.7625 54.0874 12.6338 53.4683C10.5289 53.1526 8.51519 52.6214 6.90821 51.7661C5.29704 50.9085 4.02356 49.6836 3.56251 47.9644C2.71032 44.7811 3.70635 42.1073 5.24806 40.103C6.26746 38.7778 7.53553 37.7281 8.70313 36.979C8.35916 36.819 8.01275 36.6228 7.68751 36.3784C6.69925 35.6357 5.8877 34.4649 5.8877 32.77C5.8877 30.9978 6.94822 29.8273 8.12696 29.1187C8.88412 28.6635 9.72742 28.3726 10.4756 28.2017C10.3754 27.8934 10.3017 27.5408 10.2647 27.1489C10.1664 26.1075 10.3128 24.7251 10.9307 22.9712V22.9702C11.3078 21.9029 12.2283 21.0298 13.332 20.3267C14.4522 19.6131 15.859 19.0129 17.3652 18.5288C20.3765 17.5611 23.9083 17.0201 26.6377 17.02C26.7031 17.02 26.7689 17.0285 26.832 17.0454C27.4564 17.2124 27.9508 17.5156 28.3076 17.9624C28.656 18.3986 28.8258 18.9132 28.9121 19.4253C28.9979 19.9338 29.0085 20.4885 29.002 21.0386C28.995 21.6241 28.9707 22.1507 28.9707 22.77Z" fill="#1A1A1A"/>
<path d="M27.6186 35.9539C27.9309 35.7353 28.3493 35.8299 28.5528 36.1654C28.7562 36.5008 28.6681 36.9493 28.356 37.1679L28.1204 37.3322C25.8037 38.9754 22.7822 38.8994 20.539 37.1472C20.2377 36.9116 20.1712 36.458 20.3904 36.1342C20.6097 35.8106 21.0321 35.7393 21.3335 35.9747C23.1232 37.3726 25.5339 37.4328 27.3804 36.121L27.3839 36.1182L27.6186 35.9539Z" fill="#1A1A1A"/>
<path d="M30.6492 32.7729C31.5577 32.7729 32.2942 33.5094 32.2942 34.4179C32.2942 35.3265 31.5577 36.0629 30.6492 36.0629C29.7406 36.0629 29.0042 35.3265 29.0042 34.4179C29.0042 33.5094 29.7406 32.773 30.6492 32.7729Z" fill="#1A1A1A"/>
<path d="M17.6452 32.7734C16.7367 32.7734 16.0002 33.5099 16.0002 34.4184C16.0002 35.327 16.7367 36.0634 17.6452 36.0634C18.5538 36.0634 19.2902 35.3269 19.2902 34.4184C19.2902 33.5099 18.5538 32.7734 17.6452 32.7734Z" fill="#1A1A1A"/>
</svg>
