<svg width="48" height="55" viewBox="0 0 48 55" fill="none" xmlns="http://www.w3.org/2000/svg">
<path d="M11.138 22.72C12.318 19.38 21.63 17.69 26.138 17.27C26.666 17.91 27.721 19.82 27.721 22.27C27.721 25.33 37.197 24.09 37.78 26.27C38.246 28.01 36.88 29.66 36.138 30.27C37.412 30.42 40.117 31.3 40.746 33.65C41.375 36 40.406 38.37 39.843 39.27C41.133 40.45 43.712 41.03 43.712 44.27C43.712 46.86 41.602 51.3201 35.588 52.9301C30.776 54.2201 25.95 53.03 24.138 52.27C18.002 53.02 5.34304 53.07 3.78704 47.27C2.23204 41.46 7.37304 37.52 10.138 36.27C8.80504 36.12 6.13804 35.11 6.13804 32.27C6.13804 29.43 9.47104 28.42 11.138 28.27C10.646 27.81 9.95804 26.07 11.138 22.72Z" fill="#9FC1AA"/>
<path d="M10.9424 27.2798C11.8624 28.4898 14.1857 30.5005 16.7266 31.5405C17.6246 31.9005 18.0086 33.4305 17.2246 34.0005L14.3076 36.1196C12.8927 37.6395 10.0638 41.2095 10.0635 43.3296C10.0635 50.6396 24.333 47.2805 24.333 50.5005C24.3324 52.8799 20.2251 52.8201 18.5771 53.02L7.55176 51.23L3.5 47.4204L4.39355 40.9204L9.6377 36.6304L6.48047 34.1899V30.3101L11.5488 28.23L10.9424 27.2798ZM39.4814 31.2202L41.1885 33.5405L40.8496 38.48C40.6182 38.6998 39.513 38.7406 37.6855 39.8003C35.4003 41.11 29.5002 41.2199 29.5 39.1802C29.5 37.1402 37.9398 37.63 37.9404 35.3003C37.9404 33.4404 36.8835 31.1702 36.3555 30.27L39.4814 31.2202Z" fill="#678E79"/>
<path d="M42.9618 44.27C42.9618 42.9012 42.4388 42.1434 41.7704 41.5649C41.4146 41.2571 41.0162 41 40.5868 40.7251C40.178 40.4633 39.716 40.1705 39.3368 39.8237C39.0699 39.5795 39.0152 39.1793 39.2069 38.8726C39.711 38.0668 40.5757 35.9155 40.0214 33.8442C39.7747 32.9225 39.1145 32.2534 38.3065 31.7827C37.4946 31.3097 36.6016 31.0801 36.0507 31.0151C35.7521 30.98 35.5025 30.7694 35.4179 30.481C35.3334 30.1926 35.4299 29.8818 35.662 29.6909C35.9676 29.4397 36.4265 28.9488 36.7499 28.3413C37.0724 27.7355 37.2226 27.0884 37.0556 26.4644C37.0539 26.4583 37.0278 26.375 36.8075 26.2485C36.5821 26.1192 36.242 25.9969 35.7831 25.8843C34.8608 25.658 33.6809 25.5195 32.4267 25.3423C31.2159 25.1712 29.9294 24.9626 28.9394 24.5786C27.9814 24.207 26.9706 23.5324 26.9706 22.27C26.9706 21.6645 26.9969 21.0198 27.0028 20.521C27.0092 19.9867 26.9957 19.5433 26.9335 19.1743C26.8719 18.8092 26.7699 18.5661 26.6357 18.3979C26.5203 18.2536 26.343 18.1182 26.0321 18.021C23.4782 18.0349 20.1532 18.547 17.3232 19.4565C15.8893 19.9174 14.6128 20.471 13.6376 21.0923C12.6467 21.7236 12.0579 22.366 11.8446 22.9683C11.2825 24.564 11.184 25.7273 11.2577 26.5083C11.3337 27.3138 11.5854 27.6615 11.6503 27.7222C11.8662 27.9241 11.9437 28.2345 11.8476 28.5142C11.7514 28.7937 11.4994 28.9906 11.205 29.0171L10.9062 29.0522C10.1717 29.1562 9.20379 29.4202 8.39932 29.9038C7.4948 30.4476 6.8876 31.2022 6.8876 32.27C6.8876 33.4151 7.41031 34.1694 8.08878 34.6792C8.79352 35.2087 9.65862 35.4615 10.2216 35.5249C10.557 35.5626 10.8261 35.8195 10.8788 36.1528C10.9314 36.4863 10.7547 36.8145 10.4472 36.9536L10.1972 37.0708C8.91972 37.6947 7.19926 38.8768 5.93741 40.5171C4.60622 42.2477 3.80879 44.4492 4.51163 47.0757C4.82843 48.2565 5.72147 49.2011 7.11319 49.9419C8.50901 50.6848 10.3354 51.1818 12.3564 51.4849C16.3945 52.0904 21.021 51.8957 24.0468 51.5259L24.1444 51.52C24.2415 51.5209 24.3376 51.5409 24.4276 51.5786C26.1336 52.2942 30.7856 53.4408 35.3935 52.2056L35.7821 53.6548C30.9225 54.9575 26.0785 53.8381 24.037 53.0356C20.9248 53.4008 16.2623 53.5874 12.1337 52.9683C10.0288 52.6526 8.01512 52.1214 6.40811 51.2661C4.89754 50.4621 3.68385 49.3351 3.15811 47.7808L3.06241 47.4644C2.21044 44.2811 3.20629 41.6073 4.74796 39.603C5.76734 38.2778 7.03546 37.2281 8.20303 36.479C7.85908 36.319 7.51264 36.1228 7.18741 35.8784C6.19914 35.1358 5.3876 33.9649 5.3876 32.27C5.3876 30.498 6.44733 29.3274 7.62589 28.6187C8.38311 28.1634 9.22718 27.8726 9.97549 27.7017C9.8753 27.3934 9.80154 27.0408 9.76456 26.6489C9.66632 25.6075 9.81282 24.2251 10.4306 22.4712C10.8077 21.4039 11.7282 20.5298 12.8319 19.8267C13.9519 19.1132 15.3581 18.5129 16.8642 18.0288C19.8755 17.061 23.4081 16.5201 26.1376 16.52C26.203 16.52 26.2687 16.5285 26.3319 16.5454C26.9563 16.7124 27.4507 17.0156 27.8075 17.4624C28.1558 17.8986 28.3256 18.4132 28.412 18.9253C28.4978 19.4338 28.5084 19.9885 28.5019 20.5386C28.4949 21.1242 28.4706 21.6506 28.4706 22.27C28.4706 22.5376 28.6454 22.8555 29.4823 23.1802C30.2872 23.4923 31.4058 23.683 32.6366 23.8569C33.8239 24.0247 35.1222 24.1774 36.1405 24.4272C36.6519 24.5527 37.1493 24.7148 37.5536 24.9468C37.9561 25.1777 38.3593 25.5325 38.5048 26.0757L38.5536 26.2847C38.7652 27.3221 38.4767 28.2903 38.0741 29.0464C37.9233 29.3297 37.7501 29.5913 37.5722 29.8286C38.0527 29.9836 38.5667 30.1986 39.0614 30.4868C40.0817 31.0812 41.0883 32.0283 41.4706 33.4565C42.061 35.6629 41.3971 37.8401 40.8017 39.0708C40.9772 39.1931 41.175 39.3197 41.3964 39.4614C41.8133 39.7284 42.3017 40.0406 42.7519 40.4302C43.6954 41.2467 44.4618 42.3989 44.4618 44.27C44.4618 47.2093 42.1144 51.9595 35.7821 53.6548L35.3935 52.2056C41.0888 50.6807 42.9618 46.5106 42.9618 44.27Z" fill="#1A1A1A"/>
<path d="M27.119 35.2542C27.4314 35.0356 27.8498 35.1302 28.0533 35.4657C28.2567 35.801 28.1685 36.2496 27.8564 36.4682L27.6209 36.6325C25.3042 38.2757 22.2827 38.1997 20.0394 36.4475C19.7381 36.2119 19.6717 35.7583 19.8909 35.4345C20.1102 35.1109 20.5326 35.0395 20.834 35.275C22.6237 36.6729 25.0344 36.7331 26.8809 35.4213L26.8844 35.4185L27.119 35.2542Z" fill="#1A1A1A"/>
<path d="M17.145 32.2754C16.2365 32.2754 15.5 33.0119 15.5 33.9204C15.5 34.8289 16.2365 35.5654 17.145 35.5654C18.0535 35.5654 18.79 34.8289 18.79 33.9204C18.79 33.0119 18.0535 32.2754 17.145 32.2754Z" fill="#1A1A1A"/>
<path d="M30.1489 32.2749C31.0574 32.2749 31.7939 33.0114 31.7939 33.9199C31.7939 34.8284 31.0574 35.5649 30.1489 35.5649C29.2404 35.5649 28.5039 34.8284 28.5039 33.9199C28.5039 33.0114 29.2404 32.2749 30.1489 32.2749Z" fill="#1A1A1A"/>
</svg>
