<svg width="48" height="55" viewBox="0 0 48 55" fill="none" xmlns="http://www.w3.org/2000/svg">
<path d="M9.95429 36.4546L11.5002 37.9995L11.8195 42.7554L13.4523 47.7554L15.1711 49.8179C14.0409 50.2027 12.8729 50.2527 11.7629 49.897C8.18716 48.7508 6.56652 43.8321 8.14374 38.9106C8.46319 37.9139 8.89051 36.9941 9.39667 36.1694L9.95429 36.4546Z" fill="#864E37"/>
<path d="M37.4521 49.255L40.4521 44.255L43.4521 40.755L45.4521 37.255V34.04L41.4521 36.255L38.9521 32.755L34.452 29.255L31.2168 28.358L25.1885 26.102L23.4918 23.749L21.4999 18L18.9999 14.5L12.4999 19.5L7.99992 21.5L5.99994 24.5L9.49992 36L11.4999 38L11.8193 42.755L13.4521 47.755L15.9521 50.755L20.9521 52.755L24.4545 53.317L28.4999 53.5L32.9521 52.255L37.4521 49.255Z" fill="#FF5C16"/>
<path d="M17.6029 25.941C19.827 29.335 10.2268 32.477 11.749 36.934C11.8096 37.111 11.617 37.304 11.4499 37.219L7.30696 35.102C7.09591 34.995 6.93001 34.815 6.83885 34.597L4.62172 29.275C4.53028 29.056 4.52002 28.811 4.59277 28.585L5.81348 24.787C5.91734 24.464 6.17797 24.216 6.50569 24.128L6.98005 24L8.13173 23.835C9.68881 23.613 11.2702 23.621 12.8249 23.859C14.5958 24.131 16.6209 24.443 17.6029 25.941Z" fill="#412B21"/>
<path d="M11.2644 32.9211C9.25716 33.7931 5.23035 33.5731 4.00344 32.8591C2.19654 31.8091 4.27298 30.4021 5.48039 29.9671C7.62073 29.0371 9.85691 29.0601 10.7075 29.1871C12.4237 30.4581 11.7939 32.2061 11.2644 32.9211Z" fill="#FF5C16"/>
<path d="M15.2048 25C15.8704 25 16.4098 25.5395 16.4098 26.205C16.4098 26.8705 15.8704 27.41 15.2048 27.41C14.5393 27.41 13.9998 26.8705 13.9998 26.205C13.9998 25.5395 14.5393 25 15.2048 25Z" fill="#1A1A1A"/>
<path d="M8.20469 25C7.53919 25 6.99969 25.5395 6.99969 26.205C6.99969 26.8705 7.53919 27.41 8.20469 27.41C8.8702 27.41 9.40969 26.8705 9.40969 26.205C9.40969 25.5395 8.8702 25 8.20469 25Z" fill="#1A1A1A"/>
<path d="M35.5589 49.1702C26.141 48.2242 22.9392 38.9572 22.4695 33.7862C22.432 33.3722 22.6743 32.9882 23.0613 32.8372C26.1654 31.6312 28.6081 31.7502 30.7393 32.2662C33.0046 32.8142 35.1089 34.0392 36.46 35.9382C39.1111 39.6642 40.4909 44.7752 41.0877 47.8472C41.1754 48.2982 40.9323 48.7472 40.4859 48.8562C38.8863 49.2482 36.3893 49.2662 35.5589 49.1702Z" fill="#864E37"/>
<path d="M18.9778 13.2508C19.184 13.2448 19.3836 13.3247 19.5295 13.4705C21.1744 15.1155 21.8066 17.0157 22.4514 19.1004C23.0752 21.1173 23.7315 23.387 25.2756 26.0916C26.9021 26.3024 29.8026 26.8621 32.76 28.2078C35.8851 29.63 39.1386 31.9596 40.967 35.7371C41.3622 35.8725 41.6182 35.9247 41.927 35.8533C42.3287 35.7603 42.9495 35.4194 43.9573 34.3289C44.3537 33.8998 44.9328 33.6839 45.4836 33.7889C45.7645 33.8426 46.0425 33.9826 46.2532 34.2264C46.4658 34.4727 46.5734 34.7821 46.5862 35.1072C46.6853 37.6537 44.9602 41.2249 41.009 44.283C41.3696 45.5604 41.6365 46.7363 41.8244 47.7039L41.8459 47.8514C41.922 48.5934 41.5018 49.3801 40.6643 49.5848L40.3293 49.659C39.6032 49.807 38.7712 49.8884 38.0051 49.9305C37.7402 50.2704 37.4429 50.6076 37.1028 50.9324C34.8548 53.0783 30.9984 54.6847 24.2854 54.6883C22.3402 54.6892 20.3701 54.3296 18.5774 53.4881L18.2209 53.3133C16.7668 52.5684 15.5362 51.7275 14.51 50.7654C13.5258 50.9591 12.5173 50.9274 11.5334 50.6121C9.46098 49.9477 8.01815 48.2081 7.30882 46.0555C6.59924 43.9014 6.59824 41.2766 7.42991 38.6815C7.67317 37.9225 7.9766 37.2035 8.32933 36.5321C8.30544 36.5151 8.28071 36.4994 8.25706 36.4822C7.31873 35.8015 6.58419 34.9763 6.00511 34.1414C5.738 34.1105 5.48051 34.074 5.23753 34.0291C4.62933 33.9168 4.04549 33.7506 3.6262 33.5067V33.5057C3.07142 33.183 2.64532 32.7335 2.5598 32.1297C2.47712 31.5441 2.75038 31.0476 3.03441 30.7039C3.3572 30.3137 3.81072 29.977 4.26487 29.7147C3.72457 25.5052 6.18443 21.9547 9.00413 20.1004L9.34007 19.8885C10.4833 19.1978 14.5398 17.8885 18.4387 13.5028C18.5758 13.3485 18.7715 13.257 18.9778 13.2508ZM18.9914 15.1131C15.31 18.9792 11.4568 20.4895 10.3147 21.0653L10.1155 21.1727C7.62464 22.678 5.48095 25.5979 5.71214 29.0672C7.8358 28.286 9.93489 28.3132 10.8186 28.4451C10.94 28.4633 11.0558 28.5107 11.1545 28.5838C12.2087 29.3646 12.5905 30.3493 12.5784 31.2723C12.5666 32.1479 12.2035 32.913 11.8674 33.367C11.7892 33.4725 11.6841 33.5558 11.5637 33.6082C10.5865 34.0328 9.25926 34.2122 7.99339 34.2352C8.33219 34.6077 8.71095 34.9586 9.13792 35.2684C10.3561 36.1519 11.995 36.7471 14.2463 36.5926C14.6595 36.5643 15.0178 36.8767 15.0461 37.2899C15.0738 37.7026 14.7617 38.0603 14.3489 38.0887C13.4567 38.1499 12.6364 38.1063 11.883 37.9813C11.7892 41.5699 12.1955 44.3238 13.2287 46.5135C14.3046 48.7932 16.0974 50.5403 18.9045 51.9783H18.9055C20.5418 52.817 22.4014 53.1892 24.2844 53.1883C30.6489 53.1849 34.0594 51.6891 35.9524 49.949C35.7662 49.94 35.6039 49.93 35.4729 49.9149C30.5019 49.4119 27.1655 46.7023 25.0334 43.4764C22.9134 40.2685 21.9662 36.5321 21.7229 33.8543C21.6549 33.1018 22.097 32.4086 22.7893 32.1385L22.7903 32.1375C26.0575 30.8683 28.6593 30.9905 30.9162 31.5369C33.3181 32.1181 35.5947 33.4273 37.0715 35.5028C38.6251 37.6863 39.7479 40.3121 40.5403 42.742C43.8184 40.0478 45.0864 37.1527 45.0891 35.3201L45.0588 35.3465C43.9874 36.5059 43.1123 37.1182 42.2659 37.3143C41.3953 37.5156 40.6904 37.2369 40.1662 37.0447C39.9781 36.9757 39.8246 36.8335 39.7414 36.6512C38.1454 33.1467 35.154 30.9452 32.1389 29.5731C29.1245 28.2014 26.1543 27.6912 24.7297 27.534C24.4951 27.508 24.2853 27.373 24.1653 27.1697C22.3882 24.1548 21.6633 21.6276 21.0188 19.5438C20.4617 17.7426 19.9777 16.3341 18.9914 15.1131ZM9.62718 37.2869C9.32885 37.8632 9.06922 38.4825 8.85862 39.1395C8.11314 41.4657 8.13352 43.7637 8.73362 45.5858C9.33414 47.4081 10.489 48.7017 11.9914 49.1834C12.3968 49.3133 12.816 49.3773 13.2424 49.3836C12.7069 48.6979 12.2506 47.9578 11.8713 47.1541C10.6616 44.5905 10.2631 41.4616 10.3948 37.6014C10.1288 37.5078 9.87332 37.4017 9.62718 37.2869ZM30.5637 32.9949C28.5586 32.5095 26.2734 32.3928 23.3332 33.535L23.3342 33.536C23.2527 33.5678 23.2102 33.6432 23.217 33.7186C23.4436 36.2118 24.3319 39.6948 26.2844 42.6492C28.2235 45.5832 31.1941 47.9776 35.634 48.4237L35.6457 48.4246C36.004 48.466 36.7904 48.4878 37.7004 48.4471C38.6088 48.4065 39.5776 48.3067 40.3078 48.1278C40.3175 48.1253 40.3232 48.1216 40.3254 48.1199C40.3283 48.1176 40.3329 48.1123 40.3381 48.1033C40.344 48.0931 40.3506 48.0784 40.3537 48.0594L40.3518 47.9901C39.7606 44.9471 38.4047 39.9651 35.8489 36.3729C34.6237 34.6509 32.6919 33.5099 30.5637 32.9949ZM10.4104 29.908C9.5447 29.821 7.61719 29.8558 5.77952 30.6541C5.76504 30.6604 5.74946 30.6663 5.7346 30.6717C5.19771 30.8652 4.5153 31.2664 4.18968 31.66C4.11587 31.7493 4.07718 31.8199 4.05882 31.867C4.05035 31.8889 4.0472 31.9044 4.04612 31.9119C4.04574 31.9149 4.04527 31.9176 4.04515 31.9188V31.9207C4.04544 31.9217 4.04636 31.9247 4.04808 31.9285C4.05159 31.9362 4.06037 31.9528 4.0803 31.9774C4.11182 32.0161 4.16923 32.0721 4.2678 32.1395L4.38109 32.2098C4.57526 32.3227 4.95559 32.4521 5.50999 32.5545C6.04666 32.6536 6.68819 32.7174 7.36058 32.7342C8.63005 32.7659 9.90683 32.6262 10.7678 32.3104C10.9262 32.0405 11.073 31.6554 11.0784 31.2518C11.0837 30.8404 10.9471 30.3632 10.4104 29.908Z" fill="#1A1A1A"/>
</svg>
