<svg width="48" height="55" viewBox="0 0 48 55" fill="none" xmlns="http://www.w3.org/2000/svg">
<path d="M10.6051 37.5889C10.8881 37.7959 11.0391 38.1344 11.0251 38.4844C10.8771 42.1414 12.2431 47.2111 14.0241 49.415C14.2304 49.3404 14.431 49.256 14.6286 49.168L15.1706 49.8184C14.0405 50.203 12.8732 50.2541 11.7633 49.8984C8.18745 48.7524 6.56704 43.8336 8.14419 38.9121C8.41626 38.0632 8.76704 37.2701 9.1774 36.5439L10.6051 37.5889Z" fill="#4A5878"/>
<path d="M37.452 49.2562L40.452 44.2562L43.452 40.7562L45.452 37.2562V34.0402L41.452 36.2562L38.952 32.7562L34.452 29.2562L31.217 28.3582L25.189 26.1032L23.492 23.7502L19.299 20.0332L17.746 20.7402L11.819 29.6902L11.117 35.0112L11.819 42.7562L13.452 47.7562L15.952 50.7562L20.952 52.7562L24.455 53.3172L28.5 54.0002L32.952 52.2562L37.452 49.2562Z" fill="#D2DAE4"/>
<path d="M14.258 19.8393L18.145 20.9043C18.254 20.9343 18.355 20.9803 18.447 21.0453C21.228 23.0073 26.075 27.5633 29.106 27.5633C23.408 32.2153 22.355 46.4003 14.024 49.4153C12.243 47.2113 10.877 42.1413 11.025 38.4843C11.039 38.1343 10.888 37.7963 10.605 37.5893L7.20498 35.1003C7.05798 34.9933 6.94298 34.8473 6.87298 34.6783L4.62197 29.2763C4.52997 29.0563 4.51998 28.8113 4.59298 28.5853L5.91899 24.4603C5.95899 24.3343 6.02398 24.2173 6.10998 24.1173L8.67198 21.1203C8.81498 20.9523 9.00899 20.8373 9.22499 20.7913L13.786 19.8253C13.942 19.7923 14.104 19.7973 14.258 19.8393Z" fill="#518394"/>
<path d="M11.264 32.9213C9.25698 33.7933 5.22997 33.5733 4.00297 32.8593C2.19697 31.8093 4.27296 30.4022 5.47996 29.9672C7.62096 29.0372 9.85697 29.0602 10.707 29.1882C12.424 30.4582 11.794 32.2063 11.264 32.9213Z" fill="#FFA629"/>
<path d="M15.2053 25.0005C15.8708 25.0005 16.4103 25.54 16.4103 26.2055C16.4103 26.871 15.8708 27.4105 15.2053 27.4105C14.5398 27.4105 14.0003 26.871 14.0003 26.2055C14.0003 25.54 14.5398 25.0005 15.2053 25.0005Z" fill="#1A1A1A"/>
<path d="M8.20518 25.0005C7.53968 25.0005 7.00018 25.54 7.00018 26.2055C7.00018 26.871 7.53968 27.4105 8.20518 27.4105C8.87069 27.4105 9.41018 26.871 9.41018 26.2055C9.41018 25.54 8.87069 25.0005 8.20518 25.0005Z" fill="#1A1A1A"/>
<path d="M35.559 49.1712C26.141 48.2242 22.939 38.9572 22.47 33.7862C22.432 33.3722 22.674 32.9882 23.061 32.8372C26.165 31.6312 28.608 31.7502 30.739 32.2662C33.005 32.8142 35.109 34.0392 36.46 35.9382C39.111 39.6652 40.491 44.7752 41.088 47.8472C41.175 48.2982 40.932 48.7472 40.486 48.8562C38.886 49.2482 36.389 49.2662 35.559 49.1712Z" fill="#4A5878"/>
<path d="M39 41L38.445 39C36.198 41.61 33.235 43.504 29.924 44.45L28 45L30.345 46.606L32.336 46.219C35.265 45.648 37.744 43.708 39 41Z" fill="white"/>
<path d="M9.34041 19.8878C10.8901 18.9519 13.5241 18.2022 16.4869 18.8937C19.4067 19.5753 22.5537 21.6348 25.2672 26.09C26.892 26.3003 29.7975 26.8599 32.7603 28.2081C35.8851 29.6302 39.139 31.9589 40.9674 35.7355C41.3627 35.8709 41.6182 35.9242 41.9273 35.8527C42.3291 35.7596 42.9493 35.4188 43.9566 34.3282L43.9576 34.3273L44.1148 34.1769C44.4989 33.8499 45.0022 33.6963 45.484 33.7882C45.765 33.8419 46.0428 33.9826 46.2535 34.2267C46.4659 34.473 46.5739 34.7817 46.5865 35.1066L46.5904 35.3722C46.5653 37.8976 44.8249 41.329 41.0094 44.2823C41.3701 45.56 41.6367 46.7364 41.8248 47.7042L41.8463 47.8527C41.9162 48.5441 41.5555 49.2752 40.8267 49.5363L40.6646 49.5851C39.8681 49.7802 38.8936 49.881 38.0074 49.9298C37.7423 50.2698 37.4445 50.6067 37.1041 50.9318C34.8564 53.0782 31.0005 54.6835 24.2867 54.6866C22.211 54.6877 20.108 54.2794 18.2222 53.3136C16.7685 52.5688 15.5383 51.7283 14.5123 50.7667C13.5275 50.9607 12.5183 50.9289 11.5338 50.6134C9.46119 49.949 8.01853 48.2095 7.30916 46.0568C6.59958 43.9026 6.59858 41.2779 7.43025 38.6827C7.67364 37.9234 7.97803 37.2043 8.33064 36.5323C8.3066 36.5153 8.28218 36.4988 8.25838 36.4816C7.31958 35.8006 6.58417 34.9756 6.00447 34.1407C5.73752 34.11 5.47981 34.0753 5.23689 34.0304C4.62868 33.918 4.04486 33.7519 3.62557 33.5079C3.07055 33.1852 2.64472 32.7349 2.55916 32.131C2.47636 31.5453 2.74974 31.0489 3.03377 30.7052C3.35645 30.3148 3.81023 29.9778 4.26424 29.715C3.70285 25.3394 6.38419 21.6741 9.34041 19.8878ZM16.1451 20.3546C13.762 19.7985 11.6479 20.3388 10.3619 21.0314L10.1158 21.172C7.62481 22.6772 5.48048 25.5983 5.7115 29.0675C7.6918 28.3391 9.65011 28.3132 10.6226 28.421L10.8189 28.4464L10.9078 28.4659C10.9664 28.4822 11.0228 28.5054 11.0758 28.5353L11.1529 28.5851L11.3424 28.7345C12.2535 29.4889 12.5891 30.4071 12.5777 31.2726C12.566 32.1485 12.2033 32.9143 11.8668 33.3683L11.8023 33.4425C11.7343 33.5128 11.6533 33.5702 11.5631 33.6095C10.5859 34.034 9.2587 34.2118 7.99275 34.2345C8.33181 34.6071 8.71105 34.9578 9.13826 35.2677C10.3566 36.1514 11.9952 36.7465 14.2467 36.5919C14.6596 36.5636 15.0177 36.8754 15.0465 37.2882C15.0747 37.7013 14.7623 38.0596 14.3492 38.088C13.4573 38.1493 12.6376 38.1056 11.8844 37.9806C11.7901 41.5698 12.1959 44.324 13.2291 46.5138C14.305 48.7935 16.098 50.5401 18.9058 51.9786C20.542 52.8167 22.4016 53.1876 24.2857 53.1866C30.6491 53.1837 34.0587 51.6901 35.9517 49.9503C35.7709 49.9415 35.6128 49.9306 35.484 49.9161H35.4742C30.5023 49.413 27.165 46.7031 25.0328 43.4767C22.9129 40.2687 21.9662 36.5324 21.7232 33.8546L21.7164 33.715C21.7103 33.0173 22.1392 32.3922 22.7887 32.1388L22.7896 32.1378C26.0568 30.8685 28.6589 30.9908 30.9156 31.5372L31.3648 31.6544C33.5999 32.2847 35.6875 33.5572 37.0719 35.503C38.6249 37.6867 39.7482 40.3119 40.5406 42.7413C43.819 40.0466 45.0874 37.151 45.0894 35.3185C45.0796 35.3269 45.0682 35.336 45.0582 35.3468C43.9874 36.506 43.1127 37.1175 42.2662 37.3136C41.3951 37.5152 40.69 37.2363 40.1656 37.0441C39.9775 36.975 39.8249 36.8329 39.7418 36.6505C38.1459 33.1465 35.1543 30.9455 32.1392 29.5734C29.1247 28.2016 26.154 27.691 24.7291 27.5333C24.4945 27.5072 24.2855 27.3723 24.1656 27.1691C21.5768 22.7772 18.662 20.9421 16.1451 20.3546ZM9.63045 37.2872C9.33182 37.8641 9.06979 38.483 8.85896 39.1407C8.11344 41.4671 8.13377 43.765 8.73396 45.587C9.33448 47.4096 10.4892 48.703 11.9918 49.1847C12.3978 49.3148 12.8177 49.3793 13.2447 49.3849C12.7084 48.6985 12.2513 47.9579 11.8717 47.1534C10.6621 44.5897 10.2631 41.4614 10.3951 37.6007C10.1301 37.5074 9.87568 37.4015 9.63045 37.2872ZM30.5631 32.9952C28.558 32.5097 26.273 32.3929 23.3326 33.5353L23.3336 33.5363C23.2728 33.5601 23.234 33.6081 23.2213 33.6622L23.2174 33.7179C23.4436 36.211 24.3323 39.695 26.2847 42.6495C28.1632 45.4919 31.0096 47.8289 35.2222 48.378L35.6344 48.4249L35.6441 48.4259C36.0026 48.4669 36.7905 48.4882 37.7008 48.4474C38.6091 48.4066 39.5778 48.307 40.3082 48.128L40.3248 48.1212C40.3277 48.1189 40.3329 48.1133 40.3385 48.1036C40.3503 48.0829 40.362 48.043 40.3521 47.9904L40.232 47.3976C39.5865 44.33 38.2451 39.7418 35.8492 36.3732C34.6241 34.6511 32.692 33.5102 30.5631 32.9952ZM10.4088 29.9093C9.54422 29.8217 7.61743 29.8568 5.77889 30.6554L5.73396 30.673C5.19726 30.8665 4.51558 31.2666 4.19002 31.6603C4.11568 31.7503 4.07645 31.8211 4.05818 31.8683C4.04972 31.8902 4.04654 31.9048 4.04549 31.9122C4.04505 31.9153 4.04453 31.9179 4.04451 31.9191V31.922C4.04485 31.9231 4.04575 31.9261 4.04744 31.9298C4.05103 31.9376 4.05987 31.9543 4.07967 31.9786C4.12162 32.0302 4.20938 32.1121 4.37947 32.2111H4.38045C4.57469 32.324 4.95513 32.4534 5.50935 32.5558C6.04599 32.6549 6.68763 32.7187 7.35994 32.7355C8.62949 32.7672 9.90627 32.6274 10.7672 32.3116C10.9258 32.0419 11.0723 31.6569 11.0777 31.253C11.0832 30.8416 10.9468 30.3645 10.4088 29.9093Z" fill="#1A1A1A"/>
</svg>
