<svg width="48" height="55" viewBox="0 0 48 55" fill="none" xmlns="http://www.w3.org/2000/svg">
<path d="M11.2504 36.4951L11.8188 42.7559L13.4516 47.7559L15.1703 49.8184C14.0403 50.203 12.8729 50.2541 11.7631 49.8984C8.18727 48.7524 6.56677 43.8336 8.14395 38.9121C8.50081 37.7986 8.99156 36.7806 9.57754 35.8848L11.2504 36.4951Z" fill="#78B136"/>
<path d="M37.452 49.2562L40.452 44.2562L43.452 40.7562L45.452 37.2562V34.0402L41.452 36.2562L38.952 32.7562L34.452 29.2562L31.217 28.3582L25.189 26.1032L23.492 23.7502L19.299 20.0332L17.746 20.7402L11.819 29.6902L11.117 35.0112L11.819 42.7562L13.452 47.7562L15.952 50.7562L20.952 52.7562L24.455 53.3172H28.5L32.952 52.2562L37.452 49.2562Z" fill="#D7F4B7"/>
<path d="M23.081 24.7061C24.369 28.2811 21.424 36.3361 14.246 37.4641C14.086 37.4901 13.921 37.4711 13.769 37.4161L7.39198 35.0861C7.12898 34.9901 6.91898 34.7891 6.81198 34.5311L4.62197 29.2761C4.52997 29.0561 4.51998 28.8111 4.59298 28.5851L5.91899 24.4602C5.95899 24.3342 6.02398 24.2171 6.10998 24.1171L8.67198 21.1201C8.81498 20.9521 9.00899 20.8371 9.22499 20.7911L13.841 19.8131C13.962 19.7881 14.086 19.7851 14.208 19.8051L18.213 20.4541C18.4 20.4841 18.575 20.5671 18.717 20.6931L22.833 24.3521C22.943 24.4491 23.031 24.5681 23.081 24.7061Z" fill="#B3EE71"/>
<path d="M11 34C8.99998 34 7.99998 34 5.49998 36.5C4.87898 37.121 4.45098 34.853 4.45498 32.923C4.45798 31.248 5.58399 29.706 7.22299 29.364C8.62599 29.071 10.199 29.111 10.707 29.188C12.424 30.458 11.529 33.285 11 34Z" fill="#D4583B"/>
<path d="M15.2049 25C15.8704 25 16.4099 25.5395 16.4099 26.205C16.4099 26.8705 15.8704 27.41 15.2049 27.41C14.5394 27.41 13.9999 26.8705 13.9999 26.205C13.9999 25.5395 14.5394 25 15.2049 25Z" fill="#1A1A1A"/>
<path d="M8.20482 25C7.53931 25 6.99982 25.5395 6.99982 26.205C6.99982 26.8705 7.53931 27.41 8.20482 27.41C8.87032 27.41 9.40982 26.8705 9.40982 26.205C9.40982 25.5395 8.87032 25 8.20482 25Z" fill="#1A1A1A"/>
<path d="M35.559 49.1712C26.141 48.2242 22.939 38.9572 22.47 33.7862C22.432 33.3722 22.674 32.9882 23.061 32.8372C26.165 31.6312 28.608 31.7502 30.739 32.2662C33.005 32.8142 35.109 34.0392 36.46 35.9382C39.111 39.6652 40.491 44.7752 41.088 47.8472C41.175 48.2982 40.932 48.7472 40.486 48.8562C38.886 49.2482 36.389 49.2662 35.559 49.1712Z" fill="#78B136"/>
<path d="M9.33975 19.8877C10.8893 18.9518 13.5235 18.2023 16.4862 18.8936C19.406 19.5752 22.553 21.6348 25.2665 26.0899C26.8913 26.3002 29.7969 26.8599 32.7597 28.208C35.8844 29.63 39.1382 31.9589 40.9667 35.7354C41.3619 35.8708 41.6177 35.9239 41.9267 35.8526C42.3284 35.7596 42.9487 35.4187 43.956 34.3282L43.9569 34.3272L44.1142 34.1768C44.4981 33.8499 45.0016 33.6964 45.4833 33.7881C45.7642 33.8417 46.0421 33.9827 46.2528 34.2266C46.4653 34.4728 46.5732 34.7817 46.5858 35.1065L46.5898 35.3721C46.5646 37.8976 44.8244 41.3289 41.0087 44.2823C41.3695 45.56 41.636 46.7362 41.8241 47.7041L41.8456 47.8526C41.9156 48.5442 41.5551 49.2752 40.8261 49.5362L40.664 49.585C39.8676 49.7801 38.8938 49.8819 38.0077 49.9307C37.7425 50.2704 37.4437 50.6067 37.1034 50.9317C34.8557 53.078 30.9997 54.6834 24.286 54.6866C22.2104 54.6875 20.1072 54.2793 18.2216 53.3135C16.7684 52.569 15.5385 51.7289 14.5126 50.7676C13.5278 50.9616 12.5186 50.9287 11.5341 50.6133C9.46157 49.9489 8.01883 48.2093 7.30948 46.0567C6.59989 43.9025 6.59887 41.2779 7.43057 38.6826C7.67393 37.9234 7.9773 37.2041 8.32998 36.5323C8.30594 36.5152 8.28152 36.4987 8.25772 36.4815C7.95635 36.2628 7.67784 36.0272 7.4169 35.7832C7.02157 36.0903 6.56738 36.4941 6.03018 37.0313C5.86374 37.1975 5.58287 37.3849 5.20987 37.3516C4.85431 37.3198 4.61973 37.1035 4.49405 36.9502C4.2536 36.6567 4.11042 36.228 4.01553 35.8516C3.81197 35.0436 3.70293 33.9285 3.70498 32.9219C3.70657 32.0639 3.95706 31.226 4.40323 30.5166C3.3801 25.7898 6.20478 21.7822 9.33975 19.8877ZM16.1444 20.3545C13.7615 19.7986 11.6472 20.3388 10.3612 21.0313L10.1151 21.1719C7.59781 22.6932 5.43837 25.6601 5.72354 29.1778C6.12514 28.922 6.57696 28.7337 7.06924 28.6309V28.6299C8.56039 28.3185 10.2237 28.3571 10.8192 28.4473C10.9401 28.4656 11.055 28.5133 11.1532 28.586C12.3104 29.4423 12.5279 30.787 12.4433 31.8614C12.3594 32.9245 11.9675 33.9529 11.6024 34.4463L10.9999 34V34.001L11.6024 34.4463C11.461 34.6373 11.2376 34.751 10.9999 34.751C10.0162 34.751 9.41429 34.7589 8.7792 34.9873C8.89514 35.0834 9.0139 35.1779 9.1376 35.2676C10.3558 36.1512 11.9948 36.7463 14.246 36.5918C14.6589 36.5635 15.0169 36.8754 15.0458 37.2881C15.074 37.7012 14.7617 38.0595 14.3485 38.0879C13.4568 38.1491 12.6368 38.1055 11.8837 37.9805C11.7895 41.5695 12.1953 44.324 13.2284 46.5137C14.3043 48.7933 16.0976 50.54 18.9052 51.9785C20.5412 52.8165 22.4011 53.1874 24.2851 53.1866C30.6483 53.1837 34.058 51.6899 35.9511 49.9502C35.7704 49.9415 35.612 49.9305 35.4833 49.916H35.4735C30.5017 49.4128 27.1643 46.7031 25.0321 43.4766C22.9122 40.2686 21.9655 36.5323 21.7226 33.8545L21.7157 33.7149C21.7096 33.0173 22.1387 32.3922 22.788 32.1387L22.789 32.1377C26.0561 30.8683 28.6582 30.9908 30.9149 31.5371L31.3642 31.6543C33.5994 32.2846 35.6868 33.5571 37.0712 35.503C38.6244 37.6867 39.7485 40.3117 40.5409 42.7412C43.819 40.0466 45.0867 37.1508 45.0888 35.3184C45.0789 35.3267 45.0675 35.3359 45.0575 35.3467C43.9867 36.5059 43.112 37.1174 42.2655 37.3135C41.3946 37.5149 40.6892 37.2362 40.1649 37.044C39.977 36.9748 39.8242 36.8326 39.7411 36.6504C38.1452 33.1466 35.1536 30.9453 32.1386 29.5733C29.1241 28.2016 26.1532 27.6908 24.7284 27.5332C24.4941 27.507 24.2848 27.3721 24.1649 27.169C21.5762 22.7773 18.6613 20.942 16.1444 20.3545ZM9.62784 37.2862C9.32917 37.8629 9.07008 38.483 8.85928 39.1407C8.11373 41.467 8.13409 43.7648 8.73428 45.5869C9.33479 47.4095 10.4896 48.7029 11.9921 49.1846C12.3981 49.3147 12.818 49.3796 13.245 49.3858C12.7084 48.6991 12.2508 47.9582 11.871 47.1534C10.6616 44.5897 10.2625 41.461 10.3944 37.6006C10.1287 37.5071 9.87375 37.4009 9.62784 37.2862ZM30.5624 32.9951C28.5573 32.5097 26.2723 32.3928 23.3319 33.5352L23.3329 33.5362C23.2723 33.5601 23.2334 33.6081 23.2206 33.6621L23.2167 33.7178C23.4429 36.2109 24.3316 39.6948 26.2841 42.6494C28.1625 45.4918 31.0089 47.8287 35.2216 48.378L35.6337 48.4248L35.6435 48.4258C36.0017 48.4668 36.7896 48.4881 37.7001 48.4473C38.6084 48.4065 39.5771 48.3069 40.3075 48.128L40.3241 48.1211C40.327 48.119 40.3322 48.1132 40.3378 48.1035C40.3497 48.0828 40.3614 48.043 40.3515 47.9903L40.2314 47.3975C39.5858 44.3298 38.2446 39.7417 35.8485 36.3731C34.6233 34.6509 32.6915 33.51 30.5624 32.9951ZM10.3993 29.9082C9.82038 29.8604 8.53276 29.8571 7.37588 30.0987C6.12312 30.3603 5.20743 31.5634 5.20498 32.9248C5.20311 33.8469 5.30536 34.8304 5.46963 35.4834C6.50468 34.5084 7.33848 33.9324 8.16788 33.6133C8.9851 33.299 9.75012 33.2584 10.5614 33.253C10.7192 32.907 10.9001 32.3526 10.9481 31.7442C11.0082 30.9825 10.8513 30.3309 10.3993 29.9082Z" fill="#1A1A1A"/>
</svg>
