<svg width="48" height="55" viewBox="0 0 48 55" fill="none" xmlns="http://www.w3.org/2000/svg">
<path d="M11.1169 35.0107L11.819 42.7559L13.4518 47.7549L15.1706 49.8174C14.0406 50.202 12.8732 50.2531 11.7633 49.8975C8.18745 48.7515 6.56703 43.8327 8.14421 38.9111C8.80574 36.8469 9.92615 35.1114 11.2663 33.875L11.1169 35.0107Z" fill="#9747FF"/>
<path d="M37.452 49.2562L40.452 44.2552L43.452 40.7552L45.452 37.2552V34.0402L41.452 36.2552L38.952 32.7552L34.452 29.2562L31.217 28.3582L25.189 26.1022L23.492 23.7492L19.299 20.0332L17.746 20.7402L11.819 29.6902L11.117 35.0112L11.819 42.7562L13.452 47.7552L15.952 50.7552L20.952 52.7562L24.455 53.3172L28.5 53.5002L32.952 52.2562L37.452 49.2562Z" fill="white"/>
<path d="M9.22499 20.7909L13.849 19.8119C13.964 19.7869 14.083 19.7829 14.2 19.7999L18.688 20.4549C18.891 20.4839 19.08 20.5759 19.23 20.7159L23 24.2689C24.827 25.9559 24.503 26.9919 32.403 28.9119C32.466 28.9269 32.531 28.9499 32.589 28.9769C36.917 30.9819 37.971 32.9329 40.339 35.8059C40.444 35.9329 40.58 36.0349 40.736 36.0869C43.29 36.9319 45.834 34.8278 46.01 34.8708C46.058 34.8828 45.99 34.9609 45.973 35.0069C38.476 54.4709 28.74 42.4959 20.5 39.4999C15 37.4999 13 40.4999 12 43.4999L11.024 39.1069C11.008 39.0359 11 38.9629 11 38.8899V37.6109C11 37.2359 10.79 36.8919 10.457 36.7209L7.30598 35.1029C7.09498 34.9949 6.92997 34.8159 6.83897 34.5979L4.62197 29.2759C4.52997 29.0559 4.51998 28.8109 4.59298 28.5849L5.91899 24.4599C5.95899 24.3339 6.02396 24.2169 6.10996 24.1169L8.67198 21.1199C8.81498 20.9519 9.00899 20.8359 9.22499 20.7909Z" fill="#9747FF"/>
<path d="M24.5 27.5C16.5 21.5 10 22 7.5 22.5L12 20L15.5 19.5L21 21.5L24.5 27.5Z" fill="#681ABB"/>
<path d="M11.264 32.9211C9.25698 33.7931 5.22997 33.5731 4.00297 32.8591C2.19697 31.8091 4.27296 30.4021 5.47996 29.9671C7.62096 29.0371 9.85697 29.0601 10.707 29.1871C12.424 30.4581 11.794 32.2061 11.264 32.9211Z" fill="#473956"/>
<path d="M15.2054 25C15.8709 25 16.4104 25.5395 16.4104 26.205C16.4104 26.8705 15.8709 27.41 15.2054 27.41C14.5399 27.41 14.0004 26.8705 14.0004 26.205C14.0004 25.5395 14.5399 25 15.2054 25Z" fill="#1A1A1A"/>
<path d="M8.20524 25C7.53974 25 7.00024 25.5395 7.00024 26.205C7.00024 26.8705 7.53974 27.41 8.20524 27.41C8.87075 27.41 9.41024 26.8705 9.41024 26.205C9.41024 25.5395 8.87075 25 8.20524 25Z" fill="#1A1A1A"/>
<path d="M35.559 49.1702C26.141 48.2242 22.939 38.9572 22.47 33.7862C22.432 33.3722 22.674 32.9882 23.061 32.8372C26.165 31.6312 28.608 31.7502 30.739 32.2662C33.005 32.8142 35.109 34.0392 36.46 35.9382C39.111 39.6642 40.491 44.7752 41.088 47.8472C41.175 48.2982 40.932 48.7472 40.486 48.8562C38.886 49.2482 36.389 49.2662 35.559 49.1702Z" fill="#9747FF"/>
<path d="M40.5 48.5C29 45.5 26.5 40 23 33.5L25.5 32L32 32.5L36.5 35.5L39.5 41.5L41 47.5L40.5 48.5Z" fill="#681ABB"/>
<path d="M9.34049 19.8878C10.8902 18.9519 13.5241 18.2022 16.487 18.8937C19.4065 19.5753 22.553 21.6346 25.2663 26.089C26.8912 26.2989 29.7971 26.8595 32.7604 28.2081C35.8852 29.6303 39.1391 31.9589 40.9674 35.7355C41.3628 35.8709 41.6183 35.9242 41.9274 35.8527C42.3292 35.7596 42.9494 35.4188 43.9567 34.3282L43.9577 34.3273L44.1149 34.1769C44.499 33.8499 45.0023 33.6963 45.484 33.7882C45.765 33.8419 46.0429 33.9826 46.2536 34.2267C46.466 34.473 46.574 34.7817 46.5866 35.1066L46.5905 35.3722C46.5653 37.8975 44.8246 41.3281 41.0094 44.2814C41.3702 45.5593 41.6367 46.7362 41.8249 47.7042V47.7052L41.8464 47.8527C41.9162 48.5441 41.5556 49.2752 40.8268 49.5363L40.6647 49.5851C39.8682 49.7802 38.8938 49.8811 38.0075 49.9298C37.7424 50.2698 37.4446 50.6067 37.1042 50.9318C34.8565 53.0782 31.0005 54.6835 24.2868 54.6866C22.2111 54.6877 20.108 54.2794 18.2223 53.3136C16.7682 52.5686 15.5376 51.7277 14.5114 50.7657C13.5268 50.9595 12.5181 50.9278 11.5339 50.6124C9.46131 49.9481 8.01863 48.2084 7.30924 46.0558C6.59967 43.9017 6.59868 41.2769 7.43034 38.6818C7.67368 37.9226 7.97699 37.2031 8.32975 36.5314C8.30608 36.5146 8.2819 36.4986 8.25846 36.4816C7.31969 35.8006 6.58425 34.9756 6.00456 34.1407C5.73758 34.1098 5.47992 34.0743 5.23698 34.0294C4.62872 33.917 4.04494 33.7509 3.62565 33.507C3.07065 33.1842 2.64463 32.734 2.55924 32.13C2.47658 31.5443 2.74982 31.0479 3.03385 30.7042C3.35661 30.3138 3.81028 29.9768 4.26432 29.714C3.70342 25.3388 6.38447 21.674 9.34049 19.8878ZM16.1452 20.3546C13.7621 19.7985 11.648 20.3388 10.362 21.0314L10.1159 21.172C7.62487 22.6772 5.48054 25.5982 5.71159 29.0675C7.69181 28.3392 9.64976 28.3132 10.6217 28.42L10.818 28.4454L10.9079 28.464C10.996 28.4885 11.0791 28.5294 11.153 28.5841C12.2078 29.3649 12.59 30.3493 12.5778 31.2726C12.566 32.1484 12.2033 32.9132 11.8669 33.3673L11.2643 32.92V32.921L11.8669 33.3673C11.7886 33.4728 11.6836 33.5561 11.5631 33.6085L11.3415 33.6984C10.3906 34.0588 9.1656 34.2132 7.99284 34.2345C8.33188 34.6071 8.71116 34.9578 9.13834 35.2677C10.3567 36.1513 11.9953 36.7465 14.2467 36.5919C14.6597 36.5636 15.0178 36.8754 15.0465 37.2882C15.0748 37.7013 14.7624 38.0596 14.3493 38.088C13.4574 38.1492 12.6377 38.1056 11.8844 37.9806C11.7902 41.5693 12.196 44.3229 13.2292 46.5128C14.3051 48.7929 16.098 50.54 18.9059 51.9786C20.5421 52.8166 22.4017 53.1876 24.2858 53.1866C30.6503 53.1837 34.06 51.6895 35.9528 49.9493C35.7717 49.9405 35.6132 49.9297 35.484 49.9152V49.9161C35.4829 49.916 35.4813 49.9154 35.4801 49.9152C35.478 49.9149 35.4754 49.9153 35.4733 49.9152V49.9142C30.5021 49.4113 27.165 46.7027 25.0329 43.4767C22.9129 40.2689 21.9663 36.5324 21.7233 33.8546L21.7165 33.715C21.7104 33.0173 22.1393 32.3922 22.7887 32.1388L22.7897 32.1378C26.0569 30.8685 28.659 30.9908 30.9157 31.5372C33.3184 32.1184 35.5953 33.4274 37.0719 35.503C38.6252 37.6863 39.7483 40.3117 40.5407 42.7413C43.819 40.0466 45.0874 37.151 45.0895 35.3185C45.0796 35.3269 45.0683 35.336 45.0583 35.3468C43.9875 36.506 43.1128 37.1175 42.2663 37.3136C41.3952 37.5152 40.6901 37.2363 40.1657 37.0441C39.9776 36.975 39.825 36.8329 39.7419 36.6505C38.146 33.1466 35.1543 30.9456 32.1393 29.5734C29.5017 28.373 26.8978 27.8322 25.3337 27.6105L24.7301 27.5333L24.6432 27.5187C24.4443 27.4727 24.2707 27.3471 24.1657 27.1691C21.5769 22.7772 18.6621 20.9421 16.1452 20.3546ZM9.62858 37.2863C9.33008 37.8629 9.06977 38.4823 8.85905 39.1398C8.11353 41.4661 8.13386 43.764 8.73405 45.5861C9.33457 47.4085 10.4894 48.7021 11.9919 49.1837C12.3976 49.3137 12.8171 49.3779 13.2438 49.3839C12.7079 48.6979 12.2512 47.9575 11.8717 47.1534C10.6621 44.5896 10.2632 41.461 10.3952 37.6007C10.1295 37.5072 9.8744 37.4009 9.62858 37.2863ZM30.5631 32.9952C28.5581 32.5097 26.273 32.3929 23.3327 33.5353L23.3337 33.5363C23.2729 33.5601 23.2341 33.6081 23.2214 33.6622L23.2174 33.7179V33.7189C23.4437 36.212 24.3324 39.6951 26.2848 42.6495C28.1633 45.4916 31.0098 47.8274 35.2223 48.3761L35.6344 48.4239L35.6452 48.4249C36.0032 48.4663 36.7905 48.4881 37.7008 48.4474C38.6091 48.4067 39.5779 48.307 40.3083 48.128L40.3249 48.1212C40.3277 48.1189 40.333 48.1133 40.3385 48.1036C40.3504 48.0829 40.362 48.043 40.3522 47.9904L40.2321 47.3976C39.5865 44.3298 38.2451 39.7408 35.8493 36.3732C34.6242 34.6511 32.6921 33.5102 30.5631 32.9952ZM10.4089 29.9083C9.54337 29.8214 7.61693 29.8561 5.77897 30.6544L5.48014 29.9659L5.47916 29.9669L5.73405 30.672C5.19716 30.8655 4.51563 31.2665 4.1901 31.6603C4.11589 31.7501 4.07663 31.8201 4.05827 31.8673C4.04967 31.8895 4.04661 31.9048 4.04557 31.9122C4.04513 31.9155 4.04466 31.918 4.04459 31.9191V31.921C4.04488 31.922 4.04581 31.925 4.04752 31.9288C4.05097 31.9364 4.05981 31.9531 4.07975 31.9777C4.12165 32.0292 4.20958 32.1112 4.37956 32.2101H4.38053C4.57472 32.323 4.95508 32.4524 5.50944 32.5548C6.0461 32.6539 6.68767 32.7177 7.36002 32.7345C8.62973 32.7662 9.90635 32.6266 10.7673 32.3107C10.9258 32.0409 11.0724 31.6559 11.0778 31.2521C11.0832 30.8407 10.9464 30.3637 10.4089 29.9083ZM5.77897 30.6544C5.76432 30.6608 5.74907 30.6666 5.73405 30.672L5.48014 29.9669L5.77897 30.6544Z" fill="#1A1A1A"/>
</svg>
