<svg width="48" height="55" viewBox="0 0 48 55" fill="none" xmlns="http://www.w3.org/2000/svg">
<path d="M9.7436 36.0859L9.92231 36.3662L11.8188 43.1807L13.4516 48.1807L14.8901 49.9062C13.8481 50.208 12.7815 50.2248 11.7631 49.8984C8.1873 48.7524 6.56687 43.8336 8.14399 38.9121C8.48921 37.8349 8.95822 36.846 9.51899 35.9717L9.7436 36.0859Z" fill="#2C2C2C"/>
<path d="M37.452 49.681L40.452 44.681L43.452 41.181L45.452 37.681V34.466L41.452 36.681L38.952 33.181L34.452 29.681L31.217 28.784L25.189 26.528L23.492 24.175L19.299 20.459L12.958 19.478L7.91296 21.444L4.62097 28.028L9.92197 36.366L11.819 43.181L13.452 48.181L15.952 51.181L20.952 53.181L24.455 53.743L32.952 52.681L37.452 49.681Z" fill="#1A1A1A"/>
<path d="M17.606 25.6822C19.832 29.0772 10.232 32.2182 11.755 36.6772C11.815 36.8542 11.623 37.0471 11.456 36.9621L7.31297 34.8441C7.10197 34.7361 6.93598 34.5572 6.84498 34.3382L4.627 29.0152C4.535 28.7962 4.52497 28.5512 4.59797 28.3252L5.81797 24.5271C5.92197 24.2041 6.18199 23.9552 6.50999 23.8672L6.98399 23.7392L8.13499 23.5752C9.69199 23.3532 11.274 23.3611 12.829 23.6001C14.599 23.8711 16.623 24.1842 17.606 25.6822Z" fill="#2C2C2C"/>
<path d="M11.264 32.9213C9.25698 33.7933 5.22997 33.5733 4.00297 32.8593C2.19697 31.8093 4.27299 30.4022 5.47999 29.9672C7.62099 29.0372 9.85698 29.0602 10.707 29.1882C12.424 30.4582 11.794 32.2063 11.264 32.9213Z" fill="#FFA629"/>
<path d="M35.559 49.1712C26.141 48.2242 22.939 38.9572 22.47 33.7862C22.432 33.3722 22.674 32.9882 23.061 32.8372C26.165 31.6312 28.608 31.7502 30.739 32.2662C33.005 32.8142 35.109 34.0392 36.46 35.9382C39.111 39.6652 40.491 44.7752 41.088 47.8472C41.175 48.2982 40.932 48.7472 40.486 48.8562C38.886 49.2482 36.389 49.2662 35.559 49.1712Z" fill="#2C2C2C"/>
<path d="M9.34047 19.8878C10.8901 18.9519 13.5241 18.2022 16.487 18.8937C19.4068 19.5753 22.5538 21.6348 25.2672 26.09C26.8921 26.3003 29.7976 26.8599 32.7604 28.2081C35.8852 29.6302 39.139 31.9589 40.9674 35.7355C41.3628 35.8709 41.6182 35.9242 41.9274 35.8527C42.3292 35.7596 42.9494 35.4188 43.9567 34.3282L43.9577 34.3273L44.1149 34.1769C44.499 33.8499 45.0022 33.6963 45.484 33.7882C45.765 33.8419 46.0428 33.9826 46.2536 34.2267C46.466 34.473 46.574 34.7817 46.5866 35.1066L46.5905 35.3722C46.5653 37.8976 44.8249 41.329 41.0094 44.2823C41.3701 45.56 41.6368 46.7364 41.8248 47.7042L41.8463 47.8527C41.9162 48.5441 41.5556 49.2752 40.8268 49.5363L40.6647 49.5851C39.8682 49.7802 38.8937 49.881 38.0075 49.9298C37.7423 50.2698 37.4445 50.6067 37.1041 50.9318C34.8565 53.0782 31.0006 54.6835 24.2868 54.6866C22.211 54.6877 20.108 54.2794 18.2223 53.3136C16.7696 52.5693 15.5399 51.7295 14.5143 50.7687C13.5288 50.9623 12.5188 50.929 11.5338 50.6134C9.46127 49.949 8.01858 48.2095 7.30922 46.0568C6.59964 43.9026 6.59862 41.2779 7.43031 38.6827C7.6738 37.9231 7.97784 37.2035 8.3307 36.5314C8.30682 36.5144 8.28209 36.4987 8.25844 36.4816C7.31964 35.8006 6.58423 34.9756 6.00453 34.1407C5.73758 34.11 5.47987 34.0753 5.23695 34.0304C4.62873 33.918 4.04492 33.7519 3.62563 33.5079C3.07061 33.1852 2.64478 32.7349 2.55922 32.131C2.47642 31.5453 2.7498 31.0489 3.03383 30.7052C3.35661 30.3147 3.81015 29.9769 4.2643 29.714C3.70343 25.3388 6.38446 21.674 9.34047 19.8878ZM16.1452 20.3546C13.7621 19.7985 11.648 20.3388 10.362 21.0314L10.1159 21.172C7.62487 22.6772 5.48054 25.5983 5.71156 29.0675C7.69186 28.3391 9.65017 28.3132 10.6227 28.421L10.819 28.4464L10.9079 28.4659C10.9664 28.4822 11.0229 28.5054 11.0758 28.5353L11.153 28.5851L11.3424 28.7345C12.2536 29.4889 12.5892 30.4071 12.5778 31.2726C12.566 32.1485 12.2034 32.9143 11.8668 33.3683L11.8034 33.4425C11.7352 33.513 11.6536 33.5701 11.5631 33.6095C10.5859 34.034 9.25876 34.2118 7.99281 34.2345C8.33187 34.6071 8.71112 34.9578 9.13832 35.2677C10.3567 36.1514 11.9953 36.7465 14.2467 36.5919C14.6597 36.5636 15.0178 36.8754 15.0465 37.2882C15.0748 37.7013 14.7624 38.0596 14.3493 38.088C13.4573 38.1493 12.6377 38.1056 11.8844 37.9806C11.7902 41.5698 12.1959 44.324 13.2291 46.5138C14.305 48.7935 16.0981 50.5401 18.9059 51.9786C20.5421 52.8166 22.4017 53.1876 24.2858 53.1866C30.6491 53.1837 34.0588 51.6901 35.9518 49.9503C35.771 49.9415 35.6129 49.9306 35.484 49.9161H35.4743C30.5024 49.413 27.1651 46.7031 25.0329 43.4767C22.9129 40.2687 21.9663 36.5324 21.7233 33.8546L21.7164 33.715C21.7104 33.0173 22.1392 32.3922 22.7887 32.1388L22.7897 32.1378C26.0568 30.8685 28.659 30.9908 30.9157 31.5372C33.3183 32.1184 35.5952 33.4274 37.0719 35.503C38.625 37.6867 39.7482 40.3119 40.5407 42.7413C43.819 40.0466 45.0875 37.151 45.0895 35.3185C45.0796 35.3269 45.0683 35.336 45.0582 35.3468C43.9874 36.506 43.1128 37.1175 42.2663 37.3136C41.3952 37.5152 40.69 37.2363 40.1657 37.0441C39.9775 36.975 39.825 36.8329 39.7418 36.6505C38.146 33.1465 35.1544 30.9455 32.1393 29.5734C29.1248 28.2016 26.1541 27.691 24.7291 27.5333C24.4946 27.5072 24.2856 27.3723 24.1657 27.1691C21.5769 22.7772 18.662 20.9421 16.1452 20.3546ZM9.62856 37.2863C9.32982 37.8631 9.06986 38.483 8.85902 39.1407C8.11347 41.4671 8.13383 43.7649 8.73402 45.587C9.33454 47.4096 10.4893 48.703 11.9918 49.1847C12.3976 49.3147 12.8171 49.3788 13.2438 49.3849C12.7077 48.6987 12.2513 47.9577 11.8717 47.1534C10.6622 44.5897 10.2632 41.4614 10.3952 37.6007C10.1295 37.5072 9.8744 37.4009 9.62856 37.2863ZM30.5631 32.9952C28.5581 32.5097 26.273 32.3929 23.3327 33.5353L23.3336 33.5363C23.2729 33.5601 23.2341 33.6081 23.2213 33.6622L23.2174 33.7179C23.4436 36.211 24.3323 39.695 26.2848 42.6495C28.1633 45.4919 31.0096 47.8289 35.2223 48.378L35.6344 48.4249L35.6442 48.4259C36.0026 48.4669 36.7905 48.4882 37.7008 48.4474C38.6092 48.4066 39.5778 48.307 40.3082 48.128L40.3248 48.1212C40.3277 48.1189 40.3329 48.1132 40.3385 48.1036C40.3504 48.0829 40.362 48.043 40.3522 47.9904L40.2321 47.3976C39.5865 44.33 38.2452 39.7418 35.8493 36.3732C34.6241 34.6511 32.6921 33.5102 30.5631 32.9952ZM10.4088 29.9093C9.54428 29.8217 7.6175 29.8568 5.77895 30.6554L5.73402 30.673C5.19732 30.8665 4.51564 31.2666 4.19008 31.6603C4.11574 31.7503 4.07651 31.8211 4.05824 31.8683C4.04978 31.8902 4.0466 31.9048 4.04555 31.9122C4.04511 31.9153 4.04459 31.9179 4.04457 31.9191V31.922C4.04491 31.9231 4.04581 31.9261 4.0475 31.9298C4.05109 31.9376 4.05993 31.9543 4.07973 31.9786C4.12168 32.0302 4.20944 32.1121 4.37953 32.2111H4.38051C4.57475 32.324 4.95518 32.4534 5.50941 32.5558C6.04605 32.6549 6.68769 32.7187 7.36 32.7355C8.62956 32.7672 9.90633 32.6275 10.7672 32.3116C10.9259 32.0419 11.0723 31.6569 11.0778 31.253C11.0833 30.8416 10.9468 30.3645 10.4088 29.9093Z" fill="#1A1A1A"/>
<path d="M7.99976 24C9.10433 24 9.99976 24.8954 9.99976 26C9.99976 27.1046 9.10433 28 7.99976 28C6.8953 27.9999 5.99976 27.1045 5.99976 26C5.99976 24.8955 6.8953 24.0001 7.99976 24ZM14.9998 24C16.1043 24 16.9998 24.8954 16.9998 26C16.9998 27.1046 16.1043 28 14.9998 28C13.8953 27.9999 12.9998 27.1045 12.9998 26C12.9998 24.8955 13.8953 24.0001 14.9998 24Z" fill="#FFA629"/>
<path d="M15.2054 25.0005C15.8709 25.0005 16.4104 25.54 16.4104 26.2055C16.4104 26.871 15.8709 27.4105 15.2054 27.4105C14.5399 27.4105 14.0004 26.871 14.0004 26.2055C14.0004 25.54 14.5399 25.0005 15.2054 25.0005Z" fill="#1A1A1A"/>
<path d="M8.20524 25.0005C7.53974 25.0005 7.00024 25.54 7.00024 26.2055C7.00024 26.871 7.53974 27.4105 8.20524 27.4105C8.87075 27.4105 9.41024 26.871 9.41024 26.2055C9.41024 25.54 8.87075 25.0005 8.20524 25.0005Z" fill="#1A1A1A"/>
</svg>
