<svg width="48" height="55" viewBox="0 0 48 55" fill="none" xmlns="http://www.w3.org/2000/svg">
<path d="M10.4566 36.7212C10.7896 36.8922 11.0006 37.2359 11.0006 37.6108V38.8901C11.0006 38.963 11.008 39.036 11.024 39.1069L11.8072 42.6313L11.8189 42.7554L11.8687 42.9106L12.0006 43.4995C12.0107 43.4692 12.0215 43.439 12.0318 43.4087L13.4517 47.7544L15.1705 49.8179C14.0405 50.2025 12.8731 50.2526 11.7633 49.897C8.18734 48.751 6.56686 43.8322 8.14413 38.9106C8.46286 37.9161 8.88945 36.9985 9.39413 36.1753L10.4566 36.7212Z" fill="#B3B3B3"/>
<path d="M37.452 49.2562L40.452 44.2552L43.452 40.7552L45.452 37.2552V34.0402L41.452 36.2552L38.952 32.7552L34.452 29.2562L31.217 28.3582L25.189 26.1022L23.492 23.7492L19.299 20.0332L17.746 20.7402L11.819 29.6902L11.117 35.0112L11.819 42.7562L13.452 47.7552L15.952 50.7552L20.952 52.7562L24.455 53.3172L28.5 53.5002L32.952 52.2562L37.452 49.2562Z" fill="#E6E6E6"/>
<path d="M9.10005 20.7688L13.6831 18.7409C13.7631 18.7049 13.8381 18.6589 13.9071 18.6039L18.19 15.1399C18.674 14.7479 19.3951 14.8909 19.6951 15.4369L21.421 18.5838C21.458 18.6518 21.488 18.7249 21.509 18.8009L22.925 23.9919C22.974 24.1729 23.0751 24.3359 23.2091 24.4679C24.8151 26.0399 24.8171 27.0678 32.4031 28.9118C32.4661 28.9268 32.531 28.9498 32.589 28.9768C36.917 30.9818 37.971 32.9329 40.339 35.8059C40.444 35.9329 40.58 36.0348 40.736 36.0868C43.29 36.9318 45.8341 34.8278 46.0101 34.8708C46.0581 34.8828 45.99 34.9609 45.973 35.0069C38.476 54.4709 28.74 42.4959 20.5 39.4999C15 37.4999 13 40.4999 12 43.4999L11.024 39.1069C11.008 39.0359 11 38.9629 11 38.8899V37.6109C11 37.2359 10.79 36.8919 10.457 36.7209L7.30604 35.1029C7.09504 34.9949 6.93003 34.8159 6.83903 34.5979L4.62205 29.2749C4.53005 29.0559 4.52003 28.8109 4.59303 28.5849L5.91905 24.4599C5.95905 24.3339 6.02403 24.2169 6.11103 24.1169L8.74504 21.0339C8.84204 20.9199 8.96305 20.8298 9.10005 20.7688Z" fill="#B3B3B3"/>
<path d="M39.112 45.382C40.981 43.291 40.481 37.962 39.5 36L43 36.5L45.5 34.5L46 36L44.198 40L39.112 45.382C39.076 45.422 39.038 45.462 39 45.5L39.112 45.382Z" fill="#C53E0D"/>
<path d="M17.606 25.6822C19.832 29.0772 10.232 32.2182 11.755 36.6772C11.815 36.8542 11.623 37.0471 11.456 36.9621L7.31301 34.8441C7.10201 34.7361 6.93602 34.5572 6.84502 34.3382L4.62704 29.0152C4.53604 28.7962 4.52501 28.5512 4.59801 28.3252L5.81802 24.5271C5.92202 24.2041 6.18203 23.9552 6.51003 23.8672L6.98403 23.7392L8.13503 23.5752C9.69203 23.3532 11.274 23.3611 12.829 23.6001C14.599 23.8711 16.623 24.1842 17.606 25.6822Z" fill="#E6E6E6"/>
<path d="M11 34.0002C9 34.0002 8 34.0002 5.5 36.5002C4.879 37.1202 4.45098 34.8532 4.45498 32.9232C4.45798 31.2482 5.58399 29.7062 7.22299 29.3642C8.62599 29.0712 10.199 29.1112 10.707 29.1872C12.424 30.4582 11.529 33.2852 11 34.0002Z" fill="#383838"/>
<path d="M15.2049 25C15.8704 25 16.4099 25.5395 16.4099 26.205C16.4099 26.8705 15.8704 27.41 15.2049 27.41C14.5394 27.41 13.9999 26.8705 13.9999 26.205C13.9999 25.5395 14.5394 25 15.2049 25Z" fill="#1A1A1A"/>
<path d="M8.20482 25C7.53931 25 6.99982 25.5395 6.99982 26.205C6.99982 26.8705 7.53931 27.41 8.20482 27.41C8.87032 27.41 9.40982 26.8705 9.40982 26.205C9.40982 25.5395 8.87032 25 8.20482 25Z" fill="#1A1A1A"/>
<path d="M35.559 49.1712C26.141 48.2242 22.939 38.9572 22.47 33.7862C22.432 33.3722 22.674 32.9882 23.061 32.8372C26.165 31.6312 28.608 31.7502 30.739 32.2662C33.005 32.8142 35.109 34.0392 36.46 35.9382C39.111 39.6652 40.491 44.7752 41.088 47.8472C41.175 48.2982 40.932 48.7472 40.486 48.8562C38.886 49.2482 36.389 49.2662 35.559 49.1712Z" fill="#B3B3B3"/>
<path d="M40.5 48.5C29 45.5 26.5 40 23 33.5L25.5 32L32 32.5L36.5 35.5L39.5 41.5L41 47.5L40.5 48.5Z" fill="#757575"/>
<path d="M18.9781 13.2508C19.1844 13.2448 19.3839 13.3246 19.5299 13.4705C21.1748 15.1156 21.8079 17.0157 22.4527 19.1004C23.0765 21.1173 23.7319 23.387 25.276 26.0916C26.9027 26.3025 29.8028 26.8629 32.7603 28.2088C35.8854 29.6311 39.1391 31.96 40.9674 35.7371C41.3625 35.8724 41.6184 35.9247 41.9273 35.8533C42.3291 35.7604 42.9495 35.4193 43.9566 34.3289L43.9576 34.328L44.1148 34.1776C44.4988 33.8506 45.002 33.6969 45.484 33.7889C45.765 33.8426 46.0429 33.9835 46.2535 34.2274C46.4392 34.4428 46.5447 34.7062 46.5768 34.9862L46.5865 35.1073L46.5904 35.3729C46.5651 37.8985 44.8252 41.3306 41.0094 44.284C41.3699 45.561 41.6368 46.7365 41.8248 47.7039L41.8463 47.8524C41.9163 48.5439 41.5557 49.2749 40.8268 49.536L40.6646 49.5848C39.8681 49.7799 38.8937 49.8817 38.0074 49.9305C37.7426 50.2707 37.4444 50.6075 37.1041 50.9324C34.8564 53.0787 31.0002 54.6852 24.2867 54.6883C22.3408 54.6893 20.3708 54.3296 18.5777 53.4891L18.2213 53.3143C16.767 52.5691 15.5366 51.7278 14.5103 50.7655C13.5261 50.9591 12.5177 50.9274 11.5338 50.6121C9.46119 49.9478 8.01854 48.2082 7.30917 46.0555C6.59959 43.9014 6.5986 41.2766 7.43027 38.6815C7.67353 37.9226 7.97708 37.2035 8.32968 36.5321C8.30601 36.5153 8.28183 36.4992 8.25839 36.4823C7.95668 36.2634 7.67781 36.0273 7.41659 35.783C7.02129 36.0899 6.56703 36.4929 6.02988 37.0301L5.88339 37.1551C5.71662 37.2763 5.48847 37.3757 5.20859 37.3504C4.8536 37.3181 4.61925 37.1022 4.49374 36.949C4.25344 36.6555 4.1101 36.2268 4.01523 35.8504C3.81168 35.0424 3.70259 33.9273 3.70468 32.9207C3.70638 32.0637 3.95667 31.2272 4.40195 30.5184C3.37835 25.791 6.20521 21.7832 9.34042 19.8885C10.4835 19.1979 14.5401 17.8887 18.4391 13.5028C18.5763 13.3484 18.7717 13.2569 18.9781 13.2508ZM18.9918 15.1131C15.0526 19.2499 10.9167 20.6886 10.1158 21.1727C7.5985 22.694 5.43907 25.6601 5.72421 29.1776C6.12567 28.922 6.57688 28.7325 7.06894 28.6297C8.374 28.3572 9.81073 28.3523 10.5475 28.4149L10.818 28.4451L10.9078 28.4637C10.9958 28.4882 11.0791 28.5292 11.1529 28.5838C12.3102 29.4405 12.5275 30.7856 12.443 31.8602C12.3592 32.9235 11.9682 33.9525 11.6031 34.4461L10.9996 33.9989V33.9998L11.6031 34.4461C11.4617 34.6372 11.2374 34.7498 10.9996 34.7498C10.0164 34.7498 9.41466 34.7589 8.77988 34.9871C8.89595 35.0833 9.01443 35.1785 9.13827 35.2684C10.3566 36.152 11.9954 36.7472 14.2467 36.5926C14.6599 36.5642 15.0181 36.8766 15.0465 37.2899C15.0742 37.7026 14.7621 38.0603 14.3492 38.0887C13.4569 38.1499 12.6369 38.1064 11.8834 37.9813C11.7897 41.5697 12.195 44.3237 13.2281 46.5135C14.3041 48.7935 16.0975 50.5408 18.9049 51.9793L19.2144 52.1307C20.7746 52.862 22.5195 53.1892 24.2857 53.1883C30.6498 53.1854 34.0598 51.6901 35.9527 49.95C35.7715 49.9412 35.613 49.9303 35.484 49.9158H35.4742C30.5022 49.4127 27.165 46.7029 25.0328 43.4764C22.9128 40.2684 21.9662 36.5321 21.7232 33.8543L21.7164 33.7147C21.7103 33.017 22.1392 32.392 22.7887 32.1385L22.7896 32.1375C26.0568 30.8682 28.6589 30.9905 30.9156 31.5369C33.3184 32.1181 35.5951 33.4271 37.0719 35.5028C38.625 37.6864 39.7482 40.3116 40.5406 42.741C43.8188 40.0466 45.0872 37.1517 45.0894 35.3192C45.0796 35.3275 45.0681 35.3367 45.0582 35.3475C43.9875 36.5065 43.1126 37.1182 42.2662 37.3143C41.3953 37.5158 40.6899 37.2369 40.1656 37.0448C39.9776 36.9757 39.825 36.8334 39.7418 36.6512C38.1459 33.1471 35.1543 30.9463 32.1393 29.574C29.1247 28.2021 26.1548 27.6912 24.7301 27.534C24.4954 27.5081 24.2857 27.3731 24.1656 27.1698C22.3886 24.1549 21.6636 21.6276 21.0191 19.5438C20.4621 17.7426 19.9781 16.3341 18.9918 15.1131ZM9.62753 37.2869C9.32915 37.8632 9.06958 38.4825 8.85898 39.1395C8.11348 41.4658 8.13383 43.7637 8.73398 45.5858C9.3345 47.4082 10.4893 48.7018 11.9918 49.1834C12.3978 49.3135 12.8177 49.3784 13.2447 49.3846C12.7087 48.6984 12.2512 47.9584 11.8717 47.1541C10.662 44.5903 10.2627 41.4616 10.3941 37.6014C10.1284 37.5078 9.87337 37.4017 9.62753 37.2869ZM30.5631 32.9949C28.558 32.5094 26.273 32.3926 23.3326 33.535L23.3336 33.536C23.2728 33.5598 23.2341 33.6078 23.2213 33.6619L23.2174 33.7176C23.4436 36.2107 24.3322 39.6946 26.2848 42.6492C28.1632 45.4916 31.0095 47.8286 35.2223 48.3778L35.6344 48.4246L35.6441 48.4256C36.0025 48.4666 36.7903 48.4879 37.7008 48.4471C38.6092 48.4063 39.5778 48.3067 40.3082 48.1278L40.3248 48.1209C40.3277 48.1187 40.3329 48.113 40.3385 48.1033C40.3504 48.0826 40.362 48.0427 40.3521 47.9901L40.232 47.3973C39.5865 44.3296 38.2452 39.7415 35.8492 36.3729C34.624 34.6508 32.6921 33.5099 30.5631 32.9949ZM10.4 29.9071C9.81994 29.8598 8.53195 29.856 7.37558 30.0975C6.12304 30.3591 5.2074 31.5625 5.20468 32.9237C5.20277 33.8458 5.30507 34.8293 5.46933 35.4823C6.50435 34.5073 7.33819 33.9312 8.16757 33.6121C8.98469 33.2979 9.74993 33.2573 10.5611 33.2518C10.7189 32.9057 10.8998 32.3515 10.9478 31.743C11.0077 30.9819 10.8515 30.3301 10.4 29.9071Z" fill="#1A1A1A"/>
</svg>
