<svg width="48" height="55" viewBox="0 0 48 55" fill="none" xmlns="http://www.w3.org/2000/svg">
<path d="M6.51401 35.697L8.588 33L10.775 34.039L12.061 36.509L18.335 36.459L19.333 34.382L21.76 33.034L24.405 35.16H25.961L33.377 34.382L39.391 35.16L41.675 38.376L43.114 40.687L45.202 45.222V48.074L44.061 51.186L42.505 52.431L36.497 54.194L30.791 51.86L25.961 52.431L20.411 54.194H18.596L17.092 51.86L8.95 51.186L4.075 53.105L2.259 51.86L2 50.097L5.022 47.99L4.689 43.378L6.51401 35.697Z" fill="#E6E6E6"/>
<path d="M19.6022 49.2505C20.0164 49.2505 20.3522 49.5863 20.3522 50.0005C20.352 50.3641 20.0932 50.6665 19.7496 50.7349V51.9233C19.808 51.9628 19.894 52.0238 19.9811 52.1108C20.0299 52.1597 20.073 52.2108 20.0953 52.2368C20.109 52.2527 20.1175 52.2628 20.1256 52.272C20.1279 52.2745 20.1299 52.2771 20.1315 52.2788V52.2778C20.1343 52.28 20.141 52.2852 20.1598 52.2974L20.1676 52.3022L20.1744 52.3071L20.316 52.4028L20.319 52.4048C20.379 52.4448 20.4167 52.4706 20.4664 52.5034L20.4723 52.5073C20.4829 52.5098 20.4947 52.5119 20.5065 52.5151C20.5473 52.5264 20.6313 52.5524 20.7233 52.6089L20.7379 52.6177L20.7526 52.6274C20.7653 52.6361 20.777 52.6458 20.7887 52.6548C20.8144 52.6647 20.8374 52.6731 20.8551 52.6812C20.8564 52.6817 20.8578 52.6825 20.859 52.6831H22.316C22.7299 52.6833 23.0658 53.0192 23.066 53.4331C23.0658 53.847 22.7299 54.1829 22.316 54.1831H20.8073C20.7718 54.1832 20.5996 54.1889 20.4156 54.1265L20.403 54.1226C20.3605 54.1073 20.324 54.0911 20.2994 54.0796C20.2876 54.074 20.276 54.0678 20.2662 54.063C20.2468 54.0589 20.2201 54.0537 20.192 54.0454C20.1694 54.0387 20.1355 54.0275 20.0953 54.0103L19.9586 53.936L19.9508 53.9302L19.942 53.9243C19.9341 53.9186 19.9271 53.9116 19.9196 53.9058C19.7728 53.8477 19.6526 53.7636 19.6373 53.7534V53.7524C19.5882 53.72 19.5275 53.6799 19.4869 53.6528V53.6519C19.4329 53.6161 19.3789 53.5801 19.3307 53.5474V53.5464C19.2645 53.5031 19.1697 53.4381 19.0709 53.3394L19.066 53.3345C19.0203 53.2878 18.978 53.238 18.9576 53.2144C18.9448 53.1994 18.9366 53.1893 18.9293 53.1812C18.9233 53.1744 18.9207 53.1716 18.9205 53.1714C18.9281 53.1789 18.9326 53.1807 18.8873 53.1509L18.8844 53.1489C18.8241 53.1088 18.7868 53.0823 18.7369 53.0493L18.734 53.0474C18.7203 53.0382 18.6205 52.9767 18.5221 52.8813L18.4264 52.7749L18.4205 52.7671C18.2359 52.516 18.2495 52.2497 18.2496 52.2212V50.5044C18.2496 50.4281 18.2522 50.2532 18.358 50.0454C18.3764 50.0091 18.3942 49.9775 18.4069 49.9565C18.4208 49.9336 18.4355 49.9111 18.444 49.8979C18.4462 49.8944 18.449 49.8909 18.4508 49.8882C18.4678 49.8419 18.5464 49.6353 18.7662 49.4917L18.7653 49.4907L18.7682 49.4897C18.7692 49.4891 18.7702 49.4876 18.7711 49.4868L18.7721 49.4878C18.7917 49.4753 18.8119 49.466 18.8297 49.4565C18.8602 49.4301 18.8941 49.4025 18.9332 49.3784L18.9352 49.3813C19.1006 49.2792 19.2616 49.2609 19.3082 49.2563C19.3727 49.2501 19.4364 49.2505 19.4528 49.2505H19.6022ZM20.3248 53.2544L20.3307 53.2476L20.7028 52.6411L20.3248 53.2544ZM35.4694 49.269C35.7622 48.9762 36.237 48.9762 36.5299 49.269C36.8027 49.5418 36.8208 49.9717 36.5856 50.2661C36.5772 50.2894 36.5697 50.316 36.5573 50.3423L36.5543 50.3491L36.5504 50.3569C36.5372 50.3833 36.5242 50.4058 36.5133 50.4233C36.5116 50.4259 36.509 50.4287 36.5074 50.4312C36.4836 50.4824 36.4428 50.5556 36.3746 50.6294C36.3582 50.653 36.3424 50.6726 36.3297 50.688L36.3258 50.6948L36.3229 50.7017C36.2796 50.7838 36.2301 50.8424 36.2057 50.8706C36.1922 50.8862 36.18 50.8997 36.1725 50.9077C36.1687 50.9118 36.1651 50.916 36.1627 50.9185C36.16 50.9213 36.1583 50.9228 36.1569 50.9243L36.1432 50.939L36.1285 50.9526C36.1236 50.9573 36.1181 50.9622 36.1119 50.9683C36.1106 50.9706 36.1094 50.9738 36.108 50.9761C36.1008 50.9885 36.0903 51.0064 36.0778 51.0259L36.0719 51.0327C36.0418 51.1104 36.0055 51.1843 35.9655 51.2456L35.9664 51.2466C35.9653 51.2482 35.9636 51.2499 35.9625 51.2515C35.9604 51.2548 35.9589 51.259 35.9567 51.2622L35.9547 51.2612C35.9362 51.2889 35.9191 51.313 35.9069 51.3286C35.9058 51.3304 35.904 51.333 35.902 51.3364C35.8979 51.3435 35.8898 51.3577 35.8815 51.3716C35.875 51.3823 35.8653 51.396 35.8551 51.4116L35.8561 51.4126C35.8548 51.4145 35.8524 51.4166 35.8512 51.4185C35.8492 51.4215 35.8474 51.4251 35.8453 51.4282L35.8444 51.4272C35.8026 51.4897 35.7601 51.5376 35.7272 51.5718C35.7251 51.5754 35.7235 51.5798 35.7213 51.5835C35.7141 51.5959 35.7037 51.6145 35.691 51.6343L35.6852 51.6421L35.6803 51.6499L35.0729 51.2368L35.0504 51.2222L35.6803 51.6499C35.6362 51.7148 35.5907 51.7636 35.5612 51.7944C35.5589 51.7983 35.5567 51.8031 35.5543 51.8071C35.5461 51.8212 35.5337 51.8425 35.5182 51.8657L35.5143 51.8706L35.4215 51.9888C35.394 52.0194 35.3709 52.0413 35.359 52.0532C35.3276 52.0846 35.2713 52.1415 35.1901 52.2095L35.1852 52.2144L35.1842 52.2134C35.0926 52.2886 35.0657 52.3066 35.0006 52.3638C34.948 52.41 34.8918 52.4658 34.8239 52.5337L34.6578 52.6997C34.6152 52.7423 34.5493 52.8091 34.4625 52.8774L34.4615 52.8765C34.414 52.9142 34.3479 52.9617 34.318 52.9829C34.0318 53.27 33.5681 53.2789 33.2721 52.9985C32.9717 52.7139 32.9586 52.2397 33.2428 51.939L33.3121 51.8706C33.3386 51.8465 33.3699 51.8203 33.4078 51.7915L33.4186 51.7837L33.4576 51.7554C33.4698 51.7468 33.4799 51.74 33.4899 51.7329C33.5103 51.7183 33.5226 51.7087 33.5289 51.7036L33.5348 51.6987L33.5973 51.6392C33.6458 51.5897 33.7078 51.5287 33.7633 51.4731C33.8252 51.4113 33.9152 51.3204 34.0104 51.2368C34.0874 51.1692 34.1961 51.084 34.2272 51.0591L34.2867 51.0034C34.2878 51.0017 34.2886 50.9994 34.2897 50.9976C34.2987 50.9823 34.3115 50.96 34.3278 50.936H34.3287C34.373 50.8702 34.4197 50.8178 34.4479 50.7886C34.4507 50.7838 34.4545 50.7782 34.4576 50.7729C34.4666 50.758 34.4788 50.7375 34.4938 50.7153H34.4948C34.5397 50.6486 34.5896 50.5923 34.6129 50.5679C34.616 50.5627 34.6201 50.5571 34.6237 50.5513C34.632 50.5374 34.6443 50.518 34.6588 50.4966C34.6681 50.4827 34.6778 50.4699 34.6862 50.4585C34.6955 50.4304 34.7072 50.3967 34.7233 50.3628L34.7262 50.356L34.7301 50.3491L34.7906 50.2456C34.803 50.2276 34.8147 50.2121 34.8219 50.2026C34.8268 50.1941 34.8355 50.1804 34.8444 50.1655C34.8513 50.154 34.8601 50.1388 34.8707 50.1226C34.9298 50.0307 35.0034 49.9562 35.0123 49.9478L35.0172 49.9419C35.0599 49.8623 35.1068 49.8049 35.1305 49.7778C35.1485 49.7458 35.1741 49.7113 35.2037 49.6743C35.2341 49.5969 35.2732 49.5207 35.3131 49.4585L35.3229 49.4429C35.385 49.3513 35.4483 49.2901 35.4694 49.269ZM3.94495 48.2505C4.35894 48.2507 4.69495 48.5864 4.69495 49.0005C4.69478 49.364 4.43582 49.6663 4.09241 49.7349V50.9233C4.11437 50.9382 4.14064 50.956 4.16858 50.9771L4.31995 51.106L4.32483 51.1108L4.32971 51.1167C4.37551 51.1634 4.41774 51.2128 4.43909 51.2378C4.4521 51.253 4.46163 51.2642 4.46936 51.2729C4.47114 51.275 4.47291 51.2773 4.47424 51.2788C4.47919 51.2823 4.48999 51.2891 4.50842 51.3013L4.51135 51.3032C4.57946 51.3486 4.60671 51.3684 4.65393 51.3989L4.23303 52.0483L4.2467 52.0288L4.65393 51.3989L4.66077 51.4038L4.66858 51.4087C4.71872 51.4428 4.76459 51.474 4.8092 51.5034L4.81213 51.5054L4.81409 51.5063C4.82539 51.509 4.8385 51.5116 4.8512 51.5151C4.89292 51.5268 4.9757 51.5533 5.06604 51.6089L5.07483 51.6138L5.08362 51.6196C5.10064 51.6308 5.11719 51.6431 5.13245 51.6548C5.15919 51.6652 5.18285 51.6748 5.20081 51.6831H6.65881C7.0725 51.6836 7.4086 52.0194 7.40881 52.4331C7.40862 52.8469 7.07251 53.1826 6.65881 53.1831H5.15002C5.1139 53.1831 4.94485 53.1891 4.76233 53.1284L4.75354 53.1255L4.74573 53.1226C4.70342 53.1073 4.66704 53.0903 4.64221 53.0786C4.63127 53.0735 4.62024 53.0676 4.61096 53.063C4.59152 53.0589 4.56435 53.0537 4.53577 53.0454C4.51309 53.0388 4.47837 53.0275 4.43811 53.0103L4.30139 52.936L4.28772 52.9263L4.27307 52.9155C4.26914 52.9126 4.26515 52.9088 4.26135 52.9058C4.11922 52.8492 4.00156 52.7678 3.9801 52.7534V52.7524C3.92658 52.7171 3.87294 52.6816 3.82483 52.6489V52.6479C3.77292 52.614 3.71011 52.5718 3.67932 52.5513V52.5503C3.62293 52.5131 3.51948 52.445 3.4137 52.3394L3.91858 51.8345L3.89514 51.8569L3.4137 52.3394L3.40881 52.3345C3.36285 52.2876 3.32084 52.2375 3.29944 52.2124C3.28654 52.1973 3.27781 52.1869 3.27014 52.1782L3.26917 52.1772L3.2301 52.1509L3.22717 52.1489L3.08459 52.0532L3.07092 52.0435L3.4928 51.4233L3.50159 51.4097L3.07092 52.0435C3.0503 52.0294 3.00539 51.9993 2.96252 51.9663C2.94388 51.9519 2.91378 51.9279 2.87952 51.896L2.76917 51.7749L2.76331 51.7671C2.62416 51.5778 2.59699 51.3799 2.59241 51.2817V49.5044C2.59241 49.4281 2.59383 49.2534 2.69983 49.0454L2.75159 48.9556C2.76463 48.9342 2.77782 48.9124 2.78577 48.8999C2.78829 48.8959 2.79073 48.8921 2.7926 48.8892C2.80705 48.8512 2.88145 48.6462 3.09827 48.4995L3.09729 48.4985C3.10115 48.496 3.1062 48.4942 3.10999 48.4917C3.11553 48.4881 3.12085 48.4835 3.12659 48.48L3.12854 48.4819C3.14279 48.4731 3.15735 48.4666 3.17053 48.4595C3.19866 48.4348 3.22943 48.4092 3.26526 48.3862L3.26624 48.3872C3.43669 48.2781 3.60554 48.2607 3.651 48.2563C3.71584 48.2501 3.77993 48.2505 3.79553 48.2505H3.94495ZM4.66467 52.2603L4.67346 52.2476L5.04553 51.6411L4.66467 52.2603ZM33.4694 48.1431C33.7622 47.8502 34.237 47.8502 34.5299 48.1431C34.8032 48.4163 34.8212 48.8476 34.5846 49.1421C34.5765 49.1644 34.5681 49.1893 34.5563 49.2144L34.5573 49.2153C34.5563 49.217 34.5542 49.2185 34.5533 49.2202C34.552 49.2231 34.5518 49.2271 34.5504 49.23L34.5485 49.229C34.5393 49.2473 34.5287 49.2632 34.5201 49.2778C34.5191 49.2804 34.5193 49.284 34.5182 49.2866C34.495 49.3399 34.4482 49.4264 34.3649 49.5132C34.3534 49.5291 34.3427 49.5445 34.3317 49.5581C34.3311 49.5593 34.3303 49.5608 34.3297 49.562L34.3258 49.5688L34.3229 49.5757C34.2794 49.6581 34.2299 49.7176 34.2028 49.7485C34.1757 49.7794 34.1487 49.8065 34.1432 49.812H34.1422V49.813L34.1412 49.814H34.1403V49.8149H34.1393V49.8159H34.1383V49.8169H34.1373V49.8179H34.1364V49.8188L34.1354 49.8198H34.1344V49.8208H34.1334V49.8218H34.1324V49.8228H34.1315V49.8237H34.1305V49.8247H34.1295V49.8257H34.1285V49.8267H34.1276V49.8276H34.1266V49.8286H34.1256V49.8296H34.1246V49.8306H34.1237V49.8315H34.1227V49.8325H34.1217V49.8335H34.1207V49.8345H34.1198V49.8354H34.1188V49.8364H34.1178V49.8374H34.1168V49.8384H34.1158V49.8394H34.1149V49.8403H34.1139V49.8413H34.1129V49.8423H34.1119C34.1104 49.845 34.1086 49.8484 34.1071 49.8511C34.1001 49.8629 34.0898 49.8793 34.0778 49.8979C34.0468 49.9796 34.0056 50.0641 33.9567 50.1362L33.9557 50.1353C33.937 50.163 33.9183 50.1868 33.9059 50.2026L33.9049 50.2056C33.9008 50.2127 33.8921 50.2271 33.8834 50.2417C33.8752 50.2555 33.8628 50.2747 33.8483 50.2964L33.8492 50.2974C33.8043 50.3647 33.7561 50.4156 33.7262 50.4468C33.7244 50.4501 33.7232 50.4542 33.7213 50.4575C33.7141 50.4699 33.7037 50.4886 33.691 50.5083L33.6735 50.5337L33.068 50.1069L33.0621 50.104L33.6735 50.5337C33.6346 50.5889 33.5943 50.632 33.5602 50.6675C33.5584 50.6708 33.5572 50.6749 33.5553 50.6782C33.5481 50.6906 33.5377 50.7093 33.525 50.729L33.5192 50.7368L33.5143 50.7446L33.4215 50.8628C33.394 50.8935 33.3709 50.9153 33.359 50.9272C33.3219 50.9643 33.27 51.0153 33.1959 51.0786L33.1901 51.0835L33.1852 51.0874L33.0006 51.2378C32.948 51.284 32.8918 51.3398 32.8239 51.4077L32.8199 51.4116C32.7573 51.4733 32.7037 51.5269 32.6578 51.5728C32.6221 51.6085 32.5517 51.6813 32.4625 51.7515L32.4615 51.7505C32.4223 51.7817 32.3853 51.8103 32.361 51.8276C32.3434 51.8401 32.3391 51.8433 32.3268 51.8521C32.3233 51.8545 32.3202 51.8563 32.318 51.8579L32.2614 51.9087C31.9668 52.149 31.5321 52.1324 31.2574 51.8579C30.9647 51.5651 30.9649 51.0903 31.2574 50.7974L31.4078 50.6655L31.4567 50.6304C31.4662 50.6236 31.485 50.6099 31.4918 50.605C31.514 50.5893 31.5245 50.5812 31.5289 50.5776L31.5348 50.5728C31.5355 50.5722 31.5386 50.5695 31.5465 50.562C31.5512 50.5575 31.5576 50.5518 31.566 50.5435C31.5756 50.534 31.5839 50.5256 31.5973 50.5122C31.6433 50.4662 31.7002 50.4092 31.7672 50.3433C31.8289 50.2815 31.9171 50.1928 32.0104 50.1108C32.0832 50.0469 32.1841 49.9677 32.2213 49.938C32.2502 49.9133 32.2701 49.8938 32.2867 49.8774C32.2884 49.8747 32.2899 49.8715 32.2916 49.8687C32.3006 49.8536 32.3125 49.8325 32.3278 49.8101L32.3287 49.811C32.3742 49.7434 32.4249 49.6867 32.4479 49.6626C32.4507 49.6578 32.4544 49.6523 32.4576 49.647C32.4666 49.632 32.4788 49.6115 32.4938 49.5894H32.4948C32.5395 49.5226 32.5849 49.4711 32.6139 49.4409C32.6162 49.4369 32.6191 49.4325 32.6217 49.4282L32.6598 49.3677C32.6689 49.3541 32.6788 49.3418 32.6871 49.3306C32.6962 49.3035 32.7078 49.2714 32.7242 49.2368H32.7233C32.7466 49.1876 32.7707 49.1487 32.7877 49.1235C32.8042 49.0993 32.8195 49.079 32.8258 49.0708C32.8302 49.063 32.836 49.0523 32.8424 49.0415C32.8495 49.0296 32.8591 49.0134 32.8707 48.9956C32.931 48.9018 32.9994 48.8323 33.0201 48.812C33.0644 48.7302 33.1111 48.6723 33.1324 48.6479C33.1336 48.6466 33.1352 48.6453 33.1364 48.644C33.1543 48.6131 33.1767 48.5781 33.2057 48.5425C33.2357 48.4671 33.2742 48.3932 33.3131 48.3325L33.3229 48.3169C33.3851 48.2253 33.4483 48.1641 33.4694 48.1431ZM35.568 51.7778L34.9615 51.3657L34.9391 51.3511L35.568 51.7778ZM35.901 51.3364L35.2809 50.9155L35.6246 51.1362L35.2574 50.8999L35.901 51.3364ZM35.817 50.8813L35.4469 50.6206L35.9137 50.9204L35.4381 50.6147L35.817 50.8813ZM36.1119 50.9185C36.1127 50.9161 36.1142 50.9137 36.1149 50.9116C36.1175 50.9029 36.1194 50.8953 36.1207 50.8901C36.121 50.8891 36.1215 50.888 36.1217 50.8872C36.1228 50.883 36.1229 50.8795 36.1227 50.8804C36.1219 50.8833 36.1174 50.8977 36.1119 50.9185ZM36.2975 50.688L35.6676 50.3569L35.652 50.3491L36.2975 50.688ZM33.276 50.4536L33.275 50.4526L32.9615 50.2397L32.9391 50.2251L33.276 50.4536ZM19.5895 50.4458L19.3268 50.0171L19.316 50.0005L19.5895 50.4458ZM36.4938 50.3843C36.4945 50.3819 36.4961 50.3799 36.4967 50.3784C36.4973 50.3764 36.4976 50.3742 36.4977 50.3735C36.4972 50.375 36.4954 50.3789 36.4938 50.3843ZM19.4528 50.3433L19.2819 50.0913L19.2643 50.0669L19.4528 50.3433ZM36.5299 50.3286L36.5319 50.3276V50.3257C36.5312 50.3265 36.5306 50.3279 36.5299 50.3286ZM33.901 50.2095L33.2809 49.7886L33.9039 50.2036L33.2213 49.7485L33.901 50.2095ZM35.774 50.189L35.7653 50.1841L35.1178 49.8784L35.774 50.189ZM35.1559 49.8306C35.1561 49.8294 35.1574 49.8275 35.1578 49.8257V49.8237C35.1571 49.8265 35.1562 49.8291 35.1559 49.8306ZM34.111 49.7935C34.1116 49.7914 34.1132 49.7895 34.1139 49.7876C34.1174 49.7758 34.1203 49.7659 34.1217 49.7603C34.123 49.7552 34.123 49.7511 34.1227 49.7524C34.122 49.7549 34.117 49.7704 34.111 49.7935ZM32.984 49.481L32.9977 49.4858L32.9967 49.4849L32.6764 49.3706L32.984 49.481ZM3.94788 49.4526L3.94885 49.4536L3.94495 49.4468L3.79553 49.2134L3.66956 49.0171L3.94788 49.4526ZM4.19202 49.4272C4.19292 49.4249 4.19453 49.4232 4.19495 49.4224V49.4204C4.19439 49.4219 4.19308 49.4243 4.19202 49.4272ZM33.9967 49.4038L33.9957 49.4028L33.6764 49.2349L33.652 49.2231L33.9967 49.4038ZM34.4684 49.3237C34.4693 49.3216 34.4714 49.3198 34.4723 49.3179C34.4733 49.3155 34.4734 49.3123 34.4742 49.3101C34.4726 49.3144 34.4702 49.319 34.4684 49.3237ZM34.5455 49.2085C34.5474 49.203 34.55 49.1979 34.5514 49.1938C34.5525 49.1904 34.5533 49.1858 34.5543 49.1821C34.5534 49.1852 34.5499 49.1948 34.5455 49.2085ZM34.5299 49.2026L34.5319 49.2017V49.1997C34.5312 49.2005 34.5307 49.2019 34.5299 49.2026ZM33.5885 48.9751H33.5905L33.5914 48.9761H33.5895L33.774 49.063L33.7653 49.0581L33.5905 48.9751L33.5612 48.9448L33.5592 48.9438L33.5885 48.9751ZM33.066 48.8003C33.0631 48.8088 33.0608 48.8184 33.0592 48.8237C33.0596 48.8225 33.0651 48.8072 33.0729 48.7847C33.0706 48.7905 33.0677 48.7957 33.066 48.8003ZM13.5709 35.9224C13.8721 35.9225 14.1303 36.1008 14.2496 36.3569V36.1802L16.1354 36.3501L16.2106 36.3608C16.4975 36.4162 16.7175 36.633 16.7897 36.9058C17.0031 37.038 17.1471 37.272 17.1471 37.5415C17.1471 37.5447 17.1465 37.5594 17.1461 37.5747C17.1457 37.5912 17.1444 37.6202 17.1403 37.6548C17.1371 37.6809 17.1236 37.782 17.066 37.9019C17.0525 37.9436 17.0337 37.9914 17.0065 38.0405C16.9959 38.0751 16.9844 38.1109 16.9713 38.144L16.9664 38.1577L16.9606 38.1704C16.9404 38.2164 16.9183 38.2536 16.901 38.2827C16.8914 38.3142 16.8711 38.3817 16.8483 38.4448L16.8473 38.4438C16.8162 38.5313 16.7788 38.6192 16.7477 38.686L16.7438 38.6929L16.7408 38.6997C16.7227 38.7367 16.7047 38.771 16.692 38.7954C16.6779 38.8226 16.6713 38.8356 16.6666 38.8452L16.6637 38.8521L16.6598 38.8579C16.6594 38.8588 16.6591 38.8603 16.6588 38.8608L16.6559 38.8687L16.6549 38.8735C16.6521 38.8822 16.6209 38.9807 16.5836 39.0718L16.5797 39.0806C16.5598 39.1274 16.5354 39.1795 16.5201 39.2124C16.5023 39.251 16.4868 39.2857 16.4723 39.3208C16.4396 39.3998 16.4044 39.4973 16.3639 39.6118L16.3629 39.6138C16.3211 39.7309 16.279 39.8463 16.2311 39.978L16.2301 39.9829C16.1792 40.12 16.1315 40.2474 16.1041 40.3335V40.3354C16.0918 40.3739 16.0828 40.4056 16.0729 40.4409C16.0645 40.471 16.0485 40.5268 16.0289 40.5825L16.027 40.5903C16.0067 40.6461 15.9821 40.7011 15.9742 40.7192C15.9641 40.7428 15.9563 40.7631 15.9469 40.7896C15.9214 40.8658 15.8868 40.986 15.86 41.0835L15.858 41.0903C15.844 41.1393 15.8357 41.1686 15.8307 41.188C15.8263 41.205 15.8265 41.2052 15.8278 41.1978C15.8292 41.1895 15.8306 41.1799 15.8278 41.2065C15.8267 41.2162 15.8238 41.2391 15.8199 41.2642C15.816 41.2899 15.8086 41.3313 15.7946 41.3794L15.7936 41.3784C15.7686 41.4646 15.7371 41.529 15.7213 41.5581C15.7177 41.5647 15.7135 41.5711 15.7125 41.5728L15.7135 41.5708C15.7158 41.5665 15.7239 41.5498 15.734 41.5269C15.7351 41.5244 15.7368 41.5216 15.7379 41.519C15.7388 41.517 15.7391 41.5143 15.7399 41.5122C15.7624 41.457 15.774 41.4086 15.7799 41.3745L15.3834 41.2593H14.36C14.3679 41.2754 14.3741 41.2875 14.3776 41.2935C14.3731 41.2861 14.3656 41.2739 14.358 41.2603C14.2971 41.2602 14.2911 41.2593 14.2906 41.2593V41.0962C14.2712 41.0334 14.259 40.9786 14.2545 40.937C14.249 40.8849 14.2496 40.8384 14.2496 40.8335V37.6421C14.2361 37.6767 14.2225 37.7079 14.2125 37.729C14.2107 37.7329 14.2085 37.7369 14.2067 37.7407V37.8403C14.2068 37.8605 14.2175 38.0828 14.1373 38.2896L14.1354 38.2886C14.1202 38.3278 14.1042 38.3626 14.0885 38.3921C14.0846 38.4693 14.0733 38.5827 14.0231 38.7124L14.0211 38.7173C14.0071 38.7528 13.9922 38.784 13.984 38.8013C13.9817 38.8061 13.9793 38.8115 13.9772 38.8159V38.9927C13.9775 39.0091 13.9913 39.2389 13.8678 39.4653L13.8639 39.4722V39.5767C13.8639 39.6324 13.8658 39.7879 13.7926 39.9761L13.7936 39.9771C13.7798 40.0125 13.7657 40.0442 13.7555 40.0659C13.7536 40.0698 13.7514 40.0739 13.7496 40.0776V40.5669C13.7495 40.981 13.4138 41.3169 12.9996 41.3169C12.6115 41.3167 12.292 41.022 12.2535 40.644L12.2496 40.5669V39.9819C12.2496 39.9193 12.2508 39.7791 12.318 39.6021L12.3239 39.5845L13.0182 39.8687L13.0358 39.8745L12.3239 39.5845C12.337 39.5523 12.3514 39.5233 12.361 39.5034C12.362 39.5013 12.3629 39.4987 12.3639 39.4966V39.3979C12.3637 39.3778 12.3535 39.1534 12.4371 38.9429C12.4499 38.9106 12.463 38.88 12.4772 38.853V38.813C12.4771 38.7638 12.474 38.5955 12.528 38.4116H12.527C12.5278 38.4088 12.529 38.4057 12.5299 38.4028C12.5303 38.4017 12.5306 38.4001 12.5309 38.3989H12.5319C12.5527 38.3296 12.5773 38.2697 12.5953 38.23C12.5989 38.146 12.6117 38.0093 12.6627 37.8774L13.3258 38.1343L13.3063 38.1255L12.6627 37.8774L12.6647 37.8726L12.7037 37.7847C12.7047 37.7828 12.7057 37.7806 12.7067 37.7788V37.6626L12.7145 37.5103C12.7228 37.4411 12.7396 37.3553 12.776 37.2612L12.7789 37.2534C12.7922 37.2203 12.8062 37.1911 12.816 37.1704C12.8176 37.1671 12.8194 37.163 12.8209 37.1597V36.6724C12.8209 36.2583 13.1569 35.9226 13.5709 35.9224ZM8.70862 33.0005C9.94462 33.8725 12.3792 35.7855 12.2272 36.4595C10.0402 39.1354 7.3456 40.0146 4.99963 41.3706L6.33069 35.3062L8.70862 33.0005ZM15.7809 41.3667C15.7814 41.3637 15.7833 41.3606 15.7838 41.3579C15.7867 41.3379 15.7887 41.3188 15.7897 41.3032C15.7901 41.2956 15.7904 41.2878 15.7906 41.2808V41.2603L15.3971 41.2593L15.7809 41.3667ZM21.7584 33.2134C22.0534 33.0775 22.3975 33.1001 22.6754 33.269L24.2301 34.2095C24.438 34.3355 24.5936 34.5333 24.6666 34.7651L25.6842 38.0112C25.8561 38.5581 25.536 39.1469 24.9772 39.272C23.1369 39.6843 20.7426 39.8235 19.3209 36.6226V36.6655C19.3209 36.7309 19.3221 36.8717 19.2633 37.0503L19.2643 37.0513C19.2526 37.0869 19.2406 37.1194 19.2311 37.1431C19.2226 37.1643 19.2133 37.185 19.2067 37.2007V37.3696C19.2067 37.4047 19.2146 37.6192 19.149 37.8159L19.1481 37.8149C19.1306 37.8674 19.1091 37.9143 19.0905 37.9517C19.0901 38.0258 19.087 38.1545 19.0348 38.311C19.023 38.3462 19.0105 38.3781 19.0026 38.3979C18.9984 38.4084 18.9941 38.4193 18.9908 38.4272C18.9874 38.4358 18.9846 38.4433 18.9821 38.4497C18.9809 38.4525 18.979 38.4552 18.9781 38.4575C18.9781 38.4599 18.9782 38.4631 18.9781 38.4663C18.9779 38.478 18.9772 38.4913 18.9772 38.5112V38.7202C18.9773 38.7408 18.99 38.9584 18.8873 39.1753L18.8844 39.1831L18.8805 39.1899L18.8639 39.2192V39.4058C18.8639 39.4702 18.8665 39.6146 18.8063 39.7954C18.7947 39.8302 18.7824 39.8622 18.7731 39.8853C18.765 39.9051 18.7561 39.9249 18.7496 39.9399V40.5679C18.7492 40.9817 18.4136 41.3179 17.9996 41.3179C17.5858 41.3177 17.25 40.9816 17.2496 40.5679V39.8813C17.2496 39.8215 17.2493 39.6852 17.3073 39.5112L17.3092 39.5044C17.3206 39.4713 17.3333 39.4407 17.3424 39.4185C17.3501 39.3996 17.3578 39.3801 17.3639 39.3657V39.1968L17.3678 39.0317C17.3742 38.9501 17.3905 38.8488 17.4235 38.7505H17.4225C17.4232 38.7483 17.4246 38.7458 17.4254 38.7437C17.4258 38.7424 17.426 38.7401 17.4264 38.7388H17.4274C17.4425 38.6954 17.4604 38.6564 17.4772 38.6226V38.5112C17.4772 38.4479 17.4753 38.282 17.5211 38.1011H17.5201C17.5425 38.0118 17.5727 37.934 17.5895 37.8921C17.591 37.8882 17.5929 37.884 17.5944 37.8804C17.5948 37.8059 17.5996 37.6463 17.65 37.4946L17.7067 37.3618V37.1606L17.7125 37.0103C17.7193 36.9436 17.7341 36.8616 17.7643 36.771L17.7662 36.7642L17.7994 36.6782C17.8072 36.6593 17.8149 36.6396 17.8209 36.6255V36.0005C17.8209 35.5864 18.1569 35.2507 18.5709 35.2505C18.6692 35.2505 18.7632 35.2698 18.8492 35.3042C18.8307 35.2393 18.8106 35.1737 18.7926 35.1069C18.6628 34.7447 20.4948 33.7972 21.7584 33.2134ZM14.3815 41.3003C14.3824 41.3018 14.3823 41.303 14.3824 41.3032C14.382 41.3024 14.3804 41.2984 14.3776 41.2935C14.3794 41.2966 14.3808 41.2991 14.3815 41.3003ZM16.8785 38.3218C16.8738 38.3292 16.8768 38.3247 16.8737 38.3296C16.8745 38.3282 16.8771 38.3248 16.8795 38.3208L16.8785 38.3198V38.3218ZM18.5514 36.8179L18.6696 36.856L18.0953 36.6655L18.5514 36.8179Z" fill="#B3B3B3"/>
<path d="M8.3717 43.9995C9.68171 43.9995 10.7445 44.9299 10.7448 46.0776C10.7448 47.2255 9.68187 48.1567 8.3717 48.1567C7.06168 48.1566 5.99963 47.2254 5.99963 46.0776C5.9999 44.93 7.06185 43.9997 8.3717 43.9995ZM21.3717 43.9995C22.6817 43.9995 23.7445 44.9299 23.7448 46.0776C23.7448 47.2255 22.6819 48.1567 21.3717 48.1567C20.0617 48.1566 18.9996 47.2254 18.9996 46.0776C18.9999 44.93 20.0618 43.9997 21.3717 43.9995Z" fill="#FFAFA3"/>
<path d="M30.4014 44.7856C31.9639 44.4698 33.4876 45.4385 33.879 46.9653L33.9132 47.1147C33.9773 47.432 34.188 47.7906 34.8594 48.1342L35.1768 48.2807L35.5264 48.4125C36.3349 48.6867 37.2363 48.794 37.8829 48.7953C39.6251 48.5376 40.0878 47.7831 40.2051 47.4867C40.2981 47.2499 40.2866 47.0873 40.2667 46.9994C40.2572 46.9576 40.2432 46.9296 40.2354 46.9145C39.9676 46.6462 39.9405 46.2134 40.1846 45.9125C40.4457 45.5909 40.9177 45.5421 41.2393 45.8032C41.4735 45.9932 41.6491 46.3172 41.7286 46.6674C41.8158 47.0517 41.8028 47.5216 41.5997 48.0375V48.0395C41.254 48.9125 40.2787 49.9736 38.0469 50.2885L37.9971 50.2953L37.9473 50.2963C37.0601 50.3028 35.7406 50.1424 34.5977 49.6635C33.4049 49.1645 32.6492 48.4359 32.4425 47.4125C32.2794 46.6116 31.4991 46.0934 30.6983 46.2553L30.6993 46.2563C29.8984 46.419 29.3806 47.2001 29.543 48.0004L29.5919 48.2182C30.1295 50.4353 31.823 51.7087 33.4532 52.392C35.1237 53.0921 36.9493 53.2822 38.1466 53.2514L38.2198 53.2494L38.293 53.2397L38.4825 54.728L38.3721 54.7426L38.336 54.7465L38.1876 54.7504C36.9194 54.7832 35.0395 54.6026 33.2335 53.9194L32.8731 53.7758C32.3103 53.5399 31.7212 53.2307 31.1514 52.8393C29.9948 52.7177 29.0181 52.6207 28.1221 52.5141C26.7976 52.3569 25.3815 52.9553 24.0635 53.7895C23.1445 54.3704 22.0424 54.8406 20.9649 54.9526C19.8716 55.0662 18.7246 54.8099 17.9171 53.8295C17.5001 53.3241 17.2458 52.7955 17.1514 52.2582C16.499 52.3208 15.9177 52.3491 15.1055 52.3491C13.1324 52.349 11.2375 52.1704 9.57819 51.7299C8.795 52.5025 7.51321 53.21 6.25202 53.5766C5.51544 53.7907 4.72659 53.9074 3.9903 53.8276C3.24706 53.747 2.51044 53.4584 1.98444 52.8207C1.4574 52.1811 1.21825 51.4875 1.253 50.7905C1.28703 50.1091 1.57851 49.5047 1.96198 49.0102C2.51724 48.2941 3.32941 47.7247 4.1319 47.3783C3.89098 46.6874 3.76668 45.924 3.76667 45.0883C3.76667 43.48 3.76535 42.2594 4.11823 40.5366C4.29791 38.55 4.84867 35.5838 6.54401 33.2856C7.17291 32.4352 8.27811 32.0591 9.29499 32.3451C9.91759 32.5205 10.6754 32.8251 11.3751 33.436C11.9989 33.9808 12.5447 34.7422 12.919 35.8002C13.5474 35.6289 14.2274 35.4214 15.1055 35.4213C16.0293 35.4213 16.8845 35.6215 17.6534 35.8237C18.0101 34.8109 18.5205 34.0643 19.1085 33.518C19.8195 32.8573 20.6017 32.5283 21.253 32.3451L21.4444 32.2992C22.4046 32.1083 23.421 32.4856 24.002 33.3051C24.3048 33.732 24.5624 34.1835 24.7852 34.6459H25.6202C26.4186 34.6431 27.3815 34.5064 28.4747 34.3491L29.2891 34.2201C29.5908 34.1698 29.9208 34.1125 30.2725 34.0532C30.9687 33.9357 31.7398 33.8097 32.5069 33.7074C33.2726 33.6054 34.0479 33.5251 34.751 33.5033C35.4301 33.4824 36.0991 33.5141 36.6417 33.6616C38.8981 34.2118 40.6859 35.3097 41.9708 36.8774C43.2128 38.3929 43.9494 40.3056 44.2257 42.4907C46.2951 44.3114 46.6899 47.2841 45.7471 49.6742C44.6939 52.3439 42.1133 54.269 38.4825 54.728L38.293 53.2397C41.4839 52.8365 43.5349 51.1936 44.3516 49.1235C45.1292 47.1518 44.7221 44.8231 43.1094 43.5102L43.0977 43.5004L43.086 43.4897L43.5831 42.9282L43.588 42.9203L43.086 43.4897C42.9006 43.3256 42.7862 43.0986 42.7608 42.8578C42.5303 40.8136 41.8704 39.1217 40.8106 37.8285C39.7537 36.5389 38.2626 35.6003 36.2872 35.1186L36.2745 35.1157L36.2628 35.1127L36.1329 35.0805C35.8122 35.0126 35.3619 34.9859 34.7979 35.0033C34.1665 35.0228 33.447 35.0949 32.7051 35.1938C31.965 35.2924 31.215 35.4157 30.5216 35.5326C29.835 35.6485 29.1917 35.7608 28.6895 35.8334C27.6291 35.986 26.5513 36.1427 25.626 36.1459H25.3809C25.4968 36.5055 25.5965 36.8644 25.6817 37.2182C25.7787 37.6208 25.5315 38.0263 25.129 38.1235C24.7263 38.2205 24.3207 37.9724 24.2237 37.5698C23.9329 36.3626 23.4843 35.1688 22.7784 34.1733C22.5362 33.8317 22.0811 33.6708 21.6592 33.7895C21.1586 33.9303 20.6149 34.167 20.13 34.6176C19.6494 35.0641 19.1841 35.7599 18.8985 36.8881L18.8956 36.8871C18.8059 37.2458 18.4855 37.478 18.1407 37.478H18.1221C18.1114 37.4777 18.0915 37.4772 18.0675 37.475C18.0465 37.4731 18.0024 37.4675 17.9454 37.4526C16.914 37.1866 16.0651 36.9213 15.1055 36.9213C14.2545 36.9214 13.8602 37.1372 12.836 37.3725L12.8253 37.3744C12.2782 37.4914 11.7645 37.1518 11.6173 36.6508L11.6163 36.6469L11.4971 36.2778C11.2036 35.4587 10.801 34.9259 10.3887 34.5658C9.97152 34.2015 9.51302 33.9862 9.07526 33.8451L8.88874 33.7895C8.47016 33.6717 8.00829 33.8285 7.75104 34.1752L7.75202 34.1762C6.30983 36.1313 5.78965 38.7472 5.6153 40.643C5.61479 40.6692 5.61276 40.6956 5.60944 40.7221C5.60834 40.7309 5.60583 40.7393 5.60456 40.7475C5.60425 40.7514 5.60398 40.7562 5.60358 40.7612C5.60239 40.7763 5.60093 40.7987 5.5987 40.8217C5.59295 40.8809 5.57705 40.9367 5.55866 40.9907C5.2696 42.47 5.26667 43.537 5.26667 45.0883C5.26669 46.1936 5.53121 47.0727 5.98151 47.7797C6.434 48.4901 7.10148 49.0686 7.96882 49.5268C9.72449 50.4542 12.226 50.849 15.1055 50.8491C15.9936 50.8491 16.5737 50.8117 17.3272 50.7299C17.409 50.536 17.51 50.3527 17.626 50.1821C18.2709 49.2341 19.4021 48.5948 20.4239 48.3549C20.827 48.2605 21.2305 48.5105 21.3253 48.9135C21.4199 49.3166 21.1697 49.7201 20.7667 49.8149C20.0205 49.99 19.2529 50.4575 18.8663 51.0258C18.682 51.2968 18.5973 51.57 18.6094 51.8432C18.6216 52.1149 18.7333 52.4619 19.0743 52.8754L18.3936 53.4369L18.4962 53.353L19.0753 52.8764C19.4686 53.3537 20.0483 53.5404 20.8096 53.4614C21.5869 53.3806 22.4679 53.0228 23.2618 52.5209C24.6517 51.6412 26.4426 50.8042 28.2999 51.0248C28.635 51.0647 28.9814 51.1008 29.3458 51.1401C28.8094 50.4316 28.3793 49.5848 28.1348 48.5776L28.0733 48.2983C27.7458 46.6847 28.7896 45.114 30.4005 44.7866L30.4014 44.7856ZM4.80768 48.7231C4.19538 48.9722 3.55204 49.4076 3.14753 49.9291C2.89522 50.2545 2.76566 50.5724 2.75104 50.8657C2.73728 51.1431 2.82097 51.4773 3.14069 51.8657C3.35013 52.1197 3.67753 52.2849 4.15143 52.3364C4.63249 52.3885 5.21601 52.3155 5.83308 52.1362C6.61082 51.9101 7.34945 51.5425 7.91022 51.1586C7.68982 51.063 7.47537 50.9622 7.26862 50.853C6.26985 50.3254 5.42113 49.6278 4.80768 48.7231ZM4.128 40.4897C4.12737 40.4927 4.12696 40.4973 4.12604 40.5024C4.12727 40.4952 4.12852 40.488 4.12995 40.4809C4.12938 40.4834 4.12868 40.4864 4.128 40.4897ZM18.1466 36.6977L17.4454 36.5199L18.1397 36.6967L18.1466 36.6977L18.171 36.7045L18.1866 36.7074L18.1466 36.6977Z" fill="#1A1A1A"/>
<path d="M8.29457 35.2947C8.47255 35.0528 8.78881 34.9452 9.07875 35.0271C9.43375 35.1271 10.2042 35.8201 10.6432 36.5691C10.821 36.8721 10.611 37.2193 10.2721 37.3104C9.50222 37.5163 8.88523 37.8062 8.17836 38.3221C7.73736 38.6431 7.16238 38.3266 7.30238 37.7986C7.54738 36.8688 7.91064 35.8146 8.29457 35.2947ZM21.9205 35.0271C22.2104 34.9452 22.5267 35.053 22.7047 35.2947C23.0887 35.8146 23.4529 36.8687 23.6979 37.7986C23.8379 38.3266 23.2629 38.6431 22.8219 38.3221C22.115 37.8061 21.498 37.5163 20.7282 37.3104C20.3892 37.2194 20.1791 36.8721 20.3571 36.5691C20.7959 35.8204 21.5654 35.1276 21.9205 35.0271Z" fill="#FFAFA3"/>
<path d="M14.9609 47.5C15.2371 47.5 15.4609 47.7239 15.4609 48C15.4609 48.2761 15.2371 48.5 14.9609 48.5H14C13.7239 48.5 13.5 48.2761 13.5 48C13.5 47.7239 13.7239 47.5 14 47.5H14.9609Z" fill="#1A1A1A"/>
<path d="M24.9371 33.641C26.9749 33.2781 28.4831 33.4039 29.2486 33.5902L29.5299 33.6722L29.6647 33.7357C29.7919 33.8119 29.8947 33.9247 29.9586 34.0609C30.1167 34.3988 30.2446 34.8419 30.3531 35.3578L32.4996 34.5004H36.9996L40.2565 35.8959L40.2721 35.8177C40.3231 35.6138 40.4583 35.4388 40.6461 35.3383C40.8604 35.2237 41.1171 35.2201 41.3346 35.3285C42.5449 35.9336 43.6781 37.1219 44.2272 39.3177C44.254 39.4253 44.2567 39.5382 44.235 39.6469C43.7222 42.2105 42.7595 44.7058 41.2096 49.2416C41.1204 49.5025 40.8947 49.6943 40.6227 49.7396L37.6227 50.2396C37.3691 50.2817 37.1113 50.1902 36.9401 49.9984C36.8164 49.8595 36.7518 49.6817 36.7516 49.5004H35.4996L30.9664 45.4203C30.9677 48.1049 30.9008 50.7715 30.816 52.8246C30.81 52.9678 30.7627 53.1066 30.6803 53.224C30.3513 53.692 29.7727 53.8506 29.3551 53.9183C28.8864 53.9943 28.3407 53.9977 27.8063 53.9672C26.7312 53.9057 25.5602 53.6968 24.8268 53.5228C24.5272 53.4517 24.3013 53.2045 24.2574 52.8998C24.2137 52.595 24.3611 52.2946 24.6285 52.142C24.8055 52.0411 24.9989 51.8369 25.1813 51.4613C25.3633 51.0861 25.512 50.5831 25.6197 49.9574C25.8354 48.7051 25.8695 47.0794 25.777 45.2748C25.5923 41.6735 24.9151 37.5097 24.3326 34.5228C24.2942 34.3258 24.3365 34.1211 24.4498 33.9554C24.5634 33.7897 24.7393 33.6763 24.9371 33.641Z" fill="#14AE5C"/>
<path d="M29.7067 51.3667C29.9824 51.367 30.2065 51.5909 30.2067 51.8667C30.2067 52.1426 29.9825 52.3664 29.7067 52.3667C29.3684 52.3667 29.0294 52.3781 28.7223 52.4204C28.4798 52.4539 28.2176 52.4483 28.0309 52.4507C27.8218 52.4534 27.6713 52.4641 27.5485 52.5005C27.202 52.6038 26.8675 52.6001 26.6012 52.6001C26.3252 52.6001 26.1014 52.3761 26.1012 52.1001C26.1014 51.8241 26.3252 51.6001 26.6012 51.6001C26.8928 51.6001 27.0789 51.5972 27.2623 51.5425C27.5291 51.4632 27.8012 51.4535 28.0172 51.4507C28.256 51.4476 28.4235 51.4516 28.5856 51.4292C28.9604 51.3776 29.3531 51.3667 29.7067 51.3667ZM29.7067 48.8423C29.9825 48.8426 30.2067 49.0663 30.2067 49.3423C30.2066 49.6182 29.9825 49.842 29.7067 49.8423C29.3684 49.8423 29.0294 49.8537 28.7223 49.896C28.4798 49.9295 28.2176 49.9239 28.0309 49.9263C27.8218 49.929 27.6713 49.9397 27.5485 49.9761C27.202 50.0794 26.8675 50.0757 26.6012 50.0757C26.3252 50.0757 26.1015 49.8516 26.1012 49.5757C26.1012 49.2995 26.3251 49.0757 26.6012 49.0757C26.8928 49.0757 27.0789 49.0728 27.2623 49.0181C27.5291 48.9387 27.8012 48.9291 28.0172 48.9263C28.256 48.9232 28.4235 48.9272 28.5856 48.9048C28.9604 48.8531 29.353 48.8423 29.7067 48.8423ZM37.8014 46.1284C37.91 45.8749 38.2039 45.7565 38.4576 45.8647C38.7025 45.9694 38.8478 46.0275 39.0074 46.0415C39.2744 46.0646 39.5153 46.1573 39.6979 46.2319C39.9032 46.3158 40.0341 46.3752 40.1715 46.4106C40.5116 46.4979 40.8468 46.6278 41.1442 46.7544C41.398 46.8625 41.5166 47.1567 41.4088 47.4106C41.3007 47.6647 41.0066 47.7824 40.7526 47.6743C40.4723 47.555 40.1901 47.4481 39.9225 47.3794L40.0465 46.895L39.9215 47.3784C39.6981 47.3208 39.4725 47.2191 39.3199 47.1567C39.145 47.0853 39.0252 47.0466 38.9215 47.0376C38.5777 47.0075 38.2878 46.8799 38.0651 46.7847C37.8112 46.6762 37.693 46.3823 37.8014 46.1284ZM29.7067 46.3169C29.9825 46.3172 30.2065 46.5411 30.2067 46.8169C30.2067 47.0928 29.9825 47.3166 29.7067 47.3169C29.3684 47.3169 29.0294 47.3283 28.7223 47.3706C28.4798 47.4041 28.2176 47.3985 28.0309 47.4009C27.8218 47.4036 27.6713 47.4143 27.5485 47.4507C27.202 47.554 26.8675 47.5503 26.6012 47.5503C26.3252 47.5503 26.1014 47.3263 26.1012 47.0503C26.1013 46.7743 26.3251 46.5503 26.6012 46.5503C26.8928 46.5503 27.0789 46.5474 27.2623 46.4927C27.5291 46.4134 27.8012 46.4037 28.0172 46.4009C28.256 46.3978 28.4235 46.4018 28.5856 46.3794C28.9604 46.3277 29.353 46.3169 29.7067 46.3169ZM39.2174 44.0171C39.3264 43.7635 39.62 43.6465 39.8737 43.7554C40.0699 43.8396 40.1517 43.8687 40.2418 43.8696L40.2408 43.8706C40.4937 43.8724 40.7127 43.9546 40.86 44.0142C41.0343 44.0847 41.1146 44.122 41.2037 44.1411C41.493 44.2031 41.7731 44.3103 42.0114 44.4116C42.2649 44.52 42.383 44.813 42.275 45.0669C42.167 45.3207 41.8737 45.4392 41.6198 45.3315C41.4023 45.239 41.1912 45.1617 40.9948 45.1196C40.7944 45.0768 40.5933 44.9848 40.485 44.9409C40.35 44.8863 40.2827 44.87 40.234 44.8696H40.2321C39.911 44.8664 39.65 44.7467 39.4791 44.6733C39.2255 44.5644 39.1086 44.2708 39.2174 44.0171ZM29.7067 43.7925C29.9825 43.7928 30.2067 44.0165 30.2067 44.2925C30.2065 44.5683 29.9824 44.7922 29.7067 44.7925C29.3684 44.7925 29.0294 44.8039 28.7223 44.8462C28.4798 44.8797 28.2176 44.8741 28.0309 44.8765C27.8217 44.8792 27.6713 44.8899 27.5485 44.9263C27.202 45.0296 26.8675 45.0259 26.6012 45.0259C26.3253 45.0259 26.1016 44.8017 26.1012 44.5259C26.1012 44.2497 26.3251 44.0259 26.6012 44.0259C26.8928 44.0259 27.0789 44.0229 27.2623 43.9683C27.5292 43.8889 27.8011 43.8793 28.0172 43.8765C28.256 43.8734 28.4235 43.8774 28.5856 43.855C28.9604 43.8033 29.353 43.7925 29.7067 43.7925ZM39.2164 41.394C39.325 41.1403 39.6189 41.0221 39.8727 41.1304C40.1412 41.2453 40.3129 41.316 40.5026 41.3374L40.5016 41.3384C40.7787 41.3693 41.0332 41.4664 41.233 41.5483C41.4539 41.6389 41.6063 41.7077 41.7643 41.7505C42.1306 41.8496 42.4958 41.9933 42.8209 42.1323C43.0744 42.241 43.1928 42.5349 43.0846 42.7886C42.976 43.0423 42.6812 43.1605 42.4274 43.0522C42.117 42.9195 41.8017 42.7972 41.5026 42.7163C41.2658 42.6522 41.0257 42.5439 40.8531 42.4731C40.6598 42.3939 40.5178 42.3457 40.3912 42.3315H40.3903L40.2574 42.312C39.9549 42.2575 39.6944 42.142 39.4801 42.0503C39.2264 41.9417 39.1082 41.6478 39.2164 41.394ZM29.7067 41.2671C29.9825 41.2674 30.2067 41.4911 30.2067 41.7671C30.2067 42.043 29.9825 42.2668 29.7067 42.2671C29.3684 42.2671 29.0294 42.2785 28.7223 42.3208C28.4798 42.3543 28.2176 42.3487 28.0309 42.3511C27.8218 42.3538 27.6713 42.3645 27.5485 42.4009C27.202 42.5042 26.8675 42.5005 26.6012 42.5005C26.3252 42.5005 26.1014 42.2764 26.1012 42.0005C26.1012 41.7243 26.3251 41.5005 26.6012 41.5005C26.8928 41.5005 27.0789 41.4976 27.2623 41.4429C27.5291 41.3635 27.8012 41.3539 28.0172 41.3511C28.256 41.348 28.4235 41.352 28.5856 41.3296C28.9604 41.2779 29.353 41.2671 29.7067 41.2671ZM40.5397 39.019C40.6476 38.765 40.9408 38.6466 41.1949 38.7544C41.428 38.8534 41.5537 38.9031 41.693 38.9126L41.692 38.9136C41.9543 38.9308 42.1888 39.0192 42.361 39.0894C42.5557 39.1687 42.671 39.2217 42.7936 39.2524C43.1185 39.332 43.4389 39.4551 43.7184 39.5737C43.9724 39.6817 44.0909 39.9759 43.983 40.23C43.875 40.4837 43.5817 40.6021 43.3278 40.4946C43.1311 40.4112 42.9346 40.3344 42.7448 40.2759L42.5563 40.2241H42.5553C42.34 40.1707 42.1222 40.0719 41.983 40.0151C41.8607 39.9653 41.7713 39.9341 41.6969 39.9194L41.6266 39.9106L41.5026 39.897C41.2208 39.8564 40.9833 39.7503 40.8043 39.6743C40.5504 39.5663 40.432 39.2731 40.5397 39.019ZM29.319 38.6821C29.5947 38.6826 29.819 38.9063 29.819 39.1821C29.819 39.458 29.5947 39.6816 29.319 39.6821C28.9808 39.6821 28.6416 39.6936 28.3346 39.7358C28.0922 39.7693 27.8299 39.7637 27.6432 39.7661C27.4343 39.7688 27.2835 39.7796 27.1608 39.8159C26.8138 39.9193 26.4778 39.9146 26.2135 39.9146C25.9375 39.9146 25.7128 39.6905 25.7125 39.4146C25.7125 39.1384 25.9374 38.9146 26.2135 38.9146C26.5068 38.9145 26.6919 38.9124 26.8746 38.8579C27.1413 38.7787 27.4136 38.7689 27.6295 38.7661C27.8681 38.763 28.0359 38.767 28.1979 38.7446C28.5726 38.693 28.9655 38.6821 29.319 38.6821ZM29.319 36.6255C29.5947 36.626 29.819 36.8497 29.819 37.1255C29.8188 37.4011 29.5945 37.625 29.319 37.6255C28.9808 37.6255 28.6416 37.6369 28.3346 37.6792C28.0922 37.7127 27.8299 37.7071 27.6432 37.7095C27.4342 37.7122 27.2835 37.723 27.1608 37.7593C26.8144 37.8625 26.4797 37.8589 26.2135 37.8589C25.9376 37.8589 25.7129 37.6347 25.7125 37.3589C25.7125 37.0827 25.9374 36.8589 26.2135 36.8589C26.5049 36.8589 26.6913 36.8559 26.8746 36.8013C27.1414 36.722 27.4135 36.7123 27.6295 36.7095C27.8681 36.7064 28.0359 36.7104 28.1979 36.688C28.5726 36.6364 28.9654 36.6255 29.319 36.6255Z" fill="#009951"/>
<path d="M24.9373 33.6405C27.2653 33.2259 28.9021 33.4492 29.5301 33.6717C29.6717 33.722 29.7944 33.8135 29.8826 33.9325L29.9588 34.0604L29.9763 34.1024C30.073 34.0859 30.1719 34.0705 30.2722 34.0536C30.9683 33.9362 31.7397 33.8101 32.5066 33.7079C33.2722 33.6059 34.0477 33.5255 34.7508 33.5038C35.4297 33.4828 36.0989 33.5146 36.6414 33.662C38.1325 34.0256 39.4181 34.6296 40.49 35.4491C40.5364 35.4061 40.5892 35.3692 40.6463 35.3387C40.8607 35.2241 41.1172 35.2204 41.3347 35.329C42.5451 35.9341 43.6783 37.1222 44.2273 39.3182C44.2542 39.4258 44.2569 39.5386 44.2351 39.6473C43.7223 42.211 42.7597 44.7062 41.2097 49.242C41.1206 49.503 40.8948 49.6947 40.6228 49.7401L39.4861 49.9286C39.0772 50.0845 38.6009 50.2107 38.0467 50.2889L37.9968 50.2958L37.947 50.2967C37.0599 50.3032 35.7402 50.1427 34.5974 49.6639C33.4048 49.165 32.649 48.4361 32.4422 47.4129C32.2973 46.7014 31.6653 46.2141 30.9646 46.2274C30.9537 48.6337 30.8924 50.977 30.8162 52.8241L30.8045 52.9305C30.7849 53.0354 30.7422 53.1354 30.6804 53.2235C30.3515 53.6917 29.7729 53.8501 29.3552 53.9178C28.8865 53.9938 28.3409 53.9972 27.8064 53.9667C26.7314 53.9052 25.5604 53.6963 24.8269 53.5223C24.5272 53.4512 24.3014 53.2042 24.2576 52.8993C24.214 52.5945 24.3611 52.294 24.6287 52.1415C24.8056 52.0405 24.9991 51.8364 25.1814 51.4608C25.3634 51.0856 25.5122 50.5826 25.6199 49.9569C25.8355 48.7045 25.8697 47.0789 25.7771 45.2743C25.6155 42.1231 25.0767 38.5412 24.5545 35.6942L24.3328 34.5223L24.3191 34.3739C24.3201 34.2255 24.3649 34.0792 24.45 33.9549C24.5637 33.7893 24.7395 33.6757 24.9373 33.6405ZM28.7185 35.0116C28.2306 34.9215 27.2827 34.8382 25.95 35.0038C26.5012 37.9436 27.0998 41.7968 27.2742 45.1971C27.369 47.0456 27.3416 48.7992 27.0984 50.2118C26.9768 50.9182 26.7958 51.5704 26.531 52.1161C26.4999 52.1801 26.4665 52.2433 26.4324 52.3055C26.9042 52.3794 27.4118 52.4412 27.8914 52.4686C28.3775 52.4964 28.8006 52.4873 29.115 52.4364C29.2074 52.4214 29.2781 52.4048 29.3308 52.3895C29.4394 49.5955 29.5138 45.7983 29.4324 42.3788C29.3898 40.5909 29.3056 38.9168 29.1638 37.5487C29.0454 36.4059 28.8901 35.546 28.7185 35.0116ZM34.7976 35.0038C34.1663 35.0233 33.4466 35.0954 32.7049 35.1942C31.9648 35.2928 31.2146 35.4161 30.5213 35.5331C30.4786 35.5402 30.4356 35.5454 30.3933 35.5526C30.5 36.104 30.5861 36.7293 30.6551 37.3944C30.8026 38.8182 30.8894 40.5358 30.9324 42.3426C30.951 43.1235 30.9596 43.9237 30.9636 44.7264L31.2156 44.7342C32.4643 44.8277 33.5562 45.7073 33.8787 46.9657L33.9129 47.1151C33.9771 47.4323 34.188 47.7911 34.8592 48.1346L35.1765 48.2811L35.5261 48.4129C35.9899 48.5702 36.4848 48.6704 36.9441 48.7293C36.8874 48.9233 36.8312 49.1115 36.7791 49.2938L37.2009 47.8553C38.2079 44.4812 39.6526 39.8836 40.1717 36.4911C40.1423 36.6763 40.1106 36.8653 40.0769 37.0575C39.0974 36.1627 37.843 35.4985 36.2869 35.119L36.2742 35.1161L36.2625 35.1131L36.1326 35.0809C35.812 35.013 35.3615 34.9864 34.7976 35.0038ZM41.5545 37.3163C40.9315 40.8578 39.4929 45.4117 38.5554 48.5624L39.9363 48.3329C41.391 44.0925 42.249 41.8232 42.7283 39.5223C42.4444 38.4807 42.0194 37.7855 41.5545 37.3163Z" fill="#1A1A1A"/>
<path d="M45.2213 46.439L43.9713 51.7964L40.2506 53.9829L34.7301 53.4917L37.0524 50.9478L37.4918 49.5435L40.2506 48.9712L42.4996 47.5005L43.4996 43.0005L45.2213 46.439ZM32.9108 46.8569V47.9634L32.4332 49.1206L30.5787 51.1265L28.6364 48.5425L29.3405 46.5815L29.8434 45.5249H31.528L32.9108 46.8569Z" fill="#E6E6E6"/>
<path d="M43.0013 42.4544C43.2628 42.1332 43.7357 42.0845 44.0569 42.346C46.274 44.151 46.7145 47.22 45.7464 49.6741C44.6932 52.3438 42.1134 54.2689 38.4827 54.7278L38.3724 54.7425L38.2766 53.9935L38.2776 53.9983L38.3724 54.7425L38.3352 54.7464L38.1878 54.7503C36.8351 54.7853 34.7862 54.5773 32.8733 53.7757C31.0045 52.9923 28.8269 51.4275 28.135 48.5774L28.0725 48.2982C27.7452 46.6849 28.7883 45.1138 30.4007 44.7864L30.4016 44.7855C31.9639 44.4698 33.4868 45.4385 33.8782 46.9651L33.9134 47.1146C33.9866 47.4772 34.252 47.8936 35.177 48.2806C36.0644 48.6524 37.1415 48.7938 37.8831 48.7952C39.6253 48.5375 40.0869 47.7835 40.2034 47.4876C40.3551 47.1022 40.7906 46.9121 41.1761 47.0638C41.5613 47.2155 41.7504 47.6511 41.5989 48.0364C41.2544 48.9119 40.2785 49.9735 38.0472 50.2884L37.9974 50.2952L37.9475 50.2962L37.596 50.2903C36.7334 50.2576 35.5981 50.0824 34.5979 49.6634C33.4054 49.1645 32.6496 48.4364 32.4427 47.4134L32.4056 47.2659C32.1827 46.5495 31.4494 46.1035 30.6985 46.2552L30.6995 46.2562C29.898 46.4189 29.3807 47.1997 29.5432 48.0003C30.0198 50.352 31.7697 51.6865 33.4524 52.3919C35.1231 53.0921 36.9495 53.2822 38.1468 53.2513L38.22 53.2493L38.2933 53.2396C41.484 52.8363 43.5342 51.1935 44.3509 49.1233C45.1286 47.1517 44.7222 44.8231 43.1097 43.5101C42.7884 43.2486 42.7397 42.7756 43.0013 42.4544Z" fill="#1A1A1A"/>
<path d="M19.6817 44.3867C19.9417 44.0725 20.398 44.0359 20.7009 44.3057C21.0036 44.5754 21.0379 45.0489 20.7781 45.3631C19.9866 46.3196 19.0716 46.5989 18.2268 46.4312C17.4499 46.277 16.8414 45.7674 16.5084 45.3592C16.2505 45.0431 16.2884 44.5703 16.5931 44.3027C16.8978 44.0352 17.3535 44.0745 17.6113 44.3906C17.8026 44.6251 18.1404 44.8868 18.4978 44.9579C18.7875 45.0154 19.1958 44.9739 19.6817 44.3867Z" fill="#1A1A1A"/>
<path d="M9.6084 44.3867C9.34839 44.0725 8.89207 44.0359 8.58921 44.3057C8.28646 44.5754 8.25216 45.0489 8.51204 45.3631C9.30348 46.3196 10.2185 46.5989 11.0633 46.4312C11.8402 46.277 12.4487 45.7674 12.7817 45.3592C13.0396 45.0431 13.0017 44.5703 12.697 44.3027C12.3923 44.0352 11.9366 44.0745 11.6788 44.3906C11.4875 44.6251 11.1497 44.8868 10.7923 44.9579C10.5026 45.0154 10.0943 44.9739 9.6084 44.3867Z" fill="#1A1A1A"/>
</svg>
