<svg width="48" height="55" viewBox="0 0 48 55" fill="none" xmlns="http://www.w3.org/2000/svg">
<path d="M6.5135 35.697L8.5881 33L10.7751 34.039L12.0614 36.509L18.3347 36.459L19.3331 34.382L21.7597 33.034L24.4047 35.16H25.9606L33.377 34.382L38.1483 35.16L41.5919 37.786L43.165 41.513L45.2016 45.222V48.074L44.0607 51.186L42.5048 52.431L36.4966 54.194L30.7913 51.86L25.9606 52.431L20.4113 54.194H18.5961L17.0921 51.86L8.9496 51.186L4.0745 53.105L2.2593 51.86L2 50.097L5.0222 47.99L4.6894 43.378L6.5135 35.697Z" fill="#F79722"/>
<path d="M31.209 46.0928C31.5936 46.0091 32.0106 46.0742 32.3633 46.3105C32.5 46.4022 32.6014 46.4998 32.6553 46.5537C32.7175 46.616 32.7726 46.6781 32.8165 46.7295C32.9033 46.8314 32.9895 46.9419 33.0586 47.0332C33.2312 47.2613 33.3067 47.37 33.3643 47.4375L32.586 48.1016V48.1025L33.3643 47.4375L33.3663 47.4395L33.419 47.4932C33.4752 47.5412 33.5623 47.5906 33.8653 47.8164C34.1686 48.0425 34.6811 48.4649 34.9141 49.2109L34.9571 49.3652C35.1309 50.0761 34.9632 50.852 34.667 51.3838C34.5315 51.6271 34.1952 52.137 33.543 52.3379C32.8094 52.5636 32.205 52.2694 31.8262 51.9199C31.8203 51.9172 31.8136 51.9142 31.8067 51.9111C31.6654 51.8489 31.5009 51.7877 31.2461 51.6885C31.0271 51.6032 30.7348 51.4868 30.4717 51.3477C30.3382 51.277 30.176 51.1814 30.0176 51.0576C29.8697 50.942 29.645 50.7404 29.4795 50.4336L29.4805 50.4326C29.1882 49.8907 29.1706 49.3549 29.2442 48.9297C29.3084 48.5594 29.453 48.2236 29.5127 48.0781C29.5304 48.0351 29.5443 47.9994 29.5557 47.9707C29.3754 47.3129 29.6624 46.5941 30.2881 46.2559C30.5809 46.0978 30.903 46.0496 31.209 46.0928ZM30.4766 49.8955L30.7998 49.7217L31.1954 49.5068H31.1944L30.4766 49.8955ZM30.001 34.5C30.3346 34.5 30.6416 34.6107 30.8907 34.7949C31.27 34.9049 31.6065 35.1624 31.8038 35.54C31.8787 35.6837 31.9208 35.8159 31.9424 35.8887C31.9673 35.9725 31.9869 36.0533 32.001 36.1191C32.0289 36.2498 32.051 36.3878 32.0684 36.501C32.1117 36.7824 32.1276 36.9144 32.1465 37.0029V37.0039L32.212 37.3818C32.2662 37.7766 32.289 38.2141 32.2881 38.6162C32.287 39.1418 32.2459 39.7659 32.1143 40.2695C32.0504 40.5142 31.918 40.8995 31.6075 41.2246C31.4384 41.4016 31.1804 41.5957 30.8262 41.6904C30.4562 41.7893 30.0921 41.7493 29.7852 41.624C29.2417 41.4022 28.9702 40.9652 28.8575 40.75C28.7199 40.4874 28.6384 40.2066 28.5889 39.9473C28.4812 39.3823 28.501 38.8446 28.501 38.4404V36C28.501 35.1716 29.1726 34.5 30.001 34.5ZM36.001 33.5C36.3761 33.5 36.7175 33.6396 36.9805 33.8672C37.3154 33.981 37.6101 34.2098 37.7969 34.5332L37.8672 34.6699L37.9356 34.8467C37.9941 35.0212 38.0243 35.181 38.0381 35.2559C38.0647 35.4003 38.0865 35.5571 38.1045 35.6934C38.147 36.0136 38.1679 36.2095 38.1915 36.3379L38.2549 36.7637C38.3081 37.2123 38.331 37.7194 38.3301 38.1953C38.329 38.8202 38.2865 39.5301 38.1622 40.083L38.1612 40.084C38.1038 40.3383 37.9883 40.7324 37.7081 41.0723C37.5565 41.256 37.2972 41.4951 36.9063 41.6162C36.4834 41.7472 36.0658 41.6903 35.7295 41.5312C35.1695 41.2662 34.921 40.7723 34.8301 40.5713C34.738 40.3675 34.6725 40.1507 34.626 39.9365L34.585 39.7236C34.4815 39.0956 34.501 38.5034 34.501 37.9824V35C34.501 34.1716 35.1726 33.5 36.001 33.5Z" fill="#DD7C0E"/>
<path opacity="0.7" d="M8.37207 44C9.68224 44 10.7441 44.9302 10.7441 46.0781C10.744 47.2259 9.68217 48.1562 8.37207 48.1562C7.06206 48.1562 6.00011 47.2259 6 46.0781C6 44.9303 7.06199 44.0001 8.37207 44ZM21.3721 44C22.6822 44 23.7441 44.9302 23.7441 46.0781C23.744 47.2259 22.6822 48.1562 21.3721 48.1562C20.0621 48.1562 19.0001 47.2259 19 46.0781C19 44.9303 20.062 44.0001 21.3721 44Z" fill="#E24C0C"/>
<path d="M34.751 33.503C35.4301 33.482 36.099 33.5137 36.6416 33.6612C38.8982 34.2115 40.686 35.3094 41.9707 36.877C43.2127 38.3926 43.9493 40.3052 44.2256 42.4903C46.2947 44.3111 46.6893 47.2835 45.7461 49.6739C44.6928 52.3435 42.1137 54.2687 38.4824 54.7276L38.3721 54.7423L38.2774 53.9981V54.003L38.3721 54.7423L38.335 54.7462L38.1865 54.7501L38.167 54.0011L38.1641 53.919L38.1865 54.7501C36.8342 54.785 34.7858 54.577 32.8731 53.7755C32.3103 53.5396 31.7211 53.2303 31.1514 52.8389C29.9944 52.7174 29.0181 52.6204 28.1221 52.5138C26.7976 52.3565 25.3815 52.954 24.0635 53.7882C23.1446 54.3692 22.0424 54.8403 20.9648 54.9522C19.9398 55.0587 18.8679 54.8405 18.0723 54.005L17.917 53.8302C17.5002 53.3247 17.2457 52.7951 17.1514 52.2579C16.4991 52.3204 15.9185 52.3487 15.1065 52.3487C13.133 52.3487 11.2376 52.1701 9.57813 51.7296C8.7951 52.5023 7.51312 53.2096 6.25196 53.5763C5.51541 53.7904 4.7265 53.907 3.99024 53.8272C3.29331 53.7517 2.60196 53.4934 2.08497 52.9356L1.98438 52.8194C1.4573 52.1798 1.21819 51.4871 1.25294 50.7901C1.28696 50.1087 1.57844 49.5044 1.96192 49.0098C2.51739 48.2936 3.33013 47.7243 4.13282 47.378C3.89186 46.687 3.7676 45.9237 3.76758 45.088C3.76758 43.4835 3.76613 42.2651 4.11622 40.5489C4.29475 38.5625 4.84542 35.5885 6.54493 33.2852L6.66797 33.1309C7.31105 32.3898 8.34212 32.0765 9.29493 32.3448C9.91748 32.5201 10.6751 32.8247 11.375 33.4356C11.999 33.9804 12.5446 34.7418 12.919 35.7999C13.5475 35.6286 14.2277 35.421 15.1065 35.421C16.03 35.421 16.8845 35.6222 17.6533 35.8243C18.0101 34.811 18.5212 34.0642 19.1094 33.5177C19.8203 32.8572 20.6019 32.528 21.2529 32.3448L21.4443 32.2989C22.4041 32.108 23.4208 32.4853 24.002 33.3048C24.3045 33.7316 24.5624 34.1833 24.7852 34.6456H25.6211C26.4195 34.6428 27.3816 34.506 28.4746 34.3487L28.6885 35.8331C27.628 35.9857 26.5514 36.1424 25.626 36.1456L25.6231 35.0958V35.3956L25.626 36.1456H25.3799C25.4958 36.5052 25.5963 36.864 25.6816 37.2179C25.7787 37.6205 25.5315 38.026 25.1289 38.1231C24.7262 38.2202 24.3207 37.9721 24.2236 37.5694C23.9325 36.3621 23.4838 35.1685 22.7783 34.1729C22.5362 33.8314 22.0806 33.6705 21.6592 33.7891C21.1587 33.93 20.6148 34.1667 20.1299 34.6173C19.6494 35.0638 19.1841 35.7597 18.8984 36.8878L18.8975 36.8868C18.8118 37.2268 18.506 37.4776 18.1406 37.4776H18.1201C18.1078 37.4773 18.0882 37.476 18.0645 37.4737C18.0327 37.4706 17.9921 37.4625 17.9453 37.4503V37.4532C16.9137 37.1872 16.0656 36.921 15.1065 36.921C14.2547 36.921 13.8602 37.1368 12.8359 37.3721L12.8242 37.3741C12.2787 37.4903 11.7632 37.1528 11.6172 36.6466L11.4981 36.2774C11.2045 35.4583 10.8011 34.9256 10.3887 34.5655C9.91171 34.1492 9.38077 33.9278 8.88868 33.7891C8.47052 33.6714 8.00867 33.8291 7.75196 34.1759C6.30626 36.1352 5.78755 38.7583 5.61426 40.6554C5.6132 40.6845 5.61006 40.7138 5.60547 40.7432C5.60352 40.7655 5.60158 40.7882 5.59962 40.8116C5.59441 40.8735 5.57861 40.932 5.55958 40.9884C5.27029 42.4688 5.26758 43.5361 5.26758 45.088C5.26761 46.1933 5.53204 47.0723 5.98243 47.7794C6.43485 48.4896 7.10159 49.0683 7.96876 49.5264C9.72451 50.4539 12.2266 50.8487 15.1065 50.8487C15.9947 50.8487 16.5743 50.8114 17.3281 50.7296C17.41 50.5357 17.5109 50.3524 17.627 50.1817C18.2718 49.2338 19.4022 48.5944 20.4238 48.3546C20.8269 48.2601 21.2305 48.5101 21.3252 48.9132C21.4199 49.3163 21.1697 49.7197 20.7666 49.8145C20.0206 49.9897 19.2538 50.4571 18.8672 51.0255C18.6827 51.2967 18.5971 51.5704 18.6094 51.8438C18.6216 52.1156 18.7333 52.4626 19.0742 52.8761C19.4678 53.3537 20.0483 53.54 20.8096 53.461C21.5869 53.3802 22.4679 53.0225 23.2617 52.5206C24.6516 51.6409 26.4427 50.8039 28.2998 51.0245C28.635 51.0644 28.9814 51.1005 29.3457 51.1397C28.7604 50.3667 28.3014 49.4291 28.0723 48.2979C27.7456 46.6848 28.7892 45.1135 30.4014 44.7862L30.5498 45.5206L30.6992 46.2559C29.8982 46.4187 29.3808 47.1992 29.543 48.0001C30.0193 50.3518 31.77 51.6862 33.4531 52.3917C35.124 53.0919 36.9498 53.282 38.1465 53.2511L38.2197 53.2491L38.294 53.2393L38.5899 53.1983C41.6121 52.7335 43.5602 51.1287 44.3516 49.1231C45.1293 47.1516 44.7217 44.8229 43.1094 43.5098L43.084 43.4884C42.9008 43.3253 42.7884 43.101 42.7617 42.8634C42.5317 40.8164 41.8713 39.1226 40.8106 37.8282C39.7537 36.5386 38.2628 35.6 36.2871 35.1182L36.2617 35.1124L36.4649 34.3897L36.4668 34.38L36.2617 35.1124C35.9379 35.0215 35.4415 34.9831 34.7969 35.003C34.1656 35.0225 33.4468 35.0946 32.7051 35.1934C31.9649 35.2921 31.215 35.4153 30.5215 35.5323C29.835 35.6481 29.1907 35.7604 28.6885 35.8331L28.582 35.0909L28.4746 34.3487C28.9538 34.2794 29.5685 34.1714 30.2715 34.0528C30.9678 33.9353 31.7395 33.8094 32.5068 33.7071C33.2726 33.6051 34.0478 33.5247 34.751 33.503ZM4.80762 48.7227C4.19538 48.9718 3.55201 49.4072 3.14747 49.9288C2.89513 50.2542 2.7656 50.5721 2.75098 50.8653C2.73721 51.1428 2.82149 51.4768 3.14161 51.8653C3.35097 52.1193 3.6775 52.2846 4.15137 52.336C4.63242 52.3882 5.21595 52.3152 5.83301 52.1358C6.61105 51.9097 7.34943 51.5414 7.91016 51.1573C7.68994 51.0617 7.47515 50.9617 7.26856 50.8526C6.26978 50.325 5.42104 49.6275 4.80762 48.7227ZM30.4014 44.7862C32.0139 44.4602 33.5865 45.5023 33.9131 47.1153C33.9775 47.4327 34.1882 47.7903 34.8594 48.1339L35.1768 48.2804L35.5264 48.4122C36.335 48.6864 37.2368 48.7937 37.8828 48.795C39.6254 48.5372 40.0876 47.7827 40.2041 47.4874C40.2977 47.2499 40.2855 47.0872 40.2656 46.9991C40.2559 46.9561 40.2431 46.927 40.2354 46.9122C39.9684 46.6436 39.9413 46.2116 40.1856 45.9112C40.4469 45.5902 40.919 45.5418 41.2402 45.8028C41.4739 45.9929 41.6502 46.3169 41.7295 46.6671C41.8165 47.0515 41.8032 47.5221 41.5996 48.0382C41.2548 48.9122 40.2782 49.9733 38.0469 50.2882L37.9971 50.295L37.9473 50.296L37.5957 50.2901C36.7335 50.2574 35.5978 50.0822 34.5977 49.6632C33.4049 49.1642 32.6495 48.4353 32.4424 47.4122C32.28 46.6116 31.4998 46.0943 30.6992 46.2559L30.4014 44.7862Z" fill="#1A1A1A"/>
<path opacity="0.7" d="M8.29489 35.2947C8.4734 35.0528 8.78971 34.9452 9.07907 35.0272C9.43488 35.1275 10.2035 35.8204 10.6425 36.5692C10.8204 36.8722 10.6108 37.2194 10.2714 37.3104C9.50195 37.5164 8.88517 37.8062 8.1777 38.3221C7.73681 38.643 7.16263 38.3266 7.30172 37.7987C7.54682 36.8687 7.91114 35.8147 8.29489 35.2947ZM21.9209 35.0272C22.2102 34.9452 22.5265 35.0528 22.705 35.2947C23.0888 35.8147 23.4531 36.8687 23.6982 37.7987C23.8373 38.3266 23.2631 38.643 22.8222 38.3221C22.1148 37.8062 21.498 37.5164 20.7285 37.3104C20.3891 37.2194 20.1795 36.8722 20.3574 36.5692C20.7965 35.8204 21.565 35.1275 21.9209 35.0272Z" fill="#E24C0C"/>
<path d="M14.9609 47.5C15.2371 47.5 15.4609 47.7239 15.4609 48C15.4609 48.2761 15.2371 48.5 14.9609 48.5H14C13.7239 48.5 13.5 48.2761 13.5 48C13.5 47.7239 13.7239 47.5 14 47.5H14.9609Z" fill="#1A1A1A"/>
<path d="M19.6816 44.3862C19.9417 44.072 20.398 44.0354 20.7008 44.3052C21.0036 44.5749 21.0379 45.0484 20.778 45.3626C19.9866 46.3191 19.0715 46.5984 18.2267 46.4307C17.4498 46.2765 16.8413 45.7669 16.5083 45.3587C16.2505 45.0426 16.2884 44.5698 16.593 44.3023C16.8977 44.0347 17.3534 44.074 17.6113 44.3901C17.8026 44.6247 18.1404 44.8863 18.4978 44.9574C18.7874 45.0149 19.1958 44.9734 19.6816 44.3862Z" fill="#1A1A1A"/>
<path d="M9.60843 44.3862C9.34842 44.072 8.8921 44.0354 8.58924 44.3052C8.28649 44.5749 8.25219 45.0484 8.51207 45.3626C9.30351 46.3191 10.2186 46.5984 11.0633 46.4307C11.8402 46.2765 12.4487 45.7669 12.7818 45.3587C13.0396 45.0426 13.0017 44.5698 12.6971 44.3023C12.3924 44.0347 11.9367 44.074 11.6788 44.3901C11.4875 44.6247 11.1497 44.8863 10.7923 44.9574C10.5026 45.0149 10.0943 44.9734 9.60843 44.3862Z" fill="#1A1A1A"/>
</svg>
